<?xml version="1.0" encoding="utf-8"?>
<!-- Generator: Adobe Illustrator 16.0.3, SVG Export Plug-In . SVG Version: 6.00 Build 0)  -->
<!DOCTYPE svg PUBLIC "-//W3C//DTD SVG 1.1//EN" "http://www.w3.org/Graphics/SVG/1.1/DTD/svg11.dtd">
<svg version="1.1" xmlns="http://www.w3.org/2000/svg" xmlns:xlink="http://www.w3.org/1999/xlink" x="0px" y="0px"
	 width="351.625px" height="40.155px" viewBox="0 0 351.625 40.155" enable-background="new 0 0 351.625 40.155"
	 xml:space="preserve">
<g id="Layer_1" display="none">
	<rect display="inline" fill="#FF0069" width="351.625" height="40.155"/>
	<g display="inline">
		<path fill="#FFFFFF" d="M178.69,15.522c-0.604-0.773-1.812-1.135-2.729-1.135c-1.063,0-2.536,0.483-2.536,1.763
			c0,3.116,7.874,1.111,7.874,7.102c0,3.816-3.067,5.628-6.594,5.628c-2.198,0-4.131-0.652-5.749-2.149l2.681-2.947
			c0.773,1.014,2.029,1.618,3.285,1.618c1.232,0,2.609-0.58,2.609-1.788c0-3.14-8.02-1.449-8.02-7.15
			c0-3.647,3.164-5.555,6.521-5.555c1.933,0,3.792,0.507,5.241,1.787L178.69,15.522z"/>
		<path fill="#FFFFFF" d="M194.924,15.788c-0.749-0.894-1.836-1.401-3.237-1.401c-2.85,0-4.951,2.319-4.951,5.507
			s2.102,5.507,4.831,5.507c1.521,0,2.754-0.676,3.526-1.836l3.14,2.343c-1.425,2.029-3.84,2.971-6.184,2.971
			c-5.338,0-9.227-3.502-9.227-8.985s3.889-8.985,9.227-8.985c1.909,0,4.324,0.652,5.773,2.512L194.924,15.788z"/>
		<path fill="#FFFFFF" d="M199.926,11.344h3.768v6.377h7.319v-6.377h3.769v17.102h-3.769v-7.391h-7.319v7.391h-3.768V11.344z"/>
		<path fill="#FFFFFF" d="M226.207,10.909c5.339,0,9.228,3.502,9.228,8.985s-3.889,8.985-9.228,8.985
			c-5.338,0-9.227-3.502-9.227-8.985S220.869,10.909,226.207,10.909z M226.207,25.402c3.213,0,5.314-2.319,5.314-5.507
			s-2.102-5.507-5.314-5.507c-3.212,0-5.313,2.319-5.313,5.507S222.995,25.402,226.207,25.402z"/>
		<path fill="#FFFFFF" d="M245.943,10.909c5.339,0,9.228,3.502,9.228,8.985s-3.889,8.985-9.228,8.985
			c-5.338,0-9.227-3.502-9.227-8.985S240.605,10.909,245.943,10.909z M245.943,25.402c3.213,0,5.314-2.319,5.314-5.507
			s-2.102-5.507-5.314-5.507c-3.212,0-5.313,2.319-5.313,5.507S242.731,25.402,245.943,25.402z"/>
		<path fill="#FFFFFF" d="M257.516,11.344h3.769v13.624h6.98v3.478h-10.749V11.344z"/>
		<path fill="#FFFFFF" d="M270.125,11.344h3.769v7.102l6.643-7.102h4.928l-7.609,7.947l8.261,9.155h-5.266l-6.956-8.116v8.116
			h-3.769V11.344z"/>
		<path fill="#FFFFFF" d="M287.011,11.344h3.769v17.102h-3.769V11.344z"/>
		<path fill="#FFFFFF" d="M297.156,14.677h-4.879v-3.333h13.526v3.333h-4.879v13.768h-3.769V14.677z"/>
	</g>
	<g display="inline">
		<path fill="#FFFFFF" d="M25.919,11.111h1.574L34.391,27.5h-1.713l-1.782-4.352h-8.68L20.363,27.5h-1.597L25.919,11.111z
			 M26.636,12.778l-3.819,8.981h7.523L26.636,12.778z"/>
		<path fill="#FFFFFF" d="M36.41,11.111h4.722c2.315,0,5.278,0.903,5.278,4.329c0,2.963-2.361,4.283-4.931,4.283h-3.542V27.5H36.41
			V11.111z M37.938,18.333h3.472c1.736,0,3.472-0.741,3.472-2.894c0-2.106-1.806-2.939-3.564-2.939h-3.38V18.333z"/>
		<path fill="#FFFFFF" d="M49.353,11.111h4.722c2.315,0,5.278,0.903,5.278,4.329c0,2.963-2.361,4.283-4.931,4.283H50.88V27.5h-1.528
			V11.111z M50.88,18.333h3.472c1.736,0,3.472-0.741,3.472-2.894c0-2.106-1.806-2.939-3.564-2.939h-3.38V18.333z"/>
		<path fill="#FFFFFF" d="M62.296,11.111h1.528v15h7.639V27.5h-9.167V11.111z"/>
		<path fill="#FFFFFF" d="M74.591,20.44l-6.018-9.329h1.829l4.954,7.778l5.069-7.778h1.713l-6.019,9.329v7.06h-1.528V20.44z"/>
		<path fill="#FFFFFF" d="M108.74,24.931c-1.551,2.129-3.68,2.986-6.088,2.986c-5,0-8.472-3.611-8.472-8.611
			s3.472-8.611,8.472-8.611c2.222,0,4.213,0.741,5.648,2.569l-1.25,1.042c-1.019-1.527-2.755-2.222-4.398-2.222
			c-4.282,0-6.944,3.148-6.944,7.222c0,4.074,2.662,7.222,6.944,7.222c1.644,0,3.681-0.787,4.838-2.546L108.74,24.931z"/>
		<path fill="#FFFFFF" d="M118.605,10.695c5,0,8.472,3.611,8.472,8.611s-3.472,8.611-8.472,8.611c-5,0-8.472-3.611-8.472-8.611
			S113.606,10.695,118.605,10.695z M118.605,26.528c4.283,0,6.944-3.148,6.944-7.222c0-4.074-2.662-7.222-6.944-7.222
			c-4.282,0-6.944,3.148-6.944,7.222C111.662,23.38,114.323,26.528,118.605,26.528z"/>
		<path fill="#FFFFFF" d="M129.954,11.111h5.069c8.518,0,8.865,6.991,8.865,8.194s-0.347,8.194-8.865,8.194h-5.069V11.111z
			 M131.482,26.111h3.148c4.352,0,7.731-2.106,7.731-6.806c0-4.699-3.379-6.805-7.731-6.805h-3.148V26.111z"/>
		<path fill="#FFFFFF" d="M146.973,11.111h10.023V12.5H148.5v5.833h7.963v1.389H148.5v6.389h8.866V27.5h-10.394V11.111z"/>
		<path fill="#FFFFFF" d="M161.12,16.667c0.625,0,1.111,0.486,1.111,1.111s-0.486,1.111-1.111,1.111s-1.111-0.486-1.111-1.111
			S160.495,16.667,161.12,16.667z M161.12,25.417c0.625,0,1.111,0.486,1.111,1.111s-0.486,1.111-1.111,1.111
			s-1.111-0.486-1.111-1.111S160.495,25.417,161.12,25.417z"/>
	</g>
	<g display="inline">
		<g>
			<path fill="#FFFFFF" d="M323.614,16.702c-0.222,0-0.457-0.17-0.525-0.382l-2.174-6.684c-0.068-0.212-0.179-0.212-0.247,0
				l-2.171,6.684c-0.068,0.212-0.305,0.382-0.528,0.382h-7.026c-0.223,0-0.258,0.106-0.077,0.235l5.685,4.132
				c0.181,0.13,0.271,0.406,0.202,0.618l-2.173,6.684c-0.069,0.21,0.022,0.277,0.202,0.145l5.685-4.13
				c0.181-0.131,0.471-0.131,0.652,0l5.686,4.132c0.179,0.13,0.269,0.065,0.2-0.147l-2.171-6.684c-0.067-0.212,0.02-0.488,0.2-0.618
				l5.687-4.132c0.179-0.129,0.146-0.235-0.076-0.235H323.614z M323.614,16.702"/>
		</g>
	</g>
</g>
<g id="Layer_5">
	<rect fill="#40D31C" width="351.625" height="40.155"/>
	<g>
		<path fill="#FFFFFF" d="M181.69,15.522c-0.604-0.773-1.812-1.135-2.729-1.135c-1.063,0-2.536,0.483-2.536,1.763
			c0,3.116,7.874,1.111,7.874,7.102c0,3.816-3.067,5.628-6.594,5.628c-2.198,0-4.131-0.652-5.749-2.149l2.681-2.947
			c0.773,1.014,2.029,1.618,3.285,1.618c1.232,0,2.609-0.58,2.609-1.788c0-3.14-8.02-1.449-8.02-7.15
			c0-3.647,3.164-5.555,6.521-5.555c1.933,0,3.792,0.507,5.241,1.787L181.69,15.522z"/>
		<path fill="#FFFFFF" d="M197.924,15.788c-0.749-0.894-1.836-1.401-3.237-1.401c-2.85,0-4.951,2.319-4.951,5.507
			s2.102,5.507,4.831,5.507c1.521,0,2.754-0.676,3.526-1.836l3.14,2.343c-1.425,2.029-3.84,2.971-6.184,2.971
			c-5.338,0-9.227-3.502-9.227-8.985s3.889-8.985,9.227-8.985c1.909,0,4.324,0.652,5.773,2.512L197.924,15.788z"/>
		<path fill="#FFFFFF" d="M202.926,11.344h3.768v6.377h7.319v-6.377h3.769v17.102h-3.769v-7.391h-7.319v7.391h-3.768V11.344z"/>
		<path fill="#FFFFFF" d="M229.207,10.909c5.339,0,9.228,3.502,9.228,8.985s-3.889,8.985-9.228,8.985
			c-5.338,0-9.227-3.502-9.227-8.985S223.869,10.909,229.207,10.909z M229.207,25.402c3.213,0,5.314-2.319,5.314-5.507
			s-2.102-5.507-5.314-5.507c-3.212,0-5.313,2.319-5.313,5.507S225.995,25.402,229.207,25.402z"/>
		<path fill="#FFFFFF" d="M248.943,10.909c5.339,0,9.228,3.502,9.228,8.985s-3.889,8.985-9.228,8.985
			c-5.338,0-9.227-3.502-9.227-8.985S243.605,10.909,248.943,10.909z M248.943,25.402c3.213,0,5.314-2.319,5.314-5.507
			s-2.102-5.507-5.314-5.507c-3.212,0-5.313,2.319-5.313,5.507S245.731,25.402,248.943,25.402z"/>
		<path fill="#FFFFFF" d="M260.516,11.344h3.769v13.624h6.98v3.478h-10.749V11.344z"/>
		<path fill="#FFFFFF" d="M273.125,11.344h3.769v7.102l6.643-7.102h4.928l-7.609,7.947l8.261,9.155h-5.266l-6.956-8.116v8.116
			h-3.769V11.344z"/>
		<path fill="#FFFFFF" d="M290.011,11.344h3.769v17.102h-3.769V11.344z"/>
		<path fill="#FFFFFF" d="M300.156,14.677h-4.879v-3.333h13.526v3.333h-4.879v13.768h-3.769V14.677z"/>
	</g>
	<g>
		<path fill="#FFFFFF" d="M28.695,25.279c-1.34,1.841-3.181,2.581-5.261,2.581c-4.321,0-7.322-3.121-7.322-7.441
			s3.001-7.441,7.322-7.441c1.92,0,3.641,0.64,4.881,2.22l-1.08,0.9c-0.88-1.32-2.38-1.92-3.801-1.92
			c-3.701,0-6.001,2.721-6.001,6.241c0,3.521,2.301,6.241,6.001,6.241c1.42,0,3.181-0.68,4.181-2.2L28.695,25.279z"/>
		<path fill="#FFFFFF" d="M37.213,12.977c4.321,0,7.322,3.121,7.322,7.441s-3.001,7.441-7.322,7.441s-7.322-3.121-7.322-7.441
			S32.893,12.977,37.213,12.977z M37.213,26.66c3.701,0,6.001-2.72,6.001-6.241c0-3.521-2.301-6.241-6.001-6.241
			s-6.001,2.721-6.001,6.241C31.212,23.939,33.513,26.66,37.213,26.66z"/>
		<path fill="#FFFFFF" d="M47.012,13.337h4.381c7.362,0,7.662,6.042,7.662,7.082s-0.3,7.082-7.662,7.082h-4.381V13.337z
			 M48.332,26.3h2.721c3.761,0,6.681-1.82,6.681-5.881s-2.92-5.881-6.681-5.881h-2.721V26.3z"/>
		<path fill="#FFFFFF" d="M61.712,13.337h8.662v1.2h-7.341v5.041h6.881v1.2h-6.881V26.3h7.662v1.2h-8.982V13.337z"/>
		<path fill="#FFFFFF" d="M82.513,13.337h1.36L89.834,27.5h-1.48l-1.541-3.761h-7.501l-1.6,3.761h-1.38L82.513,13.337z
			 M83.133,14.777l-3.301,7.762h6.501L83.133,14.777z"/>
		<path fill="#FFFFFF" d="M91.572,13.337h4.081c2,0,4.561,0.78,4.561,3.741c0,2.561-2.04,3.701-4.261,3.701h-3.061V27.5h-1.32
			V13.337z M92.892,19.578h3c1.5,0,3.001-0.64,3.001-2.5c0-1.82-1.561-2.541-3.081-2.541h-2.92V19.578z"/>
		<path fill="#FFFFFF" d="M102.751,13.337h4.081c2,0,4.561,0.78,4.561,3.741c0,2.561-2.04,3.701-4.261,3.701h-3.061V27.5h-1.32
			V13.337z M104.072,19.578h3c1.5,0,3.001-0.64,3.001-2.5c0-1.82-1.561-2.541-3.081-2.541h-2.92V19.578z"/>
		<path fill="#FFFFFF" d="M113.931,13.337h1.32V26.3h6.602v1.2h-7.922V13.337z"/>
		<path fill="#FFFFFF" d="M123.631,13.337h1.32V27.5h-1.32V13.337z"/>
		<path fill="#FFFFFF" d="M128.531,13.337h8.662v1.2h-7.341v5.041h6.881v1.2h-6.881V26.3h7.662v1.2h-8.982V13.337z"/>
		<path fill="#FFFFFF" d="M139.911,13.337h4.381c7.362,0,7.662,6.042,7.662,7.082s-0.3,7.082-7.662,7.082h-4.381V13.337z
			 M141.231,26.3h2.721c3.761,0,6.682-1.82,6.682-5.881s-2.921-5.881-6.682-5.881h-2.721V26.3z"/>
		<path fill="#FFFFFF" d="M155.68,16.667c0.625,0,1.111,0.486,1.111,1.111s-0.486,1.111-1.111,1.111s-1.111-0.486-1.111-1.111
			S155.055,16.667,155.68,16.667z M155.68,25.417c0.625,0,1.111,0.486,1.111,1.111s-0.486,1.111-1.111,1.111
			s-1.111-0.486-1.111-1.111S155.055,25.417,155.68,25.417z"/>
	</g>
	<g>
		<polygon fill="#FFFFFF" points="333.249,13.039 325.661,22.423 320.207,17.959 318.101,20.533 323.57,25.01 326.144,27.117 
			328.235,24.53 335.835,15.129 		"/>
	</g>
</g>
</svg>
