<?xml version="1.0" encoding="utf-8"?>
<!-- Generator: Adobe Illustrator 16.0.3, SVG Export Plug-In . SVG Version: 6.00 Build 0)  -->
<!DOCTYPE svg PUBLIC "-//W3C//DTD SVG 1.1//EN" "http://www.w3.org/Graphics/SVG/1.1/DTD/svg11.dtd">
<svg version="1.1" xmlns="http://www.w3.org/2000/svg" xmlns:xlink="http://www.w3.org/1999/xlink" x="0px" y="0px"
	 width="296.583px" height="40.155px" viewBox="0 0 296.583 40.155" enable-background="new 0 0 296.583 40.155"
	 xml:space="preserve">
<g id="Layer_1">
	<rect fill="#3A52EB" width="296.583" height="40.155"/>
	<g>
		<path fill="#FFFFFF" d="M190.022,22.721c0,3.164-0.821,6.159-5.459,6.159c-2.706,0-4.687-1.256-5.242-3.985l3.454-0.845
			c0.097,0.821,0.87,1.498,1.691,1.498c1.763,0,1.787-1.957,1.787-3.237V11.344h3.769V22.721z"/>
		<path fill="#FFFFFF" d="M207.318,21.851c0,4.034-2.464,7.029-7.198,7.029c-4.758,0-7.222-2.995-7.222-7.029V11.344h3.768v10.362
			c0,2.102,1.45,3.696,3.454,3.696c1.981,0,3.431-1.594,3.431-3.696V11.344h3.768V21.851z"/>
		<path fill="#FFFFFF" d="M210.581,11.344h3.769v13.624h6.98v3.478h-10.749V11.344z"/>
		<path fill="#FFFFFF" d="M224.568,21.15l-6.426-9.807h4.687l3.623,6.401l3.841-6.401h4.469l-6.426,9.807v7.295h-3.768V21.15z"/>
		<path fill="#FFFFFF" d="M235.101,24.604l6.643-5.966c0.676-0.628,1.521-1.353,1.521-2.392c0-1.159-0.99-1.86-2.102-1.86
			c-1.328,0-2.125,0.942-2.222,2.174l-3.623-0.266c0.217-3.526,2.681-5.241,6.038-5.241c3.116,0,5.531,1.715,5.531,5.145
			c0,2.198-0.941,3.454-2.246,4.589l-5.193,4.469h7.585v3.188h-11.933V24.604z"/>
		<path fill="#FFFFFF" d="M254.812,15.402l-3.43,3.019l-2.053-2.367l5.579-4.71h3.382v17.102h-3.479V15.402z"/>
	</g>
	<g>
		<path fill="#FFFFFF" d="M40.713,12.111h1.574L49.185,28.5h-1.713l-1.782-4.352h-8.68L35.158,28.5h-1.597L40.713,12.111z
			 M41.431,13.778l-3.819,8.981h7.523L41.431,13.778z"/>
		<path fill="#FFFFFF" d="M51.204,12.111h4.722c2.315,0,5.278,0.903,5.278,4.329c0,2.963-2.361,4.283-4.931,4.283h-3.542V28.5
			h-1.528V12.111z M52.731,19.333h3.472c1.736,0,3.472-0.741,3.472-2.894c0-2.106-1.806-2.939-3.564-2.939h-3.38V19.333z"/>
		<path fill="#FFFFFF" d="M64.147,12.111h4.722c2.315,0,5.278,0.903,5.278,4.329c0,2.963-2.361,4.283-4.931,4.283h-3.542V28.5
			h-1.528V12.111z M65.675,19.333h3.472c1.736,0,3.472-0.741,3.472-2.894c0-2.106-1.806-2.939-3.564-2.939h-3.38V19.333z"/>
		<path fill="#FFFFFF" d="M77.09,12.111h1.528v15h7.639V28.5H77.09V12.111z"/>
		<path fill="#FFFFFF" d="M89.385,21.44l-6.018-9.329h1.829l4.954,7.778l5.069-7.778h1.713l-6.019,9.329v7.06h-1.528V21.44z"/>
		<path fill="#FFFFFF" d="M117.862,25.931c-1.551,2.129-3.68,2.986-6.088,2.986c-5,0-8.472-3.611-8.472-8.611
			s3.472-8.611,8.472-8.611c2.222,0,4.213,0.741,5.648,2.569l-1.25,1.042c-1.019-1.527-2.755-2.222-4.398-2.222
			c-4.282,0-6.944,3.148-6.944,7.222c0,4.074,2.662,7.222,6.944,7.222c1.644,0,3.681-0.787,4.838-2.546L117.862,25.931z"/>
		<path fill="#FFFFFF" d="M127.728,11.695c5,0,8.472,3.611,8.472,8.611s-3.472,8.611-8.472,8.611c-5,0-8.472-3.611-8.472-8.611
			S122.729,11.695,127.728,11.695z M127.728,27.528c4.283,0,6.944-3.148,6.944-7.222c0-4.074-2.662-7.222-6.944-7.222
			c-4.282,0-6.944,3.148-6.944,7.222C120.784,24.38,123.446,27.528,127.728,27.528z"/>
		<path fill="#FFFFFF" d="M139.077,12.111h5.068c8.519,0,8.865,6.991,8.865,8.194s-0.347,8.194-8.865,8.194h-5.068V12.111z
			 M140.604,27.111h3.148c4.352,0,7.73-2.106,7.73-6.806c0-4.699-3.379-6.805-7.73-6.805h-3.148V27.111z"/>
		<path fill="#FFFFFF" d="M156.095,12.111h10.023V13.5h-8.495v5.833h7.963v1.389h-7.963v6.389h8.866V28.5h-10.395V12.111z"/>
		<path fill="#FFFFFF" d="M170.243,17.667c0.625,0,1.11,0.486,1.11,1.111s-0.485,1.111-1.11,1.111s-1.111-0.486-1.111-1.111
			S169.618,17.667,170.243,17.667z M170.243,26.417c0.625,0,1.11,0.486,1.11,1.111s-0.485,1.111-1.11,1.111
			s-1.111-0.486-1.111-1.111S169.618,26.417,170.243,26.417z"/>
	</g>
</g>
<g id="Layer_5" display="none">
	<rect display="inline" fill="#40D31C" width="296.583" height="40.155"/>
	<g display="inline">
		<path fill="#FFFFFF" d="M192.085,22.686c0,3.084-0.801,6.004-5.321,6.004c-2.637,0-4.567-1.224-5.109-3.885l3.367-0.824
			c0.095,0.801,0.848,1.46,1.648,1.46c1.719,0,1.742-1.907,1.742-3.155V11.597h3.673V22.686z"/>
		<path fill="#FFFFFF" d="M208.941,21.838c0,3.932-2.401,6.852-7.016,6.852c-4.639,0-7.04-2.919-7.04-6.852V11.597h3.673v10.101
			c0,2.048,1.413,3.602,3.367,3.602c1.931,0,3.343-1.554,3.343-3.602V11.597h3.673V21.838z"/>
		<path fill="#FFFFFF" d="M212.118,11.597h3.673v13.279h6.804v3.391h-10.477V11.597z"/>
		<path fill="#FFFFFF" d="M225.748,21.156l-6.263-9.559h4.567l3.531,6.239l3.744-6.239h4.355l-6.263,9.559v7.11h-3.673V21.156z"/>
		<path fill="#FFFFFF" d="M236.011,24.522l6.475-5.815c0.66-0.612,1.483-1.318,1.483-2.331c0-1.13-0.965-1.813-2.048-1.813
			c-1.295,0-2.072,0.918-2.166,2.119l-3.532-0.259c0.212-3.438,2.613-5.109,5.887-5.109c3.037,0,5.392,1.672,5.392,5.015
			c0,2.143-0.919,3.367-2.189,4.474l-5.063,4.355h7.393v3.108h-11.631V24.522z"/>
		<path fill="#FFFFFF" d="M255.222,15.552l-3.344,2.943l-2.001-2.307l5.438-4.591h3.296v16.669h-3.39V15.552z"/>
	</g>
	<g display="inline">
		<path fill="#FFFFFF" d="M32.115,25.814c-1.512,2.076-3.588,2.911-5.936,2.911c-4.875,0-8.26-3.521-8.26-8.395
			c0-4.875,3.385-8.396,8.26-8.396c2.167,0,4.107,0.722,5.507,2.505l-1.219,1.016c-0.993-1.489-2.686-2.167-4.288-2.167
			c-4.175,0-6.77,3.069-6.77,7.042c0,3.972,2.595,7.041,6.77,7.041c1.603,0,3.588-0.768,4.717-2.482L32.115,25.814z"/>
		<path fill="#FFFFFF" d="M41.726,11.935c4.875,0,8.26,3.521,8.26,8.396c0,4.875-3.385,8.395-8.26,8.395s-8.26-3.521-8.26-8.395
			C33.466,15.456,36.852,11.935,41.726,11.935z M41.726,27.372c4.175,0,6.771-3.069,6.771-7.041c0-3.972-2.595-7.042-6.771-7.042
			c-4.175,0-6.77,3.069-6.77,7.042C34.956,24.302,37.551,27.372,41.726,27.372z"/>
		<path fill="#FFFFFF" d="M52.781,12.341h4.942c8.305,0,8.644,6.815,8.644,7.989c0,1.173-0.338,7.989-8.644,7.989h-4.942V12.341z
			 M54.271,26.965h3.069c4.243,0,7.538-2.054,7.538-6.635c0-4.582-3.295-6.635-7.538-6.635h-3.069V26.965z"/>
		<path fill="#FFFFFF" d="M69.366,12.341h9.772v1.354h-8.282v5.687h7.763v1.354h-7.763v6.229h8.643v1.354H69.366V12.341z"/>
		<path fill="#FFFFFF" d="M92.833,12.341h1.535l6.725,15.978h-1.67l-1.738-4.243h-8.463l-1.806,4.243h-1.557L92.833,12.341z
			 M93.532,13.966l-3.724,8.756h7.334L93.532,13.966z"/>
		<path fill="#FFFFFF" d="M103.053,12.341h4.604c2.257,0,5.146,0.88,5.146,4.22c0,2.889-2.302,4.175-4.807,4.175h-3.453v7.583h-1.49
			V12.341z M104.543,19.382h3.385c1.693,0,3.385-0.722,3.385-2.821c0-2.054-1.76-2.866-3.475-2.866h-3.295V19.382z"/>
		<path fill="#FFFFFF" d="M115.666,12.341h4.604c2.257,0,5.146,0.88,5.146,4.22c0,2.889-2.302,4.175-4.807,4.175h-3.453v7.583h-1.49
			V12.341z M117.156,19.382h3.385c1.693,0,3.385-0.722,3.385-2.821c0-2.054-1.76-2.866-3.475-2.866h-3.295V19.382z"/>
		<path fill="#FFFFFF" d="M128.279,12.341h1.49v14.624h7.447v1.354h-8.937V12.341z"/>
		<path fill="#FFFFFF" d="M139.223,12.341h1.489v15.978h-1.489V12.341z"/>
		<path fill="#FFFFFF" d="M144.751,12.341h9.771v1.354h-8.282v5.687h7.763v1.354h-7.763v6.229h8.644v1.354h-10.133V12.341z"/>
		<path fill="#FFFFFF" d="M157.589,12.341h4.943c8.305,0,8.643,6.815,8.643,7.989c0,1.173-0.338,7.989-8.643,7.989h-4.943V12.341z
			 M159.079,26.965h3.068c4.244,0,7.538-2.054,7.538-6.635c0-4.582-3.294-6.635-7.538-6.635h-3.068V26.965z"/>
		<path fill="#FFFFFF" d="M174.919,17.758c0.609,0,1.083,0.474,1.083,1.083s-0.474,1.083-1.083,1.083s-1.084-0.474-1.084-1.083
			S174.31,17.758,174.919,17.758z M174.919,26.288c0.609,0,1.083,0.474,1.083,1.083s-0.474,1.083-1.083,1.083
			s-1.084-0.474-1.084-1.083S174.31,26.288,174.919,26.288z"/>
	</g>
	<g display="inline">
		<polygon fill="#FFFFFF" points="277.627,14.393 270.039,23.778 264.585,19.315 262.479,21.887 267.948,26.366 270.521,28.471 
			272.613,25.885 280.213,16.485 		"/>
	</g>
</g>
</svg>
