<?xml version="1.0" encoding="utf-8"?>
<!-- Generator: Adobe Illustrator 16.0.3, SVG Export Plug-In . SVG Version: 6.00 Build 0)  -->
<!DOCTYPE svg PUBLIC "-//W3C//DTD SVG 1.1//EN" "http://www.w3.org/Graphics/SVG/1.1/DTD/svg11.dtd">
<svg version="1.1" xmlns="http://www.w3.org/2000/svg" xmlns:xlink="http://www.w3.org/1999/xlink" x="0px" y="0px"
	 width="296.583px" height="40.155px" viewBox="0 0 296.583 40.155" enable-background="new 0 0 296.583 40.155"
	 xml:space="preserve">
<g id="Layer_1" display="none">
	<rect display="inline" fill="#3A52EB" width="296.583" height="40.155"/>
	<g display="inline">
		<g>
			<path fill="#FFFFFF" d="M178.446,13.698h4.754c2.232,0,4.662,0.468,4.662,3.241c0,1.422-0.881,2.395-2.195,2.809v0.036
				c1.674,0.216,2.791,1.458,2.791,3.115c0,2.665-2.521,3.547-4.791,3.547h-5.221V13.698z M181.255,18.793h2.035
				c0.863,0,1.764-0.36,1.764-1.386c0-1.063-1.008-1.333-1.891-1.333h-1.908V18.793z M181.255,24.069h2.521
				c0.881,0,1.873-0.378,1.873-1.495c0-1.207-1.352-1.404-2.27-1.404h-2.125V24.069z"/>
			<path fill="#FFFFFF" d="M198.177,17.01c-0.559-0.666-1.369-1.044-2.414-1.044c-2.123,0-3.689,1.729-3.689,4.105
				c0,2.377,1.566,4.105,3.6,4.105c1.135,0,2.053-0.504,2.629-1.369l2.342,1.747c-1.063,1.513-2.863,2.215-4.609,2.215
				c-3.98,0-6.879-2.611-6.879-6.698c0-4.087,2.898-6.698,6.879-6.698c1.422,0,3.223,0.486,4.303,1.873L198.177,17.01z"/>
			<path fill="#FFFFFF" d="M202.009,13.698h2.809v5.293l4.951-5.293h3.674l-5.672,5.923l6.158,6.824h-3.926l-5.186-6.05v6.05h-2.809
				V13.698z"/>
			<path fill="#FFFFFF" d="M214.212,23.583l4.951-4.447c0.504-0.468,1.135-1.008,1.135-1.783c0-0.864-0.738-1.386-1.566-1.386
				c-0.99,0-1.584,0.702-1.656,1.62l-2.701-0.198c0.162-2.629,1.998-3.907,4.502-3.907c2.322,0,4.123,1.278,4.123,3.835
				c0,1.639-0.703,2.575-1.676,3.421l-3.871,3.331h5.654v2.376h-8.895V23.583z"/>
			<path fill="#FFFFFF" d="M231.313,16.813c-0.449-0.576-1.35-0.846-2.035-0.846c-0.791,0-1.891,0.36-1.891,1.314
				c0,2.322,5.871,0.828,5.871,5.293c0,2.845-2.287,4.195-4.916,4.195c-1.639,0-3.078-0.486-4.285-1.603l1.998-2.197
				c0.576,0.756,1.514,1.207,2.449,1.207c0.918,0,1.945-0.432,1.945-1.333c0-2.341-5.979-1.08-5.979-5.33
				c0-2.719,2.359-4.141,4.861-4.141c1.441,0,2.826,0.378,3.906,1.332L231.313,16.813z"/>
		</g>
		<g>
			<path fill="#FFFFFF" d="M68.46,13.752h1.224L75.05,26.5h-1.333l-1.386-3.385h-6.752l-1.44,3.385h-1.243L68.46,13.752z
				 M69.018,15.049l-2.971,6.986h5.852L69.018,15.049z"/>
			<path fill="#FFFFFF" d="M76.613,13.752h3.673c1.801,0,4.105,0.703,4.105,3.367c0,2.305-1.836,3.331-3.835,3.331h-2.754v6.05
				h-1.188V13.752z M77.801,19.37h2.701c1.351,0,2.701-0.576,2.701-2.251c0-1.639-1.404-2.287-2.773-2.287h-2.628V19.37z"/>
			<path fill="#FFFFFF" d="M86.674,13.752h3.673c1.801,0,4.105,0.703,4.105,3.367c0,2.305-1.836,3.331-3.835,3.331h-2.754v6.05
				h-1.188V13.752z M87.863,19.37h2.701c1.351,0,2.701-0.576,2.701-2.251c0-1.639-1.404-2.287-2.773-2.287h-2.628V19.37z"/>
			<path fill="#FFFFFF" d="M96.736,13.752h1.188V25.42h5.941v1.08h-7.13V13.752z"/>
			<path fill="#FFFFFF" d="M106.295,21.008l-4.681-7.256h1.422l3.853,6.05l3.943-6.05h1.333l-4.682,7.256V26.5h-1.188V21.008z"/>
			<path fill="#FFFFFF" d="M128.437,24.501c-1.207,1.656-2.863,2.323-4.735,2.323c-3.889,0-6.59-2.809-6.59-6.698
				s2.701-6.698,6.59-6.698c1.729,0,3.277,0.576,4.393,1.999l-0.972,0.81c-0.792-1.188-2.143-1.729-3.421-1.729
				c-3.331,0-5.402,2.449-5.402,5.618s2.071,5.618,5.402,5.618c1.278,0,2.863-0.612,3.763-1.98L128.437,24.501z"/>
			<path fill="#FFFFFF" d="M136.104,13.428c3.889,0,6.59,2.809,6.59,6.698s-2.701,6.698-6.59,6.698s-6.59-2.809-6.59-6.698
				S132.215,13.428,136.104,13.428z M136.104,25.744c3.331,0,5.401-2.449,5.401-5.618s-2.07-5.618-5.401-5.618
				c-3.331,0-5.402,2.449-5.402,5.618S132.773,25.744,136.104,25.744z"/>
			<path fill="#FFFFFF" d="M144.922,13.752h3.943c6.626,0,6.896,5.438,6.896,6.374c0,0.937-0.27,6.374-6.896,6.374h-3.943V13.752z
				 M146.11,25.42h2.449c3.385,0,6.014-1.639,6.014-5.294c0-3.655-2.629-5.293-6.014-5.293h-2.449V25.42z"/>
			<path fill="#FFFFFF" d="M158.151,13.752h7.797v1.081h-6.607v4.538h6.193v1.08h-6.193v4.97h6.896v1.08h-8.085V13.752z"/>
			<path fill="#FFFFFF" d="M169.149,18.073c0.486,0,0.865,0.378,0.865,0.864c0,0.486-0.379,0.864-0.865,0.864
				s-0.863-0.378-0.863-0.864C168.286,18.452,168.663,18.073,169.149,18.073z M169.149,24.879c0.486,0,0.865,0.378,0.865,0.864
				c0,0.486-0.379,0.864-0.865,0.864s-0.863-0.378-0.863-0.864C168.286,25.258,168.663,24.879,169.149,24.879z"/>
		</g>
	</g>
</g>
<g id="Layer_5">
	<rect fill="#40D31C" width="296.583" height="40.155"/>
	<g>
		<g>
			<g>
				<path fill="#FFFFFF" d="M175.56,13.518h4.752c2.232,0,4.664,0.468,4.664,3.241c0,1.422-0.883,2.395-2.197,2.809v0.036
					c1.676,0.216,2.791,1.458,2.791,3.115c0,2.665-2.52,3.547-4.789,3.547h-5.221V13.518z M178.368,18.614h2.033
					c0.865,0,1.766-0.36,1.766-1.386c0-1.063-1.008-1.333-1.891-1.333h-1.908V18.614z M178.368,23.889h2.52
					c0.883,0,1.873-0.378,1.873-1.494c0-1.207-1.35-1.404-2.27-1.404h-2.123V23.889z"/>
				<path fill="#FFFFFF" d="M195.288,16.832c-0.557-0.667-1.367-1.044-2.412-1.044c-2.125,0-3.691,1.729-3.691,4.105
					c0,2.377,1.566,4.105,3.602,4.105c1.135,0,2.053-0.504,2.629-1.369l2.34,1.747c-1.063,1.513-2.863,2.215-4.609,2.215
					c-3.979,0-6.877-2.611-6.877-6.698c0-4.087,2.898-6.698,6.877-6.698c1.424,0,3.223,0.486,4.305,1.873L195.288,16.832z"/>
				<path fill="#FFFFFF" d="M199.12,13.518h2.809v5.294l4.953-5.294h3.672l-5.672,5.924l6.158,6.824h-3.926l-5.186-6.05v6.05h-2.809
					V13.518z"/>
				<path fill="#FFFFFF" d="M211.323,23.403l4.953-4.447c0.504-0.468,1.133-1.008,1.133-1.783c0-0.864-0.738-1.386-1.566-1.386
					c-0.99,0-1.584,0.702-1.656,1.621l-2.701-0.198c0.162-2.629,2-3.907,4.502-3.907c2.322,0,4.123,1.278,4.123,3.835
					c0,1.639-0.701,2.575-1.674,3.421l-3.871,3.331h5.654v2.377h-8.896V23.403z"/>
				<path fill="#FFFFFF" d="M228.427,16.633c-0.451-0.576-1.352-0.846-2.035-0.846c-0.793,0-1.891,0.36-1.891,1.314
					c0,2.323,5.869,0.828,5.869,5.293c0,2.845-2.287,4.195-4.916,4.195c-1.637,0-3.078-0.486-4.285-1.603l2-2.197
					c0.576,0.756,1.512,1.207,2.447,1.207c0.92,0,1.945-0.432,1.945-1.333c0-2.341-5.979-1.081-5.979-5.33
					c0-2.719,2.359-4.141,4.863-4.141c1.439,0,2.826,0.378,3.906,1.333L228.427,16.633z"/>
			</g>
			<g>
				<polygon fill="#FFFFFF" points="251.661,13.039 244.073,22.423 238.62,17.959 236.513,20.533 241.983,25.01 244.556,27.117 
					246.647,24.53 254.247,15.129 				"/>
			</g>
		</g>
		<g>
			<path fill="#FFFFFF" d="M54.579,24.321c-1.207,1.656-2.863,2.323-4.735,2.323c-3.889,0-6.59-2.809-6.59-6.698
				s2.701-6.698,6.59-6.698c1.729,0,3.277,0.576,4.393,1.999l-0.972,0.81c-0.792-1.188-2.143-1.729-3.421-1.729
				c-3.331,0-5.402,2.449-5.402,5.618s2.071,5.618,5.402,5.618c1.278,0,2.863-0.612,3.763-1.98L54.579,24.321z"/>
			<path fill="#FFFFFF" d="M62.246,13.248c3.889,0,6.59,2.809,6.59,6.698s-2.701,6.698-6.59,6.698s-6.59-2.809-6.59-6.698
				S58.356,13.248,62.246,13.248z M62.246,25.563c3.331,0,5.401-2.449,5.401-5.618s-2.07-5.618-5.401-5.618
				s-5.402,2.449-5.402,5.618S58.915,25.563,62.246,25.563z"/>
			<path fill="#FFFFFF" d="M71.064,13.572h3.943c6.626,0,6.896,5.438,6.896,6.374c0,0.937-0.27,6.374-6.896,6.374h-3.943V13.572z
				 M72.252,25.239h2.449c3.385,0,6.014-1.638,6.014-5.293c0-3.655-2.629-5.293-6.014-5.293h-2.449V25.239z"/>
			<path fill="#FFFFFF" d="M84.294,13.572h7.796v1.08h-6.608v4.537h6.194v1.081h-6.194v4.969h6.896v1.081h-8.084V13.572z"/>
			<path fill="#FFFFFF" d="M103.015,13.572h1.224l5.366,12.748h-1.333l-1.386-3.385h-6.752l-1.44,3.385h-1.243L103.015,13.572z
				 M103.573,14.868l-2.971,6.986h5.852L103.573,14.868z"/>
			<path fill="#FFFFFF" d="M111.167,13.572h3.673c1.801,0,4.105,0.702,4.105,3.367c0,2.305-1.836,3.331-3.835,3.331h-2.755v6.05
				h-1.188V13.572z M112.356,19.189h2.701c1.35,0,2.701-0.576,2.701-2.25c0-1.638-1.404-2.287-2.773-2.287h-2.628V19.189z"/>
			<path fill="#FFFFFF" d="M121.229,13.572h3.673c1.801,0,4.105,0.702,4.105,3.367c0,2.305-1.836,3.331-3.835,3.331h-2.754v6.05
				h-1.188V13.572z M122.418,19.189h2.701c1.351,0,2.701-0.576,2.701-2.25c0-1.638-1.404-2.287-2.773-2.287h-2.628V19.189z"/>
			<path fill="#FFFFFF" d="M131.292,13.572h1.188v11.667h5.941v1.081h-7.129V13.572z"/>
			<path fill="#FFFFFF" d="M140.021,13.572h1.188v12.748h-1.188V13.572z"/>
			<path fill="#FFFFFF" d="M144.431,13.572h7.797v1.08h-6.607v4.537h6.193v1.081h-6.193v4.969h6.896v1.081h-8.085V13.572z"/>
			<path fill="#FFFFFF" d="M154.673,13.572h3.943c6.626,0,6.896,5.438,6.896,6.374c0,0.937-0.271,6.374-6.896,6.374h-3.943V13.572z
				 M155.861,25.239h2.448c3.385,0,6.014-1.638,6.014-5.293c0-3.655-2.629-5.293-6.014-5.293h-2.448V25.239z"/>
			<path fill="#FFFFFF" d="M168.497,17.893c0.486,0,0.864,0.378,0.864,0.864c0,0.486-0.378,0.864-0.864,0.864
				s-0.864-0.378-0.864-0.864C167.633,18.271,168.011,17.893,168.497,17.893z M168.497,24.699c0.486,0,0.864,0.378,0.864,0.864
				c0,0.486-0.378,0.864-0.864,0.864s-0.864-0.378-0.864-0.864C167.633,25.077,168.011,24.699,168.497,24.699z"/>
		</g>
	</g>
	<g>
	</g>
	<g>
	</g>
	<g>
	</g>
	<g>
	</g>
	<g>
	</g>
	<g>
	</g>
</g>
</svg>
