<?xml version="1.0" encoding="utf-8"?>
<!-- Generator: Adobe Illustrator 16.0.3, SVG Export Plug-In . SVG Version: 6.00 Build 0)  -->
<!DOCTYPE svg PUBLIC "-//W3C//DTD SVG 1.1//EN" "http://www.w3.org/Graphics/SVG/1.1/DTD/svg11.dtd">
<svg version="1.1" xmlns="http://www.w3.org/2000/svg" xmlns:xlink="http://www.w3.org/1999/xlink" x="0px" y="0px"
	 width="351.625px" height="40.155px" viewBox="0 0 351.625 40.155" enable-background="new 0 0 351.625 40.155"
	 xml:space="preserve">
<g id="Layer_1">
	<rect width="351.625" height="40.155"/>
	<g>
		<path fill="#FFFFFF" d="M191.272,15.522c-0.604-0.773-1.812-1.135-2.729-1.135c-1.063,0-2.536,0.483-2.536,1.763
			c0,3.116,7.874,1.111,7.874,7.102c0,3.816-3.067,5.628-6.594,5.628c-2.198,0-4.131-0.652-5.749-2.149l2.681-2.947
			c0.773,1.014,2.029,1.618,3.285,1.618c1.232,0,2.609-0.58,2.609-1.788c0-3.14-8.02-1.449-8.02-7.15
			c0-3.647,3.164-5.555,6.521-5.555c1.933,0,3.792,0.507,5.241,1.787L191.272,15.522z"/>
		<path fill="#FFFFFF" d="M210.742,21.851c0,4.034-2.464,7.029-7.198,7.029c-4.758,0-7.222-2.995-7.222-7.029V11.344h3.768v10.362
			c0,2.102,1.449,3.696,3.454,3.696c1.981,0,3.431-1.594,3.431-3.696V11.344h3.768V21.851z"/>
		<path fill="#FFFFFF" d="M213.86,11.344h5.7l3.938,11.16h0.048l3.962-11.16h5.676v17.102h-3.768V15.329h-0.049l-4.492,13.116H222
			l-4.323-13.116h-0.049v13.116h-3.768V11.344z"/>
		<path fill="#FFFFFF" d="M236.302,11.344h5.7l3.938,11.16h0.048l3.962-11.16h5.676v17.102h-3.768V15.329h-0.049l-4.492,13.116
			h-2.875l-4.323-13.116h-0.049v13.116h-3.768V11.344z"/>
		<path fill="#FFFFFF" d="M258.889,11.344h11.619v3.479h-7.851v3.188h7.415v3.479h-7.415v3.479h8.285v3.478h-12.054V11.344z"/>
		<path fill="#FFFFFF" d="M273.601,11.344h6.618c3.503,0,6.449,1.208,6.449,5.193c0,2.391-1.28,4.251-3.695,4.686l4.348,7.222
			h-4.517l-3.575-6.836h-1.86v6.836h-3.768V11.344z M277.368,18.421h2.223c1.377,0,3.164-0.048,3.164-1.908
			c0-1.715-1.546-1.98-2.923-1.98h-2.464V18.421z"/>
		<path fill="#FFFFFF" d="M288.337,24.604l6.643-5.966c0.677-0.628,1.521-1.353,1.521-2.392c0-1.159-0.99-1.86-2.102-1.86
			c-1.328,0-2.125,0.942-2.222,2.174l-3.623-0.266c0.217-3.526,2.681-5.241,6.038-5.241c3.116,0,5.531,1.715,5.531,5.145
			c0,2.198-0.941,3.454-2.246,4.589l-5.193,4.469h7.585v3.188h-11.933V24.604z"/>
		<path fill="#FFFFFF" d="M308.049,15.402l-3.431,3.019l-2.053-2.367l5.579-4.71h3.382v17.102h-3.478V15.402z"/>
	</g>
	<g>
		<path fill="#FFFFFF" d="M39.755,11.111h1.574L48.227,27.5h-1.713l-1.782-4.352h-8.68L34.2,27.5h-1.597L39.755,11.111z
			 M40.473,12.778l-3.819,8.981h7.523L40.473,12.778z"/>
		<path fill="#FFFFFF" d="M50.246,11.111h4.722c2.315,0,5.278,0.903,5.278,4.329c0,2.963-2.361,4.283-4.931,4.283h-3.542V27.5
			h-1.528V11.111z M51.773,18.333h3.472c1.736,0,3.472-0.741,3.472-2.894c0-2.106-1.806-2.939-3.564-2.939h-3.38V18.333z"/>
		<path fill="#FFFFFF" d="M63.189,11.111h4.722c2.315,0,5.278,0.903,5.278,4.329c0,2.963-2.361,4.283-4.931,4.283h-3.542V27.5
			h-1.528V11.111z M64.717,18.333h3.472c1.736,0,3.472-0.741,3.472-2.894c0-2.106-1.806-2.939-3.564-2.939h-3.38V18.333z"/>
		<path fill="#FFFFFF" d="M76.132,11.111h1.528v15h7.639V27.5h-9.167V11.111z"/>
		<path fill="#FFFFFF" d="M88.427,20.44l-6.018-9.329h1.829l4.954,7.778l5.069-7.778h1.713l-6.019,9.329v7.06h-1.528V20.44z"/>
		<path fill="#FFFFFF" d="M116.904,24.931c-1.551,2.129-3.68,2.986-6.088,2.986c-5,0-8.472-3.611-8.472-8.611
			s3.472-8.611,8.472-8.611c2.222,0,4.213,0.741,5.648,2.569l-1.25,1.042c-1.019-1.527-2.755-2.222-4.398-2.222
			c-4.282,0-6.944,3.148-6.944,7.222c0,4.074,2.662,7.222,6.944,7.222c1.644,0,3.681-0.787,4.838-2.546L116.904,24.931z"/>
		<path fill="#FFFFFF" d="M126.77,10.695c5,0,8.472,3.611,8.472,8.611s-3.472,8.611-8.472,8.611c-5,0-8.472-3.611-8.472-8.611
			S121.771,10.695,126.77,10.695z M126.77,26.528c4.283,0,6.944-3.148,6.944-7.222c0-4.074-2.662-7.222-6.944-7.222
			c-4.282,0-6.944,3.148-6.944,7.222C119.826,23.38,122.488,26.528,126.77,26.528z"/>
		<path fill="#FFFFFF" d="M138.119,11.111h5.069c8.518,0,8.865,6.991,8.865,8.194s-0.347,8.194-8.865,8.194h-5.069V11.111z
			 M139.646,26.111h3.148c4.352,0,7.731-2.106,7.731-6.806c0-4.699-3.38-6.805-7.731-6.805h-3.148V26.111z"/>
		<path fill="#FFFFFF" d="M155.137,11.111h10.023V12.5h-8.495v5.833h7.963v1.389h-7.963v6.389h8.866V27.5h-10.394V11.111z"/>
		<path fill="#FFFFFF" d="M169.285,16.667c0.625,0,1.111,0.486,1.111,1.111s-0.486,1.111-1.111,1.111s-1.111-0.486-1.111-1.111
			S168.66,16.667,169.285,16.667z M169.285,25.417c0.625,0,1.111,0.486,1.111,1.111s-0.486,1.111-1.111,1.111
			s-1.111-0.486-1.111-1.111S168.66,25.417,169.285,25.417z"/>
	</g>
</g>
<g id="Layer_3" display="none">
	<rect display="inline" fill="#40D31C" width="351.625" height="40.155"/>
	<g display="inline">
		<path fill="#FFFFFF" d="M191.272,15.522c-0.604-0.773-1.812-1.135-2.729-1.135c-1.063,0-2.536,0.483-2.536,1.763
			c0,3.116,7.874,1.111,7.874,7.102c0,3.816-3.067,5.628-6.594,5.628c-2.198,0-4.131-0.652-5.749-2.149l2.681-2.947
			c0.773,1.014,2.029,1.618,3.285,1.618c1.232,0,2.609-0.58,2.609-1.788c0-3.14-8.02-1.449-8.02-7.15
			c0-3.647,3.164-5.555,6.521-5.555c1.933,0,3.792,0.507,5.241,1.787L191.272,15.522z"/>
		<path fill="#FFFFFF" d="M210.742,21.851c0,4.034-2.464,7.029-7.198,7.029c-4.758,0-7.222-2.995-7.222-7.029V11.344h3.768v10.362
			c0,2.102,1.449,3.696,3.454,3.696c1.981,0,3.431-1.594,3.431-3.696V11.344h3.768V21.851z"/>
		<path fill="#FFFFFF" d="M213.86,11.344h5.7l3.938,11.16h0.048l3.962-11.16h5.676v17.102h-3.768V15.329h-0.049l-4.492,13.116H222
			l-4.323-13.116h-0.049v13.116h-3.768V11.344z"/>
		<path fill="#FFFFFF" d="M236.302,11.344h5.7l3.938,11.16h0.048l3.962-11.16h5.676v17.102h-3.768V15.329h-0.049l-4.492,13.116
			h-2.875l-4.323-13.116h-0.049v13.116h-3.768V11.344z"/>
		<path fill="#FFFFFF" d="M258.889,11.344h11.619v3.479h-7.851v3.188h7.415v3.479h-7.415v3.479h8.285v3.478h-12.054V11.344z"/>
		<path fill="#FFFFFF" d="M273.601,11.344h6.618c3.503,0,6.449,1.208,6.449,5.193c0,2.391-1.28,4.251-3.695,4.686l4.348,7.222
			h-4.517l-3.575-6.836h-1.86v6.836h-3.768V11.344z M277.368,18.421h2.223c1.377,0,3.164-0.048,3.164-1.908
			c0-1.715-1.546-1.98-2.923-1.98h-2.464V18.421z"/>
		<path fill="#FFFFFF" d="M288.337,24.604l6.643-5.966c0.677-0.628,1.521-1.353,1.521-2.392c0-1.159-0.99-1.86-2.102-1.86
			c-1.328,0-2.125,0.942-2.222,2.174l-3.623-0.266c0.217-3.526,2.681-5.241,6.038-5.241c3.116,0,5.531,1.715,5.531,5.145
			c0,2.198-0.941,3.454-2.246,4.589l-5.193,4.469h7.585v3.188h-11.933V24.604z"/>
		<path fill="#FFFFFF" d="M308.049,15.402l-3.431,3.019l-2.053-2.367l5.579-4.71h3.382v17.102h-3.478V15.402z"/>
	</g>
	<g display="inline">
		<path fill="#FFFFFF" d="M26.48,24.931c-1.551,2.129-3.68,2.986-6.088,2.986c-5,0-8.472-3.611-8.472-8.611s3.472-8.611,8.472-8.611
			c2.222,0,4.213,0.741,5.648,2.569l-1.25,1.042c-1.019-1.527-2.755-2.222-4.398-2.222c-4.282,0-6.944,3.148-6.944,7.222
			c0,4.074,2.662,7.222,6.944,7.222c1.644,0,3.681-0.787,4.838-2.546L26.48,24.931z"/>
		<path fill="#FFFFFF" d="M36.346,10.695c5,0,8.472,3.611,8.472,8.611s-3.472,8.611-8.472,8.611c-5,0-8.472-3.611-8.472-8.611
			S31.347,10.695,36.346,10.695z M36.346,26.528c4.283,0,6.944-3.148,6.944-7.222c0-4.074-2.662-7.222-6.944-7.222
			c-4.282,0-6.944,3.148-6.944,7.222C29.402,23.38,32.064,26.528,36.346,26.528z"/>
		<path fill="#FFFFFF" d="M47.695,11.111h5.069c8.518,0,8.865,6.991,8.865,8.194S61.282,27.5,52.764,27.5h-5.069V11.111z
			 M49.223,26.111h3.148c4.352,0,7.731-2.106,7.731-6.806c0-4.699-3.38-6.805-7.731-6.805h-3.148V26.111z"/>
		<path fill="#FFFFFF" d="M64.713,11.111h10.023V12.5h-8.495v5.833h7.963v1.389h-7.963v6.389h8.866V27.5H64.713V11.111z"/>
		<path fill="#FFFFFF" d="M88.793,11.111h1.574L97.265,27.5h-1.713l-1.782-4.352h-8.68L83.237,27.5H81.64L88.793,11.111z
			 M89.51,12.778l-3.819,8.981h7.523L89.51,12.778z"/>
		<path fill="#FFFFFF" d="M99.283,11.111h4.722c2.315,0,5.278,0.903,5.278,4.329c0,2.963-2.361,4.283-4.931,4.283h-3.542V27.5
			h-1.528V11.111z M100.811,18.333h3.472c1.736,0,3.472-0.741,3.472-2.894c0-2.106-1.806-2.939-3.564-2.939h-3.38V18.333z"/>
		<path fill="#FFFFFF" d="M112.227,11.111h4.722c2.315,0,5.278,0.903,5.278,4.329c0,2.963-2.361,4.283-4.931,4.283h-3.542V27.5
			h-1.528V11.111z M113.755,18.333h3.472c1.736,0,3.472-0.741,3.472-2.894c0-2.106-1.806-2.939-3.564-2.939h-3.38V18.333z"/>
		<path fill="#FFFFFF" d="M125.17,11.111h1.528v15h7.639V27.5h-9.167V11.111z"/>
		<path fill="#FFFFFF" d="M136.4,11.111h1.528V27.5H136.4V11.111z"/>
		<path fill="#FFFFFF" d="M142.073,11.111h10.023V12.5h-8.495v5.833h7.963v1.389h-7.963v6.389h8.866V27.5h-10.394V11.111z"/>
		<path fill="#FFFFFF" d="M155.249,11.111h5.069c8.518,0,8.865,6.991,8.865,8.194s-0.347,8.194-8.865,8.194h-5.069V11.111z
			 M156.776,26.111h3.148c4.352,0,7.731-2.106,7.731-6.806c0-4.699-3.38-6.805-7.731-6.805h-3.148V26.111z"/>
		<path fill="#FFFFFF" d="M173.031,16.667c0.625,0,1.111,0.486,1.111,1.111s-0.486,1.111-1.111,1.111s-1.111-0.486-1.111-1.111
			S172.406,16.667,173.031,16.667z M173.031,25.417c0.625,0,1.111,0.486,1.111,1.111s-0.486,1.111-1.111,1.111
			s-1.111-0.486-1.111-1.111S172.406,25.417,173.031,25.417z"/>
	</g>
	<g display="inline">
		<polygon fill="#FFFFFF" points="334.249,12.883 326.661,22.268 321.207,17.805 319.101,20.377 324.57,24.856 327.144,26.961 
			329.235,24.375 336.835,14.975 		"/>
	</g>
</g>
</svg>
