<?xml version="1.0" encoding="utf-8"?>
<!-- Generator: Adobe Illustrator 16.0.3, SVG Export Plug-In . SVG Version: 6.00 Build 0)  -->
<!DOCTYPE svg PUBLIC "-//W3C//DTD SVG 1.1//EN" "http://www.w3.org/Graphics/SVG/1.1/DTD/svg11.dtd">
<svg version="1.1" xmlns="http://www.w3.org/2000/svg" xmlns:xlink="http://www.w3.org/1999/xlink" x="0px" y="0px"
	 width="296.583px" height="40.155px" viewBox="0 0 296.583 40.155" enable-background="new 0 0 296.583 40.155"
	 xml:space="preserve">
<g id="Layer_1">
	<rect fill="#3452FF" width="296.583" height="40.155"/>
	<g>
		<g>
			<path fill="#FFFFFF" d="M172.393,25.545c-1.656,0.864-3.475,1.225-5.348,1.225c-3.979,0-6.878-2.611-6.878-6.698
				c0-4.087,2.898-6.698,6.878-6.698c2.017,0,3.799,0.45,5.077,1.638l-1.98,2.161c-0.756-0.792-1.674-1.206-3.097-1.206
				c-2.395,0-3.961,1.729-3.961,4.105c0,2.377,1.566,4.105,3.961,4.105c1.225,0,2.125-0.342,2.646-0.63v-2.07h-2.286v-2.593h4.987
				V25.545z"/>
			<path fill="#FFFFFF" d="M174.55,13.698h2.809v12.748h-2.809V13.698z"/>
			<path fill="#FFFFFF" d="M179.751,13.698h8.553v2.593h-5.744v2.593h5.312v2.593h-5.312v4.969h-2.809V13.698z"/>
			<path fill="#FFFFFF" d="M192.513,16.182h-3.637v-2.484h10.083v2.484h-3.637v10.263h-2.81V16.182z"/>
			<path fill="#FFFFFF" d="M208.445,17.01c-0.559-0.666-1.368-1.044-2.413-1.044c-2.124,0-3.69,1.729-3.69,4.105
				c0,2.377,1.566,4.105,3.601,4.105c1.135,0,2.053-0.504,2.629-1.369l2.341,1.747c-1.063,1.513-2.863,2.215-4.609,2.215
				c-3.979,0-6.878-2.611-6.878-6.698c0-4.087,2.898-6.698,6.878-6.698c1.423,0,3.223,0.486,4.304,1.873L208.445,17.01z"/>
			<path fill="#FFFFFF" d="M218.362,13.374c3.979,0,6.878,2.611,6.878,6.698c0,4.087-2.898,6.698-6.878,6.698
				s-6.878-2.611-6.878-6.698C211.484,15.984,214.383,13.374,218.362,13.374z M218.362,24.177c2.395,0,3.961-1.729,3.961-4.105
				c0-2.376-1.566-4.105-3.961-4.105s-3.961,1.729-3.961,4.105C214.401,22.448,215.968,24.177,218.362,24.177z"/>
			<path fill="#FFFFFF" d="M226.875,13.698h4.213c4.105,0,7.544,1.746,7.544,6.41c0,4.123-3.367,6.338-7.166,6.338h-4.591V13.698z
				 M229.684,23.853h1.458c2.611,0,4.573-0.99,4.573-3.889c0-2.503-1.998-3.673-4.375-3.673h-1.656V23.853z"/>
			<path fill="#FFFFFF" d="M240.374,13.698h8.661v2.593h-5.853v2.376h5.528v2.593h-5.528v2.593h6.176v2.593h-8.984V13.698z"/>
		</g>
		<g>
			<path fill="#FFFFFF" d="M53.126,13.752h1.224L59.716,26.5h-1.333l-1.386-3.385h-6.752l-1.44,3.385h-1.243L53.126,13.752z
				 M53.685,15.049l-2.971,6.986h5.852L53.685,15.049z"/>
			<path fill="#FFFFFF" d="M61.279,13.752h3.673c1.801,0,4.105,0.703,4.105,3.367c0,2.305-1.836,3.331-3.835,3.331h-2.754v6.05
				h-1.188V13.752z M62.468,19.37h2.701c1.351,0,2.701-0.576,2.701-2.251c0-1.639-1.404-2.287-2.773-2.287h-2.628V19.37z"/>
			<path fill="#FFFFFF" d="M71.341,13.752h3.673c1.801,0,4.105,0.703,4.105,3.367c0,2.305-1.836,3.331-3.835,3.331h-2.754v6.05
				h-1.188V13.752z M72.529,19.37h2.701c1.351,0,2.701-0.576,2.701-2.251c0-1.639-1.404-2.287-2.773-2.287h-2.628V19.37z"/>
			<path fill="#FFFFFF" d="M81.403,13.752h1.188V25.42h5.941v1.08h-7.13V13.752z"/>
			<path fill="#FFFFFF" d="M90.961,21.008l-4.681-7.256h1.422l3.853,6.05l3.943-6.05h1.333l-4.682,7.256V26.5h-1.188V21.008z"/>
			<path fill="#FFFFFF" d="M113.104,24.501c-1.207,1.656-2.863,2.323-4.735,2.323c-3.889,0-6.59-2.809-6.59-6.698
				s2.701-6.698,6.59-6.698c1.729,0,3.277,0.576,4.393,1.999l-0.972,0.81c-0.792-1.188-2.143-1.729-3.421-1.729
				c-3.331,0-5.402,2.449-5.402,5.618s2.071,5.618,5.402,5.618c1.278,0,2.863-0.612,3.763-1.98L113.104,24.501z"/>
			<path fill="#FFFFFF" d="M120.771,13.428c3.889,0,6.59,2.809,6.59,6.698s-2.701,6.698-6.59,6.698s-6.59-2.809-6.59-6.698
				S116.881,13.428,120.771,13.428z M120.771,25.744c3.331,0,5.401-2.449,5.401-5.618s-2.07-5.618-5.401-5.618
				s-5.402,2.449-5.402,5.618S117.439,25.744,120.771,25.744z"/>
			<path fill="#FFFFFF" d="M129.588,13.752h3.943c6.625,0,6.896,5.438,6.896,6.374c0,0.937-0.271,6.374-6.896,6.374h-3.943V13.752z
				 M130.777,25.42h2.449c3.385,0,6.014-1.639,6.014-5.294c0-3.655-2.629-5.293-6.014-5.293h-2.449V25.42z"/>
			<path fill="#FFFFFF" d="M142.818,13.752h7.796v1.081h-6.607v4.538h6.193v1.08h-6.193v4.97h6.896v1.08h-8.085V13.752z"/>
			<path fill="#FFFFFF" d="M153.816,18.073c0.485,0,0.864,0.378,0.864,0.864c0,0.486-0.379,0.864-0.864,0.864
				c-0.486,0-0.864-0.378-0.864-0.864C152.952,18.452,153.33,18.073,153.816,18.073z M153.816,24.879
				c0.485,0,0.864,0.378,0.864,0.864c0,0.486-0.379,0.864-0.864,0.864c-0.486,0-0.864-0.378-0.864-0.864
				C152.952,25.258,153.33,24.879,153.816,24.879z"/>
		</g>
	</g>
</g>
<g id="Layer_5" display="none">
	<rect display="inline" fill="#40D31C" width="296.583" height="40.155"/>
	<g display="inline">
		<path fill="#FFFFFF" d="M182.229,25.366c-1.656,0.864-3.476,1.225-5.348,1.225c-3.979,0-6.878-2.611-6.878-6.698
			c0-4.087,2.898-6.698,6.878-6.698c2.017,0,3.799,0.45,5.077,1.638l-1.98,2.161c-0.756-0.792-1.674-1.206-3.097-1.206
			c-2.395,0-3.961,1.729-3.961,4.105c0,2.377,1.566,4.105,3.961,4.105c1.225,0,2.125-0.342,2.646-0.63v-2.071h-2.286v-2.593h4.987
			V25.366z"/>
		<path fill="#FFFFFF" d="M184.386,13.518h2.809v12.748h-2.809V13.518z"/>
		<path fill="#FFFFFF" d="M189.587,13.518h8.553v2.593h-5.744v2.593h5.312v2.593h-5.312v4.97h-2.809V13.518z"/>
		<path fill="#FFFFFF" d="M202.349,16.003h-3.637v-2.485h10.083v2.485h-3.637v10.263h-2.81V16.003z"/>
		<path fill="#FFFFFF" d="M218.281,16.832c-0.558-0.667-1.368-1.044-2.413-1.044c-2.124,0-3.69,1.729-3.69,4.105
			c0,2.377,1.566,4.105,3.601,4.105c1.135,0,2.053-0.504,2.629-1.369l2.341,1.747c-1.063,1.513-2.863,2.215-4.609,2.215
			c-3.979,0-6.878-2.611-6.878-6.698c0-4.087,2.898-6.698,6.878-6.698c1.423,0,3.223,0.486,4.304,1.873L218.281,16.832z"/>
		<path fill="#FFFFFF" d="M228.198,13.194c3.979,0,6.878,2.611,6.878,6.698c0,4.087-2.898,6.698-6.878,6.698
			s-6.878-2.611-6.878-6.698C221.32,15.805,224.219,13.194,228.198,13.194z M228.198,23.998c2.395,0,3.961-1.729,3.961-4.105
			c0-2.376-1.566-4.105-3.961-4.105s-3.961,1.729-3.961,4.105C224.237,22.269,225.804,23.998,228.198,23.998z"/>
		<path fill="#FFFFFF" d="M236.71,13.518h4.214c4.105,0,7.544,1.747,7.544,6.41c0,4.123-3.367,6.338-7.166,6.338h-4.592V13.518z
			 M239.52,23.673h1.458c2.611,0,4.573-0.99,4.573-3.889c0-2.503-1.998-3.673-4.375-3.673h-1.656V23.673z"/>
		<path fill="#FFFFFF" d="M250.21,13.518h8.661v2.593h-5.853v2.377h5.528v2.593h-5.528v2.593h6.176v2.593h-8.984V13.518z"/>
	</g>
	<g display="inline">
		<polygon fill="#FFFFFF" points="282.207,14.039 274.619,23.423 269.165,18.959 267.059,21.533 272.528,26.01 275.102,28.117 
			277.193,25.53 284.793,16.129 		"/>
	</g>
	<g display="inline">
		<path fill="#FFFFFF" d="M49.303,24.321c-1.207,1.656-2.863,2.323-4.735,2.323c-3.889,0-6.59-2.809-6.59-6.698
			s2.701-6.698,6.59-6.698c1.729,0,3.277,0.576,4.393,1.999l-0.972,0.81c-0.792-1.188-2.143-1.729-3.421-1.729
			c-3.331,0-5.402,2.449-5.402,5.618s2.071,5.618,5.402,5.618c1.278,0,2.863-0.612,3.763-1.98L49.303,24.321z"/>
		<path fill="#FFFFFF" d="M56.97,13.248c3.889,0,6.59,2.809,6.59,6.698s-2.701,6.698-6.59,6.698s-6.59-2.809-6.59-6.698
			S53.081,13.248,56.97,13.248z M56.97,25.563c3.331,0,5.401-2.449,5.401-5.618s-2.07-5.618-5.401-5.618s-5.402,2.449-5.402,5.618
			S53.639,25.563,56.97,25.563z"/>
		<path fill="#FFFFFF" d="M65.788,13.572h3.943c6.626,0,6.896,5.438,6.896,6.374c0,0.937-0.27,6.374-6.896,6.374h-3.943V13.572z
			 M66.977,25.239h2.449c3.385,0,6.014-1.638,6.014-5.293c0-3.655-2.629-5.293-6.014-5.293h-2.449V25.239z"/>
		<path fill="#FFFFFF" d="M79.018,13.572h7.796v1.08h-6.608v4.537H86.4v1.081h-6.194v4.969h6.896v1.081h-8.084V13.572z"/>
		<path fill="#FFFFFF" d="M97.739,13.572h1.224l5.366,12.748h-1.333l-1.386-3.385h-6.752l-1.44,3.385h-1.243L97.739,13.572z
			 M98.297,14.868l-2.971,6.986h5.852L98.297,14.868z"/>
		<path fill="#FFFFFF" d="M105.892,13.572h3.673c1.801,0,4.105,0.702,4.105,3.367c0,2.305-1.836,3.331-3.835,3.331h-2.755v6.05
			h-1.188V13.572z M107.08,19.189h2.701c1.35,0,2.701-0.576,2.701-2.25c0-1.638-1.404-2.287-2.773-2.287h-2.628V19.189z"/>
		<path fill="#FFFFFF" d="M115.954,13.572h3.673c1.801,0,4.105,0.702,4.105,3.367c0,2.305-1.836,3.331-3.835,3.331h-2.754v6.05
			h-1.188V13.572z M117.142,19.189h2.701c1.351,0,2.701-0.576,2.701-2.25c0-1.638-1.404-2.287-2.773-2.287h-2.628V19.189z"/>
		<path fill="#FFFFFF" d="M126.015,13.572h1.188v11.667h5.941v1.081h-7.13V13.572z"/>
		<path fill="#FFFFFF" d="M134.745,13.572h1.188v12.748h-1.188V13.572z"/>
		<path fill="#FFFFFF" d="M139.155,13.572h7.797v1.08h-6.608v4.537h6.194v1.081h-6.194v4.969h6.896v1.081h-8.084V13.572z"/>
		<path fill="#FFFFFF" d="M149.397,13.572h3.943c6.625,0,6.896,5.438,6.896,6.374c0,0.937-0.271,6.374-6.896,6.374h-3.943V13.572z
			 M150.585,25.239h2.449c3.385,0,6.014-1.638,6.014-5.293c0-3.655-2.629-5.293-6.014-5.293h-2.449V25.239z"/>
		<path fill="#FFFFFF" d="M163.222,17.893c0.485,0,0.863,0.378,0.863,0.864c0,0.486-0.378,0.864-0.863,0.864
			c-0.486,0-0.865-0.378-0.865-0.864C162.356,18.271,162.735,17.893,163.222,17.893z M163.222,24.699
			c0.485,0,0.863,0.378,0.863,0.864c0,0.486-0.378,0.864-0.863,0.864c-0.486,0-0.865-0.378-0.865-0.864
			C162.356,25.077,162.735,24.699,163.222,24.699z"/>
	</g>
</g>
</svg>
