<?xml version="1.0" encoding="utf-8"?>
<!-- Generator: Adobe Illustrator 16.0.3, SVG Export Plug-In . SVG Version: 6.00 Build 0)  -->
<!DOCTYPE svg PUBLIC "-//W3C//DTD SVG 1.1//EN" "http://www.w3.org/Graphics/SVG/1.1/DTD/svg11.dtd">
<svg version="1.1" xmlns="http://www.w3.org/2000/svg" xmlns:xlink="http://www.w3.org/1999/xlink" x="0px" y="0px"
	 width="296.583px" height="40.155px" viewBox="0 0 296.583 40.155" enable-background="new 0 0 296.583 40.155"
	 xml:space="preserve">
<g id="Layer_1">
	<rect fill="#3A52EB" width="296.583" height="40.155"/>
	<g>
		<path fill="#FFFFFF" d="M181.901,11.344h5.652c5.507,0,10.12,2.343,10.12,8.599c0,5.531-4.517,8.502-9.613,8.502h-6.159V11.344z
			 M185.669,24.967h1.957c3.502,0,6.135-1.329,6.135-5.218c0-3.357-2.681-4.927-5.869-4.927h-2.223V24.967z"/>
		<path fill="#FFFFFF" d="M200.019,11.344h11.619v3.479h-7.851v3.188h7.415v3.479h-7.415v3.479h8.285v3.478h-12.054V11.344z"/>
		<path fill="#FFFFFF" d="M214.875,11.344h3.769v13.624h6.98v3.478h-10.749V11.344z"/>
		<path fill="#FFFFFF" d="M241.761,21.851c0,4.034-2.464,7.029-7.198,7.029c-4.758,0-7.222-2.995-7.222-7.029V11.344h3.768v10.362
			c0,2.102,1.449,3.696,3.454,3.696c1.981,0,3.431-1.594,3.431-3.696V11.344h3.768V21.851z"/>
		<path fill="#FFFFFF" d="M249.13,19.508l-5.652-8.165h4.734l3.647,5.99l3.503-5.99h4.564l-5.531,8.092l6.184,9.01h-4.734
			l-4.179-6.884l-4.058,6.884h-4.469L249.13,19.508z"/>
		<path fill="#FFFFFF" d="M262.103,11.344h11.619v3.479h-7.851v3.188h7.415v3.479h-7.415v3.479h8.285v3.478h-12.054V11.344z"/>
	</g>
	<g>
		<path fill="#FFFFFF" d="M30.877,12.111h1.574L39.349,28.5h-1.713l-1.782-4.352h-8.68L25.321,28.5h-1.597L30.877,12.111z
			 M31.594,13.778l-3.819,8.981h7.523L31.594,13.778z"/>
		<path fill="#FFFFFF" d="M41.367,12.111h4.722c2.315,0,5.278,0.903,5.278,4.329c0,2.963-2.361,4.283-4.931,4.283h-3.542V28.5
			h-1.528V12.111z M42.895,19.333h3.472c1.736,0,3.472-0.741,3.472-2.894c0-2.106-1.806-2.939-3.564-2.939h-3.38V19.333z"/>
		<path fill="#FFFFFF" d="M54.311,12.111h4.722c2.315,0,5.278,0.903,5.278,4.329c0,2.963-2.361,4.283-4.931,4.283h-3.542V28.5
			h-1.528V12.111z M55.838,19.333h3.472c1.736,0,3.472-0.741,3.472-2.894c0-2.106-1.806-2.939-3.564-2.939h-3.38V19.333z"/>
		<path fill="#FFFFFF" d="M67.254,12.111h1.528v15h7.639V28.5h-9.167V12.111z"/>
		<path fill="#FFFFFF" d="M79.549,21.44l-6.018-9.329h1.829l4.954,7.778l5.069-7.778h1.713l-6.019,9.329v7.06h-1.528V21.44z"/>
		<path fill="#FFFFFF" d="M113.699,25.931c-1.551,2.129-3.68,2.986-6.088,2.986c-5,0-8.472-3.611-8.472-8.611
			s3.472-8.611,8.472-8.611c2.222,0,4.213,0.741,5.648,2.569l-1.25,1.042c-1.019-1.527-2.755-2.222-4.398-2.222
			c-4.282,0-6.944,3.148-6.944,7.222c0,4.074,2.662,7.222,6.944,7.222c1.644,0,3.681-0.787,4.838-2.546L113.699,25.931z"/>
		<path fill="#FFFFFF" d="M123.564,11.695c5,0,8.472,3.611,8.472,8.611s-3.472,8.611-8.472,8.611c-5,0-8.472-3.611-8.472-8.611
			S118.565,11.695,123.564,11.695z M123.564,27.528c4.283,0,6.944-3.148,6.944-7.222c0-4.074-2.662-7.222-6.944-7.222
			c-4.282,0-6.944,3.148-6.944,7.222C116.621,24.38,119.282,27.528,123.564,27.528z"/>
		<path fill="#FFFFFF" d="M134.913,12.111h5.069c8.519,0,8.865,6.991,8.865,8.194s-0.347,8.194-8.865,8.194h-5.069V12.111z
			 M136.441,27.111h3.148c4.352,0,7.73-2.106,7.73-6.806c0-4.699-3.379-6.805-7.73-6.805h-3.148V27.111z"/>
		<path fill="#FFFFFF" d="M151.932,12.111h10.022V13.5h-8.494v5.833h7.963v1.389h-7.963v6.389h8.865V28.5h-10.394V12.111z"/>
		<path fill="#FFFFFF" d="M166.079,17.667c0.625,0,1.111,0.486,1.111,1.111s-0.486,1.111-1.111,1.111s-1.111-0.486-1.111-1.111
			S165.454,17.667,166.079,17.667z M166.079,26.417c0.625,0,1.111,0.486,1.111,1.111s-0.486,1.111-1.111,1.111
			s-1.111-0.486-1.111-1.111S165.454,26.417,166.079,26.417z"/>
	</g>
</g>
<g id="Layer_5" display="none">
	<rect display="inline" fill="#40D31C" width="296.583" height="40.155"/>
	<g display="inline">
		<path fill="#FFFFFF" d="M178.348,11.597h5.509c5.368,0,9.865,2.284,9.865,8.382c0,5.392-4.402,8.288-9.37,8.288h-6.004V11.597z
			 M182.021,24.875h1.907c3.414,0,5.98-1.295,5.98-5.085c0-3.272-2.614-4.803-5.722-4.803h-2.166V24.875z"/>
		<path fill="#FFFFFF" d="M196.004,11.597h11.324v3.391h-7.651v3.108h7.228v3.39h-7.228v3.39h8.075v3.391h-11.748V11.597z"/>
		<path fill="#FFFFFF" d="M210.481,11.597h3.673v13.279h6.804v3.391h-10.477V11.597z"/>
		<path fill="#FFFFFF" d="M236.684,21.838c0,3.932-2.401,6.852-7.016,6.852c-4.639,0-7.04-2.919-7.04-6.852V11.597h3.673v10.101
			c0,2.048,1.413,3.602,3.367,3.602c1.931,0,3.343-1.554,3.343-3.602V11.597h3.673V21.838z"/>
		<path fill="#FFFFFF" d="M243.861,19.555l-5.509-7.958h4.614l3.555,5.839l3.414-5.839h4.45l-5.392,7.887l6.027,8.782h-4.614
			l-4.073-6.71l-3.956,6.71h-4.355L243.861,19.555z"/>
		<path fill="#FFFFFF" d="M256.503,11.597h11.324v3.391h-7.651v3.108h7.228v3.39h-7.228v3.39h8.075v3.391h-11.748V11.597z"/>
	</g>
	<g display="inline">
		<polygon fill="#FFFFFF" points="288.207,14.039 280.619,23.423 275.165,18.959 273.059,21.533 278.528,26.01 281.102,28.117 
			283.193,25.53 290.793,16.129 		"/>
	</g>
	<g display="inline">
		<path fill="#FFFFFF" d="M25.115,25.814c-1.512,2.076-3.588,2.911-5.936,2.911c-4.875,0-8.26-3.521-8.26-8.395
			c0-4.875,3.385-8.396,8.26-8.396c2.167,0,4.107,0.722,5.507,2.505l-1.219,1.016c-0.993-1.489-2.686-2.167-4.288-2.167
			c-4.175,0-6.77,3.069-6.77,7.042c0,3.972,2.595,7.041,6.77,7.041c1.603,0,3.588-0.768,4.717-2.482L25.115,25.814z"/>
		<path fill="#FFFFFF" d="M34.726,11.935c4.875,0,8.26,3.521,8.26,8.396c0,4.875-3.385,8.395-8.26,8.395s-8.26-3.521-8.26-8.395
			C26.466,15.456,29.852,11.935,34.726,11.935z M34.726,27.372c4.175,0,6.771-3.069,6.771-7.041c0-3.972-2.595-7.042-6.771-7.042
			c-4.175,0-6.77,3.069-6.77,7.042C27.956,24.302,30.551,27.372,34.726,27.372z"/>
		<path fill="#FFFFFF" d="M45.781,12.341h4.942c8.305,0,8.644,6.815,8.644,7.989c0,1.173-0.338,7.989-8.644,7.989h-4.942V12.341z
			 M47.271,26.965h3.069c4.243,0,7.538-2.054,7.538-6.635c0-4.582-3.295-6.635-7.538-6.635h-3.069V26.965z"/>
		<path fill="#FFFFFF" d="M62.366,12.341h9.772v1.354h-8.282v5.687h7.763v1.354h-7.763v6.229h8.643v1.354H62.366V12.341z"/>
		<path fill="#FFFFFF" d="M85.833,12.341h1.535l6.725,15.978h-1.67l-1.738-4.243h-8.463l-1.806,4.243h-1.557L85.833,12.341z
			 M86.532,13.966l-3.724,8.756h7.334L86.532,13.966z"/>
		<path fill="#FFFFFF" d="M96.053,12.341h4.604c2.257,0,5.146,0.88,5.146,4.22c0,2.889-2.302,4.175-4.807,4.175h-3.453v7.583h-1.49
			V12.341z M97.543,19.382h3.385c1.693,0,3.385-0.722,3.385-2.821c0-2.054-1.76-2.866-3.475-2.866h-3.295V19.382z"/>
		<path fill="#FFFFFF" d="M108.666,12.341h4.604c2.257,0,5.146,0.88,5.146,4.22c0,2.889-2.302,4.175-4.807,4.175h-3.453v7.583h-1.49
			V12.341z M110.156,19.382h3.385c1.693,0,3.385-0.722,3.385-2.821c0-2.054-1.76-2.866-3.475-2.866h-3.295V19.382z"/>
		<path fill="#FFFFFF" d="M121.279,12.341h1.49v14.624h7.447v1.354h-8.937V12.341z"/>
		<path fill="#FFFFFF" d="M132.223,12.341h1.49v15.978h-1.49V12.341z"/>
		<path fill="#FFFFFF" d="M137.751,12.341h9.771v1.354h-8.282v5.687h7.763v1.354h-7.763v6.229h8.644v1.354h-10.133V12.341z"/>
		<path fill="#FFFFFF" d="M150.589,12.341h4.943c8.305,0,8.643,6.815,8.643,7.989c0,1.173-0.338,7.989-8.643,7.989h-4.943V12.341z
			 M152.079,26.965h3.068c4.244,0,7.538-2.054,7.538-6.635c0-4.582-3.294-6.635-7.538-6.635h-3.068V26.965z"/>
		<path fill="#FFFFFF" d="M167.919,17.758c0.609,0,1.083,0.474,1.083,1.083s-0.474,1.083-1.083,1.083s-1.084-0.474-1.084-1.083
			S167.31,17.758,167.919,17.758z M167.919,26.288c0.609,0,1.083,0.474,1.083,1.083s-0.474,1.083-1.083,1.083
			s-1.084-0.474-1.084-1.083S167.31,26.288,167.919,26.288z"/>
	</g>
</g>
</svg>
