<?xml version="1.0" standalone="no"?>
<!DOCTYPE svg PUBLIC "-//W3C//DTD SVG 20010904//EN"
 "http://www.w3.org/TR/2001/REC-SVG-20010904/DTD/svg10.dtd">
<svg version="1.0" xmlns="http://www.w3.org/2000/svg"
 width="700.000000pt" height="700.000000pt" viewBox="0 0 700.000000 700.000000"
 preserveAspectRatio="xMidYMid meet">
<metadata>
Created by potrace 1.11, written by Peter Selinger 2001-2013
</metadata>
<g transform="translate(0.000000,700.000000) scale(0.100000,-0.100000)"
fill="#000000" stroke="none">
<path d="M0 3500 l0 -3500 3500 0 3500 0 0 3500 0 3500 -3500 0 -3500 0 0
-3500z m5800 1230 l0 -1700 -2300 0 -2300 0 0 1700 0 1700 2300 0 2300 0 0
-1700z m-2636 -2034 c24 -14 56 -40 70 -57 26 -30 26 -32 10 -51 -17 -18 -19
-18 -58 21 -23 21 -50 43 -61 48 -129 64 -277 -43 -251 -181 10 -50 67 -97
213 -170 175 -88 213 -130 213 -239 0 -65 -35 -142 -80 -180 -66 -56 -109 -72
-195 -72 -70 0 -87 4 -134 30 -51 28 -105 88 -123 136 -11 27 31 50 47 24 61
-102 116 -139 210 -139 105 0 192 66 215 165 23 94 -17 147 -163 220 -146 74
-214 118 -236 153 -54 87 -31 205 56 279 62 54 188 60 267 13z m1248 23 c80
-17 163 -64 229 -128 32 -31 59 -61 59 -67 0 -5 -9 -15 -20 -22 -18 -11 -26
-6 -79 48 -128 131 -303 161 -467 80 -75 -37 -155 -119 -192 -197 -24 -52 -27
-69 -27 -168 0 -104 2 -113 32 -172 63 -120 172 -202 301 -224 203 -36 432
122 432 298 l0 33 -160 0 -160 0 0 25 0 25 191 0 192 0 -5 -75 c-11 -171 -129
-302 -315 -350 -334 -87 -645 225 -558 560 23 86 61 149 130 214 117 109 266
152 417 120z m-2912 -9 c360 -57 489 -535 211 -782 -89 -79 -188 -108 -366
-108 l-115 0 0 450 0 450 103 0 c56 0 131 -5 167 -10z m1030 -20 l0 -30 -185
0 -185 0 0 -160 0 -160 180 0 180 0 0 -30 0 -30 -180 0 -180 0 0 -205 0 -205
185 0 185 0 0 -25 0 -25 -215 0 -215 0 0 450 0 450 215 0 215 0 0 -30z m1080
-420 l0 -450 -30 0 -30 0 0 450 0 450 30 0 30 0 0 -450z m1750 61 l365 -384 5
384 5 384 28 3 27 3 0 -463 0 -463 -44 45 c-24 25 -192 204 -375 397 l-331
353 0 -385 0 -385 -30 0 -30 0 0 451 c0 248 4 449 8 447 4 -1 172 -176 372
-387z m-3784 -859 c23 -11 55 -37 73 -57 31 -36 32 -38 15 -57 -18 -19 -19
-18 -50 16 -83 91 -204 98 -278 15 -59 -65 -61 -152 -3 -206 17 -16 91 -61
162 -98 151 -79 172 -94 202 -143 18 -28 23 -52 23 -101 0 -105 -47 -177 -153
-233 -60 -32 -184 -32 -243 -1 -53 28 -99 74 -124 124 -20 38 -20 38 -1 49 27
14 25 15 61 -40 84 -131 261 -142 359 -23 60 72 64 156 11 216 -17 20 -92 67
-184 116 -169 91 -199 119 -212 197 -15 95 51 206 142 240 52 19 148 12 200
-14z m816 8 c36 -11 90 -37 122 -57 52 -35 56 -40 56 -76 l0 -39 -42 37 c-165
141 -392 132 -546 -22 -237 -236 -106 -625 230 -683 103 -18 230 19 312 90 18
17 36 30 40 30 3 0 6 -15 6 -34 0 -26 -7 -39 -27 -54 -82 -57 -184 -92 -273
-92 -275 0 -504 256 -463 520 43 278 324 461 585 380z m1683 5 c229 -60 384
-290 345 -512 -32 -185 -166 -331 -345 -378 -212 -55 -431 50 -533 254 -36 74
-37 77 -37 191 0 114 1 117 37 191 66 132 198 237 328 262 55 10 149 6 205 -8z
m1034 -14 c114 -46 203 -128 259 -240 36 -74 37 -77 37 -191 0 -114 -1 -117
-37 -191 -102 -204 -321 -309 -533 -254 -178 47 -313 194 -345 377 -39 221
113 449 341 513 74 21 207 14 278 -14z m-2339 -171 l0 -190 275 0 275 0 0 191
0 190 28 -3 27 -3 0 -445 0 -445 -27 -3 -28 -3 0 230 0 231 -275 0 -275 0 0
-230 0 -230 -25 0 -25 0 0 450 0 450 25 0 25 0 0 -190z m2792 -232 l3 -423
113 -3 c112 -3 112 -3 112 -27 l0 -25 -140 0 -140 0 0 450 0 450 25 0 25 0 2
-422z"/>
<path d="M1220 4730 l0 -1680 2280 0 2280 0 0 1680 0 1680 -2280 0 -2280 0 0
-1680z m4190 965 l0 -405 -23 0 c-24 0 -24 2 -31 133 -7 150 -25 246 -56 307
-50 99 -179 183 -348 227 -119 30 -304 35 -417 11 -304 -67 -561 -286 -678
-576 -57 -139 -72 -224 -72 -402 0 -149 3 -175 28 -265 82 -298 274 -545 530
-680 137 -72 230 -97 387 -102 154 -6 239 7 367 56 98 38 224 116 297 182 l55
50 30 -33 31 -33 -33 -29 c-111 -99 -309 -199 -477 -243 -119 -31 -322 -42
-437 -23 -251 40 -470 149 -641 319 -83 81 -189 232 -218 307 l-17 44 -43 -76
c-100 -175 -254 -329 -438 -438 l-59 -35 29 -11 c72 -28 721 -252 824 -285
244 -78 517 -146 740 -184 201 -34 320 -44 525 -45 176 -1 200 -3 203 -17 3
-19 -102 -51 -248 -76 -116 -19 -412 -19 -565 2 -262 35 -444 92 -935 295
-184 76 -412 168 -506 204 l-172 67 -74 -25 c-255 -86 -566 -71 -817 37 -164
71 -335 205 -442 346 -65 86 -153 265 -179 366 -51 197 -49 403 7 579 145 464
533 772 1025 815 465 40 891 -183 1094 -573 l48 -93 42 73 c134 235 326 410
556 505 172 71 390 104 589 88 162 -13 275 -42 402 -106 l67 -33 0 90 c0 89 0
90 25 90 l25 0 0 -405z"/>
<path d="M2495 5980 c-150 -21 -302 -81 -418 -164 -70 -49 -187 -169 -236
-240 -50 -72 -119 -225 -141 -312 -61 -239 -40 -500 59 -719 91 -201 262 -380
471 -494 41 -22 78 -41 81 -41 4 0 9 13 12 29 8 40 60 61 172 71 140 12 228 0
443 -62 l103 -29 65 36 c221 124 390 342 460 595 32 118 44 345 24 467 -56
346 -300 665 -607 793 -152 64 -343 91 -488 70z"/>
<path d="M2550 4033 c-49 -9 -119 -34 -130 -48 -18 -22 86 -39 240 -40 143 0
268 19 237 36 -54 31 -280 65 -347 52z"/>
<path d="M1280 2271 c0 -358 1 -392 17 -398 9 -4 66 -2 126 4 132 13 214 48
276 120 178 202 119 521 -117 631 -50 23 -72 27 -179 30 l-123 4 0 -391z"/>
<path d="M3875 1436 c-210 -51 -347 -251 -314 -458 27 -170 161 -304 336 -338
169 -34 356 68 436 237 29 62 32 77 32 164 0 90 -2 99 -38 171 -60 122 -165
203 -297 228 -65 12 -91 12 -155 -4z"/>
<path d="M4872 1439 c-123 -24 -231 -108 -289 -227 -36 -72 -38 -81 -38 -172
0 -91 2 -100 38 -172 61 -124 169 -205 305 -229 258 -46 508 206 462 463 -31
171 -158 301 -328 337 -60 12 -88 13 -150 0z"/>
</g>
</svg>
