<?xml version="1.0" standalone="no"?>
<!DOCTYPE svg PUBLIC "-//W3C//DTD SVG 20010904//EN"
 "http://www.w3.org/TR/2001/REC-SVG-20010904/DTD/svg10.dtd">
<svg version="1.0" xmlns="http://www.w3.org/2000/svg"
 width="700.000000pt" height="700.000000pt" viewBox="0 0 700.000000 700.000000"
 preserveAspectRatio="xMidYMid meet">
<metadata>
Created by potrace 1.11, written by Peter Selinger 2001-2013
</metadata>
<g transform="translate(0.000000,700.000000) scale(0.100000,-0.100000)"
fill="#000000" stroke="none">
<path d="M0 3500 l0 -3500 3500 0 3500 0 0 3500 0 3500 -3500 0 -3500 0 0
-3500z m5130 1870 l0 -370 -185 0 -185 0 0 370 0 370 185 0 185 0 0 -370z
m-970 -78 c95 -173 174 -321 176 -330 3 -13 -34 -38 -155 -103 l-159 -86 -179
325 c-98 179 -179 330 -180 336 -3 13 309 186 319 177 3 -3 84 -147 178 -319z
m1990 192 c41 -23 74 -46 73 -52 -6 -28 -357 -652 -367 -652 -16 1 -305 163
-308 174 -1 4 79 156 177 336 l180 328 85 -46 c47 -25 119 -65 160 -88z
m-3952 -779 c438 -62 813 -292 1077 -660 31 -44 88 -143 126 -220 38 -77 69
-133 69 -124 0 19 80 184 128 264 220 368 599 631 1042 727 89 19 135 22 305
22 179 0 213 -3 321 -26 494 -108 897 -427 1107 -878 43 -92 102 -259 109
-310 l3 -25 -317 -3 -317 -2 -34 74 c-127 273 -374 472 -670 538 -122 27 -342
21 -456 -12 -354 -102 -622 -392 -692 -750 -22 -112 -15 -299 15 -415 125
-483 603 -795 1089 -710 333 58 606 279 733 592 l29 73 311 0 c171 0 313 -3
316 -6 3 -3 -7 -54 -22 -114 -72 -274 -213 -516 -419 -720 -392 -387 -948
-540 -1486 -409 -383 94 -716 329 -939 663 -53 80 -128 223 -146 279 -14 46
-18 43 -54 -45 -15 -37 -52 -109 -82 -159 -30 -50 -54 -94 -54 -98 0 -3 79
-85 175 -181 l175 -175 -217 -217 -218 -218 -181 181 -181 180 -64 -40 c-82
-51 -248 -122 -364 -156 -144 -41 -265 -57 -435 -57 -252 0 -432 39 -654 140
-738 335 -1099 1171 -839 1942 131 390 421 721 793 906 285 141 608 193 918
149z"/>
<path d="M1791 4085 c-312 -70 -555 -264 -686 -547 -79 -172 -105 -396 -67
-579 77 -372 353 -660 718 -751 176 -43 403 -28 572 40 l64 25 -323 323 -324
324 218 217 217 218 328 -328 328 -328 13 28 c22 48 49 125 68 193 27 99 24
358 -5 463 -92 332 -339 584 -669 683 -74 22 -111 27 -238 30 -106 3 -169 -1
-214 -11z"/>
</g>
</svg>
