<?xml version="1.0" encoding="utf-8"?>
<!-- Generator: Adobe Illustrator 16.0.3, SVG Export Plug-In . SVG Version: 6.00 Build 0)  -->
<!DOCTYPE svg PUBLIC "-//W3C//DTD SVG 1.1//EN" "http://www.w3.org/Graphics/SVG/1.1/DTD/svg11.dtd">
<svg version="1.1" id="Layer_1" xmlns="http://www.w3.org/2000/svg" xmlns:xlink="http://www.w3.org/1999/xlink" x="0px" y="0px"
	 width="399px" height="62.285px" viewBox="0 0 399 62.285" enable-background="new 0 0 399 62.285" xml:space="preserve">
<g id="Layer_3" display="none">
	<rect x="-22.333" y="0.898" display="inline" fill="#D395FB" width="510.667" height="73.768"/>
</g>
<g id="Layer_1_1_" display="none">
	<rect x="7" y="5.779" display="inline" fill="#022C4C" width="385" height="40.155"/>
	<g display="inline">
		<path fill="#FFFFFF" d="M252.21,21.301c-0.604-0.773-1.813-1.135-2.729-1.135c-1.063,0-2.536,0.483-2.536,1.763
			c0,3.116,7.874,1.111,7.874,7.102c0,3.816-3.067,5.628-6.594,5.628c-2.198,0-4.132-0.652-5.749-2.149l2.682-2.947
			c0.772,1.014,2.028,1.618,3.284,1.618c1.231,0,2.608-0.58,2.608-1.788c0-3.14-8.02-1.449-8.02-7.15
			c0-3.647,3.164-5.555,6.521-5.555c1.933,0,3.791,0.507,5.24,1.787L252.21,21.301z"/>
		<path fill="#FFFFFF" d="M257.259,17.123h6.354c3.551,0,6.498,1.135,6.498,5.193c0,4.01-2.729,5.242-6.328,5.242h-2.755v6.667
			h-3.769V17.123z M261.027,24.369h2.514c1.328,0,2.656-0.459,2.656-2.053c0-1.763-1.787-2.005-3.236-2.005h-1.934V24.369z"/>
		<path fill="#FFFFFF" d="M272.117,17.123h6.617c3.503,0,6.449,1.208,6.449,5.193c0,2.391-1.28,4.251-3.695,4.686l4.348,7.223
			h-4.517l-3.575-6.836h-1.859v6.836h-3.768V17.123z M275.884,24.2h2.223c1.377,0,3.164-0.048,3.164-1.908
			c0-1.715-1.546-1.98-2.923-1.98h-2.464V24.2z"/>
		<path fill="#FFFFFF" d="M287.358,17.123h3.769v17.102h-3.769V17.123z"/>
		<path fill="#FFFFFF" d="M294.195,17.123h5.121l7.271,11.884h0.047V17.123h3.77v17.102h-4.928l-7.464-12.174h-0.05v12.174h-3.768
			V17.123z"/>
		<path fill="#FFFFFF" d="M329.005,33.018c-2.223,1.158-4.662,1.642-7.176,1.642c-5.338,0-9.227-3.502-9.227-8.985
			c0-5.483,3.889-8.985,9.227-8.985c2.707,0,5.098,0.604,6.813,2.198l-2.656,2.899c-1.016-1.063-2.246-1.619-4.154-1.619
			c-3.213,0-5.314,2.319-5.314,5.507s2.104,5.507,5.314,5.507c1.643,0,2.85-0.459,3.551-0.845v-2.778h-3.066v-3.479h6.689V33.018
			L329.005,33.018z"/>
		<path fill="#FFFFFF" d="M331.396,30.383l6.645-5.966c0.676-0.628,1.52-1.353,1.52-2.392c0-1.159-0.988-1.86-2.102-1.86
			c-1.328,0-2.125,0.942-2.221,2.174l-3.623-0.266c0.217-3.526,2.68-5.241,6.037-5.241c3.115,0,5.531,1.715,5.531,5.145
			c0,2.198-0.941,3.454-2.246,4.589l-5.193,4.469h7.586v3.188h-11.934V30.383L331.396,30.383z"/>
		<path fill="#FFFFFF" d="M351.109,21.181l-3.43,3.019l-2.053-2.367l5.578-4.71h3.383v17.102h-3.479V21.181L351.109,21.181z"/>
	</g>
	<g display="inline">
		<g>
			<polyline fill="none" stroke="#FFFFFF" stroke-width="1.5" stroke-miterlimit="10" points="398.25,47.783 398.25,50.033 
				396,50.033 			"/>
			
				<line fill="none" stroke="#FFFFFF" stroke-width="1.5" stroke-miterlimit="10" stroke-dasharray="4.5172,4.5172" x1="391.48" y1="50.033" x2="5.259" y2="50.033"/>
			<polyline fill="none" stroke="#FFFFFF" stroke-width="1.5" stroke-miterlimit="10" points="3,50.033 0.75,50.033 0.75,47.783 			
				"/>
			
				<line fill="none" stroke="#FFFFFF" stroke-width="1.5" stroke-miterlimit="10" stroke-dasharray="4.9481,4.9481" x1="0.75" y1="42.835" x2="0.75" y2="5.724"/>
			<polyline fill="none" stroke="#FFFFFF" stroke-width="1.5" stroke-miterlimit="10" points="0.75,3.25 0.75,1 3,1 			"/>
			
				<line fill="none" stroke="#FFFFFF" stroke-width="1.5" stroke-miterlimit="10" stroke-dasharray="4.5172,4.5172" x1="7.517" y1="1" x2="393.74" y2="1"/>
			<polyline fill="none" stroke="#FFFFFF" stroke-width="1.5" stroke-miterlimit="10" points="396,1 398.25,1 398.25,3.25 			"/>
			
				<line fill="none" stroke="#FFFFFF" stroke-width="1.5" stroke-miterlimit="10" stroke-dasharray="4.9481,4.9481" x1="398.25" y1="8.198" x2="398.25" y2="45.309"/>
		</g>
	</g>
	<g display="inline">
		<g>
			<path fill="#FF0069" d="M258.289,40.361c-5.881,11.74-17.709,19.966-30.705,21.634c-13.885,1.78-27.942-4.79-36.55-15.606
				c-1.254-1.576-2.382-3.242-3.404-4.979c-0.083-0.141-0.698-1.379-0.113-1.311c0.63,0.074,1.159,0.992,1.44,1.467
				c3.294,5.586,8.469,10.199,14.295,13.313c6.069,3.244,12.973,4.874,19.854,4.584c13.077-0.557,25.631-8.364,32.152-19.671
				c0.357-0.619,0.695-1.258,1.019-1.9C256.604,37.242,258.66,39.62,258.289,40.361L258.289,40.361z"/>
			<path fill="#FF0069" d="M256.242,48.936c0.553-3.785,1.104-7.567,1.657-11.352c0.425-0.064,0.851-0.13,1.28-0.197
				c-2.79,1.73-5.578,3.456-8.366,5.184c-0.112,0.072-1.347,0.755-1.276,0.199c0.074-0.615,0.973-1.183,1.434-1.468
				c2.789-1.726,5.576-3.454,8.365-5.183c0.105-0.066,1.357-0.752,1.276-0.196c-0.552,3.784-1.104,7.568-1.657,11.353
				c-0.09,0.617-0.961,1.175-1.435,1.465C257.414,48.805,256.16,49.493,256.242,48.936L256.242,48.936z"/>
		</g>
	</g>
	<g display="inline">
		<path fill="#FFFFFF" d="M23.049,17.701h1.496l6.557,15.578h-1.628l-1.694-4.137h-8.251l-1.76,4.137H16.25L23.049,17.701z
			 M23.731,19.285L20.1,27.822h7.151L23.731,19.285z"/>
		<path fill="#FFFFFF" d="M33.014,17.701h4.489c2.2,0,5.017,0.858,5.017,4.114c0,2.816-2.244,4.071-4.687,4.071h-3.367v7.394h-1.452
			V17.701z M34.466,24.565h3.301c1.65,0,3.3-0.704,3.3-2.75c0-2.002-1.716-2.794-3.389-2.794h-3.212V24.565z"/>
		<path fill="#FFFFFF" d="M45.312,17.701h4.489c2.2,0,5.017,0.858,5.017,4.114c0,2.816-2.244,4.071-4.687,4.071h-3.367v7.394h-1.452
			V17.701z M46.764,24.565h3.301c1.65,0,3.3-0.704,3.3-2.75c0-2.002-1.716-2.794-3.389-2.794h-3.212V24.565z"/>
		<path fill="#FFFFFF" d="M57.61,17.701h1.452v14.258h7.261v1.32H57.61V17.701z"/>
		<path fill="#FFFFFF" d="M69.292,26.568l-5.721-8.867h1.738l4.708,7.393l4.819-7.393h1.628l-5.721,8.867v6.711h-1.452
			L69.292,26.568L69.292,26.568z"/>
		<path fill="#FFFFFF" d="M83.526,17.701h4.489c2.2,0,5.017,0.858,5.017,4.114c0,2.816-2.244,4.071-4.687,4.071h-3.367v7.394h-1.452
			V17.701z M84.978,24.565h3.301c1.65,0,3.3-0.704,3.3-2.75c0-2.002-1.716-2.794-3.389-2.794h-3.212V24.565z"/>
		<path fill="#FFFFFF" d="M95.824,17.701h4.093c1.232,0,5.544,0,5.544,4.092c0,2.971-2.266,3.785-3.982,4.005l4.533,7.481h-1.65
			l-4.378-7.394h-2.707v7.394h-1.452L95.824,17.701L95.824,17.701z M97.276,24.565h3.081c3.059,0,3.652-1.694,3.652-2.772
			s-0.594-2.772-3.652-2.772h-3.081V24.565z"/>
		<path fill="#FFFFFF" d="M115.58,17.305c4.753,0,8.053,3.432,8.053,8.185c0,4.752-3.3,8.185-8.053,8.185
			c-4.752,0-8.053-3.433-8.053-8.185C107.527,20.737,110.828,17.305,115.58,17.305z M115.58,32.354c4.071,0,6.601-2.992,6.601-6.864
			c0-3.873-2.53-6.865-6.601-6.865c-4.071,0-6.601,2.993-6.601,6.865C108.979,29.361,111.509,32.354,115.58,32.354z"/>
		<path fill="#FFFFFF" d="M126.403,17.701h2.178l5.677,13.07l5.677-13.07h2.068v15.578h-1.452v-13.73h-0.044l-5.941,13.73h-0.638
			l-6.029-13.73h-0.044v13.73h-1.452V17.701L126.403,17.701z"/>
		<path fill="#FFFFFF" d="M152.826,17.305c4.753,0,8.053,3.432,8.053,8.185c0,4.752-3.3,8.185-8.053,8.185
			c-4.752,0-8.053-3.433-8.053-8.185C144.773,20.737,148.074,17.305,152.826,17.305z M152.826,32.354
			c4.071,0,6.601-2.992,6.601-6.864c0-3.873-2.53-6.865-6.601-6.865c-4.071,0-6.601,2.993-6.601,6.865
			C146.225,29.361,148.755,32.354,152.826,32.354z"/>
		<path fill="#FFFFFF" d="M182.021,30.836c-1.475,2.023-3.499,2.838-5.787,2.838c-4.752,0-8.053-3.433-8.053-8.185
			c0-4.753,3.301-8.185,8.053-8.185c2.112,0,4.004,0.704,5.369,2.442l-1.188,0.99c-0.968-1.452-2.618-2.112-4.181-2.112
			c-4.07,0-6.601,2.993-6.601,6.865c0,3.872,2.531,6.864,6.601,6.864c1.563,0,3.499-0.748,4.599-2.419L182.021,30.836z"/>
		<path fill="#FFFFFF" d="M191.392,17.305c4.753,0,8.054,3.432,8.054,8.185c0,4.752-3.301,8.185-8.054,8.185
			c-4.752,0-8.053-3.433-8.053-8.185C183.338,20.737,186.639,17.305,191.392,17.305z M191.392,32.354
			c4.071,0,6.601-2.992,6.601-6.864c0-3.873-2.53-6.865-6.601-6.865c-4.071,0-6.601,2.993-6.601,6.865
			C184.791,29.361,187.321,32.354,191.392,32.354z"/>
		<path fill="#FFFFFF" d="M202.169,17.701h4.82c8.096,0,8.426,6.645,8.426,7.789c0,1.144-0.33,7.789-8.426,7.789h-4.82V17.701z
			 M203.623,31.958h2.992c4.137,0,7.35-2.002,7.35-6.469c0-4.467-3.213-6.469-7.35-6.469h-2.992V31.958z"/>
		<path fill="#FFFFFF" d="M218.341,17.701h9.527v1.32h-8.076v5.544h7.569v1.32h-7.569v6.073h8.429v1.319h-9.88V17.701z"/>
		<path fill="#FFFFFF" d="M231.783,22.981c0.594,0,1.057,0.462,1.057,1.056c0,0.594-0.463,1.056-1.057,1.056
			c-0.595,0-1.057-0.462-1.057-1.056C230.727,23.443,231.188,22.981,231.783,22.981z M231.783,31.298
			c0.594,0,1.057,0.462,1.057,1.056c0,0.595-0.463,1.057-1.057,1.057c-0.595,0-1.057-0.462-1.057-1.057
			C230.727,31.761,231.188,31.298,231.783,31.298z"/>
	</g>
	<path display="inline" fill="#FEFFFF" d="M379.437,27.123c-0.137,0.019-3.354,0.48-5.66,2.79c-1.102,1.099-1.779,2.403-2.193,3.485
		v-8.004c0.17,0.022,0.338,0.034,0.506,0.034c1.863,0,3.412-1.403,4.254-3.848c1.113-3.247-1.055-8.068-1.146-8.272l-0.189-0.414
		l-0.402,0.21c-0.076,0.04-0.822,0.435-1.775,1.092c-0.734-1.017-1.373-1.698-1.438-1.764l-0.313-0.33l-0.314,0.33
		c-0.063,0.066-0.701,0.748-1.438,1.764c-0.951-0.657-1.697-1.052-1.775-1.092l-0.402-0.21l-0.188,0.414
		c-0.094,0.204-2.262,5.025-1.146,8.273c0.842,2.445,2.391,3.848,4.254,3.848l0,0c0.168,0,0.336-0.012,0.504-0.034v8.003
		c-0.412-1.082-1.092-2.386-2.191-3.485c-2.309-2.309-5.525-2.771-5.664-2.79l-0.561-0.077l0.076,0.562
		c0.018,0.136,0.48,3.355,2.789,5.664c2.098,2.101,4.949,2.67,5.551,2.771v2.606h1.012v-2.606c0.6-0.101,3.453-0.67,5.551-2.771
		c2.309-2.308,2.771-5.526,2.789-5.664l0.076-0.562L379.437,27.123z"/>
</g>
<g id="Layer_4">
	<rect x="7" y="5.779" fill="#40D31C" width="385" height="40.155"/>
	<g opacity="0.5">
		<g>
			<polyline fill="none" stroke="#FFFFFF" stroke-width="1.5" stroke-miterlimit="10" points="398.25,47.783 398.25,50.033 
				396,50.033 			"/>
			
				<line fill="none" stroke="#FFFFFF" stroke-width="1.5" stroke-miterlimit="10" stroke-dasharray="4.5172,4.5172" x1="391.48" y1="50.033" x2="5.259" y2="50.033"/>
			<polyline fill="none" stroke="#FFFFFF" stroke-width="1.5" stroke-miterlimit="10" points="3,50.033 0.75,50.033 0.75,47.783 			
				"/>
			
				<line fill="none" stroke="#FFFFFF" stroke-width="1.5" stroke-miterlimit="10" stroke-dasharray="4.9481,4.9481" x1="0.75" y1="42.835" x2="0.75" y2="5.724"/>
			<polyline fill="none" stroke="#FFFFFF" stroke-width="1.5" stroke-miterlimit="10" points="0.75,3.25 0.75,1 3,1 			"/>
			
				<line fill="none" stroke="#FFFFFF" stroke-width="1.5" stroke-miterlimit="10" stroke-dasharray="4.5172,4.5172" x1="7.517" y1="1" x2="393.74" y2="1"/>
			<polyline fill="none" stroke="#FFFFFF" stroke-width="1.5" stroke-miterlimit="10" points="396,1 398.25,1 398.25,3.25 			"/>
			
				<line fill="none" stroke="#FFFFFF" stroke-width="1.5" stroke-miterlimit="10" stroke-dasharray="4.9481,4.9481" x1="398.25" y1="8.198" x2="398.25" y2="45.309"/>
		</g>
	</g>
	<g>
		<polygon fill="#FFFFFF" points="378.812,18.653 371.224,28.038 365.769,23.574 363.664,26.147 369.132,30.625 371.707,32.73 
			373.798,30.144 381.396,20.744 		"/>
	</g>
	<g>
		<path fill="#FFFFFF" d="M252.21,21.301c-0.604-0.773-1.813-1.135-2.729-1.135c-1.063,0-2.536,0.483-2.536,1.763
			c0,3.116,7.874,1.111,7.874,7.102c0,3.816-3.067,5.628-6.594,5.628c-2.198,0-4.132-0.652-5.749-2.149l2.682-2.947
			c0.772,1.014,2.028,1.618,3.284,1.618c1.231,0,2.608-0.58,2.608-1.788c0-3.14-8.02-1.449-8.02-7.15
			c0-3.647,3.164-5.555,6.521-5.555c1.933,0,3.791,0.507,5.24,1.787L252.21,21.301z"/>
		<path fill="#FFFFFF" d="M257.259,17.123h6.354c3.551,0,6.498,1.135,6.498,5.193c0,4.01-2.729,5.242-6.328,5.242h-2.755v6.667
			h-3.769V17.123z M261.027,24.369h2.514c1.328,0,2.656-0.459,2.656-2.053c0-1.763-1.787-2.005-3.236-2.005h-1.934V24.369z"/>
		<path fill="#FFFFFF" d="M272.117,17.123h6.617c3.503,0,6.449,1.208,6.449,5.193c0,2.391-1.28,4.251-3.695,4.686l4.348,7.223
			h-4.517l-3.575-6.836h-1.859v6.836h-3.768V17.123z M275.884,24.2h2.223c1.377,0,3.164-0.048,3.164-1.908
			c0-1.715-1.546-1.98-2.923-1.98h-2.464V24.2z"/>
		<path fill="#FFFFFF" d="M287.358,17.123h3.769v17.102h-3.769V17.123z"/>
		<path fill="#FFFFFF" d="M294.195,17.123h5.121l7.271,11.884h0.047V17.123h3.77v17.102h-4.928l-7.464-12.174h-0.05v12.174h-3.768
			V17.123z"/>
		<path fill="#FFFFFF" d="M329.005,33.018c-2.223,1.158-4.662,1.642-7.176,1.642c-5.338,0-9.227-3.502-9.227-8.985
			c0-5.483,3.889-8.985,9.227-8.985c2.707,0,5.098,0.604,6.813,2.198l-2.656,2.899c-1.016-1.063-2.246-1.619-4.154-1.619
			c-3.213,0-5.314,2.319-5.314,5.507s2.104,5.507,5.314,5.507c1.643,0,2.85-0.459,3.551-0.845v-2.778h-3.066v-3.479h6.689V33.018
			L329.005,33.018z"/>
		<path fill="#FFFFFF" d="M331.396,30.383l6.645-5.966c0.676-0.628,1.52-1.353,1.52-2.392c0-1.159-0.988-1.86-2.102-1.86
			c-1.328,0-2.125,0.942-2.221,2.174l-3.623-0.266c0.217-3.526,2.68-5.241,6.037-5.241c3.115,0,5.531,1.715,5.531,5.145
			c0,2.198-0.941,3.454-2.246,4.589l-5.193,4.469h7.586v3.188h-11.934V30.383L331.396,30.383z"/>
		<path fill="#FFFFFF" d="M351.109,21.181l-3.43,3.019l-2.053-2.367l5.578-4.71h3.383v17.102h-3.479V21.181L351.109,21.181z"/>
	</g>
	<g>
		<path fill="#FFFFFF" d="M17.743,19.116h4.081c2,0,4.561,0.78,4.561,3.741c0,2.561-2.04,3.701-4.261,3.701h-3.061v6.722h-1.32
			V19.116z M19.063,25.357h3c1.5,0,3.001-0.64,3.001-2.5c0-1.82-1.561-2.541-3.081-2.541h-2.92V25.357z"/>
		<path fill="#FFFFFF" d="M28.922,19.116h3.721c1.12,0,5.041,0,5.041,3.721c0,2.701-2.061,3.441-3.621,3.641l4.121,6.801h-1.5
			l-3.981-6.722h-2.46v6.722h-1.32L28.922,19.116L28.922,19.116z M30.243,25.357h2.801c2.78,0,3.32-1.54,3.32-2.521
			c0-0.98-0.54-2.521-3.32-2.521h-2.801V25.357z"/>
		<path fill="#FFFFFF" d="M46.884,18.756c4.321,0,7.322,3.121,7.322,7.441c0,4.32-3.001,7.441-7.322,7.441
			c-4.321,0-7.322-3.122-7.322-7.441C39.562,21.877,42.563,18.756,46.884,18.756z M46.884,32.438c3.701,0,6.001-2.72,6.001-6.24
			c0-3.521-2.301-6.241-6.001-6.241c-3.7,0-6.001,2.721-6.001,6.241C40.882,29.718,43.183,32.438,46.884,32.438z"/>
		<path fill="#FFFFFF" d="M56.722,19.116h1.98l5.161,11.883l5.161-11.883h1.88v14.163h-1.32V20.796h-0.04l-5.401,12.481h-0.58
			l-5.481-12.481h-0.04v12.481h-1.32V19.116z"/>
		<path fill="#FFFFFF" d="M80.744,18.756c4.321,0,7.322,3.121,7.322,7.441c0,4.32-3.001,7.441-7.322,7.441
			c-4.321,0-7.322-3.122-7.322-7.441C73.422,21.877,76.423,18.756,80.744,18.756z M80.744,32.438c3.701,0,6.001-2.72,6.001-6.24
			c0-3.521-2.301-6.241-6.001-6.241c-3.7,0-6.001,2.721-6.001,6.241C74.742,29.718,77.043,32.438,80.744,32.438z"/>
		<path fill="#FFFFFF" d="M107.285,31.058c-1.34,1.84-3.181,2.581-5.261,2.581c-4.321,0-7.322-3.121-7.322-7.44
			c0-4.32,3.001-7.441,7.322-7.441c1.92,0,3.641,0.64,4.881,2.22l-1.08,0.9c-0.88-1.32-2.38-1.92-3.801-1.92
			c-3.701,0-6.001,2.721-6.001,6.241s2.301,6.241,6.001,6.241c1.42,0,3.181-0.681,4.181-2.2L107.285,31.058z"/>
		<path fill="#FFFFFF" d="M115.803,18.756c4.321,0,7.322,3.121,7.322,7.441c0,4.32-3.001,7.441-7.322,7.441
			c-4.321,0-7.322-3.122-7.322-7.441C108.481,21.877,111.482,18.756,115.803,18.756z M115.803,32.438c3.701,0,6.001-2.72,6.001-6.24
			c0-3.521-2.301-6.241-6.001-6.241c-3.7,0-6.001,2.721-6.001,6.241S112.103,32.438,115.803,32.438z"/>
		<path fill="#FFFFFF" d="M125.602,19.116h4.381c7.362,0,7.662,6.042,7.662,7.082c0,1.04-0.3,7.082-7.662,7.082h-4.381V19.116z
			 M126.922,32.079h2.721c3.761,0,6.681-1.82,6.681-5.881c0-4.061-2.92-5.881-6.681-5.881h-2.721V32.079z"/>
		<path fill="#FFFFFF" d="M140.302,19.116h8.662v1.2h-7.341v5.041h6.881v1.2h-6.881v5.521h7.662v1.199h-8.982V19.116H140.302z"/>
		<path fill="#FFFFFF" d="M161.102,19.116h1.36l5.961,14.163h-1.48l-1.541-3.761h-7.501l-1.6,3.761h-1.38L161.102,19.116z
			 M161.722,20.556l-3.301,7.762h6.501L161.722,20.556z"/>
		<path fill="#FFFFFF" d="M170.161,19.116h4.081c2,0,4.561,0.78,4.561,3.741c0,2.561-2.04,3.701-4.261,3.701h-3.061v6.722h-1.32
			V19.116L170.161,19.116z M171.481,25.357h3c1.5,0,3.001-0.64,3.001-2.5c0-1.82-1.561-2.541-3.081-2.541h-2.92V25.357z"/>
		<path fill="#FFFFFF" d="M181.161,19.116h4.081c2,0,4.561,0.78,4.561,3.741c0,2.561-2.04,3.701-4.261,3.701h-3.061v6.722h-1.32
			V19.116L181.161,19.116z M182.481,25.357h3c1.5,0,3.001-0.64,3.001-2.5c0-1.82-1.561-2.541-3.081-2.541h-2.92V25.357z"/>
		<path fill="#FFFFFF" d="M191.041,19.116h1.32v12.963h6.602v1.2h-7.922V19.116z"/>
		<path fill="#FFFFFF" d="M200.742,19.116h1.319v14.163h-1.319V19.116z"/>
		<path fill="#FFFFFF" d="M205.641,19.116h8.662v1.2h-7.343v5.041h6.883v1.2h-6.883v5.521h7.662v1.199h-8.981V19.116L205.641,19.116
			z"/>
		<path fill="#FFFFFF" d="M217.021,19.116h4.381c7.362,0,7.661,6.042,7.661,7.082c0,1.04-0.299,7.082-7.661,7.082h-4.381V19.116z
			 M218.341,32.079h2.721c3.762,0,6.682-1.82,6.682-5.881c0-4.061-2.92-5.881-6.682-5.881h-2.721V32.079z"/>
		<path fill="#FFFFFF" d="M232.38,23.917c0.541,0,0.961,0.42,0.961,0.96s-0.42,0.96-0.961,0.96c-0.539,0-0.961-0.42-0.961-0.96
			S231.841,23.917,232.38,23.917z M232.38,31.479c0.541,0,0.961,0.419,0.961,0.96c0,0.539-0.42,0.959-0.961,0.959
			c-0.539,0-0.961-0.42-0.961-0.959C231.419,31.898,231.841,31.479,232.38,31.479z"/>
	</g>
</g>
</svg>
