<?xml version="1.0" encoding="utf-8"?>
<!-- Generator: Adobe Illustrator 16.0.3, SVG Export Plug-In . SVG Version: 6.00 Build 0)  -->
<!DOCTYPE svg PUBLIC "-//W3C//DTD SVG 1.1//EN" "http://www.w3.org/Graphics/SVG/1.1/DTD/svg11.dtd">
<svg version="1.1" id="Layer_1" xmlns="http://www.w3.org/2000/svg" xmlns:xlink="http://www.w3.org/1999/xlink" x="0px" y="0px"
	 width="110px" height="110px" viewBox="0 0 110 110" enable-background="new 0 0 110 110" xml:space="preserve">
<g id="airbrush">
	<g>
		<path d="M55,0.524C24.914,0.524,0.524,24.914,0.524,55c0,30.087,24.39,54.477,54.476,54.477c30.087,0,54.477-24.39,54.477-54.477
			C109.477,24.914,85.087,0.524,55,0.524z M95.195,36.104c1.787,3.82,3.041,7.937,3.658,12.256h-1.418
			c-0.601-4.051-1.783-7.913-3.447-11.508L95.195,36.104z M91.34,27.862c0.023,0.036,0.044,0.066,0.059,0.092
			c0.015,0.026,0.021,0.052,0.026,0.077c0.005,0.025,0.005,0.053,0,0.083c-0.005,0.03-0.013,0.065-0.024,0.105l-1.293,4.298
			c0.064-0.057,0.129-0.11,0.194-0.16c0.063-0.05,0.125-0.095,0.183-0.136l2.625-1.847l0.498,0.708l-4.316,3.038l-0.292-0.415
			c-0.045-0.064-0.072-0.124-0.082-0.179c-0.01-0.056-0.003-0.122,0.021-0.198l1.287-4.28c-0.061,0.051-0.119,0.1-0.182,0.147
			c-0.061,0.047-0.116,0.089-0.168,0.125l-2.65,1.865l-0.498-0.707l4.316-3.039L91.34,27.862z M89.279,25.399l-3.92,3.533
			L84.698,28.2l3.922-3.533L89.279,25.399z M81.677,18.496c0.034,0.027,0.063,0.051,0.083,0.071
			c0.021,0.021,0.037,0.042,0.051,0.065c0.01,0.023,0.019,0.049,0.022,0.079c0.005,0.03,0.008,0.066,0.008,0.11l0.032,4.487
			c0.045-0.074,0.091-0.144,0.137-0.21c0.049-0.067,0.094-0.128,0.137-0.184l1.963-2.538l0.685,0.529l-3.229,4.175l-0.4-0.311
			c-0.063-0.047-0.105-0.096-0.13-0.146c-0.026-0.051-0.039-0.116-0.038-0.196l-0.033-4.469c-0.042,0.066-0.085,0.13-0.129,0.194
			c-0.044,0.063-0.085,0.119-0.123,0.169l-1.984,2.564l-0.684-0.529l3.229-4.176L81.677,18.496z M72.922,17.628
			c0.042-0.351,0.156-0.698,0.34-1.038c0.184-0.34,0.41-0.625,0.68-0.854c0.271-0.229,0.565-0.395,0.888-0.495
			c0.321-0.101,0.659-0.133,1.014-0.095s0.707,0.151,1.06,0.34c0.351,0.189,0.639,0.422,0.863,0.698
			c0.223,0.276,0.383,0.575,0.475,0.897c0.092,0.321,0.115,0.658,0.072,1.01c-0.043,0.352-0.154,0.697-0.338,1.038
			c-0.185,0.341-0.412,0.625-0.683,0.854c-0.269,0.229-0.563,0.394-0.884,0.495c-0.321,0.102-0.657,0.134-1.012,0.097
			c-0.354-0.037-0.705-0.15-1.057-0.34c-0.352-0.189-0.64-0.422-0.865-0.697c-0.228-0.275-0.386-0.574-0.479-0.898
			C72.902,18.317,72.879,17.98,72.922,17.628z M71.332,13.018l0.919,0.356l-1.905,4.923l-0.919-0.356L71.332,13.018z M65.24,11.174
			l4.023,1.08l-0.209,0.779l-1.535-0.412l-1.158,4.319l-0.948-0.255l1.159-4.319l-1.541-0.414L65.24,11.174z M61.109,10.517
			l0.996,0.133l1.354,5.507l-0.752-0.101c-0.085-0.011-0.151-0.042-0.2-0.091c-0.049-0.049-0.08-0.107-0.097-0.173l-0.247-1.12
			l-2.167-0.29l-0.534,1.015c-0.025,0.053-0.07,0.099-0.134,0.137s-0.136,0.052-0.218,0.041l-0.756-0.101L61.109,10.517z
			 M53.226,14.969c0.017-0.045,0.038-0.088,0.064-0.127l2.653-3.888l-2.635,0.043l-0.012-0.781l3.905-0.063l0.006,0.361
			c0.002,0.112-0.027,0.214-0.09,0.308l-2.646,3.869l2.737-0.044l0.013,0.785l-4.011,0.065l-0.006-0.387
			C53.202,15.061,53.209,15.014,53.226,14.969z M50.822,10.432l0.613,5.243l-0.979,0.115l-0.613-5.243L50.822,10.432z
			 M45.575,11.306l0.958,4.364l2.064-0.453l0.174,0.792l-3.024,0.663l-1.131-5.156L45.575,11.306z M39.671,13.089l0.942-0.346
			l3.764,4.242l-0.712,0.262c-0.08,0.029-0.153,0.033-0.219,0.012c-0.066-0.021-0.122-0.057-0.166-0.108l-0.741-0.875l-2.053,0.752
			v1.147c0.001,0.06-0.017,0.12-0.055,0.184c-0.038,0.063-0.096,0.109-0.173,0.137l-0.716,0.263L39.671,13.089z M35.778,14.782
			l2.385,4.709l-0.879,0.445l-2.385-4.709L35.778,14.782z M30.106,18.939c0.068-0.331,0.205-0.642,0.409-0.936
			s0.475-0.551,0.81-0.771c0.327-0.215,0.647-0.351,0.961-0.408c0.314-0.056,0.615-0.056,0.904,0.002l-0.023,0.562
			c0,0.035-0.007,0.07-0.021,0.105c-0.014,0.035-0.043,0.067-0.087,0.097c-0.047,0.031-0.107,0.043-0.18,0.039
			c-0.073-0.004-0.161-0.003-0.264,0.004c-0.104,0.006-0.225,0.029-0.364,0.068s-0.297,0.117-0.474,0.233
			c-0.208,0.136-0.374,0.297-0.5,0.484s-0.208,0.388-0.245,0.604c-0.037,0.216-0.027,0.443,0.029,0.682
			c0.056,0.239,0.164,0.478,0.321,0.718c0.163,0.248,0.343,0.445,0.541,0.593c0.197,0.146,0.399,0.247,0.606,0.3
			c0.207,0.053,0.415,0.062,0.623,0.024c0.209-0.037,0.407-0.117,0.594-0.24c0.112-0.074,0.209-0.146,0.292-0.218
			c0.083-0.072,0.153-0.146,0.212-0.223c0.059-0.077,0.109-0.158,0.149-0.245s0.075-0.183,0.102-0.288
			c0.008-0.031,0.02-0.06,0.035-0.086c0.015-0.026,0.036-0.048,0.062-0.065c0.045-0.029,0.095-0.038,0.15-0.024l0.554,0.138
			c-0.033,0.339-0.142,0.654-0.325,0.944c-0.184,0.29-0.458,0.555-0.825,0.796c-0.327,0.215-0.659,0.353-0.993,0.413
			c-0.334,0.06-0.66,0.051-0.976-0.026c-0.316-0.078-0.615-0.222-0.895-0.434c-0.281-0.212-0.529-0.481-0.744-0.809
			c-0.218-0.332-0.363-0.671-0.434-1.019C30.04,19.608,30.038,19.269,30.106,18.939z M27.426,20.076l0.514,0.589l-1.763,1.539
			l0.962,1.103l1.389-1.212l0.497,0.569l-1.389,1.212L28.618,25l1.763-1.539l0.516,0.591l-2.508,2.189l-3.471-3.977L27.426,20.076z
			 M21.9,25.413c0.233-0.265,0.466-0.467,0.699-0.605c0.232-0.139,0.46-0.222,0.682-0.25c0.223-0.028,0.438-0.004,0.646,0.073
			c0.208,0.076,0.405,0.196,0.589,0.358c0.192,0.169,0.339,0.354,0.443,0.56s0.156,0.421,0.159,0.651
			c0.002,0.229-0.048,0.468-0.154,0.716c-0.105,0.248-0.271,0.501-0.498,0.758l-0.487,0.554l1.395,1.228l-0.649,0.737l-3.961-3.489
			L21.9,25.413z M18.076,30.54c0.049-0.225,0.151-0.452,0.305-0.68c0.174-0.258,0.375-0.469,0.603-0.632s0.466-0.272,0.715-0.328
			l0.25,0.459c0.029,0.052,0.043,0.099,0.042,0.141c-0.002,0.042-0.016,0.083-0.043,0.123c-0.027,0.041-0.073,0.075-0.139,0.104
			s-0.14,0.065-0.225,0.108s-0.174,0.1-0.267,0.17c-0.094,0.071-0.183,0.169-0.267,0.294c-0.076,0.113-0.129,0.22-0.158,0.322
			c-0.029,0.103-0.039,0.198-0.03,0.289c0.01,0.09,0.04,0.172,0.087,0.246c0.049,0.074,0.113,0.138,0.194,0.192
			c0.103,0.069,0.208,0.099,0.315,0.087c0.107-0.011,0.217-0.048,0.33-0.11c0.112-0.062,0.229-0.141,0.348-0.236
			c0.12-0.095,0.245-0.191,0.373-0.288c0.128-0.097,0.262-0.187,0.401-0.269c0.139-0.082,0.285-0.141,0.437-0.177
			c0.151-0.035,0.311-0.039,0.476-0.011c0.166,0.028,0.34,0.104,0.521,0.227c0.198,0.133,0.36,0.292,0.487,0.476
			c0.127,0.185,0.211,0.385,0.251,0.601c0.041,0.216,0.034,0.443-0.02,0.681c-0.052,0.237-0.161,0.477-0.324,0.719
			c-0.094,0.139-0.2,0.267-0.319,0.384c-0.118,0.117-0.245,0.22-0.379,0.31c-0.134,0.09-0.272,0.166-0.417,0.226
			c-0.143,0.061-0.287,0.104-0.431,0.129l-0.231-0.5c-0.013-0.041-0.019-0.083-0.017-0.128c0.002-0.044,0.016-0.085,0.042-0.124
			c0.034-0.051,0.092-0.091,0.172-0.122c0.081-0.031,0.173-0.069,0.278-0.114c0.104-0.046,0.213-0.109,0.328-0.189
			c0.114-0.08,0.223-0.195,0.324-0.347c0.157-0.232,0.223-0.449,0.199-0.65c-0.024-0.201-0.139-0.372-0.345-0.51
			c-0.115-0.078-0.228-0.112-0.339-0.104c-0.112,0.008-0.224,0.043-0.337,0.105c-0.114,0.061-0.228,0.141-0.344,0.239
			c-0.116,0.098-0.236,0.196-0.361,0.293c-0.125,0.098-0.256,0.188-0.394,0.271s-0.285,0.141-0.439,0.174
			c-0.155,0.034-0.32,0.034-0.495-0.001c-0.175-0.034-0.362-0.119-0.563-0.254c-0.159-0.107-0.292-0.244-0.401-0.41
			c-0.108-0.166-0.18-0.349-0.214-0.55C18.02,30.978,18.027,30.765,18.076,30.54z M15.852,36.104l1.208,0.748
			c-1.665,3.595-2.848,7.457-3.448,11.508h-1.418C12.812,44.042,14.065,39.924,15.852,36.104z M11.185,54.251
			c0-0.756,0.614-1.37,1.37-1.37c0.757,0,1.37,0.614,1.37,1.37c0,0.757-0.613,1.37-1.37,1.37
			C11.799,55.622,11.185,55.008,11.185,54.251z M11.943,60.07h1.413c0.674,5.46,2.393,10.601,4.945,15.22l-1.179,0.769
			C14.43,71.216,12.629,65.813,11.943,60.07z M20.316,85.313c-0.053-0.066-0.08-0.136-0.081-0.205
			c-0.001-0.068,0.016-0.133,0.051-0.19l0.598-0.979l-1.36-1.713l-1.088,0.362c-0.056,0.019-0.12,0.021-0.191,0.005
			c-0.072-0.017-0.134-0.057-0.185-0.121l-0.475-0.598l5.423-1.659L23.632,81l-2.843,4.906L20.316,85.313z M22.219,87.348
			l3.751-3.715l0.693,0.701l-3.751,3.713L22.219,87.348z M29.141,89.757c-0.158,0.037-0.324,0.048-0.498,0.031
			s-0.351-0.062-0.531-0.132c0.051,0.133,0.07,0.277,0.057,0.438l-0.212,2.346l-0.684-0.561c-0.065-0.054-0.111-0.111-0.135-0.177
			c-0.025-0.063-0.033-0.134-0.025-0.209l0.211-2.011c0.008-0.074,0.001-0.14-0.021-0.191c-0.021-0.052-0.07-0.107-0.145-0.17
			l-0.325-0.268l-1.307,1.598l-0.76-0.622l3.343-4.085l1.246,1.02c0.279,0.229,0.494,0.452,0.646,0.672
			c0.152,0.222,0.249,0.436,0.291,0.643c0.042,0.208,0.035,0.408-0.024,0.602c-0.059,0.191-0.159,0.375-0.3,0.549
			c-0.112,0.137-0.239,0.25-0.38,0.34C29.448,89.656,29.299,89.72,29.141,89.757z M34.667,92.572
			c-0.091,0.076-0.194,0.137-0.311,0.181s-0.247,0.067-0.39,0.075c-0.143,0.006-0.298-0.01-0.466-0.048
			c0.531,0.52,0.634,1.044,0.309,1.571c-0.118,0.19-0.263,0.344-0.435,0.461s-0.364,0.19-0.575,0.224
			c-0.211,0.03-0.438,0.019-0.682-0.042c-0.244-0.059-0.497-0.168-0.758-0.33l-1.696-1.045l2.771-4.493l1.55,0.956
			c0.294,0.182,0.528,0.363,0.702,0.549c0.174,0.184,0.295,0.369,0.365,0.555c0.07,0.188,0.09,0.373,0.062,0.559
			c-0.028,0.186-0.1,0.37-0.213,0.555C34.835,92.402,34.757,92.494,34.667,92.572z M39.908,94.786
			c-0.072,0.163-0.165,0.306-0.276,0.429c-0.112,0.123-0.24,0.225-0.382,0.303c-0.142,0.076-0.299,0.131-0.471,0.16
			c-0.172,0.03-0.354,0.034-0.547,0.014c0.085,0.115,0.142,0.25,0.171,0.406l0.415,2.318l-0.807-0.359
			c-0.078-0.035-0.137-0.08-0.178-0.135c-0.041-0.056-0.067-0.121-0.079-0.195l-0.327-1.994c-0.012-0.075-0.036-0.135-0.07-0.18
			c-0.035-0.045-0.097-0.088-0.186-0.127l-0.384-0.171l-0.838,1.886l-0.899-0.4l2.146-4.822l1.471,0.654
			c0.329,0.146,0.596,0.306,0.8,0.478c0.204,0.173,0.354,0.354,0.45,0.543s0.141,0.384,0.135,0.585
			C40.047,94.379,39.999,94.582,39.908,94.786z M45.34,98.225c-0.087,0.301-0.216,0.565-0.387,0.795
			c-0.171,0.228-0.375,0.407-0.611,0.541c-0.236,0.133-0.499,0.213-0.789,0.242c-0.29,0.029-0.597-0.004-0.922-0.098
			c-0.325-0.094-0.602-0.23-0.832-0.41c-0.229-0.179-0.407-0.388-0.535-0.626c-0.128-0.237-0.203-0.499-0.225-0.783
			c-0.023-0.284,0.009-0.577,0.096-0.879l0.879-3.036l0.943,0.272l-0.877,3.034c-0.056,0.192-0.081,0.375-0.073,0.548
			c0.007,0.172,0.044,0.327,0.109,0.468c0.066,0.139,0.163,0.26,0.289,0.361c0.126,0.103,0.28,0.181,0.463,0.234
			c0.182,0.051,0.354,0.068,0.515,0.049c0.162-0.019,0.308-0.068,0.439-0.149c0.131-0.081,0.246-0.192,0.344-0.334
			s0.175-0.31,0.231-0.503l0.879-3.037l0.943,0.273L45.34,98.225z M45.59,78.198l-0.004,7.989c-2.902-0.869-5.638-2.125-8.143-3.715
			c-0.717-0.455-1.417-0.938-2.096-1.445c-2.9-2.172-5.429-4.813-7.477-7.808c-0.953-1.392-1.801-2.86-2.534-4.396
			c-2.042-4.276-3.187-9.061-3.187-14.106c0-18.114,14.737-32.851,32.851-32.851c18.113,0,32.852,14.737,32.852,32.851
			c0,8.614-3.334,16.462-8.777,22.328c-0.288,0.312-0.583,0.614-0.883,0.914c0,0-1.514,1.569-3.09,2.722
			c-2.537,1.967-5.365,3.573-8.414,4.737c-0.625,0.238-1.261,0.453-1.901,0.654h-0.004v-7.735l-0.913-7.947l-5.842-14.984h-5.13
			L46.58,70.369L45.59,78.198z M49.309,69.682l5.077-12.027h2.106l4.688,12.027H49.309z M58.432,77.216h-2.086v-5.288h1.616
			L58.432,77.216z M54.099,71.928v5.288h-2.021l0.521-5.288H54.099z M50.341,71.928l-0.521,5.288h-1.841l0.669-5.288H50.341z
			 M61.784,71.928l0.612,5.288h-1.711l-0.47-5.288H61.784z M50.582,96.887c-0.035,0.049-0.071,0.081-0.109,0.098
			s-0.081,0.021-0.13,0.014c-0.048-0.007-0.099-0.033-0.154-0.08c-0.054-0.046-0.119-0.1-0.194-0.157
			c-0.075-0.058-0.164-0.112-0.268-0.168c-0.104-0.054-0.23-0.092-0.379-0.114c-0.135-0.021-0.254-0.021-0.359-0.004
			c-0.104,0.018-0.196,0.049-0.273,0.096c-0.077,0.048-0.139,0.109-0.185,0.186c-0.046,0.075-0.076,0.161-0.091,0.258
			c-0.019,0.122,0,0.229,0.056,0.321c0.056,0.093,0.136,0.177,0.24,0.251c0.104,0.075,0.226,0.146,0.363,0.214
			c0.138,0.067,0.277,0.14,0.42,0.214s0.281,0.157,0.415,0.247c0.134,0.091,0.25,0.197,0.347,0.318
			c0.097,0.122,0.168,0.265,0.214,0.427c0.045,0.162,0.051,0.352,0.019,0.567c-0.036,0.235-0.11,0.45-0.222,0.645
			c-0.112,0.193-0.257,0.354-0.436,0.483c-0.179,0.13-0.386,0.221-0.624,0.273c-0.237,0.055-0.5,0.06-0.789,0.016
			c-0.166-0.025-0.327-0.066-0.483-0.123c-0.156-0.059-0.304-0.127-0.442-0.21c-0.139-0.082-0.267-0.177-0.382-0.28
			c-0.116-0.104-0.216-0.214-0.302-0.334l0.352-0.422c0.032-0.029,0.068-0.053,0.109-0.07s0.084-0.021,0.13-0.016
			c0.06,0.01,0.121,0.044,0.183,0.104c0.063,0.061,0.137,0.127,0.223,0.201c0.085,0.074,0.189,0.146,0.311,0.217
			c0.121,0.067,0.272,0.116,0.452,0.145c0.277,0.041,0.501,0.009,0.672-0.1c0.172-0.107,0.276-0.285,0.313-0.531
			c0.021-0.137,0.004-0.254-0.052-0.35c-0.055-0.099-0.135-0.186-0.239-0.262c-0.104-0.075-0.225-0.145-0.363-0.208
			c-0.138-0.063-0.278-0.13-0.42-0.2s-0.28-0.15-0.414-0.24c-0.135-0.09-0.25-0.196-0.346-0.321
			c-0.097-0.126-0.167-0.275-0.211-0.448c-0.044-0.172-0.047-0.378-0.011-0.616c0.029-0.19,0.095-0.368,0.198-0.538
			c0.104-0.169,0.239-0.313,0.406-0.43s0.362-0.202,0.586-0.254c0.225-0.053,0.473-0.059,0.745-0.016
			c0.308,0.045,0.584,0.138,0.83,0.272c0.246,0.136,0.446,0.304,0.603,0.506L50.582,96.887z M47.828,86.775v-7.313h14.707v7.229
			c-2.422,0.57-4.944,0.879-7.539,0.879c-0.029,0-0.058,0-0.086,0c-1.589,0.031-3.09-0.156-3.09-0.156
			C50.463,87.282,49.131,87.066,47.828,86.775z M56.893,101.511l-0.988-0.02l0.045-2.308l-2.474-0.049l-0.045,2.307l-0.989-0.019
			l0.104-5.276l0.989,0.019l-0.044,2.271l2.475,0.049l0.045-2.271l0.988,0.021L56.893,101.511z M66.865,100.145l-0.68-3.34
			c-0.014-0.063-0.025-0.131-0.037-0.205c-0.012-0.076-0.021-0.151-0.029-0.229l-0.967,3.251c-0.021,0.074-0.059,0.136-0.107,0.186
			c-0.049,0.047-0.111,0.079-0.189,0.096l-0.131,0.027c-0.076,0.014-0.146,0.01-0.213-0.017c-0.064-0.024-0.121-0.067-0.171-0.126
			l-2.184-2.622c0.024,0.076,0.048,0.151,0.065,0.228c0.02,0.073,0.035,0.144,0.049,0.207l0.68,3.342l-0.848,0.173l-1.053-5.173
			l0.727-0.147c0.043-0.009,0.08-0.015,0.111-0.019s0.062-0.004,0.088,0c0.027,0.004,0.053,0.016,0.08,0.031
			c0.024,0.019,0.051,0.043,0.077,0.073l2.13,2.56c0.057,0.067,0.109,0.14,0.16,0.215c0.053,0.074,0.104,0.15,0.153,0.229
			c0.016-0.093,0.032-0.185,0.052-0.275c0.02-0.09,0.04-0.179,0.064-0.263l0.949-3.177c0.012-0.04,0.024-0.072,0.041-0.1
			c0.017-0.024,0.035-0.045,0.059-0.06c0.023-0.016,0.051-0.026,0.081-0.034c0.03-0.01,0.067-0.019,0.11-0.026L66.66,94.8
			l1.052,5.175L66.865,100.145z M73.827,97.805c-0.08,0.029-0.153,0.033-0.22,0.014c-0.066-0.021-0.123-0.057-0.168-0.105
			l-0.752-0.865l-2.043,0.776l0.016,1.147c0.001,0.059-0.016,0.119-0.053,0.184c-0.039,0.064-0.096,0.109-0.172,0.14l-0.713,0.271
			l0.06-5.671l0.938-0.357l3.814,4.196L73.827,97.805z M79.537,94.876c-0.104,0.058-0.188,0.085-0.253,0.084
			s-0.132-0.021-0.195-0.058l-2.252-0.979c-0.073-0.031-0.144-0.045-0.209-0.04c-0.067,0.005-0.149,0.034-0.248,0.089l-0.271,0.15
			l1.125,2.029l-0.857,0.478l-2.563-4.619l0.857-0.477l1.075,1.938l0.201-0.111c0.081-0.045,0.141-0.094,0.183-0.146
			c0.04-0.052,0.066-0.112,0.077-0.184l0.379-2.319c0.017-0.097,0.046-0.176,0.09-0.234c0.044-0.058,0.109-0.112,0.199-0.162
			l0.741-0.411l-0.49,2.78c-0.018,0.088-0.035,0.164-0.059,0.229c-0.021,0.064-0.051,0.126-0.088,0.179
			c0.084-0.013,0.168-0.012,0.25,0.005c0.082,0.014,0.17,0.045,0.264,0.088l2.802,1.271L79.537,94.876z M81.954,93.314l-3.14-4.244
			l2.678-1.979l0.464,0.628l-1.881,1.393l0.87,1.177l1.481-1.097l0.449,0.607l-1.481,1.096l0.889,1.201l1.881-1.392l0.467,0.631
			L81.954,93.314z M88.502,87.686c-0.119,0.267-0.3,0.518-0.543,0.752s-0.499,0.407-0.77,0.519c-0.27,0.11-0.539,0.161-0.81,0.153
			s-0.534-0.072-0.792-0.193s-0.496-0.295-0.714-0.521l-2.199-2.271l0.705-0.685l2.197,2.27c0.14,0.146,0.287,0.258,0.438,0.336
			c0.152,0.08,0.308,0.126,0.461,0.137c0.152,0.014,0.307-0.011,0.457-0.068c0.152-0.059,0.295-0.154,0.433-0.286
			c0.137-0.134,0.237-0.273,0.3-0.423c0.064-0.149,0.093-0.301,0.088-0.455s-0.045-0.311-0.119-0.465
			c-0.072-0.154-0.182-0.305-0.322-0.45l-2.197-2.271l0.705-0.684l2.197,2.271c0.219,0.226,0.385,0.469,0.498,0.729
			c0.112,0.262,0.168,0.528,0.166,0.799C88.682,87.15,88.62,87.42,88.502,87.686z M91.133,85.002l-4.154-3.256l1.062-1.354
			c0.217-0.277,0.438-0.492,0.663-0.646c0.224-0.151,0.445-0.248,0.667-0.289c0.221-0.04,0.437-0.028,0.649,0.037
			c0.211,0.063,0.414,0.172,0.607,0.323c0.201,0.158,0.359,0.336,0.475,0.533c0.114,0.198,0.181,0.412,0.195,0.642
			c0.016,0.229-0.021,0.47-0.111,0.724c-0.092,0.253-0.242,0.516-0.455,0.785l-0.455,0.581l1.463,1.146L91.133,85.002z
			 M94.104,75.438l-1.207-0.713c2.383-4.472,3.988-9.416,4.636-14.654h1.411C98.288,65.566,96.607,70.754,94.104,75.438z
			 M98.504,55.622c-0.757,0-1.37-0.613-1.37-1.37c0-0.756,0.613-1.37,1.37-1.37c0.758,0,1.37,0.614,1.37,1.37
			S99.262,55.622,98.504,55.622z"/>
		<g>
			<path d="M74.186,19.054c0.143,0.173,0.325,0.321,0.553,0.443s0.451,0.195,0.674,0.217c0.222,0.023,0.434-0.002,0.635-0.074
				c0.202-0.072,0.393-0.191,0.568-0.357s0.333-0.376,0.471-0.631c0.139-0.255,0.229-0.502,0.27-0.741
				c0.041-0.239,0.037-0.463-0.014-0.672c-0.05-0.209-0.146-0.401-0.285-0.573c-0.141-0.172-0.324-0.32-0.553-0.442
				c-0.227-0.123-0.451-0.195-0.674-0.218s-0.436,0.001-0.639,0.074c-0.205,0.073-0.396,0.191-0.573,0.357
				c-0.179,0.165-0.335,0.375-0.472,0.63c-0.139,0.255-0.229,0.502-0.269,0.741c-0.041,0.24-0.035,0.464,0.019,0.673
				C73.945,18.69,74.043,18.881,74.186,19.054z"/>
			<path d="M40.484,14.427l-0.001,1.863l1.58-0.58l-1.208-1.427c-0.054-0.063-0.116-0.138-0.186-0.225s-0.142-0.184-0.217-0.288
				c0.011,0.128,0.02,0.248,0.025,0.36C40.485,14.242,40.486,14.341,40.484,14.427z"/>
			<path d="M61.604,12.126c-0.02-0.081-0.039-0.176-0.06-0.286c-0.021-0.109-0.04-0.228-0.06-0.355
				c-0.049,0.119-0.098,0.229-0.145,0.331s-0.092,0.19-0.134,0.266l-0.869,1.648l1.669,0.223L61.604,12.126z"/>
			<path d="M24.227,26.392c-0.005-0.122-0.039-0.238-0.1-0.351c-0.062-0.112-0.148-0.218-0.26-0.316
				c-0.105-0.093-0.216-0.161-0.331-0.204c-0.115-0.043-0.231-0.058-0.35-0.045c-0.118,0.013-0.237,0.055-0.357,0.127
				c-0.121,0.072-0.24,0.176-0.359,0.311l-0.488,0.553l1.422,1.252l0.487-0.553c0.119-0.135,0.206-0.268,0.26-0.398
				C24.207,26.639,24.232,26.513,24.227,26.392z"/>
			<path d="M21.992,81.406l-1.769,0.585l1.047,1.317l0.975-1.597c0.042-0.069,0.095-0.153,0.156-0.247
				c0.061-0.093,0.129-0.191,0.205-0.295c-0.118,0.05-0.229,0.096-0.334,0.137C22.168,81.35,22.075,81.381,21.992,81.406z"/>
			<path d="M28.875,87.352l-0.486-0.397l-1.11,1.356l0.475,0.389c0.143,0.115,0.282,0.201,0.417,0.253
				c0.136,0.051,0.264,0.073,0.385,0.065c0.12-0.007,0.232-0.039,0.337-0.1c0.105-0.059,0.2-0.141,0.285-0.243
				c0.169-0.207,0.231-0.422,0.186-0.645C29.319,87.809,29.156,87.581,28.875,87.352z"/>
			<path d="M70.604,94.727c0.008,0.111,0.01,0.211,0.01,0.297l0.021,1.862l1.572-0.599l-1.226-1.412
				c-0.056-0.063-0.117-0.137-0.188-0.225c-0.07-0.086-0.145-0.182-0.22-0.284C70.585,94.494,70.596,94.614,70.604,94.727z"/>
			<path d="M90.417,81.236c-0.013-0.12-0.052-0.234-0.119-0.344c-0.067-0.108-0.159-0.209-0.276-0.301
				c-0.11-0.087-0.226-0.148-0.342-0.186c-0.117-0.037-0.234-0.045-0.353-0.024c-0.117,0.019-0.233,0.068-0.351,0.147
				c-0.117,0.078-0.229,0.188-0.341,0.33l-0.454,0.58l1.49,1.17l0.455-0.58c0.109-0.143,0.189-0.279,0.236-0.412
				C90.412,81.484,90.43,81.357,90.417,81.236z"/>
			<path d="M38.359,93.266l-0.574-0.256l-0.712,1.602l0.56,0.25c0.169,0.076,0.326,0.119,0.47,0.134
				c0.144,0.014,0.274,0.001,0.388-0.037c0.114-0.038,0.214-0.101,0.3-0.185c0.085-0.084,0.155-0.188,0.209-0.311
				c0.109-0.244,0.112-0.469,0.01-0.672C38.907,93.589,38.69,93.414,38.359,93.266z"/>
			<path d="M33.586,90.729l-0.715-0.44l-0.801,1.299l0.668,0.412c0.284,0.175,0.531,0.256,0.742,0.243
				c0.211-0.014,0.386-0.133,0.525-0.357c0.144-0.234,0.181-0.441,0.109-0.623C34.044,91.079,33.868,90.9,33.586,90.729z"/>
			<path d="M32.908,92.961c-0.086-0.094-0.202-0.186-0.349-0.275l-0.845-0.521l-0.813,1.317l0.848,0.522
				c0.156,0.097,0.297,0.157,0.424,0.185c0.128,0.027,0.243,0.029,0.344,0.006c0.101-0.022,0.191-0.067,0.271-0.133
				c0.08-0.066,0.147-0.146,0.205-0.237c0.06-0.099,0.098-0.195,0.115-0.292c0.017-0.098,0.009-0.192-0.023-0.289
				C33.053,93.146,32.994,93.055,32.908,92.961z"/>
		</g>
		<g>
			<circle cx="55.529" cy="36.098" r="1.74"/>
			<circle cx="55.529" cy="42.317" r="1.739"/>
			<circle cx="55.529" cy="48.537" r="1.739"/>
			<circle cx="71.699" cy="39.482" r="1.739"/>
			<circle cx="67.301" cy="43.879" r="1.739"/>
			<circle cx="62.902" cy="48.278" r="1.739"/>
			<circle cx="47.809" cy="48.278" r="1.739"/>
			<circle cx="43.411" cy="43.879" r="1.739"/>
			<circle cx="39.013" cy="39.482" r="1.739"/>
		</g>
	</g>
</g>
</svg>
