<?xml version="1.0" encoding="utf-8"?>
<!-- Generator: Adobe Illustrator 16.0.3, SVG Export Plug-In . SVG Version: 6.00 Build 0)  -->
<!DOCTYPE svg PUBLIC "-//W3C//DTD SVG 1.1//EN" "http://www.w3.org/Graphics/SVG/1.1/DTD/svg11.dtd">
<svg version="1.1" id="Layer_1" xmlns="http://www.w3.org/2000/svg" xmlns:xlink="http://www.w3.org/1999/xlink" x="0px" y="0px"
	 width="190px" height="190px" viewBox="0 0 190 190" enable-background="new 0 0 190 190" xml:space="preserve">
<path d="M95,10c-46.869,0-85,38.13-85,85c0,46.87,38.131,85,85,85c46.866,0,85-38.13,85-85C180,48.13,141.868,10,95,10z M95,178.855
	c-46.24,0-83.859-37.616-83.859-83.855c0-46.24,37.619-83.858,83.859-83.858c46.239,0,83.86,37.618,83.86,83.858
	C178.86,141.239,141.241,178.855,95,178.855z"/>
<path d="M95,11.888c-45.828,0-83.111,37.285-83.111,83.112c0,45.826,37.282,83.111,83.111,83.111
	c45.829,0,83.112-37.285,83.112-83.111C178.112,49.173,140.827,11.888,95,11.888z M95,175.826
	c-44.569,0-80.828-36.259-80.828-80.827S50.431,14.17,95,14.17c44.569,0,80.828,36.26,80.828,80.83
	C175.828,139.567,139.569,175.826,95,175.826z"/>
<path d="M95,30.935c-35.326,0-64.066,28.739-64.066,64.064c0,35.327,28.741,64.065,64.066,64.065
	c35.328,0,64.066-28.738,64.066-64.065C159.066,59.674,130.328,30.935,95,30.935z M95,157.922
	c-34.697,0-62.925-28.225-62.925-62.922c0-34.696,28.229-62.923,62.925-62.923c34.697,0,62.926,28.228,62.926,62.923
	C157.926,129.697,129.697,157.922,95,157.922z"/>
<path d="M95,33.22c-34.066,0-61.78,27.714-61.78,61.78c0,34.067,27.714,61.779,61.78,61.779c34.066,0,61.78-27.712,61.78-61.779
	C156.78,60.934,129.066,33.22,95,33.22z M95,155.638c-33.438,0-60.637-27.2-60.637-60.638c0-33.437,27.2-60.639,60.637-60.639
	c33.436,0,60.64,27.204,60.64,60.639C155.64,128.438,128.436,155.638,95,155.638z"/>
<path d="M60.969,158.643c-0.883,0.27-1.38,1.202-1.111,2.081c0.269,0.882,1.201,1.376,2.08,1.108
	c0.878-0.266,1.376-1.198,1.109-2.079C62.777,158.872,61.845,158.377,60.969,158.643z"/>
<path d="M128.062,158.643c-0.877,0.27-1.375,1.202-1.105,2.081c0.267,0.882,1.198,1.376,2.078,1.108
	c0.88-0.266,1.376-1.198,1.107-2.079C129.876,158.872,128.94,158.377,128.062,158.643z"/>
<path d="M81.041,140.698c-0.269-0.553-0.958-0.721-1.962-0.278c-1.009,0.438-1.755,1.91-1.753,1.915
	c-0.011,0.009,1.655,0.659,2.689,0.155C81.044,141.996,81.306,141.248,81.041,140.698z"/>
<path d="M81.331,139.81c0.531-0.305,0.671-1.075,0.292-2.037c-0.378-0.947-1.563-1.507-1.563-1.519c0.005,0-0.667,1.527-0.31,2.537
	C80.108,139.796,80.809,140.108,81.331,139.81z"/>
<path d="M78.375,138.631c0.564-0.229,0.806-0.978,0.563-1.977c-0.246-0.987-1.342-1.699-1.342-1.709
	c0.006,0-0.862,1.429-0.645,2.469C77.172,138.458,77.824,138.861,78.375,138.631z"/>
<path d="M68.077,130.931c0.127-0.607-0.313-1.174-1.385-1.468c-1.07-0.295-2.572,0.393-2.574,0.395
	c-0.013,0.003,0.914,1.587,2.044,1.839C67.277,131.951,67.949,131.529,68.077,130.931z"/>
<path d="M76.434,135.196c-0.114-1.016-1.106-1.864-1.105-1.875c0.004,0-1.042,1.304-0.965,2.365c0.082,1.063,0.67,1.549,1.25,1.393
	C76.204,136.925,76.542,136.218,76.434,135.196z"/>
<path d="M90.64,140.933c-0.169,0.014-0.344,0.027-0.514,0.037c-1.221,0.07-1.886-0.814-2.458-1.648
	c-0.076-0.138-0.168-0.278-0.277-0.422c-0.635-0.813-1.951-1.041-1.953-1.05c0.001,0-0.177,1.258,0.192,2.167
	c0.178,0.445,0.428,0.863,0.714,0.891c0.235,0.022,0.476,0.042,0.713,0.058c0.505,0.033,0.54,0.44,0.54,0.44
	s-0.069,0.413-0.593,0.379c-0.248-0.019-0.492-0.037-0.741-0.057c-0.292-0.031-0.635,0.314-0.952,0.699
	c-0.644,0.767-0.898,2.008-0.894,2.008c-0.01,0.018,1.802,0.204,2.687-0.561c0.15-0.127,0.277-0.26,0.38-0.389
	c0.768-0.785,1.45-1.622,2.693-1.696c0.177-0.01,0.356-0.023,0.534-0.036c0.537-0.049,0.545-0.468,0.544-0.468
	S91.155,140.889,90.64,140.933z"/>
<path d="M84.271,141.505c-0.345-0.508-1.057-0.587-2-0.017c-0.942,0.567-1.49,2.126-1.486,2.133
	c-0.009,0.009,1.74,0.434,2.707-0.202C84.451,142.794,84.611,142.013,84.271,141.505z"/>
<path d="M84.437,140.584c0.491-0.365,0.524-1.151,0.015-2.053c-0.508-0.895-1.767-1.293-1.769-1.304
	c0.005,0-0.455,1.604,0.035,2.556C83.211,140.733,83.958,140.953,84.437,140.584z"/>
<path d="M77.975,139.476c-0.193-0.583-0.85-0.838-1.904-0.535c-1.053,0.305-1.991,1.663-1.987,1.67
	c-0.014,0.009,1.548,0.872,2.636,0.504C77.8,140.763,78.16,140.053,77.975,139.476z"/>
<path d="M70.118,133.566c0.048-0.614-0.461-1.109-1.557-1.247c-1.093-0.142-2.491,0.745-2.49,0.752
	c-0.012,0.004,1.105,1.428,2.254,1.517C69.461,134.685,70.07,134.174,70.118,133.566z"/>
<path d="M69.966,131.26c-0.199,1.05,0.25,1.681,0.853,1.686c0.61,0.013,1.124-0.584,1.283-1.604
	c0.156-1.009-0.585-2.106-0.583-2.119C71.523,129.226,70.168,130.202,69.966,131.26z"/>
<path d="M67.185,128.528c0.554-0.304,0.732-1.021,0.311-1.953c-0.417-0.916-1.865-1.633-1.87-1.647
	c-0.004-0.017-0.685,1.521-0.208,2.575C65.886,128.545,66.634,128.827,67.185,128.528z"/>
<path d="M72.476,135.886c-0.012-0.232-0.103-0.434-0.268-0.598c-0.27-0.273-0.749-0.432-1.438-0.424
	c-1.099,0.009-2.36,1.076-2.36,1.082l0.002,0.004c-0.014,0.005,1.274,1.255,2.423,1.188
	C71.972,137.081,72.505,136.491,72.476,135.886z"/>
<path d="M72.47,135c0.175,0.145,0.391,0.205,0.616,0.178c0.604-0.07,1.035-0.73,1.061-1.758c0.021-1.021-0.855-2.003-0.853-2.012
	c-0.001,0-0.003-0.004-0.003-0.004c0.004,0.004-1.206,1.152-1.267,2.216C71.984,134.289,72.179,134.758,72.47,135z"/>
<path d="M75.104,137.865c-0.115-0.606-0.73-0.945-1.814-0.782c-1.086,0.157-2.195,1.384-2.194,1.388
	c-0.013,0.005,1.423,1.069,2.55,0.854C74.762,139.111,75.211,138.461,75.104,137.865z"/>
<path d="M68.227,128.599c-0.333,1.029,0.031,1.719,0.627,1.81c0.607,0.095,1.193-0.426,1.486-1.422
	c0.285-0.984-0.313-2.19-0.306-2.202C70.04,126.789,68.564,127.576,68.227,128.599z"/>
<path d="M102.737,141.726c-0.246,0.021-0.49,0.04-0.739,0.059c-0.525,0.033-0.596-0.379-0.596-0.379s0.035-0.407,0.54-0.442
	c0.241-0.015,0.479-0.033,0.714-0.056c0.288-0.029,0.537-0.445,0.718-0.891c0.367-0.91,0.188-2.169,0.192-2.169
	c-0.004,0.007-1.319,0.238-1.956,1.051c-0.106,0.145-0.199,0.282-0.277,0.423c-0.572,0.834-1.236,1.719-2.457,1.647
	c-0.171-0.011-0.345-0.024-0.514-0.037c-0.516-0.045-0.615,0.354-0.614,0.354c-0.001,0,0.009,0.419,0.544,0.466
	c0.178,0.013,0.354,0.027,0.533,0.037c1.242,0.073,1.924,0.911,2.694,1.695c0.102,0.13,0.228,0.263,0.379,0.39
	c0.885,0.764,2.693,0.577,2.688,0.561c0.002,0-0.255-1.242-0.896-2.009C103.374,142.04,103.03,141.696,102.737,141.726z"/>
<path d="M116.791,135.288c-0.165,0.164-0.255,0.365-0.269,0.598c-0.028,0.605,0.505,1.195,1.643,1.254
	c1.145,0.066,2.433-1.183,2.418-1.188l0.004-0.006c0.003-0.003-1.262-1.071-2.36-1.08
	C117.539,134.856,117.061,135.015,116.791,135.288z"/>
<path d="M115.706,131.408c0.004,0.01-0.875,0.99-0.853,2.012c0.025,1.026,0.454,1.688,1.062,1.758
	c0.223,0.026,0.441-0.033,0.616-0.177c0.292-0.241,0.485-0.711,0.447-1.379c-0.062-1.063-1.274-2.214-1.268-2.216L115.706,131.408z"
	/>
<path d="M117.483,129.222c0.002,0.015-0.741,1.11-0.585,2.121c0.162,1.019,0.674,1.615,1.284,1.604
	c0.6-0.007,1.049-0.636,0.853-1.688C118.832,130.202,117.477,129.226,117.483,129.222z"/>
<path d="M120.144,130.409c0.601-0.092,0.961-0.78,0.627-1.81c-0.335-1.023-1.809-1.809-1.807-1.813
	c0.009,0.011-0.591,1.218-0.307,2.201C118.953,129.983,119.539,130.505,120.144,130.409z"/>
<path d="M123.58,127.504c0.481-1.056-0.201-2.592-0.209-2.575c-0.002,0.015-1.448,0.73-1.866,1.647
	c-0.422,0.932-0.243,1.649,0.312,1.954C122.364,128.827,123.113,128.545,123.58,127.504z"/>
<path d="M122.31,129.465c-1.072,0.292-1.512,0.858-1.387,1.467c0.129,0.6,0.798,1.021,1.915,0.769
	c1.131-0.25,2.059-1.838,2.046-1.841C124.881,129.856,123.379,129.168,122.31,129.465z"/>
<path d="M120.438,132.319c-1.096,0.138-1.606,0.633-1.557,1.247c0.049,0.607,0.657,1.118,1.793,1.022
	c1.149-0.09,2.264-1.514,2.252-1.518C122.931,133.064,121.532,132.178,120.438,132.319z"/>
<path d="M106.728,141.486c-0.941-0.568-1.653-0.493-1.998,0.019c-0.341,0.508-0.181,1.289,0.779,1.913
	c0.965,0.636,2.718,0.212,2.704,0.202C108.22,143.614,107.673,142.056,106.728,141.486z"/>
<path d="M109.253,138.79c0.353-1.009-0.316-2.538-0.312-2.538c0,0.014-1.184,0.573-1.563,1.519c-0.381,0.963-0.241,1.734,0.29,2.038
	C108.191,140.108,108.893,139.796,109.253,138.79z"/>
<path d="M106.281,139.784c0.491-0.951,0.03-2.554,0.037-2.554c-0.004,0.008-1.262,0.407-1.769,1.301
	c-0.509,0.901-0.479,1.688,0.014,2.055C105.042,140.953,105.787,140.733,106.281,139.784z"/>
<path d="M109.919,140.42c-1.002-0.442-1.692-0.275-1.963,0.278c-0.261,0.55,0,1.298,1.027,1.792c1.033,0.504,2.7-0.146,2.686-0.155
	C111.674,142.33,110.928,140.857,109.919,140.42z"/>
<path d="M112.05,137.414c0.214-1.04-0.651-2.469-0.646-2.469c0,0.009-1.098,0.723-1.341,1.709c-0.243,0.999-0.004,1.747,0.561,1.977
	C111.175,138.861,111.83,138.458,112.05,137.414z"/>
<path d="M113.386,137.079c0.578,0.157,1.167-0.33,1.249-1.393c0.077-1.063-0.97-2.365-0.965-2.365c0,0.011-0.989,0.859-1.104,1.875
	C112.46,136.218,112.795,136.925,113.386,137.079z"/>
<path d="M112.93,138.94c-1.056-0.303-1.712-0.05-1.905,0.534c-0.187,0.578,0.175,1.286,1.253,1.639
	c1.089,0.367,2.651-0.496,2.636-0.505C114.92,140.604,113.982,139.244,112.93,138.94z"/>
<path d="M115.711,137.081c-1.085-0.161-1.702,0.178-1.815,0.782c-0.11,0.596,0.343,1.248,1.459,1.459
	c1.128,0.217,2.561-0.847,2.548-0.854C117.905,138.467,116.797,137.239,115.711,137.081z"/>
<path d="M130.722,76.103c-8.947,0-14.433-4.416-19.735-8.685c-4.826-3.887-9.385-7.558-15.983-7.558c-6.6,0-11.16,3.672-15.99,7.56
	c-5.304,4.269-10.789,8.683-19.734,8.683c-1.046,0-2.134-0.062-3.237-0.182l-2.454-0.269l0.607,2.392
	c11.57,45.587,38.903,59.241,40.062,59.801l0.82,0.398l0.789-0.463c1.229-0.724,30.275-18.141,39.944-59.773l0.544-2.352l-2.4,0.265
	C132.858,76.043,131.771,76.103,130.722,76.103z M94.937,134.317c-4.502-2.591-26.482-16.938-36.814-54.812
	c0.39,0.015,0.775,0.022,1.157,0.022c10.151,0,16.382-5.015,21.881-9.44c4.534-3.65,8.45-6.802,13.841-6.802
	c5.391,0,9.304,3.151,13.838,6.8c5.497,4.425,11.727,9.442,21.881,9.442c0.394,0,0.798-0.007,1.201-0.023
	C123.019,114.322,99.568,131.262,94.937,134.317z"/>
<path d="M107.042,72.25c-4.762-3.836-7.896-6.188-12.092-6.188c-4.202,0-7.335,2.352-12.1,6.188
	c-4.83,3.889-10.844,8.729-19.744,9.821l-1.363,0.169l0.413,1.31c5.78,18.259,14.245,29.848,20.328,36.354
	c3.586,3.834,8.519,8.818,11.662,10.797l0.64,0.402l0.622-0.434c2.635-1.837,7.088-6.124,12.542-12.072
	c9.104-9.928,15.799-21.719,19.896-35.044l0.404-1.307l-1.36-0.162C117.932,81.016,111.895,76.155,107.042,72.25z M106.267,117.06
	c-4.847,5.284-8.99,9.332-11.542,11.281c-2.355-1.667-6.065-5.174-10.573-9.995c-5.779-6.176-13.772-17.088-19.406-34.204
	c8.791-1.462,14.722-6.239,19.535-10.112c4.376-3.523,7.234-5.682,10.669-5.682c3.431,0,6.287,2.158,10.662,5.682
	c4.834,3.892,10.799,8.691,19.651,10.133C121.234,96.635,114.852,107.697,106.267,117.06z"/>
<path d="M82.272,55.407c2.766-1.743,7.405-6,11.043-3.959c2.305,1.262,0.549,5.294-2.295,4.104c-1.758-0.698-0.796-2.602,0.77-1.783
	c1.123,0.588,1.796-1.115,0.71-1.508c-3.562-1.273-5.068,3.013-2.26,4.258c2.193,1.058,3.974,0.001,4.748-1.538
	c0.555,1.063,1.611,1.882,2.98,1.892c0.966,0.038,2.556-0.367,3.062-1.638c0.242-0.576,0.209-1.206,0.01-1.698
	c-0.948-2.421-4.791-1.583-4.014-0.101c0.203,0.386,0.677,0.587,1.164,0.333c1.279-0.67,1.878,0.363,1.661,1.007
	c-0.134,0.394-0.505,0.623-0.89,0.776c-3.19,1.333-4.897-3.744-1.464-4.412c5.866-1.583,10.112,7.115,16.31,5.755
	c4.57-1.165,2.317-6.635-1.611-5.104c-2.38,0.915-1.141,3.714,1.3,2.813c0.29-0.108,0.165-0.548-0.138-0.487
	c-1.532,0.308-2.482-1.153-0.275-1.563c3.735-0.356,3.42,4.309-1.295,3.753c-4.356-0.551-8.216-6.543-13.399-6.239
	c-1.77,0.106-2.846,0.788-3.392,1.68c-0.264-0.457-0.65-0.859-1.211-1.146c-4.275-2.227-9.031,2.31-11.917,4.162
	c-7.5,4.819-9.798-2.671-4.967-2.211c2.195,0.406,1.259,1.871-0.275,1.563c-0.121-0.023-0.244,0.042-0.288,0.162
	c-0.049,0.131,0.019,0.276,0.149,0.326c2.71,1.005,3.861-2.479,0.529-3.01C70.99,51.01,73.266,61.062,82.272,55.407z"/>
<path d="M58.579,69.32c0.132,0.063,0.271,0.093,0.415,0.093c0.373,0,0.718-0.218,0.879-0.559c0.01-0.022,0.172-0.368,0.203-0.428
	c0.031-0.082,0.239-0.455,0.534-0.826c0.322-0.469,1.151-1.202,2.106-1.688c0.141-0.067,0.18-0.09,0.208-0.107
	c0.049-0.027,0.06-0.032,0.61-0.261c1.178-0.432,2.274-0.496,2.824-0.496c0.412,0,0.782,0.033,1.08,0.098l0.521,0.089
	c0.215,0,0.392-0.157,0.422-0.373c0.005-0.035-0.017-0.061-0.019-0.094l0,0c0.044-0.178-0.038-0.354-0.266-0.475
	c-0.326-0.171-0.634-0.334-0.935-0.585c-2.092-1.625-2.438-4.032-2.155-4.975l0.079-0.349c0.052-0.236,0.004-0.474-0.134-0.667
	c-0.136-0.192-0.349-0.318-0.684-0.354c-0.421,0-0.777,0.317-0.828,0.735c-0.105,0.882-0.111,1.143,0.082,2.158
	c0.415,1.542,1.152,2.679,2.433,3.721l-0.379-0.004c-1.868,0-3.27,0.376-4.839,1.301c-1.524,0.901-2.25,2.123-2.574,2.667
	c-0.141,0.234-0.177,0.519-0.098,0.78C58.144,68.985,58.332,69.202,58.579,69.32z"/>
<path d="M122.104,65.228c0.006,0,0.467-0.083,0.467-0.083c0.288-0.064,0.659-0.097,1.07-0.097c0.549,0,1.645,0.063,2.814,0.493
	c0.559,0.231,0.568,0.237,0.618,0.264c0.028,0.018,0.07,0.04,0.203,0.104c0.961,0.493,1.789,1.224,2.119,1.705
	c0.288,0.358,0.496,0.731,0.538,0.838c0.016,0.036,0.182,0.38,0.192,0.408c0.159,0.338,0.505,0.555,0.878,0.555
	c0.143,0,0.284-0.03,0.417-0.093c0.247-0.118,0.434-0.334,0.513-0.598c0.08-0.261,0.043-0.546-0.15-0.865
	c-0.276-0.46-1.003-1.681-2.524-2.583c-1.569-0.923-2.967-1.3-4.836-1.3l-0.408,0.007c1.281-1.042,2.046-2.177,2.466-3.74
	c0.189-0.998,0.182-1.257,0.079-2.142c-0.051-0.416-0.399-0.73-0.914-0.73c-0.006,0-0.01,0-0.016,0
	c-0.234,0.029-0.447,0.155-0.583,0.346c-0.14,0.194-0.186,0.431-0.132,0.675l0.082,0.354c0.279,0.928-0.065,3.335-2.167,4.964
	c-0.293,0.245-0.6,0.406-0.991,0.615c-0.165,0.087-0.246,0.261-0.204,0.44c-0.002,0.032-0.022,0.059-0.019,0.094
	C121.649,65.073,121.821,65.228,122.104,65.228z"/>
<g>
	<g>
		<g>
			<path d="M91.341,108.526v1.4h-6.876c-0.384,0-0.695-0.313-0.695-0.701v-15.77l1.39-1.021v16.091H91.341"/>
			<path d="M91.591,110.177h-7.126c-0.521,0-0.945-0.427-0.945-0.951V93.329l1.89-1.388v16.335h6.181V110.177z M84.02,93.582v15.644
				c0,0.249,0.2,0.451,0.445,0.451h6.626v-0.9H84.91V92.929L84.02,93.582z"/>
		</g>
		<g>
			<path d="M99.172,108.526h6.422V92.435l1.389,1.021v15.77c0,0.388-0.311,0.701-0.694,0.701h-7.116V108.526"/>
			<path d="M106.288,110.177h-7.366v-1.9h6.422V91.941l1.889,1.388v15.896C107.232,109.75,106.809,110.177,106.288,110.177z
				 M99.422,109.677h6.866c0.245,0,0.444-0.202,0.444-0.451V93.582l-0.889-0.653v15.847h-6.422V109.677z"/>
		</g>
		<g>
			<path d="M79.881,96.376l15.004-15.104c0.271-0.272,0.712-0.272,0.983,0l15.003,15.104l-0.982,0.988L95.376,82.757L80.864,97.364
				L79.881,96.376z"/>
			<path d="M109.889,97.719L95.376,83.111L80.864,97.719l-1.336-1.343l0.175-0.176l15.004-15.104c0.356-0.358,0.979-0.359,1.337,0
				l15.179,15.28L109.889,97.719z M80.233,96.376l0.631,0.634l14.512-14.607l0.178,0.178l14.335,14.429l0.63-0.634L95.69,81.449
				c-0.166-0.168-0.46-0.167-0.628,0L80.233,96.376z"/>
		</g>
		<g>
			<path d="M87.523,89.673l-1.389,1.021v-9.24c0-0.386,0.311-0.699,0.695-0.699h3.41c0.384,0,0.694,0.313,0.694,0.699v5.808h-1.389
				v-5.108h-2.021V89.673z"/>
			<path d="M86.009,90.941v-9.487c0-0.454,0.368-0.824,0.82-0.824h3.41c0.452,0,0.819,0.37,0.819,0.824v5.933h-1.639v-5.108h-1.771
				v7.458L86.009,90.941z M86.829,80.88c-0.314,0-0.57,0.257-0.57,0.574v8.993l1.139-0.837v-7.582h2.271v5.108h1.139v-5.683
				c0-0.316-0.255-0.574-0.569-0.574H86.829z"/>
		</g>
	</g>
	<g>
		<path d="M96.186,99.169l0.084-0.045c0.573-0.33,1.047-0.762,1.394-1.223h-4.83c0.349,0.461,0.82,0.893,1.393,1.222l0.085,0.048
			c0.43,0.245,0.751,0.607,0.937,1.032C95.433,99.778,95.756,99.414,96.186,99.169z"/>
		<path d="M94.411,104.681c-1.065,0.612-1.702,1.607-1.702,2.663v2.833h5.079v-2.833c0-1.056-0.638-2.051-1.702-2.663l-0.07-0.041
			c-0.352-0.201-0.616-0.498-0.767-0.848c-0.152,0.35-0.416,0.646-0.768,0.848L94.411,104.681z"/>
		<g>
			<path d="M89.239,95.014h1.292v1.602c0,1.875,1.085,3.625,2.893,4.666l0.084,0.049c0.401,0.229,0.401,0.736,0,0.968l-0.084,0.048
				c-1.808,1.04-2.893,2.79-2.893,4.665v1.627h0.808v-1.627c0-1.582,0.929-3.063,2.486-3.958l0.084-0.049
				c0.444-0.256,0.708-0.7,0.708-1.19s-0.263-0.938-0.708-1.19l-0.084-0.05c-1.558-0.896-2.486-2.375-2.486-3.958v-1.602h7.819
				v1.602c0,1.583-0.93,3.063-2.486,3.958l-0.085,0.05c-0.443,0.253-0.708,0.7-0.708,1.19s0.265,0.935,0.708,1.19l0.085,0.049
				c1.557,0.895,2.486,2.376,2.486,3.958v1.627h0.808v-1.627c0-1.875-1.085-3.625-2.893-4.665l-0.085-0.048
				c-0.399-0.231-0.399-0.738,0-0.968l0.085-0.049c1.808-1.041,2.893-2.791,2.893-4.666v-1.602h1.291v-2.378H89.239V95.014z"/>
			<path d="M100.216,108.888h-1.308v-1.877c0-1.493-0.883-2.892-2.361-3.741l-0.085-0.049c-0.521-0.302-0.833-0.827-0.833-1.407
				c0-0.583,0.312-1.109,0.834-1.407l0.083-0.049c1.479-0.852,2.362-2.25,2.362-3.742v-1.352h-7.319v1.352
				c0,1.493,0.883,2.892,2.361,3.741l0.087,0.052c0.519,0.295,0.83,0.821,0.83,1.405c0,0.581-0.312,1.106-0.833,1.407l-0.083,0.048
				c-1.479,0.85-2.362,2.248-2.362,3.742v1.877h-1.308v-1.877c0-1.97,1.128-3.794,3.019-4.882l0.086-0.049
				c0.11-0.063,0.174-0.161,0.174-0.268c0-0.105-0.064-0.202-0.175-0.266l-0.085-0.049c-1.89-1.089-3.018-2.914-3.018-4.883v-1.352
				h-1.292v-2.878h12.518v2.878h-1.291v1.352c0,1.969-1.128,3.794-3.018,4.883l-0.085,0.049c-0.111,0.063-0.175,0.16-0.175,0.266
				c0,0.106,0.063,0.204,0.175,0.269l0.083,0.047c1.892,1.088,3.02,2.913,3.02,4.883V108.888z M99.408,108.388h0.308v-1.377
				c0-1.788-1.034-3.451-2.768-4.448l-0.083-0.047c-0.269-0.155-0.427-0.418-0.427-0.704c0.001-0.284,0.159-0.546,0.425-0.698
				l0.085-0.049c1.733-0.998,2.768-2.661,2.768-4.449v-1.852h1.291v-1.878H89.489v1.878h1.292v1.852
				c0,1.788,1.035,3.451,2.768,4.449l0.084,0.049c0.266,0.152,0.425,0.414,0.426,0.698c0,0.286-0.159,0.549-0.426,0.703
				l-0.086,0.049c-1.731,0.996-2.766,2.659-2.766,4.447v1.377h0.308v-1.377c0-1.675,0.977-3.235,2.612-4.175l0.083-0.048
				c0.365-0.211,0.583-0.575,0.583-0.975c0-0.402-0.217-0.766-0.581-0.974l-0.088-0.052c-1.632-0.938-2.609-2.499-2.609-4.173
				v-1.852h8.319v1.852c0,1.673-0.977,3.234-2.611,4.175l-0.084,0.049c-0.366,0.209-0.584,0.573-0.584,0.975
				c0,0.399,0.218,0.764,0.583,0.974l0.085,0.049c1.635,0.939,2.611,2.501,2.611,4.175V108.388z"/>
		</g>
	</g>
</g>
<g>
	<path d="M23.945,100.658c0.406,0.14,1.199,0.449,1.607,0.431c0.452-0.021,0.395-0.555,0.412-0.872l0.242-0.011
		c0.008,0.389,0.004,0.768,0.012,1.155c0.028,0.366,0.065,0.723,0.093,1.09l-0.242,0.01c-0.089-0.563-0.268-0.786-0.792-0.972
		c-0.685-0.262-1.359-0.515-2.044-0.777L19.035,99.3l-0.017-0.356l5.23-2.369c0.267-0.139,0.896-0.398,1.129-0.6
		c0.293-0.244,0.32-0.562,0.346-0.92l0.241-0.011c0.013,0.494,0.015,0.998,0.028,1.492c0.034,0.504,0.079,1.017,0.113,1.52
		l-0.242,0.011c-0.023-0.292-0.027-0.809-0.437-0.788c-0.262,0.012-0.572,0.142-0.809,0.247l-1.061,0.46l0.121,2.592L23.945,100.658
		z M23.228,98.137l-2.905,1.292l3.013,1.026L23.228,98.137z"/>
	<path d="M21.575,88.039l-0.014,0.22c-1.178-0.001-2.076,0.709-2.154,1.925c-0.13,2.044,1.728,2.604,3.383,2.709
		c1.572,0.101,3.151-0.409,3.265-2.189c0.067-1.048-0.381-1.782-1.46-1.851c-0.702-0.044-0.855,0.208-0.948,0.844l-0.24-0.015
		l0.175-2.747l0.241,0.016c-0.047,0.565,0.231,0.667,0.755,0.701l1.111,0.07c-0.049,0.765,0.031,0.834,0.345,1.506
		c0.239,0.551,0.332,1.073,0.293,1.67c-0.131,2.042-1.567,3.434-3.641,3.302c-2.138-0.137-3.667-1.718-3.527-3.907
		c0.049-0.776,0.288-1.54,0.799-2.138l-0.458-0.25l0.008-0.116L21.575,88.039z"/>
	<path d="M21.932,84.38c-0.332-0.053-1.099-0.175-1.396-0.115c-0.375,0.079-0.442,0.503-0.495,0.835l-0.234-0.038
		c0.09-0.497,0.189-0.991,0.279-1.488c0.074-0.529,0.136-1.051,0.203-1.572l0.238,0.039c-0.053,0.332-0.12,0.757,0.211,0.948
		c0.263,0.147,1.031,0.27,1.363,0.323l2.925,0.464c0.332,0.053,1.099,0.174,1.396,0.115c0.374-0.079,0.442-0.502,0.495-0.834
		l0.238,0.038c-0.088,0.485-0.189,0.989-0.279,1.486c-0.072,0.521-0.136,1.053-0.208,1.573l-0.238-0.038
		c0.053-0.332,0.12-0.758-0.211-0.948c-0.264-0.148-1.031-0.27-1.363-0.323L21.932,84.38z"/>
	<path d="M21.7,79.221c-0.529,0.2-0.745,0.404-0.897,0.951l-0.233-0.06c0.094-0.323,0.196-0.633,0.291-0.956
		c0.058-0.268,0.108-0.548,0.166-0.814l6.347-2.94l0.005-0.021l-2.828-0.73c-0.437-0.113-1.149-0.297-1.59-0.313
		c-0.601-0.025-0.631,0.261-0.844,0.747l-0.232-0.061c0.107-0.374,0.223-0.733,0.33-1.106c0.082-0.359,0.151-0.71,0.237-1.09
		l0.234,0.061c-0.057,0.387-0.156,0.643,0.247,0.888c0.299,0.186,1.341,0.478,1.749,0.583l4.384,1.131l-0.079,0.305
		c-0.333,0.153-0.675,0.304-1.018,0.453l-5.848,2.732l-0.005,0.021l3.418,0.882c0.376,0.097,1.139,0.295,1.524,0.232
		c0.441-0.071,0.508-0.412,0.646-0.777l0.233,0.06c-0.11,0.383-0.232,0.775-0.342,1.16c-0.087,0.379-0.164,0.76-0.251,1.14
		l-0.234-0.061c0.062-0.407,0.138-0.789-0.272-1.003c-0.345-0.177-0.986-0.342-1.383-0.445L21.7,79.221z"/>
	<path d="M27.377,65.89l-0.081,0.205c-1.12-0.363-2.192,0.037-2.64,1.17c-0.752,1.904,0.844,3.008,2.386,3.617
		c1.464,0.578,3.123,0.578,3.778-1.081c0.385-0.977,0.185-1.812-0.821-2.209c-0.654-0.258-0.877-0.064-1.162,0.513l-0.225-0.089
		l1.01-2.557l0.225,0.088c-0.218,0.523,0.015,0.705,0.503,0.897l1.035,0.409c-0.282,0.713-0.227,0.803-0.134,1.539
		c0.058,0.599-0.014,1.124-0.234,1.68c-0.751,1.904-2.545,2.787-4.478,2.024c-1.992-0.788-2.961-2.761-2.156-4.802
		c0.285-0.723,0.747-1.375,1.417-1.787l-0.359-0.378l0.042-0.107L27.377,65.89z"/>
	<path d="M30.599,59.222c-0.292-0.167-0.966-0.553-1.264-0.604c-0.378-0.059-0.592,0.314-0.759,0.606l-0.21-0.12
		c0.26-0.432,0.528-0.859,0.788-1.291c0.257-0.47,0.5-0.937,0.754-1.396l0.209,0.12c-0.167,0.291-0.381,0.665-0.139,0.96
		c0.194,0.232,0.868,0.619,1.16,0.786l2.569,1.473c0.292,0.167,0.966,0.553,1.264,0.604c0.378,0.059,0.591-0.314,0.759-0.606
		l0.209,0.12c-0.254,0.423-0.529,0.859-0.789,1.291c-0.252,0.461-0.5,0.937-0.752,1.397l-0.21-0.12
		c0.167-0.292,0.381-0.666,0.14-0.961c-0.194-0.232-0.868-0.619-1.16-0.786L30.599,59.222z"/>
	<path d="M32.211,54.336c-0.565-0.001-0.839,0.113-1.176,0.57l-0.202-0.14c0.203-0.269,0.408-0.522,0.611-0.791
		c0.149-0.229,0.296-0.472,0.45-0.702l6.977-0.492l0.013-0.017L36.5,51.077c-0.369-0.26-0.969-0.686-1.375-0.857
		c-0.553-0.237-0.683,0.019-1.055,0.398l-0.202-0.14c0.233-0.311,0.469-0.607,0.702-0.918c0.204-0.306,0.393-0.61,0.614-0.933
		l0.197,0.14c-0.19,0.341-0.374,0.546-0.084,0.918c0.214,0.28,1.084,0.923,1.427,1.165l3.696,2.617l-0.182,0.257
		c-0.365,0.025-0.739,0.044-1.112,0.062l-6.438,0.476l-0.012,0.017l2.881,2.04c0.317,0.225,0.96,0.678,1.342,0.757
		c0.438,0.09,0.621-0.205,0.88-0.497l0.197,0.139c-0.239,0.32-0.493,0.642-0.732,0.962c-0.216,0.322-0.424,0.652-0.64,0.976
		l-0.196-0.14c0.202-0.358,0.409-0.688,0.101-1.035c-0.26-0.287-0.8-0.669-1.134-0.905L32.211,54.336z"/>
	<path d="M43.941,46.242c0.24,0.236,0.794,0.781,1.071,0.905c0.395,0.182,0.689-0.222,0.961-0.469l0.172,0.169
		c-0.39,0.383-0.789,0.758-1.179,1.139c-0.354,0.375-0.692,0.75-1.053,1.132l-0.172-0.17c0.236-0.24,0.545-0.554,0.371-0.887
		c-0.136-0.266-0.69-0.811-0.93-1.046l-2.106-2.07c-0.248-0.244-0.801-0.789-1.07-0.92c-0.351-0.169-0.646,0.146-0.881,0.386
		l-0.172-0.169c0.384-0.375,0.767-0.735,1.143-1.102c0.346-0.368,0.677-0.735,1.023-1.102c0.826-0.78,2.04-1.385,2.992-0.449
		c1.094,1.076,0.317,2.39-0.559,3.282c-0.133,0.135-0.487,0.45-0.516,0.48L43.941,46.242z M42.832,45.151
		c0.147-0.135,0.317-0.263,0.458-0.405c0.759-0.772,0.805-1.479-0.005-2.274c-0.727-0.715-1.44-0.739-2.155-0.011
		c-0.088,0.089-0.383,0.39-0.412,0.508c-0.021,0.097,0.068,0.171,0.256,0.354L42.832,45.151z"/>
	<path d="M46.272,39.897c-0.215-0.259-0.711-0.857-0.973-1.007c-0.333-0.187-0.664,0.088-0.923,0.303l-0.154-0.187
		c0.395-0.313,0.788-0.612,1.183-0.927c0.406-0.35,0.796-0.702,1.201-1.052l0.154,0.185c-0.259,0.215-0.59,0.49-0.467,0.853
		c0.101,0.285,0.597,0.882,0.812,1.141l1.987,2.392c0.858,1.034,1.161,1.07,2.188,0.218c0.38-0.316,0.83-0.662,0.979-1.155
		c0.196-0.586-0.01-0.934-0.313-1.447l0.202-0.168l1.116,1.491c-0.144,0.106-0.296,0.219-0.447,0.317
		c-1.37,1.179-2.768,2.34-4.151,3.502l-0.154-0.186c0.259-0.214,0.59-0.49,0.467-0.853c-0.101-0.285-0.597-0.883-0.812-1.142
		L46.272,39.897z"/>
	<path d="M54.087,37.162c0.09,0.42,0.232,1.259,0.46,1.598c0.25,0.375,0.678,0.053,0.958-0.096l0.133,0.201
		c-0.329,0.206-0.654,0.398-0.983,0.605c-0.3,0.212-0.585,0.428-0.884,0.64l-0.134-0.201c0.436-0.367,0.535-0.634,0.425-1.178
		c-0.127-0.722-0.259-1.429-0.386-2.151l-0.951-4.324l0.297-0.198l4.721,3.261c0.256,0.158,0.803,0.563,1.094,0.659
		c0.361,0.125,0.646-0.015,0.967-0.177l0.131,0.2c-0.416,0.265-0.847,0.527-1.263,0.792c-0.413,0.289-0.829,0.59-1.241,0.879
		l-0.134-0.201c0.239-0.171,0.678-0.439,0.452-0.78c-0.146-0.218-0.417-0.416-0.629-0.564l-0.94-0.673l-2.158,1.437L54.087,37.162z
		 M55.878,35.25l-2.602-1.823l0.671,3.109L55.878,35.25z"/>
	<path d="M62.62,26.818l0.139-0.072l1.028,1.795l-0.214,0.112c-0.695-0.952-1.799-1.301-2.879-0.74
		c-1.667,0.867-1.314,2.776-0.589,4.173c0.731,1.406,2.05,2.625,3.698,1.769c1.304-0.677,1.295-1.855,0.994-3.118l0.168-0.087
		l1.059,2.04l-0.121,0.063l-0.471-0.359c-0.368,0.818-0.895,1.353-1.696,1.769c-1.89,0.982-3.81,0.429-4.796-1.471
		c-0.982-1.891-0.324-3.971,1.567-4.953c0.764-0.397,1.34-0.471,2.19-0.404L62.62,26.818z"/>
	<path d="M66.419,27.345c-0.122-0.313-0.403-1.038-0.604-1.264c-0.257-0.283-0.658-0.127-0.971-0.005l-0.103-0.264l4.864-1.892
		l0.575,1.478l-0.225,0.087c-0.632-1.073-1.167-0.943-2.205-0.54l-0.704,0.274c-0.147,0.058-0.219,0.074-0.229,0.134
		c-0.004,0.047,0.047,0.15,0.131,0.366l0.902,2.32c1.363-0.464,1.342-1.097,1.127-1.825l0.227-0.088
		c0.161,0.445,0.327,0.899,0.478,1.347c0.176,0.394,0.346,0.801,0.51,1.199l-0.225,0.087c-0.537-0.975-1.075-0.821-2.014-0.456
		l0.624,1.604c0.114,0.294,0.293,0.753,0.561,0.92c0.388,0.244,1.002,0.027,1.39-0.135c1.011-0.416,1.626-0.802,1.3-2.016
		l0.225-0.087l0.525,1.609l-5.324,2.071l-0.087-0.225c0.313-0.122,0.714-0.278,0.711-0.66c-0.005-0.303-0.287-1.027-0.408-1.34
		L66.419,27.345z"/>
	<path d="M77.251,23.718c-0.069-0.329-0.228-1.091-0.378-1.349c-0.188-0.337-0.619-0.236-0.947-0.167l-0.053-0.257
		c0.423-0.077,0.87-0.149,1.305-0.229c0.554-0.126,1.105-0.263,1.657-0.39c2.161-0.495,4.091,0.519,4.557,2.751
		c0.456,2.18-0.737,3.61-2.865,4.002c-0.608,0.116-1.23,0.225-1.84,0.341c-0.471,0.11-0.93,0.227-1.391,0.334l-0.049-0.237
		c0.329-0.069,0.761-0.16,0.801-0.532c0.035-0.298-0.125-1.058-0.193-1.387L77.251,23.718z M78.943,26.521
		c0.073,0.35,0.135,0.852,0.403,1.106c0.31,0.3,0.843,0.232,1.233,0.15c1.8-0.376,1.879-1.745,1.561-3.268
		c-0.426-2.036-1.305-3.313-3.505-2.853c-0.123,0.026-0.529,0.09-0.602,0.201c-0.049,0.075-0.012,0.25,0.005,0.332L78.943,26.521z"
		/>
	<path d="M86.083,22.15c-0.031-0.334-0.104-1.108-0.234-1.381c-0.169-0.342-0.598-0.303-0.933-0.271l-0.026-0.281l5.196-0.487
		l0.148,1.579l-0.241,0.022c-0.313-1.204-0.863-1.226-1.971-1.123l-0.753,0.07c-0.157,0.015-0.231,0.011-0.258,0.066
		c-0.017,0.043,0.004,0.157,0.026,0.388l0.232,2.478c1.438-0.071,1.592-0.687,1.584-1.446l0.242-0.022
		c0.034,0.471,0.068,0.953,0.091,1.426c0.061,0.427,0.112,0.865,0.161,1.293l-0.24,0.022c-0.249-1.084-0.808-1.085-1.812-0.991
		l0.161,1.715c0.029,0.314,0.075,0.806,0.287,1.039c0.306,0.34,0.957,0.3,1.374,0.251c1.084-0.123,1.783-0.325,1.803-1.583
		l0.24-0.022l0.063,1.692l-5.687,0.532l-0.022-0.24c0.335-0.031,0.764-0.072,0.866-0.439c0.079-0.292,0.006-1.066-0.025-1.401
		L86.083,22.15z"/>
	<path d="M92.885,24.432l0.242,0c0.208,1.061,0.774,1.954,1.981,1.956c0.82,0,1.501-0.461,1.503-1.311
		c0.002-0.956-0.828-1.335-1.594-1.641c-0.955-0.369-1.972-0.874-1.971-2.071c0.001-1.196,0.937-1.887,2.081-1.887
		c0.578,0.001,1.113,0.202,1.585,0.539l0.242-0.41l0.115,0l0.049,1.816l-0.24,0c-0.24-0.872-0.734-1.659-1.752-1.66
		c-0.672,0-1.229,0.429-1.23,1.11c-0.001,0.829,0.744,1.114,1.395,1.388c1.091,0.453,2.308,1,2.308,2.375
		c-0.002,1.375-1.283,2.036-2.513,2.035c-0.714-0.001-1.271-0.212-1.836-0.632l-0.252,0.44l-0.116,0L92.885,24.432z"/>
	<path d="M100.305,21.79c0.025-0.335,0.088-1.11,0.004-1.4c-0.107-0.366-0.537-0.399-0.871-0.426l0.02-0.241
		c0.5,0.05,1.002,0.11,1.504,0.161c0.533,0.031,1.059,0.052,1.582,0.082l-0.018,0.24c-0.336-0.026-0.764-0.059-0.928,0.285
		c-0.127,0.274-0.189,1.049-0.215,1.384l-0.232,2.951c-0.025,0.334-0.088,1.109-0.004,1.4c0.107,0.367,0.537,0.4,0.871,0.427
		L102,26.894c-0.492-0.049-1.004-0.11-1.504-0.16c-0.525-0.031-1.061-0.052-1.584-0.083l0.018-0.24
		c0.336,0.026,0.766,0.06,0.93-0.285c0.125-0.274,0.188-1.049,0.213-1.383L100.305,21.79z"/>
	<path d="M110.32,23.301l-0.217-0.038c0.131-1.172-0.479-2.141-1.68-2.35c-2.016-0.351-2.775,1.435-3.061,3.069
		c-0.27,1.551,0.066,3.176,1.824,3.483c1.035,0.18,1.813-0.185,1.998-1.25c0.121-0.693-0.115-0.873-0.736-1.034l0.041-0.238
		l2.709,0.472l-0.041,0.238c-0.557-0.108-0.688,0.158-0.777,0.675l-0.191,1.096c-0.756-0.131-0.832-0.059-1.535,0.181
		c-0.574,0.178-1.102,0.213-1.691,0.11c-2.018-0.351-3.244-1.929-2.887-3.977c0.367-2.11,2.104-3.459,4.266-3.083
		c0.766,0.133,1.498,0.453,2.037,1.026l0.299-0.427l0.113,0.02L110.32,23.301z"/>
	<path d="M114.363,22.961c-0.178-0.537-0.373-0.761-0.912-0.936l0.07-0.231c0.318,0.109,0.623,0.224,0.943,0.331
		c0.264,0.069,0.541,0.132,0.805,0.201l2.662,6.462l0.02,0.006l0.85-2.792c0.133-0.432,0.346-1.134,0.381-1.573
		c0.051-0.6-0.232-0.642-0.711-0.875l0.074-0.231c0.367,0.124,0.725,0.253,1.092,0.376c0.355,0.097,0.703,0.181,1.074,0.284
		l-0.07,0.23c-0.383-0.073-0.637-0.182-0.898,0.209c-0.197,0.291-0.533,1.319-0.654,1.721l-1.318,4.327l-0.301-0.092
		c-0.139-0.338-0.273-0.687-0.41-1.035l-2.477-5.954l-0.02-0.005l-1.027,3.374c-0.113,0.371-0.342,1.125-0.295,1.512
		c0.051,0.443,0.389,0.524,0.748,0.676l-0.068,0.231c-0.379-0.125-0.766-0.266-1.145-0.391c-0.375-0.103-0.752-0.196-1.127-0.299
		l0.07-0.232c0.404,0.08,0.781,0.172,1.014-0.229c0.189-0.337,0.383-0.97,0.502-1.361L114.363,22.961z"/>
	<path d="M125.727,31.555c-0.148,0.301-0.492,0.998-0.525,1.298c-0.049,0.433,0.426,0.585,0.746,0.767l-0.107,0.216
		c-0.484-0.251-0.963-0.512-1.447-0.764c-0.467-0.218-0.928-0.423-1.402-0.646l0.107-0.217c0.301,0.149,0.695,0.345,0.957,0.075
		c0.211-0.212,0.555-0.908,0.703-1.209l1.309-2.643c0.152-0.311,0.498-1.006,0.539-1.303c0.049-0.384-0.342-0.566-0.643-0.715
		l0.107-0.216c0.475,0.247,0.936,0.498,1.402,0.74c0.457,0.214,0.908,0.415,1.363,0.628c0.998,0.541,1.949,1.502,1.359,2.697
		c-0.68,1.374-2.17,1.047-3.289,0.494c-0.17-0.084-0.578-0.322-0.615-0.341L125.727,31.555z M126.416,30.163
		c0.174,0.098,0.348,0.219,0.527,0.308c0.969,0.479,1.652,0.303,2.156-0.714c0.451-0.913,0.25-1.597-0.662-2.047
		c-0.113-0.056-0.488-0.243-0.611-0.232c-0.098,0.009-0.141,0.117-0.256,0.353L126.416,30.163z"/>
	<path d="M134.439,37.853c0.078,0.509,0.133,0.717,0.541,1.074l-0.129,0.204c-0.262-0.177-0.516-0.362-0.777-0.539
		c-0.227-0.132-0.461-0.254-0.689-0.386l-0.092-0.778l-0.32-2.762c-0.08-0.523-0.012-0.555-0.482-0.852l-0.662,1.049
		c-0.18,0.284-0.594,0.942-0.664,1.232c-0.09,0.378,0.279,0.6,0.564,0.779L131.6,37.08c-0.404-0.267-0.811-0.547-1.232-0.826
		c-0.449-0.271-0.904-0.535-1.355-0.805l0.131-0.205c0.283,0.179,0.656,0.415,0.945,0.174c0.23-0.19,0.646-0.848,0.826-1.131
		l1.58-2.507c0.18-0.284,0.596-0.941,0.666-1.232c0.1-0.373-0.279-0.599-0.564-0.778l0.129-0.205c0.502,0.329,1.006,0.672,1.506,1
		c0.379,0.226,0.771,0.45,1.15,0.677c1.014,0.64,1.891,1.516,1.111,2.751c-0.605,0.959-1.643,0.989-2.574,0.513L134.439,37.853z
		 M132.643,33.576c1.111,0.701,1.936,1.185,2.75-0.104c0.492-0.782,0.395-1.614-0.404-2.118c-0.107-0.068-0.48-0.342-0.584-0.356
		c-0.148-0.02-0.238,0.16-0.299,0.258L132.643,33.576z"/>
	<path d="M137.576,36.835c1.316-1.623,3.699-1.663,5.273-0.387c1.557,1.262,2.002,3.513,0.693,5.129
		c-1.355,1.671-3.605,1.765-5.254,0.43C136.699,40.718,136.248,38.473,137.576,36.835z M138.596,37.66
		c-1.037,1.281-1.563,2.963-0.078,4.166c1.451,1.177,2.994,0.172,3.98-1.043c0.99-1.224,1.576-2.979,0.141-4.142
		C141.229,35.498,139.574,36.454,138.596,37.66z"/>
	<path d="M149.85,45.417l-0.168-0.172c0.232-0.407,0.475-0.79,0.285-1.267c-0.174-0.462-0.602-0.882-0.955-1.242
		c-0.293-0.299-0.418-0.457-0.559-0.495c-0.074-0.016-0.225,0.102-0.441,0.315l-1.678,1.649c0.963,1.07,1.521,0.815,2.105,0.33
		l0.17,0.172c-0.344,0.324-0.697,0.655-1.049,0.971c-0.293,0.317-0.6,0.633-0.898,0.942l-0.17-0.172
		c0.684-0.876,0.309-1.289-0.398-2.008l-0.943,0.927c-0.232,0.229-0.787,0.773-0.916,1.046c-0.189,0.407,0.23,0.714,0.475,0.992
		l-0.174,0.168c-0.367-0.389-0.734-0.793-1.104-1.183c-0.383-0.374-0.764-0.733-1.162-1.123l0.172-0.17
		c0.236,0.24,0.537,0.547,0.889,0.395c0.275-0.125,0.83-0.668,1.068-0.904l2.113-2.075c0.24-0.236,0.795-0.781,0.924-1.054
		c0.158-0.348-0.145-0.655-0.379-0.895l0.174-0.169c0.439,0.465,0.859,0.921,1.285,1.371c0.797,0.794,1.6,1.582,2.393,2.375
		L149.85,45.417z"/>
	<path d="M151.188,47.551c0.262-0.212,0.865-0.7,1.018-0.96c0.193-0.331-0.078-0.664-0.289-0.926l0.219-0.178l3.285,4.054
		l-1.232,0.998l-0.152-0.188c0.83-0.927,0.543-1.397-0.158-2.263l-0.475-0.588c-0.1-0.123-0.137-0.186-0.197-0.178
		c-0.047,0.011-0.131,0.092-0.309,0.237l-1.934,1.566c0.855,1.156,1.451,0.943,2.08,0.517l0.15,0.188
		c-0.373,0.289-0.756,0.584-1.137,0.865c-0.32,0.288-0.656,0.573-0.984,0.853l-0.15-0.188c0.764-0.808,0.455-1.274-0.18-2.057
		l-1.338,1.083c-0.246,0.198-0.629,0.508-0.705,0.814c-0.115,0.443,0.279,0.962,0.551,1.282c0.703,0.835,1.26,1.304,2.316,0.624
		l0.152,0.188l-1.375,0.99l-3.592-4.438l0.188-0.152c0.211,0.262,0.482,0.596,0.844,0.477c0.287-0.097,0.891-0.585,1.152-0.796
		L151.188,47.551z"/>
	<path d="M153.068,54.496l0.133,0.203c-0.77,0.759-1.203,1.725-0.537,2.733c0.453,0.684,1.215,0.999,1.926,0.529
		c0.797-0.526,0.654-1.428,0.486-2.236c-0.221-0.999-0.361-2.127,0.639-2.788c0.998-0.66,2.092-0.262,2.725,0.693
		c0.318,0.482,0.447,1.039,0.426,1.618l0.477-0.024l0.063,0.097l-1.486,1.045l-0.135-0.202c0.596-0.682,0.98-1.527,0.42-2.378
		c-0.371-0.561-1.039-0.788-1.607-0.412c-0.693,0.458-0.518,1.236-0.387,1.93c0.225,1.161,0.439,2.479-0.707,3.238
		c-1.148,0.758-2.408,0.054-3.086-0.973c-0.393-0.596-0.525-1.176-0.486-1.881l-0.508,0.033l-0.063-0.097L153.068,54.496z"/>
	<path d="M156.486,59.82l0.113,0.212c-0.832,0.689-1.348,1.612-0.773,2.674c0.389,0.72,1.119,1.1,1.867,0.697
		c0.84-0.454,0.779-1.363,0.684-2.182c-0.131-1.015-0.172-2.15,0.881-2.72c1.053-0.568,2.105-0.076,2.65,0.931
		c0.273,0.508,0.354,1.074,0.281,1.65l0.475,0.017l0.057,0.102l-1.574,0.909l-0.115-0.212c0.652-0.627,1.111-1.435,0.627-2.331
		c-0.32-0.591-0.961-0.875-1.563-0.551c-0.729,0.394-0.625,1.184-0.555,1.886c0.121,1.175,0.219,2.506-0.99,3.159
		c-1.211,0.653-2.4-0.159-2.984-1.239c-0.338-0.628-0.418-1.218-0.318-1.916l-0.508-0.012l-0.055-0.102L156.486,59.82z"/>
	<path d="M162.342,65.078c0.307-0.137,1.016-0.452,1.232-0.663c0.271-0.27,0.098-0.663-0.039-0.969l0.223-0.098
		c0.195,0.464,0.379,0.933,0.574,1.398c0.227,0.485,0.461,0.956,0.682,1.433l-0.221,0.098c-0.137-0.308-0.313-0.701-0.693-0.681
		c-0.303,0.019-1.012,0.334-1.318,0.471l-2.707,1.201c-0.307,0.137-1.018,0.453-1.234,0.663c-0.271,0.271-0.096,0.664,0.041,0.971
		L158.66,69c-0.191-0.456-0.381-0.935-0.576-1.4c-0.223-0.475-0.459-0.956-0.682-1.432l0.221-0.098
		c0.137,0.307,0.311,0.701,0.693,0.681c0.301-0.019,1.012-0.334,1.318-0.471L162.342,65.078z"/>
	<path d="M162.58,69.272c1.986-0.651,4.012,0.606,4.645,2.532c0.625,1.905-0.221,4.04-2.197,4.688
		c-2.045,0.672-3.988-0.47-4.65-2.485C159.738,72.063,160.574,69.931,162.58,69.272z M162.99,70.52
		c-1.568,0.514-2.922,1.644-2.324,3.459c0.582,1.776,2.426,1.768,3.912,1.28c1.496-0.491,2.939-1.65,2.363-3.406
		C166.375,70.127,164.467,70.035,162.99,70.52z"/>
	<path d="M168.189,78.878c0.393-0.406,0.502-0.684,0.406-1.242l0.232-0.045c0.053,0.333,0.092,0.656,0.145,0.988
		c0.061,0.267,0.135,0.541,0.199,0.808l-4.488,5.359l0.004,0.021l2.867-0.543c0.443-0.083,1.166-0.22,1.572-0.393
		c0.555-0.233,0.461-0.504,0.445-1.036l0.232-0.044c0.063,0.384,0.111,0.759,0.174,1.143c0.078,0.359,0.164,0.706,0.252,1.085
		l-0.236,0.045c-0.113-0.375-0.135-0.648-0.604-0.698c-0.35-0.041-1.416,0.14-1.828,0.217l-4.447,0.842l-0.059-0.31
		c0.236-0.28,0.482-0.561,0.727-0.843l4.129-4.959l-0.004-0.021l-3.467,0.656c-0.383,0.072-1.156,0.219-1.479,0.44
		c-0.369,0.251-0.283,0.588-0.252,0.978l-0.238,0.045c-0.064-0.395-0.119-0.8-0.184-1.195c-0.082-0.38-0.174-0.757-0.258-1.137
		l0.238-0.045c0.117,0.395,0.209,0.772,0.674,0.792c0.387,0.012,1.037-0.111,1.439-0.187L168.189,78.878z"/>
	<path d="M165.865,88.436c-0.41-0.129-1.209-0.418-1.619-0.387c-0.449,0.033-0.379,0.564-0.387,0.881l-0.242,0.017
		c-0.018-0.388-0.023-0.767-0.043-1.155c-0.037-0.366-0.082-0.721-0.121-1.086l0.242-0.017c0.104,0.561,0.287,0.779,0.816,0.951
		c0.691,0.245,1.371,0.479,2.064,0.724l4.232,1.301l0.025,0.356l-5.166,2.503c-0.262,0.146-0.885,0.423-1.111,0.629
		c-0.287,0.252-0.307,0.57-0.322,0.929l-0.24,0.018c-0.025-0.493-0.041-0.998-0.066-1.491c-0.047-0.502-0.105-1.013-0.154-1.516
		l0.242-0.017c0.031,0.292,0.049,0.807,0.457,0.776c0.262-0.018,0.566-0.157,0.801-0.269l1.049-0.487l-0.189-2.585L165.865,88.436z
		 M166.646,90.936l2.871-1.367l-3.039-0.947L166.646,90.936z"/>
	<path d="M168.889,95.955c0.334,0.011,1.111,0.035,1.396-0.061c0.361-0.126,0.375-0.556,0.387-0.891l0.246,0.007
		c-0.027,0.503-0.064,0.995-0.09,1.499c-0.008,0.535-0.002,1.061-0.014,1.596l-0.242-0.008c0.012-0.336,0.025-0.766-0.326-0.914
		c-0.281-0.113-1.057-0.139-1.393-0.149l-3.104-0.099c-1.344-0.043-1.57,0.16-1.613,1.493c-0.016,0.492-0.055,1.058,0.215,1.496
		c0.309,0.535,0.705,0.61,1.289,0.725l-0.008,0.262l-1.854-0.153c0.016-0.179,0.033-0.367,0.059-0.544
		c0.027-1.805,0.084-3.619,0.131-5.424l0.242,0.008c-0.012,0.335-0.025,0.765,0.328,0.913c0.279,0.114,1.055,0.139,1.391,0.149
		L168.889,95.955z"/>
</g>
<g>
	<path d="M77.547,167.306c-0.292,0.419-0.91,1.222-1.023,1.696c-0.126,0.522,0.504,0.635,0.859,0.759l-0.067,0.28
		c-0.447-0.121-0.879-0.25-1.326-0.37c-0.428-0.09-0.848-0.165-1.276-0.255l0.067-0.279c0.674,0.084,0.988-0.046,1.374-0.584
		c0.528-0.695,1.041-1.383,1.566-2.08l3.009-4.332l0.413,0.1l0.973,6.767c0.071,0.351,0.16,1.157,0.312,1.489
		c0.183,0.417,0.536,0.553,0.938,0.701l-0.067,0.279c-0.569-0.149-1.146-0.313-1.716-0.463c-0.587-0.128-1.188-0.247-1.774-0.375
		l0.066-0.279c0.344,0.069,0.935,0.236,1.048-0.237c0.073-0.304,0.026-0.701-0.015-1.007l-0.175-1.366l-3.003-0.721L77.547,167.306z
		 M80.669,167.322l-0.516-3.75l-2.173,3.104L80.669,167.322z"/>
	<path d="M89.294,169.724c-0.029,0.399-0.097,1.321,0.003,1.667c0.139,0.499,0.731,0.455,1.166,0.512l-0.021,0.287
		c-0.647-0.061-1.294-0.133-1.941-0.193c-0.611-0.032-1.212-0.051-1.836-0.084l0.021-0.287c0.398,0.029,0.922,0.068,1.091-0.346
		c0.137-0.328,0.204-1.251,0.233-1.65l0.257-3.503c0.03-0.411,0.098-1.333,0.011-1.679c-0.118-0.447-0.629-0.473-1.028-0.502
		l0.021-0.29c0.636,0.06,1.257,0.13,1.879,0.188c0.6,0.031,1.188,0.049,1.787,0.084c1.343,0.149,2.825,0.785,2.709,2.367
		c-0.134,1.82-1.923,2.128-3.407,2.019c-0.225-0.017-0.783-0.095-0.833-0.099L89.294,169.724z M89.43,167.879
		c0.235,0.029,0.481,0.085,0.72,0.103c1.283,0.095,1.96-0.407,2.059-1.754c0.088-1.209-0.439-1.874-1.648-1.964
		c-0.149-0.011-0.648-0.047-0.778,0.019c-0.104,0.056-0.102,0.193-0.125,0.505L89.43,167.879z"/>
	<path d="M97.88,166.465c-0.039-0.398-0.127-1.32-0.271-1.646c-0.18-0.423-0.701-0.36-1.099-0.322l-0.03-0.314
		c0.511-0.036,1.049-0.063,1.573-0.101c0.672-0.076,1.341-0.166,2.013-0.239c2.623-0.301,4.771,1.152,5.029,3.854
		c0.252,2.639-1.347,4.174-3.918,4.357c-0.735,0.058-1.484,0.104-2.221,0.162c-0.572,0.066-1.13,0.146-1.688,0.211l-0.027-0.286
		c0.397-0.038,0.921-0.088,1.018-0.524c0.08-0.347-0.008-1.269-0.046-1.666L97.88,166.465z M99.512,170.002
		c0.041,0.424,0.048,1.026,0.332,1.363c0.326,0.396,0.966,0.385,1.438,0.34c2.18-0.209,2.453-1.817,2.277-3.66
		c-0.236-2.465-1.107-4.091-3.772-3.836c-0.149,0.015-0.638,0.036-0.739,0.158c-0.067,0.082-0.047,0.294-0.037,0.394L99.512,170.002
		z"/>
	<path d="M111.523,167.859c0.104,0.386,0.349,1.278,0.557,1.57c0.298,0.424,0.841,0.186,1.269,0.094l0.076,0.277
		c-0.63,0.159-1.262,0.307-1.893,0.465c-0.588,0.174-1.159,0.355-1.76,0.532l-0.075-0.277c0.386-0.104,0.893-0.243,0.913-0.689
		c0.02-0.354-0.225-1.247-0.33-1.632l-0.924-3.388c-0.108-0.397-0.352-1.29-0.55-1.585c-0.26-0.383-0.751-0.235-1.137-0.131
		l-0.075-0.281c0.617-0.156,1.227-0.297,1.833-0.449c0.575-0.17,1.135-0.349,1.711-0.514c1.315-0.307,2.923-0.202,3.341,1.328
		c0.48,1.76-1.104,2.646-2.537,3.037c-0.217,0.06-0.77,0.171-0.818,0.185L111.523,167.859z M111.036,166.076
		c0.232-0.051,0.482-0.08,0.712-0.143c1.241-0.34,1.71-1.037,1.355-2.34c-0.318-1.168-1.038-1.619-2.206-1.301
		c-0.146,0.04-0.628,0.172-0.729,0.276c-0.08,0.087-0.031,0.216,0.05,0.518L111.036,166.076z"/>
</g>
</svg>
