<?xml version="1.0" encoding="utf-8"?>
<!-- Generator: Adobe Illustrator 16.0.3, SVG Export Plug-In . SVG Version: 6.00 Build 0)  -->
<!DOCTYPE svg PUBLIC "-//W3C//DTD SVG 1.1//EN" "http://www.w3.org/Graphics/SVG/1.1/DTD/svg11.dtd">
<svg version="1.1" id="Layer_1" xmlns="http://www.w3.org/2000/svg" xmlns:xlink="http://www.w3.org/1999/xlink" x="0px" y="0px"
	 width="190.523px" height="190.453px" viewBox="0 0 190.523 190.453" enable-background="new 0 0 190.523 190.453"
	 xml:space="preserve">
<g id="Layer_1_1_" display="none">
	<path display="inline" fill="#E2B862" d="M74.999,149.998c-20.033,0-38.867-7.801-53.032-21.965C7.801,113.865,0,95.032,0,74.999
		s7.801-38.867,21.967-53.032S54.966,0,74.999,0s38.867,7.801,53.032,21.967c14.164,14.166,21.966,32.999,21.966,53.032
		s-7.802,38.866-21.966,53.032C113.866,142.196,95.032,149.998,74.999,149.998z M74.999,0.89C34.135,0.89,0.89,34.135,0.89,74.999
		c0,40.864,33.245,74.109,74.109,74.109c40.862,0,74.106-33.245,74.106-74.109C149.106,34.135,115.862,0.89,74.999,0.89z"/>
	<path display="inline" fill="#E2B862" d="M74.999,147.826c-19.453,0-37.741-7.576-51.497-21.33
		C9.748,112.74,2.172,94.452,2.172,74.999s7.576-37.742,21.331-51.497S55.546,2.171,74.999,2.171s37.741,7.576,51.497,21.331
		c13.755,13.756,21.331,32.044,21.331,51.497s-7.576,37.741-21.331,51.497C112.74,140.25,94.452,147.826,74.999,147.826z
		 M74.999,3.062C35.333,3.062,3.062,35.333,3.062,75c0,39.666,32.271,71.937,71.938,71.937c39.667,0,71.938-32.271,71.938-71.937
		C146.937,35.333,114.666,3.062,74.999,3.062z"/>
	<path display="inline" fill="#E2B862" d="M76.138,131.511c-31.162,0-56.514-25.352-56.514-56.512
		c0-31.161,25.352-56.513,56.514-56.513c31.16,0,56.512,25.352,56.512,56.513C132.65,106.16,107.298,131.511,76.138,131.511z
		 M76.138,19.376c-30.672,0-55.624,24.953-55.624,55.623c0,30.67,24.952,55.624,55.624,55.624c30.67,0,55.622-24.953,55.622-55.624
		C131.76,44.328,106.808,19.376,76.138,19.376z"/>
	<path display="inline" fill="#E2B862" d="M76.138,129.494c-30.05,0-54.496-24.445-54.496-54.495
		c0-30.049,24.446-54.495,54.496-54.495c30.049,0,54.494,24.447,54.494,54.495C130.632,105.046,106.187,129.494,76.138,129.494z
		 M76.138,21.394c-29.559,0-53.604,24.047-53.604,53.605c0,29.559,24.047,53.605,53.604,53.605
		c29.557,0,53.604-24.047,53.604-53.605S105.694,21.394,76.138,21.394z"/>
	<g display="inline">
		<circle fill="none" cx="75.623" cy="74.999" r="60.701"/>
		<path fill="#E2B862" d="M34.715,120.384c-0.749-0.621-0.806-0.641-0.993-0.482c-0.237,0.197-0.726,0.715-1.674,1.713
			s-1.438,1.516-1.622,1.762c-0.147,0.195-0.127,0.252,0.535,0.967l-0.26,0.275l-2.339-2.219l0.261-0.273
			c0.749,0.623,0.806,0.642,0.993,0.482c0.236-0.197,0.726-0.713,1.674-1.713c0.947-0.998,1.438-1.516,1.622-1.762
			c0.146-0.195,0.127-0.252-0.535-0.967l0.26-0.273l2.338,2.217L34.715,120.384z"/>
		<path fill="#E2B862" d="M31.838,117.705c-0.617-0.605-0.673-0.629-0.873-0.49c-0.254,0.176-0.788,0.645-1.822,1.553
			s-1.567,1.377-1.773,1.605c-0.165,0.182-0.149,0.239,0.373,0.93l-0.284,0.25l-1.224-1.393c0.046-0.113,0.075-0.271,0.126-0.472
			l1.218-4.804l-0.013-0.014l-1.041,0.914c-1.033,0.906-1.567,1.377-1.773,1.605c-0.165,0.181-0.149,0.238,0.443,1.01l-0.283,0.25
			l-1.681-1.913l0.284-0.249c0.552,0.629,0.639,0.66,1.029,0.354c0.369-0.288,0.8-0.643,1.159-0.957
			c1.304-1.146,2.387-2.108,2.879-2.625l0.427,0.486c-0.278,0.748-0.457,1.334-0.642,2.133l-0.897,3.709l0.012,0.013l1.353-1.187
			c1.034-0.908,1.567-1.377,1.773-1.606c0.165-0.181,0.149-0.238-0.521-1.099l0.284-0.25l1.751,1.994L31.838,117.705z"/>
		<path fill="#E2B862" d="M26.472,111.3c-0.609-0.76-0.657-0.779-0.876-0.67c-0.158,0.088-0.426,0.254-0.854,0.553l-3.36,2.354
			l0.593,0.846c0.175,0.252,0.461,0.205,1.521-0.086l0.164,0.392c-0.333,0.136-0.777,0.379-1.469,0.819
			c-0.081-0.164-0.164-0.313-0.252-0.471c-0.083-0.15-0.179-0.305-0.276-0.443l-1.774-2.534c-0.217-0.312-0.447-0.578-0.677-0.812
			c0.649-0.5,1.032-0.832,1.272-1.1l0.312,0.287c-0.636,0.896-0.778,1.148-0.604,1.398l0.594,0.848l3.359-2.352
			c0.427-0.299,0.675-0.494,0.813-0.613c0.178-0.168,0.175-0.221-0.331-1.051l0.309-0.217l1.848,2.637L26.472,111.3z"/>
		<path fill="#E2B862" d="M23.576,107.125c-0.498-0.771-0.543-0.799-0.773-0.713c-0.285,0.116-0.907,0.461-2.112,1.125
			c-1.205,0.666-1.827,1.01-2.077,1.188c-0.194,0.147-0.196,0.2,0.191,1.032l-0.331,0.185l-1.796-3.252
			c-0.274-0.496-0.6-0.974-0.838-1.293c0.374-0.217,1.211-0.804,1.394-0.976l0.255,0.332c-0.868,0.81-0.87,1.045-0.205,2.25
			l0.431,0.779c0.061,0.109,0.134,0.131,0.244,0.07l1.771-0.979c0.103-0.059,0.128-0.104-0.011-0.354l-0.135-0.244
			c-0.522-0.944-0.687-0.926-1.285-0.707l-0.208-0.379c0.264-0.135,0.517-0.254,0.895-0.463c0.315-0.174,0.653-0.381,0.869-0.511
			l0.213,0.386c-0.537,0.369-0.608,0.554-0.234,1.229l0.331,0.599c0.057,0.104,0.118,0.141,0.229,0.079l1.977-1.092
			c0.109-0.061,0.132-0.133,0.07-0.244l-0.817-1.479c-0.382-0.692-0.656-0.778-1.264-0.668l-0.635,0.113l-0.12-0.457
			c0.482-0.134,1.275-0.429,1.622-0.599l2.684,4.857L23.576,107.125z"/>
		<path fill="#E2B862" d="M20.336,101.203c-0.407-0.826-0.452-0.865-0.688-0.798c-0.297,0.083-0.955,0.353-2.229,0.876
			c-1.274,0.522-1.934,0.793-2.202,0.942c-0.215,0.116-0.219,0.178,0.071,1.051l-0.351,0.144l-1.318-3.215
			c-0.273-0.668-0.322-1.045-0.237-1.479s0.361-0.781,0.861-0.986c1.208-0.495,1.991,0.8,2.066,0.769
			c0.042-0.018,0.081-0.063,0.155-0.189l1.207-2.111c0.307-0.534,0.347-0.647,0.176-1.063l0.35-0.145l0.585,1.425l-1.825,2.929
			c-0.057,0.103-0.049,0.166,0.095,0.517c0.14,0.342,0.162,0.373,0.246,0.338c1.482-0.608,1.712-0.713,1.927-0.83
			c0.215-0.119,0.219-0.179-0.071-1.051l0.351-0.146l1.183,2.883L20.336,101.203z M16.614,100.481
			c0.15-0.062,0.186-0.094-0.036-0.638c-0.53-1.291-1.324-1.258-1.791-1.065c-0.676,0.277-0.932,1.007-0.556,1.923
			c0.25,0.606,0.292,0.639,0.5,0.553L16.614,100.481z"/>
		<path fill="#E2B862" d="M17.608,94.422c-0.291-0.815-0.331-0.86-0.571-0.821c-0.305,0.047-0.989,0.236-2.315,0.604
			c-1.326,0.367-2.011,0.556-2.296,0.672c-0.227,0.091-0.239,0.15-0.069,1l-0.363,0.101l-0.494-1.785
			c0.089-0.082,0.185-0.209,0.317-0.368l3.188-3.792l-0.005-0.018l-1.334,0.369c-1.326,0.367-2.012,0.557-2.296,0.672
			c-0.228,0.092-0.238,0.15-0.041,1.104l-0.364,0.101l-0.678-2.452l0.363-0.102c0.224,0.806,0.288,0.872,0.771,0.768
			c0.458-0.1,1-0.23,1.459-0.357c1.673-0.463,3.064-0.856,3.732-1.106l0.174,0.624c-0.576,0.551-0.992,1.002-1.507,1.639
			l-2.423,2.945l0.004,0.018l1.733-0.479c1.326-0.366,2.011-0.556,2.296-0.672c0.228-0.091,0.239-0.149,0.009-1.215l0.364-0.101
			l0.707,2.557L17.608,94.422z"/>
		<path fill="#E2B862" d="M15.815,87.908c-0.153-0.687-0.396-0.776-1.181-0.953l-4.057-0.919c-0.69-0.156-0.86-0.192-1.205-0.238
			l-0.073-0.463c0.269-0.088,0.722-0.333,0.989-0.493l3.98-2.442c0.533-0.321,0.621-0.399,0.494-1.146l0.374-0.06l0.479,3.035
			l-0.374,0.059c-0.177-0.885-0.269-0.941-0.49-0.907c-0.178,0.028-1.097,0.565-1.194,0.636c-0.041,0.033-0.053,0.071-0.053,0.127
			c0.008,0.227,0.063,0.683,0.203,1.572c0.088,0.561,0.137,0.58,0.336,0.631c0.577,0.127,1.062,0.196,1.149,0.184
			c0.268-0.043,0.314-0.15,0.243-1.006l0.374-0.059l0.376,2.385L15.815,87.908z M13.07,84.438c-0.012-0.08-0.043-0.103-0.069-0.099
			c-0.044,0.007-0.138,0.058-0.188,0.084l-2.063,1.192l2.391,0.533c0.066,0.018,0.114,0.028,0.149,0.022
			c0.036-0.005,0.046-0.053,0.038-0.106L13.07,84.438z"/>
		<path fill="#E2B862" d="M14.734,80.114c-0.116-0.967-0.146-1.01-0.392-1.033c-0.181-0.008-0.496-0.008-1.018,0.021l-4.099,0.229
			l0.059,1.034c0.017,0.306,0.284,0.417,1.339,0.728l-0.067,0.418c-0.354-0.061-0.861-0.087-1.681-0.076
			C8.892,81.252,8.9,81.081,8.908,80.9c0.008-0.17,0.007-0.352-0.003-0.521l-0.173-3.091c-0.021-0.377-0.077-0.726-0.148-1.046
			C9.4,76.16,9.9,76.078,10.246,75.976l0.112,0.409c-1.013,0.427-1.267,0.566-1.25,0.872l0.059,1.034l4.098-0.229
			c0.521-0.028,0.834-0.064,1.014-0.093c0.24-0.05,0.266-0.096,0.273-1.069l0.377-0.021l0.18,3.217L14.734,80.114z"/>
		<path fill="#E2B862" d="M14.522,75.083c-0.04-0.974-0.064-1.028-0.308-1.061c-0.305-0.043-1.018-0.061-2.395-0.093
			c-1.377-0.033-2.089-0.05-2.396-0.021c-0.244,0.021-0.272,0.075-0.358,1.045l-0.378-0.009l0.076-3.223l0.378,0.009
			c0.04,0.974,0.065,1.029,0.309,1.062c0.305,0.043,1.016,0.06,2.394,0.093c1.378,0.033,2.089,0.049,2.396,0.021
			c0.243-0.021,0.271-0.074,0.357-1.045l0.378,0.009L14.9,75.091L14.522,75.083z"/>
		<path fill="#E2B862" d="M9.004,67.307c0.188-1.654,1.641-2.784,3.563-2.563c1.924,0.22,3.082,1.647,2.894,3.302
			c-0.189,1.654-1.642,2.784-3.563,2.564C9.975,70.389,8.815,68.961,9.004,67.307z M15.031,67.996c0.11-0.957-0.7-1.874-2.596-2.09
			C10.54,65.69,9.543,66.4,9.434,67.357c-0.108,0.957,0.701,1.874,2.596,2.09C13.925,69.663,14.921,68.953,15.031,67.996z"/>
		<path fill="#E2B862" d="M15.449,63.977c0.138-0.855,0.124-0.915-0.106-0.997c-0.289-0.105-0.981-0.27-2.321-0.587
			c-1.34-0.318-2.031-0.481-2.338-0.517c-0.243-0.03-0.282,0.017-0.542,0.843l-0.368-0.087l0.429-1.805
			c0.117-0.027,0.263-0.095,0.457-0.169l4.624-1.791l0.004-0.018l-1.35-0.32c-1.34-0.317-2.032-0.481-2.338-0.517
			c-0.243-0.029-0.281,0.017-0.566,0.948l-0.368-0.087l0.587-2.479l0.368,0.087c-0.193,0.814-0.168,0.903,0.308,1.044
			c0.449,0.134,0.988,0.28,1.452,0.39c1.689,0.401,3.103,0.726,3.809,0.829l-0.148,0.631c-0.771,0.206-1.354,0.401-2.111,0.711
			l-3.545,1.417l-0.004,0.018l1.751,0.415c1.34,0.317,2.032,0.481,2.338,0.517c0.243,0.03,0.282-0.017,0.594-1.062l0.368,0.087
			l-0.612,2.583L15.449,63.977z"/>
		<path fill="#E2B862" d="M17.018,57.405c0.196-0.676,0.027-0.871-0.575-1.403l-3.11-2.757c-0.53-0.468-0.661-0.583-0.94-0.789
			l0.159-0.44c0.278,0.052,0.793,0.056,1.104,0.044l4.664-0.224c0.621-0.025,0.736-0.051,0.983-0.765l0.356,0.128l-1.041,2.888
			l-0.355-0.128c0.271-0.859,0.22-0.954,0.008-1.03c-0.169-0.061-1.231-0.033-1.352-0.019c-0.052,0.01-0.081,0.038-0.107,0.086
			c-0.102,0.202-0.273,0.628-0.58,1.475c-0.191,0.534-0.159,0.574-0.009,0.714c0.443,0.39,0.835,0.684,0.92,0.714
			c0.254,0.091,0.347,0.02,0.696-0.764l0.355,0.128l-0.817,2.27L17.018,57.405z M16.283,53.045c0.027-0.076,0.011-0.111-0.015-0.12
			c-0.042-0.015-0.146-0.015-0.205-0.016l-2.381,0.051l1.837,1.619c0.05,0.047,0.086,0.079,0.12,0.091
			c0.034,0.012,0.066-0.024,0.084-0.075L16.283,53.045z"/>
		<path fill="#E2B862" d="M19.583,50.509c0.35-0.851,0.349-0.912,0.143-1.043c-0.258-0.167-0.896-0.482-2.131-1.091
			s-1.873-0.924-2.163-1.027c-0.229-0.083-0.278-0.047-0.741,0.749l-0.339-0.167l1.378-2.793l0.339,0.167
			c-0.35,0.851-0.35,0.912-0.144,1.043c0.162,0.1,0.63,0.351,1.009,0.538l3.18,1.569c0.274,0.135,0.38,0.086,0.511-0.179
			l0.489-0.993c0.415-0.839,0.24-1.096-0.627-2.126l0.305-0.332c0.234,0.236,1.114,0.831,1.503,1.042l-2.374,4.811L19.583,50.509z"
			/>
		<path fill="#E2B862" d="M23.76,42.55c0.509-0.831,0.513-0.883,0.335-1.053c-0.229-0.206-0.81-0.616-1.935-1.409
			c-1.125-0.794-1.707-1.204-1.978-1.351c-0.219-0.111-0.268-0.09-0.879,0.668l-0.309-0.218l1.773-2.516
			c0.728-1.03,1.284-1.352,2.07-1.514c0.698-0.146,1.538,0.006,2.354,0.582c1.287,0.908,1.989,2.614,0.572,4.622l-1.696,2.405
			L23.76,42.55z M24.629,40.552c0.287,0.202,0.353,0.172,0.689-0.307c0.996-1.412,0.767-2.444-0.8-3.549
			c-1.603-1.131-2.616-0.975-3.611,0.437c-0.338,0.478-0.345,0.55-0.204,0.648L24.629,40.552z"/>
		<path fill="#E2B862" d="M28.029,36.595c0.564-0.727,0.574-0.778,0.417-0.967c-0.203-0.231-0.734-0.705-1.762-1.622
			c-1.026-0.917-1.558-1.391-1.81-1.568c-0.205-0.135-0.255-0.12-0.914,0.523l-0.282-0.252l2.477-2.773
			c0.378-0.423,0.722-0.889,0.945-1.22c0.328,0.281,1.159,0.878,1.382,0.993l-0.229,0.351c-1.051-0.553-1.276-0.476-2.194,0.551
			l-0.593,0.665c-0.084,0.094-0.08,0.17,0.014,0.254l1.512,1.35c0.087,0.078,0.139,0.087,0.33-0.127l0.187-0.208
			c0.72-0.806,0.646-0.955,0.243-1.448l0.288-0.322c0.215,0.205,0.412,0.404,0.733,0.692c0.27,0.24,0.576,0.49,0.771,0.651
			l-0.294,0.329c-0.525-0.385-0.725-0.393-1.239,0.185l-0.456,0.51c-0.078,0.087-0.093,0.158,0.001,0.242l1.686,1.505
			c0.094,0.084,0.17,0.08,0.254-0.015l1.127-1.262c0.526-0.591,0.518-0.877,0.213-1.415l-0.319-0.563l0.394-0.265
			c0.284,0.411,0.824,1.063,1.102,1.334l-3.7,4.142L28.029,36.595z"/>
		<path fill="#E2B862" d="M36.4,26.754c0.11,1.268-0.098,2.168-1.036,3.01c-1.071,0.962-2.892,1.265-4.389-0.403
			c-1.101-1.226-1.412-3.123,0.242-4.608c0.442-0.396,1.108-0.813,1.606-1.067c0.338,0.35,0.973,0.869,1.304,1.116l-0.249,0.356
			c-0.938-0.573-1.75-0.643-2.515,0.042c-0.844,0.758-0.691,2.073,0.451,3.345c1.208,1.347,2.545,1.368,3.323,0.67
			c0.71-0.637,0.92-1.467,0.791-2.379L36.4,26.754z"/>
		<path fill="#E2B862" d="M36.784,20.329c1.357-0.966,3.169-0.64,4.291,0.938c1.121,1.578,0.834,3.396-0.523,4.361
			s-3.169,0.64-4.291-0.938C35.138,23.112,35.426,21.294,36.784,20.329z M40.301,25.275c0.786-0.559,0.926-1.775-0.18-3.331
			c-1.106-1.556-2.302-1.823-3.086-1.264c-0.786,0.559-0.927,1.774,0.18,3.331C38.321,25.568,39.516,25.833,40.301,25.275z"/>
		<path fill="#E2B862" d="M43.512,22.928c0.776-0.496,0.812-0.545,0.718-0.771c-0.114-0.286-0.457-0.91-1.117-2.12
			c-0.66-1.209-1.002-1.833-1.18-2.085c-0.14-0.201-0.201-0.198-1.037,0.187l-0.182-0.332l3.051-1.667
			c0.632-0.346,1.004-0.436,1.444-0.399c0.44,0.037,0.815,0.273,1.075,0.747c0.626,1.146-0.574,2.068-0.535,2.139
			c0.021,0.04,0.07,0.074,0.207,0.133l2.23,0.967c0.565,0.246,0.684,0.273,1.079,0.058l0.181,0.332l-1.352,0.738l-3.113-1.491
			c-0.105-0.044-0.17-0.03-0.502,0.151c-0.324,0.177-0.352,0.203-0.308,0.281c0.769,1.407,0.896,1.624,1.038,1.825
			c0.14,0.2,0.201,0.198,1.037-0.187l0.182,0.332l-2.735,1.494L43.512,22.928z M43.818,19.148c0.078,0.142,0.115,0.173,0.629-0.107
			c1.226-0.669,1.104-1.455,0.862-1.897c-0.35-0.64-1.102-0.814-1.971-0.339c-0.577,0.315-0.604,0.36-0.496,0.558L43.818,19.148z"/>
		<path fill="#E2B862" d="M49.799,19.528c0.636-0.302,0.669-0.558,0.668-1.362l-0.004-4.158c-0.001-0.708-0.003-0.881-0.035-1.228
			l0.435-0.174c0.146,0.243,0.485,0.63,0.701,0.854l3.265,3.34c0.431,0.448,0.525,0.517,1.226,0.228l0.14,0.351l-2.851,1.139
			l-0.141-0.351c0.822-0.368,0.858-0.469,0.775-0.678c-0.066-0.167-0.794-0.943-0.884-1.024c-0.042-0.032-0.082-0.035-0.136-0.023
			c-0.22,0.059-0.652,0.212-1.488,0.546c-0.527,0.21-0.535,0.263-0.54,0.468c0.003,0.59,0.043,1.078,0.077,1.162
			c0.1,0.251,0.215,0.272,1.033,0.014l0.14,0.351l-2.241,0.896L49.799,19.528z M52.573,16.083c0.074-0.03,0.09-0.065,0.079-0.09
			c-0.017-0.042-0.087-0.121-0.124-0.164l-1.619-1.748l0.009,2.45c-0.001,0.068-0.001,0.117,0.012,0.15
			c0.014,0.033,0.063,0.033,0.112,0.013L52.573,16.083z"/>
		<path fill="#E2B862" d="M57.149,16.741c0.917-0.329,0.953-0.368,0.92-0.611c-0.031-0.178-0.102-0.486-0.247-0.988l-1.134-3.945
			l-0.995,0.286c-0.294,0.084-0.343,0.371-0.412,1.467l-0.423,0.028c-0.019-0.36-0.105-0.859-0.298-1.656
			c0.181-0.024,0.351-0.054,0.528-0.086c0.169-0.03,0.345-0.071,0.509-0.118l2.977-0.855c0.362-0.104,0.69-0.236,0.986-0.378
			c0.261,0.777,0.452,1.247,0.627,1.563l-0.373,0.201c-0.641-0.893-0.834-1.109-1.128-1.024l-0.995,0.286l1.135,3.945
			c0.144,0.502,0.249,0.8,0.314,0.968c0.103,0.224,0.152,0.237,1.104,0.029l0.104,0.363l-3.098,0.89L57.149,16.741z"/>
		<path fill="#E2B862" d="M62.013,15.42c0.94-0.253,0.988-0.29,0.966-0.533c-0.024-0.307-0.165-1.004-0.436-2.354
			c-0.271-1.349-0.411-2.046-0.506-2.339c-0.074-0.232-0.133-0.249-1.098-0.119l-0.073-0.37l3.156-0.634l0.074,0.37
			c-0.939,0.253-0.988,0.29-0.966,0.534c0.024,0.307,0.165,1.003,0.436,2.353c0.271,1.35,0.411,2.046,0.506,2.339
			c0.074,0.233,0.133,0.249,1.098,0.119l0.074,0.371l-3.157,0.634L62.013,15.42z"/>
		<path fill="#E2B862" d="M65.854,14.611c0.853-0.155,0.902-0.188,0.903-0.432c0.003-0.308-0.073-1.015-0.22-2.382
			c-0.147-1.368-0.224-2.075-0.292-2.375c-0.054-0.238-0.109-0.259-0.975-0.229L65.23,8.817l1.842-0.198
			c0.065,0.102,0.178,0.216,0.313,0.374l3.227,3.759l0.019-0.001l-0.148-1.377c-0.146-1.368-0.223-2.074-0.292-2.375
			c-0.052-0.239-0.108-0.26-1.081-0.219l-0.041-0.375l2.53-0.272l0.041,0.375c-0.832,0.089-0.907,0.143-0.881,0.637
			c0.022,0.468,0.064,1.024,0.116,1.498c0.186,1.726,0.349,3.165,0.487,3.864l-0.644,0.069c-0.451-0.657-0.828-1.141-1.373-1.752
			l-2.516-2.868L66.81,9.958l0.192,1.788c0.146,1.368,0.223,2.075,0.292,2.375c0.053,0.238,0.108,0.259,1.198,0.206l0.04,0.375
			l-2.639,0.284L65.854,14.611z"/>
		<path fill="#E2B862" d="M77.879,12.386c0.002-0.144-0.069-0.172-0.573-0.199l-0.549-0.027l0.006-0.378l2.801,0.047l-0.006,0.324
			c-0.611,0.007-0.631,0.052-0.638,0.448c-0.009,0.531,0.011,0.991,0.002,1.441c-0.526,0.198-1.556,0.424-2.313,0.411
			c-2.068-0.035-3.289-0.929-3.249-3.306c0.023-1.368,0.929-3.235,3.53-3.191c0.693,0.012,1.439,0.087,1.987,0.178
			c-0.005,0.324-0.021,0.63-0.024,0.909c-0.004,0.234,0.019,0.604,0.039,0.892l-0.396-0.007C78.25,9.023,77.621,8.4,76.595,8.383
			c-1.422-0.024-2.038,1.235-2.065,2.855c-0.022,1.387,0.422,2.754,1.935,2.779c0.549,0.01,0.981-0.1,1.393-0.31L77.879,12.386z"/>
		<path fill="#E2B862" d="M82.621,14.223c0.697,0.073,0.859-0.127,1.277-0.813l2.164-3.545c0.369-0.604,0.457-0.752,0.61-1.064
			l0.461,0.079c-0.002,0.282,0.085,0.79,0.151,1.093l1.041,4.547c0.134,0.607,0.179,0.715,0.925,0.833l-0.063,0.373l-3.021-0.515
			l0.063-0.373c0.894,0.116,0.978,0.048,1.016-0.174c0.029-0.177-0.186-1.217-0.221-1.333c-0.02-0.049-0.051-0.072-0.104-0.09
			c-0.217-0.064-0.667-0.159-1.553-0.31c-0.56-0.095-0.595-0.056-0.704,0.117c-0.307,0.504-0.524,0.941-0.54,1.03
			c-0.045,0.266,0.042,0.345,0.873,0.55L84.933,15l-2.375-0.405L82.621,14.223z M86.778,12.733c0.08,0.014,0.111-0.008,0.115-0.035
			c0.008-0.044-0.011-0.148-0.02-0.204l-0.47-2.333l-1.27,2.092c-0.037,0.058-0.063,0.099-0.068,0.134
			c-0.006,0.036,0.035,0.061,0.088,0.07L86.778,12.733z"/>
		<path fill="#E2B862" d="M89.903,15.512c0.848,0.185,0.906,0.174,1-0.052c0.121-0.284,0.324-0.966,0.714-2.287
			c0.39-1.321,0.591-2.004,0.644-2.308c0.042-0.241-0.001-0.282-0.813-0.587l0.107-0.363l1.779,0.525
			c0.021,0.119,0.081,0.268,0.145,0.465l1.539,4.716l0.019,0.005l0.392-1.33c0.39-1.321,0.591-2.003,0.644-2.307
			c0.043-0.241,0-0.282-0.916-0.618l0.106-0.363l2.444,0.721l-0.107,0.362c-0.803-0.237-0.894-0.216-1.06,0.251
			c-0.159,0.441-0.334,0.972-0.471,1.429c-0.49,1.667-0.894,3.06-1.033,3.76l-0.622-0.184c-0.164-0.781-0.327-1.373-0.597-2.147
			l-1.224-3.619l-0.017-0.005l-0.511,1.727c-0.391,1.321-0.592,2.004-0.645,2.308c-0.042,0.241,0.001,0.282,1.029,0.651
			l-0.107,0.363l-2.548-0.752L89.903,15.512z"/>
		<path fill="#E2B862" d="M96.724,17.566c0.918,0.327,0.971,0.32,1.102,0.111c0.154-0.267,0.437-0.92,0.982-2.186
			c0.545-1.265,0.828-1.918,0.916-2.214c0.063-0.238,0.033-0.28-0.834-0.724l0.149-0.347l2.829,1.221
			c1.157,0.5,1.588,0.98,1.907,1.717c0.287,0.653,0.312,1.507-0.086,2.426c-0.625,1.447-2.151,2.484-4.41,1.51l-2.703-1.167
			L96.724,17.566z M98.858,18.007c-0.139,0.322-0.094,0.38,0.442,0.613c1.589,0.686,2.552,0.248,3.312-1.513
			c0.779-1.803,0.418-2.763-1.17-3.449c-0.537-0.232-0.608-0.224-0.678-0.067L98.858,18.007z"/>
		<path fill="#E2B862" d="M105.86,21.813c0.853,0.473,0.904,0.475,1.065,0.29c0.195-0.238,0.58-0.835,1.325-1.994
			c0.745-1.158,1.129-1.756,1.266-2.033c0.102-0.224,0.078-0.271-0.707-0.849l0.205-0.318l2.588,1.665
			c1.062,0.681,1.405,1.225,1.603,2.003c0.176,0.691,0.061,1.537-0.48,2.376c-0.852,1.325-2.527,2.099-4.593,0.77l-2.477-1.592
			L105.86,21.813z M107.894,22.596c-0.189,0.295-0.156,0.359,0.334,0.676c1.453,0.935,2.477,0.661,3.514-0.952
			c1.061-1.65,0.861-2.655-0.592-3.589c-0.491-0.316-0.563-0.32-0.656-0.177L107.894,22.596z"/>
		<path fill="#E2B862" d="M111.958,25.806c0.75,0.533,0.802,0.541,0.981,0.376c0.224-0.214,0.674-0.764,1.547-1.828
			s1.324-1.614,1.49-1.874c0.125-0.211,0.107-0.26-0.562-0.891l0.238-0.292l2.875,2.357c0.438,0.359,0.918,0.683,1.259,0.892
			c-0.269,0.34-0.829,1.194-0.935,1.422l-0.359-0.214c0.508-1.073,0.422-1.295-0.645-2.168l-0.688-0.565
			c-0.098-0.08-0.174-0.072-0.253,0.025l-1.284,1.565c-0.074,0.09-0.082,0.143,0.142,0.325l0.215,0.177
			c0.836,0.685,0.981,0.606,1.457,0.182l0.334,0.274c-0.193,0.224-0.385,0.428-0.66,0.762c-0.229,0.278-0.465,0.596-0.616,0.796
			l-0.343-0.279c0.363-0.541,0.363-0.739-0.234-1.23l-0.528-0.434c-0.092-0.074-0.162-0.086-0.242,0.011l-1.433,1.747
			c-0.08,0.097-0.073,0.173,0.025,0.253l1.308,1.073c0.612,0.502,0.896,0.48,1.422,0.154l0.547-0.342l0.28,0.381
			c-0.397,0.301-1.026,0.869-1.286,1.156l-4.291-3.521L111.958,25.806z"/>
		<path fill="#E2B862" d="M118.83,29.427c-0.557,0.947-0.725,1.799-0.044,2.481c0.696,0.702,1.456,0.659,1.856,0.259
			c0.414-0.413,0.23-0.878-0.065-1.483l-0.336-0.656c-0.761-1.516-0.491-2.024,0.006-2.52c0.815-0.813,2.044-0.676,3.021,0.306
			c0.481,0.485,0.83,0.976,1.084,1.396c-0.076,0.076-0.197,0.184-0.287,0.273c-0.306,0.305-0.586,0.622-0.873,0.959l-0.299-0.3
			c0.67-0.883,0.559-1.532-0.045-2.138c-0.553-0.555-1.31-0.64-1.718-0.233c-0.28,0.279-0.325,0.617-0.022,1.241l0.686,1.427
			c0.437,0.923,0.365,1.528-0.241,2.131c-0.848,0.844-2.063,0.657-3.091-0.376c-0.47-0.472-0.761-1.147-1.211-1.6
			c0.318-0.33,0.849-0.946,1.22-1.416L118.83,29.427z"/>
		<path fill="#E2B862" d="M121.121,34.218c0.678,0.699,0.732,0.723,0.937,0.586c0.256-0.171,0.797-0.631,1.846-1.523
			c1.049-0.892,1.591-1.354,1.8-1.578c0.167-0.178,0.151-0.236-0.431-1.017l0.289-0.245l2.086,2.453l-0.289,0.245
			c-0.678-0.699-0.731-0.723-0.936-0.586c-0.256,0.171-0.797,0.631-1.846,1.523c-1.05,0.892-1.591,1.353-1.8,1.578
			c-0.168,0.178-0.152,0.236,0.43,1.017l-0.288,0.245l-2.087-2.453L121.121,34.218z"/>
		<path fill="#E2B862" d="M127.729,40.185c0.117-0.083,0.099-0.157-0.179-0.58l-0.302-0.459l0.309-0.218l1.613,2.287l-0.267,0.187
			c-0.366-0.49-0.413-0.479-0.736-0.25c-0.436,0.306-0.793,0.593-1.161,0.853c-0.47-0.308-1.26-1.006-1.695-1.624
			c-1.192-1.692-1.19-3.203,0.75-4.572c1.119-0.789,3.158-1.159,4.657,0.966c0.4,0.566,0.779,1.213,1.029,1.708
			c-0.265,0.187-0.52,0.356-0.747,0.517c-0.19,0.135-0.479,0.37-0.697,0.558l-0.228-0.324c0.585-0.732,0.717-1.607,0.125-2.445
			c-0.82-1.162-2.199-0.916-3.523,0.018c-1.132,0.799-1.973,1.965-1.102,3.201c0.315,0.449,0.659,0.734,1.069,0.94L127.729,40.185z"
			/>
		<path fill="#E2B862" d="M127.837,43.129c0.467,0.73,0.518,0.765,0.743,0.673c0.287-0.114,0.912-0.453,2.124-1.108
			c1.212-0.656,1.837-0.995,2.089-1.172c0.201-0.14,0.199-0.2-0.157-0.99l0.333-0.18l0.884,1.631
			c-0.068,0.099-0.134,0.246-0.229,0.431l-2.257,4.417l0.008,0.016l1.22-0.66c1.211-0.656,1.838-0.995,2.09-1.172
			c0.2-0.139,0.198-0.2-0.209-1.085l0.334-0.18l1.213,2.241l-0.334,0.18c-0.397-0.737-0.477-0.787-0.924-0.574
			c-0.426,0.199-0.925,0.449-1.345,0.676c-1.528,0.828-2.799,1.526-3.396,1.92l-0.309-0.57c0.438-0.667,0.743-1.201,1.102-1.938
			l1.703-3.42l-0.008-0.016l-1.584,0.857c-1.212,0.656-1.838,0.995-2.09,1.172c-0.201,0.139-0.199,0.2,0.264,1.188l-0.332,0.18
			l-1.266-2.336L127.837,43.129z"/>
		<path fill="#E2B862" d="M132.317,52.061c0.363,0.844,0.404,0.878,0.646,0.831c0.3-0.068,0.97-0.304,2.269-0.762
			s1.97-0.694,2.246-0.829c0.217-0.115,0.229-0.167-0.019-1.053l0.355-0.125l1.096,3.105c0.229,0.653,0.251,1.199,0.07,1.664
			c-0.146,0.395-0.438,0.707-0.888,0.866c-1.171,0.413-2.036-0.446-2.567-1.956c-0.082-0.229-0.15-0.481-0.191-0.6l-2.011,0.709
			c-0.229,0.081-0.229,0.166,0.06,1.171l-0.356,0.125l-1.063-3.021L132.317,52.061z M135.74,53.058
			c0.037,0.139,0.074,0.269,0.123,0.405c0.3,0.849,0.729,1.583,1.851,1.189c1.053-0.371,0.962-1.112,0.637-2.037
			c-0.138-0.39-0.201-0.406-0.354-0.353L135.74,53.058z"/>
		<path fill="#E2B862" d="M134.388,57.968c0.27,0.88,0.307,0.927,0.551,0.898c0.307-0.034,1-0.194,2.342-0.504
			c1.343-0.31,2.035-0.471,2.326-0.575c0.23-0.081,0.244-0.14,0.101-1.049l0.368-0.085l0.783,3.387
			c0.162,0.702,0.148,1.084-0.006,1.499c-0.152,0.415-0.48,0.712-1.009,0.834c-1.272,0.294-1.837-1.11-1.915-1.091
			c-0.045,0.01-0.091,0.048-0.185,0.163l-1.532,1.889c-0.388,0.478-0.447,0.584-0.346,1.023l-0.368,0.085l-0.348-1.5l2.273-2.597
			c0.072-0.09,0.075-0.156-0.01-0.524c-0.083-0.36-0.101-0.393-0.188-0.373c-1.563,0.361-1.806,0.427-2.037,0.508
			c-0.229,0.081-0.244,0.14-0.099,1.049l-0.368,0.085l-0.703-3.036L134.388,57.968z M137.944,59.28
			c-0.156,0.037-0.196,0.063-0.064,0.635c0.313,1.36,1.104,1.455,1.595,1.341c0.711-0.164,1.082-0.841,0.858-1.807
			c-0.147-0.64-0.186-0.678-0.403-0.627L137.944,59.28z"/>
		<path fill="#E2B862" d="M142.211,67.049c0.195,1.654-0.96,3.087-2.882,3.313c-1.922,0.227-3.378-0.898-3.573-2.553
			c-0.194-1.655,0.96-3.086,2.882-3.313C140.562,64.271,142.017,65.395,142.211,67.049z M136.185,67.759
			c0.112,0.957,1.111,1.664,3.008,1.441c1.896-0.224,2.703-1.144,2.591-2.1c-0.112-0.957-1.111-1.664-3.009-1.441
			C136.879,65.882,136.071,66.802,136.185,67.759z"/>
		<path fill="#E2B862" d="M136.656,71.726c0.078,0.917,0.105,0.961,0.35,0.994c0.308,0.04,1.019,0.021,2.396-0.005
			c1.377-0.023,2.09-0.035,2.396-0.076c0.242-0.041,0.27-0.086,0.315-1.005l0.379-0.006l0.063,3.718
			c0.008,0.567,0.072,1.143,0.133,1.538c-0.432,0.018-1.445,0.143-1.688,0.209l-0.069-0.412c1.146-0.309,1.26-0.518,1.237-1.895
			l-0.016-0.892c-0.002-0.126-0.057-0.179-0.184-0.177l-2.025,0.034c-0.116,0.002-0.161,0.03-0.156,0.318l0.005,0.279
			c0.02,1.08,0.172,1.141,0.805,1.229l0.006,0.432c-0.297-0.004-0.576-0.018-1.009-0.01c-0.36,0.006-0.756,0.031-1.008,0.044
			l-0.007-0.44c0.646-0.074,0.798-0.204,0.784-0.978l-0.012-0.685c-0.002-0.117-0.039-0.179-0.164-0.177l-2.162,0.037
			c-0.241,0.004-0.269,0.086-0.313,1.194L136.333,75l-0.056-3.268L136.656,71.726z"/>
		<path fill="#E2B862" d="M136.706,77.969c-0.025,0.919-0.003,0.968,0.233,1.026c0.303,0.064,1.011,0.134,2.379,0.268
			c1.371,0.133,2.078,0.202,2.388,0.195c0.245-0.012,0.274-0.055,0.428-0.961l0.376,0.037l-0.358,3.699
			c-0.055,0.563-0.058,1.143-0.041,1.541c-0.432-0.032-1.453-0.023-1.701,0.017l-0.022-0.418c1.174-0.175,1.311-0.37,1.444-1.74
			l0.086-0.887c0.013-0.125-0.036-0.185-0.162-0.196l-2.016-0.195c-0.116-0.012-0.163,0.011-0.191,0.297l-0.026,0.277
			c-0.104,1.075,0.041,1.152,0.658,1.313l-0.041,0.43c-0.295-0.038-0.57-0.083-1-0.124c-0.359-0.035-0.755-0.055-1.007-0.071
			l0.043-0.438c0.651,0,0.814-0.111,0.89-0.881l0.066-0.682c0.012-0.115-0.021-0.183-0.146-0.194l-2.248-0.218
			c-0.125-0.013-0.184,0.037-0.195,0.162l-0.164,1.684c-0.077,0.788,0.101,1.013,0.664,1.267l0.589,0.265l-0.16,0.445
			c-0.473-0.164-1.294-0.369-1.678-0.425l0.537-5.526L136.706,77.969z"/>
		<path fill="#E2B862" d="M137.517,85.683c-1.097,0.063-1.897,0.396-2.09,1.34c-0.195,0.97,0.26,1.576,0.815,1.688
			c0.572,0.116,0.857-0.294,1.195-0.878l0.36-0.643c0.841-1.474,1.412-1.532,2.101-1.394c1.129,0.229,1.695,1.326,1.42,2.685
			c-0.135,0.67-0.35,1.232-0.559,1.677c-0.107-0.021-0.264-0.063-0.387-0.087c-0.423-0.086-0.844-0.144-1.283-0.195l0.084-0.415
			c1.105,0.067,1.584-0.386,1.754-1.224c0.154-0.769-0.195-1.444-0.76-1.56c-0.389-0.079-0.693,0.071-1.044,0.671l-0.809,1.36
			c-0.525,0.875-1.067,1.151-1.905,0.981c-1.175-0.236-1.691-1.352-1.402-2.78c0.133-0.652,0.532-1.269,0.659-1.896
			c0.452,0.082,1.258,0.18,1.854,0.229L137.517,85.683z"/>
		<path fill="#E2B862" d="M136.237,91.469c-1.096-0.041-1.926,0.216-2.203,1.136c-0.287,0.947,0.107,1.594,0.65,1.758
			c0.56,0.169,0.881-0.213,1.272-0.76l0.418-0.606c0.976-1.388,1.549-1.392,2.222-1.188c1.103,0.334,1.563,1.479,1.16,2.805
			c-0.197,0.654-0.465,1.193-0.715,1.615c-0.104-0.03-0.255-0.086-0.376-0.123c-0.413-0.125-0.825-0.222-1.257-0.315l0.123-0.403
			c1.094,0.173,1.61-0.235,1.858-1.052c0.229-0.749-0.057-1.455-0.605-1.622c-0.381-0.114-0.697,0.005-1.104,0.567l-0.933,1.277
			c-0.606,0.822-1.172,1.045-1.99,0.797c-1.146-0.347-1.555-1.504-1.132-2.898c0.192-0.637,0.647-1.213,0.835-1.824
			c0.439,0.125,1.232,0.299,1.823,0.402L136.237,91.469z"/>
		<path fill="#E2B862" d="M133.104,95.765c-0.297,0.928-0.291,0.988-0.074,1.102c0.271,0.146,0.935,0.404,2.216,0.906
			c1.28,0.502,1.942,0.762,2.241,0.838c0.236,0.063,0.281,0.023,0.693-0.857l0.353,0.138l-1.175,3l-0.353-0.14
			c0.296-0.928,0.291-0.987,0.074-1.102c-0.271-0.146-0.934-0.404-2.215-0.906c-1.282-0.502-1.943-0.762-2.242-0.84
			c-0.235-0.063-0.281-0.021-0.694,0.859l-0.352-0.139l1.174-3L133.104,95.765z"/>
		<path fill="#E2B862" d="M135.61,104.983c-0.746,1.488-2.496,2.05-4.226,1.183c-1.73-0.865-2.327-2.604-1.581-4.092
			c0.744-1.486,2.495-2.05,4.223-1.183C135.757,101.757,136.354,103.496,135.61,104.983z M130.19,102.269
			c-0.432,0.859,0.016,1.998,1.72,2.854c1.702,0.854,2.883,0.527,3.313-0.332c0.43-0.858-0.016-1.998-1.72-2.854
			C131.8,101.083,130.621,101.408,130.19,102.269z"/>
		<path fill="#E2B862" d="M128.416,105.901c-0.424,0.755-0.432,0.813-0.243,0.972c0.235,0.199,0.829,0.59,1.977,1.35
			c1.149,0.76,1.742,1.15,2.019,1.289c0.217,0.111,0.27,0.082,0.798-0.604l0.315,0.207l-1.022,1.547
			c-0.12-0.015-0.278-0.002-0.485,0.002l-4.957,0.09l-0.01,0.016l1.156,0.766c1.147,0.758,1.742,1.148,2.018,1.289
			c0.218,0.109,0.271,0.08,0.857-0.695l0.313,0.207l-1.402,2.125l-0.315-0.207c0.461-0.698,0.469-0.791,0.07-1.086
			c-0.376-0.28-0.831-0.604-1.229-0.867c-1.448-0.957-2.664-1.747-3.291-2.086l0.356-0.541c0.794,0.072,1.408,0.089,2.226,0.058
			l3.815-0.11l0.011-0.015l-1.502-0.991c-1.146-0.759-1.742-1.15-2.017-1.289c-0.219-0.111-0.271-0.082-0.922,0.793l-0.315-0.209
			l1.463-2.216L128.416,105.901z"/>
		<path fill="#E2B862" d="M124.69,111.531c-0.414,0.567-0.321,0.809,0.062,1.516l1.979,3.656c0.338,0.623,0.422,0.774,0.613,1.063
			l-0.3,0.358c-0.243-0.145-0.727-0.324-1.022-0.418l-4.459-1.389c-0.592-0.188-0.707-0.203-1.186,0.383l-0.291-0.242l1.967-2.356
			l0.291,0.241c-0.549,0.716-0.533,0.822-0.359,0.968c0.139,0.114,1.146,0.453,1.265,0.479c0.052,0.008,0.089-0.008,0.13-0.045
			c0.165-0.154,0.474-0.496,1.049-1.188c0.364-0.438,0.347-0.484,0.253-0.668c-0.283-0.52-0.55-0.93-0.619-0.986
			c-0.207-0.174-0.317-0.139-0.916,0.479l-0.291-0.241l1.547-1.853L124.69,111.531z M123.89,115.878
			c-0.053,0.063-0.049,0.102-0.029,0.119c0.035,0.028,0.136,0.063,0.188,0.084l2.256,0.77l-1.173-2.15
			c-0.03-0.063-0.054-0.104-0.082-0.127s-0.069,0-0.104,0.043L123.89,115.878z"/>
		<path fill="#E2B862" d="M119.931,117.13c-0.617,0.682-0.638,0.738-0.488,0.934c0.188,0.246,0.681,0.758,1.635,1.75
			c0.955,0.992,1.447,1.504,1.687,1.699c0.188,0.156,0.245,0.139,0.95-0.453l0.263,0.271l-2.244,2.16l-0.263-0.273
			c0.618-0.682,0.638-0.738,0.489-0.932c-0.118-0.149-0.474-0.545-0.769-0.851l-2.459-2.556c-0.211-0.219-0.326-0.209-0.541-0.004
			l-0.797,0.769c-0.674,0.649-0.598,0.951-0.131,2.213l-0.397,0.209c-0.142-0.303-0.769-1.161-1.062-1.491l3.865-3.72
			L119.931,117.13z"/>
	</g>
	<g display="inline">
		<circle fill="none" cx="76.06" cy="75.297" r="66.635"/>
		<path fill="#E2B862" d="M54.945,138.06c1.166,0.271,1.239,0.258,1.357-0.018c0.151-0.349,0.405-1.185,0.895-2.805
			c0.49-1.619,0.743-2.457,0.811-2.83c0.055-0.295,0.001-0.347-1.12-0.767l0.134-0.445l3.792,1.146l-0.135,0.445
			c-1.166-0.271-1.239-0.26-1.357,0.019c-0.15,0.346-0.404,1.185-0.895,2.803c-0.49,1.621-0.743,2.457-0.81,2.83
			c-0.056,0.295,0,0.347,1.12,0.769l-0.135,0.444l-3.791-1.147L54.945,138.06z"/>
		<path fill="#E2B862" d="M62.977,140.302c1.195,0.085,1.254,0.061,1.339-0.229c0.096-0.367,0.213-1.234,0.441-2.912
			c0.229-1.68,0.347-2.545,0.354-2.926c-0.003-0.301-0.054-0.342-1.229-0.58l0.063-0.461l3.752,0.512
			c1.536,0.209,2.205,0.637,2.826,1.402c0.557,0.68,0.866,1.682,0.7,2.898c-0.261,1.92-1.727,3.654-4.722,3.246l-3.587-0.488
			L62.977,140.302z M65.65,140.121c-0.059,0.428,0.013,0.481,0.727,0.58c2.105,0.286,3.103-0.55,3.422-2.888
			c0.326-2.392-0.418-3.408-2.525-3.694c-0.713-0.099-0.796-0.064-0.823,0.145L65.65,140.121z"/>
		<path fill="#E2B862" d="M75.61,141.589c1.191-0.141,1.244-0.178,1.272-0.479c0.024-0.377-0.022-1.252-0.114-2.943
			c-0.09-1.69-0.138-2.565-0.201-2.938c-0.062-0.297-0.117-0.326-1.315-0.34l-0.025-0.466l3.783-0.203
			c1.549-0.083,2.286,0.21,3.041,0.847c0.674,0.563,1.167,1.49,1.233,2.718c0.104,1.937-1.012,3.916-4.03,4.077l-3.618,0.195
			L75.61,141.589z M78.204,140.908c0.022,0.432,0.104,0.471,0.821,0.432c2.123-0.113,2.945-1.123,2.818-3.479
			c-0.13-2.41-1.053-3.271-3.177-3.156c-0.719,0.039-0.794,0.086-0.783,0.297L78.204,140.908z"/>
		<path fill="#E2B862" d="M88.331,140.421c1.079-0.34,1.125-0.385,1.098-0.687c-0.045-0.377-0.25-1.228-0.646-2.872
			c-0.397-1.646-0.603-2.496-0.733-2.851c-0.112-0.281-0.174-0.3-1.29-0.111l-0.109-0.45l3.938-0.951
			c0.828-0.199,1.499-0.156,2.044,0.123c0.465,0.229,0.811,0.623,0.948,1.192c0.357,1.485-0.803,2.437-2.716,2.897
			c-0.291,0.07-0.607,0.123-0.759,0.16l0.615,2.549c0.069,0.291,0.174,0.3,1.44,0.074l0.107,0.453l-3.83,0.922L88.331,140.421z
			 M89.979,136.358c0.176-0.03,0.34-0.06,0.513-0.103c1.075-0.258,2.028-0.692,1.688-2.112c-0.322-1.334-1.24-1.317-2.412-1.035
			c-0.496,0.119-0.521,0.192-0.477,0.388L89.979,136.358z"/>
	</g>
	<g display="inline">
		<circle fill="#E2B862" cx="46.323" cy="133.491" r="1.472"/>
		<circle fill="#E2B862" cx="105.571" cy="133.491" r="1.472"/>
	</g>
	<g display="inline">
		<path fill="#E2B862" d="M53.743,102.919c0.006,0.002-1.266,0.918-1.455,1.908c-0.187,0.987,0.236,1.58,0.8,1.584
			c0.573,0.012,1.053-0.55,1.203-1.507C54.438,103.958,53.741,102.931,53.743,102.919z M57.32,106.763
			c0.005,0.002-0.978,1.223-0.904,2.219c0.076,1,0.629,1.453,1.173,1.309c0.552-0.145,0.869-0.809,0.769-1.768
			C58.25,107.571,57.319,106.772,57.32,106.763z M55.411,104.972c-0.001,0-0.002-0.006-0.002-0.006
			c0.004,0.006-1.132,1.082-1.19,2.08c-0.035,0.625,0.145,1.068,0.421,1.293c0.163,0.135,0.366,0.191,0.577,0.166
			c0.566-0.066,0.969-0.685,0.994-1.648C56.23,105.897,55.408,104.979,55.411,104.972z M59.445,108.287
			c0.007,0-0.808,1.338-0.604,2.317c0.206,0.979,0.818,1.354,1.337,1.142c0.529-0.213,0.754-0.916,0.527-1.854
			C60.475,108.964,59.445,108.296,59.445,108.287z M49.971,100.435c-0.392-0.857-1.75-1.531-1.754-1.545s-0.643,1.428-0.195,2.416
			c0.438,0.979,1.142,1.242,1.657,0.963C50.2,101.985,50.367,101.31,49.971,100.435z M61.756,109.515
			c0.004,0-0.624,1.436-0.292,2.379c0.338,0.943,0.995,1.236,1.485,0.957c0.499-0.283,0.629-1.008,0.272-1.91
			C62.867,110.052,61.756,109.524,61.756,109.515z M52.353,100.632c0.004,0.002-1.38,0.74-1.694,1.703
			c-0.313,0.963,0.026,1.611,0.587,1.695c0.569,0.09,1.12-0.398,1.395-1.332C52.907,101.774,52.347,100.644,52.353,100.632z
			 M49.216,103.146c-1.003-0.277-2.413,0.367-2.414,0.371c-0.013,0.002,0.855,1.49,1.917,1.727c1.047,0.238,1.676-0.16,1.796-0.721
			C50.636,103.953,50.221,103.419,49.216,103.146z M50.97,105.824c-1.025-0.134-2.335,0.698-2.334,0.704
			c-0.011,0.005,1.036,1.339,2.113,1.425c1.065,0.09,1.636-0.392,1.684-0.959C52.477,106.417,51.999,105.953,50.97,105.824z
			 M55.406,110.291c-1.018,0.149-2.059,1.301-2.058,1.303c-0.011,0.008,1.335,1.006,2.393,0.801
			c1.046-0.197,1.469-0.811,1.368-1.369C57.001,110.457,56.424,110.14,55.406,110.291z M58.015,112.037
			c-0.987,0.28-1.867,1.561-1.864,1.563c-0.013,0.01,1.453,0.818,2.474,0.477c1.014-0.332,1.352-0.996,1.176-1.537
			C59.619,111.99,59.002,111.75,58.015,112.037z M53.044,108.212c-1.03,0.01-2.216,1.01-2.215,1.016l0.004,0.002
			c-0.014,0.006,1.193,1.18,2.271,1.115c1.064-0.055,1.565-0.607,1.538-1.176c-0.01-0.217-0.096-0.407-0.251-0.563
			C54.139,108.354,53.69,108.203,53.044,108.212z M64.217,110.431c0.007-0.002-0.426,1.504,0.034,2.396
			c0.464,0.889,1.162,1.096,1.611,0.752c0.461-0.347,0.491-1.084,0.014-1.929C65.399,110.813,64.219,110.438,64.217,110.431z
			 M60.837,113.421c-0.945,0.412-1.646,1.795-1.645,1.797c-0.009,0.01,1.554,0.621,2.523,0.146c0.963-0.462,1.209-1.166,0.962-1.681
			C62.425,113.166,61.78,113.007,60.837,113.421z M66.683,115.304c-0.604,0.723-0.843,1.885-0.84,1.885
			c-0.007,0.016,1.691,0.191,2.521-0.525c0.142-0.119,0.26-0.242,0.356-0.363c0.721-0.737,1.359-1.522,2.526-1.59
			c0.166-0.01,0.334-0.022,0.5-0.037c0.503-0.043,0.512-0.438,0.511-0.438c0.001-0.002-0.092-0.373-0.577-0.33
			c-0.159,0.012-0.322,0.023-0.48,0.033c-1.147,0.064-1.771-0.764-2.308-1.547c-0.071-0.129-0.157-0.262-0.26-0.395
			c-0.596-0.765-1.83-0.979-1.833-0.988c0.002,0-0.165,1.184,0.182,2.033c0.166,0.42,0.4,0.811,0.669,0.838
			c0.222,0.021,0.446,0.039,0.668,0.053c0.476,0.029,0.508,0.414,0.508,0.414s-0.064,0.385-0.558,0.355
			c-0.232-0.017-0.461-0.035-0.694-0.058C67.3,114.621,66.979,114.942,66.683,115.304z M63.832,114.423
			c-0.886,0.533-1.397,1.998-1.395,2.002c-0.01,0.01,1.632,0.408,2.539-0.189c0.899-0.586,1.049-1.316,0.731-1.793
			C65.384,113.96,64.716,113.892,63.832,114.423z"/>
		<path fill="#E2B862" d="M95.628,104.905c0.149,0.957,0.631,1.519,1.204,1.507c0.563-0.004,0.984-0.597,0.8-1.584
			c-0.189-0.988-1.46-1.906-1.455-1.908C96.181,102.931,95.483,103.958,95.628,104.905z M91.563,108.522
			c-0.102,0.959,0.217,1.623,0.771,1.767c0.544,0.146,1.098-0.31,1.173-1.308c0.072-0.996-0.909-2.217-0.905-2.219
			C92.603,106.772,91.67,107.571,91.563,108.522z M93.709,106.854c0.023,0.965,0.429,1.582,0.996,1.649
			c0.21,0.025,0.413-0.03,0.577-0.166c0.274-0.225,0.454-0.668,0.42-1.293c-0.06-0.998-1.194-2.076-1.189-2.08l-0.002,0.004
			C94.513,104.979,93.69,105.897,93.709,106.854z M89.215,109.892c-0.229,0.938-0.003,1.643,0.527,1.854
			c0.518,0.215,1.129-0.162,1.336-1.141c0.204-0.979-0.61-2.316-0.604-2.318C90.474,108.296,89.446,108.964,89.215,109.892z
			 M100.241,102.269c0.517,0.279,1.218,0.016,1.655-0.963c0.449-0.988-0.188-2.43-0.195-2.416c-0.002,0.014-1.359,0.688-1.751,1.545
			C99.554,101.31,99.722,101.985,100.241,102.269z M86.698,110.94c-0.357,0.901-0.226,1.627,0.272,1.91
			c0.488,0.28,1.146-0.015,1.483-0.957c0.332-0.944-0.296-2.379-0.291-2.379C88.164,109.524,87.054,110.052,86.698,110.94z
			 M97.28,102.699c0.275,0.936,0.826,1.424,1.396,1.334c0.561-0.084,0.901-0.732,0.588-1.697c-0.313-0.961-1.699-1.697-1.695-1.703
			C97.573,100.644,97.015,101.774,97.28,102.699z M99.403,104.521c0.121,0.563,0.75,0.959,1.798,0.721
			c1.063-0.234,1.931-1.723,1.918-1.727c0-0.004-1.411-0.648-2.415-0.369C99.699,103.419,99.285,103.953,99.403,104.521z
			 M97.49,106.996c0.046,0.567,0.615,1.047,1.681,0.957c1.078-0.084,2.125-1.418,2.112-1.423c0.001-0.008-1.311-0.838-2.334-0.706
			C97.921,105.953,97.442,106.417,97.49,106.996z M92.812,111.024c-0.102,0.56,0.322,1.172,1.369,1.369
			c1.057,0.205,2.402-0.793,2.391-0.8c0.003-0.004-1.037-1.153-2.057-1.303C93.497,110.14,92.919,110.457,92.812,111.024z
			 M90.119,112.539c-0.176,0.541,0.163,1.205,1.176,1.537c1.021,0.342,2.486-0.466,2.474-0.476c0.004-0.004-0.875-1.283-1.862-1.563
			C90.917,111.75,90.3,111.99,90.119,112.539z M95.528,108.606c-0.154,0.156-0.239,0.349-0.252,0.563
			c-0.025,0.568,0.476,1.121,1.539,1.177c1.076,0.063,2.283-1.109,2.271-1.117l0.003-0.002c0.003-0.006-1.185-1.004-2.214-1.015
			C96.229,108.203,95.78,108.354,95.528,108.606z M84.043,111.651c-0.479,0.845-0.446,1.582,0.013,1.929
			c0.45,0.344,1.149,0.137,1.613-0.752c0.459-0.894,0.024-2.398,0.033-2.396C85.701,110.438,84.521,110.813,84.043,111.651z
			 M87.24,113.687c-0.247,0.514,0,1.217,0.962,1.68c0.97,0.475,2.532-0.139,2.521-0.146c0.004-0.003-0.697-1.386-1.642-1.798
			C88.142,113.007,87.494,113.166,87.24,113.687z M82.345,114.647c-0.232,0.021-0.462,0.039-0.695,0.058
			c-0.49,0.028-0.557-0.355-0.557-0.355s0.033-0.385,0.506-0.414c0.226-0.016,0.448-0.033,0.672-0.055
			c0.269-0.025,0.502-0.416,0.668-0.838c0.348-0.851,0.18-2.029,0.183-2.031c-0.003,0.01-1.237,0.225-1.834,0.988
			c-0.103,0.133-0.188,0.266-0.261,0.395c-0.533,0.781-1.158,1.611-2.307,1.545c-0.158-0.008-0.322-0.021-0.482-0.031
			c-0.483-0.045-0.575,0.326-0.574,0.328c-0.001,0,0.008,0.395,0.511,0.438c0.167,0.017,0.334,0.027,0.5,0.037
			c1.167,0.066,1.807,0.854,2.526,1.59c0.098,0.123,0.214,0.244,0.355,0.365c0.829,0.717,2.527,0.539,2.521,0.525
			c0.004-0.002-0.235-1.164-0.84-1.885C82.94,114.942,82.62,114.621,82.345,114.647z M84.211,114.442
			c-0.317,0.478-0.168,1.209,0.73,1.793c0.908,0.599,2.55,0.199,2.539,0.188c0.004-0.004-0.508-1.467-1.394-2
			C85.203,113.892,84.536,113.96,84.211,114.442z"/>
		<path fill="#E2B862" d="M75.414,115.083l-0.525-0.254c-0.271-0.131-6.758-3.316-14.638-11.816
			c-7.231-7.8-17.033-21.755-22.666-43.948l-0.389-1.528l1.567,0.172c1.055,0.116,2.094,0.174,3.091,0.174
			c8.572,0,13.79-4.2,18.834-8.261c4.458-3.588,8.667-6.977,14.674-6.977c6.008,0,10.217,3.389,14.673,6.977
			c5.044,4.062,10.262,8.261,18.836,8.261c0.998,0,2.038-0.059,3.09-0.174l1.535-0.169l-0.352,1.504
			c-4.711,20.287-14.562,34.35-21.994,42.573c-8.071,8.93-14.946,13.004-15.235,13.172L75.414,115.083z M40.095,60.017
			c9.896,37.105,31.585,50.541,35.225,52.564c3.732-2.412,26.904-18.564,35.347-52.566c-0.606,0.037-1.206,0.056-1.792,0.056
			c-9.349,0-15.117-4.646-20.208-8.745c-4.328-3.483-8.065-6.493-13.301-6.493c-5.237,0-8.975,3.01-13.303,6.493
			C56.972,55.425,51.2,60.07,41.856,60.07C41.28,60.07,40.691,60.052,40.095,60.017z"/>
		<path fill="#E2B862" d="M75.202,108.667l-0.459-0.291c-2.93-1.846-7.536-6.504-10.887-10.086
			c-5.688-6.084-13.604-16.924-19.013-34.01l-0.298-0.941l0.979-0.12c8.421-1.035,14.093-5.6,18.649-9.269
			c4.427-3.563,7.336-5.748,11.188-5.748c3.854,0,6.762,2.184,11.188,5.748c4.576,3.684,10.271,8.271,18.747,9.281l0.976,0.117
			l-0.289,0.939c-3.832,12.463-10.094,23.494-18.609,32.782c-5.104,5.565-9.27,9.576-11.727,11.289L75.202,108.667z M46.706,64.709
			c5.304,16.261,12.88,26.61,18.35,32.46c4.33,4.631,7.885,7.977,10.104,9.516c2.394-1.795,6.355-5.656,11.006-10.727
			c8.14-8.877,14.181-19.381,17.963-31.231c-8.399-1.283-14.041-5.824-18.606-9.5c-4.146-3.338-6.854-5.386-10.156-5.386
			c-3.304,0-6.014,2.047-10.161,5.386C60.66,58.886,55.047,63.404,46.706,64.709z"/>
		<g>
			<polygon fill="#E2B862" points="75.364,35.798 76.134,38.052 78.515,38.086 76.608,39.515 77.312,41.79 75.364,40.418 
				73.417,41.79 74.12,39.515 72.214,38.086 74.595,38.052 			"/>
			<g>
				<polygon fill="#E2B862" points="92.825,43.245 92.867,44.832 94.375,45.328 92.879,45.857 92.873,47.445 91.907,46.186 
					90.396,46.671 91.295,45.362 90.365,44.075 91.888,44.526 				"/>
				<polygon fill="#E2B862" points="57.903,43.021 57.862,44.608 56.354,45.104 57.851,45.633 57.855,47.221 58.822,45.961 
					60.333,46.447 59.435,45.138 60.365,43.851 58.841,44.302 				"/>
			</g>
			<g>
				<polygon fill="#E2B862" points="85.446,38.689 85.694,40.476 87.46,40.845 85.838,41.633 86.034,43.427 84.782,42.126 
					83.136,42.866 83.987,41.274 82.774,39.938 84.551,40.255 				"/>
				<polygon fill="#E2B862" points="65.381,38.689 65.135,40.476 63.368,40.845 64.991,41.633 64.796,43.427 66.047,42.126 
					67.693,42.866 66.842,41.274 68.054,39.938 66.278,40.255 				"/>
			</g>
		</g>
		<g>
			<path fill="#E2B862" d="M107.442,54.97c-4.739,0-9.637-2.646-12.582-5.848l1.207-1.111c3.219,3.495,9.297,6.404,14.226,4.912
				c1.979-0.599,3.358-2.199,3.69-4.281c0.305-1.902-0.361-3.681-1.735-4.644c-2.683-1.877-5.234-1.034-6.474,0.545
				c-0.858,1.096-1.162,2.698,0.104,3.805c0.677,0.591,1.506,0.519,2.03,0.185c0.243-0.155,0.786-0.615,0.526-1.5l1.576-0.46
				c0.389,1.333-0.078,2.615-1.222,3.344c-1.248,0.797-2.854,0.663-3.994-0.334c-1.768-1.547-1.896-4.037-0.313-6.053
				c1.699-2.167,5.147-3.366,8.705-0.876c1.895,1.325,2.818,3.718,2.416,6.246c-0.429,2.676-2.281,4.819-4.836,5.594
				C109.688,54.821,108.569,54.97,107.442,54.97z"/>
			<path fill="#E2B862" d="M108.115,49.387c-0.235,0-0.471-0.035-0.695-0.104c-0.608-0.185-1.108-0.596-1.407-1.159
				c-0.3-0.563-0.363-1.208-0.177-1.816c0.302-0.994,1.239-1.689,2.28-1.689c0.233,0,0.469,0.035,0.692,0.104
				c1.258,0.383,1.969,1.717,1.586,2.974C110.088,48.708,109.171,49.387,108.115,49.387z M108.116,46.259
				c-0.324,0-0.616,0.216-0.712,0.526c-0.057,0.191-0.037,0.392,0.057,0.568c0.093,0.175,0.249,0.304,0.438,0.361
				c0.39,0.118,0.813-0.115,0.93-0.495c0.117-0.391-0.104-0.807-0.496-0.926C108.26,46.27,108.188,46.259,108.116,46.259z"/>
		</g>
		<path fill="#E2B862" d="M43.385,54.97c-1.126,0.001-2.243-0.149-3.325-0.476c-2.556-0.775-4.409-2.918-4.835-5.594
			c-0.404-2.527,0.521-4.92,2.415-6.246c3.557-2.49,7.005-1.292,8.705,0.876c1.582,2.016,1.452,4.505-0.313,6.052
			c-1.141,0.998-2.744,1.132-3.994,0.335c-1.144-0.729-1.61-2.011-1.222-3.344l1.576,0.46c-0.259,0.885,0.283,1.345,0.528,1.5
			c0.521,0.333,1.354,0.405,2.03-0.186c1.264-1.107,0.963-2.708,0.104-3.805c-1.238-1.578-3.79-2.422-6.472-0.545
			c-1.375,0.963-2.04,2.742-1.736,4.644c0.332,2.083,1.712,3.683,3.691,4.282c4.928,1.494,11.007-1.416,14.226-4.912l1.207,1.111
			C53.024,52.322,48.126,54.97,43.385,54.97z"/>
		<circle fill="#E2B862" cx="42.713" cy="47.003" r="1.564"/>
		<g>
			<circle fill="#E2B862" cx="43.894" cy="92.167" r="1.563"/>
			<circle fill="#E2B862" cx="106.837" cy="92.167" r="1.563"/>
		</g>
		<polygon fill="#E2B862" points="78.394,55 71.916,55 68.029,64 82.28,64 		"/>
		<path fill="#E2B862" d="M77.349,71c0.644-2,1.045-1.993,1.045-2.935c0-0.545-0.137-2.065-0.375-2.065h-5.728
			c-0.239,0-0.376,1.52-0.376,2.065c0,0.942,0.402,0.935,1.045,2.935H61.748v19h5v-2h17v2h4V71H77.349z M84.748,86h-19v-8h19V86z
			 M84.748,76h-19v-4h19V76z"/>
	</g>
</g>
<g id="Layer_2">
	<g>
		<path d="M95.361,10.809c-46.867,0-84.998,38.132-84.998,85.003c0,46.867,38.131,84.998,84.998,84.998
			c46.872,0,85.003-38.129,85.003-84.998C180.364,48.94,142.233,10.809,95.361,10.809z M95.361,179.67
			c-46.237,0-83.857-37.621-83.857-83.858c0-46.243,37.62-83.861,83.857-83.861c46.243,0,83.861,37.621,83.861,83.861
			C179.223,142.049,141.604,179.67,95.361,179.67z"/>
		<path d="M95.361,12.698c-45.826,0-83.108,37.286-83.108,83.114s37.283,83.111,83.108,83.111c45.83,0,83.112-37.285,83.112-83.111
			C178.474,49.984,141.191,12.698,95.361,12.698z M95.361,176.64c-44.566,0-80.826-36.26-80.826-80.828
			c0-44.57,36.26-80.831,80.826-80.831c44.57,0,80.829,36.26,80.829,80.831C176.19,140.38,139.931,176.64,95.361,176.64z"/>
		<path d="M95.361,31.745c-35.324,0-64.065,28.74-64.065,64.068c0,35.324,28.74,64.066,64.065,64.066
			c35.328,0,64.069-28.742,64.069-64.066C159.43,60.485,130.689,31.745,95.361,31.745z M95.361,158.736
			c-34.696,0-62.924-28.228-62.924-62.924c0-34.698,28.229-62.927,62.924-62.927c34.698,0,62.929,28.229,62.929,62.927
			C158.289,130.508,130.059,158.736,95.361,158.736z"/>
		<path d="M95.361,34.031c-34.064,0-61.777,27.716-61.777,61.782c0,34.065,27.712,61.78,61.777,61.78
			c34.068,0,61.78-27.715,61.78-61.78C157.142,61.746,129.43,34.031,95.361,34.031z M95.361,156.453
			c-33.436,0-60.636-27.203-60.636-60.641c0-33.438,27.203-60.641,60.636-60.641c33.438,0,60.643,27.203,60.643,60.641
			S128.798,156.453,95.361,156.453z"/>
		<path d="M29.784,117.11l0.075,0.22c0.05,0.144,0.062,0.292,0.034,0.445c-0.02,0.112-0.063,0.197-0.128,0.254
			c-0.084,0.072-0.281,0.165-0.587,0.269l-3.921,1.361c-0.364,0.128-0.607,0.168-0.728,0.128c-0.185-0.063-0.319-0.217-0.407-0.468
			l-0.076-0.218l-0.165,0.056l0.903,2.603l0.165-0.058l-0.074-0.216c-0.051-0.143-0.062-0.292-0.034-0.449
			c0.02-0.111,0.063-0.195,0.127-0.252c0.085-0.071,0.281-0.16,0.589-0.267l3.921-1.361c0.365-0.125,0.606-0.169,0.727-0.132
			c0.186,0.065,0.322,0.219,0.408,0.471l0.074,0.215l0.166-0.06l-0.902-2.599L29.784,117.11z"/>
		<path d="M23.98,116.7l4.324-1.116c0.348-0.09,0.58-0.113,0.696-0.072c0.188,0.07,0.314,0.238,0.383,0.502l0.056,0.216l0.169-0.046
			l-0.558-2.164l-0.17,0.044l0.057,0.219c0.063,0.242,0.046,0.439-0.053,0.588c-0.074,0.107-0.302,0.209-0.684,0.31l-3.83,0.986
			l3.951-5.392l-0.042-0.168l-5.242,1.354c-0.351,0.088-0.582,0.112-0.697,0.07c-0.188-0.07-0.313-0.237-0.382-0.5l-0.056-0.221
			l-0.17,0.044l0.559,2.163l0.169-0.042l-0.056-0.217c-0.063-0.242-0.044-0.437,0.056-0.584c0.073-0.109,0.3-0.214,0.682-0.313
			l3.588-0.926l-3.685,5.008l0.434,1.686l0.169-0.044c-0.047-0.179-0.067-0.317-0.063-0.413c0.011-0.194,0.039-0.348,0.083-0.457
			C23.713,117.104,23.815,116.932,23.98,116.7z"/>
		<path d="M22.926,109.479c-0.29,0.021-0.528-0.011-0.713-0.102c-0.188-0.089-0.322-0.211-0.407-0.363
			c-0.063-0.119-0.115-0.324-0.162-0.621l-0.117-0.765l4.852-0.741c0.356-0.056,0.588-0.056,0.7-0.001
			c0.181,0.088,0.29,0.266,0.33,0.534l0.036,0.224l0.172-0.023l-0.412-2.691l-0.173,0.024l0.033,0.219
			c0.038,0.247,0,0.438-0.113,0.58c-0.084,0.1-0.322,0.177-0.711,0.237l-4.851,0.741l-0.138-0.895
			c-0.039-0.261-0.029-0.479,0.033-0.654c0.061-0.174,0.176-0.324,0.341-0.448c0.102-0.077,0.284-0.152,0.541-0.226l-0.027-0.179
			l-1.479,0.3l0.79,5.182l1.502-0.152L22.926,109.479z"/>
		<path d="M20.658,102.855c-0.016-0.263,0.038-0.458,0.156-0.579c0.089-0.089,0.338-0.143,0.744-0.17l4.166-0.244
			c0.311-0.019,0.52-0.013,0.622,0.019c0.104,0.028,0.183,0.093,0.24,0.192c0.082,0.129,0.125,0.271,0.136,0.425l0.014,0.224
			l0.173-0.009l-0.292-4.944l-1.643-0.456l0.012,0.188c0.406,0.181,0.713,0.363,0.921,0.547c0.159,0.142,0.266,0.295,0.326,0.457
			c0.06,0.159,0.101,0.421,0.122,0.782l0.063,1.088c0.013,0.176,0,0.296-0.031,0.361c-0.033,0.065-0.08,0.113-0.14,0.142
			c-0.061,0.029-0.231,0.052-0.516,0.066l-2.113,0.128l-0.084-1.409c-0.017-0.269,0.003-0.469,0.059-0.604
			c0.054-0.129,0.135-0.228,0.243-0.292c0.084-0.05,0.283-0.104,0.593-0.167l-0.012-0.174l-2.233,0.132l0.011,0.174
			c0.369-0.002,0.628,0.073,0.784,0.229c0.118,0.118,0.187,0.357,0.209,0.726l0.082,1.406l-2.535,0.151l-0.103-1.76
			c-0.019-0.315-0.009-0.543,0.029-0.67c0.059-0.162,0.148-0.287,0.272-0.373c0.12-0.087,0.348-0.173,0.68-0.262l-0.01-0.183
			l-1.401,0.154l0.293,4.942l0.176-0.012L20.658,102.855z"/>
		<path d="M20.321,95.921c0.01-0.243,0.085-0.425,0.228-0.544c0.103-0.084,0.354-0.119,0.759-0.104l4.146,0.147
			c0.366,0.013,0.598,0.053,0.692,0.124c0.172,0.124,0.254,0.319,0.245,0.59l-0.009,0.243l0.176,0.006l0.097-2.749l-0.174-0.008
			l-0.009,0.251c-0.01,0.239-0.085,0.417-0.228,0.532c-0.102,0.087-0.355,0.122-0.758,0.106l-1.864-0.066
			c0.005-0.049,0.008-0.098,0.011-0.144c0.003-0.047,0.008-0.093,0.008-0.132c0.003-0.102,0.003-0.233,0.003-0.395l3.079-2.065
			l0.062-1.714l-0.171-0.008c-0.052,0.348-0.151,0.628-0.298,0.843c-0.146,0.212-0.437,0.464-0.869,0.751l-1.891,1.26
			c-0.1-0.544-0.289-0.948-0.572-1.217c-0.281-0.267-0.618-0.408-1.014-0.422c-0.369-0.014-0.691,0.088-0.965,0.304
			c-0.276,0.218-0.469,0.486-0.581,0.804c-0.109,0.321-0.179,0.822-0.202,1.502l-0.082,2.34l0.173,0.006L20.321,95.921z M21,92.614
			c0.259-0.242,0.59-0.356,0.991-0.34c0.41,0.015,0.741,0.183,0.996,0.502c0.254,0.32,0.37,0.788,0.346,1.4
			c-0.001,0.028-0.001,0.063-0.005,0.108c-0.002,0.045-0.007,0.096-0.007,0.157l-2.669-0.097c-0.049-0.316-0.071-0.563-0.063-0.748
			C20.602,93.182,20.74,92.857,21,92.614z"/>
		<path d="M20.694,88.517c0.084-0.175,0.17-0.305,0.251-0.393c0.081-0.084,0.244-0.205,0.485-0.358l4.424,0.619
			c0.357,0.049,0.58,0.117,0.671,0.199c0.147,0.134,0.203,0.341,0.164,0.612l-0.032,0.221l0.173,0.021l0.31-2.212l-0.174-0.023
			l-0.032,0.225c-0.034,0.247-0.124,0.422-0.272,0.521c-0.109,0.071-0.358,0.08-0.751,0.023l-3.916-0.546l5.71-3.478l0.022-0.169
			l-5.36-0.748c-0.357-0.052-0.58-0.117-0.671-0.2c-0.147-0.134-0.202-0.338-0.163-0.609l0.031-0.224l-0.173-0.023l-0.31,2.212
			l0.173,0.027l0.032-0.222c0.036-0.248,0.127-0.424,0.273-0.521c0.11-0.074,0.359-0.085,0.752-0.029l3.668,0.513l-5.315,3.22
			l-0.243,1.728l0.174,0.023C20.62,88.741,20.655,88.604,20.694,88.517z"/>
		<path d="M27.651,81.645c0.056,0.093,0.072,0.277,0.052,0.549l0.17,0.044l0.495-1.962l-0.169-0.042
			c-0.097,0.294-0.192,0.478-0.288,0.551c-0.093,0.072-0.19,0.094-0.284,0.072c-0.121-0.034-0.287-0.13-0.502-0.296l-0.877-0.671
			l0.609-2.409l0.991-0.149c0.322-0.049,0.549-0.056,0.685-0.022c0.101,0.024,0.175,0.091,0.225,0.196
			c0.048,0.104,0.047,0.283-0.002,0.533l0.169,0.043l0.62-2.457l-0.168-0.043c-0.081,0.25-0.2,0.431-0.361,0.542
			c-0.159,0.111-0.471,0.201-0.93,0.271l-5.729,0.859l-0.041,0.162l4.573,3.483C27.291,81.202,27.544,81.45,27.651,81.645z
			 M23.701,77.943l2.783-0.419l-0.541,2.14L23.701,77.943z"/>
		<path d="M24.927,74.057c-0.267-0.115-0.464-0.258-0.587-0.423c-0.122-0.167-0.187-0.337-0.189-0.512
			c-0.001-0.133,0.047-0.341,0.147-0.625l0.252-0.73l4.637,1.605c0.339,0.119,0.546,0.227,0.619,0.326
			c0.119,0.161,0.132,0.371,0.045,0.625l-0.074,0.216l0.167,0.057l0.89-2.574l-0.166-0.057l-0.071,0.21
			c-0.083,0.237-0.207,0.388-0.37,0.46c-0.12,0.047-0.367,0.007-0.741-0.121L24.85,70.91l0.295-0.856
			c0.086-0.25,0.198-0.439,0.333-0.564c0.135-0.124,0.306-0.205,0.51-0.235c0.127-0.02,0.322-0.002,0.584,0.051l0.058-0.17
			l-1.447-0.425l-1.714,4.953l1.398,0.566L24.927,74.057z"/>
		<path d="M31.593,69.602l-0.089,0.21l0.16,0.069l1.091-2.526l-0.161-0.07L32.5,67.5c-0.06,0.139-0.152,0.255-0.276,0.35
			c-0.091,0.072-0.18,0.106-0.265,0.104c-0.112-0.004-0.318-0.07-0.617-0.201l-3.811-1.64c-0.354-0.152-0.562-0.285-0.622-0.397
			c-0.095-0.172-0.091-0.379,0.015-0.62l0.09-0.213l-0.16-0.07l-1.09,2.525l0.161,0.07l0.092-0.208
			c0.059-0.141,0.151-0.259,0.277-0.358c0.091-0.067,0.179-0.1,0.263-0.096c0.114,0.003,0.32,0.07,0.618,0.197l3.81,1.643
			c0.354,0.153,0.563,0.284,0.625,0.394C31.704,69.15,31.698,69.36,31.593,69.602z"/>
		<path d="M30.281,64.865c0.882,0.468,1.74,0.584,2.578,0.348c0.836-0.235,1.463-0.745,1.877-1.525
			c0.414-0.771,0.477-1.58,0.197-2.427c-0.279-0.847-0.85-1.5-1.712-1.957c-0.835-0.445-1.676-0.545-2.524-0.303
			c-0.844,0.243-1.462,0.731-1.855,1.468c-0.395,0.741-0.485,1.51-0.276,2.306C28.808,63.69,29.38,64.388,30.281,64.865z
			 M29.105,60.709c0.289-0.541,0.704-0.862,1.243-0.97c0.68-0.13,1.506,0.064,2.478,0.581c0.894,0.477,1.458,0.998,1.688,1.566
			c0.232,0.567,0.207,1.117-0.077,1.65c-0.266,0.501-0.669,0.801-1.209,0.904c-0.709,0.132-1.526-0.05-2.453-0.542
			c-0.903-0.48-1.488-1.035-1.753-1.667C28.807,61.724,28.836,61.218,29.105,60.709z"/>
		<path d="M31.506,56.42c0.156-0.121,0.287-0.201,0.4-0.241c0.112-0.041,0.309-0.077,0.594-0.109l3.694,2.51
			c0.3,0.201,0.471,0.359,0.515,0.474c0.072,0.185,0.031,0.393-0.125,0.621l-0.124,0.183l0.146,0.099l1.256-1.849l-0.146-0.099
			l-0.126,0.188c-0.141,0.208-0.299,0.322-0.477,0.347c-0.129,0.016-0.357-0.088-0.681-0.31l-3.272-2.22l6.658-0.599l0.095-0.142
			l-4.48-3.042c-0.298-0.202-0.467-0.359-0.512-0.475c-0.073-0.186-0.032-0.391,0.121-0.617l0.126-0.188l-0.146-0.098l-1.254,1.85
			l0.146,0.099l0.125-0.185c0.143-0.209,0.301-0.324,0.475-0.348c0.13-0.016,0.36,0.084,0.685,0.305l3.065,2.082l-6.19,0.542
			l-0.979,1.441l0.143,0.099C31.343,56.586,31.432,56.479,31.506,56.42z"/>
		<path d="M40.761,53.354c0.006,0.111-0.059,0.282-0.196,0.518l0.132,0.113l1.307-1.544l-0.133-0.113
			c-0.215,0.221-0.384,0.343-0.5,0.367c-0.117,0.023-0.213,0.004-0.288-0.06c-0.092-0.08-0.201-0.241-0.32-0.483l-0.493-0.988
			l1.609-1.898l0.955,0.299c0.31,0.099,0.519,0.192,0.625,0.282c0.079,0.067,0.117,0.159,0.115,0.276
			c-0.001,0.115-0.083,0.274-0.24,0.477l0.135,0.115l1.637-1.934l-0.132-0.113c-0.181,0.19-0.368,0.3-0.562,0.329
			c-0.192,0.029-0.509-0.027-0.954-0.168l-5.521-1.75l-0.108,0.125l2.571,5.144C40.63,52.798,40.748,53.134,40.761,53.354z
			 M38.842,48.293l2.684,0.848l-1.427,1.683L38.842,48.293z"/>
		<path d="M41.479,43.593c0.175-0.169,0.355-0.247,0.541-0.23c0.132,0.011,0.339,0.162,0.619,0.45l2.877,2.983
			c0.254,0.263,0.393,0.454,0.415,0.573c0.039,0.208-0.041,0.405-0.235,0.595l-0.174,0.168l0.123,0.127l3.579-3.455l-0.814-1.637
			l-0.135,0.085c0.157,0.401,0.242,0.724,0.251,0.973c0.011,0.246-0.031,0.466-0.124,0.656c-0.093,0.19-0.315,0.457-0.671,0.799
			l-0.337,0.325c-0.298,0.288-0.488,0.448-0.565,0.479c-0.079,0.031-0.156,0.038-0.229,0.016c-0.105-0.036-0.249-0.148-0.429-0.336
			l-2.803-2.905c-0.264-0.275-0.414-0.465-0.449-0.573c-0.035-0.108-0.023-0.234,0.028-0.376c0.054-0.143,0.203-0.333,0.452-0.567
			l-0.123-0.126l-2.092,2.021l0.121,0.125L41.479,43.593z"/>
		<path d="M50.502,39.603c0.472,0.641,1.058,1.07,1.756,1.284c0.94,0.289,1.835,0.121,2.694-0.51
			c0.476-0.349,0.808-0.76,0.997-1.227c0.188-0.469,0.244-1.03,0.164-1.68l-0.175,0.011c0.006,0.653-0.065,1.146-0.216,1.479
			c-0.151,0.332-0.395,0.623-0.732,0.87c-0.385,0.283-0.798,0.445-1.235,0.484c-0.435,0.041-0.855-0.058-1.259-0.291
			c-0.402-0.233-0.776-0.583-1.12-1.05c-0.417-0.568-0.688-1.1-0.809-1.598c-0.123-0.5-0.108-0.939,0.042-1.316
			c0.146-0.377,0.393-0.694,0.737-0.946c0.408-0.301,0.845-0.445,1.309-0.428c0.463,0.017,0.965,0.23,1.511,0.64l0.119-0.087
			l-1.411-1.672l-0.134,0.095c0.063,0.143,0.085,0.272,0.069,0.39c-0.015,0.086-0.055,0.154-0.125,0.205
			c-0.046,0.034-0.143,0.061-0.29,0.083c-0.498,0.087-0.934,0.264-1.308,0.541c-0.48,0.353-0.838,0.799-1.069,1.335
			c-0.231,0.536-0.302,1.106-0.216,1.708C49.889,38.526,50.122,39.085,50.502,39.603z"/>
		<path d="M58.3,36.917c0.837,0.237,1.637,0.132,2.399-0.315c0.755-0.442,1.236-1.096,1.441-1.963
			c0.207-0.869,0.062-1.722-0.432-2.564c-0.479-0.817-1.143-1.344-1.99-1.581c-0.848-0.237-1.632-0.146-2.35,0.277
			c-0.725,0.424-1.207,1.031-1.443,1.817c-0.273,0.908-0.153,1.8,0.363,2.681C56.794,36.129,57.465,36.68,58.3,36.917z
			 M56.595,32.364c0.084-0.542,0.374-0.96,0.869-1.25c0.531-0.308,1.053-0.368,1.569-0.172c0.645,0.247,1.247,0.844,1.803,1.793
			c0.511,0.874,0.717,1.614,0.617,2.219c-0.103,0.604-0.413,1.059-0.934,1.365c-0.489,0.284-0.988,0.329-1.504,0.133
			c-0.672-0.261-1.273-0.845-1.804-1.748C56.697,33.82,56.49,33.042,56.595,32.364z"/>
		<path d="M61.838,28.666c0.221-0.102,0.417-0.113,0.586-0.04c0.123,0.056,0.267,0.266,0.434,0.628l1.728,3.768
			c0.154,0.334,0.221,0.559,0.204,0.679c-0.033,0.209-0.173,0.372-0.419,0.484l-0.219,0.1l0.072,0.161l4.521-2.074l-0.226-1.814
			l-0.158,0.036c0.017,0.43-0.012,0.765-0.085,1.001c-0.073,0.236-0.184,0.429-0.334,0.577c-0.15,0.15-0.45,0.327-0.896,0.532
			l-0.427,0.195c-0.376,0.172-0.607,0.262-0.69,0.266c-0.084,0.004-0.159-0.017-0.221-0.062c-0.085-0.069-0.185-0.222-0.294-0.46
			l-1.681-3.667c-0.161-0.348-0.236-0.579-0.234-0.692c0.004-0.113,0.056-0.227,0.152-0.345c0.098-0.118,0.303-0.246,0.613-0.386
			l-0.072-0.16l-2.644,1.214l0.073,0.159L61.838,28.666z"/>
		<path d="M70.744,30.716c0.771,0.399,1.577,0.457,2.413,0.171c0.829-0.283,1.43-0.828,1.804-1.638
			c0.375-0.807,0.405-1.674,0.09-2.597c-0.306-0.896-0.849-1.546-1.632-1.947c-0.784-0.401-1.57-0.469-2.357-0.2
			c-0.796,0.273-1.389,0.769-1.779,1.493c-0.451,0.834-0.512,1.733-0.181,2.7C69.425,29.644,69.97,30.315,70.744,30.716z
			 M69.984,25.915c0.191-0.517,0.557-0.867,1.102-1.053c0.58-0.197,1.104-0.15,1.572,0.146c0.583,0.37,1.053,1.076,1.407,2.116
			c0.328,0.959,0.382,1.726,0.163,2.297c-0.22,0.572-0.617,0.956-1.188,1.149c-0.534,0.183-1.035,0.126-1.498-0.168
			c-0.608-0.392-1.081-1.082-1.42-2.075C69.792,27.362,69.745,26.556,69.984,25.915z"/>
		<path d="M75.875,23.323c0.239-0.055,0.433-0.028,0.584,0.082c0.107,0.076,0.206,0.311,0.296,0.704l0.921,4.046
			c0.083,0.357,0.101,0.59,0.059,0.7c-0.076,0.198-0.247,0.328-0.511,0.388l-0.236,0.053l0.039,0.171l2.685-0.613l-0.042-0.171
			l-0.243,0.057c-0.233,0.052-0.425,0.025-0.572-0.084c-0.109-0.076-0.208-0.31-0.299-0.705l-0.415-1.821
			c0.052-0.007,0.098-0.017,0.145-0.026c0.047-0.006,0.094-0.017,0.13-0.025c0.099-0.023,0.228-0.055,0.381-0.097l2.79,2.445
			l1.672-0.381l-0.039-0.171c-0.351,0.039-0.647,0.017-0.89-0.071c-0.242-0.086-0.562-0.301-0.949-0.648l-1.703-1.502
			c0.5-0.238,0.842-0.526,1.031-0.866c0.188-0.339,0.236-0.703,0.147-1.087c-0.083-0.36-0.265-0.646-0.544-0.856
			c-0.28-0.211-0.587-0.33-0.926-0.354c-0.335-0.023-0.839,0.04-1.503,0.191l-2.281,0.52l0.038,0.171L75.875,23.323z M78.188,22.986
			c0.403-0.092,0.753-0.045,1.056,0.145c0.3,0.188,0.494,0.479,0.583,0.869c0.092,0.401,0.015,0.765-0.231,1.093
			c-0.243,0.327-0.664,0.559-1.261,0.697c-0.026,0.005-0.063,0.013-0.107,0.02c-0.041,0.009-0.094,0.019-0.153,0.032l-0.593-2.604
			C77.774,23.111,78.01,23.027,78.188,22.986z"/>
		<path d="M90,27.421c0.589-0.048,1.086-0.22,1.491-0.52c0.407-0.3,0.749-0.746,1.022-1.341l-0.153-0.084
			c-0.335,0.56-0.658,0.94-0.961,1.146c-0.306,0.203-0.664,0.322-1.078,0.356c-0.479,0.037-0.915-0.042-1.305-0.237
			c-0.392-0.197-0.696-0.5-0.918-0.91c-0.222-0.413-0.355-0.906-0.4-1.485c-0.058-0.701-0.005-1.298,0.153-1.786
			c0.157-0.487,0.4-0.853,0.725-1.096c0.328-0.245,0.703-0.383,1.128-0.417c0.506-0.042,0.951,0.067,1.337,0.324
			c0.382,0.258,0.701,0.705,0.949,1.339l0.145-0.011l-0.323-2.165l-0.164,0.013c-0.022,0.153-0.072,0.276-0.146,0.367
			c-0.057,0.065-0.129,0.1-0.215,0.107c-0.054,0.005-0.152-0.021-0.291-0.081c-0.467-0.19-0.932-0.267-1.396-0.229
			c-0.597,0.048-1.133,0.238-1.612,0.574c-0.476,0.336-0.838,0.782-1.08,1.341c-0.244,0.558-0.34,1.156-0.289,1.795
			c0.065,0.793,0.336,1.465,0.82,2.017C88.085,27.181,88.939,27.507,90,27.421z"/>
		<path d="M96.854,27.23c0.875,0.018,1.625-0.287,2.257-0.917c0.629-0.63,0.953-1.435,0.977-2.411
			c0.02-0.946-0.271-1.744-0.865-2.389c-0.6-0.646-1.314-0.977-2.146-0.997c-0.84-0.019-1.57,0.245-2.186,0.791
			c-0.706,0.63-1.073,1.454-1.093,2.474c-0.023,0.998,0.261,1.817,0.848,2.459C95.235,26.882,95.97,27.211,96.854,27.23z
			 M95.58,21.47c0.358-0.418,0.823-0.621,1.396-0.609c0.614,0.014,1.089,0.238,1.428,0.677c0.42,0.548,0.62,1.372,0.595,2.472
			c-0.021,1.012-0.234,1.75-0.638,2.212c-0.404,0.46-0.909,0.685-1.509,0.672c-0.567-0.011-1.017-0.236-1.352-0.673
			c-0.436-0.574-0.643-1.386-0.62-2.435C94.903,22.763,95.135,21.992,95.58,21.47z"/>
		<path d="M103.272,27.333l-0.225-0.03c-0.248-0.033-0.425-0.123-0.524-0.268c-0.069-0.108-0.082-0.357-0.03-0.75l0.509-3.922
			l3.533,5.673l0.169,0.023l0.695-5.37c0.049-0.357,0.111-0.583,0.193-0.673c0.134-0.147,0.334-0.206,0.604-0.169l0.224,0.028
			l0.024-0.174l-2.218-0.286l-0.021,0.172l0.218,0.029c0.251,0.032,0.428,0.122,0.523,0.269c0.075,0.108,0.089,0.357,0.038,0.75
			l-0.477,3.673l-3.275-5.284l-1.729-0.223l-0.019,0.177c0.185,0.023,0.32,0.056,0.407,0.095c0.18,0.083,0.31,0.165,0.396,0.247
			c0.087,0.081,0.207,0.241,0.364,0.481l-0.574,4.429c-0.047,0.357-0.112,0.581-0.194,0.672c-0.132,0.147-0.336,0.205-0.607,0.169
			l-0.221-0.029l-0.022,0.173l2.218,0.288L103.272,27.333z"/>
		<path d="M109.109,28.269c0.053-0.037,0.121-0.046,0.197-0.027c0.081,0.018,0.261,0.111,0.538,0.276
			c0.279,0.166,0.461,0.267,0.554,0.304c0.154,0.064,0.32,0.117,0.502,0.159c0.58,0.133,1.092,0.071,1.54-0.189
			c0.447-0.257,0.724-0.624,0.833-1.098c0.058-0.251,0.054-0.501-0.01-0.756c-0.063-0.255-0.184-0.489-0.357-0.707
			c-0.176-0.217-0.52-0.55-1.035-0.998c-0.627-0.548-1.013-0.96-1.149-1.236c-0.096-0.188-0.121-0.376-0.078-0.566
			c0.058-0.249,0.212-0.447,0.465-0.595c0.258-0.148,0.546-0.185,0.864-0.112c0.283,0.064,0.542,0.2,0.772,0.406
			c0.232,0.205,0.39,0.448,0.476,0.727c0.09,0.28,0.113,0.633,0.071,1.061l0.172,0.04l0.499-2.166l-0.173-0.039
			c-0.063,0.138-0.127,0.226-0.189,0.261c-0.062,0.036-0.133,0.044-0.211,0.027c-0.072-0.019-0.185-0.084-0.34-0.2
			c-0.335-0.248-0.667-0.412-1-0.486c-0.534-0.123-1.011-0.061-1.429,0.185c-0.419,0.247-0.682,0.594-0.787,1.042
			c-0.058,0.259-0.054,0.509,0.015,0.751c0.07,0.244,0.195,0.48,0.38,0.71c0.187,0.229,0.511,0.557,0.979,0.98
			c0.465,0.42,0.747,0.693,0.847,0.813c0.147,0.177,0.247,0.353,0.295,0.529c0.047,0.176,0.057,0.34,0.021,0.495
			c-0.063,0.277-0.232,0.493-0.502,0.644c-0.269,0.151-0.595,0.184-0.98,0.095c-0.332-0.075-0.62-0.217-0.867-0.431
			c-0.244-0.209-0.408-0.444-0.492-0.698c-0.086-0.254-0.115-0.616-0.094-1.083l-0.169-0.039l-0.494,2.146l0.17,0.038
			C108.996,28.391,109.05,28.304,109.109,28.269z"/>
		<path d="M117.116,30.741c0.609,0.202,1.134,0.244,1.57,0.121c0.435-0.122,0.77-0.332,1.003-0.628
			c0.234-0.296,0.452-0.75,0.658-1.36l0.825-2.473c0.112-0.338,0.216-0.544,0.31-0.615c0.198-0.159,0.415-0.197,0.653-0.117
			l0.229,0.076l0.058-0.168l-2.161-0.72l-0.054,0.167l0.232,0.078c0.229,0.078,0.381,0.203,0.454,0.372
			c0.053,0.125,0.012,0.376-0.113,0.757l-0.825,2.466c-0.217,0.646-0.428,1.087-0.633,1.319c-0.208,0.232-0.496,0.384-0.87,0.452
			c-0.373,0.068-0.758,0.037-1.158-0.097c-0.312-0.103-0.554-0.246-0.733-0.43c-0.179-0.181-0.294-0.377-0.351-0.586
			s-0.057-0.474,0.002-0.793c0.06-0.319,0.128-0.596,0.206-0.834l0.887-2.655c0.116-0.34,0.227-0.554,0.338-0.639
			c0.16-0.122,0.368-0.143,0.618-0.057l0.235,0.078l0.056-0.167l-2.633-0.879l-0.057,0.166l0.229,0.078
			c0.229,0.076,0.379,0.19,0.441,0.341c0.064,0.151,0.036,0.414-0.092,0.79l-0.794,2.382c-0.245,0.733-0.363,1.249-0.357,1.548
			c0.014,0.437,0.154,0.829,0.423,1.174C115.985,30.235,116.451,30.518,117.116,30.741z"/>
		<path d="M124.282,26.798c0.042,0.129-0.022,0.376-0.187,0.741l-1.705,3.779c-0.151,0.334-0.275,0.533-0.379,0.598
			c-0.18,0.114-0.393,0.115-0.64,0.003l-0.219-0.099l-0.073,0.159l4.534,2.047l1.218-1.362l-0.131-0.096
			c-0.311,0.294-0.582,0.493-0.807,0.594s-0.444,0.145-0.655,0.128c-0.209-0.016-0.543-0.126-0.99-0.327l-0.429-0.193
			c-0.375-0.169-0.593-0.285-0.654-0.346c-0.059-0.063-0.089-0.132-0.098-0.207c-0.006-0.11,0.045-0.284,0.154-0.523l1.658-3.68
			c0.159-0.348,0.28-0.558,0.367-0.628c0.086-0.072,0.208-0.11,0.357-0.114c0.153-0.004,0.384,0.067,0.695,0.209l0.071-0.161
			l-2.651-1.196l-0.072,0.16l0.219,0.1C124.092,26.483,124.231,26.622,124.282,26.798z"/>
		<path d="M129.774,36.069l-0.193-0.107c-0.221-0.121-0.351-0.269-0.39-0.44c-0.028-0.128,0.053-0.364,0.243-0.71l2.368-4.298
			l0.791,0.438c0.236,0.127,0.401,0.268,0.502,0.423c0.099,0.155,0.149,0.335,0.146,0.542c-0.003,0.129-0.053,0.319-0.149,0.569
			l0.157,0.086l0.663-1.354l-4.593-2.534l-0.793,1.282l0.157,0.086c0.163-0.244,0.333-0.411,0.518-0.503
			c0.184-0.093,0.363-0.126,0.537-0.1c0.133,0.023,0.328,0.106,0.593,0.251l0.677,0.374l-2.367,4.298
			c-0.172,0.316-0.316,0.501-0.425,0.556c-0.18,0.088-0.389,0.066-0.627-0.065l-0.198-0.109l-0.086,0.153l2.387,1.315
			L129.774,36.069z"/>
		<path d="M135.579,32.638c0.051,0.101,0.067,0.192,0.053,0.277c-0.021,0.109-0.124,0.3-0.301,0.573l-2.264,3.478
			c-0.211,0.321-0.375,0.506-0.494,0.549c-0.186,0.064-0.39,0.022-0.613-0.121l-0.189-0.125l-0.094,0.147l2.307,1.503l0.097-0.148
			l-0.196-0.125c-0.129-0.083-0.228-0.193-0.3-0.331c-0.057-0.104-0.073-0.196-0.058-0.28c0.025-0.109,0.124-0.301,0.304-0.574
			l2.262-3.477c0.212-0.324,0.378-0.505,0.5-0.546c0.186-0.065,0.387-0.025,0.604,0.118l0.195,0.128l0.097-0.147l-2.308-1.502
			l-0.098,0.147l0.192,0.124C135.404,32.388,135.503,32.498,135.579,32.638z"/>
		<path d="M138.609,34.506c0.108,0.161,0.182,0.299,0.217,0.414c0.031,0.113,0.058,0.313,0.072,0.602l-2.731,3.534
			c-0.222,0.284-0.388,0.444-0.506,0.482c-0.188,0.061-0.396,0.006-0.611-0.161l-0.175-0.135l-0.109,0.138l1.771,1.367l0.107-0.138
			l-0.182-0.139c-0.197-0.154-0.3-0.318-0.315-0.497c-0.006-0.129,0.111-0.35,0.353-0.663l2.417-3.129l0.19,6.682l0.134,0.104
			l3.308-4.284c0.22-0.285,0.39-0.447,0.507-0.484c0.188-0.06,0.393-0.008,0.607,0.159l0.179,0.139l0.107-0.139l-1.77-1.367
			l-0.108,0.138l0.177,0.135c0.199,0.156,0.305,0.32,0.314,0.497c0.013,0.132-0.107,0.353-0.348,0.665l-2.265,2.93l-0.162-6.212
			l-1.379-1.066l-0.107,0.141C138.451,34.333,138.554,34.428,138.609,34.506z"/>
		<path d="M141.944,43.783c-0.085,1.02,0.319,1.961,1.214,2.821c0.312,0.299,0.629,0.539,0.946,0.718
			c0.319,0.178,0.677,0.323,1.073,0.433l1.36-1.418c0.236-0.249,0.423-0.391,0.547-0.433c0.18-0.055,0.359,0.002,0.538,0.171
			l0.084,0.083l0.125-0.129l-1.792-1.724l-0.125,0.13c0.186,0.18,0.3,0.325,0.336,0.433c0.039,0.11,0.042,0.217,0.008,0.321
			c-0.031,0.105-0.163,0.274-0.386,0.506l-1.286,1.339c-0.23-0.058-0.443-0.141-0.645-0.251c-0.2-0.109-0.386-0.247-0.558-0.41
			c-0.29-0.28-0.492-0.638-0.606-1.073c-0.115-0.436-0.08-0.919,0.099-1.446c0.18-0.527,0.48-1.015,0.906-1.456
			c0.521-0.544,1.099-0.888,1.736-1.036c0.757-0.17,1.43,0.025,2.021,0.593c0.432,0.417,0.656,0.89,0.678,1.42
			c0.014,0.367-0.094,0.793-0.322,1.272l0.119,0.116l1.283-1.579l-0.127-0.123c-0.117,0.11-0.212,0.17-0.281,0.182
			c-0.069,0.01-0.125-0.005-0.169-0.047c-0.043-0.042-0.105-0.148-0.188-0.319c-0.163-0.335-0.299-0.583-0.409-0.742
			c-0.11-0.162-0.253-0.321-0.421-0.485c-0.461-0.443-0.958-0.729-1.486-0.856c-0.636-0.15-1.284-0.114-1.942,0.104
			c-0.552,0.186-1.026,0.482-1.42,0.889C142.312,42.354,142.011,43.019,141.944,43.783z"/>
		<path d="M148.681,51.688c-0.212,0.019-0.402-0.078-0.568-0.292l-0.149-0.191l-0.139,0.109l1.703,2.163l0.139-0.109l-0.154-0.193
			c-0.148-0.19-0.208-0.376-0.17-0.556c0.019-0.131,0.19-0.32,0.508-0.571l1.469-1.157c0.093,0.187,0.186,0.361,0.279,0.513
			c0.094,0.153,0.188,0.294,0.284,0.415c0.391,0.496,0.821,0.778,1.296,0.847c0.471,0.069,0.914-0.059,1.324-0.384
			c0.305-0.238,0.495-0.532,0.574-0.885c0.079-0.354,0.066-0.697-0.049-1.03c-0.109-0.333-0.345-0.727-0.699-1.178l-1.456-1.85
			l-0.137,0.108l0.148,0.189c0.151,0.19,0.208,0.377,0.176,0.561c-0.023,0.128-0.196,0.317-0.511,0.567l-3.261,2.568
			C148.998,51.56,148.799,51.678,148.681,51.688z M153.63,49.072c0.203,0.16,0.354,0.303,0.454,0.429
			c0.164,0.209,0.264,0.434,0.301,0.669c0.036,0.237-0.004,0.474-0.122,0.712c-0.117,0.235-0.282,0.439-0.502,0.612
			c-0.317,0.25-0.646,0.359-0.996,0.33c-0.349-0.031-0.622-0.173-0.826-0.432c-0.057-0.071-0.12-0.164-0.187-0.275
			c-0.067-0.113-0.14-0.243-0.22-0.395L153.63,49.072z"/>
		<path d="M156.378,53.822l-3.484,2.256c-0.307,0.2-0.519,0.298-0.638,0.296c-0.214-0.001-0.391-0.117-0.539-0.345l-0.133-0.202
			l-0.146,0.093l1.496,2.312l0.146-0.094l-0.134-0.212c-0.131-0.203-0.17-0.39-0.118-0.567c0.033-0.126,0.219-0.302,0.561-0.52
			l1.564-1.015c0.022,0.042,0.052,0.085,0.074,0.127c0.022,0.041,0.047,0.078,0.07,0.111c0.055,0.087,0.13,0.194,0.22,0.325
			l-1.338,3.458l0.931,1.439l0.147-0.093c-0.159-0.315-0.239-0.602-0.241-0.86c-0.002-0.258,0.094-0.63,0.283-1.114l0.826-2.116
			c0.394,0.387,0.782,0.611,1.167,0.669c0.383,0.056,0.738-0.021,1.069-0.236c0.31-0.202,0.517-0.469,0.619-0.803
			c0.101-0.335,0.106-0.666,0.015-0.993c-0.093-0.325-0.323-0.775-0.696-1.347l-1.27-1.965l-0.147,0.095l0.131,0.203
			c0.133,0.204,0.173,0.395,0.122,0.575C156.904,53.428,156.717,53.604,156.378,53.822z M157.447,54.21
			c0.219,0.228,0.381,0.42,0.48,0.575c0.223,0.346,0.299,0.693,0.225,1.041c-0.074,0.348-0.279,0.631-0.616,0.849
			c-0.343,0.223-0.711,0.276-1.105,0.159c-0.392-0.117-0.752-0.433-1.087-0.946c-0.017-0.024-0.034-0.055-0.057-0.094
			c-0.024-0.038-0.052-0.082-0.082-0.132L157.447,54.21z"/>
		<path d="M156.352,62.304c-0.286,0.822-0.23,1.626,0.171,2.414c0.397,0.779,1.023,1.298,1.876,1.554
			c0.852,0.257,1.714,0.163,2.584-0.281c0.845-0.43,1.411-1.059,1.696-1.89c0.287-0.833,0.244-1.622-0.135-2.364
			c-0.381-0.749-0.958-1.266-1.729-1.548c-0.889-0.327-1.789-0.259-2.697,0.204C157.229,60.846,156.641,61.484,156.352,62.304z
			 M160.999,60.871c0.538,0.117,0.935,0.431,1.196,0.942c0.277,0.547,0.304,1.072,0.081,1.574c-0.285,0.631-0.921,1.194-1.897,1.693
			c-0.903,0.459-1.654,0.621-2.252,0.484c-0.6-0.136-1.033-0.472-1.308-1.011c-0.256-0.506-0.271-1.007-0.045-1.508
			c0.3-0.655,0.918-1.222,1.853-1.696C159.541,60.887,160.329,60.726,160.999,60.871z"/>
		<path d="M163.712,67.284l-3.864,1.514c-0.357,0.14-0.599,0.196-0.719,0.162c-0.188-0.056-0.331-0.208-0.43-0.454l-0.082-0.213
			l-0.165,0.065l1.008,2.567l0.165-0.063l-0.084-0.216c-0.057-0.142-0.074-0.291-0.055-0.449c0.017-0.114,0.056-0.201,0.117-0.26
			c0.081-0.077,0.274-0.172,0.579-0.292l1.878-0.736l0.429,1.09c0.077,0.199,0.11,0.361,0.095,0.484
			c-0.018,0.124-0.065,0.235-0.15,0.335c-0.087,0.1-0.247,0.196-0.478,0.291l0.065,0.163l2.021-0.792l-0.063-0.164
			c-0.341,0.09-0.589,0.099-0.745,0.026c-0.152-0.074-0.283-0.234-0.381-0.484l-0.425-1.089l2.351-0.922l0.515,1.316
			c0.121,0.312,0.185,0.552,0.184,0.724c0,0.173-0.048,0.334-0.137,0.487c-0.092,0.151-0.262,0.322-0.511,0.508l0.062,0.155
			l1.293-0.573l-1.745-4.45l-0.163,0.064l0.083,0.212c0.055,0.146,0.073,0.294,0.052,0.449c-0.018,0.111-0.057,0.198-0.118,0.254
			C164.208,67.067,164.016,67.165,163.712,67.284z"/>
		<path d="M166.615,72.896c-0.067,0.104-0.297,0.213-0.691,0.33l-4.005,1.17c-0.303,0.088-0.503,0.128-0.61,0.124
			c-0.108-0.007-0.199-0.052-0.274-0.133c-0.108-0.112-0.185-0.239-0.227-0.384l-0.063-0.218l-0.171,0.049l1.393,4.752l1.7,0.079
			l-0.053-0.181c-0.438-0.088-0.776-0.195-1.022-0.33c-0.183-0.103-0.323-0.227-0.415-0.369c-0.098-0.144-0.195-0.39-0.3-0.739
			l-0.306-1.046c-0.053-0.169-0.066-0.289-0.049-0.359c0.02-0.072,0.054-0.126,0.104-0.168c0.054-0.042,0.215-0.103,0.488-0.183
			l2.032-0.594l0.398,1.353c0.076,0.258,0.101,0.458,0.077,0.599c-0.026,0.143-0.081,0.257-0.172,0.342
			c-0.072,0.066-0.252,0.166-0.542,0.296l0.05,0.167l2.147-0.627l-0.049-0.168c-0.357,0.086-0.629,0.07-0.813-0.047
			c-0.142-0.088-0.262-0.307-0.365-0.659l-0.396-1.355l2.437-0.713l0.497,1.695c0.088,0.307,0.13,0.527,0.118,0.662
			c-0.02,0.17-0.079,0.311-0.175,0.424c-0.102,0.112-0.302,0.249-0.608,0.407l0.052,0.176l1.331-0.464l-1.389-4.751l-0.167,0.049
			l0.063,0.217C166.712,72.55,166.704,72.75,166.615,72.896z"/>
		<path d="M167.186,79.432c-0.26,0.052-0.486,0.157-0.68,0.318c-0.194,0.159-0.36,0.372-0.496,0.635
			c-0.136,0.262-0.3,0.694-0.497,1.292c-0.196,0.599-0.327,0.969-0.396,1.108c-0.103,0.207-0.223,0.369-0.363,0.486
			c-0.141,0.115-0.288,0.188-0.442,0.22c-0.282,0.054-0.544-0.009-0.792-0.194c-0.249-0.185-0.412-0.471-0.488-0.858
			c-0.066-0.334-0.053-0.658,0.041-0.968c0.093-0.309,0.237-0.553,0.436-0.734c0.199-0.181,0.515-0.357,0.953-0.524l-0.033-0.172
			l-2.163,0.426l0.032,0.171c0.151-0.006,0.255,0.007,0.308,0.044c0.057,0.035,0.093,0.091,0.107,0.17
			c0.019,0.079,0.007,0.281-0.031,0.602c-0.037,0.322-0.055,0.531-0.051,0.63c0.004,0.168,0.021,0.342,0.058,0.525
			c0.115,0.583,0.383,1.024,0.802,1.327c0.418,0.301,0.866,0.406,1.344,0.311c0.251-0.047,0.479-0.154,0.688-0.316
			c0.206-0.16,0.372-0.366,0.497-0.617c0.128-0.248,0.291-0.697,0.49-1.347c0.245-0.799,0.467-1.32,0.658-1.556
			c0.132-0.166,0.294-0.265,0.485-0.305c0.253-0.048,0.5,0.012,0.736,0.185c0.238,0.171,0.388,0.417,0.452,0.739
			c0.059,0.286,0.039,0.576-0.052,0.871c-0.095,0.295-0.252,0.54-0.471,0.732c-0.22,0.194-0.533,0.36-0.939,0.499l0.035,0.171
			l2.179-0.431l-0.036-0.169c-0.15-0.003-0.257-0.024-0.313-0.067c-0.058-0.042-0.095-0.103-0.112-0.183
			c-0.014-0.072,0-0.202,0.045-0.392c0.09-0.404,0.1-0.777,0.034-1.111c-0.106-0.536-0.356-0.944-0.749-1.228
			C168.063,79.439,167.638,79.343,167.186,79.432z"/>
		<path d="M170.197,87.255c-0.06-0.543-0.276-0.971-0.646-1.287c-0.368-0.314-0.784-0.447-1.241-0.396
			c-0.262,0.027-0.498,0.114-0.704,0.258c-0.208,0.143-0.388,0.339-0.545,0.59c-0.156,0.252-0.357,0.667-0.604,1.247
			c-0.247,0.579-0.408,0.936-0.489,1.071c-0.121,0.197-0.254,0.348-0.404,0.451c-0.15,0.104-0.305,0.165-0.46,0.181
			c-0.283,0.032-0.542-0.055-0.773-0.261c-0.232-0.205-0.37-0.502-0.413-0.895c-0.037-0.339,0.003-0.658,0.121-0.959
			c0.123-0.3,0.286-0.534,0.501-0.697c0.209-0.163,0.543-0.31,0.991-0.44l-0.02-0.174l-2.189,0.241l0.021,0.172
			c0.149,0.007,0.249,0.03,0.304,0.071c0.052,0.041,0.082,0.099,0.091,0.177c0.011,0.082-0.019,0.281-0.084,0.599
			c-0.066,0.317-0.101,0.524-0.106,0.625c-0.009,0.167-0.004,0.34,0.019,0.526c0.064,0.591,0.293,1.054,0.686,1.391
			c0.39,0.337,0.831,0.478,1.309,0.426c0.258-0.029,0.496-0.116,0.712-0.258c0.217-0.143,0.401-0.333,0.549-0.572
			c0.146-0.237,0.346-0.671,0.602-1.302c0.309-0.775,0.572-1.272,0.786-1.493c0.147-0.153,0.314-0.239,0.51-0.262
			c0.253-0.026,0.492,0.055,0.714,0.246c0.223,0.192,0.357,0.452,0.391,0.777c0.031,0.29-0.01,0.577-0.128,0.862
			c-0.12,0.286-0.296,0.518-0.528,0.692c-0.237,0.17-0.562,0.313-0.982,0.415l0.022,0.175l2.208-0.244l-0.02-0.177
			c-0.15-0.012-0.254-0.045-0.311-0.09c-0.053-0.048-0.083-0.112-0.093-0.193c-0.01-0.072,0.017-0.2,0.076-0.385
			C170.19,87.963,170.233,87.593,170.197,87.255z"/>
		<path d="M170.239,91.333l0.008,0.229c0.008,0.15-0.024,0.296-0.096,0.439c-0.053,0.099-0.117,0.166-0.194,0.202
			c-0.103,0.045-0.318,0.076-0.644,0.089l-4.145,0.168c-0.389,0.017-0.63-0.012-0.735-0.084c-0.16-0.115-0.245-0.304-0.257-0.569
			l-0.007-0.227l-0.175,0.007l0.111,2.751l0.176-0.007l-0.012-0.233c-0.005-0.152,0.024-0.295,0.096-0.435
			c0.052-0.103,0.118-0.172,0.195-0.207c0.104-0.045,0.318-0.074,0.643-0.089l4.147-0.169c0.386-0.016,0.628,0.014,0.732,0.089
			c0.163,0.114,0.248,0.301,0.258,0.564l0.013,0.232l0.173-0.006l-0.114-2.75L170.239,91.333z"/>
		<path d="M167.409,95.488c-0.997-0.039-1.824,0.229-2.473,0.807c-0.651,0.578-0.995,1.307-1.027,2.191
			c-0.035,0.873,0.261,1.63,0.881,2.27c0.619,0.642,1.417,0.98,2.394,1.02c0.945,0.037,1.747-0.241,2.401-0.827
			c0.657-0.585,1.001-1.296,1.033-2.126c0.031-0.84-0.218-1.567-0.755-2.195C169.245,95.907,168.429,95.527,167.409,95.488z
			 M169.573,100.133c-0.555,0.414-1.383,0.598-2.482,0.556c-1.011-0.041-1.746-0.267-2.201-0.68
			c-0.453-0.408-0.671-0.916-0.646-1.521c0.021-0.563,0.252-1.007,0.696-1.335c0.584-0.427,1.398-0.621,2.445-0.584
			c1.022,0.042,1.792,0.291,2.305,0.74c0.415,0.36,0.608,0.831,0.587,1.405C170.25,99.331,170.015,99.8,169.573,100.133z"/>
		<path d="M169.977,103.625c-0.087,0.177-0.17,0.307-0.253,0.393c-0.084,0.086-0.246,0.205-0.488,0.357l-4.42-0.649
			c-0.355-0.052-0.579-0.121-0.669-0.203c-0.146-0.139-0.201-0.344-0.16-0.614l0.03-0.22l-0.171-0.024l-0.324,2.211l0.173,0.027
			l0.03-0.227c0.034-0.246,0.129-0.419,0.278-0.517c0.106-0.074,0.357-0.079,0.747-0.019l3.915,0.572l-5.734,3.44l-0.022,0.165
			l5.354,0.788c0.356,0.054,0.579,0.12,0.668,0.205c0.147,0.134,0.201,0.339,0.162,0.607l-0.031,0.223l0.171,0.025l0.324-2.211
			l-0.17-0.025l-0.033,0.223c-0.033,0.248-0.128,0.421-0.275,0.519c-0.112,0.073-0.359,0.082-0.751,0.024l-3.666-0.541l5.339-3.183
			l0.255-1.727l-0.175-0.024C170.053,103.406,170.018,103.54,169.977,103.625z"/>
		<path d="M162.969,110.475c-0.054-0.095-0.07-0.28-0.048-0.551l-0.168-0.045l-0.51,1.958l0.169,0.045
			c0.099-0.292,0.196-0.476,0.293-0.55c0.095-0.07,0.188-0.093,0.285-0.068c0.119,0.031,0.284,0.13,0.5,0.298l0.873,0.677
			l-0.628,2.406l-0.991,0.142c-0.322,0.046-0.549,0.055-0.687,0.019c-0.1-0.024-0.174-0.091-0.22-0.197
			c-0.051-0.106-0.046-0.284,0.006-0.535l-0.169-0.045l-0.641,2.453l0.169,0.044c0.078-0.249,0.202-0.429,0.362-0.54
			c0.162-0.11,0.473-0.199,0.931-0.263l5.735-0.815l0.042-0.163l-4.547-3.519C163.327,110.918,163.077,110.669,162.969,110.475z
			 M166.895,114.205l-2.788,0.398l0.558-2.134L166.895,114.205z"/>
		<path d="M166.565,119.545c-0.085,0.229-0.214,0.378-0.387,0.446c-0.126,0.045-0.377,0.003-0.752-0.138l-3.886-1.443
			c-0.344-0.128-0.551-0.242-0.623-0.34c-0.122-0.169-0.141-0.384-0.045-0.639l0.084-0.226l-0.166-0.063l-1.731,4.665l1.44,1.119
			l0.088-0.132c-0.315-0.293-0.535-0.548-0.647-0.766c-0.117-0.217-0.173-0.432-0.173-0.646c0.002-0.209,0.09-0.548,0.261-1.008
			l0.163-0.442c0.144-0.39,0.247-0.614,0.303-0.676c0.061-0.063,0.122-0.103,0.198-0.114c0.112-0.015,0.289,0.025,0.535,0.12
			l3.782,1.401c0.357,0.134,0.575,0.241,0.652,0.322c0.076,0.083,0.123,0.201,0.136,0.353c0.017,0.153-0.041,0.388-0.16,0.705
			l0.164,0.063l1.015-2.728l-0.168-0.063L166.565,119.545z"/>
		<circle cx="61.816" cy="162.05" r="1.666"/>
		<path d="M128.912,160.384c0.921,0,1.666,0.747,1.666,1.668c0,0.92-0.745,1.666-1.666,1.666s-1.667-0.746-1.667-1.666
			C127.245,161.131,127.991,160.384,128.912,160.384z"/>
		<path d="M77.125,161.061l0.285,0.074c0.188,0.048,0.359,0.139,0.509,0.276c0.105,0.105,0.164,0.21,0.179,0.315
			c0.019,0.146-0.024,0.424-0.127,0.833l-1.31,5.199c-0.124,0.486-0.247,0.779-0.374,0.881c-0.199,0.155-0.465,0.192-0.797,0.108
			l-0.285-0.071l-0.056,0.218l3.448,0.871l0.055-0.218l-0.29-0.074c-0.19-0.047-0.357-0.141-0.505-0.279
			c-0.108-0.103-0.169-0.207-0.185-0.316c-0.018-0.145,0.023-0.42,0.128-0.827l1.31-5.201c0.124-0.486,0.248-0.779,0.378-0.879
			c0.201-0.159,0.464-0.193,0.792-0.11l0.292,0.071l0.055-0.219l-3.449-0.871L77.125,161.061z"/>
		<path d="M91.207,163.514c-0.088,0.066-0.188,0.095-0.296,0.086c-0.072-0.007-0.189-0.065-0.353-0.171
			c-0.549-0.356-1.123-0.561-1.72-0.623c-0.767-0.081-1.493,0.038-2.18,0.352c-0.688,0.312-1.253,0.793-1.693,1.446
			c-0.44,0.651-0.704,1.389-0.79,2.21c-0.105,1.023,0.082,1.943,0.563,2.757c0.645,1.093,1.652,1.713,3.022,1.852
			c0.757,0.081,1.43-0.024,2.019-0.308c0.589-0.284,1.126-0.771,1.618-1.462l-0.177-0.142c-0.561,0.632-1.061,1.041-1.492,1.227
			c-0.433,0.186-0.918,0.253-1.456,0.196c-0.615-0.062-1.149-0.268-1.6-0.608c-0.451-0.344-0.767-0.8-0.948-1.373
			c-0.184-0.571-0.238-1.231-0.159-1.979c0.096-0.904,0.3-1.646,0.617-2.232c0.317-0.581,0.711-0.987,1.185-1.22
			c0.47-0.232,0.982-0.319,1.528-0.263c0.653,0.071,1.192,0.312,1.625,0.731c0.428,0.416,0.725,1.058,0.888,1.926l0.189,0.022
			l0.104-2.83l-0.219-0.024C91.414,163.27,91.327,163.413,91.207,163.514z"/>
		<path d="M102.626,170.597c-0.396,0.259-0.861,0.404-1.401,0.441c-0.62,0.041-1.18-0.069-1.682-0.33
			c-0.501-0.263-0.892-0.657-1.167-1.191c-0.278-0.532-0.442-1.176-0.492-1.926c-0.063-0.908,0.016-1.676,0.228-2.306
			c0.213-0.626,0.536-1.095,0.959-1.405c0.425-0.307,0.913-0.48,1.461-0.517c0.657-0.043,1.23,0.105,1.726,0.444
			s0.895,0.92,1.203,1.749l0.189-0.016l-0.376-2.804l-0.213,0.019c-0.032,0.198-0.1,0.355-0.199,0.472
			c-0.072,0.083-0.169,0.129-0.276,0.134c-0.073,0.007-0.201-0.031-0.376-0.11c-0.604-0.253-1.205-0.356-1.802-0.32
			c-0.771,0.054-1.467,0.29-2.088,0.715c-0.624,0.425-1.1,0.996-1.425,1.711c-0.322,0.719-0.458,1.489-0.403,2.315
			c0.066,1.024,0.408,1.9,1.021,2.619c0.824,0.968,1.923,1.402,3.291,1.312c0.763-0.048,1.409-0.263,1.938-0.644
			c0.532-0.38,0.982-0.952,1.35-1.716l-0.202-0.109C103.446,169.854,103.025,170.338,102.626,170.597z"/>
		<path d="M113.481,161.934c-0.369-0.288-0.778-0.454-1.231-0.507c-0.451-0.055-1.04,0.006-1.763,0.172l-2.961,0.694l0.05,0.219
			l0.303-0.07c0.307-0.072,0.559-0.037,0.755,0.101c0.136,0.099,0.263,0.403,0.381,0.909l1.221,5.225
			c0.109,0.46,0.137,0.761,0.084,0.904c-0.091,0.257-0.31,0.425-0.653,0.506l-0.304,0.07l0.052,0.219l3.465-0.81l-0.052-0.219
			l-0.31,0.071c-0.308,0.071-0.557,0.039-0.748-0.099c-0.14-0.1-0.271-0.4-0.388-0.911l-0.551-2.354
			c0.27-0.006,0.522-0.019,0.757-0.042c0.235-0.023,0.449-0.063,0.644-0.106c0.793-0.187,1.359-0.536,1.699-1.053
			c0.34-0.514,0.432-1.1,0.276-1.759C114.089,162.607,113.849,162.219,113.481,161.934z M112.713,164.873
			c-0.227,0.39-0.544,0.636-0.96,0.732c-0.114,0.026-0.256,0.052-0.423,0.068c-0.167,0.02-0.361,0.031-0.581,0.04l-0.787-3.362
			c0.304-0.151,0.551-0.248,0.756-0.299c0.335-0.074,0.648-0.071,0.947,0.018c0.295,0.089,0.549,0.264,0.765,0.532
			c0.215,0.266,0.362,0.574,0.442,0.926C112.991,164.036,112.938,164.483,112.713,164.873z"/>
		<path d="M131.086,76.915c-8.947,0-14.434-4.415-19.734-8.686c-4.83-3.887-9.388-7.557-15.985-7.557
			c-6.6,0-11.161,3.671-15.991,7.559c-5.304,4.269-10.79,8.684-19.733,8.684c-1.048,0-2.135-0.063-3.236-0.184l-2.455-0.27
			l0.609,2.392C66.13,124.44,93.464,138.1,94.621,138.657l0.822,0.396l0.786-0.459c1.231-0.723,30.273-18.14,39.946-59.771
			l0.545-2.355l-2.401,0.265C133.222,76.852,132.134,76.915,131.086,76.915z M95.301,135.131
			c-4.503-2.594-26.483-16.938-36.815-54.814c0.389,0.014,0.776,0.021,1.156,0.021c10.152,0,16.383-5.014,21.882-9.44
			c4.532-3.648,8.448-6.801,13.842-6.801c5.391,0,9.304,3.149,13.834,6.799c5.501,4.425,11.731,9.441,21.885,9.441
			c0.396,0,0.795-0.008,1.201-0.022C123.381,115.133,99.934,132.073,95.301,135.131z"/>
		<path d="M107.405,73.063c-4.763-3.836-7.895-6.187-12.09-6.187c-4.205,0-7.338,2.35-12.104,6.187
			c-4.829,3.887-10.842,8.728-19.743,9.823l-1.363,0.167l0.414,1.309c5.78,18.261,14.244,29.85,20.328,36.354
			c3.585,3.833,8.519,8.82,11.663,10.798l0.642,0.403l0.62-0.433c2.633-1.839,7.09-6.127,12.543-12.072
			c9.104-9.928,15.798-21.721,19.896-35.046l0.4-1.307l-1.355-0.161C118.294,81.827,112.258,76.969,107.405,73.063z M106.63,117.87
			c-4.847,5.285-8.991,9.333-11.541,11.286c-2.357-1.673-6.068-5.176-10.577-9.997c-5.779-6.182-13.771-17.088-19.404-34.207
			c8.791-1.462,14.724-6.239,19.533-10.113c4.378-3.524,7.235-5.682,10.672-5.682c3.428,0,6.282,2.158,10.66,5.682
			c4.837,3.892,10.799,8.691,19.651,10.131C121.597,97.446,115.212,108.509,106.63,117.87z"/>
		<path d="M76.661,135.383c-0.116-1.007-1.101-1.851-1.098-1.862c0.002,0.002-1.036,1.296-0.958,2.348
			c0.083,1.062,0.666,1.542,1.242,1.389C76.43,137.105,76.767,136.4,76.661,135.383z"/>
		<path d="M84.444,141.653c-0.342-0.509-1.047-0.582-1.985-0.018c-0.934,0.563-1.479,2.113-1.479,2.117
			c-0.008,0.011,1.731,0.432,2.692-0.203C84.623,142.931,84.78,142.154,84.444,141.653z"/>
		<path d="M84.61,140.74c0.485-0.367,0.518-1.148,0.017-2.045c-0.51-0.884-1.759-1.283-1.763-1.291
			c0.01-0.002-0.448,1.592,0.038,2.539C83.393,140.885,84.132,141.103,84.61,140.74z"/>
		<path d="M90.769,141.086c-0.167,0.011-0.341,0.023-0.511,0.032c-1.216,0.072-1.874-0.807-2.443-1.637
			c-0.074-0.137-0.166-0.276-0.273-0.418c-0.631-0.806-1.938-1.034-1.941-1.044c0.001,0-0.174,1.249,0.191,2.151
			c0.175,0.446,0.426,0.857,0.708,0.886c0.236,0.022,0.473,0.042,0.71,0.056c0.504,0.034,0.537,0.44,0.537,0.44
			s-0.069,0.405-0.59,0.375c-0.245-0.02-0.486-0.037-0.737-0.059c-0.287-0.028-0.627,0.313-0.942,0.696
			c-0.64,0.764-0.893,1.995-0.889,1.998c-0.009,0.01,1.791,0.2,2.668-0.558c0.15-0.129,0.277-0.259,0.381-0.386
			c0.76-0.781,1.437-1.613,2.672-1.688c0.176-0.01,0.356-0.024,0.53-0.037c0.535-0.046,0.545-0.466,0.541-0.461
			C91.383,141.431,91.281,141.038,90.769,141.086z"/>
		<path d="M75.341,138.033c-0.117-0.601-0.729-0.935-1.804-0.776c-1.08,0.16-2.181,1.374-2.181,1.382
			c-0.012,0.005,1.413,1.061,2.535,0.845C74.997,139.272,75.445,138.624,75.341,138.033z"/>
		<path d="M78.588,138.796c0.561-0.225,0.802-0.972,0.558-1.964c-0.243-0.98-1.332-1.686-1.332-1.7c0.004,0-0.856,1.418-0.643,2.456
			C77.391,138.624,78.04,139.025,78.588,138.796z"/>
		<path d="M81.526,139.968c0.524-0.3,0.662-1.067,0.286-2.021c-0.375-0.942-1.551-1.499-1.551-1.511c0.005,0-0.663,1.52-0.309,2.52
			C80.308,139.953,81.006,140.263,81.526,139.968z"/>
		<path d="M81.239,140.852c-0.27-0.55-0.951-0.718-1.95-0.279c-1,0.435-1.742,1.899-1.741,1.903c-0.01,0.011,1.646,0.654,2.67,0.158
			C81.239,142.139,81.5,141.398,81.239,140.852z"/>
		<path d="M78.19,139.635c-0.19-0.581-0.844-0.832-1.891-0.531c-1.045,0.299-1.977,1.652-1.974,1.656
			c-0.012,0.009,1.54,0.864,2.621,0.501C78.017,140.911,78.375,140.208,78.19,139.635z"/>
		<path d="M72.729,136.069c-0.01-0.229-0.101-0.431-0.266-0.594c-0.267-0.271-0.745-0.428-1.428-0.418
			c-1.089,0.011-2.347,1.069-2.347,1.074l0.004,0.001c-0.013,0.009,1.265,1.248,2.407,1.182
			C72.225,137.256,72.758,136.671,72.729,136.069z"/>
		<path d="M70.386,133.764c0.047-0.609-0.457-1.102-1.546-1.239c-1.087-0.138-2.473,0.74-2.473,0.748
			c-0.014,0.003,1.098,1.417,2.238,1.504C69.734,134.875,70.337,134.366,70.386,133.764z"/>
		<path d="M67.474,128.761c0.548-0.299,0.726-1.016,0.308-1.939c-0.417-0.91-1.852-1.622-1.856-1.64
			c-0.004-0.015-0.679,1.516-0.207,2.56C66.184,128.777,66.925,129.06,67.474,128.761z"/>
		<path d="M68.359,131.148c0.127-0.602-0.312-1.167-1.378-1.458c-1.06-0.296-2.553,0.39-2.555,0.395
			c-0.012,0.006,0.908,1.577,2.03,1.83C67.565,132.166,68.232,131.743,68.359,131.148z"/>
		<path d="M70.234,131.471c-0.196,1.047,0.25,1.675,0.847,1.678c0.606,0.013,1.118-0.582,1.275-1.594
			c0.157-1.001-0.583-2.093-0.58-2.105C71.78,129.454,70.437,130.424,70.234,131.471z"/>
		<path d="M68.507,128.833c-0.333,1.022,0.029,1.705,0.622,1.795c0.605,0.097,1.188-0.423,1.477-1.409
			c0.285-0.979-0.309-2.179-0.301-2.19C70.308,127.032,68.842,127.815,68.507,128.833z"/>
		<path d="M72.724,135.19c0.173,0.142,0.39,0.205,0.612,0.177c0.598-0.073,1.024-0.728,1.05-1.748
			c0.023-1.014-0.847-1.984-0.845-1.994l-0.002-0.006c0.004,0.003-1.198,1.147-1.259,2.204
			C72.242,134.483,72.431,134.951,72.724,135.19z"/>
		<path d="M116.667,137.258c-1.075-0.16-1.688,0.174-1.806,0.776c-0.106,0.593,0.342,1.239,1.45,1.447
			c1.118,0.217,2.544-0.836,2.531-0.844C118.847,138.632,117.745,137.417,116.667,137.258z"/>
		<path d="M114.355,137.256c0.576,0.153,1.162-0.327,1.245-1.387c0.074-1.052-0.966-2.349-0.959-2.349
			c0,0.013-0.988,0.855-1.098,1.862C113.434,136.4,113.772,137.105,114.355,137.256z"/>
		<path d="M121.068,130.627c0.599-0.091,0.958-0.774,0.624-1.795c-0.334-1.02-1.799-1.799-1.793-1.804
			c0.007,0.015-0.588,1.212-0.303,2.191C119.883,130.205,120.467,130.724,121.068,130.627z"/>
		<path d="M116.66,131.625c0.002,0.01-0.867,0.98-0.848,1.994c0.027,1.023,0.454,1.675,1.057,1.748
			c0.223,0.027,0.44-0.035,0.606-0.177c0.293-0.239,0.483-0.706,0.448-1.367c-0.062-1.057-1.261-2.2-1.26-2.203L116.66,131.625z"/>
		<path d="M118.427,129.452c0.002,0.011-0.734,1.101-0.584,2.101c0.16,1.016,0.669,1.609,1.276,1.597
			c0.597-0.007,1.045-0.633,0.847-1.679C119.764,130.423,118.419,129.454,118.427,129.452z"/>
		<path d="M123.22,129.69c-1.064,0.289-1.506,0.856-1.379,1.458c0.131,0.595,0.797,1.018,1.904,0.764
			c1.121-0.251,2.046-1.826,2.03-1.83C125.774,130.078,124.281,129.394,123.22,129.69z"/>
		<path d="M121.364,132.528c-1.089,0.135-1.598,0.627-1.549,1.236c0.052,0.602,0.652,1.113,1.785,1.014
			c1.136-0.086,2.249-1.5,2.236-1.503C123.835,133.267,122.444,132.387,121.364,132.528z"/>
		<path d="M117.74,135.475c-0.167,0.166-0.255,0.365-0.268,0.594c-0.025,0.603,0.503,1.187,1.63,1.245
			c1.141,0.066,2.417-1.173,2.405-1.182l0.004-0.001c0.003-0.01-1.255-1.067-2.348-1.074
			C118.482,135.047,118.003,135.204,117.74,135.475z"/>
		<path d="M124.486,127.742c0.476-1.045-0.204-2.574-0.208-2.56c-0.007,0.018-1.444,0.729-1.856,1.64
			c-0.417,0.925-0.241,1.641,0.309,1.939C123.277,129.06,124.021,128.78,124.486,127.742z"/>
		<path d="M113.906,139.105c-1.049-0.302-1.704-0.05-1.893,0.533c-0.187,0.572,0.171,1.274,1.243,1.625
			c1.082,0.362,2.636-0.492,2.619-0.502C115.882,140.757,114.946,139.405,113.906,139.105z"/>
		<path d="M107.744,141.637c-0.938-0.566-1.647-0.494-1.988,0.016c-0.34,0.503-0.177,1.278,0.774,1.898
			c0.959,0.637,2.696,0.212,2.689,0.205C109.222,143.749,108.679,142.198,107.744,141.637z"/>
		<path d="M103.779,141.87c-0.245,0.021-0.484,0.039-0.736,0.059c-0.52,0.03-0.589-0.375-0.589-0.375s0.036-0.405,0.537-0.44
			c0.239-0.014,0.474-0.031,0.705-0.056c0.29-0.028,0.539-0.443,0.71-0.886c0.368-0.902,0.191-2.151,0.195-2.151
			c-0.004,0.01-1.307,0.24-1.938,1.044c-0.109,0.142-0.2,0.281-0.278,0.418c-0.565,0.83-1.227,1.709-2.439,1.637
			c-0.17-0.009-0.343-0.023-0.512-0.032c-0.513-0.049-0.612,0.345-0.612,0.35c0-0.005,0.011,0.415,0.545,0.461
			c0.177,0.015,0.354,0.028,0.529,0.039c1.235,0.072,1.914,0.905,2.677,1.686c0.103,0.129,0.226,0.258,0.378,0.385
			c0.877,0.76,2.676,0.569,2.667,0.558c0.006-0.002-0.247-1.234-0.886-1.997C104.413,142.183,104.072,141.841,103.779,141.87z"/>
		<path d="M107.301,139.943c0.488-0.944,0.023-2.541,0.034-2.539c0,0.008-1.253,0.407-1.756,1.291
			c-0.504,0.896-0.474,1.678,0.011,2.045C106.069,141.103,106.81,140.885,107.301,139.943z"/>
		<path d="M113.029,137.588c0.216-1.037-0.646-2.456-0.642-2.456c0.003,0.015-1.088,0.72-1.332,1.7
			c-0.242,0.992-0.002,1.739,0.558,1.964C112.163,139.025,112.81,138.624,113.029,137.588z"/>
		<path d="M110.915,140.573c-1-0.438-1.685-0.271-1.951,0.279c-0.261,0.547,0,1.287,1.023,1.782
			c1.025,0.498,2.681-0.146,2.669-0.156C112.656,142.472,111.917,141.007,110.915,140.573z"/>
		<path d="M110.251,138.956c0.352-1-0.313-2.52-0.31-2.52c-0.003,0.012-1.175,0.567-1.554,1.51c-0.375,0.955-0.238,1.722,0.29,2.021
			C109.198,140.263,109.895,139.953,110.251,138.956z"/>
		<path d="M90.176,104.77l0.021-0.011c-0.012-0.022-0.026-0.047-0.041-0.066L90.176,104.77z"/>
		<path d="M105.452,86.489c-3.935-2.208-4.636,0.527-6.79,4.738c-1.785,3.479-4.149,7.647-5.646,11.17l13.759-15.008
			C106.487,87.168,105.96,86.774,105.452,86.489z"/>
		<path d="M84.111,85.43c-4.051,1.991-2.195,4.114,0.05,8.28c1.852,3.438,3.942,7.754,5.996,10.984l-4.553-19.843
			C85.257,84.958,84.635,85.172,84.111,85.43z"/>
		<path d="M78.109,88.667c-3.326,3.049-0.945,4.565,2.382,7.93c2.749,2.778,5.969,6.327,8.85,8.848L79.38,87.69
			C79.077,87.895,78.538,88.277,78.109,88.667z"/>
		<path d="M90.821,109.259l3.235,3.233c0.82,0.821,2.165,0.821,2.988,0l16.032-16.034c0.821-0.819,0.821-2.166-0.002-2.985
			l-3.236-3.234c-0.817-0.821-2.161-0.821-2.982-0.001l-16.035,16.034C89.997,107.095,89.997,108.437,90.821,109.259z"/>
		<path d="M92.986,102.467c0.01-0.021,0.021-0.046,0.03-0.069l-0.053,0.059L92.986,102.467z"/>
		<path d="M89.379,105.517l0.02-0.019c-0.02-0.018-0.04-0.037-0.059-0.054L89.379,105.517z"/>
		<path d="M91.883,103.521c0-0.023,0.003-0.056,0.003-0.078l-0.029,0.073L91.883,103.521z"/>
		<path d="M99.242,84.458c-0.35-0.104-0.986-0.278-1.563-0.357c-4.466-0.624-4.122,2.173-4.599,6.883
			c-0.396,3.885-1.086,8.629-1.194,12.457L99.242,84.458z"/>
		<path d="M91.038,103.958l1.234-20.325c-0.361,0.009-1.021,0.038-1.594,0.136c-4.449,0.763-3.267,3.325-2.29,7.956
			C89.191,95.549,89.979,100.276,91.038,103.958z"/>
		<path d="M91.059,104.032c-0.006-0.025-0.013-0.051-0.02-0.074l-0.006,0.077L91.059,104.032z"/>
		<path d="M112.296,64.438c0.555,0.18,1.16-0.118,1.339-0.676c0.151-0.47-0.039-0.971-0.436-1.225
			c-0.776-0.489,0.267-0.854,0.701-0.915c3.192-0.543,4.516,4.589,7.213,6.511c2.05,1.477,5.675,2.093,7.504,0.042
			c0.494-0.555,0.883-1.581,0.555-2.297c-0.117-0.261-0.328-0.472-0.667-0.583c-0.562-0.181-1.163,0.122-1.343,0.675
			c-0.157,0.475,0.038,0.973,0.437,1.226c0.771,0.49-0.268,0.854-0.708,0.912c-3.192,0.544-4.51-4.586-7.21-6.513
			c-2.053-1.473-5.677-2.093-7.5-0.04c-0.502,0.557-0.886,1.579-0.554,2.299C111.741,64.112,111.954,64.326,112.296,64.438z"/>
		<path d="M69.085,68.134c2.698-1.923,4.022-7.056,7.216-6.511c0.43,0.06,1.476,0.424,0.699,0.915
			c-0.397,0.254-0.588,0.755-0.433,1.225c0.177,0.558,0.781,0.856,1.337,0.676c0.34-0.112,0.556-0.325,0.669-0.582
			c0.331-0.722-0.053-1.743-0.554-2.299c-1.827-2.052-5.454-1.433-7.502,0.04c-2.701,1.929-4.02,7.059-7.214,6.513
			c-0.437-0.058-1.479-0.42-0.707-0.912c0.4-0.254,0.593-0.752,0.436-1.226c-0.179-0.553-0.778-0.858-1.338-0.675
			c-0.339,0.111-0.554,0.322-0.671,0.583c-0.325,0.718,0.062,1.743,0.556,2.297C63.408,70.227,67.035,69.611,69.085,68.134z"/>
		<polygon points="92.656,48.281 94.595,46.351 89.75,41.511 87.815,43.438 		"/>
		<path d="M86.176,55.787c-0.35,0.352-0.35,0.928,0,1.284l0.645,0.641c0.351,0.356,0.932,0.356,1.291,0l0.413-0.414l-1.93-1.928
			L86.176,55.787z"/>
		<polygon points="87.645,43.256 89.568,41.328 87.503,40.292 86.605,41.189 		"/>
		<path d="M86.478,40.953l0.782-0.781l-1.106-0.554c-0.065-0.031-0.138-0.021-0.196,0.029c-0.056,0.051-0.061,0.131-0.032,0.193
			L86.478,40.953z"/>
		<polygon points="89.389,56.427 87.46,54.504 86.776,55.194 88.7,57.119 		"/>
		<polygon points="89.568,56.247 102.379,43.438 100.454,41.511 87.645,54.316 		"/>
		<polygon points="103.431,55.192 102.74,54.501 100.815,56.427 101.5,57.117 		"/>
		<polygon points="103.593,41.191 102.693,40.292 100.635,41.328 102.56,43.256 		"/>
		<polygon points="95.613,51.228 100.627,56.247 102.557,54.316 97.533,49.298 		"/>
		<path d="M104.266,39.838c0.039-0.062,0.024-0.142-0.021-0.193c-0.058-0.05-0.13-0.06-0.194-0.028l-1.117,0.554l0.78,0.781
			L104.266,39.838z"/>
		<path d="M103.386,57.711l0.643-0.641c0.353-0.356,0.353-0.932,0-1.284l-0.418-0.417l-1.928,1.928l0.41,0.414
			C102.453,58.067,103.028,58.067,103.386,57.711z"/>
	</g>
</g>
</svg>
