<?xml version="1.0" encoding="utf-8"?>
<!-- Generator: Adobe Illustrator 16.0.3, SVG Export Plug-In . SVG Version: 6.00 Build 0)  -->
<!DOCTYPE svg PUBLIC "-//W3C//DTD SVG 1.1//EN" "http://www.w3.org/Graphics/SVG/1.1/DTD/svg11.dtd">
<svg version="1.1" id="Layer_1" xmlns="http://www.w3.org/2000/svg" xmlns:xlink="http://www.w3.org/1999/xlink" x="0px" y="0px"
	 width="110px" height="110px" viewBox="105 0 110 110" enable-background="new 105 0 110 110" xml:space="preserve">
<g>
	<g>
		<g>
			<path d="M214.385,53.986l-4.426-3.357l3.775-4.073c0.274-0.295,0.391-0.691,0.32-1.088c-0.068-0.396-0.314-0.728-0.67-0.911
				l-4.943-2.537l3.012-4.667c0.219-0.339,0.263-0.749,0.126-1.126c-0.138-0.377-0.437-0.662-0.82-0.781l-5.306-1.64l2.154-5.12
				c0.156-0.371,0.129-0.784-0.07-1.131c-0.202-0.348-0.547-0.576-0.945-0.626l-5.51-0.694l1.232-5.416
				c0.086-0.38-0.004-0.773-0.247-1.077c-0.242-0.304-0.605-0.479-0.995-0.479l-5.61,0.275l0.272-5.547
				c0.018-0.352-0.105-0.686-0.349-0.94c-0.306-0.321-0.772-0.463-1.206-0.364l-5.414,1.232l-0.693-5.511
				c-0.08-0.636-0.625-1.115-1.265-1.115c-0.17,0-0.337,0.034-0.495,0.1l-5.118,2.154l-1.64-5.306
				c-0.168-0.538-0.654-0.899-1.219-0.899c-0.244,0-0.482,0.07-0.688,0.205l-4.668,3.01l-2.536-4.94
				c-0.219-0.427-0.653-0.692-1.135-0.692c-0.32,0-0.629,0.121-0.864,0.339l-4.073,3.775l-3.356-4.424
				C160.771,0.294,160.401,0.11,160,0.11c-0.402,0-0.772,0.184-1.015,0.504l-3.356,4.425l-4.073-3.775
				c-0.236-0.219-0.543-0.34-0.865-0.34c-0.479,0-0.916,0.266-1.134,0.693l-2.537,4.94l-4.667-3.01
				c-0.207-0.134-0.446-0.204-0.69-0.204c-0.563,0-1.052,0.361-1.218,0.898l-1.64,5.305l-5.12-2.153
				c-0.158-0.066-0.325-0.1-0.494-0.1c-0.642,0-1.185,0.479-1.263,1.115l-0.694,5.51l-5.416-1.232
				c-0.434-0.098-0.9,0.043-1.206,0.364c-0.243,0.255-0.366,0.588-0.349,0.941l0.274,5.547l-5.547-0.274l-0.064-0.002
				c-0.389,0-0.752,0.175-0.995,0.48c-0.243,0.305-0.333,0.697-0.246,1.077l1.233,5.416l-5.511,0.694
				c-0.399,0.05-0.743,0.278-0.944,0.626s-0.227,0.76-0.071,1.131l2.154,5.119l-5.306,1.64c-0.384,0.119-0.684,0.403-0.822,0.782
				c-0.137,0.377-0.09,0.788,0.128,1.125l3.01,4.667l-4.941,2.536c-0.357,0.184-0.603,0.516-0.672,0.912
				c-0.069,0.396,0.047,0.792,0.32,1.087l3.775,4.073l-4.426,3.357c-0.321,0.243-0.504,0.613-0.504,1.015
				c0.001,0.402,0.185,0.771,0.504,1.015l4.426,3.356l-3.776,4.072c-0.273,0.296-0.389,0.693-0.32,1.089
				c0.07,0.396,0.314,0.728,0.672,0.911l4.941,2.536l-3.01,4.67c-0.218,0.337-0.265,0.746-0.128,1.123
				c0.137,0.378,0.437,0.662,0.822,0.783l5.306,1.641l-2.154,5.118c-0.156,0.369-0.13,0.783,0.071,1.132
				c0.201,0.348,0.545,0.577,0.944,0.626l5.51,0.694l-1.232,5.414c-0.087,0.381,0.002,0.773,0.246,1.078
				c0.243,0.305,0.605,0.479,0.994,0.479l5.612-0.273l-0.274,5.545c-0.018,0.353,0.106,0.687,0.349,0.94
				c0.306,0.322,0.77,0.465,1.206,0.364l5.416-1.232l0.694,5.511c0.08,0.636,0.623,1.115,1.264,1.115c0.169,0,0.336-0.034,0.495-0.1
				l5.119-2.155l1.64,5.307c0.166,0.537,0.656,0.898,1.218,0.898c0.244,0,0.483-0.071,0.689-0.204l4.667-3.01l2.537,4.94
				c0.219,0.427,0.654,0.692,1.134,0.692c0.321,0,0.628-0.121,0.864-0.341l4.073-3.774l3.357,4.425
				c0.242,0.32,0.612,0.505,1.015,0.505c0.401,0,0.771-0.185,1.015-0.505l3.355-4.425l4.073,3.774
				c0.237,0.22,0.544,0.341,0.866,0.341c0.48,0,0.915-0.266,1.134-0.692l2.536-4.94l4.668,3.01c0.207,0.133,0.445,0.204,0.689,0.204
				c0.563,0,1.051-0.361,1.217-0.898l1.641-5.307l5.119,2.155c0.158,0.065,0.324,0.1,0.494,0.1c0.641,0,1.184-0.479,1.266-1.115
				l0.692-5.511l5.415,1.232c0.434,0.099,0.899-0.043,1.205-0.364c0.242-0.254,0.367-0.588,0.35-0.94l-0.273-5.545l5.547,0.271
				l0.064,0.002c0.389,0,0.752-0.175,0.994-0.479c0.243-0.306,0.334-0.697,0.248-1.079l-1.233-5.414l5.509-0.694
				c0.399-0.049,0.744-0.278,0.945-0.626s0.228-0.761,0.072-1.132l-2.154-5.118l5.305-1.641c0.385-0.121,0.684-0.405,0.82-0.782
				s0.092-0.787-0.126-1.124l-3.012-4.67l4.942-2.536c0.357-0.183,0.603-0.516,0.672-0.911c0.07-0.396-0.047-0.793-0.321-1.089
				l-3.774-4.072l4.426-3.356c0.32-0.243,0.504-0.613,0.504-1.015C214.889,54.599,214.705,54.229,214.385,53.986z M213.854,55.315
				l-5.199,3.943l4.436,4.784c0.085,0.093,0.122,0.215,0.1,0.338c-0.021,0.123-0.097,0.225-0.209,0.282l-5.803,2.98l3.535,5.483
				c0.068,0.104,0.082,0.231,0.041,0.348c-0.043,0.117-0.137,0.205-0.254,0.242l-6.234,1.927l2.531,6.014
				c0.049,0.115,0.039,0.242-0.022,0.35c-0.062,0.108-0.167,0.18-0.292,0.194l-6.475,0.816l1.449,6.359
				c0.036,0.162-0.031,0.28-0.076,0.335c-0.076,0.094-0.187,0.148-0.326,0.148h-0.002l-6.517-0.321l0.321,6.516
				c0.006,0.109-0.032,0.214-0.108,0.292c-0.095,0.1-0.239,0.146-0.373,0.113l-6.361-1.449l-0.815,6.474
				c-0.035,0.295-0.334,0.404-0.544,0.314l-6.013-2.529l-1.928,6.232c-0.09,0.294-0.4,0.339-0.592,0.216l-5.482-3.537l-2.98,5.805
				c-0.08,0.157-0.234,0.214-0.352,0.214c-0.07,0-0.172-0.019-0.267-0.105l-4.784-4.436l-3.943,5.198
				c-0.151,0.199-0.478,0.2-0.628,0l-3.943-5.198l-4.785,4.436c-0.094,0.087-0.197,0.105-0.267,0.105
				c-0.117,0-0.271-0.057-0.352-0.214l-2.98-5.805l-5.483,3.537c-0.192,0.123-0.501,0.077-0.592-0.216l-1.926-6.232l-6.013,2.529
				c-0.211,0.09-0.508-0.02-0.544-0.313l-0.815-6.475l-6.361,1.449c-0.137,0.031-0.279-0.014-0.374-0.113
				c-0.075-0.078-0.113-0.183-0.108-0.291l0.322-6.517l-6.538,0.321c-0.12,0-0.232-0.054-0.307-0.148
				c-0.044-0.055-0.113-0.173-0.076-0.334l1.448-6.36l-6.473-0.816c-0.124-0.015-0.23-0.086-0.293-0.194
				c-0.061-0.107-0.069-0.234-0.021-0.35l2.53-6.014l-6.233-1.927c-0.119-0.037-0.212-0.125-0.254-0.242
				c-0.042-0.116-0.028-0.243,0.04-0.347l3.536-5.484l-5.804-2.98c-0.111-0.058-0.187-0.159-0.209-0.281
				c-0.022-0.124,0.015-0.246,0.1-0.339l4.434-4.784l-5.198-3.943c-0.1-0.075-0.156-0.189-0.156-0.313
				c0-0.124,0.057-0.239,0.157-0.314l5.198-3.942l-4.434-4.786c-0.085-0.091-0.122-0.214-0.1-0.337
				c0.022-0.122,0.097-0.224,0.209-0.281l5.804-2.98l-3.537-5.484c-0.067-0.104-0.082-0.231-0.039-0.348
				c0.043-0.117,0.135-0.206,0.254-0.242l6.233-1.927l-2.53-6.013c-0.048-0.115-0.04-0.243,0.022-0.351
				c0.062-0.108,0.168-0.179,0.292-0.194l6.473-0.815l-1.447-6.362c-0.037-0.162,0.032-0.278,0.076-0.334
				c0.075-0.094,0.186-0.148,0.326-0.148c0,0,0.001,0,0.001,0l6.517,0.322l-0.321-6.517c-0.005-0.109,0.033-0.212,0.107-0.291
				c0.096-0.1,0.237-0.145,0.375-0.113l6.361,1.448l0.815-6.474c0.037-0.293,0.336-0.4,0.544-0.314l6.013,2.53l1.926-6.233
				c0.091-0.293,0.401-0.339,0.592-0.215l5.483,3.537l2.98-5.804c0.081-0.158,0.235-0.214,0.352-0.214
				c0.069,0,0.173,0.018,0.267,0.106l4.785,4.434l3.943-5.198c0.151-0.199,0.478-0.199,0.628,0l3.943,5.198l4.784-4.435
				c0.096-0.087,0.197-0.105,0.268-0.105c0.117,0,0.27,0.056,0.352,0.214l2.98,5.804l5.482-3.537
				c0.191-0.124,0.501-0.078,0.592,0.215l1.927,6.233l6.013-2.53c0.209-0.09,0.508,0.021,0.545,0.314l0.814,6.474l6.361-1.448
				c0.137-0.032,0.279,0.013,0.373,0.113c0.076,0.079,0.113,0.182,0.108,0.291l-0.321,6.517l6.537-0.321
				c0.121,0,0.232,0.054,0.308,0.148c0.045,0.055,0.112,0.172,0.077,0.333l-1.449,6.362l6.475,0.815
				c0.123,0.015,0.229,0.086,0.292,0.194c0.062,0.108,0.071,0.236,0.022,0.351l-2.532,6.013l6.233,1.927
				c0.119,0.037,0.212,0.125,0.256,0.242c0.041,0.116,0.027,0.244-0.039,0.349l-3.537,5.483l5.803,2.98
				c0.111,0.057,0.188,0.159,0.209,0.282c0.021,0.123-0.015,0.245-0.1,0.337l-4.436,4.785l5.199,3.942
				c0.099,0.075,0.156,0.19,0.156,0.314S213.953,55.239,213.854,55.315z"/>
			<path d="M160,110c-0.438,0-0.838-0.199-1.102-0.547l-3.283-4.33l-3.986,3.694c-0.256,0.238-0.589,0.369-0.938,0.369
				c-0.521,0-0.993-0.288-1.231-0.752l-2.482-4.834l-4.565,2.945c-0.225,0.145-0.484,0.222-0.75,0.222
				c-0.61,0-1.142-0.392-1.323-0.975l-1.604-5.191l-5.008,2.107c-0.174,0.072-0.354,0.108-0.537,0.108
				c-0.696,0-1.285-0.52-1.372-1.21l-0.679-5.392l-5.298,1.206c-0.465,0.108-0.979-0.048-1.31-0.396
				c-0.263-0.276-0.397-0.64-0.379-1.021l0.268-5.425l-5.492,0.268l0,0c-0.428,0-0.821-0.19-1.084-0.521
				c-0.264-0.329-0.361-0.756-0.267-1.169l1.206-5.298l-5.391-0.679c-0.433-0.054-0.806-0.301-1.024-0.68s-0.247-0.826-0.076-1.229
				l2.106-5.007l-5.191-1.605c-0.417-0.13-0.743-0.439-0.892-0.849c-0.149-0.41-0.098-0.854,0.139-1.22l2.945-4.569l-4.833-2.479
				c-0.388-0.198-0.655-0.56-0.73-0.99c-0.076-0.429,0.05-0.859,0.347-1.182l3.694-3.983l-4.331-3.284
				c-0.347-0.264-0.546-0.665-0.546-1.102c0-0.437,0.199-0.838,0.546-1.102l4.331-3.284l-3.694-3.986
				c-0.296-0.32-0.423-0.75-0.347-1.179c0.075-0.43,0.341-0.791,0.73-0.991l4.834-2.481l-2.945-4.566
				c-0.237-0.367-0.287-0.812-0.138-1.222c0.149-0.411,0.474-0.72,0.892-0.849l5.19-1.604l-2.107-5.008
				c-0.169-0.403-0.142-0.851,0.077-1.229c0.217-0.377,0.592-0.626,1.024-0.68l5.392-0.679l-1.206-5.297
				c-0.094-0.413,0.004-0.839,0.268-1.17c0.264-0.331,0.657-0.521,1.08-0.521l0.066,0.001l5.43,0.269l-0.269-5.427
				c-0.018-0.382,0.117-0.744,0.379-1.021c0.329-0.345,0.844-0.5,1.31-0.396l5.298,1.206l0.679-5.391
				c0.086-0.69,0.676-1.21,1.372-1.21c0.184,0,0.365,0.036,0.536,0.108l5.009,2.107l1.604-5.19c0.181-0.583,0.712-0.974,1.323-0.974
				c0.266,0,0.524,0.077,0.75,0.221l4.565,2.945l2.483-4.834c0.237-0.463,0.708-0.751,1.23-0.751c0.349,0,0.683,0.131,0.938,0.369
				l3.986,3.693l3.283-4.329C159.163,0.2,159.564,0,160,0c0.436,0,0.837,0.2,1.102,0.548l3.283,4.329l3.985-3.693
				c0.256-0.238,0.59-0.369,0.938-0.369c0.522,0,0.993,0.288,1.231,0.751l2.48,4.834l4.568-2.945
				c0.223-0.145,0.482-0.221,0.747-0.221c0.61,0,1.142,0.392,1.321,0.974l1.606,5.191l5.007-2.108
				c0.172-0.072,0.353-0.108,0.537-0.108c0.694,0,1.285,0.52,1.372,1.209l0.679,5.392l5.298-1.206
				c0.466-0.104,0.979,0.051,1.31,0.396c0.262,0.274,0.396,0.637,0.379,1.02l-0.268,5.427l5.492-0.269l0,0
				c0.428,0,0.82,0.19,1.084,0.52c0.264,0.331,0.36,0.757,0.268,1.169l-1.207,5.298l5.391,0.679c0.434,0.054,0.807,0.302,1.026,0.68
				c0.218,0.38,0.247,0.828,0.077,1.229l-2.107,5.008l5.191,1.604c0.416,0.129,0.74,0.438,0.89,0.847
				c0.149,0.411,0.1,0.857-0.137,1.224l-2.946,4.566l4.835,2.482c0.39,0.2,0.655,0.56,0.729,0.99c0.076,0.43-0.051,0.86-0.348,1.18
				l-3.694,3.985l4.33,3.284C214.801,54.163,215,54.564,215,55c0,0.436-0.199,0.837-0.548,1.102l-4.33,3.284l3.694,3.983
				c0.297,0.321,0.424,0.752,0.348,1.182c-0.074,0.43-0.34,0.79-0.729,0.989l-4.835,2.481l2.946,4.569
				c0.236,0.364,0.286,0.809,0.137,1.221c-0.147,0.408-0.472,0.718-0.89,0.848l-5.191,1.605l2.107,5.007
				c0.17,0.401,0.141,0.85-0.077,1.229c-0.22,0.379-0.593,0.627-1.026,0.681l-5.391,0.679l1.207,5.297
				c0.093,0.413-0.004,0.84-0.268,1.171c-0.265,0.33-0.657,0.52-1.08,0.52l-0.066-0.002l-5.429-0.265l0.267,5.425
				c0.018,0.383-0.117,0.745-0.379,1.021c-0.331,0.347-0.849,0.498-1.309,0.396l-5.299-1.205l-0.678,5.391
				c-0.088,0.69-0.678,1.211-1.373,1.211c-0.184,0-0.364-0.036-0.535-0.109l-5.008-2.107l-1.606,5.191
				c-0.181,0.584-0.712,0.975-1.321,0.975c-0.266,0-0.525-0.077-0.748-0.221l-4.567-2.946l-2.48,4.834
				c-0.238,0.464-0.71,0.752-1.232,0.752c-0.349,0-0.683-0.131-0.94-0.369l-3.983-3.693l-3.283,4.33
				C160.837,109.801,160.435,110,160,110z M155.643,104.8l3.429,4.522c0.223,0.293,0.56,0.46,0.929,0.46
				c0.366,0,0.705-0.167,0.928-0.462l3.428-4.521l4.162,3.857c0.215,0.2,0.498,0.311,0.791,0.311c0.439,0,0.838-0.242,1.037-0.632
				l2.592-5.049l4.769,3.075c0.19,0.123,0.407,0.188,0.63,0.188c0.514,0,0.961-0.331,1.115-0.822l1.674-5.421l5.23,2.201
				c0.145,0.061,0.297,0.092,0.452,0.092c0.585,0,1.082-0.438,1.155-1.02l0.71-5.63l5.531,1.26c0.394,0.088,0.825-0.042,1.103-0.333
				c0.221-0.232,0.336-0.538,0.32-0.861l-0.279-5.665l5.729,0.279c0.354,0,0.684-0.159,0.906-0.438s0.305-0.639,0.226-0.987
				l-1.259-5.531l0.119-0.015l5.51-0.693c0.363-0.046,0.68-0.254,0.863-0.573s0.209-0.697,0.066-1.035l-2.201-5.229l0.113-0.036
				l5.307-1.64c0.353-0.11,0.625-0.37,0.75-0.716c0.126-0.345,0.084-0.72-0.114-1.028l-3.077-4.77l5.05-2.592
				c0.327-0.168,0.552-0.472,0.613-0.833c0.064-0.362-0.043-0.726-0.294-0.996l-3.855-4.16l0.096-0.073l4.426-3.355
				c0.292-0.223,0.461-0.562,0.461-0.929s-0.169-0.706-0.461-0.928l-4.521-3.43l3.855-4.161c0.251-0.27,0.357-0.632,0.294-0.995
				c-0.063-0.361-0.286-0.665-0.614-0.833l-5.049-2.591l0.064-0.102l3.012-4.667c0.199-0.309,0.241-0.684,0.115-1.03
				c-0.126-0.345-0.398-0.605-0.75-0.713l-5.42-1.676l2.201-5.23c0.143-0.338,0.118-0.715-0.066-1.035
				c-0.184-0.318-0.5-0.526-0.863-0.572l-5.629-0.709l0.025-0.118l1.233-5.415c0.079-0.348-0.003-0.707-0.226-0.985
				c-0.223-0.279-0.553-0.438-0.91-0.438l-5.725,0.281l0.279-5.668c0.016-0.322-0.1-0.627-0.32-0.859
				c-0.276-0.29-0.709-0.424-1.103-0.333l-5.531,1.259l-0.015-0.119l-0.695-5.511c-0.073-0.581-0.57-1.019-1.155-1.019
				c-0.156,0-0.308,0.031-0.453,0.092l-5.229,2.201l-0.033-0.115l-1.641-5.306c-0.154-0.491-0.602-0.822-1.115-0.822
				c-0.223,0-0.441,0.064-0.63,0.187l-4.769,3.076l-0.055-0.107l-2.537-4.94c-0.199-0.391-0.598-0.634-1.037-0.634
				c-0.295,0-0.574,0.11-0.791,0.311l-4.162,3.857l-3.428-4.521c-0.223-0.293-0.56-0.461-0.928-0.461s-0.706,0.167-0.929,0.461
				l-3.429,4.521l-4.162-3.856c-0.216-0.201-0.497-0.311-0.791-0.311c-0.439,0-0.837,0.242-1.036,0.633l-2.592,5.048l-4.769-3.075
				c-0.188-0.123-0.407-0.187-0.63-0.187c-0.514,0-0.962,0.33-1.114,0.821l-1.676,5.42l-5.23-2.201
				c-0.145-0.061-0.297-0.091-0.452-0.091c-0.585,0-1.083,0.438-1.155,1.019l-0.709,5.63l-0.118-0.026l-5.415-1.232
				c-0.392-0.089-0.827,0.042-1.104,0.333c-0.221,0.232-0.334,0.538-0.318,0.859l0.28,5.668l-5.729-0.282
				c-0.353,0-0.685,0.16-0.907,0.439c-0.222,0.278-0.304,0.637-0.225,0.985l1.259,5.533l-5.629,0.708
				c-0.365,0.046-0.679,0.254-0.863,0.573c-0.184,0.318-0.208,0.696-0.065,1.035l2.201,5.229l-5.421,1.676
				c-0.352,0.108-0.625,0.368-0.751,0.714c-0.125,0.345-0.083,0.72,0.116,1.03l3.076,4.769l-5.048,2.591
				c-0.327,0.168-0.551,0.472-0.615,0.833c-0.064,0.362,0.043,0.725,0.293,0.995l3.857,4.161l-4.522,3.43
				c-0.293,0.222-0.461,0.56-0.461,0.928c0.001,0.367,0.169,0.706,0.461,0.929l4.522,3.428l-3.858,4.161
				c-0.249,0.271-0.356,0.635-0.292,0.996c0.063,0.362,0.288,0.666,0.615,0.833l5.048,2.591l-0.065,0.101l-3.01,4.67
				c-0.199,0.31-0.241,0.684-0.116,1.027c0.125,0.345,0.399,0.606,0.751,0.716l5.421,1.676l-2.201,5.229
				c-0.143,0.339-0.12,0.716,0.065,1.034c0.184,0.32,0.498,0.528,0.862,0.573l5.629,0.709l-1.259,5.531
				c-0.079,0.349,0.003,0.708,0.225,0.985c0.222,0.279,0.553,0.439,0.909,0.439l5.727-0.279l-0.28,5.665
				c-0.017,0.323,0.097,0.628,0.318,0.861c0.278,0.292,0.709,0.423,1.103,0.332l5.533-1.259l0.708,5.629
				c0.072,0.582,0.57,1.021,1.156,1.021c0.154,0,0.306-0.031,0.453-0.092l5.229-2.201l1.676,5.421
				c0.152,0.491,0.6,0.821,1.114,0.821c0.224,0,0.441-0.064,0.63-0.187l4.769-3.075l2.592,5.048c0.2,0.391,0.598,0.633,1.037,0.633
				c0.293,0,0.574-0.11,0.79-0.311L155.643,104.8z M159.999,109.114c-0.162,0-0.308-0.07-0.4-0.193l-3.871-5.104l-4.696,4.355
				c-0.121,0.111-0.252,0.135-0.341,0.135c-0.148,0-0.345-0.072-0.449-0.274l-2.925-5.697l-5.382,3.472
				c-0.082,0.052-0.181,0.081-0.281,0.081c-0.224,0-0.406-0.136-0.474-0.355l-1.891-6.118l-5.903,2.483
				c-0.061,0.025-0.126,0.039-0.195,0.039c-0.213,0-0.461-0.138-0.5-0.44l-0.8-6.354l-6.243,1.423
				c-0.17,0.038-0.357-0.019-0.478-0.146c-0.095-0.1-0.145-0.232-0.138-0.371l0.315-6.396l-6.417,0.314c-0.001,0-0.001,0-0.001,0
				c-0.159,0-0.302-0.068-0.398-0.188c-0.055-0.071-0.144-0.22-0.096-0.427l1.421-6.243l-6.354-0.801
				c-0.157-0.02-0.294-0.109-0.373-0.248c-0.079-0.137-0.089-0.299-0.028-0.445l2.483-5.903l-6.118-1.892
				c-0.153-0.048-0.271-0.161-0.325-0.31c-0.054-0.147-0.036-0.31,0.051-0.443l3.471-5.383l-5.698-2.925
				c-0.142-0.072-0.238-0.204-0.267-0.359c-0.027-0.158,0.019-0.315,0.128-0.432l4.352-4.695l-5.103-3.871
				c-0.126-0.096-0.199-0.242-0.199-0.401s0.073-0.305,0.2-0.401l5.102-3.87l-4.352-4.698c-0.109-0.116-0.155-0.272-0.128-0.43
				c0.028-0.157,0.125-0.288,0.267-0.36l5.697-2.925l-3.471-5.382c-0.086-0.133-0.105-0.295-0.05-0.444
				c0.054-0.15,0.172-0.263,0.325-0.31l6.118-1.891l-2.483-5.903c-0.062-0.146-0.051-0.309,0.028-0.447
				c0.079-0.138,0.215-0.228,0.374-0.248l6.353-0.8l-1.42-6.244c-0.048-0.206,0.041-0.355,0.096-0.426
				c0.099-0.124,0.241-0.189,0.412-0.189l6.403,0.316l-0.315-6.396c-0.006-0.14,0.042-0.271,0.137-0.371
				c0.123-0.128,0.308-0.182,0.479-0.145l6.244,1.421l0.8-6.354c0.05-0.396,0.443-0.506,0.694-0.401l5.903,2.484l1.891-6.118
				c0.068-0.22,0.25-0.356,0.474-0.356c0.1,0,0.199,0.029,0.282,0.082l5.381,3.471l2.925-5.697c0.104-0.202,0.3-0.273,0.449-0.273
				c0.09,0,0.222,0.023,0.342,0.135l4.696,4.352l3.87-5.102c0.182-0.241,0.619-0.242,0.802,0l3.87,5.102l4.697-4.353
				c0.096-0.088,0.215-0.134,0.342-0.134c0.148,0,0.344,0.071,0.448,0.273l2.925,5.698l5.382-3.471
				c0.081-0.053,0.181-0.082,0.281-0.082c0.225,0,0.406,0.136,0.474,0.356l1.893,6.118l5.9-2.484
				c0.25-0.106,0.646,0.004,0.696,0.401l0.8,6.354l6.244-1.421c0.168-0.04,0.355,0.018,0.477,0.145
				c0.096,0.098,0.145,0.23,0.137,0.37l-0.314,6.396l6.418-0.315l0,0c0.158,0,0.301,0.069,0.396,0.189
				c0.046,0.056,0.146,0.21,0.099,0.425l-1.423,6.245l6.355,0.8c0.157,0.02,0.294,0.11,0.373,0.248
				c0.078,0.138,0.089,0.302,0.028,0.448l-2.485,5.902l6.118,1.892c0.151,0.047,0.271,0.16,0.325,0.309
				c0.053,0.151,0.035,0.312-0.049,0.445l-3.473,5.382l5.695,2.925c0.141,0.071,0.239,0.202,0.268,0.359
				c0.027,0.157-0.02,0.313-0.127,0.43l-4.354,4.697l5.104,3.871c0.127,0.095,0.199,0.242,0.199,0.401
				c0,0.158-0.072,0.304-0.199,0.401l-5.104,3.871l4.354,4.695c0.107,0.119,0.154,0.276,0.127,0.431
				c-0.028,0.158-0.127,0.289-0.268,0.36l-5.695,2.926l3.471,5.383c0.086,0.131,0.104,0.293,0.051,0.442
				c-0.056,0.15-0.174,0.263-0.324,0.31l-6.119,1.892l2.485,5.903c0.062,0.146,0.05,0.309-0.028,0.446
				c-0.079,0.138-0.216,0.229-0.373,0.248l-6.355,0.801l1.423,6.243c0.046,0.208-0.041,0.355-0.099,0.427
				c-0.1,0.123-0.242,0.188-0.41,0.188l-6.404-0.315l0.314,6.396c0.008,0.142-0.041,0.273-0.139,0.373
				c-0.119,0.127-0.309,0.187-0.477,0.143l-6.242-1.422l-0.801,6.354c-0.049,0.401-0.443,0.508-0.695,0.401l-5.901-2.483
				l-1.892,6.117c-0.068,0.221-0.249,0.357-0.475,0.357c-0.1,0-0.199-0.029-0.28-0.081l-5.382-3.472l-2.926,5.696
				c-0.104,0.203-0.299,0.274-0.448,0.274c-0.089,0-0.22-0.022-0.341-0.134l-4.697-4.355l-3.87,5.104
				C160.31,109.042,160.159,109.114,159.999,109.114z M155.756,103.495l4.016,5.295c0.101,0.133,0.352,0.133,0.455,0l4.015-5.295
				l0.089,0.081l4.784,4.437c0.056,0.051,0.121,0.076,0.194,0.076c0.084,0,0.195-0.041,0.254-0.155l3.036-5.911l5.583,3.602
				c0.046,0.03,0.104,0.047,0.162,0.047c0.063,0,0.211-0.02,0.266-0.203l1.963-6.348l6.123,2.577
				c0.141,0.063,0.367-0.001,0.395-0.228l0.831-6.593l6.479,1.476c0.103,0.022,0.2-0.01,0.27-0.082
				c0.055-0.057,0.083-0.131,0.078-0.212l-0.327-6.635l6.637,0.326c0.1,0,0.182-0.036,0.238-0.108
				c0.032-0.039,0.082-0.122,0.055-0.241l-1.475-6.477l0.119-0.016l6.475-0.815c0.089-0.011,0.166-0.063,0.211-0.141
				s0.051-0.17,0.016-0.253l-2.578-6.125l0.115-0.035l6.233-1.927c0.086-0.027,0.154-0.092,0.185-0.176s0.02-0.176-0.029-0.251
				l-3.602-5.584l5.911-3.036c0.082-0.042,0.136-0.114,0.152-0.204c0.015-0.088-0.012-0.178-0.074-0.246l-4.517-4.872l0.096-0.072
				l5.199-3.942c0.072-0.054,0.113-0.138,0.113-0.228s-0.041-0.173-0.113-0.227l-5.295-4.016l4.518-4.873
				c0.061-0.066,0.088-0.156,0.072-0.245c-0.017-0.09-0.07-0.162-0.152-0.203l-5.91-3.036l0.064-0.101l3.539-5.483
				c0.047-0.075,0.058-0.167,0.027-0.253c-0.03-0.084-0.098-0.148-0.185-0.174l-6.349-1.963l2.578-6.124
				c0.035-0.083,0.029-0.176-0.016-0.254c-0.046-0.078-0.122-0.129-0.211-0.14l-6.594-0.83l0.025-0.118l1.449-6.361
				c0.027-0.118-0.022-0.202-0.055-0.241c-0.055-0.068-0.135-0.107-0.223-0.107l-6.651,0.326l0.327-6.637
				c0.004-0.079-0.023-0.153-0.077-0.209c-0.07-0.074-0.177-0.105-0.271-0.083l-6.479,1.474l-0.016-0.12l-0.814-6.473
				c-0.028-0.224-0.254-0.289-0.396-0.228l-6.124,2.577l-0.035-0.115l-1.927-6.233c-0.038-0.127-0.138-0.203-0.266-0.203
				c-0.058,0-0.116,0.017-0.163,0.047l-5.583,3.602l-0.056-0.107l-2.98-5.803c-0.059-0.114-0.17-0.155-0.254-0.155
				c-0.073,0-0.139,0.026-0.195,0.077l-4.872,4.516l-4.014-5.293c-0.101-0.133-0.354-0.133-0.455,0l-4.015,5.294l-4.874-4.516
				c-0.054-0.051-0.119-0.077-0.193-0.077c-0.084,0-0.196,0.041-0.254,0.155L147.4,7.979l-5.584-3.602
				c-0.046-0.031-0.105-0.047-0.162-0.047c-0.127,0-0.227,0.076-0.267,0.203l-1.962,6.348l-6.124-2.577
				c-0.141-0.058-0.366,0.005-0.394,0.228l-0.831,6.593l-0.118-0.026l-6.361-1.448c-0.097-0.023-0.203,0.009-0.271,0.082
				c-0.053,0.056-0.081,0.131-0.077,0.21l0.328,6.636l-6.638-0.327c-0.099,0-0.18,0.036-0.237,0.106
				c-0.038,0.05-0.08,0.131-0.054,0.242l1.474,6.479l-6.593,0.83c-0.089,0.011-0.166,0.063-0.211,0.14
				c-0.044,0.078-0.05,0.171-0.016,0.254l2.577,6.124l-6.348,1.962c-0.086,0.026-0.153,0.09-0.184,0.175
				c-0.031,0.084-0.021,0.176,0.027,0.252l3.602,5.585l-5.912,3.035c-0.08,0.041-0.135,0.115-0.15,0.204
				c-0.016,0.088,0.01,0.177,0.072,0.244l4.516,4.874l-5.292,4.016c-0.072,0.054-0.114,0.138-0.114,0.228s0.041,0.172,0.113,0.227
				l5.294,4.016l-4.515,4.873c-0.063,0.066-0.088,0.156-0.073,0.245c0.016,0.088,0.071,0.163,0.151,0.204l5.912,3.036l-0.065,0.1
				l-3.537,5.484c-0.049,0.076-0.06,0.167-0.029,0.25c0.031,0.086,0.098,0.149,0.185,0.177l6.348,1.962l-2.577,6.125
				c-0.035,0.082-0.029,0.176,0.016,0.253c0.045,0.078,0.123,0.129,0.211,0.141l6.593,0.83l-1.474,6.479
				c-0.028,0.117,0.022,0.201,0.054,0.241c0.054,0.068,0.135,0.107,0.222,0.107l6.653-0.326l-0.328,6.635
				c-0.004,0.08,0.024,0.155,0.077,0.212c0.069,0.072,0.175,0.104,0.271,0.082l6.479-1.476l0.83,6.593
				c0.028,0.226,0.252,0.29,0.394,0.228l6.124-2.577l1.962,6.348c0.057,0.183,0.205,0.203,0.266,0.203
				c0.059,0,0.116-0.017,0.163-0.047l5.584-3.602l3.035,5.912c0.059,0.113,0.171,0.154,0.255,0.154c0.05,0,0.124-0.014,0.193-0.076
				L155.756,103.495z"/>
		</g>
		<path d="M160,26.253c-15.852,0-28.749,12.896-28.749,28.748S144.147,83.75,160,83.75c15.852,0,28.748-12.897,28.748-28.749
			S175.852,26.253,160,26.253z M160,82.31c-15.058,0-27.309-12.251-27.309-27.309c0-15.057,12.25-27.308,27.309-27.308
			c15.057,0,27.308,12.25,27.308,27.308S175.057,82.31,160,82.31z"/>
	</g>
	<path d="M160,100.265c-24.959,0-45.264-20.305-45.264-45.264S135.041,9.737,160,9.737c24.958,0,45.263,20.305,45.263,45.264
		S184.958,100.265,160,100.265z M160,11.045c-24.238,0-43.957,19.719-43.957,43.956S135.762,98.957,160,98.957
		c24.237,0,43.955-19.719,43.955-43.956S184.237,11.045,160,11.045z"/>
	<path d="M140.782,86.684c0,0.615,0.499,1.114,1.115,1.114s1.115-0.499,1.115-1.114c0-0.617-0.5-1.116-1.115-1.116
		S140.782,86.066,140.782,86.684z"/>
	<path d="M177.057,86.945c0,0.615,0.501,1.115,1.115,1.115c0.617,0,1.116-0.499,1.116-1.115s-0.499-1.115-1.116-1.115
		C177.558,85.83,177.057,86.329,177.057,86.945z"/>
	<g>
		<path d="M136.828,79.96c0.031-0.073,0.025-0.146-0.018-0.223c-0.043-0.074-0.13-0.173-0.263-0.295
			c-0.011-0.011-0.007-0.028,0.015-0.052c0.021-0.022,0.038-0.029,0.049-0.019c0.125,0.115,0.223,0.208,0.294,0.28l0.428,0.404
			l0.427,0.382c0.078,0.063,0.182,0.155,0.31,0.273c0.012,0.011,0.007,0.027-0.014,0.051s-0.038,0.03-0.05,0.02
			c-0.133-0.122-0.239-0.201-0.317-0.237c-0.079-0.036-0.155-0.036-0.231-0.002c-0.076,0.035-0.167,0.112-0.274,0.229l-2.492,2.715
			c-0.107,0.116-0.174,0.213-0.201,0.29c-0.027,0.076-0.02,0.152,0.021,0.229c0.041,0.077,0.128,0.177,0.261,0.299
			c0.012,0.011,0.007,0.028-0.015,0.051c-0.022,0.023-0.038,0.03-0.05,0.02l-0.299-0.285c-0.164-0.166-0.302-0.299-0.411-0.399
			c-0.121-0.111-0.27-0.242-0.45-0.393l-0.298-0.263c-0.012-0.011-0.007-0.028,0.015-0.051c0.022-0.023,0.039-0.03,0.05-0.02
			c0.129,0.118,0.234,0.194,0.316,0.226c0.083,0.032,0.16,0.03,0.234-0.007c0.073-0.037,0.164-0.114,0.271-0.231l2.48-2.702
			C136.727,80.129,136.797,80.032,136.828,79.96z"/>
		<path d="M128.793,77.979c0.024-0.021,0.04-0.027,0.047-0.019c0.137,0.162,0.301,0.238,0.492,0.23
			c0.19-0.009,0.393-0.104,0.608-0.285l3.142-2.655c0.013-0.01,0.029-0.007,0.05,0.011c0.021,0.017,0.031,0.032,0.03,0.047
			l-0.904,5.649l2.473-2.091c0.215-0.181,0.343-0.362,0.385-0.543s-0.006-0.353-0.144-0.515c-0.007-0.007,0.002-0.021,0.026-0.043
			c0.024-0.021,0.04-0.026,0.047-0.019c0.093,0.11,0.161,0.195,0.205,0.255l0.267,0.326l0.309,0.354
			c0.059,0.062,0.14,0.153,0.243,0.275c0.01,0.012,0.003,0.027-0.021,0.049c-0.024,0.021-0.042,0.024-0.052,0.013
			c-0.147-0.175-0.317-0.262-0.511-0.261c-0.195,0-0.399,0.092-0.614,0.273l-2.661,2.249c-0.025,0.216-0.025,0.391,0.004,0.522
			c0.028,0.132,0.083,0.247,0.166,0.345c0.007,0.008-0.002,0.022-0.026,0.043c-0.024,0.021-0.04,0.026-0.046,0.019l-0.2-0.249
			c-0.041-0.056-0.102-0.133-0.184-0.229l-0.335-0.384c-0.045-0.045-0.097-0.103-0.155-0.171c-0.028-0.033-0.04-0.064-0.037-0.094
			c0.002-0.03,0.014-0.081,0.035-0.155l0.072-0.31l0.728-4.365l-2.152,1.817c-0.214,0.182-0.344,0.364-0.387,0.547
			c-0.044,0.183,0.001,0.353,0.135,0.511c0.007,0.009-0.002,0.022-0.026,0.043c-0.024,0.021-0.04,0.027-0.046,0.019l-0.205-0.254
			c-0.101-0.137-0.188-0.247-0.26-0.332c-0.068-0.081-0.165-0.188-0.289-0.318l-0.232-0.263
			C128.76,78.014,128.769,77.999,128.793,77.979z"/>
		<path d="M128.196,76.272c0.279,0.077,0.619,0.06,1.021-0.053c0.009-0.006,0.022,0.005,0.037,0.029s0.016,0.041,0.002,0.05
			c-0.188,0.089-0.429,0.206-0.722,0.352s-0.51,0.261-0.651,0.345c-0.022,0.014-0.042,0.009-0.056-0.018
			c-0.016-0.024-0.012-0.044,0.011-0.057c0.1-0.061,0.073-0.218-0.08-0.473c-0.222-0.398-0.49-0.86-0.804-1.383
			c-0.162-0.268-0.337-0.549-0.526-0.844l-0.286-0.459c-0.104-0.173-0.191-0.292-0.262-0.358c-0.07-0.065-0.146-0.089-0.229-0.071
			c-0.021,0.007-0.038-0.002-0.052-0.024s-0.011-0.039,0.007-0.051c0.149-0.07,0.371-0.186,0.666-0.344
			c0.295-0.159,0.53-0.292,0.708-0.398c0.014-0.008,0.028,0,0.043,0.025c0.015,0.025,0.017,0.044,0.006,0.057
			c-0.322,0.256-0.516,0.518-0.581,0.786c-0.065,0.268-0.011,0.545,0.162,0.831c0.077,0.128,0.145,0.215,0.204,0.263
			c0.06,0.048,0.124,0.064,0.193,0.051s0.166-0.058,0.288-0.132l3.144-1.891c0.141-0.085,0.235-0.16,0.282-0.226
			s0.058-0.146,0.031-0.241c-0.026-0.096-0.093-0.232-0.2-0.41c-0.008-0.014,0.001-0.028,0.028-0.045
			c0.027-0.017,0.045-0.018,0.054-0.004c0.096,0.159,0.168,0.285,0.219,0.38l0.329,0.563l0.327,0.527
			c0.063,0.093,0.144,0.224,0.246,0.392c0.005,0.009-0.006,0.021-0.033,0.038s-0.043,0.021-0.05,0.011
			c-0.106-0.177-0.196-0.301-0.27-0.371c-0.073-0.07-0.152-0.101-0.236-0.091c-0.083,0.01-0.193,0.057-0.33,0.138l-3.157,1.9
			c-0.118,0.07-0.198,0.134-0.238,0.189c-0.041,0.056-0.055,0.12-0.042,0.193c0.013,0.072,0.056,0.17,0.13,0.293
			C127.695,76.019,127.918,76.196,128.196,76.272z"/>
		<path d="M127.202,67.187c-0.006-0.015-0.008-0.029-0.006-0.045c0.002-0.015,0.006-0.023,0.01-0.026
			c0.392-0.108,0.742-0.229,1.049-0.359c0.039-0.018,0.07-0.021,0.093-0.015c0.024,0.008,0.044,0.033,0.063,0.077l1.354,3.177
			c0.006,0.015-0.005,0.028-0.035,0.041c-0.029,0.013-0.047,0.012-0.053-0.003c-0.071-0.166-0.134-0.281-0.191-0.348
			c-0.057-0.064-0.125-0.096-0.208-0.093s-0.197,0.036-0.342,0.099l-3.389,1.444c-0.147,0.063-0.249,0.122-0.306,0.178
			c-0.057,0.057-0.082,0.129-0.075,0.219c0.006,0.089,0.043,0.214,0.112,0.375c0.006,0.015-0.005,0.028-0.034,0.041
			c-0.029,0.012-0.047,0.012-0.053-0.004l-1.298-3.045c-0.021-0.049-0.008-0.082,0.036-0.101l0.945-0.421
			c0.009-0.004,0.023,0.007,0.039,0.031c0.017,0.024,0.019,0.043,0.006,0.054c-0.506,0.354-0.64,0.812-0.401,1.373l0.125,0.293
			c0.074,0.176,0.16,0.287,0.254,0.333s0.218,0.036,0.369-0.028l1.493-0.636l-0.299-0.702c-0.229-0.537-0.524-0.728-0.885-0.574
			c-0.015,0.007-0.028-0.005-0.039-0.031c-0.011-0.027-0.009-0.043,0.005-0.05l0.64-0.265l0.341-0.153
			c0.152-0.076,0.276-0.136,0.374-0.177c0.009-0.005,0.021,0.008,0.033,0.037c0.013,0.029,0.014,0.046,0.004,0.051
			c-0.42,0.179-0.513,0.541-0.28,1.088l0.296,0.695l1.662-0.708c0.161-0.068,0.26-0.147,0.297-0.235
			c0.038-0.088,0.023-0.21-0.044-0.366l-0.152-0.358c-0.279-0.654-0.772-0.934-1.482-0.839
			C127.219,67.215,127.21,67.206,127.202,67.187z"/>
		<path d="M126.673,60.906c0.03-0.008,0.048-0.004,0.052,0.012l0.327,1.237c0.031,0.119-0.116,0.393-0.441,0.82
			c-0.325,0.43-0.797,0.97-1.416,1.621c0.041,0.11,0.069,0.196,0.085,0.258c0.03,0.112,0.06,0.247,0.09,0.403l1.716-0.452
			c0.159-0.042,0.271-0.087,0.335-0.134c0.064-0.047,0.099-0.114,0.104-0.2c0.005-0.087-0.016-0.217-0.062-0.392
			c-0.003-0.01,0.011-0.02,0.042-0.027c0.03-0.008,0.047-0.007,0.05,0.004c0.045,0.169,0.078,0.301,0.096,0.395l0.143,0.57
			l0.154,0.553c0.031,0.096,0.069,0.229,0.113,0.397c0.004,0.016-0.009,0.027-0.04,0.035s-0.048,0.005-0.052-0.011
			c-0.046-0.174-0.093-0.298-0.139-0.37c-0.046-0.073-0.11-0.115-0.193-0.126c-0.083-0.012-0.201,0.004-0.354,0.044l-3.562,0.941
			c-0.153,0.04-0.263,0.084-0.327,0.132c-0.064,0.047-0.1,0.115-0.106,0.205c-0.007,0.09,0.012,0.219,0.057,0.388
			c0.002,0.01-0.012,0.02-0.042,0.027c-0.031,0.008-0.047,0.008-0.05-0.003l-0.098-0.402c-0.049-0.228-0.093-0.411-0.129-0.55
			c-0.045-0.169-0.102-0.353-0.17-0.548c-0.022-0.065-0.049-0.145-0.079-0.238c-0.03-0.093-0.061-0.199-0.092-0.317
			c-0.119-0.446-0.123-0.814-0.012-1.104c0.11-0.29,0.322-0.476,0.634-0.559c0.283-0.074,0.557-0.063,0.824,0.033
			c0.267,0.098,0.502,0.259,0.704,0.485c0.51-0.584,0.901-1.063,1.176-1.438c0.274-0.374,0.46-0.69,0.56-0.95
			c0.099-0.259,0.121-0.493,0.065-0.704C126.629,60.927,126.643,60.915,126.673,60.906z M125.075,64.859
			c-0.088-0.334-0.234-0.55-0.439-0.649c-0.204-0.1-0.492-0.101-0.861-0.004c-0.415,0.11-0.687,0.257-0.813,0.441
			c-0.127,0.185-0.155,0.41-0.085,0.677c0.052,0.2,0.127,0.332,0.224,0.397c0.096,0.065,0.242,0.071,0.438,0.021l1.623-0.429
			C125.15,65.185,125.121,65.033,125.075,64.859z"/>
		<path d="M121.302,55.748c0.032-0.003,0.048,0.001,0.049,0.012c0.02,0.211,0.11,0.368,0.271,0.47
			c0.161,0.104,0.382,0.142,0.661,0.115l4.096-0.376c0.016-0.002,0.027,0.011,0.036,0.036c0.007,0.026,0.007,0.045-0.002,0.056
			l-3.977,4.114l3.225-0.297c0.28-0.025,0.488-0.101,0.626-0.225c0.138-0.125,0.196-0.293,0.178-0.504
			c-0.001-0.011,0.014-0.018,0.046-0.021s0.048,0,0.049,0.011c0.014,0.143,0.021,0.252,0.022,0.325l0.031,0.422l0.051,0.466
			c0.013,0.084,0.026,0.206,0.041,0.364c0.001,0.016-0.014,0.025-0.045,0.028c-0.032,0.002-0.049-0.004-0.05-0.02
			c-0.021-0.227-0.11-0.396-0.27-0.507c-0.159-0.11-0.379-0.152-0.659-0.127l-3.47,0.319c-0.145,0.162-0.244,0.306-0.296,0.431
			c-0.053,0.125-0.073,0.25-0.062,0.377c0.001,0.011-0.014,0.018-0.046,0.021s-0.048-0.001-0.049-0.012l-0.021-0.317
			c0-0.069-0.007-0.167-0.019-0.294l-0.054-0.507c-0.011-0.063-0.021-0.139-0.029-0.229c-0.004-0.043,0.004-0.075,0.023-0.098
			c0.02-0.023,0.059-0.06,0.118-0.107l0.236-0.214l3.097-3.161l-2.804,0.258c-0.28,0.026-0.49,0.102-0.63,0.226
			c-0.141,0.125-0.202,0.29-0.183,0.497c0.001,0.01-0.014,0.017-0.046,0.021c-0.032,0.002-0.048-0.002-0.049-0.012l-0.022-0.325
			c-0.005-0.17-0.013-0.311-0.023-0.422c-0.009-0.105-0.027-0.248-0.055-0.427l-0.04-0.348
			C121.254,55.758,121.27,55.751,121.302,55.748z"/>
		<path d="M126.599,49.524c0.032,0.002,0.047,0.017,0.044,0.043c-0.007,0.1-0.025,0.261-0.053,0.483
			c-0.027,0.221-0.046,0.382-0.054,0.483c-0.01,0.132-0.017,0.289-0.021,0.469c-0.003,0.18-0.009,0.321-0.017,0.421
			c-0.002,0.021-0.018,0.031-0.05,0.028c-0.032-0.002-0.048-0.014-0.045-0.035c0.012-0.153,0.003-0.267-0.025-0.341
			c-0.029-0.074-0.083-0.114-0.162-0.12c-0.08-0.007-0.218,0.028-0.416,0.103l-1.269,0.508l-0.15,1.919l0.827,0.447
			c0.153,0.082,0.293,0.127,0.42,0.137c0.186,0.014,0.331-0.041,0.436-0.166c0.105-0.125,0.167-0.307,0.187-0.544
			c0.002-0.026,0.019-0.039,0.051-0.036c0.031,0.002,0.046,0.017,0.044,0.043c-0.008,0.095-0.023,0.232-0.049,0.411
			c-0.025,0.2-0.044,0.375-0.056,0.522c-0.011,0.143-0.019,0.31-0.023,0.5c-0.002,0.17-0.008,0.311-0.017,0.422
			c-0.002,0.026-0.02,0.039-0.051,0.036c-0.032-0.002-0.047-0.017-0.044-0.043c0.011-0.148-0.007-0.274-0.059-0.38
			c-0.05-0.104-0.146-0.21-0.29-0.317c-0.144-0.107-0.358-0.238-0.644-0.394l-3.707-2.005c-0.015-0.011-0.021-0.036-0.019-0.073
			c0.003-0.037,0.013-0.057,0.029-0.061l4.07-1.638c0.396-0.155,0.667-0.29,0.817-0.403s0.23-0.242,0.242-0.384
			C126.551,49.534,126.567,49.522,126.599,49.524z M124.192,53.383l0.135-1.737l-1.919,0.769L124.192,53.383z"/>
		<path d="M122.379,48.256c0.148,0.249,0.407,0.471,0.776,0.667c0.01,0.002,0.012,0.018,0.006,0.046
			c-0.006,0.028-0.018,0.041-0.033,0.038c-0.197-0.066-0.452-0.148-0.764-0.245c-0.313-0.097-0.549-0.164-0.709-0.2
			c-0.026-0.006-0.036-0.023-0.03-0.051c0.007-0.028,0.023-0.04,0.049-0.034c0.114,0.025,0.203-0.107,0.268-0.396
			c0.116-0.441,0.239-0.96,0.373-1.555c0.068-0.306,0.136-0.63,0.202-0.974l0.11-0.529c0.044-0.197,0.063-0.343,0.058-0.44
			c-0.006-0.096-0.045-0.166-0.116-0.209c-0.02-0.01-0.027-0.027-0.021-0.054c0.006-0.025,0.02-0.036,0.04-0.032
			c0.157,0.051,0.396,0.122,0.72,0.21c0.322,0.088,0.584,0.155,0.786,0.2c0.016,0.004,0.021,0.02,0.014,0.048
			c-0.007,0.029-0.018,0.043-0.035,0.045c-0.41-0.038-0.731,0.019-0.963,0.167c-0.231,0.149-0.384,0.387-0.457,0.713
			c-0.033,0.145-0.043,0.255-0.033,0.332c0.01,0.075,0.045,0.132,0.104,0.169c0.06,0.038,0.159,0.072,0.299,0.104l3.579,0.802
			c0.161,0.036,0.281,0.047,0.36,0.032c0.08-0.015,0.143-0.066,0.189-0.153s0.093-0.232,0.138-0.434
			c0.003-0.016,0.021-0.021,0.052-0.013s0.045,0.019,0.041,0.034c-0.04,0.181-0.075,0.323-0.103,0.425l-0.151,0.635l-0.128,0.608
			c-0.019,0.109-0.05,0.26-0.093,0.452c-0.002,0.01-0.019,0.012-0.05,0.005c-0.031-0.007-0.045-0.016-0.043-0.025
			c0.045-0.202,0.066-0.354,0.062-0.456c-0.005-0.101-0.041-0.178-0.108-0.228c-0.067-0.05-0.179-0.093-0.334-0.128l-3.595-0.805
			c-0.135-0.03-0.236-0.04-0.303-0.028c-0.068,0.013-0.123,0.049-0.164,0.11c-0.042,0.062-0.077,0.162-0.109,0.302
			C122.192,47.727,122.23,48.009,122.379,48.256z"/>
		<path d="M128.092,43.33c0.08,0,0.144-0.036,0.196-0.104c0.053-0.069,0.108-0.188,0.167-0.359c0.005-0.015,0.023-0.017,0.053-0.007
			c0.03,0.011,0.042,0.023,0.037,0.038c-0.056,0.161-0.103,0.288-0.141,0.381l-0.201,0.554l-0.181,0.543
			c-0.028,0.097-0.071,0.228-0.129,0.394c-0.005,0.015-0.022,0.018-0.052,0.007c-0.03-0.011-0.043-0.023-0.037-0.039
			c0.06-0.17,0.09-0.298,0.092-0.385c0.002-0.086-0.027-0.157-0.09-0.212c-0.063-0.055-0.168-0.109-0.318-0.162l-3.48-1.21
			c-0.15-0.052-0.266-0.076-0.346-0.07c-0.081,0.006-0.148,0.042-0.203,0.111c-0.055,0.068-0.112,0.187-0.171,0.357
			c-0.005,0.015-0.022,0.017-0.052,0.007c-0.031-0.01-0.043-0.023-0.038-0.038l0.144-0.388c0.086-0.217,0.155-0.396,0.204-0.536
			c0.054-0.155,0.114-0.344,0.181-0.569l0.123-0.378c0.005-0.015,0.022-0.017,0.052-0.007c0.031,0.01,0.043,0.023,0.038,0.038
			c-0.058,0.165-0.085,0.292-0.082,0.38c0.003,0.088,0.036,0.159,0.099,0.211c0.064,0.053,0.169,0.105,0.32,0.158l3.464,1.206
			C127.896,43.304,128.013,43.331,128.092,43.33z"/>
		<path d="M129.067,40.94c-0.379,0.241-0.792,0.366-1.239,0.376c-0.447,0.01-0.879-0.089-1.297-0.298
			c-0.488-0.245-0.845-0.578-1.07-1c-0.225-0.421-0.328-0.869-0.31-1.343c0.018-0.474,0.128-0.914,0.33-1.317
			c0.226-0.45,0.529-0.793,0.912-1.029c0.382-0.236,0.792-0.358,1.229-0.368c0.438-0.009,0.852,0.084,1.241,0.279
			c0.431,0.216,0.771,0.528,1.017,0.936c0.247,0.409,0.378,0.856,0.396,1.342c0.017,0.486-0.086,0.953-0.309,1.398
			C129.745,40.358,129.445,40.7,129.067,40.94z M130.068,38.709c-0.041-0.302-0.179-0.594-0.412-0.874
			c-0.232-0.28-0.557-0.523-0.969-0.73c-0.437-0.218-0.864-0.341-1.283-0.371c-0.418-0.029-0.792,0.042-1.121,0.213
			s-0.583,0.436-0.764,0.796c-0.23,0.46-0.245,0.899-0.042,1.318s0.596,0.774,1.178,1.067c0.451,0.226,0.897,0.355,1.336,0.389
			c0.44,0.034,0.829-0.03,1.167-0.189c0.339-0.16,0.59-0.406,0.757-0.738C130.059,39.306,130.109,39.012,130.068,38.709z"/>
		<path d="M130.776,29.515c0.026,0.019,0.036,0.033,0.029,0.042c-0.127,0.17-0.165,0.347-0.113,0.53
			c0.051,0.185,0.19,0.36,0.416,0.528l3.299,2.457c0.013,0.009,0.013,0.027,0.001,0.05c-0.012,0.025-0.024,0.039-0.039,0.041
			l-5.707,0.403l2.597,1.935c0.226,0.167,0.431,0.251,0.617,0.251c0.186,0,0.341-0.086,0.468-0.256
			c0.007-0.009,0.023-0.004,0.048,0.015c0.026,0.02,0.035,0.033,0.029,0.042c-0.086,0.115-0.153,0.2-0.201,0.257l-0.258,0.333
			l-0.274,0.381c-0.047,0.071-0.117,0.171-0.212,0.298c-0.009,0.013-0.027,0.009-0.053-0.009c-0.025-0.019-0.033-0.035-0.023-0.048
			c0.136-0.183,0.182-0.368,0.137-0.557c-0.045-0.189-0.18-0.367-0.405-0.535l-2.795-2.082c-0.216,0.024-0.386,0.065-0.508,0.123
			s-0.222,0.138-0.297,0.24c-0.007,0.009-0.022,0.003-0.048-0.016c-0.025-0.02-0.035-0.033-0.029-0.042l0.197-0.25
			c0.045-0.052,0.106-0.129,0.182-0.231l0.297-0.413c0.034-0.054,0.078-0.118,0.132-0.19c0.025-0.034,0.053-0.053,0.082-0.057
			c0.03-0.004,0.083-0.005,0.16-0.001l0.318-0.001l4.417-0.282l-2.259-1.683c-0.226-0.167-0.432-0.252-0.62-0.253
			c-0.188-0.001-0.344,0.082-0.468,0.248c-0.006,0.009-0.022,0.003-0.048-0.016c-0.024-0.019-0.034-0.033-0.028-0.042l0.202-0.256
			c0.11-0.13,0.198-0.24,0.265-0.329c0.063-0.085,0.145-0.203,0.244-0.354l0.203-0.286
			C130.735,29.491,130.751,29.496,130.776,29.515z"/>
		<path d="M138.876,28.423c0.022,0.023,0.023,0.044,0.004,0.063c-0.073,0.069-0.193,0.178-0.362,0.324
			c-0.168,0.146-0.29,0.253-0.362,0.323c-0.096,0.092-0.206,0.204-0.329,0.336c-0.124,0.132-0.222,0.233-0.295,0.302
			c-0.015,0.015-0.034,0.01-0.056-0.013c-0.022-0.023-0.025-0.042-0.01-0.057c0.111-0.106,0.181-0.196,0.209-0.271
			c0.028-0.074,0.015-0.14-0.04-0.198c-0.055-0.058-0.181-0.124-0.378-0.2l-1.283-0.47l-1.394,1.329l0.316,0.886
			c0.06,0.163,0.134,0.29,0.222,0.382c0.128,0.135,0.273,0.19,0.435,0.168c0.162-0.022,0.329-0.116,0.502-0.281
			c0.019-0.018,0.04-0.016,0.062,0.007c0.022,0.023,0.023,0.044,0.004,0.062c-0.069,0.066-0.173,0.158-0.311,0.274
			c-0.153,0.132-0.283,0.249-0.391,0.352c-0.104,0.098-0.221,0.218-0.352,0.357c-0.116,0.125-0.214,0.226-0.295,0.302
			c-0.019,0.019-0.039,0.016-0.062-0.007c-0.022-0.023-0.023-0.044-0.004-0.063c0.108-0.103,0.178-0.209,0.21-0.322
			c0.033-0.111,0.032-0.255-0.003-0.43c-0.036-0.175-0.107-0.417-0.216-0.723l-1.419-3.968c-0.003-0.019,0.008-0.042,0.036-0.067
			c0.027-0.025,0.048-0.035,0.063-0.026l4.123,1.5c0.398,0.148,0.69,0.23,0.878,0.246c0.187,0.016,0.333-0.026,0.437-0.125
			C138.833,28.398,138.854,28.4,138.876,28.423z M134.507,29.687l1.261-1.203l-1.941-0.71L134.507,29.687z"/>
		<path d="M139.86,27.026c0.083,0.117,0.152,0.195,0.208,0.232c0.056,0.038,0.119,0.046,0.187,0.024
			c0.069-0.022,0.166-0.079,0.292-0.167l0.39-0.275c0.308-0.217,0.507-0.486,0.599-0.807s0.07-0.651-0.066-0.991
			c-0.005-0.016,0.004-0.03,0.027-0.044c0.023-0.013,0.04-0.013,0.05,0c0.249,0.436,0.467,0.787,0.657,1.056
			c0.024,0.035,0.035,0.064,0.033,0.088c-0.002,0.024-0.022,0.05-0.062,0.078l-3.042,2.147c-0.008,0.007-0.022-0.004-0.041-0.03
			c-0.018-0.026-0.023-0.042-0.015-0.048c0.147-0.104,0.247-0.191,0.299-0.26c0.051-0.069,0.067-0.143,0.046-0.223
			c-0.02-0.08-0.076-0.185-0.168-0.315l-2.125-3.009c-0.092-0.13-0.171-0.217-0.237-0.261c-0.067-0.044-0.144-0.054-0.23-0.029
			c-0.085,0.025-0.201,0.088-0.343,0.189c-0.008,0.006-0.022-0.004-0.04-0.03c-0.019-0.026-0.023-0.042-0.015-0.048l0.337-0.228
			c0.196-0.125,0.355-0.232,0.477-0.317c0.129-0.092,0.287-0.209,0.471-0.353l0.32-0.236c0.014-0.009,0.029,0,0.047,0.025
			c0.019,0.026,0.021,0.043,0.008,0.052c-0.144,0.101-0.24,0.187-0.291,0.258c-0.05,0.072-0.065,0.147-0.044,0.227
			c0.021,0.08,0.077,0.184,0.169,0.315L139.86,27.026z"/>
		<path d="M145.958,24.213c-0.075,0.026-0.169,0.063-0.284,0.106c-0.114,0.044-0.241,0.097-0.382,0.158l-0.514,0.233
			c-0.091,0.045-0.218,0.104-0.384,0.176c-0.009,0.004-0.021-0.008-0.034-0.038c-0.012-0.029-0.014-0.046-0.004-0.05
			c0.165-0.072,0.281-0.137,0.345-0.195c0.065-0.057,0.096-0.127,0.095-0.21c-0.002-0.083-0.035-0.198-0.098-0.344l-1.475-3.376
			c-0.063-0.146-0.124-0.247-0.18-0.303c-0.057-0.057-0.13-0.081-0.219-0.074c-0.09,0.007-0.215,0.045-0.375,0.116
			c-0.01,0.004-0.021-0.008-0.034-0.037s-0.014-0.046-0.005-0.05l0.39-0.162c0.218-0.083,0.39-0.153,0.517-0.208
			c0.195-0.085,0.388-0.178,0.581-0.28c0.239-0.116,0.399-0.192,0.483-0.228c0.496-0.216,0.978-0.311,1.447-0.284
			c0.469,0.027,0.882,0.162,1.24,0.405c0.358,0.243,0.628,0.574,0.811,0.992c0.206,0.472,0.278,0.936,0.218,1.394
			c-0.061,0.457-0.233,0.865-0.516,1.224s-0.646,0.634-1.088,0.827C146.342,24.072,146.164,24.141,145.958,24.213z M147.145,23.261
			c0.19-0.274,0.29-0.6,0.299-0.977c0.008-0.377-0.082-0.784-0.273-1.222c-0.183-0.418-0.417-0.766-0.703-1.043
			s-0.598-0.459-0.937-0.545c-0.339-0.087-0.676-0.057-1.011,0.09c-0.204,0.089-0.357,0.17-0.458,0.243
			c-0.102,0.073-0.163,0.153-0.185,0.241c-0.023,0.088-0.004,0.2,0.055,0.336l1.433,3.281c0.087,0.199,0.2,0.319,0.339,0.36
			s0.357-0.004,0.654-0.134C146.692,23.745,146.955,23.535,147.145,23.261z"/>
		<path d="M150.736,22.118c-0.429-0.132-0.792-0.365-1.09-0.699c-0.298-0.333-0.502-0.728-0.614-1.18
			c-0.131-0.531-0.108-1.018,0.066-1.463c0.175-0.444,0.449-0.814,0.822-1.108c0.373-0.293,0.778-0.494,1.216-0.602
			c0.489-0.12,0.947-0.111,1.375,0.026c0.427,0.138,0.786,0.371,1.077,0.698c0.291,0.327,0.488,0.702,0.592,1.124
			c0.116,0.469,0.098,0.929-0.053,1.382c-0.151,0.452-0.406,0.843-0.765,1.171s-0.78,0.552-1.264,0.671
			C151.618,22.258,151.164,22.25,150.736,22.118z M153.083,21.435c0.204-0.228,0.336-0.521,0.398-0.881
			c0.062-0.359,0.037-0.763-0.073-1.211c-0.116-0.474-0.299-0.879-0.549-1.217c-0.249-0.337-0.545-0.576-0.888-0.715
			c-0.343-0.14-0.711-0.162-1.102-0.065c-0.5,0.123-0.844,0.397-1.031,0.823c-0.188,0.426-0.204,0.956-0.047,1.589
			c0.12,0.489,0.31,0.912,0.57,1.269c0.259,0.356,0.56,0.612,0.901,0.765c0.34,0.154,0.691,0.187,1.052,0.098
			C152.623,21.814,152.879,21.662,153.083,21.435z"/>
		<path d="M156.882,20.939c-0.458-0.198-0.815-0.483-1.074-0.857c-0.26-0.374-0.405-0.799-0.437-1.274
			c-0.034-0.509,0.068-0.967,0.307-1.377c0.238-0.41,0.583-0.737,1.035-0.982s0.965-0.388,1.542-0.426
			c0.264-0.018,0.524-0.014,0.778,0.011c0.254,0.025,0.463,0.073,0.627,0.141c0.049,0.019,0.078,0.035,0.087,0.05
			c0.009,0.016,0.019,0.057,0.028,0.125l0.174,1.042c0,0.016-0.013,0.027-0.042,0.035c-0.028,0.007-0.046,0-0.053-0.021
			c-0.134-0.326-0.358-0.618-0.673-0.876c-0.314-0.257-0.705-0.371-1.171-0.339c-0.366,0.024-0.691,0.139-0.978,0.344
			c-0.287,0.206-0.505,0.487-0.653,0.845c-0.149,0.358-0.208,0.765-0.178,1.22c0.033,0.481,0.156,0.913,0.371,1.294
			c0.214,0.382,0.501,0.675,0.864,0.879c0.362,0.205,0.768,0.292,1.218,0.261c0.228-0.016,0.404-0.053,0.526-0.115
			c0.124-0.061,0.21-0.163,0.259-0.304c0.049-0.142,0.064-0.345,0.047-0.609c-0.019-0.275-0.047-0.466-0.086-0.572
			c-0.039-0.106-0.114-0.174-0.225-0.204s-0.301-0.036-0.571-0.018c-0.032,0.002-0.049-0.018-0.052-0.06
			c-0.001-0.016,0.002-0.031,0.009-0.044c0.007-0.014,0.016-0.021,0.027-0.022c0.44-0.003,0.793-0.013,1.058-0.031
			c0.265-0.018,0.54-0.044,0.825-0.079c0.01,0,0.02,0.006,0.028,0.019c0.01,0.012,0.014,0.024,0.015,0.035
			c0.002,0.037-0.009,0.057-0.036,0.058c-0.107,0.002-0.18,0.024-0.219,0.066c-0.04,0.043-0.062,0.125-0.067,0.249
			c-0.005,0.122,0.003,0.334,0.023,0.636c0.016,0.239,0.036,0.407,0.063,0.507c0.024,0.099,0.038,0.162,0.04,0.188
			c0.002,0.032-0.002,0.053-0.012,0.064c-0.009,0.012-0.032,0.024-0.068,0.037c-0.658,0.193-1.248,0.307-1.772,0.342
			C157.867,21.217,157.339,21.138,156.882,20.939z"/>
		<path d="M168.363,17.021c0.038,0.028,0.061,0.052,0.068,0.072s0.012,0.062,0.012,0.126l-0.07,1.052
			c-0.002,0.016-0.018,0.024-0.043,0.025c-0.027,0.001-0.045-0.009-0.052-0.032c-0.068-0.452-0.22-0.811-0.454-1.079
			s-0.549-0.434-0.947-0.497c-0.383-0.061-0.74-0.02-1.072,0.124c-0.331,0.144-0.609,0.381-0.833,0.713
			c-0.226,0.333-0.375,0.737-0.45,1.214c-0.076,0.471-0.053,0.906,0.066,1.304c0.119,0.397,0.317,0.723,0.594,0.977
			c0.277,0.253,0.609,0.411,0.998,0.472c0.381,0.061,0.715,0.01,1.002-0.151c0.285-0.162,0.561-0.447,0.824-0.856
			c0.008-0.015,0.023-0.018,0.051-0.008c0.024,0.01,0.037,0.02,0.035,0.03l-0.252,0.927c-0.016,0.062-0.03,0.1-0.047,0.113
			c-0.016,0.013-0.046,0.027-0.091,0.042c-0.503,0.119-1.018,0.137-1.548,0.052c-0.561-0.089-1.045-0.274-1.449-0.556
			c-0.406-0.282-0.703-0.635-0.888-1.06s-0.238-0.885-0.159-1.382c0.078-0.493,0.276-0.913,0.594-1.259
			c0.318-0.347,0.718-0.594,1.197-0.741c0.48-0.147,0.995-0.177,1.545-0.09C167.576,16.646,168.031,16.802,168.363,17.021z"/>
		<path d="M173.662,23.634c-0.01,0.03-0.027,0.04-0.053,0.032c-0.095-0.032-0.246-0.089-0.453-0.171
			c-0.207-0.082-0.359-0.139-0.455-0.171c-0.125-0.042-0.275-0.088-0.449-0.136c-0.175-0.048-0.31-0.088-0.404-0.121
			c-0.021-0.007-0.025-0.025-0.016-0.055c0.01-0.031,0.025-0.042,0.045-0.036c0.146,0.05,0.259,0.07,0.338,0.06
			c0.08-0.009,0.131-0.052,0.156-0.127c0.026-0.075,0.027-0.218,0.003-0.427l-0.179-1.355l-1.822-0.62l-0.639,0.69
			c-0.116,0.128-0.195,0.253-0.236,0.374c-0.061,0.176-0.043,0.33,0.053,0.463c0.094,0.133,0.254,0.238,0.481,0.315
			c0.024,0.008,0.032,0.027,0.022,0.058c-0.01,0.03-0.029,0.041-0.054,0.032c-0.091-0.031-0.22-0.08-0.387-0.148
			c-0.187-0.075-0.352-0.136-0.491-0.184c-0.137-0.046-0.296-0.095-0.48-0.146c-0.164-0.045-0.299-0.085-0.404-0.121
			c-0.025-0.008-0.033-0.028-0.022-0.058c0.011-0.03,0.028-0.041,0.054-0.033c0.14,0.048,0.268,0.061,0.382,0.038
			c0.114-0.022,0.24-0.09,0.38-0.203s0.318-0.288,0.541-0.527l2.859-3.095c0.016-0.012,0.04-0.012,0.075,0
			c0.035,0.012,0.053,0.026,0.053,0.043l0.58,4.348c0.053,0.422,0.116,0.719,0.188,0.892c0.072,0.173,0.178,0.283,0.313,0.329
			C173.666,23.584,173.673,23.604,173.662,23.634z M170.52,20.346l1.65,0.561l-0.27-2.05L170.52,20.346z"/>
		<path d="M178.596,26.194c-0.015,0.028-0.029,0.038-0.043,0.031l-1.136-0.593c-0.108-0.057-0.21-0.349-0.308-0.879
			c-0.098-0.529-0.178-1.242-0.243-2.138c-0.108-0.045-0.19-0.082-0.247-0.111c-0.104-0.054-0.223-0.123-0.359-0.206l-0.822,1.572
			c-0.076,0.146-0.118,0.258-0.127,0.338c-0.009,0.079,0.018,0.15,0.078,0.211s0.171,0.134,0.331,0.218
			c0.009,0.005,0.007,0.021-0.008,0.05c-0.015,0.028-0.026,0.04-0.036,0.035c-0.155-0.081-0.274-0.146-0.355-0.194l-0.519-0.28
			l-0.512-0.258c-0.093-0.042-0.216-0.104-0.37-0.184c-0.015-0.008-0.014-0.025,0-0.054c0.016-0.028,0.029-0.039,0.044-0.031
			c0.16,0.083,0.282,0.132,0.368,0.147c0.084,0.014,0.159-0.005,0.223-0.059c0.064-0.053,0.133-0.15,0.207-0.292l1.707-3.265
			c0.073-0.141,0.114-0.251,0.123-0.331c0.008-0.079-0.019-0.152-0.08-0.217c-0.063-0.065-0.17-0.138-0.325-0.22
			c-0.01-0.005-0.007-0.021,0.008-0.05c0.015-0.028,0.027-0.04,0.036-0.035l0.363,0.199c0.201,0.118,0.366,0.209,0.493,0.276
			c0.155,0.082,0.328,0.163,0.519,0.244c0.064,0.027,0.141,0.062,0.229,0.103c0.09,0.041,0.188,0.089,0.296,0.146
			c0.409,0.214,0.684,0.459,0.823,0.736c0.14,0.276,0.136,0.558-0.015,0.845c-0.135,0.259-0.328,0.454-0.58,0.585
			c-0.252,0.132-0.529,0.196-0.832,0.193c0.088,0.771,0.177,1.383,0.269,1.838c0.091,0.455,0.199,0.806,0.325,1.054
			c0.125,0.248,0.283,0.422,0.476,0.523C178.611,26.148,178.611,26.166,178.596,26.194z M176.754,22.35
			c0.306,0.16,0.563,0.197,0.775,0.113c0.211-0.083,0.406-0.295,0.582-0.633c0.199-0.381,0.273-0.681,0.224-0.898
			c-0.051-0.218-0.198-0.391-0.442-0.519c-0.184-0.096-0.332-0.13-0.445-0.102c-0.113,0.027-0.217,0.13-0.31,0.309l-0.778,1.488
			C176.462,22.186,176.594,22.266,176.754,22.35z"/>
		<path d="M182.396,27.523c0.012,0.009,0.021,0.021,0.027,0.036s0.007,0.023,0.004,0.027c-0.279,0.295-0.518,0.578-0.713,0.849
			c-0.025,0.035-0.05,0.055-0.074,0.06c-0.023,0.006-0.055-0.005-0.093-0.034l-2.796-2.028c-0.012-0.009-0.01-0.026,0.01-0.052
			c0.018-0.026,0.034-0.034,0.047-0.024c0.146,0.106,0.26,0.172,0.343,0.199c0.081,0.027,0.157,0.018,0.226-0.027
			c0.068-0.045,0.15-0.132,0.244-0.261l2.163-2.981c0.094-0.129,0.15-0.232,0.171-0.31c0.02-0.077,0.004-0.152-0.048-0.226
			s-0.148-0.162-0.29-0.264c-0.013-0.01-0.01-0.027,0.008-0.053c0.02-0.026,0.035-0.035,0.048-0.025l2.679,1.944
			c0.043,0.031,0.051,0.066,0.023,0.105l-0.596,0.846c-0.006,0.009-0.022,0.007-0.05-0.006c-0.026-0.013-0.037-0.027-0.032-0.043
			c0.253-0.564,0.131-1.026-0.362-1.384l-0.258-0.187c-0.153-0.112-0.284-0.164-0.39-0.155c-0.104,0.01-0.205,0.081-0.301,0.213
			l-0.954,1.314l0.618,0.449c0.472,0.343,0.823,0.355,1.055,0.038c0.009-0.013,0.025-0.011,0.049,0.006s0.031,0.032,0.021,0.045
			l-0.413,0.556l-0.213,0.307c-0.091,0.144-0.168,0.258-0.23,0.344c-0.006,0.008-0.022,0.004-0.048-0.015s-0.035-0.032-0.029-0.041
			c0.269-0.369,0.162-0.729-0.319-1.078l-0.611-0.444l-1.062,1.462c-0.103,0.142-0.147,0.26-0.134,0.354
			c0.013,0.095,0.088,0.192,0.226,0.292l0.315,0.229c0.575,0.418,1.143,0.404,1.702-0.042
			C182.366,27.509,182.379,27.511,182.396,27.523z"/>
		<path d="M184.914,31.163c-0.029,0.082-0.016,0.175,0.039,0.28c0.055,0.105,0.166,0.247,0.332,0.424
			c0.012,0.012,0.006,0.028-0.018,0.051c-0.023,0.021-0.04,0.027-0.051,0.016c-0.149-0.159-0.264-0.284-0.344-0.377l-0.468-0.51
			l-0.397-0.412c-0.073-0.069-0.17-0.168-0.289-0.296c-0.012-0.012-0.006-0.028,0.018-0.05s0.04-0.027,0.051-0.015
			c0.123,0.131,0.223,0.217,0.296,0.257c0.074,0.04,0.147,0.045,0.222,0.015s0.172-0.101,0.291-0.213l2.686-2.522
			c0.115-0.109,0.191-0.2,0.225-0.272c0.034-0.072,0.033-0.148-0.001-0.228c-0.035-0.081-0.112-0.184-0.232-0.312
			c-0.012-0.011-0.005-0.028,0.019-0.05c0.023-0.021,0.04-0.027,0.051-0.015l0.277,0.307c0.152,0.177,0.277,0.318,0.375,0.422
			c0.084,0.089,0.191,0.192,0.322,0.309c0.049,0.043,0.11,0.102,0.189,0.178c0.078,0.076,0.168,0.167,0.27,0.275
			c0.36,0.383,0.563,0.762,0.609,1.136c0.047,0.375-0.098,0.721-0.434,1.037c-0.244,0.229-0.51,0.36-0.798,0.395
			c-0.288,0.034-0.567-0.007-0.835-0.122c-0.269-0.116-0.5-0.275-0.691-0.481c-0.102-0.108-0.178-0.208-0.228-0.299
			c-0.011-0.012-0.007-0.026,0.013-0.045c0.012-0.011,0.025-0.019,0.043-0.023c0.018-0.006,0.027-0.002,0.031,0.009
			c0.042,0.076,0.098,0.151,0.167,0.224c0.188,0.201,0.432,0.293,0.729,0.276c0.297-0.017,0.601-0.17,0.909-0.461
			c0.306-0.287,0.475-0.581,0.509-0.882c0.034-0.301-0.067-0.577-0.304-0.828c-0.086-0.093-0.163-0.154-0.229-0.185
			c-0.064-0.03-0.132-0.03-0.201,0c-0.071,0.029-0.162,0.097-0.273,0.203l-2.65,2.49C185.02,30.983,184.942,31.082,184.914,31.163z"
			/>
		<path d="M189.793,37.86c-0.025,0.018-0.043,0.021-0.053,0.008l-0.732-1.051c-0.07-0.101-0.025-0.408,0.133-0.922
			c0.158-0.515,0.416-1.185,0.771-2.009c-0.074-0.089-0.131-0.161-0.167-0.212c-0.066-0.096-0.141-0.212-0.224-0.349l-1.455,1.015
			c-0.135,0.094-0.225,0.174-0.269,0.24c-0.044,0.066-0.054,0.141-0.028,0.224c0.025,0.082,0.09,0.198,0.193,0.346
			c0.006,0.008-0.004,0.022-0.03,0.04c-0.026,0.019-0.042,0.023-0.048,0.014c-0.102-0.144-0.176-0.256-0.227-0.337l-0.33-0.487
			l-0.334-0.466c-0.063-0.079-0.143-0.191-0.244-0.335c-0.008-0.013,0-0.028,0.026-0.046c0.026-0.019,0.044-0.021,0.053-0.008
			c0.104,0.148,0.188,0.248,0.258,0.3c0.069,0.052,0.144,0.07,0.226,0.051c0.08-0.018,0.187-0.072,0.317-0.164l3.021-2.107
			c0.13-0.091,0.218-0.169,0.263-0.236c0.043-0.066,0.054-0.143,0.028-0.229c-0.024-0.086-0.087-0.201-0.187-0.345
			c-0.006-0.009,0.004-0.022,0.03-0.041c0.025-0.018,0.042-0.023,0.048-0.014l0.23,0.344c0.125,0.198,0.229,0.355,0.311,0.473
			c0.1,0.144,0.215,0.296,0.348,0.456c0.043,0.054,0.095,0.119,0.154,0.197c0.063,0.077,0.127,0.166,0.197,0.266
			c0.263,0.378,0.393,0.723,0.389,1.033c-0.004,0.31-0.138,0.557-0.403,0.742c-0.239,0.167-0.501,0.251-0.785,0.252
			c-0.284,0-0.56-0.07-0.828-0.213c-0.276,0.724-0.481,1.309-0.61,1.754c-0.129,0.445-0.195,0.807-0.198,1.084
			c-0.005,0.278,0.056,0.505,0.18,0.684C189.828,37.826,189.818,37.841,189.793,37.86z M189.936,33.599
			c0.197,0.283,0.409,0.436,0.635,0.459c0.227,0.023,0.496-0.075,0.811-0.293c0.352-0.246,0.557-0.477,0.612-0.693
			c0.056-0.217,0.005-0.438-0.153-0.665c-0.118-0.169-0.234-0.268-0.348-0.296c-0.112-0.028-0.252,0.016-0.417,0.131l-1.378,0.96
			C189.754,33.319,189.832,33.451,189.936,33.599z"/>
		<path d="M190.449,38.796c0.039-0.446,0.192-0.85,0.456-1.211c0.265-0.361,0.606-0.643,1.027-0.846
			c0.491-0.238,0.974-0.318,1.444-0.239s0.889,0.269,1.254,0.573c0.365,0.304,0.646,0.659,0.842,1.064
			c0.221,0.454,0.307,0.904,0.261,1.35c-0.046,0.447-0.198,0.846-0.458,1.199c-0.26,0.353-0.585,0.624-0.977,0.813
			c-0.435,0.21-0.889,0.289-1.363,0.235c-0.473-0.053-0.908-0.222-1.304-0.504c-0.397-0.282-0.702-0.648-0.921-1.097
			C190.496,39.688,190.408,39.243,190.449,38.796z M191.605,40.95c0.266,0.152,0.58,0.221,0.944,0.207s0.755-0.123,1.17-0.323
			c0.439-0.212,0.798-0.476,1.075-0.79c0.279-0.314,0.45-0.654,0.516-1.019c0.064-0.365,0.01-0.728-0.166-1.091
			c-0.225-0.463-0.564-0.742-1.02-0.837c-0.455-0.094-0.977,0-1.563,0.284c-0.455,0.22-0.83,0.494-1.123,0.822
			c-0.295,0.329-0.482,0.675-0.563,1.041c-0.079,0.366-0.037,0.715,0.124,1.049C191.139,40.58,191.342,40.798,191.605,40.95z"/>
		<path d="M196.921,45.418c-0.01,0.003-0.022-0.009-0.036-0.035c-0.014-0.026-0.014-0.045,0-0.054
			c0.54-0.301,0.719-0.743,0.539-1.325l-0.094-0.304c-0.058-0.183-0.131-0.302-0.22-0.357c-0.091-0.056-0.21-0.06-0.362-0.012
			l-1.649,0.512l0.194,0.623c0.176,0.567,0.454,0.792,0.834,0.674c0.01-0.003,0.02,0.01,0.028,0.041
			c0.01,0.031,0.01,0.047-0.001,0.051l-0.67,0.2c-0.158,0.049-0.273,0.087-0.348,0.116l-0.394,0.131
			c-0.015,0.005-0.026-0.008-0.036-0.039s-0.007-0.048,0.008-0.053c0.432-0.133,0.557-0.492,0.375-1.074l-0.188-0.608l-1.634,0.507
			c-0.162,0.051-0.273,0.107-0.334,0.17c-0.063,0.063-0.088,0.159-0.082,0.288s0.049,0.317,0.125,0.565
			c0.003,0.01-0.01,0.02-0.04,0.029c-0.031,0.009-0.048,0.009-0.051-0.001c-0.063-0.208-0.112-0.371-0.144-0.489l-0.223-0.747
			l-0.18-0.552c-0.035-0.095-0.08-0.229-0.134-0.401c-0.005-0.015,0.009-0.027,0.038-0.037c0.031-0.009,0.049-0.006,0.053,0.008
			c0.057,0.183,0.111,0.312,0.162,0.387c0.052,0.076,0.119,0.118,0.201,0.125c0.083,0.007,0.201-0.012,0.353-0.059l3.519-1.092
			c0.152-0.047,0.26-0.096,0.321-0.146c0.063-0.05,0.095-0.12,0.098-0.209c0.003-0.09-0.022-0.218-0.073-0.385
			c-0.006-0.016,0.008-0.027,0.038-0.037c0.03-0.009,0.048-0.006,0.053,0.009L197.949,45c0.016,0.05,0,0.083-0.045,0.097
			L196.921,45.418z"/>
		<path d="M195.279,50.614c0.003,0.016,0.002,0.031-0.004,0.045c-0.006,0.014-0.011,0.022-0.016,0.023
			c-0.406,0.018-0.773,0.056-1.104,0.114c-0.041,0.007-0.073,0.004-0.094-0.008c-0.021-0.012-0.036-0.042-0.045-0.089l-0.601-3.4
			c-0.003-0.016,0.011-0.026,0.042-0.032c0.032-0.005,0.049,0,0.052,0.015c0.031,0.178,0.067,0.305,0.107,0.381
			c0.041,0.077,0.102,0.123,0.182,0.138c0.081,0.015,0.2,0.009,0.356-0.019l3.629-0.642c0.156-0.028,0.268-0.063,0.336-0.104
			c0.068-0.042,0.109-0.107,0.123-0.196s0.006-0.219-0.024-0.391c-0.003-0.016,0.011-0.026,0.042-0.032
			c0.032-0.006,0.049,0,0.051,0.015l0.578,3.26c0.008,0.052-0.01,0.082-0.057,0.09l-1.018,0.196
			c-0.01,0.002-0.021-0.011-0.031-0.039c-0.01-0.028-0.008-0.045,0.008-0.054c0.572-0.23,0.807-0.646,0.699-1.247l-0.055-0.313
			c-0.033-0.188-0.091-0.315-0.173-0.382c-0.081-0.066-0.203-0.085-0.365-0.057l-1.599,0.283l0.134,0.752
			c0.102,0.574,0.345,0.828,0.731,0.759c0.017-0.003,0.026,0.01,0.031,0.039c0.006,0.029,0,0.044-0.016,0.047l-0.684,0.113
			l-0.366,0.073c-0.166,0.04-0.3,0.069-0.405,0.087c-0.01,0.002-0.018-0.013-0.023-0.044c-0.006-0.032-0.003-0.048,0.008-0.05
			c0.449-0.08,0.621-0.412,0.518-0.997l-0.131-0.744l-1.779,0.315c-0.172,0.03-0.287,0.084-0.344,0.161
			c-0.055,0.077-0.068,0.199-0.039,0.367l0.067,0.384c0.124,0.7,0.542,1.084,1.255,1.151
			C195.27,50.583,195.275,50.593,195.279,50.614z"/>
		<path d="M197.789,52.571c-0.146,0.106-0.271,0.234-0.377,0.385c-0.104,0.151-0.226,0.355-0.367,0.612
			c-0.156,0.278-0.291,0.499-0.405,0.661s-0.258,0.302-0.429,0.42c-0.173,0.118-0.377,0.182-0.615,0.194
			c-0.271,0.013-0.516-0.045-0.734-0.175s-0.395-0.32-0.526-0.571c-0.132-0.251-0.206-0.541-0.222-0.87
			c-0.012-0.223,0.006-0.453,0.053-0.692c0.046-0.238,0.107-0.421,0.188-0.547c0.029-0.049,0.078-0.079,0.146-0.087l1.205-0.108
			h0.009c0.021-0.001,0.033,0.011,0.036,0.038c0.005,0.026-0.004,0.042-0.024,0.049c-0.431,0.197-0.782,0.415-1.051,0.654
			c-0.27,0.239-0.396,0.534-0.378,0.883c0.011,0.228,0.083,0.416,0.215,0.563c0.133,0.147,0.344,0.214,0.636,0.199
			c0.233-0.012,0.434-0.073,0.604-0.185c0.169-0.112,0.309-0.247,0.418-0.403c0.108-0.157,0.242-0.369,0.397-0.637
			c0.151-0.263,0.28-0.469,0.388-0.617s0.242-0.278,0.402-0.387c0.162-0.108,0.354-0.169,0.577-0.18
			c0.275-0.013,0.513,0.051,0.71,0.195c0.199,0.145,0.352,0.337,0.456,0.579s0.164,0.498,0.178,0.768
			c0.009,0.18,0.001,0.361-0.024,0.542s-0.063,0.335-0.109,0.459c-0.027,0.081-0.076,0.124-0.145,0.127l-1.08,0.078
			c-0.016,0.001-0.027-0.013-0.033-0.042c-0.008-0.028-0.002-0.046,0.014-0.052c0.317-0.123,0.604-0.278,0.856-0.469
			c0.253-0.19,0.372-0.463,0.354-0.817c-0.012-0.238-0.091-0.425-0.235-0.558s-0.336-0.194-0.574-0.183
			C198.105,52.408,197.934,52.465,197.789,52.571z"/>
		<path d="M197.809,57.077c-0.157,0.087-0.297,0.2-0.419,0.337c-0.12,0.138-0.268,0.325-0.438,0.563
			c-0.188,0.258-0.35,0.461-0.482,0.607c-0.133,0.148-0.291,0.27-0.477,0.365c-0.186,0.097-0.396,0.136-0.635,0.119
			c-0.27-0.02-0.506-0.107-0.707-0.262c-0.201-0.155-0.354-0.366-0.453-0.631c-0.102-0.265-0.141-0.562-0.117-0.89
			c0.016-0.222,0.061-0.449,0.137-0.681c0.074-0.231,0.158-0.404,0.252-0.521c0.036-0.045,0.088-0.068,0.156-0.068l1.211,0.038
			l0.007,0.001c0.022,0.002,0.032,0.016,0.033,0.042s-0.009,0.042-0.031,0.046c-0.452,0.143-0.825,0.317-1.122,0.522
			c-0.295,0.205-0.457,0.482-0.482,0.831c-0.016,0.228,0.033,0.423,0.146,0.585c0.113,0.161,0.315,0.253,0.606,0.273
			c0.233,0.017,0.44-0.02,0.622-0.11s0.337-0.208,0.465-0.351c0.127-0.142,0.283-0.337,0.472-0.584
			c0.181-0.242,0.335-0.431,0.458-0.565c0.125-0.135,0.273-0.247,0.447-0.336c0.174-0.088,0.372-0.125,0.595-0.109
			c0.274,0.021,0.501,0.113,0.682,0.28s0.308,0.377,0.382,0.629c0.074,0.253,0.104,0.515,0.084,0.784
			c-0.014,0.18-0.043,0.358-0.09,0.536c-0.048,0.178-0.102,0.324-0.164,0.442c-0.037,0.078-0.09,0.114-0.158,0.109l-1.082-0.054
			c-0.016,0-0.025-0.016-0.027-0.046c-0.004-0.029,0.002-0.046,0.02-0.05c0.33-0.083,0.632-0.204,0.906-0.363
			c0.273-0.158,0.424-0.415,0.449-0.77c0.018-0.237-0.038-0.432-0.166-0.582c-0.127-0.15-0.31-0.233-0.549-0.251
			C198.143,56.953,197.967,56.99,197.809,57.077z"/>
		<path d="M193.961,61.257c-0.077,0.014-0.136,0.059-0.176,0.135c-0.041,0.077-0.076,0.204-0.107,0.382
			c-0.003,0.016-0.02,0.021-0.051,0.016c-0.031-0.006-0.046-0.017-0.043-0.032c0.029-0.167,0.055-0.3,0.076-0.398l0.109-0.578
			l0.092-0.565c0.012-0.101,0.033-0.237,0.063-0.409c0.002-0.017,0.02-0.021,0.051-0.017c0.031,0.007,0.045,0.017,0.043,0.032
			c-0.03,0.178-0.04,0.31-0.027,0.396c0.012,0.085,0.053,0.15,0.123,0.195c0.07,0.043,0.184,0.08,0.34,0.107l3.629,0.633
			c0.158,0.027,0.275,0.031,0.354,0.012c0.079-0.018,0.14-0.065,0.182-0.142c0.043-0.075,0.08-0.203,0.111-0.381
			c0.003-0.016,0.02-0.021,0.051-0.015s0.046,0.017,0.043,0.032l-0.079,0.406c-0.051,0.228-0.089,0.414-0.113,0.562
			c-0.028,0.162-0.058,0.358-0.087,0.59l-0.061,0.394c-0.003,0.016-0.021,0.021-0.051,0.016c-0.031-0.006-0.047-0.016-0.044-0.032
			c0.03-0.172,0.036-0.302,0.02-0.388c-0.018-0.087-0.062-0.151-0.132-0.193s-0.186-0.076-0.341-0.104l-3.614-0.629
			C194.158,61.251,194.039,61.244,193.961,61.257z"/>
		<path d="M193.379,63.76c0.332-0.301,0.719-0.494,1.158-0.579c0.438-0.086,0.881-0.061,1.328,0.075
			c0.522,0.159,0.93,0.428,1.223,0.805c0.293,0.378,0.471,0.802,0.531,1.272c0.063,0.471,0.028,0.922-0.104,1.353
			c-0.146,0.482-0.389,0.872-0.725,1.169c-0.338,0.296-0.721,0.486-1.151,0.569c-0.43,0.082-0.853,0.061-1.269-0.066
			c-0.461-0.14-0.849-0.391-1.16-0.752c-0.312-0.36-0.518-0.779-0.615-1.256c-0.1-0.477-0.077-0.953,0.068-1.431
			C192.809,64.447,193.046,64.061,193.379,63.76z M192.768,66.127c0.09,0.291,0.275,0.555,0.552,0.793
			c0.278,0.236,0.638,0.422,1.079,0.556c0.467,0.143,0.909,0.192,1.326,0.15c0.418-0.042,0.773-0.175,1.069-0.398
			s0.502-0.528,0.618-0.913c0.15-0.493,0.091-0.929-0.18-1.308c-0.27-0.379-0.717-0.662-1.341-0.853
			c-0.483-0.146-0.944-0.2-1.382-0.158c-0.44,0.041-0.813,0.168-1.119,0.383s-0.514,0.499-0.621,0.854
			C192.676,65.538,192.675,65.835,192.768,66.127z"/>
		<path d="M193.567,75.318c-0.028-0.015-0.04-0.026-0.034-0.036c0.096-0.188,0.104-0.37,0.023-0.542
			c-0.081-0.173-0.247-0.324-0.497-0.452l-3.659-1.882c-0.013-0.007-0.018-0.023-0.01-0.05s0.019-0.041,0.033-0.046l5.563-1.336
			l-2.879-1.48c-0.251-0.129-0.467-0.177-0.65-0.146c-0.183,0.03-0.322,0.141-0.42,0.329c-0.005,0.01-0.021,0.007-0.05-0.008
			s-0.04-0.026-0.035-0.036c0.065-0.128,0.117-0.223,0.155-0.286l0.201-0.372l0.207-0.421c0.034-0.077,0.088-0.188,0.16-0.329
			c0.008-0.014,0.025-0.014,0.053,0.001c0.029,0.015,0.039,0.029,0.032,0.043c-0.104,0.203-0.118,0.394-0.044,0.572
			c0.075,0.179,0.238,0.333,0.488,0.461l3.1,1.594c0.208-0.06,0.369-0.127,0.48-0.204c0.111-0.078,0.195-0.173,0.254-0.285
			c0.005-0.01,0.021-0.008,0.049,0.007c0.029,0.015,0.041,0.026,0.037,0.036l-0.152,0.279c-0.037,0.059-0.084,0.145-0.143,0.258
			l-0.226,0.457c-0.024,0.059-0.058,0.128-0.099,0.209c-0.02,0.037-0.043,0.062-0.072,0.07c-0.028,0.009-0.08,0.018-0.156,0.026
			l-0.314,0.053l-4.31,1.005l2.505,1.288c0.25,0.129,0.468,0.178,0.653,0.148c0.185-0.03,0.325-0.137,0.42-0.321
			c0.005-0.009,0.022-0.007,0.05,0.008c0.028,0.014,0.04,0.026,0.035,0.036l-0.156,0.286c-0.086,0.146-0.155,0.269-0.207,0.368
			c-0.049,0.094-0.109,0.224-0.182,0.389l-0.153,0.315C193.612,75.336,193.596,75.333,193.567,75.318z"/>
		<path d="M185.757,77.729c-0.026-0.019-0.03-0.039-0.015-0.061c0.061-0.08,0.162-0.207,0.305-0.378
			c0.142-0.172,0.244-0.298,0.304-0.379c0.079-0.106,0.169-0.234,0.27-0.385s0.181-0.266,0.241-0.347
			c0.012-0.018,0.031-0.016,0.057,0.004c0.025,0.019,0.032,0.036,0.02,0.054c-0.093,0.122-0.146,0.224-0.162,0.301
			c-0.016,0.078,0.008,0.142,0.072,0.188c0.063,0.049,0.199,0.094,0.406,0.137l1.342,0.252l1.156-1.539l-0.457-0.822
			c-0.086-0.15-0.18-0.264-0.281-0.34c-0.148-0.111-0.301-0.144-0.456-0.095c-0.156,0.049-0.306,0.169-0.448,0.359
			c-0.018,0.021-0.037,0.022-0.063,0.004c-0.024-0.02-0.03-0.04-0.015-0.062c0.059-0.076,0.145-0.183,0.262-0.321
			c0.13-0.154,0.238-0.291,0.328-0.41c0.086-0.114,0.182-0.251,0.289-0.41c0.093-0.143,0.174-0.258,0.24-0.347
			c0.016-0.021,0.037-0.022,0.062-0.004c0.026,0.02,0.03,0.039,0.015,0.062c-0.089,0.118-0.141,0.235-0.154,0.352
			c-0.014,0.115,0.011,0.257,0.074,0.424s0.174,0.394,0.332,0.678l2.051,3.681c0.007,0.019-0.002,0.042-0.023,0.072
			c-0.021,0.029-0.041,0.042-0.059,0.036l-4.313-0.803c-0.416-0.081-0.719-0.114-0.906-0.099s-0.324,0.08-0.41,0.194
			C185.803,77.747,185.781,77.748,185.757,77.729z M189.859,75.766l-1.047,1.393l2.032,0.383L189.859,75.766z"/>
		<path d="M185.014,79.268c-0.1-0.102-0.182-0.167-0.242-0.195c-0.063-0.029-0.125-0.026-0.189,0.007s-0.15,0.104-0.26,0.212
			l-0.34,0.336c-0.268,0.264-0.421,0.563-0.459,0.895c-0.037,0.331,0.038,0.653,0.227,0.966c0.008,0.016,0.002,0.031-0.02,0.048
			s-0.036,0.02-0.048,0.008c-0.316-0.388-0.591-0.699-0.821-0.934c-0.029-0.03-0.046-0.058-0.047-0.081
			c-0.002-0.025,0.015-0.054,0.049-0.088l2.65-2.615c0.008-0.008,0.021,0,0.045,0.022c0.022,0.022,0.029,0.038,0.021,0.046
			c-0.128,0.126-0.213,0.228-0.252,0.305c-0.039,0.076-0.043,0.152-0.01,0.228c0.033,0.076,0.105,0.17,0.217,0.283l2.588,2.622
			c0.112,0.113,0.204,0.186,0.277,0.219c0.073,0.032,0.15,0.028,0.231-0.01c0.08-0.039,0.183-0.12,0.308-0.242
			c0.008-0.008,0.022,0,0.045,0.022s0.03,0.037,0.022,0.045l-0.295,0.279c-0.173,0.156-0.313,0.287-0.419,0.391
			c-0.113,0.112-0.249,0.254-0.408,0.426l-0.277,0.284c-0.012,0.011-0.028,0.006-0.051-0.018c-0.022-0.021-0.027-0.039-0.017-0.05
			c0.125-0.123,0.206-0.224,0.243-0.303c0.039-0.079,0.041-0.155,0.008-0.23s-0.105-0.169-0.217-0.282L185.014,79.268z"/>
	</g>
	<g>
		<path d="M148.952,92.404c0.003,0.1,0.05,0.181,0.138,0.244s0.241,0.129,0.458,0.197c0.019,0.007,0.022,0.029,0.01,0.067
			s-0.028,0.054-0.047,0.048c-0.205-0.064-0.366-0.12-0.484-0.164l-0.705-0.234l-0.691-0.21c-0.123-0.032-0.29-0.081-0.5-0.148
			c-0.02-0.006-0.023-0.028-0.011-0.066s0.028-0.055,0.047-0.048c0.216,0.068,0.379,0.103,0.488,0.103
			c0.109-0.001,0.197-0.041,0.265-0.122c0.067-0.079,0.131-0.216,0.192-0.406l1.407-4.428c0.061-0.19,0.086-0.337,0.076-0.438
			s-0.059-0.186-0.146-0.252c-0.087-0.066-0.24-0.135-0.456-0.203c-0.02-0.007-0.023-0.028-0.011-0.066s0.028-0.054,0.047-0.049
			l0.495,0.168c0.276,0.102,0.504,0.181,0.683,0.238c0.197,0.063,0.438,0.132,0.723,0.209l0.481,0.143
			c0.02,0.006,0.022,0.027,0.01,0.065c-0.012,0.039-0.027,0.055-0.047,0.049c-0.21-0.067-0.371-0.097-0.482-0.09
			s-0.199,0.051-0.263,0.132c-0.065,0.082-0.127,0.218-0.188,0.409l-1.401,4.407C148.979,92.156,148.949,92.305,148.952,92.404z"/>
		<path d="M153.808,93.926c-0.099-0.021-0.224-0.045-0.375-0.072c-0.152-0.027-0.323-0.055-0.515-0.081l-0.707-0.088
			c-0.127-0.011-0.303-0.031-0.528-0.063c-0.014-0.002-0.018-0.022-0.012-0.063c0.005-0.04,0.015-0.059,0.028-0.057
			c0.225,0.03,0.392,0.036,0.499,0.019c0.107-0.02,0.188-0.074,0.24-0.165s0.093-0.235,0.121-0.434l0.635-4.602
			c0.027-0.199,0.03-0.348,0.006-0.444c-0.023-0.099-0.086-0.173-0.187-0.224c-0.101-0.051-0.261-0.093-0.479-0.122
			c-0.014-0.003-0.018-0.022-0.012-0.063s0.015-0.059,0.028-0.057l0.526,0.082c0.289,0.054,0.521,0.092,0.693,0.116
			c0.265,0.036,0.535,0.063,0.809,0.081c0.333,0.032,0.555,0.057,0.668,0.072c0.676,0.094,1.257,0.309,1.744,0.646
			c0.486,0.338,0.843,0.755,1.068,1.251c0.225,0.497,0.298,1.031,0.219,1.601c-0.088,0.643-0.316,1.19-0.683,1.643
			s-0.819,0.778-1.36,0.977c-0.541,0.198-1.113,0.257-1.715,0.174C154.313,94.026,154.076,93.983,153.808,93.926z M155.71,93.682
			c0.385-0.169,0.706-0.454,0.964-0.854c0.257-0.399,0.427-0.897,0.51-1.494c0.078-0.569,0.055-1.098-0.07-1.584
			c-0.125-0.486-0.342-0.888-0.649-1.203c-0.308-0.316-0.69-0.506-1.146-0.569c-0.279-0.038-0.496-0.052-0.653-0.039
			c-0.157,0.012-0.277,0.058-0.358,0.138c-0.082,0.079-0.136,0.212-0.162,0.397l-0.618,4.473c-0.037,0.271,0.006,0.476,0.128,0.61
			c0.123,0.135,0.387,0.23,0.792,0.286C154.904,93.905,155.325,93.852,155.71,93.682z"/>
		<path d="M165.549,88.053c0.056,0.021,0.091,0.045,0.106,0.066c0.015,0.022,0.032,0.073,0.052,0.151l0.225,1.312
			c0.002,0.02-0.014,0.034-0.047,0.044c-0.033,0.009-0.057,0.001-0.073-0.024c-0.216-0.533-0.507-0.93-0.873-1.189
			s-0.803-0.369-1.309-0.329c-0.487,0.037-0.913,0.194-1.276,0.468c-0.365,0.273-0.635,0.647-0.813,1.121
			c-0.178,0.473-0.242,1.014-0.194,1.62c0.048,0.601,0.202,1.126,0.467,1.578c0.264,0.453,0.603,0.793,1.017,1.022
			c0.414,0.229,0.867,0.324,1.361,0.285c0.486-0.039,0.881-0.199,1.185-0.481c0.303-0.282,0.556-0.713,0.758-1.292
			c0.006-0.021,0.024-0.029,0.059-0.025c0.034,0.005,0.052,0.014,0.052,0.026l-0.035,1.211c0,0.08-0.008,0.131-0.022,0.152
			c-0.016,0.021-0.049,0.048-0.101,0.078c-0.58,0.294-1.207,0.468-1.88,0.521c-0.714,0.057-1.361-0.028-1.942-0.254
			c-0.582-0.226-1.049-0.571-1.4-1.037c-0.352-0.465-0.553-1.015-0.603-1.647c-0.05-0.627,0.07-1.2,0.357-1.72
			c0.287-0.519,0.704-0.939,1.249-1.261s1.167-0.51,1.867-0.565C164.475,87.825,165.08,87.881,165.549,88.053z"/>
		<path d="M170.389,92.73c0.074,0.08,0.186,0.12,0.336,0.119c0.148-0.001,0.372-0.043,0.668-0.127
			c0.02-0.006,0.035,0.011,0.045,0.05c0.012,0.038,0.008,0.061-0.012,0.066c-0.264,0.074-0.471,0.13-0.621,0.165l-0.843,0.229
			l-0.692,0.207c-0.119,0.041-0.285,0.092-0.498,0.151c-0.02,0.006-0.035-0.011-0.046-0.05c-0.011-0.038-0.007-0.061,0.013-0.065
			c0.219-0.063,0.371-0.123,0.459-0.183s0.137-0.139,0.146-0.239c0.01-0.1-0.014-0.25-0.07-0.449l-1.268-4.469
			c-0.055-0.193-0.113-0.329-0.174-0.41c-0.061-0.079-0.146-0.123-0.256-0.131c-0.109-0.007-0.271,0.02-0.482,0.08
			c-0.02,0.005-0.035-0.012-0.045-0.05c-0.012-0.039-0.008-0.061,0.012-0.066l0.504-0.133c0.287-0.067,0.518-0.126,0.691-0.175
			c0.148-0.042,0.325-0.104,0.532-0.183c0.075-0.027,0.179-0.064,0.309-0.108s0.285-0.091,0.466-0.143
			c0.637-0.18,1.178-0.188,1.625-0.022c0.447,0.166,0.749,0.528,0.908,1.088c0.115,0.406,0.108,0.779-0.021,1.122
			c-0.129,0.343-0.336,0.631-0.62,0.864s-0.599,0.398-0.938,0.495c-0.18,0.051-0.336,0.078-0.468,0.08
			c-0.02,0.006-0.034-0.007-0.042-0.04c-0.006-0.019-0.007-0.039-0.002-0.062c0.004-0.022,0.013-0.032,0.027-0.029
			c0.11-0.003,0.227-0.022,0.35-0.057c0.334-0.095,0.578-0.313,0.731-0.656c0.153-0.342,0.157-0.771,0.011-1.286
			c-0.145-0.508-0.375-0.868-0.693-1.081c-0.316-0.212-0.685-0.259-1.103-0.14c-0.155,0.043-0.268,0.093-0.339,0.147
			s-0.111,0.131-0.118,0.227c-0.008,0.096,0.015,0.237,0.067,0.424l1.252,4.411C170.247,92.509,170.314,92.651,170.389,92.73z"/>
	</g>
	<g>
		<g>
			<path d="M153.972,62.452v8.127h12.597v-8.153c0,0,0.203-5.971-6.192-5.971C153.981,56.455,153.972,62.452,153.972,62.452z
				 M162.949,62.346c0.355,0.217,0.371,0.841,0.033,1.395c-0.338,0.553-0.899,0.825-1.256,0.607
				c-0.355-0.217-0.371-0.842-0.033-1.395C162.03,62.401,162.592,62.129,162.949,62.346z M160.396,61.747
				c0.133-0.635,0.569-1.08,0.978-0.995c0.409,0.085,0.634,0.668,0.502,1.303c-0.132,0.633-0.569,1.078-0.978,0.994
				S160.266,62.382,160.396,61.747z M161.067,63.7c0.128,0.213,0.143,0.501,0.286,0.701c0.039,0.056,0.089,0.104,0.152,0.145
				c0.362,0.217,0.669,0.522,0.669,0.974c0,0.414-0.245,0.807-0.616,0.981c-0.515,0.239-0.816-0.213-1.301-0.206
				c-0.208,0.003-0.417,0.096-0.609,0.165c-0.565,0.198-1.113,0.06-1.283-0.56c-0.125-0.458,0.017-1.039,0.464-1.285
				c0.382-0.211,0.332-0.515,0.496-0.872c0.154-0.329,0.524-0.531,0.881-0.531C160.576,63.212,160.877,63.383,161.067,63.7z
				 M159.123,60.752c0.41-0.085,0.847,0.36,0.978,0.995c0.132,0.635-0.093,1.218-0.501,1.302c-0.408,0.084-0.846-0.361-0.977-0.994
				C158.491,61.42,158.715,60.837,159.123,60.752z M157.55,62.346c0.356-0.218,0.918,0.055,1.256,0.607
				c0.337,0.554,0.322,1.178-0.035,1.395c-0.357,0.218-0.917-0.055-1.255-0.607C157.179,63.187,157.194,62.563,157.55,62.346z"/>
			<g>
				<path d="M175.74,61.187l-15.378-13.792l-15.526,13.704l0.538,0.608l4.128-3.643v16.593h0.813v-1.218h19.911v1.218h0.813V58.062
					l4.158,3.729L175.74,61.187z M170.225,72.624h-19.91V57.346l10.043-8.863l9.867,8.85V72.624L170.225,72.624z"/>
				<path d="M171.037,74.804h-0.813c-0.08,0-0.147-0.066-0.147-0.148v-1.07h-19.615v1.07c0,0.082-0.066,0.148-0.148,0.148h-0.813
					c-0.082,0-0.148-0.066-0.148-0.148V58.391l-3.882,3.426c-0.061,0.054-0.155,0.049-0.209-0.012l-0.538-0.609
					c-0.026-0.029-0.039-0.067-0.036-0.107c0.002-0.039,0.02-0.075,0.049-0.102l15.526-13.704c0.056-0.049,0.14-0.049,0.196,0.001
					l15.378,13.792c0.029,0.026,0.047,0.063,0.049,0.102s-0.012,0.078-0.037,0.107l-0.543,0.604
					c-0.055,0.061-0.147,0.065-0.209,0.012l-3.912-3.51v16.264C171.187,74.737,171.119,74.804,171.037,74.804z M170.373,74.509
					h0.518V58.062c0-0.059,0.033-0.111,0.088-0.136c0.053-0.022,0.115-0.014,0.158,0.025l4.049,3.631l0.346-0.384L160.36,47.592
					L145.045,61.11l0.343,0.388l4.017-3.545c0.043-0.039,0.104-0.048,0.158-0.024c0.052,0.024,0.087,0.077,0.087,0.135v16.445h0.517
					v-1.071c0-0.081,0.066-0.147,0.148-0.147h19.91c0.082,0,0.148,0.065,0.148,0.147V74.509L170.373,74.509z M170.225,72.772h-19.91
					c-0.082,0-0.148-0.066-0.148-0.148V57.346c0-0.042,0.018-0.083,0.05-0.11l10.043-8.864c0.056-0.05,0.14-0.05,0.196,0l9.867,8.85
					c0.032,0.029,0.05,0.068,0.05,0.11v15.292C170.373,72.706,170.307,72.772,170.225,72.772z M150.463,72.478h19.615V57.398
					l-9.721-8.718l-9.895,8.733L150.463,72.478L150.463,72.478z"/>
			</g>
		</g>
		<g>
			<g>
				<path d="M155.619,42.978c0.036,0.086,0.136,0.126,0.218,0.09c0.085-0.035,0.126-0.132,0.092-0.217l0,0c0-0.001,0-0.001,0-0.001
					l-1.299-3.155l-2.103-5.111c-0.027-0.065-0.089-0.104-0.154-0.104c0,0,0,0-0.001,0l0,0c-0.021,0-0.042,0.004-0.063,0.012
					c-0.085,0.035-0.126,0.132-0.091,0.218l2.103,5.111L155.619,42.978z"/>
				<path d="M158.599,42.142c0.011,0.091,0.102,0.159,0.187,0.142c0.046-0.004,0.083-0.028,0.111-0.063
					c0.025-0.035,0.039-0.078,0.034-0.123l-0.627-4.85l-0.518-4.018c-0.006-0.041-0.028-0.078-0.058-0.104
					c-0.028-0.026-0.067-0.041-0.109-0.041c-0.007,0-0.014,0.001-0.021,0.002c-0.091,0.012-0.155,0.095-0.145,0.187l0.519,4.017
					L158.599,42.142z"/>
				<path d="M161.837,42.292c0.101,0.016,0.175-0.052,0.188-0.144l1.188-8.859c0.012-0.091-0.051-0.176-0.143-0.188
					c-0.008-0.002-0.016-0.002-0.022-0.002c-0.083,0-0.153,0.061-0.166,0.145l-1.188,8.861
					C161.682,42.196,161.745,42.28,161.837,42.292z"/>
				<path d="M165,43l3.441-8.253c0.035-0.083-0.004-0.182-0.089-0.217c-0.022-0.009-0.043-0.013-0.065-0.013
					c-0.064,0-0.127,0.037-0.153,0.101l-3.44,8.252c-0.036,0.084,0.005,0.184,0.09,0.219C164.869,43.123,164.965,43.084,165,43z"/>
				<path d="M167.422,44.62c0.073,0.057,0.178,0.043,0.234-0.03l5.459-7.08c0.056-0.073,0.042-0.178-0.031-0.234
					c-0.029-0.023-0.064-0.036-0.102-0.036c-0.05,0-0.099,0.023-0.133,0.065l-5.458,7.081
					C167.336,44.459,167.35,44.564,167.422,44.62z"/>
				<path d="M169.576,46.783c0.055,0.073,0.16,0.088,0.232,0.031l7.105-5.426c0.073-0.056,0.086-0.16,0.031-0.234
					c-0.033-0.042-0.082-0.065-0.133-0.065c-0.035,0-0.071,0.01-0.101,0.034l-7.104,5.427
					C169.532,46.606,169.52,46.71,169.576,46.783z"/>
				<path d="M147.546,44.267l3.248,2.505c0.072,0.056,0.178,0.042,0.234-0.032c0.028-0.036,0.039-0.081,0.033-0.124
					c-0.006-0.043-0.027-0.082-0.063-0.111l-3.833-2.955l-3.247-2.504c-0.031-0.023-0.067-0.035-0.102-0.035
					c-0.05,0-0.099,0.021-0.132,0.064l0,0c0,0-0.001,0-0.001,0c-0.055,0.073-0.042,0.179,0.031,0.235L147.546,44.267z"/>
				<path d="M150.497,41.335l2.459,3.222c0.055,0.073,0.161,0.087,0.234,0.031c0.036-0.028,0.058-0.068,0.063-0.112
					c0.006-0.041-0.005-0.085-0.032-0.122l-2.46-3.221l-2.965-3.885c-0.033-0.042-0.083-0.066-0.132-0.066
					c-0.035,0-0.071,0.012-0.101,0.036l0,0h0c-0.075,0.056-0.087,0.16-0.032,0.233L150.497,41.335z"/>
				<path d="M146.526,46.125l3.409,1.968c0.077,0.046,0.181,0.02,0.227-0.062c0.023-0.038,0.028-0.084,0.018-0.125
					c-0.012-0.042-0.039-0.08-0.08-0.102l-3.409-1.968c-0.026-0.016-0.054-0.022-0.083-0.022c-0.058,0-0.113,0.03-0.145,0.083
					c-0.022,0.04-0.027,0.085-0.016,0.126C146.459,46.065,146.486,46.103,146.526,46.125z"/>
				<path d="M149,42.829l2.784,2.784c0.065,0.065,0.171,0.065,0.236,0c0.033-0.034,0.049-0.076,0.049-0.119
					c0-0.043-0.016-0.085-0.049-0.119l-2.783-2.783c-0.032-0.033-0.076-0.049-0.118-0.049s-0.084,0.017-0.118,0.049
					c-0.033,0.033-0.048,0.076-0.048,0.119S148.967,42.797,149,42.829z"/>
				<path d="M152.245,40.286l1.968,3.408c0.048,0.08,0.151,0.107,0.228,0.062c0.04-0.024,0.066-0.062,0.077-0.103
					c0.011-0.041,0.007-0.086-0.016-0.125l-1.968-3.41c-0.031-0.053-0.087-0.083-0.145-0.083c-0.028,0-0.057,0.007-0.084,0.022
					c-0.039,0.023-0.065,0.061-0.078,0.101C152.217,40.199,152.222,40.245,152.245,40.286z"/>
				<path d="M157.055,42.469c0.023,0.089,0.116,0.139,0.205,0.118c0.088-0.024,0.14-0.115,0.117-0.205l0,0l0,0l-1.019-3.802
					c-0.02-0.074-0.087-0.123-0.16-0.123c-0.014,0-0.029,0.002-0.043,0.005c-0.09,0.024-0.143,0.116-0.12,0.205l0,0l0,0
					L157.055,42.469z"/>
				<path d="M160.284,42.189c0.093,0,0.168-0.076,0.168-0.168l0,0v-3.934v-0.001c0-0.093-0.075-0.168-0.168-0.168
					c-0.091,0-0.167,0.076-0.167,0.168v0.001v3.934l0,0C160.118,42.113,160.193,42.189,160.284,42.189z"/>
				<path d="M163.312,42.587c0.086,0.021,0.179-0.029,0.202-0.118l1.02-3.802c0.023-0.089-0.028-0.181-0.119-0.204
					c-0.013-0.004-0.027-0.006-0.043-0.006c-0.074,0-0.141,0.05-0.16,0.125l-1.019,3.801
					C163.168,42.472,163.221,42.563,163.312,42.587z"/>
				<path d="M168.264,40.057c-0.025-0.015-0.055-0.022-0.082-0.022c-0.058,0-0.115,0.031-0.145,0.085l-1.969,3.408
					c-0.045,0.078-0.018,0.182,0.063,0.228c0.078,0.045,0.18,0.019,0.227-0.062l1.969-3.408
					C168.371,40.206,168.344,40.104,168.264,40.057z"/>
				<path d="M168.785,45.612l2.784-2.784c0.065-0.065,0.065-0.171,0-0.235c-0.032-0.034-0.075-0.048-0.117-0.048
					c-0.043,0-0.086,0.014-0.118,0.048l-2.783,2.782c-0.066,0.067-0.066,0.172,0,0.237
					C168.615,45.677,168.721,45.677,168.785,45.612z"/>
				<path d="M170.636,48.094l3.409-1.968c0.08-0.045,0.107-0.147,0.061-0.227c-0.031-0.054-0.088-0.084-0.145-0.084
					c-0.029,0-0.058,0.008-0.083,0.024l-3.409,1.968c-0.079,0.046-0.107,0.147-0.063,0.227
					C170.456,48.113,170.559,48.14,170.636,48.094z"/>
			</g>
			<path d="M160.291,41.937c6.584,0,11.942,5.356,11.942,11.941c0,0.168-0.137,0.305-0.305,0.305s-0.305-0.136-0.305-0.305
				c0-6.248-5.083-11.332-11.333-11.332c-6.249,0-11.333,5.083-11.333,11.332c0,0.168-0.137,0.305-0.304,0.305
				c-0.169,0-0.305-0.136-0.305-0.305C148.348,47.293,153.706,41.937,160.291,41.937z"/>
		</g>
	</g>
</g>
</svg>
