<?xml version="1.0" encoding="utf-8"?>
<!-- Generator: Adobe Illustrator 16.0.3, SVG Export Plug-In . SVG Version: 6.00 Build 0)  -->
<!DOCTYPE svg PUBLIC "-//W3C//DTD SVG 1.1//EN" "http://www.w3.org/Graphics/SVG/1.1/DTD/svg11.dtd">
<svg version="1.1" id="Layer_1" xmlns="http://www.w3.org/2000/svg" xmlns:xlink="http://www.w3.org/1999/xlink" x="0px" y="0px"
	 width="110px" height="110px" viewBox="105 0 110 110" enable-background="new 105 0 110 110" xml:space="preserve">
<g>
	<path d="M214.451,53.897l-4.33-3.284l3.693-3.984c0.297-0.32,0.424-0.75,0.348-1.181c-0.075-0.429-0.34-0.79-0.729-0.989
		l-4.836-2.482l2.947-4.566c0.236-0.366,0.285-0.813,0.135-1.223c-0.149-0.41-0.473-0.718-0.889-0.847l-5.191-1.604l2.107-5.008
		c0.168-0.401,0.141-0.849-0.077-1.229c-0.22-0.378-0.594-0.625-1.026-0.679l-5.391-0.68l1.207-5.298
		c0.093-0.413-0.005-0.839-0.268-1.169c-0.264-0.33-0.657-0.521-1.086-0.521l-5.489,0.269l0.268-5.427
		c0.018-0.382-0.118-0.745-0.381-1.02c-0.329-0.345-0.843-0.5-1.31-0.396l-5.297,1.206l-0.678-5.392
		c-0.088-0.69-0.678-1.21-1.373-1.21c-0.184,0-0.365,0.037-0.537,0.109l-5.006,2.107l-1.605-5.191
		c-0.18-0.583-0.711-0.975-1.323-0.975c-0.265,0-0.524,0.077-0.748,0.221l-4.567,2.945l-2.479-4.834
		c-0.236-0.462-0.709-0.75-1.231-0.75c-0.35,0-0.683,0.13-0.938,0.369l-3.986,3.693l-3.283-4.329C160.837,0.2,160.436,0,160,0
		c-0.436,0-0.838,0.2-1.102,0.547l-3.283,4.329l-3.985-3.693c-0.256-0.238-0.59-0.369-0.939-0.369c-0.522,0-0.994,0.288-1.231,0.751
		l-2.482,4.833l-4.566-2.945c-0.224-0.145-0.483-0.221-0.75-0.221c-0.61,0-1.142,0.392-1.322,0.975l-1.604,5.189l-5.007-2.106
		c-0.172-0.072-0.352-0.109-0.536-0.109c-0.696,0-1.286,0.521-1.371,1.21l-0.68,5.392l-5.298-1.207
		c-0.465-0.103-0.98,0.051-1.309,0.396c-0.263,0.277-0.397,0.64-0.379,1.021l0.268,5.427l-5.43-0.269l-0.066-0.002
		c-0.423,0-0.817,0.19-1.081,0.521c-0.263,0.331-0.361,0.757-0.268,1.17l1.207,5.297l-5.391,0.679
		c-0.434,0.054-0.806,0.301-1.024,0.68c-0.218,0.377-0.246,0.825-0.077,1.229l2.107,5.007l-5.19,1.604
		c-0.417,0.128-0.743,0.438-0.892,0.848c-0.149,0.41-0.099,0.855,0.138,1.223l2.945,4.566l-4.833,2.482
		c-0.389,0.199-0.655,0.562-0.729,0.99c-0.076,0.43,0.05,0.86,0.347,1.18l3.693,3.986l-4.329,3.284
		C105.2,54.163,105,54.564,105,55.001c0,0.436,0.2,0.837,0.547,1.102l4.329,3.283l-3.693,3.984
		c-0.296,0.323-0.423,0.753-0.347,1.182c0.075,0.431,0.342,0.79,0.729,0.99l4.833,2.481l-2.945,4.568
		c-0.236,0.366-0.288,0.811-0.138,1.22c0.149,0.409,0.475,0.718,0.892,0.849l5.192,1.605l-2.107,5.007
		c-0.17,0.404-0.143,0.852,0.077,1.228c0.218,0.379,0.592,0.627,1.024,0.681l5.391,0.678l-1.206,5.298
		c-0.093,0.414,0.003,0.841,0.268,1.169c0.264,0.331,0.657,0.521,1.085,0.521l0,0l5.492-0.267l-0.268,5.425
		c-0.018,0.381,0.116,0.744,0.378,1.021c0.332,0.347,0.845,0.503,1.31,0.396l5.297-1.208l0.68,5.393
		c0.086,0.69,0.675,1.212,1.371,1.212c0.183,0,0.364-0.038,0.537-0.109l5.008-2.108l1.604,5.191
		c0.181,0.583,0.712,0.974,1.323,0.974c0.266,0,0.524-0.076,0.749-0.221l4.566-2.946l2.482,4.834
		c0.238,0.464,0.709,0.751,1.231,0.751c0.349,0,0.682-0.13,0.938-0.369l3.985-3.693l3.283,4.33c0.264,0.348,0.666,0.547,1.103,0.547
		c0.436,0,0.836-0.2,1.103-0.547l3.282-4.33l3.983,3.693c0.258,0.238,0.591,0.369,0.94,0.369c0.523,0,0.994-0.287,1.23-0.751
		l2.481-4.834l4.566,2.946c0.226,0.145,0.484,0.221,0.749,0.221c0.609,0,1.141-0.391,1.322-0.974l1.605-5.191l5.007,2.108
		c0.173,0.071,0.353,0.109,0.536,0.109c0.695,0,1.285-0.521,1.373-1.212l0.678-5.393l5.299,1.208c0.46,0.102,0.978-0.05,1.308-0.396
		c0.264-0.275,0.396-0.638,0.381-1.021l-0.268-5.425l5.429,0.266l0.066,0.001c0.422,0,0.816-0.189,1.08-0.52
		c0.264-0.332,0.361-0.757,0.269-1.171l-1.208-5.298l5.392-0.678c0.433-0.055,0.807-0.302,1.026-0.681
		c0.217-0.379,0.246-0.826,0.078-1.228l-2.109-5.007l5.191-1.605c0.418-0.13,0.742-0.439,0.89-0.848
		c0.151-0.413,0.101-0.855-0.136-1.222l-2.947-4.568l4.836-2.481c0.39-0.2,0.654-0.56,0.729-0.99c0.077-0.43-0.052-0.86-0.348-1.182
		l-3.693-3.982l4.329-3.285c0.35-0.265,0.549-0.667,0.549-1.102C215,54.563,214.8,54.162,214.451,53.897z M213.787,55.227
		l-5.198,3.943l-0.095,0.072l4.516,4.872c0.063,0.067,0.088,0.157,0.072,0.244c-0.016,0.091-0.069,0.164-0.15,0.204l-5.911,3.037
		l3.602,5.583c0.05,0.075,0.06,0.167,0.031,0.25c-0.032,0.085-0.101,0.15-0.187,0.177l-6.232,1.927l-0.114,0.036l2.577,6.125
		c0.034,0.082,0.029,0.175-0.017,0.253c-0.046,0.079-0.122,0.129-0.211,0.139l-6.475,0.817l-0.119,0.016l1.474,6.477
		c0.027,0.118-0.021,0.202-0.054,0.241c-0.058,0.071-0.14,0.109-0.238,0.109l-6.636-0.327l0.327,6.634
		c0.006,0.082-0.022,0.156-0.079,0.212c-0.067,0.072-0.166,0.104-0.27,0.082l-6.479-1.476l-0.83,6.593
		c-0.027,0.229-0.253,0.291-0.395,0.229l-6.123-2.576l-1.962,6.346c-0.056,0.184-0.206,0.204-0.267,0.204
		c-0.059,0-0.115-0.018-0.164-0.048l-5.582-3.601l-3.033,5.91c-0.06,0.115-0.171,0.155-0.256,0.155
		c-0.074,0-0.137-0.025-0.193-0.077l-4.785-4.436l-0.089-0.082l-4.015,5.293c-0.103,0.133-0.354,0.133-0.454,0l-4.016-5.294
		l-4.873,4.518c-0.069,0.063-0.143,0.077-0.193,0.077c-0.084,0-0.196-0.041-0.254-0.155l-3.036-5.911l-5.583,3.601
		c-0.047,0.029-0.105,0.047-0.163,0.047c-0.061,0-0.209-0.021-0.266-0.203l-1.961-6.348l-6.124,2.576
		c-0.142,0.063-0.365-0.001-0.394-0.227l-0.831-6.594l-6.479,1.476c-0.097,0.022-0.202-0.01-0.271-0.081
		c-0.054-0.057-0.082-0.132-0.077-0.211l0.327-6.635l-6.652,0.327c-0.087,0-0.167-0.039-0.222-0.108
		c-0.032-0.04-0.082-0.124-0.055-0.241l1.474-6.478l-6.593-0.831c-0.09-0.012-0.167-0.062-0.211-0.14
		c-0.044-0.078-0.051-0.17-0.016-0.252l2.577-6.125l-6.348-1.961c-0.087-0.027-0.155-0.091-0.185-0.176
		c-0.03-0.084-0.021-0.175,0.028-0.25l3.537-5.485l0.065-0.099l-5.911-3.036c-0.081-0.041-0.136-0.117-0.151-0.204
		c-0.016-0.089,0.011-0.179,0.072-0.244l4.517-4.873l-5.295-4.017c-0.072-0.055-0.113-0.137-0.113-0.227
		c0-0.09,0.041-0.173,0.113-0.228l5.294-4.016l-4.516-4.874c-0.062-0.066-0.088-0.155-0.072-0.243
		c0.016-0.089,0.071-0.163,0.15-0.204l5.911-3.035l-3.602-5.584c-0.049-0.075-0.059-0.167-0.028-0.252
		c0.031-0.084,0.098-0.148,0.185-0.175l6.348-1.962l-2.577-6.124c-0.035-0.083-0.028-0.176,0.016-0.255
		c0.044-0.078,0.122-0.129,0.212-0.141l6.592-0.829l-1.473-6.479c-0.025-0.111,0.015-0.193,0.055-0.243
		c0.057-0.07,0.137-0.106,0.237-0.106l6.637,0.327l-0.327-6.637c-0.003-0.079,0.023-0.154,0.077-0.21
		c0.069-0.072,0.174-0.105,0.272-0.083l6.361,1.448l0.118,0.026l0.831-6.593c0.028-0.223,0.253-0.287,0.394-0.228l6.124,2.578
		l1.962-6.348c0.04-0.127,0.139-0.203,0.266-0.203c0.058,0,0.116,0.017,0.163,0.047l5.584,3.601l3.035-5.911
		c0.058-0.114,0.17-0.155,0.254-0.155c0.073,0,0.138,0.025,0.193,0.077l4.873,4.517l4.016-5.294c0.1-0.132,0.354-0.132,0.454,0
		l4.016,5.294l4.871-4.517c0.057-0.05,0.123-0.077,0.195-0.077c0.086,0,0.195,0.041,0.256,0.156l2.979,5.804l0.055,0.107
		l5.585-3.601c0.046-0.031,0.102-0.047,0.161-0.047c0.128,0,0.228,0.075,0.267,0.202l1.926,6.232l0.036,0.115l6.124-2.578
		c0.141-0.06,0.366,0.004,0.395,0.228l0.814,6.474l0.017,0.12l6.479-1.475c0.093-0.022,0.2,0.009,0.271,0.083
		c0.053,0.056,0.081,0.13,0.078,0.209l-0.326,6.637l6.65-0.327c0.088,0,0.168,0.04,0.223,0.108c0.033,0.039,0.082,0.123,0.055,0.24
		l-1.449,6.361l-0.025,0.118l6.594,0.83c0.09,0.011,0.164,0.062,0.21,0.14s0.051,0.171,0.017,0.254l-2.577,6.125l6.348,1.962
		c0.087,0.027,0.153,0.091,0.184,0.175c0.031,0.085,0.021,0.179-0.026,0.253l-3.539,5.484l-0.064,0.101l5.911,3.035
		c0.082,0.042,0.136,0.114,0.151,0.203c0.016,0.089-0.011,0.178-0.071,0.244l-4.519,4.873l5.295,4.016
		c0.072,0.055,0.113,0.137,0.113,0.228C213.9,55.089,213.859,55.172,213.787,55.227z"/>
	<path d="M188.749,55c0-15.853-12.897-28.748-28.75-28.748S131.252,39.148,131.252,55c0,15.852,12.896,28.748,28.748,28.748
		C175.852,83.748,188.749,70.852,188.749,55z M160,82.309c-15.058,0-27.307-12.25-27.307-27.309S144.942,27.692,160,27.692
		c15.057,0,27.307,12.25,27.307,27.308C187.307,70.058,175.057,82.309,160,82.309z"/>
	<path d="M172.694,56.715l-11.057,7.711l-0.3,0.426c0,0-0.557,0.376-1.339,0.904c-0.782-0.528-1.336-0.904-1.336-0.904l-0.301-0.426
		l-11.056-7.711c0,0-0.623,1.099,3.071,4.025c2.265,1.795,5.488,4.52,7.645,6.361c-0.458,0.314-0.917,0.63-1.333,0.918
		c-1.902,1.315-3.877,3.512-3.986,3.547s-1.098-1.499-1.792-1.737c-0.695-0.238-1.719-0.016-2.633,0.73
		c-0.915,0.75-1.537,2.726-0.384,3.878c1.152,1.153,3.054,0.165,3.95-0.567c0.897-0.73,4.536-4.243,5.122-4.611
		c0.584-0.364,2.707-0.182,2.707-0.182s0.123-0.101,0.327-0.279c0.207,0.179,0.328,0.279,0.328,0.279s2.123-0.181,2.707,0.182
		c0.585,0.368,4.226,3.88,5.122,4.611s2.797,1.721,3.949,0.567c1.151-1.154,0.529-3.128-0.383-3.878
		c-0.914-0.746-1.94-0.969-2.635-0.73c-0.695,0.238-1.683,1.773-1.79,1.737c-0.112-0.036-2.087-2.23-3.986-3.547
		c-0.417-0.288-0.874-0.601-1.335-0.918c2.159-1.842,5.381-4.567,7.646-6.361C173.314,57.814,172.694,56.715,172.694,56.715z
		 M150.952,73.539c-0.776,0.721-1.917,0.756-2.551,0.079c-0.631-0.679-0.514-1.814,0.262-2.539c0.774-0.718,1.916-0.752,2.548-0.077
		C151.844,71.681,151.728,72.817,150.952,73.539z M168.788,71.001c0.632-0.676,1.774-0.641,2.549,0.077
		c0.777,0.726,0.893,1.861,0.263,2.539c-0.634,0.679-1.774,0.644-2.551-0.078C168.271,72.817,168.156,71.681,168.788,71.001z"/>
	<path d="M156.901,47.25c-0.555,1.202-0.384,2.216-1.668,2.922c-1.497,0.83-1.972,2.779-1.551,4.318
		c0.569,2.074,2.405,2.539,4.303,1.873c0.646-0.226,1.349-0.544,2.044-0.553c1.625-0.025,2.639,1.493,4.362,0.692
		c1.248-0.59,2.07-1.908,2.07-3.292c0-1.517-1.028-2.538-2.245-3.271c-0.214-0.13-0.38-0.294-0.511-0.481
		c-0.478-0.674-0.528-1.637-0.959-2.353c-0.639-1.063-1.65-1.635-2.894-1.635C158.657,45.468,157.412,46.145,156.901,47.25z"/>
	<path d="M155.041,49.277c1.197-0.729,1.25-2.823,0.117-4.679c-1.131-1.854-3.018-2.767-4.213-2.038
		c-1.193,0.729-1.245,2.823-0.114,4.677C151.961,49.094,153.848,50.007,155.041,49.277z"/>
	<path d="M157.82,44.918c1.37-0.284,2.125-2.239,1.685-4.367c-0.442-2.125-1.909-3.624-3.278-3.336
		c-1.37,0.283-2.125,2.237-1.684,4.366C154.981,43.709,156.451,45.201,157.82,44.918z"/>
	<path d="M164.958,49.277c1.192,0.73,3.078-0.183,4.208-2.039c1.135-1.854,1.084-3.949-0.111-4.678
		c-1.193-0.728-3.08,0.183-4.211,2.038C163.713,46.454,163.762,48.548,164.958,49.277z"/>
	<path d="M162.182,44.918c1.371,0.282,2.838-1.209,3.275-3.337c0.443-2.128-0.309-4.083-1.682-4.366
		c-1.371-0.288-2.839,1.21-3.28,3.336C160.057,42.679,160.809,44.634,162.182,44.918z"/>
	<path d="M140.259,82.492c-0.046-0.007-0.128,0.089-0.109,0.134l0.133,0.116c0.312,0.273,0.268,0.361-0.147,0.972l-1.398,2.051
		c-0.416,0.61-0.494,0.701-0.854,0.497l-0.151-0.086c-0.05-0.001-0.109,0.111-0.086,0.151c0.296,0.186,0.496,0.313,0.726,0.47
		c0.243,0.165,0.435,0.306,0.715,0.512c0.046,0.006,0.128-0.09,0.109-0.136l-0.136-0.111c-0.32-0.26-0.265-0.366,0.151-0.976
		l1.397-2.052c0.416-0.609,0.482-0.683,0.851-0.491l0.156,0.08c0.058-0.012,0.109-0.11,0.086-0.151
		c-0.296-0.186-0.496-0.312-0.738-0.479C140.73,82.84,140.54,82.7,140.259,82.492z"/>
	<path d="M136.431,85.034c-0.005-0.218,0.086-0.333,0.215-0.48l1.326-1.519c0.22-0.252,0.775-0.897,1.014-1.023
		c0.077-0.035,0.188,0.007,0.324,0.095l0.155,0.108c0.06-0.003,0.119-0.081,0.104-0.139c-0.192-0.151-0.338-0.27-0.561-0.461
		c-0.193-0.17-0.374-0.337-0.601-0.554c-0.059-0.007-0.12,0.053-0.125,0.122l0.149,0.159c0.122,0.126,0.2,0.25,0.181,0.334
		c-0.049,0.237-0.64,0.925-0.855,1.172l-1.001,1.144c-0.138,0.158-0.248,0.274-0.324,0.319l-0.01-0.008
		c-0.01-0.212,0.009-0.956,0.01-1.243l-0.008-2.452c-0.002-0.92,0.005-1.237,0.02-1.381c-0.057-0.051-0.112-0.051-0.149-0.029
		c-0.104,0.15-0.65,0.777-0.787,0.933l-1.097,1.255c-0.211,0.241-0.77,0.902-1.024,1.013c-0.058,0.023-0.2-0.026-0.391-0.147
		l-0.083-0.055c-0.058,0.005-0.123,0.079-0.104,0.141c0.188,0.148,0.329,0.264,0.555,0.459c0.2,0.175,0.374,0.337,0.606,0.558
		c0.056,0.019,0.134-0.061,0.125-0.125l-0.08-0.089c-0.187-0.208-0.243-0.314-0.233-0.388c0.038-0.246,0.629-0.934,0.845-1.181
		l0.981-1.125c0.096-0.109,0.17-0.194,0.214-0.202l0.01,0.01c0.027,0.466,0.028,0.987,0.037,1.708l0.009,1.019
		c0.004,0.345,0.019,1.581-0.111,1.94c0.078,0.052,0.172,0.126,0.256,0.199c0.094,0.083,0.373,0.327,0.581,0.535
		c0.06,0.013,0.129-0.066,0.125-0.125l-0.08-0.089C136.534,85.317,136.44,85.171,136.431,85.034z"/>
	<path d="M132.568,80.779c-0.182,0.053-0.345,0.099-0.57,0.069c-0.235-0.029-0.493-0.314-0.686-0.543l-0.248-0.294
		c-0.135-0.16-0.129-0.164,0.036-0.304l2.385-2.01c0.561-0.472,0.663-0.513,0.946-0.231l0.178,0.178
		c0.063,0.02,0.145-0.066,0.133-0.113c-0.298-0.332-0.461-0.514-0.641-0.727c-0.179-0.214-0.327-0.399-0.573-0.712
		c-0.043-0.018-0.148,0.051-0.142,0.102l0.127,0.184c0.235,0.332,0.164,0.411-0.397,0.882l-2.374,2.001
		c-0.176,0.148-0.177,0.158-0.311-0.002l-0.319-0.379c-0.248-0.294-0.376-0.533-0.388-0.732c-0.009-0.129,0.157-0.333,0.276-0.462
		c0.009-0.053-0.067-0.145-0.127-0.129c-0.146,0.151-0.61,0.478-0.878,0.603c-0.013,0.029,0.032,0.092,0.065,0.111
		c0.206-0.037,0.257,0.002,0.5,0.29l1.821,2.161c0.207,0.245,0.361,0.417,0.217,0.593c-0.002,0.03,0.062,0.094,0.086,0.101
		c0.245-0.142,0.654-0.35,0.965-0.466C132.673,80.891,132.637,80.794,132.568,80.779z"/>
	<path d="M129.027,76.011l2.116-1.346c0.618-0.392,0.725-0.418,0.967-0.101l0.141,0.181c0.058,0.014,0.145-0.058,0.139-0.106
		c-0.232-0.338-0.365-0.535-0.526-0.787l-0.336-0.529c-0.332-0.524-0.659-1.051-0.984-1.586c-0.208,0.022-0.753,0.165-0.985,0.254
		c-0.037,0.056-0.003,0.151,0.053,0.172c0.402-0.041,0.709-0.013,0.835,0.056c0.146,0.087,0.279,0.243,0.566,0.696
		c0.329,0.519,0.344,0.682,0.318,0.798c-0.041,0.158-0.229,0.304-0.541,0.5l-0.83,0.527c-0.152,0.098-0.17,0.083-0.283-0.093
		l-0.217-0.341c-0.146-0.23-0.229-0.375-0.258-0.471c-0.045-0.136,0.017-0.233,0.108-0.323l0.195-0.2
		c0.017-0.052-0.046-0.152-0.103-0.15c-0.129,0.085-0.338,0.25-0.55,0.385c-0.223,0.141-0.467,0.264-0.608,0.354
		c-0.026,0.048,0.038,0.146,0.091,0.153l0.271-0.106c0.165-0.064,0.227-0.045,0.295,0.011c0.069,0.055,0.196,0.23,0.353,0.477
		l0.217,0.342c0.112,0.177,0.124,0.194-0.041,0.299l-1.176,0.747c-0.223,0.142-0.236,0.149-0.347-0.026l-0.269-0.423
		c-0.164-0.259-0.278-0.451-0.327-0.593c-0.118-0.354,0.055-0.538,0.275-0.803c0.016-0.051-0.055-0.137-0.105-0.139
		c-0.244,0.189-0.646,0.492-0.723,0.592c0.063,0.059,0.283,0.406,0.522,0.782l0.703,1.107c0.154,0.24,0.275,0.444,0.424,0.705
		c0.04,0.022,0.153-0.032,0.154-0.082l-0.047-0.102C128.335,76.469,128.415,76.4,129.027,76.011z"/>
	<path d="M126.613,71.932l2.273-1.051c0.666-0.308,0.753-0.333,0.967,0.015l0.091,0.15c0.063,0.017,0.151-0.039,0.153-0.087
		c-0.151-0.291-0.262-0.516-0.385-0.782c-0.117-0.252-0.21-0.471-0.329-0.761c-0.037-0.031-0.15,0.006-0.164,0.058l0.043,0.142
		c0.119,0.391,0.049,0.438-0.616,0.745l-0.798,0.369c-0.133,0.062-0.146,0.052-0.277-0.233c-0.117-0.253-0.101-0.384-0.005-0.543
		c0.194-0.328,0.511-0.79,0.669-1.062c0.432-0.745,0.44-1.143,0.192-1.681c-0.056-0.12-0.115-0.215-0.161-0.264
		c-0.04-0.02-0.088,0.009-0.086,0.047c0.067,0.177,0.071,0.368,0.025,0.52c-0.162,0.598-0.514,1.167-1.096,2.052
		c-0.037,0.054-0.085,0.116-0.137,0.101c-0.273-0.257-0.823-0.581-1.424-0.302c-0.443,0.204-0.625,0.558-0.643,0.934
		c-0.024,0.364,0.117,0.753,0.298,1.145c0.287,0.621,0.509,1.049,0.704,1.388c0.049,0.039,0.15-0.007,0.162-0.066L126,72.552
		C125.912,72.278,126.012,72.209,126.613,71.932z M125.797,71.68c-0.177,0.081-0.211,0.073-0.394-0.319
		c-0.325-0.703,0.007-1.232,0.508-1.463c0.431-0.201,0.719-0.156,0.931-0.048c0.224,0.12,0.361,0.348,0.466,0.576
		c0.149,0.323,0.181,0.424,0.17,0.453c-0.017,0.031-0.086,0.063-0.199,0.116L125.797,71.68z"/>
	<path d="M127.711,66.371c0.083,0.012,0.154,0.107,0.218,0.256l0.073,0.175c0.052,0.028,0.144-0.006,0.164-0.062
		c-0.082-0.232-0.141-0.41-0.222-0.692c-0.072-0.249-0.133-0.485-0.208-0.79c-0.047-0.036-0.129-0.02-0.172,0.036l0.04,0.214
		c0.036,0.171,0.034,0.316-0.028,0.379c-0.168,0.172-1.038,0.431-1.354,0.523l-1.462,0.423c-0.201,0.059-0.357,0.096-0.445,0.093
		l-0.003-0.014c0.106-0.184,0.525-0.798,0.68-1.041l1.319-2.067c0.494-0.777,0.673-1.039,0.764-1.151
		c-0.021-0.075-0.066-0.105-0.111-0.108c-0.168,0.072-0.966,0.304-1.167,0.361l-1.601,0.463c-0.308,0.09-1.136,0.345-1.411,0.3
		c-0.062-0.01-0.154-0.128-0.25-0.334l-0.04-0.091c-0.053-0.028-0.146-0.001-0.164,0.062c0.08,0.222,0.137,0.394,0.221,0.681
		c0.073,0.256,0.133,0.486,0.209,0.799c0.036,0.05,0.145,0.024,0.172-0.035l-0.02-0.118c-0.044-0.277-0.036-0.396,0.014-0.454
		c0.165-0.186,1.034-0.445,1.349-0.536l1.435-0.416c0.142-0.041,0.249-0.071,0.29-0.055l0.003,0.014
		c-0.23,0.409-0.511,0.846-0.893,1.458l-0.542,0.861c-0.184,0.294-0.839,1.341-1.143,1.575c0.039,0.082,0.079,0.194,0.109,0.301
		c0.035,0.121,0.138,0.477,0.199,0.765c0.042,0.046,0.144,0.017,0.171-0.036l-0.02-0.118c-0.026-0.167-0.026-0.342,0.041-0.462
		c0.113-0.186,0.251-0.232,0.439-0.287l1.938-0.562C126.626,66.59,127.442,66.347,127.711,66.371z"/>
	<path d="M124.52,60.767c0.812,0.188,1.288,0.323,1.622,0.407c0.262,0.064,0.357,0.205,0.394,0.371l0.05,0.226
		c0.041,0.038,0.149,0.009,0.171-0.037c-0.031-0.186-0.078-0.433-0.107-0.661c-0.036-0.327-0.064-0.54-0.073-0.723
		c-0.036-0.059-0.146-0.045-0.175,0.008l0.009,0.232c0.008,0.167-0.029,0.208-0.111,0.219c-0.077,0.01-0.27-0.015-0.595-0.078
		l-0.758-0.148c-0.152-0.028-0.178-0.068-0.201-0.241l-0.137-1.043c-0.027-0.208-0.01-0.238,0.136-0.307l0.902-0.428
		c0.158-0.078,0.279-0.128,0.354-0.138c0.07-0.009,0.124,0.082,0.156,0.227l0.047,0.197c0.042,0.045,0.151,0.022,0.171-0.036
		c-0.033-0.199-0.082-0.459-0.125-0.792c-0.041-0.311-0.065-0.555-0.089-0.84c-0.032-0.031-0.145-0.031-0.172,0.022l0.003,0.189
		c0.004,0.302-0.088,0.405-0.656,0.683l-2.657,1.313c-0.291,0.143-0.595,0.295-0.888,0.424c-0.046,0.02-0.054,0.07-0.048,0.112
		c0.099,0.064,0.24,0.165,0.31,0.325c0.108-0.036,0.245-0.011,0.507,0.054L124.52,60.767z M123.031,59.82l1.079-0.521
		c0.179-0.087,0.208-0.077,0.234,0.124l0.111,0.852c0.024,0.194,0.019,0.201-0.146,0.167l-1.261-0.279
		c-0.218-0.05-0.393-0.096-0.43-0.112l-0.002-0.015C122.693,59.984,122.872,59.898,123.031,59.82z"/>
	<path d="M122.453,57.43c-0.176-0.074-0.33-0.141-0.486-0.307c-0.163-0.172-0.182-0.556-0.187-0.854l-0.007-0.383
		c-0.002-0.209,0.004-0.209,0.22-0.213l3.116-0.048c0.732-0.011,0.837,0.021,0.877,0.419l0.025,0.25
		c0.036,0.054,0.154,0.039,0.173-0.004c-0.021-0.446-0.031-0.689-0.036-0.968c-0.004-0.279,0-0.516,0.007-0.914
		c-0.021-0.041-0.147-0.053-0.174-0.01l-0.018,0.223c-0.028,0.404-0.133,0.42-0.864,0.431l-3.103,0.048
		c-0.23,0.003-0.237,0.011-0.24-0.199l-0.008-0.495c-0.006-0.383,0.046-0.649,0.162-0.811c0.075-0.105,0.332-0.159,0.507-0.182
		c0.041-0.036,0.039-0.154-0.017-0.182c-0.208,0.024-0.775-0.017-1.061-0.088c-0.028,0.014-0.034,0.091-0.02,0.125
		c0.182,0.102,0.198,0.164,0.203,0.54l0.042,2.825c0.005,0.32,0.016,0.55-0.207,0.595c-0.02,0.022-0.012,0.112,0.002,0.133
		c0.279,0.044,0.727,0.142,1.043,0.249C122.461,57.582,122.494,57.484,122.453,57.43z"/>
	<path d="M121.797,52.031l0.031-0.172c0.076-0.406,0.195-0.409,0.932-0.334l2.472,0.246c0.736,0.073,0.832,0.097,0.839,0.511
		l0.003,0.176c0.038,0.047,0.15,0.042,0.175,0.003c0.021-0.349,0.037-0.586,0.066-0.877c0.028-0.278,0.058-0.513,0.107-0.859
		c-0.018-0.043-0.141-0.07-0.173-0.031l-0.038,0.171c-0.09,0.405-0.188,0.409-0.924,0.336l-2.471-0.246
		c-0.737-0.073-0.854-0.099-0.847-0.512l0.004-0.175c-0.024-0.045-0.15-0.043-0.175-0.004c-0.021,0.348-0.038,0.585-0.066,0.863
		c-0.029,0.292-0.059,0.527-0.108,0.874C121.641,52.044,121.766,52.071,121.797,52.031z"/>
	<path d="M124.247,49.375c1.223,0.278,2.51-0.388,2.854-1.897c0.297-1.312-0.464-2.585-1.837-2.898
		c-1.197-0.272-2.512,0.259-2.868,1.83C122.078,47.811,122.886,49.067,124.247,49.375z M122.58,46.573
		c0.294-1.298,1.618-1.521,2.74-1.265c1.339,0.305,1.775,1.217,1.59,2.034c-0.304,1.339-1.72,1.532-2.726,1.305
		C122.693,48.308,122.42,47.28,122.58,46.573z"/>
	<path d="M123.597,42.773l0.058-0.104c0.084-0.146,0.193-0.283,0.32-0.335c0.204-0.074,0.343-0.026,0.523,0.049l1.865,0.769
		c0.31,0.127,1.1,0.445,1.294,0.632c0.058,0.063,0.054,0.181,0.013,0.337l-0.053,0.182c0.023,0.055,0.116,0.086,0.167,0.054
		c0.081-0.232,0.146-0.409,0.257-0.68c0.099-0.239,0.198-0.462,0.331-0.748c-0.014-0.057-0.089-0.095-0.156-0.078l-0.102,0.192
		c-0.079,0.156-0.171,0.27-0.258,0.278c-0.239,0.03-1.081-0.31-1.383-0.435l-1.407-0.58c-0.194-0.08-0.339-0.147-0.405-0.205
		l0.005-0.013c0.198-0.077,0.909-0.297,1.18-0.389l2.321-0.795c0.871-0.298,1.174-0.392,1.315-0.424
		c0.029-0.071,0.013-0.123-0.02-0.152c-0.176-0.049-0.943-0.366-1.137-0.446l-1.542-0.635c-0.297-0.123-1.102-0.439-1.29-0.646
		c-0.041-0.047-0.039-0.198,0.014-0.418l0.024-0.095c-0.023-0.055-0.114-0.092-0.167-0.054c-0.078,0.22-0.141,0.391-0.254,0.669
		c-0.101,0.244-0.198,0.462-0.333,0.754c-0.002,0.063,0.098,0.111,0.155,0.083l0.058-0.105c0.139-0.245,0.22-0.332,0.294-0.347
		c0.244-0.042,1.085,0.296,1.389,0.422l1.381,0.57c0.135,0.056,0.239,0.098,0.26,0.137l-0.006,0.013
		c-0.435,0.175-0.927,0.343-1.606,0.583l-0.962,0.336c-0.327,0.114-1.492,0.524-1.875,0.517c-0.022,0.088-0.061,0.201-0.103,0.305
		c-0.048,0.116-0.189,0.458-0.32,0.722C123.445,42.756,123.542,42.796,123.597,42.773z"/>
	<path d="M127.024,35.508c0.106,0.039,0.197,0.144,0.362,0.356l1.247,1.579c0.518,0.653,0.806,1.054,1.017,1.326
		c0.165,0.214,0.15,0.384,0.077,0.535l-0.1,0.208c0.007,0.054,0.11,0.099,0.155,0.078c0.091-0.166,0.209-0.388,0.327-0.585
		c0.176-0.277,0.287-0.463,0.392-0.611c0.008-0.067-0.087-0.125-0.142-0.101l-0.137,0.186c-0.098,0.136-0.152,0.145-0.224,0.102
		c-0.065-0.039-0.201-0.179-0.417-0.43l-0.501-0.585c-0.101-0.118-0.097-0.164-0.007-0.313l0.542-0.902
		c0.108-0.18,0.141-0.193,0.297-0.155l0.97,0.226c0.172,0.038,0.297,0.073,0.363,0.112c0.059,0.036,0.046,0.142-0.018,0.274
		l-0.086,0.184c0.005,0.06,0.104,0.111,0.157,0.078c0.099-0.179,0.222-0.414,0.395-0.701c0.163-0.269,0.293-0.474,0.453-0.712
		c-0.007-0.041-0.094-0.11-0.15-0.087l-0.114,0.151c-0.184,0.239-0.321,0.262-0.939,0.127l-2.893-0.625
		c-0.316-0.069-0.65-0.139-0.959-0.219c-0.048-0.013-0.086,0.022-0.108,0.058C127.022,35.174,127.069,35.341,127.024,35.508z
		 M127.598,35.691c0.093,0.007,0.287,0.05,0.458,0.089l1.168,0.263c0.193,0.043,0.21,0.07,0.106,0.243l-0.442,0.735
		c-0.1,0.167-0.11,0.169-0.219,0.04l-0.813-1.001c-0.14-0.173-0.247-0.318-0.266-0.355L127.598,35.691z"/>
	<path d="M128.872,32.607l0.119-0.128c0.299-0.325,0.396-0.266,0.972,0.188l1.973,1.557c0.576,0.455,0.643,0.526,0.425,0.87
		l-0.113,0.177c0.007,0.059,0.103,0.117,0.146,0.097c0.231-0.315,0.364-0.495,0.546-0.725l0.397-0.504
		c0.445-0.563,0.861-1.081,1.092-1.352c-0.087-0.193-0.526-0.788-0.585-0.835c-0.038-0.031-0.143,0.057-0.141,0.111
		c0.193,0.33,0.279,0.628,0.257,0.79c-0.021,0.126-0.088,0.259-0.456,0.725c-0.342,0.433-0.49,0.486-0.598,0.498
		c-0.182,0.017-0.337-0.079-0.683-0.352l-1.907-1.505c-0.575-0.454-0.654-0.535-0.428-0.879l0.093-0.14
		c0.004-0.05-0.104-0.117-0.146-0.097c-0.205,0.282-0.347,0.473-0.515,0.687c-0.173,0.219-0.325,0.402-0.58,0.7
		C128.734,32.534,128.824,32.623,128.872,32.607z"/>
	<path d="M133.55,27.274l0.13-0.083c0.251-0.158,0.372-0.068,0.688,0.304l1.714,2.022c0.474,0.559,0.517,0.632,0.245,0.936
		l-0.109,0.119c-0.005,0.059,0.079,0.136,0.124,0.125c0.242-0.222,0.429-0.391,0.652-0.58c0.186-0.158,0.563-0.404,0.904-0.692
		c0.41-0.347,0.787-0.786,0.976-1.266c0.327-0.843,0.16-1.699-0.414-2.374c-0.596-0.703-1.472-1.002-2.411-0.654
		c-0.454,0.166-0.858,0.455-1.306,0.832c-0.452,0.383-0.87,0.765-1.3,1.175C133.407,27.204,133.484,27.284,133.55,27.274z
		 M134.924,26.091c1.394-1.181,2.515-0.43,3.011,0.154c0.839,0.99,0.949,2.058-0.083,2.933c-0.336,0.284-0.582,0.402-0.84,0.337
		c-0.199-0.051-0.359-0.208-0.598-0.49l-1.665-1.963c-0.203-0.239-0.305-0.382-0.29-0.45
		C134.476,26.544,134.61,26.357,134.924,26.091z"/>
	<path d="M142.816,25.956c1.158-0.689,1.559-2.12,0.837-3.331c-0.627-1.056-1.919-1.645-3.306-0.821
		c-1.235,0.734-1.589,2.188-0.876,3.388C140.113,26.271,141.484,26.748,142.816,25.956z M140.357,22.05
		c1.145-0.681,2.218,0.127,2.807,1.117c0.702,1.182,0.339,2.128-0.381,2.556c-1.182,0.703-2.298-0.192-2.826-1.081
		C139.176,23.328,139.732,22.42,140.357,22.05z"/>
	<path d="M145.91,23.437c0.699,0.311,1.489,0.248,2.263-0.055c0.351-0.136,0.787-0.398,1.096-0.623
		c0.11-0.081,0.217-0.152,0.294-0.183c0.018-0.029,0.004-0.069-0.023-0.081c-0.134,0-0.234-0.14-0.336-0.399l-0.142-0.363
		c-0.129-0.331-0.194-0.515,0.065-0.655l0.099-0.053c0.03-0.057-0.014-0.152-0.07-0.16c-0.209,0.097-0.428,0.19-0.681,0.289
		c-0.383,0.15-0.743,0.283-0.936,0.344c-0.038,0.036,0.001,0.156,0.064,0.161l0.298-0.08c0.42-0.111,0.455-0.08,0.668,0.465
		l0.102,0.26c0.082,0.208,0.095,0.337,0.08,0.396c-0.028,0.138-0.235,0.316-0.637,0.474c-1.306,0.511-2.332-0.218-2.819-1.465
		c-0.382-0.973-0.18-2.085,1.08-2.579c0.663-0.259,1.235-0.229,1.692,0.401c0.055,0.024,0.168-0.028,0.167-0.088
		c-0.21-0.366-0.382-0.689-0.465-0.903c-0.072,0.043-0.293,0.076-0.426,0.099c-0.121,0.018-0.493,0.081-0.863,0.226
		c-0.98,0.384-1.504,0.94-1.761,1.565c-0.235,0.586-0.198,1.215,0.018,1.767C144.96,22.769,145.369,23.2,145.91,23.437z"/>
	<path d="M153.093,21.134c0.614,0.455,1.4,0.566,2.22,0.44c0.372-0.057,0.855-0.217,1.206-0.37c0.125-0.055,0.245-0.102,0.327-0.114
		c0.025-0.025,0.019-0.066-0.006-0.084c-0.13-0.028-0.199-0.188-0.24-0.463l-0.059-0.386c-0.054-0.352-0.077-0.545,0.207-0.624
		l0.108-0.031c0.042-0.049,0.019-0.151-0.034-0.171c-0.225,0.047-0.459,0.091-0.728,0.132c-0.406,0.063-0.786,0.114-0.988,0.131
		c-0.046,0.029-0.033,0.154,0.027,0.173l0.308-0.011c0.435-0.019,0.462,0.02,0.551,0.599l0.043,0.275
		c0.034,0.22,0.019,0.35-0.008,0.404c-0.058,0.128-0.299,0.257-0.727,0.323c-1.385,0.215-2.228-0.721-2.432-2.045
		c-0.159-1.034,0.279-2.075,1.616-2.281c0.703-0.109,1.256,0.046,1.563,0.761c0.048,0.035,0.171,0.009,0.184-0.05
		c-0.126-0.403-0.223-0.756-0.258-0.982c-0.08,0.026-0.301,0.011-0.437,0.003c-0.121-0.01-0.498-0.029-0.891,0.032
		c-1.04,0.16-1.672,0.59-2.06,1.144c-0.357,0.521-0.458,1.144-0.368,1.729C152.312,20.274,152.616,20.784,153.093,21.134z"/>
	<path d="M158.078,16.81c0.287,0.03,0.309,0.148,0.319,0.811l0.039,2.503c0.011,0.731-0.001,0.823-0.405,0.878l-0.174,0.024
		c-0.041,0.049-0.025,0.153,0.017,0.174c0.327-0.019,0.578-0.029,0.871-0.035c0.279-0.004,0.516-0.001,0.83,0.009
		c0.042-0.021,0.054-0.14,0.012-0.174l-0.146-0.018c-0.406-0.05-0.421-0.133-0.432-0.865l-0.013-0.878
		c-0.001-0.146,0.011-0.153,0.325-0.158c0.279-0.005,0.391,0.064,0.499,0.215c0.22,0.311,0.513,0.787,0.699,1.042
		c0.506,0.697,0.863,0.866,1.457,0.856c0.131-0.002,0.242-0.019,0.305-0.04c0.036-0.029,0.027-0.084-0.008-0.098
		c-0.188-0.011-0.363-0.085-0.483-0.188c-0.48-0.391-0.858-0.942-1.43-1.833c-0.036-0.055-0.071-0.125-0.037-0.167
		c0.347-0.145,0.862-0.516,0.854-1.177c-0.008-0.488-0.255-0.798-0.594-0.967c-0.324-0.169-0.735-0.198-1.167-0.192
		c-0.684,0.011-1.164,0.038-1.554,0.08c-0.055,0.028-0.054,0.14-0.004,0.174L158.078,16.81z M159.408,16.748
		c0.775-0.012,1.125,0.505,1.133,1.057c0.007,0.473-0.149,0.72-0.336,0.87c-0.199,0.157-0.465,0.188-0.715,0.193
		c-0.356,0.005-0.46-0.007-0.481-0.028c-0.021-0.027-0.023-0.104-0.024-0.23l-0.024-1.631
		C158.956,16.783,158.977,16.754,159.408,16.748z"/>
	<path d="M164.75,21.592c1.332,0.188,2.537-0.679,2.734-2.072c0.171-1.216-0.469-2.481-2.063-2.706
		c-1.423-0.2-2.605,0.71-2.802,2.092C162.447,20.148,163.216,21.376,164.75,21.592z M163.342,18.781
		c0.214-1.512,1.215-1.871,1.932-1.77c1.318,0.186,1.652,1.485,1.49,2.624c-0.191,1.361-1.066,1.871-1.895,1.754
		C163.51,21.198,163.198,19.802,163.342,18.781z"/>
	<path d="M170.264,22.847c1.283,0.408,2.618-0.244,3.046-1.588c0.373-1.17-0.046-2.526-1.581-3.015
		c-1.371-0.436-2.691,0.266-3.115,1.596C168.232,21.036,168.787,22.377,170.264,22.847z M169.347,19.837
		c0.464-1.457,1.511-1.643,2.202-1.424c1.27,0.404,1.38,1.743,1.031,2.84c-0.418,1.31-1.365,1.668-2.164,1.414
		C169.104,22.252,169.031,20.822,169.347,19.837z"/>
	<path d="M173.232,23.709c0.216,0.099,0.441,0.211,0.639,0.316c0.234,0.125,0.471,0.258,0.673,0.382
		c0.054,0.004,0.11-0.091,0.089-0.151l-0.225-0.144c-0.229-0.146-0.215-0.264,0.027-0.72c0.277-0.523,0.595-1.059,0.813-1.424
		c0.207-0.347,0.417-0.695,0.644-1.063l0.012,0.007c-0.015,0.356-0.054,0.745-0.077,1.096l-0.076,1.484
		c-0.02,0.376-0.045,1.138-0.113,1.52c0.002,0.024,0.029,0.047,0.043,0.054c0.023,0.013,0.051,0.02,0.073,0.008
		c0.263-0.224,0.847-0.656,1.412-1.051l1.122-0.787c0.251-0.175,0.745-0.543,0.824-0.588l0.014,0.007l-1.347,2.578
		c-0.21,0.395-0.263,0.493-0.579,0.363l-0.189-0.076c-0.057,0.018-0.096,0.107-0.069,0.161c0.259,0.122,0.538,0.263,0.755,0.377
		c0.223,0.118,0.471,0.258,0.717,0.405c0.055-0.002,0.111-0.091,0.094-0.147l-0.188-0.124c-0.277-0.179-0.182-0.342-0.037-0.659
		c0.423-0.914,1.023-2.056,1.355-2.716c0.224-0.434,0.336-0.526,0.743-0.355l0.136,0.056c0.045-0.008,0.1-0.113,0.077-0.158
		c-0.198-0.086-0.405-0.188-0.56-0.27c-0.123-0.065-0.252-0.134-0.453-0.264c-0.162,0.273-0.521,0.518-1.096,0.931l-1.205,0.869
		c-0.32,0.233-0.645,0.471-0.963,0.672l-0.012-0.006c-0.005-0.35,0.012-0.705,0.023-1.07l0.053-1.796
		c0.021-0.496,0.068-0.96,0.221-1.187c-0.213-0.086-0.38-0.175-0.521-0.251c-0.154-0.082-0.3-0.166-0.477-0.277
		c-0.063-0.003-0.118,0.086-0.107,0.139l0.092,0.064c0.35,0.25,0.35,0.368,0.131,0.75c-0.192,0.332-0.494,0.843-0.797,1.337
		c-0.361,0.591-0.571,0.914-0.824,1.3c-0.267,0.412-0.373,0.402-0.65,0.303l-0.146-0.055
		C173.248,23.561,173.211,23.661,173.232,23.709z"/>
	<path d="M180.107,26.453c-0.432,0.601-0.499,0.672-0.862,0.472l-0.153-0.084c-0.059,0.009-0.113,0.108-0.092,0.15
		c0.291,0.191,0.489,0.325,0.727,0.496c0.227,0.163,0.414,0.307,0.69,0.521c0.046,0.007,0.13-0.086,0.112-0.133l-0.13-0.119
		c-0.306-0.28-0.259-0.367,0.172-0.968l1.449-2.018c0.432-0.601,0.513-0.688,0.868-0.477l0.149,0.09
		c0.05,0.002,0.111-0.109,0.091-0.15c-0.292-0.19-0.489-0.323-0.715-0.486c-0.237-0.171-0.426-0.314-0.702-0.529
		c-0.046-0.01-0.13,0.084-0.113,0.131l0.134,0.114c0.314,0.269,0.258,0.373-0.175,0.974L180.107,26.453z"/>
	<path d="M184.327,25.577c-0.001,0.218-0.095,0.33-0.229,0.474l-1.363,1.484c-0.227,0.247-0.797,0.877-1.039,0.997
		c-0.078,0.033-0.188-0.013-0.319-0.106l-0.154-0.112c-0.059,0.001-0.12,0.079-0.107,0.138c0.19,0.155,0.333,0.277,0.55,0.476
		c0.189,0.174,0.363,0.345,0.586,0.568c0.059,0.007,0.121-0.05,0.127-0.119l-0.145-0.161c-0.12-0.128-0.193-0.254-0.173-0.338
		c0.056-0.234,0.665-0.907,0.886-1.148l1.029-1.119c0.143-0.155,0.256-0.268,0.333-0.31l0.01,0.009
		c0.005,0.212-0.034,0.955-0.04,1.241l-0.055,2.452c-0.021,0.918-0.039,1.235-0.057,1.379c0.057,0.052,0.111,0.055,0.15,0.034
		c0.107-0.148,0.67-0.759,0.811-0.914l1.129-1.227c0.219-0.236,0.793-0.882,1.051-0.987c0.057-0.022,0.198,0.032,0.387,0.157
		l0.08,0.056c0.059-0.002,0.127-0.074,0.108-0.137c-0.184-0.155-0.323-0.273-0.544-0.476c-0.195-0.18-0.365-0.345-0.592-0.573
		c-0.055-0.019-0.137,0.059-0.128,0.123l0.078,0.091c0.182,0.214,0.237,0.32,0.224,0.396c-0.044,0.244-0.652,0.917-0.875,1.158
		l-1.011,1.099c-0.099,0.107-0.174,0.189-0.22,0.196l-0.009-0.009c-0.015-0.469-0.003-0.987,0.007-1.708l0.017-1.018
		c0.007-0.346,0.022-1.581,0.161-1.938c-0.075-0.055-0.167-0.13-0.25-0.206c-0.092-0.085-0.365-0.336-0.566-0.549
		c-0.059-0.013-0.129,0.064-0.127,0.123l0.078,0.091C184.23,25.29,184.322,25.439,184.327,25.577z"/>
	<path d="M188.674,30.387c-0.63-0.055-1.221,0.162-1.688,0.528c-0.482,0.379-0.778,0.896-0.848,1.483
		c-0.096,0.758,0.193,1.498,0.707,2.149c0.233,0.296,0.608,0.638,0.913,0.87c0.109,0.083,0.209,0.164,0.263,0.23
		c0.032,0.008,0.064-0.018,0.068-0.046c-0.039-0.128,0.066-0.265,0.285-0.438l0.308-0.241c0.28-0.219,0.438-0.335,0.646-0.126
		l0.08,0.079c0.063,0.013,0.141-0.058,0.133-0.114c-0.153-0.174-0.306-0.356-0.473-0.569c-0.256-0.323-0.486-0.628-0.6-0.796
		c-0.048-0.025-0.15,0.047-0.137,0.108l0.162,0.262c0.23,0.371,0.209,0.413-0.25,0.775l-0.22,0.172
		c-0.177,0.138-0.296,0.188-0.356,0.191c-0.141,0.013-0.371-0.134-0.639-0.473c-0.866-1.103-0.465-2.295,0.588-3.123
		c0.821-0.647,1.944-0.776,2.779,0.288c0.441,0.559,0.576,1.117,0.107,1.736c-0.008,0.058,0.075,0.153,0.133,0.135
		c0.289-0.309,0.549-0.565,0.729-0.708c-0.063-0.057-0.158-0.258-0.219-0.378c-0.051-0.11-0.218-0.448-0.465-0.761
		C190.029,30.793,189.346,30.453,188.674,30.387z"/>
	<path d="M193.014,37.229l-2.298,1.159c-0.653,0.33-0.736,0.354-0.967,0.018l-0.085-0.121c-0.057-0.018-0.149,0.044-0.149,0.091
		c0.15,0.268,0.27,0.489,0.401,0.75c0.125,0.25,0.223,0.458,0.389,0.819c0.037,0.028,0.15-0.013,0.162-0.066l-0.064-0.178
		c-0.158-0.421-0.084-0.473,0.57-0.803l2.777-1.4c0.199-0.101,0.229-0.107,0.394,0.224c0.327,0.647,0.113,1.199-0.491,1.505
		c-0.541,0.272-1.043,0.221-1.508-0.389c-0.031-0.031-0.125,0.016-0.121,0.069c0.129,0.255,0.352,0.557,0.62,0.765
		c0.267,0.201,0.731,0.412,1.304,0.124c0.43-0.217,0.647-0.592,0.683-0.97c0.032-0.383-0.093-0.804-0.353-1.32
		c-0.262-0.517-0.462-0.9-0.673-1.208c-0.05-0.037-0.146,0.004-0.163,0.066l0.088,0.236
		C193.643,36.896,193.543,36.962,193.014,37.229z"/>
	<path d="M191.523,42.042l-0.076-0.158c-0.061-0.023-0.156,0.024-0.162,0.07c0.121,0.306,0.212,0.541,0.309,0.817
		c0.093,0.263,0.165,0.49,0.256,0.791c0.034,0.032,0.15,0.006,0.168-0.045l-0.028-0.146c-0.08-0.4-0.007-0.441,0.685-0.685
		l0.83-0.291c0.138-0.049,0.148-0.038,0.254,0.258c0.092,0.263,0.063,0.393-0.048,0.542c-0.225,0.309-0.584,0.739-0.767,0.995
		c-0.502,0.702-0.549,1.095-0.353,1.655c0.046,0.125,0.095,0.226,0.136,0.278c0.037,0.024,0.089-0.001,0.091-0.039
		c-0.05-0.183-0.036-0.373,0.024-0.519c0.218-0.58,0.621-1.115,1.287-1.94c0.04-0.052,0.094-0.107,0.146-0.089
		c0.246,0.283,0.762,0.656,1.389,0.437c0.461-0.162,0.675-0.497,0.729-0.871c0.058-0.361-0.046-0.761-0.188-1.169
		c-0.228-0.646-0.407-1.093-0.569-1.45c-0.045-0.043-0.15-0.006-0.166,0.052l0.048,0.22c0.063,0.281-0.042,0.34-0.667,0.56
		l-2.365,0.831C191.795,42.391,191.703,42.407,191.523,42.042z M193.889,42.284c0.02-0.029,0.092-0.055,0.209-0.096l1.541-0.542
		c0.184-0.065,0.218-0.055,0.361,0.354c0.258,0.731-0.123,1.228-0.643,1.411c-0.448,0.158-0.732,0.087-0.934-0.042
		c-0.211-0.141-0.326-0.381-0.408-0.618C193.896,42.413,193.875,42.311,193.889,42.284z"/>
	<path d="M194.984,45.707c-1.232,0.237-2.145,1.365-1.854,2.886c0.254,1.323,1.466,2.185,2.848,1.918
		c1.207-0.232,2.199-1.247,1.894-2.83C197.602,46.27,196.355,45.444,194.984,45.707z M197.639,47.606
		c0.25,1.309-0.872,2.042-2.002,2.26c-1.351,0.259-2.117-0.403-2.273-1.225c-0.261-1.349,0.961-2.096,1.973-2.291
		C196.836,46.063,197.502,46.894,197.639,47.606z"/>
	<path d="M194.811,52.277c-0.732,0.037-0.824,0.028-0.892-0.375l-0.028-0.173c-0.045-0.039-0.155-0.021-0.175,0.022
		c0.03,0.327,0.05,0.564,0.064,0.871c0.015,0.279,0.019,0.517,0.024,0.929c0.023,0.039,0.15,0.047,0.176,0.003l0.008-0.238
		c0.016-0.413,0.12-0.432,0.852-0.468l0.969-0.048c0.182-0.009,0.19,0.012,0.199,0.22l0.023,0.475
		c0.014,0.266,0.014,0.439-0.008,0.539c-0.035,0.134-0.13,0.196-0.254,0.236l-0.269,0.083c-0.04,0.051-0.035,0.156,0.009,0.181
		c0.16-0.006,0.424-0.046,0.674-0.059c0.26-0.013,0.539,0.001,0.707-0.007c0.039-0.031,0.035-0.15-0.01-0.183l-0.279-0.049
		c-0.184-0.033-0.223-0.087-0.255-0.162c-0.032-0.082-0.056-0.305-0.071-0.59l-0.021-0.474c-0.013-0.209-0.013-0.23,0.176-0.239
		l1.472-0.074c0.265-0.013,0.278-0.014,0.288,0.196l0.021,0.426c0.015,0.293,0.026,0.522-0.008,0.678
		c-0.074,0.353-0.328,0.45-0.639,0.521c-0.039,0.051-0.013,0.147,0.029,0.167c0.266-0.028,0.6-0.051,0.92-0.066
		c-0.025-0.09-0.045-0.495-0.066-0.941l-0.064-1.282c-0.014-0.28-0.018-0.517-0.02-0.811c-0.021-0.041-0.149-0.049-0.174-0.005
		l-0.01,0.112c-0.028,0.406-0.125,0.426-0.856,0.462L194.811,52.277z"/>
	<path d="M198.324,56.081l-0.02,0.109c-0.079,0.407-0.184,0.414-0.908,0.363l-2.504-0.178c-0.73-0.051-0.832-0.094-0.84-0.493
		l-0.005-0.232c-0.039-0.044-0.151-0.037-0.176,0.002c-0.015,0.412-0.022,0.649-0.046,0.948l-0.045,0.627
		c-0.043,0.619-0.093,1.238-0.15,1.863c0.18,0.104,0.704,0.315,0.943,0.381c0.064-0.022,0.092-0.12,0.061-0.17
		c-0.349-0.207-0.578-0.411-0.639-0.542c-0.066-0.159-0.08-0.363-0.041-0.897c0.043-0.612,0.129-0.753,0.219-0.83
		c0.127-0.104,0.365-0.108,0.733-0.083l0.981,0.07c0.181,0.013,0.187,0.034,0.171,0.243l-0.028,0.403
		c-0.02,0.272-0.037,0.438-0.072,0.534c-0.046,0.136-0.152,0.178-0.279,0.197l-0.275,0.044c-0.045,0.031-0.053,0.15-0.008,0.18
		c0.154,0.008,0.42-0.001,0.672,0.017c0.264,0.02,0.533,0.066,0.701,0.079c0.051-0.022,0.059-0.142,0.019-0.179l-0.28-0.076
		c-0.172-0.047-0.209-0.098-0.232-0.184c-0.021-0.087-0.021-0.303,0-0.596l0.029-0.403c0.015-0.208,0.017-0.23,0.209-0.216
		l1.393,0.099c0.265,0.019,0.278,0.02,0.264,0.229l-0.035,0.5c-0.021,0.308-0.044,0.529-0.09,0.672
		c-0.117,0.356-0.365,0.401-0.699,0.483c-0.044,0.031-0.037,0.144,0.002,0.174c0.309-0.007,0.813-0.014,0.934-0.046
		c-0.015-0.085,0.014-0.496,0.046-0.941l0.093-1.308c0.02-0.286,0.044-0.522,0.079-0.82C198.48,56.064,198.355,56.04,198.324,56.081
		z"/>
	<path d="M196.93,60.866c-0.563-0.108-1.029,0.216-1.32,0.516l-0.549,0.57c-0.418,0.438-0.766,0.436-1.066,0.38
		c-0.411-0.08-0.735-0.431-0.625-1.007c0.15-0.794,0.877-0.947,1.245-0.983c0.047-0.021,0.052-0.125,0.011-0.168
		c-0.324-0.047-0.827-0.052-0.994,0.002c-0.102,0.115-0.348,0.445-0.457,1.021c-0.17,0.89,0.236,1.557,0.99,1.7
		c0.65,0.125,1.128-0.225,1.478-0.606l0.448-0.482c0.205-0.223,0.556-0.497,0.953-0.421c0.314,0.059,0.732,0.289,0.604,0.959
		c-0.124,0.659-0.604,0.758-0.952,0.784c-0.048,0.027-0.048,0.141-0.012,0.175c0.287,0.055,0.683,0.065,0.859,0.035
		c0.01-0.054,0.041-0.148,0.086-0.231c0.083-0.169,0.17-0.409,0.211-0.622C198.011,61.597,197.58,60.989,196.93,60.866z"/>
	<path d="M196.097,64.776c-0.546-0.167-1.046,0.104-1.368,0.371l-0.607,0.509c-0.462,0.391-0.809,0.351-1.102,0.263
		c-0.4-0.123-0.685-0.508-0.514-1.069c0.236-0.775,0.973-0.849,1.346-0.846c0.049-0.014,0.064-0.12,0.027-0.167
		c-0.316-0.082-0.818-0.139-0.988-0.103c-0.113,0.103-0.395,0.405-0.565,0.965c-0.265,0.868,0.067,1.576,0.802,1.799
		c0.635,0.194,1.147-0.102,1.537-0.444l0.496-0.433c0.229-0.2,0.607-0.435,0.996-0.316c0.307,0.093,0.697,0.366,0.498,1.021
		c-0.195,0.641-0.686,0.688-1.031,0.679c-0.051,0.021-0.064,0.133-0.031,0.172c0.279,0.087,0.673,0.139,0.852,0.128
		c0.018-0.054,0.059-0.143,0.111-0.222c0.1-0.161,0.213-0.388,0.276-0.595C197.096,65.621,196.732,64.97,196.097,64.776z"/>
	<path d="M195.805,68.655l-0.08,0.156c-0.188,0.367-0.303,0.337-0.986,0.057l-2.297-0.939c-0.684-0.279-0.77-0.328-0.66-0.728
		l0.048-0.169c-0.022-0.055-0.132-0.084-0.165-0.053c-0.12,0.328-0.202,0.551-0.313,0.82c-0.105,0.259-0.199,0.475-0.345,0.792
		c0.004,0.048,0.114,0.107,0.156,0.079l0.085-0.154c0.2-0.362,0.297-0.337,0.981-0.059l2.297,0.939
		c0.683,0.278,0.788,0.337,0.665,0.73l-0.054,0.166c0.012,0.05,0.132,0.084,0.168,0.054c0.117-0.329,0.201-0.551,0.307-0.809
		c0.111-0.271,0.207-0.488,0.352-0.806C195.956,68.688,195.846,68.627,195.805,68.655z"/>
	<path d="M192.708,70.505c-1.095-0.616-2.519-0.345-3.278,1.004c-0.66,1.174-0.292,2.612,0.936,3.304
		c1.071,0.601,2.482,0.467,3.272-0.937C194.342,72.623,193.924,71.188,192.708,70.505z M193.508,73.667
		c-0.653,1.161-1.985,0.998-2.99,0.433c-1.197-0.673-1.354-1.675-0.943-2.404c0.673-1.198,2.087-0.979,2.988-0.474
		C193.893,71.97,193.861,73.035,193.508,73.667z"/>
	<path d="M191.447,77.019l-0.086,0.084c-0.123,0.117-0.266,0.217-0.402,0.232c-0.218,0.014-0.336-0.073-0.487-0.196l-1.569-1.263
		c-0.261-0.21-0.926-0.739-1.061-0.972c-0.038-0.076,0-0.189,0.083-0.328l0.103-0.16c-0.008-0.058-0.087-0.114-0.145-0.097
		c-0.142,0.199-0.256,0.35-0.439,0.578c-0.162,0.2-0.32,0.387-0.527,0.622c-0.003,0.059,0.057,0.117,0.127,0.12l0.151-0.155
		c0.121-0.126,0.241-0.209,0.327-0.193c0.236,0.037,0.946,0.601,1.201,0.809l1.184,0.954c0.164,0.131,0.283,0.237,0.332,0.312
		l-0.01,0.01c-0.211,0.019-0.953,0.027-1.24,0.039l-2.449,0.104c-0.918,0.038-1.235,0.042-1.38,0.033
		c-0.049,0.061-0.048,0.115-0.022,0.151c0.154,0.097,0.801,0.618,0.963,0.75l1.297,1.046c0.25,0.2,0.932,0.732,1.053,0.982
		c0.025,0.056-0.018,0.2-0.131,0.396l-0.051,0.084c0.008,0.059,0.082,0.121,0.145,0.098c0.139-0.19,0.248-0.336,0.436-0.568
		c0.164-0.207,0.32-0.387,0.531-0.627c0.02-0.059-0.063-0.135-0.127-0.123l-0.086,0.083c-0.201,0.196-0.305,0.258-0.379,0.25
		c-0.246-0.028-0.957-0.59-1.213-0.797l-1.161-0.937c-0.114-0.092-0.2-0.162-0.21-0.206l0.008-0.011
		c0.467-0.045,0.986-0.066,1.705-0.104l1.016-0.05c0.347-0.017,1.58-0.079,1.943,0.035c0.048-0.079,0.116-0.174,0.186-0.263
		c0.08-0.097,0.311-0.385,0.512-0.6C191.586,77.079,191.506,77.013,191.447,77.019z"/>
	<path d="M185.115,80.708c-0.313-0.773-0.477-1.24-0.601-1.561c-0.099-0.251-0.036-0.41,0.076-0.535l0.156-0.171
		c0.007-0.054-0.079-0.127-0.129-0.12c-0.132,0.134-0.308,0.314-0.478,0.47c-0.246,0.216-0.406,0.363-0.549,0.475
		c-0.027,0.063,0.047,0.146,0.107,0.138l0.184-0.141c0.133-0.103,0.187-0.095,0.243-0.035c0.052,0.056,0.144,0.228,0.28,0.53
		l0.314,0.705c0.063,0.142,0.047,0.185-0.082,0.304l-0.775,0.712c-0.154,0.143-0.189,0.146-0.329,0.065l-0.868-0.491
		c-0.153-0.085-0.265-0.155-0.316-0.21c-0.047-0.052-0.004-0.148,0.094-0.259l0.135-0.152c0.013-0.06-0.067-0.136-0.127-0.119
		c-0.146,0.141-0.33,0.331-0.577,0.558c-0.232,0.212-0.416,0.374-0.636,0.557c-0.008,0.044,0.059,0.135,0.119,0.128l0.152-0.112
		c0.245-0.177,0.382-0.162,0.938,0.143l2.602,1.417c0.285,0.155,0.584,0.314,0.859,0.48c0.044,0.026,0.088,0.003,0.119-0.025
		c-0.004-0.119-0.002-0.291,0.088-0.441c-0.09-0.068-0.15-0.194-0.248-0.445L185.115,80.708z M185.615,82.684
		c-0.088-0.034-0.262-0.128-0.417-0.214l-1.046-0.583c-0.174-0.095-0.184-0.127-0.035-0.263l0.634-0.581
		c0.143-0.131,0.153-0.131,0.222,0.023l0.496,1.191c0.086,0.206,0.148,0.375,0.157,0.417L185.615,82.684z"/>
	<path d="M183.533,85.267l-0.15,0.091c-0.378,0.225-0.455,0.143-0.879-0.454l-1.455-2.044c-0.427-0.597-0.471-0.685-0.166-0.953
		l0.158-0.139c0.01-0.058-0.066-0.14-0.111-0.133c-0.311,0.237-0.489,0.373-0.727,0.542l-0.523,0.371
		c-0.585,0.419-1.129,0.795-1.427,0.991c0.03,0.209,0.282,0.902,0.328,0.965c0.027,0.041,0.151-0.014,0.166-0.067
		c-0.093-0.371-0.092-0.679-0.024-0.829c0.054-0.116,0.156-0.223,0.639-0.566c0.449-0.319,0.605-0.329,0.711-0.309
		c0.18,0.035,0.303,0.169,0.557,0.527l1.406,1.978c0.426,0.596,0.48,0.695,0.164,0.961l-0.128,0.108
		c-0.019,0.048,0.067,0.141,0.112,0.135c0.278-0.209,0.467-0.353,0.688-0.51c0.228-0.164,0.424-0.294,0.75-0.509
		C183.645,85.376,183.584,85.265,183.533,85.267z"/>
	<path d="M160,9.736c-24.958,0-45.264,20.305-45.264,45.264s20.306,45.263,45.264,45.263c24.959,0,45.264-20.304,45.264-45.263
		C205.264,30.041,184.959,9.736,160,9.736z M160,98.956c-24.236,0-43.956-19.718-43.956-43.956
		c0-24.237,19.719-43.956,43.956-43.956c24.236,0,43.957,19.719,43.957,43.956C203.956,79.237,184.236,98.956,160,98.956z"/>
	<path d="M180.924,56.793c0.834-0.324,1.141-1.499,1.208-2.318c0.028-0.345,0.02-0.695-0.022-1.04
		c-0.171,0.211-0.322,0.439-0.457,0.675C181.197,54.909,180.868,55.871,180.924,56.793z"/>
	<path d="M175.693,66.138c0.883,0.471,1.974-0.2,2.661-0.732c0.296-0.243,0.566-0.521,0.808-0.819
		c-0.288,0.017-0.574,0.064-0.854,0.129C177.383,64.934,176.336,65.422,175.693,66.138z"/>
	<path d="M181.582,57.016c-0.582,0.653-1.162,1.586-1.269,2.471c0.933-0.137,1.417-1.204,1.675-1.994
		c0.1-0.343,0.164-0.696,0.192-1.053C181.967,56.615,181.768,56.811,181.582,57.016z"/>
	<path d="M177.66,64.217c0.92,0.264,1.884-0.578,2.416-1.227c0.232-0.281,0.434-0.59,0.6-0.912c-0.271,0.069-0.536,0.165-0.79,0.279
		C178.999,62.759,178.174,63.386,177.66,64.217z"/>
	<path d="M179.223,61.963c0.949,0.068,1.648-0.882,2.064-1.609c0.166-0.317,0.303-0.653,0.401-0.997
		c-0.247,0.124-0.485,0.271-0.708,0.435C180.263,60.31,179.506,61.108,179.223,61.963z"/>
	<path d="M179.636,51.706c-0.188-0.154-0.394-0.284-0.616-0.381c0.209,0.832,0.765,2.339,1.579,2.658
		C180.732,53.139,180.276,52.237,179.636,51.706z"/>
	<path d="M176.745,63.4c-0.002-0.263-0.042-0.525-0.122-0.777c-0.551,0.744-1.527,2.304-1.188,3.194
		C176.271,65.349,176.755,64.34,176.745,63.4z"/>
	<path d="M178.848,49.356c-0.207-0.121-0.432-0.217-0.665-0.277c0.363,0.807,1.114,2.084,1.967,2.252
		C180.104,50.47,179.571,49.785,178.848,49.356z"/>
	<path d="M180.522,56.741c0.28-0.877,0.019-1.83-0.55-2.534c-0.16-0.192-0.344-0.364-0.552-0.504
		c0.021,0.287,0.054,0.572,0.103,0.856C179.648,55.302,179.886,56.304,180.522,56.741z"/>
	<path d="M177.577,61.488c-0.276,0.727-0.599,1.726-0.231,2.465c0.722-0.641,1.016-1.611,0.84-2.55
		c-0.051-0.252-0.135-0.496-0.256-0.724C177.799,60.943,177.68,61.212,177.577,61.488z"/>
	<path d="M177.605,47.152c-0.221-0.083-0.452-0.136-0.688-0.157c0.467,0.694,1.447,1.833,2.301,1.866
		C179.066,48.067,178.338,47.421,177.605,47.152z"/>
	<path d="M180.75,48.83c-0.098-0.301-0.236-0.598-0.393-0.873c-0.072,0.251-0.121,0.509-0.151,0.769
		c-0.104,0.854-0.069,1.728,0.332,2.501C181.127,50.694,180.969,49.494,180.75,48.83z"/>
	<path d="M179.576,48.685c0.451-0.646,0.053-1.777-0.297-2.379c-0.152-0.264-0.334-0.515-0.537-0.743
		c-0.018,0.254-0.015,0.512,0.006,0.766C178.809,47.109,179.051,48.081,179.576,48.685z"/>
	<path d="M178.339,46.969c0.022-0.979-1.054-1.946-1.976-2.289c0.104,0.232,0.223,0.458,0.353,0.677
		C177.068,45.943,177.669,46.734,178.339,46.969z"/>
	<path d="M178.854,58.53c-0.256,0.858-0.59,2.531,0.014,3.234c0.584-0.685,0.657-1.746,0.35-2.566
		C179.126,58.958,179.006,58.73,178.854,58.53z"/>
	<path d="M179.83,56.779c-0.129-0.222-0.281-0.424-0.465-0.601c-0.096,0.888-0.137,2.59,0.564,3.181
		C180.378,58.587,180.26,57.532,179.83,56.779z"/>
	<path d="M181,53.955c0.945-0.648,0.82-2.375,0.486-3.364c-0.123,0.233-0.227,0.477-0.311,0.725
		C180.902,52.109,180.752,53.137,181,53.955z"/>
	<path d="M178.869,62.349c1.415-2.451,1.982-4.536,2.027-7.367c-0.046-2.145-0.389-3.752-1.245-5.719
		c-0.385-0.836-0.78-1.527-1.305-2.284c0.509,0.763,0.893,1.46,1.264,2.301c0.819,1.967,1.142,3.569,1.165,5.702
		c-0.071,2.798-0.648,4.855-2.064,7.27c-1.455,2.277-2.967,3.712-5.32,5.042c0.035,0.063,0.069,0.128,0.105,0.194
		C175.877,66.131,177.406,64.667,178.869,62.349z"/>
	<path d="M139.685,59.487c-0.106-0.885-0.685-1.818-1.269-2.471c-0.185-0.205-0.383-0.401-0.599-0.576
		c0.028,0.354,0.092,0.709,0.192,1.051C138.269,58.283,138.754,59.349,139.685,59.487z"/>
	<path d="M139.795,48.726c-0.033-0.26-0.082-0.518-0.152-0.769c-0.156,0.274-0.294,0.572-0.393,0.873
		c-0.219,0.665-0.377,1.865,0.212,2.397C139.863,50.454,139.897,49.581,139.795,48.726z"/>
	<path d="M139.075,56.793c0.056-0.923-0.274-1.883-0.726-2.683c-0.135-0.236-0.288-0.463-0.459-0.675
		c-0.043,0.344-0.051,0.693-0.022,1.04C137.934,55.294,138.241,56.469,139.075,56.793z"/>
	<path d="M139,53.955c0.247-0.817,0.097-1.845-0.175-2.639c-0.085-0.248-0.188-0.492-0.311-0.725
		C138.18,51.58,138.054,53.307,139,53.955z"/>
	<path d="M141.252,46.329c0.02-0.255,0.022-0.511,0.005-0.766c-0.203,0.229-0.385,0.479-0.538,0.743
		c-0.348,0.602-0.747,1.732-0.298,2.379C140.949,48.081,141.19,47.109,141.252,46.329z"/>
	<path d="M140.838,64.587c0.24,0.3,0.51,0.576,0.806,0.819c0.688,0.533,1.78,1.204,2.662,0.732c-0.644-0.716-1.69-1.204-2.615-1.422
		C141.413,64.65,141.125,64.604,140.838,64.587z"/>
	<path d="M142.393,47.152c-0.731,0.27-1.46,0.916-1.612,1.708c0.854-0.032,1.834-1.17,2.301-1.866
		C142.847,47.016,142.615,47.07,142.393,47.152z"/>
	<path d="M140.776,61.963c-0.284-0.855-1.039-1.653-1.756-2.171c-0.224-0.164-0.461-0.31-0.71-0.434
		c0.1,0.345,0.235,0.679,0.402,0.997C139.128,61.082,139.828,62.031,140.776,61.963z"/>
	<path d="M142.339,64.217c-0.515-0.831-1.337-1.457-2.226-1.859c-0.254-0.114-0.52-0.209-0.79-0.279
		c0.167,0.323,0.368,0.63,0.6,0.912C140.456,63.64,141.42,64.48,142.339,64.217z"/>
	<path d="M141.146,58.53c-0.152,0.201-0.273,0.428-0.363,0.667c-0.307,0.821-0.237,1.882,0.349,2.566
		C141.734,61.061,141.401,59.388,141.146,58.53z"/>
	<path d="M143.254,63.4c-0.009,0.94,0.474,1.948,1.311,2.417c0.341-0.89-0.636-2.45-1.188-3.194
		C143.297,62.875,143.256,63.138,143.254,63.4z"/>
	<path d="M142.422,61.488c-0.104-0.275-0.222-0.545-0.354-0.809c-0.121,0.228-0.204,0.471-0.255,0.724
		c-0.178,0.939,0.117,1.909,0.837,2.55C143.02,63.214,142.699,62.215,142.422,61.488z"/>
	<path d="M140.981,51.325c-0.222,0.097-0.429,0.226-0.616,0.381c-0.642,0.531-1.1,1.434-0.963,2.277
		C140.215,53.664,140.772,52.157,140.981,51.325z"/>
	<path d="M143.283,45.356c0.131-0.218,0.249-0.445,0.354-0.677c-0.922,0.344-1.998,1.311-1.977,2.29
		C142.331,46.734,142.932,45.943,143.283,45.356z"/>
	<path d="M139.477,56.741c0.637-0.437,0.873-1.439,0.999-2.183c0.048-0.284,0.082-0.569,0.102-0.856
		c-0.208,0.141-0.393,0.312-0.552,0.504C139.459,54.911,139.198,55.864,139.477,56.741z"/>
	<path d="M140.634,56.178c-0.183,0.177-0.337,0.38-0.464,0.601c-0.431,0.753-0.548,1.808-0.1,2.58
		C140.772,58.766,140.73,57.064,140.634,56.178z"/>
	<path d="M141.152,49.356c-0.723,0.428-1.255,1.113-1.303,1.976c0.853-0.168,1.604-1.444,1.968-2.252
		C141.583,49.14,141.36,49.236,141.152,49.356z"/>
	<path d="M141.289,62.252c-1.416-2.416-1.992-4.473-2.064-7.271c0.022-2.132,0.345-3.734,1.164-5.702
		c0.372-0.84,0.755-1.538,1.265-2.301c-0.525,0.756-0.919,1.447-1.305,2.284c-0.856,1.966-1.2,3.573-1.245,5.719
		c0.043,2.831,0.611,4.917,2.027,7.367c1.462,2.318,2.992,3.782,5.373,5.14c0.036-0.065,0.071-0.13,0.106-0.195
		C144.257,65.964,142.744,64.529,141.289,62.252z"/>
	<circle cx="143.973" cy="88.065" r="1.115"/>
	<circle cx="176.097" cy="88.327" r="1.115"/>
	<path d="M150.822,86.924c-0.356-0.106-0.643-0.201-1.062-0.343c-0.058,0.01-0.12,0.158-0.079,0.207l0.207,0.08
		c0.488,0.192,0.462,0.34,0.196,1.241l-0.894,3.021c-0.267,0.898-0.319,1.013-0.837,0.925l-0.22-0.037
		c-0.066,0.036-0.088,0.176-0.045,0.217c0.429,0.109,0.72,0.186,1.077,0.292c0.34,0.1,0.626,0.195,1.045,0.337
		c0.058-0.01,0.121-0.159,0.079-0.207l-0.204-0.09c-0.482-0.207-0.464-0.331-0.198-1.23l0.895-3.022
		c0.266-0.899,0.327-1.039,0.839-0.933l0.218,0.046c0.061-0.018,0.089-0.175,0.045-0.216
		C151.452,87.101,151.161,87.023,150.822,86.924z"/>
	<path d="M157.366,88.397c-0.546-0.278-1.165-0.404-1.903-0.492c-0.747-0.087-1.463-0.145-2.215-0.189
		c-0.091,0.024-0.1,0.166-0.035,0.218l0.19,0.051c0.364,0.097,0.385,0.286,0.313,0.902l-0.395,3.341
		c-0.109,0.923-0.139,1.026-0.657,1.036l-0.206,0.003c-0.059,0.047-0.058,0.189-0.008,0.222c0.416,0.031,0.733,0.059,1.103,0.104
		c0.308,0.036,0.862,0.172,1.424,0.238c0.678,0.08,1.412,0.051,2.02-0.19c1.067-0.426,1.716-1.322,1.848-2.439
		C158.981,90.042,158.502,88.969,157.366,88.397z M157.963,91.117c-0.193,1.635-1.09,2.662-2.796,2.461
		c-0.554-0.065-0.877-0.194-1.039-0.488c-0.125-0.229-0.118-0.513-0.063-0.979l0.383-3.247c0.047-0.395,0.091-0.612,0.167-0.657
		c0.077-0.044,0.366-0.082,0.885-0.02C157.805,88.458,158.078,90.148,157.963,91.117z"/>
	<path d="M165.605,91.355c-0.52,0.051-1.006,0.09-1.262,0.099c-0.059,0.031-0.051,0.191,0.021,0.218l0.393,0.006
		c0.553,0.008,0.584,0.058,0.657,0.798l0.035,0.351c0.028,0.282,0,0.447-0.037,0.511c-0.083,0.16-0.396,0.308-0.942,0.361
		c-1.77,0.176-2.775-1.068-2.943-2.757c-0.131-1.321,0.494-2.61,2.204-2.78c0.897-0.091,1.589,0.144,1.931,1.07
		c0.057,0.048,0.215,0.021,0.235-0.05c-0.133-0.522-0.231-0.974-0.261-1.264c-0.104,0.028-0.383-0.007-0.553-0.023
		c-0.153-0.021-0.631-0.071-1.132-0.021c-1.329,0.132-2.161,0.635-2.689,1.31c-0.489,0.636-0.659,1.417-0.584,2.165
		c0.076,0.775,0.427,1.442,1.009,1.919c0.746,0.619,1.735,0.814,2.783,0.709c0.475-0.049,1.1-0.216,1.555-0.386
		c0.162-0.061,0.318-0.112,0.423-0.122c0.032-0.031,0.026-0.084-0.003-0.107c-0.164-0.046-0.237-0.251-0.272-0.603l-0.05-0.494
		c-0.045-0.45-0.061-0.697,0.306-0.779l0.138-0.031c0.057-0.059,0.035-0.19-0.029-0.219
		C166.248,91.283,165.948,91.321,165.605,91.355z"/>
	<path d="M170.805,86.776c-0.474-0.125-1.027-0.06-1.729,0.152c-0.705,0.212-1.228,0.38-1.658,0.574
		c-0.059,0.054-0.027,0.184,0.048,0.216l0.313-0.058c0.395-0.072,0.455,0.066,0.672,0.787l0.943,3.127
		c0.268,0.89,0.281,0.997-0.189,1.212l-0.169,0.079c-0.036,0.066,0.021,0.197,0.079,0.208c0.369-0.129,0.671-0.231,1.027-0.337
		c0.338-0.103,0.621-0.179,1.107-0.308c0.045-0.041,0.02-0.191-0.046-0.217l-0.236,0.043c-0.56,0.105-0.61,0-0.879-0.89l-1.14-3.78
		c-0.082-0.273-0.084-0.308,0.366-0.443c0.881-0.265,1.524,0.122,1.772,0.944c0.222,0.738,0.048,1.355-0.817,1.799
		c-0.046,0.033-0.009,0.159,0.06,0.166c0.348-0.105,0.773-0.316,1.092-0.606c0.311-0.287,0.677-0.823,0.443-1.603
		C171.688,87.258,171.268,86.906,170.805,86.776z"/>
</g>
</svg>
