<?xml version="1.0" encoding="utf-8"?>
<!-- Generator: Adobe Illustrator 16.0.3, SVG Export Plug-In . SVG Version: 6.00 Build 0)  -->
<!DOCTYPE svg PUBLIC "-//W3C//DTD SVG 1.1//EN" "http://www.w3.org/Graphics/SVG/1.1/DTD/svg11.dtd">
<svg version="1.1" id="Layer_1" xmlns="http://www.w3.org/2000/svg" xmlns:xlink="http://www.w3.org/1999/xlink" x="0px" y="0px"
	 width="110px" height="110px" viewBox="105 0 110 110" enable-background="new 105 0 110 110" xml:space="preserve">
<g>
	<path d="M214.45,53.897l-4.33-3.284l3.694-3.984c0.297-0.32,0.424-0.75,0.348-1.181c-0.074-0.429-0.34-0.79-0.729-0.989
		l-4.835-2.482l2.947-4.566c0.236-0.367,0.285-0.812,0.136-1.223c-0.149-0.41-0.474-0.719-0.89-0.847l-5.19-1.604l2.106-5.009
		c0.17-0.401,0.141-0.849-0.077-1.229c-0.219-0.377-0.593-0.625-1.025-0.68l-5.391-0.679l1.207-5.298
		c0.093-0.412-0.005-0.839-0.269-1.169c-0.263-0.33-0.656-0.52-1.084-0.52l-5.492,0.269l0.268-5.427
		c0.018-0.383-0.117-0.746-0.379-1.02c-0.329-0.346-0.844-0.5-1.309-0.396l-5.298,1.206l-0.679-5.392
		c-0.088-0.689-0.678-1.209-1.373-1.209c-0.184,0-0.365,0.036-0.537,0.108l-5.006,2.108l-1.606-5.191
		c-0.181-0.583-0.712-0.975-1.321-0.975c-0.266,0-0.524,0.077-0.748,0.221l-4.568,2.945l-2.48-4.833
		c-0.237-0.464-0.709-0.752-1.23-0.752c-0.35,0-0.684,0.131-0.939,0.369l-3.984,3.693l-3.283-4.328C160.838,0.2,160.436,0,160,0
		c-0.437,0-0.838,0.2-1.102,0.548l-3.284,4.329l-3.985-3.693c-0.257-0.238-0.59-0.369-0.939-0.369c-0.522,0-0.994,0.289-1.23,0.752
		L146.977,6.4l-4.565-2.945c-0.224-0.145-0.483-0.222-0.749-0.222c-0.61,0-1.142,0.392-1.322,0.975l-1.604,5.19l-5.009-2.107
		c-0.171-0.072-0.352-0.108-0.536-0.108c-0.696,0-1.285,0.521-1.372,1.21l-0.679,5.391l-5.298-1.206
		c-0.465-0.104-0.98,0.05-1.309,0.396c-0.263,0.276-0.397,0.639-0.379,1.021l0.268,5.427l-5.429-0.268l-0.067-0.001
		c-0.423,0-0.816,0.189-1.08,0.521c-0.264,0.331-0.361,0.757-0.267,1.17l1.206,5.297l-5.392,0.679
		c-0.433,0.054-0.807,0.302-1.024,0.68c-0.218,0.378-0.246,0.826-0.077,1.229l2.107,5.008l-5.19,1.604
		c-0.418,0.129-0.743,0.438-0.892,0.849s-0.099,0.855,0.138,1.222l2.945,4.566l-4.834,2.481c-0.389,0.2-0.655,0.561-0.73,0.99
		c-0.076,0.429,0.051,0.86,0.348,1.18l3.693,3.985l-4.33,3.284C105.199,54.162,105,54.563,105,55c0,0.437,0.2,0.837,0.547,1.101
		l4.33,3.285l-3.693,3.983c-0.296,0.322-0.423,0.753-0.347,1.182c0.075,0.43,0.342,0.791,0.73,0.989l4.834,2.481l-2.946,4.569
		c-0.237,0.366-0.287,0.81-0.139,1.219c0.149,0.41,0.475,0.719,0.892,0.849l5.191,1.606l-2.107,5.006
		c-0.17,0.403-0.142,0.85,0.077,1.229c0.218,0.379,0.591,0.626,1.024,0.68l5.391,0.679l-1.206,5.297
		c-0.094,0.414,0.003,0.841,0.267,1.169c0.263,0.331,0.656,0.521,1.084,0.521l5.492-0.268l-0.268,5.425
		c-0.019,0.382,0.116,0.745,0.379,1.021c0.331,0.348,0.845,0.504,1.31,0.396l5.298-1.207l0.679,5.392
		c0.086,0.69,0.676,1.21,1.372,1.21c0.183,0,0.364-0.036,0.538-0.109l5.008-2.107l1.604,5.191c0.181,0.583,0.713,0.975,1.323,0.975
		c0.266,0,0.524-0.078,0.749-0.222l4.565-2.945l2.482,4.833c0.238,0.464,0.71,0.752,1.231,0.752c0.349,0,0.682-0.131,0.938-0.369
		l3.985-3.694l3.284,4.33c0.264,0.348,0.665,0.547,1.102,0.547c0.436,0,0.837-0.199,1.103-0.547l3.283-4.33l3.983,3.694
		c0.257,0.238,0.591,0.369,0.94,0.369c0.521,0,0.993-0.288,1.231-0.752l2.479-4.833l4.568,2.945
		c0.224,0.144,0.482,0.222,0.748,0.222c0.609,0,1.141-0.392,1.321-0.975l1.606-5.191l5.008,2.107
		c0.171,0.073,0.352,0.109,0.535,0.109c0.695,0,1.285-0.52,1.373-1.21l0.679-5.392l5.298,1.207c0.461,0.103,0.979-0.049,1.309-0.396
		c0.262-0.275,0.396-0.638,0.379-1.021l-0.268-5.425l5.43,0.266l0.066,0.001c0.423,0,0.816-0.189,1.08-0.52
		c0.264-0.331,0.361-0.757,0.268-1.171l-1.206-5.297l5.391-0.679c0.433-0.053,0.807-0.301,1.026-0.68
		c0.218-0.379,0.246-0.827,0.076-1.229l-2.106-5.006l5.19-1.605c0.418-0.13,0.742-0.439,0.89-0.848
		c0.15-0.411,0.1-0.856-0.137-1.221l-2.946-4.568l4.835-2.481c0.39-0.199,0.655-0.561,0.729-0.989
		c0.076-0.43-0.051-0.861-0.348-1.182l-3.694-3.983l4.33-3.284c0.349-0.264,0.548-0.666,0.548-1.102
		C214.998,54.563,214.799,54.162,214.45,53.897z M204.232,75.537l-0.115,0.035l2.578,6.125c0.035,0.083,0.029,0.175-0.016,0.253
		c-0.045,0.078-0.122,0.129-0.211,0.14l-6.475,0.815l-0.119,0.016l1.476,6.477c0.026,0.118-0.022,0.203-0.056,0.241
		c-0.057,0.072-0.139,0.108-0.238,0.108l-6.636-0.326l0.327,6.635c0.004,0.081-0.023,0.155-0.079,0.211
		c-0.068,0.073-0.167,0.105-0.269,0.082l-6.479-1.476l-0.83,6.593c-0.028,0.227-0.254,0.29-0.395,0.228l-6.124-2.577l-1.962,6.348
		c-0.056,0.184-0.204,0.203-0.267,0.203c-0.058,0-0.115-0.017-0.162-0.046l-5.583-3.602l-3.035,5.911
		c-0.06,0.115-0.171,0.156-0.255,0.156c-0.072,0-0.139-0.025-0.193-0.077l-4.785-4.436l-0.088-0.082l-4.015,5.295
		c-0.103,0.133-0.354,0.133-0.455,0l-4.016-5.295l-4.873,4.518c-0.069,0.063-0.143,0.077-0.193,0.077
		c-0.084,0-0.196-0.041-0.255-0.155l-3.035-5.912l-5.584,3.602c-0.046,0.029-0.104,0.046-0.162,0.046
		c-0.061,0-0.209-0.021-0.267-0.203l-1.962-6.348l-6.124,2.578c-0.142,0.062-0.366-0.002-0.394-0.228l-0.83-6.594l-6.479,1.476
		c-0.097,0.023-0.202-0.01-0.271-0.082c-0.054-0.057-0.082-0.132-0.078-0.211l0.328-6.635l-6.653,0.327
		c-0.087,0-0.167-0.039-0.222-0.108c-0.032-0.04-0.082-0.124-0.054-0.242l1.474-6.478l-6.593-0.831
		c-0.089-0.011-0.166-0.063-0.211-0.14c-0.045-0.078-0.051-0.171-0.016-0.253l2.578-6.125l-6.348-1.961
		c-0.086-0.027-0.154-0.091-0.185-0.177c-0.031-0.083-0.02-0.174,0.029-0.25l3.537-5.484l0.065-0.101l-5.912-3.036
		c-0.08-0.042-0.135-0.116-0.151-0.204c-0.016-0.09,0.01-0.179,0.073-0.245l4.516-4.873l-5.294-4.016
		c-0.071-0.055-0.113-0.137-0.113-0.227s0.041-0.173,0.113-0.227l5.294-4.016l-4.516-4.874c-0.062-0.066-0.088-0.155-0.072-0.243
		c0.016-0.089,0.071-0.163,0.151-0.204l5.911-3.035l-3.602-5.585c-0.049-0.076-0.059-0.167-0.028-0.252
		c0.031-0.085,0.098-0.149,0.184-0.175l6.348-1.963l-2.577-6.124c-0.035-0.083-0.029-0.176,0.016-0.254
		c0.045-0.078,0.122-0.129,0.211-0.14l6.592-0.83l-1.474-6.479c-0.026-0.111,0.016-0.193,0.054-0.242
		c0.057-0.071,0.137-0.107,0.237-0.107l6.638,0.328l-0.328-6.637c-0.004-0.079,0.024-0.154,0.077-0.21
		c0.069-0.072,0.175-0.105,0.271-0.082l6.361,1.447l0.118,0.027l0.83-6.593c0.028-0.223,0.253-0.286,0.394-0.228l6.124,2.577
		l1.961-6.348c0.04-0.127,0.139-0.203,0.267-0.203c0.058,0,0.116,0.016,0.163,0.047l5.584,3.602l3.035-5.911
		c0.059-0.114,0.17-0.155,0.254-0.155c0.074,0,0.139,0.025,0.193,0.076l4.873,4.516l4.016-5.294c0.1-0.133,0.354-0.133,0.455,0
		l4.014,5.293l4.873-4.516c0.056-0.05,0.121-0.076,0.194-0.076c0.085,0,0.196,0.041,0.255,0.155l2.98,5.804l0.055,0.107l5.584-3.602
		c0.047-0.03,0.104-0.047,0.162-0.047c0.127,0,0.227,0.075,0.266,0.202l1.928,6.233l0.034,0.115l6.124-2.578
		c0.143-0.061,0.367,0.004,0.395,0.228l0.816,6.473l0.014,0.12l6.48-1.475c0.093-0.022,0.199,0.009,0.27,0.083
		c0.053,0.056,0.081,0.13,0.077,0.209l-0.328,6.638l6.651-0.327c0.088,0,0.168,0.039,0.223,0.107
		c0.033,0.039,0.082,0.123,0.056,0.241l-1.449,6.361l-0.025,0.118l6.593,0.83c0.09,0.011,0.166,0.062,0.211,0.14
		c0.045,0.078,0.051,0.171,0.017,0.254l-2.578,6.124l6.349,1.963c0.086,0.026,0.154,0.091,0.186,0.174
		c0.029,0.085,0.018,0.178-0.029,0.253l-3.537,5.483l-0.065,0.102l5.911,3.035c0.081,0.041,0.135,0.113,0.151,0.203
		c0.015,0.089-0.011,0.179-0.073,0.245l-4.517,4.873l5.296,4.016c0.071,0.054,0.111,0.137,0.111,0.228
		c0,0.09-0.04,0.173-0.111,0.227l-5.199,3.943l-0.096,0.072l4.516,4.872c0.063,0.068,0.088,0.158,0.074,0.246
		c-0.018,0.09-0.07,0.163-0.152,0.204l-5.911,3.036l3.602,5.585c0.048,0.075,0.06,0.167,0.03,0.25
		c-0.031,0.084-0.1,0.149-0.186,0.176L204.232,75.537z"/>
	<path d="M188.748,55c0-15.852-12.896-28.748-28.749-28.748c-15.852,0-28.748,12.896-28.748,28.748S144.147,83.748,160,83.748
		S188.748,70.851,188.748,55z M160,82.308c-15.058,0-27.308-12.251-27.308-27.309c0-15.057,12.25-27.308,27.308-27.308
		c15.057,0,27.307,12.25,27.307,27.308S175.057,82.308,160,82.308z"/>
	<path d="M160,9.736c-24.958,0-45.263,20.305-45.263,45.263c0,24.959,20.305,45.264,45.263,45.264s45.263-20.305,45.263-45.264
		C205.263,30.041,184.958,9.736,160,9.736z M160,98.955c-24.237,0-43.956-19.718-43.956-43.956
		c0-24.237,19.718-43.956,43.956-43.956c24.237,0,43.956,19.719,43.956,43.956C203.955,79.237,184.236,98.955,160,98.955z"/>
	<path d="M180.521,56.74c0.279-0.877,0.018-1.83-0.549-2.534c-0.159-0.192-0.344-0.364-0.551-0.505
		c0.02,0.287,0.053,0.573,0.1,0.857C179.648,55.301,179.885,56.304,180.521,56.74z"/>
	<path d="M179.635,51.705c-0.188-0.154-0.394-0.283-0.616-0.381c0.21,0.832,0.765,2.339,1.579,2.659
		C180.732,53.139,180.276,52.236,179.635,51.705z"/>
	<path d="M178.853,58.529c-0.255,0.859-0.589,2.531,0.015,3.234c0.584-0.686,0.656-1.746,0.349-2.567
		C179.127,58.958,179.006,58.731,178.853,58.529z"/>
	<path d="M177.605,47.151c-0.221-0.082-0.452-0.136-0.688-0.157c0.467,0.695,1.447,1.833,2.299,1.866
		C179.066,48.067,178.336,47.421,177.605,47.151z"/>
	<path d="M178.847,49.357c-0.208-0.122-0.431-0.217-0.665-0.277c0.364,0.808,1.115,2.084,1.969,2.252
		C180.103,50.47,179.57,49.784,178.847,49.357z"/>
	<path d="M175.436,65.817c0.836-0.469,1.318-1.478,1.31-2.417c-0.003-0.263-0.042-0.526-0.122-0.777
		C176.07,63.367,175.094,64.927,175.436,65.817z"/>
	<path d="M177.576,61.487c-0.275,0.728-0.598,1.727-0.229,2.466c0.72-0.642,1.015-1.61,0.836-2.55
		c-0.049-0.252-0.133-0.497-0.254-0.724C177.799,60.943,177.68,61.212,177.576,61.487z"/>
	<path d="M175.693,66.137c0.881,0.473,1.973-0.198,2.66-0.731c0.297-0.244,0.568-0.52,0.807-0.82
		c-0.287,0.017-0.574,0.063-0.854,0.129C177.383,64.934,176.336,65.421,175.693,66.137z"/>
	<path d="M179.576,48.685c0.451-0.647,0.053-1.777-0.297-2.379c-0.152-0.265-0.333-0.514-0.537-0.743
		c-0.018,0.254-0.015,0.511,0.005,0.766C178.809,47.109,179.051,48.08,179.576,48.685z"/>
	<path d="M179.829,56.779c-0.126-0.221-0.282-0.425-0.464-0.602c-0.098,0.888-0.138,2.589,0.563,3.182
		C180.377,58.586,180.259,57.532,179.829,56.779z"/>
	<path d="M180.75,48.829c-0.1-0.301-0.238-0.598-0.393-0.873c-0.072,0.251-0.121,0.51-0.152,0.769
		c-0.104,0.855-0.07,1.728,0.332,2.501C181.127,50.693,180.969,49.494,180.75,48.829z"/>
	<path d="M181,53.955c0.945-0.648,0.82-2.375,0.486-3.364c-0.123,0.232-0.227,0.476-0.313,0.725
		C180.902,52.109,180.752,53.137,181,53.955z"/>
	<path d="M180.924,56.792c0.834-0.323,1.141-1.498,1.207-2.318c0.028-0.346,0.021-0.695-0.021-1.039
		c-0.174,0.211-0.325,0.439-0.461,0.675C181.197,54.909,180.867,55.871,180.924,56.792z"/>
	<path d="M178.338,46.969c0.023-0.979-1.054-1.946-1.975-2.29c0.104,0.232,0.222,0.459,0.353,0.677
		C177.067,45.943,177.668,46.733,178.338,46.969z"/>
	<path d="M179.223,61.962c0.949,0.069,1.648-0.881,2.063-1.608c0.169-0.317,0.303-0.652,0.402-0.997
		c-0.247,0.123-0.485,0.271-0.709,0.434C180.262,60.31,179.506,61.107,179.223,61.962z"/>
	<path d="M181.582,57.016c-0.582,0.653-1.162,1.586-1.268,2.47c0.931-0.137,1.416-1.203,1.672-1.994
		c0.102-0.342,0.166-0.696,0.195-1.052C181.966,56.614,181.767,56.81,181.582,57.016z"/>
	<path d="M177.659,64.217c0.92,0.264,1.884-0.577,2.417-1.226c0.23-0.282,0.433-0.589,0.6-0.912
		c-0.271,0.069-0.537,0.166-0.791,0.279C178.998,62.759,178.174,63.386,177.659,64.217z"/>
	<path d="M178.869,62.348c1.414-2.45,1.982-4.536,2.025-7.366c-0.045-2.146-0.389-3.752-1.244-5.72
		c-0.386-0.836-0.781-1.527-1.305-2.283c0.51,0.763,0.893,1.46,1.264,2.301c0.819,1.967,1.143,3.569,1.164,5.701
		c-0.071,2.798-0.648,4.855-2.063,7.271c-1.456,2.276-2.97,3.711-5.322,5.042c0.036,0.063,0.07,0.129,0.105,0.194
		C175.875,66.13,177.406,64.666,178.869,62.348z"/>
	<path d="M141.146,58.529c-0.153,0.202-0.274,0.428-0.363,0.667c-0.307,0.822-0.236,1.882,0.349,2.567
		C141.735,61.061,141.401,59.388,141.146,58.529z"/>
	<path d="M140.634,56.177c-0.182,0.177-0.338,0.381-0.464,0.602c-0.43,0.753-0.548,1.808-0.1,2.581
		C140.772,58.767,140.73,57.065,140.634,56.177z"/>
	<path d="M140.98,51.324c-0.223,0.097-0.429,0.227-0.616,0.381c-0.641,0.531-1.099,1.434-0.964,2.278
		C140.216,53.664,140.772,52.156,140.98,51.324z"/>
	<path d="M143.254,63.4c-0.009,0.939,0.475,1.948,1.31,2.417c0.341-0.891-0.636-2.451-1.188-3.194
		C143.296,62.874,143.257,63.137,143.254,63.4z"/>
	<path d="M141.152,49.357c-0.723,0.426-1.256,1.113-1.303,1.975c0.853-0.168,1.604-1.445,1.968-2.252
		C141.584,49.14,141.36,49.236,141.152,49.357z"/>
	<path d="M143.283,45.356c0.13-0.218,0.249-0.445,0.354-0.677c-0.922,0.344-1.999,1.311-1.977,2.29
		C142.331,46.733,142.932,45.943,143.283,45.356z"/>
	<path d="M139.477,56.74c0.637-0.437,0.874-1.439,0.999-2.182c0.048-0.284,0.082-0.57,0.102-0.857
		c-0.207,0.141-0.393,0.313-0.552,0.505C139.458,54.911,139.197,55.863,139.477,56.74z"/>
	<path d="M142.393,47.151c-0.73,0.269-1.46,0.916-1.612,1.708c0.854-0.033,1.834-1.171,2.301-1.866
		C142.847,47.016,142.615,47.069,142.393,47.151z"/>
	<path d="M142.339,64.217c-0.514-0.831-1.337-1.458-2.226-1.859c-0.254-0.113-0.52-0.21-0.79-0.279
		c0.167,0.323,0.368,0.63,0.6,0.912C140.456,63.64,141.42,64.48,142.339,64.217z"/>
	<path d="M140.838,64.586c0.24,0.3,0.51,0.576,0.807,0.82c0.688,0.533,1.78,1.204,2.662,0.731c-0.644-0.716-1.691-1.204-2.615-1.421
		C141.412,64.649,141.125,64.603,140.838,64.586z"/>
	<path d="M142.422,61.487c-0.104-0.275-0.223-0.543-0.354-0.808c-0.12,0.227-0.204,0.471-0.254,0.724
		c-0.178,0.94,0.117,1.909,0.837,2.55C143.021,63.214,142.699,62.215,142.422,61.487z"/>
	<path d="M140.776,61.962c-0.284-0.854-1.039-1.652-1.756-2.171c-0.224-0.163-0.461-0.311-0.709-0.434
		c0.099,0.344,0.234,0.679,0.402,0.997C139.128,61.081,139.828,62.031,140.776,61.962z"/>
	<path d="M139.685,59.486c-0.106-0.884-0.686-1.817-1.269-2.47c-0.185-0.206-0.384-0.401-0.598-0.576
		c0.029,0.355,0.093,0.709,0.193,1.052C138.269,58.282,138.754,59.348,139.685,59.486z"/>
	<path d="M138.999,53.955c0.248-0.817,0.098-1.846-0.174-2.639c-0.085-0.249-0.188-0.493-0.312-0.725
		C138.18,51.579,138.054,53.306,138.999,53.955z"/>
	<path d="M139.794,48.725c-0.032-0.259-0.081-0.518-0.151-0.769c-0.156,0.274-0.294,0.572-0.394,0.873
		c-0.219,0.665-0.378,1.864,0.212,2.398C139.864,50.453,139.898,49.581,139.794,48.725z"/>
	<path d="M141.252,46.328c0.02-0.254,0.023-0.511,0.005-0.766c-0.204,0.229-0.385,0.478-0.538,0.743
		c-0.348,0.603-0.746,1.732-0.297,2.379C140.949,48.08,141.19,47.109,141.252,46.328z"/>
	<path d="M139.076,56.792c0.056-0.921-0.274-1.883-0.726-2.682c-0.136-0.236-0.288-0.464-0.459-0.675
		c-0.042,0.344-0.051,0.693-0.022,1.039C137.934,55.294,138.241,56.469,139.076,56.792z"/>
	<path d="M141.289,62.251c-1.415-2.415-1.992-4.472-2.063-7.27c0.021-2.132,0.344-3.734,1.164-5.702
		c0.372-0.84,0.755-1.538,1.264-2.301c-0.524,0.756-0.919,1.447-1.304,2.283c-0.856,1.967-1.201,3.574-1.245,5.719
		c0.043,2.831,0.612,4.917,2.027,7.367c1.462,2.319,2.992,3.782,5.374,5.139c0.035-0.064,0.07-0.13,0.106-0.194
		C144.257,65.963,142.744,64.527,141.289,62.251z"/>
	<circle cx="143.972" cy="88.065" r="1.115"/>
	<path d="M176.097,87.212c-0.615,0-1.116,0.499-1.116,1.116c0,0.615,0.501,1.115,1.116,1.115c0.616,0,1.115-0.499,1.115-1.115
		C177.212,87.711,176.713,87.212,176.097,87.212z"/>
	<path d="M168.49,52.385c-0.363-0.422-0.68-0.255-1.158-0.004c-0.234,0.123-0.557,0.293-1.025,0.497
		c-1.354,0.589-2.378,0.726-4.219-0.167c-1.921-0.93-3.926-0.797-5.578,0.349l-0.113-0.036c-0.044-0.014-0.093-0.023-0.146-0.026
		c-0.602-0.043-1.493,0.808-2.723,2.583c-0.412,0.595-0.792,1.097-1.117,1.525c-0.844,1.116-1.353,1.789-1.186,2.465
		c0.048,0.196,0.148,0.375,0.313,0.552c0.194,0.209,0.488,0.414,0.897,0.635l-1.1,3.003c-0.056,0.152,0.022,0.32,0.174,0.376
		c0.041,0.014,0.081,0.02,0.122,0.017c0.111-0.008,0.213-0.079,0.253-0.191l1.077-2.939c0.006,0.003,0.011,0.006,0.018,0.009
		c0.031,0.014,0.065,0.023,0.099,0.027c0.021,0.003,2.193,0.216,3.72,0.981c0.833,0.417,1.559,0.405,1.993-0.03
		c0.531-0.535,0.468-1.57-0.175-2.84c-1.083-2.14-1.56-3.974-1.607-4.629c-0.007-0.101-0.079-0.613-0.171-0.999
		c1.488-1.04,3.245-1.153,4.995-0.305c2.036,0.986,3.226,0.823,4.707,0.176c0.05-0.022,0.093-0.042,0.14-0.063
		c0.117,0.342,0.365,0.846,0.854,1.081c0.208,0.1,0.433,0.141,0.675,0.124c0.18-0.013,0.37-0.062,0.568-0.139
		c0.199,2.22-2.324,4.574-4.12,6.246c-0.228,0.211-0.442,0.412-0.636,0.597c-2.2,2.107-1.958,5.508-1.947,5.652
		c0.013,0.16,0.152,0.281,0.313,0.269c0.002,0.001,0.002,0,0.003,0c0.161-0.013,0.281-0.153,0.268-0.314
		c-0.003-0.033-0.233-3.265,1.769-5.182c0.192-0.184,0.404-0.382,0.631-0.593C167.324,58.979,171.118,55.444,168.49,52.385z"/>
	<path d="M163.263,54.896c0.063-0.09,0.042-0.212-0.046-0.276c-0.028-0.021-0.703-0.493-1.334-0.271
		c-0.061,0.021-0.119,0.047-0.172,0.08c-0.284,0.165-0.491,0.472-0.617,0.915c-0.031,0.105,0.029,0.215,0.136,0.246
		c0.105,0.03,0.144-0.179,0.245-0.137c0.645,0.261,0.898,0.24,1.143,0.156c0.436-0.154,0.363-0.668,0.368-0.665
		C163.076,55.007,163.199,54.985,163.263,54.896z"/>
	<path d="M158.265,47.232c0.043,0.335,0.257,0.608,0.636,0.813c0.465,0.248,0.966,0.227,1.598,0.2
		c0.583-0.024,1.481-0.05,2.437,0.12c0.887,0.454,1.67,0.858,2.055,1.066c0.299,0.161,0.588,0.226,0.866,0.226
		c0.665,0,1.268-0.37,1.781-0.687c0.264-0.162,0.513-0.315,0.749-0.412c0.122-0.05,0.181-0.189,0.131-0.312
		c-0.051-0.123-0.191-0.182-0.313-0.131c-0.271,0.111-0.537,0.274-0.818,0.447c-0.719,0.442-1.398,0.861-2.17,0.446
		c-1.049-0.564-5.016-2.574-6.092-3.118c0,0-0.001,0-0.002,0c-0.165-0.084-0.264-0.133-0.27-0.137
		c-0.021-0.01-0.042-0.018-0.063-0.021c-2.123-0.403-2.84-1.089-3.078-1.463c-0.121-0.19-0.173-0.385-0.145-0.542
		c0.334-0.162,2.198,0.303,3.566,0.644c1.455,0.362,3.102,0.772,4.298,0.881c2.843,0.255,4.755-1.617,4.834-1.696
		c0.095-0.094,0.095-0.245,0.001-0.339c-0.094-0.093-0.244-0.093-0.338,0c-0.019,0.018-1.84,1.793-4.455,1.559
		c-1.158-0.105-2.787-0.511-4.225-0.869c-2.013-0.502-3.207-0.783-3.767-0.649c-0.328-0.075-1.806-0.418-2.286-0.665
		c-0.44-0.227-1.05-0.164-1.386,0.144c-0.235,0.216-0.299,0.514-0.173,0.819c0.125,0.304,0.567,0.698,4.195,1.533
		c0.509,0.404,1.364,0.82,2.802,1.102C158.441,46.432,158.212,46.819,158.265,47.232z M159.076,46.402
		c0.568,0.287,1.61,0.815,2.681,1.361c-0.492-0.028-0.913-0.012-1.277,0.003c-0.583,0.023-1.003,0.042-1.353-0.145
		c-0.238-0.128-0.365-0.275-0.387-0.45C158.705,46.901,158.916,46.587,159.076,46.402z M152.078,43.372
		c-0.049-0.118-0.032-0.206,0.054-0.284c0.167-0.153,0.554-0.219,0.844-0.07c0.474,0.244,1.636,0.53,2.123,0.643
		c-0.041,0.254,0.02,0.533,0.177,0.803C152.57,43.81,152.132,43.484,152.078,43.372z"/>
	<path d="M145.226,59.904l0.017,0.038c0,0.002,0,0.003,0,0.004c0.035,0.157,0.186,0.255,0.337,0.222
		c0.151-0.034,0.246-0.188,0.21-0.345c0,0,0-0.001,0-0.001l0.005,0l-0.027-0.06c-0.699-1.525-1.146-3.133-1.328-4.78
		c-0.458-4.15,0.731-8.235,3.35-11.502c2.617-3.268,6.345-5.319,10.494-5.777c0.574-0.063,1.156-0.096,1.73-0.096
		c7.988,0,14.671,5.992,15.548,13.938c0.175,1.579,0.103,3.181-0.215,4.759l-0.01,0.049l0.004,0.001
		c-0.008,0.028-0.018,0.056-0.018,0.086c-0.004,0.168,0.117,0.306,0.27,0.309c0.135,0.004,0.246-0.104,0.272-0.246l0.006,0.003
		l0.012-0.058c0.335-1.647,0.412-3.317,0.231-4.963c-0.44-3.986-2.336-7.652-5.338-10.322c-2.98-2.651-6.803-4.111-10.764-4.111
		c-0.594,0-1.197,0.033-1.791,0.099c-4.297,0.475-8.156,2.599-10.867,5.982c-2.71,3.383-3.942,7.613-3.467,11.91
		C144.072,56.712,144.523,58.349,145.226,59.904z"/>
	<path d="M175.378,57.315c-0.145-0.034-0.292,0.049-0.339,0.19c-0.723,2.205-2.884,2.77-3.697,2.982
		c-3.683,0.961-3.9,2.459-3.824,3.058c0.108,0.838,0.953,1.47,1.967,1.47c0.477,0,0.949-0.141,1.37-0.41
		c4.068-2.592,4.716-6.793,4.742-6.97C175.617,57.488,175.523,57.349,175.378,57.315z M170.545,64.123
		c-0.327,0.209-0.693,0.319-1.06,0.319c-0.714,0-1.327-0.426-1.397-0.969c-0.094-0.721,0.752-1.737,3.4-2.429
		c0.604-0.158,1.879-0.492,2.898-1.455C173.781,60.973,172.641,62.789,170.545,64.123z"/>
	<path d="M150.613,64.73c0,0-1.132,4.874,13.151,13.848c0,0,1.543-2.994-1.049-10.049C162.715,68.529,152.107,67,150.613,64.73z"/>
	<path d="M149.44,60.528c-0.575,0.801-0.407,1.654-0.076,2.327c-1.078-0.816-2.422-0.307-2.422-0.307
		c0.57,1.982,3.326,1.566,3.326,1.566l0.006-0.007C151.599,61.815,149.44,60.528,149.44,60.528z"/>
	<path d="M141.146,83.065l-0.452-0.311l-0.456-0.331c-0.075-0.06-0.18-0.137-0.312-0.23c-0.013-0.009-0.027-0.001-0.045,0.024
		c-0.018,0.025-0.021,0.042-0.008,0.051c0.141,0.099,0.236,0.182,0.286,0.249c0.05,0.066,0.064,0.136,0.043,0.208
		c-0.02,0.072-0.076,0.173-0.167,0.302l-2.027,2.863c-0.088,0.125-0.165,0.209-0.229,0.252c-0.065,0.044-0.139,0.056-0.221,0.036
		s-0.191-0.08-0.328-0.176c-0.013-0.009-0.027,0-0.045,0.024c-0.018,0.025-0.021,0.042-0.008,0.051l0.315,0.213
		c0.188,0.121,0.346,0.226,0.475,0.317c0.116,0.083,0.263,0.192,0.438,0.329l0.319,0.235c0.012,0.009,0.027,0.001,0.045-0.024
		c0.018-0.024,0.021-0.042,0.008-0.05c-0.141-0.099-0.235-0.184-0.283-0.252c-0.047-0.068-0.064-0.14-0.048-0.216
		s0.068-0.175,0.156-0.299l2.036-2.876c0.088-0.125,0.166-0.208,0.233-0.25c0.067-0.043,0.141-0.051,0.219-0.027
		c0.079,0.025,0.189,0.087,0.33,0.187c0.012,0.008,0.027,0,0.045-0.024c0.018-0.025,0.02-0.042,0.008-0.051
		C141.336,83.19,141.227,83.117,141.146,83.065z"/>
	<path d="M136.056,85.039c-0.044-0.122-0.067-0.287-0.07-0.496l2.239-2.469c0.181-0.199,0.363-0.312,0.547-0.337
		s0.356,0.036,0.518,0.182c0.012,0.01,0.027,0.004,0.048-0.019c0.021-0.023,0.025-0.039,0.014-0.049
		c-0.113-0.102-0.201-0.179-0.265-0.229l-0.337-0.296l-0.294-0.277c-0.049-0.051-0.125-0.123-0.226-0.215
		c-0.007-0.007-0.021,0-0.042,0.023c-0.021,0.022-0.027,0.037-0.02,0.044c0.15,0.137,0.217,0.292,0.201,0.469
		c-0.017,0.177-0.115,0.365-0.296,0.564l-2.081,2.294l0.143-5.471c-0.001-0.014-0.012-0.027-0.035-0.041s-0.039-0.014-0.049-0.003
		l-2.644,2.915c-0.18,0.199-0.361,0.314-0.541,0.347c-0.18,0.032-0.345-0.021-0.496-0.156c-0.007-0.007-0.021,0.001-0.042,0.023
		c-0.021,0.023-0.027,0.037-0.02,0.045l0.253,0.219c0.134,0.108,0.239,0.197,0.314,0.265c0.079,0.071,0.175,0.166,0.289,0.282
		l0.226,0.215c0.008,0.007,0.022-0.001,0.042-0.023c0.021-0.022,0.027-0.037,0.02-0.044c-0.147-0.133-0.211-0.289-0.193-0.468
		c0.018-0.179,0.118-0.368,0.298-0.567l1.81-1.996l-0.138,4.231l-0.029,0.303c-0.01,0.072-0.015,0.123-0.014,0.152
		c0.002,0.028,0.017,0.057,0.048,0.083c0.063,0.058,0.12,0.106,0.168,0.143l0.366,0.322c0.09,0.081,0.158,0.146,0.204,0.194
		l0.22,0.21c0.008,0.007,0.022-0.001,0.042-0.024c0.021-0.022,0.027-0.037,0.02-0.044C136.166,85.263,136.099,85.161,136.056,85.039
		z"/>
	<path d="M132.554,80.163c-0.018-0.022-0.03-0.03-0.038-0.023c-0.367,0.16-0.688,0.222-0.961,0.187s-0.508-0.174-0.703-0.414
		c-0.086-0.106-0.14-0.193-0.162-0.261c-0.022-0.067-0.018-0.13,0.014-0.188c0.031-0.058,0.098-0.128,0.201-0.211l2.737-2.22
		c0.118-0.096,0.216-0.154,0.294-0.175c0.078-0.021,0.156-0.002,0.235,0.054c0.079,0.057,0.181,0.163,0.305,0.316
		c0.007,0.008,0.022,0.002,0.045-0.017s0.033-0.033,0.025-0.041c-0.118-0.146-0.212-0.258-0.284-0.338l-0.38-0.456l-0.387-0.49
		c-0.061-0.082-0.146-0.192-0.258-0.33c-0.009-0.012-0.026-0.008-0.05,0.011c-0.023,0.019-0.031,0.035-0.021,0.046
		c0.125,0.154,0.207,0.274,0.244,0.361s0.039,0.165,0.002,0.233c-0.036,0.068-0.115,0.151-0.237,0.251l-2.725,2.209
		c-0.107,0.086-0.191,0.141-0.255,0.163c-0.064,0.022-0.127,0.014-0.19-0.022c-0.063-0.037-0.139-0.111-0.229-0.221
		c-0.201-0.249-0.289-0.504-0.264-0.766c0.026-0.263,0.174-0.537,0.446-0.822c0.008-0.013,0.004-0.031-0.013-0.053
		s-0.033-0.027-0.044-0.019c-0.153,0.125-0.359,0.282-0.617,0.471c-0.258,0.19-0.453,0.328-0.584,0.416
		c-0.015,0.013-0.015,0.029,0,0.048c0.017,0.021,0.034,0.025,0.053,0.017c0.075-0.028,0.151-0.016,0.226,0.037
		c0.076,0.053,0.174,0.154,0.295,0.304l0.332,0.397c0.219,0.253,0.423,0.497,0.611,0.729c0.368,0.454,0.683,0.854,0.946,1.203
		c0.179,0.221,0.225,0.366,0.138,0.437c-0.02,0.016-0.021,0.035-0.003,0.057c0.018,0.021,0.036,0.024,0.056,0.008
		c0.122-0.099,0.313-0.237,0.571-0.414s0.471-0.319,0.637-0.428C132.575,80.2,132.572,80.184,132.554,80.163z"/>
	<path d="M128.367,75.835l3.008-1.836c0.129-0.08,0.234-0.126,0.311-0.141c0.078-0.014,0.147,0.006,0.21,0.06
		c0.063,0.054,0.139,0.154,0.229,0.301c0.008,0.013,0.025,0.011,0.051-0.004c0.026-0.016,0.035-0.031,0.027-0.044l-1.722-2.819
		c-0.023-0.039-0.047-0.061-0.07-0.064c-0.023-0.004-0.051,0.005-0.086,0.026c-0.272,0.167-0.587,0.329-0.943,0.486
		c-0.004,0.003-0.006,0.012-0.006,0.026s0.004,0.029,0.012,0.042c0.01,0.017,0.021,0.023,0.029,0.019
		c0.658-0.188,1.165,0.008,1.519,0.588l0.195,0.318c0.084,0.139,0.115,0.252,0.092,0.341c-0.023,0.088-0.107,0.176-0.25,0.263
		l-1.475,0.901l-0.377-0.617c-0.296-0.485-0.258-0.842,0.114-1.069c0.008-0.005,0.005-0.021-0.011-0.047
		c-0.016-0.026-0.028-0.037-0.037-0.031c-0.086,0.053-0.196,0.126-0.33,0.22l-0.301,0.193l-0.569,0.339
		c-0.013,0.007-0.012,0.023,0.002,0.047s0.028,0.032,0.041,0.023c0.321-0.195,0.626-0.055,0.917,0.421l0.381,0.624l-1.326,0.809
		c-0.134,0.082-0.249,0.108-0.345,0.078c-0.096-0.031-0.191-0.124-0.286-0.28l-0.159-0.26c-0.304-0.498-0.241-0.95,0.189-1.355
		c0.011-0.012,0.007-0.029-0.013-0.05c-0.019-0.021-0.033-0.029-0.041-0.024l-0.837,0.529c-0.039,0.023-0.045,0.058-0.019,0.101
		l1.65,2.702c0.008,0.013,0.025,0.012,0.05-0.004c0.026-0.017,0.036-0.031,0.027-0.043c-0.087-0.143-0.14-0.256-0.158-0.34
		c-0.019-0.083-0.004-0.156,0.042-0.217C128.148,75.984,128.237,75.914,128.367,75.835z"/>
	<path d="M125.995,71.702l3.234-1.4c0.139-0.06,0.249-0.092,0.328-0.093c0.08-0.001,0.147,0.029,0.201,0.091
		c0.055,0.062,0.116,0.172,0.185,0.331c0.006,0.014,0.022,0.015,0.051,0.002c0.027-0.011,0.039-0.024,0.033-0.039
		c-0.066-0.153-0.122-0.273-0.164-0.36l-0.225-0.5l-0.217-0.52c-0.032-0.086-0.08-0.206-0.147-0.359
		c-0.004-0.01-0.021-0.008-0.048,0.004c-0.028,0.012-0.04,0.023-0.036,0.032c0.069,0.159,0.107,0.279,0.115,0.361
		c0.008,0.083-0.015,0.15-0.069,0.205c-0.054,0.054-0.153,0.112-0.297,0.174l-1.558,0.674c-0.051-0.144-0.099-0.267-0.143-0.369
		c-0.024-0.056-0.063-0.133-0.117-0.231c0.491-0.705,0.86-1.283,1.106-1.736c0.247-0.452,0.347-0.731,0.3-0.839l-0.487-1.125
		c-0.006-0.014-0.023-0.015-0.05-0.002c-0.028,0.012-0.039,0.024-0.033,0.038c0.083,0.191,0.096,0.417,0.04,0.676
		c-0.057,0.26-0.188,0.585-0.394,0.979c-0.206,0.393-0.508,0.902-0.906,1.528c-0.224-0.185-0.469-0.304-0.735-0.357
		c-0.267-0.053-0.528-0.025-0.784,0.086c-0.284,0.123-0.457,0.33-0.52,0.619c-0.063,0.29-0.006,0.637,0.169,1.042
		c0.046,0.108,0.09,0.203,0.132,0.287c0.042,0.084,0.079,0.156,0.109,0.214c0.093,0.175,0.172,0.34,0.238,0.494
		c0.055,0.126,0.122,0.293,0.201,0.502l0.15,0.367c0.004,0.009,0.02,0.007,0.048-0.004c0.028-0.012,0.04-0.022,0.036-0.032
		c-0.066-0.153-0.103-0.273-0.11-0.359c-0.006-0.085,0.017-0.155,0.071-0.209C125.759,71.819,125.855,71.762,125.995,71.702z
		 M125.302,71.068c-0.101-0.047-0.191-0.163-0.269-0.344c-0.105-0.242-0.11-0.459-0.017-0.652c0.094-0.192,0.329-0.37,0.706-0.533
		c0.335-0.146,0.607-0.186,0.814-0.121c0.208,0.065,0.377,0.249,0.509,0.551c0.068,0.159,0.118,0.297,0.147,0.418l-1.474,0.638
		C125.542,71.102,125.403,71.116,125.302,71.068z"/>
	<path d="M127.571,65.398c0.167,0.08,0.277,0.226,0.331,0.438c0.004,0.015,0.021,0.019,0.05,0.011
		c0.03-0.007,0.042-0.019,0.039-0.033c-0.037-0.148-0.068-0.26-0.094-0.337l-0.118-0.434l-0.092-0.393
		c-0.013-0.07-0.036-0.172-0.069-0.304c-0.002-0.01-0.019-0.011-0.048-0.004c-0.03,0.007-0.043,0.016-0.041,0.026
		c0.05,0.196,0.02,0.364-0.093,0.502c-0.111,0.138-0.297,0.24-0.559,0.307l-3.002,0.761l3.144-4.479
		c0.007-0.012,0.005-0.03-0.006-0.053c-0.011-0.023-0.024-0.033-0.039-0.029l-3.814,0.967c-0.261,0.066-0.475,0.063-0.642-0.01
		c-0.168-0.072-0.277-0.208-0.327-0.404c-0.002-0.009-0.018-0.011-0.048-0.003c-0.029,0.007-0.043,0.016-0.041,0.026l0.09,0.323
		c0.052,0.165,0.091,0.296,0.116,0.395c0.026,0.104,0.055,0.235,0.084,0.395l0.069,0.304c0.002,0.01,0.018,0.011,0.048,0.004
		s0.043-0.016,0.041-0.026c-0.049-0.192-0.016-0.357,0.098-0.497c0.114-0.139,0.301-0.241,0.562-0.307l2.612-0.663l-2.455,3.45
		l-0.191,0.237c-0.049,0.054-0.081,0.093-0.095,0.118c-0.015,0.025-0.018,0.057-0.007,0.096c0.021,0.084,0.042,0.154,0.062,0.212
		l0.127,0.47c0.03,0.118,0.051,0.209,0.062,0.274l0.068,0.297c0.002,0.01,0.018,0.011,0.048,0.003s0.043-0.016,0.041-0.025
		c-0.03-0.119-0.03-0.24,0.001-0.366s0.103-0.276,0.215-0.451l3.231-0.82C127.19,65.31,127.404,65.317,127.571,65.398z"/>
	<path d="M126.166,60.09c0.152,0.079,0.26,0.164,0.324,0.255c0.064,0.091,0.102,0.208,0.114,0.349
		c0.002,0.025,0.019,0.037,0.049,0.034c0.03-0.002,0.045-0.016,0.042-0.042c-0.009-0.106-0.026-0.239-0.05-0.4
		c-0.026-0.181-0.045-0.34-0.057-0.477c-0.012-0.141-0.021-0.309-0.028-0.501c-0.004-0.173-0.011-0.305-0.019-0.396
		c-0.003-0.025-0.019-0.036-0.049-0.034s-0.044,0.017-0.042,0.042c0.02,0.228-0.01,0.408-0.09,0.543
		c-0.08,0.134-0.208,0.208-0.385,0.224c-0.122,0.011-0.261-0.01-0.418-0.063l-0.851-0.292l-0.159-1.835l1.118-0.678
		c0.174-0.102,0.299-0.156,0.375-0.162c0.076-0.007,0.134,0.022,0.172,0.088c0.039,0.065,0.064,0.171,0.077,0.318
		c0.002,0.021,0.018,0.029,0.048,0.026c0.03-0.002,0.044-0.014,0.042-0.035c-0.008-0.096-0.024-0.229-0.05-0.4
		s-0.043-0.32-0.054-0.446c-0.008-0.097-0.017-0.251-0.025-0.464c-0.008-0.213-0.017-0.368-0.025-0.463
		c-0.002-0.026-0.018-0.037-0.049-0.034c-0.03,0.002-0.044,0.017-0.042,0.042c0.012,0.137-0.044,0.27-0.167,0.4
		c-0.124,0.13-0.359,0.3-0.708,0.508l-3.584,2.183c-0.015,0.007-0.021,0.028-0.018,0.063c0.003,0.036,0.013,0.058,0.029,0.066
		l3.812,1.312C125.792,59.921,126.014,60.012,126.166,60.09z M122.673,58.629l1.691-1.025l0.144,1.661L122.673,58.629z"/>
	<path d="M122.817,55.318c0.015,0,0.023-0.013,0.024-0.041c0.001-0.029-0.003-0.043-0.013-0.043c-0.38-0.125-0.66-0.292-0.841-0.501
		c-0.181-0.209-0.264-0.468-0.249-0.777c0.006-0.137,0.024-0.238,0.053-0.303c0.028-0.064,0.073-0.108,0.135-0.13
		c0.063-0.022,0.159-0.03,0.291-0.024l3.52,0.168c0.152,0.007,0.265,0.029,0.336,0.065c0.072,0.037,0.119,0.102,0.139,0.197
		c0.021,0.095,0.027,0.241,0.017,0.439c0,0.011,0.015,0.016,0.045,0.018c0.03,0.001,0.046-0.003,0.046-0.013
		c0.009-0.188,0.014-0.334,0.014-0.441l0.021-0.593l0.038-0.624c0.01-0.101,0.019-0.24,0.028-0.418c0-0.015-0.014-0.023-0.045-0.024
		c-0.03-0.001-0.046,0.005-0.047,0.021c-0.009,0.198-0.029,0.341-0.059,0.432c-0.03,0.09-0.081,0.148-0.153,0.175
		c-0.072,0.027-0.187,0.037-0.344,0.029l-3.504-0.168c-0.137-0.006-0.236-0.023-0.298-0.049c-0.063-0.026-0.105-0.073-0.126-0.143
		c-0.022-0.069-0.03-0.175-0.023-0.317c0.015-0.319,0.12-0.568,0.313-0.747c0.194-0.179,0.488-0.284,0.88-0.316
		c0.015-0.004,0.024-0.02,0.025-0.048c0.001-0.028-0.006-0.042-0.021-0.043c-0.197-0.009-0.456-0.029-0.774-0.06
		c-0.319-0.03-0.556-0.057-0.713-0.079c-0.02-0.001-0.031,0.011-0.032,0.036s0.008,0.041,0.028,0.047
		c0.075,0.029,0.123,0.089,0.144,0.179c0.021,0.09,0.027,0.231,0.018,0.424l-0.017,0.518c-0.006,0.335-0.016,0.652-0.031,0.951
		c-0.028,0.583-0.06,1.092-0.096,1.527c-0.014,0.284-0.076,0.423-0.188,0.418c-0.025-0.001-0.039,0.012-0.04,0.04
		c-0.001,0.028,0.011,0.042,0.036,0.043c0.157,0.007,0.391,0.032,0.701,0.072S122.62,55.289,122.817,55.318z"/>
	<path d="M121.953,49.813c0.03,0.005,0.046,0,0.049-0.015c0.027-0.17,0.061-0.292,0.101-0.365c0.04-0.074,0.097-0.12,0.172-0.138
		c0.075-0.019,0.188-0.016,0.338,0.008l3.479,0.557c0.15,0.024,0.26,0.057,0.327,0.099c0.068,0.042,0.108,0.104,0.121,0.185
		c0.013,0.082,0.005,0.208-0.021,0.378c-0.003,0.015,0.011,0.025,0.041,0.03c0.03,0.004,0.046,0,0.049-0.016
		c0.027-0.165,0.045-0.295,0.055-0.392l0.079-0.542l0.097-0.555c0.021-0.094,0.043-0.222,0.069-0.382
		c0.002-0.015-0.012-0.025-0.042-0.03c-0.03-0.005-0.046,0-0.049,0.015c-0.027,0.171-0.06,0.292-0.096,0.366
		c-0.038,0.074-0.094,0.117-0.167,0.131c-0.075,0.015-0.189,0.008-0.344-0.016l-3.465-0.555c-0.15-0.024-0.259-0.056-0.328-0.095
		c-0.068-0.04-0.111-0.1-0.129-0.183c-0.018-0.082-0.013-0.207,0.013-0.372c0.002-0.015-0.011-0.025-0.042-0.03
		c-0.03-0.005-0.046,0-0.049,0.016l-0.052,0.377c-0.025,0.222-0.05,0.411-0.076,0.566c-0.022,0.14-0.056,0.32-0.101,0.539
		l-0.07,0.39C121.909,49.798,121.923,49.808,121.953,49.813z"/>
	<path d="M123.521,46.469c0.284,0.358,0.677,0.61,1.178,0.757c0.429,0.125,0.852,0.145,1.271,0.059s0.786-0.275,1.101-0.566
		c0.315-0.291,0.54-0.664,0.671-1.116c0.134-0.458,0.151-0.914,0.051-1.369c-0.1-0.455-0.3-0.853-0.602-1.195
		c-0.302-0.342-0.674-0.578-1.118-0.708c-0.399-0.116-0.804-0.133-1.215-0.05c-0.41,0.084-0.775,0.269-1.094,0.556
		c-0.319,0.288-0.547,0.663-0.682,1.125c-0.122,0.414-0.15,0.846-0.085,1.295C123.063,45.707,123.237,46.111,123.521,46.469z
		 M123.187,44.317c0.108-0.371,0.303-0.664,0.583-0.88s0.62-0.348,1.019-0.392c0.399-0.045,0.822-0.001,1.27,0.129
		c0.424,0.124,0.77,0.298,1.038,0.521c0.267,0.224,0.446,0.475,0.537,0.752s0.093,0.563,0.008,0.854
		c-0.1,0.341-0.295,0.616-0.585,0.824c-0.292,0.209-0.646,0.334-1.066,0.378c-0.419,0.043-0.861-0.002-1.324-0.138
		c-0.599-0.175-1.03-0.442-1.292-0.802C123.111,45.206,123.048,44.79,123.187,44.317z"/>
	<path d="M124.367,40.428c0.027,0.014,0.043,0.016,0.048,0.006c0.053-0.109,0.132-0.202,0.237-0.278s0.256-0.145,0.456-0.206
		l2.998,1.458c0.242,0.118,0.4,0.261,0.476,0.431c0.076,0.169,0.065,0.352-0.03,0.548c-0.007,0.014,0.003,0.027,0.031,0.041
		s0.045,0.013,0.051,0c0.066-0.137,0.115-0.243,0.146-0.318l0.19-0.407l0.183-0.359c0.036-0.062,0.083-0.154,0.143-0.277
		c0.005-0.009-0.007-0.021-0.035-0.034c-0.027-0.014-0.043-0.015-0.047-0.006c-0.089,0.183-0.221,0.291-0.395,0.324
		s-0.382-0.008-0.625-0.126l-2.785-1.355l5.292-1.395c0.013-0.004,0.023-0.019,0.03-0.044c0.007-0.025,0.003-0.041-0.01-0.048
		l-3.538-1.721c-0.242-0.118-0.403-0.259-0.484-0.422c-0.082-0.164-0.078-0.336,0.011-0.519c0.005-0.009-0.007-0.021-0.034-0.034
		c-0.028-0.014-0.043-0.015-0.048-0.007l-0.14,0.305c-0.066,0.16-0.122,0.285-0.166,0.376c-0.046,0.096-0.109,0.215-0.19,0.356
		l-0.144,0.277c-0.005,0.009,0.007,0.02,0.035,0.034c0.027,0.013,0.043,0.015,0.048,0.006c0.086-0.178,0.218-0.283,0.395-0.316
		c0.176-0.033,0.386,0.01,0.627,0.127l2.422,1.179l-4.101,1.052l-0.299,0.058c-0.072,0.01-0.123,0.02-0.149,0.028
		c-0.027,0.01-0.05,0.033-0.067,0.069c-0.038,0.077-0.067,0.145-0.09,0.202l-0.207,0.441c-0.053,0.109-0.096,0.193-0.129,0.25
		l-0.14,0.271C124.329,40.403,124.34,40.415,124.367,40.428z"/>
	<path d="M130.933,36.874c0.065,0.158,0.094,0.292,0.083,0.403c-0.01,0.111-0.056,0.225-0.138,0.34
		c-0.015,0.021-0.009,0.04,0.016,0.058c0.024,0.018,0.045,0.016,0.059-0.005c0.062-0.087,0.135-0.2,0.22-0.339
		c0.097-0.155,0.185-0.289,0.264-0.4c0.082-0.116,0.182-0.25,0.302-0.402c0.107-0.135,0.188-0.24,0.24-0.314
		c0.014-0.021,0.009-0.04-0.016-0.057c-0.025-0.018-0.044-0.016-0.06,0.004c-0.131,0.187-0.271,0.306-0.419,0.356
		s-0.294,0.025-0.439-0.077c-0.1-0.07-0.193-0.176-0.279-0.317l-0.461-0.772l1.062-1.505l1.291,0.203
		c0.199,0.035,0.33,0.074,0.392,0.118c0.062,0.043,0.087,0.103,0.074,0.178c-0.012,0.075-0.061,0.172-0.146,0.292
		c-0.011,0.017-0.005,0.034,0.02,0.051c0.024,0.018,0.043,0.018,0.055,0.001c0.056-0.079,0.129-0.191,0.22-0.338
		c0.091-0.146,0.173-0.272,0.247-0.375c0.055-0.079,0.149-0.203,0.28-0.371c0.131-0.168,0.224-0.292,0.28-0.371
		c0.015-0.021,0.009-0.04-0.016-0.058c-0.025-0.018-0.045-0.016-0.059,0.005c-0.079,0.112-0.208,0.178-0.386,0.198
		c-0.179,0.021-0.469-0.002-0.87-0.068l-4.146-0.644c-0.016-0.004-0.034,0.008-0.054,0.037c-0.021,0.029-0.027,0.052-0.021,0.069
		l2.067,3.46C130.756,36.503,130.868,36.715,130.933,36.874z M129.208,33.504l1.953,0.307l-0.961,1.362L129.208,33.504z"/>
	<path d="M130.899,29.875c0.115-0.122,0.21-0.203,0.286-0.243c0.076-0.04,0.149-0.045,0.22-0.018
		c0.071,0.028,0.162,0.095,0.273,0.199l2.568,2.414c0.11,0.104,0.184,0.192,0.218,0.263s0.034,0.144-0.001,0.218
		c-0.036,0.075-0.112,0.175-0.23,0.301c-0.007,0.007,0,0.021,0.023,0.042c0.021,0.021,0.036,0.028,0.043,0.021l2.44-2.595
		c0.031-0.033,0.046-0.062,0.043-0.085c-0.003-0.023-0.019-0.049-0.048-0.077c-0.229-0.215-0.502-0.503-0.818-0.863
		c-0.011-0.01-0.026-0.007-0.045,0.009c-0.019,0.017-0.025,0.033-0.018,0.047c0.192,0.292,0.276,0.597,0.252,0.915
		c-0.024,0.319-0.16,0.609-0.407,0.872l-0.312,0.333c-0.101,0.107-0.181,0.178-0.241,0.212c-0.06,0.034-0.121,0.039-0.18,0.014
		c-0.06-0.025-0.14-0.084-0.24-0.178l-2.54-2.388c-0.111-0.104-0.184-0.191-0.218-0.262c-0.035-0.071-0.036-0.145-0.001-0.221
		c0.034-0.076,0.107-0.175,0.222-0.297c0.01-0.011,0.005-0.027-0.018-0.048c-0.022-0.021-0.038-0.026-0.049-0.015l-0.255,0.282
		c-0.146,0.17-0.271,0.31-0.375,0.421c-0.097,0.103-0.225,0.233-0.386,0.389l-0.271,0.278c-0.007,0.007,0.001,0.021,0.022,0.042
		C130.877,29.875,130.892,29.882,130.899,29.875z"/>
	<path d="M135.848,24.996c0.136-0.098,0.245-0.159,0.327-0.184c0.082-0.024,0.155-0.016,0.22,0.025
		c0.064,0.042,0.14,0.124,0.229,0.248l2.053,2.864c0.089,0.124,0.142,0.224,0.16,0.302c0.019,0.078,0.003,0.149-0.047,0.216
		c-0.049,0.066-0.144,0.15-0.283,0.25c-0.008,0.006-0.004,0.021,0.014,0.046c0.018,0.024,0.03,0.034,0.039,0.028
		c0.14-0.101,0.248-0.181,0.323-0.241l0.435-0.321c0.12-0.086,0.228-0.161,0.326-0.225c0.098-0.064,0.18-0.116,0.244-0.156
		c0.178-0.108,0.331-0.209,0.458-0.301c0.375-0.269,0.66-0.599,0.854-0.991c0.194-0.392,0.273-0.808,0.238-1.248
		c-0.034-0.44-0.195-0.86-0.482-1.261c-0.254-0.354-0.573-0.61-0.957-0.766c-0.383-0.156-0.797-0.2-1.241-0.131
		c-0.444,0.069-0.876,0.253-1.297,0.555c-0.07,0.05-0.206,0.153-0.405,0.31c-0.161,0.133-0.323,0.259-0.488,0.378
		c-0.108,0.077-0.254,0.176-0.442,0.297l-0.333,0.229c-0.008,0.006-0.003,0.021,0.014,0.046
		C135.827,24.992,135.839,25.001,135.848,24.996z M137.232,24.106c0.08-0.089,0.207-0.195,0.38-0.319
		c0.284-0.204,0.594-0.299,0.928-0.286c0.334,0.013,0.663,0.121,0.986,0.323c0.323,0.202,0.612,0.481,0.866,0.836
		c0.266,0.371,0.433,0.734,0.5,1.088c0.067,0.355,0.038,0.679-0.084,0.973c-0.123,0.294-0.327,0.544-0.612,0.748
		c-0.251,0.18-0.446,0.266-0.584,0.255c-0.139-0.01-0.268-0.1-0.39-0.269l-1.996-2.783c-0.083-0.115-0.123-0.217-0.119-0.303
		S137.153,24.195,137.232,24.106z"/>
	<path d="M142.787,24.491c0.347,0.251,0.734,0.394,1.162,0.429c0.427,0.036,0.853-0.051,1.276-0.259
		c0.428-0.21,0.775-0.506,1.043-0.887s0.426-0.798,0.474-1.251c0.048-0.454-0.03-0.888-0.234-1.302
		c-0.184-0.374-0.445-0.683-0.784-0.929c-0.339-0.246-0.722-0.39-1.149-0.431c-0.427-0.041-0.857,0.045-1.29,0.258
		c-0.387,0.191-0.725,0.461-1.012,0.813c-0.288,0.351-0.468,0.752-0.54,1.204c-0.072,0.451,0.007,0.911,0.239,1.38
		C142.168,23.915,142.44,24.24,142.787,24.491z M142.298,21.414c0.087-0.436,0.353-0.763,0.793-0.98
		c0.346-0.171,0.693-0.226,1.042-0.166c0.35,0.06,0.675,0.222,0.978,0.486c0.303,0.264,0.557,0.605,0.763,1.023
		c0.195,0.396,0.3,0.769,0.317,1.117c0.016,0.348-0.047,0.65-0.191,0.904c-0.143,0.254-0.352,0.449-0.625,0.583
		c-0.319,0.157-0.653,0.198-1.003,0.125c-0.351-0.074-0.684-0.25-1-0.53c-0.316-0.28-0.581-0.636-0.794-1.068
		C142.304,22.349,142.21,21.851,142.298,21.414z"/>
	<path d="M148.266,21.97c0.321,0.293,0.715,0.484,1.184,0.572s0.978,0.05,1.527-0.114c0.481-0.144,1.008-0.375,1.58-0.694
		c0.031-0.02,0.05-0.036,0.057-0.049s0.006-0.034-0.003-0.063c-0.007-0.024-0.033-0.08-0.078-0.167
		c-0.045-0.087-0.1-0.241-0.166-0.459c-0.083-0.277-0.135-0.473-0.156-0.588s-0.018-0.197,0.01-0.246
		c0.028-0.048,0.092-0.084,0.19-0.108c0.024-0.007,0.031-0.028,0.021-0.062c-0.003-0.01-0.009-0.02-0.021-0.03
		c-0.011-0.009-0.021-0.013-0.031-0.011c-0.258,0.093-0.509,0.176-0.752,0.249c-0.243,0.073-0.57,0.157-0.981,0.253
		c-0.009,0.002-0.017,0.011-0.02,0.026c-0.004,0.015-0.003,0.029,0.001,0.043c0.011,0.04,0.032,0.054,0.062,0.045
		c0.248-0.074,0.426-0.108,0.537-0.104c0.109,0.004,0.194,0.052,0.253,0.143c0.059,0.091,0.126,0.263,0.202,0.516
		c0.073,0.243,0.101,0.436,0.085,0.578c-0.016,0.143-0.075,0.255-0.177,0.338c-0.102,0.083-0.258,0.157-0.467,0.219
		c-0.413,0.124-0.811,0.128-1.191,0.014c-0.381-0.114-0.712-0.326-0.993-0.637c-0.281-0.31-0.487-0.687-0.62-1.129
		c-0.125-0.417-0.155-0.81-0.093-1.175c0.063-0.366,0.207-0.675,0.43-0.927c0.224-0.252,0.503-0.429,0.839-0.529
		c0.428-0.128,0.815-0.104,1.164,0.069s0.62,0.399,0.813,0.675c0.01,0.018,0.029,0.021,0.054,0.007
		c0.025-0.013,0.036-0.027,0.032-0.041l-0.382-0.935c-0.023-0.062-0.042-0.099-0.053-0.111c-0.011-0.013-0.042-0.022-0.092-0.028
		c-0.168-0.03-0.373-0.029-0.615,0.001c-0.242,0.03-0.485,0.081-0.728,0.154c-0.53,0.159-0.98,0.4-1.349,0.725
		s-0.621,0.703-0.757,1.136c-0.136,0.432-0.134,0.882,0.006,1.348C147.72,21.312,147.945,21.677,148.266,21.97z"/>
	<path d="M155.104,17.882c0.001,0.016,0.016,0.022,0.043,0.02c0.028-0.002,0.041-0.008,0.041-0.019
		c0.075-0.393,0.205-0.692,0.389-0.898c0.184-0.206,0.431-0.322,0.739-0.346c0.137-0.011,0.239-0.007,0.307,0.013
		c0.067,0.02,0.117,0.059,0.147,0.118c0.03,0.059,0.051,0.153,0.062,0.285l0.284,3.513c0.013,0.151,0.005,0.266-0.021,0.341
		c-0.027,0.076-0.086,0.13-0.178,0.164c-0.092,0.033-0.236,0.057-0.433,0.073c-0.01,0-0.014,0.016-0.012,0.046
		c0.002,0.031,0.009,0.045,0.019,0.044c0.187-0.015,0.333-0.029,0.439-0.043l0.591-0.056l0.623-0.042
		c0.102-0.003,0.241-0.012,0.418-0.026c0.015-0.001,0.022-0.017,0.019-0.047c-0.002-0.03-0.011-0.045-0.026-0.044
		c-0.197,0.016-0.342,0.015-0.436-0.003s-0.158-0.061-0.194-0.129c-0.036-0.068-0.061-0.181-0.073-0.338l-0.283-3.497
		c-0.011-0.137-0.007-0.237,0.01-0.303c0.018-0.065,0.06-0.113,0.125-0.144s0.17-0.052,0.312-0.063
		c0.319-0.026,0.579,0.046,0.781,0.215c0.202,0.17,0.344,0.447,0.426,0.832c0.006,0.015,0.023,0.021,0.051,0.019
		c0.028-0.002,0.042-0.011,0.04-0.026c-0.016-0.198-0.029-0.456-0.04-0.776c-0.011-0.32-0.015-0.559-0.012-0.717
		c-0.002-0.02-0.015-0.029-0.041-0.027c-0.025,0.002-0.04,0.014-0.043,0.034c-0.019,0.078-0.072,0.133-0.158,0.166
		c-0.086,0.032-0.226,0.056-0.418,0.072l-0.515,0.049c-0.333,0.037-0.649,0.068-0.947,0.092c-0.582,0.047-1.09,0.08-1.526,0.101
		c-0.283,0.023-0.429-0.021-0.438-0.132c-0.002-0.025-0.017-0.037-0.045-0.035s-0.041,0.016-0.039,0.041
		c0.013,0.157,0.019,0.392,0.019,0.705C155.11,17.428,155.108,17.684,155.104,17.882z"/>
	<path d="M160.276,20.965c0.167,0.011,0.298,0.017,0.396,0.019l0.547,0.029l0.562,0.045c0.091,0.011,0.22,0.022,0.387,0.034
		c0.01,0,0.017-0.014,0.019-0.045c0.002-0.03-0.002-0.046-0.012-0.047c-0.172-0.011-0.297-0.032-0.373-0.063
		c-0.078-0.031-0.127-0.082-0.15-0.155c-0.023-0.073-0.03-0.188-0.02-0.345l0.113-1.693c0.15,0.02,0.282,0.034,0.394,0.041
		c0.06,0.004,0.146,0.005,0.259,0.002c0.402,0.759,0.748,1.352,1.037,1.778c0.29,0.426,0.492,0.643,0.609,0.65l1.211,0.081
		c0.094,0.02,0.2,0.04,0.33,0.061c0.181,0.03,0.338,0.061,0.471,0.091c0.139,0.032,0.301,0.073,0.487,0.126
		c0.165,0.048,0.294,0.083,0.382,0.103c0.025,0.005,0.041-0.007,0.048-0.036c0.007-0.03-0.003-0.047-0.026-0.053
		c-0.224-0.05-0.387-0.134-0.49-0.251s-0.136-0.262-0.096-0.436c0.027-0.119,0.09-0.245,0.188-0.378l0.538-0.721l1.796,0.408
		l0.305,1.271c0.044,0.197,0.058,0.333,0.041,0.407c-0.018,0.074-0.063,0.12-0.138,0.137c-0.073,0.017-0.183,0.009-0.325-0.023
		c-0.021-0.005-0.034,0.008-0.041,0.038c-0.006,0.03,0,0.046,0.021,0.051c0.094,0.021,0.226,0.046,0.396,0.074
		c0.172,0.028,0.318,0.057,0.441,0.084c0.094,0.021,0.244,0.061,0.449,0.118c0.207,0.058,0.355,0.096,0.45,0.118
		c0.024,0.005,0.04-0.006,0.048-0.036c0.006-0.03-0.003-0.048-0.027-0.053c-0.134-0.03-0.244-0.124-0.33-0.282
		c-0.087-0.157-0.176-0.434-0.268-0.83l-0.986-4.079c-0.002-0.016-0.02-0.028-0.055-0.036s-0.059-0.005-0.071,0.007l-2.411,3.23
		c-0.188,0.249-0.341,0.434-0.462,0.554c-0.122,0.121-0.235,0.198-0.341,0.231c-0.107,0.033-0.229,0.034-0.368,0.002
		c-0.003,0-0.004,0.001-0.007,0.001c-0.184-0.028-0.367-0.113-0.549-0.263c-0.205-0.168-0.436-0.434-0.69-0.797
		c-0.255-0.362-0.57-0.864-0.944-1.504c0.267-0.115,0.484-0.278,0.654-0.49s0.264-0.458,0.281-0.736
		c0.021-0.309-0.084-0.558-0.313-0.746s-0.563-0.297-1.004-0.326c-0.116-0.008-0.223-0.012-0.315-0.014
		c-0.094-0.001-0.175-0.001-0.24,0c-0.198,0.002-0.382-0.002-0.548-0.014c-0.137-0.009-0.316-0.026-0.539-0.051L160.6,16.22
		c-0.01-0.001-0.016,0.014-0.018,0.044s0.002,0.046,0.012,0.046c0.167,0.011,0.29,0.034,0.369,0.066
		c0.079,0.033,0.131,0.086,0.153,0.159c0.022,0.073,0.03,0.185,0.02,0.337l-0.233,3.517c-0.011,0.152-0.033,0.263-0.068,0.334
		c-0.035,0.072-0.094,0.117-0.174,0.137c-0.08,0.021-0.206,0.024-0.378,0.013c-0.016-0.001-0.024,0.014-0.026,0.044
		C160.254,20.948,160.261,20.964,160.276,20.965z M168.373,18.081l0.461,1.923l-1.625-0.369L168.373,18.081z M161.864,16.937
		c0.013-0.192,0.063-0.322,0.151-0.39c0.089-0.068,0.232-0.095,0.429-0.082c0.265,0.018,0.459,0.112,0.588,0.284
		c0.128,0.171,0.18,0.462,0.151,0.872c-0.023,0.364-0.112,0.624-0.266,0.779c-0.152,0.155-0.393,0.222-0.723,0.2
		c-0.172-0.012-0.318-0.031-0.438-0.06L161.864,16.937z"/>
	<path d="M171.194,22.819l0.519,0.177l0.527,0.197c0.09,0.037,0.211,0.083,0.363,0.138c0.015,0.005,0.027-0.006,0.037-0.035
		s0.008-0.045-0.006-0.051c-0.162-0.058-0.277-0.112-0.342-0.162c-0.066-0.051-0.099-0.113-0.099-0.189
		c0-0.075,0.026-0.187,0.079-0.335l1.182-3.304c0.051-0.143,0.102-0.245,0.152-0.305c0.051-0.06,0.119-0.091,0.203-0.093
		c0.084-0.002,0.205,0.025,0.363,0.082c0.015,0.005,0.026-0.007,0.037-0.036c0.01-0.029,0.008-0.045-0.006-0.051l-0.361-0.121
		c-0.215-0.065-0.395-0.125-0.543-0.178c-0.135-0.048-0.305-0.114-0.512-0.199l-0.369-0.14c-0.015-0.005-0.026,0.007-0.037,0.035
		c-0.01,0.029-0.008,0.045,0.006,0.05c0.163,0.058,0.277,0.114,0.342,0.166c0.064,0.053,0.099,0.118,0.104,0.195
		s-0.019,0.188-0.069,0.331l-1.187,3.318c-0.051,0.144-0.104,0.245-0.156,0.303c-0.054,0.059-0.122,0.087-0.205,0.085
		c-0.082-0.002-0.205-0.033-0.367-0.091c-0.015-0.005-0.026,0.007-0.037,0.035c-0.01,0.029-0.008,0.046,0.006,0.051
		C170.977,22.75,171.103,22.792,171.194,22.819z"/>
	<path d="M173.832,23.455c-0.17,0.073-0.354,0.062-0.549-0.036c-0.014-0.007-0.026,0.003-0.04,0.03s-0.015,0.044,0,0.051
		c0.136,0.068,0.241,0.119,0.315,0.15l0.405,0.195l0.356,0.188c0.063,0.036,0.153,0.085,0.276,0.146
		c0.009,0.004,0.021-0.007,0.034-0.034c0.014-0.027,0.016-0.043,0.007-0.048c-0.181-0.091-0.288-0.224-0.319-0.398
		c-0.031-0.175,0.014-0.382,0.133-0.623l1.391-2.769l1.33,5.308c0.004,0.014,0.02,0.023,0.044,0.031
		c0.024,0.007,0.04,0.003,0.048-0.01l1.765-3.517c0.12-0.241,0.263-0.4,0.428-0.479c0.165-0.08,0.338-0.074,0.519,0.018
		c0.01,0.004,0.021-0.007,0.035-0.034c0.014-0.027,0.016-0.043,0.006-0.048l-0.303-0.144c-0.158-0.068-0.283-0.125-0.373-0.17
		c-0.096-0.048-0.213-0.113-0.354-0.195l-0.275-0.146c-0.01-0.004-0.021,0.007-0.035,0.034c-0.014,0.027-0.016,0.043-0.007,0.048
		c0.178,0.089,0.28,0.222,0.312,0.398c0.029,0.177-0.016,0.386-0.137,0.626l-1.207,2.408l-1.002-4.113l-0.054-0.299
		c-0.01-0.073-0.019-0.123-0.027-0.15s-0.032-0.05-0.067-0.068c-0.078-0.039-0.145-0.07-0.201-0.093l-0.438-0.212
		c-0.108-0.054-0.192-0.099-0.249-0.133l-0.268-0.143c-0.01-0.004-0.021,0.007-0.035,0.034s-0.016,0.043-0.006,0.048
		c0.107,0.055,0.199,0.135,0.274,0.24s0.142,0.259,0.2,0.458l-1.495,2.98C174.146,23.224,174.002,23.381,173.832,23.455z"/>
	<path d="M181.126,22.521c0.05,0.066,0.068,0.138,0.055,0.214c-0.015,0.076-0.063,0.178-0.147,0.304l-1.949,2.936
		c-0.084,0.126-0.16,0.212-0.226,0.257c-0.065,0.044-0.139,0.055-0.218,0.033c-0.08-0.022-0.192-0.082-0.336-0.177
		c-0.012-0.008-0.027,0-0.044,0.025c-0.017,0.026-0.019,0.042-0.007,0.051c0.14,0.093,0.252,0.164,0.334,0.213l0.461,0.296
		l0.465,0.318c0.078,0.058,0.184,0.131,0.319,0.221c0.013,0.008,0.028,0,0.044-0.025c0.018-0.025,0.02-0.042,0.007-0.051
		c-0.144-0.095-0.241-0.175-0.293-0.24c-0.052-0.065-0.067-0.134-0.05-0.207s0.07-0.175,0.157-0.307l1.941-2.922
		c0.084-0.127,0.158-0.213,0.222-0.259c0.064-0.046,0.138-0.06,0.221-0.042c0.081,0.018,0.193,0.073,0.332,0.166
		c0.013,0.008,0.027,0,0.045-0.025c0.017-0.026,0.019-0.042,0.006-0.051l-0.321-0.204c-0.192-0.115-0.353-0.216-0.483-0.303
		c-0.119-0.079-0.268-0.184-0.448-0.316l-0.325-0.225c-0.013-0.008-0.027,0-0.045,0.025c-0.016,0.025-0.02,0.042-0.006,0.051
		C180.979,22.373,181.076,22.455,181.126,22.521z"/>
	<path d="M183.621,24.255c0.048,0.12,0.076,0.285,0.085,0.493l-2.165,2.534c-0.176,0.205-0.354,0.322-0.537,0.353
		c-0.184,0.031-0.357-0.025-0.523-0.167c-0.012-0.01-0.027-0.003-0.047,0.02c-0.02,0.023-0.023,0.04-0.013,0.049
		c0.116,0.099,0.206,0.173,0.271,0.222l0.347,0.286l0.301,0.268c0.051,0.05,0.129,0.12,0.232,0.208
		c0.008,0.007,0.021-0.001,0.041-0.025c0.021-0.023,0.026-0.038,0.019-0.044c-0.154-0.132-0.226-0.287-0.214-0.464
		c0.011-0.177,0.104-0.368,0.278-0.572l2.013-2.355l0.02,5.472c0,0.014,0.012,0.028,0.035,0.041
		c0.022,0.012,0.039,0.013,0.049,0.001l2.557-2.991c0.175-0.204,0.352-0.325,0.529-0.363c0.18-0.038,0.346,0.01,0.5,0.142
		c0.008,0.006,0.021-0.001,0.041-0.024c0.02-0.023,0.025-0.039,0.019-0.045l-0.26-0.212c-0.138-0.104-0.245-0.189-0.322-0.255
		c-0.081-0.069-0.181-0.161-0.297-0.274l-0.231-0.208c-0.008-0.006-0.021,0.002-0.042,0.025c-0.021,0.023-0.026,0.038-0.019,0.045
		c0.15,0.128,0.22,0.282,0.207,0.461c-0.014,0.179-0.107,0.371-0.281,0.575l-1.751,2.048l0.014-4.233l0.02-0.304
		c0.009-0.073,0.012-0.123,0.009-0.152c-0.002-0.029-0.018-0.056-0.049-0.083c-0.066-0.056-0.123-0.102-0.173-0.138l-0.376-0.311
		c-0.092-0.079-0.162-0.142-0.209-0.188l-0.227-0.204c-0.007-0.007-0.021,0.002-0.041,0.025c-0.02,0.023-0.025,0.038-0.018,0.045
		C183.504,24.035,183.574,24.134,183.621,24.255z"/>
	<path d="M185.763,30.796c-0.141,0.411-0.157,0.849-0.051,1.313s0.345,0.916,0.716,1.354c0.324,0.384,0.747,0.773,1.268,1.17
		c0.031,0.021,0.053,0.031,0.068,0.033c0.014,0.001,0.033-0.008,0.056-0.028c0.02-0.016,0.06-0.063,0.122-0.138
		c0.063-0.076,0.181-0.188,0.355-0.335c0.221-0.187,0.379-0.313,0.477-0.378c0.098-0.066,0.174-0.096,0.229-0.089
		c0.057,0.007,0.114,0.05,0.176,0.131c0.017,0.02,0.038,0.018,0.065-0.005c0.007-0.006,0.015-0.017,0.019-0.031
		c0.005-0.014,0.004-0.025-0.002-0.033c-0.189-0.2-0.365-0.396-0.529-0.59c-0.164-0.193-0.372-0.459-0.625-0.797
		c-0.006-0.008-0.017-0.01-0.031-0.008c-0.014,0.002-0.027,0.008-0.039,0.019c-0.031,0.026-0.037,0.051-0.018,0.074
		c0.168,0.198,0.271,0.348,0.311,0.45s0.03,0.199-0.029,0.289c-0.061,0.09-0.19,0.221-0.393,0.391
		c-0.193,0.164-0.357,0.267-0.495,0.31s-0.265,0.034-0.382-0.027c-0.117-0.06-0.246-0.173-0.387-0.34
		c-0.279-0.33-0.441-0.691-0.489-1.086c-0.049-0.395,0.013-0.783,0.187-1.165c0.172-0.381,0.434-0.721,0.787-1.02
		c0.333-0.282,0.68-0.467,1.039-0.556c0.361-0.088,0.701-0.081,1.022,0.024c0.32,0.104,0.594,0.29,0.819,0.557
		c0.289,0.341,0.423,0.706,0.403,1.095c-0.021,0.389-0.118,0.728-0.293,1.015c-0.013,0.017-0.008,0.035,0.015,0.053
		c0.021,0.018,0.038,0.022,0.051,0.012l0.702-0.724c0.048-0.046,0.074-0.077,0.081-0.093c0.007-0.016,0.002-0.047-0.011-0.095
		c-0.04-0.166-0.123-0.354-0.247-0.563c-0.125-0.21-0.27-0.413-0.434-0.605c-0.357-0.423-0.758-0.738-1.203-0.946
		c-0.445-0.208-0.893-0.288-1.344-0.239c-0.45,0.049-0.861,0.23-1.233,0.545C186.148,30.032,185.902,30.385,185.763,30.796z"/>
	<path d="M193.09,35.574l-3.088,1.699c-0.137,0.076-0.244,0.119-0.32,0.128c-0.075,0.01-0.143-0.013-0.201-0.067
		s-0.13-0.157-0.213-0.309c-0.008-0.014-0.024-0.013-0.051,0.002c-0.027,0.015-0.037,0.029-0.029,0.042
		c0.08,0.146,0.146,0.261,0.197,0.343l0.271,0.477l0.313,0.584c0.051,0.105,0.127,0.248,0.228,0.431
		c0.007,0.014,0.024,0.013,0.051-0.002c0.026-0.015,0.036-0.029,0.028-0.042c-0.112-0.205-0.182-0.362-0.207-0.473
		c-0.027-0.11-0.016-0.2,0.03-0.268c0.046-0.069,0.14-0.143,0.282-0.221l3.048-1.676c0.128-0.071,0.229-0.112,0.302-0.123
		s0.135,0.005,0.188,0.049s0.107,0.119,0.167,0.225c0.159,0.289,0.187,0.568,0.083,0.839c-0.102,0.271-0.329,0.503-0.68,0.696
		c-0.355,0.196-0.674,0.266-0.953,0.211c-0.279-0.055-0.482-0.198-0.609-0.429c-0.047-0.084-0.08-0.167-0.102-0.248
		c-0.001-0.011-0.01-0.017-0.026-0.016c-0.017,0-0.032,0.005-0.046,0.012c-0.021,0.012-0.029,0.025-0.021,0.038
		c0.023,0.097,0.07,0.208,0.139,0.332c0.129,0.235,0.305,0.439,0.525,0.609c0.222,0.17,0.471,0.274,0.745,0.312
		s0.553-0.022,0.833-0.176c0.387-0.213,0.604-0.499,0.648-0.857c0.047-0.358-0.051-0.758-0.293-1.198
		c-0.068-0.125-0.131-0.231-0.186-0.32c-0.055-0.088-0.098-0.158-0.132-0.209c-0.095-0.14-0.169-0.26-0.226-0.362
		c-0.066-0.12-0.148-0.28-0.247-0.481l-0.185-0.351c-0.008-0.013-0.023-0.013-0.051,0.002c-0.027,0.015-0.035,0.028-0.029,0.042
		c0.081,0.147,0.129,0.261,0.142,0.344c0.014,0.082-0.004,0.153-0.052,0.211C193.314,35.434,193.224,35.5,193.09,35.574z"/>
	<path d="M195.305,39.87l-3.295,1.25c-0.143,0.054-0.253,0.08-0.333,0.078c-0.079-0.002-0.145-0.036-0.196-0.1
		c-0.052-0.064-0.108-0.178-0.17-0.339c-0.005-0.014-0.021-0.016-0.05-0.005s-0.04,0.023-0.034,0.038
		c0.059,0.157,0.107,0.279,0.146,0.367l0.203,0.51l0.192,0.529c0.027,0.087,0.071,0.209,0.13,0.366
		c0.004,0.009,0.02,0.009,0.049-0.002c0.028-0.011,0.041-0.021,0.037-0.03c-0.062-0.161-0.094-0.283-0.099-0.366
		c-0.004-0.083,0.022-0.149,0.079-0.201s0.158-0.105,0.305-0.161l1.588-0.603c0.044,0.146,0.086,0.271,0.125,0.375
		c0.022,0.057,0.057,0.136,0.107,0.237c-0.523,0.682-0.918,1.243-1.186,1.683c-0.267,0.44-0.379,0.715-0.338,0.824l0.435,1.146
		c0.006,0.014,0.022,0.016,0.052,0.005c0.027-0.011,0.039-0.023,0.034-0.037c-0.074-0.195-0.077-0.42-0.009-0.677
		c0.068-0.257,0.215-0.577,0.438-0.96c0.223-0.384,0.549-0.879,0.975-1.485c0.215,0.195,0.454,0.325,0.719,0.391
		c0.264,0.065,0.525,0.049,0.786-0.05c0.289-0.11,0.472-0.309,0.548-0.595c0.076-0.287,0.035-0.636-0.122-1.049
		c-0.041-0.109-0.081-0.207-0.119-0.293c-0.038-0.086-0.071-0.159-0.099-0.219c-0.085-0.18-0.157-0.348-0.217-0.504
		c-0.049-0.128-0.107-0.298-0.178-0.51l-0.133-0.373c-0.004-0.009-0.02-0.008-0.049,0.002c-0.028,0.011-0.041,0.021-0.037,0.03
		c0.06,0.157,0.091,0.278,0.094,0.364c0.002,0.085-0.024,0.154-0.08,0.206C195.546,39.763,195.446,39.815,195.305,39.87z
		 M195.967,40.534c0.099,0.052,0.184,0.17,0.254,0.355c0.094,0.246,0.09,0.464-0.014,0.652c-0.102,0.188-0.346,0.355-0.729,0.5
		c-0.342,0.13-0.615,0.158-0.82,0.083c-0.203-0.075-0.365-0.266-0.482-0.574c-0.061-0.161-0.104-0.303-0.128-0.423l1.501-0.57
		C195.729,40.489,195.869,40.481,195.967,40.534z"/>
	<path d="M195.301,44.938c-0.438,0.093-0.82,0.276-1.147,0.551c-0.329,0.274-0.563,0.614-0.702,1.02
		c-0.139,0.406-0.16,0.839-0.063,1.301c0.1,0.466,0.301,0.876,0.604,1.229c0.304,0.353,0.669,0.609,1.097,0.767
		c0.427,0.159,0.868,0.189,1.319,0.094c0.406-0.086,0.771-0.263,1.093-0.531c0.321-0.268,0.555-0.604,0.7-1.009
		c0.145-0.404,0.167-0.842,0.067-1.313c-0.09-0.422-0.27-0.816-0.539-1.182c-0.269-0.365-0.614-0.638-1.033-0.819
		C196.277,44.865,195.813,44.829,195.301,44.938z M197.256,45.771c0.4,0.192,0.652,0.529,0.754,1.011
		c0.08,0.377,0.049,0.728-0.096,1.051c-0.144,0.323-0.381,0.6-0.711,0.828c-0.33,0.229-0.724,0.391-1.18,0.488
		c-0.433,0.092-0.818,0.103-1.16,0.032s-0.619-0.206-0.83-0.408s-0.349-0.451-0.412-0.749c-0.073-0.347-0.031-0.682,0.126-1.003
		c0.157-0.322,0.411-0.601,0.759-0.838c0.35-0.237,0.76-0.406,1.232-0.506C196.348,45.548,196.854,45.579,197.256,45.771z"/>
	<path d="M194.718,51.654c-0.151,0.01-0.266,0.002-0.341-0.023c-0.074-0.026-0.129-0.079-0.159-0.161
		c-0.03-0.082-0.052-0.214-0.063-0.396c-0.001-0.015-0.018-0.021-0.047-0.02c-0.031,0.002-0.046,0.011-0.045,0.026
		c0.012,0.172,0.022,0.306,0.033,0.402l0.045,0.554l0.04,0.745c0.003,0.117,0.011,0.279,0.024,0.487c0,0.01,0.016,0.014,0.047,0.012
		c0.03-0.002,0.045-0.008,0.045-0.018c-0.017-0.249-0.014-0.433,0.009-0.554s0.069-0.204,0.14-0.25
		c0.071-0.045,0.188-0.073,0.35-0.083l1.633-0.106l0.039,0.607c0.039,0.583-0.158,0.887-0.588,0.916
		c-0.016,0.001-0.021,0.017-0.02,0.047s0.01,0.045,0.025,0.044l0.395-0.033c0.075-0.01,0.191-0.02,0.349-0.03l0.669-0.036
		c0.01,0,0.014-0.016,0.012-0.046s-0.008-0.045-0.018-0.044c-0.381,0.024-0.588-0.247-0.625-0.813l-0.041-0.623l1.648-0.107
		c0.152-0.01,0.264,0.021,0.334,0.092c0.07,0.072,0.111,0.199,0.123,0.381l0.021,0.304c0.038,0.582-0.228,0.953-0.798,1.112
		c-0.014,0.006-0.018,0.023-0.011,0.05c0.007,0.028,0.015,0.041,0.024,0.041l0.986-0.079c0.047-0.003,0.067-0.03,0.064-0.081
		l-0.205-3.159c-0.002-0.016-0.018-0.022-0.048-0.02c-0.03,0.002-0.044,0.011-0.044,0.026c0.011,0.167,0.005,0.292-0.018,0.375
		c-0.022,0.083-0.068,0.14-0.137,0.173c-0.07,0.033-0.181,0.054-0.332,0.063L194.718,51.654z"/>
	<path d="M198.948,55.347c-0.009,0.167-0.03,0.291-0.062,0.37c-0.033,0.079-0.085,0.132-0.157,0.156
		c-0.073,0.023-0.185,0.032-0.337,0.023l-3.519-0.189c-0.151-0.008-0.265-0.028-0.336-0.06c-0.072-0.032-0.118-0.088-0.14-0.167
		c-0.021-0.08-0.027-0.206-0.018-0.378c0-0.015-0.014-0.023-0.045-0.025c-0.03-0.002-0.045,0.005-0.047,0.021l-0.178,3.298
		c-0.002,0.046,0.005,0.077,0.021,0.093c0.018,0.016,0.045,0.025,0.086,0.027c0.319,0.018,0.671,0.062,1.053,0.133
		c0.006,0,0.012-0.006,0.02-0.018c0.009-0.012,0.014-0.026,0.014-0.041c0.002-0.021-0.003-0.031-0.014-0.032
		c-0.648-0.218-0.955-0.666-0.918-1.345l0.021-0.372c0.009-0.162,0.048-0.273,0.117-0.333c0.069-0.06,0.188-0.085,0.354-0.077
		l1.725,0.094l-0.039,0.722c-0.03,0.567-0.264,0.839-0.698,0.816c-0.011-0.001-0.017,0.014-0.019,0.044
		c-0.001,0.03,0.003,0.046,0.014,0.047c0.101,0.005,0.232,0.007,0.396,0.006l0.356,0.011l0.661,0.043
		c0.016,0.001,0.023-0.013,0.025-0.041c0.001-0.028-0.006-0.042-0.021-0.043c-0.375-0.021-0.547-0.309-0.518-0.866l0.039-0.73
		l1.551,0.084c0.157,0.008,0.267,0.052,0.328,0.132c0.063,0.079,0.088,0.21,0.078,0.393l-0.017,0.304
		c-0.031,0.583-0.339,0.919-0.923,1.009c-0.016,0.004-0.021,0.021-0.018,0.049c0.003,0.028,0.01,0.042,0.02,0.043l0.989,0.038
		c0.046,0.002,0.069-0.021,0.073-0.072l0.17-3.162c0-0.016-0.014-0.023-0.045-0.025C198.965,55.326,198.949,55.332,198.948,55.347z"
		/>
	<path d="M198.159,60.558c-0.155-0.176-0.362-0.287-0.622-0.333c-0.209-0.037-0.401-0.021-0.576,0.046
		c-0.174,0.067-0.326,0.159-0.457,0.275s-0.295,0.281-0.492,0.493c-0.203,0.217-0.371,0.387-0.506,0.511s-0.293,0.22-0.476,0.288
		c-0.182,0.069-0.382,0.084-0.603,0.046c-0.275-0.048-0.459-0.155-0.551-0.32c-0.092-0.166-0.119-0.356-0.082-0.571
		c0.058-0.33,0.238-0.578,0.539-0.744c0.303-0.167,0.676-0.295,1.119-0.389c0.021-0.001,0.032-0.015,0.034-0.041
		c0.001-0.025-0.007-0.039-0.027-0.043l-0.007-0.001l-1.148-0.154c-0.064-0.006-0.117,0.011-0.154,0.05
		c-0.101,0.101-0.197,0.258-0.291,0.471c-0.094,0.212-0.159,0.425-0.196,0.634c-0.054,0.31-0.046,0.596,0.024,0.858
		c0.07,0.262,0.193,0.477,0.371,0.644c0.176,0.167,0.392,0.273,0.646,0.318c0.225,0.04,0.431,0.022,0.615-0.05
		c0.186-0.074,0.348-0.174,0.49-0.301c0.14-0.127,0.313-0.304,0.518-0.531c0.186-0.209,0.343-0.374,0.472-0.493
		c0.128-0.12,0.272-0.213,0.431-0.281c0.159-0.067,0.33-0.085,0.516-0.053c0.225,0.039,0.391,0.137,0.498,0.292
		c0.106,0.155,0.141,0.345,0.102,0.57c-0.059,0.335-0.227,0.564-0.504,0.688c-0.276,0.124-0.576,0.209-0.898,0.257
		c-0.016,0.002-0.023,0.018-0.022,0.046c0,0.028,0.007,0.044,0.022,0.046l1.023,0.156c0.064,0.011,0.119-0.018,0.162-0.088
		c0.07-0.106,0.136-0.241,0.198-0.406c0.062-0.165,0.108-0.332,0.138-0.501c0.045-0.255,0.043-0.507-0.004-0.754
		C198.414,60.946,198.313,60.734,198.159,60.558z"/>
	<path d="M196.693,64.475c-0.205-0.061-0.396-0.068-0.578-0.021c-0.18,0.047-0.342,0.121-0.486,0.222
		c-0.144,0.1-0.325,0.244-0.545,0.433c-0.227,0.191-0.414,0.341-0.563,0.448c-0.148,0.107-0.316,0.184-0.505,0.23
		c-0.188,0.048-0.39,0.039-0.604-0.024c-0.268-0.08-0.438-0.207-0.51-0.382c-0.072-0.176-0.078-0.368-0.016-0.577
		c0.096-0.321,0.303-0.546,0.623-0.676c0.318-0.13,0.703-0.215,1.155-0.256c0.021,0,0.034-0.011,0.038-0.036
		c0.005-0.025-0.003-0.041-0.021-0.046l-0.008-0.002l-1.121-0.286c-0.064-0.014-0.119-0.003-0.16,0.032
		c-0.111,0.089-0.227,0.234-0.344,0.434c-0.118,0.201-0.207,0.403-0.268,0.607c-0.09,0.302-0.115,0.586-0.075,0.855
		c0.04,0.268,0.137,0.496,0.294,0.682c0.155,0.187,0.357,0.317,0.605,0.391c0.219,0.065,0.426,0.072,0.617,0.021
		c0.193-0.051,0.366-0.132,0.521-0.242c0.154-0.11,0.346-0.267,0.575-0.469c0.209-0.187,0.384-0.332,0.526-0.435
		s0.295-0.18,0.461-0.229c0.165-0.048,0.338-0.046,0.518,0.008c0.219,0.064,0.372,0.18,0.461,0.347
		c0.088,0.166,0.1,0.359,0.035,0.578c-0.098,0.325-0.291,0.534-0.58,0.626c-0.289,0.091-0.597,0.142-0.922,0.151
		c-0.016,0-0.025,0.015-0.028,0.043c-0.003,0.028,0.003,0.044,0.017,0.048l0.999,0.273c0.063,0.019,0.12-0.004,0.172-0.068
		c0.081-0.098,0.163-0.224,0.243-0.38c0.081-0.156,0.146-0.317,0.195-0.482c0.074-0.248,0.102-0.498,0.084-0.75
		c-0.019-0.251-0.094-0.473-0.227-0.667C197.139,64.684,196.945,64.55,196.693,64.475z"/>
	<path d="M196.49,68.649c-0.029-0.011-0.046-0.01-0.051,0.004c-0.065,0.16-0.125,0.271-0.182,0.333
		c-0.055,0.063-0.121,0.094-0.199,0.096c-0.077,0.001-0.186-0.027-0.326-0.084l-3.266-1.328c-0.141-0.057-0.238-0.114-0.296-0.169
		c-0.057-0.056-0.082-0.126-0.075-0.208c0.006-0.083,0.041-0.204,0.105-0.363c0.007-0.014-0.005-0.027-0.033-0.038
		c-0.027-0.012-0.045-0.01-0.051,0.004c-0.063,0.155-0.109,0.278-0.142,0.369l-0.2,0.511l-0.219,0.519
		c-0.041,0.087-0.092,0.206-0.152,0.357c-0.006,0.014,0.005,0.027,0.033,0.038s0.045,0.01,0.051-0.004
		c0.064-0.159,0.123-0.271,0.178-0.334c0.053-0.063,0.117-0.093,0.192-0.09c0.075,0.003,0.186,0.035,0.332,0.093l3.25,1.321
		c0.142,0.058,0.24,0.113,0.298,0.166c0.058,0.054,0.086,0.123,0.084,0.208c-0.002,0.084-0.033,0.204-0.096,0.359
		c-0.006,0.014,0.005,0.027,0.033,0.038c0.028,0.012,0.045,0.01,0.051-0.004l0.137-0.355c0.074-0.211,0.141-0.389,0.201-0.535
		c0.053-0.132,0.127-0.299,0.22-0.502l0.156-0.364C196.529,68.673,196.518,68.661,196.49,68.649z"/>
	<path d="M193.232,70.546c-0.39-0.218-0.799-0.333-1.227-0.343s-0.827,0.091-1.2,0.304c-0.372,0.212-0.675,0.525-0.905,0.936
		c-0.233,0.416-0.354,0.856-0.357,1.322c-0.006,0.466,0.1,0.899,0.316,1.3c0.217,0.401,0.527,0.715,0.93,0.941
		c0.363,0.204,0.754,0.311,1.173,0.322c0.419,0.011,0.815-0.088,1.191-0.295c0.376-0.208,0.682-0.523,0.917-0.943
		c0.211-0.376,0.336-0.791,0.375-1.243c0.039-0.452-0.039-0.885-0.235-1.297S193.688,70.803,193.232,70.546z M194.051,73.721
		c-0.188,0.336-0.443,0.578-0.766,0.726c-0.322,0.148-0.682,0.199-1.08,0.153c-0.399-0.047-0.802-0.184-1.209-0.413
		c-0.385-0.216-0.683-0.463-0.893-0.741c-0.211-0.278-0.328-0.563-0.355-0.854c-0.025-0.291,0.037-0.569,0.186-0.834
		c0.174-0.31,0.426-0.533,0.756-0.67c0.331-0.138,0.705-0.18,1.125-0.128c0.418,0.052,0.838,0.196,1.258,0.432
		c0.545,0.305,0.904,0.663,1.078,1.072C194.325,72.873,194.292,73.292,194.051,73.721z"/>
	<path d="M191.982,77.224c-0.076,0.095-0.174,0.167-0.293,0.218c-0.119,0.05-0.282,0.083-0.49,0.099l-2.595-2.093
		c-0.209-0.168-0.331-0.344-0.368-0.526c-0.035-0.182,0.016-0.358,0.152-0.528c0.01-0.011,0.002-0.027-0.021-0.046
		c-0.023-0.02-0.041-0.022-0.051-0.011c-0.096,0.119-0.166,0.21-0.213,0.277l-0.277,0.354l-0.258,0.31
		c-0.049,0.052-0.115,0.131-0.202,0.238c-0.007,0.007,0.003,0.021,0.026,0.04c0.023,0.02,0.038,0.025,0.045,0.017
		c0.127-0.157,0.279-0.234,0.457-0.227c0.178,0.006,0.371,0.094,0.58,0.263l2.412,1.944l-5.471,0.175
		c-0.014,0.001-0.026,0.014-0.039,0.037c-0.012,0.023-0.012,0.039,0,0.049l3.063,2.47c0.209,0.169,0.336,0.342,0.379,0.52
		c0.042,0.177,0,0.345-0.128,0.503c-0.007,0.008,0.003,0.022,0.026,0.041c0.023,0.02,0.039,0.024,0.045,0.017l0.204-0.266
		c0.101-0.141,0.183-0.25,0.246-0.329c0.067-0.083,0.155-0.185,0.266-0.305l0.202-0.238c0.006-0.007-0.003-0.021-0.026-0.04
		c-0.024-0.019-0.038-0.025-0.046-0.017c-0.123,0.154-0.275,0.227-0.455,0.219c-0.18-0.007-0.373-0.096-0.583-0.265l-2.097-1.691
		l4.23-0.107l0.305,0.01c0.073,0.007,0.123,0.009,0.152,0.005c0.028-0.002,0.055-0.02,0.081-0.052
		c0.054-0.067,0.098-0.126,0.132-0.176l0.301-0.384c0.076-0.095,0.137-0.166,0.182-0.215l0.197-0.232
		c0.006-0.008-0.002-0.021-0.025-0.041C192.003,77.221,191.99,77.216,191.982,77.224z"/>
	<path d="M184.836,79.235c-0.029-0.169-0.026-0.306,0.008-0.412c0.035-0.106,0.104-0.207,0.21-0.301
		c0.019-0.018,0.019-0.037-0.002-0.06c-0.021-0.023-0.04-0.025-0.059-0.009c-0.079,0.071-0.177,0.165-0.29,0.281
		c-0.129,0.13-0.245,0.24-0.347,0.332c-0.106,0.094-0.233,0.203-0.384,0.324c-0.135,0.107-0.236,0.192-0.305,0.253
		c-0.02,0.017-0.018,0.037,0.002,0.06c0.021,0.022,0.04,0.025,0.059,0.008c0.17-0.152,0.333-0.237,0.488-0.254
		c0.155-0.017,0.293,0.041,0.41,0.173c0.082,0.091,0.149,0.214,0.201,0.372l0.278,0.856l-1.37,1.231l-1.215-0.486
		c-0.186-0.079-0.305-0.146-0.355-0.203c-0.05-0.056-0.062-0.12-0.032-0.19c0.028-0.071,0.099-0.155,0.208-0.253
		c0.015-0.013,0.012-0.032-0.008-0.054c-0.021-0.022-0.038-0.027-0.053-0.014c-0.072,0.064-0.169,0.158-0.29,0.281
		c-0.122,0.123-0.229,0.227-0.325,0.311c-0.07,0.064-0.189,0.164-0.354,0.299s-0.284,0.234-0.355,0.299
		c-0.019,0.017-0.019,0.037,0.002,0.06s0.04,0.025,0.059,0.008c0.103-0.092,0.242-0.127,0.421-0.107
		c0.179,0.02,0.456,0.107,0.832,0.26l3.899,1.551c0.015,0.008,0.034,0,0.061-0.023s0.038-0.044,0.036-0.063l-1.244-3.834
		C184.926,79.636,184.863,79.403,184.836,79.235z M185.768,82.903l-1.837-0.734l1.241-1.114L185.768,82.903z"/>
	<path d="M183.308,86.067c-0.139,0.094-0.251,0.151-0.333,0.174c-0.083,0.021-0.156,0.011-0.219-0.032
		c-0.063-0.043-0.137-0.128-0.222-0.254l-1.965-2.926c-0.085-0.126-0.136-0.228-0.153-0.304s-0.002-0.147,0.049-0.212
		c0.052-0.065,0.148-0.146,0.292-0.242c0.009-0.005,0.005-0.021-0.013-0.046s-0.029-0.036-0.037-0.03l-2.957,1.986
		c-0.038,0.025-0.059,0.05-0.062,0.073c-0.003,0.023,0.007,0.052,0.03,0.086c0.175,0.261,0.377,0.602,0.604,1.023
		c0.009,0.013,0.024,0.013,0.047,0c0.022-0.012,0.032-0.025,0.026-0.041c-0.121-0.328-0.135-0.644-0.041-0.949
		c0.096-0.305,0.293-0.558,0.591-0.759l0.38-0.254c0.122-0.082,0.216-0.133,0.281-0.153c0.066-0.02,0.126-0.011,0.18,0.027
		c0.052,0.038,0.117,0.114,0.193,0.227l1.943,2.894c0.085,0.126,0.137,0.227,0.154,0.304c0.018,0.077,0.002,0.149-0.048,0.216
		s-0.144,0.147-0.282,0.241c-0.014,0.008-0.012,0.025,0.006,0.05s0.031,0.034,0.045,0.025l0.311-0.219
		c0.18-0.133,0.334-0.242,0.459-0.327c0.119-0.079,0.272-0.177,0.464-0.293l0.326-0.21c0.009-0.006,0.005-0.021-0.013-0.046
		C183.328,86.071,183.316,86.062,183.308,86.067z"/>
	<path d="M151.242,86.931c-0.286-0.073-0.527-0.14-0.725-0.202c-0.179-0.054-0.408-0.132-0.685-0.231l-0.496-0.163
		c-0.02-0.006-0.035,0.01-0.046,0.049c-0.012,0.038-0.008,0.061,0.011,0.066c0.217,0.066,0.37,0.133,0.458,0.198
		c0.089,0.065,0.138,0.149,0.149,0.25c0.011,0.102-0.013,0.248-0.072,0.439l-1.363,4.44c-0.059,0.192-0.122,0.329-0.188,0.41
		c-0.067,0.081-0.155,0.122-0.264,0.124c-0.109,0.002-0.272-0.031-0.49-0.098c-0.019-0.006-0.035,0.01-0.046,0.049
		c-0.012,0.039-0.008,0.061,0.011,0.066c0.211,0.065,0.379,0.113,0.502,0.144l0.693,0.203l0.707,0.228
		c0.12,0.044,0.281,0.096,0.486,0.159c0.019,0.006,0.035-0.01,0.046-0.048c0.012-0.038,0.007-0.061-0.011-0.066
		c-0.218-0.066-0.371-0.131-0.46-0.194s-0.136-0.143-0.141-0.243c-0.005-0.099,0.023-0.248,0.084-0.446l1.357-4.421
		c0.059-0.191,0.12-0.329,0.184-0.411c0.064-0.082,0.151-0.127,0.262-0.135c0.111-0.008,0.272,0.021,0.483,0.085
		c0.019,0.006,0.035-0.01,0.046-0.049c0.012-0.038,0.008-0.061-0.011-0.066L151.242,86.931z"/>
	<path d="M157.319,88.439c-0.49-0.333-1.073-0.542-1.75-0.629c-0.113-0.014-0.336-0.036-0.669-0.065
		c-0.275-0.016-0.544-0.04-0.81-0.074c-0.172-0.022-0.404-0.058-0.694-0.109l-0.526-0.078c-0.013-0.002-0.022,0.017-0.027,0.057
		c-0.005,0.04-0.001,0.061,0.012,0.063c0.219,0.028,0.379,0.067,0.48,0.117c0.102,0.051,0.165,0.124,0.189,0.222
		c0.024,0.098,0.024,0.246-0.001,0.445l-0.59,4.607c-0.026,0.199-0.065,0.344-0.117,0.436c-0.052,0.091-0.131,0.147-0.238,0.167
		s-0.274,0.016-0.499-0.014c-0.014-0.002-0.022,0.018-0.028,0.057s-0.001,0.061,0.012,0.063c0.226,0.029,0.402,0.048,0.528,0.058
		l0.708,0.08c0.193,0.025,0.364,0.05,0.516,0.077c0.151,0.026,0.277,0.049,0.375,0.068c0.27,0.055,0.507,0.095,0.713,0.122
		c0.604,0.078,1.175,0.014,1.713-0.19c0.539-0.204,0.989-0.534,1.351-0.99s0.584-1.006,0.667-1.649
		c0.073-0.57-0.006-1.103-0.235-1.598C158.169,89.185,157.809,88.771,157.319,88.439z M157.542,91.36
		c-0.077,0.597-0.241,1.097-0.496,1.5c-0.253,0.402-0.572,0.69-0.955,0.863c-0.383,0.174-0.803,0.231-1.261,0.172
		c-0.405-0.052-0.669-0.145-0.793-0.279c-0.125-0.134-0.169-0.337-0.135-0.609l0.574-4.478c0.023-0.186,0.076-0.319,0.157-0.399
		c0.081-0.081,0.2-0.128,0.357-0.142c0.157-0.014,0.375-0.002,0.653,0.033c0.458,0.059,0.842,0.244,1.152,0.557
		c0.31,0.313,0.531,0.713,0.661,1.197C157.586,90.262,157.615,90.79,157.542,91.36z"/>
	<path d="M165.625,87.602c-0.002-0.026-0.02-0.039-0.053-0.036c-0.033,0.003-0.052,0.018-0.057,0.044
		c-0.026,0.103-0.096,0.175-0.21,0.217c-0.114,0.042-0.298,0.073-0.552,0.092l-0.68,0.061c-0.439,0.046-0.855,0.084-1.249,0.114
		c-0.767,0.058-1.438,0.098-2.013,0.121c-0.374,0.028-0.565-0.031-0.577-0.178c-0.002-0.033-0.022-0.049-0.059-0.046
		c-0.036,0.003-0.053,0.021-0.051,0.055c0.016,0.207,0.022,0.516,0.019,0.929c-0.002,0.413-0.007,0.75-0.014,1.012
		c0.001,0.021,0.021,0.029,0.057,0.026c0.037-0.002,0.055-0.01,0.054-0.024c0.102-0.518,0.275-0.911,0.52-1.181
		c0.244-0.27,0.57-0.42,0.978-0.451c0.18-0.014,0.313-0.007,0.403,0.02c0.089,0.027,0.154,0.079,0.193,0.156
		c0.039,0.078,0.065,0.203,0.078,0.376l0.348,4.633c0.016,0.2,0.006,0.35-0.031,0.45c-0.036,0.1-0.114,0.171-0.235,0.214
		c-0.121,0.043-0.312,0.074-0.571,0.094c-0.014,0-0.019,0.021-0.016,0.062c0.004,0.04,0.012,0.06,0.023,0.059
		c0.248-0.019,0.441-0.037,0.58-0.054l0.78-0.068l0.821-0.051c0.133-0.003,0.316-0.014,0.551-0.032
		c0.02-0.001,0.028-0.021,0.025-0.062c-0.003-0.04-0.015-0.059-0.035-0.057c-0.26,0.02-0.451,0.017-0.573-0.008
		c-0.123-0.024-0.208-0.082-0.255-0.172c-0.047-0.09-0.078-0.238-0.094-0.445l-0.346-4.612c-0.014-0.181-0.008-0.313,0.015-0.399
		c0.024-0.085,0.079-0.148,0.167-0.188c0.088-0.04,0.225-0.067,0.411-0.081c0.421-0.032,0.763,0.065,1.028,0.291
		c0.266,0.225,0.451,0.591,0.556,1.1c0.008,0.02,0.03,0.028,0.067,0.025c0.035-0.002,0.055-0.014,0.053-0.034
		c-0.021-0.26-0.036-0.601-0.047-1.022C165.624,88.125,165.621,87.81,165.625,87.602z"/>
	<path d="M170.874,86.899c-0.445-0.17-0.986-0.167-1.626,0.007c-0.18,0.049-0.336,0.095-0.467,0.138
		c-0.13,0.042-0.232,0.078-0.309,0.105c-0.208,0.078-0.386,0.137-0.534,0.177c-0.175,0.048-0.405,0.104-0.692,0.168l-0.506,0.127
		c-0.02,0.006-0.023,0.027-0.014,0.066c0.012,0.039,0.025,0.055,0.045,0.05c0.213-0.058,0.375-0.083,0.484-0.075
		s0.195,0.053,0.254,0.133c0.061,0.081,0.117,0.218,0.17,0.411l1.223,4.481c0.055,0.2,0.076,0.35,0.066,0.45
		c-0.012,0.1-0.062,0.18-0.149,0.238c-0.088,0.059-0.241,0.118-0.46,0.178c-0.021,0.005-0.024,0.027-0.014,0.065
		c0.01,0.039,0.025,0.056,0.045,0.051c0.213-0.058,0.379-0.107,0.5-0.147l0.694-0.2l0.845-0.22c0.15-0.034,0.357-0.087,0.622-0.159
		c0.02-0.005,0.024-0.027,0.013-0.066c-0.01-0.039-0.025-0.056-0.045-0.05c-0.296,0.081-0.52,0.121-0.668,0.12
		c-0.15,0-0.262-0.041-0.336-0.122c-0.074-0.08-0.139-0.223-0.195-0.43l-1.206-4.423c-0.052-0.187-0.073-0.328-0.065-0.425
		c0.008-0.095,0.05-0.171,0.121-0.225c0.072-0.054,0.186-0.103,0.34-0.145c0.42-0.114,0.787-0.064,1.104,0.151
		c0.314,0.215,0.541,0.578,0.682,1.088c0.141,0.517,0.133,0.945-0.023,1.286c-0.157,0.341-0.403,0.557-0.739,0.648
		c-0.122,0.034-0.239,0.052-0.349,0.054c-0.016-0.003-0.024,0.007-0.029,0.029c-0.004,0.022-0.004,0.042,0.002,0.063
		c0.008,0.032,0.022,0.045,0.041,0.04c0.133,0,0.289-0.026,0.469-0.076c0.342-0.093,0.656-0.255,0.944-0.486
		c0.288-0.231,0.497-0.517,0.629-0.858c0.132-0.341,0.143-0.715,0.032-1.121C171.618,87.434,171.319,87.068,170.874,86.899z"/>
</g>
</svg>
