<?xml version="1.0" encoding="utf-8"?>
<!-- Generator: Adobe Illustrator 16.0.3, SVG Export Plug-In . SVG Version: 6.00 Build 0)  -->
<!DOCTYPE svg PUBLIC "-//W3C//DTD SVG 1.1//EN" "http://www.w3.org/Graphics/SVG/1.1/DTD/svg11.dtd">
<svg version="1.1" xmlns="http://www.w3.org/2000/svg" xmlns:xlink="http://www.w3.org/1999/xlink" x="0px" y="0px"
	 width="190.525px" height="190.451px" viewBox="0 0 190.525 190.451" enable-background="new 0 0 190.525 190.451"
	 xml:space="preserve">
<g id="Layer_1">
	<g>
		<path d="M94.341,11.153c-46.867,0-85,38.131-85,85s38.133,85,85,85c46.871,0,85-38.131,85-85S141.212,11.153,94.341,11.153z
			 M94.341,180.011c-46.238,0-83.859-37.617-83.859-83.857s37.621-83.859,83.859-83.859c46.24,0,83.859,37.619,83.859,83.859
			S140.581,180.011,94.341,180.011z"/>
		<path d="M94.341,13.041c-45.826,0-83.111,37.284-83.111,83.112s37.285,83.111,83.111,83.111c45.828,0,83.111-37.283,83.111-83.111
			S140.169,13.041,94.341,13.041z M94.341,176.981c-44.568,0-80.828-36.258-80.828-80.828c0-44.569,36.26-80.83,80.828-80.83
			c44.57,0,80.828,36.261,80.828,80.83C175.169,140.724,138.911,176.981,94.341,176.981z"/>
		<path d="M94.341,32.088c-35.326,0-64.064,28.739-64.064,64.065s28.738,64.064,64.064,64.064s64.066-28.738,64.066-64.064
			S129.667,32.088,94.341,32.088z M94.341,159.077c-34.695,0-62.924-28.227-62.924-62.924c0-34.696,28.229-62.924,62.924-62.924
			c34.697,0,62.924,28.228,62.924,62.924C157.265,130.851,129.038,159.077,94.341,159.077z"/>
		<path d="M94.341,34.372c-34.064,0-61.779,27.716-61.779,61.781c0,34.066,27.715,61.779,61.779,61.779
			c34.066,0,61.779-27.713,61.779-61.779C156.12,62.088,128.407,34.372,94.341,34.372z M94.341,156.792
			c-33.436,0-60.639-27.201-60.639-60.639c0-33.437,27.203-60.639,60.639-60.639c33.438,0,60.639,27.202,60.639,60.639
			C154.98,129.591,127.779,156.792,94.341,156.792z"/>
		<path d="M60.31,160.798c-0.883,0.27-1.379,1.201-1.111,2.08c0.27,0.881,1.201,1.377,2.082,1.109
			c0.879-0.268,1.375-1.201,1.107-2.082C62.12,161.026,61.187,160.53,60.31,160.798z"/>
		<circle cx="127.891" cy="162.393" r="1.667"/>
		<g>
			<path d="M29.429,120.425c-0.056-0.064-0.101-0.134-0.135-0.21c-0.213-0.506-0.376-0.78-0.492-0.824
				c-0.116-0.043-0.563,0.069-1.342,0.339l-0.533,0.189l-0.559,0.192l-0.607,0.233l-0.363,0.114l-0.395,0.142l-0.468,0.162
				l-0.205,0.082l-0.268,0.081c-0.063,0.018-0.134,0.04-0.215,0.069c-0.213,0.073-0.435,0.161-0.665,0.263
				c-0.042,0.03-0.083,0.064-0.118,0.104c-0.021,0.147,0.006,0.364,0.08,0.651s0.104,0.454,0.09,0.5
				c-0.01,0.035-0.058,0.068-0.142,0.101l-0.147-0.427l-0.435-1.358c-0.119-0.346-0.289-0.803-0.508-1.372
				c0.054-0.02,0.106-0.033,0.155-0.043c0.041,0.062,0.099,0.169,0.174,0.32c0.148,0.31,0.252,0.493,0.311,0.553
				c0.031,0.038,0.072,0.061,0.12,0.066c0.072,0.012,0.192-0.007,0.361-0.057l0.664-0.201l2.254-0.802l0.895-0.309
				c0.283-0.091,0.477-0.153,0.577-0.188c0.379-0.131,0.619-0.224,0.716-0.279c0.1-0.055,0.163-0.113,0.194-0.175
				c0.03-0.061,0.041-0.148,0.031-0.263c-0.017-0.169-0.038-0.298-0.064-0.387c-0.059-0.191-0.074-0.321-0.043-0.389
				c0.04-0.025,0.076-0.043,0.106-0.054l0.042-0.014c0.115,0.305,0.199,0.53,0.25,0.676c0.029,0.085,0.075,0.237,0.14,0.458
				l0.254,0.698l0.407,1.196l0.034,0.097L29.429,120.425z"/>
			<path d="M21.868,118.313l-0.249,0.066c-0.133-0.538-0.244-0.93-0.334-1.174c-0.034-0.094-0.056-0.16-0.065-0.199
				c-0.008-0.031-0.018-0.078-0.029-0.142c0.084-0.177,0.19-0.347,0.317-0.51c0.023-0.035,0.05-0.075,0.081-0.119l0.944-1.4
				l0.148-0.202c0.207-0.287,0.38-0.545,0.519-0.772c0.14-0.228,0.436-0.679,0.89-1.351l1.075-1.587
				c0.105-0.155,0.237-0.354,0.391-0.595l-0.085,0.016c-0.478,0.141-0.731,0.214-0.759,0.221l-0.318,0.056l-0.488,0.132
				l-0.224,0.055c-0.142,0.035-0.58,0.156-1.31,0.362c-0.1,0.028-0.287,0.089-0.562,0.183c-0.273,0.094-0.517,0.165-0.729,0.218
				c-0.382,0.095-0.6,0.172-0.65,0.232c-0.038,0.042-0.048,0.202-0.032,0.478c0.012,0.064,0.025,0.164,0.041,0.301
				c0.031,0.157,0.046,0.252,0.042,0.282s-0.026,0.065-0.068,0.105c-0.057,0.007-0.114,0.004-0.168-0.009
				c-0.052-0.086-0.087-0.176-0.109-0.266c-0.024-0.098-0.042-0.221-0.053-0.371c-0.012-0.151-0.032-0.283-0.059-0.398
				c-0.04-0.159-0.112-0.406-0.216-0.738c-0.06-0.188-0.1-0.317-0.118-0.391l-0.021-0.088l0.164-0.03
				c0.038,0.05,0.072,0.123,0.101,0.219c0.029,0.096,0.067,0.183,0.111,0.26c0.069,0.116,0.121,0.183,0.154,0.2
				c0.111,0.062,0.213,0.08,0.307,0.057l1.634-0.463l0.746-0.228l0.221-0.05l1.041-0.289c0.71-0.198,1.331-0.361,1.858-0.492
				c0.116-0.027,0.366-0.082,0.751-0.162l0.082,0.238c-0.109,0.155-0.444,0.683-1.005,1.581c-0.129,0.209-0.221,0.352-0.276,0.428
				l-0.405,0.575c-0.149,0.222-0.243,0.364-0.283,0.43c-0.038,0.064-0.066,0.112-0.085,0.143c-0.337,0.485-0.755,1.111-1.252,1.875
				c-0.134,0.206-0.346,0.513-0.636,0.921c-0.185,0.255-0.296,0.416-0.336,0.48c-0.039,0.064-0.08,0.151-0.124,0.258l0.181-0.028
				c0.677-0.167,1.608-0.415,2.792-0.743l1.717-0.462c0.145-0.04,0.284-0.083,0.416-0.131l-0.003-0.192
				c-0.05-0.338-0.082-0.675-0.1-1.01c0.016-0.03,0.026-0.055,0.032-0.074l0.199-0.044c0.031,0.051,0.052,0.095,0.06,0.129
				c0.009,0.039,0.017,0.087,0.024,0.144c0.057,0.351,0.146,0.773,0.269,1.268c0.085,0.348,0.169,0.651,0.252,0.911l0.023,0.072
				c0.008,0.031,0.015,0.077,0.023,0.138l-0.155,0.044l-0.096-0.12l-0.097-0.236c-0.085-0.211-0.16-0.362-0.223-0.454
				c-0.041-0.061-0.09-0.104-0.15-0.135c-0.249,0.021-0.604,0.088-1.068,0.202c-0.215,0.053-0.608,0.156-1.179,0.308l-0.709,0.175
				l-1.478,0.376c-0.659,0.17-1.043,0.288-1.152,0.355c-0.057,0.036-0.102,0.093-0.134,0.171c-0.062,0.155-0.078,0.343-0.049,0.563
				C21.857,118.103,21.869,118.246,21.868,118.313z"/>
			<path d="M20.247,109.196l-0.833-0.113c-0.108,0-0.179-0.01-0.212-0.031c-0.034-0.021-0.053-0.047-0.057-0.079
				c-0.008-0.064,0.058-0.147,0.2-0.249c0.103-0.074,0.167-0.133,0.192-0.176s0.039-0.103,0.039-0.179l-0.012-0.053l-0.01-0.231
				l-0.147-1.26l-0.199-1.484l-0.057-0.438l-0.124-0.823c-0.004-0.035-0.007-0.08-0.006-0.135c-0.011-0.243-0.02-0.395-0.028-0.451
				c-0.007-0.054-0.03-0.093-0.068-0.121c-0.016-0.009-0.141-0.052-0.375-0.13c-0.106-0.032-0.164-0.083-0.173-0.15
				c-0.003-0.028,0-0.065,0.008-0.109c0.069-0.027,0.13-0.045,0.187-0.052l0.212-0.022l0.449-0.063
				c0.11-0.015,0.462-0.052,1.061-0.111c0.038-0.005,0.075-0.003,0.108,0.008c0.03,0.035,0.046,0.067,0.049,0.097
				c0.004,0.028-0.006,0.055-0.03,0.079c-0.023,0.024-0.102,0.062-0.235,0.112c-0.307,0.111-0.522,0.23-0.646,0.354
				c-0.079,0.083-0.128,0.193-0.149,0.331c-0.021,0.139,0,0.459,0.065,0.964c0.054,0.404,0.092,0.705,0.118,0.899
				c0.143-0.011,0.273-0.024,0.39-0.039l3.305-0.475c0.132-0.018,0.381-0.043,0.75-0.076l0.708-0.098l0.394-0.047
				c0.125-0.016,0.211-0.049,0.259-0.099c0.047-0.05,0.084-0.172,0.109-0.366c0.039-0.338,0.06-0.563,0.063-0.675
				c-0.001-0.068,0.006-0.125,0.021-0.171l0.16-0.021l0.08,0.76c0.051,0.416,0.084,0.729,0.099,0.94l0.138,0.772l0.107,0.565
				c0.021,0.16,0.029,0.259,0.027,0.295l-0.023,0.078c-0.082,0.004-0.137-0.006-0.163-0.027s-0.054-0.085-0.083-0.189
				c-0.04-0.146-0.101-0.317-0.183-0.513c-0.082-0.194-0.154-0.32-0.22-0.378c-0.036-0.03-0.092-0.049-0.169-0.054
				c-0.16-0.011-0.47,0.014-0.928,0.073l-0.906,0.118l-1.973,0.279l-0.422,0.077l-1.422,0.19c0.029,0.224,0.066,0.51,0.112,0.857
				c0.067,0.512,0.139,0.818,0.214,0.92c0.12,0.161,0.436,0.384,0.949,0.667c0.191,0.091,0.292,0.179,0.303,0.264l-0.004,0.05
				c-0.02,0.017-0.039,0.026-0.056,0.029c-0.043,0.005-0.175-0.007-0.396-0.035C20.534,109.217,20.344,109.198,20.247,109.196z"/>
			<path d="M25.311,101.585c-0.032-0.035-0.051-0.064-0.059-0.089c-0.021-0.061-0.037-0.164-0.053-0.311
				c-0.031-0.347-0.068-0.561-0.114-0.642c-0.072-0.048-0.175-0.07-0.304-0.067l-0.376,0.016l-1.366,0.032l-0.646,0.028
				l-1.349,0.031l-1.532,0.069c-0.366,0.014-0.572,0.042-0.617,0.087c-0.066,0.065-0.101,0.258-0.102,0.577
				c0,0.136-0.007,0.256-0.022,0.36c-0.024,0.048-0.055,0.071-0.095,0.072c-0.028,0.001-0.063-0.007-0.103-0.023
				c-0.019-0.032-0.027-0.061-0.028-0.085c-0.001-0.051-0.002-0.111,0-0.183c0.016-0.212,0.02-0.431,0.014-0.656l-0.021-0.397
				l-0.004-0.945c-0.014-0.473-0.028-0.841-0.047-1.105c-0.017-0.264-0.027-0.443-0.031-0.537c-0.002-0.082-0.001-0.286,0.005-0.612
				l-0.026-0.763l0.013-0.091l-0.028-0.445l0.026-0.054c0.028-0.02,0.059-0.033,0.089-0.041c0.05-0.001,0.127,0.005,0.233,0.018
				c0.104,0.014,0.168,0.02,0.193,0.02c0.372-0.01,0.687-0.031,0.944-0.063c0.021,0.003,0.036,0.014,0.043,0.03
				c0.001,0.039-0.003,0.074-0.013,0.105c-0.066,0.042-0.185,0.098-0.355,0.169c-0.17,0.07-0.365,0.176-0.588,0.313
				c-0.147,0.094-0.235,0.167-0.262,0.218c-0.028,0.051-0.039,0.155-0.035,0.313c0.001,0.032,0.002,0.195,0.003,0.489
				c-0.002,0.079-0.001,0.156,0.001,0.231l0.074,1.53l0.004,0.134c0.005,0.198,0.033,0.315,0.084,0.353
				c0.087,0.059,0.341,0.082,0.76,0.071c0.042-0.001,0.472-0.022,1.287-0.063l0.747-0.021c0.01-0.039,0.013-0.083,0.012-0.129
				l-0.002-0.091c-0.001-0.061-0.002-0.15-0.002-0.269c0.002-0.187,0.002-0.313,0-0.377c0-0.043-0.004-0.08-0.009-0.112
				c-0.025-0.386-0.045-0.884-0.062-1.492c-0.038-0.188-0.078-0.299-0.122-0.33c-0.065-0.051-0.235-0.087-0.507-0.106
				c-0.273-0.02-0.428-0.075-0.467-0.168c-0.001-0.046,0.006-0.089,0.023-0.129c0.029-0.008,0.056-0.012,0.08-0.013
				c0.026-0.001,0.067,0.002,0.124,0.007c0.133,0.015,0.549,0.012,1.247-0.007c0.186-0.005,0.394-0.021,0.622-0.047
				c0.229-0.025,0.352-0.039,0.37-0.039c0.033-0.001,0.075,0.003,0.129,0.012c0.015,0.028,0.023,0.052,0.024,0.069l0,0.038
				c-0.099,0.06-0.253,0.12-0.463,0.179c-0.358,0.104-0.583,0.207-0.671,0.312s-0.129,0.271-0.124,0.5
				c0.001,0.05,0.006,0.142,0.016,0.274c0.009,0.132,0.017,0.329,0.024,0.59l0.01,0.349c0.013,0.498,0.034,0.823,0.059,0.977
				l0.178,0.001l0.989-0.032l0.624-0.013l0.609-0.021c0.366-0.014,0.576-0.043,0.633-0.087c0.076-0.063,0.113-0.196,0.107-0.4
				l-0.014-0.327c-0.001-0.029-0.001-0.141-0.001-0.336c0-0.195-0.005-0.437-0.012-0.723c-0.019-0.69-0.062-1.149-0.127-1.377
				c-0.065-0.229-0.175-0.414-0.331-0.559c-0.155-0.145-0.484-0.322-0.991-0.534c-0.148-0.064-0.224-0.13-0.226-0.198
				c0-0.032,0.013-0.068,0.04-0.108c0.358,0.095,0.593,0.147,0.703,0.158c0.252,0.032,0.509,0.049,0.771,0.049
				c0.118-0.003,0.217,0.022,0.297,0.078l0.003,0.117l0.058,1.51l0.012,0.676l0.066,1.61l0.017,0.654
				c0.003,0.083,0.007,0.16,0.012,0.231c0.046,0.644,0.073,1.117,0.083,1.421c0.001,0.055-0.006,0.092-0.024,0.111
				c-0.017,0.021-0.042,0.031-0.077,0.031L25.311,101.585z"/>
			<path d="M25.071,94.288c-0.021-0.523-0.042-0.82-0.062-0.89c-0.014-0.048-0.065-0.094-0.151-0.141l-0.059-0.004
				c-0.09-0.007-0.41-0.045-0.966-0.115c-0.156-0.019-0.309-0.034-0.458-0.045l-0.639-0.032l-0.721-0.064l-1.345-0.096l-0.962-0.078
				c-0.406-0.033-0.657-0.021-0.75,0.038c-0.094,0.06-0.17,0.226-0.229,0.498c-0.058,0.271-0.097,0.421-0.116,0.448
				c-0.021,0.027-0.051,0.04-0.09,0.037c-0.024-0.002-0.056-0.01-0.095-0.023c-0.03-0.038-0.04-0.122-0.034-0.25
				c0.001-0.019,0.001-0.067-0.003-0.149c-0.003-0.081-0.001-0.156,0.004-0.228l0.033-0.439l0.089-1.41
				c0.059-0.796,0.16-1.35,0.302-1.66c0.142-0.312,0.36-0.551,0.655-0.719s0.615-0.239,0.961-0.213
				c0.657,0.049,1.133,0.431,1.428,1.146c0.051,0.122,0.099,0.218,0.14,0.29c0.266-0.103,0.586-0.249,0.962-0.439l1.218-0.591
				c0.45-0.239,0.733-0.406,0.85-0.502c0.117-0.096,0.217-0.215,0.3-0.357c0.083-0.143,0.169-0.387,0.26-0.732
				c0.036-0.001,0.064,0,0.085,0.001c0.021,0.002,0.049,0.006,0.081,0.012c-0.03,0.49-0.069,1.063-0.118,1.721
				c-0.004,0.046-0.012,0.109-0.025,0.191c-0.505,0.217-1.062,0.475-1.671,0.774l-1.508,0.684c-0.158,0.096-0.259,0.177-0.3,0.244
				c-0.043,0.067-0.069,0.157-0.078,0.271l-0.029,0.456l-0.016,0.149c0.114,0.02,0.347,0.042,0.7,0.068l1.832,0.138
				c0.068,0.009,0.164,0.002,0.288-0.021c0.07-0.023,0.127-0.068,0.175-0.135c0.046-0.066,0.122-0.263,0.229-0.589l0.07-0.216
				c0.038-0.025,0.088-0.036,0.147-0.031c0.011,0.097,0.015,0.165,0.012,0.205c-0.024,0.32-0.045,0.546-0.062,0.678
				c-0.008,0.067-0.014,0.123-0.018,0.165l-0.044,0.729l-0.059,0.71c-0.003,0.033-0.009,0.195-0.021,0.488l-0.029,0.105
				l-0.056,0.007C25.146,94.368,25.111,94.341,25.071,94.288z M21.718,92.038c0.011-0.097,0.018-0.168,0.021-0.215
				c0.02-0.257,0.012-0.555-0.023-0.896c-0.029-0.239-0.09-0.436-0.185-0.591c-0.094-0.153-0.241-0.287-0.439-0.401
				c-0.199-0.114-0.41-0.179-0.631-0.195c-0.242-0.019-0.504,0.04-0.786,0.173c-0.215,0.102-0.403,0.288-0.564,0.558
				c-0.16,0.271-0.254,0.602-0.284,0.994c-0.007,0.097-0.011,0.222-0.012,0.376c0.185,0.028,0.327,0.046,0.426,0.054l1.001,0.048
				l0.411,0.037C20.929,92,21.284,92.02,21.718,92.038z"/>
			<path d="M19.259,86.36l-0.254-0.042c0.102-0.545,0.163-0.947,0.182-1.206c0.007-0.101,0.015-0.17,0.022-0.209
				c0.006-0.031,0.017-0.078,0.033-0.141c0.15-0.125,0.316-0.236,0.499-0.333c0.037-0.023,0.078-0.048,0.123-0.076l1.439-0.884
				l0.22-0.123c0.306-0.176,0.57-0.338,0.79-0.488c0.222-0.15,0.678-0.438,1.369-0.861l1.636-1.001
				c0.159-0.097,0.36-0.224,0.6-0.379l-0.083-0.021c-0.493-0.071-0.754-0.108-0.782-0.114l-0.313-0.08L24.24,80.32l-0.227-0.043
				c-0.145-0.026-0.593-0.098-1.344-0.213c-0.102-0.015-0.297-0.037-0.585-0.065c-0.289-0.028-0.54-0.063-0.755-0.104
				c-0.387-0.071-0.616-0.091-0.688-0.057c-0.052,0.023-0.127,0.163-0.227,0.422c-0.015,0.063-0.045,0.159-0.087,0.289
				c-0.038,0.158-0.063,0.249-0.078,0.275c-0.016,0.026-0.052,0.049-0.106,0.067c-0.055-0.018-0.105-0.043-0.149-0.077
				c-0.01-0.1-0.007-0.195,0.01-0.287c0.019-0.1,0.054-0.219,0.105-0.36c0.052-0.142,0.089-0.271,0.111-0.387
				c0.031-0.161,0.067-0.415,0.11-0.761c0.021-0.196,0.04-0.331,0.054-0.405l0.016-0.09l0.162,0.042
				c0.014,0.061,0.015,0.141,0.001,0.24c-0.013,0.1-0.015,0.193-0.006,0.283c0.015,0.134,0.034,0.216,0.058,0.246
				c0.077,0.101,0.161,0.161,0.256,0.179l1.679,0.254l0.773,0.101l0.221,0.047l1.067,0.166c0.729,0.115,1.361,0.223,1.896,0.322
				c0.116,0.022,0.366,0.076,0.751,0.162l-0.025,0.25c-0.164,0.098-0.686,0.438-1.568,1.024c-0.205,0.137-0.347,0.229-0.428,0.275
				l-0.608,0.356c-0.226,0.14-0.371,0.231-0.433,0.274c-0.063,0.042-0.109,0.074-0.138,0.094c-0.509,0.303-1.147,0.699-1.916,1.189
				c-0.208,0.132-0.528,0.324-0.96,0.574c-0.273,0.157-0.442,0.257-0.505,0.3c-0.063,0.042-0.136,0.104-0.22,0.183l0.176,0.049
				c0.688,0.129,1.636,0.288,2.851,0.479l1.755,0.29c0.148,0.024,0.292,0.042,0.433,0.054l0.076-0.177
				c0.095-0.328,0.204-0.648,0.328-0.961c0.026-0.021,0.045-0.038,0.059-0.055l0.2,0.044c0.007,0.06,0.007,0.106,0.001,0.142
				c-0.007,0.039-0.02,0.085-0.038,0.141c-0.094,0.344-0.187,0.765-0.28,1.264c-0.066,0.353-0.115,0.664-0.147,0.935l-0.008,0.075
				c-0.006,0.031-0.019,0.076-0.037,0.135l-0.16-0.024l-0.037-0.148l0.009-0.255c0.01-0.228,0.004-0.396-0.015-0.506
				c-0.012-0.071-0.039-0.133-0.081-0.185c-0.235-0.084-0.587-0.17-1.055-0.257c-0.218-0.041-0.619-0.111-1.201-0.209l-0.719-0.134
				l-1.5-0.271c-0.67-0.117-1.069-0.168-1.196-0.152c-0.067,0.01-0.131,0.043-0.193,0.101c-0.121,0.116-0.212,0.28-0.278,0.492
				C19.336,86.165,19.288,86.301,19.259,86.36z"/>
			<path d="M27.098,79.367c-0.013-0.057-0.013-0.103-0.001-0.141l0.037-0.118c0.007-0.023,0.018-0.065,0.034-0.125
				c0.058-0.27,0.081-0.434,0.072-0.488c-0.028-0.14-0.109-0.277-0.244-0.413c-0.293-0.286-0.726-0.639-1.296-1.059
				c-0.271-0.201-0.436-0.324-0.492-0.373c-0.179-0.148-0.368-0.298-0.57-0.446l-1.2-0.899c-0.189-0.142-0.618-0.473-1.289-0.995
				c-0.169-0.132-0.398-0.299-0.688-0.5l0.036-0.155l0.061-0.178c0.336-0.057,0.688-0.09,1.059-0.099
				c0.197-0.006,0.493-0.025,0.889-0.056l2.351-0.126l1.272-0.061c0.717-0.019,1.161-0.037,1.332-0.061
				c0.169-0.022,0.288-0.055,0.354-0.098c0.02-0.013,0.06-0.071,0.121-0.174c0.063-0.103,0.106-0.175,0.134-0.215
				c0.094-0.144,0.166-0.241,0.215-0.293c0.041-0.002,0.073,0,0.093,0.006c0.018,0.006,0.042,0.019,0.072,0.04
				c-0.03,0.11-0.052,0.188-0.066,0.232c-0.055,0.174-0.155,0.48-0.302,0.919l-0.17,0.51l-0.185,0.622
				c-0.012,0.042-0.027,0.083-0.044,0.124c-0.017,0.042-0.031,0.078-0.041,0.109l-0.034,0.112c-0.016,0.036-0.036,0.067-0.063,0.093
				c-0.048-0.015-0.09-0.037-0.13-0.068c-0.008-0.047-0.008-0.089-0.001-0.124l0.131-0.55c0.036-0.143,0.05-0.254,0.042-0.336
				c-0.056-0.039-0.099-0.063-0.13-0.073c-0.062-0.02-0.235-0.024-0.52-0.015c-0.19,0.009-0.37,0.012-0.538,0.011
				c-0.169-0.002-0.732,0.023-1.69,0.074c-0.067,0.133-0.118,0.252-0.15,0.358l-0.329,1.102l-0.106,0.32
				c-0.037,0.117-0.067,0.248-0.093,0.394c0.088,0.076,0.152,0.128,0.193,0.155l1.271,0.89c0.478,0.358,0.744,0.545,0.798,0.562
				c0.032,0.01,0.087,0.011,0.168,0.002c0.043-0.066,0.091-0.155,0.146-0.27l0.276-0.679c0.043-0.028,0.077-0.039,0.101-0.031
				c0.017,0.006,0.041,0.019,0.072,0.039c-0.044,0.155-0.08,0.273-0.105,0.355c-0.084,0.274-0.192,0.589-0.321,0.946
				c-0.058,0.166-0.099,0.284-0.121,0.356c-0.022,0.071-0.057,0.198-0.106,0.378c-0.029,0.118-0.052,0.203-0.068,0.254
				c-0.024,0.082-0.062,0.188-0.113,0.313l-0.031-0.01C27.166,79.411,27.136,79.394,27.098,79.367z M24.779,75.966
				c0.133-0.359,0.272-0.773,0.418-1.242c0.082-0.267,0.146-0.504,0.192-0.711c-0.144-0.007-0.281-0.006-0.411,0.003
				c-0.664,0.037-1.03,0.059-1.099,0.063l-1.33,0.099l-0.108,0.023c0.036,0.033,0.188,0.163,0.458,0.39
				c0.465,0.385,0.833,0.67,1.1,0.858c0.12,0.086,0.238,0.173,0.355,0.262s0.201,0.147,0.249,0.176
				c0.05,0.028,0.098,0.063,0.146,0.104L24.779,75.966z"/>
			<path d="M23.889,69.973l-0.662-0.519c-0.093-0.055-0.149-0.1-0.167-0.135c-0.019-0.035-0.021-0.067-0.009-0.098
				c0.025-0.06,0.124-0.097,0.299-0.112c0.125-0.013,0.21-0.031,0.254-0.057c0.043-0.023,0.084-0.069,0.124-0.134l0.015-0.052
				l0.11-0.204l0.507-1.161l0.579-1.383l0.171-0.405l0.311-0.773c0.013-0.032,0.034-0.072,0.061-0.119
				c0.115-0.216,0.183-0.351,0.206-0.403c0.021-0.05,0.022-0.096,0.001-0.139c-0.009-0.016-0.095-0.116-0.258-0.302
				c-0.074-0.082-0.099-0.154-0.072-0.218c0.011-0.025,0.032-0.056,0.062-0.09c0.072,0.011,0.134,0.027,0.186,0.05l0.195,0.088
				l0.419,0.171c0.101,0.043,0.425,0.189,0.971,0.44c0.036,0.015,0.066,0.035,0.09,0.061c0.007,0.047,0.005,0.082-0.006,0.108
				c-0.011,0.027-0.033,0.045-0.065,0.054c-0.033,0.01-0.119,0.003-0.259-0.021c-0.323-0.059-0.569-0.065-0.738-0.02
				c-0.11,0.03-0.209,0.102-0.297,0.209c-0.089,0.109-0.231,0.397-0.43,0.865c-0.159,0.376-0.276,0.654-0.353,0.836
				c0.129,0.063,0.248,0.117,0.357,0.163l3.092,1.261c0.123,0.051,0.351,0.155,0.685,0.313l0.66,0.272l0.365,0.16
				c0.115,0.049,0.208,0.064,0.273,0.045c0.066-0.018,0.159-0.105,0.278-0.261c0.205-0.271,0.337-0.454,0.396-0.55
				c0.032-0.06,0.068-0.105,0.104-0.137l0.149,0.063l-0.314,0.694c-0.167,0.385-0.296,0.672-0.391,0.862l-0.271,0.736l-0.194,0.542
				c-0.063,0.147-0.104,0.238-0.125,0.268L30.142,71c-0.073-0.038-0.116-0.074-0.127-0.105c-0.011-0.032-0.002-0.101,0.026-0.205
				c0.038-0.147,0.072-0.325,0.101-0.534c0.028-0.211,0.029-0.356,0.001-0.438c-0.016-0.046-0.056-0.09-0.119-0.133
				c-0.132-0.091-0.412-0.227-0.837-0.406l-0.841-0.355l-1.844-0.756l-0.404-0.147l-1.323-0.553c-0.086,0.208-0.2,0.474-0.336,0.797
				c-0.201,0.475-0.293,0.775-0.28,0.901c0.022,0.2,0.182,0.552,0.482,1.055c0.119,0.175,0.162,0.302,0.128,0.382l-0.029,0.04
				c-0.025,0.005-0.046,0.004-0.063-0.004c-0.04-0.017-0.147-0.093-0.323-0.229C24.127,70.136,23.972,70.023,23.889,69.973z"/>
			<path d="M32.073,65.959c0.007-0.085,0.027-0.165,0.059-0.241c0.221-0.503,0.307-0.812,0.259-0.925
				c-0.048-0.113-0.437-0.36-1.169-0.74l-0.503-0.255l-0.525-0.272l-0.586-0.281l-0.334-0.186l-0.375-0.188l-0.439-0.228l-0.2-0.092
				l-0.244-0.138c-0.056-0.033-0.121-0.069-0.198-0.109c-0.201-0.104-0.416-0.204-0.649-0.301c-0.051-0.011-0.103-0.015-0.156-0.015
				c-0.122,0.087-0.261,0.256-0.417,0.507c-0.157,0.251-0.258,0.388-0.301,0.41c-0.033,0.016-0.09,0.004-0.17-0.034l0.208-0.401
				l0.685-1.25c0.169-0.325,0.383-0.764,0.646-1.313c0.05,0.026,0.096,0.054,0.138,0.084c-0.017,0.071-0.055,0.188-0.114,0.346
				c-0.122,0.321-0.185,0.521-0.187,0.605c-0.005,0.049,0.006,0.094,0.035,0.133c0.04,0.062,0.137,0.136,0.29,0.223l0.603,0.344
				l2.133,1.083l0.84,0.436c0.261,0.144,0.439,0.24,0.535,0.289c0.355,0.186,0.588,0.295,0.696,0.328
				c0.107,0.034,0.193,0.04,0.258,0.02s0.136-0.073,0.212-0.158c0.111-0.129,0.19-0.232,0.237-0.313
				c0.098-0.175,0.182-0.274,0.251-0.3c0.046,0.013,0.083,0.025,0.112,0.041l0.038,0.02c-0.141,0.295-0.248,0.511-0.317,0.647
				c-0.042,0.079-0.121,0.219-0.236,0.417l-0.332,0.664l-0.587,1.12l-0.048,0.09L32.073,65.959z"/>
			<path d="M31.232,60.405c-0.307-0.197-0.557-0.41-0.749-0.638c-0.193-0.227-0.374-0.519-0.541-0.873
				c-0.167-0.354-0.267-0.716-0.297-1.084c-0.029-0.368,0.024-0.816,0.159-1.347c0.098-0.371,0.298-0.792,0.6-1.262
				c0.204-0.316,0.444-0.599,0.723-0.848c0.278-0.248,0.573-0.449,0.882-0.599c0.309-0.15,0.699-0.248,1.172-0.295
				c0.326-0.032,0.644-0.012,0.949,0.062c0.403,0.097,0.778,0.257,1.128,0.48c0.396,0.256,0.703,0.506,0.916,0.752
				c0.213,0.244,0.389,0.539,0.53,0.885c0.108,0.27,0.181,0.659,0.219,1.169c0.028,0.341-0.014,0.717-0.125,1.125
				c-0.113,0.409-0.295,0.812-0.548,1.206c-0.258,0.4-0.534,0.728-0.829,0.981c-0.294,0.253-0.576,0.442-0.844,0.565
				c-0.269,0.123-0.605,0.211-1.009,0.265c-0.404,0.053-0.802,0.036-1.191-0.054C31.987,60.81,31.605,60.646,31.232,60.405z
				 M36.056,59.073c0.163-0.253,0.297-0.539,0.4-0.857c0.105-0.317,0.143-0.635,0.113-0.951c-0.029-0.316-0.109-0.602-0.243-0.855
				c-0.133-0.253-0.34-0.521-0.622-0.805c-0.282-0.283-0.587-0.529-0.915-0.741c-0.41-0.263-0.854-0.463-1.332-0.6
				c-0.364-0.102-0.734-0.124-1.109-0.066c-0.376,0.057-0.724,0.192-1.048,0.407c-0.321,0.214-0.591,0.489-0.808,0.827
				c-0.176,0.273-0.303,0.571-0.381,0.892c-0.079,0.32-0.101,0.609-0.069,0.868c0.031,0.259,0.129,0.543,0.294,0.853
				c0.165,0.311,0.378,0.603,0.64,0.877c0.262,0.275,0.512,0.488,0.75,0.642c0.25,0.16,0.558,0.305,0.921,0.433
				c0.365,0.128,0.707,0.2,1.022,0.219c0.317,0.018,0.625-0.012,0.928-0.088s0.578-0.203,0.825-0.38
				C35.672,59.568,35.884,59.345,36.056,59.073z"/>
			<path d="M33.548,51.124l-0.201-0.16c0.355-0.426,0.604-0.748,0.748-0.964c0.056-0.085,0.096-0.142,0.122-0.172
				c0.021-0.024,0.053-0.061,0.097-0.107c0.193-0.035,0.392-0.051,0.599-0.047c0.042-0.001,0.091-0.003,0.145-0.006l1.686-0.069
				h0.252c0.354-0.004,0.663-0.018,0.928-0.04c0.267-0.022,0.805-0.051,1.615-0.084l1.916-0.075c0.188-0.007,0.424-0.019,0.71-0.037
				l-0.063-0.06c-0.396-0.302-0.605-0.462-0.626-0.48L41.24,48.6l-0.396-0.315l-0.177-0.148c-0.112-0.094-0.469-0.374-1.068-0.841
				c-0.082-0.063-0.242-0.178-0.48-0.343c-0.237-0.166-0.439-0.318-0.608-0.458c-0.302-0.253-0.493-0.381-0.573-0.387
				c-0.056-0.005-0.189,0.081-0.403,0.258c-0.043,0.047-0.116,0.117-0.217,0.21c-0.108,0.12-0.177,0.188-0.204,0.202
				c-0.027,0.015-0.068,0.018-0.125,0.007c-0.039-0.041-0.07-0.088-0.092-0.14c0.04-0.093,0.09-0.175,0.149-0.246
				c0.065-0.077,0.153-0.165,0.268-0.263c0.115-0.098,0.21-0.192,0.286-0.283c0.106-0.127,0.262-0.33,0.466-0.611
				c0.115-0.16,0.197-0.27,0.246-0.327l0.058-0.069l0.121,0.114c-0.018,0.061-0.056,0.13-0.116,0.211
				c-0.061,0.08-0.107,0.162-0.144,0.243c-0.052,0.125-0.075,0.206-0.069,0.243c0.016,0.126,0.061,0.22,0.137,0.281l1.34,1.041
				l0.627,0.466l0.169,0.148l0.851,0.667c0.58,0.456,1.079,0.857,1.498,1.206c0.091,0.076,0.283,0.245,0.576,0.509l-0.144,0.206
				c-0.191,0.004-0.813,0.047-1.869,0.128c-0.244,0.02-0.413,0.03-0.508,0.03l-0.703,0.015c-0.267,0.012-0.438,0.021-0.514,0.028
				c-0.076,0.006-0.13,0.012-0.167,0.015c-0.59,0.017-1.341,0.05-2.251,0.103c-0.246,0.015-0.618,0.025-1.119,0.033
				c-0.315,0.003-0.51,0.008-0.586,0.015c-0.075,0.007-0.169,0.024-0.281,0.053l0.129,0.129c0.537,0.447,1.288,1.05,2.255,1.81
				l1.39,1.108c0.118,0.094,0.235,0.18,0.352,0.259l0.153-0.117c0.243-0.241,0.494-0.467,0.754-0.679
				c0.033-0.006,0.059-0.012,0.08-0.019l0.153,0.135c-0.024,0.055-0.046,0.097-0.068,0.124c-0.025,0.03-0.06,0.065-0.102,0.104
				c-0.25,0.254-0.536,0.576-0.861,0.968c-0.229,0.274-0.425,0.521-0.585,0.743l-0.044,0.061c-0.019,0.024-0.052,0.059-0.097,0.101
				l-0.127-0.099l0.041-0.148l0.132-0.219c0.12-0.193,0.198-0.343,0.234-0.448c0.024-0.068,0.032-0.135,0.02-0.2
				c-0.165-0.188-0.43-0.435-0.796-0.74c-0.171-0.142-0.486-0.398-0.946-0.768l-0.561-0.468l-1.179-0.968
				c-0.526-0.431-0.85-0.669-0.969-0.718c-0.063-0.024-0.135-0.026-0.218-0.006c-0.161,0.042-0.322,0.14-0.482,0.293
				C33.711,50.991,33.604,51.087,33.548,51.124z"/>
			<path d="M43.808,48.847c0.017-0.056,0.04-0.096,0.068-0.124l0.089-0.084c0.019-0.018,0.048-0.048,0.091-0.094
				c0.182-0.208,0.283-0.339,0.302-0.391c0.043-0.136,0.04-0.296-0.011-0.479c-0.116-0.394-0.321-0.912-0.614-1.559
				c-0.14-0.307-0.222-0.495-0.249-0.563c-0.083-0.219-0.177-0.441-0.28-0.669l-0.607-1.372c-0.096-0.215-0.309-0.714-0.639-1.497
				c-0.083-0.197-0.203-0.454-0.357-0.772l0.108-0.117l0.14-0.125c0.321,0.114,0.645,0.258,0.972,0.431
				c0.176,0.091,0.444,0.219,0.805,0.386l2.112,1.036l1.14,0.568c0.636,0.335,1.033,0.534,1.192,0.598
				c0.16,0.063,0.278,0.093,0.357,0.087c0.022-0.002,0.086-0.033,0.19-0.092c0.104-0.061,0.178-0.101,0.222-0.122
				c0.15-0.08,0.262-0.131,0.33-0.151c0.039,0.019,0.064,0.035,0.078,0.051c0.013,0.014,0.027,0.036,0.045,0.069
				c-0.081,0.082-0.138,0.139-0.172,0.171c-0.132,0.126-0.369,0.345-0.711,0.654l-0.397,0.362l-0.465,0.453
				c-0.032,0.03-0.064,0.059-0.099,0.087c-0.035,0.027-0.065,0.053-0.089,0.075l-0.084,0.081c-0.031,0.025-0.064,0.042-0.1,0.051
				c-0.035-0.036-0.063-0.077-0.081-0.123c0.016-0.045,0.036-0.082,0.06-0.109l0.383-0.416c0.101-0.105,0.167-0.197,0.199-0.271
				c-0.028-0.062-0.053-0.104-0.076-0.128c-0.045-0.047-0.192-0.136-0.446-0.267c-0.171-0.086-0.328-0.17-0.475-0.254
				c-0.146-0.083-0.65-0.337-1.512-0.76c-0.125,0.083-0.226,0.163-0.306,0.239l-0.826,0.8l-0.248,0.23
				c-0.088,0.084-0.18,0.183-0.273,0.297c0.041,0.109,0.071,0.187,0.093,0.23l0.675,1.396c0.242,0.545,0.383,0.838,0.422,0.88
				c0.023,0.022,0.072,0.051,0.146,0.084c0.069-0.037,0.156-0.092,0.258-0.165l0.574-0.457c0.051-0.004,0.084,0.003,0.102,0.021
				c0.012,0.014,0.027,0.036,0.044,0.069c-0.115,0.114-0.203,0.2-0.264,0.259c-0.208,0.198-0.456,0.422-0.743,0.67
				c-0.132,0.115-0.226,0.199-0.28,0.251s-0.146,0.145-0.276,0.278c-0.085,0.089-0.145,0.152-0.184,0.189
				c-0.063,0.06-0.146,0.132-0.252,0.218l-0.023-0.023C43.846,48.918,43.827,48.888,43.808,48.847z M43.443,44.745
				c0.293-0.248,0.616-0.542,0.971-0.879c0.203-0.193,0.375-0.369,0.516-0.527c-0.123-0.076-0.242-0.143-0.36-0.199
				c-0.598-0.291-0.928-0.451-0.99-0.48l-1.209-0.562l-0.105-0.033c0.014,0.046,0.084,0.234,0.21,0.563
				c0.219,0.563,0.399,0.991,0.54,1.287c0.063,0.133,0.123,0.267,0.183,0.401c0.059,0.134,0.103,0.226,0.131,0.274
				c0.029,0.049,0.054,0.103,0.076,0.161L43.443,44.745z"/>
			<path d="M49.476,43.784c-0.03-0.045-0.049-0.092-0.056-0.141c0.175-0.23,0.358-0.438,0.552-0.62
				c0.131-0.119,0.195-0.22,0.194-0.301c0-0.06-0.089-0.208-0.265-0.447l-0.842-1.144l-0.594-0.756l-0.769-0.996l-0.204-0.264
				c-0.461-0.599-0.753-0.968-0.876-1.108c-0.025-0.026-0.067-0.058-0.126-0.093c-0.1,0.024-0.181,0.049-0.239,0.076
				c-0.058,0.027-0.313,0.159-0.763,0.396c-0.026-0.028-0.045-0.051-0.056-0.064c-0.013-0.017-0.03-0.041-0.049-0.071
				c0.054-0.042,0.145-0.106,0.271-0.195l0.665-0.478l0.38-0.282l0.106-0.09c0.015-0.012,0.058-0.04,0.13-0.087
				c0.167-0.131,0.262-0.207,0.286-0.229l0.32-0.289c0.229-0.179,0.394-0.3,0.493-0.364c0.037,0.053,0.071,0.116,0.1,0.188
				c-0.026,0.029-0.167,0.151-0.423,0.366c-0.255,0.214-0.394,0.349-0.416,0.401c-0.036,0.088,0.02,0.226,0.167,0.415
				c0.035,0.046,0.104,0.14,0.207,0.282l0.197,0.254l0.614,0.781l0.208,0.268l1.1,1.396l0.918,1.206l0.208,0.26
				c0.066,0.084,0.121,0.125,0.165,0.123c0.072-0.052,0.282-0.211,0.629-0.477l0.288-0.224l0.714-0.596
				c0.188-0.156,0.31-0.281,0.366-0.378c0.058-0.096,0.121-0.298,0.19-0.605c0.036-0.192,0.046-0.367,0.027-0.524
				c-0.004-0.034-0.006-0.087-0.008-0.158c-0.003-0.115-0.045-0.318-0.126-0.609l0.14-0.108c0.062,0.114,0.118,0.225,0.168,0.331
				c0.229,0.462,0.431,0.838,0.605,1.128c0.039,0.062,0.074,0.117,0.105,0.17l-1.621,1.187c-1.364,1.061-2.161,1.701-2.396,1.925
				c-0.075,0.067-0.156,0.135-0.245,0.203L49.476,43.784z"/>
			<path d="M57.004,38.054c0.016-0.045,0.033-0.077,0.051-0.096c0.043-0.046,0.127-0.11,0.249-0.192
				c0.291-0.191,0.46-0.326,0.511-0.405c0.008-0.086-0.021-0.187-0.084-0.299l-0.192-0.323l-0.676-1.188l-0.33-0.554l-0.668-1.174
				l-0.786-1.316c-0.187-0.315-0.31-0.482-0.37-0.502c-0.09-0.027-0.276,0.034-0.558,0.184c-0.119,0.064-0.229,0.114-0.328,0.151
				c-0.053,0.001-0.089-0.016-0.109-0.05c-0.014-0.024-0.023-0.059-0.027-0.102c0.019-0.031,0.04-0.054,0.06-0.066
				c0.043-0.025,0.098-0.054,0.161-0.086c0.194-0.087,0.389-0.187,0.585-0.298l0.339-0.208l0.83-0.452
				c0.411-0.234,0.728-0.424,0.952-0.564c0.225-0.141,0.377-0.234,0.458-0.281c0.072-0.041,0.252-0.137,0.542-0.286l0.659-0.385
				l0.087-0.031l0.378-0.235l0.059-0.004c0.031,0.016,0.057,0.036,0.079,0.061c0.024,0.043,0.056,0.114,0.094,0.212
				c0.037,0.099,0.063,0.158,0.075,0.18c0.186,0.323,0.354,0.59,0.503,0.802c0.007,0.02,0.005,0.038-0.006,0.053
				c-0.033,0.019-0.066,0.032-0.099,0.038c-0.067-0.039-0.174-0.117-0.316-0.233c-0.143-0.115-0.329-0.238-0.557-0.368
				c-0.151-0.086-0.256-0.129-0.314-0.128c-0.059,0-0.156,0.039-0.292,0.117c-0.028,0.017-0.172,0.095-0.429,0.234
				c-0.07,0.036-0.138,0.073-0.204,0.111l-1.313,0.79l-0.116,0.066c-0.171,0.099-0.261,0.179-0.27,0.242
				c-0.01,0.104,0.089,0.339,0.298,0.702c0.021,0.037,0.243,0.406,0.665,1.104l0.373,0.647c0.039-0.01,0.08-0.026,0.119-0.05
				l0.08-0.046c0.051-0.03,0.131-0.073,0.234-0.129c0.166-0.086,0.276-0.146,0.333-0.178c0.036-0.021,0.068-0.042,0.094-0.061
				c0.329-0.205,0.756-0.459,1.285-0.762c0.148-0.123,0.226-0.211,0.232-0.265c0.015-0.082-0.035-0.248-0.146-0.498
				c-0.113-0.249-0.138-0.412-0.075-0.49c0.04-0.022,0.082-0.036,0.125-0.041c0.021,0.021,0.036,0.044,0.048,0.065
				c0.013,0.021,0.03,0.059,0.053,0.112c0.05,0.124,0.249,0.488,0.597,1.094c0.093,0.162,0.205,0.337,0.336,0.526
				c0.131,0.188,0.202,0.291,0.21,0.306c0.017,0.028,0.032,0.068,0.05,0.12c-0.019,0.026-0.034,0.045-0.049,0.054l-0.033,0.019
				c-0.099-0.059-0.225-0.166-0.377-0.322c-0.261-0.268-0.458-0.415-0.592-0.443s-0.299,0.015-0.5,0.129
				c-0.043,0.024-0.121,0.072-0.233,0.143c-0.112,0.07-0.282,0.172-0.508,0.301l-0.302,0.175c-0.432,0.247-0.709,0.419-0.833,0.515
				l0.084,0.156l0.498,0.855l0.306,0.544l0.307,0.524c0.187,0.316,0.311,0.488,0.377,0.517c0.092,0.038,0.228,0.006,0.404-0.096
				l0.282-0.167c0.023-0.015,0.124-0.068,0.295-0.16c0.171-0.094,0.382-0.211,0.63-0.354c0.599-0.344,0.984-0.599,1.153-0.764
				c0.168-0.166,0.281-0.351,0.333-0.556c0.054-0.205,0.055-0.58,0.002-1.126c-0.014-0.161,0.008-0.26,0.067-0.293
				c0.028-0.016,0.066-0.021,0.114-0.017c0.087,0.359,0.152,0.591,0.195,0.694c0.09,0.236,0.198,0.471,0.322,0.7
				c0.059,0.103,0.083,0.202,0.073,0.3l-0.103,0.059l-1.301,0.766l-0.589,0.332l-1.386,0.82l-0.569,0.327
				c-0.072,0.041-0.137,0.08-0.198,0.119c-0.544,0.346-0.948,0.595-1.212,0.746c-0.046,0.027-0.083,0.037-0.108,0.032
				c-0.026-0.006-0.048-0.023-0.064-0.054L57.004,38.054z"/>
			<path d="M60.278,28.444l-0.002-0.099c0.266-0.117,0.533-0.231,0.8-0.341l0.162-0.072c0.049-0.021,0.103-0.047,0.16-0.076
				c0.209-0.104,0.592-0.277,1.15-0.522c0.111-0.05,0.219-0.097,0.324-0.141c0.106-0.044,0.209-0.087,0.309-0.127
				c0.025,0.002,0.045,0.01,0.063,0.024l0.025,0.083c-0.005,0.042-0.048,0.08-0.125,0.114l-0.04,0.018
				c-0.093,0.037-0.241,0.11-0.442,0.222c-0.202,0.109-0.325,0.204-0.369,0.282c-0.026,0.055-0.028,0.111-0.001,0.171
				c0.057,0.127,0.195,0.296,0.415,0.503l1.513,1.406l0.514,0.461c0.521,0.498,1.044,1.012,1.571,1.539
				c0.056,0.058,0.108,0.109,0.155,0.154l-0.025-0.951c-0.008-0.481-0.028-0.989-0.056-1.524l-0.067-1.073
				c-0.003-0.023-0.014-0.096-0.034-0.221c-0.064-1.009-0.147-1.627-0.248-1.856c-0.022-0.049-0.066-0.089-0.132-0.12
				c-0.066-0.032-0.156-0.042-0.27-0.031c-0.044,0.004-0.181,0.04-0.409,0.109l-0.383,0.115c-0.043-0.02-0.071-0.041-0.081-0.063
				l-0.002-0.046l1.585-0.716l0.526-0.231c0.177-0.078,0.303-0.119,0.379-0.126l0.022,0.038c0.011,0.025,0.017,0.064,0.016,0.115
				c-0.067,0.062-0.133,0.109-0.195,0.145c-0.261,0.154-0.415,0.268-0.46,0.341c-0.047,0.073-0.074,0.198-0.083,0.374l0.117,3.763
				c0.019,1.138,0.061,2.007,0.123,2.61l0.046,0.489c-0.032,0.045-0.061,0.074-0.09,0.087c-0.038,0.017-0.081,0.03-0.129,0.04
				c-0.834-0.838-1.495-1.478-1.983-1.919l-3.004-2.747c-0.199-0.155-0.333-0.241-0.405-0.259c-0.071-0.018-0.288,0.008-0.645,0.074
				c-0.126,0.025-0.197,0.037-0.212,0.036C60.329,28.489,60.302,28.473,60.278,28.444z"/>
			<path d="M70.18,31.478c0.024-0.041,0.047-0.068,0.07-0.082c0.052-0.036,0.147-0.081,0.284-0.136
				c0.325-0.126,0.52-0.222,0.585-0.287c0.025-0.084,0.019-0.187-0.02-0.311l-0.119-0.356l-0.408-1.305l-0.206-0.612l-0.405-1.288
				l-0.489-1.454c-0.115-0.347-0.199-0.537-0.255-0.567c-0.082-0.047-0.276-0.025-0.583,0.061c-0.131,0.038-0.248,0.063-0.352,0.078
				c-0.052-0.01-0.085-0.033-0.097-0.071c-0.008-0.027-0.01-0.063-0.005-0.105c0.025-0.026,0.05-0.044,0.074-0.052
				c0.047-0.015,0.106-0.031,0.176-0.05c0.208-0.043,0.418-0.099,0.634-0.168l0.375-0.13l0.907-0.266
				c0.451-0.144,0.8-0.26,1.049-0.351c0.25-0.091,0.418-0.149,0.507-0.178c0.079-0.025,0.275-0.08,0.59-0.165l0.725-0.236
				l0.093-0.012l0.419-0.15l0.06,0.009c0.026,0.022,0.048,0.047,0.063,0.076c0.016,0.048,0.031,0.123,0.048,0.228
				c0.016,0.104,0.027,0.168,0.035,0.191c0.113,0.354,0.221,0.651,0.323,0.89c0.003,0.021-0.003,0.039-0.017,0.05
				c-0.037,0.012-0.073,0.018-0.105,0.018c-0.059-0.053-0.146-0.151-0.26-0.296c-0.115-0.144-0.27-0.303-0.465-0.478
				c-0.131-0.116-0.225-0.181-0.281-0.192c-0.057-0.012-0.16,0.006-0.311,0.054c-0.031,0.009-0.188,0.056-0.468,0.138
				c-0.077,0.021-0.15,0.042-0.223,0.064l-1.451,0.494L70.55,24.57c-0.187,0.06-0.293,0.119-0.314,0.179
				c-0.033,0.101,0.014,0.351,0.142,0.75c0.013,0.041,0.151,0.447,0.416,1.221l0.227,0.711c0.04-0.001,0.083-0.009,0.127-0.023
				l0.087-0.028c0.058-0.018,0.144-0.043,0.258-0.075c0.18-0.05,0.3-0.084,0.361-0.104c0.042-0.013,0.077-0.026,0.106-0.04
				c0.364-0.13,0.835-0.288,1.417-0.472c0.171-0.089,0.265-0.158,0.283-0.209c0.031-0.077,0.018-0.25-0.038-0.517
				c-0.058-0.268-0.048-0.434,0.031-0.496c0.044-0.014,0.088-0.018,0.131-0.013c0.016,0.025,0.027,0.05,0.034,0.073
				s0.017,0.064,0.028,0.121c0.023,0.132,0.141,0.53,0.351,1.195c0.057,0.178,0.128,0.373,0.217,0.585
				c0.089,0.213,0.136,0.327,0.14,0.345c0.01,0.03,0.019,0.073,0.024,0.128c-0.023,0.021-0.043,0.036-0.06,0.041l-0.036,0.012
				c-0.084-0.078-0.185-0.21-0.3-0.396c-0.199-0.315-0.36-0.502-0.485-0.559c-0.125-0.056-0.297-0.049-0.515,0.02
				c-0.047,0.016-0.134,0.046-0.258,0.091c-0.125,0.045-0.312,0.107-0.561,0.187l-0.332,0.106c-0.476,0.15-0.783,0.259-0.922,0.326
				l0.048,0.171l0.305,0.942l0.184,0.596l0.189,0.578c0.113,0.348,0.201,0.543,0.258,0.584c0.082,0.057,0.22,0.055,0.415-0.008
				l0.31-0.104c0.027-0.008,0.135-0.04,0.322-0.094c0.188-0.054,0.418-0.124,0.692-0.211c0.658-0.209,1.088-0.377,1.288-0.503
				c0.201-0.126,0.349-0.282,0.445-0.472c0.095-0.188,0.176-0.556,0.239-1.1c0.02-0.16,0.063-0.252,0.128-0.272
				c0.03-0.01,0.068-0.007,0.115,0.009c0.008,0.369,0.023,0.609,0.043,0.719c0.038,0.251,0.093,0.502,0.166,0.754
				c0.035,0.112,0.038,0.214,0.007,0.308l-0.112,0.035l-1.434,0.473l-0.646,0.199l-1.53,0.508l-0.625,0.199
				c-0.078,0.024-0.151,0.05-0.218,0.074c-0.606,0.223-1.053,0.38-1.344,0.473c-0.052,0.016-0.089,0.02-0.113,0.008
				c-0.024-0.011-0.042-0.033-0.052-0.065L70.18,31.478z"/>
			<path d="M75.725,22.937l-0.055-0.253c0.544-0.106,0.94-0.198,1.188-0.275c0.096-0.029,0.164-0.049,0.203-0.056
				c0.031-0.006,0.079-0.014,0.144-0.022c0.171,0.095,0.336,0.208,0.494,0.342c0.034,0.025,0.073,0.055,0.115,0.086l1.352,1.012
				l0.194,0.159c0.277,0.22,0.525,0.404,0.747,0.555c0.22,0.15,0.655,0.469,1.306,0.955l1.531,1.15
				c0.15,0.113,0.341,0.253,0.575,0.42l-0.01-0.086c-0.117-0.485-0.178-0.741-0.184-0.77l-0.041-0.319l-0.107-0.494l-0.045-0.227
				c-0.026-0.144-0.126-0.586-0.296-1.326c-0.024-0.102-0.076-0.291-0.155-0.569c-0.08-0.278-0.142-0.524-0.183-0.739
				c-0.076-0.386-0.142-0.606-0.2-0.661c-0.041-0.039-0.199-0.058-0.476-0.055c-0.064,0.009-0.165,0.018-0.302,0.025
				c-0.159,0.024-0.254,0.034-0.284,0.028c-0.031-0.005-0.064-0.029-0.103-0.073c-0.003-0.058,0.002-0.112,0.017-0.167
				c0.089-0.047,0.179-0.079,0.271-0.097c0.098-0.02,0.223-0.03,0.374-0.034c0.149-0.005,0.283-0.018,0.399-0.04
				c0.162-0.032,0.411-0.092,0.749-0.179c0.19-0.052,0.322-0.085,0.396-0.1l0.09-0.017l0.021,0.165
				c-0.052,0.035-0.126,0.065-0.223,0.09c-0.098,0.024-0.186,0.058-0.267,0.099c-0.118,0.063-0.187,0.111-0.207,0.144
				c-0.066,0.108-0.091,0.21-0.072,0.305l0.383,1.654l0.192,0.757l0.038,0.222l0.239,1.054c0.163,0.72,0.295,1.347,0.4,1.881
				c0.022,0.116,0.063,0.368,0.125,0.758l-0.241,0.07c-0.151-0.117-0.662-0.478-1.531-1.081c-0.202-0.14-0.34-0.238-0.413-0.297
				l-0.556-0.434c-0.214-0.159-0.352-0.26-0.415-0.303c-0.064-0.042-0.109-0.073-0.139-0.093c-0.469-0.361-1.072-0.809-1.812-1.344
				c-0.2-0.143-0.495-0.369-0.889-0.68c-0.246-0.196-0.4-0.315-0.464-0.358c-0.063-0.042-0.146-0.088-0.251-0.137l0.019,0.183
				c0.134,0.685,0.337,1.627,0.607,2.825l0.377,1.738c0.032,0.146,0.068,0.287,0.11,0.422l0.193,0.006
				c0.339-0.033,0.678-0.05,1.013-0.05c0.029,0.016,0.053,0.027,0.073,0.035l0.033,0.201c-0.053,0.028-0.096,0.047-0.132,0.053
				c-0.039,0.008-0.087,0.014-0.145,0.018c-0.354,0.04-0.78,0.108-1.279,0.205c-0.351,0.069-0.659,0.139-0.923,0.208l-0.072,0.02
				c-0.032,0.007-0.079,0.011-0.139,0.017l-0.037-0.157l0.125-0.09l0.242-0.086c0.215-0.074,0.37-0.142,0.463-0.2
				c0.063-0.037,0.109-0.084,0.142-0.143c-0.009-0.249-0.059-0.608-0.15-1.076c-0.042-0.217-0.125-0.615-0.25-1.193L77.482,25.8
				l-0.303-1.495c-0.138-0.667-0.237-1.056-0.299-1.167c-0.033-0.06-0.089-0.107-0.165-0.143c-0.152-0.07-0.338-0.096-0.559-0.077
				C75.935,22.935,75.791,22.941,75.725,22.937z"/>
			<path d="M84.9,21.766l0.153-0.826c0.006-0.108,0.02-0.179,0.042-0.211s0.05-0.05,0.083-0.052
				c0.063-0.006,0.143,0.065,0.238,0.212c0.069,0.105,0.125,0.173,0.167,0.199c0.042,0.027,0.1,0.044,0.177,0.048l0.053-0.01
				l0.232,0.003l1.265-0.087l1.494-0.127l0.438-0.035l0.829-0.083c0.036-0.003,0.081-0.003,0.135,0c0.245,0.001,0.396,0,0.452-0.005
				c0.054-0.005,0.095-0.025,0.124-0.063c0.01-0.015,0.06-0.138,0.149-0.368c0.037-0.104,0.09-0.158,0.158-0.164
				c0.028-0.003,0.065,0.002,0.11,0.013c0.022,0.069,0.037,0.132,0.042,0.188l0.012,0.213l0.042,0.451
				c0.009,0.11,0.029,0.465,0.059,1.064c0.003,0.04,0,0.075-0.013,0.108c-0.036,0.028-0.07,0.044-0.098,0.046
				c-0.029,0.003-0.054-0.009-0.078-0.034c-0.023-0.024-0.058-0.104-0.101-0.24c-0.097-0.313-0.205-0.533-0.324-0.663
				c-0.078-0.082-0.186-0.138-0.322-0.166c-0.137-0.027-0.459-0.021-0.967,0.021c-0.406,0.033-0.708,0.058-0.905,0.073
				c0.005,0.144,0.012,0.274,0.021,0.392l0.313,3.324c0.011,0.132,0.024,0.383,0.04,0.751l0.063,0.713l0.026,0.396
				c0.01,0.126,0.039,0.214,0.086,0.264c0.047,0.05,0.167,0.093,0.36,0.127c0.336,0.056,0.559,0.088,0.671,0.097
				c0.067,0.001,0.125,0.011,0.17,0.028l0.011,0.161l-0.761,0.043c-0.418,0.03-0.732,0.049-0.944,0.053l-0.778,0.101l-0.57,0.079
				c-0.161,0.013-0.259,0.018-0.296,0.014l-0.077-0.026c0-0.083,0.012-0.137,0.037-0.162c0.022-0.025,0.086-0.049,0.193-0.072
				c0.147-0.034,0.321-0.086,0.521-0.158c0.199-0.072,0.328-0.139,0.388-0.201c0.033-0.035,0.053-0.091,0.062-0.167
				c0.019-0.159,0.011-0.47-0.026-0.93l-0.074-0.91l-0.184-1.984l-0.055-0.427l-0.121-1.429c-0.226,0.019-0.512,0.042-0.863,0.069
				c-0.514,0.043-0.824,0.099-0.929,0.17c-0.167,0.111-0.405,0.416-0.712,0.916c-0.1,0.186-0.192,0.281-0.278,0.288l-0.049-0.006
				c-0.016-0.021-0.025-0.04-0.026-0.058c-0.004-0.043,0.015-0.174,0.055-0.393C84.866,22.053,84.894,21.863,84.9,21.766z"/>
			<path d="M95.006,27.114c0.137-0.048,0.292-0.075,0.468-0.08c0.256-0.01,0.451-0.057,0.582-0.142
				c0.11-0.189,0.195-0.687,0.252-1.491l0.061-0.847l0.049-0.509l0.016-0.376l0.06-0.69l0.109-1.743
				c0.015-0.197-0.005-0.328-0.058-0.394c-0.076-0.095-0.289-0.192-0.637-0.293c-0.144-0.042-0.23-0.078-0.261-0.107
				c-0.03-0.029-0.045-0.081-0.047-0.157c0.083-0.012,0.141-0.017,0.172-0.015l0.38,0.027l0.199,0.009
				c0.133,0.01,0.277,0.034,0.437,0.075c0.327,0.045,0.663,0.08,1.009,0.104c0.102,0.007,0.244,0.012,0.432,0.015
				c0.494,0.007,0.849,0.018,1.063,0.033c0.434,0.031,0.838,0.104,1.217,0.217c0.376,0.113,0.76,0.301,1.15,0.562
				c0.244,0.165,0.486,0.415,0.73,0.75c0.242,0.335,0.42,0.694,0.531,1.077c0.11,0.383,0.148,0.809,0.115,1.276
				c-0.029,0.418-0.135,0.827-0.316,1.228c-0.182,0.399-0.418,0.74-0.711,1.022c-0.294,0.283-0.586,0.489-0.875,0.621
				s-0.724,0.232-1.304,0.303c-0.238,0.025-0.663,0.017-1.274-0.027c-0.404-0.029-0.73-0.065-0.982-0.108
				c-0.1-0.021-0.205-0.036-0.319-0.044c-0.019-0.002-0.038-0.002-0.06,0.001l-2.19-0.114l-0.006-0.044
				c-0.006-0.019-0.008-0.038-0.006-0.06L95.006,27.114z M97.747,27.095c0.266,0.113,0.537,0.18,0.816,0.199
				c0.36,0.025,0.719-0.005,1.072-0.092c0.354-0.088,0.672-0.226,0.953-0.411c0.28-0.187,0.516-0.403,0.707-0.649
				c0.189-0.247,0.327-0.471,0.413-0.674c0.122-0.296,0.2-0.687,0.236-1.172c0.032-0.465-0.032-0.943-0.192-1.437
				c-0.113-0.342-0.328-0.677-0.648-1.005c-0.318-0.328-0.705-0.579-1.159-0.754c-0.455-0.175-0.952-0.281-1.49-0.319
				c-0.372-0.027-0.649-0.006-0.835,0.063c-0.023,0.021-0.045,0.043-0.068,0.07c-0.028,0.088-0.045,0.17-0.051,0.245
				c-0.003,0.046-0.005,0.102-0.006,0.166c-0.021,0.415-0.039,0.747-0.056,0.997l-0.093,1.216c-0.129,1.786-0.168,2.782-0.115,2.989
				C97.283,26.734,97.456,26.924,97.747,27.095z"/>
			<path d="M103.632,27.821c0.042-0.025,0.074-0.038,0.101-0.041c0.063-0.006,0.169-0.001,0.314,0.016
				c0.346,0.042,0.562,0.05,0.651,0.022c0.063-0.062,0.105-0.155,0.129-0.282l0.064-0.371l0.255-1.343l0.107-0.637l0.253-1.326
				l0.254-1.513c0.063-0.36,0.078-0.567,0.045-0.621c-0.052-0.079-0.232-0.153-0.545-0.222c-0.132-0.028-0.248-0.062-0.346-0.098
				c-0.043-0.033-0.059-0.069-0.052-0.107c0.005-0.028,0.02-0.061,0.045-0.096c0.035-0.012,0.065-0.016,0.089-0.011
				c0.049,0.009,0.109,0.022,0.18,0.039c0.203,0.06,0.416,0.11,0.637,0.151l0.394,0.062l0.925,0.194
				c0.467,0.087,0.83,0.149,1.092,0.187c0.262,0.038,0.439,0.065,0.529,0.083c0.083,0.015,0.281,0.06,0.6,0.133l0.75,0.135
				l0.088,0.032l0.44,0.066l0.048,0.036c0.014,0.031,0.02,0.063,0.02,0.096c-0.009,0.05-0.029,0.124-0.064,0.224
				c-0.035,0.099-0.056,0.161-0.06,0.186c-0.069,0.366-0.114,0.678-0.136,0.936c-0.008,0.021-0.021,0.033-0.04,0.037
				c-0.036-0.008-0.071-0.02-0.101-0.035c-0.025-0.074-0.057-0.202-0.09-0.383c-0.033-0.182-0.096-0.395-0.185-0.641
				c-0.06-0.164-0.112-0.265-0.157-0.303c-0.043-0.037-0.143-0.07-0.299-0.1c-0.03-0.006-0.189-0.039-0.479-0.1
				c-0.076-0.018-0.15-0.034-0.226-0.048l-1.513-0.249l-0.131-0.024c-0.194-0.036-0.314-0.033-0.363,0.01
				c-0.075,0.073-0.15,0.315-0.229,0.728c-0.008,0.042-0.077,0.466-0.208,1.272l-0.138,0.733c0.037,0.019,0.078,0.031,0.124,0.039
				l0.089,0.018c0.061,0.011,0.148,0.029,0.264,0.054c0.182,0.042,0.305,0.068,0.367,0.08c0.043,0.008,0.081,0.013,0.112,0.016
				c0.383,0.056,0.874,0.14,1.472,0.252c0.193,0.003,0.309-0.014,0.35-0.05c0.063-0.054,0.135-0.212,0.211-0.475
				c0.075-0.263,0.162-0.403,0.261-0.421c0.046,0.009,0.087,0.024,0.122,0.05c0.001,0.029,0,0.057-0.004,0.08
				c-0.004,0.025-0.017,0.065-0.033,0.12c-0.043,0.127-0.127,0.534-0.256,1.221c-0.033,0.183-0.061,0.389-0.084,0.618
				c-0.022,0.229-0.035,0.352-0.039,0.369c-0.006,0.031-0.02,0.073-0.039,0.124c-0.031,0.009-0.056,0.012-0.072,0.008l-0.037-0.007
				c-0.039-0.108-0.064-0.271-0.078-0.49c-0.025-0.372-0.08-0.612-0.164-0.721s-0.238-0.184-0.463-0.226
				c-0.051-0.01-0.141-0.023-0.271-0.042c-0.131-0.02-0.324-0.053-0.582-0.101l-0.344-0.063c-0.489-0.092-0.812-0.141-0.967-0.147
				l-0.038,0.174l-0.175,0.974l-0.121,0.612l-0.105,0.6c-0.063,0.359-0.08,0.572-0.047,0.637c0.045,0.088,0.168,0.151,0.369,0.188
				l0.322,0.055c0.028,0.006,0.139,0.028,0.33,0.07c0.189,0.04,0.426,0.087,0.708,0.14c0.68,0.126,1.138,0.181,1.373,0.165
				c0.236-0.017,0.441-0.086,0.615-0.206c0.174-0.121,0.417-0.406,0.729-0.856c0.095-0.133,0.174-0.192,0.242-0.18
				c0.031,0.006,0.063,0.026,0.098,0.062c-0.168,0.33-0.268,0.548-0.303,0.654c-0.084,0.239-0.154,0.486-0.209,0.742
				c-0.021,0.116-0.067,0.208-0.139,0.274l-0.115-0.021l-1.488-0.261l-0.664-0.13l-1.588-0.273l-0.644-0.12
				c-0.081-0.015-0.157-0.027-0.228-0.037c-0.64-0.09-1.109-0.162-1.408-0.218c-0.053-0.01-0.087-0.025-0.104-0.046
				c-0.016-0.021-0.021-0.049-0.014-0.083L103.632,27.821z"/>
			<path d="M118.457,24.688c-0.036,0.276-0.097,0.554-0.179,0.832c-0.016,0.055-0.039,0.128-0.07,0.22
				c-0.051-0.004-0.088-0.01-0.113-0.017c-0.02-0.006-0.048-0.018-0.084-0.035c-0.025-0.445-0.169-0.824-0.432-1.137
				c-0.264-0.313-0.633-0.54-1.115-0.683c-0.252-0.075-0.478-0.108-0.668-0.103c-0.341,0.016-0.656,0.082-0.945,0.2
				s-0.553,0.283-0.79,0.494c-0.237,0.212-0.459,0.489-0.663,0.83c-0.201,0.341-0.361,0.704-0.475,1.089
				c-0.217,0.734-0.285,1.375-0.203,1.92c0.081,0.545,0.286,0.977,0.613,1.296c0.328,0.318,0.689,0.536,1.084,0.653l0.244,0.066
				c0.285,0.047,0.48,0.069,0.59,0.067c0.271,0.003,0.504-0.021,0.695-0.071c0.193-0.05,0.393-0.141,0.604-0.272
				c0.207-0.133,0.402-0.302,0.582-0.506l0.068-0.002c0.018,0.005,0.039,0.022,0.068,0.054c-0.027,0.081-0.047,0.133-0.059,0.156
				c-0.314,0.538-0.537,0.904-0.664,1.098c-0.061-0.003-0.135-0.003-0.225,0c-0.443,0.019-1.001-0.071-1.674-0.27
				c-0.542-0.16-0.938-0.317-1.186-0.471c-0.248-0.154-0.508-0.355-0.779-0.606c-0.271-0.249-0.49-0.538-0.652-0.867
				c-0.166-0.329-0.262-0.712-0.295-1.148c-0.03-0.437,0.021-0.887,0.158-1.351c0.131-0.439,0.303-0.806,0.516-1.1
				c0.214-0.294,0.492-0.572,0.836-0.836c0.344-0.265,0.713-0.46,1.11-0.586c0.397-0.125,0.813-0.174,1.245-0.146
				c0.303,0.021,0.717,0.11,1.238,0.265c0.381,0.112,0.725,0.27,1.031,0.471C118.177,24.394,118.373,24.559,118.457,24.688z"/>
			<path d="M119.021,28.166c0.143-0.336,0.311-0.618,0.502-0.846c0.192-0.228,0.449-0.454,0.77-0.681
				c0.321-0.225,0.662-0.384,1.02-0.475c0.357-0.092,0.809-0.115,1.354-0.07c0.383,0.033,0.831,0.159,1.344,0.377
				c0.348,0.147,0.666,0.337,0.959,0.569c0.292,0.233,0.537,0.489,0.738,0.769s0.363,0.648,0.488,1.105
				c0.088,0.316,0.121,0.633,0.102,0.947c-0.027,0.412-0.123,0.81-0.285,1.192c-0.184,0.435-0.381,0.777-0.586,1.028
				c-0.205,0.252-0.465,0.476-0.783,0.672c-0.246,0.151-0.618,0.29-1.115,0.414c-0.33,0.085-0.707,0.106-1.129,0.066
				c-0.424-0.042-0.851-0.153-1.281-0.336c-0.439-0.187-0.809-0.403-1.107-0.65c-0.299-0.248-0.532-0.493-0.7-0.737
				c-0.167-0.244-0.311-0.561-0.431-0.95c-0.121-0.39-0.17-0.784-0.148-1.184S118.848,28.575,119.021,28.166z M121.15,32.697
				c0.275,0.117,0.58,0.2,0.912,0.249c0.33,0.049,0.648,0.033,0.957-0.049c0.306-0.082,0.574-0.21,0.801-0.383
				c0.227-0.175,0.457-0.425,0.688-0.75c0.232-0.326,0.424-0.669,0.576-1.028c0.191-0.447,0.313-0.919,0.366-1.413
				c0.04-0.377-0.001-0.745-0.12-1.105c-0.121-0.359-0.313-0.681-0.578-0.962c-0.266-0.282-0.582-0.501-0.951-0.657
				c-0.301-0.127-0.615-0.202-0.943-0.225c-0.33-0.023-0.619,0.003-0.868,0.078c-0.249,0.074-0.514,0.22-0.792,0.435
				c-0.277,0.214-0.529,0.475-0.756,0.778c-0.226,0.306-0.395,0.588-0.505,0.849c-0.116,0.273-0.206,0.601-0.271,0.981
				s-0.078,0.729-0.043,1.043c0.036,0.315,0.117,0.615,0.244,0.9c0.125,0.284,0.297,0.534,0.512,0.748
				C120.595,32.401,120.853,32.571,121.15,32.697z"/>
			<path d="M125.489,34.55c0.483,0.203,0.76,0.311,0.831,0.322c0.049,0.007,0.113-0.019,0.191-0.077l0.029-0.052
				c0.043-0.077,0.215-0.353,0.516-0.824c0.083-0.133,0.162-0.266,0.234-0.396l0.303-0.563l0.365-0.626l0.658-1.176l0.479-0.838
				c0.204-0.354,0.3-0.585,0.286-0.695c-0.015-0.11-0.132-0.25-0.354-0.418c-0.221-0.169-0.341-0.268-0.357-0.298
				c-0.016-0.029-0.014-0.062,0.006-0.095c0.012-0.022,0.032-0.049,0.063-0.077c0.045-0.011,0.127,0.015,0.24,0.075
				c0.017,0.008,0.061,0.028,0.136,0.061s0.143,0.066,0.204,0.101l0.385,0.217l1.237,0.681c0.694,0.394,1.152,0.721,1.374,0.981
				c0.221,0.26,0.344,0.56,0.372,0.897c0.026,0.338-0.046,0.658-0.218,0.961c-0.324,0.573-0.872,0.842-1.643,0.805
				c-0.133-0.006-0.24-0.005-0.322,0.003c-0.021,0.283-0.025,0.637-0.014,1.059l0.018,1.353c0.025,0.51,0.055,0.837,0.092,0.982
				c0.037,0.146,0.103,0.287,0.197,0.424c0.094,0.135,0.277,0.317,0.551,0.546c-0.014,0.033-0.027,0.06-0.037,0.077
				c-0.012,0.02-0.026,0.042-0.045,0.068c-0.431-0.235-0.934-0.516-1.506-0.84c-0.041-0.022-0.096-0.058-0.163-0.104
				c0.019-0.55,0.022-1.164,0.011-1.842l0.023-1.656c-0.02-0.184-0.051-0.309-0.094-0.376s-0.113-0.129-0.212-0.186l-0.401-0.22
				l-0.128-0.079c-0.065,0.095-0.185,0.296-0.359,0.604l-0.905,1.6c-0.037,0.058-0.069,0.146-0.102,0.269
				c-0.008,0.073,0.007,0.145,0.047,0.216c0.041,0.069,0.186,0.223,0.436,0.458l0.166,0.155c0.007,0.045-0.004,0.095-0.035,0.147
				c-0.092-0.032-0.156-0.058-0.19-0.077c-0.28-0.158-0.476-0.273-0.587-0.345c-0.058-0.036-0.105-0.065-0.142-0.086l-0.641-0.349
				l-0.618-0.356c-0.029-0.017-0.172-0.091-0.433-0.226l-0.083-0.072l0.018-0.052C125.383,34.583,125.423,34.563,125.489,34.55z
				 M128.952,32.473c0.082,0.051,0.143,0.087,0.186,0.11c0.224,0.127,0.497,0.247,0.819,0.359c0.229,0.076,0.433,0.104,0.612,0.085
				c0.182-0.021,0.364-0.096,0.553-0.228c0.187-0.132,0.336-0.295,0.444-0.487c0.119-0.212,0.18-0.474,0.179-0.786
				c-0.002-0.238-0.09-0.487-0.266-0.747s-0.436-0.486-0.778-0.681c-0.084-0.047-0.194-0.104-0.335-0.171
				c-0.104,0.155-0.181,0.276-0.23,0.363l-0.469,0.886l-0.209,0.357C129.322,31.776,129.153,32.09,128.952,32.473z"/>
			<path d="M137.931,34.277c0.057,0.03,0.094,0.051,0.107,0.062c0.096,0.074,0.252,0.201,0.465,0.383
				c0.115,0.092,0.192,0.154,0.236,0.187c0.063,0.048,0.199,0.144,0.409,0.287l0.759,0.511c0.203,0.129,0.432,0.29,0.685,0.483
				c0.446,0.342,0.753,0.676,0.923,1.006c0.167,0.328,0.22,0.683,0.157,1.062c-0.063,0.38-0.196,0.703-0.4,0.971
				c-0.341,0.445-0.792,0.711-1.353,0.796c-0.559,0.085-1.104-0.075-1.633-0.479c-0.148-0.113-0.262-0.223-0.338-0.328
				c-0.077-0.106-0.146-0.251-0.209-0.435c-0.027-0.078-0.029-0.142-0.011-0.19c0.026-0.011,0.054-0.014,0.079-0.006
				c0.04,0.03,0.076,0.07,0.104,0.12c0.072,0.107,0.182,0.219,0.329,0.331c0.226,0.172,0.479,0.279,0.765,0.322
				c0.285,0.042,0.559,0,0.816-0.126s0.475-0.303,0.648-0.53c0.17-0.221,0.281-0.479,0.331-0.769
				c0.052-0.292,0.038-0.566-0.042-0.826c-0.047-0.147-0.152-0.323-0.322-0.529c-0.169-0.206-0.311-0.352-0.424-0.439
				c-0.352-0.269-0.58-0.402-0.684-0.401l-0.051,0.057l-0.355,0.492l-0.069,0.082c-0.064,0.071-0.157,0.188-0.28,0.347
				c-0.441,0.58-0.709,0.947-0.801,1.103l-0.182,0.238l-1.434,1.991c-0.023,0.028-0.066,0.079-0.133,0.15
				c-0.065,0.071-0.119,0.136-0.164,0.191c-0.104,0.138-0.172,0.25-0.203,0.338c0.053,0.072,0.217,0.271,0.49,0.598
				c0.125,0.154,0.193,0.239,0.203,0.256c0.016,0.026,0.021,0.06,0.017,0.102c-0.044,0.034-0.081,0.05-0.107,0.049
				c-0.028-0.001-0.07-0.022-0.124-0.064c-0.034-0.025-0.109-0.094-0.223-0.204c-0.226-0.212-0.408-0.371-0.547-0.478l-0.773-0.544
				l-0.438-0.356c-0.029-0.021-0.112-0.082-0.255-0.181l0.08-0.113l0.637,0.317c0.111,0.044,0.186,0.061,0.225,0.05
				c0.061-0.018,0.133-0.085,0.223-0.202c0.02-0.025,0.063-0.079,0.133-0.163c0.047-0.057,0.111-0.139,0.192-0.244
				c0.257-0.335,0.788-1.061,1.597-2.177c0.379-0.521,0.771-1.045,1.175-1.574l0.056-0.072c0.156-0.204,0.225-0.357,0.203-0.46
				c-0.034-0.174-0.238-0.451-0.613-0.833c0.008-0.042,0.021-0.073,0.037-0.093C137.861,34.315,137.89,34.295,137.931,34.277z"/>
			<path d="M138.875,43.436c0.424,0.309,0.667,0.478,0.734,0.505c0.046,0.018,0.114,0.008,0.203-0.031l0.04-0.043
				c0.063-0.065,0.292-0.293,0.691-0.684c0.113-0.11,0.221-0.221,0.322-0.331l0.422-0.479l0.502-0.523l0.912-0.991l0.66-0.704
				c0.28-0.297,0.426-0.501,0.439-0.611c0.012-0.11-0.07-0.273-0.247-0.488c-0.177-0.216-0.271-0.339-0.278-0.371
				c-0.01-0.033,0-0.063,0.027-0.093c0.018-0.019,0.043-0.038,0.076-0.061c0.049,0.001,0.121,0.044,0.219,0.129
				c0.012,0.012,0.052,0.043,0.117,0.091c0.064,0.049,0.124,0.097,0.176,0.146l0.323,0.299l1.048,0.949
				c0.585,0.543,0.955,0.967,1.109,1.271c0.154,0.304,0.206,0.624,0.154,0.96c-0.053,0.334-0.196,0.629-0.433,0.885
				c-0.448,0.482-1.044,0.617-1.786,0.402c-0.128-0.036-0.232-0.06-0.313-0.071c-0.087,0.271-0.174,0.613-0.258,1.026l-0.297,1.32
				c-0.094,0.501-0.139,0.827-0.137,0.978c0.002,0.151,0.032,0.303,0.094,0.457c0.06,0.153,0.197,0.373,0.41,0.659
				c-0.021,0.029-0.041,0.051-0.055,0.066c-0.016,0.017-0.035,0.034-0.059,0.057c-0.365-0.329-0.789-0.717-1.271-1.165
				c-0.034-0.032-0.08-0.078-0.135-0.14c0.145-0.531,0.291-1.127,0.436-1.789l0.405-1.605c0.024-0.184,0.022-0.313-0.003-0.388
				c-0.025-0.075-0.08-0.151-0.164-0.229l-0.34-0.307l-0.105-0.106c-0.086,0.077-0.25,0.245-0.49,0.505l-1.25,1.347
				c-0.047,0.048-0.102,0.127-0.162,0.238c-0.025,0.069-0.026,0.143-0.002,0.221c0.022,0.077,0.129,0.26,0.316,0.547l0.125,0.188
				c-0.004,0.046-0.025,0.092-0.066,0.137c-0.084-0.054-0.139-0.093-0.168-0.12c-0.236-0.219-0.4-0.376-0.492-0.471
				c-0.047-0.049-0.087-0.088-0.119-0.117l-0.541-0.487l-0.519-0.489c-0.024-0.022-0.147-0.129-0.37-0.319l-0.064-0.089l0.029-0.047
				C138.765,43.443,138.81,43.433,138.875,43.436z M142.726,42.215c0.067,0.068,0.119,0.118,0.154,0.15
				c0.188,0.175,0.427,0.354,0.714,0.539c0.206,0.127,0.397,0.2,0.577,0.224c0.18,0.022,0.376-0.009,0.589-0.094
				c0.214-0.085,0.396-0.209,0.546-0.371c0.165-0.179,0.283-0.42,0.355-0.724c0.055-0.232,0.025-0.495-0.085-0.788
				c-0.112-0.293-0.312-0.574-0.601-0.842c-0.071-0.066-0.166-0.147-0.286-0.244c-0.137,0.126-0.241,0.227-0.308,0.3l-0.662,0.753
				l-0.285,0.3C143.245,41.622,143.009,41.888,142.726,42.215z"/>
			<path d="M146.361,45.944c0.277-0.24,0.551-0.42,0.823-0.54c0.272-0.121,0.603-0.212,0.989-0.273
				c0.388-0.062,0.763-0.055,1.123,0.021c0.361,0.075,0.778,0.252,1.249,0.531c0.328,0.198,0.675,0.509,1.042,0.931
				c0.246,0.283,0.45,0.594,0.61,0.931c0.159,0.338,0.269,0.677,0.326,1.016s0.042,0.741-0.046,1.207
				c-0.063,0.323-0.171,0.622-0.327,0.895c-0.206,0.359-0.466,0.674-0.778,0.947c-0.357,0.31-0.683,0.532-0.979,0.668
				c-0.295,0.135-0.627,0.221-0.998,0.258c-0.289,0.028-0.682-0.01-1.183-0.116c-0.337-0.069-0.685-0.216-1.046-0.438
				c-0.361-0.223-0.695-0.511-1.003-0.864c-0.312-0.36-0.548-0.717-0.708-1.07c-0.162-0.354-0.264-0.678-0.307-0.97
				c-0.042-0.292-0.032-0.641,0.031-1.043c0.063-0.403,0.191-0.779,0.385-1.129C145.761,46.555,146.027,46.235,146.361,45.944z
				 M146.282,50.949c0.197,0.227,0.434,0.436,0.71,0.624c0.276,0.189,0.569,0.315,0.882,0.377c0.311,0.062,0.607,0.063,0.889,0.007
				s0.596-0.18,0.947-0.371c0.352-0.19,0.674-0.414,0.969-0.671c0.367-0.318,0.684-0.688,0.949-1.108
				c0.201-0.321,0.326-0.67,0.377-1.046s0.019-0.749-0.097-1.119c-0.115-0.369-0.304-0.705-0.565-1.008
				c-0.215-0.246-0.464-0.452-0.75-0.616c-0.284-0.165-0.557-0.269-0.813-0.311s-0.558-0.028-0.901,0.043
				c-0.344,0.07-0.685,0.193-1.021,0.367c-0.338,0.175-0.612,0.354-0.826,0.54c-0.225,0.195-0.449,0.449-0.675,0.764
				c-0.226,0.313-0.39,0.62-0.497,0.918c-0.105,0.299-0.164,0.604-0.176,0.915c-0.013,0.313,0.032,0.611,0.133,0.898
				C145.915,50.439,146.072,50.705,146.282,50.949z"/>
			<path d="M149.162,54.679l0.11-0.07c0.076,0.043,0.179,0.13,0.309,0.264c0.131,0.133,0.229,0.219,0.293,0.259
				c0.064,0.039,0.131,0.063,0.197,0.073c0.148-0.063,0.391-0.214,0.73-0.448l3.432-2.391l0.578-0.383
				c0.117-0.082,0.184-0.161,0.195-0.237s-0.031-0.225-0.129-0.444c-0.1-0.219-0.148-0.354-0.148-0.406
				c-0.002-0.052,0.012-0.086,0.037-0.104c0.015-0.011,0.037-0.02,0.067-0.026c0.05,0.021,0.089,0.053,0.118,0.094
				c0.031,0.045,0.09,0.137,0.178,0.275l0.086,0.123c0.028,0.042,0.112,0.155,0.252,0.343l0.426,0.612l0.903,1.25l0.985,1.303
				l0.083,0.12l0.137,0.186c0.036,0.053,0.054,0.11,0.054,0.172c-0.035,0.051-0.063,0.084-0.079,0.102l-0.181,0.118l-0.762,0.59
				c-0.031,0.022-0.074,0.048-0.129,0.076c-0.053-0.032-0.093-0.067-0.119-0.105c-0.02-0.026-0.023-0.054-0.017-0.081
				c0.015-0.045,0.067-0.104,0.153-0.173c0.119-0.099,0.25-0.259,0.395-0.478c0.067-0.103,0.088-0.211,0.063-0.323
				c-0.055-0.224-0.228-0.543-0.518-0.96c-0.137-0.196-0.27-0.377-0.398-0.539c-0.129-0.163-0.207-0.264-0.232-0.302l-0.234-0.347
				c-0.098-0.141-0.199-0.242-0.305-0.305c-0.068-0.043-0.154-0.03-0.254,0.04l-0.066,0.045c-0.143,0.114-0.307,0.233-0.488,0.36
				l-1.208,0.821c-0.117,0.082-0.224,0.169-0.317,0.26l0.08,0.134l0.186,0.237l0.584,0.841c0.234,0.337,0.423,0.555,0.561,0.654
				c0.095,0.065,0.189,0.098,0.284,0.097c0.03,0,0.173-0.044,0.425-0.132l0.406-0.198c0.041,0.023,0.068,0.044,0.08,0.061
				c0.012,0.015,0.02,0.044,0.028,0.086c-0.06,0.06-0.157,0.139-0.294,0.237l-1.585,1.183c-0.056-0.036-0.092-0.066-0.11-0.094
				l-0.025-0.055c0.262-0.251,0.439-0.485,0.539-0.702c0.034-0.076,0.04-0.139,0.019-0.189c-0.036-0.088-0.271-0.444-0.704-1.067
				c-0.135-0.193-0.229-0.327-0.283-0.398c-0.133-0.17-0.211-0.272-0.236-0.308l-0.028-0.044c-0.063-0.089-0.118-0.144-0.168-0.165
				c-0.044,0.013-0.072,0.023-0.087,0.034l-0.305,0.212c-0.035,0.024-0.182,0.128-0.438,0.311l-1.465,1.008
				c-0.041,0.028-0.085,0.076-0.13,0.143c-0.009,0.097,0.038,0.231,0.136,0.406c0.098,0.174,0.164,0.355,0.203,0.542
				c0.02,0.108,0.006,0.18-0.042,0.212c-0.021,0.015-0.044,0.022-0.069,0.022c-0.025,0.001-0.053-0.011-0.083-0.034
				c-0.117-0.275-0.324-0.625-0.62-1.051c-0.157-0.226-0.344-0.45-0.561-0.675c-0.146-0.154-0.298-0.343-0.455-0.565L149.162,54.679
				z"/>
			<path d="M152.833,59.673c0.045,0.017,0.076,0.034,0.095,0.052c0.046,0.045,0.108,0.128,0.19,0.251
				c0.188,0.293,0.32,0.464,0.398,0.515c0.088,0.01,0.188-0.019,0.299-0.081l0.326-0.189l1.195-0.663l0.559-0.325l1.18-0.655
				l1.326-0.772c0.316-0.182,0.484-0.303,0.504-0.363c0.029-0.09-0.03-0.276-0.176-0.559c-0.064-0.121-0.113-0.23-0.148-0.33
				c0-0.053,0.016-0.089,0.05-0.108c0.024-0.015,0.06-0.022,0.103-0.026c0.03,0.02,0.053,0.04,0.066,0.062
				c0.023,0.044,0.051,0.099,0.083,0.162c0.085,0.194,0.183,0.391,0.292,0.587l0.203,0.342l0.444,0.836
				c0.231,0.412,0.417,0.73,0.556,0.957c0.137,0.226,0.23,0.379,0.275,0.461c0.041,0.071,0.134,0.253,0.281,0.545l0.378,0.662
				l0.03,0.088l0.231,0.381l0.003,0.061c-0.016,0.029-0.037,0.055-0.063,0.076c-0.043,0.025-0.113,0.056-0.213,0.092
				c-0.098,0.038-0.158,0.063-0.18,0.074c-0.324,0.182-0.594,0.347-0.807,0.494c-0.021,0.008-0.037,0.006-0.053-0.006
				c-0.019-0.033-0.031-0.067-0.037-0.1c0.041-0.068,0.118-0.173,0.236-0.314c0.117-0.142,0.242-0.326,0.374-0.552
				c0.087-0.152,0.132-0.257,0.132-0.314s-0.038-0.155-0.114-0.293c-0.017-0.027-0.093-0.172-0.23-0.432
				c-0.036-0.07-0.071-0.139-0.108-0.204l-0.776-1.321l-0.065-0.116c-0.097-0.173-0.176-0.264-0.238-0.273
				c-0.105-0.011-0.341,0.086-0.707,0.291c-0.037,0.021-0.408,0.238-1.111,0.652l-0.651,0.365c0.011,0.04,0.026,0.08,0.05,0.121
				l0.044,0.079c0.03,0.054,0.073,0.133,0.127,0.237c0.085,0.166,0.144,0.277,0.173,0.333c0.023,0.037,0.043,0.069,0.061,0.096
				c0.202,0.331,0.453,0.761,0.75,1.292c0.12,0.15,0.207,0.229,0.26,0.235c0.084,0.016,0.25-0.031,0.5-0.141
				c0.251-0.109,0.414-0.134,0.492-0.069c0.022,0.041,0.034,0.082,0.039,0.126c-0.023,0.02-0.044,0.036-0.064,0.049
				c-0.023,0.013-0.061,0.029-0.113,0.051c-0.125,0.049-0.492,0.244-1.102,0.585c-0.162,0.092-0.338,0.201-0.527,0.331
				c-0.191,0.129-0.294,0.198-0.311,0.207c-0.027,0.016-0.068,0.032-0.119,0.049c-0.027-0.019-0.045-0.034-0.054-0.051l-0.019-0.033
				c0.06-0.099,0.168-0.223,0.326-0.373c0.271-0.258,0.42-0.454,0.449-0.588c0.03-0.134-0.01-0.3-0.122-0.5
				c-0.024-0.044-0.072-0.122-0.142-0.235c-0.068-0.112-0.168-0.283-0.295-0.511l-0.172-0.305c-0.242-0.435-0.412-0.714-0.506-0.837
				l-0.157,0.082l-0.86,0.488l-0.547,0.301L154.599,61c-0.318,0.182-0.492,0.305-0.521,0.371c-0.038,0.091-0.008,0.227,0.092,0.404
				l0.166,0.283c0.014,0.025,0.065,0.124,0.156,0.297c0.09,0.173,0.205,0.384,0.346,0.634c0.338,0.604,0.588,0.99,0.752,1.161
				s0.348,0.284,0.553,0.341c0.203,0.056,0.578,0.06,1.125,0.013c0.161-0.013,0.26,0.011,0.293,0.069
				c0.016,0.028,0.02,0.066,0.016,0.115c-0.362,0.082-0.594,0.145-0.697,0.187c-0.237,0.088-0.473,0.192-0.704,0.314
				c-0.103,0.058-0.202,0.081-0.3,0.069l-0.057-0.104l-0.753-1.309l-0.327-0.593l-0.805-1.396l-0.32-0.572
				c-0.04-0.071-0.08-0.138-0.119-0.198c-0.338-0.548-0.583-0.955-0.732-1.221c-0.025-0.046-0.035-0.083-0.029-0.108
				c0.005-0.026,0.022-0.048,0.053-0.064L152.833,59.673z"/>
			<path d="M163.939,67.055c-0.205,0.122-0.322,0.19-0.355,0.205l-0.445,0.175c-0.189,0.076-0.313,0.121-0.367,0.135
				c-0.027-0.023-0.045-0.045-0.054-0.064l-0.01-0.048c0.411-0.31,0.665-0.636,0.763-0.979c0.098-0.344,0.066-0.695-0.094-1.056
				c-0.165-0.372-0.406-0.632-0.724-0.777c-0.315-0.146-0.612-0.156-0.89-0.032c-0.213,0.095-0.37,0.266-0.472,0.511
				c-0.103,0.246-0.177,0.79-0.223,1.634c-0.036,0.644-0.091,1.117-0.162,1.42c-0.071,0.302-0.194,0.561-0.368,0.775
				c-0.176,0.216-0.402,0.385-0.681,0.509c-0.351,0.156-0.72,0.213-1.108,0.168c-0.389-0.044-0.729-0.186-1.021-0.424
				c-0.294-0.238-0.552-0.61-0.779-1.117c-0.195-0.441-0.314-0.896-0.355-1.365c-0.021-0.276-0.016-0.452,0.012-0.527
				c0.029-0.076,0.072-0.127,0.133-0.153c0.035-0.016,0.082-0.033,0.141-0.052c0.407-0.126,0.735-0.242,0.984-0.351
				c0.157-0.062,0.252-0.091,0.286-0.086c0.028,0.003,0.051,0.022,0.067,0.059c0.012,0.029,0.012,0.058-0.001,0.085
				s-0.047,0.058-0.104,0.09c-0.386,0.216-0.663,0.563-0.83,1.041c-0.167,0.475-0.158,0.924,0.03,1.346
				c0.115,0.258,0.273,0.472,0.479,0.642c0.205,0.169,0.438,0.27,0.696,0.301c0.259,0.032,0.484,0.005,0.678-0.081
				c0.266-0.119,0.465-0.319,0.601-0.604c0.137-0.284,0.226-0.773,0.269-1.466c0.041-0.693,0.09-1.154,0.148-1.385
				c0.098-0.372,0.238-0.682,0.422-0.928c0.145-0.187,0.342-0.336,0.594-0.448c0.455-0.203,0.92-0.194,1.396,0.024
				c0.477,0.22,0.85,0.631,1.119,1.236c0.148,0.334,0.24,0.639,0.271,0.914C164.005,66.584,163.99,66.809,163.939,67.055z"/>
			<path d="M165.995,72.534c-0.213,0.106-0.335,0.166-0.369,0.178l-0.458,0.14c-0.194,0.063-0.321,0.098-0.378,0.106
				c-0.023-0.025-0.04-0.048-0.047-0.068l-0.006-0.049c0.434-0.276,0.713-0.582,0.836-0.917c0.125-0.335,0.121-0.688-0.012-1.059
				c-0.137-0.385-0.357-0.662-0.661-0.832c-0.304-0.169-0.599-0.202-0.886-0.101c-0.219,0.078-0.389,0.235-0.51,0.473
				c-0.12,0.236-0.237,0.774-0.348,1.611c-0.088,0.639-0.178,1.107-0.272,1.402c-0.095,0.296-0.237,0.545-0.428,0.745
				c-0.19,0.201-0.431,0.353-0.716,0.455c-0.361,0.128-0.735,0.155-1.119,0.081c-0.385-0.074-0.713-0.241-0.986-0.502
				c-0.273-0.26-0.504-0.65-0.689-1.174c-0.162-0.455-0.244-0.919-0.248-1.388c0-0.278,0.018-0.453,0.053-0.526
				c0.034-0.073,0.082-0.121,0.143-0.143c0.038-0.013,0.086-0.026,0.146-0.04c0.415-0.094,0.751-0.186,1.009-0.272
				c0.162-0.051,0.258-0.071,0.291-0.064c0.028,0.005,0.049,0.026,0.063,0.063c0.01,0.03,0.009,0.059-0.008,0.085
				c-0.016,0.026-0.051,0.054-0.109,0.082c-0.402,0.185-0.705,0.51-0.908,0.973c-0.205,0.461-0.23,0.909-0.074,1.344
				c0.094,0.267,0.236,0.492,0.428,0.677s0.416,0.304,0.671,0.354c0.257,0.052,0.483,0.042,0.683-0.029
				c0.272-0.097,0.488-0.282,0.646-0.555c0.156-0.272,0.283-0.753,0.379-1.44s0.182-1.144,0.258-1.368
				c0.125-0.364,0.289-0.661,0.492-0.894c0.158-0.174,0.366-0.308,0.627-0.399c0.469-0.167,0.932-0.123,1.389,0.132
				c0.459,0.256,0.798,0.695,1.02,1.319c0.122,0.345,0.189,0.654,0.201,0.933C166.099,72.071,166.066,72.294,165.995,72.534z"/>
			<path d="M160.324,75.979c0.052,0.067,0.093,0.14,0.122,0.217c0.182,0.519,0.33,0.802,0.441,0.853
				c0.113,0.05,0.566-0.036,1.361-0.259l0.541-0.157l0.568-0.16l0.621-0.196l0.371-0.093l0.402-0.118l0.477-0.134l0.208-0.07
				l0.272-0.064c0.063-0.015,0.135-0.032,0.22-0.057c0.217-0.061,0.442-0.135,0.679-0.224c0.044-0.027,0.086-0.06,0.124-0.096
				c0.029-0.146,0.017-0.364-0.041-0.655c-0.059-0.291-0.078-0.459-0.061-0.505c0.013-0.033,0.062-0.063,0.146-0.091l0.122,0.435
				l0.354,1.382c0.099,0.352,0.24,0.819,0.425,1.4c-0.054,0.015-0.107,0.025-0.157,0.032c-0.036-0.063-0.087-0.174-0.153-0.33
				c-0.131-0.316-0.223-0.507-0.277-0.57c-0.029-0.039-0.068-0.063-0.115-0.073c-0.072-0.017-0.193-0.005-0.365,0.036l-0.674,0.161
				l-2.297,0.667l-0.912,0.255c-0.289,0.073-0.484,0.125-0.587,0.154c-0.387,0.108-0.632,0.187-0.733,0.235s-0.17,0.104-0.201,0.163
				c-0.035,0.06-0.049,0.147-0.047,0.262c0.006,0.17,0.02,0.3,0.041,0.39c0.047,0.195,0.055,0.325,0.021,0.391
				c-0.042,0.023-0.078,0.039-0.108,0.047l-0.041,0.012c-0.1-0.311-0.17-0.541-0.211-0.689c-0.025-0.086-0.063-0.241-0.114-0.465
				l-0.21-0.712l-0.338-1.219l-0.027-0.099L160.324,75.979z"/>
			<path d="M164.734,79.464c0.359-0.065,0.686-0.081,0.982-0.047c0.295,0.035,0.626,0.125,0.992,0.27
				c0.364,0.144,0.684,0.34,0.955,0.588c0.273,0.249,0.543,0.613,0.805,1.093c0.182,0.338,0.324,0.782,0.424,1.331
				c0.068,0.37,0.086,0.74,0.053,1.113c-0.034,0.371-0.113,0.718-0.236,1.039s-0.342,0.66-0.654,1.016
				c-0.217,0.247-0.463,0.449-0.736,0.604c-0.358,0.205-0.742,0.344-1.15,0.419c-0.465,0.085-0.859,0.111-1.182,0.077
				c-0.323-0.033-0.654-0.128-0.992-0.284c-0.264-0.123-0.582-0.357-0.959-0.703c-0.253-0.23-0.479-0.533-0.677-0.908
				s-0.34-0.793-0.425-1.254c-0.086-0.469-0.107-0.896-0.065-1.283c0.042-0.386,0.12-0.716,0.229-0.989
				c0.112-0.273,0.298-0.567,0.558-0.883c0.259-0.315,0.562-0.573,0.905-0.775C163.906,79.685,164.296,79.544,164.734,79.464z
				 M162.12,83.733c0.054,0.296,0.152,0.596,0.293,0.899c0.141,0.303,0.33,0.561,0.566,0.772c0.238,0.211,0.492,0.363,0.763,0.458
				c0.271,0.094,0.604,0.148,1.005,0.162c0.399,0.015,0.791-0.015,1.174-0.085c0.48-0.087,0.939-0.245,1.383-0.472
				c0.336-0.175,0.621-0.41,0.855-0.708c0.234-0.299,0.397-0.636,0.486-1.013s0.098-0.762,0.025-1.156
				c-0.059-0.32-0.17-0.625-0.33-0.912c-0.163-0.286-0.344-0.514-0.544-0.681c-0.2-0.168-0.466-0.308-0.798-0.422
				c-0.332-0.113-0.688-0.181-1.066-0.203c-0.38-0.021-0.708-0.006-0.986,0.045c-0.293,0.054-0.615,0.158-0.969,0.314
				c-0.354,0.155-0.652,0.335-0.895,0.538c-0.244,0.203-0.449,0.436-0.617,0.697c-0.169,0.263-0.285,0.542-0.343,0.841
				C162.064,83.108,162.062,83.416,162.12,83.733z"/>
			<path d="M169.381,87.826l0.257-0.021c0.032,0.555,0.07,0.96,0.112,1.215c0.017,0.1,0.026,0.17,0.028,0.209
				c0.002,0.031,0.003,0.08,0.002,0.146c-0.116,0.156-0.25,0.304-0.404,0.441c-0.03,0.031-0.064,0.065-0.102,0.104l-1.186,1.202
				l-0.184,0.172c-0.256,0.244-0.473,0.465-0.65,0.664c-0.18,0.198-0.553,0.586-1.123,1.163l-1.349,1.362
				c-0.132,0.134-0.298,0.305-0.493,0.513h0.086c0.496-0.05,0.759-0.075,0.787-0.077l0.322,0.004l0.504-0.04l0.23-0.013
				c0.146-0.008,0.599-0.047,1.355-0.115c0.104-0.009,0.298-0.034,0.584-0.075c0.287-0.042,0.539-0.068,0.756-0.081
				c0.394-0.022,0.622-0.059,0.684-0.108c0.045-0.035,0.084-0.189,0.119-0.464c0-0.065,0.005-0.166,0.016-0.303
				c-0.004-0.161,0-0.256,0.01-0.286c0.01-0.028,0.037-0.06,0.086-0.09c0.058,0.003,0.111,0.017,0.164,0.038
				c0.033,0.096,0.053,0.189,0.059,0.282c0.006,0.101,0,0.226-0.016,0.375c-0.018,0.149-0.021,0.284-0.016,0.401
				c0.01,0.164,0.035,0.42,0.076,0.766c0.025,0.195,0.04,0.331,0.045,0.406l0.005,0.091l-0.167-0.001
				c-0.029-0.057-0.048-0.134-0.059-0.233c-0.012-0.101-0.032-0.192-0.063-0.276c-0.045-0.127-0.084-0.201-0.114-0.225
				c-0.099-0.081-0.196-0.118-0.292-0.113l-1.69,0.156l-0.776,0.087l-0.225,0.007l-1.076,0.094c-0.736,0.063-1.375,0.11-1.918,0.142
				c-0.117,0.006-0.373,0.014-0.769,0.021l-0.035-0.249c0.136-0.133,0.562-0.59,1.278-1.369c0.165-0.182,0.281-0.305,0.35-0.37
				l0.504-0.491c0.188-0.19,0.306-0.313,0.356-0.37c0.05-0.057,0.088-0.099,0.11-0.125c0.422-0.415,0.947-0.952,1.576-1.612
				c0.17-0.178,0.435-0.44,0.795-0.788c0.229-0.217,0.367-0.354,0.418-0.41c0.051-0.058,0.107-0.134,0.171-0.231l-0.184-0.006
				c-0.696,0.04-1.657,0.112-2.882,0.218l-1.772,0.139c-0.15,0.012-0.296,0.029-0.435,0.052l-0.031,0.19
				c-0.013,0.341-0.042,0.678-0.088,1.011c-0.02,0.025-0.035,0.048-0.044,0.066l-0.204,0.007c-0.021-0.057-0.033-0.103-0.035-0.139
				c-0.002-0.039-0.001-0.088,0.002-0.146c0.009-0.354-0.002-0.787-0.029-1.294c-0.021-0.357-0.047-0.672-0.081-0.942l-0.011-0.075
				c-0.002-0.032,0-0.079,0.003-0.14l0.161-0.015l0.072,0.136l0.053,0.25c0.045,0.223,0.09,0.386,0.135,0.487
				c0.029,0.066,0.07,0.119,0.122,0.16c0.249,0.024,0.61,0.024,1.087-0.003c0.221-0.013,0.627-0.041,1.215-0.085l0.73-0.042
				l1.522-0.097c0.679-0.046,1.077-0.092,1.196-0.139c0.064-0.024,0.119-0.073,0.165-0.144c0.089-0.142,0.139-0.322,0.151-0.544
				C169.353,88.035,169.366,87.892,169.381,87.826z"/>
			<path d="M163.441,96.482c0.024,0.052,0.037,0.097,0.035,0.136l-0.008,0.124c-0.002,0.024-0.003,0.067-0.002,0.129
				c0.008,0.276,0.024,0.44,0.045,0.492c0.063,0.128,0.174,0.243,0.336,0.342c0.354,0.208,0.858,0.447,1.514,0.719
				c0.311,0.13,0.5,0.211,0.566,0.243c0.209,0.102,0.428,0.201,0.659,0.297l1.382,0.587c0.217,0.092,0.713,0.312,1.49,0.658
				c0.195,0.087,0.457,0.193,0.787,0.321l0.002,0.158l-0.018,0.188c-0.313,0.135-0.647,0.252-1.005,0.349
				c-0.188,0.054-0.474,0.143-0.85,0.268l-2.251,0.685l-1.221,0.363c-0.693,0.189-1.119,0.314-1.279,0.377s-0.266,0.122-0.32,0.18
				c-0.016,0.018-0.041,0.084-0.076,0.198s-0.062,0.194-0.078,0.24c-0.057,0.161-0.102,0.273-0.139,0.336
				c-0.04,0.012-0.07,0.018-0.091,0.016c-0.019-0.001-0.046-0.007-0.081-0.021c0.004-0.114,0.007-0.195,0.009-0.241
				c0.011-0.183,0.036-0.504,0.073-0.965l0.045-0.535l0.028-0.649c0.003-0.043,0.008-0.086,0.015-0.131
				c0.006-0.045,0.01-0.083,0.012-0.114l0.008-0.118c0.006-0.039,0.019-0.074,0.039-0.105c0.049,0.003,0.097,0.015,0.143,0.035
				c0.02,0.044,0.029,0.084,0.031,0.12l0.004,0.565c-0.002,0.146,0.012,0.259,0.039,0.335c0.063,0.025,0.111,0.039,0.143,0.041
				c0.065,0.004,0.234-0.033,0.508-0.11c0.184-0.053,0.357-0.1,0.521-0.139c0.165-0.038,0.705-0.197,1.624-0.477
				c0.034-0.145,0.055-0.273,0.061-0.384l0.057-1.147l0.025-0.338c0.007-0.121,0.006-0.256-0.004-0.404
				c-0.104-0.053-0.18-0.088-0.226-0.104l-1.446-0.559c-0.549-0.233-0.853-0.352-0.91-0.354c-0.031-0.002-0.086,0.011-0.163,0.038
				c-0.026,0.074-0.052,0.173-0.077,0.297l-0.107,0.726c-0.033,0.037-0.064,0.056-0.088,0.054c-0.02-0.001-0.045-0.008-0.08-0.021
				c0.006-0.161,0.012-0.284,0.017-0.37c0.017-0.286,0.044-0.618,0.085-0.996c0.018-0.175,0.027-0.3,0.032-0.375
				s0.009-0.205,0.013-0.392c0-0.122,0.002-0.21,0.005-0.264c0.005-0.086,0.017-0.196,0.036-0.332l0.032,0.003
				C163.364,96.456,163.398,96.466,163.441,96.482z M166.507,99.229c-0.043,0.381-0.08,0.817-0.109,1.307
				c-0.017,0.278-0.021,0.523-0.016,0.736c0.142-0.028,0.273-0.061,0.398-0.101c0.635-0.195,0.986-0.304,1.052-0.325l1.267-0.414
				l0.099-0.048c-0.04-0.024-0.221-0.114-0.538-0.269c-0.544-0.263-0.967-0.452-1.271-0.571c-0.138-0.054-0.273-0.11-0.408-0.169
				s-0.229-0.096-0.284-0.111c-0.055-0.016-0.109-0.038-0.165-0.066L166.507,99.229z"/>
			<path d="M162.752,104.077c0.052,0.012,0.099,0.033,0.137,0.064c0.03,0.288,0.038,0.565,0.021,0.831
				c-0.015,0.175,0.008,0.292,0.063,0.352c0.04,0.044,0.206,0.091,0.499,0.146l1.396,0.26l0.952,0.146l1.24,0.203l0.33,0.052
				c0.746,0.122,1.212,0.193,1.398,0.211c0.035,0.002,0.086-0.004,0.154-0.019c0.057-0.085,0.098-0.159,0.122-0.219
				s0.12-0.329,0.286-0.81c0.04,0.003,0.068,0.006,0.086,0.009c0.021,0.003,0.05,0.009,0.084,0.019
				c-0.01,0.067-0.031,0.177-0.064,0.327l-0.158,0.803l-0.086,0.467l-0.016,0.138c-0.002,0.019-0.015,0.069-0.035,0.153
				c-0.033,0.208-0.051,0.33-0.053,0.362l-0.035,0.43c-0.045,0.287-0.082,0.488-0.111,0.604c-0.063-0.014-0.131-0.037-0.202-0.07
				c-0.001-0.04,0.02-0.225,0.06-0.557c0.039-0.33,0.049-0.523,0.027-0.577c-0.031-0.088-0.166-0.151-0.402-0.189
				c-0.059-0.009-0.172-0.03-0.345-0.065l-0.317-0.05l-0.982-0.151l-0.334-0.053l-1.758-0.269l-1.493-0.254l-0.331-0.047
				c-0.105-0.017-0.174-0.01-0.203,0.022c-0.019,0.087-0.064,0.347-0.136,0.777l-0.058,0.36l-0.114,0.924
				c-0.03,0.241-0.034,0.416-0.009,0.525c0.024,0.109,0.117,0.3,0.275,0.572c0.105,0.164,0.217,0.298,0.339,0.401
				c0.026,0.022,0.063,0.059,0.113,0.11c0.081,0.081,0.251,0.201,0.509,0.358l-0.027,0.175c-0.125-0.042-0.241-0.084-0.35-0.127
				c-0.482-0.181-0.888-0.317-1.213-0.41c-0.07-0.018-0.135-0.035-0.193-0.052l0.373-1.975c0.271-1.705,0.416-2.719,0.436-3.041
				c0.008-0.102,0.021-0.206,0.038-0.315L162.752,104.077z"/>
		</g>
		<g>
			<path d="M80.046,165.47c0.077-0.376,0.255-1.246,0.201-1.588c-0.071-0.431-0.554-0.529-0.93-0.605l0.055-0.267
				c0.563,0.127,1.121,0.266,1.683,0.392c0.604,0.111,1.195,0.207,1.786,0.312l-0.056,0.271c-0.376-0.077-0.857-0.175-1.092,0.193
				c-0.182,0.293-0.359,1.163-0.436,1.539l-0.677,3.316c-0.077,0.376-0.254,1.245-0.201,1.587c0.071,0.431,0.554,0.529,0.931,0.605
				l-0.056,0.271c-0.551-0.124-1.122-0.266-1.684-0.392c-0.591-0.108-1.194-0.207-1.785-0.315l0.056-0.271
				c0.376,0.077,0.857,0.175,1.092-0.193c0.183-0.293,0.361-1.163,0.437-1.539L80.046,165.47z"/>
			<path d="M85.87,166.531c0.035-0.382,0.117-1.267,0.027-1.601c-0.118-0.42-0.608-0.465-0.991-0.5l0.03-0.323l5.939,0.546
				l-0.167,1.805l-0.274-0.025c-0.098-1.419-0.711-1.561-1.979-1.676l-0.86-0.08c-0.18-0.016-0.262-0.036-0.304,0.021
				c-0.028,0.045-0.028,0.178-0.052,0.44l-0.261,2.832c1.63,0.223,1.932-0.437,2.083-1.29l0.274,0.025
				c-0.062,0.537-0.123,1.085-0.196,1.621c-0.022,0.492-0.057,0.994-0.089,1.484l-0.274-0.024c-0.053-1.271-0.681-1.389-1.828-1.493
				l-0.179,1.959c-0.034,0.359-0.086,0.92,0.104,1.227c0.271,0.447,1.01,0.539,1.488,0.57c1.245,0.091,2.073,0.01,2.358-1.397
				l0.274,0.025l-0.284,1.914l-6.501-0.598l0.025-0.274c0.383,0.035,0.872,0.08,1.065-0.313c0.149-0.311,0.23-1.195,0.265-1.578
				L85.87,166.531z"/>
			<path d="M95.039,167.074c-0.02-0.383-0.065-1.27-0.19-1.587c-0.153-0.413-0.656-0.375-1.039-0.355l-0.016-0.295
				c0.492-0.014,1.009-0.017,1.513-0.031c0.646-0.045,1.291-0.102,1.937-0.151c2.527-0.179,4.523,1.304,4.66,3.902
				c0.131,2.54-1.467,3.944-3.938,4.012c-0.707,0.025-1.428,0.038-2.135,0.063c-0.55,0.04-1.088,0.092-1.627,0.133l-0.014-0.276
				c0.384-0.021,0.887-0.046,0.997-0.46c0.092-0.329,0.045-1.215,0.025-1.599L95.039,167.074z M96.456,170.533
				c0.02,0.407,0.002,0.985,0.26,1.319c0.297,0.394,0.91,0.41,1.365,0.387c2.098-0.109,2.426-1.64,2.334-3.413
				c-0.123-2.372-0.891-3.966-3.455-3.833c-0.143,0.007-0.611,0.008-0.713,0.121c-0.068,0.075-0.059,0.279-0.053,0.375
				L96.456,170.533z"/>
			<path d="M107.427,169.201c0.076,0.377,0.244,1.248,0.424,1.544c0.254,0.427,0.791,0.236,1.209,0.18l0.053,0.271
				c-0.615,0.107-1.23,0.203-1.848,0.311c-0.572,0.124-1.135,0.258-1.721,0.384l-0.053-0.271c0.377-0.073,0.871-0.17,0.924-0.595
				c0.043-0.339-0.125-1.21-0.199-1.587l-0.645-3.309c-0.076-0.389-0.246-1.26-0.412-1.557c-0.223-0.386-0.703-0.279-1.08-0.206
				l-0.053-0.275c0.604-0.104,1.197-0.195,1.789-0.298c0.561-0.122,1.111-0.253,1.674-0.372c1.281-0.2,2.813,0.016,3.105,1.511
				c0.332,1.719-1.246,2.454-2.648,2.727c-0.211,0.041-0.748,0.109-0.795,0.118L107.427,169.201z M107.089,167.459
				c0.227-0.032,0.469-0.042,0.693-0.086c1.211-0.235,1.711-0.871,1.465-2.143c-0.223-1.142-0.879-1.626-2.021-1.403
				c-0.143,0.027-0.613,0.119-0.717,0.213c-0.082,0.077-0.045,0.204,0.012,0.499L107.089,167.459z"/>
		</g>
		<path d="M84.56,142.659c-0.346-0.512-1.057-0.586-2-0.018c-0.941,0.566-1.49,2.127-1.486,2.133
			c-0.008,0.01,1.74,0.436,2.707-0.203C84.74,143.948,84.9,143.167,84.56,142.659z"/>
		<path d="M108.018,142.642c-0.943-0.568-1.654-0.494-2,0.018c-0.34,0.508-0.18,1.289,0.779,1.912
			c0.967,0.639,2.717,0.213,2.707,0.203C109.508,144.769,108.961,143.208,108.018,142.642z"/>
		<g>
			<path d="M130.885,77.257c-8.947,0-14.434-4.414-19.736-8.685c-4.826-3.886-9.387-7.558-15.984-7.558
				c-6.599,0-11.161,3.672-15.991,7.559c-5.301,4.27-10.787,8.684-19.73,8.684c-1.047,0-2.137-0.061-3.236-0.182l-2.455-0.27
				l0.607,2.393c11.57,45.586,38.902,59.242,40.062,59.801l0.822,0.396l0.787-0.461c1.232-0.721,30.275-18.139,39.943-59.77
				l0.547-2.354l-2.4,0.264C133.02,77.196,131.932,77.257,130.885,77.257z M95.096,135.474c-4.501-2.576-26.456-16.84-36.812-54.814
				c0.391,0.016,0.775,0.021,1.158,0.021c10.15,0,16.381-5.016,21.877-9.439c4.535-3.65,8.451-6.803,13.845-6.803
				c5.391,0,9.305,3.152,13.838,6.802c5.498,4.425,11.729,9.44,21.883,9.44c0.395,0,0.797-0.008,1.199-0.023
				C123.178,115.483,99.721,132.423,95.096,135.474z"/>
			<path d="M107.184,73.403c-4.764-3.836-7.896-6.186-12.094-6.186c-4.204,0-7.337,2.35-12.101,6.186
				c-4.832,3.891-10.842,8.73-19.744,9.822l-1.363,0.168l0.414,1.311c5.781,18.26,14.244,29.85,20.326,36.354
				c3.586,3.836,8.52,8.82,11.665,10.799l0.641,0.4l0.619-0.432c2.635-1.838,7.092-6.125,12.545-12.07
				c9.104-9.932,15.799-21.723,19.896-35.047l0.4-1.307l-1.357-0.162C118.074,82.171,112.037,77.31,107.184,73.403z
				 M106.408,118.212c-4.848,5.287-8.992,9.332-11.543,11.283c-2.356-1.67-6.067-5.176-10.577-9.996
				c-5.779-6.18-13.768-17.088-19.402-34.205c8.793-1.463,14.721-6.238,19.533-10.112c4.377-3.522,7.234-5.682,10.671-5.682
				c3.432,0,6.287,2.159,10.662,5.682c4.836,3.892,10.799,8.692,19.65,10.132C121.375,97.788,114.99,108.851,106.408,118.212z"/>
			<path d="M84.726,141.739c0.49-0.369,0.523-1.154,0.014-2.057c-0.51-0.891-1.766-1.291-1.77-1.299
				c0.008-0.002-0.453,1.604,0.037,2.555C83.499,141.886,84.245,142.106,84.726,141.739z"/>
			<path d="M90.927,142.089c-0.168,0.012-0.342,0.025-0.514,0.035c-1.221,0.07-1.887-0.813-2.459-1.648
				c-0.074-0.139-0.166-0.279-0.275-0.42c-0.635-0.814-1.951-1.043-1.955-1.053c0.004,0-0.176,1.258,0.193,2.166
				c0.178,0.447,0.428,0.863,0.715,0.893c0.236,0.021,0.477,0.041,0.713,0.057c0.506,0.033,0.541,0.439,0.541,0.439
				s-0.07,0.412-0.596,0.381c-0.246-0.018-0.49-0.037-0.738-0.061c-0.295-0.029-0.637,0.314-0.953,0.701
				c-0.645,0.77-0.898,2.008-0.895,2.01c-0.008,0.014,1.803,0.203,2.688-0.561c0.15-0.129,0.275-0.26,0.381-0.389
				c0.766-0.785,1.447-1.625,2.691-1.695c0.178-0.012,0.357-0.023,0.533-0.039c0.537-0.047,0.545-0.467,0.545-0.465
				C91.542,142.438,91.445,142.042,90.927,142.089z"/>
			<path d="M72.767,137.038c-0.01-0.23-0.102-0.432-0.268-0.598c-0.27-0.271-0.748-0.432-1.436-0.422
				c-1.1,0.01-2.363,1.076-2.363,1.082l0.006,0.002c-0.014,0.008,1.273,1.258,2.422,1.189
				C72.263,138.235,72.796,137.646,72.767,137.038z"/>
			<path d="M75.394,139.017c-0.115-0.605-0.729-0.943-1.813-0.781c-1.086,0.16-2.195,1.385-2.193,1.389
				c-0.014,0.006,1.422,1.07,2.549,0.852C75.052,140.265,75.499,139.612,75.394,139.017z"/>
			<path d="M75.906,138.233c0.586-0.152,0.926-0.861,0.818-1.885c-0.115-1.014-1.107-1.863-1.104-1.875
				c0.004,0.002-1.041,1.303-0.965,2.365C74.738,137.903,75.323,138.388,75.906,138.233z"/>
			<path d="M78.263,140.63c-0.193-0.584-0.85-0.84-1.904-0.535c-1.051,0.301-1.986,1.662-1.982,1.666
				c-0.014,0.012,1.545,0.873,2.633,0.508C78.089,141.915,78.448,141.208,78.263,140.63z"/>
			<path d="M78.663,139.784c0.566-0.227,0.807-0.977,0.564-1.975c-0.246-0.99-1.342-1.701-1.342-1.711
				c0.004,0-0.863,1.428-0.646,2.471C77.46,139.612,78.113,140.013,78.663,139.784z"/>
			<path d="M68.519,129.753c-0.334,1.029,0.029,1.717,0.627,1.809c0.607,0.098,1.193-0.424,1.486-1.42
				c0.285-0.986-0.313-2.191-0.307-2.203C70.331,127.942,68.855,128.728,68.519,129.753z"/>
			<path d="M68.368,132.083c0.127-0.605-0.314-1.172-1.387-1.465c-1.068-0.299-2.572,0.389-2.572,0.393
				c-0.014,0.006,0.912,1.59,2.043,1.842C67.568,133.106,68.24,132.683,68.368,132.083z"/>
			<path d="M67.476,129.683c0.555-0.303,0.732-1.021,0.311-1.955c-0.418-0.914-1.863-1.631-1.869-1.648
				c-0.004-0.014-0.686,1.523-0.207,2.576C66.177,129.698,66.925,129.981,67.476,129.683z"/>
			<path d="M81.618,140.962c0.533-0.301,0.672-1.072,0.293-2.035c-0.379-0.947-1.564-1.508-1.564-1.518
				c0.006,0-0.666,1.527-0.311,2.533C80.396,140.948,81.097,141.263,81.618,140.962z"/>
			<path d="M70.409,134.722c0.049-0.617-0.459-1.113-1.557-1.25c-1.094-0.141-2.49,0.746-2.488,0.754
				c-0.014,0.002,1.104,1.426,2.252,1.516C69.753,135.839,70.361,135.327,70.409,134.722z"/>
			<path d="M72.763,136.153c0.174,0.145,0.391,0.205,0.615,0.178c0.604-0.072,1.033-0.73,1.061-1.76c0.02-1.02-0.855-2-0.852-2.008
				c-0.002,0-0.004-0.006-0.004-0.006c0.004,0.004-1.207,1.154-1.268,2.219C72.277,135.44,72.47,135.913,72.763,136.153z"/>
			<path d="M70.257,132.411c-0.197,1.053,0.252,1.684,0.854,1.688c0.609,0.012,1.123-0.584,1.281-1.605
				c0.156-1.008-0.586-2.105-0.584-2.117C71.814,130.38,70.46,131.356,70.257,132.411z"/>
			<path d="M81.331,141.853c-0.271-0.555-0.959-0.723-1.963-0.281c-1.01,0.439-1.754,1.912-1.752,1.916
				c-0.012,0.01,1.656,0.66,2.688,0.158C81.331,143.151,81.595,142.401,81.331,141.853z"/>
			<path d="M111.209,141.571c-1.004-0.441-1.691-0.273-1.963,0.281c-0.264,0.549,0,1.299,1.027,1.793
				c1.033,0.502,2.699-0.148,2.688-0.158C112.965,143.483,112.219,142.011,111.209,141.571z"/>
			<path d="M121.434,131.562c0.6-0.092,0.961-0.779,0.629-1.809c-0.336-1.025-1.813-1.811-1.809-1.814
				c0.008,0.012-0.59,1.217-0.307,2.203C120.242,131.138,120.828,131.659,121.434,131.562z"/>
			<path d="M113.34,138.569c0.215-1.043-0.652-2.471-0.646-2.471c0,0.01-1.098,0.721-1.342,1.711
				c-0.244,0.998-0.004,1.748,0.563,1.975C112.465,140.013,113.117,139.612,113.34,138.569z"/>
			<path d="M104.026,142.878c-0.246,0.023-0.49,0.043-0.738,0.061c-0.525,0.031-0.596-0.381-0.596-0.381s0.035-0.406,0.539-0.439
				c0.24-0.016,0.48-0.035,0.715-0.057c0.287-0.029,0.537-0.445,0.715-0.893c0.369-0.908,0.189-2.166,0.193-2.166
				c-0.004,0.01-1.318,0.238-1.955,1.053c-0.109,0.141-0.199,0.281-0.275,0.42c-0.572,0.836-1.236,1.719-2.459,1.648
				c-0.17-0.01-0.344-0.023-0.514-0.035c-0.518-0.047-0.617,0.35-0.613,0.352c-0.004-0.002,0.008,0.418,0.543,0.465
				c0.18,0.016,0.355,0.027,0.533,0.039c1.244,0.07,1.924,0.91,2.693,1.695c0.104,0.129,0.229,0.26,0.381,0.389
				c0.883,0.764,2.693,0.574,2.688,0.561c0.002-0.002-0.254-1.24-0.896-2.01C104.662,143.192,104.319,142.849,104.026,142.878z"/>
			<path d="M114.219,140.095c-1.053-0.305-1.711-0.049-1.902,0.535c-0.188,0.578,0.172,1.285,1.252,1.639
				c1.088,0.365,2.65-0.496,2.637-0.508C116.209,141.757,115.272,140.396,114.219,140.095z"/>
			<path d="M107.573,140.938c0.488-0.951,0.027-2.557,0.033-2.555c0,0.008-1.26,0.408-1.768,1.299
				c-0.508,0.902-0.477,1.688,0.014,2.057C106.332,142.106,107.076,141.886,107.573,140.938z"/>
			<path d="M110.543,139.942c0.354-1.006-0.316-2.533-0.313-2.533c0,0.01-1.182,0.57-1.563,1.518
				c-0.381,0.963-0.24,1.734,0.291,2.035C109.481,141.263,110.182,140.948,110.543,139.942z"/>
			<path d="M114.674,138.233c0.58,0.154,1.17-0.33,1.25-1.395c0.08-1.063-0.969-2.363-0.965-2.365
				c0.002,0.012-0.99,0.861-1.105,1.875C113.748,137.372,114.086,138.081,114.674,138.233z"/>
			<path d="M123.598,130.618c-1.07,0.293-1.512,0.859-1.385,1.465c0.127,0.6,0.799,1.023,1.914,0.77
				c1.133-0.252,2.059-1.836,2.045-1.842C126.172,131.007,124.67,130.319,123.598,130.618z"/>
			<path d="M121.727,133.472c-1.096,0.137-1.605,0.633-1.555,1.25c0.049,0.605,0.656,1.117,1.793,1.02
				c1.148-0.09,2.264-1.514,2.252-1.516C124.219,134.218,122.821,133.331,121.727,133.472z"/>
			<path d="M116.996,132.563c0.002,0.008-0.875,0.988-0.854,2.008c0.027,1.029,0.457,1.688,1.061,1.76
				c0.225,0.027,0.439-0.033,0.613-0.178c0.295-0.24,0.488-0.713,0.449-1.377c-0.061-1.064-1.273-2.215-1.268-2.219L116.996,132.563
				z"/>
			<path d="M118.08,136.44c-0.164,0.166-0.256,0.367-0.268,0.598c-0.029,0.607,0.506,1.197,1.643,1.254
				c1.146,0.068,2.434-1.182,2.42-1.189l0.002-0.002c0.004-0.006-1.262-1.072-2.359-1.082
				C118.828,136.009,118.35,136.169,118.08,136.44z"/>
			<path d="M117,138.235c-1.084-0.162-1.701,0.176-1.816,0.781c-0.107,0.596,0.346,1.248,1.459,1.459
				c1.129,0.219,2.561-0.846,2.549-0.852C119.196,139.62,118.086,138.396,117,138.235z"/>
			<path d="M124.871,128.655c0.479-1.053-0.201-2.59-0.209-2.576c-0.004,0.018-1.451,0.734-1.867,1.648
				c-0.422,0.934-0.244,1.652,0.311,1.955C123.655,129.981,124.405,129.698,124.871,128.655z"/>
			<path d="M118.774,130.376c0.002,0.012-0.74,1.109-0.586,2.117c0.16,1.021,0.672,1.617,1.283,1.605
				c0.602-0.004,1.051-0.635,0.854-1.688C120.121,131.356,118.768,130.38,118.774,130.376z"/>
			<path d="M95.312,50.769c2.285-1.982,0.766-3.185-0.024-4.152c-0.09-0.11-0.235-0.115-0.327-0.004
				c-1.529,1.854-1.809,2.275-0.029,4.137C95.029,50.851,95.204,50.86,95.312,50.769z"/>
			<path d="M93.875,50.71c0.268,0-0.312-0.514-0.378-0.613c-0.648-0.938,0.131-1.439-1.332-1.439c-0.363,0-1.938,0.502-1.216,0.936
				C91.718,50.054,92.683,50.71,93.875,50.71z"/>
			<path d="M97.458,50.556c0.653-0.183,1.229-0.541,1.804-0.89c0.386-0.233,0.422-0.362,0.029-0.636
				c-0.332-0.233-0.711-0.373-1.125-0.373c-1.424,0-0.841,0.609-1.25,1.314C96.628,50.457,95.625,51.072,97.458,50.556z"/>
			<path d="M82.408,56.646c2.766-1.743,7.405-6,11.043-3.96c2.305,1.262,0.55,5.294-2.296,4.104
				c-1.758-0.698-0.795-2.602,0.77-1.783c1.123,0.588,1.797-1.114,0.711-1.508c-3.563-1.272-5.068,3.014-2.261,4.259
				c2.192,1.058,3.974,0.001,4.748-1.538c0.555,1.063,1.611,1.882,2.98,1.892c0.966,0.038,2.556-0.366,3.062-1.638
				c0.242-0.576,0.209-1.207,0.01-1.699c-0.948-2.421-4.791-1.582-4.014-0.101c0.203,0.386,0.677,0.587,1.164,0.333
				c1.279-0.67,1.878,0.362,1.661,1.006c-0.134,0.395-0.505,0.623-0.89,0.776c-3.19,1.333-4.896-3.743-1.464-4.412
				c5.866-1.583,10.112,7.115,16.31,5.755c4.57-1.165,2.317-6.635-1.611-5.104c-2.38,0.915-1.141,3.714,1.3,2.813
				c0.29-0.108,0.165-0.548-0.138-0.487c-1.532,0.309-2.482-1.152-0.275-1.563c3.735-0.356,3.42,4.309-1.295,3.753
				c-4.356-0.551-8.216-6.543-13.399-6.239c-1.77,0.107-2.846,0.789-3.392,1.681c-0.264-0.456-0.65-0.859-1.212-1.146
				c-4.275-2.227-9.03,2.31-11.917,4.162c-7.5,4.818-9.799-2.672-4.968-2.212c2.194,0.405,1.259,1.87-0.274,1.563
				c-0.121-0.023-0.244,0.041-0.288,0.161c-0.05,0.132,0.019,0.276,0.149,0.326c2.71,1.005,3.861-2.479,0.529-3.011
				C71.126,52.248,73.402,62.3,82.408,56.646z"/>
			<path d="M59.714,71.558c0.133,0.063,0.271,0.094,0.416,0.094c0.373,0,0.717-0.219,0.879-0.559
				c0.01-0.021,0.172-0.369,0.203-0.428c0.031-0.082,0.238-0.455,0.533-0.826c0.322-0.469,1.151-1.201,2.107-1.689
				c0.141-0.066,0.18-0.09,0.207-0.107c0.049-0.025,0.06-0.031,0.609-0.26c1.178-0.434,2.275-0.496,2.824-0.496
				c0.412,0,0.782,0.033,1.08,0.098l0.521,0.09c0.215,0,0.393-0.158,0.422-0.373c0.006-0.035-0.016-0.063-0.018-0.096l0,0
				c0.044-0.178-0.038-0.354-0.266-0.475c-0.326-0.17-0.635-0.334-0.936-0.584c-2.092-1.626-2.438-4.033-2.154-4.975l0.078-0.35
				c0.053-0.236,0.004-0.473-0.134-0.667c-0.136-0.192-0.349-0.317-0.684-0.354c-0.421,0-0.777,0.317-0.827,0.735
				c-0.105,0.883-0.111,1.143,0.082,2.158c0.414,1.541,1.152,2.679,2.433,3.721l-0.38-0.004c-1.867,0-3.27,0.377-4.838,1.301
				c-1.524,0.902-2.251,2.123-2.574,2.668c-0.141,0.232-0.178,0.518-0.099,0.779C59.281,71.224,59.468,71.44,59.714,71.558z"/>
			<path d="M121.24,67.466c0.006,0,0.467-0.084,0.467-0.084c0.288-0.064,0.659-0.098,1.07-0.098c0.549,0,1.645,0.064,2.814,0.494
				c0.559,0.23,0.568,0.236,0.618,0.264c0.028,0.018,0.07,0.041,0.203,0.104c0.961,0.494,1.789,1.225,2.119,1.705
				c0.288,0.359,0.496,0.732,0.538,0.84c0.016,0.035,0.182,0.379,0.192,0.406c0.159,0.34,0.505,0.555,0.878,0.555
				c0.143,0,0.284-0.029,0.417-0.092c0.247-0.119,0.434-0.336,0.513-0.598c0.08-0.262,0.043-0.547-0.15-0.865
				c-0.276-0.461-1.003-1.682-2.524-2.584c-1.569-0.924-2.967-1.299-4.836-1.299l-0.408,0.006c1.281-1.041,2.046-2.177,2.466-3.74
				c0.189-0.997,0.182-1.257,0.079-2.142c-0.051-0.416-0.399-0.729-0.914-0.729c-0.006,0-0.01,0-0.016,0
				c-0.234,0.028-0.447,0.154-0.583,0.346c-0.14,0.193-0.186,0.432-0.132,0.676l0.082,0.354c0.279,0.928-0.065,3.336-2.167,4.965
				c-0.293,0.244-0.6,0.406-0.991,0.615c-0.165,0.086-0.246,0.26-0.204,0.439c-0.002,0.033-0.022,0.059-0.019,0.094
				C120.785,67.312,120.957,67.466,121.24,67.466z"/>
		</g>
		<g>
			<path d="M89.174,89.89h0.01h0.01c1.115-0.021,2.023-0.944,2.023-2.059c0-0.79-1.009-2.264-1.609-3.072l-0.425-0.57l-0.424,0.571
				c-0.599,0.809-1.604,2.283-1.604,3.071C87.155,88.945,88.061,89.868,89.174,89.89z"/>
			<path d="M83.228,94.195h0.01c1.114-0.021,2.021-0.945,2.021-2.06c0-0.786-1.006-2.262-1.605-3.071l-0.424-0.572l-0.425,0.572
				c-0.6,0.808-1.606,2.28-1.606,3.071c0,1.114,0.906,2.038,2.021,2.06H83.228z"/>
			<path d="M100.643,89.893c1.135,0,2.059-0.925,2.059-2.062c0-0.796-1.024-2.291-1.635-3.111l-0.423-0.568l-0.424,0.567
				c-0.493,0.66-1.639,2.283-1.639,3.112C98.581,88.968,99.506,89.893,100.643,89.893z"/>
			<rect x="81.797" y="95.874" width="2.861" height="10.741"/>
			<rect x="99.181" y="91.57" width="2.921" height="10.74"/>
			<path d="M105.377,108.343c-0.192,2.403-2.231,4.286-4.642,4.286c-2.466,0-4.508-1.928-4.65-4.334
				c0.006-0.118,0.01-0.236,0.01-0.355c0-0.065-0.006-0.132-0.018-0.199v-0.602c0.531,0.251,1.115,0.385,1.708,0.385
				c1.973,0,3.635-1.413,3.951-3.359l0.1-0.613h-2.297l-0.103,0.396c-0.194,0.752-0.874,1.277-1.651,1.277
				c-0.881,0-1.628-0.687-1.701-1.488c0.005-0.092,0.011-0.183,0.011-0.276c0-0.065-0.006-0.132-0.018-0.198V73.709H93.78
				l0.004,29.964c-0.107,0.86-0.843,1.51-1.711,1.51c-0.763,0-1.444-0.514-1.656-1.25l-0.11-0.382h-2.302l0.112,0.622
				c0.344,1.917,2.008,3.31,3.956,3.31c0.593,0,1.177-0.133,1.708-0.383l0.001,1.212c-0.193,2.421-2.247,4.317-4.676,4.317
				c-2.415,0-4.467-1.884-4.671-4.289l-0.041-0.483h-2.296l0.038,0.564c0.251,3.648,3.313,6.507,6.97,6.507
				c1.73,0,3.398-0.656,4.674-1.8v2.371l-1.86,2.78l3.008,3.522l3.01-3.522l-1.859-2.78v-2.369c1.268,1.143,2.93,1.798,4.658,1.798
				c3.658,0,6.706-2.859,6.939-6.51l0.035-0.562h-2.294L105.377,108.343z"/>
			<rect x="105.139" y="95.874" width="2.921" height="10.741"/>
			<rect x="87.755" y="91.57" width="2.861" height="10.74"/>
			<path d="M106.599,94.197c1.136,0,2.061-0.925,2.061-2.062c0-0.83-1.146-2.453-1.638-3.113l-0.423-0.566l-0.424,0.567
				c-0.491,0.659-1.636,2.283-1.636,3.112C104.539,93.272,105.463,94.197,106.599,94.197z"/>
		</g>
	</g>
</g>
<g id="Layer_2">
</g>
</svg>
