<?xml version="1.0" encoding="utf-8"?>
<!-- Generator: Adobe Illustrator 16.0.3, SVG Export Plug-In . SVG Version: 6.00 Build 0)  -->
<!DOCTYPE svg PUBLIC "-//W3C//DTD SVG 1.1//EN" "http://www.w3.org/Graphics/SVG/1.1/DTD/svg11.dtd">
<svg version="1.1" id="Layer_1" xmlns="http://www.w3.org/2000/svg" xmlns:xlink="http://www.w3.org/1999/xlink" x="0px" y="0px"
	 width="190.525px" height="190.451px" viewBox="0 0 190.525 190.451" enable-background="new 0 0 190.525 190.451"
	 xml:space="preserve">
<path d="M95.263,10.226c-46.868,0-85,38.131-85,85.001c0,46.868,38.132,84.999,85,84.999c46.871,0,85-38.131,85-84.999
	C180.263,48.356,142.134,10.226,95.263,10.226z M95.263,179.083c-46.239,0-83.859-37.617-83.859-83.856
	c0-46.241,37.62-83.86,83.859-83.86c46.24,0,83.859,37.619,83.859,83.86C179.122,141.466,141.503,179.083,95.263,179.083z"/>
<path d="M95.263,12.113c-45.827,0-83.111,37.284-83.111,83.113c0,45.827,37.284,83.11,83.111,83.11
	c45.828,0,83.111-37.283,83.111-83.11C178.374,49.397,141.091,12.113,95.263,12.113z M95.263,176.054
	c-44.569,0-80.828-36.258-80.828-80.827c0-44.57,36.259-80.83,80.828-80.83c44.57,0,80.828,36.26,80.828,80.83
	C176.091,139.796,139.833,176.054,95.263,176.054z"/>
<path d="M95.263,31.16c-35.326,0-64.065,28.739-64.065,64.066c0,35.325,28.739,64.063,64.065,64.063s64.066-28.738,64.066-64.063
	C159.329,59.899,130.589,31.16,95.263,31.16z M95.263,158.149c-34.696,0-62.925-28.227-62.925-62.923
	c0-34.697,28.229-62.925,62.925-62.925c34.697,0,62.924,28.228,62.924,62.925C158.187,129.923,129.96,158.149,95.263,158.149z"/>
<path d="M95.263,33.445c-34.065,0-61.78,27.715-61.78,61.781c0,34.065,27.715,61.778,61.78,61.778
	c34.066,0,61.779-27.713,61.779-61.778C157.042,61.16,129.329,33.445,95.263,33.445z M95.263,155.864
	c-33.437,0-60.639-27.201-60.639-60.638c0-33.438,27.202-60.64,60.639-60.64c33.438,0,60.639,27.202,60.639,60.64
	C155.902,128.663,128.7,155.864,95.263,155.864z"/>
<circle cx="61.716" cy="161.465" r="1.667"/>
<circle cx="128.813" cy="161.465" r="1.667"/>
<g>
	<path d="M30.339,119.562c-0.056-0.064-0.101-0.133-0.135-0.209c-0.212-0.506-0.376-0.781-0.492-0.824
		c-0.116-0.043-0.563,0.068-1.342,0.34l-0.533,0.188l-0.558,0.193l-0.608,0.232l-0.363,0.115l-0.395,0.143l-0.467,0.16l-0.205,0.082
		l-0.268,0.082c-0.063,0.018-0.134,0.041-0.215,0.068c-0.213,0.074-0.435,0.162-0.665,0.264c-0.042,0.029-0.083,0.064-0.118,0.104
		c-0.021,0.148,0.006,0.365,0.08,0.652c0.074,0.287,0.104,0.453,0.09,0.5c-0.01,0.033-0.058,0.066-0.142,0.1l-0.147-0.428
		l-0.435-1.357c-0.119-0.346-0.289-0.803-0.508-1.373c0.054-0.018,0.106-0.033,0.155-0.041c0.041,0.061,0.1,0.168,0.174,0.32
		c0.148,0.309,0.251,0.492,0.311,0.551c0.031,0.039,0.072,0.061,0.12,0.066c0.072,0.014,0.192-0.006,0.361-0.055l0.664-0.201
		l2.254-0.803l0.895-0.309c0.283-0.09,0.477-0.152,0.577-0.188c0.379-0.133,0.618-0.225,0.717-0.279
		c0.1-0.055,0.163-0.113,0.193-0.176c0.03-0.061,0.041-0.148,0.031-0.262c-0.017-0.17-0.038-0.299-0.064-0.387
		c-0.059-0.193-0.074-0.322-0.043-0.389c0.04-0.027,0.076-0.045,0.106-0.055l0.042-0.014c0.115,0.305,0.199,0.529,0.25,0.676
		c0.029,0.086,0.075,0.236,0.14,0.457l0.254,0.699l0.407,1.197l0.034,0.096L30.339,119.562z"/>
	<path d="M22.778,117.45l-0.25,0.068c-0.133-0.539-0.243-0.93-0.333-1.174c-0.035-0.096-0.057-0.16-0.066-0.199
		c-0.008-0.031-0.018-0.08-0.029-0.143c0.084-0.176,0.19-0.346,0.317-0.51c0.023-0.035,0.05-0.074,0.081-0.119l0.944-1.4
		l0.148-0.203c0.207-0.285,0.38-0.543,0.519-0.771c0.14-0.227,0.436-0.678,0.889-1.35l1.075-1.588
		c0.105-0.154,0.236-0.354,0.391-0.594l-0.085,0.016c-0.478,0.141-0.731,0.213-0.759,0.221l-0.317,0.055l-0.489,0.133l-0.224,0.055
		c-0.143,0.035-0.58,0.154-1.31,0.361c-0.1,0.029-0.287,0.09-0.562,0.184c-0.273,0.092-0.517,0.164-0.728,0.217
		c-0.383,0.096-0.601,0.172-0.651,0.232c-0.038,0.043-0.048,0.203-0.032,0.479c0.012,0.063,0.025,0.164,0.041,0.299
		c0.031,0.158,0.046,0.254,0.042,0.283c-0.004,0.031-0.026,0.066-0.068,0.105c-0.057,0.008-0.112,0.004-0.168-0.008
		c-0.051-0.088-0.087-0.176-0.109-0.268c-0.025-0.096-0.042-0.219-0.053-0.371c-0.012-0.15-0.032-0.283-0.059-0.396
		c-0.04-0.16-0.112-0.406-0.215-0.738c-0.061-0.188-0.101-0.318-0.12-0.391l-0.021-0.09l0.164-0.029
		c0.038,0.051,0.072,0.123,0.101,0.219c0.029,0.096,0.067,0.184,0.111,0.26c0.07,0.117,0.121,0.184,0.156,0.201
		c0.11,0.061,0.213,0.08,0.306,0.057l1.634-0.463l0.746-0.229l0.221-0.049l1.041-0.289c0.71-0.199,1.331-0.361,1.859-0.492
		c0.115-0.027,0.365-0.082,0.751-0.162l0.08,0.238c-0.109,0.154-0.443,0.682-1.004,1.58c-0.129,0.209-0.221,0.352-0.276,0.428
		l-0.405,0.576c-0.149,0.221-0.243,0.363-0.283,0.43c-0.038,0.064-0.066,0.111-0.085,0.143c-0.337,0.484-0.755,1.109-1.252,1.875
		c-0.134,0.205-0.346,0.512-0.636,0.92c-0.185,0.256-0.296,0.416-0.336,0.48c-0.038,0.064-0.08,0.152-0.124,0.258l0.181-0.027
		c0.678-0.168,1.608-0.416,2.792-0.744l1.717-0.461c0.145-0.041,0.284-0.084,0.416-0.131l-0.003-0.193
		c-0.05-0.338-0.082-0.674-0.1-1.01c0.016-0.029,0.025-0.055,0.032-0.074l0.199-0.043c0.031,0.051,0.052,0.094,0.06,0.129
		c0.009,0.039,0.018,0.086,0.024,0.143c0.058,0.352,0.146,0.773,0.269,1.268c0.085,0.348,0.169,0.652,0.252,0.912l0.023,0.072
		c0.008,0.031,0.015,0.076,0.023,0.137l-0.155,0.045l-0.096-0.121l-0.097-0.236c-0.084-0.211-0.16-0.361-0.223-0.453
		c-0.041-0.061-0.09-0.105-0.15-0.135c-0.249,0.02-0.604,0.088-1.068,0.201c-0.215,0.053-0.608,0.156-1.179,0.309l-0.709,0.174
		l-1.479,0.375c-0.659,0.17-1.042,0.289-1.151,0.357c-0.057,0.035-0.102,0.092-0.135,0.17c-0.061,0.156-0.078,0.344-0.048,0.564
		C22.765,117.241,22.779,117.384,22.778,117.45z"/>
	<path d="M21.157,108.335l-0.833-0.113c-0.108,0-0.179-0.012-0.212-0.033c-0.034-0.02-0.052-0.047-0.057-0.078
		c-0.008-0.064,0.058-0.148,0.2-0.25c0.103-0.074,0.166-0.133,0.191-0.176s0.039-0.102,0.039-0.178l-0.012-0.053l-0.009-0.232
		l-0.147-1.26l-0.2-1.484l-0.057-0.436l-0.124-0.824c-0.004-0.035-0.007-0.08-0.006-0.135c-0.011-0.244-0.02-0.395-0.028-0.451
		c-0.007-0.053-0.029-0.094-0.068-0.121c-0.016-0.01-0.141-0.053-0.375-0.131c-0.106-0.031-0.164-0.082-0.173-0.15
		c-0.003-0.027-0.001-0.064,0.008-0.109c0.068-0.025,0.13-0.043,0.186-0.051l0.212-0.021l0.449-0.064
		c0.11-0.016,0.462-0.051,1.062-0.111c0.038-0.006,0.074-0.002,0.108,0.008c0.03,0.035,0.046,0.066,0.049,0.096
		c0.004,0.027-0.006,0.055-0.03,0.08c-0.023,0.025-0.102,0.061-0.235,0.111c-0.307,0.113-0.522,0.23-0.646,0.355
		c-0.078,0.082-0.128,0.193-0.149,0.33c-0.021,0.139,0,0.459,0.065,0.965c0.054,0.404,0.092,0.705,0.119,0.898
		c0.142-0.01,0.272-0.023,0.39-0.039l3.305-0.475c0.132-0.018,0.381-0.043,0.75-0.076l0.708-0.098l0.394-0.047
		c0.126-0.016,0.211-0.049,0.259-0.098c0.047-0.051,0.084-0.172,0.109-0.367c0.039-0.338,0.06-0.563,0.063-0.674
		c-0.001-0.068,0.006-0.125,0.021-0.172l0.16-0.02l0.08,0.758c0.051,0.416,0.084,0.73,0.099,0.941l0.138,0.771l0.107,0.566
		c0.021,0.16,0.029,0.258,0.027,0.295l-0.023,0.078c-0.082,0.004-0.137-0.006-0.162-0.027c-0.027-0.021-0.055-0.086-0.083-0.189
		c-0.041-0.146-0.102-0.318-0.183-0.512c-0.082-0.195-0.154-0.322-0.22-0.379c-0.036-0.031-0.092-0.049-0.169-0.053
		c-0.16-0.012-0.47,0.012-0.928,0.072l-0.905,0.117l-1.974,0.279l-0.422,0.078l-1.422,0.189c0.029,0.225,0.066,0.51,0.112,0.857
		c0.067,0.512,0.138,0.818,0.214,0.92c0.119,0.162,0.436,0.385,0.949,0.668c0.191,0.09,0.292,0.178,0.303,0.264l-0.004,0.049
		c-0.02,0.018-0.039,0.027-0.056,0.029c-0.043,0.006-0.175-0.006-0.396-0.035C21.445,108.354,21.255,108.337,21.157,108.335z"/>
	<path d="M26.223,100.751c-0.032-0.035-0.051-0.064-0.059-0.09c-0.021-0.061-0.038-0.164-0.052-0.311
		c-0.031-0.346-0.069-0.561-0.114-0.643c-0.073-0.047-0.175-0.07-0.304-0.066l-0.375,0.016l-1.366,0.033l-0.646,0.029l-1.35,0.031
		l-1.531,0.07c-0.366,0.014-0.572,0.041-0.617,0.086c-0.067,0.066-0.101,0.26-0.102,0.578c0,0.137-0.007,0.256-0.022,0.359
		c-0.024,0.049-0.056,0.072-0.095,0.072c-0.028,0.002-0.063-0.006-0.103-0.023c-0.02-0.031-0.029-0.059-0.029-0.084
		c-0.002-0.051-0.001-0.111,0-0.184c0.016-0.213,0.02-0.43,0.014-0.656l-0.021-0.396l-0.004-0.945
		c-0.013-0.473-0.028-0.842-0.047-1.105c-0.018-0.266-0.029-0.443-0.031-0.537c-0.002-0.082,0-0.285,0.005-0.611l-0.026-0.763
		l0.014-0.092l-0.03-0.445l0.026-0.055c0.028-0.019,0.059-0.032,0.089-0.04c0.051-0.002,0.127,0.004,0.233,0.018
		c0.104,0.014,0.168,0.02,0.193,0.02c0.373-0.011,0.688-0.032,0.944-0.064c0.021,0.003,0.036,0.014,0.044,0.031
		c0.001,0.038-0.003,0.073-0.013,0.105c-0.067,0.041-0.185,0.098-0.355,0.168c-0.169,0.071-0.365,0.176-0.588,0.315
		c-0.148,0.094-0.235,0.166-0.262,0.216c-0.027,0.051-0.04,0.156-0.034,0.313c0,0.033,0.002,0.195,0.002,0.49
		c-0.001,0.078-0.001,0.156,0.002,0.23l0.074,1.529l0.004,0.135c0.006,0.197,0.034,0.314,0.085,0.354
		c0.088,0.059,0.341,0.082,0.76,0.07c0.044-0.002,0.472-0.021,1.289-0.063l0.745-0.02c0.01-0.041,0.015-0.084,0.014-0.131
		l-0.003-0.092c-0.001-0.061-0.002-0.15-0.002-0.268c0.003-0.186,0.003-0.313,0.001-0.377c-0.001-0.043-0.004-0.08-0.008-0.111
		c-0.026-0.387-0.047-0.885-0.063-1.492c-0.038-0.189-0.079-0.299-0.123-0.33c-0.066-0.053-0.235-0.088-0.508-0.107
		c-0.273-0.02-0.428-0.074-0.466-0.166c-0.002-0.047,0.006-0.09,0.023-0.13c0.029-0.008,0.055-0.013,0.08-0.013
		c0.025-0.001,0.066,0.002,0.123,0.007c0.133,0.015,0.549,0.013,1.248-0.007c0.185-0.006,0.393-0.021,0.622-0.047
		c0.229-0.026,0.351-0.039,0.369-0.04c0.033-0.001,0.075,0.003,0.129,0.013c0.015,0.028,0.023,0.052,0.024,0.068l0.001,0.038
		c-0.1,0.061-0.254,0.121-0.463,0.179c-0.359,0.104-0.583,0.207-0.672,0.313c-0.088,0.104-0.129,0.271-0.123,0.5
		c0.001,0.051,0.006,0.141,0.015,0.273c0.009,0.133,0.018,0.328,0.024,0.59l0.01,0.35c0.013,0.498,0.034,0.822,0.058,0.977h0.179
		l0.989-0.033l0.625-0.012l0.608-0.021c0.366-0.014,0.576-0.043,0.633-0.088c0.077-0.063,0.113-0.197,0.107-0.4l-0.014-0.328
		c-0.001-0.027-0.002-0.141-0.001-0.336c0-0.193-0.005-0.436-0.013-0.723c-0.019-0.689-0.062-1.148-0.127-1.375
		c-0.065-0.229-0.175-0.414-0.331-0.559c-0.155-0.145-0.484-0.322-0.991-0.534c-0.148-0.063-0.225-0.13-0.226-0.198
		c-0.001-0.032,0.013-0.068,0.04-0.108c0.358,0.095,0.592,0.146,0.703,0.158c0.252,0.032,0.509,0.049,0.77,0.049
		c0.119-0.003,0.218,0.022,0.297,0.077l0.004,0.118l0.058,1.509l0.012,0.676l0.067,1.609l0.017,0.656
		c0.002,0.082,0.006,0.158,0.013,0.23c0.046,0.643,0.073,1.117,0.083,1.422c0.001,0.053-0.006,0.09-0.024,0.109
		c-0.016,0.021-0.043,0.031-0.077,0.033L26.223,100.751z"/>
	<path d="M25.981,93.425c-0.021-0.523-0.042-0.82-0.062-0.89c-0.014-0.048-0.065-0.094-0.151-0.141l-0.059-0.004
		c-0.089-0.007-0.41-0.045-0.966-0.115c-0.156-0.02-0.309-0.034-0.458-0.045l-0.639-0.032l-0.721-0.064l-1.345-0.096l-0.962-0.077
		c-0.406-0.034-0.657-0.022-0.75,0.037s-0.17,0.226-0.229,0.498c-0.057,0.271-0.097,0.422-0.116,0.448
		c-0.021,0.027-0.051,0.04-0.09,0.037c-0.024-0.002-0.056-0.01-0.095-0.023c-0.029-0.038-0.04-0.122-0.034-0.25
		c0.001-0.019,0-0.067-0.003-0.149c-0.003-0.081-0.001-0.156,0.004-0.229l0.033-0.438l0.089-1.41c0.059-0.796,0.16-1.35,0.303-1.661
		c0.141-0.311,0.36-0.55,0.654-0.718c0.295-0.168,0.615-0.239,0.961-0.214c0.658,0.05,1.133,0.432,1.428,1.146
		c0.052,0.121,0.099,0.218,0.14,0.29c0.266-0.103,0.586-0.249,0.963-0.438l1.217-0.592c0.451-0.239,0.733-0.406,0.851-0.502
		c0.116-0.096,0.216-0.215,0.299-0.357c0.083-0.143,0.169-0.387,0.26-0.732c0.037,0,0.065,0,0.086,0.001
		c0.021,0.002,0.048,0.006,0.08,0.012c-0.03,0.49-0.069,1.063-0.119,1.72c-0.003,0.047-0.012,0.111-0.025,0.192
		c-0.505,0.217-1.063,0.476-1.671,0.774l-1.508,0.684c-0.158,0.096-0.259,0.178-0.3,0.244c-0.043,0.067-0.069,0.157-0.078,0.271
		l-0.028,0.456l-0.017,0.149c0.113,0.02,0.347,0.042,0.699,0.068l1.832,0.138c0.068,0.009,0.163,0.002,0.287-0.021
		c0.07-0.023,0.128-0.068,0.175-0.135c0.046-0.066,0.122-0.263,0.229-0.589l0.07-0.216c0.038-0.026,0.088-0.036,0.147-0.031
		c0.012,0.097,0.015,0.165,0.012,0.205c-0.023,0.32-0.045,0.546-0.062,0.679c-0.008,0.066-0.014,0.122-0.018,0.164l-0.044,0.729
		l-0.059,0.711c-0.003,0.032-0.009,0.194-0.021,0.487l-0.029,0.105l-0.056,0.007C26.056,93.505,26.021,93.478,25.981,93.425z
		 M22.628,91.174c0.011-0.096,0.019-0.167,0.022-0.213c0.019-0.258,0.011-0.556-0.024-0.896c-0.029-0.239-0.09-0.436-0.184-0.59
		c-0.095-0.154-0.241-0.288-0.44-0.402c-0.199-0.113-0.41-0.18-0.63-0.195c-0.243-0.019-0.504,0.039-0.787,0.173
		c-0.215,0.103-0.403,0.288-0.564,0.558c-0.16,0.27-0.254,0.602-0.284,0.994c-0.007,0.097-0.011,0.222-0.012,0.377
		c0.185,0.027,0.327,0.045,0.426,0.053l1.002,0.049l0.411,0.036C21.84,91.137,22.195,91.157,22.628,91.174z"/>
	<path d="M20.171,85.498l-0.255-0.042c0.102-0.545,0.163-0.947,0.182-1.206c0.008-0.101,0.015-0.17,0.022-0.209
		c0.006-0.031,0.017-0.079,0.033-0.142c0.151-0.125,0.316-0.235,0.499-0.333c0.037-0.022,0.079-0.047,0.123-0.075l1.439-0.884
		l0.22-0.123c0.306-0.176,0.57-0.339,0.791-0.488c0.222-0.15,0.678-0.438,1.369-0.862l1.636-1c0.159-0.098,0.36-0.224,0.6-0.379
		l-0.083-0.021c-0.493-0.07-0.754-0.107-0.782-0.113l-0.313-0.08l-0.499-0.082l-0.227-0.043c-0.145-0.027-0.593-0.098-1.344-0.213
		c-0.102-0.016-0.297-0.037-0.585-0.066c-0.289-0.027-0.54-0.063-0.755-0.103c-0.387-0.071-0.616-0.091-0.688-0.058
		c-0.051,0.023-0.127,0.164-0.227,0.423c-0.015,0.063-0.044,0.159-0.087,0.289c-0.038,0.157-0.063,0.249-0.078,0.275
		c-0.016,0.026-0.052,0.049-0.106,0.067c-0.054-0.018-0.105-0.043-0.149-0.077c-0.01-0.101-0.007-0.196,0.01-0.288
		c0.018-0.099,0.054-0.219,0.104-0.359c0.052-0.142,0.089-0.271,0.111-0.387c0.031-0.161,0.067-0.415,0.11-0.761
		c0.021-0.196,0.04-0.331,0.054-0.405l0.016-0.09l0.162,0.041c0.014,0.062,0.015,0.142,0.001,0.241
		c-0.013,0.1-0.015,0.193-0.006,0.283c0.015,0.134,0.034,0.215,0.058,0.245c0.077,0.102,0.161,0.162,0.256,0.18l1.679,0.254
		l0.773,0.101l0.221,0.046l1.067,0.167c0.729,0.115,1.361,0.222,1.896,0.322c0.116,0.022,0.366,0.075,0.751,0.162l-0.025,0.25
		c-0.164,0.098-0.686,0.438-1.569,1.024c-0.205,0.137-0.347,0.229-0.428,0.275l-0.608,0.355c-0.226,0.141-0.371,0.232-0.433,0.274
		c-0.063,0.043-0.109,0.075-0.138,0.095c-0.509,0.303-1.147,0.699-1.916,1.189c-0.208,0.132-0.528,0.324-0.96,0.574
		c-0.273,0.156-0.442,0.257-0.504,0.299c-0.063,0.043-0.136,0.104-0.221,0.184l0.176,0.049c0.688,0.129,1.637,0.288,2.851,0.479
		l1.755,0.29c0.148,0.023,0.292,0.042,0.433,0.054l0.076-0.177c0.095-0.329,0.203-0.648,0.328-0.961
		c0.026-0.021,0.045-0.038,0.059-0.055l0.2,0.043c0.007,0.06,0.007,0.106,0.001,0.143c-0.007,0.038-0.02,0.085-0.038,0.14
		c-0.093,0.344-0.187,0.766-0.28,1.265c-0.066,0.353-0.115,0.664-0.147,0.935l-0.008,0.075c-0.006,0.031-0.019,0.076-0.037,0.135
		l-0.16-0.024l-0.037-0.148l0.009-0.255c0.01-0.229,0.004-0.396-0.015-0.506c-0.012-0.071-0.039-0.133-0.081-0.185
		c-0.235-0.084-0.586-0.17-1.055-0.258c-0.218-0.04-0.619-0.11-1.201-0.208l-0.719-0.134l-1.5-0.271
		c-0.669-0.117-1.069-0.169-1.196-0.152c-0.067,0.01-0.131,0.043-0.193,0.101c-0.121,0.115-0.212,0.279-0.278,0.492
		C20.248,85.302,20.2,85.438,20.171,85.498z"/>
	<path d="M28.01,78.504c-0.013-0.056-0.013-0.103-0.001-0.141l0.037-0.118c0.007-0.023,0.018-0.065,0.034-0.124
		c0.058-0.271,0.081-0.434,0.072-0.489c-0.028-0.14-0.109-0.277-0.244-0.413c-0.293-0.285-0.725-0.639-1.296-1.06
		c-0.271-0.2-0.436-0.323-0.492-0.372c-0.179-0.148-0.368-0.297-0.57-0.446l-1.2-0.9c-0.188-0.141-0.618-0.473-1.289-0.995
		c-0.169-0.131-0.398-0.297-0.688-0.499l0.036-0.155l0.061-0.178c0.336-0.057,0.689-0.09,1.059-0.098
		c0.198-0.008,0.494-0.025,0.889-0.057l2.351-0.126l1.272-0.061c0.717-0.019,1.162-0.037,1.332-0.061
		c0.169-0.022,0.288-0.055,0.354-0.099c0.02-0.012,0.06-0.07,0.121-0.174c0.063-0.102,0.106-0.173,0.134-0.213
		c0.095-0.144,0.166-0.242,0.215-0.294c0.042-0.002,0.073,0,0.094,0.007c0.017,0.005,0.041,0.018,0.071,0.039
		c-0.03,0.11-0.051,0.188-0.066,0.232c-0.053,0.174-0.154,0.48-0.302,0.919l-0.17,0.51l-0.184,0.623
		c-0.013,0.041-0.028,0.082-0.045,0.123c-0.017,0.042-0.031,0.078-0.041,0.109l-0.034,0.112c-0.016,0.037-0.036,0.067-0.063,0.094
		c-0.047-0.016-0.09-0.038-0.13-0.068c-0.008-0.048-0.008-0.09-0.001-0.125l0.131-0.549c0.037-0.143,0.051-0.254,0.042-0.336
		c-0.056-0.039-0.098-0.064-0.129-0.074c-0.063-0.02-0.234-0.023-0.519-0.015c-0.191,0.009-0.371,0.012-0.539,0.011
		c-0.168-0.002-0.732,0.022-1.69,0.074c-0.067,0.133-0.117,0.252-0.15,0.358l-0.33,1.101l-0.106,0.322
		c-0.036,0.116-0.067,0.247-0.093,0.393c0.088,0.076,0.152,0.129,0.193,0.156l1.271,0.889c0.478,0.358,0.744,0.545,0.798,0.563
		c0.032,0.009,0.087,0.01,0.168,0.001c0.043-0.065,0.091-0.155,0.146-0.27l0.277-0.679c0.043-0.028,0.076-0.039,0.1-0.031
		c0.019,0.006,0.042,0.019,0.073,0.039c-0.044,0.155-0.08,0.273-0.104,0.355c-0.085,0.274-0.193,0.59-0.322,0.947
		c-0.058,0.165-0.098,0.283-0.121,0.355c-0.021,0.072-0.057,0.198-0.105,0.378c-0.03,0.118-0.052,0.203-0.069,0.254
		c-0.024,0.082-0.062,0.188-0.113,0.313l-0.031-0.01C28.077,78.548,28.047,78.532,28.01,78.504z M25.689,75.103
		c0.134-0.359,0.273-0.773,0.418-1.242c0.082-0.267,0.146-0.504,0.192-0.711c-0.144-0.007-0.281-0.006-0.411,0.003
		c-0.664,0.037-1.03,0.059-1.099,0.063l-1.33,0.1l-0.108,0.023c0.036,0.033,0.188,0.163,0.459,0.39
		c0.466,0.384,0.833,0.67,1.099,0.858c0.12,0.086,0.238,0.174,0.355,0.262c0.117,0.089,0.201,0.147,0.25,0.176
		c0.049,0.028,0.098,0.063,0.145,0.104L25.689,75.103z"/>
	<path d="M24.792,69.136l-0.662-0.518c-0.093-0.056-0.149-0.101-0.167-0.136c-0.019-0.034-0.021-0.066-0.009-0.097
		c0.025-0.06,0.124-0.097,0.299-0.113c0.125-0.013,0.21-0.031,0.254-0.056c0.044-0.024,0.084-0.069,0.124-0.135l0.015-0.051
		l0.11-0.205l0.507-1.161l0.578-1.382l0.171-0.406l0.31-0.773c0.014-0.033,0.034-0.073,0.062-0.119
		c0.115-0.217,0.183-0.351,0.206-0.403c0.02-0.05,0.021-0.096,0-0.14c-0.008-0.016-0.094-0.115-0.257-0.301
		c-0.075-0.082-0.1-0.154-0.073-0.217c0.011-0.027,0.032-0.057,0.062-0.092c0.072,0.012,0.134,0.028,0.186,0.051l0.195,0.088
		l0.419,0.171c0.101,0.043,0.425,0.189,0.972,0.439c0.037,0.016,0.067,0.036,0.089,0.062c0.008,0.046,0.006,0.082-0.005,0.108
		s-0.032,0.044-0.066,0.054c-0.033,0.009-0.12,0.002-0.259-0.022c-0.323-0.058-0.568-0.064-0.737-0.02
		c-0.109,0.031-0.208,0.102-0.296,0.21c-0.089,0.108-0.232,0.396-0.43,0.865c-0.158,0.376-0.276,0.655-0.353,0.836
		c0.129,0.063,0.249,0.117,0.357,0.163l3.093,1.259c0.122,0.052,0.351,0.155,0.685,0.313l0.66,0.273l0.364,0.159
		c0.117,0.049,0.207,0.063,0.273,0.046c0.067-0.02,0.16-0.105,0.28-0.262c0.205-0.271,0.336-0.455,0.396-0.55
		c0.033-0.06,0.066-0.105,0.104-0.137l0.148,0.063l-0.314,0.695c-0.166,0.385-0.296,0.672-0.39,0.862l-0.271,0.736l-0.194,0.542
		c-0.062,0.148-0.104,0.237-0.124,0.269l-0.06,0.057c-0.073-0.039-0.116-0.074-0.127-0.106c-0.011-0.032-0.002-0.101,0.025-0.205
		c0.039-0.147,0.073-0.325,0.101-0.535c0.028-0.209,0.029-0.354,0.001-0.437c-0.016-0.046-0.056-0.09-0.119-0.133
		c-0.133-0.091-0.412-0.226-0.837-0.405l-0.841-0.355l-1.845-0.755l-0.404-0.146l-1.324-0.554c-0.087,0.208-0.2,0.474-0.337,0.796
		c-0.2,0.476-0.292,0.777-0.277,0.903c0.021,0.199,0.182,0.551,0.481,1.055c0.119,0.175,0.161,0.301,0.127,0.38l-0.029,0.04
		c-0.024,0.006-0.045,0.005-0.062-0.003c-0.04-0.016-0.148-0.093-0.322-0.229C25.03,69.299,24.875,69.187,24.792,69.136z"/>
	<path d="M32.985,65.096c0.007-0.084,0.027-0.165,0.059-0.241c0.221-0.503,0.307-0.812,0.259-0.925
		c-0.048-0.113-0.437-0.36-1.169-0.74l-0.504-0.255l-0.525-0.272l-0.586-0.28l-0.334-0.187l-0.375-0.188L29.37,61.78l-0.2-0.092
		l-0.244-0.138c-0.056-0.033-0.121-0.069-0.198-0.109c-0.2-0.104-0.417-0.204-0.649-0.301c-0.051-0.01-0.103-0.015-0.157-0.015
		c-0.121,0.087-0.26,0.256-0.417,0.508c-0.156,0.25-0.258,0.388-0.3,0.409c-0.033,0.016-0.09,0.004-0.17-0.034l0.208-0.401
		l0.685-1.25c0.169-0.325,0.383-0.763,0.646-1.313c0.05,0.026,0.096,0.055,0.138,0.084c-0.017,0.071-0.055,0.187-0.114,0.346
		c-0.122,0.321-0.185,0.521-0.187,0.605c-0.005,0.05,0.006,0.094,0.035,0.133c0.04,0.062,0.138,0.136,0.289,0.224l0.603,0.343
		l2.133,1.083l0.84,0.437c0.261,0.143,0.438,0.239,0.535,0.289c0.355,0.185,0.588,0.294,0.696,0.327
		c0.107,0.034,0.193,0.04,0.258,0.021c0.065-0.021,0.136-0.074,0.212-0.159c0.111-0.128,0.19-0.232,0.237-0.313
		c0.098-0.175,0.182-0.274,0.251-0.299c0.046,0.012,0.083,0.025,0.112,0.04l0.038,0.02c-0.141,0.295-0.248,0.511-0.317,0.647
		c-0.042,0.079-0.121,0.219-0.236,0.418l-0.332,0.663l-0.587,1.12l-0.048,0.09L32.985,65.096z"/>
	<path d="M32.142,59.542c-0.307-0.197-0.557-0.409-0.749-0.638c-0.192-0.228-0.373-0.519-0.54-0.873
		c-0.168-0.354-0.267-0.716-0.297-1.084c-0.029-0.368,0.024-0.816,0.159-1.347c0.098-0.371,0.299-0.792,0.601-1.262
		c0.204-0.316,0.444-0.599,0.722-0.848c0.279-0.248,0.573-0.448,0.883-0.599c0.308-0.15,0.699-0.248,1.171-0.295
		c0.328-0.032,0.645-0.012,0.95,0.062c0.402,0.096,0.778,0.257,1.128,0.48c0.397,0.256,0.703,0.506,0.916,0.752
		c0.213,0.244,0.39,0.539,0.53,0.885c0.108,0.27,0.181,0.659,0.22,1.169c0.027,0.342-0.015,0.717-0.125,1.125
		c-0.113,0.409-0.295,0.812-0.548,1.206c-0.257,0.401-0.534,0.728-0.828,0.981c-0.295,0.253-0.575,0.441-0.844,0.565
		c-0.269,0.123-0.606,0.211-1.01,0.265c-0.404,0.053-0.801,0.035-1.19-0.053C32.898,59.946,32.516,59.782,32.142,59.542z
		 M36.968,58.209c0.163-0.253,0.296-0.539,0.4-0.856c0.105-0.318,0.143-0.636,0.113-0.952c-0.028-0.316-0.109-0.602-0.242-0.854
		c-0.134-0.254-0.341-0.522-0.623-0.806c-0.283-0.283-0.588-0.529-0.916-0.741c-0.411-0.263-0.854-0.462-1.333-0.6
		c-0.364-0.102-0.733-0.124-1.108-0.066c-0.376,0.057-0.725,0.192-1.047,0.407c-0.323,0.214-0.592,0.489-0.809,0.827
		c-0.176,0.273-0.303,0.571-0.381,0.892c-0.079,0.32-0.101,0.609-0.069,0.868c0.031,0.259,0.129,0.543,0.294,0.853
		c0.165,0.311,0.378,0.603,0.641,0.877c0.261,0.274,0.511,0.488,0.749,0.642c0.25,0.16,0.558,0.305,0.922,0.433
		c0.365,0.128,0.707,0.2,1.022,0.219c0.317,0.018,0.625-0.012,0.928-0.088c0.303-0.076,0.578-0.203,0.825-0.38
		C36.583,58.705,36.795,58.481,36.968,58.209z"/>
	<path d="M34.444,50.285l-0.201-0.16c0.355-0.427,0.604-0.748,0.747-0.965c0.057-0.084,0.096-0.141,0.122-0.171
		c0.021-0.025,0.053-0.062,0.098-0.108c0.192-0.035,0.392-0.051,0.598-0.047c0.043-0.002,0.091-0.004,0.145-0.005l1.687-0.07
		l0.251-0.001c0.354-0.004,0.662-0.018,0.929-0.04c0.266-0.023,0.805-0.052,1.615-0.085l1.915-0.075
		c0.188-0.007,0.424-0.02,0.71-0.038l-0.063-0.06c-0.396-0.302-0.604-0.462-0.627-0.479l-0.234-0.224l-0.395-0.314l-0.177-0.148
		c-0.113-0.094-0.47-0.374-1.069-0.84c-0.081-0.064-0.242-0.179-0.479-0.344c-0.237-0.165-0.44-0.317-0.607-0.458
		c-0.304-0.251-0.494-0.38-0.573-0.386c-0.057-0.005-0.191,0.081-0.404,0.258c-0.043,0.048-0.117,0.117-0.217,0.211
		c-0.109,0.119-0.177,0.186-0.204,0.201c-0.026,0.016-0.068,0.018-0.125,0.008c-0.039-0.042-0.07-0.089-0.092-0.141
		c0.039-0.093,0.089-0.175,0.149-0.246c0.064-0.077,0.153-0.164,0.268-0.263c0.114-0.098,0.209-0.192,0.284-0.283
		c0.106-0.127,0.262-0.33,0.466-0.611c0.117-0.16,0.198-0.27,0.246-0.327l0.059-0.07l0.12,0.115
		c-0.018,0.061-0.055,0.13-0.116,0.211c-0.06,0.08-0.107,0.161-0.144,0.243c-0.052,0.125-0.075,0.206-0.069,0.243
		c0.017,0.125,0.063,0.22,0.136,0.281l1.341,1.041l0.626,0.465l0.17,0.148l0.851,0.666c0.581,0.456,1.08,0.857,1.498,1.206
		c0.09,0.075,0.283,0.245,0.577,0.508l-0.144,0.206c-0.191,0.005-0.813,0.048-1.869,0.129c-0.245,0.021-0.414,0.03-0.509,0.031
		l-0.703,0.016c-0.266,0.011-0.438,0.021-0.513,0.027s-0.131,0.012-0.167,0.016c-0.59,0.016-1.341,0.05-2.251,0.103
		c-0.246,0.015-0.618,0.025-1.118,0.033c-0.316,0.003-0.511,0.009-0.587,0.016c-0.075,0.007-0.169,0.024-0.28,0.053l0.129,0.129
		c0.537,0.446,1.288,1.05,2.255,1.808l1.391,1.109c0.117,0.093,0.234,0.18,0.352,0.258l0.153-0.117
		c0.242-0.241,0.494-0.467,0.753-0.679c0.034-0.006,0.059-0.012,0.08-0.019l0.153,0.135c-0.022,0.055-0.046,0.096-0.068,0.124
		c-0.026,0.03-0.06,0.065-0.102,0.104c-0.249,0.254-0.537,0.576-0.862,0.967c-0.229,0.275-0.423,0.523-0.584,0.744l-0.043,0.062
		c-0.02,0.024-0.053,0.058-0.098,0.101l-0.127-0.1l0.041-0.148l0.132-0.218c0.12-0.194,0.198-0.344,0.234-0.449
		c0.024-0.067,0.031-0.134,0.02-0.199c-0.166-0.189-0.43-0.436-0.796-0.74c-0.171-0.142-0.487-0.397-0.947-0.768l-0.561-0.468
		l-1.18-0.968c-0.526-0.43-0.85-0.669-0.968-0.716c-0.064-0.025-0.136-0.027-0.219-0.008c-0.16,0.043-0.321,0.141-0.481,0.295
		C34.606,50.151,34.499,50.247,34.444,50.285z"/>
	<path d="M44.702,48.003c0.017-0.056,0.04-0.097,0.068-0.124l0.089-0.085c0.019-0.018,0.049-0.048,0.091-0.093
		c0.182-0.208,0.282-0.339,0.302-0.392c0.044-0.136,0.04-0.295-0.012-0.479c-0.116-0.393-0.321-0.912-0.614-1.557
		c-0.14-0.308-0.223-0.496-0.25-0.565c-0.083-0.217-0.176-0.439-0.279-0.668l-0.609-1.37c-0.096-0.216-0.309-0.715-0.639-1.498
		c-0.084-0.197-0.204-0.454-0.358-0.772l0.108-0.116l0.14-0.126c0.321,0.114,0.645,0.258,0.974,0.431
		c0.174,0.09,0.441,0.219,0.803,0.385l2.113,1.036l1.141,0.568c0.635,0.334,1.032,0.532,1.192,0.597
		c0.159,0.063,0.277,0.092,0.356,0.086c0.023-0.002,0.086-0.032,0.19-0.092c0.104-0.06,0.178-0.1,0.222-0.122
		c0.152-0.079,0.262-0.13,0.331-0.151c0.037,0.019,0.064,0.036,0.079,0.051c0.011,0.014,0.026,0.036,0.044,0.07
		c-0.081,0.081-0.138,0.138-0.172,0.17c-0.132,0.126-0.368,0.345-0.711,0.655l-0.397,0.361l-0.464,0.454
		c-0.031,0.03-0.064,0.059-0.099,0.087c-0.036,0.027-0.065,0.054-0.088,0.075L48.164,44.9c-0.032,0.024-0.064,0.042-0.101,0.052
		c-0.034-0.037-0.061-0.078-0.08-0.125c0.017-0.045,0.036-0.08,0.06-0.108l0.382-0.416c0.101-0.106,0.168-0.196,0.2-0.272
		c-0.028-0.062-0.054-0.104-0.077-0.127c-0.043-0.047-0.192-0.136-0.446-0.266c-0.171-0.086-0.328-0.171-0.475-0.254
		c-0.146-0.084-0.65-0.337-1.512-0.76c-0.124,0.083-0.226,0.163-0.306,0.239l-0.824,0.8l-0.25,0.23
		c-0.088,0.083-0.179,0.183-0.273,0.297c0.041,0.11,0.072,0.187,0.093,0.23l0.676,1.396c0.243,0.546,0.384,0.839,0.423,0.881
		c0.022,0.023,0.071,0.051,0.146,0.083c0.069-0.036,0.155-0.091,0.257-0.164l0.574-0.457c0.051-0.004,0.084,0.003,0.102,0.021
		c0.013,0.013,0.027,0.035,0.045,0.069c-0.115,0.114-0.203,0.2-0.265,0.259c-0.208,0.198-0.456,0.421-0.743,0.67
		c-0.131,0.116-0.226,0.199-0.279,0.251c-0.055,0.053-0.146,0.146-0.276,0.279c-0.085,0.089-0.146,0.151-0.184,0.188
		c-0.063,0.06-0.146,0.132-0.252,0.218l-0.023-0.023C44.741,48.074,44.722,48.043,44.702,48.003z M44.337,43.902
		c0.292-0.249,0.616-0.542,0.971-0.88c0.202-0.193,0.374-0.369,0.515-0.527c-0.123-0.076-0.242-0.143-0.36-0.199
		c-0.597-0.29-0.927-0.45-0.99-0.48l-1.208-0.561l-0.106-0.033c0.014,0.046,0.084,0.233,0.21,0.563
		c0.219,0.563,0.399,0.991,0.542,1.286c0.062,0.133,0.123,0.268,0.181,0.401c0.058,0.134,0.103,0.226,0.131,0.274
		c0.03,0.049,0.056,0.104,0.077,0.162L44.337,43.902z"/>
	<path d="M50.388,42.921c-0.03-0.044-0.049-0.091-0.056-0.141c0.175-0.231,0.358-0.438,0.552-0.62
		c0.131-0.119,0.195-0.219,0.195-0.301c-0.001-0.059-0.089-0.207-0.266-0.447l-0.842-1.144l-0.595-0.756l-0.768-0.996l-0.204-0.263
		c-0.461-0.599-0.753-0.969-0.876-1.109c-0.025-0.026-0.066-0.057-0.126-0.093c-0.1,0.024-0.181,0.05-0.239,0.076
		c-0.059,0.027-0.313,0.159-0.763,0.396c-0.026-0.029-0.045-0.052-0.056-0.065c-0.013-0.017-0.03-0.041-0.049-0.07
		c0.054-0.043,0.144-0.107,0.271-0.196l0.665-0.478l0.38-0.282l0.106-0.09c0.015-0.011,0.058-0.04,0.13-0.087
		c0.167-0.131,0.262-0.207,0.285-0.229l0.321-0.289c0.229-0.179,0.394-0.3,0.493-0.364c0.037,0.054,0.07,0.116,0.1,0.188
		c-0.027,0.029-0.168,0.152-0.424,0.366c-0.255,0.214-0.394,0.349-0.416,0.402c-0.036,0.087,0.02,0.226,0.167,0.414
		c0.035,0.046,0.104,0.14,0.207,0.283l0.197,0.254l0.614,0.781l0.208,0.267l1.1,1.396l0.918,1.205l0.208,0.26
		c0.066,0.085,0.121,0.127,0.165,0.125c0.072-0.053,0.282-0.212,0.629-0.477l0.288-0.225l0.715-0.596
		c0.188-0.155,0.31-0.28,0.365-0.377c0.057-0.097,0.121-0.299,0.19-0.606c0.035-0.192,0.045-0.367,0.027-0.524
		c-0.003-0.034-0.006-0.087-0.008-0.158c-0.003-0.115-0.045-0.318-0.126-0.609l0.14-0.108c0.062,0.115,0.119,0.225,0.168,0.33
		c0.229,0.464,0.431,0.84,0.605,1.129c0.039,0.062,0.073,0.117,0.105,0.17l-1.621,1.187c-1.364,1.061-2.161,1.702-2.396,1.925
		c-0.075,0.067-0.156,0.135-0.245,0.203L50.388,42.921z"/>
	<path d="M58.054,37.327l-0.063-0.116c0.049-0.072,0.144-0.168,0.287-0.287c0.144-0.118,0.237-0.209,0.282-0.271
		c0.044-0.061,0.074-0.125,0.089-0.191c-0.052-0.152-0.182-0.406-0.39-0.763l-2.109-3.611l-0.336-0.606
		c-0.072-0.124-0.146-0.195-0.221-0.214s-0.226,0.013-0.452,0.094c-0.227,0.081-0.367,0.119-0.417,0.116
		c-0.052-0.003-0.086-0.019-0.102-0.047c-0.009-0.016-0.016-0.038-0.021-0.068c0.026-0.048,0.059-0.085,0.103-0.11
		c0.047-0.026,0.143-0.078,0.288-0.156l0.13-0.075c0.044-0.025,0.164-0.1,0.361-0.224l0.645-0.376l1.317-0.802l1.377-0.878
		l0.125-0.074l0.197-0.12c0.055-0.033,0.114-0.046,0.174-0.041c0.049,0.039,0.08,0.068,0.096,0.088l0.104,0.188l0.527,0.806
		c0.02,0.034,0.042,0.079,0.066,0.136c-0.037,0.05-0.077,0.087-0.115,0.11c-0.029,0.017-0.056,0.021-0.083,0.011
		c-0.043-0.02-0.098-0.076-0.16-0.168c-0.089-0.126-0.238-0.27-0.444-0.432c-0.098-0.075-0.205-0.104-0.319-0.088
		c-0.226,0.038-0.558,0.185-0.997,0.44c-0.208,0.12-0.396,0.238-0.57,0.354c-0.172,0.115-0.279,0.185-0.319,0.208l-0.364,0.206
		c-0.148,0.087-0.257,0.18-0.328,0.278c-0.048,0.066-0.042,0.151,0.021,0.257l0.04,0.069c0.101,0.152,0.208,0.324,0.32,0.517
		l0.723,1.27c0.073,0.123,0.15,0.235,0.233,0.336l0.14-0.069l0.251-0.165l0.885-0.517c0.354-0.208,0.587-0.376,0.697-0.507
		c0.071-0.088,0.112-0.18,0.119-0.274c0.002-0.031-0.03-0.176-0.099-0.435l-0.164-0.42c0.026-0.04,0.049-0.065,0.067-0.076
		c0.016-0.01,0.044-0.016,0.088-0.021c0.054,0.063,0.125,0.168,0.213,0.312L61,32.594c-0.04,0.053-0.073,0.087-0.101,0.104
		l-0.057,0.02c-0.229-0.28-0.449-0.478-0.657-0.593c-0.072-0.04-0.135-0.051-0.188-0.033c-0.091,0.028-0.463,0.234-1.119,0.617
		c-0.205,0.119-0.345,0.203-0.419,0.251c-0.18,0.117-0.289,0.188-0.327,0.209l-0.046,0.027c-0.093,0.054-0.151,0.105-0.177,0.153
		c0.009,0.045,0.019,0.074,0.027,0.09l0.188,0.319c0.021,0.038,0.113,0.191,0.275,0.462l0.887,1.54
		c0.025,0.043,0.07,0.091,0.132,0.141c0.096,0.015,0.234-0.02,0.416-0.103c0.182-0.083,0.367-0.137,0.557-0.16
		c0.11-0.011,0.18,0.009,0.209,0.059c0.012,0.021,0.018,0.046,0.017,0.071c-0.002,0.025-0.016,0.053-0.041,0.079
		c-0.284,0.096-0.649,0.274-1.098,0.535c-0.236,0.14-0.476,0.308-0.716,0.506c-0.166,0.134-0.366,0.27-0.601,0.407L58.054,37.327z"
		/>
	<path d="M63.218,34.259c-0.019-0.05-0.027-0.1-0.023-0.149c0.222-0.187,0.446-0.347,0.676-0.481
		c0.153-0.088,0.239-0.171,0.257-0.251c0.013-0.057-0.042-0.222-0.161-0.494l-0.566-1.302l-0.413-0.87l-0.526-1.142l-0.142-0.302
		c-0.318-0.687-0.521-1.112-0.609-1.276c-0.018-0.03-0.053-0.07-0.102-0.118c-0.104,0.001-0.187,0.008-0.25,0.021
		c-0.063,0.014-0.34,0.086-0.831,0.217c-0.021-0.034-0.033-0.06-0.041-0.076c-0.009-0.02-0.02-0.046-0.032-0.08
		c0.062-0.029,0.164-0.072,0.308-0.13l0.753-0.318l0.434-0.19l0.124-0.064c0.017-0.008,0.065-0.026,0.146-0.057
		c0.192-0.089,0.302-0.143,0.329-0.16l0.377-0.211c0.264-0.122,0.45-0.205,0.562-0.244c0.024,0.059,0.042,0.128,0.056,0.205
		c-0.033,0.023-0.197,0.111-0.494,0.264c-0.296,0.152-0.461,0.252-0.495,0.299c-0.056,0.077-0.031,0.225,0.07,0.441
		c0.024,0.052,0.069,0.159,0.138,0.321l0.136,0.292l0.425,0.897l0.144,0.307l0.762,1.606l0.626,1.379l0.146,0.3
		c0.045,0.097,0.089,0.149,0.133,0.157c0.082-0.035,0.322-0.144,0.72-0.324l0.33-0.155l0.829-0.423
		c0.217-0.108,0.364-0.205,0.441-0.285c0.076-0.082,0.183-0.266,0.319-0.55c0.078-0.179,0.126-0.347,0.143-0.506
		c0.004-0.033,0.014-0.085,0.028-0.155c0.022-0.113,0.025-0.32,0.012-0.622l0.16-0.074c0.036,0.125,0.066,0.245,0.092,0.36
		c0.12,0.501,0.232,0.913,0.339,1.234c0.024,0.067,0.046,0.131,0.065,0.189l-1.845,0.797c-1.564,0.729-2.486,1.178-2.764,1.344
		c-0.087,0.049-0.183,0.097-0.283,0.144L63.218,34.259z"/>
	<path d="M68.214,28.116c-0.118-0.346-0.182-0.667-0.191-0.965c-0.009-0.298,0.032-0.638,0.121-1.02
		c0.089-0.383,0.236-0.727,0.442-1.033c0.205-0.307,0.526-0.625,0.962-0.955c0.308-0.23,0.726-0.436,1.255-0.616
		c0.355-0.121,0.719-0.193,1.092-0.214c0.374-0.021,0.728,0.006,1.064,0.08c0.335,0.074,0.702,0.24,1.1,0.498
		c0.276,0.178,0.511,0.391,0.706,0.639c0.255,0.325,0.45,0.685,0.584,1.077c0.152,0.448,0.236,0.833,0.25,1.158
		c0.014,0.324-0.032,0.665-0.136,1.022c-0.083,0.278-0.268,0.629-0.555,1.052c-0.19,0.284-0.456,0.553-0.799,0.804
		c-0.341,0.25-0.734,0.451-1.179,0.604c-0.45,0.154-0.869,0.238-1.258,0.254c-0.389,0.015-0.726-0.013-1.014-0.083
		c-0.287-0.071-0.605-0.211-0.955-0.421s-0.649-0.471-0.899-0.782S68.357,28.537,68.214,28.116z M72.82,30.075
		c0.285-0.098,0.566-0.238,0.846-0.423c0.279-0.185,0.506-0.409,0.68-0.675c0.174-0.266,0.289-0.539,0.342-0.82
		c0.053-0.281,0.059-0.621,0.013-1.018c-0.044-0.396-0.13-0.78-0.256-1.15c-0.158-0.46-0.381-0.893-0.67-1.298
		c-0.222-0.306-0.497-0.554-0.827-0.742c-0.329-0.188-0.686-0.299-1.071-0.331c-0.387-0.034-0.769,0.015-1.148,0.145
		c-0.309,0.105-0.594,0.259-0.854,0.461c-0.26,0.202-0.458,0.415-0.594,0.637c-0.136,0.223-0.235,0.506-0.299,0.852
		c-0.064,0.345-0.079,0.707-0.044,1.085c0.034,0.378,0.098,0.701,0.189,0.969c0.096,0.28,0.246,0.585,0.452,0.912
		c0.206,0.326,0.428,0.596,0.665,0.807c0.237,0.21,0.497,0.38,0.781,0.508c0.283,0.128,0.578,0.2,0.881,0.216
		C72.21,30.222,72.515,30.178,72.82,30.075z"/>
	<path d="M77.294,28.559c0.497-0.17,0.774-0.275,0.835-0.314c0.041-0.027,0.072-0.089,0.092-0.185l-0.014-0.058
		c-0.019-0.088-0.074-0.407-0.166-0.958c-0.027-0.155-0.056-0.307-0.089-0.453l-0.151-0.62l-0.144-0.71l-0.294-1.315l-0.201-0.944
		c-0.084-0.399-0.167-0.636-0.25-0.709c-0.085-0.073-0.265-0.099-0.543-0.076c-0.277,0.022-0.432,0.027-0.463,0.017
		c-0.033-0.012-0.052-0.036-0.062-0.075c-0.005-0.024-0.006-0.057-0.004-0.098c0.028-0.039,0.105-0.074,0.23-0.105
		c0.016-0.004,0.064-0.019,0.142-0.045c0.077-0.025,0.149-0.046,0.22-0.062l0.431-0.094l1.376-0.318
		c0.78-0.171,1.339-0.232,1.678-0.186s0.63,0.188,0.875,0.421c0.246,0.234,0.406,0.521,0.479,0.86
		c0.141,0.644-0.089,1.209-0.688,1.695c-0.103,0.085-0.182,0.157-0.239,0.217c0.175,0.227,0.407,0.492,0.697,0.799l0.915,0.996
		c0.358,0.362,0.6,0.586,0.725,0.671c0.124,0.085,0.267,0.146,0.428,0.185c0.161,0.039,0.419,0.051,0.776,0.039
		c0.011,0.034,0.019,0.063,0.024,0.083c0.003,0.021,0.007,0.048,0.011,0.08c-0.478,0.112-1.039,0.238-1.683,0.379
		c-0.045,0.01-0.108,0.021-0.19,0.031c-0.353-0.423-0.759-0.882-1.219-1.38l-1.087-1.249c-0.137-0.124-0.244-0.197-0.321-0.219
		c-0.076-0.022-0.17-0.021-0.282,0.004l-0.444,0.103l-0.148,0.027c0.014,0.114,0.058,0.345,0.134,0.69l0.393,1.794
		c0.011,0.068,0.046,0.158,0.103,0.27c0.043,0.061,0.102,0.103,0.179,0.128c0.077,0.026,0.288,0.043,0.63,0.053l0.227,0.005
		c0.036,0.029,0.06,0.073,0.073,0.133c-0.09,0.038-0.155,0.062-0.193,0.07c-0.314,0.068-0.537,0.113-0.667,0.134
		c-0.067,0.012-0.122,0.021-0.164,0.031l-0.709,0.166l-0.698,0.147c-0.032,0.007-0.19,0.047-0.473,0.12l-0.11,0.002l-0.021-0.051
		C77.24,28.654,77.256,28.612,77.294,28.559z M78.49,24.702c0.096-0.018,0.166-0.031,0.21-0.041
		c0.252-0.055,0.537-0.147,0.853-0.279c0.22-0.096,0.392-0.211,0.513-0.346c0.12-0.134,0.207-0.313,0.259-0.537
		c0.052-0.223,0.054-0.443,0.006-0.66c-0.052-0.237-0.182-0.472-0.39-0.704c-0.16-0.178-0.392-0.304-0.696-0.38
		c-0.305-0.076-0.649-0.072-1.034,0.012c-0.094,0.021-0.216,0.053-0.363,0.096c0.024,0.186,0.048,0.326,0.07,0.424l0.241,0.974
		l0.083,0.405C78.301,23.936,78.384,24.282,78.49,24.702z"/>
	<path d="M83.701,27.132c0.047-0.034,0.09-0.053,0.129-0.058l0.123-0.014c0.024-0.003,0.067-0.01,0.127-0.02
		c0.271-0.055,0.43-0.098,0.478-0.129c0.117-0.081,0.21-0.21,0.281-0.388c0.145-0.383,0.296-0.92,0.454-1.611
		c0.076-0.329,0.123-0.529,0.145-0.6c0.064-0.224,0.125-0.457,0.182-0.701l0.346-1.46c0.055-0.229,0.187-0.755,0.398-1.579
		c0.053-0.207,0.113-0.484,0.184-0.83l0.156-0.028l0.187-0.016c0.188,0.286,0.357,0.597,0.514,0.933
		c0.085,0.178,0.22,0.442,0.406,0.792l1.054,2.104l0.563,1.143c0.303,0.651,0.499,1.05,0.588,1.197
		c0.087,0.146,0.165,0.242,0.231,0.284c0.019,0.013,0.088,0.026,0.207,0.043c0.119,0.016,0.202,0.027,0.25,0.037
		c0.169,0.028,0.288,0.054,0.354,0.079c0.02,0.038,0.03,0.067,0.033,0.089c0.002,0.017,0,0.045-0.007,0.081
		c-0.113,0.017-0.194,0.027-0.241,0.032c-0.18,0.021-0.502,0.051-0.961,0.091l-0.536,0.047l-0.645,0.08
		c-0.042,0.004-0.086,0.007-0.132,0.008c-0.043,0.001-0.083,0.003-0.115,0.007l-0.118,0.013c-0.04,0.001-0.076-0.006-0.11-0.02
		c-0.005-0.05-0.001-0.1,0.011-0.147c0.04-0.026,0.078-0.043,0.113-0.051l0.557-0.1c0.145-0.023,0.253-0.055,0.324-0.095
		c0.014-0.066,0.02-0.116,0.017-0.148c-0.007-0.064-0.072-0.225-0.195-0.481c-0.083-0.172-0.157-0.335-0.223-0.49
		c-0.067-0.154-0.314-0.661-0.744-1.521c-0.149-0.009-0.278-0.006-0.389,0.006l-1.141,0.137l-0.336,0.032
		c-0.121,0.014-0.254,0.037-0.398,0.071c-0.035,0.112-0.057,0.192-0.066,0.239l-0.308,1.521c-0.138,0.581-0.202,0.899-0.197,0.957
		c0.004,0.031,0.026,0.083,0.067,0.154c0.077,0.014,0.178,0.021,0.304,0.025l0.734-0.016c0.042,0.027,0.065,0.054,0.068,0.078
		c0.002,0.019-0.001,0.046-0.007,0.082c-0.16,0.021-0.282,0.037-0.368,0.047c-0.285,0.031-0.617,0.059-0.996,0.083
		c-0.176,0.012-0.3,0.022-0.375,0.03c-0.076,0.009-0.206,0.026-0.389,0.055c-0.122,0.02-0.208,0.033-0.261,0.039
		c-0.085,0.01-0.196,0.017-0.333,0.021l-0.004-0.032C83.688,27.211,83.692,27.176,83.701,27.132z M85.893,23.647
		c0.384-0.021,0.819-0.059,1.307-0.112c0.278-0.03,0.521-0.066,0.729-0.107c-0.051-0.135-0.106-0.261-0.166-0.376
		c-0.299-0.594-0.465-0.921-0.498-0.982l-0.622-1.179L86.58,20.8c-0.017,0.045-0.075,0.236-0.174,0.575
		c-0.167,0.58-0.283,1.03-0.349,1.352c-0.031,0.144-0.063,0.287-0.098,0.43c-0.035,0.143-0.054,0.242-0.061,0.299
		c-0.007,0.056-0.019,0.114-0.038,0.174L85.893,23.647z"/>
	<path d="M91.293,26.534c0.004-0.054,0.018-0.103,0.042-0.146c0.278-0.078,0.55-0.131,0.814-0.158
		c0.175-0.016,0.288-0.057,0.337-0.122c0.036-0.046,0.055-0.219,0.06-0.517l0.023-1.419l-0.014-0.962l-0.006-1.258l-0.004-0.334
		c-0.003-0.756-0.012-1.227-0.025-1.413c-0.002-0.036-0.018-0.086-0.043-0.15c-0.094-0.042-0.173-0.07-0.235-0.083
		c-0.064-0.015-0.345-0.063-0.847-0.148c-0.004-0.039-0.005-0.067-0.006-0.086c0-0.021,0.001-0.05,0.005-0.086
		c0.067-0.001,0.179,0.003,0.333,0.009l0.818,0.023l0.473,0.006l0.14-0.006c0.018-0.001,0.07,0.002,0.156,0.009
		c0.211-0.002,0.333-0.005,0.365-0.01l0.43-0.036c0.291-0.002,0.496,0.001,0.614,0.011c-0.002,0.064-0.015,0.134-0.035,0.21
		c-0.04,0.007-0.227,0.019-0.559,0.034c-0.332,0.017-0.524,0.039-0.574,0.067c-0.083,0.048-0.122,0.191-0.12,0.432
		c0.001,0.057-0.002,0.174-0.007,0.35l0.002,0.322l0.016,0.993l0.003,0.339l0.028,1.777l-0.002,1.514l0.009,0.333
		c0.001,0.108,0.02,0.174,0.056,0.198c0.09,0.003,0.354,0.004,0.79,0.004l0.364-0.004l0.93-0.041
		c0.243-0.01,0.417-0.035,0.521-0.078c0.103-0.042,0.276-0.164,0.517-0.367c0.146-0.13,0.26-0.264,0.341-0.401
		c0.017-0.028,0.048-0.071,0.089-0.129c0.068-0.094,0.156-0.281,0.27-0.562l0.177-0.002c-0.02,0.13-0.042,0.251-0.065,0.366
		c-0.1,0.506-0.168,0.928-0.203,1.264c-0.006,0.072-0.013,0.139-0.02,0.2l-2.009-0.041c-1.726,0.018-2.749,0.043-3.072,0.078
		c-0.1,0.009-0.205,0.013-0.316,0.014L91.293,26.534z"/>
	<path d="M100.591,26.458c0.139-0.038,0.296-0.054,0.472-0.047c0.256,0.007,0.452-0.026,0.589-0.102
		c0.125-0.182,0.242-0.672,0.355-1.47l0.119-0.841l0.084-0.504l0.041-0.374l0.107-0.685l0.23-1.732
		c0.027-0.195,0.018-0.327-0.031-0.396c-0.068-0.101-0.273-0.213-0.613-0.337c-0.142-0.053-0.226-0.094-0.254-0.125
		s-0.041-0.085-0.037-0.16c0.084-0.006,0.143-0.007,0.175-0.003l0.376,0.054l0.199,0.023c0.131,0.018,0.273,0.053,0.43,0.104
		c0.323,0.068,0.656,0.126,1,0.175c0.1,0.014,0.242,0.028,0.428,0.045c0.493,0.04,0.846,0.076,1.059,0.106
		c0.43,0.061,0.828,0.161,1.197,0.3s0.74,0.354,1.11,0.641c0.231,0.181,0.457,0.447,0.677,0.798
		c0.219,0.352,0.371,0.723,0.455,1.112s0.093,0.817,0.026,1.281c-0.059,0.415-0.191,0.815-0.4,1.202
		c-0.209,0.386-0.47,0.71-0.781,0.971c-0.312,0.262-0.616,0.448-0.915,0.559c-0.297,0.112-0.738,0.183-1.32,0.212
		c-0.24,0.01-0.664-0.028-1.27-0.114c-0.4-0.057-0.725-0.116-0.973-0.177c-0.098-0.028-0.203-0.051-0.316-0.066
		c-0.018-0.003-0.037-0.003-0.06-0.003l-2.175-0.265l-0.006-0.045c-0.004-0.019-0.004-0.038-0.002-0.06L100.591,26.458z
		 M103.326,26.628c0.257,0.131,0.522,0.215,0.8,0.255c0.357,0.051,0.717,0.045,1.077-0.019c0.358-0.063,0.687-0.178,0.979-0.344
		s0.543-0.366,0.749-0.599c0.207-0.232,0.361-0.447,0.461-0.643c0.141-0.288,0.247-0.672,0.315-1.154
		c0.065-0.461,0.034-0.943-0.094-1.446c-0.087-0.348-0.279-0.697-0.575-1.046c-0.296-0.35-0.665-0.628-1.105-0.833
		s-0.929-0.347-1.465-0.423c-0.368-0.052-0.646-0.05-0.836,0.007c-0.023,0.019-0.049,0.04-0.074,0.065
		c-0.033,0.086-0.057,0.166-0.066,0.24c-0.008,0.046-0.014,0.102-0.019,0.166c-0.048,0.412-0.089,0.743-0.124,0.991l-0.176,1.206
		c-0.252,1.772-0.359,2.764-0.322,2.973C102.888,26.237,103.046,26.437,103.326,26.628z"/>
	<path d="M109.161,27.749c0.043-0.021,0.076-0.032,0.104-0.032c0.063-0.003,0.167,0.01,0.312,0.036
		c0.343,0.065,0.559,0.087,0.648,0.065c0.067-0.057,0.116-0.147,0.147-0.272l0.09-0.366l0.345-1.322l0.15-0.628l0.341-1.307
		l0.355-1.491c0.088-0.355,0.117-0.562,0.087-0.617c-0.046-0.082-0.222-0.168-0.527-0.258c-0.131-0.037-0.244-0.077-0.341-0.12
		c-0.038-0.036-0.053-0.073-0.043-0.111c0.007-0.028,0.024-0.059,0.052-0.092c0.034-0.01,0.065-0.012,0.09-0.005
		c0.048,0.013,0.106,0.029,0.175,0.051c0.199,0.073,0.408,0.138,0.627,0.194l0.387,0.088l0.912,0.257
		c0.457,0.117,0.814,0.204,1.074,0.26s0.434,0.095,0.524,0.118c0.08,0.02,0.274,0.078,0.587,0.173l0.741,0.185l0.085,0.038
		l0.436,0.096l0.045,0.039c0.01,0.033,0.015,0.065,0.014,0.099c-0.014,0.048-0.04,0.121-0.082,0.217
		c-0.039,0.097-0.064,0.157-0.07,0.182c-0.093,0.36-0.16,0.669-0.199,0.925c-0.01,0.02-0.021,0.031-0.041,0.034
		c-0.037-0.01-0.07-0.023-0.098-0.042c-0.021-0.076-0.043-0.205-0.064-0.388c-0.021-0.184-0.068-0.4-0.141-0.652
		c-0.049-0.168-0.095-0.272-0.135-0.313c-0.043-0.04-0.139-0.079-0.292-0.119c-0.032-0.008-0.188-0.052-0.472-0.132
		c-0.076-0.023-0.15-0.044-0.223-0.063l-1.491-0.351l-0.131-0.033c-0.19-0.049-0.312-0.054-0.362-0.016
		c-0.08,0.068-0.172,0.305-0.277,0.711c-0.01,0.042-0.107,0.46-0.294,1.255l-0.187,0.724c0.037,0.021,0.075,0.036,0.121,0.048
		l0.089,0.022c0.059,0.015,0.146,0.039,0.259,0.072c0.179,0.053,0.299,0.088,0.361,0.104c0.042,0.011,0.078,0.019,0.109,0.023
		c0.379,0.082,0.863,0.199,1.453,0.351c0.191,0.016,0.308,0.007,0.351-0.026c0.067-0.049,0.148-0.202,0.241-0.459
		c0.094-0.257,0.191-0.392,0.291-0.402c0.045,0.012,0.084,0.03,0.117,0.058c0,0.03-0.004,0.057-0.01,0.081
		c-0.006,0.023-0.02,0.063-0.04,0.117c-0.052,0.123-0.163,0.523-0.337,1.199c-0.047,0.181-0.089,0.385-0.126,0.611
		c-0.038,0.227-0.06,0.35-0.063,0.366c-0.008,0.031-0.024,0.071-0.049,0.121c-0.031,0.006-0.055,0.008-0.073,0.003l-0.036-0.01
		c-0.03-0.11-0.045-0.275-0.044-0.493c-0.001-0.374-0.038-0.617-0.116-0.731c-0.075-0.113-0.225-0.199-0.446-0.256
		c-0.049-0.013-0.138-0.032-0.267-0.061c-0.13-0.027-0.322-0.074-0.574-0.139l-0.338-0.087c-0.482-0.124-0.801-0.195-0.955-0.213
		l-0.049,0.171l-0.242,0.96l-0.16,0.604l-0.146,0.59c-0.088,0.354-0.117,0.565-0.09,0.632c0.039,0.092,0.156,0.164,0.355,0.214
		l0.318,0.076c0.027,0.008,0.135,0.038,0.324,0.092c0.186,0.054,0.42,0.116,0.697,0.188c0.668,0.172,1.122,0.258,1.357,0.257
		c0.238,0,0.445-0.055,0.629-0.163c0.181-0.109,0.442-0.378,0.785-0.806c0.103-0.126,0.188-0.18,0.254-0.163
		c0.031,0.008,0.061,0.031,0.093,0.068c-0.189,0.317-0.304,0.528-0.347,0.632c-0.1,0.233-0.186,0.476-0.257,0.727
		c-0.03,0.114-0.082,0.203-0.157,0.265l-0.115-0.029l-1.466-0.36l-0.653-0.173l-1.566-0.38l-0.635-0.163
		c-0.08-0.021-0.154-0.038-0.225-0.053c-0.632-0.133-1.095-0.237-1.39-0.313c-0.052-0.013-0.085-0.03-0.1-0.053
		c-0.015-0.021-0.018-0.049-0.009-0.083L109.161,27.749z"/>
	<path d="M122.15,24.807c-0.051,0.232-0.084,0.365-0.096,0.399l-0.182,0.443c-0.074,0.189-0.127,0.31-0.156,0.36
		c-0.035,0.002-0.063,0-0.084-0.008l-0.042-0.025c0.062-0.511,0.001-0.921-0.179-1.229c-0.182-0.308-0.459-0.528-0.828-0.66
		c-0.385-0.138-0.739-0.143-1.063-0.014c-0.322,0.127-0.537,0.334-0.638,0.621c-0.079,0.219-0.064,0.45,0.043,0.694
		c0.106,0.243,0.45,0.673,1.028,1.288c0.439,0.473,0.744,0.838,0.913,1.098c0.171,0.261,0.272,0.528,0.308,0.804
		c0.033,0.274,0,0.556-0.103,0.843c-0.128,0.361-0.343,0.667-0.644,0.918c-0.301,0.25-0.639,0.398-1.012,0.446
		c-0.375,0.047-0.824-0.023-1.346-0.21c-0.456-0.162-0.865-0.391-1.232-0.685c-0.215-0.176-0.34-0.3-0.375-0.374
		c-0.033-0.073-0.04-0.14-0.019-0.2c0.014-0.037,0.032-0.083,0.06-0.139c0.189-0.381,0.332-0.698,0.428-0.954
		c0.063-0.155,0.107-0.244,0.135-0.266c0.021-0.019,0.051-0.021,0.088-0.008c0.03,0.011,0.051,0.03,0.063,0.059
		c0.01,0.029,0.008,0.074-0.007,0.138c-0.112,0.428-0.052,0.867,0.179,1.318c0.228,0.45,0.559,0.753,0.994,0.908
		c0.266,0.096,0.531,0.127,0.795,0.097c0.264-0.032,0.497-0.13,0.698-0.296c0.202-0.165,0.339-0.348,0.409-0.547
		c0.098-0.273,0.092-0.557-0.021-0.852s-0.403-0.696-0.876-1.205s-0.771-0.864-0.897-1.065c-0.202-0.326-0.329-0.642-0.38-0.945
		c-0.035-0.233-0.006-0.479,0.086-0.739c0.167-0.469,0.495-0.799,0.981-0.992c0.488-0.192,1.043-0.178,1.667,0.045
		c0.344,0.123,0.627,0.268,0.85,0.435C121.857,24.434,122.007,24.601,122.15,24.807z"/>
	<path d="M121.24,31.383c0.084,0.003,0.166,0.017,0.244,0.043c0.517,0.187,0.83,0.251,0.939,0.195
		c0.111-0.055,0.331-0.461,0.661-1.216l0.221-0.52l0.236-0.542l0.241-0.604l0.162-0.346l0.162-0.386l0.197-0.454l0.079-0.206
		l0.122-0.252c0.029-0.057,0.061-0.125,0.096-0.204c0.09-0.207,0.176-0.431,0.256-0.669c0.007-0.051,0.008-0.104,0.004-0.156
		c-0.094-0.115-0.271-0.243-0.534-0.383c-0.261-0.139-0.404-0.229-0.428-0.272c-0.019-0.03-0.011-0.088,0.022-0.171l0.412,0.181
		l1.295,0.6c0.335,0.146,0.787,0.331,1.354,0.556c-0.023,0.053-0.048,0.101-0.073,0.144c-0.073-0.012-0.192-0.042-0.354-0.09
		c-0.328-0.101-0.531-0.148-0.617-0.146c-0.049-0.002-0.092,0.013-0.129,0.044c-0.059,0.045-0.127,0.146-0.203,0.304l-0.303,0.625
		l-0.936,2.201l-0.379,0.867c-0.126,0.27-0.211,0.453-0.254,0.552c-0.16,0.368-0.254,0.606-0.279,0.717
		c-0.026,0.109-0.027,0.197-0.002,0.26c0.023,0.064,0.082,0.131,0.172,0.202c0.136,0.102,0.244,0.173,0.329,0.214
		c0.181,0.086,0.286,0.163,0.313,0.231c-0.008,0.046-0.018,0.085-0.031,0.114l-0.016,0.039c-0.305-0.121-0.527-0.212-0.668-0.273
		c-0.082-0.036-0.227-0.104-0.434-0.206l-0.684-0.287l-1.156-0.511l-0.094-0.041L121.24,31.383z"/>
	<path d="M134.036,30.671l-0.342,0.744c-0.1,0.227-0.172,0.38-0.214,0.458l-0.146-0.049c0.053-0.593-0.013-1.094-0.193-1.504
		s-0.498-0.739-0.951-0.988c-0.551-0.303-1.018-0.473-1.398-0.506c-0.553-0.054-1.115,0.069-1.693,0.369
		c-0.577,0.299-1.051,0.783-1.417,1.451c-0.212,0.387-0.345,0.765-0.397,1.136s-0.047,0.748,0.02,1.13
		c0.064,0.382,0.189,0.749,0.371,1.103c0.118,0.232,0.289,0.452,0.514,0.661c0.127,0.116,0.338,0.254,0.629,0.414
		c0.189,0.104,0.413,0.192,0.671,0.264c0.259,0.073,0.47,0.097,0.636,0.071c0.165-0.026,0.299-0.084,0.404-0.173
		c0.105-0.09,0.246-0.298,0.426-0.624c0.298-0.543,0.436-0.879,0.414-1.009c-0.023-0.129-0.219-0.313-0.586-0.551l-0.182-0.117
		l-0.129-0.065c-0.018-0.014-0.039-0.032-0.068-0.056l-0.006-0.156c0.009-0.016,0.031-0.03,0.068-0.044
		c0.176,0.065,0.537,0.247,1.084,0.548c0.121,0.066,0.319,0.18,0.592,0.338l0.475,0.285l0.44,0.236
		c0.085,0.047,0.185,0.105,0.3,0.177c0.021,0.016,0.032,0.029,0.033,0.04c0.004,0.012-0.002,0.026-0.012,0.045
		c-0.02,0.035-0.051,0.074-0.096,0.119c-0.146-0.044-0.257-0.086-0.33-0.125l-0.303-0.174c-0.104-0.057-0.206-0.066-0.311-0.028
		c-0.049,0.018-0.129,0.126-0.24,0.327l-0.334,0.619c-0.232,0.424-0.398,0.684-0.496,0.781c-0.057,0.059-0.131,0.099-0.221,0.12
		c-0.09,0.022-0.25,0.019-0.482-0.011c-0.335-0.041-0.623-0.104-0.865-0.188c-0.455-0.156-0.875-0.34-1.261-0.552
		c-0.622-0.342-1.087-0.701-1.397-1.077c-0.309-0.377-0.53-0.785-0.662-1.226s-0.18-0.839-0.143-1.194
		c0.047-0.525,0.191-1.008,0.434-1.447c0.302-0.549,0.742-1.007,1.322-1.372c0.579-0.366,1.281-0.536,2.109-0.511
		c0.582,0.019,1.264,0.241,2.046,0.671c0.539,0.297,0.956,0.587,1.247,0.87C133.689,30.185,133.902,30.442,134.036,30.671z"/>
	<path d="M136.021,31.785l0.146-0.212c0.449,0.325,0.787,0.551,1.014,0.68c0.087,0.05,0.146,0.086,0.178,0.109
		c0.027,0.02,0.064,0.049,0.115,0.089c0.048,0.19,0.076,0.388,0.088,0.594c0.004,0.043,0.01,0.091,0.016,0.145l0.184,1.678
		l0.018,0.251c0.028,0.352,0.063,0.659,0.104,0.924c0.042,0.264,0.106,0.799,0.194,1.605l0.207,1.906
		c0.02,0.186,0.047,0.421,0.086,0.705l0.054-0.066c0.275-0.416,0.421-0.636,0.437-0.659l0.207-0.249l0.287-0.415l0.135-0.187
		c0.087-0.119,0.342-0.494,0.767-1.123c0.058-0.087,0.161-0.254,0.309-0.503c0.15-0.247,0.288-0.46,0.417-0.638
		c0.23-0.318,0.346-0.518,0.346-0.598c0-0.057-0.094-0.185-0.285-0.385c-0.05-0.041-0.125-0.108-0.225-0.202
		c-0.127-0.101-0.198-0.163-0.216-0.188c-0.017-0.025-0.022-0.067-0.017-0.125c0.041-0.042,0.086-0.075,0.135-0.102
		c0.096,0.033,0.18,0.077,0.256,0.132c0.082,0.059,0.174,0.142,0.28,0.249c0.105,0.107,0.206,0.195,0.302,0.266
		c0.134,0.096,0.348,0.237,0.643,0.424c0.166,0.104,0.281,0.177,0.343,0.221l0.073,0.055l-0.105,0.128
		c-0.063-0.014-0.135-0.047-0.219-0.102c-0.084-0.054-0.168-0.096-0.253-0.127c-0.128-0.043-0.21-0.061-0.247-0.052
		c-0.125,0.025-0.215,0.076-0.271,0.154l-0.948,1.41l-0.42,0.656l-0.138,0.18l-0.606,0.894c-0.415,0.61-0.781,1.136-1.1,1.577
		c-0.07,0.096-0.227,0.299-0.469,0.609l-0.215-0.129c-0.018-0.189-0.104-0.809-0.258-1.855c-0.035-0.243-0.057-0.411-0.064-0.506
		l-0.063-0.701c-0.03-0.264-0.051-0.434-0.063-0.51c-0.012-0.074-0.021-0.13-0.027-0.164c-0.057-0.589-0.143-1.336-0.256-2.24
		c-0.031-0.244-0.068-0.615-0.11-1.113c-0.024-0.314-0.044-0.51-0.055-0.584c-0.013-0.075-0.036-0.167-0.071-0.277l-0.121,0.139
		c-0.408,0.565-0.959,1.356-1.65,2.373l-1.01,1.463c-0.086,0.123-0.164,0.246-0.234,0.368l0.128,0.146
		c0.257,0.225,0.499,0.46,0.729,0.705c0.008,0.032,0.015,0.058,0.023,0.077l-0.125,0.162c-0.056-0.019-0.1-0.039-0.129-0.06
		c-0.031-0.023-0.068-0.055-0.111-0.094c-0.27-0.231-0.61-0.495-1.023-0.794c-0.289-0.21-0.551-0.388-0.781-0.532l-0.063-0.039
		c-0.026-0.02-0.062-0.05-0.108-0.091l0.091-0.134l0.151,0.029l0.227,0.118c0.201,0.105,0.355,0.173,0.463,0.202
		c0.07,0.02,0.137,0.021,0.201,0.006c0.177-0.177,0.405-0.458,0.684-0.844c0.131-0.18,0.363-0.513,0.701-0.998l0.429-0.592
		l0.886-1.242c0.393-0.556,0.609-0.895,0.648-1.016c0.02-0.064,0.018-0.138-0.009-0.218c-0.054-0.159-0.162-0.313-0.326-0.461
		C136.165,31.938,136.062,31.837,136.021,31.785z"/>
	<path d="M146.093,39.233c0.054,0.038,0.087,0.063,0.101,0.075c0.087,0.085,0.225,0.231,0.413,0.437
		c0.104,0.105,0.174,0.177,0.211,0.214c0.057,0.056,0.182,0.167,0.373,0.334l0.689,0.601c0.187,0.153,0.395,0.341,0.621,0.564
		c0.402,0.393,0.665,0.763,0.792,1.109c0.128,0.347,0.136,0.705,0.026,1.074c-0.107,0.369-0.28,0.674-0.515,0.914
		c-0.393,0.4-0.873,0.609-1.438,0.625c-0.568,0.016-1.088-0.21-1.564-0.676c-0.133-0.131-0.231-0.253-0.295-0.368
		c-0.063-0.114-0.113-0.267-0.154-0.456c-0.016-0.08-0.012-0.144,0.013-0.189c0.028-0.008,0.056-0.007,0.081,0.003
		c0.035,0.035,0.064,0.079,0.088,0.132c0.057,0.116,0.152,0.239,0.285,0.369c0.201,0.198,0.441,0.336,0.719,0.413
		c0.279,0.077,0.555,0.068,0.827-0.025c0.271-0.094,0.507-0.242,0.708-0.446c0.194-0.199,0.336-0.44,0.423-0.724
		c0.086-0.282,0.106-0.558,0.058-0.825c-0.025-0.151-0.111-0.339-0.254-0.564c-0.143-0.225-0.265-0.387-0.367-0.487
		c-0.316-0.31-0.526-0.47-0.63-0.481l-0.057,0.05l-0.413,0.444l-0.08,0.073c-0.07,0.064-0.178,0.167-0.318,0.311
		c-0.51,0.521-0.82,0.854-0.93,0.997l-0.212,0.214l-1.666,1.801c-0.024,0.025-0.074,0.069-0.148,0.133
		c-0.074,0.063-0.136,0.119-0.187,0.171c-0.119,0.123-0.201,0.226-0.242,0.31c0.043,0.078,0.181,0.296,0.412,0.652
		c0.106,0.169,0.162,0.262,0.171,0.279c0.013,0.027,0.015,0.063,0.005,0.103c-0.049,0.029-0.086,0.04-0.113,0.035
		c-0.028-0.005-0.068-0.03-0.115-0.078c-0.031-0.03-0.096-0.106-0.195-0.229c-0.198-0.239-0.359-0.419-0.484-0.542l-0.703-0.635
		l-0.391-0.406c-0.025-0.025-0.102-0.095-0.229-0.21l0.093-0.104l0.593,0.394c0.104,0.057,0.177,0.083,0.218,0.077
		c0.061-0.011,0.143-0.068,0.244-0.173c0.022-0.023,0.073-0.071,0.15-0.146c0.055-0.052,0.129-0.125,0.223-0.219
		c0.295-0.302,0.912-0.957,1.85-1.967c0.441-0.47,0.895-0.942,1.359-1.418l0.064-0.064c0.18-0.185,0.266-0.328,0.257-0.432
		c-0.012-0.177-0.181-0.479-0.507-0.902c0.016-0.041,0.031-0.07,0.048-0.088C146.019,39.263,146.05,39.247,146.093,39.233z"/>
	<path d="M145.915,48.441c0.383,0.358,0.605,0.557,0.667,0.592c0.044,0.024,0.112,0.021,0.206-0.006l0.045-0.038
		c0.068-0.058,0.325-0.256,0.77-0.594c0.126-0.097,0.245-0.192,0.36-0.289l0.478-0.425l0.561-0.459l1.025-0.873l0.742-0.618
		c0.314-0.261,0.484-0.445,0.51-0.554c0.025-0.107-0.037-0.279-0.186-0.515c-0.149-0.234-0.227-0.368-0.23-0.402
		c-0.005-0.033,0.008-0.063,0.037-0.088c0.021-0.017,0.049-0.033,0.084-0.05c0.049,0.006,0.115,0.058,0.202,0.153
		c0.011,0.014,0.046,0.049,0.104,0.104s0.111,0.111,0.157,0.166l0.285,0.336l0.923,1.069c0.516,0.61,0.83,1.076,0.946,1.397
		s0.13,0.645,0.036,0.971c-0.092,0.327-0.271,0.602-0.536,0.825c-0.503,0.426-1.111,0.486-1.821,0.183
		c-0.123-0.051-0.225-0.087-0.304-0.109c-0.118,0.26-0.244,0.588-0.381,0.988l-0.454,1.274c-0.154,0.486-0.238,0.803-0.256,0.953
		c-0.016,0.15-0.004,0.305,0.037,0.465s0.15,0.395,0.328,0.705c-0.025,0.025-0.047,0.045-0.063,0.06
		c-0.017,0.014-0.038,0.029-0.065,0.048c-0.322-0.37-0.695-0.808-1.119-1.312c-0.031-0.035-0.07-0.087-0.117-0.154
		c0.21-0.509,0.426-1.083,0.65-1.723l0.598-1.544c0.047-0.18,0.062-0.309,0.045-0.386s-0.061-0.16-0.137-0.248L149.745,48
		l-0.093-0.118c-0.095,0.065-0.278,0.213-0.548,0.44l-1.404,1.185c-0.055,0.041-0.117,0.113-0.189,0.217
		c-0.035,0.065-0.044,0.139-0.03,0.219c0.013,0.079,0.096,0.273,0.249,0.581l0.1,0.203c-0.008,0.045-0.036,0.087-0.082,0.126
		c-0.076-0.062-0.128-0.108-0.152-0.138c-0.209-0.246-0.352-0.422-0.432-0.528c-0.041-0.054-0.074-0.097-0.104-0.13l-0.478-0.55
		l-0.456-0.549c-0.021-0.025-0.129-0.146-0.326-0.362l-0.054-0.096l0.034-0.043C145.805,48.436,145.851,48.43,145.915,48.441z
		 M149.884,47.7c0.061,0.076,0.105,0.132,0.135,0.167c0.168,0.197,0.383,0.405,0.645,0.623c0.188,0.15,0.369,0.248,0.546,0.292
		c0.175,0.044,0.373,0.037,0.596-0.021c0.222-0.059,0.418-0.159,0.587-0.302c0.186-0.156,0.333-0.381,0.441-0.675
		c0.082-0.224,0.086-0.488,0.011-0.792c-0.075-0.306-0.239-0.608-0.493-0.909c-0.063-0.074-0.147-0.166-0.255-0.277
		c-0.151,0.109-0.265,0.196-0.342,0.26l-0.749,0.668l-0.318,0.263C150.474,47.174,150.206,47.41,149.884,47.7z"/>
	<path d="M153.05,51.857c0.304-0.204,0.598-0.349,0.883-0.435c0.285-0.087,0.623-0.137,1.016-0.15
		c0.393-0.015,0.764,0.038,1.113,0.156c0.35,0.119,0.74,0.346,1.173,0.681c0.302,0.236,0.61,0.587,0.922,1.05
		c0.21,0.313,0.374,0.646,0.491,0.999c0.119,0.354,0.186,0.704,0.2,1.048c0.016,0.344-0.05,0.74-0.192,1.192
		c-0.102,0.313-0.245,0.596-0.434,0.849c-0.248,0.33-0.543,0.612-0.889,0.844c-0.392,0.265-0.742,0.445-1.052,0.544
		s-0.649,0.144-1.022,0.136c-0.291-0.008-0.678-0.095-1.16-0.262c-0.325-0.109-0.652-0.297-0.983-0.562
		c-0.332-0.265-0.63-0.591-0.892-0.98c-0.266-0.395-0.457-0.777-0.572-1.148s-0.177-0.704-0.185-0.999
		c-0.007-0.296,0.046-0.64,0.157-1.032c0.111-0.392,0.284-0.749,0.521-1.073C152.38,52.391,152.682,52.106,153.05,51.857z
		 M152.363,56.816c0.168,0.249,0.377,0.484,0.629,0.707c0.25,0.222,0.527,0.382,0.828,0.48c0.303,0.099,0.596,0.137,0.881,0.115
		s0.615-0.105,0.986-0.252c0.371-0.147,0.719-0.33,1.043-0.548c0.404-0.271,0.764-0.601,1.078-0.985
		c0.238-0.294,0.404-0.625,0.5-0.991c0.097-0.367,0.109-0.741,0.041-1.122s-0.215-0.738-0.438-1.071
		c-0.183-0.27-0.405-0.504-0.667-0.703c-0.264-0.197-0.521-0.334-0.771-0.407s-0.549-0.095-0.899-0.066s-0.703,0.108-1.06,0.241
		c-0.355,0.131-0.65,0.275-0.885,0.434c-0.246,0.166-0.5,0.392-0.764,0.676c-0.261,0.284-0.463,0.568-0.604,0.852
		s-0.236,0.578-0.286,0.886s-0.043,0.61,0.022,0.908C152.06,56.266,152.182,56.548,152.363,56.816z"/>
	<path d="M154.756,60.856l0.118-0.057c0.07,0.051,0.162,0.15,0.275,0.299s0.198,0.245,0.258,0.293
		c0.06,0.047,0.121,0.079,0.188,0.096c0.154-0.045,0.415-0.163,0.778-0.355l3.698-1.953l0.621-0.31
		c0.127-0.067,0.201-0.138,0.221-0.212c0.023-0.075-0.002-0.228-0.072-0.457c-0.071-0.23-0.104-0.371-0.098-0.422
		s0.022-0.084,0.051-0.099c0.016-0.009,0.037-0.015,0.068-0.019c0.047,0.027,0.082,0.063,0.105,0.108
		c0.025,0.047,0.072,0.146,0.144,0.294l0.071,0.134c0.023,0.044,0.092,0.167,0.207,0.37l0.348,0.66l0.744,1.351l0.819,1.413
		l0.069,0.129l0.113,0.201c0.029,0.057,0.039,0.115,0.031,0.178c-0.041,0.045-0.07,0.075-0.092,0.091l-0.191,0.096l-0.829,0.491
		c-0.035,0.019-0.08,0.038-0.138,0.061c-0.049-0.039-0.084-0.079-0.105-0.119c-0.016-0.029-0.018-0.057-0.007-0.082
		c0.021-0.044,0.08-0.095,0.175-0.152c0.129-0.086,0.278-0.228,0.449-0.426c0.079-0.095,0.113-0.2,0.102-0.314
		c-0.027-0.229-0.16-0.567-0.396-1.016c-0.111-0.212-0.223-0.406-0.33-0.584s-0.174-0.287-0.194-0.328l-0.19-0.372
		c-0.081-0.152-0.169-0.266-0.265-0.34c-0.063-0.052-0.149-0.049-0.257,0.008l-0.071,0.038c-0.155,0.095-0.333,0.193-0.529,0.298
		l-1.299,0.668c-0.128,0.067-0.241,0.14-0.347,0.219l0.063,0.143l0.154,0.258l0.479,0.905c0.193,0.364,0.351,0.604,0.477,0.719
		c0.086,0.076,0.176,0.12,0.27,0.131c0.031,0.004,0.178-0.022,0.439-0.08l0.426-0.146c0.039,0.028,0.063,0.052,0.074,0.07
		c0.008,0.016,0.014,0.046,0.017,0.089c-0.067,0.051-0.173,0.117-0.321,0.199L159.359,64c-0.051-0.042-0.084-0.077-0.1-0.105
		l-0.018-0.057c0.289-0.219,0.496-0.429,0.62-0.632c0.044-0.071,0.058-0.134,0.042-0.186c-0.025-0.093-0.215-0.475-0.568-1.146
		c-0.111-0.209-0.188-0.353-0.232-0.43c-0.111-0.186-0.176-0.297-0.195-0.335l-0.025-0.047c-0.051-0.096-0.1-0.157-0.146-0.185
		c-0.045,0.007-0.074,0.016-0.09,0.023l-0.328,0.173c-0.037,0.021-0.195,0.105-0.473,0.256l-1.577,0.821
		c-0.044,0.023-0.093,0.064-0.146,0.126c-0.02,0.094,0.01,0.234,0.086,0.42c0.074,0.185,0.119,0.372,0.135,0.563
		c0.006,0.11-0.016,0.179-0.066,0.206c-0.023,0.011-0.047,0.016-0.072,0.013s-0.053-0.018-0.078-0.043
		c-0.084-0.288-0.246-0.661-0.488-1.119c-0.128-0.243-0.287-0.489-0.474-0.738c-0.128-0.171-0.255-0.376-0.381-0.617L154.756,60.856
		z"/>
	<path d="M157.79,66.26c0.042,0.021,0.071,0.042,0.088,0.063c0.039,0.049,0.092,0.141,0.156,0.272
		c0.152,0.313,0.264,0.499,0.336,0.56c0.084,0.02,0.188,0.005,0.307-0.044l0.346-0.147l1.268-0.513l0.594-0.254l1.252-0.506
		l1.409-0.605c0.337-0.142,0.519-0.241,0.546-0.299c0.039-0.085,0.004-0.277-0.107-0.577c-0.049-0.127-0.084-0.242-0.107-0.345
		c0.006-0.053,0.027-0.086,0.064-0.102c0.025-0.011,0.061-0.016,0.104-0.014c0.028,0.023,0.049,0.047,0.057,0.069
		c0.02,0.047,0.041,0.104,0.065,0.171c0.06,0.204,0.132,0.41,0.218,0.619l0.161,0.363l0.337,0.884
		c0.179,0.438,0.324,0.776,0.435,1.018c0.109,0.241,0.183,0.406,0.217,0.491c0.031,0.076,0.103,0.269,0.212,0.575l0.293,0.704
		l0.021,0.091l0.183,0.406l-0.005,0.06c-0.02,0.027-0.043,0.051-0.07,0.069c-0.045,0.02-0.121,0.041-0.223,0.065
		s-0.165,0.041-0.188,0.051c-0.346,0.141-0.632,0.271-0.861,0.393c-0.021,0.005-0.039,0.001-0.052-0.013
		c-0.014-0.036-0.022-0.07-0.024-0.104c0.047-0.062,0.139-0.156,0.273-0.282c0.134-0.127,0.279-0.294,0.438-0.502
		c0.104-0.14,0.161-0.238,0.169-0.296s-0.019-0.159-0.078-0.305c-0.012-0.029-0.07-0.182-0.174-0.456
		c-0.027-0.075-0.056-0.147-0.084-0.217l-0.609-1.406l-0.051-0.123c-0.074-0.183-0.143-0.283-0.203-0.301
		c-0.104-0.023-0.348,0.044-0.736,0.202c-0.04,0.016-0.434,0.188-1.183,0.513l-0.69,0.282c0.004,0.041,0.016,0.082,0.033,0.126
		l0.034,0.084c0.024,0.057,0.056,0.14,0.097,0.251c0.063,0.175,0.107,0.292,0.133,0.353c0.016,0.039,0.031,0.073,0.047,0.102
		c0.16,0.353,0.354,0.811,0.585,1.374c0.102,0.164,0.179,0.252,0.23,0.266c0.08,0.025,0.251-0.001,0.513-0.079
		c0.263-0.078,0.428-0.081,0.496-0.008c0.018,0.043,0.025,0.086,0.024,0.129c-0.024,0.018-0.048,0.031-0.071,0.041
		c-0.021,0.009-0.063,0.021-0.117,0.036c-0.131,0.033-0.519,0.183-1.164,0.447c-0.173,0.069-0.36,0.157-0.566,0.263
		c-0.203,0.105-0.314,0.16-0.331,0.168c-0.029,0.012-0.071,0.023-0.126,0.034c-0.023-0.021-0.039-0.04-0.046-0.058l-0.015-0.034
		c0.072-0.091,0.195-0.202,0.37-0.331c0.299-0.224,0.472-0.399,0.519-0.528c0.046-0.129,0.024-0.3-0.063-0.512
		c-0.019-0.046-0.055-0.13-0.111-0.25c-0.055-0.12-0.131-0.303-0.23-0.544L162,67.777c-0.188-0.461-0.321-0.758-0.399-0.894
		l-0.167,0.063l-0.915,0.38l-0.578,0.231l-0.561,0.234c-0.338,0.142-0.525,0.244-0.561,0.306c-0.051,0.086-0.037,0.224,0.04,0.412
		l0.129,0.302c0.011,0.026,0.05,0.131,0.119,0.313s0.157,0.407,0.267,0.672c0.26,0.64,0.463,1.054,0.604,1.244
		c0.142,0.189,0.311,0.325,0.506,0.405c0.197,0.08,0.568,0.131,1.115,0.15c0.163,0.007,0.257,0.043,0.283,0.105
		c0.012,0.029,0.012,0.068,0,0.115c-0.367,0.038-0.604,0.071-0.713,0.101c-0.248,0.058-0.493,0.134-0.738,0.226
		c-0.108,0.045-0.211,0.056-0.307,0.032l-0.043-0.109l-0.587-1.391l-0.251-0.628l-0.629-1.483l-0.249-0.607
		c-0.03-0.076-0.062-0.146-0.092-0.212c-0.271-0.585-0.464-1.02-0.579-1.301c-0.02-0.05-0.025-0.087-0.018-0.111
		c0.01-0.025,0.029-0.045,0.063-0.058L157.79,66.26z"/>
	<path d="M167.906,74.936c-0.217,0.097-0.344,0.149-0.377,0.16l-0.463,0.119c-0.197,0.053-0.325,0.082-0.384,0.089
		c-0.022-0.026-0.037-0.051-0.044-0.071l-0.004-0.049c0.446-0.256,0.738-0.549,0.879-0.878c0.138-0.329,0.149-0.682,0.035-1.059
		c-0.119-0.391-0.327-0.677-0.623-0.859c-0.295-0.184-0.588-0.23-0.879-0.142c-0.223,0.068-0.4,0.218-0.531,0.448
		c-0.132,0.231-0.271,0.763-0.421,1.595c-0.116,0.635-0.228,1.098-0.335,1.389s-0.262,0.533-0.463,0.725
		c-0.198,0.192-0.445,0.333-0.736,0.422c-0.367,0.112-0.74,0.123-1.121,0.03c-0.379-0.091-0.701-0.273-0.961-0.546
		c-0.262-0.271-0.474-0.673-0.635-1.203c-0.142-0.463-0.205-0.93-0.186-1.398c0.012-0.277,0.038-0.451,0.076-0.523
		c0.037-0.071,0.088-0.117,0.148-0.136c0.039-0.011,0.088-0.022,0.147-0.034c0.419-0.075,0.759-0.15,1.021-0.227
		c0.162-0.042,0.262-0.06,0.293-0.05c0.027,0.006,0.048,0.028,0.061,0.065c0.008,0.031,0.005,0.059-0.012,0.085
		c-0.017,0.025-0.055,0.051-0.113,0.077c-0.41,0.166-0.728,0.476-0.952,0.931c-0.226,0.45-0.271,0.896-0.136,1.339
		c0.083,0.27,0.215,0.502,0.397,0.695s0.401,0.321,0.654,0.385c0.253,0.063,0.481,0.063,0.683,0.002
		c0.277-0.085,0.502-0.26,0.67-0.525c0.17-0.265,0.319-0.739,0.445-1.422c0.127-0.683,0.234-1.135,0.318-1.355
		c0.143-0.357,0.32-0.647,0.533-0.87c0.166-0.166,0.381-0.29,0.645-0.37c0.476-0.146,0.937-0.081,1.383,0.194
		c0.445,0.276,0.764,0.73,0.958,1.364c0.106,0.35,0.159,0.663,0.158,0.94C168.031,74.477,167.988,74.698,167.906,74.936z"/>
	<path d="M169.28,80.654c-0.226,0.078-0.354,0.122-0.39,0.13l-0.471,0.082c-0.201,0.037-0.331,0.057-0.39,0.059
		c-0.021-0.027-0.033-0.053-0.038-0.073l0.001-0.05c0.464-0.221,0.778-0.489,0.943-0.806c0.163-0.317,0.204-0.668,0.118-1.053
		c-0.088-0.398-0.272-0.7-0.553-0.906s-0.568-0.275-0.867-0.21c-0.227,0.051-0.414,0.186-0.564,0.406
		c-0.148,0.22-0.33,0.738-0.543,1.557c-0.166,0.623-0.313,1.075-0.443,1.357s-0.303,0.511-0.517,0.688
		c-0.216,0.176-0.471,0.296-0.768,0.362c-0.376,0.083-0.748,0.063-1.12-0.058s-0.678-0.327-0.916-0.619
		c-0.24-0.292-0.418-0.708-0.539-1.25c-0.104-0.473-0.129-0.941-0.076-1.408c0.035-0.275,0.074-0.447,0.117-0.516
		c0.044-0.068,0.098-0.109,0.16-0.123c0.039-0.009,0.087-0.017,0.149-0.022c0.423-0.042,0.767-0.092,1.034-0.146
		c0.166-0.029,0.265-0.039,0.297-0.027c0.027,0.009,0.045,0.031,0.054,0.07c0.007,0.031,0.001,0.06-0.018,0.083
		c-0.019,0.025-0.058,0.048-0.12,0.068c-0.421,0.134-0.762,0.418-1.021,0.854c-0.259,0.432-0.339,0.873-0.238,1.324
		c0.061,0.276,0.174,0.518,0.342,0.725c0.166,0.207,0.373,0.352,0.621,0.435c0.248,0.082,0.475,0.101,0.682,0.055
		c0.283-0.063,0.52-0.22,0.709-0.471c0.189-0.252,0.375-0.712,0.555-1.383c0.18-0.67,0.32-1.113,0.424-1.326
		c0.17-0.345,0.368-0.621,0.598-0.825c0.178-0.154,0.402-0.261,0.672-0.32c0.486-0.107,0.941-0.007,1.363,0.303
		c0.422,0.311,0.705,0.788,0.849,1.436c0.08,0.356,0.106,0.673,0.085,0.949C169.439,80.206,169.378,80.422,169.28,80.654z"/>
	<path d="M163.224,83.375c0.043,0.073,0.076,0.149,0.096,0.23c0.115,0.536,0.227,0.836,0.333,0.9
		c0.105,0.063,0.566,0.034,1.382-0.089l0.557-0.09l0.586-0.088l0.64-0.119l0.378-0.045l0.415-0.068l0.488-0.074l0.216-0.043
		l0.278-0.031c0.064-0.006,0.14-0.016,0.224-0.028c0.224-0.033,0.457-0.08,0.703-0.139c0.047-0.021,0.092-0.049,0.135-0.08
		c0.048-0.141,0.061-0.359,0.039-0.655c-0.02-0.295-0.02-0.464,0.003-0.508c0.016-0.031,0.068-0.057,0.157-0.072l0.066,0.446
		l0.182,1.415c0.055,0.361,0.138,0.842,0.25,1.441c-0.057,0.009-0.111,0.014-0.162,0.014c-0.027-0.068-0.064-0.184-0.11-0.348
		c-0.091-0.33-0.159-0.529-0.204-0.599c-0.025-0.043-0.061-0.073-0.107-0.087c-0.068-0.026-0.191-0.029-0.365-0.01l-0.689,0.076
		l-2.363,0.378l-0.934,0.142c-0.295,0.037-0.498,0.063-0.604,0.079c-0.397,0.061-0.648,0.107-0.755,0.145
		c-0.108,0.035-0.183,0.081-0.222,0.137c-0.041,0.055-0.066,0.139-0.079,0.253c-0.015,0.169-0.017,0.3-0.006,0.393
		c0.022,0.199,0.013,0.328-0.028,0.39c-0.045,0.018-0.082,0.028-0.115,0.033l-0.041,0.007c-0.059-0.321-0.101-0.559-0.125-0.711
		c-0.012-0.088-0.031-0.247-0.055-0.476l-0.121-0.732l-0.183-1.251l-0.015-0.101L163.224,83.375z"/>
	<path d="M167.168,87.361c0.364-0.021,0.69,0.003,0.98,0.075c0.29,0.07,0.606,0.2,0.95,0.389c0.344,0.188,0.637,0.422,0.877,0.701
		c0.24,0.28,0.462,0.675,0.664,1.184c0.139,0.357,0.225,0.815,0.258,1.373c0.021,0.376-0.008,0.746-0.087,1.111
		c-0.079,0.364-0.2,0.698-0.362,1.002s-0.42,0.612-0.774,0.928c-0.245,0.218-0.513,0.388-0.804,0.509
		c-0.382,0.158-0.78,0.25-1.195,0.274c-0.471,0.027-0.866,0.004-1.182-0.069c-0.316-0.073-0.633-0.208-0.949-0.405
		c-0.245-0.154-0.534-0.426-0.865-0.815c-0.224-0.26-0.41-0.588-0.559-0.984c-0.152-0.396-0.24-0.829-0.268-1.297
		c-0.027-0.476,0.003-0.902,0.092-1.28c0.09-0.379,0.207-0.697,0.352-0.954c0.145-0.259,0.365-0.527,0.66-0.809
		c0.297-0.28,0.628-0.499,0.995-0.657C166.32,87.478,166.724,87.386,167.168,87.361z M164.048,91.275
		c0.018,0.301,0.077,0.609,0.18,0.929c0.104,0.318,0.259,0.598,0.47,0.836c0.209,0.239,0.442,0.422,0.698,0.549
		c0.257,0.127,0.582,0.222,0.978,0.285c0.394,0.063,0.785,0.084,1.176,0.061c0.485-0.027,0.964-0.127,1.429-0.298
		c0.355-0.132,0.668-0.331,0.938-0.598c0.271-0.267,0.472-0.581,0.607-0.944c0.135-0.363,0.19-0.745,0.167-1.145
		c-0.019-0.326-0.091-0.641-0.216-0.945s-0.277-0.553-0.455-0.743s-0.424-0.363-0.74-0.517c-0.315-0.154-0.66-0.265-1.033-0.333
		c-0.373-0.067-0.701-0.094-0.982-0.077c-0.299,0.018-0.631,0.081-1.001,0.192c-0.37,0.11-0.688,0.252-0.954,0.424
		c-0.268,0.172-0.5,0.376-0.699,0.616c-0.2,0.239-0.348,0.503-0.443,0.793C164.07,90.648,164.03,90.954,164.048,91.275z"/>
	<path d="M170.751,96.228l0.258,0.012c-0.038,0.555-0.051,0.961-0.038,1.219c0.005,0.102,0.005,0.172,0.001,0.211
		c-0.002,0.033-0.007,0.08-0.014,0.145c-0.135,0.143-0.287,0.271-0.455,0.389c-0.035,0.027-0.073,0.057-0.115,0.09l-1.322,1.049
		l-0.204,0.148c-0.284,0.211-0.526,0.404-0.728,0.58c-0.201,0.174-0.619,0.514-1.256,1.018l-1.506,1.188
		c-0.146,0.115-0.331,0.264-0.551,0.447l0.086,0.012c0.496,0.01,0.761,0.018,0.789,0.02l0.32,0.043l0.504,0.021l0.231,0.016
		c0.146,0.01,0.6,0.027,1.358,0.053c0.104,0.002,0.301,0,0.59-0.006s0.543-0.002,0.76,0.014c0.394,0.025,0.624,0.018,0.691-0.025
		c0.047-0.029,0.107-0.178,0.176-0.445c0.006-0.064,0.023-0.164,0.051-0.299c0.018-0.16,0.033-0.254,0.047-0.281
		c0.012-0.029,0.043-0.055,0.096-0.08c0.057,0.01,0.109,0.029,0.157,0.059c0.022,0.098,0.03,0.193,0.024,0.287
		c-0.006,0.1-0.027,0.223-0.063,0.369s-0.057,0.279-0.064,0.398c-0.01,0.162-0.016,0.42-0.018,0.768
		c0.002,0.197,0,0.334-0.006,0.408l-0.006,0.092l-0.164-0.021c-0.021-0.059-0.033-0.139-0.031-0.24
		c0.001-0.1-0.008-0.193-0.027-0.281c-0.031-0.131-0.06-0.209-0.086-0.236c-0.088-0.092-0.18-0.141-0.275-0.148l-1.698-0.053
		l-0.78-0.008l-0.225-0.02l-1.078-0.039c-0.738-0.027-1.378-0.059-1.922-0.094c-0.118-0.008-0.373-0.031-0.765-0.072l-0.005-0.252
		c0.15-0.115,0.63-0.516,1.436-1.203c0.186-0.16,0.316-0.268,0.393-0.324l0.563-0.426c0.207-0.166,0.34-0.273,0.396-0.324
		c0.058-0.049,0.1-0.086,0.127-0.109c0.469-0.361,1.055-0.83,1.76-1.408c0.19-0.156,0.484-0.385,0.886-0.686
		c0.253-0.188,0.407-0.307,0.466-0.355c0.055-0.051,0.121-0.119,0.195-0.209l-0.182-0.027c-0.695-0.047-1.658-0.092-2.886-0.137
		l-1.776-0.078c-0.15-0.008-0.297-0.008-0.437-0.002l-0.055,0.184c-0.054,0.338-0.126,0.668-0.212,0.994
		c-0.022,0.023-0.039,0.043-0.051,0.061l-0.205-0.02c-0.014-0.059-0.02-0.105-0.016-0.141c0.002-0.039,0.008-0.088,0.02-0.145
		c0.051-0.352,0.095-0.781,0.127-1.289c0.023-0.357,0.035-0.672,0.035-0.943l0.001-0.076c0.003-0.031,0.009-0.078,0.02-0.139
		l0.16,0.004l0.056,0.145l0.021,0.254c0.019,0.229,0.043,0.395,0.075,0.5c0.021,0.07,0.055,0.129,0.102,0.174
		c0.244,0.057,0.604,0.1,1.079,0.131c0.222,0.014,0.628,0.035,1.218,0.064l0.729,0.047l1.523,0.09c0.68,0.037,1.08,0.041,1.203,0.01
		c0.066-0.018,0.128-0.059,0.182-0.123c0.105-0.129,0.178-0.303,0.217-0.521C170.698,96.433,170.728,96.292,170.751,96.228z"/>
	<path d="M163.796,104.106c0.02,0.055,0.025,0.1,0.018,0.139l-0.021,0.121c-0.004,0.025-0.01,0.068-0.018,0.129
		c-0.025,0.275-0.029,0.441-0.014,0.494c0.045,0.135,0.142,0.262,0.291,0.381c0.326,0.248,0.799,0.547,1.414,0.895
		c0.295,0.168,0.472,0.27,0.534,0.311c0.195,0.127,0.401,0.252,0.62,0.375l1.301,0.75c0.203,0.117,0.669,0.395,1.398,0.832
		c0.184,0.109,0.43,0.248,0.742,0.414l-0.018,0.156l-0.037,0.184c-0.328,0.098-0.674,0.174-1.041,0.227
		c-0.194,0.029-0.486,0.084-0.875,0.162l-2.318,0.408l-1.256,0.213c-0.711,0.104-1.148,0.178-1.314,0.221s-0.279,0.09-0.34,0.139
		c-0.018,0.016-0.051,0.078-0.1,0.188s-0.084,0.186-0.107,0.229c-0.075,0.154-0.135,0.26-0.177,0.318
		c-0.042,0.006-0.073,0.008-0.095,0.004c-0.017-0.002-0.043-0.014-0.076-0.029c0.017-0.113,0.029-0.193,0.038-0.24
		c0.032-0.178,0.097-0.494,0.189-0.947l0.106-0.527l0.109-0.641c0.008-0.041,0.018-0.084,0.029-0.127
		c0.012-0.045,0.021-0.082,0.026-0.113l0.022-0.117c0.01-0.037,0.025-0.07,0.051-0.1c0.049,0.01,0.095,0.027,0.137,0.053
		c0.014,0.047,0.02,0.088,0.016,0.123l-0.063,0.561c-0.019,0.146-0.02,0.26-0.001,0.34c0.06,0.031,0.105,0.051,0.137,0.057
		c0.064,0.012,0.236-0.004,0.518-0.047c0.188-0.031,0.365-0.057,0.533-0.076c0.168-0.018,0.724-0.111,1.67-0.277
		c0.051-0.139,0.086-0.264,0.105-0.373l0.195-1.133l0.066-0.332c0.02-0.119,0.035-0.254,0.045-0.402
		c-0.098-0.064-0.168-0.107-0.211-0.131l-1.369-0.729c-0.518-0.299-0.803-0.453-0.86-0.463c-0.032-0.006-0.087,0.002-0.167,0.02
		c-0.035,0.068-0.071,0.164-0.112,0.285l-0.194,0.707c-0.038,0.033-0.07,0.047-0.094,0.043c-0.018-0.004-0.043-0.014-0.076-0.031
		c0.024-0.158,0.045-0.281,0.061-0.365c0.051-0.281,0.119-0.607,0.205-0.977c0.037-0.172,0.064-0.295,0.077-0.369
		s0.034-0.203,0.06-0.387c0.014-0.123,0.027-0.209,0.037-0.262c0.016-0.084,0.039-0.193,0.075-0.326l0.032,0.008
		C163.724,104.071,163.757,104.085,163.796,104.106z M166.509,107.204c-0.09,0.373-0.178,0.801-0.267,1.283
		c-0.05,0.275-0.085,0.518-0.104,0.729c0.144-0.01,0.279-0.027,0.408-0.051c0.654-0.117,1.014-0.184,1.082-0.195l1.309-0.26
		l0.104-0.035c-0.039-0.029-0.206-0.139-0.503-0.332c-0.508-0.324-0.906-0.564-1.194-0.721c-0.13-0.07-0.258-0.143-0.384-0.217
		c-0.127-0.074-0.217-0.121-0.268-0.145c-0.053-0.021-0.104-0.051-0.156-0.084L166.509,107.204z"/>
	<path d="M162.202,111.536c0.051,0.02,0.092,0.047,0.127,0.082c-0.004,0.289-0.031,0.564-0.08,0.826
		c-0.035,0.172-0.027,0.293,0.021,0.357c0.034,0.049,0.194,0.117,0.478,0.205l1.354,0.428l0.928,0.26l1.207,0.354l0.32,0.092
		c0.725,0.211,1.18,0.338,1.361,0.379c0.036,0.006,0.088,0.006,0.157,0c0.066-0.078,0.116-0.146,0.147-0.203
		c0.031-0.055,0.159-0.311,0.382-0.768c0.04,0.008,0.067,0.014,0.085,0.018c0.021,0.006,0.047,0.016,0.08,0.029
		c-0.019,0.066-0.053,0.172-0.103,0.318l-0.255,0.777l-0.143,0.451l-0.031,0.137c-0.006,0.018-0.023,0.066-0.055,0.146
		c-0.059,0.203-0.091,0.32-0.096,0.354l-0.088,0.422c-0.08,0.279-0.142,0.475-0.186,0.586c-0.06-0.021-0.124-0.053-0.19-0.094
		c0.005-0.041,0.047-0.223,0.127-0.547c0.079-0.322,0.112-0.512,0.099-0.568c-0.021-0.092-0.148-0.172-0.379-0.236
		c-0.055-0.018-0.166-0.053-0.334-0.107l-0.309-0.09l-0.956-0.268l-0.325-0.094l-1.713-0.48l-1.451-0.434l-0.322-0.086
		c-0.102-0.029-0.171-0.031-0.205-0.004c-0.027,0.086-0.104,0.338-0.229,0.756l-0.1,0.352l-0.226,0.902
		c-0.062,0.236-0.086,0.41-0.074,0.52c0.011,0.111,0.079,0.313,0.204,0.602c0.084,0.176,0.18,0.324,0.287,0.441
		c0.023,0.023,0.057,0.064,0.1,0.123c0.07,0.09,0.225,0.23,0.461,0.416l-0.049,0.17c-0.118-0.055-0.229-0.111-0.332-0.168
		c-0.457-0.238-0.841-0.424-1.152-0.553c-0.068-0.027-0.13-0.053-0.187-0.076l0.61-1.914c0.477-1.66,0.743-2.648,0.803-2.967
		c0.02-0.1,0.045-0.201,0.076-0.309L162.202,111.536z"/>
</g>
<g>
	<path d="M81.476,164.667c0.074-0.377,0.245-1.25,0.188-1.592c-0.074-0.43-0.557-0.523-0.935-0.598l0.054-0.268
		c0.563,0.121,1.124,0.256,1.687,0.379c0.604,0.105,1.198,0.197,1.789,0.299l-0.053,0.27c-0.377-0.072-0.86-0.168-1.092,0.203
		c-0.18,0.295-0.352,1.168-0.426,1.543l-0.65,3.324c-0.074,0.377-0.244,1.248-0.188,1.59c0.074,0.43,0.558,0.525,0.935,0.6
		l-0.054,0.27c-0.55-0.119-1.124-0.256-1.687-0.379c-0.592-0.104-1.197-0.197-1.789-0.301l0.053-0.271
		c0.378,0.074,0.861,0.17,1.093-0.201c0.18-0.295,0.351-1.168,0.425-1.545L81.476,164.667z"/>
	<path d="M92.275,165.688l-0.274-0.025c-0.097-0.525-0.169-1.039-0.687-1.316c-0.493-0.273-1.176-0.324-1.749-0.377
		c-0.479-0.043-0.702-0.088-0.854-0.018c-0.076,0.041-0.12,0.254-0.152,0.6l-0.245,2.678c1.63,0.223,1.93-0.414,2.081-1.268
		l0.273,0.027c-0.062,0.535-0.123,1.084-0.197,1.619c-0.021,0.492-0.055,0.996-0.087,1.486l-0.275-0.025
		c-0.053-1.271-0.684-1.354-1.83-1.457l-0.14,1.504c-0.033,0.371-0.114,1.256-0.024,1.59c0.135,0.494,0.73,0.451,1.145,0.514
		l-0.024,0.275c-0.608-0.068-1.228-0.148-1.836-0.217c-0.61-0.045-1.209-0.074-1.844-0.121l0.025-0.275
		c0.382,0.035,0.871,0.08,1.064-0.311c0.149-0.313,0.23-1.197,0.266-1.58l0.31-3.369c0.034-0.383,0.115-1.268,0.026-1.6
		c-0.118-0.422-0.607-0.467-0.989-0.502l0.024-0.273c0.728,0.08,1.43,0.168,2.135,0.244c1.278,0.107,2.56,0.199,3.84,0.305
		L92.275,165.688z"/>
	<path d="M95.51,166.179c-0.018-0.383-0.057-1.27-0.178-1.59c-0.151-0.414-0.654-0.379-1.038-0.361l-0.012-0.305
		c0.491-0.01,1.008-0.01,1.512-0.02c0.646-0.041,1.293-0.092,1.938-0.129c2.527-0.158,4.516,1.34,4.629,3.939
		c0.113,2.541-1.496,3.932-3.967,3.98c-0.709,0.02-1.428,0.027-2.135,0.047c-0.551,0.037-1.09,0.084-1.629,0.119l-0.011-0.275
		c0.383-0.016,0.887-0.039,1-0.451c0.094-0.33,0.055-1.217,0.038-1.6L95.51,166.179z M96.9,169.647
		c0.018,0.408-0.006,0.984,0.248,1.322c0.295,0.395,0.908,0.416,1.363,0.396c2.098-0.094,2.438-1.621,2.361-3.395
		c-0.105-2.373-0.859-3.973-3.426-3.859c-0.143,0.006-0.611,0.002-0.715,0.115c-0.068,0.074-0.061,0.279-0.057,0.375L96.9,169.647z"
		/>
	<path d="M107.89,168.39c0.072,0.379,0.236,1.25,0.412,1.547c0.252,0.43,0.791,0.242,1.207,0.189l0.053,0.271
		c-0.615,0.102-1.234,0.193-1.85,0.297c-0.574,0.121-1.137,0.25-1.725,0.373l-0.051-0.271c0.377-0.072,0.873-0.164,0.926-0.59
		c0.047-0.338-0.117-1.211-0.188-1.588l-0.621-3.314c-0.072-0.391-0.236-1.262-0.402-1.561c-0.219-0.387-0.701-0.285-1.078-0.213
		l-0.051-0.271c0.604-0.102,1.197-0.188,1.791-0.287c0.563-0.117,1.113-0.244,1.676-0.363c1.283-0.191,2.816,0.033,3.098,1.531
		c0.322,1.723-1.264,2.447-2.668,2.711c-0.211,0.039-0.75,0.104-0.797,0.111L107.89,168.39z M107.564,166.644
		c0.227-0.029,0.469-0.039,0.693-0.08c1.215-0.229,1.719-0.859,1.479-2.133c-0.213-1.145-0.867-1.633-2.012-1.418
		c-0.141,0.025-0.613,0.115-0.717,0.207c-0.082,0.076-0.049,0.205,0.008,0.498L107.564,166.644z"/>
</g>
<path d="M85.482,141.731c-0.346-0.512-1.057-0.586-2-0.018c-0.941,0.566-1.49,2.127-1.486,2.133c-0.008,0.01,1.74,0.436,2.707-0.203
	C85.661,143.021,85.822,142.239,85.482,141.731z"/>
<path d="M108.94,141.714c-0.943-0.568-1.654-0.494-2,0.018c-0.34,0.508-0.18,1.289,0.779,1.912c0.967,0.639,2.717,0.213,2.707,0.203
	C110.43,143.841,109.883,142.28,108.94,141.714z"/>
<g>
	<path d="M131.807,76.33c-8.947,0-14.434-4.415-19.736-8.686c-4.826-3.886-9.387-7.557-15.984-7.557
		c-6.599,0-11.161,3.671-15.991,7.559c-5.302,4.27-10.788,8.684-19.731,8.684c-1.047,0-2.137-0.061-3.236-0.182l-2.455-0.27
		l0.607,2.393c11.57,45.585,38.903,59.241,40.063,59.8l0.822,0.396l0.787-0.461c1.232-0.721,30.275-18.139,39.943-59.77l0.547-2.353
		l-2.4,0.264C133.942,76.27,132.854,76.33,131.807,76.33z M96.018,134.546c-4.501-2.576-26.457-16.84-36.813-54.813
		c0.391,0.015,0.775,0.021,1.158,0.021c10.15,0,16.382-5.016,21.878-9.44c4.535-3.649,8.451-6.802,13.845-6.802
		c5.391,0,9.305,3.151,13.838,6.801c5.498,4.426,11.729,9.441,21.883,9.441c0.395,0,0.797-0.008,1.199-0.023
		C124.1,114.556,100.643,131.495,96.018,134.546z"/>
	<path d="M108.106,72.477c-4.764-3.836-7.896-6.187-12.094-6.187c-4.204,0-7.337,2.351-12.101,6.187
		c-4.832,3.89-10.843,8.729-19.745,9.822l-1.363,0.168l0.414,1.31c5.781,18.26,14.245,29.85,20.327,36.354
		c3.586,3.836,8.52,8.82,11.665,10.799l0.641,0.4l0.619-0.432c2.635-1.838,7.092-6.125,12.545-12.07
		c9.104-9.932,15.799-21.723,19.896-35.047l0.4-1.307l-1.357-0.162C118.996,81.243,112.959,76.382,108.106,72.477z M107.33,117.284
		c-4.848,5.287-8.992,9.332-11.543,11.283c-2.356-1.67-6.067-5.176-10.577-9.996c-5.779-6.18-13.769-17.088-19.403-34.204
		c8.793-1.463,14.722-6.238,19.534-10.113c4.377-3.522,7.234-5.682,10.671-5.682c3.432,0,6.287,2.159,10.662,5.682
		c4.836,3.893,10.799,8.692,19.65,10.133C122.297,96.86,115.912,107.923,107.33,117.284z"/>
	<path d="M85.648,140.812c0.49-0.369,0.523-1.154,0.014-2.057c-0.51-0.891-1.766-1.291-1.77-1.299
		c0.008-0.002-0.453,1.604,0.037,2.555C84.421,140.958,85.167,141.179,85.648,140.812z"/>
	<path d="M91.849,141.161c-0.168,0.012-0.342,0.025-0.514,0.035c-1.221,0.07-1.887-0.813-2.459-1.648
		c-0.074-0.139-0.166-0.279-0.275-0.42c-0.635-0.814-1.951-1.043-1.955-1.053c0.004,0-0.176,1.258,0.193,2.166
		c0.178,0.447,0.428,0.863,0.715,0.893c0.236,0.021,0.477,0.041,0.713,0.057c0.506,0.033,0.541,0.439,0.541,0.439
		s-0.07,0.412-0.596,0.381c-0.246-0.018-0.49-0.037-0.738-0.061c-0.295-0.029-0.637,0.314-0.953,0.701
		c-0.645,0.77-0.898,2.008-0.895,2.01c-0.008,0.014,1.803,0.203,2.688-0.561c0.15-0.129,0.275-0.26,0.381-0.389
		c0.766-0.785,1.447-1.625,2.691-1.695c0.178-0.012,0.357-0.023,0.533-0.039c0.537-0.047,0.545-0.467,0.545-0.465
		C92.464,141.511,92.366,141.114,91.849,141.161z"/>
	<path d="M73.688,136.11c-0.01-0.23-0.102-0.432-0.268-0.598c-0.27-0.271-0.748-0.432-1.436-0.422
		c-1.1,0.01-2.363,1.076-2.363,1.082l0.006,0.002c-0.014,0.008,1.273,1.258,2.422,1.189
		C73.184,137.308,73.717,136.718,73.688,136.11z"/>
	<path d="M76.316,138.089c-0.115-0.605-0.729-0.943-1.813-0.781c-1.086,0.16-2.195,1.385-2.193,1.389
		c-0.014,0.006,1.422,1.07,2.549,0.852C75.973,139.337,76.421,138.685,76.316,138.089z"/>
	<path d="M76.827,137.306c0.586-0.152,0.926-0.861,0.818-1.885c-0.115-1.014-1.107-1.863-1.104-1.875
		c0.004,0.002-1.042,1.303-0.966,2.365C75.658,136.976,76.245,137.46,76.827,137.306z"/>
	<path d="M79.185,139.702c-0.193-0.584-0.85-0.84-1.904-0.535c-1.051,0.301-1.987,1.662-1.983,1.666
		c-0.014,0.012,1.546,0.873,2.634,0.508C79.011,140.987,79.37,140.28,79.185,139.702z"/>
	<path d="M79.585,138.856c0.566-0.227,0.807-0.977,0.564-1.975c-0.246-0.99-1.342-1.701-1.342-1.711
		c0.004,0-0.863,1.428-0.646,2.471C78.382,138.685,79.034,139.085,79.585,138.856z"/>
	<path d="M69.44,128.825c-0.334,1.029,0.029,1.717,0.627,1.809c0.607,0.098,1.193-0.424,1.486-1.42
		c0.285-0.986-0.313-2.191-0.307-2.203C71.252,127.015,69.776,127.8,69.44,128.825z"/>
	<path d="M69.289,131.155c0.127-0.605-0.314-1.172-1.387-1.465c-1.068-0.299-2.572,0.389-2.572,0.393
		c-0.014,0.006,0.912,1.59,2.043,1.842C68.489,132.179,69.16,131.755,69.289,131.155z"/>
	<path d="M68.397,128.755c0.555-0.303,0.732-1.021,0.311-1.955c-0.418-0.914-1.863-1.631-1.869-1.648
		c-0.004-0.014-0.686,1.523-0.207,2.576C67.098,128.771,67.846,129.054,68.397,128.755z"/>
	<path d="M82.54,140.034c0.533-0.301,0.672-1.072,0.293-2.035c-0.379-0.947-1.564-1.508-1.564-1.518
		c0.006,0-0.666,1.527-0.311,2.533C81.318,140.021,82.019,140.335,82.54,140.034z"/>
	<path d="M71.33,133.794c0.049-0.617-0.459-1.113-1.557-1.25c-1.094-0.141-2.49,0.746-2.488,0.754
		c-0.014,0.002,1.104,1.426,2.252,1.516C70.674,134.911,71.281,134.399,71.33,133.794z"/>
	<path d="M73.684,135.226c0.174,0.145,0.391,0.205,0.615,0.178c0.604-0.072,1.033-0.73,1.061-1.76c0.02-1.02-0.855-2-0.852-2.008
		c-0.002,0-0.004-0.006-0.004-0.006c0.004,0.004-1.207,1.154-1.268,2.219C73.198,134.513,73.391,134.985,73.684,135.226z"/>
	<path d="M71.178,131.483c-0.197,1.053,0.252,1.684,0.854,1.688c0.609,0.012,1.123-0.584,1.281-1.605
		c0.156-1.008-0.586-2.105-0.584-2.117C72.735,129.452,71.381,130.429,71.178,131.483z"/>
	<path d="M82.253,140.925c-0.271-0.555-0.959-0.723-1.963-0.281c-1.01,0.439-1.754,1.912-1.752,1.916
		c-0.012,0.01,1.656,0.66,2.688,0.158C82.253,142.224,82.517,141.474,82.253,140.925z"/>
	<path d="M112.131,140.644c-1.004-0.441-1.691-0.273-1.963,0.281c-0.264,0.549,0,1.299,1.027,1.793
		c1.033,0.502,2.699-0.148,2.688-0.158C113.887,142.556,113.141,141.083,112.131,140.644z"/>
	<path d="M122.356,130.634c0.6-0.092,0.961-0.779,0.629-1.809c-0.336-1.025-1.813-1.811-1.809-1.814
		c0.008,0.012-0.59,1.217-0.307,2.203C121.164,130.21,121.75,130.731,122.356,130.634z"/>
	<path d="M114.262,137.642c0.215-1.043-0.652-2.471-0.646-2.471c0,0.01-1.098,0.721-1.342,1.711
		c-0.244,0.998-0.004,1.748,0.563,1.975C113.387,139.085,114.039,138.685,114.262,137.642z"/>
	<path d="M104.948,141.95c-0.246,0.023-0.49,0.043-0.738,0.061c-0.525,0.031-0.596-0.381-0.596-0.381s0.035-0.406,0.539-0.439
		c0.24-0.016,0.48-0.035,0.715-0.057c0.287-0.029,0.537-0.445,0.715-0.893c0.369-0.908,0.189-2.166,0.193-2.166
		c-0.004,0.01-1.318,0.238-1.955,1.053c-0.109,0.141-0.199,0.281-0.275,0.42c-0.572,0.836-1.236,1.719-2.459,1.648
		c-0.17-0.01-0.344-0.023-0.514-0.035c-0.518-0.047-0.617,0.35-0.613,0.352c-0.004-0.002,0.008,0.418,0.543,0.465
		c0.18,0.016,0.355,0.027,0.533,0.039c1.244,0.07,1.924,0.91,2.693,1.695c0.104,0.129,0.229,0.26,0.381,0.389
		c0.883,0.764,2.693,0.574,2.688,0.561c0.002-0.002-0.254-1.24-0.896-2.01C105.584,142.265,105.24,141.921,104.948,141.95z"/>
	<path d="M115.141,139.167c-1.053-0.305-1.711-0.049-1.902,0.535c-0.188,0.578,0.172,1.285,1.252,1.639
		c1.088,0.365,2.65-0.496,2.637-0.508C117.131,140.829,116.194,139.468,115.141,139.167z"/>
	<path d="M108.494,140.011c0.488-0.951,0.027-2.557,0.033-2.555c0,0.008-1.26,0.408-1.768,1.299
		c-0.508,0.902-0.477,1.688,0.014,2.057C107.254,141.179,107.998,140.958,108.494,140.011z"/>
	<path d="M111.465,139.015c0.354-1.006-0.316-2.533-0.313-2.533c0,0.01-1.182,0.57-1.563,1.518c-0.381,0.963-0.24,1.734,0.291,2.035
		C110.403,140.335,111.104,140.021,111.465,139.015z"/>
	<path d="M115.596,137.306c0.58,0.154,1.17-0.33,1.25-1.395c0.08-1.063-0.969-2.363-0.965-2.365c0.002,0.012-0.99,0.861-1.105,1.875
		C114.67,136.444,115.008,137.153,115.596,137.306z"/>
	<path d="M124.52,129.69c-1.07,0.293-1.512,0.859-1.385,1.465c0.127,0.6,0.799,1.023,1.914,0.77
		c1.133-0.252,2.059-1.836,2.045-1.842C127.094,130.079,125.592,129.392,124.52,129.69z"/>
	<path d="M122.649,132.544c-1.096,0.137-1.605,0.633-1.555,1.25c0.049,0.605,0.656,1.117,1.793,1.02
		c1.148-0.09,2.264-1.514,2.252-1.516C125.141,133.29,123.742,132.403,122.649,132.544z"/>
	<path d="M117.918,131.636c0.002,0.008-0.875,0.988-0.854,2.008c0.027,1.029,0.457,1.688,1.061,1.76
		c0.225,0.027,0.439-0.033,0.613-0.178c0.295-0.24,0.488-0.713,0.449-1.377c-0.061-1.064-1.273-2.215-1.268-2.219L117.918,131.636z"
		/>
	<path d="M119.002,135.513c-0.164,0.166-0.256,0.367-0.268,0.598c-0.029,0.607,0.506,1.197,1.643,1.254
		c1.146,0.068,2.434-1.182,2.42-1.189l0.002-0.002c0.004-0.006-1.262-1.072-2.359-1.082
		C119.75,135.081,119.272,135.241,119.002,135.513z"/>
	<path d="M117.922,137.308c-1.084-0.162-1.701,0.176-1.816,0.781c-0.107,0.596,0.346,1.248,1.459,1.459
		c1.129,0.219,2.561-0.846,2.549-0.852C120.117,138.692,119.008,137.468,117.922,137.308z"/>
	<path d="M125.793,127.728c0.479-1.053-0.201-2.59-0.209-2.576c-0.004,0.018-1.451,0.734-1.867,1.648
		c-0.422,0.934-0.244,1.652,0.311,1.955C124.576,129.054,125.326,128.771,125.793,127.728z"/>
	<path d="M119.696,129.448c0.002,0.012-0.74,1.109-0.586,2.117c0.16,1.021,0.672,1.617,1.283,1.605
		c0.602-0.004,1.051-0.635,0.854-1.688C121.043,130.429,119.69,129.452,119.696,129.448z"/>
	<g>
		<g>
			<path d="M85.462,95.956c-0.773,0-1.542-0.139-2.276-0.419c-1.561-0.594-2.821-1.789-3.462-3.277
				c-1.032-2.4,0.109-5.184,2.714-6.619c1.459-0.803,2.998-1.08,4.27-0.773c0.128,0.001,0.243,0.021,0.362,0.068
				c3.901,1.571,4.542,3.99,4.576,5.292c0.056,2.053-1.313,4.143-3.326,5.083C87.398,95.74,86.426,95.956,85.462,95.956z
				 M85.63,86.657c-0.687,0-1.478,0.228-2.268,0.663c-1.951,1.074-2.422,2.917-1.878,4.183c0.437,1.015,1.305,1.833,2.384,2.244
				c1.16,0.442,2.453,0.381,3.641-0.173c1.322-0.617,2.257-2.003,2.222-3.295c-0.008-0.295-0.064-0.582-0.168-0.86
				c-0.026,0.143-0.061,0.283-0.104,0.423c-0.33,1.088-1.115,1.982-2.155,2.452c-1.131,0.514-2.182,0.6-3.039,0.251
				c-0.668-0.272-1.169-0.79-1.445-1.499c-0.308-0.79-0.164-1.663,0.384-2.336c0.597-0.731,1.915-1.046,2.79-0.898
				c0,0-0.017,0.228-0.104,0.75c-0.089,0.521-0.229,1.063-0.229,1.063s-0.709-0.146-0.971,0.296
				c-0.138,0.231-0.108,0.369-0.085,0.43c0.11,0.281,0.271,0.375,0.383,0.42c0.347,0.142,0.904,0.062,1.526-0.221
				c0.529-0.239,0.944-0.711,1.112-1.264c0.118-0.39,0.17-0.996-0.254-1.679c-0.016-0.024-0.03-0.05-0.043-0.075
				c-0.188-0.373-0.505-0.631-0.941-0.767C86.156,86.692,85.901,86.657,85.63,86.657z"/>
		</g>
		<g>
			<path d="M95.214,100.918c-0.773,0-1.543-0.14-2.277-0.419c-1.56-0.595-2.821-1.789-3.461-3.277
				c-1.033-2.4,0.108-5.185,2.714-6.618c1.458-0.805,2.997-1.082,4.271-0.775c0.002,0,0.002,0,0.004,0
				c0.119,0,0.24,0.022,0.357,0.069c3.9,1.571,4.541,3.99,4.576,5.292c0.056,2.053-1.313,4.143-3.327,5.083
				C97.15,100.702,96.178,100.918,95.214,100.918z M95.381,91.619c-0.687,0-1.478,0.227-2.268,0.662
				c-1.952,1.074-2.422,2.918-1.878,4.184c0.437,1.015,1.305,1.832,2.384,2.243c1.161,0.443,2.454,0.381,3.641-0.172
				c1.322-0.617,2.257-2.004,2.222-3.295c-0.008-0.295-0.064-0.582-0.168-0.861c-0.025,0.143-0.061,0.283-0.103,0.424
				c-0.331,1.088-1.116,1.982-2.156,2.453c-1.132,0.512-2.183,0.598-3.04,0.249c-0.668-0.272-1.168-0.79-1.444-1.499
				c-0.308-0.789-0.164-1.662,0.384-2.335c0.596-0.732,1.545-1.111,2.426-0.96c0.299,0.051,1.018,0.36,1.018,0.36l-0.233,0.744
				l-0.337,0.839c0,0-0.346-0.117-0.734-0.156c-0.197-0.02-0.531,0.063-0.652,0.382c-0.096,0.253-0.107,0.369-0.084,0.43
				c0.109,0.282,0.271,0.375,0.382,0.421c0.347,0.141,0.903,0.061,1.526-0.221c0.529-0.239,0.944-0.712,1.113-1.264
				c0.117-0.39,0.17-0.997-0.256-1.679c-0.015-0.024-0.028-0.051-0.041-0.076c-0.188-0.373-0.506-0.631-0.943-0.766
				C95.907,91.654,95.652,91.619,95.381,91.619z"/>
		</g>
		<g>
			<path d="M95.279,89.382c-0.867,0-1.74-0.195-2.568-0.581c-1.816-0.847-3.05-2.734-3.001-4.59
				c0.031-1.177,0.607-3.361,4.108-4.771c0.115-0.047,0.232-0.069,0.35-0.07c1.146-0.271,2.527-0.021,3.834,0.698
				c2.35,1.294,3.378,3.811,2.443,5.983c-0.576,1.341-1.713,2.417-3.117,2.952C96.666,89.256,95.974,89.382,95.279,89.382z
				 M91.656,83.948c-0.017,0.104-0.027,0.209-0.03,0.314c-0.029,1.098,0.768,2.275,1.895,2.802c1.021,0.476,2.13,0.528,3.125,0.148
				c0.923-0.352,1.667-1.051,2.04-1.918c0.459-1.07,0.055-2.633-1.608-3.549c-0.932-0.513-1.896-0.692-2.581-0.48
				c-0.355,0.111-0.612,0.318-0.764,0.621c-0.013,0.025-0.027,0.05-0.043,0.074c-0.352,0.566-0.31,1.067-0.212,1.389
				c0.139,0.457,0.483,0.848,0.92,1.045c0.515,0.233,0.983,0.305,1.258,0.193c0.086-0.035,0.194-0.102,0.274-0.309
				c0.019-0.046,0.053-0.132-0.057-0.267c-0.124-0.152-0.326-0.228-0.438-0.206c-0.232,0.039-0.467,0.052-0.467,0.052
				s-0.053-0.325-0.219-0.828c-0.084-0.251-0.266-0.859-0.266-0.859s0.369-0.21,0.63-0.254c0.814-0.14,1.694,0.21,2.245,0.887
				c0.51,0.625,0.643,1.438,0.355,2.173c-0.254,0.653-0.717,1.133-1.336,1.386c-0.785,0.321-1.744,0.243-2.772-0.222
				C92.673,85.719,91.965,84.921,91.656,83.948z"/>
		</g>
		<g>
			<path d="M104.966,95.956c-0.774,0-1.543-0.139-2.277-0.419c-1.561-0.594-2.821-1.788-3.461-3.277
				c-1.033-2.399,0.108-5.184,2.713-6.619c1.459-0.803,2.999-1.08,4.27-0.773c0.104,0.001,0.244,0.021,0.363,0.068
				c3.9,1.571,4.541,3.99,4.576,5.292c0.055,2.054-1.313,4.143-3.328,5.083C106.9,95.74,105.929,95.956,104.966,95.956z
				 M105.132,86.657c-0.686,0-1.477,0.228-2.267,0.663c-1.952,1.074-2.422,2.917-1.878,4.183c0.437,1.015,1.306,1.833,2.384,2.244
				c1.16,0.441,2.452,0.381,3.64-0.173c1.322-0.617,2.258-2.003,2.223-3.295c-0.008-0.295-0.064-0.582-0.168-0.86
				c-0.025,0.143-0.061,0.283-0.103,0.423c-0.331,1.088-1.116,1.982-2.155,2.452c-1.132,0.514-2.182,0.6-3.039,0.251
				c-0.67-0.272-1.17-0.79-1.446-1.499c-0.308-0.789-0.165-1.662,0.384-2.336c0.596-0.731,1.545-1.109,2.426-0.96
				c0,0-0.043,0.434-0.132,0.956c-0.088,0.521-0.189,0.934-0.189,0.934c-0.191-0.033-0.464,0.09-0.618,0.28
				c-0.17,0.209-0.108,0.369-0.085,0.43c0.11,0.281,0.272,0.375,0.384,0.42c0.347,0.142,0.902,0.062,1.525-0.221
				c0.529-0.239,0.945-0.711,1.112-1.264c0.118-0.39,0.17-0.996-0.254-1.679c-0.016-0.024-0.03-0.05-0.042-0.075
				c-0.188-0.373-0.505-0.631-0.942-0.767C105.658,86.692,105.404,86.657,105.132,86.657z"/>
		</g>
		<g>
			<path d="M96.212,109.723h-0.932c-2.912,0-5.253-0.918-6.958-2.727c-3.12-3.308-2.95-8.414-2.926-8.904v-2.86
				c0-0.529,0.43-0.959,0.959-0.959c0.528,0,0.958,0.43,0.958,0.959v2.885c0,0.02-0.001,0.037-0.002,0.057
				c-0.003,0.045-0.231,4.723,2.411,7.517c1.329,1.405,3.198,2.116,5.558,2.116h0.932c2.358,0,4.228-0.711,5.557-2.116
				c2.643-2.794,2.414-7.472,2.411-7.519c-0.001-0.018-0.001-0.036-0.001-0.055v-2.885c0-0.529,0.43-0.959,0.958-0.959
				s0.958,0.43,0.958,0.959v2.86c0.024,0.49,0.194,5.597-2.926,8.904C101.464,108.805,99.123,109.723,96.212,109.723z"/>
		</g>
		<g>
			<path d="M103.328,114.454c-0.001,0-0.005,0-0.009,0H88.191c-0.265,0-0.958,0-0.958,0s0-0.693,0-0.958
				c0-3.096,2.519-5.612,5.613-5.612h5.818c3.045,0,5.532,2.438,5.611,5.463c0.008,0.049,0.011,0.099,0.011,0.149
				c0,0.246,0,0.958,0,0.958S103.613,114.454,103.328,114.454z M89.276,112.538h12.96c-0.424-1.575-1.864-2.738-3.571-2.738h-5.818
				C91.139,109.8,89.698,110.963,89.276,112.538z"/>
		</g>
	</g>
	<path d="M91.657,90.104c-1.531-4.636-7.994-8.497-8.06-8.536l1.018-1.722c0.292,0.173,7.177,4.29,8.941,9.631L91.657,90.104z"/>
	<path d="M97.519,91.349l-1.088-1.679c4.088-2.646,6.2-9.883,6.221-9.956l1.924,0.55C104.482,80.59,102.24,88.292,97.519,91.349z"/>
	<path d="M96.234,49.841c2.285-1.982,0.766-3.185-0.024-4.151c-0.09-0.111-0.235-0.116-0.327-0.005
		c-1.529,1.854-1.809,2.275-0.029,4.138C95.95,49.924,96.126,49.933,96.234,49.841z"/>
	<path d="M94.797,49.782c0.268,0-0.312-0.514-0.378-0.612c-0.648-0.939,0.131-1.439-1.333-1.439c-0.362,0-1.937,0.501-1.215,0.935
		C92.639,49.126,93.605,49.782,94.797,49.782z"/>
	<path d="M98.38,49.629c0.653-0.184,1.229-0.542,1.804-0.891c0.386-0.233,0.422-0.361,0.029-0.635
		c-0.332-0.234-0.711-0.373-1.125-0.373c-1.424,0-0.841,0.608-1.25,1.313C97.55,49.529,96.547,50.145,98.38,49.629z"/>
	<path d="M83.33,55.718c2.766-1.743,7.404-6,11.043-3.96c2.305,1.262,0.55,5.295-2.296,4.104c-1.758-0.698-0.796-2.602,0.77-1.782
		c1.123,0.588,1.797-1.115,0.71-1.508c-3.562-1.273-5.067,3.013-2.26,4.258c2.192,1.059,3.974,0.001,4.748-1.538
		c0.555,1.063,1.611,1.882,2.98,1.892c0.966,0.038,2.556-0.366,3.062-1.638c0.242-0.576,0.209-1.206,0.01-1.698
		c-0.948-2.422-4.791-1.583-4.014-0.102c0.203,0.386,0.677,0.587,1.164,0.333c1.279-0.67,1.878,0.362,1.661,1.007
		c-0.134,0.394-0.505,0.623-0.89,0.775c-3.19,1.333-4.896-3.743-1.464-4.412c5.866-1.583,10.112,7.115,16.31,5.755
		c4.57-1.165,2.317-6.635-1.611-5.104c-2.38,0.915-1.141,3.714,1.3,2.813c0.29-0.107,0.165-0.548-0.138-0.486
		c-1.532,0.308-2.482-1.153-0.275-1.563c3.735-0.356,3.42,4.309-1.295,3.753c-4.356-0.551-8.216-6.543-13.399-6.238
		c-1.77,0.106-2.846,0.788-3.392,1.68c-0.264-0.456-0.65-0.859-1.212-1.146c-4.275-2.227-9.031,2.31-11.918,4.162
		c-7.499,4.819-9.798-2.672-4.967-2.212c2.194,0.406,1.259,1.871-0.275,1.563c-0.121-0.023-0.244,0.042-0.287,0.161
		c-0.05,0.132,0.019,0.276,0.149,0.326c2.71,1.006,3.861-2.479,0.529-3.01C72.047,51.32,74.323,61.372,83.33,55.718z"/>
	<path d="M60.636,70.63c0.132,0.063,0.271,0.094,0.415,0.094c0.373,0,0.718-0.219,0.88-0.559c0.01-0.021,0.172-0.368,0.202-0.428
		c0.031-0.082,0.239-0.455,0.534-0.826c0.322-0.469,1.151-1.201,2.106-1.688c0.141-0.067,0.18-0.091,0.208-0.107
		c0.049-0.026,0.06-0.032,0.609-0.261c1.178-0.433,2.274-0.496,2.824-0.496c0.411,0,0.782,0.033,1.08,0.098l0.521,0.09
		c0.215,0,0.392-0.158,0.422-0.373c0.006-0.035-0.017-0.062-0.019-0.095l0,0c0.045-0.178-0.037-0.354-0.266-0.475
		c-0.325-0.171-0.634-0.334-0.935-0.585c-2.093-1.626-2.438-4.032-2.155-4.975l0.079-0.349c0.052-0.236,0.004-0.474-0.134-0.668
		c-0.136-0.192-0.35-0.317-0.684-0.354c-0.422,0-0.777,0.317-0.828,0.735c-0.104,0.883-0.11,1.144,0.082,2.158
		c0.415,1.542,1.152,2.679,2.434,3.722l-0.38-0.005c-1.867,0-3.27,0.377-4.839,1.301c-1.523,0.902-2.25,2.123-2.574,2.668
		c-0.141,0.233-0.177,0.518-0.098,0.779C60.201,70.296,60.39,70.513,60.636,70.63z"/>
	<path d="M122.162,66.538c0.006,0,0.467-0.084,0.467-0.084c0.288-0.063,0.659-0.097,1.07-0.097c0.549,0,1.645,0.063,2.814,0.493
		c0.559,0.231,0.568,0.236,0.618,0.264c0.028,0.018,0.07,0.041,0.203,0.104c0.961,0.493,1.789,1.224,2.119,1.705
		c0.288,0.358,0.496,0.731,0.538,0.839c0.016,0.035,0.182,0.379,0.192,0.407c0.159,0.339,0.505,0.555,0.878,0.555
		c0.143,0,0.284-0.03,0.417-0.093c0.247-0.118,0.434-0.335,0.513-0.598c0.08-0.262,0.043-0.547-0.15-0.865
		c-0.276-0.461-1.003-1.682-2.524-2.584c-1.569-0.923-2.967-1.299-4.836-1.299l-0.408,0.006c1.281-1.041,2.046-2.177,2.466-3.739
		c0.189-0.998,0.182-1.258,0.079-2.143c-0.051-0.416-0.399-0.729-0.914-0.729c-0.006,0-0.01,0-0.016,0
		c-0.234,0.028-0.447,0.154-0.583,0.346c-0.14,0.194-0.186,0.432-0.132,0.676l0.082,0.354c0.279,0.928-0.065,3.335-2.167,4.964
		c-0.293,0.245-0.6,0.406-0.991,0.615c-0.165,0.086-0.246,0.261-0.204,0.439c-0.002,0.033-0.022,0.06-0.019,0.094
		C121.707,66.384,121.879,66.538,122.162,66.538z"/>
</g>
</svg>
