<?xml version="1.0" encoding="utf-8"?>
<!-- Generator: Adobe Illustrator 16.0.3, SVG Export Plug-In . SVG Version: 6.00 Build 0)  -->
<!DOCTYPE svg PUBLIC "-//W3C//DTD SVG 1.1//EN" "http://www.w3.org/Graphics/SVG/1.1/DTD/svg11.dtd">
<svg version="1.1" id="Layer_1" xmlns="http://www.w3.org/2000/svg" xmlns:xlink="http://www.w3.org/1999/xlink" x="0px" y="0px"
	 width="191.285px" height="191.285px" viewBox="0 0 191.285 191.285" enable-background="new 0 0 191.285 191.285"
	 xml:space="preserve">
<g>
	<path d="M95.642,10.642c-46.869,0-84.999,38.13-84.999,85c0,46.869,38.13,85,84.999,85s85-38.131,85-85
		C180.643,48.772,142.511,10.642,95.642,10.642z M95.642,179.5c-46.239,0-83.857-37.618-83.857-83.857
		c0-46.24,37.618-83.859,83.857-83.859c46.239,0,83.858,37.619,83.858,83.859C179.5,141.881,141.881,179.5,95.642,179.5z"/>
	<path d="M95.642,12.531c-45.827,0-83.11,37.284-83.11,83.111c0,45.826,37.283,83.111,83.11,83.111s83.111-37.283,83.111-83.111
		C178.752,49.814,141.469,12.531,95.642,12.531z M95.642,176.47c-44.567,0-80.827-36.26-80.827-80.828
		c0-44.569,36.259-80.83,80.827-80.83c44.569,0,80.828,36.26,80.828,80.83C176.47,140.21,140.211,176.47,95.642,176.47z"/>
	<path d="M95.642,31.577c-35.326,0-64.064,28.739-64.064,64.065c0,35.326,28.739,64.066,64.064,64.066
		c35.328,0,64.067-28.74,64.067-64.066C159.709,60.316,130.97,31.577,95.642,31.577z M95.642,158.565
		c-34.696,0-62.923-28.228-62.923-62.924s28.228-62.924,62.923-62.924c34.697,0,62.924,28.228,62.924,62.924
		C158.566,130.338,130.339,158.565,95.642,158.565z"/>
	<path d="M27.059,102.588c0.003,0.311-0.029,0.516-0.096,0.614c-0.065,0.098-0.148,0.151-0.245,0.16
		c-0.123,0.009-0.314-0.029-0.571-0.116l-1.045-0.354l-0.198-2.479l0.89-0.462c0.29-0.149,0.503-0.229,0.642-0.24
		c0.104-0.008,0.197,0.029,0.276,0.114c0.08,0.084,0.136,0.251,0.168,0.507l0.174-0.015l-0.202-2.527l-0.174,0.015
		c0.005,0.264-0.051,0.472-0.167,0.63c-0.115,0.156-0.38,0.34-0.794,0.554l-5.149,2.653l0.015,0.165l5.448,1.833
		c0.479,0.159,0.799,0.313,0.963,0.46c0.082,0.073,0.158,0.242,0.226,0.506l0.175-0.015l-0.161-2.017L27.059,102.588z
		 M22.064,101.866l2.501-1.292l0.175,2.2L22.064,101.866z"/>
	<path d="M20.599,96.683c0.006-0.242,0.081-0.425,0.223-0.543c0.103-0.087,0.355-0.124,0.757-0.113l4.147,0.112
		c0.362,0.01,0.595,0.05,0.697,0.124c0.171,0.118,0.252,0.313,0.246,0.585l-0.007,0.241l0.175,0.004l0.077-2.87
		c0.034-1.247-0.276-2.185-0.928-2.812c-0.586-0.559-1.326-0.851-2.219-0.874c-0.666-0.019-1.257,0.119-1.774,0.409
		c-0.516,0.292-0.89,0.685-1.122,1.179c-0.232,0.495-0.36,1.222-0.385,2.181l-0.07,2.614l0.174,0.004L20.599,96.683z M21.669,92.286
		c0.524-0.47,1.23-0.693,2.117-0.669c0.88,0.023,1.572,0.284,2.073,0.782c0.501,0.496,0.743,1.111,0.723,1.843
		c-0.007,0.272-0.061,0.607-0.16,1.005l-5.46-0.146c-0.082-0.365-0.119-0.69-0.111-0.975C20.874,93.368,21.144,92.754,21.669,92.286
		z"/>
	<path d="M21.928,82.728c-0.088-0.13-0.137-0.31-0.147-0.541l-0.174-0.023l-0.265,1.962l0.174,0.023
		c0.012-0.037,0.019-0.062,0.024-0.078c0.063-0.211,0.143-0.356,0.238-0.437c0.096-0.079,0.189-0.113,0.28-0.1
		c0.14,0.019,0.383,0.127,0.725,0.322l3.483,1.999l-3.95,1.117c-0.352,0.1-0.605,0.139-0.762,0.117
		c-0.112-0.015-0.199-0.071-0.259-0.168s-0.085-0.295-0.074-0.593l-0.173-0.023l-0.351,2.6l0.173,0.023
		c0.042-0.191,0.097-0.341,0.167-0.448c0.07-0.106,0.16-0.192,0.267-0.258c0.069-0.042,0.253-0.105,0.551-0.189l5.81-1.646
		l0.023-0.173l-5.12-2.95C22.273,83.093,22.06,82.915,21.928,82.728z"/>
	<path d="M28.857,77.5c-0.157,0.115-0.465,0.212-0.924,0.292l-5.706,0.993l-0.038,0.162l4.652,3.378
		c0.409,0.294,0.669,0.537,0.781,0.727c0.056,0.093,0.078,0.277,0.064,0.549l0.171,0.039l0.449-1.972l-0.17-0.039
		c-0.091,0.297-0.181,0.483-0.275,0.557c-0.093,0.074-0.188,0.1-0.283,0.079c-0.12-0.026-0.289-0.121-0.508-0.281l-0.892-0.649
		l0.552-2.425l0.987-0.173c0.32-0.056,0.549-0.069,0.685-0.038c0.102,0.023,0.178,0.087,0.229,0.191
		c0.051,0.104,0.054,0.281,0.01,0.534l0.17,0.039l0.564-2.47l-0.171-0.04C29.13,77.203,29.015,77.387,28.857,77.5z M25.869,81.112
		l-2.281-1.667l2.773-0.485L25.869,81.112z"/>
	<path d="M25.823,68.789c-0.118-0.161-0.132-0.37-0.044-0.626l0.075-0.215l-0.166-0.057l-0.731,2.113l0.167,0.057l0.073-0.21
		c0.083-0.239,0.206-0.392,0.369-0.459c0.121-0.052,0.369-0.013,0.742,0.116l3.501,1.21l-5.836,2.137l-0.57,1.648l0.167,0.057
		c0.06-0.176,0.12-0.303,0.176-0.38c0.118-0.157,0.225-0.269,0.322-0.337c0.097-0.068,0.279-0.154,0.545-0.259l4.222,1.46
		c0.341,0.118,0.547,0.226,0.619,0.325c0.118,0.162,0.132,0.372,0.042,0.631l-0.073,0.21l0.166,0.057l0.73-2.113l-0.166-0.057
		l-0.074,0.215c-0.082,0.236-0.205,0.389-0.37,0.459c-0.12,0.049-0.367,0.008-0.74-0.121l-3.738-1.292l6.273-2.313l0.056-0.161
		l-5.118-1.77C26.103,68.997,25.896,68.888,25.823,68.789z"/>
	<path d="M27.886,66.701c0.365,0.488,0.836,0.867,1.418,1.139c0.722,0.337,1.44,0.433,2.157,0.288
		c0.962-0.195,1.669-0.774,2.121-1.739c0.25-0.535,0.347-1.053,0.288-1.554c-0.058-0.501-0.278-1.02-0.659-1.554l-0.147,0.093
		c0.318,0.57,0.491,1.038,0.517,1.403c0.027,0.364-0.049,0.736-0.225,1.113c-0.204,0.434-0.488,0.774-0.852,1.017
		c-0.365,0.243-0.78,0.358-1.245,0.346c-0.465-0.012-0.96-0.141-1.487-0.388c-0.638-0.298-1.129-0.637-1.476-1.017
		c-0.345-0.379-0.543-0.771-0.593-1.175c-0.05-0.404,0.015-0.798,0.196-1.185c0.215-0.46,0.531-0.794,0.945-1.001
		c0.415-0.207,0.959-0.26,1.634-0.162l0.063-0.132l-2.041-0.793l-0.07,0.15c0.123,0.096,0.205,0.199,0.247,0.309
		c0.027,0.083,0.023,0.163-0.014,0.24c-0.023,0.051-0.095,0.123-0.214,0.213c-0.397,0.313-0.694,0.679-0.891,1.099
		c-0.253,0.54-0.352,1.102-0.299,1.683C27.313,65.678,27.522,66.213,27.886,66.701z"/>
	<path d="M29.771,59.688c0.134-0.229,0.286-0.359,0.453-0.393c0.123-0.023,0.36,0.07,0.711,0.277l3.592,2.125
		c0.269,0.159,0.438,0.28,0.506,0.363s0.099,0.181,0.091,0.293c-0.006,0.154-0.048,0.296-0.125,0.427l-0.116,0.195l0.151,0.089
		l2.52-4.26l-1.103-1.296l-0.097,0.164c0.235,0.377,0.388,0.7,0.457,0.968c0.051,0.207,0.056,0.394,0.016,0.561
		s-0.153,0.407-0.338,0.72l-0.554,0.938c-0.091,0.152-0.167,0.247-0.231,0.282c-0.063,0.035-0.127,0.049-0.193,0.039
		s-0.222-0.087-0.466-0.231l-1.822-1.078l0.719-1.215c0.136-0.231,0.265-0.386,0.386-0.465c0.121-0.079,0.242-0.116,0.366-0.108
		c0.099,0.007,0.294,0.071,0.586,0.192l0.088-0.15l-1.924-1.138l-0.089,0.151c0.306,0.203,0.479,0.412,0.52,0.627
		c0.033,0.163-0.045,0.401-0.231,0.717l-0.719,1.214l-2.186-1.292l0.898-1.517c0.163-0.275,0.296-0.455,0.4-0.539
		c0.138-0.102,0.281-0.155,0.431-0.161c0.149-0.005,0.387,0.049,0.711,0.166l0.094-0.16l-1.247-0.655l-2.521,4.261l0.151,0.089
		L29.771,59.688z"/>
	<path d="M33.384,53.715c0.144-0.196,0.308-0.302,0.493-0.319c0.134-0.012,0.362,0.103,0.685,0.34l3.341,2.459
		c0.292,0.215,0.46,0.382,0.502,0.5c0.073,0.195,0.028,0.402-0.132,0.621L38.13,57.51l0.141,0.104l1.702-2.312
		c0.739-1.004,1.02-1.95,0.843-2.838c-0.162-0.792-0.602-1.455-1.321-1.984c-0.537-0.395-1.1-0.621-1.69-0.676
		c-0.59-0.056-1.122,0.053-1.594,0.327c-0.472,0.273-0.993,0.797-1.562,1.57l-1.55,2.105l0.141,0.104L33.384,53.715z M35.052,51.761
		c0.45-0.61,1.023-0.958,1.722-1.044c0.698-0.086,1.404,0.135,2.12,0.661c0.709,0.522,1.128,1.13,1.255,1.826
		c0.129,0.694-0.025,1.335-0.459,1.926c-0.162,0.218-0.396,0.463-0.705,0.734l-4.398-3.239
		C34.729,52.278,34.883,51.99,35.052,51.761z"/>
	<path d="M40.33,44.953c0.108-0.111,0.237-0.188,0.387-0.233c0.108-0.03,0.203-0.029,0.281,0.003
		c0.104,0.043,0.272,0.179,0.504,0.406l2.971,2.896c0.276,0.269,0.424,0.465,0.443,0.591c0.027,0.193-0.052,0.386-0.238,0.576
		l-0.159,0.163l0.126,0.123l1.924-1.974l-0.125-0.123l-0.163,0.166c-0.106,0.108-0.235,0.186-0.386,0.233
		c-0.111,0.033-0.206,0.033-0.284,0c-0.103-0.043-0.272-0.179-0.504-0.406l-1.445-1.409l0.816-0.838
		c0.151-0.154,0.284-0.249,0.402-0.286c0.119-0.037,0.241-0.037,0.367,0c0.126,0.038,0.28,0.143,0.461,0.314l0.123-0.125
		l-1.557-1.518l-0.123,0.125c0.222,0.274,0.333,0.498,0.331,0.669c-0.002,0.173-0.097,0.354-0.285,0.547l-0.816,0.838l-1.808-1.762
		l0.988-1.014c0.234-0.24,0.428-0.395,0.585-0.465c0.157-0.07,0.323-0.095,0.5-0.075c0.176,0.021,0.4,0.106,0.673,0.256l0.115-0.119
		l-1.054-0.941l-3.336,3.423l0.125,0.123L40.33,44.953z"/>
	<path d="M44.876,40.391c0.201-0.173,0.386-0.249,0.554-0.227c0.124,0.02,0.318,0.183,0.584,0.492l2.719,3.166
		c0.204,0.237,0.325,0.406,0.364,0.506c0.038,0.101,0.036,0.203-0.009,0.307c-0.056,0.144-0.14,0.265-0.255,0.364l-0.172,0.148
		l0.114,0.132l3.754-3.226L51.9,40.471l-0.143,0.124c0.101,0.433,0.141,0.787,0.121,1.063c-0.019,0.212-0.073,0.389-0.166,0.535
		c-0.091,0.146-0.275,0.336-0.55,0.573l-0.826,0.71c-0.134,0.116-0.237,0.18-0.309,0.193c-0.071,0.014-0.137,0.005-0.196-0.025
		c-0.06-0.03-0.182-0.153-0.367-0.369l-1.38-1.606l1.071-0.92c0.204-0.175,0.375-0.28,0.515-0.316
		c0.14-0.036,0.267-0.032,0.382,0.015c0.091,0.039,0.255,0.162,0.492,0.371l0.133-0.114l-1.457-1.696l-0.133,0.113
		c0.224,0.291,0.321,0.544,0.292,0.761c-0.021,0.165-0.17,0.366-0.449,0.604l-1.071,0.92l-1.655-1.926l1.337-1.148
		c0.241-0.208,0.426-0.335,0.553-0.381c0.163-0.054,0.315-0.057,0.459-0.015c0.143,0.042,0.351,0.172,0.62,0.385l0.141-0.121
		l-0.971-1.022l-3.755,3.226l0.115,0.132L44.876,40.391z"/>
	<path d="M50.125,36.01c0.188-0.057,0.34-0.085,0.459-0.083c0.118,0.002,0.316,0.038,0.594,0.111l2.559,3.661
		c0.205,0.295,0.31,0.504,0.311,0.626c0.001,0.2-0.111,0.378-0.336,0.536l-0.182,0.128l0.1,0.144l1.833-1.281l-0.101-0.144
		l-0.186,0.131c-0.204,0.143-0.394,0.194-0.569,0.153c-0.126-0.031-0.302-0.208-0.528-0.532l-2.265-3.242l6.434,1.815l0.14-0.098
		l-3.102-4.438c-0.205-0.295-0.31-0.504-0.311-0.626c-0.001-0.2,0.11-0.377,0.333-0.533l0.187-0.13l-0.1-0.144l-1.833,1.28
		l0.099,0.145l0.183-0.128c0.206-0.145,0.396-0.196,0.568-0.154c0.13,0.029,0.307,0.206,0.533,0.529l2.122,3.037l-5.979-1.699
		l-1.429,0.998l0.1,0.144C49.911,36.106,50.033,36.039,50.125,36.01z"/>
	<path d="M59.963,35.602c0.947,0.388,1.966,0.283,3.054-0.314c0.379-0.208,0.702-0.438,0.967-0.688
		c0.267-0.25,0.511-0.549,0.735-0.896l-0.946-1.724c-0.166-0.301-0.249-0.518-0.25-0.651c0-0.188,0.11-0.341,0.325-0.459
		l0.104-0.057l-0.086-0.157l-2.18,1.197l0.087,0.158c0.228-0.125,0.398-0.188,0.513-0.192c0.115-0.003,0.218,0.026,0.31,0.089
		c0.091,0.064,0.213,0.236,0.369,0.519l0.894,1.628c-0.125,0.202-0.268,0.381-0.433,0.541c-0.165,0.159-0.351,0.296-0.559,0.41
		c-0.354,0.194-0.756,0.281-1.205,0.259c-0.45-0.021-0.9-0.197-1.351-0.525c-0.452-0.329-0.824-0.762-1.119-1.299
		c-0.364-0.661-0.52-1.317-0.47-1.968c0.062-0.773,0.451-1.356,1.168-1.75c0.526-0.289,1.045-0.363,1.558-0.223
		c0.355,0.097,0.728,0.327,1.118,0.688l0.146-0.08L61.59,28.41l-0.154,0.084c0.069,0.146,0.098,0.253,0.088,0.322
		c-0.009,0.068-0.042,0.117-0.095,0.146c-0.053,0.03-0.171,0.057-0.359,0.084c-0.369,0.055-0.647,0.112-0.833,0.17
		c-0.186,0.059-0.381,0.145-0.586,0.257c-0.562,0.309-0.982,0.697-1.263,1.164c-0.333,0.561-0.493,1.189-0.479,1.884
		c0.012,0.584,0.153,1.125,0.426,1.62C58.708,34.824,59.251,35.311,59.963,35.602z"/>
	<path d="M68.035,28.134c0.191,0.165,0.426,0.291,0.709,0.379c0.282,0.09,0.734,0.181,1.357,0.274
		c0.622,0.093,1.009,0.163,1.157,0.207c0.221,0.065,0.4,0.157,0.538,0.277c0.139,0.12,0.237,0.254,0.292,0.402
		c0.101,0.266,0.081,0.537-0.059,0.813c-0.14,0.276-0.395,0.483-0.764,0.624c-0.318,0.121-0.639,0.161-0.96,0.121
		s-0.586-0.143-0.797-0.309c-0.21-0.165-0.436-0.448-0.677-0.851l-0.165,0.063l0.78,2.06l0.165-0.062
		c-0.032-0.146-0.035-0.251-0.009-0.311c0.026-0.061,0.076-0.105,0.15-0.132c0.077-0.03,0.277-0.052,0.601-0.068
		c0.322-0.016,0.533-0.035,0.63-0.054c0.165-0.032,0.333-0.081,0.506-0.146c0.556-0.21,0.946-0.546,1.175-1.009
		c0.228-0.463,0.256-0.922,0.084-1.377c-0.091-0.239-0.232-0.447-0.426-0.624c-0.192-0.177-0.424-0.307-0.689-0.39
		c-0.266-0.083-0.737-0.168-1.412-0.258c-0.828-0.108-1.376-0.239-1.643-0.39c-0.184-0.102-0.312-0.246-0.381-0.429
		c-0.09-0.239-0.07-0.49,0.059-0.754c0.13-0.264,0.348-0.455,0.655-0.571c0.272-0.103,0.561-0.133,0.869-0.091
		c0.306,0.042,0.573,0.156,0.799,0.34c0.227,0.185,0.442,0.466,0.647,0.845l0.165-0.062l-0.788-2.079l-0.165,0.063
		c0.023,0.15,0.019,0.258-0.012,0.322c-0.031,0.064-0.085,0.111-0.163,0.14c-0.068,0.026-0.199,0.033-0.391,0.022
		c-0.418-0.021-0.785,0.028-1.104,0.149c-0.51,0.194-0.872,0.51-1.085,0.946c-0.212,0.438-0.238,0.871-0.075,1.302
		C67.703,27.763,67.844,27.97,68.035,28.134z"/>
	<path d="M72.95,24.08c0.147-0.039,0.297-0.041,0.451-0.004c0.109,0.029,0.19,0.077,0.241,0.146c0.066,0.09,0.143,0.293,0.229,0.61
		l1.086,4c0.101,0.371,0.129,0.616,0.082,0.734c-0.076,0.181-0.241,0.306-0.497,0.375L74.322,30l0.046,0.168l2.656-0.721
		l-0.046-0.169l-0.224,0.061c-0.147,0.039-0.295,0.041-0.446,0.003c-0.112-0.029-0.195-0.077-0.245-0.145
		c-0.067-0.09-0.143-0.292-0.229-0.605l-0.513-1.889l2.88-0.782l0.514,1.889c0.1,0.371,0.126,0.617,0.076,0.735
		c-0.075,0.181-0.24,0.306-0.493,0.374l-0.219,0.06l0.045,0.169l2.652-0.72l-0.047-0.168l-0.218,0.06
		c-0.146,0.039-0.297,0.041-0.45,0.004c-0.111-0.029-0.191-0.077-0.241-0.146c-0.067-0.089-0.144-0.292-0.229-0.605l-1.085-4
		c-0.083-0.304-0.12-0.511-0.113-0.62c0.009-0.109,0.056-0.201,0.139-0.276c0.113-0.106,0.241-0.179,0.387-0.219l0.221-0.06
		l-0.047-0.168l-2.651,0.72l0.046,0.169l0.22-0.06c0.146-0.04,0.295-0.041,0.446-0.003c0.112,0.029,0.195,0.077,0.246,0.145
		c0.066,0.09,0.143,0.293,0.229,0.61l0.48,1.774l-2.879,0.781l-0.482-1.774c-0.083-0.305-0.119-0.512-0.109-0.62
		c0.01-0.108,0.056-0.201,0.136-0.275c0.112-0.106,0.241-0.179,0.389-0.219l0.224-0.061l-0.046-0.168l-2.655,0.722l0.046,0.168
		L72.95,24.08z"/>
	<path d="M80.682,22.076c0.241-0.039,0.425-0.005,0.551,0.099s0.221,0.352,0.283,0.742l0.391,2.479
		c0.121,0.764,0.253,1.278,0.396,1.54c0.214,0.382,0.519,0.665,0.916,0.848s0.942,0.221,1.634,0.111
		c0.636-0.101,1.12-0.306,1.45-0.615c0.33-0.31,0.53-0.649,0.601-1.02c0.071-0.371,0.056-0.875-0.044-1.511l-0.406-2.574
		c-0.056-0.352-0.059-0.582-0.009-0.689c0.101-0.23,0.276-0.365,0.526-0.404l0.239-0.037l-0.027-0.174l-2.245,0.355l0.026,0.173
		l0.239-0.038c0.241-0.038,0.432,0.002,0.575,0.12c0.104,0.086,0.186,0.327,0.249,0.723l0.405,2.568
		c0.107,0.674,0.123,1.162,0.047,1.463c-0.075,0.301-0.263,0.568-0.562,0.801c-0.299,0.233-0.655,0.382-1.07,0.447
		c-0.325,0.051-0.608,0.038-0.849-0.044c-0.241-0.08-0.435-0.2-0.582-0.358c-0.147-0.159-0.268-0.395-0.362-0.705
		c-0.096-0.311-0.164-0.59-0.203-0.836l-0.437-2.765c-0.056-0.355-0.055-0.595,0.006-0.721c0.086-0.183,0.259-0.296,0.521-0.336
		l0.244-0.039l-0.027-0.173l-2.742,0.434l0.028,0.173L80.682,22.076z"/>
	<path d="M88.764,20.955c0.152-0.012,0.3,0.016,0.443,0.081c0.102,0.049,0.172,0.112,0.209,0.188
		c0.048,0.101,0.085,0.313,0.11,0.638L89.84,26c0.029,0.383,0.01,0.628-0.059,0.735c-0.107,0.164-0.294,0.255-0.558,0.275
		l-0.228,0.017l0.015,0.175l2.744-0.208l-0.014-0.174l-0.231,0.018c-0.151,0.012-0.298-0.016-0.438-0.081
		c-0.106-0.048-0.177-0.112-0.214-0.188c-0.048-0.101-0.085-0.314-0.11-0.637l-0.313-4.138c-0.03-0.384-0.009-0.629,0.062-0.736
		c0.108-0.163,0.292-0.255,0.555-0.274l0.23-0.018l-0.013-0.175l-2.745,0.208l0.013,0.175L88.764,20.955z"/>
	<path d="M101.239,26.079c0.57-0.574,0.876-1.308,0.918-2.201c0.03-0.666-0.094-1.259-0.376-1.781
		c-0.28-0.522-0.666-0.904-1.156-1.145c-0.489-0.241-1.214-0.383-2.172-0.427l-2.613-0.121l-0.008,0.175l0.241,0.011
		c0.243,0.012,0.424,0.089,0.538,0.234c0.085,0.105,0.116,0.358,0.098,0.759l-0.191,4.145c-0.018,0.362-0.063,0.595-0.138,0.696
		c-0.121,0.168-0.316,0.247-0.588,0.234l-0.241-0.012l-0.008,0.175l2.868,0.132C99.657,27.01,100.6,26.719,101.239,26.079z
		 M97.396,26.441l0.253-5.456c0.366-0.075,0.692-0.106,0.977-0.093c0.757,0.036,1.365,0.319,1.824,0.853
		c0.459,0.533,0.667,1.243,0.626,2.129c-0.04,0.879-0.314,1.565-0.82,2.058c-0.507,0.491-1.126,0.721-1.857,0.686
		C98.127,26.608,97.793,26.547,97.396,26.441z"/>
	<path d="M108.682,26.441l-0.188-0.027c-0.262,0.361-0.502,0.624-0.725,0.789c-0.171,0.125-0.343,0.2-0.512,0.226
		s-0.434,0.012-0.794-0.041l-1.078-0.159c-0.175-0.026-0.292-0.062-0.349-0.106c-0.058-0.045-0.094-0.1-0.109-0.165
		c-0.018-0.065-0.004-0.237,0.038-0.518l0.309-2.095l1.396,0.205c0.266,0.039,0.458,0.1,0.577,0.181
		c0.119,0.082,0.198,0.181,0.238,0.298c0.031,0.093,0.046,0.299,0.044,0.614l0.174,0.026l0.325-2.212l-0.174-0.025
		c-0.072,0.36-0.2,0.6-0.384,0.72c-0.138,0.092-0.388,0.11-0.75,0.057l-1.396-0.206l0.369-2.512l1.744,0.257
		c0.313,0.046,0.532,0.102,0.649,0.167c0.147,0.089,0.251,0.202,0.312,0.337c0.062,0.137,0.102,0.377,0.117,0.722l0.183,0.027
		l0.135-1.402l-4.898-0.721l-0.024,0.173l0.225,0.033c0.263,0.038,0.44,0.129,0.535,0.27c0.067,0.106,0.071,0.36,0.013,0.763
		l-0.608,4.129c-0.045,0.309-0.093,0.511-0.145,0.606c-0.05,0.095-0.129,0.16-0.236,0.195c-0.146,0.052-0.293,0.067-0.442,0.044
		l-0.226-0.033l-0.024,0.173l4.898,0.721L108.682,26.441z"/>
	<path d="M110.041,28.237c0.057-0.036,0.123-0.043,0.199-0.025c0.08,0.019,0.257,0.113,0.535,0.281
		c0.275,0.168,0.46,0.272,0.551,0.311c0.153,0.065,0.32,0.121,0.501,0.165c0.577,0.137,1.091,0.08,1.54-0.175
		c0.448-0.255,0.729-0.618,0.843-1.091c0.06-0.249,0.06-0.5-0.001-0.755c-0.062-0.255-0.179-0.491-0.353-0.71
		s-0.514-0.555-1.022-1.007c-0.623-0.555-1.004-0.971-1.138-1.247c-0.095-0.188-0.119-0.377-0.074-0.567
		c0.06-0.25,0.217-0.445,0.473-0.591c0.255-0.145,0.543-0.18,0.863-0.103c0.282,0.067,0.537,0.205,0.768,0.413
		c0.229,0.208,0.387,0.451,0.471,0.731c0.083,0.28,0.103,0.634,0.06,1.063l0.17,0.041l0.517-2.161l-0.17-0.041
		c-0.064,0.137-0.13,0.223-0.19,0.259c-0.063,0.035-0.134,0.043-0.214,0.024c-0.07-0.017-0.183-0.084-0.336-0.203
		c-0.332-0.251-0.665-0.417-0.996-0.497c-0.531-0.128-1.008-0.07-1.43,0.172c-0.421,0.242-0.686,0.586-0.793,1.035
		c-0.061,0.259-0.061,0.508,0.005,0.751c0.065,0.243,0.189,0.481,0.373,0.713c0.183,0.232,0.506,0.562,0.969,0.989
		c0.463,0.427,0.743,0.701,0.84,0.822c0.146,0.178,0.242,0.355,0.289,0.533c0.047,0.177,0.052,0.342,0.016,0.496
		c-0.066,0.277-0.235,0.489-0.506,0.639c-0.272,0.149-0.599,0.178-0.982,0.086c-0.332-0.079-0.618-0.226-0.861-0.44
		c-0.244-0.214-0.404-0.448-0.487-0.704c-0.081-0.255-0.108-0.616-0.081-1.084l-0.171-0.041l-0.513,2.143l0.17,0.041
		C109.93,28.36,109.985,28.272,110.041,28.237z"/>
	<path d="M117.703,30.317l-0.222-0.07c-0.144-0.046-0.27-0.125-0.377-0.238c-0.079-0.085-0.122-0.169-0.129-0.254
		c-0.007-0.111,0.038-0.322,0.135-0.633l1.248-3.958c0.116-0.368,0.227-0.587,0.332-0.66c0.161-0.111,0.366-0.128,0.616-0.049
		l0.222,0.07l0.053-0.167l-2.625-0.828l-0.054,0.167l0.217,0.069c0.146,0.045,0.272,0.125,0.382,0.24
		c0.077,0.083,0.118,0.168,0.124,0.252c0.008,0.112-0.036,0.323-0.134,0.633l-1.247,3.957c-0.116,0.367-0.226,0.588-0.327,0.662
		c-0.162,0.111-0.368,0.128-0.622,0.048l-0.217-0.068l-0.053,0.167l2.625,0.828L117.703,30.317z"/>
	<path d="M119.716,30.071c0.296,0.98,1.019,1.705,2.168,2.173c0.399,0.164,0.781,0.269,1.144,0.318
		c0.361,0.048,0.748,0.051,1.158,0.006l0.743-1.82c0.129-0.319,0.245-0.52,0.349-0.605c0.146-0.117,0.334-0.13,0.563-0.037
		l0.109,0.044l0.068-0.167l-2.304-0.938l-0.067,0.167c0.24,0.098,0.397,0.19,0.472,0.277c0.076,0.087,0.118,0.186,0.126,0.296
		s-0.05,0.314-0.171,0.613l-0.701,1.72c-0.233,0.031-0.464,0.032-0.691,0.004c-0.228-0.027-0.451-0.086-0.67-0.176
		c-0.375-0.153-0.696-0.411-0.962-0.773c-0.267-0.363-0.414-0.823-0.442-1.38s0.073-1.12,0.305-1.687
		c0.284-0.7,0.695-1.235,1.232-1.605c0.64-0.438,1.338-0.503,2.095-0.194c0.555,0.227,0.94,0.583,1.155,1.07
		c0.148,0.336,0.205,0.771,0.169,1.302l0.154,0.063l0.611-1.94l-0.163-0.066c-0.069,0.146-0.134,0.236-0.194,0.271
		c-0.061,0.036-0.119,0.041-0.174,0.019c-0.056-0.022-0.153-0.098-0.292-0.226c-0.275-0.252-0.494-0.432-0.657-0.539
		c-0.164-0.108-0.352-0.205-0.568-0.293c-0.594-0.242-1.161-0.325-1.7-0.248c-0.646,0.095-1.233,0.367-1.764,0.815
		c-0.447,0.377-0.777,0.827-0.99,1.351C119.53,28.607,119.494,29.336,119.716,30.071z"/>
	<path d="M125.67,33.517l-0.197-0.105l-0.083,0.154l1.968,1.063l0.083-0.153l-0.199-0.109c-0.22-0.118-0.352-0.265-0.394-0.438
		c-0.028-0.126,0.051-0.364,0.238-0.711l1.88-3.48l1.268,6.564l0.151,0.081l2.573-4.764c0.171-0.316,0.312-0.503,0.421-0.559
		c0.179-0.091,0.387-0.071,0.625,0.058l0.201,0.108l0.083-0.154l-1.968-1.063l-0.084,0.154l0.197,0.105
		c0.222,0.12,0.354,0.267,0.393,0.439c0.031,0.127-0.047,0.366-0.234,0.712l-1.762,3.259l-1.164-6.104l-1.535-0.829l-0.083,0.154
		c0.164,0.089,0.278,0.167,0.348,0.236c0.135,0.141,0.228,0.266,0.279,0.372c0.053,0.106,0.107,0.3,0.168,0.58l-2.124,3.93
		c-0.171,0.316-0.312,0.503-0.421,0.559C126.121,33.668,125.911,33.647,125.67,33.517z"/>
	<path d="M136.614,40.22l-0.2-0.146c-0.195-0.144-0.3-0.308-0.313-0.491c-0.015-0.132,0.099-0.36,0.339-0.686l1.108-1.507
		c0.14,0.157,0.276,0.297,0.407,0.423c0.131,0.125,0.26,0.233,0.385,0.324c0.508,0.374,0.999,0.532,1.473,0.472
		c0.473-0.06,0.865-0.3,1.176-0.722c0.229-0.31,0.334-0.646,0.317-1.007c-0.018-0.361-0.124-0.688-0.32-0.979
		c-0.196-0.292-0.526-0.609-0.99-0.949l-1.896-1.394l-0.104,0.141l0.195,0.143c0.196,0.144,0.302,0.309,0.318,0.493
		c0.011,0.13-0.104,0.357-0.343,0.682l-2.46,3.343c-0.217,0.295-0.38,0.463-0.489,0.505c-0.199,0.073-0.408,0.029-0.627-0.131
		l-0.194-0.144l-0.104,0.142l2.217,1.631L136.614,40.22z M139.291,35.021c0.239,0.101,0.425,0.2,0.554,0.295
		c0.213,0.157,0.369,0.345,0.467,0.564c0.097,0.22,0.122,0.458,0.071,0.718c-0.049,0.259-0.156,0.5-0.32,0.724
		c-0.24,0.325-0.532,0.52-0.872,0.583c-0.344,0.063-0.647-0.001-0.912-0.196c-0.073-0.055-0.157-0.126-0.253-0.216
		c-0.094-0.09-0.201-0.196-0.316-0.321L139.291,35.021z"/>
	<path d="M143.597,38.213c0.002,0.131-0.132,0.349-0.4,0.651l-2.758,3.102c-0.242,0.275-0.422,0.426-0.537,0.455
		c-0.204,0.054-0.407-0.009-0.61-0.188l-0.181-0.161l-0.116,0.13l2.057,1.828l0.116-0.13l-0.188-0.167
		c-0.18-0.159-0.269-0.331-0.266-0.515c-0.002-0.131,0.132-0.349,0.401-0.651l1.24-1.395c0.035,0.037,0.071,0.07,0.104,0.103
		c0.035,0.033,0.066,0.063,0.098,0.09c0.076,0.067,0.175,0.152,0.3,0.254l-0.369,3.689l1.28,1.14l0.117-0.13
		c-0.236-0.261-0.39-0.517-0.461-0.765c-0.07-0.249-0.079-0.631-0.024-1.149l0.233-2.259c0.482,0.27,0.917,0.38,1.304,0.334
		c0.385-0.046,0.709-0.216,0.971-0.512c0.246-0.276,0.372-0.589,0.381-0.938s-0.075-0.668-0.25-0.958
		c-0.177-0.29-0.519-0.661-1.029-1.114l-1.749-1.554l-0.116,0.13l0.18,0.161C143.506,37.854,143.597,38.027,143.597,38.213z
		 M144.944,39.378c0.309,0.275,0.474,0.589,0.494,0.944c0.022,0.354-0.101,0.682-0.368,0.981c-0.272,0.307-0.612,0.456-1.021,0.448
		c-0.408-0.008-0.842-0.216-1.301-0.624c-0.02-0.018-0.048-0.043-0.079-0.074s-0.07-0.065-0.115-0.105l1.774-1.997
		C144.603,39.115,144.807,39.256,144.944,39.378z"/>
	<path d="M146.258,49.345c0.591,0.646,1.331,0.979,2.222,0.998c0.893,0.02,1.697-0.299,2.418-0.958
		c0.698-0.639,1.076-1.398,1.13-2.276c0.056-0.878-0.199-1.625-0.762-2.241c-0.566-0.62-1.258-0.963-2.079-1.031
		c-0.944-0.079-1.792,0.228-2.545,0.915c-0.736,0.674-1.134,1.444-1.19,2.313C145.392,47.933,145.661,48.692,146.258,49.345z
		 M147.387,45.541c0.756-0.69,1.475-1.055,2.158-1.093c0.549-0.032,1.018,0.166,1.405,0.589c0.414,0.451,0.578,0.951,0.496,1.497
		c-0.105,0.685-0.565,1.396-1.376,2.139c-0.749,0.684-1.429,1.04-2.041,1.067c-0.611,0.027-1.123-0.182-1.53-0.626
		c-0.382-0.417-0.529-0.898-0.444-1.442C146.169,46.958,146.613,46.248,147.387,45.541z"/>
	<path d="M149.901,52.735c-0.196-0.003-0.373-0.11-0.533-0.323l-0.137-0.182l-0.14,0.106l1.656,2.203l0.141-0.106l-0.141-0.186
		c-0.091-0.121-0.147-0.26-0.17-0.417c-0.016-0.115-0.001-0.209,0.044-0.281c0.057-0.095,0.218-0.241,0.478-0.436l1.612-1.213
		l0.703,0.935c0.13,0.171,0.204,0.318,0.222,0.441c0.019,0.122,0,0.243-0.057,0.362c-0.056,0.119-0.184,0.256-0.381,0.408
		l0.104,0.141l1.737-1.307l-0.104-0.14c-0.305,0.178-0.542,0.252-0.711,0.224c-0.17-0.029-0.335-0.15-0.498-0.365l-0.702-0.935
		l2.018-1.518l0.853,1.131c0.2,0.268,0.322,0.484,0.369,0.65c0.045,0.165,0.044,0.334-0.003,0.505s-0.165,0.38-0.355,0.626
		l0.1,0.132l1.092-0.897l-2.872-3.82l-0.141,0.105l0.137,0.182c0.093,0.124,0.149,0.262,0.171,0.417
		c0.014,0.112-0.002,0.205-0.046,0.278c-0.059,0.096-0.219,0.241-0.479,0.437l-3.315,2.494
		C150.245,52.619,150.028,52.735,149.901,52.735z"/>
	<path d="M157.598,55.033l-3.544,2.203c-0.266,0.165-0.451,0.259-0.556,0.282c-0.105,0.022-0.206,0.003-0.302-0.055
		c-0.134-0.076-0.241-0.179-0.32-0.308l-0.12-0.193l-0.15,0.092l2.614,4.204l1.659-0.379l-0.099-0.161
		c-0.444,0.034-0.8,0.02-1.071-0.043c-0.204-0.05-0.373-0.131-0.502-0.244c-0.13-0.113-0.29-0.323-0.481-0.632l-0.575-0.925
		c-0.094-0.15-0.142-0.261-0.144-0.334c-0.004-0.073,0.016-0.136,0.055-0.19c0.039-0.054,0.18-0.156,0.421-0.307l1.798-1.118
		l0.746,1.198c0.141,0.228,0.219,0.414,0.234,0.557s-0.01,0.269-0.074,0.375c-0.052,0.084-0.198,0.227-0.44,0.43l0.093,0.148
		l1.899-1.181l-0.093-0.148c-0.321,0.178-0.587,0.235-0.796,0.171c-0.16-0.046-0.335-0.225-0.529-0.536l-0.746-1.199l2.157-1.34
		l0.931,1.497c0.168,0.271,0.266,0.473,0.292,0.605c0.027,0.168,0.008,0.32-0.057,0.456c-0.063,0.135-0.224,0.32-0.475,0.554
		l0.097,0.157l1.157-0.804l-2.612-4.203l-0.148,0.092l0.119,0.193c0.141,0.225,0.188,0.419,0.14,0.583
		C158.135,54.651,157.943,54.818,157.598,55.033z"/>
	<path d="M159.896,61.142c-0.143,0.207-0.244,0.455-0.304,0.745c-0.059,0.29-0.103,0.749-0.13,1.378
		c-0.027,0.629-0.057,1.02-0.086,1.173c-0.041,0.226-0.114,0.414-0.219,0.564c-0.104,0.15-0.228,0.26-0.368,0.333
		c-0.253,0.128-0.525,0.137-0.813,0.025c-0.29-0.11-0.524-0.342-0.7-0.694c-0.155-0.305-0.229-0.619-0.222-0.942
		s0.081-0.599,0.223-0.827c0.142-0.227,0.4-0.482,0.774-0.762l-0.079-0.156l-1.967,0.993l0.08,0.156
		c0.143-0.047,0.245-0.06,0.309-0.041c0.063,0.02,0.111,0.064,0.147,0.135c0.036,0.074,0.079,0.27,0.129,0.59
		c0.051,0.319,0.091,0.526,0.121,0.621c0.048,0.16,0.114,0.323,0.198,0.489c0.268,0.53,0.645,0.884,1.129,1.063
		c0.483,0.179,0.943,0.158,1.378-0.062c0.229-0.115,0.42-0.278,0.574-0.49c0.156-0.21,0.261-0.453,0.315-0.726
		c0.055-0.274,0.091-0.75,0.108-1.432c0.021-0.834,0.092-1.393,0.215-1.674c0.084-0.194,0.212-0.335,0.388-0.423
		c0.228-0.116,0.479-0.123,0.757-0.021c0.275,0.102,0.487,0.298,0.635,0.592c0.13,0.259,0.192,0.544,0.181,0.853
		c-0.011,0.31-0.094,0.586-0.254,0.832c-0.159,0.245-0.416,0.489-0.771,0.731l0.079,0.156l1.982-1l-0.078-0.156
		c-0.147,0.038-0.253,0.046-0.32,0.021c-0.067-0.024-0.12-0.074-0.157-0.146c-0.032-0.065-0.054-0.194-0.063-0.388
		c-0.022-0.416-0.11-0.777-0.266-1.082c-0.244-0.488-0.597-0.815-1.054-0.98c-0.457-0.166-0.891-0.145-1.302,0.063
		C160.229,60.772,160.04,60.936,159.896,61.142z"/>
	<path d="M161.784,71.431c0.237-0.095,0.441-0.242,0.614-0.439s0.298-0.43,0.376-0.698c0.078-0.269,0.154-0.74,0.23-1.417
		c0.091-0.83,0.21-1.38,0.356-1.649c0.1-0.186,0.239-0.315,0.421-0.389c0.238-0.095,0.49-0.081,0.756,0.044
		c0.267,0.124,0.461,0.338,0.583,0.643c0.107,0.271,0.144,0.558,0.107,0.866s-0.145,0.576-0.324,0.807
		c-0.18,0.231-0.457,0.452-0.83,0.663l0.064,0.163l2.061-0.828l-0.064-0.163c-0.149,0.026-0.257,0.024-0.321-0.006
		c-0.064-0.03-0.113-0.083-0.143-0.159c-0.027-0.068-0.038-0.198-0.031-0.391c0.014-0.417-0.043-0.784-0.17-1.101
		c-0.203-0.506-0.526-0.862-0.968-1.066c-0.44-0.204-0.874-0.22-1.303-0.048c-0.246,0.099-0.449,0.245-0.611,0.439
		c-0.16,0.194-0.281,0.433-0.364,0.716c-0.084,0.284-0.166,0.738-0.246,1.362c-0.082,0.625-0.143,1.011-0.185,1.162
		c-0.061,0.222-0.148,0.403-0.267,0.543c-0.116,0.141-0.249,0.241-0.396,0.299c-0.263,0.106-0.535,0.092-0.813-0.043
		c-0.278-0.134-0.493-0.386-0.64-0.752c-0.128-0.316-0.174-0.635-0.14-0.957c0.034-0.322,0.132-0.589,0.292-0.804
		c0.16-0.214,0.438-0.445,0.836-0.694l-0.064-0.163l-2.045,0.821l0.065,0.163c0.146-0.035,0.25-0.04,0.312-0.015
		c0.061,0.025,0.105,0.074,0.136,0.147c0.03,0.077,0.056,0.276,0.079,0.599c0.022,0.323,0.046,0.532,0.066,0.629
		c0.034,0.163,0.087,0.331,0.156,0.504c0.222,0.551,0.565,0.936,1.034,1.154C160.873,71.593,161.333,71.612,161.784,71.431z"/>
	<path d="M166.98,73.219c0.185,0.066,0.317,0.225,0.396,0.474l0.071,0.222l0.167-0.054l-0.846-2.619l-0.166,0.054l0.069,0.217
		c0.047,0.144,0.056,0.294,0.025,0.449c-0.023,0.111-0.069,0.193-0.135,0.247c-0.087,0.071-0.284,0.157-0.594,0.257l-3.949,1.274
		c-0.366,0.118-0.609,0.157-0.729,0.115c-0.185-0.067-0.316-0.227-0.397-0.479l-0.069-0.217l-0.168,0.055l0.846,2.619l0.167-0.054
		l-0.071-0.222c-0.047-0.145-0.056-0.293-0.024-0.445c0.023-0.114,0.068-0.198,0.133-0.252c0.087-0.071,0.284-0.156,0.595-0.257
		l3.948-1.274C166.617,73.211,166.86,73.174,166.98,73.219z"/>
	<path d="M166.447,82.187c0.923-0.215,1.623-0.694,2.1-1.433c0.476-0.739,0.619-1.515,0.429-2.326
		c-0.192-0.817-0.629-1.457-1.311-1.916c-0.787-0.53-1.677-0.678-2.669-0.444c-0.972,0.227-1.694,0.706-2.168,1.435
		c-0.475,0.729-0.612,1.524-0.41,2.385c0.201,0.852,0.685,1.503,1.452,1.956C164.639,82.296,165.498,82.411,166.447,82.187z
		 M162.744,79.8c-0.129-0.55-0.023-1.042,0.315-1.474c0.448-0.566,1.183-0.969,2.203-1.209c0.997-0.233,1.802-0.2,2.418,0.1
		c0.494,0.241,0.806,0.64,0.938,1.2c0.14,0.596,0.042,1.113-0.298,1.548c-0.426,0.545-1.176,0.943-2.245,1.195
		c-0.986,0.23-1.755,0.208-2.302-0.066C163.226,80.819,162.883,80.389,162.744,79.8z"/>
	<path d="M164.02,85.329c0.088-0.097,0.326-0.169,0.718-0.217l3.926-0.481l-4.618,4.833l0.021,0.168l5.374-0.659
		c0.357-0.044,0.59-0.037,0.699,0.019c0.177,0.092,0.281,0.274,0.314,0.542l0.027,0.226l0.175-0.02l-0.272-2.219l-0.174,0.021
		l0.027,0.221c0.029,0.25-0.014,0.442-0.13,0.574c-0.086,0.1-0.325,0.173-0.718,0.221l-3.678,0.452l4.305-4.485l-0.213-1.73
		l-0.172,0.021c0.021,0.185,0.023,0.325,0.007,0.42c-0.037,0.191-0.084,0.34-0.14,0.444c-0.057,0.104-0.184,0.261-0.378,0.473
		l-4.433,0.544c-0.356,0.043-0.591,0.037-0.699-0.019c-0.176-0.093-0.282-0.276-0.315-0.549l-0.026-0.221l-0.174,0.021l0.273,2.219
		l0.173-0.021l-0.027-0.226C163.859,85.654,163.902,85.462,164.02,85.329z"/>
	<path d="M164.69,91.675c-0.077-0.079-0.142-0.25-0.193-0.518l-0.176,0.002l0.033,2.023l0.175-0.003
		c0.018-0.311,0.063-0.512,0.135-0.606c0.073-0.094,0.158-0.142,0.256-0.144c0.123-0.001,0.311,0.049,0.562,0.152l1.021,0.42
		l0.04,2.486l-0.916,0.403c-0.3,0.131-0.518,0.199-0.656,0.201c-0.104,0.001-0.192-0.042-0.268-0.131
		c-0.074-0.089-0.119-0.261-0.137-0.516l-0.175,0.002l0.042,2.535l0.175-0.003c0.012-0.263,0.08-0.469,0.206-0.616
		c0.125-0.148,0.4-0.316,0.828-0.505l5.307-2.321l-0.003-0.166l-5.323-2.173C165.155,92.006,164.845,91.833,164.69,91.675z
		 M169.469,94.216l-2.577,1.131l-0.035-2.207L169.469,94.216z"/>
	<path d="M170.578,99.48c-0.021,0.241-0.105,0.419-0.254,0.53c-0.107,0.08-0.362,0.102-0.762,0.068l-4.129-0.347
		c-0.365-0.031-0.596-0.084-0.689-0.158c-0.168-0.13-0.239-0.332-0.217-0.604l0.02-0.24l-0.174-0.016l-0.417,4.956l1.691,0.694
		l0.046-0.153c-0.383-0.197-0.659-0.386-0.829-0.564c-0.171-0.18-0.284-0.372-0.341-0.576c-0.056-0.203-0.062-0.552-0.021-1.043
		l0.04-0.467c0.034-0.411,0.07-0.656,0.108-0.731c0.038-0.076,0.093-0.13,0.162-0.162c0.101-0.044,0.282-0.054,0.543-0.03
		l4.022,0.337c0.381,0.032,0.619,0.078,0.716,0.136c0.097,0.059,0.171,0.16,0.227,0.302c0.056,0.143,0.065,0.385,0.034,0.724
		l0.175,0.015l0.242-2.897l-0.174-0.016L170.578,99.48z"/>
	<path d="M95.642,33.862c-34.064,0-61.779,27.715-61.779,61.779c0,34.065,27.714,61.781,61.779,61.781
		c34.065,0,61.78-27.716,61.78-61.781C157.421,61.577,129.707,33.862,95.642,33.862z M95.642,156.28
		c-33.436,0-60.637-27.201-60.637-60.638s27.202-60.638,60.637-60.638c33.435,0,60.636,27.202,60.636,60.638
		S129.077,156.28,95.642,156.28z"/>
	<path d="M61.61,160.286c-0.882,0.269-1.378,1.201-1.11,2.081c0.268,0.881,1.201,1.378,2.08,1.108c0.878-0.268,1.375-1.2,1.108-2.08
		C63.421,160.514,62.487,160.019,61.61,160.286z"/>
	<circle cx="129.191" cy="161.88" r="1.667"/>
	<path d="M80.829,168.428l-1.159-7.395l-0.207-0.052l-4.466,5.939c-0.39,0.521-0.708,0.853-0.958,0.993
		c-0.123,0.071-0.359,0.094-0.711,0.071l-0.054,0.221l2.539,0.623l0.054-0.221c-0.381-0.123-0.62-0.244-0.714-0.366
		c-0.094-0.123-0.126-0.244-0.096-0.368c0.038-0.154,0.163-0.371,0.374-0.651l0.859-1.138l3.121,0.768l0.204,1.279
		c0.066,0.414,0.077,0.709,0.035,0.883c-0.032,0.131-0.116,0.229-0.251,0.292c-0.136,0.063-0.366,0.063-0.69,0.002l-0.054,0.219
		l3.181,0.782l0.054-0.221c-0.323-0.101-0.559-0.253-0.704-0.46C81.042,169.423,80.922,169.024,80.829,168.428z M76.584,165.69
		l2.204-2.913l0.567,3.595L76.584,165.69z"/>
	<path d="M87.414,162.945l0.293,0.022c0.199,0.015,0.383,0.076,0.551,0.188c0.121,0.082,0.198,0.175,0.231,0.28
		c0.043,0.137,0.05,0.416,0.019,0.836l-0.388,5.349c-0.037,0.497-0.107,0.807-0.215,0.93c-0.169,0.188-0.425,0.271-0.766,0.245
		l-0.293-0.021L86.83,171l3.554,0.258l0.017-0.227l-0.299-0.022c-0.196-0.014-0.379-0.076-0.551-0.187
		c-0.125-0.083-0.203-0.176-0.237-0.28c-0.043-0.139-0.05-0.418-0.019-0.836l0.188-2.603l1.508,0.109
		c0.277,0.021,0.482,0.073,0.618,0.159c0.134,0.086,0.236,0.205,0.305,0.362c0.068,0.156,0.092,0.396,0.074,0.718l0.227,0.018
		l0.204-2.803l-0.227-0.018c-0.085,0.449-0.214,0.742-0.386,0.883c-0.171,0.142-0.43,0.2-0.776,0.175l-1.509-0.109l0.237-3.255
		l1.826,0.132c0.431,0.031,0.748,0.095,0.947,0.192c0.199,0.097,0.362,0.239,0.49,0.431c0.128,0.19,0.23,0.484,0.308,0.878
		l0.214,0.016l0.053-1.824l-6.162-0.448L87.414,162.945z"/>
	<path d="M105.604,164.341c-0.455-0.616-1.017-1.037-1.687-1.257c-0.67-0.219-1.623-0.271-2.858-0.156l-3.365,0.313l0.021,0.227
		l0.312-0.03c0.313-0.028,0.558,0.039,0.732,0.203c0.126,0.12,0.213,0.438,0.262,0.953l0.5,5.34
		c0.043,0.468,0.026,0.772-0.051,0.915c-0.125,0.237-0.362,0.372-0.711,0.405l-0.312,0.028l0.02,0.226l3.693-0.346
		c1.606-0.151,2.76-0.692,3.464-1.628c0.627-0.837,0.887-1.832,0.778-2.98C106.324,165.697,106.056,164.959,105.604,164.341z
		 M104.339,169.527c-0.56,0.721-1.312,1.125-2.253,1.213c-0.351,0.033-0.788,0.017-1.314-0.05l-0.658-7.027
		c0.455-0.162,0.867-0.26,1.233-0.295c0.976-0.091,1.804,0.164,2.487,0.763c0.685,0.602,1.079,1.472,1.186,2.613
		C105.125,167.878,104.899,168.807,104.339,169.527z"/>
	<path d="M115.859,161.147c-0.378-0.276-0.793-0.431-1.246-0.467c-0.455-0.036-1.04,0.042-1.757,0.232l-2.94,0.789l0.059,0.218
		l0.301-0.08c0.305-0.081,0.556-0.057,0.757,0.076c0.14,0.094,0.277,0.393,0.412,0.897l1.39,5.18
		c0.122,0.459,0.16,0.759,0.114,0.902c-0.087,0.26-0.3,0.436-0.639,0.526l-0.302,0.082l0.059,0.219l3.436-0.922l-0.059-0.219
		l-0.307,0.082c-0.305,0.082-0.554,0.057-0.751-0.077c-0.143-0.092-0.282-0.392-0.418-0.897l-0.625-2.334
		c0.271-0.016,0.522-0.037,0.754-0.07c0.232-0.032,0.445-0.074,0.638-0.127c0.79-0.211,1.346-0.579,1.666-1.105
		c0.321-0.526,0.395-1.116,0.219-1.77C116.491,161.799,116.237,161.421,115.859,161.147z M115.188,164.114
		c-0.212,0.396-0.524,0.649-0.934,0.76c-0.115,0.029-0.255,0.058-0.424,0.082c-0.167,0.022-0.359,0.043-0.578,0.059l-0.895-3.334
		c0.295-0.16,0.542-0.267,0.744-0.319c0.332-0.091,0.647-0.095,0.947-0.018c0.299,0.078,0.561,0.247,0.781,0.507
		c0.222,0.26,0.38,0.563,0.472,0.909C115.438,163.265,115.399,163.716,115.188,164.114z"/>
	<path d="M85.079,141.228c0.491-0.368,0.525-1.155,0.015-2.056c-0.509-0.891-1.767-1.292-1.768-1.299
		c0.007-0.002-0.455,1.603,0.036,2.556C83.854,141.375,84.6,141.595,85.079,141.228z"/>
	<path d="M75.746,138.505c-0.114-0.606-0.73-0.945-1.814-0.783c-1.086,0.162-2.194,1.386-2.193,1.39
		c-0.013,0.007,1.423,1.07,2.551,0.852C75.403,139.753,75.853,139.101,75.746,138.505z"/>
	<path d="M78.616,140.118c-0.192-0.584-0.851-0.838-1.903-0.536c-1.052,0.302-1.989,1.663-1.986,1.668
		c-0.014,0.012,1.548,0.872,2.636,0.509C78.443,141.404,78.803,140.696,78.616,140.118z"/>
	<path d="M76.258,137.721c0.587-0.152,0.926-0.861,0.819-1.884c-0.116-1.016-1.107-1.864-1.105-1.874
		c0.005,0.002-1.043,1.304-0.966,2.362C75.089,137.391,75.677,137.875,76.258,137.721z"/>
	<path d="M73.118,136.528c-0.011-0.232-0.102-0.436-0.267-0.6c-0.271-0.272-0.749-0.429-1.438-0.422
		c-1.097,0.009-2.362,1.074-2.362,1.081l0.004,0.002c-0.013,0.01,1.273,1.258,2.422,1.191
		C72.614,137.722,73.148,137.134,73.118,136.528z"/>
	<path d="M81.973,140.45c0.532-0.302,0.67-1.072,0.291-2.033c-0.378-0.949-1.563-1.508-1.563-1.521c0.005,0-0.666,1.529-0.311,2.535
		C80.75,140.437,81.451,140.75,81.973,140.45z"/>
	<path d="M84.913,142.148c-0.345-0.512-1.057-0.586-2-0.019c-0.943,0.566-1.49,2.127-1.487,2.131c-0.008,0.012,1.74,0.437,2.707-0.2
		C85.093,143.437,85.253,142.656,84.913,142.148z"/>
	<path d="M91.281,141.578c-0.169,0.011-0.344,0.023-0.514,0.035c-1.222,0.069-1.887-0.814-2.459-1.649
		c-0.076-0.138-0.167-0.277-0.277-0.42c-0.636-0.813-1.95-1.043-1.954-1.054c0.002,0.002-0.176,1.26,0.193,2.166
		c0.179,0.448,0.428,0.864,0.714,0.895c0.236,0.02,0.477,0.04,0.714,0.057c0.506,0.033,0.54,0.441,0.54,0.441
		s-0.069,0.409-0.595,0.378c-0.247-0.017-0.492-0.036-0.739-0.059c-0.293-0.028-0.635,0.314-0.952,0.699
		c-0.645,0.77-0.899,2.01-0.895,2.011c-0.008,0.016,1.801,0.204,2.687-0.562c0.15-0.126,0.277-0.258,0.38-0.389
		c0.768-0.784,1.449-1.623,2.693-1.694c0.177-0.011,0.356-0.023,0.534-0.039c0.537-0.047,0.545-0.466,0.543-0.466
		C91.897,141.927,91.797,141.53,91.281,141.578z"/>
	<path d="M81.686,141.341c-0.271-0.556-0.959-0.724-1.963-0.28c-1.009,0.438-1.755,1.911-1.753,1.913
		c-0.01,0.012,1.655,0.662,2.689,0.159C81.686,142.637,81.949,141.889,81.686,141.341z"/>
	<path d="M68.87,129.242c-0.333,1.029,0.03,1.719,0.626,1.81c0.609,0.095,1.194-0.426,1.487-1.423
		c0.285-0.984-0.312-2.192-0.306-2.203C70.683,127.431,69.206,128.215,68.87,129.242z"/>
	<path d="M79.019,139.272c0.565-0.228,0.805-0.977,0.563-1.976c-0.246-0.989-1.342-1.7-1.342-1.712c0.005,0-0.863,1.429-0.646,2.472
		C77.813,139.101,78.466,139.501,79.019,139.272z"/>
	<path d="M73.114,135.64c0.174,0.146,0.39,0.204,0.615,0.18c0.603-0.072,1.034-0.732,1.059-1.76c0.021-1.02-0.855-2-0.851-2.008
		c-0.001,0-0.004-0.005-0.004-0.005c0.005,0.002-1.206,1.152-1.267,2.216C72.628,134.93,72.82,135.402,73.114,135.64z"/>
	<path d="M67.828,129.17c0.553-0.302,0.732-1.022,0.311-1.953c-0.417-0.916-1.864-1.631-1.869-1.649
		c-0.004-0.013-0.685,1.524-0.208,2.577C66.528,129.186,67.277,129.471,67.828,129.17z"/>
	<path d="M68.719,131.573c0.129-0.606-0.313-1.175-1.385-1.467c-1.07-0.299-2.573,0.39-2.574,0.395
		c-0.013,0.005,0.913,1.589,2.044,1.839C67.92,132.597,68.591,132.169,68.719,131.573z"/>
	<path d="M70.762,134.209c0.048-0.616-0.46-1.112-1.557-1.25c-1.093-0.141-2.491,0.747-2.49,0.754
		c-0.012,0.004,1.105,1.427,2.253,1.516C70.105,135.328,70.711,134.814,70.762,134.209z"/>
	<path d="M70.609,131.898c-0.198,1.055,0.251,1.685,0.852,1.688c0.611,0.012,1.123-0.582,1.282-1.604
		c0.156-1.01-0.586-2.106-0.583-2.118C72.166,129.868,70.812,130.843,70.609,131.898z"/>
	<path d="M115.027,137.721c0.578,0.154,1.167-0.33,1.25-1.396c0.078-1.059-0.97-2.36-0.965-2.362c0,0.011-0.992,0.859-1.105,1.874
		C114.1,136.86,114.438,137.569,115.027,137.721z"/>
	<path d="M121.785,131.051c0.601-0.093,0.962-0.78,0.63-1.81c-0.337-1.026-1.812-1.811-1.809-1.815
		c0.007,0.012-0.59,1.218-0.306,2.202C120.593,130.625,121.18,131.148,121.785,131.051z"/>
	<path d="M117.353,137.722c-1.085-0.163-1.701,0.177-1.816,0.783c-0.109,0.596,0.345,1.248,1.459,1.458
		c1.128,0.219,2.562-0.845,2.549-0.852C119.548,139.108,118.438,137.884,117.353,137.722z"/>
	<path d="M119.124,129.865c0.002,0.012-0.741,1.108-0.584,2.117c0.161,1.022,0.673,1.616,1.282,1.606
		c0.601-0.006,1.052-0.636,0.853-1.689C120.473,130.843,119.121,129.868,119.124,129.865z"/>
	<path d="M117.347,132.052c0.002,0.008-0.873,0.987-0.854,2.008c0.026,1.027,0.457,1.688,1.061,1.76
		c0.226,0.024,0.441-0.034,0.614-0.18c0.293-0.238,0.486-0.71,0.449-1.377c-0.061-1.063-1.273-2.214-1.269-2.216L117.347,132.052z"
		/>
	<path d="M122.08,132.959c-1.096,0.138-1.605,0.634-1.555,1.25c0.048,0.604,0.654,1.118,1.792,1.019
		c1.148-0.09,2.265-1.512,2.25-1.516C124.569,133.707,123.172,132.819,122.08,132.959z"/>
	<path d="M123.95,130.106c-1.072,0.292-1.514,0.861-1.388,1.467c0.131,0.597,0.801,1.023,1.915,0.767
		c1.132-0.25,2.059-1.834,2.047-1.839C126.522,130.496,125.02,129.807,123.95,130.106z"/>
	<path d="M125.223,128.145c0.479-1.053-0.203-2.59-0.209-2.577c-0.005,0.019-1.449,0.733-1.868,1.649
		c-0.421,0.931-0.242,1.651,0.313,1.953C124.007,129.471,124.755,129.186,125.223,128.145z"/>
	<path d="M114.571,139.582c-1.055-0.302-1.712-0.049-1.904,0.536c-0.187,0.578,0.172,1.286,1.254,1.641
		c1.088,0.363,2.65-0.497,2.635-0.509C116.561,141.245,115.622,139.883,114.571,139.582z"/>
	<path d="M118.433,135.929c-0.166,0.165-0.256,0.367-0.269,0.6c-0.027,0.607,0.505,1.195,1.643,1.253
		c1.146,0.065,2.434-1.183,2.421-1.19l0.002-0.002c0.005-0.007-1.262-1.073-2.358-1.082
		C119.18,135.5,118.702,135.657,118.433,135.929z"/>
	<path d="M113.691,138.058c0.215-1.045-0.651-2.473-0.647-2.473c0,0.012-1.096,0.723-1.342,1.712
		c-0.243,0.998-0.002,1.748,0.564,1.976C112.818,139.501,113.471,139.101,113.691,138.058z"/>
	<path d="M107.925,140.427c0.488-0.951,0.027-2.557,0.033-2.556c0,0.007-1.26,0.408-1.767,1.301c-0.509,0.9-0.478,1.687,0.014,2.055
		C106.683,141.595,107.431,141.375,107.925,140.427z"/>
	<path d="M108.37,142.129c-0.943-0.568-1.655-0.494-2.001,0.019c-0.339,0.508-0.178,1.289,0.78,1.912
		c0.969,0.639,2.718,0.212,2.706,0.201C109.86,144.256,109.313,142.696,108.37,142.129z"/>
	<path d="M104.379,142.366c-0.248,0.022-0.491,0.044-0.739,0.061c-0.525,0.03-0.594-0.379-0.594-0.379s0.033-0.408,0.539-0.441
		c0.238-0.016,0.478-0.036,0.713-0.056c0.287-0.031,0.537-0.446,0.715-0.895c0.369-0.907,0.19-2.165,0.192-2.167
		c-0.002,0.012-1.316,0.24-1.954,1.055c-0.107,0.141-0.198,0.28-0.276,0.419c-0.571,0.836-1.236,1.72-2.457,1.65
		c-0.171-0.013-0.346-0.024-0.516-0.037c-0.517-0.047-0.613,0.351-0.611,0.351c-0.002,0,0.007,0.42,0.543,0.466
		c0.178,0.017,0.354,0.028,0.533,0.04c1.244,0.071,1.923,0.909,2.691,1.693c0.105,0.131,0.228,0.263,0.382,0.39
		c0.884,0.764,2.692,0.574,2.688,0.562c0.003-0.002-0.254-1.24-0.897-2.012C105.016,142.68,104.672,142.338,104.379,142.366z"/>
	<path d="M111.562,141.061c-1.004-0.443-1.692-0.275-1.962,0.28c-0.264,0.547,0,1.296,1.024,1.792
		c1.035,0.503,2.7-0.147,2.688-0.159C113.316,142.972,112.57,141.5,111.562,141.061z"/>
	<path d="M110.895,139.431c0.354-1.006-0.316-2.535-0.311-2.535c-0.002,0.011-1.184,0.571-1.565,1.521
		c-0.378,0.96-0.238,1.731,0.292,2.032C109.833,140.75,110.534,140.437,110.895,139.431z"/>
	<path d="M131.364,76.745c-8.947,0-14.433-4.415-19.736-8.685c-4.827-3.887-9.388-7.557-15.983-7.557
		c-6.599,0-11.161,3.671-15.989,7.558c-5.304,4.27-10.788,8.684-19.733,8.684c-1.051,0-2.139-0.061-3.237-0.182l-2.454-0.269
		l0.607,2.391c11.569,45.586,38.902,59.241,40.06,59.801l0.822,0.396l0.789-0.462c1.231-0.722,30.272-18.137,39.943-59.77
		l0.546-2.353l-2.4,0.264C133.503,76.685,132.415,76.745,131.364,76.745z M95.575,134.961c-4.5-2.574-26.457-16.837-36.81-54.813
		c0.389,0.014,0.776,0.021,1.158,0.021c10.151,0,16.381-5.016,21.88-9.441c4.534-3.649,8.45-6.801,13.842-6.801
		c5.389,0,9.305,3.151,13.836,6.8c5.498,4.425,11.728,9.442,21.883,9.442c0.396,0,0.796-0.008,1.202-0.023
		C123.657,114.971,100.201,131.91,95.575,134.961z"/>
	<path d="M107.684,72.892c-4.763-3.835-7.896-6.187-12.091-6.187c-4.202,0-7.335,2.351-12.101,6.187
		c-4.831,3.889-10.844,8.73-19.744,9.823l-1.363,0.167l0.414,1.31c5.78,18.263,14.245,29.851,20.327,36.354
		c3.583,3.833,8.516,8.816,11.663,10.798l0.641,0.402l0.621-0.432c2.632-1.836,7.088-6.124,12.542-12.07
		c9.104-9.933,15.797-21.724,19.896-35.048l0.401-1.307l-1.356-0.163C118.577,81.659,112.539,76.799,107.684,72.892z
		 M106.909,117.701c-4.85,5.287-8.992,9.333-11.542,11.284c-2.358-1.674-6.069-5.178-10.574-9.996
		c-5.779-6.18-13.771-17.088-19.404-34.206c8.79-1.462,14.722-6.239,19.535-10.112c4.376-3.523,7.233-5.683,10.669-5.683
		c3.429,0,6.286,2.16,10.664,5.684c4.834,3.892,10.797,8.69,19.646,10.13C121.876,97.277,115.491,108.341,106.909,117.701z"/>
	<path d="M92.05,95.833l0.292,0.291l0.24,0.24c0.653-0.169,1.328-0.285,2.019-0.342l-0.48-0.48l-0.597-0.6l-0.292-0.29l-0.292-0.292
		l-0.598-0.6l-0.292,0.292l-0.598,0.599l-0.291,0.29l0.6,0.6L92.05,95.833z"/>
	<polygon points="96.774,91.108 97.066,91.399 97.664,91.998 97.956,92.289 98.248,92.58 98.845,93.179 99.138,92.886 
		99.734,92.289 100.027,91.998 99.429,91.399 99.138,91.108 98.845,90.815 98.248,90.217 97.956,89.927 97.664,89.634 
		97.066,89.037 96.774,89.329 96.178,89.927 95.885,90.217 96.482,90.815 	"/>
	<path d="M100.256,96.953l-2.008-2.011l-0.294-0.29l-0.29-0.292l-0.598-0.6l-0.292,0.292l-0.597,0.599l-0.293,0.29l1.124,1.126
		C98.15,96.208,99.239,96.511,100.256,96.953z"/>
	<path d="M98.54,89.927l0.598,0.598l0.291,0.291l3.729-3.728c0.398-0.366,0.94-0.488,1.374,0.021
		c0.458,0.533-0.188,1.045-0.578,1.545l-3.343,3.343l-0.292,0.292l-0.291,0.292l-0.599,0.598l-0.291,0.292l-0.293,0.291
		l-0.597,0.599l0.292,0.292l0.598,0.598l0.291,0.292l0.599-0.598l0.291-0.292l0.292-0.292l0.598-0.599l0.291-0.291l0.294-0.292
		l3.194-3.195c1.457-1.137,1.582-2.801,0.697-3.806c-0.205-0.235-0.455-0.432-0.736-0.58c-0.76-0.4-1.304-0.594-2.087-0.261
		c-0.189,0.082-0.69,0.403-0.849,0.572l-3.765,3.726L98.54,89.927z"/>
	<polygon points="95.302,94.943 95.594,94.652 95.885,94.36 96.482,93.761 96.774,93.47 97.066,93.179 97.664,92.58 97.372,92.289 
		96.774,91.69 96.482,91.399 95.885,91.998 95.594,92.289 95.302,92.58 94.705,93.179 94.412,93.47 94.121,93.761 93.521,94.36 
		93.814,94.652 94.412,95.25 94.705,95.542 	"/>
	<polygon points="92.05,93.47 92.342,93.179 92.939,92.58 92.646,92.289 92.05,91.69 91.757,91.399 91.161,91.998 90.868,92.289 
		90.576,92.58 89.979,93.179 89.686,93.47 89.395,93.761 88.796,94.36 89.09,94.652 89.687,95.25 89.979,95.542 90.576,94.943 
		90.868,94.652 91.161,94.36 91.757,93.761 	"/>
	<path d="M91.281,85.613l2.839,2.839l0.291-0.292l0.598-0.598l0.292-0.291l-2.585-2.586c0.003-0.002,0.006-0.004,0.009-0.007
		c-1.814-2.067-1.771-3.249-1.561-4.346c0.45-2.344,2.537-3.815,4.892-3.511c1.122,0.146,2.266,0.451,2.944,1.432
		c0.819,1.189,1.361,2.674,0.951,4.079c-0.149,0.517-0.229,0.993-1.147,2.021l-2.919,2.917l-0.291,0.291l-0.292,0.292l-0.597,0.598
		l-0.292,0.292l-0.292,0.294l-0.599,0.598l0.292,0.292l0.598,0.598l0.292,0.291l0.597-0.598l0.292-0.291l0.291-0.292l0.598-0.598
		l0.292-0.292l0.292-0.292l2.988-2.988c1.492-1.814,1.855-2.87,1.91-4.17c0.017-0.377,0.21-3.323-2.532-5.518
		c-1.022-0.817-2.893-1.122-4.176-1.14c-3.122-0.042-7.848,3.882-5.508,9.062C89.961,84.168,90.688,84.943,91.281,85.613z"/>
	<path d="M87.922,97.012l-0.597-0.595l-0.292-0.293l-2.739,2.74c-1.704,1.378-2.726,1.328-3.679,1.146
		c-2.179-0.419-3.695-2.51-3.414-4.702c0.136-1.044,0.568-1.953,1.481-2.583c1.105-0.763,2.862-1.186,4.149-0.746
		c0.905,0.31,2.058,1.419,2.058,1.419l2.726,2.725l0.599,0.599l0.292,0.289l0.291,0.295l0.489,0.488
		c0.492-0.313,1.008-0.587,1.544-0.821l-0.851-0.85l-0.293-0.291l-0.29-0.292l-0.599-0.6l-0.582-0.582l-3.066-3.066
		c0,0-0.928-0.899-2.152-1.207c-0.447-0.114-0.887-0.243-1.456-0.27c-0.352-0.014-3.336,0.011-5.075,2.665
		c-0.668,1.018-0.987,2.401-1.003,3.595c-0.037,2.758,2.752,7.256,7.88,5.5c0.434-0.147,1.392-0.774,1.491-0.893l3.38-3.377
		L87.922,97.012z"/>
	<path d="M103.264,94.652l0.6,0.598l0.292,0.292l2.56-2.561c0.886-0.922,1.352-1.274,1.854-1.431c1.768-0.55,2.8,0.206,3.906,0.97
		c0.91,0.63,1.431,1.704,1.506,2.754c0.224,3.061-1.311,4.317-3.353,5.027c-0.927,0.319-1.901,0.229-3.758-1.462l-2.716-2.716
		l-0.292-0.292l-0.292-0.291l-0.597-0.598l-0.292-0.292l-0.293-0.292l-0.597-0.599l-0.292,0.292l-0.599,0.599l-0.29,0.291
		l0.597,0.599l0.292,0.292l0.292,0.291l0.597,0.599l0.293,0.292l0.292,0.292l3.744,3.744l0.005-0.004
		c0.021,0.023,0.377,0.313,0.39,0.32c4.291,3.203,8.701-1.146,8.701-4.919c0-1.454-0.197-2.832-0.863-3.85
		c-1.739-2.652-4.876-2.982-5.228-2.989c-1.177-0.022-1.896,0.207-3.248,1.246l-3.501,3.504L103.264,94.652z"/>
	<path d="M85.993,89.775l3.402,3.403l0.291-0.292l0.598-0.597l0.292-0.292l-3.38-3.381c-0.392-0.419-0.621-0.915-0.044-1.39
		c0.391-0.322,0.854-0.094,1.223,0.205l3.383,3.384l0.293,0.292l0.292,0.292l0.598,0.598l0.292,0.292l0.291,0.292l0.599,0.598
		l0.292-0.292l0.598-0.597l0.292-0.292l-0.597-0.598l-0.292-0.292l-0.292-0.292l-0.599-0.598l-0.291-0.291l-0.292-0.292
		c0,0-3.066-3.111-3.14-3.177c-1.375-1.236-2.745-1.342-3.702-0.465c-0.23,0.21-0.489,0.437-0.637,0.718
		c-0.4,0.759-0.426,1.778,0,2.458C85.513,89.25,85.886,89.688,85.993,89.775z"/>
	<circle cx="95.563" cy="112.789" r="1.568"/>
	<path d="M95.564,97.976c-5.601,0-10.157,4.557-10.157,10.158c0,5.6,4.557,10.158,10.157,10.158c5.6,0,10.157-4.559,10.157-10.158
		C105.721,102.533,101.164,97.976,95.564,97.976z M95.563,101.854c0.866,0,1.569,0.702,1.569,1.569c0,0.868-0.703,1.569-1.569,1.569
		c-0.867,0-1.57-0.701-1.57-1.569C93.993,102.556,94.696,101.854,95.563,101.854z M95.564,117.246c-0.691,0-1.364-0.08-2.013-0.228
		c-1.579-0.751-2.672-2.362-2.672-4.229c0-2.588,2.096-4.685,4.684-4.685c2.587,0,4.683-2.097,4.683-4.684
		c0-1.789-1.005-3.346-2.48-4.134c3.965,0.986,6.912,4.578,6.912,8.845C104.678,113.158,100.589,117.246,95.564,117.246z"/>
	<path d="M117.203,62.459c-2.382,3.294,2.277,7.074,5.164,4.805c0.479-0.376,0.813-0.905,0.975-1.424
		c0.929-3.196-3.435-3.97-3.314-1.19c0.008,0.2,0.29,0.256,0.366,0.046c0.447-1.289,1.614-0.729,1.752-0.052
		c0.063,0.192,0.013,0.481-0.081,0.787c-0.96,2.782-6.477,0.034-3.459-2.99c3.79-3.672,12.996,4.959,22.396,5.305
		c0.352,0.003,0.734,0.07,0.745-0.281c0.003-0.163-0.126-0.248-0.286-0.252C131.516,66.977,121.412,56.425,117.203,62.459z"/>
	<path d="M72.797,62.442c2.592,2.591-1.148,5.128-2.921,3.74c-0.541-0.411-0.732-1.182-0.617-1.537
		c0.134-0.666,1.291-1.25,1.754,0.06c0.068,0.193,0.354,0.151,0.363-0.054c0.103-2.797-4.24-1.991-3.315,1.19
		c0.159,0.518,0.494,1.047,0.974,1.424c3.137,2.465,8.238-2.153,4.496-5.557c-4.698-4.261-13.587,5-23.14,5.524
		c-0.35,0.008-0.678,0.051-0.735,0.229c0.003,0.163,0.134,0.292,0.295,0.29C59.514,67.685,68.932,58.688,72.797,62.442z"/>
	<path d="M89.503,47.016c2.196,1.007,4.208,2.493,5.884,4.382c0.275,0.309,0.721,0.309,0.995,0c1.674-1.89,3.687-3.375,5.878-4.382
		c0.292-0.137,0.469-0.458,0.438-0.807c-0.025-0.354-0.244-0.634-0.553-0.713c-1.074-0.261-2.094-0.347-2.966-0.28
		c-0.889-2.917-1.63-3.647-2.749-5.213c-0.139-0.194-0.326-0.296-0.547-0.296c-0.22,0-0.41,0.102-0.548,0.296
		c-1.118,1.566-1.86,2.295-2.744,5.213c-0.871-0.067-1.895,0.019-2.971,0.28c-0.307,0.079-0.522,0.358-0.555,0.713
		C89.046,46.558,89.218,46.879,89.503,47.016z"/>
	<path d="M100.311,51.689c-0.167-0.1-0.384-0.072-0.553,0.068c-0.164,0.144-0.227,0.359-0.164,0.543
		c0.521,1.398,0.749,2.925,0.656,4.481c-0.017,0.254,0.18,0.45,0.434,0.435c1.557-0.095,3.084,0.136,4.479,0.653
		c0.188,0.066,0.404,0.004,0.544-0.161c0.143-0.167,0.169-0.385,0.069-0.553c-0.355-0.583-0.763-1.067-1.173-1.418
		c0.887-1.66,0.88-2.302,1.076-3.475c0.025-0.145-0.013-0.272-0.109-0.367c-0.097-0.097-0.222-0.134-0.366-0.111
		c-1.172,0.195-1.815,0.19-3.473,1.078C101.378,52.453,100.895,52.045,100.311,51.689z"/>
	<path d="M86.606,57.87c1.396-0.518,2.923-0.748,4.479-0.653c0.252,0.016,0.449-0.181,0.433-0.435
		c-0.093-1.556,0.136-3.083,0.656-4.481c0.064-0.184,0.001-0.4-0.163-0.543c-0.169-0.141-0.386-0.168-0.553-0.068
		c-0.585,0.356-1.068,0.764-1.42,1.174c-1.658-0.888-2.3-0.882-3.472-1.078c-0.145-0.024-0.271,0.014-0.368,0.111
		c-0.097,0.095-0.133,0.222-0.109,0.367c0.195,1.172,0.189,1.814,1.075,3.475c-0.41,0.351-0.816,0.834-1.172,1.418
		c-0.1,0.168-0.072,0.385,0.069,0.553C86.203,57.874,86.42,57.936,86.606,57.87z"/>
</g>
</svg>
