<?xml version="1.0" encoding="utf-8"?>
<!-- Generator: Adobe Illustrator 16.0.3, SVG Export Plug-In . SVG Version: 6.00 Build 0)  -->
<!DOCTYPE svg PUBLIC "-//W3C//DTD SVG 1.1//EN" "http://www.w3.org/Graphics/SVG/1.1/DTD/svg11.dtd">
<svg version="1.1" id="Layer_1" xmlns="http://www.w3.org/2000/svg" xmlns:xlink="http://www.w3.org/1999/xlink" x="0px" y="0px"
	 width="110px" height="110px" viewBox="0 0 110 110" enable-background="new 0 0 110 110" xml:space="preserve">
<g id="global">
	<g>
		<path fill="#010101" d="M55,0.548C24.884,0.548,0.469,24.927,0.469,55S24.884,109.452,55,109.452S109.529,85.073,109.529,55
			S85.116,0.548,55,0.548z M96.172,35.689c1.85,3.923,3.143,8.156,3.779,12.599h-1.445c-0.619-4.183-1.841-8.171-3.572-11.876
			L96.172,35.689z M88.552,22.854l0.685,0.71l-3.805,3.66l-0.685-0.71L88.552,22.854z M81.438,16.903
			c0.037,0.026,0.064,0.049,0.086,0.069c0.022,0.02,0.039,0.042,0.051,0.064c0.013,0.023,0.021,0.049,0.027,0.078
			c0.006,0.03,0.008,0.066,0.01,0.109l0.158,4.486c0.043-0.075,0.088-0.146,0.133-0.214c0.045-0.068,0.089-0.131,0.13-0.188
			l1.891-2.593l0.699,0.51l-3.11,4.266l-0.41-0.299c-0.063-0.046-0.106-0.093-0.135-0.143c-0.025-0.05-0.041-0.115-0.043-0.195
			l-0.158-4.467c-0.041,0.067-0.082,0.133-0.125,0.197c-0.041,0.064-0.08,0.122-0.117,0.173l-1.91,2.62l-0.7-0.51l3.11-4.266
			L81.438,16.903z M72.669,16.263c0.034-0.353,0.14-0.701,0.313-1.046c0.176-0.345,0.396-0.636,0.66-0.871
			c0.265-0.236,0.556-0.408,0.875-0.517c0.317-0.108,0.654-0.148,1.01-0.119c0.355,0.028,0.711,0.133,1.066,0.314
			s0.649,0.406,0.881,0.677c0.23,0.271,0.396,0.565,0.498,0.885c0.1,0.319,0.131,0.655,0.098,1.008
			c-0.035,0.352-0.141,0.701-0.314,1.046c-0.176,0.345-0.396,0.635-0.66,0.871c-0.264,0.235-0.555,0.408-0.871,0.517
			c-0.317,0.109-0.654,0.149-1.009,0.121s-0.709-0.133-1.063-0.314c-0.356-0.181-0.65-0.406-0.885-0.676
			c-0.232-0.27-0.398-0.565-0.5-0.886C72.668,16.953,72.635,16.616,72.669,16.263z M70.979,11.687l0.926,0.335l-1.799,4.964
			L69.18,16.65L70.979,11.687z M64.87,9.968l4.043,1.004l-0.194,0.783l-1.541-0.383L66.1,15.713l-0.953-0.237l1.078-4.34
			l-1.549-0.385L64.87,9.968z M60.734,9.378l0.998,0.118l1.438,5.486l-0.754-0.089c-0.085-0.01-0.151-0.039-0.201-0.088
			c-0.05-0.049-0.082-0.105-0.1-0.171l-0.265-1.116l-2.172-0.256l-0.52,1.023c-0.025,0.053-0.069,0.1-0.131,0.139
			c-0.063,0.04-0.135,0.054-0.219,0.044l-0.756-0.089L60.734,9.378z M52.909,13.92c0.016-0.045,0.036-0.088,0.063-0.127l2.635-3.9
			l-2.636,0.055l-0.016-0.781l3.904-0.083l0.009,0.361c0.003,0.112-0.026,0.215-0.089,0.309l-2.627,3.882l2.739-0.058l0.017,0.785
			l-4.012,0.084l-0.008-0.387C52.885,14.013,52.892,13.966,52.909,13.92z M50.47,9.42l0.663,5.237l-0.979,0.124l-0.661-5.238
			L50.47,9.42z M45.241,10.334l0.987,4.358l2.062-0.467l0.179,0.791l-3.019,0.685l-1.167-5.149L45.241,10.334z M39.358,12.143
			l0.941-0.349l3.78,4.229l-0.712,0.264c-0.08,0.03-0.153,0.034-0.219,0.013s-0.122-0.056-0.167-0.107l-0.744-0.873l-2.051,0.76
			l0.005,1.147c0.001,0.059-0.018,0.12-0.055,0.184c-0.037,0.063-0.095,0.109-0.172,0.138l-0.716,0.265L39.358,12.143z
			 M35.478,13.84l2.388,4.708l-0.879,0.446l-2.389-4.708L35.478,13.84z M29.812,17.985c0.069-0.33,0.206-0.642,0.411-0.935
			c0.206-0.292,0.476-0.549,0.812-0.769c0.328-0.215,0.649-0.35,0.963-0.406s0.615-0.055,0.904,0.004l-0.025,0.562
			c0,0.035-0.007,0.07-0.021,0.105c-0.013,0.035-0.042,0.067-0.087,0.097c-0.047,0.03-0.107,0.043-0.18,0.039
			c-0.073-0.004-0.161-0.003-0.264,0.003c-0.104,0.007-0.224,0.03-0.363,0.068c-0.139,0.038-0.297,0.116-0.475,0.231
			c-0.208,0.136-0.375,0.297-0.501,0.483c-0.127,0.187-0.209,0.388-0.246,0.604c-0.037,0.216-0.028,0.444,0.028,0.682
			c0.056,0.238,0.162,0.478,0.319,0.718c0.163,0.249,0.343,0.447,0.539,0.594c0.197,0.147,0.399,0.248,0.606,0.302
			c0.207,0.054,0.415,0.062,0.624,0.026s0.407-0.116,0.594-0.239c0.112-0.073,0.209-0.146,0.292-0.217
			c0.083-0.072,0.153-0.146,0.212-0.222c0.059-0.076,0.109-0.158,0.15-0.244c0.041-0.086,0.075-0.182,0.102-0.288
			c0.008-0.031,0.02-0.06,0.035-0.086c0.015-0.026,0.036-0.047,0.062-0.064c0.045-0.029,0.095-0.038,0.15-0.024l0.554,0.139
			c-0.034,0.339-0.143,0.654-0.327,0.943c-0.185,0.29-0.46,0.554-0.827,0.794c-0.328,0.215-0.659,0.352-0.994,0.411
			s-0.66,0.05-0.976-0.028c-0.316-0.078-0.614-0.224-0.894-0.436c-0.28-0.212-0.527-0.482-0.743-0.81
			c-0.217-0.332-0.361-0.672-0.432-1.02C29.744,18.654,29.743,18.315,29.812,17.985z M27.136,19.105l0.51,0.592l-1.771,1.529
			l0.957,1.108l1.396-1.205l0.494,0.572l-1.396,1.205l0.975,1.13l1.772-1.529l0.513,0.594l-2.521,2.175l-3.449-3.997L27.136,19.105z
			 M21.581,24.398c0.235-0.263,0.47-0.462,0.704-0.6c0.233-0.137,0.462-0.218,0.685-0.244c0.223-0.026,0.438,0,0.646,0.079
			c0.208,0.079,0.402,0.199,0.585,0.364c0.19,0.17,0.336,0.359,0.438,0.564c0.102,0.206,0.153,0.423,0.153,0.652
			s-0.053,0.467-0.16,0.715c-0.107,0.247-0.275,0.498-0.504,0.754l-0.492,0.549l1.384,1.241l-0.656,0.731l-3.931-3.524
			L21.581,24.398z M15.767,34.852l1.186,0.83c-1.917,3.91-3.264,8.148-3.924,12.607h-1.445
			C12.266,43.527,13.703,39.007,15.767,34.852z M10.604,54.938c0-0.757,0.614-1.371,1.37-1.371c0.757,0,1.371,0.614,1.371,1.371
			c0,0.757-0.614,1.371-1.371,1.371C11.218,56.309,10.604,55.693,10.604,54.938z M20.515,82.568
			c-4.802-6.174-8.021-13.639-9.04-21.778h1.442c1.004,7.771,4.083,14.897,8.657,20.812L20.515,82.568z M21.637,32.724
			c-0.135,0.089-0.275,0.162-0.419,0.22c-0.144,0.059-0.288,0.1-0.433,0.125l-0.225-0.502c-0.012-0.042-0.018-0.084-0.015-0.128
			c0.002-0.044,0.017-0.085,0.043-0.123c0.035-0.05,0.093-0.09,0.173-0.12c0.082-0.03,0.175-0.066,0.279-0.111
			c0.105-0.044,0.215-0.106,0.33-0.185c0.116-0.079,0.226-0.193,0.329-0.343c0.159-0.23,0.228-0.446,0.206-0.647
			c-0.021-0.202-0.134-0.373-0.338-0.515c-0.114-0.079-0.227-0.115-0.338-0.108s-0.225,0.041-0.339,0.101
			c-0.114,0.06-0.229,0.139-0.347,0.235c-0.117,0.097-0.239,0.193-0.364,0.289c-0.126,0.097-0.259,0.186-0.398,0.267
			c-0.139,0.082-0.286,0.138-0.442,0.169c-0.155,0.031-0.32,0.029-0.495-0.007c-0.174-0.037-0.361-0.124-0.559-0.261
			c-0.158-0.109-0.29-0.248-0.396-0.415s-0.176-0.351-0.208-0.553c-0.032-0.201-0.022-0.414,0.03-0.639
			c0.052-0.224,0.156-0.45,0.313-0.676c0.178-0.256,0.381-0.464,0.611-0.625c0.229-0.161,0.469-0.267,0.719-0.32l0.244,0.462
			c0.029,0.053,0.042,0.1,0.04,0.141c-0.002,0.042-0.017,0.083-0.044,0.123c-0.027,0.04-0.075,0.074-0.14,0.103
			c-0.066,0.029-0.142,0.063-0.227,0.105s-0.175,0.098-0.269,0.167c-0.094,0.07-0.184,0.167-0.27,0.291
			c-0.078,0.112-0.132,0.219-0.162,0.321c-0.031,0.102-0.042,0.198-0.034,0.288c0.009,0.09,0.037,0.173,0.085,0.247
			c0.047,0.074,0.111,0.139,0.191,0.194c0.102,0.071,0.207,0.102,0.314,0.091c0.107-0.01,0.218-0.045,0.331-0.106
			c0.113-0.061,0.23-0.138,0.352-0.232c0.122-0.093,0.247-0.188,0.376-0.283c0.129-0.095,0.265-0.183,0.405-0.264
			s0.287-0.138,0.438-0.171c0.153-0.034,0.312-0.036,0.477-0.005c0.165,0.031,0.338,0.108,0.518,0.232
			c0.196,0.136,0.357,0.297,0.482,0.482c0.124,0.186,0.206,0.387,0.243,0.604c0.038,0.217,0.029,0.444-0.027,0.681
			c-0.056,0.237-0.167,0.475-0.333,0.715c-0.095,0.138-0.203,0.265-0.323,0.38C21.899,32.534,21.772,32.636,21.637,32.724z
			 M24.294,89.416c0.1,0.206,0.243,0.395,0.429,0.561c0.165,0.148,0.321,0.264,0.47,0.344s0.302,0.144,0.46,0.189l0.643-0.714
			l-0.491-0.442c-0.047-0.041-0.072-0.088-0.076-0.139c-0.003-0.052,0.012-0.096,0.046-0.134l0.371-0.412l1.305,1.175l-1.429,1.588
			c-0.165-0.018-0.325-0.048-0.48-0.092c-0.155-0.043-0.31-0.104-0.463-0.179c-0.152-0.075-0.306-0.167-0.461-0.275
			c-0.155-0.108-0.313-0.233-0.474-0.38c-0.286-0.258-0.504-0.544-0.655-0.859c-0.151-0.316-0.235-0.643-0.25-0.978
			c-0.016-0.336,0.038-0.671,0.161-1.005c0.123-0.335,0.316-0.648,0.578-0.939c0.265-0.293,0.557-0.521,0.874-0.682
			c0.318-0.16,0.645-0.249,0.98-0.268c0.335-0.02,0.674,0.037,1.013,0.166c0.339,0.127,0.665,0.332,0.979,0.615
			c0.32,0.288,0.554,0.586,0.703,0.892s0.236,0.606,0.262,0.907l-0.51,0.14c-0.102,0.028-0.187,0.014-0.256-0.05
			c-0.043-0.038-0.074-0.092-0.094-0.162c-0.027-0.086-0.055-0.174-0.085-0.264c-0.029-0.088-0.069-0.179-0.12-0.271
			c-0.051-0.091-0.115-0.187-0.191-0.285c-0.077-0.099-0.174-0.2-0.294-0.31c-0.194-0.174-0.398-0.299-0.613-0.375
			c-0.215-0.075-0.433-0.103-0.652-0.079c-0.219,0.021-0.436,0.09-0.648,0.206c-0.212,0.115-0.414,0.279-0.602,0.488
			c-0.204,0.228-0.354,0.457-0.449,0.689c-0.096,0.232-0.141,0.462-0.136,0.686C24.143,88.996,24.195,89.21,24.294,89.416z
			 M30.546,94.322l-0.463,0.664l-2.541-1.771l3.018-4.331l0.806,0.563l-2.554,3.667L30.546,94.322z M37.644,94.938
			c-0.039,0.353-0.148,0.698-0.328,1.041c-0.181,0.344-0.405,0.631-0.672,0.862c-0.268,0.232-0.561,0.4-0.879,0.505
			c-0.319,0.104-0.655,0.141-1.009,0.107c-0.354-0.034-0.707-0.145-1.061-0.329c-0.354-0.187-0.645-0.415-0.874-0.688
			c-0.229-0.272-0.392-0.57-0.488-0.894s-0.124-0.66-0.084-1.013c0.039-0.353,0.148-0.698,0.329-1.041
			c0.181-0.344,0.404-0.631,0.672-0.862c0.267-0.231,0.561-0.399,0.881-0.504c0.32-0.104,0.658-0.14,1.013-0.104
			c0.355,0.034,0.708,0.145,1.063,0.328c0.353,0.188,0.643,0.415,0.871,0.689c0.228,0.273,0.389,0.57,0.484,0.892
			C37.655,94.249,37.684,94.585,37.644,94.938z M43.014,96.77c-0.041,0.117-0.098,0.223-0.17,0.317
			c-0.072,0.095-0.161,0.175-0.266,0.242s-0.227,0.119-0.365,0.155c-0.138,0.035-0.293,0.054-0.466,0.052
			c0.629,0.396,0.84,0.887,0.633,1.472c-0.075,0.211-0.184,0.393-0.328,0.542c-0.144,0.151-0.315,0.265-0.515,0.339
			c-0.2,0.074-0.425,0.109-0.676,0.104c-0.25-0.007-0.521-0.062-0.81-0.163l-1.879-0.666l1.764-4.977l1.717,0.607
			c0.325,0.116,0.593,0.245,0.802,0.389c0.208,0.146,0.366,0.301,0.474,0.467c0.108,0.168,0.167,0.345,0.178,0.531
			C43.118,96.369,43.087,96.564,43.014,96.77z M47.869,101.875c-0.083-0.018-0.147-0.052-0.192-0.105
			c-0.045-0.052-0.073-0.111-0.083-0.18l-0.168-1.134l-2.141-0.444l-0.605,0.975c-0.03,0.052-0.078,0.094-0.144,0.127
			s-0.138,0.041-0.22,0.025l-0.747-0.156l3.103-4.748l0.983,0.205l0.958,5.591L47.869,101.875z M53.652,102.48l-3.086-0.25
			l0.424-5.262l0.979,0.079l-0.359,4.455l2.107,0.169L53.652,102.48z M50.479,72.911c1.594,0.319,3.241,0.489,4.927,0.489
			c1.686,0,3.332-0.17,4.926-0.489c-0.762,1.979-2.68,3.392-4.926,3.392S51.241,74.891,50.479,72.911z M55.407,68.93
			c10.884,0,19.804-8.546,20.389-19.271h2.239c-0.587,11.956-10.512,21.504-22.628,21.504c-12.117,0-22.042-9.548-22.628-21.504
			h2.239C35.601,60.384,44.522,68.93,55.407,68.93z M37.227,48.539c0-10.009,8.156-18.153,18.18-18.153s18.179,8.145,18.179,18.153
			c0,10.01-8.154,18.154-18.179,18.154C45.382,66.691,37.227,58.549,37.227,48.539z M56.527,78.457
			c3.209-0.48,5.761-2.995,6.295-6.184c10.117-3.158,17.482-12.604,17.482-23.735v-1.119h-4.51
			C75.21,36.694,66.29,28.147,55.406,28.147c-10.884,0-19.805,8.547-20.39,19.272h-4.509v1.119c0,11.13,7.364,20.577,17.482,23.735
			c0.535,3.188,3.086,5.701,6.295,6.184v9.086c-6.188-0.133-11.962-1.977-16.861-5.082c-0.718-0.456-1.418-0.938-2.097-1.445
			c-2.904-2.171-5.435-4.81-7.485-7.803c-0.954-1.393-1.803-2.859-2.536-4.395c-2.044-4.273-3.19-9.057-3.19-14.1
			c0-18.106,14.752-32.837,32.884-32.837c18.131,0,32.884,14.73,32.884,32.837c0,8.61-3.338,16.455-8.787,22.317
			c-0.602,0.647-1.229,1.272-1.882,1.871c-3.037,2.784-6.599,5.005-10.517,6.499c-0.76,0.289-1.531,0.552-2.315,0.785
			c-2.508,0.746-5.141,1.199-7.856,1.324v-9.059H56.527z M62.009,101.193c-0.067,0.197-0.177,0.371-0.327,0.523
			c-0.148,0.151-0.34,0.277-0.57,0.376c-0.229,0.101-0.498,0.163-0.803,0.19l-1.985,0.181l-0.479-5.257l1.814-0.165
			c0.344-0.032,0.642-0.026,0.892,0.017c0.249,0.045,0.458,0.119,0.625,0.227s0.296,0.242,0.384,0.408s0.143,0.355,0.162,0.572
			c0.012,0.123,0.004,0.242-0.021,0.358c-0.026,0.116-0.073,0.228-0.141,0.332c-0.068,0.104-0.158,0.204-0.269,0.295
			s-0.243,0.171-0.401,0.242c0.737,0.097,1.135,0.452,1.19,1.071C62.1,100.787,62.076,100.998,62.009,101.193z M64.445,101.736
			l-1.125-5.158l3.254-0.71l0.166,0.763l-2.286,0.5l0.312,1.43l1.803-0.393l0.16,0.738L64.928,99.3l0.318,1.458l2.286-0.498
			l0.167,0.766L64.445,101.736z M73.553,99.104c-0.08,0.028-0.152,0.032-0.22,0.012c-0.065-0.021-0.121-0.059-0.165-0.109
			l-0.734-0.881l-2.059,0.738l-0.008,1.146c0.001,0.059-0.02,0.12-0.057,0.184c-0.039,0.063-0.097,0.107-0.175,0.137l-0.718,0.258
			l0.169-5.67l0.945-0.339l3.733,4.269L73.553,99.104z M78.96,95.866c-0.079,0.26-0.212,0.501-0.401,0.722
			c-0.188,0.221-0.434,0.41-0.732,0.567s-0.596,0.25-0.885,0.278c-0.289,0.029-0.563,0.002-0.819-0.082s-0.491-0.221-0.705-0.408
			c-0.213-0.189-0.392-0.424-0.538-0.701l-1.466-2.803l0.87-0.455l1.464,2.799c0.095,0.179,0.203,0.328,0.327,0.447
			s0.259,0.205,0.402,0.261c0.145,0.055,0.297,0.075,0.459,0.063c0.162-0.015,0.326-0.063,0.496-0.152
			c0.168-0.088,0.303-0.194,0.406-0.32c0.104-0.125,0.174-0.264,0.213-0.412c0.038-0.148,0.045-0.309,0.018-0.479
			s-0.088-0.346-0.182-0.523l-1.467-2.802l0.87-0.455l1.467,2.802c0.146,0.277,0.235,0.559,0.271,0.842
			C79.063,95.337,79.038,95.607,78.96,95.866z M82.736,94.125l-2.575-3.655l-1.306,0.919l-0.465-0.658l3.405-2.4l0.466,0.659
			l-1.299,0.915l2.577,3.656L82.736,94.125z M87.432,90.436l-1.384-1.518l-3.596-1.089l0.64-0.583
			c0.063-0.059,0.126-0.087,0.191-0.09c0.064-0.004,0.131,0.007,0.197,0.029l1.903,0.651c0.111,0.04,0.216,0.08,0.31,0.121
			c0.094,0.042,0.183,0.084,0.27,0.128c-0.039-0.09-0.076-0.184-0.109-0.279s-0.063-0.199-0.092-0.313l-0.478-1.95
			c-0.017-0.058-0.021-0.122-0.013-0.192c0.008-0.069,0.043-0.133,0.104-0.188l0.642-0.586l0.756,3.68l1.383,1.516L87.432,90.436z
			 M89.234,31.871c-0.047-0.062-0.076-0.121-0.088-0.176c-0.013-0.055-0.008-0.122,0.015-0.199l1.132-4.324
			c-0.059,0.053-0.115,0.104-0.174,0.153c-0.061,0.049-0.114,0.093-0.165,0.132l-2.583,1.959l-0.521-0.689l4.205-3.191l0.312,0.41
			c0.026,0.035,0.048,0.065,0.063,0.091c0.014,0.026,0.023,0.051,0.029,0.076c0.005,0.025,0.006,0.053,0.002,0.083
			c-0.003,0.03-0.01,0.066-0.021,0.108l-1.138,4.342c0.063-0.06,0.124-0.115,0.188-0.167c0.062-0.053,0.121-0.1,0.178-0.143
			l2.557-1.94l0.523,0.689l-4.206,3.191L89.234,31.871z M91.973,81.302l-1.111-0.903c4.078-5.668,6.818-12.358,7.757-19.607h1.44
			C99.109,68.38,96.247,75.384,91.973,81.302z M99.622,56.025c-0.757,0-1.37-0.612-1.37-1.369c0-0.757,0.613-1.371,1.37-1.371
			s1.37,0.614,1.37,1.371C100.992,55.413,100.379,56.025,99.622,56.025z"/>
		<g>
			<path fill="#010101" d="M47.009,97.586c-0.013-0.111-0.023-0.23-0.032-0.359c-0.059,0.114-0.115,0.222-0.168,0.319
				c-0.054,0.099-0.105,0.183-0.152,0.256l-0.985,1.581l1.648,0.342l-0.272-1.85C47.035,97.793,47.022,97.695,47.009,97.586z"/>
			<path fill="#010101" d="M40.176,13.478l0.005,1.863l1.578-0.585l-1.213-1.423c-0.054-0.063-0.117-0.138-0.186-0.225
				c-0.071-0.087-0.143-0.183-0.218-0.288c0.012,0.128,0.021,0.248,0.027,0.36C40.176,13.293,40.178,13.392,40.176,13.478z"/>
			<path fill="#010101" d="M73.967,17.658c0.146,0.169,0.334,0.313,0.564,0.43c0.23,0.117,0.455,0.184,0.678,0.201
				s0.434-0.013,0.633-0.09c0.201-0.077,0.389-0.201,0.561-0.372c0.173-0.17,0.324-0.384,0.455-0.643
				c0.132-0.257,0.215-0.507,0.25-0.747c0.035-0.239,0.026-0.463-0.028-0.672c-0.056-0.208-0.155-0.396-0.3-0.566
				c-0.146-0.17-0.334-0.312-0.563-0.429s-0.457-0.185-0.68-0.202c-0.224-0.017-0.437,0.013-0.638,0.09
				c-0.201,0.078-0.39,0.201-0.563,0.372c-0.174,0.169-0.326,0.384-0.457,0.642c-0.132,0.259-0.215,0.508-0.25,0.748
				c-0.033,0.241-0.021,0.465,0.034,0.672S73.82,17.488,73.967,17.658z"/>
			<path fill="#010101" d="M23.898,25.397c-0.004-0.122-0.036-0.239-0.096-0.352c-0.061-0.113-0.146-0.219-0.257-0.318
				c-0.105-0.094-0.215-0.163-0.33-0.207c-0.114-0.044-0.23-0.06-0.349-0.049c-0.118,0.012-0.238,0.054-0.358,0.125
				c-0.122,0.071-0.242,0.174-0.362,0.309l-0.492,0.549l1.411,1.265l0.492-0.549c0.12-0.134,0.208-0.266,0.264-0.396
				C23.877,25.644,23.903,25.519,23.898,25.397z"/>
			<path fill="#010101" d="M41.399,95.512l-0.792-0.281l-0.51,1.438l0.74,0.263c0.314,0.111,0.573,0.139,0.777,0.082
				c0.203-0.058,0.349-0.211,0.438-0.462c0.092-0.259,0.084-0.47-0.024-0.631C41.921,95.758,41.711,95.622,41.399,95.512z"/>
			<path fill="#010101" d="M36.372,93.523c-0.143-0.17-0.328-0.316-0.556-0.437c-0.229-0.12-0.454-0.19-0.677-0.211
				c-0.223-0.021-0.436,0.006-0.639,0.08c-0.203,0.075-0.393,0.196-0.568,0.364c-0.176,0.166-0.332,0.379-0.466,0.635
				c-0.135,0.257-0.221,0.505-0.259,0.745c-0.038,0.239-0.03,0.464,0.024,0.672c0.054,0.209,0.153,0.397,0.296,0.569
				c0.143,0.173,0.329,0.317,0.558,0.438c0.228,0.119,0.453,0.19,0.675,0.21c0.221,0.021,0.433-0.006,0.634-0.081
				c0.202-0.073,0.39-0.194,0.565-0.362c0.174-0.168,0.329-0.381,0.464-0.637c0.135-0.257,0.222-0.505,0.261-0.744
				c0.039-0.238,0.032-0.464-0.02-0.672C36.612,93.886,36.514,93.695,36.372,93.523z"/>
			<path fill="#010101" d="M41.207,97.837c-0.104-0.073-0.236-0.139-0.399-0.196l-0.937-0.332l-0.517,1.461l0.939,0.332
				c0.172,0.062,0.324,0.092,0.455,0.092c0.13,0,0.242-0.022,0.337-0.066c0.095-0.044,0.173-0.105,0.236-0.188
				c0.064-0.082,0.114-0.172,0.151-0.276c0.038-0.106,0.055-0.211,0.051-0.31s-0.032-0.189-0.084-0.276
				C41.387,97.99,41.31,97.909,41.207,97.837z"/>
			<path fill="#010101" d="M61.251,10.98c-0.021-0.081-0.041-0.176-0.063-0.285c-0.021-0.109-0.043-0.228-0.063-0.355
				c-0.048,0.12-0.094,0.23-0.141,0.333c-0.045,0.103-0.088,0.191-0.129,0.268l-0.842,1.662l1.67,0.197L61.251,10.98z"/>
			<path fill="#010101" d="M70.389,95.964c0.004,0.112,0.006,0.211,0.004,0.298l-0.016,1.862l1.585-0.567l-1.196-1.437
				c-0.056-0.063-0.117-0.14-0.186-0.228s-0.141-0.185-0.215-0.289C70.375,95.732,70.383,95.854,70.389,95.964z"/>
			<path fill="#010101" d="M61.027,100.329c-0.045-0.088-0.108-0.16-0.191-0.218c-0.084-0.057-0.188-0.098-0.313-0.12
				s-0.272-0.026-0.444-0.011l-0.989,0.09l0.143,1.541l0.992-0.09c0.182-0.017,0.332-0.053,0.449-0.106
				c0.118-0.054,0.211-0.122,0.278-0.201c0.067-0.08,0.112-0.169,0.138-0.271c0.023-0.1,0.03-0.203,0.02-0.313
				C61.1,100.518,61.072,100.417,61.027,100.329z"/>
			<path fill="#010101" d="M60.55,99.073c0.161-0.138,0.229-0.339,0.206-0.604c-0.025-0.272-0.121-0.462-0.287-0.563
				c-0.164-0.103-0.412-0.14-0.742-0.108l-0.836,0.076l0.139,1.52l0.781-0.07C60.143,99.293,60.389,99.21,60.55,99.073z"/>
		</g>
		<g>
			
				<rect x="58.517" y="49.953" transform="matrix(-0.707 -0.7072 0.7072 -0.707 61.9877 138.2984)" fill="#010101" width="2.251" height="12.711"/>
			
				<rect x="60.045" y="40.177" transform="matrix(-0.7073 -0.7069 0.7069 -0.7073 70.1794 125.9883)" fill="#010101" width="2.252" height="16.578"/>
		</g>
	</g>
</g>
</svg>
