<?xml version="1.0" encoding="utf-8"?>
<!-- Generator: Adobe Illustrator 16.0.3, SVG Export Plug-In . SVG Version: 6.00 Build 0)  -->
<!DOCTYPE svg PUBLIC "-//W3C//DTD SVG 1.1//EN" "http://www.w3.org/Graphics/SVG/1.1/DTD/svg11.dtd">
<svg version="1.1" id="Layer_1" xmlns="http://www.w3.org/2000/svg" xmlns:xlink="http://www.w3.org/1999/xlink" x="0px" y="0px"
	 width="110px" height="110px" viewBox="0 0 110 110" enable-background="new 0 0 110 110" xml:space="preserve">
<g id="hair_styling">
	<g>
		<path fill="#010101" d="M55,0.551C24.929,0.551,0.551,24.929,0.551,55c0,30.072,24.378,54.449,54.449,54.449
			c30.07,0,54.449-24.377,54.449-54.449C109.449,24.929,85.07,0.551,55,0.551z M87.954,25.689
			c5.662,6.343,9.526,14.324,10.778,23.135h-1.428c-1.242-8.439-4.959-16.083-10.387-22.172L87.954,25.689z M80.918,19.149
			c0.309-0.175,0.631-0.279,0.965-0.314s0.674,0.004,1.02,0.117c0.346,0.112,0.682,0.301,1.007,0.568
			c0.334,0.272,0.582,0.558,0.745,0.856c0.162,0.298,0.266,0.595,0.305,0.892l-0.502,0.165c-0.102,0.034-0.188,0.022-0.257-0.036
			c-0.046-0.037-0.08-0.09-0.103-0.158c-0.031-0.085-0.063-0.171-0.099-0.259c-0.033-0.087-0.077-0.175-0.132-0.264
			c-0.057-0.088-0.123-0.18-0.204-0.275c-0.082-0.095-0.185-0.193-0.31-0.294c-0.201-0.165-0.41-0.28-0.629-0.345
			c-0.219-0.065-0.438-0.082-0.654-0.049c-0.219,0.032-0.432,0.112-0.637,0.238c-0.209,0.126-0.4,0.299-0.58,0.518
			c-0.191,0.235-0.33,0.472-0.414,0.709c-0.084,0.238-0.117,0.468-0.104,0.691c0.016,0.224,0.078,0.436,0.188,0.636
			c0.109,0.201,0.262,0.38,0.455,0.539c0.172,0.14,0.334,0.246,0.485,0.319c0.153,0.072,0.31,0.129,0.468,0.168l0.607-0.743
			l-0.512-0.417c-0.049-0.041-0.075-0.085-0.082-0.136c-0.006-0.051,0.007-0.096,0.039-0.135l0.352-0.429l1.357,1.11l-1.35,1.653
			c-0.164-0.01-0.326-0.032-0.482-0.068c-0.158-0.036-0.315-0.087-0.473-0.156c-0.156-0.069-0.313-0.152-0.474-0.253
			s-0.324-0.219-0.491-0.356c-0.298-0.243-0.529-0.519-0.695-0.827c-0.166-0.309-0.265-0.63-0.297-0.963
			c-0.031-0.334,0.006-0.671,0.112-1.011c0.106-0.34,0.284-0.662,0.532-0.965C80.328,19.564,80.607,19.324,80.918,19.149z
			 M76.359,14.474c0.039,0.022,0.068,0.042,0.093,0.06c0.022,0.018,0.043,0.037,0.057,0.059c0.015,0.021,0.025,0.046,0.034,0.074
			c0.008,0.029,0.016,0.065,0.021,0.108l0.605,4.444c0.035-0.079,0.071-0.153,0.109-0.226c0.037-0.072,0.074-0.138,0.109-0.199
			l1.621-2.768l0.746,0.437l-2.666,4.553l-0.438-0.256c-0.068-0.04-0.117-0.083-0.148-0.129c-0.031-0.047-0.053-0.11-0.063-0.189
			l-0.605-4.426c-0.033,0.071-0.066,0.14-0.104,0.208c-0.034,0.068-0.068,0.129-0.102,0.184l-1.638,2.796l-0.746-0.437l2.666-4.552
			L76.359,14.474z M72.566,12.695l0.904,0.392l-2.104,4.839l-0.903-0.392L72.566,12.695z M67.563,10.907l0.935,0.3l-1.365,4.252
			l2.011,0.646l-0.246,0.771L65.95,15.93L67.563,10.907z M61.689,9.625c0.082,0.015,0.146,0.048,0.188,0.098
			c0.042,0.05,0.073,0.109,0.096,0.177l0.633,1.908c0.037,0.113,0.066,0.219,0.09,0.319c0.025,0.1,0.045,0.197,0.063,0.291
			c0.049-0.085,0.102-0.17,0.156-0.255c0.057-0.085,0.121-0.172,0.193-0.263l1.264-1.561c0.036-0.047,0.084-0.089,0.146-0.125
			c0.061-0.036,0.131-0.046,0.213-0.031l0.854,0.157l-2.471,2.826l-0.369,2.017l-0.967-0.177l0.371-2.017l-1.31-3.521L61.689,9.625z
			 M55.044,9.112l4.159,0.193l-0.037,0.806l-1.586-0.074l-0.207,4.465l-0.98-0.046L56.6,9.992l-1.592-0.074L55.044,9.112z
			 M50.062,10.301c0.063-0.188,0.162-0.357,0.298-0.51c0.136-0.152,0.307-0.278,0.514-0.38c0.207-0.101,0.447-0.163,0.722-0.184
			c0.31-0.024,0.6,0.003,0.87,0.08c0.27,0.077,0.503,0.196,0.701,0.356l-0.204,0.48c-0.023,0.055-0.051,0.096-0.084,0.12
			c-0.034,0.024-0.075,0.039-0.123,0.042c-0.049,0.004-0.104-0.011-0.168-0.043c-0.064-0.032-0.138-0.069-0.224-0.109
			c-0.086-0.04-0.186-0.074-0.299-0.104c-0.114-0.029-0.246-0.038-0.396-0.026c-0.136,0.011-0.253,0.036-0.351,0.077
			c-0.098,0.041-0.179,0.092-0.244,0.156c-0.065,0.063-0.111,0.138-0.139,0.221c-0.027,0.084-0.038,0.174-0.03,0.271
			c0.009,0.124,0.052,0.225,0.127,0.302c0.076,0.077,0.173,0.14,0.291,0.189c0.118,0.05,0.252,0.092,0.401,0.127
			c0.149,0.035,0.302,0.072,0.458,0.113c0.155,0.041,0.309,0.09,0.459,0.147c0.151,0.058,0.288,0.135,0.41,0.232
			c0.122,0.097,0.223,0.219,0.304,0.367c0.081,0.147,0.13,0.33,0.146,0.548c0.019,0.238-0.005,0.464-0.071,0.677
			c-0.065,0.214-0.17,0.404-0.314,0.57c-0.145,0.166-0.327,0.302-0.545,0.408c-0.219,0.106-0.474,0.17-0.765,0.192
			c-0.167,0.013-0.333,0.009-0.498-0.011c-0.166-0.02-0.325-0.055-0.478-0.104c-0.154-0.049-0.299-0.111-0.436-0.186
			c-0.137-0.075-0.259-0.161-0.37-0.257l0.248-0.491c0.024-0.036,0.054-0.067,0.09-0.093c0.036-0.026,0.077-0.041,0.123-0.044
			c0.061-0.004,0.128,0.015,0.202,0.06c0.074,0.044,0.162,0.093,0.262,0.146c0.1,0.053,0.217,0.1,0.351,0.139
			c0.133,0.04,0.291,0.053,0.473,0.039c0.279-0.022,0.49-0.104,0.632-0.248c0.143-0.144,0.205-0.34,0.185-0.587
			c-0.01-0.138-0.053-0.249-0.129-0.331s-0.173-0.148-0.292-0.199c-0.119-0.05-0.252-0.091-0.401-0.121
			c-0.148-0.03-0.299-0.063-0.454-0.1c-0.155-0.037-0.307-0.084-0.457-0.141c-0.15-0.057-0.288-0.135-0.41-0.236
			c-0.122-0.1-0.225-0.229-0.306-0.388c-0.082-0.158-0.132-0.357-0.15-0.598C49.976,10.678,50,10.488,50.062,10.301z M42.854,10.81
			c0.347-0.095,0.655-0.14,0.921-0.136c0.267,0.004,0.498,0.049,0.691,0.135c0.194,0.085,0.352,0.208,0.475,0.368
			c0.123,0.159,0.213,0.347,0.272,0.563c0.046,0.171,0.065,0.34,0.057,0.507c-0.009,0.166-0.043,0.324-0.105,0.475
			c-0.061,0.15-0.148,0.292-0.262,0.423c-0.114,0.132-0.252,0.25-0.416,0.355c0.138,0.036,0.268,0.104,0.39,0.208l1.787,1.532
			l-0.852,0.232c-0.083,0.023-0.156,0.025-0.223,0.008c-0.066-0.018-0.128-0.051-0.184-0.101L43.89,14.04
			c-0.056-0.05-0.112-0.081-0.167-0.094c-0.055-0.013-0.129-0.006-0.223,0.019l-0.405,0.111l0.543,1.988l-0.947,0.259l-1.389-5.09
			L42.854,10.81z M38.769,12.157l1.947,4.904L39.8,17.424l-1.947-4.904L38.769,12.157z M34.025,14.303l4.326,3.664l-0.669,0.359
			c-0.075,0.041-0.146,0.055-0.214,0.043c-0.068-0.011-0.128-0.039-0.18-0.083l-0.857-0.761l-1.924,1.036l0.163,1.135
			c0.009,0.058,0,0.122-0.028,0.189c-0.029,0.068-0.08,0.122-0.152,0.161l-0.671,0.361l-0.676-5.628L34.025,14.303z M26.713,19.067
			l1.371,1.809l1.972-1.493l-1.371-1.81l0.788-0.597l3.186,4.206l-0.788,0.597l-1.393-1.838l-1.971,1.494l1.393,1.838l-0.789,0.597
			l-3.186-4.205L26.713,19.067z M34.58,70.941l-1.833,1.3c3.877,5.471,5.043,8.848,5.37,10.625
			c-0.223-0.136-0.446-0.269-0.666-0.407c-0.717-0.455-1.417-0.936-2.095-1.443c-2.898-2.17-5.426-4.811-7.474-7.803
			c-0.952-1.393-1.8-2.859-2.533-4.395c-2.041-4.273-3.185-9.055-3.185-14.1c0-6.775,2.063-13.077,5.593-18.312
			c-0.076,6.712,2.03,13.787,6.287,21.084c1.361,2.332,2.902,4.589,4.393,6.772c2.926,4.285,5.951,8.717,7.577,13.727
			c1.039,3.197,1.553,5.604,1.256,8.639c-2.375-0.574-4.652-1.406-6.795-2.468C40.521,82.439,39.846,78.374,34.58,70.941z
			 M22.967,24.687l0.945,1.06C18.035,31.975,14,39.961,12.695,48.824h-1.429C12.586,39.542,16.803,31.182,22.967,24.687z
			 M10.391,54.69c0-0.756,0.613-1.37,1.369-1.37c0.756,0,1.37,0.613,1.37,1.37c0,0.757-0.613,1.371-1.37,1.371
			C11.003,56.061,10.391,55.446,10.391,54.69z M12.597,60.631c0.305,2.344,0.803,4.629,1.473,6.839l-1.314,0.541
			c-0.731-2.382-1.268-4.847-1.587-7.38H12.597z M14.95,77.27l-0.7,0.354l-1.505-2.968l4.705-2.389l1.506,2.969l-0.697,0.354
			l-1.058-2.086l-1.305,0.662l0.834,1.645l-0.673,0.342l-0.834-1.645l-1.331,0.676L14.95,77.27z M17.896,81.535
			c-0.219,0.047-0.435,0.048-0.65,0.002c-0.216-0.045-0.423-0.139-0.622-0.276c-0.199-0.14-0.379-0.331-0.541-0.573
			c-0.093-0.141-0.171-0.287-0.233-0.439c-0.063-0.154-0.11-0.311-0.142-0.469c-0.033-0.158-0.049-0.315-0.05-0.471
			c-0.001-0.156,0.014-0.306,0.044-0.449l0.549-0.021c0.043,0.003,0.085,0.016,0.125,0.032c0.04,0.019,0.073,0.047,0.099,0.086
			c0.034,0.051,0.049,0.119,0.047,0.206c-0.002,0.086-0.002,0.186,0,0.3c0.002,0.113,0.019,0.238,0.049,0.374
			c0.031,0.137,0.097,0.28,0.197,0.434c0.155,0.231,0.33,0.377,0.525,0.431c0.195,0.055,0.396,0.013,0.603-0.125
			c0.116-0.076,0.19-0.168,0.225-0.273c0.035-0.106,0.045-0.224,0.032-0.353c-0.014-0.129-0.043-0.266-0.09-0.408
			c-0.046-0.145-0.091-0.293-0.133-0.446c-0.043-0.151-0.077-0.308-0.101-0.467s-0.022-0.317,0.006-0.473
			c0.028-0.156,0.091-0.31,0.189-0.457c0.099-0.148,0.248-0.289,0.449-0.423c0.16-0.106,0.337-0.178,0.531-0.215
			c0.194-0.037,0.391-0.033,0.59,0.012c0.199,0.044,0.393,0.132,0.582,0.263c0.189,0.131,0.36,0.312,0.513,0.54
			c0.172,0.26,0.29,0.525,0.354,0.799s0.075,0.534,0.031,0.785l-0.519,0.055c-0.059,0.01-0.108,0.004-0.146-0.014
			c-0.038-0.018-0.071-0.046-0.097-0.087c-0.027-0.04-0.042-0.097-0.044-0.168c-0.002-0.072-0.006-0.154-0.014-0.25
			c-0.007-0.095-0.026-0.197-0.056-0.312c-0.03-0.112-0.086-0.231-0.169-0.357c-0.076-0.113-0.155-0.202-0.238-0.27
			c-0.083-0.065-0.168-0.11-0.255-0.138c-0.087-0.024-0.174-0.028-0.261-0.013c-0.086,0.017-0.17,0.053-0.251,0.105
			c-0.104,0.068-0.17,0.154-0.201,0.258c-0.03,0.104-0.039,0.22-0.023,0.348c0.014,0.127,0.043,0.265,0.085,0.412
			c0.042,0.146,0.083,0.299,0.124,0.453c0.041,0.156,0.073,0.313,0.095,0.474c0.023,0.161,0.022,0.315-0.003,0.471
			c-0.024,0.154-0.082,0.304-0.17,0.444c-0.089,0.143-0.226,0.273-0.408,0.396C18.323,81.396,18.115,81.486,17.896,81.535z
			 M21.738,85.23c-0.182,0.153-0.379,0.268-0.591,0.338c-0.211,0.072-0.427,0.098-0.646,0.076c-0.219-0.021-0.436-0.088-0.649-0.203
			c-0.214-0.116-0.415-0.287-0.603-0.51c-0.108-0.129-0.203-0.266-0.281-0.412c-0.081-0.146-0.145-0.295-0.195-0.449
			c-0.05-0.152-0.084-0.307-0.103-0.461s-0.021-0.305-0.007-0.45l0.543-0.085c0.043-0.001,0.086,0.005,0.128,0.02
			c0.042,0.014,0.078,0.038,0.108,0.073c0.039,0.047,0.062,0.112,0.069,0.199c0.007,0.086,0.019,0.185,0.034,0.298
			s0.046,0.234,0.091,0.367c0.045,0.131,0.127,0.267,0.245,0.406c0.18,0.213,0.37,0.336,0.57,0.369
			c0.2,0.031,0.395-0.033,0.584-0.192c0.106-0.089,0.17-0.188,0.193-0.298c0.022-0.109,0.02-0.228-0.009-0.354
			c-0.028-0.126-0.073-0.258-0.135-0.396c-0.063-0.138-0.123-0.279-0.184-0.428c-0.06-0.146-0.11-0.298-0.152-0.453
			c-0.042-0.154-0.058-0.313-0.047-0.47c0.01-0.157,0.056-0.315,0.137-0.476c0.081-0.158,0.213-0.315,0.398-0.471
			c0.147-0.123,0.315-0.216,0.504-0.273c0.189-0.059,0.385-0.077,0.587-0.057c0.202,0.021,0.405,0.088,0.608,0.196
			s0.393,0.269,0.569,0.479c0.201,0.238,0.349,0.488,0.443,0.753c0.094,0.264,0.134,0.522,0.12,0.776l-0.51,0.113
			c-0.058,0.016-0.107,0.016-0.146,0.002c-0.039-0.013-0.075-0.037-0.106-0.074c-0.032-0.037-0.053-0.092-0.063-0.162
			c-0.01-0.07-0.024-0.153-0.042-0.246c-0.018-0.092-0.048-0.194-0.09-0.303c-0.042-0.109-0.11-0.22-0.207-0.334
			c-0.088-0.104-0.177-0.186-0.267-0.24c-0.09-0.058-0.18-0.094-0.269-0.108c-0.089-0.015-0.176-0.01-0.261,0.017
			c-0.084,0.026-0.163,0.071-0.238,0.135c-0.095,0.078-0.151,0.173-0.17,0.279c-0.019,0.105-0.014,0.221,0.015,0.346
			c0.029,0.125,0.073,0.26,0.132,0.4c0.058,0.143,0.116,0.286,0.174,0.438c0.058,0.15,0.107,0.304,0.148,0.459
			c0.041,0.156,0.058,0.313,0.05,0.469c-0.007,0.155-0.047,0.311-0.12,0.461C22.025,84.943,21.906,85.091,21.738,85.23z
			 M25.572,88.126l-1.341-1.265l-1.023,1.088l1.703,1.604l-0.538,0.571l-2.422-2.282l3.617-3.841l2.422,2.281l-0.535,0.567
			l-1.703-1.603l-1.003,1.063l1.342,1.265L25.572,88.126z M29.749,94.197l-0.412-0.295c-0.064-0.047-0.109-0.094-0.136-0.144
			c-0.027-0.05-0.042-0.114-0.045-0.194l-0.199-4.461c-0.04,0.066-0.08,0.133-0.122,0.197s-0.081,0.123-0.117,0.174l-1.886,2.635
			l-0.703-0.502l3.07-4.291l0.418,0.3c0.036,0.024,0.064,0.048,0.086,0.067c0.021,0.021,0.038,0.041,0.051,0.063
			c0.013,0.021,0.022,0.048,0.028,0.078c0.005,0.029,0.009,0.064,0.012,0.109l0.199,4.479c0.042-0.073,0.084-0.146,0.129-0.214
			c0.045-0.068,0.087-0.132,0.128-0.188l1.866-2.607l0.703,0.503L29.749,94.197z M33.801,96.479l-0.869-0.457l2.08-3.957
			l-1.411-0.74l0.375-0.715l3.684,1.938l-0.375,0.714l-1.405-0.737L33.801,96.479z M37.125,98.018l1.975-4.893l0.914,0.368
			l-1.975,4.893L37.125,98.018z M44.164,100.339c-0.082-0.022-0.144-0.063-0.185-0.118c-0.042-0.056-0.065-0.117-0.071-0.186
			l-0.089-1.143l-2.104-0.59l-0.67,0.93c-0.034,0.05-0.085,0.088-0.152,0.117c-0.067,0.028-0.141,0.031-0.221,0.01l-0.734-0.205
			l3.42-4.521l0.966,0.271l0.572,5.64L44.164,100.339z M49.897,101.326l-3.062-0.449l0.768-5.22l0.971,0.142l-0.649,4.419
			l2.09,0.308L49.897,101.326z M52.896,97.963c0.067,0.085,0.156,0.158,0.268,0.221c0.112,0.063,0.241,0.119,0.385,0.172
			c0.144,0.051,0.291,0.104,0.441,0.162c0.15,0.059,0.297,0.123,0.441,0.197c0.143,0.074,0.27,0.166,0.381,0.276
			c0.111,0.108,0.198,0.241,0.262,0.397c0.064,0.155,0.092,0.342,0.084,0.562c-0.008,0.237-0.057,0.46-0.145,0.665
			c-0.089,0.205-0.214,0.383-0.376,0.531c-0.162,0.147-0.358,0.264-0.587,0.345s-0.49,0.116-0.781,0.106
			c-0.168-0.007-0.333-0.029-0.495-0.066c-0.162-0.039-0.316-0.092-0.464-0.157s-0.284-0.144-0.412-0.233
			c-0.127-0.09-0.239-0.188-0.338-0.297l0.301-0.46c0.027-0.032,0.061-0.06,0.1-0.082c0.038-0.021,0.081-0.032,0.127-0.03
			c0.061,0.002,0.126,0.029,0.194,0.082c0.069,0.053,0.15,0.109,0.244,0.174c0.095,0.064,0.206,0.123,0.334,0.179
			c0.128,0.055,0.283,0.084,0.466,0.091c0.279,0.01,0.498-0.049,0.656-0.177c0.158-0.127,0.241-0.313,0.25-0.563
			c0.004-0.139-0.026-0.252-0.092-0.342c-0.066-0.091-0.155-0.167-0.267-0.23c-0.113-0.063-0.241-0.117-0.385-0.164
			c-0.145-0.047-0.292-0.098-0.44-0.15c-0.149-0.054-0.296-0.117-0.439-0.189c-0.144-0.073-0.271-0.168-0.381-0.28
			s-0.198-0.253-0.261-0.419s-0.091-0.37-0.083-0.611c0.006-0.191,0.052-0.377,0.135-0.559c0.083-0.18,0.2-0.336,0.352-0.473
			c0.152-0.136,0.336-0.242,0.554-0.32c0.217-0.077,0.462-0.111,0.737-0.103c0.311,0.011,0.597,0.068,0.855,0.175
			c0.258,0.107,0.478,0.252,0.657,0.434l-0.257,0.455c-0.029,0.052-0.061,0.089-0.097,0.109c-0.036,0.021-0.079,0.028-0.127,0.027
			c-0.049-0.002-0.103-0.021-0.162-0.063c-0.059-0.041-0.13-0.084-0.21-0.133c-0.081-0.051-0.177-0.096-0.286-0.137
			c-0.109-0.042-0.239-0.064-0.39-0.07c-0.136-0.004-0.255,0.008-0.357,0.036c-0.102,0.03-0.188,0.072-0.26,0.128
			c-0.071,0.059-0.125,0.125-0.162,0.205c-0.037,0.08-0.057,0.169-0.061,0.266C52.798,97.771,52.83,97.878,52.896,97.963z
			 M63.74,100.527c-0.133,0.093-0.277,0.175-0.434,0.244c-0.156,0.068-0.324,0.129-0.506,0.181s-0.379,0.092-0.594,0.124
			c-0.38,0.057-0.74,0.043-1.08-0.041c-0.339-0.084-0.645-0.227-0.912-0.428s-0.492-0.455-0.673-0.764
			c-0.181-0.308-0.3-0.654-0.356-1.042c-0.061-0.392-0.049-0.761,0.028-1.108c0.078-0.344,0.218-0.652,0.417-0.924
			s0.456-0.498,0.771-0.678c0.314-0.179,0.681-0.3,1.097-0.361c0.427-0.064,0.806-0.058,1.135,0.021
			c0.33,0.08,0.619,0.205,0.865,0.375l-0.215,0.48c-0.042,0.099-0.108,0.153-0.2,0.168c-0.059,0.009-0.12-0.002-0.186-0.031
			c-0.084-0.034-0.17-0.067-0.258-0.102c-0.088-0.035-0.183-0.061-0.285-0.08c-0.102-0.019-0.215-0.03-0.34-0.032
			c-0.125-0.005-0.268,0.006-0.426,0.028c-0.258,0.039-0.482,0.117-0.679,0.234c-0.195,0.118-0.354,0.27-0.478,0.452
			s-0.207,0.394-0.252,0.632s-0.048,0.496-0.007,0.775c0.046,0.301,0.128,0.562,0.247,0.783c0.12,0.223,0.268,0.401,0.441,0.541
			c0.178,0.139,0.375,0.233,0.599,0.289c0.222,0.053,0.456,0.063,0.704,0.024c0.219-0.033,0.406-0.081,0.563-0.146
			c0.158-0.063,0.305-0.143,0.439-0.233l-0.143-0.949l-0.652,0.099c-0.063,0.01-0.115-0.002-0.156-0.029
			c-0.041-0.029-0.064-0.069-0.072-0.121l-0.082-0.549l1.734-0.26l0.316,2.11C63.998,100.331,63.873,100.436,63.74,100.527z
			 M55,87.555c-1.882,0-3.724-0.162-5.521-0.469c0.384-3.514-0.189-6.277-1.329-9.788c-1.725-5.315-4.843-9.882-7.858-14.299
			c-1.469-2.149-2.988-4.375-4.308-6.64c-4.733-8.112-6.674-15.882-5.769-23.093l-0.049-0.006
			C36.193,26.297,45.091,21.885,55,21.885c18.104,0,32.835,14.729,32.835,32.835c0,8.609-3.332,16.454-8.772,22.316
			c-0.603,0.647-1.229,1.271-1.879,1.87c-0.018,0.015-0.035,0.029-0.051,0.044l-4.418-13.929c5.795-3.491,8.33-12.018,5.664-20.425
			c-3.013-9.499-11.539-15.301-19.006-12.933l-6.031,1.912l0.009,0.028c-4.911,1.945-7.991,7.16-8.356,13.286l-2.887,0.916
			l0.594,1.873l2.274-0.721c0.066,1.682,0.332,3.41,0.815,5.14l-1.535,0.486l0.594,1.873l1.551-0.492
			c0.631,1.687,1.436,3.245,2.378,4.644l-2.374,0.754l0.594,1.873l3.03-0.963c3.817,4.593,9.208,6.945,14.229,5.731l0.01,0.028
			l0.002-0.001l5.135,16.188c-0.887,0.435-1.795,0.831-2.725,1.187c-0.758,0.289-1.527,0.552-2.313,0.785
			C61.398,87.076,58.255,87.555,55,87.555z M54.255,58.872l-3.521,1.116c-0.979-1.367-1.813-2.92-2.456-4.619l4.421-1.402
			l-0.594-1.873l-4.441,1.408c-0.482-1.745-0.722-3.484-0.744-5.162l3.63-1.151l-0.594-1.873l-2.947,0.935
			c0.526-5.298,3.326-9.66,7.68-11.041l0.002-0.001c6.434-2.04,13.853,3.188,16.538,11.655c2.685,8.467-0.365,17.015-6.801,19.056
			c-4.242,1.346-8.91-0.471-12.371-4.291l2.792-0.885L54.255,58.872z M73.102,46.271c-2.11-6.652-6.926-11.487-12.186-12.977
			c6.197-1.275,13.035,3.843,15.59,11.896c2.555,8.054-0.084,16.177-5.885,18.708C74.063,59.648,75.21,52.923,73.102,46.271z
			 M69.643,99.246c-0.082,0.023-0.156,0.027-0.224,0.014c-0.067-0.017-0.13-0.048-0.188-0.098l-1.543-1.303
			c-0.059-0.051-0.114-0.079-0.17-0.092c-0.056-0.012-0.131-0.002-0.224,0.024l-0.401,0.12l0.586,1.977l-0.939,0.278l-1.502-5.058
			l1.541-0.459c0.346-0.102,0.652-0.153,0.919-0.155c0.269-0.002,0.499,0.037,0.694,0.119c0.194,0.081,0.354,0.2,0.481,0.356
			s0.222,0.342,0.285,0.557c0.051,0.171,0.073,0.34,0.067,0.505c-0.004,0.167-0.035,0.325-0.094,0.478
			c-0.058,0.151-0.143,0.295-0.254,0.43c-0.109,0.135-0.246,0.256-0.406,0.365c0.14,0.031,0.271,0.1,0.394,0.197l1.821,1.492
			L69.643,99.246z M66.229,67.705l4.793-1.521l4.489,14.154c-1.362,1.094-2.813,2.079-4.342,2.946L66.229,67.705z M75.964,96.639
			c-0.078,0.035-0.149,0.045-0.218,0.029c-0.066-0.018-0.126-0.048-0.174-0.096l-0.805-0.815l-1.99,0.906l0.09,1.144
			c0.005,0.06-0.01,0.121-0.041,0.188c-0.033,0.064-0.088,0.115-0.163,0.15l-0.692,0.315l-0.305-5.66l0.913-0.416l4.075,3.94
			L75.964,96.639z M81.332,92.563c-0.068,0.323-0.206,0.629-0.412,0.916c-0.206,0.285-0.477,0.537-0.813,0.754l-1.689,1.095
			l-2.865-4.431l1.691-1.095c0.335-0.217,0.675-0.358,1.021-0.429c0.346-0.07,0.68-0.068,1.002-0.001s0.625,0.203,0.91,0.405
			c0.283,0.201,0.53,0.465,0.74,0.789s0.35,0.658,0.416,1C81.402,91.907,81.402,92.24,81.332,92.563z M86.566,88.521
			c-0.016,0.271-0.088,0.535-0.219,0.795c-0.132,0.26-0.324,0.5-0.578,0.725c-0.254,0.223-0.52,0.383-0.793,0.479
			c-0.273,0.099-0.545,0.136-0.814,0.114c-0.27-0.021-0.529-0.098-0.781-0.231c-0.252-0.133-0.48-0.317-0.688-0.553l-2.086-2.373
			l0.736-0.648l2.084,2.371c0.133,0.15,0.273,0.271,0.424,0.357c0.147,0.086,0.299,0.139,0.451,0.157
			c0.153,0.021,0.307,0.004,0.461-0.048c0.154-0.051,0.303-0.141,0.445-0.266s0.249-0.262,0.318-0.407
			c0.072-0.146,0.106-0.295,0.109-0.45c0.002-0.154-0.029-0.311-0.097-0.469c-0.065-0.158-0.166-0.313-0.299-0.465l-2.087-2.375
			l0.736-0.646l2.086,2.373c0.209,0.236,0.361,0.487,0.461,0.754C86.54,87.982,86.582,88.25,86.566,88.521z M91.498,83.991
			c-0.057,0.063-0.117,0.104-0.186,0.116c-0.067,0.015-0.135,0.01-0.198-0.014l-1.072-0.402l-1.426,1.656l0.559,1
			c0.029,0.051,0.044,0.113,0.041,0.188c-0.002,0.072-0.03,0.143-0.085,0.205l-0.497,0.576l-2.646-5.012l0.654-0.762l5.351,1.872
			L91.498,83.991z M93.441,81.307l-3.713-2.488l-0.888,1.322l-0.67-0.447l2.318-3.459l0.67,0.449l-0.884,1.318l3.713,2.489
			L93.441,81.307z M95.873,77.4l-4.707-2.385l1.504-2.968l0.696,0.353l-1.058,2.088l1.307,0.66l0.833-1.645l0.673,0.341
			l-0.832,1.646l1.331,0.674l1.057-2.086l0.699,0.354L95.873,77.4z M97.046,67.742l-1.325-0.508
			c0.635-2.137,1.106-4.342,1.401-6.604h1.429C98.243,63.068,97.734,65.443,97.046,67.742z M98.229,56.34
			c-0.756,0-1.369-0.613-1.369-1.369c0-0.756,0.613-1.37,1.369-1.37s1.369,0.613,1.369,1.37
			C99.598,55.727,98.984,56.34,98.229,56.34z"/>
		<g>
			<path fill="#010101" d="M72.551,93.775c0.016,0.11,0.023,0.209,0.028,0.295l0.142,1.856l1.529-0.696l-1.313-1.33
				c-0.059-0.061-0.127-0.129-0.203-0.211c-0.075-0.082-0.154-0.172-0.236-0.271C72.52,93.546,72.536,93.665,72.551,93.775z"/>
			<path fill="#010101" d="M43.5,13.235c0.178-0.049,0.328-0.113,0.448-0.194c0.121-0.081,0.213-0.172,0.277-0.274
				s0.103-0.213,0.115-0.333c0.013-0.12,0.001-0.244-0.034-0.373c-0.07-0.258-0.209-0.433-0.417-0.525
				c-0.208-0.092-0.486-0.09-0.836,0.005l-0.605,0.165l0.461,1.689L43.5,13.235z"/>
			<path fill="#010101" d="M43.6,96.003c-0.006-0.11-0.008-0.231-0.007-0.36c-0.066,0.11-0.13,0.213-0.19,0.308
				c-0.061,0.095-0.117,0.176-0.169,0.245l-1.09,1.509l1.62,0.454l-0.145-1.863C43.612,96.212,43.606,96.115,43.6,96.003z"/>
			<path fill="#010101" d="M87.35,83.078l0.905,1.627l1.099-1.275l-1.75-0.658c-0.078-0.028-0.168-0.063-0.271-0.105
				c-0.104-0.043-0.213-0.092-0.329-0.146c0.072,0.106,0.139,0.207,0.197,0.304C87.26,82.915,87.311,83.001,87.35,83.078z"/>
			<path fill="#010101" d="M67.631,95.355c-0.209-0.088-0.488-0.08-0.835,0.023l-0.603,0.18l0.498,1.678l0.588-0.174
				c0.178-0.054,0.324-0.121,0.443-0.205c0.118-0.082,0.209-0.176,0.271-0.279s0.098-0.215,0.106-0.334
				c0.012-0.12-0.004-0.244-0.041-0.372C67.984,95.615,67.841,95.443,67.631,95.355z"/>
			<path fill="#010101" d="M80.076,91.111c-0.157-0.243-0.331-0.439-0.521-0.592c-0.191-0.149-0.39-0.254-0.596-0.31
				c-0.207-0.056-0.421-0.063-0.641-0.022c-0.219,0.039-0.437,0.129-0.651,0.27l-0.86,0.559l2.018,3.117l0.861-0.557
				c0.215-0.141,0.387-0.301,0.514-0.484c0.126-0.184,0.205-0.38,0.24-0.593c0.035-0.211,0.021-0.435-0.039-0.67
				C80.342,91.594,80.232,91.354,80.076,91.111z"/>
			<path fill="#010101" d="M34.136,15.987l0.263,1.843l1.481-0.797l-1.397-1.241c-0.063-0.055-0.134-0.12-0.215-0.197
				c-0.082-0.076-0.167-0.161-0.255-0.254c0.028,0.125,0.054,0.243,0.076,0.353C34.11,15.804,34.126,15.901,34.136,15.987z"/>
		</g>
		<g>
			
				<rect x="49.286" y="40.554" transform="matrix(-0.9532 0.3023 -0.3023 -0.9532 116.862 64.9868)" fill="#010101" width="8.232" height="1.965"/>
			
				<rect x="51.437" y="47.328" transform="matrix(-0.9532 0.3023 -0.3023 -0.9532 123.1124 77.5654)" fill="#010101" width="8.232" height="1.965"/>
			
				<rect x="53.586" y="54.105" transform="matrix(-0.9532 0.3024 -0.3024 -0.9532 129.3604 90.15)" fill="#010101" width="8.233" height="1.965"/>
			
				<rect x="55.739" y="60.881" transform="matrix(-0.9532 0.3025 -0.3025 -0.9532 135.6186 102.7252)" fill="#010101" width="8.233" height="1.965"/>
			
				<rect x="55.962" y="42.165" transform="matrix(-0.9532 0.3023 -0.3023 -0.9532 130.3874 66.1163)" fill="#010101" width="8.232" height="1.964"/>
			
				<rect x="58.111" y="48.945" transform="matrix(-0.9532 0.3023 -0.3023 -0.9532 136.6349 78.7081)" fill="#010101" width="8.232" height="1.964"/>
			
				<rect x="60.264" y="55.717" transform="matrix(-0.9532 0.3024 -0.3024 -0.9532 142.8916 91.2791)" fill="#010101" width="8.233" height="1.964"/>
		</g>
	</g>
</g>
</svg>
