<?xml version="1.0" encoding="utf-8"?>
<!-- Generator: Adobe Illustrator 16.0.3, SVG Export Plug-In . SVG Version: 6.00 Build 0)  -->
<!DOCTYPE svg PUBLIC "-//W3C//DTD SVG 1.1//EN" "http://www.w3.org/Graphics/SVG/1.1/DTD/svg11.dtd">
<svg version="1.1" xmlns="http://www.w3.org/2000/svg" xmlns:xlink="http://www.w3.org/1999/xlink" x="0px" y="0px"
	 width="190.524px" height="190.452px" viewBox="0 0 190.524 190.452" enable-background="new 0 0 190.524 190.452"
	 xml:space="preserve">
<g id="Layer_1" display="none">
	<path display="inline" fill="#E2B862" d="M74.999,149.998c-20.033,0-38.867-7.801-53.032-21.966C7.801,113.865,0,95.032,0,74.999
		s7.801-38.867,21.967-53.032S54.966,0,74.999,0s38.867,7.801,53.032,21.967s21.966,32.999,21.966,53.032
		s-7.801,38.866-21.966,53.032C113.866,142.196,95.032,149.998,74.999,149.998z M74.999,0.89C34.135,0.89,0.89,34.135,0.89,74.999
		s33.245,74.109,74.109,74.109c40.863,0,74.107-33.245,74.107-74.109S115.862,0.89,74.999,0.89z"/>
	<path display="inline" fill="#E2B862" d="M74.999,147.826c-19.453,0-37.741-7.576-51.497-21.33
		C9.748,112.74,2.172,94.452,2.172,74.999s7.576-37.742,21.331-51.497S55.546,2.171,74.999,2.171s37.741,7.576,51.497,21.331
		c13.755,13.756,21.331,32.044,21.331,51.497s-7.576,37.741-21.331,51.497C112.74,140.25,94.452,147.826,74.999,147.826z
		 M74.999,3.062C35.333,3.062,3.062,35.333,3.062,75c0,39.666,32.271,71.937,71.937,71.937c39.667,0,71.938-32.271,71.938-71.937
		C146.937,35.333,114.666,3.062,74.999,3.062z"/>
	<path display="inline" fill="#E2B862" d="M76.138,131.511c-31.162,0-56.514-25.351-56.514-56.512s25.352-56.513,56.514-56.513
		c31.16,0,56.512,25.352,56.512,56.513S107.298,131.511,76.138,131.511z M76.138,19.376c-30.672,0-55.624,24.953-55.624,55.623
		s24.952,55.623,55.624,55.623c30.67,0,55.622-24.952,55.622-55.623S106.808,19.376,76.138,19.376z"/>
	<path display="inline" fill="#E2B862" d="M76.138,129.494c-30.05,0-54.496-24.446-54.496-54.495s24.446-54.495,54.496-54.495
		c30.049,0,54.494,24.447,54.494,54.495S106.187,129.494,76.138,129.494z M76.138,21.394c-29.559,0-53.605,24.047-53.605,53.605
		c0,29.559,24.047,53.605,53.605,53.605c29.557,0,53.604-24.047,53.604-53.605C129.742,45.441,105.694,21.394,76.138,21.394z"/>
	<g display="inline">
		<circle fill="none" cx="75.623" cy="74.999" r="60.701"/>
		<path fill="#E2B862" d="M34.715,120.385c-0.749-0.622-0.806-0.641-0.993-0.483c-0.237,0.197-0.726,0.714-1.674,1.713
			c-0.948,0.998-1.438,1.515-1.622,1.762c-0.147,0.195-0.127,0.252,0.535,0.967l-0.26,0.274l-2.338-2.218l0.26-0.274
			c0.749,0.623,0.806,0.642,0.993,0.483c0.237-0.197,0.726-0.713,1.674-1.713c0.948-0.998,1.438-1.515,1.622-1.762
			c0.147-0.195,0.127-0.252-0.535-0.967l0.26-0.273l2.338,2.217L34.715,120.385z"/>
		<path fill="#E2B862" d="M31.838,117.705c-0.617-0.606-0.673-0.63-0.873-0.49c-0.254,0.175-0.788,0.644-1.822,1.552
			c-1.034,0.908-1.568,1.377-1.774,1.606c-0.165,0.181-0.149,0.239,0.373,0.929l-0.284,0.25l-1.223-1.393
			c0.046-0.112,0.075-0.27,0.126-0.471l1.217-4.804l-0.012-0.014l-1.041,0.914c-1.034,0.907-1.568,1.377-1.774,1.606
			c-0.165,0.181-0.149,0.238,0.444,1.01l-0.284,0.25l-1.68-1.913l0.284-0.249c0.552,0.628,0.639,0.66,1.029,0.354
			c0.369-0.289,0.8-0.643,1.159-0.958c1.304-1.146,2.387-2.108,2.879-2.624l0.427,0.486c-0.278,0.747-0.457,1.334-0.642,2.132
			l-0.897,3.709l0.012,0.013l1.352-1.187c1.034-0.908,1.568-1.377,1.774-1.606c0.165-0.18,0.149-0.238-0.521-1.098l0.284-0.25
			l1.751,1.994L31.838,117.705z"/>
		<path fill="#E2B862" d="M26.472,111.301c-0.609-0.76-0.657-0.78-0.876-0.671c-0.158,0.088-0.426,0.254-0.854,0.553l-3.36,2.353
			l0.593,0.847c0.175,0.251,0.461,0.205,1.52-0.086l0.164,0.391c-0.333,0.136-0.777,0.379-1.468,0.819
			c-0.081-0.163-0.164-0.313-0.252-0.471c-0.083-0.15-0.179-0.304-0.277-0.443l-1.774-2.534c-0.217-0.311-0.447-0.578-0.677-0.812
			c0.65-0.499,1.032-0.832,1.273-1.099l0.311,0.287c-0.636,0.896-0.778,1.148-0.603,1.398l0.593,0.848l3.36-2.352
			c0.427-0.299,0.675-0.494,0.812-0.612c0.178-0.168,0.175-0.221-0.331-1.052l0.309-0.217l1.847,2.638L26.472,111.301z"/>
		<path fill="#E2B862" d="M23.576,107.125c-0.498-0.772-0.543-0.799-0.773-0.713c-0.285,0.116-0.907,0.46-2.112,1.125
			c-1.205,0.666-1.827,1.009-2.077,1.188c-0.195,0.148-0.197,0.2,0.191,1.033l-0.331,0.184l-1.796-3.252
			c-0.274-0.496-0.6-0.974-0.838-1.293c0.374-0.217,1.211-0.803,1.394-0.976l0.255,0.332c-0.869,0.81-0.871,1.046-0.206,2.25
			l0.431,0.78c0.061,0.109,0.134,0.131,0.244,0.07l1.772-0.979c0.102-0.058,0.128-0.103-0.011-0.354l-0.135-0.244
			c-0.522-0.944-0.686-0.926-1.285-0.707l-0.208-0.379c0.264-0.135,0.517-0.254,0.895-0.463c0.315-0.174,0.653-0.381,0.869-0.511
			l0.213,0.386c-0.537,0.369-0.609,0.554-0.235,1.229l0.331,0.599c0.057,0.104,0.118,0.141,0.229,0.079l1.976-1.091
			c0.11-0.061,0.132-0.134,0.071-0.245l-0.818-1.479c-0.382-0.692-0.656-0.778-1.263-0.668l-0.635,0.113l-0.12-0.457
			c0.482-0.133,1.275-0.428,1.622-0.599l2.683,4.858L23.576,107.125z"/>
		<path fill="#E2B862" d="M20.336,101.203c-0.407-0.826-0.452-0.865-0.688-0.798c-0.297,0.083-0.955,0.353-2.23,0.876
			c-1.274,0.522-1.933,0.793-2.202,0.942c-0.215,0.117-0.219,0.178,0.071,1.051l-0.35,0.144l-1.319-3.216
			c-0.273-0.667-0.322-1.045-0.237-1.479c0.085-0.435,0.361-0.781,0.861-0.986c1.208-0.496,1.992,0.799,2.067,0.768
			c0.042-0.017,0.081-0.063,0.155-0.189l1.207-2.111c0.307-0.534,0.347-0.648,0.176-1.064l0.35-0.145l0.584,1.425l-1.825,2.929
			c-0.056,0.102-0.049,0.166,0.095,0.517c0.14,0.342,0.162,0.372,0.246,0.337c1.483-0.608,1.712-0.712,1.927-0.83
			c0.215-0.118,0.219-0.178-0.071-1.051l0.35-0.145l1.183,2.883L20.336,101.203z M16.614,100.481
			c0.15-0.062,0.185-0.094-0.037-0.637c-0.53-1.292-1.324-1.258-1.791-1.066c-0.675,0.277-0.931,1.006-0.555,1.922
			c0.25,0.607,0.292,0.64,0.5,0.554L16.614,100.481z"/>
		<path fill="#E2B862" d="M17.608,94.422c-0.291-0.815-0.331-0.86-0.572-0.821c-0.304,0.047-0.989,0.236-2.315,0.604
			c-1.326,0.367-2.011,0.556-2.296,0.672c-0.227,0.091-0.239,0.15-0.069,0.999l-0.364,0.101l-0.494-1.785
			c0.089-0.082,0.185-0.209,0.318-0.368l3.188-3.792l-0.005-0.018l-1.334,0.369c-1.326,0.367-2.011,0.557-2.296,0.672
			c-0.227,0.092-0.238,0.15-0.041,1.104l-0.364,0.101l-0.678-2.452l0.364-0.102c0.223,0.806,0.288,0.872,0.771,0.768
			c0.458-0.1,1-0.23,1.459-0.357c1.673-0.463,3.065-0.856,3.733-1.106l0.173,0.624c-0.576,0.551-0.992,1.002-1.506,1.639
			l-2.423,2.945l0.004,0.018l1.733-0.479c1.326-0.366,2.011-0.556,2.296-0.672c0.227-0.091,0.239-0.149,0.009-1.215l0.364-0.101
			l0.707,2.557L17.608,94.422z"/>
		<path fill="#E2B862" d="M15.815,87.908c-0.154-0.687-0.396-0.776-1.181-0.953l-4.057-0.919c-0.69-0.156-0.86-0.192-1.205-0.238
			l-0.073-0.463c0.269-0.088,0.722-0.333,0.989-0.493l3.981-2.442c0.533-0.321,0.621-0.399,0.494-1.146l0.374-0.06l0.479,3.035
			l-0.374,0.059c-0.176-0.885-0.268-0.941-0.49-0.907c-0.178,0.028-1.096,0.565-1.194,0.636c-0.041,0.033-0.053,0.071-0.053,0.127
			c0.008,0.227,0.063,0.683,0.203,1.572c0.088,0.561,0.137,0.58,0.336,0.631c0.577,0.127,1.062,0.196,1.15,0.184
			c0.267-0.043,0.314-0.15,0.243-1.006l0.374-0.059l0.376,2.385L15.815,87.908z M13.07,84.438c-0.012-0.08-0.043-0.103-0.07-0.099
			c-0.044,0.007-0.137,0.058-0.188,0.084l-2.064,1.192l2.391,0.533c0.066,0.018,0.114,0.028,0.149,0.022
			c0.036-0.005,0.046-0.053,0.038-0.106L13.07,84.438z"/>
		<path fill="#E2B862" d="M14.734,80.114c-0.117-0.967-0.146-1.01-0.392-1.033c-0.181-0.008-0.496-0.008-1.018,0.021l-4.098,0.229
			l0.058,1.034c0.017,0.306,0.285,0.417,1.339,0.728l-0.067,0.418c-0.355-0.061-0.861-0.087-1.681-0.076
			c0.017-0.183,0.025-0.354,0.033-0.535c0.008-0.17,0.007-0.352-0.002-0.521l-0.173-3.091c-0.021-0.377-0.077-0.726-0.149-1.046
			c0.816-0.082,1.316-0.164,1.662-0.266l0.113,0.409c-1.013,0.427-1.267,0.566-1.25,0.872l0.058,1.034l4.098-0.229
			c0.521-0.028,0.834-0.064,1.014-0.093c0.24-0.05,0.265-0.096,0.273-1.069l0.377-0.021l0.18,3.217L14.734,80.114z"/>
		<path fill="#E2B862" d="M14.522,75.083c-0.04-0.974-0.065-1.028-0.308-1.061c-0.305-0.043-1.017-0.061-2.394-0.093
			c-1.377-0.033-2.089-0.05-2.396-0.021c-0.244,0.021-0.272,0.075-0.358,1.045l-0.378-0.009l0.076-3.223l0.378,0.009
			c0.04,0.974,0.065,1.029,0.308,1.062c0.305,0.043,1.016,0.06,2.394,0.093c1.378,0.033,2.089,0.049,2.396,0.021
			c0.244-0.021,0.272-0.074,0.358-1.045l0.378,0.009L14.9,75.091L14.522,75.083z"/>
		<path fill="#E2B862" d="M9.004,67.307c0.189-1.654,1.641-2.784,3.563-2.563c1.923,0.22,3.082,1.647,2.893,3.302
			c-0.189,1.654-1.641,2.784-3.563,2.564C9.975,70.389,8.815,68.961,9.004,67.307z M15.031,67.996
			c0.11-0.957-0.701-1.874-2.596-2.09C10.54,65.69,9.543,66.4,9.434,67.357s0.701,1.874,2.596,2.09
			C13.925,69.663,14.921,68.953,15.031,67.996z"/>
		<path fill="#E2B862" d="M15.449,63.977c0.138-0.855,0.124-0.915-0.106-0.997c-0.289-0.105-0.981-0.27-2.321-0.587
			c-1.34-0.318-2.032-0.481-2.338-0.517c-0.243-0.03-0.282,0.017-0.542,0.843l-0.368-0.087l0.428-1.805
			c0.118-0.027,0.263-0.095,0.457-0.169l4.624-1.791l0.004-0.018l-1.349-0.32c-1.34-0.317-2.032-0.481-2.338-0.517
			c-0.243-0.029-0.281,0.017-0.567,0.948l-0.368-0.087l0.587-2.479l0.368,0.087c-0.193,0.814-0.168,0.903,0.308,1.044
			c0.449,0.134,0.988,0.28,1.452,0.39c1.69,0.401,3.103,0.726,3.809,0.829l-0.149,0.631c-0.771,0.206-1.353,0.401-2.111,0.711
			l-3.545,1.417l-0.004,0.018l1.751,0.415c1.34,0.317,2.032,0.481,2.338,0.517c0.243,0.03,0.282-0.017,0.594-1.062l0.368,0.087
			l-0.612,2.583L15.449,63.977z"/>
		<path fill="#E2B862" d="M17.018,57.405c0.196-0.676,0.027-0.871-0.575-1.403l-3.111-2.757c-0.53-0.468-0.661-0.583-0.94-0.789
			l0.159-0.44c0.278,0.052,0.793,0.056,1.104,0.044l4.664-0.224c0.621-0.025,0.736-0.051,0.983-0.765l0.356,0.128l-1.041,2.888
			l-0.355-0.128c0.271-0.859,0.22-0.954,0.008-1.03c-0.169-0.061-1.232-0.033-1.352-0.019c-0.052,0.01-0.081,0.038-0.107,0.086
			c-0.102,0.202-0.274,0.628-0.58,1.475c-0.192,0.534-0.159,0.574-0.009,0.714c0.443,0.39,0.835,0.684,0.92,0.714
			c0.254,0.091,0.347,0.02,0.696-0.764l0.356,0.128l-0.818,2.27L17.018,57.405z M16.283,53.045c0.028-0.076,0.011-0.111-0.014-0.12
			c-0.042-0.015-0.147-0.015-0.205-0.016l-2.381,0.051l1.837,1.619c0.05,0.047,0.086,0.079,0.12,0.091
			c0.034,0.012,0.066-0.024,0.084-0.075L16.283,53.045z"/>
		<path fill="#E2B862" d="M19.583,50.509c0.35-0.851,0.349-0.912,0.143-1.043c-0.258-0.167-0.896-0.482-2.131-1.091
			c-1.235-0.609-1.873-0.924-2.163-1.027c-0.23-0.083-0.278-0.047-0.741,0.749l-0.339-0.167l1.378-2.793l0.339,0.167
			c-0.35,0.851-0.35,0.912-0.144,1.043c0.162,0.1,0.63,0.351,1.009,0.538l3.18,1.569c0.274,0.135,0.379,0.086,0.51-0.179l0.49-0.993
			c0.415-0.839,0.24-1.096-0.627-2.126l0.304-0.332c0.235,0.236,1.115,0.831,1.503,1.042l-2.374,4.811L19.583,50.509z"/>
		<path fill="#E2B862" d="M23.76,42.55c0.509-0.831,0.513-0.883,0.335-1.053c-0.229-0.206-0.81-0.616-1.935-1.409
			c-1.125-0.794-1.707-1.204-1.977-1.351c-0.219-0.111-0.268-0.09-0.879,0.668l-0.309-0.218l1.774-2.516
			c0.727-1.03,1.284-1.352,2.07-1.514c0.698-0.146,1.538,0.006,2.354,0.582c1.287,0.908,1.989,2.614,0.572,4.622l-1.696,2.405
			L23.76,42.55z M24.629,40.552c0.287,0.202,0.353,0.172,0.69-0.307c0.996-1.412,0.766-2.444-0.8-3.549
			c-1.603-1.131-2.616-0.975-3.612,0.437c-0.337,0.478-0.344,0.55-0.204,0.648L24.629,40.552z"/>
		<path fill="#E2B862" d="M28.029,36.595c0.564-0.727,0.574-0.778,0.417-0.967c-0.204-0.231-0.735-0.705-1.762-1.622
			s-1.558-1.391-1.81-1.568c-0.205-0.135-0.255-0.12-0.914,0.523l-0.282-0.252l2.477-2.773c0.377-0.423,0.721-0.889,0.945-1.22
			c0.328,0.281,1.159,0.878,1.382,0.993l-0.229,0.351c-1.051-0.553-1.276-0.476-2.194,0.551l-0.593,0.665
			c-0.084,0.094-0.08,0.17,0.014,0.254l1.511,1.35c0.087,0.078,0.139,0.087,0.331-0.127l0.186-0.208
			c0.72-0.806,0.647-0.955,0.243-1.448l0.288-0.322c0.215,0.205,0.412,0.404,0.734,0.692c0.269,0.24,0.576,0.49,0.77,0.651
			l-0.294,0.329c-0.525-0.385-0.724-0.393-1.239,0.185l-0.456,0.51c-0.078,0.087-0.093,0.158,0.001,0.242l1.685,1.505
			c0.094,0.084,0.17,0.08,0.254-0.015l1.127-1.262c0.527-0.591,0.518-0.877,0.213-1.415l-0.319-0.563l0.393-0.265
			c0.285,0.411,0.825,1.063,1.102,1.334l-3.7,4.142L28.029,36.595z"/>
		<path fill="#E2B862" d="M36.4,26.754c0.11,1.268-0.098,2.168-1.036,3.01c-1.072,0.962-2.892,1.265-4.389-0.403
			c-1.101-1.226-1.412-3.123,0.242-4.608c0.442-0.396,1.108-0.813,1.606-1.067c0.338,0.35,0.973,0.869,1.304,1.116l-0.249,0.356
			c-0.938-0.573-1.75-0.643-2.514,0.042c-0.844,0.758-0.692,2.073,0.451,3.345c1.208,1.347,2.545,1.368,3.323,0.67
			c0.71-0.637,0.92-1.467,0.791-2.379L36.4,26.754z"/>
		<path fill="#E2B862" d="M36.784,20.329c1.358-0.966,3.169-0.64,4.291,0.938c1.122,1.578,0.834,3.396-0.523,4.361
			c-1.357,0.965-3.169,0.64-4.291-0.938C35.138,23.112,35.426,21.294,36.784,20.329z M40.301,25.275
			c0.786-0.559,0.926-1.775-0.18-3.331c-1.106-1.556-2.301-1.823-3.086-1.264c-0.786,0.559-0.926,1.774,0.18,3.331
			C38.321,25.568,39.516,25.833,40.301,25.275z"/>
		<path fill="#E2B862" d="M43.512,22.928c0.776-0.496,0.811-0.545,0.718-0.771c-0.115-0.286-0.457-0.91-1.117-2.12
			c-0.661-1.209-1.002-1.833-1.18-2.085c-0.14-0.201-0.201-0.198-1.037,0.187l-0.182-0.332l3.051-1.667
			c0.632-0.346,1.004-0.436,1.444-0.399c0.441,0.037,0.816,0.273,1.075,0.747c0.626,1.146-0.574,2.068-0.535,2.139
			c0.021,0.04,0.071,0.074,0.207,0.133l2.231,0.967c0.565,0.246,0.683,0.273,1.079,0.058l0.181,0.332l-1.352,0.738l-3.113-1.491
			c-0.106-0.044-0.17-0.03-0.502,0.151c-0.324,0.177-0.352,0.203-0.308,0.281c0.769,1.407,0.897,1.624,1.038,1.825
			c0.14,0.2,0.201,0.198,1.037-0.187l0.182,0.332l-2.735,1.494L43.512,22.928z M43.818,19.148c0.078,0.142,0.115,0.173,0.629-0.107
			c1.225-0.669,1.104-1.455,0.862-1.897c-0.35-0.64-1.102-0.814-1.971-0.339c-0.577,0.315-0.604,0.36-0.496,0.558L43.818,19.148z"/>
		<path fill="#E2B862" d="M49.799,19.528c0.636-0.302,0.669-0.558,0.668-1.362l-0.004-4.158c-0.001-0.708-0.003-0.881-0.035-1.228
			l0.435-0.174c0.146,0.243,0.485,0.63,0.701,0.854l3.264,3.34c0.431,0.448,0.526,0.517,1.226,0.228l0.14,0.351l-2.851,1.139
			l-0.141-0.351c0.823-0.368,0.859-0.469,0.776-0.678c-0.067-0.167-0.794-0.943-0.884-1.024c-0.042-0.032-0.082-0.035-0.136-0.023
			c-0.219,0.059-0.652,0.212-1.488,0.546c-0.527,0.21-0.535,0.263-0.54,0.468c0.003,0.59,0.043,1.078,0.077,1.162
			c0.1,0.251,0.215,0.272,1.033,0.014l0.14,0.351l-2.241,0.896L49.799,19.528z M52.573,16.083c0.075-0.03,0.09-0.065,0.08-0.09
			c-0.017-0.042-0.087-0.121-0.124-0.164l-1.62-1.748l0.009,2.45c-0.001,0.068-0.001,0.117,0.012,0.15
			c0.014,0.033,0.062,0.033,0.112,0.013L52.573,16.083z"/>
		<path fill="#E2B862" d="M57.149,16.741c0.917-0.329,0.953-0.368,0.92-0.611c-0.032-0.178-0.102-0.486-0.247-0.988l-1.134-3.945
			l-0.995,0.286c-0.294,0.084-0.343,0.371-0.412,1.467l-0.423,0.028c-0.019-0.36-0.106-0.859-0.298-1.656
			c0.18-0.024,0.35-0.054,0.528-0.086c0.169-0.03,0.345-0.071,0.509-0.118l2.976-0.855c0.363-0.104,0.691-0.236,0.987-0.378
			c0.261,0.777,0.452,1.247,0.627,1.563l-0.373,0.201c-0.641-0.893-0.834-1.109-1.128-1.024l-0.995,0.286l1.134,3.945
			c0.144,0.502,0.249,0.8,0.315,0.968c0.102,0.224,0.152,0.237,1.104,0.029l0.104,0.363l-3.098,0.89L57.149,16.741z"/>
		<path fill="#E2B862" d="M62.013,15.42c0.94-0.253,0.988-0.29,0.966-0.533c-0.025-0.307-0.165-1.004-0.436-2.354
			c-0.271-1.349-0.411-2.046-0.506-2.339c-0.074-0.232-0.132-0.249-1.097-0.119l-0.074-0.37l3.157-0.634l0.074,0.37
			c-0.94,0.253-0.988,0.29-0.966,0.534c0.025,0.307,0.165,1.003,0.436,2.353c0.271,1.35,0.411,2.046,0.506,2.339
			c0.074,0.233,0.132,0.249,1.097,0.119l0.074,0.371l-3.157,0.634L62.013,15.42z"/>
		<path fill="#E2B862" d="M65.854,14.611c0.852-0.155,0.902-0.188,0.903-0.432c0.003-0.308-0.073-1.015-0.22-2.382
			c-0.147-1.368-0.223-2.075-0.292-2.375c-0.053-0.238-0.109-0.259-0.974-0.229L65.23,8.817l1.842-0.198
			c0.065,0.102,0.177,0.216,0.312,0.374l3.227,3.759l0.018-0.001l-0.148-1.377c-0.147-1.368-0.223-2.074-0.292-2.375
			c-0.052-0.239-0.109-0.26-1.081-0.219l-0.041-0.375l2.53-0.272l0.041,0.375c-0.832,0.089-0.907,0.143-0.881,0.637
			c0.023,0.468,0.065,1.024,0.116,1.498c0.186,1.726,0.349,3.165,0.488,3.864l-0.644,0.069c-0.451-0.657-0.828-1.141-1.373-1.752
			l-2.516-2.868L66.81,9.958l0.192,1.788c0.147,1.368,0.223,2.075,0.292,2.375c0.053,0.238,0.109,0.259,1.198,0.206l0.04,0.375
			l-2.638,0.284L65.854,14.611z"/>
		<path fill="#E2B862" d="M77.879,12.386c0.002-0.144-0.069-0.172-0.573-0.199l-0.549-0.027l0.006-0.378l2.801,0.047l-0.006,0.324
			c-0.611,0.007-0.631,0.052-0.638,0.448c-0.009,0.531,0.011,0.991,0.002,1.441c-0.526,0.198-1.556,0.424-2.313,0.411
			c-2.069-0.035-3.289-0.929-3.249-3.306c0.023-1.368,0.928-3.235,3.53-3.191c0.693,0.012,1.439,0.087,1.987,0.178
			c-0.005,0.324-0.021,0.63-0.024,0.909c-0.004,0.234,0.018,0.604,0.039,0.892l-0.396-0.007C78.25,9.023,77.621,8.4,76.595,8.383
			c-1.422-0.024-2.038,1.235-2.065,2.855c-0.023,1.387,0.421,2.754,1.934,2.779c0.549,0.01,0.982-0.1,1.393-0.31L77.879,12.386z"/>
		<path fill="#E2B862" d="M82.621,14.223c0.698,0.073,0.86-0.127,1.278-0.813l2.164-3.545c0.369-0.604,0.457-0.752,0.61-1.064
			l0.461,0.079c-0.002,0.282,0.085,0.79,0.151,1.093l1.041,4.547c0.134,0.607,0.179,0.715,0.925,0.833l-0.063,0.373l-3.022-0.515
			l0.063-0.373c0.893,0.116,0.977,0.048,1.015-0.174c0.03-0.177-0.185-1.217-0.22-1.333c-0.02-0.049-0.051-0.072-0.104-0.09
			c-0.217-0.064-0.667-0.159-1.553-0.31c-0.559-0.095-0.594-0.056-0.704,0.117c-0.306,0.504-0.524,0.941-0.54,1.03
			c-0.045,0.266,0.042,0.345,0.873,0.55L84.933,15l-2.375-0.405L82.621,14.223z M86.778,12.733c0.08,0.014,0.111-0.008,0.115-0.035
			c0.008-0.044-0.011-0.148-0.02-0.204l-0.469-2.333l-1.27,2.092c-0.037,0.058-0.063,0.099-0.068,0.134
			c-0.006,0.036,0.035,0.061,0.088,0.07L86.778,12.733z"/>
		<path fill="#E2B862" d="M89.903,15.512c0.847,0.185,0.906,0.174,1-0.052c0.121-0.284,0.324-0.966,0.713-2.287
			c0.39-1.321,0.591-2.004,0.644-2.308c0.042-0.241-0.001-0.282-0.813-0.587l0.107-0.363l1.779,0.525
			c0.021,0.119,0.081,0.268,0.145,0.465l1.539,4.716l0.018,0.005l0.392-1.33c0.39-1.321,0.591-2.003,0.644-2.307
			c0.043-0.241,0-0.282-0.916-0.618l0.106-0.363l2.444,0.721l-0.107,0.362c-0.803-0.237-0.894-0.216-1.06,0.251
			c-0.159,0.441-0.334,0.972-0.47,1.429c-0.491,1.667-0.894,3.06-1.034,3.76l-0.622-0.184c-0.164-0.781-0.327-1.373-0.596-2.147
			l-1.224-3.619l-0.017-0.005l-0.51,1.727c-0.391,1.321-0.592,2.004-0.645,2.308c-0.042,0.241,0.001,0.282,1.029,0.651l-0.107,0.363
			l-2.548-0.752L89.903,15.512z"/>
		<path fill="#E2B862" d="M96.724,17.566c0.918,0.327,0.971,0.32,1.101,0.111c0.155-0.267,0.437-0.92,0.983-2.186
			c0.545-1.265,0.828-1.918,0.916-2.214c0.063-0.238,0.033-0.28-0.834-0.724l0.149-0.347l2.829,1.221
			c1.158,0.5,1.588,0.98,1.908,1.717c0.287,0.653,0.311,1.507-0.086,2.426c-0.625,1.447-2.152,2.484-4.41,1.51l-2.704-1.167
			L96.724,17.566z M98.858,18.007c-0.139,0.322-0.094,0.38,0.442,0.613c1.589,0.686,2.552,0.248,3.312-1.513
			c0.779-1.803,0.418-2.763-1.17-3.449c-0.537-0.232-0.609-0.224-0.678-0.067L98.858,18.007z"/>
		<path fill="#E2B862" d="M105.86,21.813c0.852,0.473,0.904,0.475,1.065,0.29c0.195-0.238,0.58-0.835,1.325-1.994
			c0.745-1.158,1.129-1.756,1.266-2.033c0.101-0.224,0.078-0.271-0.707-0.849l0.205-0.318l2.588,1.665
			c1.061,0.681,1.405,1.225,1.602,2.003c0.176,0.691,0.061,1.537-0.48,2.376c-0.852,1.325-2.527,2.099-4.593,0.77l-2.476-1.592
			L105.86,21.813z M107.894,22.596c-0.19,0.295-0.156,0.359,0.334,0.676c1.453,0.935,2.476,0.661,3.513-0.952
			c1.061-1.65,0.862-2.655-0.591-3.589c-0.492-0.316-0.564-0.32-0.657-0.177L107.894,22.596z"/>
		<path fill="#E2B862" d="M111.958,25.806c0.75,0.533,0.802,0.541,0.982,0.376c0.223-0.214,0.674-0.764,1.547-1.828
			s1.324-1.614,1.49-1.874c0.125-0.211,0.107-0.26-0.562-0.891l0.239-0.292l2.875,2.357c0.438,0.359,0.918,0.683,1.258,0.892
			c-0.268,0.34-0.829,1.194-0.934,1.422l-0.36-0.214c0.508-1.073,0.422-1.295-0.644-2.168l-0.688-0.565
			c-0.097-0.08-0.173-0.072-0.253,0.025l-1.284,1.565c-0.074,0.09-0.082,0.143,0.142,0.325l0.215,0.177
			c0.836,0.685,0.981,0.606,1.457,0.182l0.334,0.274c-0.194,0.224-0.385,0.428-0.66,0.762c-0.229,0.278-0.465,0.596-0.617,0.796
			l-0.342-0.279c0.363-0.541,0.363-0.739-0.235-1.23l-0.528-0.434c-0.092-0.074-0.162-0.086-0.242,0.011l-1.433,1.747
			c-0.08,0.097-0.073,0.173,0.025,0.253l1.308,1.073c0.612,0.502,0.896,0.48,1.422,0.154l0.547-0.342l0.28,0.381
			c-0.397,0.301-1.026,0.869-1.286,1.156l-4.291-3.521L111.958,25.806z"/>
		<path fill="#E2B862" d="M118.83,29.427c-0.556,0.947-0.724,1.799-0.044,2.481c0.697,0.702,1.456,0.659,1.857,0.259
			c0.414-0.413,0.23-0.878-0.066-1.483l-0.336-0.656c-0.76-1.516-0.491-2.024,0.006-2.52c0.816-0.813,2.044-0.676,3.021,0.306
			c0.481,0.485,0.83,0.976,1.084,1.396c-0.076,0.076-0.197,0.184-0.287,0.273c-0.306,0.305-0.586,0.622-0.873,0.959l-0.299-0.3
			c0.67-0.883,0.558-1.532-0.045-2.138c-0.553-0.555-1.31-0.64-1.718-0.233c-0.28,0.279-0.325,0.617-0.022,1.241l0.685,1.427
			c0.437,0.923,0.365,1.528-0.241,2.131c-0.848,0.844-2.063,0.657-3.091-0.376c-0.47-0.472-0.761-1.147-1.211-1.6
			c0.319-0.33,0.849-0.946,1.22-1.416L118.83,29.427z"/>
		<path fill="#E2B862" d="M121.121,34.218c0.678,0.699,0.733,0.723,0.937,0.586c0.256-0.171,0.797-0.631,1.846-1.523
			c1.048-0.892,1.59-1.354,1.799-1.578c0.167-0.178,0.152-0.236-0.43-1.017l0.289-0.245l2.086,2.453l-0.289,0.245
			c-0.678-0.699-0.732-0.723-0.936-0.586c-0.256,0.171-0.797,0.631-1.846,1.523c-1.049,0.892-1.59,1.353-1.799,1.578
			c-0.168,0.178-0.153,0.236,0.429,1.017l-0.288,0.245l-2.087-2.453L121.121,34.218z"/>
		<path fill="#E2B862" d="M127.729,40.185c0.117-0.083,0.098-0.157-0.179-0.58l-0.302-0.459l0.309-0.218l1.613,2.287l-0.266,0.187
			c-0.367-0.49-0.414-0.479-0.737-0.25c-0.435,0.306-0.793,0.593-1.161,0.853c-0.47-0.308-1.26-1.006-1.695-1.624
			c-1.193-1.692-1.191-3.203,0.75-4.572c1.119-0.789,3.158-1.159,4.657,0.966c0.4,0.566,0.779,1.213,1.029,1.708
			C131.483,38.67,131.228,38.839,131,39c-0.19,0.135-0.478,0.37-0.697,0.558l-0.228-0.324c0.585-0.732,0.717-1.607,0.125-2.445
			c-0.82-1.162-2.199-0.916-3.523,0.018c-1.132,0.799-1.973,1.965-1.102,3.201c0.316,0.449,0.66,0.734,1.07,0.94L127.729,40.185z"/>
		<path fill="#E2B862" d="M127.837,43.129c0.467,0.73,0.518,0.765,0.743,0.673c0.287-0.114,0.912-0.453,2.124-1.108
			c1.212-0.656,1.837-0.995,2.089-1.172c0.201-0.14,0.199-0.2-0.157-0.99l0.333-0.18l0.884,1.631
			c-0.069,0.099-0.134,0.246-0.229,0.431l-2.257,4.417l0.008,0.016l1.22-0.66c1.211-0.656,1.838-0.995,2.09-1.172
			c0.2-0.139,0.198-0.2-0.209-1.085l0.334-0.18l1.213,2.241l-0.334,0.18c-0.398-0.737-0.477-0.787-0.924-0.574
			c-0.426,0.199-0.925,0.449-1.345,0.676c-1.528,0.828-2.799,1.526-3.396,1.92l-0.309-0.57c0.438-0.667,0.743-1.201,1.102-1.938
			l1.703-3.42l-0.008-0.016l-1.584,0.857c-1.212,0.656-1.838,0.995-2.09,1.172c-0.201,0.139-0.199,0.2,0.264,1.188l-0.332,0.18
			l-1.266-2.336L127.837,43.129z"/>
		<path fill="#E2B862" d="M132.317,52.061c0.363,0.844,0.404,0.878,0.646,0.831c0.3-0.068,0.97-0.304,2.269-0.762
			s1.969-0.694,2.246-0.829c0.217-0.115,0.228-0.167-0.019-1.053l0.356-0.125l1.095,3.105c0.229,0.653,0.251,1.199,0.071,1.664
			c-0.146,0.395-0.438,0.707-0.888,0.866c-1.171,0.413-2.036-0.446-2.567-1.956c-0.082-0.229-0.151-0.481-0.192-0.6l-2.011,0.709
			c-0.229,0.081-0.229,0.166,0.06,1.171l-0.356,0.125l-1.064-3.021L132.317,52.061z M135.74,53.058
			c0.038,0.139,0.075,0.269,0.124,0.405c0.299,0.849,0.729,1.583,1.85,1.189c1.053-0.371,0.962-1.112,0.637-2.037
			c-0.138-0.39-0.201-0.406-0.354-0.353L135.74,53.058z"/>
		<path fill="#E2B862" d="M134.388,57.968c0.269,0.88,0.307,0.927,0.551,0.898c0.306-0.034,1-0.194,2.342-0.504
			s2.035-0.471,2.326-0.575c0.23-0.081,0.244-0.14,0.1-1.049l0.368-0.085l0.784,3.387c0.162,0.702,0.148,1.084-0.006,1.499
			c-0.153,0.415-0.481,0.712-1.009,0.834c-1.272,0.294-1.837-1.11-1.915-1.091c-0.045,0.01-0.091,0.048-0.185,0.163l-1.532,1.889
			c-0.388,0.478-0.447,0.584-0.346,1.023l-0.368,0.085l-0.347-1.5l2.273-2.597c0.072-0.09,0.075-0.156-0.01-0.524
			c-0.083-0.36-0.1-0.393-0.188-0.373c-1.563,0.361-1.806,0.427-2.037,0.508c-0.23,0.081-0.244,0.14-0.099,1.049l-0.368,0.085
			l-0.703-3.036L134.388,57.968z M137.944,59.28c-0.157,0.037-0.197,0.063-0.065,0.635c0.313,1.36,1.104,1.455,1.595,1.341
			c0.711-0.164,1.082-0.841,0.858-1.807c-0.147-0.64-0.185-0.678-0.403-0.627L137.944,59.28z"/>
		<path fill="#E2B862" d="M142.211,67.049c0.195,1.654-0.96,3.087-2.882,3.313c-1.922,0.227-3.378-0.898-3.573-2.553
			c-0.194-1.655,0.96-3.086,2.882-3.313C140.562,64.271,142.017,65.395,142.211,67.049z M136.185,67.759
			c0.112,0.957,1.111,1.664,3.008,1.441c1.896-0.224,2.703-1.144,2.59-2.1c-0.112-0.957-1.111-1.664-3.008-1.441
			C136.879,65.882,136.071,66.802,136.185,67.759z"/>
		<path fill="#E2B862" d="M136.656,71.726c0.079,0.917,0.106,0.961,0.35,0.994c0.308,0.04,1.019,0.02,2.396-0.005
			c1.377-0.023,2.089-0.035,2.395-0.076c0.242-0.041,0.27-0.086,0.316-1.005l0.378-0.006l0.063,3.718
			c0.008,0.567,0.072,1.143,0.133,1.538c-0.432,0.018-1.446,0.143-1.688,0.209l-0.069-0.412c1.146-0.309,1.26-0.518,1.237-1.895
			l-0.015-0.892c-0.002-0.126-0.057-0.179-0.184-0.177l-2.025,0.034c-0.117,0.002-0.162,0.03-0.157,0.318l0.005,0.279
			c0.02,1.08,0.172,1.141,0.805,1.229l0.006,0.432c-0.297-0.004-0.576-0.018-1.009-0.01c-0.36,0.006-0.756,0.031-1.008,0.044
			l-0.007-0.44c0.646-0.074,0.798-0.204,0.785-0.978l-0.012-0.685c-0.002-0.117-0.039-0.179-0.164-0.177l-2.162,0.037
			c-0.242,0.004-0.269,0.086-0.313,1.194L136.333,75l-0.055-3.268L136.656,71.726z"/>
		<path fill="#E2B862" d="M136.706,77.969c-0.025,0.919-0.003,0.968,0.234,1.026c0.302,0.064,1.01,0.134,2.379,0.268
			c1.371,0.133,2.078,0.202,2.387,0.195c0.245-0.012,0.275-0.055,0.428-0.961l0.376,0.037l-0.358,3.699
			c-0.055,0.563-0.058,1.143-0.041,1.541c-0.432-0.032-1.454-0.023-1.702,0.017l-0.022-0.418c1.174-0.175,1.311-0.37,1.444-1.74
			l0.086-0.887c0.013-0.125-0.036-0.185-0.162-0.196l-2.015-0.195c-0.117-0.012-0.164,0.011-0.192,0.297l-0.026,0.277
			c-0.104,1.075,0.041,1.152,0.658,1.313l-0.041,0.43c-0.295-0.038-0.57-0.083-1-0.124c-0.359-0.035-0.755-0.055-1.007-0.071
			l0.043-0.438c0.651,0,0.815-0.111,0.89-0.881l0.066-0.682c0.012-0.115-0.02-0.183-0.145-0.194l-2.248-0.218
			c-0.125-0.013-0.184,0.037-0.196,0.162l-0.164,1.684c-0.077,0.788,0.101,1.013,0.664,1.267l0.589,0.265l-0.16,0.445
			c-0.473-0.164-1.294-0.369-1.678-0.425l0.537-5.526L136.706,77.969z"/>
		<path fill="#E2B862" d="M137.517,85.683c-1.097,0.063-1.898,0.396-2.09,1.34c-0.195,0.97,0.26,1.576,0.815,1.688
			c0.573,0.116,0.858-0.294,1.196-0.878l0.36-0.643c0.841-1.474,1.412-1.532,2.101-1.394c1.129,0.229,1.695,1.326,1.42,2.685
			c-0.135,0.67-0.35,1.232-0.559,1.677c-0.107-0.021-0.264-0.063-0.387-0.087c-0.423-0.086-0.843-0.144-1.283-0.195l0.084-0.415
			c1.106,0.067,1.584-0.386,1.754-1.224c0.154-0.769-0.195-1.444-0.76-1.56c-0.388-0.079-0.693,0.071-1.044,0.671l-0.808,1.36
			c-0.526,0.875-1.068,1.151-1.906,0.981c-1.174-0.236-1.691-1.352-1.402-2.78c0.133-0.652,0.532-1.269,0.659-1.896
			c0.452,0.082,1.258,0.18,1.854,0.229L137.517,85.683z"/>
		<path fill="#E2B862" d="M136.237,91.469c-1.096-0.041-1.926,0.216-2.204,1.136c-0.287,0.947,0.108,1.594,0.651,1.758
			c0.559,0.169,0.881-0.213,1.272-0.76l0.418-0.606c0.976-1.388,1.549-1.392,2.222-1.188c1.102,0.334,1.563,1.479,1.16,2.805
			c-0.197,0.654-0.465,1.193-0.715,1.615c-0.104-0.03-0.255-0.086-0.376-0.123c-0.413-0.125-0.825-0.222-1.257-0.315l0.123-0.404
			c1.094,0.173,1.611-0.235,1.859-1.052c0.228-0.749-0.057-1.455-0.606-1.622c-0.38-0.114-0.697,0.005-1.103,0.567l-0.933,1.277
			c-0.606,0.822-1.172,1.045-1.99,0.797c-1.146-0.347-1.555-1.504-1.132-2.898c0.193-0.637,0.648-1.213,0.835-1.824
			c0.44,0.125,1.233,0.299,1.823,0.402L136.237,91.469z"/>
		<path fill="#E2B862" d="M133.104,95.765c-0.297,0.928-0.291,0.988-0.074,1.102c0.271,0.145,0.934,0.404,2.215,0.906
			s1.943,0.761,2.242,0.838c0.236,0.063,0.281,0.023,0.693-0.858l0.352,0.138l-1.174,3l-0.353-0.139
			c0.296-0.928,0.291-0.988,0.074-1.102c-0.271-0.146-0.933-0.404-2.215-0.906s-1.943-0.762-2.242-0.84
			c-0.235-0.063-0.281-0.022-0.694,0.859l-0.352-0.139l1.174-2.999L133.104,95.765z"/>
		<path fill="#E2B862" d="M135.61,104.983c-0.746,1.488-2.496,2.049-4.226,1.183s-2.327-2.604-1.581-4.092
			c0.744-1.487,2.495-2.05,4.223-1.183C135.757,101.757,136.354,103.495,135.61,104.983z M130.19,102.269
			c-0.432,0.86,0.015,1.998,1.719,2.853c1.703,0.854,2.883,0.528,3.314-0.331c0.43-0.859-0.016-1.999-1.72-2.854
			C131.8,101.083,130.621,101.407,130.19,102.269z"/>
		<path fill="#E2B862" d="M128.416,105.901c-0.424,0.755-0.431,0.814-0.243,0.972c0.235,0.199,0.829,0.59,1.977,1.349
			c1.149,0.76,1.742,1.15,2.018,1.289c0.217,0.111,0.27,0.082,0.798-0.604l0.315,0.208l-1.022,1.546
			c-0.12-0.014-0.278-0.001-0.485,0.002l-4.957,0.091l-0.01,0.015l1.156,0.765c1.148,0.758,1.742,1.149,2.018,1.289
			c0.217,0.11,0.27,0.081,0.857-0.695l0.314,0.208l-1.403,2.125l-0.315-0.208c0.461-0.698,0.469-0.791,0.07-1.086
			c-0.376-0.28-0.831-0.603-1.229-0.866c-1.449-0.957-2.664-1.748-3.291-2.087l0.356-0.541c0.794,0.072,1.408,0.089,2.226,0.058
			l3.815-0.11l0.011-0.015l-1.502-0.991c-1.147-0.759-1.742-1.151-2.017-1.289c-0.218-0.112-0.271-0.082-0.922,0.792l-0.315-0.208
			l1.463-2.216L128.416,105.901z"/>
		<path fill="#E2B862" d="M124.69,111.531c-0.414,0.567-0.322,0.809,0.061,1.516l1.979,3.656c0.338,0.622,0.422,0.774,0.613,1.063
			l-0.3,0.359c-0.243-0.145-0.726-0.325-1.022-0.419l-4.459-1.388c-0.592-0.188-0.707-0.204-1.186,0.383l-0.291-0.242l1.967-2.357
			l0.291,0.242c-0.549,0.715-0.533,0.822-0.359,0.967c0.138,0.114,1.146,0.453,1.264,0.479c0.052,0.008,0.089-0.008,0.13-0.044
			c0.165-0.155,0.474-0.497,1.049-1.188c0.364-0.437,0.347-0.485,0.253-0.668c-0.283-0.519-0.55-0.929-0.619-0.986
			c-0.207-0.174-0.318-0.139-0.916,0.479l-0.291-0.242l1.547-1.853L124.69,111.531z M123.89,115.879
			c-0.053,0.063-0.049,0.101-0.029,0.118c0.035,0.029,0.135,0.064,0.188,0.085l2.256,0.769l-1.173-2.15
			c-0.03-0.063-0.054-0.104-0.082-0.127s-0.069,0-0.104,0.042L123.89,115.879z"/>
		<path fill="#E2B862" d="M119.931,117.13c-0.617,0.682-0.638,0.739-0.488,0.934c0.187,0.246,0.68,0.758,1.634,1.75
			c0.955,0.992,1.448,1.504,1.687,1.699c0.188,0.156,0.245,0.139,0.95-0.453l0.263,0.272l-2.244,2.159l-0.263-0.272
			c0.618-0.682,0.638-0.739,0.489-0.933c-0.118-0.149-0.473-0.544-0.768-0.85l-2.459-2.555c-0.211-0.22-0.326-0.21-0.541-0.004
			l-0.797,0.768c-0.674,0.649-0.598,0.951-0.131,2.213l-0.398,0.209c-0.141-0.303-0.768-1.161-1.061-1.491l3.865-3.72
			L119.931,117.13z"/>
	</g>
	<g display="inline">
		<circle fill="none" cx="76.06" cy="75.297" r="66.635"/>
		<path fill="#E2B862" d="M54.945,138.06c1.166,0.271,1.239,0.258,1.357-0.018c0.151-0.348,0.405-1.184,0.895-2.804
			c0.49-1.62,0.743-2.457,0.81-2.83c0.055-0.295,0.001-0.347-1.12-0.767l0.134-0.445l3.792,1.146l-0.135,0.445
			c-1.166-0.271-1.239-0.26-1.357,0.018c-0.151,0.346-0.405,1.184-0.895,2.803c-0.49,1.621-0.743,2.457-0.81,2.83
			c-0.055,0.295,0,0.347,1.121,0.768l-0.135,0.445l-3.791-1.147L54.945,138.06z"/>
		<path fill="#E2B862" d="M62.977,140.303c1.195,0.084,1.254,0.06,1.339-0.23c0.095-0.366,0.213-1.233,0.441-2.912
			c0.229-1.679,0.347-2.545,0.354-2.925c-0.003-0.301-0.054-0.342-1.229-0.58l0.063-0.461l3.752,0.512
			c1.536,0.209,2.205,0.636,2.826,1.402c0.556,0.679,0.866,1.682,0.7,2.899c-0.261,1.92-1.727,3.653-4.722,3.245l-3.587-0.488
			L62.977,140.303z M65.65,140.12c-0.059,0.428,0.012,0.482,0.726,0.58c2.106,0.287,3.103-0.549,3.422-2.887
			c0.326-2.392-0.418-3.408-2.525-3.695c-0.713-0.098-0.796-0.064-0.824,0.145L65.65,140.12z"/>
		<path fill="#E2B862" d="M75.61,141.59c1.191-0.142,1.244-0.178,1.272-0.479c0.024-0.377-0.022-1.252-0.114-2.943
			c-0.09-1.691-0.138-2.566-0.201-2.939c-0.062-0.297-0.118-0.326-1.316-0.34l-0.025-0.465l3.783-0.204
			c1.549-0.083,2.286,0.21,3.041,0.847c0.674,0.563,1.167,1.49,1.233,2.718c0.104,1.936-1.011,3.915-4.03,4.077l-3.618,0.195
			L75.61,141.59z M78.204,140.907c0.023,0.432,0.104,0.472,0.822,0.433c2.123-0.114,2.945-1.124,2.818-3.479
			c-0.13-2.411-1.053-3.271-3.177-3.157c-0.719,0.039-0.794,0.087-0.783,0.297L78.204,140.907z"/>
		<path fill="#E2B862" d="M88.331,140.421c1.079-0.34,1.125-0.385,1.098-0.686c-0.045-0.377-0.25-1.227-0.646-2.872
			c-0.397-1.646-0.602-2.496-0.733-2.851c-0.112-0.281-0.174-0.3-1.29-0.111l-0.109-0.451l3.938-0.95
			c0.828-0.2,1.499-0.156,2.044,0.122c0.465,0.229,0.811,0.624,0.948,1.193c0.358,1.485-0.802,2.437-2.716,2.897
			c-0.291,0.07-0.607,0.124-0.758,0.16l0.615,2.55c0.069,0.29,0.174,0.299,1.44,0.074l0.108,0.452l-3.83,0.923L88.331,140.421z
			 M89.979,136.358c0.176-0.031,0.34-0.06,0.512-0.102c1.076-0.259,2.029-0.693,1.688-2.113c-0.322-1.334-1.24-1.317-2.412-1.035
			c-0.496,0.119-0.522,0.193-0.477,0.388L89.979,136.358z"/>
	</g>
	<g display="inline">
		<circle fill="#E2B862" cx="46.323" cy="133.491" r="1.472"/>
		<circle fill="#E2B862" cx="105.571" cy="133.491" r="1.472"/>
	</g>
	<g display="inline">
		<path fill="#E2B862" d="M53.743,102.919c0.006,0.003-1.265,0.919-1.455,1.909c-0.186,0.987,0.237,1.58,0.8,1.583
			c0.573,0.012,1.053-0.549,1.203-1.506C54.438,103.959,53.741,102.931,53.743,102.919z M57.32,106.763
			c0.004,0.002-0.978,1.223-0.905,2.219c0.076,1,0.629,1.453,1.173,1.308c0.552-0.144,0.869-0.808,0.769-1.767
			C58.25,107.571,57.319,106.772,57.32,106.763z M55.411,104.972c-0.001,0-0.002-0.005-0.002-0.005
			c0.004,0.005-1.131,1.082-1.19,2.08c-0.035,0.624,0.145,1.067,0.421,1.292c0.163,0.135,0.366,0.192,0.577,0.167
			c0.566-0.067,0.969-0.685,0.994-1.649C56.23,105.897,55.408,104.979,55.411,104.972z M59.445,108.286
			c0.006,0-0.808,1.339-0.604,2.318c0.206,0.979,0.818,1.355,1.337,1.141c0.529-0.212,0.754-0.916,0.527-1.854
			C60.475,108.964,59.445,108.297,59.445,108.286z M49.971,100.435c-0.392-0.857-1.75-1.531-1.754-1.545
			c-0.004-0.014-0.643,1.428-0.195,2.416c0.438,0.978,1.141,1.243,1.657,0.963C50.2,101.985,50.367,101.31,49.971,100.435z
			 M61.756,109.515c0.004,0-0.624,1.436-0.292,2.379c0.338,0.943,0.995,1.237,1.485,0.957c0.499-0.283,0.629-1.008,0.273-1.91
			C62.867,110.052,61.756,109.524,61.756,109.515z M52.353,100.632c0.004,0.003-1.38,0.741-1.695,1.703
			c-0.313,0.964,0.027,1.612,0.587,1.696c0.57,0.09,1.12-0.398,1.395-1.333C52.907,101.774,52.347,100.644,52.353,100.632z
			 M49.216,103.146c-1.003-0.278-2.413,0.367-2.414,0.371c-0.013,0.002,0.855,1.49,1.917,1.726c1.047,0.239,1.676-0.159,1.796-0.72
			C50.636,103.953,50.221,103.419,49.216,103.146z M50.97,105.823c-1.025-0.133-2.335,0.699-2.334,0.705
			c-0.011,0.004,1.036,1.339,2.113,1.424c1.066,0.091,1.636-0.391,1.684-0.958C52.477,106.417,51.999,105.952,50.97,105.823z
			 M55.406,110.291c-1.018,0.149-2.059,1.3-2.058,1.303c-0.011,0.007,1.335,1.005,2.392,0.8c1.046-0.197,1.469-0.81,1.369-1.369
			C57.001,110.457,56.424,110.14,55.406,110.291z M58.015,112.036c-0.987,0.281-1.867,1.561-1.864,1.563
			c-0.013,0.01,1.453,0.818,2.473,0.477c1.014-0.333,1.352-0.996,1.176-1.538C59.619,111.99,59.002,111.75,58.015,112.036z
			 M53.044,108.212c-1.03,0.01-2.216,1.01-2.215,1.016l0.004,0.002c-0.013,0.006,1.194,1.179,2.271,1.115
			c1.064-0.055,1.565-0.607,1.538-1.176c-0.01-0.216-0.096-0.407-0.251-0.563C54.139,108.354,53.69,108.203,53.044,108.212z
			 M64.217,110.431c0.007-0.002-0.426,1.504,0.034,2.397c0.464,0.889,1.162,1.096,1.612,0.751c0.46-0.346,0.491-1.083,0.013-1.928
			C65.399,110.813,64.219,110.438,64.217,110.431z M60.837,113.422c-0.945,0.412-1.646,1.794-1.644,1.797
			c-0.009,0.009,1.553,0.62,2.523,0.146c0.963-0.462,1.209-1.166,0.962-1.681C62.425,113.165,61.78,113.008,60.837,113.422z
			 M66.683,115.304c-0.604,0.723-0.843,1.885-0.84,1.885c-0.007,0.015,1.691,0.191,2.521-0.525c0.141-0.12,0.259-0.242,0.356-0.364
			c0.721-0.737,1.359-1.522,2.526-1.59c0.166-0.01,0.334-0.022,0.5-0.037c0.503-0.043,0.512-0.438,0.511-0.437
			c0.001-0.002-0.092-0.373-0.577-0.33c-0.159,0.012-0.322,0.023-0.481,0.033c-1.147,0.065-1.771-0.764-2.307-1.547
			c-0.071-0.129-0.157-0.261-0.26-0.394c-0.596-0.765-1.83-0.979-1.833-0.988c0.002,0-0.165,1.183,0.182,2.032
			c0.166,0.421,0.4,0.811,0.669,0.838c0.221,0.021,0.446,0.039,0.668,0.053c0.475,0.03,0.507,0.414,0.507,0.414
			s-0.064,0.385-0.557,0.356c-0.233-0.017-0.461-0.035-0.695-0.058C67.3,114.62,66.979,114.942,66.683,115.304z M63.832,114.424
			c-0.885,0.533-1.397,1.997-1.394,2.001c-0.01,0.01,1.632,0.409,2.539-0.189c0.899-0.586,1.049-1.316,0.731-1.793
			C65.384,113.961,64.716,113.892,63.832,114.424z"/>
		<path fill="#E2B862" d="M95.628,104.905c0.15,0.957,0.631,1.518,1.204,1.506c0.563-0.004,0.985-0.596,0.8-1.583
			c-0.189-0.989-1.46-1.906-1.455-1.909C96.181,102.931,95.483,103.959,95.628,104.905z M91.563,108.522
			c-0.102,0.959,0.217,1.623,0.77,1.767c0.544,0.146,1.098-0.31,1.173-1.308c0.072-0.996-0.909-2.217-0.905-2.219
			C92.603,106.772,91.67,107.571,91.563,108.522z M93.709,106.854c0.024,0.965,0.429,1.582,0.996,1.65
			c0.21,0.025,0.413-0.031,0.577-0.167c0.275-0.224,0.455-0.667,0.42-1.292c-0.059-0.999-1.194-2.076-1.189-2.08l-0.002,0.004
			C94.513,104.979,93.69,105.897,93.709,106.854z M89.215,109.892c-0.229,0.938-0.003,1.642,0.527,1.854
			c0.518,0.215,1.129-0.162,1.336-1.141c0.204-0.979-0.61-2.317-0.604-2.318C90.474,108.297,89.446,108.964,89.215,109.892z
			 M100.241,102.269c0.517,0.28,1.218,0.015,1.656-0.963c0.449-0.988-0.189-2.43-0.196-2.416c-0.002,0.014-1.359,0.688-1.751,1.545
			C99.554,101.31,99.722,101.985,100.241,102.269z M86.698,110.94c-0.357,0.901-0.225,1.627,0.273,1.91
			c0.488,0.28,1.146-0.014,1.483-0.957c0.332-0.944-0.296-2.379-0.291-2.379C88.164,109.524,87.054,110.052,86.698,110.94z
			 M97.28,102.699c0.275,0.935,0.826,1.423,1.395,1.333c0.561-0.084,0.901-0.732,0.588-1.696c-0.314-0.961-1.699-1.698-1.695-1.703
			C97.573,100.644,97.015,101.774,97.28,102.699z M99.403,104.521c0.121,0.562,0.75,0.959,1.797,0.721
			c1.063-0.235,1.931-1.723,1.918-1.727c0-0.004-1.411-0.648-2.415-0.369C99.699,103.419,99.285,103.953,99.403,104.521z
			 M97.49,106.995c0.046,0.568,0.616,1.048,1.681,0.958c1.078-0.084,2.125-1.419,2.112-1.423c0.001-0.008-1.31-0.838-2.334-0.706
			C97.921,105.952,97.442,106.417,97.49,106.995z M92.812,111.024c-0.102,0.56,0.322,1.172,1.369,1.369
			c1.057,0.205,2.402-0.793,2.391-0.8c0.002-0.003-1.038-1.153-2.057-1.303C93.497,110.14,92.919,110.457,92.812,111.024z
			 M90.119,112.538c-0.175,0.542,0.163,1.205,1.176,1.538c1.021,0.342,2.486-0.466,2.474-0.476c0.004-0.004-0.875-1.283-1.863-1.563
			C90.917,111.75,90.3,111.99,90.119,112.538z M95.528,108.606c-0.155,0.156-0.24,0.348-0.252,0.563
			c-0.026,0.569,0.475,1.121,1.539,1.177c1.076,0.063,2.283-1.109,2.271-1.117l0.003-0.002c0.003-0.006-1.184-1.004-2.214-1.015
			C96.229,108.203,95.78,108.354,95.528,108.606z M84.043,111.651c-0.478,0.845-0.446,1.582,0.013,1.928
			c0.45,0.345,1.149,0.138,1.613-0.751c0.459-0.894,0.025-2.399,0.033-2.397C85.701,110.438,84.521,110.813,84.043,111.651z
			 M87.24,113.687c-0.247,0.514,0,1.217,0.962,1.68c0.97,0.474,2.533-0.139,2.521-0.146c0.004-0.003-0.697-1.385-1.642-1.797
			C88.142,113.008,87.494,113.165,87.24,113.687z M82.345,114.647c-0.232,0.021-0.462,0.039-0.695,0.057
			c-0.491,0.029-0.557-0.355-0.557-0.355s0.033-0.385,0.506-0.414c0.225-0.016,0.448-0.033,0.672-0.054
			c0.268-0.026,0.502-0.417,0.668-0.838c0.347-0.851,0.179-2.03,0.182-2.032c-0.003,0.01-1.237,0.225-1.834,0.988
			c-0.102,0.133-0.188,0.266-0.26,0.395c-0.534,0.782-1.159,1.611-2.307,1.545c-0.158-0.008-0.322-0.021-0.482-0.032
			c-0.484-0.044-0.576,0.327-0.575,0.329c-0.001,0,0.008,0.394,0.511,0.438c0.167,0.016,0.334,0.027,0.5,0.037
			c1.167,0.066,1.807,0.854,2.526,1.59c0.098,0.122,0.214,0.244,0.356,0.364c0.829,0.717,2.527,0.54,2.521,0.526
			c0.004-0.002-0.235-1.164-0.839-1.885C82.94,114.942,82.62,114.62,82.345,114.647z M84.211,114.442
			c-0.317,0.478-0.168,1.209,0.731,1.793c0.908,0.599,2.549,0.199,2.539,0.189c0.004-0.004-0.508-1.468-1.394-2.001
			C85.203,113.892,84.536,113.961,84.211,114.442z"/>
		<path fill="#E2B862" d="M75.414,115.083l-0.525-0.254c-0.272-0.131-6.758-3.316-14.638-11.816
			c-7.231-7.8-17.033-21.755-22.666-43.948l-0.388-1.528l1.567,0.172c1.055,0.116,2.094,0.174,3.091,0.174
			c8.572,0,13.79-4.2,18.834-8.261c4.458-3.588,8.667-6.977,14.674-6.977c6.007,0,10.216,3.389,14.672,6.977
			c5.044,4.062,10.262,8.261,18.836,8.261c0.998,0,2.038-0.059,3.09-0.174l1.535-0.169l-0.351,1.504
			c-4.711,20.287-14.562,34.35-21.994,42.572c-8.072,8.931-14.947,13.004-15.236,13.173L75.414,115.083z M40.095,60.017
			c9.895,37.105,31.585,50.541,35.225,52.565c3.732-2.412,26.904-18.565,35.346-52.567c-0.606,0.037-1.206,0.056-1.792,0.056
			c-9.348,0-15.117-4.646-20.208-8.745c-4.328-3.483-8.065-6.493-13.301-6.493c-5.237,0-8.974,3.01-13.302,6.493
			C56.972,55.425,51.2,60.07,41.856,60.07C41.28,60.07,40.691,60.052,40.095,60.017z"/>
		<path fill="#E2B862" d="M75.202,108.667l-0.459-0.29c-2.929-1.846-7.536-6.504-10.886-10.087
			c-5.688-6.084-13.605-16.924-19.013-34.01l-0.298-0.941l0.98-0.12c8.421-1.035,14.092-5.6,18.649-9.269
			c4.427-3.563,7.336-5.748,11.189-5.748c3.853,0,6.761,2.184,11.188,5.748c4.576,3.684,10.271,8.271,18.747,9.281l0.976,0.117
			l-0.289,0.939c-3.832,12.463-10.094,23.494-18.61,32.782c-5.104,5.566-9.269,9.576-11.726,11.289L75.202,108.667z M46.706,64.709
			c5.304,16.261,12.88,26.61,18.35,32.46c4.33,4.631,7.885,7.977,10.104,9.516c2.394-1.795,6.356-5.656,11.006-10.726
			c8.14-8.878,14.181-19.382,17.963-31.232c-8.399-1.283-14.041-5.824-18.606-9.5c-4.146-3.338-6.855-5.386-10.157-5.386
			c-3.303,0-6.013,2.047-10.161,5.386C60.66,58.886,55.047,63.404,46.706,64.709z"/>
		<g>
			<polygon fill="#E2B862" points="75.364,35.798 76.134,38.052 78.515,38.086 76.608,39.515 77.312,41.79 75.364,40.418 
				73.417,41.79 74.12,39.515 72.214,38.086 74.595,38.052 			"/>
			<g>
				<polygon fill="#E2B862" points="92.825,43.245 92.867,44.832 94.375,45.328 92.879,45.857 92.873,47.445 91.907,46.186 
					90.396,46.671 91.295,45.362 90.365,44.075 91.888,44.526 				"/>
				<polygon fill="#E2B862" points="57.903,43.021 57.862,44.608 56.354,45.104 57.851,45.633 57.855,47.221 58.822,45.961 
					60.333,46.447 59.435,45.138 60.365,43.851 58.841,44.302 				"/>
			</g>
			<g>
				<polygon fill="#E2B862" points="85.446,38.689 85.694,40.476 87.46,40.845 85.838,41.633 86.034,43.427 84.782,42.126 
					83.136,42.866 83.987,41.274 82.774,39.938 84.551,40.255 				"/>
				<polygon fill="#E2B862" points="65.381,38.689 65.135,40.476 63.368,40.845 64.991,41.633 64.796,43.427 66.047,42.126 
					67.693,42.866 66.842,41.274 68.054,39.938 66.278,40.255 				"/>
			</g>
		</g>
		<g>
			<path fill="#E2B862" d="M107.442,54.97c-4.74,0-9.637-2.647-12.582-5.848l1.207-1.111c3.218,3.495,9.297,6.404,14.225,4.912
				c1.979-0.599,3.359-2.199,3.691-4.281c0.304-1.902-0.362-3.681-1.736-4.644c-2.682-1.877-5.234-1.034-6.473,0.545
				c-0.859,1.096-1.162,2.698,0.104,3.805c0.677,0.591,1.506,0.519,2.03,0.185c0.244-0.155,0.787-0.615,0.527-1.5l1.576-0.46
				c0.389,1.333-0.078,2.615-1.222,3.344c-1.248,0.797-2.854,0.663-3.994-0.334c-1.767-1.547-1.896-4.037-0.313-6.053
				c1.699-2.167,5.147-3.366,8.705-0.876c1.894,1.325,2.818,3.718,2.416,6.246c-0.429,2.676-2.281,4.819-4.836,5.594
				C109.688,54.821,108.569,54.97,107.442,54.97z"/>
			<path fill="#E2B862" d="M108.115,49.387c-0.235,0-0.47-0.035-0.695-0.104c-0.608-0.185-1.108-0.596-1.407-1.159
				c-0.3-0.563-0.363-1.208-0.177-1.816c0.302-0.994,1.239-1.689,2.28-1.689c0.234,0,0.469,0.035,0.693,0.104
				c1.258,0.383,1.969,1.717,1.586,2.974C110.088,48.708,109.171,49.387,108.115,49.387z M108.116,46.259
				c-0.324,0-0.616,0.216-0.711,0.526c-0.057,0.191-0.038,0.392,0.056,0.568c0.093,0.175,0.249,0.304,0.438,0.361
				c0.389,0.118,0.813-0.115,0.929-0.495c0.118-0.391-0.104-0.807-0.496-0.926C108.26,46.27,108.188,46.259,108.116,46.259z"/>
		</g>
		<path fill="#E2B862" d="M43.385,54.97c-1.126,0.001-2.243-0.149-3.325-0.476c-2.556-0.775-4.409-2.918-4.835-5.594
			c-0.404-2.527,0.521-4.92,2.415-6.246c3.557-2.49,7.005-1.292,8.705,0.876c1.582,2.016,1.452,4.505-0.314,6.052
			c-1.14,0.998-2.744,1.132-3.994,0.335c-1.143-0.729-1.61-2.011-1.221-3.344l1.576,0.46c-0.259,0.885,0.283,1.345,0.528,1.5
			c0.522,0.333,1.354,0.405,2.03-0.186c1.264-1.107,0.963-2.708,0.104-3.805c-1.238-1.578-3.79-2.422-6.472-0.545
			c-1.375,0.963-2.04,2.742-1.736,4.644c0.332,2.083,1.712,3.683,3.691,4.282c4.928,1.494,11.007-1.416,14.226-4.912l1.207,1.111
			C53.024,52.322,48.126,54.97,43.385,54.97z"/>
		<circle fill="#E2B862" cx="42.713" cy="47.003" r="1.564"/>
		<g>
			<circle fill="#E2B862" cx="43.894" cy="92.167" r="1.563"/>
			<circle fill="#E2B862" cx="106.837" cy="92.167" r="1.563"/>
		</g>
		<polygon fill="#E2B862" points="78.394,55 71.916,55 68.029,64 82.28,64 		"/>
		<path fill="#E2B862" d="M77.349,71c0.643-2,1.045-1.993,1.045-2.935c0-0.545-0.137-2.065-0.375-2.065h-5.728
			c-0.239,0-0.376,1.52-0.376,2.065c0,0.942,0.403,0.935,1.045,2.935H61.748v19h5v-2h17v2h4V71H77.349z M84.748,86h-19v-8h19V86z
			 M84.748,76h-19v-4h19V76z"/>
	</g>
</g>
<g id="Layer_2">
	<g>
		<path d="M95.524,10.452c-46.869,0-85,38.131-85,85.001c0,46.869,38.131,84.999,85,84.999c46.87,0,85-38.13,85-84.999
			C180.524,48.583,142.395,10.452,95.524,10.452z M95.524,179.311c-46.24,0-83.859-37.618-83.859-83.857
			c0-46.241,37.619-83.86,83.859-83.86c46.24,0,83.858,37.619,83.858,83.86C179.383,141.692,141.765,179.311,95.524,179.311z"/>
		<path d="M95.523,12.34c-45.827,0-83.11,37.284-83.11,83.113c0,45.827,37.283,83.11,83.11,83.11
			c45.828,0,83.112-37.283,83.112-83.11C178.636,49.625,141.352,12.34,95.523,12.34z M95.523,176.281
			c-44.568,0-80.827-36.259-80.827-80.828c0-44.57,36.259-80.83,80.827-80.83c44.57,0,80.829,36.26,80.829,80.83
			C176.353,140.022,140.094,176.281,95.523,176.281z"/>
		<path d="M95.523,31.387c-35.325,0-64.064,28.739-64.064,64.066c0,35.325,28.739,64.064,64.064,64.064
			c35.327,0,64.066-28.739,64.066-64.064C159.59,60.126,130.851,31.387,95.523,31.387z M95.523,158.376
			c-34.696,0-62.923-28.227-62.923-62.923c0-34.697,28.228-62.925,62.923-62.925c34.698,0,62.925,28.228,62.925,62.925
			C158.448,130.149,130.222,158.376,95.523,158.376z"/>
		<path d="M95.523,33.672c-34.064,0-61.779,27.715-61.779,61.781c0,34.066,27.715,61.779,61.779,61.779
			c34.067,0,61.78-27.713,61.78-61.779C157.304,61.387,129.591,33.672,95.523,33.672z M95.523,156.092
			c-33.436,0-60.638-27.202-60.638-60.639c0-33.437,27.202-60.64,60.638-60.64c33.438,0,60.64,27.203,60.64,60.64
			C156.163,128.89,128.961,156.092,95.523,156.092z"/>
		<path d="M35.661,129.648l0.12,0.199c0.077,0.13,0.119,0.272,0.124,0.429c0.003,0.116-0.021,0.207-0.072,0.275
			c-0.068,0.089-0.242,0.216-0.521,0.383l-3.559,2.134c-0.331,0.198-0.56,0.289-0.687,0.273c-0.194-0.022-0.359-0.147-0.494-0.372
			l-0.12-0.199l-0.15,0.09l1.415,2.361l0.15-0.09l-0.117-0.196c-0.078-0.13-0.12-0.273-0.126-0.432
			c-0.001-0.112,0.023-0.203,0.074-0.271c0.069-0.09,0.242-0.218,0.521-0.386l3.559-2.133c0.331-0.197,0.559-0.29,0.684-0.277
			c0.194,0.023,0.36,0.149,0.497,0.376l0.117,0.196l0.15-0.091l-1.415-2.36L35.661,129.648z"/>
		<path d="M33.909,128.478c0.323-0.158,0.545-0.23,0.666-0.212c0.198,0.028,0.357,0.167,0.479,0.413l0.099,0.199l0.157-0.077
			l-0.99-2.004l-0.157,0.077l0.101,0.203c0.11,0.224,0.133,0.42,0.066,0.586c-0.049,0.119-0.251,0.267-0.605,0.441l-3.545,1.752
			l2.762-6.088l-0.076-0.153l-4.854,2.398c-0.322,0.159-0.545,0.23-0.667,0.214c-0.197-0.029-0.356-0.166-0.477-0.409l-0.101-0.205
			l-0.157,0.078l0.99,2.005l0.157-0.077l-0.099-0.199c-0.112-0.229-0.135-0.423-0.067-0.586c0.048-0.122,0.25-0.271,0.604-0.447
			l3.321-1.64l-2.579,5.655l0.772,1.563l0.157-0.078c-0.083-0.167-0.131-0.297-0.147-0.393c-0.028-0.194-0.033-0.349-0.013-0.466
			s0.086-0.308,0.199-0.571L33.909,128.478z"/>
		<path d="M27.385,123.584c-0.28,0.081-0.521,0.097-0.721,0.048c-0.2-0.05-0.357-0.142-0.471-0.274
			c-0.085-0.102-0.181-0.294-0.287-0.575l-0.27-0.723l4.597-1.72c0.337-0.126,0.565-0.174,0.684-0.146
			c0.193,0.049,0.338,0.201,0.433,0.456l0.08,0.213l0.165-0.062l-0.955-2.552l-0.164,0.062l0.078,0.209
			c0.087,0.233,0.09,0.43,0.008,0.589c-0.062,0.114-0.278,0.24-0.648,0.378l-4.596,1.719L25,120.359
			c-0.093-0.249-0.127-0.464-0.103-0.646c0.025-0.183,0.106-0.352,0.243-0.508c0.085-0.096,0.246-0.208,0.482-0.332l-0.063-0.168
			l-1.386,0.593l1.837,4.912l1.438-0.456L27.385,123.584z"/>
		<path d="M23.838,116.963c0.07-0.104,0.301-0.209,0.695-0.315l4.027-1.092c0.302-0.083,0.507-0.119,0.614-0.11
			c0.107,0.009,0.198,0.056,0.273,0.14c0.105,0.112,0.178,0.241,0.218,0.388l0.06,0.219l0.169-0.045l-1.295-4.778l-1.699-0.114
			l0.05,0.183c0.435,0.096,0.772,0.213,1.012,0.35c0.183,0.107,0.32,0.234,0.412,0.379c0.092,0.146,0.185,0.394,0.28,0.745
			l0.285,1.05c0.046,0.172,0.061,0.293,0.042,0.363c-0.018,0.069-0.054,0.125-0.107,0.166c-0.053,0.04-0.217,0.098-0.491,0.173
			l-2.043,0.554l-0.369-1.363c-0.07-0.259-0.091-0.459-0.065-0.601c0.027-0.142,0.087-0.255,0.178-0.338
			c0.074-0.066,0.256-0.16,0.546-0.285l-0.046-0.17l-2.158,0.586l0.046,0.169c0.358-0.078,0.629-0.057,0.813,0.063
			c0.138,0.091,0.256,0.313,0.352,0.665l0.369,1.363l-2.45,0.664l-0.461-1.7c-0.083-0.31-0.119-0.529-0.106-0.663
			c0.023-0.171,0.085-0.312,0.186-0.421c0.101-0.111,0.306-0.242,0.614-0.396l-0.048-0.178l-1.34,0.437l1.295,4.777l0.168-0.046
			l-0.059-0.219C23.734,117.304,23.746,117.105,23.838,116.963z"/>
		<path d="M22.897,110.009l4.091-0.692c0.361-0.061,0.596-0.067,0.703-0.019c0.194,0.087,0.314,0.264,0.359,0.531l0.041,0.238
			l0.172-0.03l-0.459-2.713l-0.173,0.029l0.042,0.247c0.041,0.236,0.002,0.426-0.115,0.567c-0.082,0.104-0.322,0.189-0.72,0.256
			l-1.84,0.313c-0.005-0.051-0.011-0.1-0.018-0.147c-0.006-0.046-0.013-0.091-0.02-0.131c-0.017-0.1-0.042-0.229-0.075-0.386
			l2.598-2.646l-0.286-1.689l-0.173,0.029c0.021,0.353-0.019,0.646-0.12,0.885c-0.1,0.237-0.334,0.542-0.701,0.911l-1.595,1.615
			c-0.208-0.513-0.478-0.871-0.807-1.076c-0.33-0.205-0.689-0.275-1.078-0.21c-0.364,0.063-0.659,0.227-0.885,0.494
			s-0.36,0.568-0.404,0.904c-0.044,0.336-0.009,0.841,0.105,1.513l0.391,2.307l0.172-0.029l-0.04-0.238
			c-0.041-0.239-0.003-0.431,0.114-0.576C22.258,110.162,22.499,110.077,22.897,110.009z M21.855,108.514
			c-0.069-0.407,0-0.757,0.205-1.046c0.206-0.29,0.506-0.468,0.901-0.534c0.405-0.068,0.764,0.028,1.078,0.291
			c0.313,0.261,0.521,0.695,0.624,1.299c0.005,0.028,0.01,0.064,0.016,0.108c0.005,0.043,0.013,0.095,0.023,0.154l-2.634,0.446
			C21.958,108.934,21.886,108.694,21.855,108.514z"/>
		<path d="M25.966,102.354c0.36-0.024,0.592-0.004,0.697,0.06c0.171,0.103,0.266,0.291,0.283,0.565l0.015,0.223l0.175-0.012
			l-0.143-2.23l-0.175,0.011l0.015,0.227c0.016,0.25-0.039,0.438-0.163,0.566c-0.093,0.092-0.335,0.149-0.729,0.175l-3.947,0.253
			l4.891-4.558l-0.011-0.17l-5.403,0.348c-0.359,0.021-0.591,0.002-0.697-0.061c-0.171-0.103-0.265-0.29-0.283-0.561l-0.014-0.228
			L20.3,96.974l0.143,2.23l0.175-0.011l-0.014-0.222c-0.016-0.252,0.038-0.441,0.163-0.566c0.092-0.095,0.335-0.153,0.729-0.18
			l3.697-0.237l-4.557,4.228l0.111,1.74l0.175-0.011c-0.012-0.187-0.007-0.326,0.016-0.42c0.047-0.189,0.103-0.335,0.167-0.436
			c0.063-0.101,0.197-0.251,0.403-0.45L25.966,102.354z"/>
		<path d="M26.364,95.379c0.072,0.083,0.126,0.259,0.163,0.528l0.175,0.008l0.085-2.021l-0.175-0.007
			c-0.035,0.308-0.092,0.506-0.17,0.597c-0.078,0.09-0.166,0.134-0.264,0.128c-0.123-0.004-0.307-0.065-0.552-0.185l-0.994-0.478
			l0.105-2.485l0.939-0.349c0.306-0.113,0.527-0.167,0.666-0.161c0.104,0.004,0.19,0.053,0.259,0.146
			c0.069,0.092,0.104,0.268,0.106,0.522l0.175,0.008L26.99,89.1l-0.175-0.007c-0.027,0.262-0.107,0.462-0.241,0.604
			c-0.135,0.142-0.42,0.293-0.857,0.455l-5.433,2.008l-0.007,0.165l5.187,2.481C25.919,95.021,26.219,95.212,26.364,95.379z
			 M24.288,93.788l-2.546-1.227l2.64-0.979L24.288,93.788z"/>
		<path d="M22.144,88.545c-0.286-0.059-0.505-0.156-0.66-0.294c-0.154-0.138-0.251-0.291-0.29-0.462
			c-0.028-0.131-0.023-0.345,0.015-0.642l0.098-0.767l4.868,0.618c0.357,0.046,0.582,0.109,0.673,0.19
			c0.149,0.134,0.206,0.336,0.172,0.605l-0.029,0.225l0.174,0.022l0.344-2.702l-0.174-0.022l-0.028,0.222
			c-0.032,0.247-0.121,0.422-0.267,0.524c-0.108,0.072-0.358,0.083-0.75,0.034l-4.868-0.619l0.114-0.897
			c0.033-0.264,0.104-0.471,0.21-0.621c0.107-0.149,0.257-0.262,0.452-0.336c0.12-0.046,0.314-0.068,0.582-0.07l0.023-0.178
			l-1.504-0.119l-0.661,5.202l1.485,0.266L22.144,88.545z"/>
		<path d="M21.807,81.583c0.03-0.149,0.096-0.284,0.198-0.404c0.075-0.085,0.154-0.135,0.238-0.15
			c0.11-0.02,0.324,0.003,0.643,0.067l4.067,0.826c0.378,0.077,0.608,0.162,0.692,0.257c0.128,0.147,0.165,0.353,0.112,0.612
			l-0.045,0.223l0.171,0.034l0.548-2.697l-0.171-0.034l-0.046,0.228c-0.03,0.148-0.096,0.282-0.198,0.399
			c-0.075,0.088-0.155,0.14-0.239,0.154c-0.11,0.021-0.325-0.002-0.644-0.067l-4.066-0.825c-0.378-0.077-0.608-0.163-0.692-0.262
			c-0.128-0.148-0.166-0.351-0.113-0.607l0.045-0.228l-0.172-0.035l-0.547,2.697l0.171,0.035L21.807,81.583z"/>
		<path d="M25.499,78.439c0.958,0.277,1.823,0.215,2.594-0.188c0.771-0.403,1.279-1.028,1.525-1.878
			c0.243-0.841,0.141-1.646-0.307-2.417c-0.448-0.771-1.14-1.292-2.077-1.563c-0.91-0.264-1.754-0.19-2.532,0.221
			c-0.778,0.411-1.283,1.017-1.515,1.817c-0.234,0.807-0.167,1.578,0.203,2.313C23.815,77.591,24.518,78.156,25.499,78.439z
			 M23.494,74.615c0.17-0.589,0.51-0.99,1.02-1.204c0.639-0.266,1.486-0.246,2.542,0.06c0.974,0.282,1.632,0.677,1.974,1.187
			c0.343,0.508,0.431,1.052,0.263,1.631c-0.157,0.543-0.49,0.92-0.998,1.132c-0.668,0.272-1.505,0.265-2.512-0.027
			c-0.982-0.285-1.669-0.708-2.058-1.271C23.41,75.669,23.334,75.167,23.494,74.615z"/>
		<path d="M24.971,69.908c0.127-0.149,0.24-0.255,0.341-0.318c0.101-0.063,0.288-0.138,0.56-0.228l4.131,1.7
			c0.333,0.137,0.532,0.257,0.599,0.36c0.109,0.167,0.111,0.379,0.006,0.632l-0.085,0.206l0.162,0.067l0.852-2.067l-0.163-0.067
			l-0.086,0.21c-0.096,0.231-0.227,0.377-0.396,0.437c-0.123,0.042-0.367-0.013-0.732-0.163l-3.658-1.506l6.395-1.947l0.065-0.158
			l-5.006-2.061c-0.333-0.137-0.533-0.257-0.6-0.36c-0.109-0.167-0.112-0.377-0.008-0.628l0.086-0.21l-0.162-0.067l-0.851,2.067
			l0.163,0.067l0.084-0.206c0.096-0.234,0.228-0.379,0.395-0.437c0.124-0.044,0.369,0.008,0.734,0.158l3.425,1.411l-5.95,1.797
			l-0.663,1.612l0.162,0.067C24.844,70.105,24.91,69.982,24.971,69.908z"/>
		<path d="M33.41,64.996c0.029,0.106,0,0.289-0.087,0.546l0.154,0.084l0.967-1.777l-0.154-0.083
			c-0.167,0.261-0.306,0.415-0.416,0.461c-0.11,0.046-0.208,0.046-0.294-0.001c-0.108-0.059-0.246-0.195-0.414-0.408l-0.681-0.868
			l1.189-2.184l0.997,0.101c0.324,0.032,0.546,0.082,0.669,0.148c0.091,0.05,0.147,0.132,0.168,0.246
			c0.021,0.114-0.024,0.286-0.135,0.517l0.154,0.083l1.212-2.225l-0.154-0.084c-0.139,0.223-0.3,0.368-0.482,0.436
			c-0.183,0.068-0.505,0.078-0.969,0.03l-5.761-0.592l-0.079,0.146l3.562,4.513C33.168,64.479,33.354,64.783,33.41,64.996z
			 M30.503,60.43l2.8,0.285l-1.055,1.938L30.503,60.43z"/>
		<path d="M32.127,55.304c0.137-0.201,0.297-0.313,0.481-0.336c0.134-0.016,0.365,0.089,0.697,0.315l3.423,2.336
			c0.303,0.207,0.477,0.366,0.523,0.478c0.08,0.196,0.043,0.407-0.11,0.631l-0.136,0.2l0.144,0.099l2.805-4.108l-1.13-1.437
			l-0.115,0.11c0.236,0.36,0.384,0.66,0.444,0.9c0.06,0.239,0.064,0.462,0.012,0.667c-0.052,0.206-0.217,0.512-0.495,0.918
			l-0.265,0.388c-0.233,0.341-0.385,0.536-0.456,0.583c-0.07,0.048-0.144,0.068-0.22,0.062c-0.109-0.014-0.271-0.093-0.489-0.242
			l-3.333-2.275c-0.315-0.215-0.5-0.373-0.556-0.472c-0.055-0.099-0.071-0.224-0.048-0.374c0.022-0.151,0.131-0.366,0.327-0.646
			l-0.145-0.099l-1.64,2.402l0.145,0.099L32.127,55.304z"/>
		<path d="M37.862,47.406c0.163-0.18,0.338-0.27,0.523-0.268c0.135,0.003,0.351,0.138,0.647,0.408l3.075,2.786
			c0.269,0.244,0.419,0.427,0.45,0.548c0.052,0.201-0.013,0.402-0.195,0.603L42.2,51.663l0.13,0.118l1.928-2.127
			c0.837-0.925,1.213-1.838,1.126-2.738c-0.08-0.806-0.451-1.508-1.113-2.108c-0.494-0.448-1.031-0.729-1.613-0.845
			c-0.581-0.115-1.121-0.061-1.618,0.164s-1.069,0.693-1.714,1.404l-1.755,1.938l0.129,0.118L37.862,47.406z M39.72,45.631
			c0.509-0.562,1.115-0.85,1.819-0.865c0.704-0.014,1.385,0.277,2.042,0.873c0.653,0.591,1.008,1.239,1.065,1.942
			c0.057,0.704-0.16,1.328-0.652,1.87c-0.183,0.202-0.441,0.421-0.776,0.659l-4.047-3.668C39.346,46.113,39.529,45.842,39.72,45.631
			z"/>
		<path d="M43.386,41.493c0.197-0.178,0.379-0.258,0.548-0.24c0.125,0.015,0.323,0.174,0.596,0.476l2.798,3.097
			c0.209,0.232,0.334,0.397,0.375,0.497c0.041,0.099,0.04,0.202,0,0.307c-0.052,0.145-0.134,0.268-0.247,0.37l-0.168,0.152
			l0.118,0.13l3.673-3.319l-0.668-1.567l-0.141,0.127c0.113,0.43,0.162,0.784,0.147,1.061c-0.013,0.212-0.063,0.391-0.151,0.539
			c-0.088,0.148-0.267,0.343-0.536,0.587l-0.809,0.73c-0.131,0.118-0.232,0.185-0.304,0.201s-0.137,0.008-0.197-0.02
			c-0.06-0.029-0.185-0.148-0.375-0.359l-1.42-1.571l1.047-0.946c0.199-0.18,0.368-0.29,0.506-0.33
			c0.139-0.04,0.266-0.039,0.382,0.006c0.092,0.036,0.259,0.155,0.502,0.357l0.13-0.117l-1.5-1.66l-0.129,0.118
			c0.231,0.285,0.335,0.536,0.311,0.754c-0.018,0.164-0.162,0.369-0.434,0.615l-1.047,0.946l-1.703-1.884l1.308-1.181
			c0.237-0.214,0.418-0.345,0.543-0.395c0.161-0.057,0.314-0.065,0.459-0.026c0.144,0.041,0.354,0.163,0.63,0.37l0.137-0.124
			l-0.996-0.996L43.1,41.516l0.118,0.13L43.386,41.493z"/>
		<path d="M50.389,39.465c0.474,0.639,1.062,1.064,1.762,1.275c0.939,0.285,1.837,0.111,2.691-0.524
			c0.474-0.353,0.804-0.764,0.99-1.233c0.187-0.469,0.239-1.029,0.156-1.68l-0.174,0.012c0.01,0.654-0.06,1.148-0.209,1.481
			c-0.149,0.334-0.392,0.625-0.727,0.873c-0.385,0.287-0.795,0.45-1.231,0.491c-0.437,0.041-0.856-0.055-1.26-0.286
			c-0.404-0.231-0.779-0.58-1.126-1.046c-0.42-0.565-0.692-1.097-0.816-1.594c-0.124-0.499-0.112-0.936,0.035-1.316
			c0.148-0.378,0.393-0.695,0.734-0.95c0.408-0.303,0.843-0.448,1.307-0.434c0.463,0.015,0.968,0.225,1.515,0.633l0.118-0.087
			l-1.421-1.666l-0.133,0.099c0.062,0.143,0.086,0.273,0.071,0.39c-0.015,0.086-0.056,0.154-0.125,0.205
			c-0.046,0.034-0.143,0.063-0.291,0.086c-0.498,0.087-0.934,0.269-1.306,0.545c-0.479,0.356-0.833,0.803-1.061,1.34
			c-0.228,0.538-0.298,1.107-0.208,1.71C49.77,38.393,50.006,38.951,50.389,39.465z"/>
		<path d="M58.174,36.742c0.838,0.234,1.638,0.125,2.398-0.326c0.753-0.446,1.229-1.103,1.431-1.972
			c0.201-0.868,0.053-1.721-0.444-2.561c-0.483-0.815-1.149-1.339-1.998-1.572c-0.848-0.233-1.631-0.137-2.348,0.288
			c-0.723,0.429-1.201,1.037-1.435,1.825c-0.27,0.908-0.144,1.801,0.376,2.678C56.663,35.962,57.336,36.508,58.174,36.742z
			 M56.448,32.199c0.082-0.544,0.369-0.962,0.864-1.255c0.526-0.313,1.049-0.373,1.567-0.18c0.647,0.244,1.252,0.838,1.812,1.784
			c0.517,0.872,0.726,1.61,0.628,2.215c-0.099,0.606-0.407,1.062-0.926,1.37c-0.487,0.288-0.987,0.335-1.502,0.142
			c-0.674-0.258-1.278-0.837-1.813-1.74C56.556,33.654,56.346,32.875,56.448,32.199z"/>
		<path d="M61.676,28.458c0.222-0.102,0.417-0.115,0.586-0.04c0.122,0.053,0.267,0.262,0.436,0.629l1.733,3.771
			c0.152,0.332,0.219,0.557,0.2,0.674c-0.033,0.209-0.172,0.371-0.419,0.484l-0.22,0.101l0.073,0.159l2.501-1.149l-0.073-0.159
			l-0.228,0.104c-0.218,0.1-0.411,0.113-0.578,0.037c-0.121-0.052-0.266-0.261-0.435-0.629l-0.779-1.696
			c0.047-0.019,0.093-0.037,0.136-0.055c0.044-0.019,0.084-0.036,0.121-0.053c0.092-0.042,0.21-0.1,0.354-0.173l3.23,1.822
			l1.559-0.716l-0.074-0.159c-0.334,0.112-0.629,0.15-0.885,0.115c-0.256-0.036-0.61-0.182-1.063-0.44l-1.975-1.12
			c0.441-0.335,0.718-0.688,0.83-1.059c0.113-0.372,0.087-0.737-0.079-1.096c-0.154-0.335-0.389-0.578-0.706-0.726
			c-0.316-0.148-0.644-0.2-0.979-0.156c-0.335,0.045-0.813,0.21-1.433,0.494L61.384,28.4l0.073,0.159L61.676,28.458z M63.872,27.653
			c0.375-0.173,0.73-0.197,1.063-0.074c0.333,0.124,0.583,0.367,0.75,0.731c0.171,0.374,0.171,0.746,0,1.117
			c-0.172,0.371-0.536,0.684-1.093,0.939c-0.025,0.012-0.059,0.027-0.1,0.043c-0.041,0.017-0.089,0.039-0.143,0.063l-1.116-2.428
			C63.492,27.861,63.705,27.73,63.872,27.653z"/>
		<path d="M72.171,30.763l-0.056-0.166c-0.3,0.079-0.507,0.098-0.619,0.057c-0.112-0.041-0.184-0.107-0.215-0.2
			c-0.039-0.116-0.048-0.31-0.026-0.581l0.088-1.1l2.356-0.796l0.664,0.75c0.216,0.244,0.345,0.432,0.39,0.563
			c0.033,0.099,0.019,0.197-0.043,0.294c-0.062,0.098-0.212,0.193-0.451,0.288l0.056,0.166l2.4-0.812l-0.056-0.166
			c-0.254,0.069-0.47,0.066-0.65-0.007c-0.18-0.074-0.424-0.286-0.732-0.636l-3.829-4.346l-0.157,0.053l-0.448,5.731
			c-0.037,0.502-0.107,0.852-0.211,1.046c-0.051,0.097-0.196,0.211-0.435,0.342l0.056,0.166L72.171,30.763z M71.599,25.577
			l1.863,2.11l-2.091,0.708L71.599,25.577z"/>
		<path d="M75.532,24.496c-0.048-0.288-0.036-0.528,0.037-0.721c0.073-0.193,0.183-0.338,0.328-0.437
			c0.111-0.073,0.313-0.145,0.605-0.216l0.749-0.184l1.168,4.767c0.085,0.35,0.105,0.582,0.063,0.696
			c-0.071,0.187-0.238,0.313-0.502,0.377l-0.222,0.054l0.042,0.171l2.646-0.648l-0.042-0.17l-0.216,0.053
			c-0.242,0.059-0.438,0.038-0.586-0.062c-0.106-0.075-0.206-0.304-0.3-0.688l-1.166-4.767l0.877-0.215
			c0.258-0.063,0.477-0.071,0.655-0.026c0.179,0.046,0.337,0.146,0.476,0.3c0.086,0.096,0.177,0.269,0.273,0.519l0.175-0.043
			l-0.428-1.446l-5.092,1.247l0.284,1.481L75.532,24.496z"/>
		<path d="M81.878,21.692c0.149-0.025,0.299-0.012,0.448,0.04c0.105,0.04,0.182,0.096,0.226,0.168
			c0.058,0.096,0.113,0.305,0.168,0.625l0.688,4.092c0.063,0.38,0.067,0.626,0.009,0.739c-0.093,0.172-0.27,0.28-0.531,0.324
			l-0.225,0.038l0.029,0.172l2.714-0.457l-0.028-0.172l-0.229,0.038c-0.149,0.025-0.298,0.012-0.443-0.041
			c-0.109-0.039-0.187-0.095-0.23-0.167c-0.058-0.096-0.113-0.305-0.167-0.625l-0.688-4.092c-0.064-0.379-0.065-0.626-0.004-0.739
			c0.093-0.172,0.269-0.28,0.526-0.324l0.229-0.038l-0.029-0.173l-2.714,0.456l0.028,0.173L81.878,21.692z"/>
		<path d="M85.85,21.054c0.191,0.044,0.337,0.096,0.439,0.158c0.101,0.061,0.255,0.191,0.458,0.393l0.381,4.451
			c0.031,0.359,0.017,0.592-0.044,0.698c-0.099,0.174-0.286,0.272-0.56,0.295l-0.222,0.02l0.015,0.174l2.229-0.191l-0.016-0.174
			l-0.227,0.019c-0.249,0.022-0.438-0.029-0.569-0.15c-0.093-0.09-0.157-0.333-0.19-0.726l-0.337-3.941l4.661,4.793l0.169-0.015
			l-0.462-5.395c-0.031-0.359-0.015-0.591,0.045-0.698c0.1-0.173,0.284-0.271,0.555-0.294l0.227-0.02l-0.015-0.174l-2.229,0.19
			l0.016,0.174l0.222-0.019c0.252-0.022,0.441,0.029,0.569,0.151c0.097,0.09,0.161,0.332,0.195,0.725l0.316,3.691l-4.323-4.465
			l-1.737,0.149l0.015,0.174C85.616,21.031,85.756,21.034,85.85,21.054z"/>
		<path d="M97.352,26.879c0.433,0.009,0.827-0.029,1.184-0.113c0.355-0.083,0.716-0.22,1.084-0.408l0.04-1.966
			c0.007-0.344,0.042-0.574,0.109-0.689c0.093-0.162,0.266-0.241,0.51-0.236l0.121,0.003l0.002-0.18l-2.485-0.052l-0.005,0.18
			c0.259,0.006,0.439,0.036,0.542,0.09c0.101,0.054,0.176,0.131,0.223,0.232c0.047,0.1,0.066,0.311,0.061,0.633l-0.038,1.856
			c-0.209,0.112-0.423,0.196-0.646,0.252c-0.221,0.056-0.45,0.081-0.688,0.076c-0.404-0.008-0.797-0.134-1.173-0.377
			c-0.38-0.243-0.682-0.62-0.909-1.129c-0.226-0.51-0.334-1.072-0.32-1.685c0.016-0.754,0.207-1.401,0.575-1.939
			c0.44-0.639,1.069-0.95,1.887-0.933c0.6,0.012,1.086,0.208,1.46,0.584c0.262,0.262,0.469,0.646,0.627,1.155l0.165,0.003
			l-0.125-2.03l-0.174-0.004c-0.013,0.161-0.043,0.269-0.085,0.323c-0.044,0.054-0.096,0.081-0.156,0.08
			c-0.06-0.001-0.178-0.037-0.353-0.107c-0.348-0.137-0.616-0.226-0.806-0.268c-0.192-0.042-0.404-0.065-0.639-0.07
			c-0.639-0.013-1.198,0.113-1.674,0.378c-0.569,0.32-1.021,0.785-1.355,1.393c-0.282,0.513-0.43,1.051-0.44,1.617
			c-0.017,0.78,0.211,1.473,0.681,2.08C95.178,26.437,96.112,26.854,97.352,26.879z"/>
		<path d="M105.406,27.224c-0.301-0.072-0.491-0.152-0.571-0.241s-0.112-0.181-0.096-0.278c0.02-0.122,0.103-0.296,0.25-0.525
			l0.594-0.93l2.455,0.404l0.232,0.974c0.075,0.317,0.103,0.543,0.08,0.681c-0.017,0.103-0.075,0.183-0.176,0.24
			c-0.102,0.057-0.278,0.071-0.533,0.042l-0.028,0.173l2.5,0.412l0.028-0.174c-0.255-0.058-0.445-0.162-0.569-0.312
			c-0.125-0.15-0.24-0.452-0.349-0.904l-1.339-5.636l-0.163-0.026l-3.088,4.849c-0.269,0.427-0.495,0.701-0.679,0.825
			c-0.09,0.063-0.271,0.095-0.543,0.098l-0.029,0.173l1.996,0.328L105.406,27.224z M107.31,22.548l0.653,2.739l-2.178-0.358
			L107.31,22.548z"/>
		<path d="M113.031,28.769l-0.219-0.061c-0.241-0.067-0.401-0.18-0.48-0.34c-0.057-0.117-0.031-0.366,0.074-0.746l1.061-3.811
			l2.694,6.118l0.163,0.046l1.451-5.216c0.097-0.347,0.191-0.56,0.286-0.638c0.153-0.128,0.36-0.156,0.623-0.083l0.219,0.061
			l0.046-0.168l-2.153-0.6l-0.047,0.169l0.214,0.06c0.243,0.068,0.404,0.181,0.48,0.341c0.059,0.118,0.036,0.367-0.07,0.748
			l-0.992,3.569l-2.491-5.694l-1.68-0.467l-0.047,0.169c0.179,0.05,0.308,0.101,0.39,0.153c0.163,0.107,0.282,0.208,0.355,0.3
			c0.075,0.093,0.173,0.27,0.293,0.529l-1.196,4.303c-0.097,0.347-0.192,0.56-0.286,0.639c-0.153,0.127-0.361,0.155-0.627,0.081
			l-0.215-0.06l-0.046,0.168l2.153,0.6L113.031,28.769z"/>
		<path d="M119.203,29.642c-0.134,0.337-0.253,0.542-0.356,0.613c-0.17,0.119-0.381,0.128-0.633,0.027l-0.225-0.089l-0.065,0.163
			l2.666,1.065c1.158,0.463,2.145,0.497,2.96,0.101c0.726-0.355,1.256-0.948,1.587-1.778c0.247-0.619,0.324-1.221,0.229-1.806
			c-0.094-0.585-0.333-1.072-0.717-1.46s-1.022-0.76-1.913-1.116l-2.429-0.971l-0.065,0.163l0.226,0.089
			c0.225,0.09,0.37,0.223,0.433,0.398c0.045,0.127-0.008,0.376-0.156,0.749L119.203,29.642z M121.826,25.533
			c0.371,0.05,0.688,0.128,0.952,0.233c0.704,0.281,1.186,0.749,1.444,1.403s0.223,1.394-0.106,2.217
			c-0.326,0.818-0.81,1.377-1.45,1.675c-0.64,0.299-1.299,0.312-1.979,0.041c-0.253-0.101-0.548-0.267-0.888-0.498L121.826,25.533z"
			/>
		<path d="M132.811,36.452c0.772-0.243,1.384-0.749,1.837-1.52c0.338-0.574,0.504-1.158,0.5-1.75
			c-0.007-0.593-0.169-1.109-0.489-1.551c-0.322-0.441-0.896-0.905-1.724-1.391l-2.255-1.325l-0.089,0.151l0.208,0.122
			c0.209,0.123,0.332,0.275,0.367,0.458c0.026,0.132-0.063,0.371-0.267,0.717l-2.102,3.577c-0.185,0.313-0.333,0.497-0.446,0.552
			c-0.186,0.092-0.395,0.069-0.629-0.068l-0.209-0.122l-0.089,0.151l2.476,1.454C130.976,36.538,131.945,36.72,132.811,36.452z
			 M132.008,30.271c0.359,0.105,0.662,0.229,0.907,0.374c0.653,0.384,1.06,0.919,1.217,1.604c0.156,0.686,0.011,1.411-0.439,2.176
			c-0.445,0.76-1.008,1.239-1.686,1.438c-0.677,0.199-1.332,0.113-1.964-0.258c-0.233-0.137-0.501-0.346-0.803-0.625L132.008,30.271
			z"/>
		<path d="M135.253,37.933c-0.185,0.252-0.321,0.408-0.411,0.469c-0.089,0.06-0.188,0.081-0.3,0.062
			c-0.152-0.022-0.29-0.077-0.412-0.167l-0.184-0.134l-0.104,0.142l3.995,2.923l1.398-0.973l-0.153-0.112
			c-0.398,0.198-0.735,0.317-1.008,0.36c-0.211,0.03-0.396,0.017-0.559-0.039c-0.163-0.056-0.391-0.191-0.684-0.406l-0.88-0.643
			c-0.142-0.105-0.228-0.19-0.258-0.257c-0.029-0.066-0.037-0.132-0.021-0.197c0.016-0.064,0.108-0.211,0.275-0.441l1.251-1.709
			l1.139,0.833c0.217,0.159,0.359,0.302,0.427,0.43c0.066,0.126,0.091,0.252,0.07,0.375c-0.016,0.097-0.099,0.285-0.247,0.564
			l0.142,0.104l1.319-1.804l-0.142-0.104c-0.231,0.284-0.455,0.437-0.674,0.457c-0.165,0.017-0.395-0.083-0.691-0.3l-1.139-0.833
			l1.499-2.049l1.422,1.04c0.258,0.189,0.424,0.339,0.497,0.452c0.088,0.146,0.128,0.295,0.119,0.444
			c-0.011,0.149-0.088,0.38-0.233,0.692l0.148,0.109l0.773-1.177l-3.995-2.923l-0.104,0.142l0.185,0.134
			c0.214,0.157,0.33,0.32,0.347,0.489c0.01,0.125-0.104,0.352-0.346,0.68L135.253,37.933z"/>
		<path d="M142.665,43.664c-0.188,0.214-0.437,0.324-0.746,0.33c-0.309,0.005-0.611-0.122-0.91-0.382
			c-0.256-0.225-0.44-0.489-0.556-0.791c-0.116-0.303-0.149-0.585-0.104-0.849c0.047-0.264,0.19-0.596,0.435-0.997l-0.133-0.116
			l-1.452,1.656l0.132,0.116c0.115-0.098,0.204-0.149,0.27-0.154c0.065-0.006,0.129,0.018,0.188,0.069
			c0.062,0.054,0.175,0.22,0.341,0.499c0.166,0.277,0.281,0.455,0.344,0.531c0.104,0.129,0.228,0.256,0.368,0.379
			c0.445,0.391,0.927,0.579,1.443,0.563c0.516-0.016,0.934-0.207,1.255-0.572c0.168-0.193,0.285-0.416,0.35-0.669
			c0.065-0.254,0.073-0.518,0.021-0.792c-0.052-0.274-0.196-0.73-0.436-1.368c-0.292-0.783-0.436-1.327-0.426-1.634
			c0.004-0.21,0.069-0.39,0.199-0.536c0.169-0.193,0.4-0.293,0.692-0.303c0.295-0.009,0.564,0.095,0.812,0.312
			c0.219,0.191,0.381,0.433,0.487,0.723c0.107,0.291,0.132,0.58,0.076,0.867c-0.058,0.287-0.204,0.609-0.441,0.967l0.132,0.115
			l1.463-1.67l-0.131-0.116c-0.123,0.091-0.219,0.138-0.291,0.14c-0.07,0.003-0.138-0.023-0.199-0.077
			c-0.053-0.048-0.122-0.16-0.202-0.335c-0.179-0.378-0.396-0.679-0.65-0.904c-0.411-0.36-0.858-0.532-1.346-0.515
			c-0.483,0.017-0.879,0.2-1.183,0.546c-0.176,0.199-0.29,0.421-0.346,0.667c-0.057,0.246-0.058,0.514-0.002,0.805
			c0.053,0.291,0.185,0.733,0.396,1.327c0.209,0.594,0.329,0.967,0.36,1.119c0.046,0.226,0.049,0.427,0.008,0.606
			C142.843,43.397,142.77,43.545,142.665,43.664z"/>
		<path d="M147.745,42.979l-2.944,2.924c-0.273,0.271-0.473,0.416-0.598,0.433c-0.194,0.024-0.385-0.059-0.571-0.246l-0.161-0.162
			l-0.124,0.124l1.937,1.953l0.125-0.124l-0.162-0.165c-0.106-0.108-0.181-0.236-0.223-0.386c-0.031-0.112-0.029-0.207,0.004-0.285
			c0.045-0.103,0.183-0.269,0.413-0.498l2.946-2.923c0.272-0.271,0.474-0.415,0.6-0.43c0.194-0.023,0.384,0.058,0.569,0.244
			l0.163,0.165l0.124-0.123l-1.938-1.954l-0.124,0.123l0.159,0.162c0.108,0.107,0.183,0.237,0.227,0.39
			c0.029,0.109,0.026,0.203-0.008,0.281C148.114,42.583,147.976,42.749,147.745,42.979z"/>
		<path d="M147.301,48.594c-0.193,1.006,0.111,1.983,0.912,2.932c0.277,0.33,0.566,0.601,0.865,0.813
			c0.298,0.211,0.639,0.392,1.023,0.543l1.501-1.269c0.264-0.222,0.461-0.347,0.59-0.373c0.186-0.037,0.356,0.04,0.516,0.228
			l0.076,0.09l0.138-0.116l-1.604-1.9l-0.137,0.116c0.167,0.198,0.263,0.353,0.289,0.465c0.027,0.112,0.019,0.219-0.026,0.32
			c-0.044,0.102-0.189,0.257-0.436,0.464l-1.419,1.198c-0.222-0.082-0.428-0.188-0.615-0.318c-0.188-0.13-0.359-0.286-0.512-0.467
			c-0.261-0.309-0.426-0.686-0.494-1.131c-0.066-0.444,0.016-0.921,0.249-1.428c0.232-0.506,0.584-0.958,1.052-1.353
			c0.578-0.487,1.189-0.77,1.837-0.85c0.769-0.092,1.418,0.174,1.946,0.799c0.387,0.458,0.563,0.953,0.527,1.483
			c-0.024,0.368-0.177,0.779-0.453,1.232l0.106,0.127l1.44-1.435l-0.111-0.134c-0.13,0.096-0.229,0.146-0.299,0.149
			c-0.069,0.003-0.124-0.019-0.164-0.064c-0.037-0.045-0.089-0.158-0.151-0.335c-0.128-0.351-0.238-0.612-0.332-0.782
			c-0.096-0.17-0.218-0.345-0.368-0.524c-0.414-0.49-0.877-0.826-1.391-1.008c-0.616-0.216-1.264-0.249-1.941-0.097
			c-0.572,0.126-1.073,0.372-1.504,0.737C147.814,47.211,147.444,47.84,147.301,48.594z"/>
		<path d="M155.961,51.364c-0.003,0.119-0.044,0.316-0.12,0.592l-3.703,2.5c-0.297,0.202-0.508,0.301-0.631,0.301
			c-0.199-0.003-0.377-0.117-0.53-0.345l-0.125-0.185l-0.146,0.098l1.252,1.854l0.146-0.098l-0.128-0.188
			c-0.14-0.207-0.188-0.397-0.146-0.571c0.034-0.125,0.214-0.299,0.542-0.519l3.278-2.213l-1.919,6.405l0.096,0.141l4.488-3.03
			c0.299-0.201,0.509-0.302,0.631-0.3c0.199,0.002,0.376,0.116,0.527,0.341l0.128,0.188l0.146-0.098l-1.252-1.853l-0.145,0.098
			l0.125,0.184c0.14,0.21,0.188,0.4,0.145,0.571c-0.032,0.128-0.212,0.302-0.538,0.523l-3.07,2.073l1.795-5.95l-0.975-1.445
			l-0.146,0.099c0.104,0.154,0.171,0.277,0.197,0.369C155.938,51.091,155.965,51.245,155.961,51.364z"/>
		<path d="M156.972,63.589c-0.21-0.027-0.374-0.163-0.493-0.407l-0.106-0.217l-0.158,0.077l1.208,2.473l0.157-0.077l-0.108-0.222
			c-0.105-0.218-0.123-0.413-0.051-0.581c0.049-0.122,0.256-0.272,0.618-0.45l1.681-0.821c0.051,0.204,0.106,0.392,0.166,0.563
			c0.059,0.171,0.122,0.326,0.19,0.465c0.275,0.568,0.639,0.935,1.086,1.102c0.446,0.167,0.906,0.135,1.376-0.095
			c0.347-0.169,0.596-0.417,0.749-0.745c0.152-0.328,0.209-0.667,0.17-1.017c-0.038-0.35-0.185-0.783-0.437-1.299l-1.033-2.116
			l-0.158,0.077l0.106,0.217c0.106,0.219,0.125,0.414,0.054,0.585c-0.05,0.12-0.257,0.269-0.62,0.445l-3.729,1.821
			C157.31,63.529,157.087,63.603,156.972,63.589z M162.363,62.073c0.165,0.201,0.282,0.373,0.353,0.518
			c0.116,0.239,0.168,0.478,0.152,0.717c-0.015,0.239-0.104,0.462-0.27,0.669c-0.163,0.207-0.37,0.371-0.62,0.493
			c-0.363,0.177-0.711,0.214-1.044,0.112c-0.334-0.102-0.572-0.301-0.716-0.596c-0.042-0.083-0.083-0.186-0.125-0.309
			c-0.043-0.123-0.087-0.267-0.132-0.432L162.363,62.073z"/>
		<path d="M164.035,67.275l-3.881,1.467c-0.344,0.129-0.572,0.18-0.687,0.153c-0.207-0.047-0.359-0.198-0.455-0.451l-0.085-0.226
			l-0.164,0.062l0.974,2.575l0.164-0.063l-0.09-0.235c-0.085-0.225-0.084-0.417,0.005-0.579c0.06-0.118,0.278-0.248,0.657-0.391
			l1.745-0.66c0.015,0.048,0.031,0.095,0.047,0.14c0.014,0.044,0.029,0.086,0.044,0.125c0.036,0.095,0.085,0.216,0.147,0.364
			l-2.04,3.096l0.606,1.604l0.164-0.062c-0.089-0.342-0.106-0.639-0.054-0.892c0.054-0.253,0.224-0.596,0.513-1.029l1.254-1.892
			c0.304,0.463,0.637,0.763,1,0.901c0.362,0.138,0.728,0.137,1.098-0.002c0.346-0.131,0.604-0.349,0.772-0.655
			c0.171-0.306,0.244-0.627,0.224-0.965c-0.022-0.339-0.153-0.827-0.395-1.464l-0.827-2.189l-0.165,0.062l0.086,0.226
			c0.086,0.228,0.086,0.424-0.001,0.588C164.633,67.001,164.413,67.132,164.035,67.275z M164.998,67.878
			c0.166,0.271,0.282,0.493,0.347,0.665c0.146,0.387,0.147,0.742,0,1.065c-0.146,0.324-0.405,0.556-0.781,0.698
			c-0.385,0.145-0.755,0.119-1.113-0.078s-0.646-0.582-0.861-1.155c-0.011-0.027-0.023-0.061-0.038-0.103
			c-0.014-0.042-0.03-0.09-0.052-0.147L164.998,67.878z"/>
		<path d="M164.349,74.084c-0.966,0.253-1.675,0.75-2.131,1.491c-0.456,0.741-0.57,1.54-0.347,2.395
			c0.222,0.847,0.723,1.485,1.502,1.917c0.78,0.433,1.642,0.525,2.586,0.277c0.916-0.239,1.603-0.736,2.061-1.487
			c0.457-0.752,0.58-1.531,0.368-2.337c-0.213-0.813-0.667-1.44-1.36-1.882C166.229,73.95,165.336,73.825,164.349,74.084z
			 M167.062,75.165c0.5,0.228,0.823,0.62,0.969,1.175c0.155,0.593,0.07,1.112-0.257,1.557c-0.413,0.555-1.151,0.973-2.214,1.251
			c-0.98,0.257-1.749,0.255-2.304-0.005c-0.556-0.262-0.908-0.684-1.062-1.268c-0.144-0.546-0.051-1.04,0.277-1.481
			c0.434-0.578,1.156-0.999,2.171-1.266C165.632,74.868,166.438,74.881,167.062,75.165z"/>
		<path d="M164.256,82.668c-0.38,0.062-0.627,0.063-0.738,0.004c-0.172-0.095-0.278-0.272-0.321-0.534l-0.035-0.225l-0.174,0.028
			l0.438,2.722l0.172-0.028l-0.036-0.229c-0.024-0.15-0.009-0.3,0.043-0.448c0.04-0.109,0.097-0.186,0.17-0.229
			c0.096-0.057,0.305-0.111,0.626-0.163l1.992-0.32l0.186,1.155c0.035,0.213,0.031,0.377-0.009,0.493
			c-0.041,0.117-0.113,0.215-0.219,0.295c-0.106,0.079-0.282,0.14-0.528,0.183l0.028,0.174l2.146-0.346l-0.027-0.174
			c-0.353,0.016-0.598-0.028-0.733-0.134c-0.138-0.104-0.227-0.288-0.271-0.554l-0.184-1.155l2.491-0.401l0.225,1.399
			c0.055,0.33,0.063,0.579,0.025,0.746c-0.038,0.168-0.117,0.317-0.238,0.446c-0.121,0.131-0.323,0.26-0.606,0.388l0.025,0.165
			l1.384-0.286l-0.758-4.718l-0.174,0.027l0.036,0.224c0.024,0.153,0.01,0.303-0.043,0.448c-0.041,0.105-0.098,0.181-0.17,0.225
			c-0.097,0.057-0.305,0.111-0.627,0.163L164.256,82.668z"/>
		<path d="M169.994,88.096c-0.089,0.089-0.336,0.147-0.743,0.176l-4.162,0.297c-0.312,0.023-0.521,0.02-0.622-0.01
			c-0.104-0.028-0.184-0.092-0.242-0.189c-0.082-0.13-0.128-0.271-0.14-0.422l-0.016-0.227l-0.175,0.013l0.353,4.938l1.646,0.438
			l-0.016-0.188c-0.407-0.177-0.716-0.355-0.926-0.536c-0.158-0.142-0.269-0.292-0.331-0.452c-0.063-0.161-0.105-0.421-0.131-0.783
			l-0.078-1.088c-0.012-0.176-0.004-0.297,0.029-0.362c0.03-0.065,0.076-0.113,0.137-0.144c0.059-0.029,0.23-0.054,0.515-0.074
			l2.111-0.15l0.102,1.408c0.019,0.269,0,0.468-0.053,0.602c-0.054,0.134-0.134,0.232-0.239,0.298
			c-0.086,0.05-0.282,0.108-0.591,0.175l0.012,0.175l2.23-0.159l-0.013-0.174c-0.366,0.007-0.628-0.066-0.785-0.221
			c-0.12-0.114-0.191-0.354-0.218-0.72l-0.101-1.408l2.533-0.182l0.126,1.759c0.021,0.317,0.014,0.542-0.023,0.671
			c-0.057,0.162-0.143,0.288-0.264,0.377c-0.12,0.089-0.347,0.18-0.679,0.27l0.014,0.185l1.397-0.171l-0.352-4.938l-0.175,0.012
			l0.017,0.227C170.161,87.779,170.111,87.974,169.994,88.096z"/>
		<path d="M170.438,97.938c0.001-0.073,0.042-0.197,0.124-0.373c0.173-0.378,0.264-0.739,0.27-1.08
			c0.009-0.547-0.15-0.999-0.479-1.358c-0.327-0.359-0.722-0.542-1.183-0.55c-0.265-0.004-0.51,0.053-0.732,0.168
			c-0.223,0.117-0.428,0.289-0.615,0.52c-0.186,0.229-0.438,0.615-0.755,1.16c-0.317,0.543-0.523,0.877-0.62,0.999
			c-0.142,0.181-0.295,0.313-0.456,0.397c-0.163,0.084-0.323,0.125-0.481,0.123c-0.283-0.005-0.528-0.124-0.732-0.355
			c-0.205-0.232-0.304-0.547-0.298-0.941c0.006-0.341,0.087-0.652,0.242-0.936c0.156-0.283,0.351-0.493,0.582-0.629
			c0.23-0.135,0.577-0.24,1.039-0.314l0.004-0.176l-2.203-0.035l-0.002,0.176c0.147,0.024,0.244,0.059,0.292,0.106
			c0.046,0.046,0.068,0.109,0.067,0.188c-0.001,0.081-0.055,0.276-0.159,0.581c-0.104,0.307-0.166,0.509-0.183,0.606
			c-0.03,0.164-0.048,0.339-0.05,0.525c-0.011,0.594,0.158,1.082,0.503,1.464c0.347,0.384,0.763,0.579,1.249,0.588
			c0.256,0.004,0.501-0.051,0.737-0.166c0.234-0.115,0.44-0.281,0.616-0.497c0.176-0.217,0.43-0.622,0.762-1.217
			c0.407-0.729,0.73-1.191,0.97-1.382c0.163-0.133,0.343-0.199,0.538-0.195c0.256,0.004,0.482,0.115,0.68,0.333
			c0.196,0.219,0.292,0.492,0.287,0.819c-0.005,0.291-0.083,0.57-0.235,0.841c-0.153,0.269-0.356,0.475-0.612,0.617
			s-0.597,0.238-1.023,0.289l-0.003,0.175l2.222,0.036l0.003-0.175c-0.148-0.034-0.246-0.078-0.294-0.131
			S170.436,98.021,170.438,97.938z"/>
		<path d="M168.982,100.833c-0.266-0.027-0.513,0.009-0.744,0.105c-0.233,0.097-0.451,0.253-0.657,0.465
			c-0.206,0.213-0.489,0.577-0.85,1.092c-0.362,0.517-0.596,0.831-0.703,0.945c-0.156,0.167-0.319,0.287-0.487,0.357
			c-0.17,0.07-0.332,0.097-0.489,0.081c-0.283-0.028-0.517-0.167-0.701-0.415c-0.184-0.249-0.257-0.57-0.217-0.962
			c0.034-0.34,0.142-0.646,0.32-0.913c0.179-0.271,0.39-0.462,0.632-0.577c0.241-0.115,0.595-0.191,1.063-0.226l0.018-0.175
			l-2.191-0.221l-0.018,0.174c0.146,0.038,0.239,0.081,0.282,0.131c0.042,0.051,0.061,0.115,0.053,0.193
			c-0.009,0.082-0.079,0.271-0.208,0.567c-0.131,0.296-0.207,0.492-0.232,0.589c-0.045,0.16-0.077,0.333-0.097,0.518
			c-0.059,0.591,0.067,1.093,0.38,1.502c0.313,0.412,0.712,0.642,1.195,0.69c0.254,0.025,0.504-0.009,0.748-0.104
			s0.464-0.241,0.656-0.443c0.193-0.201,0.48-0.584,0.861-1.148c0.466-0.693,0.828-1.124,1.083-1.295
			c0.174-0.119,0.357-0.169,0.553-0.149c0.254,0.025,0.471,0.155,0.648,0.39c0.179,0.233,0.251,0.514,0.217,0.84
			c-0.028,0.29-0.13,0.563-0.305,0.817s-0.396,0.443-0.662,0.563c-0.267,0.121-0.614,0.188-1.044,0.202l-0.017,0.175l2.209,0.223
			l0.019-0.175c-0.145-0.046-0.238-0.098-0.282-0.154s-0.062-0.126-0.053-0.208c0.008-0.072,0.058-0.192,0.155-0.359
			c0.204-0.363,0.325-0.716,0.358-1.055c0.056-0.545-0.065-1.01-0.361-1.394C169.817,101.095,169.439,100.88,168.982,100.833z"/>
		<path d="M169.623,107.098c-0.025,0.149-0.087,0.286-0.186,0.411c-0.073,0.086-0.15,0.139-0.234,0.157
			c-0.109,0.021-0.324,0.006-0.645-0.049l-4.09-0.703c-0.38-0.065-0.613-0.144-0.7-0.235c-0.132-0.145-0.176-0.348-0.131-0.609
			l0.039-0.224l-0.173-0.03l-0.466,2.713l0.172,0.029l0.04-0.228c0.026-0.149,0.088-0.286,0.186-0.406
			c0.072-0.091,0.15-0.144,0.234-0.161c0.108-0.023,0.323-0.007,0.646,0.048l4.089,0.702c0.38,0.065,0.612,0.146,0.699,0.241
			c0.132,0.143,0.176,0.345,0.131,0.604l-0.038,0.229l0.172,0.03l0.466-2.713l-0.172-0.029L169.623,107.098z"/>
		<path d="M166.023,110.375c-0.967-0.249-1.829-0.16-2.588,0.265c-0.758,0.428-1.247,1.068-1.468,1.925
			c-0.218,0.847-0.092,1.649,0.379,2.406c0.47,0.756,1.178,1.257,2.123,1.5c0.918,0.236,1.759,0.137,2.524-0.297
			c0.765-0.435,1.252-1.055,1.46-1.862c0.209-0.813,0.118-1.582-0.272-2.306C167.73,111.173,167.011,110.63,166.023,110.375z
			 M168.142,114.138c-0.153,0.594-0.48,1.006-0.983,1.233c-0.63,0.286-1.479,0.29-2.542,0.018c-0.982-0.253-1.652-0.629-2.009-1.127
			c-0.357-0.497-0.462-1.039-0.313-1.623c0.142-0.548,0.462-0.934,0.965-1.16c0.659-0.294,1.497-0.31,2.512-0.05
			c0.991,0.256,1.69,0.659,2.096,1.21C168.193,113.082,168.285,113.582,168.142,114.138z"/>
		<path d="M166.816,118.856c-0.122,0.154-0.232,0.264-0.331,0.33c-0.099,0.065-0.284,0.146-0.552,0.243l-4.182-1.573
			c-0.336-0.128-0.54-0.241-0.61-0.343c-0.113-0.163-0.121-0.374-0.024-0.632l0.078-0.209l-0.164-0.061l-0.788,2.093l0.164,0.062
			l0.08-0.213c0.088-0.234,0.215-0.384,0.381-0.449c0.121-0.045,0.368,0.003,0.737,0.142l3.701,1.395l-6.333,2.139l-0.061,0.159
			l5.067,1.91c0.337,0.127,0.541,0.24,0.61,0.341c0.113,0.163,0.122,0.373,0.027,0.627l-0.08,0.214l0.163,0.061l0.788-2.093
			l-0.163-0.061l-0.079,0.209c-0.09,0.235-0.216,0.385-0.382,0.448c-0.123,0.048-0.369,0.003-0.738-0.137l-3.467-1.307l5.893-1.976
			l0.615-1.632l-0.165-0.062C166.938,118.657,166.876,118.781,166.816,118.856z"/>
		<path d="M158.522,124.039c-0.032-0.104-0.008-0.287,0.071-0.549l-0.157-0.079l-0.914,1.805l0.157,0.079
			c0.159-0.267,0.293-0.425,0.401-0.474c0.108-0.05,0.206-0.053,0.293-0.008c0.11,0.056,0.252,0.188,0.426,0.396l0.708,0.848
			l-1.124,2.218l-0.999-0.07c-0.325-0.023-0.549-0.066-0.674-0.128c-0.093-0.048-0.151-0.129-0.175-0.241
			c-0.024-0.113,0.016-0.286,0.12-0.521l-0.157-0.079l-1.145,2.261l0.155,0.079c0.133-0.227,0.291-0.376,0.472-0.449
			c0.179-0.074,0.502-0.094,0.967-0.06l5.777,0.42l0.074-0.148l-3.695-4.404C158.778,124.55,158.585,124.251,158.522,124.039z
			 M161.565,128.517l-2.81-0.202l0.998-1.969L161.565,128.517z"/>
		<path d="M160.09,133.699c-0.132,0.205-0.289,0.322-0.473,0.351c-0.133,0.021-0.368-0.078-0.706-0.294l-3.491-2.234
			c-0.309-0.197-0.486-0.352-0.537-0.462c-0.086-0.193-0.056-0.405,0.092-0.634l0.13-0.203l-0.148-0.095l-2.682,4.188l1.173,1.403
			l0.112-0.113c-0.247-0.354-0.403-0.648-0.472-0.887c-0.066-0.238-0.076-0.46-0.03-0.667c0.045-0.206,0.202-0.518,0.468-0.933
			l0.252-0.395c0.224-0.348,0.37-0.548,0.438-0.597c0.069-0.05,0.142-0.073,0.218-0.069c0.11,0.011,0.275,0.086,0.496,0.228
			l3.399,2.175c0.322,0.207,0.512,0.358,0.569,0.456c0.059,0.097,0.079,0.222,0.06,0.372c-0.019,0.151-0.12,0.369-0.307,0.656
			l0.146,0.093l1.568-2.448l-0.146-0.095L160.09,133.699z"/>
		<path d="M131.247,76.557c-8.947,0-14.433-4.415-19.735-8.685c-4.827-3.886-9.387-7.557-15.984-7.557
			c-6.599,0-11.161,3.671-15.99,7.559c-5.304,4.27-10.789,8.684-19.733,8.684c-1.046,0-2.135-0.061-3.236-0.182l-2.454-0.27
			l0.607,2.393c11.57,45.586,38.904,59.242,40.061,59.801l0.822,0.396l0.787-0.46c1.232-0.721,30.275-18.139,39.944-59.771
			l0.547-2.353l-2.401,0.264C133.382,76.496,132.294,76.557,131.247,76.557z M95.458,134.773
			c-4.5-2.576-26.457-16.839-36.812-54.814c0.39,0.015,0.776,0.021,1.158,0.021c10.151,0,16.383-5.015,21.88-9.44
			c4.535-3.649,8.451-6.802,13.844-6.802c5.39,0,9.305,3.152,13.837,6.801c5.498,4.425,11.729,9.441,21.883,9.441
			c0.396,0,0.797-0.008,1.2-0.023C123.541,114.783,100.084,131.723,95.458,134.773z"/>
		<path d="M107.568,72.703c-4.764-3.836-7.897-6.187-12.094-6.187c-4.203,0-7.336,2.351-12.101,6.187
			c-4.831,3.89-10.843,8.729-19.745,9.822l-1.363,0.168l0.415,1.31c5.78,18.262,14.245,29.851,20.327,36.355
			c3.586,3.835,8.521,8.82,11.665,10.798l0.64,0.401l0.62-0.433c2.635-1.837,7.091-6.124,12.544-12.07
			c9.104-9.932,15.799-21.723,19.896-35.048l0.401-1.307l-1.357-0.162C118.458,81.47,112.421,76.608,107.568,72.703z
			 M106.793,117.512c-4.848,5.287-8.992,9.332-11.543,11.284c-2.355-1.671-6.067-5.176-10.576-9.996
			c-5.779-6.181-13.77-17.089-19.404-34.206c8.792-1.463,14.722-6.238,19.535-10.113c4.376-3.522,7.233-5.682,10.67-5.682
			c3.432,0,6.287,2.159,10.662,5.682c4.836,3.892,10.798,8.692,19.65,10.132C121.76,97.089,115.375,108.151,106.793,117.512z"/>
		<polygon points="93.446,53.101 95.526,51.639 97.603,53.101 96.854,50.675 98.884,49.152 96.347,49.116 95.526,46.713 
			94.702,49.116 92.163,49.152 94.195,50.675 		"/>
		<polygon points="111.549,58.304 113.161,57.786 114.189,59.13 114.197,57.437 115.791,56.872 114.184,56.343 114.139,54.651 
			113.139,56.018 111.516,55.537 112.507,56.909 		"/>
		<polygon points="76.857,58.89 77.888,57.547 79.5,58.066 78.541,56.67 79.532,55.297 77.907,55.778 76.908,54.413 76.864,56.104 
			75.258,56.633 76.853,57.198 		"/>
		<polygon points="103.812,54.247 105.564,53.458 106.898,54.845 106.691,52.933 108.421,52.094 106.538,51.701 106.275,49.795 
			105.319,51.464 103.425,51.127 104.718,52.551 		"/>
		<polygon points="84.256,54.845 85.59,53.458 87.344,54.247 86.438,52.551 87.729,51.127 85.836,51.464 84.879,49.795 
			84.616,51.701 82.732,52.094 84.464,52.933 		"/>
		<path d="M135.941,60.651c-3.755-2.63-7.692-1.494-9.642,0.988c-1.777,2.267-1.626,5.071,0.369,6.818
			c1.303,1.141,3.144,1.295,4.577,0.38c0.613-0.392,1.053-0.938,1.309-1.561c0.224-0.277,0.404-0.594,0.514-0.952
			c0.45-1.481-0.39-3.052-1.87-3.504c-1.447-0.443-3.066,0.432-3.503,1.867c-0.141,0.459-0.146,0.934-0.051,1.391
			c-0.581-1.03-0.184-2.22,0.452-3.03c1.285-1.64,3.805-2.438,6.537-0.526c1.38,0.967,2.047,2.764,1.739,4.689
			c-0.338,2.116-1.739,3.743-3.748,4.351c-5.146,1.559-11.517-1.495-14.892-5.162l-1.679,1.546c3.182,3.458,8.479,6.32,13.615,6.319
			c1.226,0,2.441-0.163,3.617-0.518c2.822-0.855,4.868-3.222,5.34-6.176C139.074,64.774,138.045,62.123,135.941,60.651z
			 M129.879,65.352c0.065-0.219,0.272-0.372,0.502-0.372c0.05,0,0.102,0.007,0.152,0.023c0.22,0.067,0.359,0.267,0.366,0.484
			l-0.432,0.126c0.043,0.147,0.046,0.27,0.046,0.39c-0.092,0.025-0.188,0.034-0.288,0.004c-0.18-0.054-0.27-0.182-0.307-0.253
			C129.879,65.682,129.823,65.534,129.879,65.352z"/>
		<path d="M57.763,73.747c1.176,0.356,2.39,0.519,3.615,0.518c5.137,0,10.435-2.861,13.617-6.319l-1.68-1.546
			c-3.373,3.667-9.74,6.724-14.891,5.162c-2.009-0.608-3.41-2.235-3.748-4.351c-0.308-1.925,0.359-3.723,1.74-4.689
			c2.729-1.912,5.25-1.115,6.536,0.526c0.636,0.811,1.033,2,0.452,3.03c0.097-0.458,0.089-0.932-0.051-1.391
			c-0.436-1.436-2.057-2.307-3.503-1.867c-1.48,0.452-2.319,2.023-1.869,3.505c0.109,0.358,0.29,0.675,0.513,0.951
			c0.256,0.624,0.695,1.169,1.309,1.561c1.432,0.915,3.272,0.761,4.577-0.38c1.995-1.747,2.146-4.551,0.368-6.818
			c-1.946-2.482-5.883-3.618-9.642-0.988c-2.103,1.472-3.131,4.124-2.685,6.919C52.894,70.524,54.94,72.891,57.763,73.747z
			 M60.517,65.003c0.05-0.016,0.101-0.023,0.152-0.023c0.229,0,0.435,0.153,0.501,0.372c0.056,0.182,0,0.33-0.039,0.402
			c-0.039,0.071-0.129,0.2-0.31,0.254c-0.097,0.029-0.194,0.02-0.286-0.007c0-0.12,0.002-0.242,0.045-0.389l-0.433-0.126
			C60.158,65.269,60.297,65.07,60.517,65.003z"/>
		<path d="M61.493,160.097c-0.882,0.27-1.379,1.201-1.111,2.081c0.269,0.88,1.201,1.377,2.082,1.108
			c0.878-0.268,1.375-1.2,1.108-2.081C63.303,160.326,62.369,159.829,61.493,160.097z"/>
		<circle cx="129.074" cy="161.691" r="1.667"/>
		<path d="M77.284,160.703l0.285,0.072c0.189,0.049,0.361,0.142,0.511,0.281c0.104,0.102,0.164,0.207,0.179,0.316
			c0.019,0.143-0.024,0.418-0.126,0.826l-1.311,5.2c-0.121,0.484-0.245,0.776-0.373,0.88c-0.198,0.155-0.465,0.191-0.797,0.108
			l-0.285-0.072l-0.056,0.22l3.449,0.869l0.056-0.22l-0.291-0.074c-0.19-0.047-0.358-0.14-0.504-0.277
			c-0.109-0.104-0.171-0.209-0.186-0.318c-0.019-0.145,0.023-0.419,0.127-0.826l1.31-5.202c0.121-0.482,0.247-0.774,0.378-0.876
			c0.199-0.156,0.464-0.193,0.792-0.111l0.291,0.073l0.056-0.219l-3.449-0.869L77.284,160.703z"/>
		<path d="M90.681,163.226c-0.616-0.343-1.542-0.575-2.776-0.699l-3.364-0.332l-0.021,0.226l0.311,0.032
			c0.313,0.03,0.539,0.143,0.681,0.337c0.1,0.142,0.125,0.47,0.074,0.985l-0.526,5.338c-0.046,0.467-0.121,0.764-0.224,0.888
			c-0.169,0.21-0.428,0.297-0.777,0.263l-0.31-0.03l-0.022,0.225l3.692,0.365c1.604,0.158,2.841-0.153,3.711-0.938
			c0.773-0.703,1.219-1.63,1.332-2.778c0.085-0.857-0.036-1.633-0.364-2.325C91.769,164.088,91.297,163.57,90.681,163.226z
			 M91.064,167.029c-0.111,1.134-0.511,2-1.198,2.602c-0.688,0.6-1.501,0.854-2.444,0.761c-0.349-0.034-0.775-0.134-1.28-0.299
			l0.694-7.025c0.479-0.071,0.9-0.089,1.266-0.053c0.976,0.097,1.741,0.505,2.297,1.223
			C90.955,164.959,91.178,165.888,91.064,167.029z"/>
		<path d="M104.671,164.266c-0.445-0.623-1.003-1.049-1.672-1.275c-0.666-0.229-1.62-0.292-2.855-0.19l-3.368,0.273l0.018,0.226
			l0.311-0.025c0.314-0.024,0.558,0.045,0.731,0.211c0.125,0.121,0.207,0.44,0.249,0.957l0.438,5.346
			c0.037,0.468,0.018,0.772-0.061,0.914c-0.129,0.235-0.367,0.367-0.718,0.396l-0.313,0.025l0.021,0.226l3.696-0.302
			c1.606-0.131,2.769-0.66,3.484-1.587c0.635-0.831,0.907-1.82,0.813-2.972C105.373,165.629,105.117,164.889,104.671,164.266z
			 M103.345,169.437c-0.568,0.713-1.324,1.108-2.27,1.186c-0.35,0.029-0.786,0.007-1.313-0.064l-0.575-7.036
			c0.459-0.156,0.872-0.248,1.237-0.279c0.977-0.08,1.803,0.185,2.479,0.793c0.678,0.608,1.062,1.484,1.155,2.627
			C104.152,167.798,103.913,168.722,103.345,169.437z"/>
		<path d="M114.935,161.202c-0.374-0.278-0.787-0.44-1.242-0.483c-0.452-0.042-1.039,0.028-1.759,0.213l-2.949,0.75l0.057,0.221
			l0.303-0.077c0.305-0.079,0.555-0.049,0.756,0.085c0.136,0.095,0.27,0.396,0.398,0.902l1.325,5.197
			c0.117,0.46,0.15,0.76,0.104,0.902c-0.092,0.259-0.306,0.432-0.646,0.52l-0.302,0.076l0.056,0.22l3.447-0.878l-0.056-0.221
			l-0.308,0.079c-0.306,0.077-0.556,0.049-0.75-0.088c-0.143-0.093-0.277-0.394-0.407-0.9l-0.598-2.344
			c0.272-0.011,0.523-0.03,0.756-0.061c0.234-0.028,0.446-0.068,0.64-0.117c0.792-0.202,1.351-0.563,1.682-1.085
			c0.327-0.521,0.407-1.111,0.24-1.769C115.559,161.862,115.31,161.481,114.935,161.202z M114.226,164.16
			c-0.219,0.395-0.533,0.644-0.942,0.749c-0.116,0.029-0.257,0.055-0.424,0.075c-0.167,0.021-0.361,0.04-0.58,0.054l-0.854-3.346
			c0.299-0.156,0.548-0.26,0.749-0.312c0.332-0.084,0.648-0.087,0.947-0.004c0.299,0.081,0.558,0.254,0.776,0.517
			c0.218,0.261,0.372,0.566,0.461,0.915C114.487,163.315,114.444,163.766,114.226,164.16z"/>
		<polygon points="98.992,75.563 92.06,75.563 87.9,84.692 103.148,84.692 		"/>
		<path d="M99.094,88.791c0-0.584-0.146-0.675-0.405-1.816h-6.125c-0.256,1.142-0.402,1.232-0.402,1.816
			c0,1.009,0.431,0.467,1.119,2.749H81.259v20.545h4.565v-3.424h18.261v3.424h4.565V91.54H97.975
			C98.664,89.258,99.094,89.8,99.094,88.791z M105.227,106.378H84.682V99.53h20.545V106.378z M105.227,93.823v3.424H84.682v-3.424
			H105.227z"/>
		<path d="M84.961,141.04c0.49-0.369,0.523-1.155,0.015-2.057c-0.51-0.891-1.767-1.292-1.77-1.3
			c0.007-0.002-0.453,1.604,0.036,2.556C83.735,141.187,84.481,141.406,84.961,141.04z"/>
		<path d="M84.796,141.96c-0.346-0.512-1.058-0.587-2-0.019c-0.942,0.567-1.49,2.128-1.486,2.133
			c-0.009,0.011,1.74,0.436,2.707-0.202C84.976,143.248,85.135,142.468,84.796,141.96z"/>
		<path d="M91.163,141.389c-0.169,0.013-0.343,0.025-0.514,0.036c-1.222,0.069-1.887-0.813-2.459-1.649
			c-0.075-0.138-0.166-0.278-0.275-0.42c-0.636-0.813-1.951-1.043-1.955-1.053c0.003,0.001-0.176,1.259,0.193,2.167
			c0.178,0.447,0.428,0.862,0.715,0.892c0.235,0.022,0.476,0.042,0.713,0.057c0.506,0.033,0.54,0.44,0.54,0.44
			s-0.069,0.412-0.595,0.38c-0.247-0.018-0.491-0.037-0.739-0.061c-0.294-0.029-0.636,0.315-0.953,0.701
			c-0.644,0.77-0.897,2.009-0.895,2.01c-0.008,0.015,1.803,0.204,2.688-0.561c0.15-0.129,0.276-0.259,0.381-0.388
			c0.767-0.785,1.448-1.625,2.691-1.695c0.178-0.012,0.357-0.024,0.534-0.039c0.536-0.047,0.545-0.467,0.544-0.466
			C91.778,141.739,91.68,141.343,91.163,141.389z"/>
		<path d="M73,136.339c-0.011-0.23-0.102-0.433-0.268-0.599c-0.27-0.271-0.748-0.431-1.437-0.422
			c-1.098,0.01-2.362,1.076-2.362,1.083l0.004,0.002c-0.012,0.008,1.274,1.257,2.422,1.188C72.496,137.535,73.03,136.945,73,136.339
			z"/>
		<path d="M75.629,138.316c-0.115-0.604-0.73-0.943-1.814-0.781c-1.086,0.16-2.195,1.385-2.194,1.39
			c-0.012,0.006,1.422,1.069,2.55,0.851C75.285,139.565,75.735,138.913,75.629,138.316z"/>
		<path d="M76.96,135.648c-0.115-1.013-1.107-1.863-1.104-1.874c0.004,0.002-1.043,1.303-0.967,2.364
			c0.083,1.064,0.671,1.549,1.252,1.395C76.728,137.381,77.066,136.672,76.96,135.648z"/>
		<path d="M78.498,139.93c-0.193-0.584-0.85-0.839-1.903-0.535c-1.052,0.301-1.989,1.663-1.986,1.667
			c-0.013,0.011,1.548,0.872,2.636,0.508C78.324,141.215,78.685,140.508,78.498,139.93z"/>
		<path d="M78.899,139.085c0.565-0.228,0.807-0.977,0.563-1.976c-0.246-0.989-1.342-1.701-1.342-1.711
			c0.005,0-0.862,1.428-0.646,2.471C77.695,138.912,78.348,139.313,78.899,139.085z"/>
		<path d="M68.752,129.054c-0.333,1.028,0.03,1.717,0.626,1.809c0.608,0.097,1.195-0.425,1.486-1.421
			c0.286-0.985-0.312-2.191-0.305-2.202C70.564,127.243,69.088,128.028,68.752,129.054z"/>
		<path d="M68.601,131.384c0.128-0.606-0.313-1.173-1.385-1.465c-1.07-0.299-2.572,0.389-2.574,0.393
			c-0.013,0.005,0.913,1.59,2.044,1.841C67.802,132.407,68.473,131.982,68.601,131.384z"/>
		<path d="M67.709,128.982c0.554-0.303,0.732-1.021,0.311-1.954c-0.418-0.915-1.865-1.632-1.869-1.648
			c-0.004-0.015-0.686,1.523-0.208,2.576C66.411,128.998,67.159,129.282,67.709,128.982z"/>
		<path d="M81.854,140.262c0.532-0.301,0.671-1.072,0.292-2.034c-0.379-0.948-1.563-1.509-1.563-1.519
			c0.005,0-0.666,1.528-0.311,2.534C80.632,140.249,81.333,140.563,81.854,140.262z"/>
		<path d="M70.643,134.021c0.048-0.616-0.46-1.112-1.557-1.25c-1.093-0.141-2.49,0.746-2.489,0.754
			c-0.012,0.003,1.105,1.426,2.252,1.516C69.987,135.14,70.594,134.627,70.643,134.021z"/>
		<path d="M72.996,135.453c0.174,0.145,0.39,0.205,0.615,0.179c0.603-0.072,1.033-0.73,1.06-1.76c0.021-1.021-0.855-2-0.852-2.009
			c-0.001,0-0.003-0.005-0.003-0.005c0.004,0.004-1.206,1.154-1.267,2.218C72.51,134.741,72.703,135.214,72.996,135.453z"/>
		<path d="M70.491,131.711c-0.198,1.053,0.251,1.684,0.853,1.688c0.611,0.012,1.124-0.584,1.283-1.605
			c0.156-1.009-0.586-2.105-0.584-2.117C72.048,129.681,70.693,130.656,70.491,131.711z"/>
		<path d="M81.566,141.153c-0.271-0.555-0.958-0.723-1.962-0.281c-1.01,0.438-1.755,1.912-1.752,1.915
			c-0.012,0.01,1.655,0.661,2.688,0.158C81.567,142.451,81.831,141.702,81.566,141.153z"/>
		<path d="M111.443,140.872c-1.003-0.441-1.691-0.273-1.962,0.281c-0.264,0.549,0,1.298,1.026,1.792
			c1.033,0.503,2.699-0.148,2.688-0.158C113.199,142.784,112.453,141.311,111.443,140.872z"/>
		<path d="M121.669,130.862c0.599-0.092,0.961-0.78,0.628-1.809c-0.336-1.025-1.812-1.811-1.808-1.814
			c0.008,0.011-0.59,1.217-0.307,2.202C120.477,130.438,121.063,130.959,121.669,130.862z"/>
		<path d="M113.574,137.869c0.216-1.043-0.651-2.471-0.646-2.471c0,0.01-1.097,0.722-1.342,1.711
			c-0.243,0.999-0.003,1.748,0.563,1.976C112.7,139.313,113.353,138.912,113.574,137.869z"/>
		<path d="M108.253,141.941c-0.943-0.568-1.655-0.493-2.001,0.019c-0.339,0.508-0.18,1.288,0.78,1.912
			c0.966,0.638,2.716,0.213,2.706,0.202C109.743,144.069,109.195,142.509,108.253,141.941z"/>
		<path d="M104.261,142.178c-0.247,0.023-0.491,0.043-0.739,0.061c-0.525,0.032-0.595-0.38-0.595-0.38s0.035-0.407,0.539-0.44
			c0.239-0.015,0.479-0.034,0.715-0.057c0.287-0.029,0.537-0.444,0.714-0.892c0.369-0.908,0.19-2.166,0.194-2.167
			c-0.004,0.01-1.319,0.239-1.956,1.053c-0.108,0.142-0.199,0.282-0.275,0.42c-0.571,0.836-1.236,1.719-2.458,1.649
			c-0.171-0.011-0.345-0.023-0.515-0.036c-0.517-0.046-0.616,0.351-0.613,0.352c-0.003-0.001,0.008,0.419,0.544,0.466
			c0.179,0.015,0.354,0.027,0.532,0.039c1.244,0.07,1.925,0.91,2.693,1.695c0.104,0.129,0.229,0.259,0.381,0.388
			c0.884,0.765,2.694,0.575,2.688,0.561c0.003-0.001-0.254-1.24-0.896-2.01C104.897,142.493,104.554,142.148,104.261,142.178z"/>
		<path d="M114.454,139.395c-1.054-0.304-1.712-0.049-1.903,0.535c-0.188,0.578,0.173,1.285,1.253,1.64
			c1.088,0.364,2.65-0.497,2.636-0.508C116.444,141.058,115.506,139.695,114.454,139.395z"/>
		<path d="M107.807,140.239c0.489-0.951,0.028-2.558,0.034-2.556c-0.001,0.008-1.26,0.409-1.768,1.3
			c-0.509,0.901-0.477,1.688,0.014,2.057C106.566,141.406,107.312,141.187,107.807,140.239z"/>
		<path d="M110.777,139.243c0.354-1.006-0.316-2.534-0.312-2.534c-0.001,0.01-1.183,0.57-1.563,1.519
			c-0.38,0.962-0.24,1.733,0.292,2.034C109.716,140.563,110.417,140.249,110.777,139.243z"/>
		<path d="M114.909,137.533c0.579,0.154,1.169-0.33,1.25-1.395c0.079-1.062-0.969-2.362-0.965-2.364
			c0.001,0.011-0.99,0.861-1.105,1.874C113.982,136.672,114.321,137.381,114.909,137.533z"/>
		<path d="M123.833,129.919c-1.071,0.292-1.513,0.858-1.386,1.465c0.128,0.599,0.799,1.023,1.915,0.769
			c1.132-0.251,2.059-1.836,2.045-1.841C126.406,130.308,124.904,129.62,123.833,129.919z"/>
		<path d="M121.962,132.771c-1.096,0.138-1.605,0.634-1.556,1.25c0.05,0.605,0.656,1.118,1.793,1.02
			c1.148-0.09,2.265-1.513,2.252-1.516C124.453,133.518,123.056,132.631,121.962,132.771z"/>
		<path d="M117.23,131.863c0.003,0.009-0.874,0.988-0.854,2.009c0.027,1.029,0.457,1.688,1.061,1.76
			c0.225,0.026,0.44-0.034,0.614-0.179c0.294-0.239,0.487-0.712,0.448-1.377c-0.061-1.063-1.273-2.214-1.267-2.218L117.23,131.863z"
			/>
		<path d="M118.314,135.74c-0.163,0.166-0.255,0.368-0.267,0.599c-0.029,0.606,0.505,1.196,1.642,1.253
			c1.146,0.068,2.434-1.181,2.42-1.188l0.003-0.002c0.004-0.007-1.262-1.073-2.359-1.083
			C119.063,135.31,118.585,135.469,118.314,135.74z"/>
		<path d="M117.235,137.535c-1.085-0.162-1.701,0.177-1.816,0.781c-0.107,0.597,0.345,1.249,1.459,1.459
			c1.129,0.219,2.561-0.845,2.549-0.851C119.43,138.92,118.321,137.695,117.235,137.535z"/>
		<path d="M125.105,127.956c0.479-1.053-0.201-2.591-0.209-2.576c-0.004,0.017-1.45,0.733-1.867,1.648
			c-0.422,0.934-0.243,1.651,0.311,1.954C123.89,129.282,124.639,128.998,125.105,127.956z"/>
		<path d="M119.008,129.677c0.002,0.012-0.74,1.108-0.586,2.117c0.161,1.021,0.673,1.617,1.283,1.605
			c0.602-0.005,1.051-0.636,0.854-1.688C120.356,130.656,119.002,129.681,119.008,129.677z"/>
	</g>
</g>
</svg>
