<?xml version="1.0" encoding="utf-8"?>
<!-- Generator: Adobe Illustrator 16.0.3, SVG Export Plug-In . SVG Version: 6.00 Build 0)  -->
<!DOCTYPE svg PUBLIC "-//W3C//DTD SVG 1.1//EN" "http://www.w3.org/Graphics/SVG/1.1/DTD/svg11.dtd">
<svg version="1.1" id="Layer_1" xmlns="http://www.w3.org/2000/svg" xmlns:xlink="http://www.w3.org/1999/xlink" x="0px" y="0px"
	 width="110px" height="110px" viewBox="0 0 110 110" enable-background="new 0 0 110 110" xml:space="preserve">
<g id="makeup">
	<g id="Makeup_Artistry_1_">
		<path fill="#010101" d="M55,0.527C24.916,0.527,0.527,24.916,0.527,55c0,30.085,24.388,54.473,54.473,54.473
			S109.473,85.085,109.473,55C109.473,24.916,85.085,0.527,55,0.527z M100.314,44.319l-4.355,0.992l0.469,2.061l-0.789,0.18
			l-0.688-3.018l5.146-1.172L100.314,44.319z M98.855,39.382l-4.231,3.775l-0.265-0.712c-0.028-0.08-0.032-0.153-0.012-0.219
			s0.057-0.122,0.107-0.167l0.874-0.743l-0.759-2.051l-1.146,0.003c-0.061,0.001-0.119-0.017-0.184-0.055
			c-0.063-0.037-0.109-0.095-0.139-0.173l-0.265-0.715l5.669,0.115L98.855,39.382z M94.699,30.612l0.249,0.451
			c0.021,0.039,0.036,0.071,0.048,0.099c0.012,0.027,0.018,0.054,0.02,0.079c0.002,0.025-0.002,0.053-0.01,0.082
			c-0.008,0.029-0.02,0.064-0.035,0.104l-1.752,4.132c0.069-0.05,0.139-0.096,0.209-0.139c0.069-0.042,0.135-0.081,0.197-0.115
			l2.809-1.551l0.418,0.757l-4.621,2.551l-0.244-0.444c-0.037-0.068-0.059-0.131-0.063-0.188c-0.003-0.056,0.012-0.121,0.043-0.194
			l1.744-4.115c-0.064,0.044-0.131,0.086-0.195,0.126s-0.125,0.076-0.182,0.106l-2.837,1.567l-0.418-0.757L94.699,30.612z
			 M89.997,25.356c0.334,0.038,0.655,0.145,0.966,0.322c0.309,0.177,0.586,0.423,0.83,0.738c0.246,0.315,0.415,0.644,0.51,0.987
			c0.096,0.343,0.118,0.68,0.073,1.012c-0.046,0.332-0.159,0.649-0.341,0.954c-0.182,0.305-0.424,0.575-0.729,0.813
			c-0.308,0.238-0.63,0.407-0.969,0.508s-0.676,0.133-1.01,0.097c-0.333-0.037-0.654-0.143-0.963-0.319
			c-0.309-0.176-0.586-0.422-0.83-0.737c-0.245-0.315-0.416-0.644-0.512-0.987c-0.097-0.343-0.121-0.682-0.075-1.015
			s0.159-0.652,0.341-0.957c0.182-0.304,0.424-0.575,0.729-0.813c0.306-0.238,0.627-0.407,0.967-0.508
			C89.326,25.351,89.662,25.319,89.997,25.356z M88.417,22.616l-3.752,3.713l-0.692-0.701l3.752-3.713L88.417,22.616z
			 M82.445,18.364l0.513-0.623l3.214,2.649l-0.513,0.623l-1.226-1.01l-2.845,3.45l-0.758-0.625l2.844-3.45L82.445,18.364z
			 M80.346,15.964l-1.082,5.566l-0.642-0.408c-0.072-0.046-0.119-0.101-0.144-0.167c-0.022-0.065-0.027-0.131-0.015-0.198
			l0.245-1.12l-1.845-1.173l-0.911,0.697c-0.046,0.037-0.105,0.06-0.18,0.068c-0.073,0.008-0.145-0.01-0.215-0.054l-0.644-0.409
			l4.582-3.341L80.346,15.964z M71.734,11.499l0.472,0.208c0.039,0.018,0.071,0.034,0.099,0.049
			c0.023,0.015,0.045,0.032,0.063,0.052s0.031,0.043,0.043,0.071c0.012,0.028,0.021,0.063,0.033,0.104l1.104,4.349
			c0.025-0.082,0.054-0.161,0.082-0.237c0.03-0.076,0.06-0.146,0.088-0.211l1.3-2.934l0.791,0.35l-2.137,4.827l-0.465-0.206
			c-0.07-0.031-0.125-0.069-0.162-0.112c-0.036-0.042-0.064-0.103-0.083-0.181l-1.103-4.331c-0.023,0.074-0.051,0.147-0.078,0.218
			c-0.027,0.072-0.055,0.137-0.079,0.195l-1.312,2.964l-0.791-0.35L71.734,11.499z M65.65,9.635l1.552,0.431
			c0.347,0.096,0.635,0.214,0.862,0.354c0.227,0.14,0.401,0.297,0.523,0.47c0.123,0.173,0.196,0.359,0.221,0.559
			c0.023,0.2,0.006,0.408-0.055,0.624c-0.047,0.171-0.117,0.326-0.21,0.464c-0.093,0.138-0.203,0.257-0.333,0.354
			c-0.129,0.098-0.277,0.174-0.441,0.229c-0.166,0.055-0.347,0.086-0.539,0.093c0.101,0.101,0.177,0.227,0.229,0.378l0.752,2.231
			l-0.852-0.236c-0.082-0.023-0.147-0.059-0.195-0.107s-0.084-0.109-0.107-0.181l-0.617-1.925c-0.021-0.072-0.055-0.127-0.096-0.167
			c-0.041-0.039-0.107-0.072-0.201-0.098l-0.404-0.112l-0.553,1.987l-0.944-0.263L65.65,9.635z M59.979,8.675l3.295,0.468
			l-0.109,0.773l-2.316-0.329l-0.205,1.449l1.824,0.259l-0.105,0.748l-1.824-0.259l-0.211,1.478l2.316,0.329l-0.11,0.777
			L59.236,13.9L59.979,8.675z M53.671,8.398l4.165,0.075L57.82,9.279l-1.588-0.028l-0.078,4.471l-0.982-0.017l0.08-4.471
			l-1.595-0.028L53.671,8.398z M47.558,8.974c0.043-0.005,0.08-0.008,0.109-0.008s0.056,0.004,0.081,0.012
			c0.024,0.008,0.048,0.021,0.072,0.039s0.052,0.042,0.083,0.073l3.174,3.172c-0.02-0.083-0.037-0.166-0.05-0.246
			c-0.014-0.081-0.024-0.156-0.033-0.226l-0.385-3.186L51.468,8.5l0.633,5.24l-0.504,0.061c-0.077,0.009-0.143,0.005-0.196-0.013
			c-0.054-0.018-0.108-0.056-0.164-0.112l-3.162-3.158c0.017,0.076,0.031,0.152,0.044,0.228c0.013,0.076,0.023,0.145,0.031,0.208
			l0.389,3.218l-0.859,0.104l-0.633-5.24L47.558,8.974z M44.426,9.61l1.236,5.131l-0.958,0.23L43.468,9.84L44.426,9.61z
			 M36.183,12.34c0.366-0.159,0.726-0.244,1.079-0.255c0.354-0.011,0.683,0.043,0.99,0.164c0.307,0.12,0.584,0.303,0.831,0.548
			s0.448,0.545,0.602,0.9c0.154,0.354,0.237,0.707,0.247,1.055c0.011,0.348-0.045,0.676-0.166,0.983s-0.307,0.585-0.557,0.834
			s-0.558,0.453-0.924,0.612l-1.849,0.802l-2.102-4.842L36.183,12.34z M32.184,14.291l0.406,0.667l-1.998,1.217l0.761,1.25
			l1.574-0.959l0.393,0.645l-1.574,0.959l0.777,1.275l1.998-1.217l0.409,0.67l-2.843,1.732l-2.746-4.508L32.184,14.291z
			 M27.212,17.534l3.181,4.212l-0.787,0.594l-3.181-4.212L27.212,17.534z M24.608,19.562l0.53,0.574l-1.719,1.587l1.06,1.148
			l1.451-1.34l0.532,0.577l-1.452,1.34l1.458,1.58l-0.727,0.671l-3.58-3.879L24.608,19.562z M20.373,23.714l3.943,3.508
			l-0.655,0.737l-3.944-3.509L20.373,23.714z M18.291,26.099l0.654,0.473l-0.93,1.287l3.625,2.619l-0.575,0.796l-3.625-2.619
			l-0.934,1.293l-0.654-0.473L18.291,26.099z M13.831,32.951c0.172-0.316,0.353-0.569,0.541-0.759s0.38-0.325,0.577-0.405
			c0.196-0.08,0.394-0.109,0.594-0.087c0.2,0.022,0.398,0.086,0.595,0.193c0.156,0.085,0.291,0.189,0.405,0.31
			c0.114,0.122,0.204,0.257,0.27,0.405s0.107,0.31,0.124,0.483c0.016,0.174,0.005,0.356-0.032,0.546
			c0.121-0.075,0.261-0.121,0.419-0.137l2.344-0.226l-0.423,0.775c-0.041,0.075-0.09,0.13-0.149,0.167
			c-0.059,0.036-0.125,0.057-0.201,0.063l-2.015,0.165c-0.076,0.006-0.137,0.024-0.184,0.055c-0.047,0.031-0.095,0.089-0.141,0.175
			l-0.201,0.369l1.811,0.988l-0.471,0.862l-4.633-2.528L13.831,32.951z M12.039,36.57l0.728,0.282l-0.846,2.182l1.365,0.529
			l0.667-1.719l0.705,0.273l-0.667,1.719l1.392,0.54l0.846-2.182l0.731,0.284l-1.203,3.104l-4.921-1.908L12.039,36.57z
			 M9.567,44.659c-0.05-0.354-0.028-0.727,0.066-1.117c0.092-0.38,0.234-0.699,0.425-0.954c0.191-0.256,0.412-0.46,0.662-0.615
			l0.366,0.427c0.024,0.026,0.043,0.056,0.057,0.091c0.014,0.035,0.015,0.078,0.002,0.13c-0.013,0.055-0.048,0.105-0.104,0.151
			c-0.057,0.047-0.12,0.108-0.191,0.183c-0.071,0.076-0.144,0.175-0.219,0.298c-0.075,0.123-0.138,0.288-0.188,0.493
			c-0.059,0.241-0.07,0.473-0.036,0.696c0.035,0.222,0.113,0.425,0.233,0.609c0.121,0.183,0.283,0.343,0.486,0.479
			c0.204,0.136,0.445,0.238,0.724,0.306c0.288,0.07,0.555,0.092,0.799,0.065c0.245-0.027,0.461-0.092,0.648-0.194
			c0.188-0.103,0.345-0.238,0.473-0.407c0.127-0.169,0.218-0.363,0.271-0.581c0.032-0.13,0.053-0.25,0.064-0.358
			c0.011-0.109,0.012-0.211,0.003-0.308c-0.009-0.096-0.029-0.188-0.058-0.28c-0.029-0.091-0.07-0.184-0.122-0.28
			c-0.016-0.029-0.026-0.058-0.033-0.087c-0.007-0.029-0.006-0.059,0.001-0.09c0.012-0.052,0.043-0.092,0.093-0.12l0.499-0.276
			c0.208,0.271,0.342,0.574,0.406,0.912c0.063,0.337,0.043,0.719-0.06,1.144c-0.092,0.381-0.241,0.708-0.444,0.979
			c-0.204,0.272-0.448,0.488-0.732,0.646c-0.284,0.159-0.601,0.257-0.95,0.293c-0.35,0.037-0.715,0.008-1.096-0.084
			c-0.385-0.094-0.723-0.243-1.012-0.449c-0.29-0.205-0.522-0.452-0.698-0.74C9.73,45.334,9.618,45.013,9.567,44.659z
			 M10.041,59.277c0-0.756,0.613-1.369,1.37-1.369c0.757,0,1.37,0.613,1.37,1.369c0,0.758-0.613,1.371-1.37,1.371
			C10.654,60.648,10.041,60.035,10.041,59.277z M13.851,76.374l3.09-1.44c0.058-0.025,0.122-0.054,0.191-0.082
			c0.07-0.028,0.142-0.057,0.216-0.082l-3.387-0.184c-0.077-0.004-0.145-0.023-0.204-0.063c-0.059-0.037-0.104-0.09-0.138-0.162
			l-0.057-0.12c-0.033-0.071-0.045-0.142-0.035-0.21c0.01-0.069,0.037-0.135,0.084-0.195l2.04-2.734
			c-0.068,0.043-0.137,0.082-0.205,0.117c-0.068,0.036-0.132,0.067-0.191,0.096l-3.09,1.438L11.8,71.969l4.785-2.228l0.313,0.671
			c0.018,0.04,0.033,0.074,0.044,0.104c0.011,0.03,0.018,0.059,0.02,0.086s-0.002,0.056-0.013,0.084
			c-0.011,0.029-0.028,0.062-0.053,0.094l-1.992,2.666c-0.053,0.07-0.11,0.141-0.171,0.207c-0.061,0.067-0.123,0.135-0.186,0.201
			c0.094-0.006,0.187-0.011,0.28-0.014c0.093-0.003,0.183-0.002,0.271,0.003l3.31,0.183c0.041,0.002,0.076,0.009,0.104,0.018
			c0.029,0.01,0.053,0.023,0.073,0.043s0.037,0.043,0.053,0.07c0.015,0.027,0.032,0.062,0.051,0.101l0.313,0.672l-4.785,2.229
			L13.851,76.374z M17.75,82.596c-0.048-0.07-0.07-0.141-0.065-0.21s0.026-0.133,0.064-0.188l0.667-0.933l-1.233-1.808l-1.112,0.282
			c-0.057,0.015-0.121,0.012-0.191-0.01c-0.07-0.021-0.129-0.065-0.175-0.135l-0.43-0.63l5.528-1.263l0.566,0.83l-3.191,4.687
			L17.75,82.596z M23.261,84.613c-0.069-0.008-0.134-0.021-0.195-0.045c0.033,0.078,0.051,0.16,0.055,0.244
			s-0.004,0.176-0.024,0.275l-0.585,3.021l-0.586-0.643c-0.079-0.086-0.125-0.162-0.14-0.226c-0.014-0.064-0.011-0.134,0.009-0.204
			l0.43-2.417c0.014-0.079,0.01-0.149-0.01-0.214c-0.021-0.063-0.069-0.137-0.145-0.219l-0.21-0.228l-1.712,1.567l-0.663-0.726
			l3.896-3.565l0.664,0.725l-1.634,1.496l0.155,0.17c0.063,0.066,0.124,0.115,0.184,0.143c0.06,0.028,0.125,0.041,0.196,0.035
			l2.343-0.171c0.099-0.009,0.182,0.002,0.249,0.031c0.068,0.028,0.136,0.081,0.205,0.155l0.572,0.625l-2.818,0.171
			C23.407,84.62,23.329,84.62,23.261,84.613z M27.646,89.54l-1.411-1.187l-0.96,1.144l1.791,1.506l-0.505,0.601l-2.548-2.142
			l3.396-4.041l2.549,2.142l-0.502,0.6l-1.792-1.505l-0.941,1.12l1.411,1.186L27.646,89.54z M32.574,94.152
			c-0.228,0.172-0.474,0.287-0.738,0.35s-0.539,0.066-0.825,0.014c-0.286-0.054-0.572-0.172-0.857-0.353
			c-0.286-0.183-0.514-0.392-0.684-0.627c-0.17-0.235-0.283-0.486-0.338-0.751c-0.055-0.264-0.054-0.535,0.003-0.815
			c0.057-0.278,0.17-0.551,0.338-0.814l1.694-2.669l0.829,0.525l-1.692,2.666c-0.108,0.17-0.183,0.34-0.224,0.506
			c-0.042,0.168-0.049,0.327-0.025,0.479c0.024,0.151,0.083,0.295,0.175,0.429c0.092,0.135,0.219,0.251,0.379,0.354
			c0.16,0.103,0.321,0.166,0.481,0.191c0.16,0.027,0.315,0.021,0.463-0.021c0.148-0.042,0.29-0.116,0.423-0.226
			c0.133-0.107,0.254-0.246,0.363-0.418l1.694-2.668l0.829,0.525l-1.694,2.67C33,93.766,32.802,93.982,32.574,94.152z
			 M39.165,94.734c-0.106,0.231-0.242,0.428-0.407,0.586c-0.166,0.158-0.357,0.272-0.576,0.343
			c-0.219,0.069-0.462,0.089-0.729,0.062c-0.268-0.029-0.558-0.113-0.87-0.256l-0.671-0.306l-0.769,1.692l-0.894-0.407l2.185-4.806
			l1.565,0.711c0.321,0.146,0.582,0.312,0.783,0.492c0.2,0.184,0.346,0.377,0.438,0.581c0.092,0.204,0.131,0.417,0.119,0.64
			C39.324,94.288,39.267,94.51,39.165,94.734z M46.772,96.959c-0.061,0.248-0.158,0.466-0.291,0.652
			c-0.133,0.186-0.3,0.334-0.502,0.443c-0.202,0.107-0.438,0.174-0.706,0.194c-0.269,0.022-0.569-0.007-0.903-0.088l-0.716-0.175
			l-0.44,1.805l-0.954-0.232l1.25-5.127l1.67,0.406c0.342,0.084,0.629,0.196,0.861,0.338c0.231,0.141,0.41,0.305,0.538,0.488
			s0.207,0.385,0.236,0.605C46.845,96.491,46.831,96.721,46.772,96.959z M51.346,101.166c-0.085-0.01-0.155-0.034-0.21-0.074
			c-0.056-0.04-0.102-0.094-0.136-0.16l-0.923-1.799c-0.035-0.068-0.075-0.117-0.122-0.15c-0.046-0.03-0.119-0.053-0.215-0.063
			l-0.417-0.045l-0.219,2.051l-0.977-0.104l0.562-5.248l1.6,0.171c0.358,0.038,0.661,0.108,0.908,0.208
			c0.248,0.104,0.446,0.229,0.595,0.378c0.149,0.151,0.252,0.323,0.309,0.517c0.057,0.194,0.073,0.4,0.048,0.623
			c-0.018,0.178-0.062,0.342-0.131,0.493s-0.159,0.286-0.271,0.404c-0.112,0.118-0.245,0.217-0.399,0.299
			c-0.154,0.081-0.327,0.142-0.517,0.181c0.116,0.082,0.211,0.194,0.287,0.334l1.106,2.079L51.346,101.166z M58.957,99.604
			c-0.117,0.334-0.288,0.625-0.514,0.875c-0.227,0.248-0.5,0.444-0.823,0.592c-0.323,0.146-0.685,0.227-1.084,0.24
			c-0.397,0.014-0.765-0.041-1.099-0.166c-0.334-0.123-0.623-0.302-0.866-0.533c-0.243-0.232-0.435-0.512-0.575-0.836
			c-0.14-0.325-0.217-0.683-0.23-1.068c-0.014-0.387,0.039-0.747,0.156-1.081c0.117-0.334,0.29-0.626,0.516-0.874
			c0.226-0.249,0.502-0.445,0.827-0.593c0.325-0.147,0.687-0.228,1.086-0.24c0.396-0.014,0.764,0.041,1.097,0.167
			c0.334,0.124,0.62,0.303,0.862,0.534c0.241,0.231,0.434,0.51,0.572,0.836c0.141,0.323,0.217,0.68,0.23,1.065
			C59.126,98.908,59.075,99.27,58.957,99.604z M62.391,100.68l-0.975,0.17l-0.908-5.199l3.279-0.571l0.135,0.771l-2.306,0.4
			l0.271,1.54l1.944-0.34l0.135,0.772l-1.944,0.34L62.391,100.68z M55.064,87.428c-6.206,0-12.251-1.755-17.481-5.076
			c-0.723-0.457-1.425-0.941-2.086-1.438c-2.896-2.169-5.4-4.784-7.446-7.773c-0.951-1.391-1.799-2.863-2.522-4.377
			c-2.105-4.408-3.173-9.134-3.173-14.045c0-18.035,14.673-32.708,32.708-32.708c18.036,0,32.709,14.673,32.709,32.708
			c0,8.264-3.104,16.158-8.739,22.23c-0.603,0.648-1.231,1.273-1.872,1.863c-3.069,2.816-6.589,4.996-10.461,6.474
			c-0.754,0.288-1.528,0.552-2.303,0.782C61.375,86.971,58.234,87.428,55.064,87.428z M66.801,99.762l-1.525-5.053l3.187-0.963
			l0.226,0.748l-2.238,0.676l0.423,1.402l1.767-0.533l0.217,0.725l-1.765,0.532l0.433,1.429l2.24-0.677L69.99,98.8L66.801,99.762z
			 M74.379,96.521c-0.082,0.205-0.209,0.394-0.381,0.565s-0.393,0.315-0.658,0.435c-0.154,0.066-0.313,0.117-0.476,0.152
			c-0.162,0.035-0.324,0.055-0.485,0.061c-0.162,0.004-0.318-0.008-0.473-0.033c-0.154-0.026-0.299-0.066-0.434-0.121l0.071-0.545
			c0.011-0.042,0.029-0.082,0.056-0.117c0.023-0.037,0.059-0.064,0.101-0.082c0.056-0.023,0.127-0.027,0.211-0.012
			c0.085,0.018,0.183,0.035,0.296,0.053c0.111,0.018,0.238,0.021,0.377,0.016c0.141-0.006,0.293-0.045,0.46-0.119
			c0.257-0.11,0.429-0.26,0.517-0.441c0.088-0.184,0.08-0.389-0.019-0.615c-0.056-0.128-0.134-0.218-0.231-0.27
			c-0.099-0.053-0.211-0.083-0.342-0.092c-0.128-0.011-0.268-0.004-0.418,0.018s-0.305,0.038-0.462,0.054
			c-0.157,0.017-0.317,0.022-0.479,0.021c-0.16-0.006-0.315-0.034-0.465-0.088c-0.147-0.055-0.287-0.145-0.416-0.268
			s-0.242-0.295-0.338-0.515c-0.078-0.177-0.117-0.364-0.121-0.562c-0.002-0.199,0.035-0.392,0.112-0.58
			c0.079-0.188,0.199-0.363,0.36-0.527c0.162-0.164,0.369-0.301,0.622-0.411c0.284-0.125,0.567-0.195,0.848-0.212
			c0.279-0.016,0.539,0.02,0.779,0.105l-0.035,0.521c-0.003,0.06-0.017,0.106-0.04,0.141s-0.059,0.063-0.104,0.081
			c-0.045,0.02-0.103,0.023-0.172,0.014c-0.072-0.01-0.154-0.02-0.248-0.028c-0.095-0.009-0.201-0.009-0.316,0.002
			c-0.116,0.01-0.243,0.045-0.383,0.104c-0.125,0.055-0.228,0.117-0.307,0.188c-0.078,0.068-0.139,0.146-0.179,0.227
			c-0.04,0.082-0.06,0.168-0.06,0.256c0.002,0.088,0.022,0.178,0.063,0.267c0.049,0.114,0.122,0.194,0.219,0.243
			c0.098,0.048,0.211,0.074,0.338,0.082c0.129,0.009,0.27,0.005,0.42-0.012c0.153-0.017,0.31-0.031,0.471-0.045
			c0.16-0.012,0.32-0.017,0.482-0.012c0.161,0.006,0.315,0.033,0.463,0.085c0.146,0.052,0.282,0.133,0.407,0.246
			c0.125,0.112,0.231,0.269,0.319,0.47c0.096,0.219,0.146,0.438,0.156,0.662C74.497,96.104,74.461,96.318,74.379,96.521z
			 M78.984,94.023c-0.06,0.211-0.164,0.412-0.313,0.604c-0.151,0.191-0.354,0.359-0.604,0.507c-0.146,0.085-0.297,0.153-0.455,0.207
			c-0.156,0.054-0.314,0.093-0.475,0.115c-0.16,0.021-0.318,0.028-0.474,0.021c-0.155-0.009-0.304-0.031-0.444-0.07l0.01-0.551
			c0.006-0.043,0.02-0.084,0.041-0.121c0.021-0.041,0.051-0.07,0.09-0.096c0.054-0.029,0.123-0.041,0.209-0.033
			s0.187,0.014,0.3,0.018c0.112,0.005,0.239-0.004,0.377-0.027c0.137-0.021,0.284-0.078,0.442-0.17
			c0.242-0.142,0.396-0.309,0.461-0.499c0.066-0.192,0.037-0.396-0.088-0.61c-0.069-0.119-0.156-0.199-0.261-0.24
			c-0.104-0.04-0.221-0.059-0.35-0.053c-0.13,0.007-0.267,0.028-0.414,0.065c-0.147,0.038-0.298,0.074-0.452,0.106
			c-0.156,0.035-0.313,0.059-0.475,0.074c-0.159,0.015-0.316,0.002-0.471-0.035c-0.154-0.036-0.303-0.108-0.445-0.217
			c-0.144-0.105-0.273-0.265-0.396-0.473c-0.096-0.166-0.156-0.348-0.183-0.544s-0.011-0.392,0.046-0.589
			c0.056-0.195,0.154-0.385,0.297-0.564c0.143-0.182,0.333-0.342,0.57-0.479c0.27-0.156,0.541-0.259,0.818-0.308
			c0.274-0.049,0.537-0.043,0.785,0.017l0.025,0.521c0.003,0.062-0.006,0.108-0.024,0.146s-0.05,0.066-0.092,0.092
			c-0.042,0.023-0.099,0.035-0.171,0.033s-0.154-0.002-0.249,0s-0.2,0.014-0.313,0.037c-0.115,0.023-0.238,0.072-0.367,0.148
			c-0.119,0.067-0.213,0.142-0.283,0.221c-0.07,0.08-0.121,0.162-0.151,0.246c-0.03,0.086-0.04,0.174-0.028,0.261
			c0.012,0.088,0.041,0.174,0.09,0.258c0.063,0.106,0.146,0.179,0.246,0.216c0.102,0.037,0.217,0.053,0.346,0.044
			c0.128-0.007,0.267-0.026,0.416-0.061c0.15-0.033,0.304-0.065,0.461-0.097c0.158-0.031,0.316-0.055,0.479-0.067
			s0.317-0.004,0.471,0.03c0.152,0.033,0.297,0.1,0.435,0.196c0.138,0.099,0.261,0.241,0.37,0.431c0.12,0.207,0.197,0.42,0.23,0.642
			C79.055,93.596,79.042,93.811,78.984,94.023z M81.432,92.917l-3.08-4.287l0.801-0.573l3.078,4.286L81.432,92.917z M86.775,88.35
			c-0.151,0.321-0.375,0.616-0.67,0.887c-0.295,0.27-0.608,0.465-0.943,0.588c-0.334,0.123-0.67,0.174-1.006,0.154
			s-0.662-0.106-0.979-0.264c-0.317-0.156-0.606-0.378-0.868-0.664c-0.261-0.285-0.455-0.594-0.582-0.924s-0.186-0.663-0.175-1
			s0.093-0.666,0.245-0.988c0.152-0.32,0.375-0.617,0.67-0.887s0.609-0.464,0.944-0.585c0.334-0.121,0.668-0.172,1.003-0.151
			c0.334,0.02,0.659,0.106,0.979,0.264c0.316,0.156,0.605,0.378,0.866,0.662c0.263,0.287,0.456,0.595,0.583,0.925
			c0.127,0.331,0.186,0.664,0.176,0.999C87.007,87.7,86.927,88.027,86.775,88.35z M92.051,82.615
			c-0.049,0.061-0.099,0.103-0.148,0.127c-0.051,0.025-0.117,0.037-0.196,0.035l-4.47-0.047c0.065,0.045,0.13,0.088,0.19,0.134
			c0.063,0.045,0.118,0.087,0.169,0.127l2.527,2.026l-0.541,0.676l-4.118-3.303l0.322-0.4c0.026-0.034,0.052-0.063,0.073-0.082
			c0.021-0.021,0.041-0.036,0.064-0.047c0.023-0.012,0.051-0.021,0.079-0.023c0.03-0.004,0.065-0.006,0.11-0.006l4.486,0.046
			c-0.072-0.045-0.143-0.092-0.207-0.142c-0.066-0.047-0.127-0.094-0.183-0.139l-2.503-2.007l0.541-0.674l4.118,3.301L92.051,82.615
			z M95.758,76.76c-0.043,0.073-0.097,0.123-0.16,0.149c-0.064,0.024-0.132,0.032-0.197,0.022l-1.129-0.203l-1.103,1.889
			l0.731,0.884c0.039,0.045,0.063,0.104,0.074,0.176c0.01,0.072-0.004,0.146-0.047,0.218l-0.384,0.657l-3.515-4.45l0.507-0.867
			l5.604,0.869L95.758,76.76z M96.954,74.303l-4.861-2.056l0.382-0.904l4.115,1.739l0.823-1.946l0.747,0.315L96.954,74.303z
			 M98.549,60.648c-0.757,0-1.369-0.613-1.369-1.371c0-0.756,0.612-1.369,1.369-1.369c0.756,0,1.37,0.613,1.37,1.369
			C99.919,60.035,99.305,60.648,98.549,60.648z"/>
		<g>
			<path fill="#010101" d="M19.705,78.822l-1.807,0.455l0.948,1.389l1.088-1.52c0.048-0.068,0.106-0.146,0.173-0.235
				c0.068-0.089,0.144-0.183,0.227-0.28c-0.122,0.042-0.236,0.079-0.343,0.112C19.884,78.775,19.789,78.803,19.705,78.822z"/>
			<path fill="#010101" d="M57.615,97.207c-0.149-0.154-0.328-0.271-0.536-0.35c-0.209-0.078-0.442-0.113-0.699-0.104
				c-0.258,0.011-0.489,0.06-0.692,0.152c-0.204,0.092-0.375,0.221-0.515,0.386c-0.139,0.166-0.244,0.365-0.313,0.598
				c-0.07,0.232-0.1,0.493-0.09,0.783c0.01,0.289,0.057,0.547,0.144,0.773c0.085,0.229,0.204,0.419,0.354,0.572
				c0.15,0.155,0.332,0.271,0.541,0.35s0.443,0.111,0.701,0.104s0.488-0.059,0.69-0.15s0.373-0.221,0.511-0.385
				c0.139-0.164,0.241-0.363,0.311-0.597c0.068-0.231,0.099-0.493,0.088-0.782c-0.01-0.289-0.058-0.548-0.143-0.774
				C57.881,97.555,57.764,97.363,57.615,97.207z"/>
			<path fill="#010101" d="M16.034,33.006c-0.078-0.092-0.174-0.17-0.292-0.234c-0.235-0.128-0.458-0.149-0.668-0.063
				c-0.21,0.086-0.402,0.289-0.576,0.607l-0.301,0.551l1.538,0.839l0.294-0.538c0.088-0.163,0.146-0.315,0.171-0.458
				c0.025-0.143,0.023-0.272-0.005-0.39C16.164,33.202,16.111,33.098,16.034,33.006z"/>
			<path fill="#010101" d="M38.085,93.3c-0.104-0.095-0.238-0.179-0.402-0.254l-0.671-0.305l-0.784,1.725l0.671,0.306
				c0.164,0.074,0.316,0.119,0.457,0.134s0.268,0.002,0.383-0.039c0.114-0.04,0.216-0.105,0.306-0.197
				c0.09-0.091,0.166-0.204,0.227-0.34c0.059-0.129,0.091-0.255,0.099-0.377c0.007-0.121-0.012-0.237-0.059-0.347
				C38.265,93.495,38.189,93.395,38.085,93.3z"/>
			<path fill="#010101" d="M45.723,96.008c-0.066-0.099-0.159-0.185-0.279-0.258c-0.12-0.073-0.268-0.131-0.442-0.174L44.285,95.4
				l-0.449,1.842l0.716,0.175c0.175,0.043,0.333,0.06,0.474,0.046c0.141-0.012,0.264-0.048,0.369-0.109
				c0.104-0.061,0.193-0.145,0.264-0.25c0.071-0.107,0.125-0.232,0.16-0.377c0.033-0.138,0.042-0.267,0.027-0.388
				C45.83,96.217,45.789,96.105,45.723,96.008z"/>
			<path fill="#010101" d="M51.081,97.801c0.056-0.107,0.091-0.227,0.104-0.359c0.029-0.267-0.037-0.479-0.197-0.643
				c-0.16-0.16-0.421-0.262-0.781-0.3l-0.624-0.065l-0.187,1.741l0.61,0.064c0.184,0.021,0.347,0.015,0.488-0.017
				c0.141-0.031,0.261-0.084,0.358-0.156C50.949,97.996,51.026,97.906,51.081,97.801z"/>
			<path fill="#010101" d="M37.974,16.465c0.236-0.103,0.432-0.234,0.587-0.394c0.155-0.16,0.266-0.342,0.334-0.545
				c0.068-0.204,0.092-0.426,0.072-0.668c-0.02-0.242-0.087-0.496-0.203-0.762c-0.116-0.266-0.255-0.488-0.418-0.668
				c-0.163-0.18-0.342-0.313-0.537-0.403c-0.195-0.089-0.404-0.132-0.626-0.128c-0.223,0.004-0.452,0.057-0.688,0.16l-0.941,0.408
				l1.48,3.409L37.974,16.465z"/>
			<path fill="#010101" d="M91.512,76.614l1.187,1.436l0.848-1.452l-1.84-0.33c-0.082-0.016-0.179-0.033-0.287-0.056
				s-0.226-0.052-0.351-0.085c0.09,0.092,0.173,0.18,0.248,0.262C91.393,76.471,91.457,76.546,91.512,76.614z"/>
			<path fill="#010101" d="M79.27,17.092c0.019-0.082,0.041-0.176,0.066-0.285c0.027-0.108,0.061-0.224,0.098-0.347
				c-0.096,0.086-0.186,0.166-0.271,0.239c-0.085,0.072-0.162,0.134-0.231,0.185l-1.48,1.13l1.42,0.903L79.27,17.092z"/>
			<path fill="#010101" d="M67.001,12.544c0.146-0.008,0.271-0.039,0.379-0.094c0.106-0.055,0.197-0.13,0.269-0.227
				c0.072-0.096,0.127-0.208,0.162-0.337c0.072-0.258,0.043-0.479-0.09-0.665c-0.132-0.186-0.371-0.327-0.722-0.424l-0.604-0.168
				l-0.469,1.688l0.592,0.164C66.695,12.531,66.855,12.552,67.001,12.544z"/>
			<path fill="#010101" d="M97.316,39.628c0.063-0.054,0.138-0.116,0.226-0.187c0.087-0.069,0.183-0.142,0.287-0.217
				c-0.129,0.011-0.248,0.02-0.36,0.026c-0.111,0.006-0.211,0.008-0.297,0.007l-1.863,0.003l0.584,1.579L97.316,39.628z"/>
			<path fill="#010101" d="M87.872,28.586c0.06,0.215,0.168,0.425,0.327,0.628c0.158,0.204,0.333,0.36,0.527,0.47
				c0.192,0.11,0.396,0.173,0.61,0.188c0.214,0.016,0.437-0.017,0.664-0.098c0.229-0.081,0.457-0.21,0.687-0.388
				c0.229-0.178,0.41-0.368,0.543-0.569c0.136-0.202,0.222-0.409,0.261-0.621c0.038-0.212,0.028-0.425-0.03-0.64
				c-0.061-0.215-0.168-0.424-0.327-0.627c-0.157-0.203-0.335-0.361-0.528-0.472s-0.398-0.174-0.614-0.189
				c-0.216-0.016-0.438,0.016-0.668,0.096c-0.229,0.08-0.458,0.208-0.687,0.386c-0.229,0.178-0.41,0.368-0.544,0.571
				c-0.134,0.202-0.219,0.41-0.256,0.622C87.8,28.156,87.813,28.37,87.872,28.586z"/>
			<path fill="#010101" d="M85.516,86.121c-0.195-0.214-0.398-0.38-0.609-0.497c-0.213-0.119-0.426-0.188-0.641-0.211
				c-0.214-0.021-0.426,0.006-0.635,0.081c-0.21,0.076-0.408,0.201-0.6,0.376c-0.19,0.174-0.334,0.36-0.43,0.563
				c-0.096,0.202-0.143,0.412-0.142,0.629c0.002,0.215,0.052,0.436,0.149,0.656c0.098,0.223,0.244,0.44,0.438,0.654
				c0.195,0.214,0.399,0.38,0.611,0.497c0.213,0.116,0.427,0.187,0.641,0.205c0.216,0.021,0.427-0.009,0.638-0.085
				c0.211-0.075,0.41-0.201,0.602-0.376c0.189-0.175,0.333-0.361,0.427-0.563c0.095-0.201,0.142-0.408,0.14-0.624
				c0-0.214-0.051-0.432-0.148-0.653C85.857,86.553,85.711,86.335,85.516,86.121z"/>
		</g>
		<path fill="#010101" d="M64.846,65.016c2.486-1.158,4.891-2.764,7.147-4.771l0.104-0.094l-1.662-1.867l-0.105,0.093
			c-2.074,1.847-4.273,3.317-6.54,4.373l-0.127,0.06l1.056,2.268L64.846,65.016z"/>
		<path fill="#010101" d="M83.613,54.723l0.054-0.089l-0.125-0.137c-1.921-2.134-11.885-12.783-19.429-12.783
			c-3.801,0-7.219,2.464-8.604,3.612c-1.311-1.149-4.563-3.612-8.36-3.612c-7.846,0-18.564,11.517-19.772,12.843l-0.071,0.078
			l0.055,0.09c0.107,0.174,10.879,17.361,28.453,17.361c7.211,0,14.283-2.941,20.451-8.509
			C80.706,59.568,83.325,55.214,83.613,54.723z M47.15,44.215c3.717,0,7.035,3.282,7.173,3.421l0.368,0.378l1.575-0.001l0.361-0.344
			c0.15-0.141,3.745-3.454,7.484-3.454c5.121,0,12.197,6.198,15.388,9.27c-1.761-0.465-4.517-0.953-8.324-0.953
			c-1.558,0-3.28,0.17-5.129,0.507l0.086-0.1l-1.907-1.617l-0.092,0.105c-0.039,0.044-3.904,4.479-8.858,4.48h-0.079
			c-1.705-0.016-3.474-0.552-5.258-1.593l0.019-0.041l-0.126-0.06c-0.019-0.009-0.098-0.045-0.212-0.092
			c-2.119-1.308-3.487-2.871-3.5-2.886l-0.092-0.107l-1.898,1.626l0.058,0.068c-1.519-0.193-3.142-0.291-4.831-0.291
			c-2.809,0-5.662,0.552-7.709,1.066C34.846,50.502,41.982,44.215,47.15,44.215z M39.354,55.031c5.224,0,8.29,1.009,9.082,1.307
			c2.239,1.354,4.505,2.048,6.736,2.069l0.104,0.001c2.083,0,4.192-0.59,6.263-1.752c1.284-0.389,5.699-1.625,9.636-1.625
			c4.315,0,7.13,0.671,8.515,1.113c-3.186,4.17-11.646,13.441-23.877,13.441c-12.204,0-20.872-9.238-24.156-13.406
			C33.665,55.645,36.567,55.031,39.354,55.031z"/>
	</g>
</g>
</svg>
