<?xml version="1.0" encoding="utf-8"?>
<!-- Generator: Adobe Illustrator 16.0.3, SVG Export Plug-In . SVG Version: 6.00 Build 0)  -->
<!DOCTYPE svg PUBLIC "-//W3C//DTD SVG 1.1//EN" "http://www.w3.org/Graphics/SVG/1.1/DTD/svg11.dtd">
<svg version="1.1" id="Layer_1" xmlns="http://www.w3.org/2000/svg" xmlns:xlink="http://www.w3.org/1999/xlink" x="0px" y="0px"
	 width="190.525px" height="190.451px" viewBox="0 0 190.525 190.451" enable-background="new 0 0 190.525 190.451"
	 xml:space="preserve">
<g id="Layer_1_1_" display="none">
	<path display="inline" fill="#E2B862" d="M74.999,149.998c-20.033,0-38.867-7.801-53.032-21.966C7.801,113.865,0,95.032,0,74.999
		s7.801-38.867,21.967-53.032S54.966,0,74.999,0s38.867,7.801,53.032,21.967c14.164,14.166,21.966,32.999,21.966,53.032
		s-7.802,38.866-21.966,53.032C113.866,142.196,95.032,149.998,74.999,149.998z M74.999,0.89C34.135,0.89,0.89,34.135,0.89,74.999
		c0,40.863,33.245,74.109,74.109,74.109c40.862,0,74.106-33.246,74.106-74.109C149.106,34.135,115.862,0.89,74.999,0.89z"/>
	<path display="inline" fill="#E2B862" d="M74.999,147.826c-19.453,0-37.741-7.576-51.497-21.33
		C9.748,112.74,2.172,94.452,2.172,74.999s7.576-37.742,21.331-51.497S55.546,2.171,74.999,2.171s37.741,7.576,51.497,21.331
		c13.755,13.756,21.331,32.044,21.331,51.497s-7.576,37.741-21.331,51.497C112.74,140.25,94.452,147.826,74.999,147.826z
		 M74.999,3.062C35.333,3.062,3.062,35.333,3.062,75c0,39.666,32.271,71.937,71.938,71.937c39.667,0,71.938-32.271,71.938-71.937
		C146.937,35.333,114.666,3.062,74.999,3.062z"/>
	<path display="inline" fill="#E2B862" d="M76.138,131.511c-31.162,0-56.514-25.351-56.514-56.512s25.352-56.513,56.514-56.513
		c31.16,0,56.512,25.352,56.512,56.513S107.298,131.511,76.138,131.511z M76.138,19.376c-30.672,0-55.624,24.953-55.624,55.623
		s24.952,55.623,55.624,55.623c30.67,0,55.622-24.952,55.622-55.623S106.808,19.376,76.138,19.376z"/>
	<path display="inline" fill="#E2B862" d="M76.138,129.494c-30.05,0-54.496-24.446-54.496-54.495s24.446-54.495,54.496-54.495
		c30.049,0,54.494,24.447,54.494,54.495S106.187,129.494,76.138,129.494z M76.138,21.394c-29.559,0-53.604,24.047-53.604,53.605
		c0,29.559,24.047,53.605,53.604,53.605c29.557,0,53.604-24.047,53.604-53.605C129.742,45.441,105.694,21.394,76.138,21.394z"/>
	<g display="inline">
		<circle fill="none" cx="75.623" cy="74.999" r="60.701"/>
		<path fill="#E2B862" d="M34.715,120.385c-0.749-0.622-0.806-0.641-0.993-0.483c-0.237,0.197-0.726,0.715-1.674,1.714
			c-0.948,0.997-1.438,1.515-1.622,1.762c-0.147,0.194-0.127,0.252,0.535,0.967l-0.26,0.274l-2.339-2.219l0.261-0.273
			c0.749,0.623,0.806,0.643,0.993,0.482c0.236-0.196,0.726-0.713,1.674-1.713c0.947-0.998,1.438-1.515,1.622-1.762
			c0.146-0.195,0.127-0.252-0.535-0.967l0.26-0.273l2.338,2.217L34.715,120.385z"/>
		<path fill="#E2B862" d="M31.838,117.705c-0.617-0.606-0.673-0.63-0.873-0.49c-0.254,0.175-0.788,0.644-1.822,1.552
			s-1.567,1.377-1.773,1.606c-0.165,0.181-0.149,0.239,0.373,0.929l-0.284,0.25l-1.224-1.393c0.046-0.112,0.075-0.27,0.126-0.471
			l1.218-4.805l-0.013-0.014l-1.041,0.914c-1.033,0.906-1.567,1.377-1.773,1.605c-0.165,0.182-0.149,0.238,0.443,1.01l-0.283,0.25
			l-1.681-1.912l0.284-0.25c0.552,0.629,0.639,0.66,1.029,0.354c0.369-0.288,0.8-0.643,1.159-0.958
			c1.304-1.146,2.387-2.107,2.879-2.624l0.427,0.486c-0.278,0.747-0.457,1.334-0.642,2.132l-0.897,3.709l0.012,0.014l1.353-1.188
			c1.034-0.908,1.567-1.377,1.773-1.605c0.165-0.181,0.149-0.238-0.521-1.099l0.284-0.25l1.751,1.994L31.838,117.705z"/>
		<path fill="#E2B862" d="M26.472,111.301c-0.609-0.76-0.657-0.78-0.876-0.671c-0.158,0.088-0.426,0.254-0.854,0.553l-3.36,2.354
			l0.593,0.847c0.175,0.251,0.461,0.205,1.521-0.086l0.164,0.392c-0.333,0.136-0.777,0.379-1.469,0.818
			c-0.081-0.163-0.164-0.313-0.252-0.471c-0.083-0.15-0.179-0.305-0.276-0.443l-1.774-2.533c-0.217-0.312-0.447-0.578-0.677-0.813
			c0.649-0.499,1.032-0.832,1.272-1.1l0.312,0.287c-0.636,0.896-0.778,1.148-0.604,1.398l0.594,0.848l3.359-2.352
			c0.427-0.299,0.675-0.494,0.813-0.612c0.178-0.168,0.175-0.221-0.331-1.052l0.309-0.217l1.848,2.638L26.472,111.301z"/>
		<path fill="#E2B862" d="M23.576,107.125c-0.498-0.772-0.543-0.799-0.773-0.713c-0.285,0.116-0.907,0.46-2.112,1.125
			c-1.205,0.666-1.827,1.009-2.077,1.188c-0.194,0.147-0.196,0.199,0.191,1.032l-0.331,0.185l-1.796-3.252
			c-0.274-0.496-0.6-0.975-0.838-1.293c0.374-0.217,1.211-0.804,1.394-0.977l0.255,0.332c-0.868,0.811-0.87,1.046-0.205,2.25
			l0.431,0.78c0.061,0.108,0.134,0.131,0.244,0.069l1.771-0.979c0.103-0.059,0.128-0.104-0.011-0.354l-0.135-0.244
			c-0.522-0.944-0.687-0.926-1.285-0.707l-0.208-0.379c0.264-0.135,0.517-0.254,0.895-0.463c0.315-0.174,0.653-0.381,0.869-0.512
			l0.213,0.387c-0.537,0.369-0.608,0.554-0.234,1.229l0.331,0.6c0.057,0.104,0.118,0.141,0.229,0.078l1.977-1.091
			c0.109-0.062,0.132-0.134,0.07-0.245l-0.817-1.479c-0.382-0.692-0.656-0.778-1.264-0.668l-0.635,0.113l-0.12-0.457
			c0.482-0.134,1.275-0.429,1.622-0.6l2.684,4.857L23.576,107.125z"/>
		<path fill="#E2B862" d="M20.336,101.203c-0.407-0.826-0.452-0.865-0.688-0.798c-0.297,0.082-0.955,0.353-2.229,0.876
			c-1.274,0.522-1.934,0.793-2.202,0.942c-0.215,0.116-0.219,0.178,0.071,1.051l-0.351,0.144l-1.318-3.216
			c-0.273-0.667-0.322-1.045-0.237-1.479c0.085-0.436,0.361-0.781,0.861-0.986c1.208-0.496,1.991,0.799,2.066,0.768
			c0.042-0.018,0.081-0.063,0.155-0.189l1.207-2.11c0.307-0.534,0.347-0.648,0.176-1.064l0.35-0.145l0.585,1.425l-1.825,2.93
			c-0.057,0.102-0.049,0.166,0.095,0.517c0.14,0.342,0.162,0.372,0.246,0.337c1.482-0.607,1.712-0.712,1.927-0.83
			s0.219-0.178-0.071-1.051l0.351-0.145l1.183,2.883L20.336,101.203z M16.614,100.481c0.15-0.063,0.186-0.094-0.036-0.638
			c-0.53-1.292-1.324-1.258-1.791-1.065c-0.676,0.277-0.932,1.006-0.556,1.922c0.25,0.607,0.292,0.64,0.5,0.554L16.614,100.481z"/>
		<path fill="#E2B862" d="M17.608,94.422c-0.291-0.815-0.331-0.86-0.571-0.821c-0.305,0.047-0.989,0.236-2.315,0.604
			c-1.326,0.367-2.011,0.556-2.296,0.672c-0.227,0.091-0.239,0.15-0.069,0.999l-0.363,0.102l-0.494-1.786
			c0.089-0.082,0.185-0.209,0.317-0.368l3.188-3.792l-0.005-0.018l-1.334,0.369c-1.326,0.367-2.012,0.557-2.296,0.672
			c-0.228,0.092-0.238,0.15-0.041,1.104l-0.364,0.101l-0.678-2.452l0.363-0.102c0.224,0.806,0.288,0.872,0.771,0.768
			c0.458-0.1,1-0.23,1.459-0.357c1.673-0.463,3.064-0.856,3.732-1.106l0.174,0.624c-0.576,0.551-0.992,1.002-1.507,1.639
			l-2.423,2.945l0.004,0.018l1.733-0.479c1.326-0.366,2.011-0.556,2.296-0.672c0.228-0.091,0.239-0.149,0.009-1.215l0.364-0.101
			l0.707,2.557L17.608,94.422z"/>
		<path fill="#E2B862" d="M15.815,87.908c-0.153-0.687-0.396-0.776-1.181-0.953l-4.057-0.919c-0.69-0.156-0.86-0.192-1.205-0.238
			l-0.073-0.463c0.269-0.088,0.722-0.333,0.989-0.493l3.98-2.442c0.533-0.321,0.621-0.399,0.494-1.146l0.374-0.06l0.479,3.035
			l-0.374,0.059c-0.177-0.885-0.269-0.941-0.49-0.907c-0.178,0.028-1.097,0.565-1.194,0.636c-0.041,0.033-0.053,0.071-0.053,0.127
			c0.008,0.227,0.063,0.683,0.203,1.572c0.088,0.561,0.137,0.58,0.336,0.631c0.577,0.127,1.062,0.196,1.149,0.184
			c0.268-0.043,0.314-0.15,0.243-1.006l0.374-0.059l0.376,2.385L15.815,87.908z M13.07,84.438c-0.012-0.08-0.043-0.103-0.069-0.099
			c-0.044,0.007-0.138,0.058-0.188,0.084l-2.063,1.192l2.391,0.533c0.066,0.018,0.114,0.028,0.149,0.022
			c0.036-0.005,0.046-0.053,0.038-0.106L13.07,84.438z"/>
		<path fill="#E2B862" d="M14.734,80.114c-0.116-0.967-0.146-1.01-0.392-1.033c-0.181-0.008-0.496-0.008-1.018,0.021l-4.099,0.229
			l0.059,1.034c0.017,0.306,0.284,0.417,1.339,0.728l-0.067,0.418c-0.354-0.061-0.861-0.087-1.681-0.076
			C8.892,81.252,8.9,81.081,8.908,80.9c0.008-0.17,0.007-0.352-0.003-0.521l-0.173-3.091c-0.021-0.377-0.077-0.726-0.148-1.046
			C9.4,76.16,9.9,76.078,10.246,75.976l0.112,0.409c-1.013,0.427-1.267,0.566-1.25,0.872l0.059,1.034l4.098-0.229
			c0.521-0.028,0.834-0.064,1.014-0.093c0.24-0.05,0.266-0.096,0.273-1.069l0.377-0.021l0.18,3.217L14.734,80.114z"/>
		<path fill="#E2B862" d="M14.522,75.083c-0.04-0.974-0.064-1.028-0.308-1.061c-0.305-0.043-1.018-0.061-2.395-0.093
			c-1.377-0.033-2.089-0.05-2.396-0.021c-0.244,0.021-0.272,0.075-0.358,1.045l-0.378-0.009l0.076-3.223l0.378,0.009
			c0.04,0.974,0.065,1.029,0.309,1.062c0.305,0.043,1.016,0.06,2.394,0.093c1.378,0.033,2.089,0.049,2.396,0.021
			c0.243-0.021,0.271-0.074,0.357-1.045l0.378,0.009L14.9,75.091L14.522,75.083z"/>
		<path fill="#E2B862" d="M9.004,67.307c0.188-1.654,1.641-2.784,3.563-2.563c1.924,0.22,3.082,1.647,2.894,3.302
			c-0.189,1.654-1.642,2.784-3.563,2.564C9.975,70.389,8.815,68.961,9.004,67.307z M15.031,67.996c0.11-0.957-0.7-1.874-2.596-2.09
			C10.54,65.69,9.543,66.4,9.434,67.357c-0.108,0.957,0.701,1.874,2.596,2.09C13.925,69.663,14.921,68.953,15.031,67.996z"/>
		<path fill="#E2B862" d="M15.449,63.977c0.138-0.855,0.124-0.915-0.106-0.997c-0.289-0.105-0.981-0.27-2.321-0.587
			c-1.34-0.318-2.031-0.481-2.338-0.517c-0.243-0.03-0.282,0.017-0.542,0.843l-0.368-0.087l0.429-1.805
			c0.117-0.027,0.263-0.095,0.457-0.169l4.624-1.791l0.004-0.018l-1.35-0.32c-1.34-0.317-2.032-0.481-2.338-0.517
			c-0.243-0.029-0.281,0.017-0.566,0.948l-0.368-0.087l0.587-2.479l0.368,0.087c-0.193,0.814-0.168,0.903,0.308,1.044
			c0.449,0.134,0.988,0.28,1.452,0.39c1.689,0.401,3.103,0.726,3.809,0.829l-0.148,0.631c-0.771,0.206-1.354,0.401-2.111,0.711
			l-3.545,1.417l-0.004,0.018l1.751,0.415c1.34,0.317,2.032,0.481,2.338,0.517c0.243,0.03,0.282-0.017,0.594-1.062l0.368,0.087
			l-0.612,2.583L15.449,63.977z"/>
		<path fill="#E2B862" d="M17.018,57.405c0.196-0.676,0.027-0.871-0.575-1.403l-3.11-2.757c-0.53-0.468-0.661-0.583-0.94-0.789
			l0.159-0.44c0.278,0.052,0.793,0.056,1.104,0.044l4.664-0.224c0.621-0.025,0.736-0.051,0.983-0.765l0.356,0.128l-1.041,2.888
			l-0.355-0.128c0.271-0.859,0.22-0.954,0.008-1.03c-0.169-0.061-1.231-0.033-1.352-0.019c-0.052,0.01-0.081,0.038-0.107,0.086
			c-0.102,0.202-0.273,0.628-0.58,1.475c-0.191,0.534-0.159,0.574-0.009,0.714c0.443,0.39,0.835,0.684,0.92,0.714
			c0.254,0.091,0.347,0.02,0.696-0.764l0.355,0.128l-0.817,2.27L17.018,57.405z M16.283,53.045c0.027-0.076,0.011-0.111-0.015-0.12
			c-0.042-0.015-0.146-0.015-0.205-0.016l-2.381,0.051l1.837,1.619c0.05,0.047,0.086,0.079,0.12,0.091
			c0.034,0.012,0.066-0.024,0.084-0.075L16.283,53.045z"/>
		<path fill="#E2B862" d="M19.583,50.509c0.35-0.851,0.349-0.912,0.143-1.043c-0.258-0.167-0.896-0.482-2.131-1.091
			s-1.873-0.924-2.163-1.027c-0.229-0.083-0.278-0.047-0.741,0.749l-0.339-0.167l1.378-2.793l0.339,0.167
			c-0.35,0.851-0.35,0.912-0.144,1.043c0.162,0.1,0.63,0.351,1.009,0.538l3.18,1.569c0.274,0.135,0.38,0.086,0.511-0.179
			l0.489-0.993c0.415-0.839,0.24-1.096-0.627-2.126l0.305-0.332c0.234,0.236,1.114,0.831,1.503,1.042l-2.374,4.811L19.583,50.509z"
			/>
		<path fill="#E2B862" d="M23.76,42.55c0.509-0.831,0.513-0.883,0.335-1.053c-0.229-0.206-0.81-0.616-1.935-1.409
			c-1.125-0.794-1.707-1.204-1.978-1.351c-0.219-0.111-0.268-0.09-0.879,0.668l-0.309-0.218l1.773-2.516
			c0.728-1.03,1.284-1.352,2.07-1.514c0.698-0.146,1.538,0.006,2.354,0.582c1.287,0.908,1.989,2.614,0.572,4.622l-1.696,2.405
			L23.76,42.55z M24.629,40.552c0.287,0.202,0.353,0.172,0.689-0.307c0.996-1.412,0.767-2.444-0.8-3.549
			c-1.603-1.131-2.616-0.975-3.611,0.437c-0.338,0.478-0.345,0.55-0.204,0.648L24.629,40.552z"/>
		<path fill="#E2B862" d="M28.029,36.595c0.564-0.727,0.574-0.778,0.417-0.967c-0.203-0.231-0.734-0.705-1.762-1.622
			c-1.026-0.917-1.558-1.391-1.81-1.568c-0.205-0.135-0.255-0.12-0.914,0.523l-0.282-0.252l2.477-2.773
			c0.378-0.423,0.722-0.889,0.945-1.22c0.328,0.281,1.159,0.878,1.382,0.993l-0.229,0.351c-1.051-0.553-1.276-0.476-2.194,0.551
			l-0.593,0.665c-0.084,0.094-0.08,0.17,0.014,0.254l1.512,1.35c0.087,0.078,0.139,0.087,0.33-0.127l0.187-0.208
			c0.72-0.806,0.646-0.955,0.243-1.448l0.288-0.322c0.215,0.205,0.412,0.404,0.733,0.692c0.27,0.24,0.576,0.49,0.771,0.651
			l-0.294,0.329c-0.525-0.385-0.725-0.393-1.239,0.185l-0.456,0.51c-0.078,0.087-0.093,0.158,0.001,0.242l1.686,1.505
			c0.094,0.084,0.17,0.08,0.254-0.015l1.127-1.262c0.526-0.591,0.518-0.877,0.213-1.415l-0.319-0.563l0.394-0.265
			c0.284,0.411,0.824,1.063,1.102,1.334l-3.7,4.142L28.029,36.595z"/>
		<path fill="#E2B862" d="M36.4,26.754c0.11,1.268-0.098,2.168-1.036,3.01c-1.071,0.962-2.892,1.265-4.389-0.403
			c-1.101-1.226-1.412-3.123,0.242-4.608c0.442-0.396,1.108-0.813,1.606-1.067c0.338,0.35,0.973,0.869,1.304,1.116l-0.249,0.356
			c-0.938-0.573-1.75-0.643-2.515,0.042c-0.844,0.758-0.691,2.073,0.451,3.345c1.208,1.347,2.545,1.368,3.323,0.67
			c0.71-0.637,0.92-1.467,0.791-2.379L36.4,26.754z"/>
		<path fill="#E2B862" d="M36.784,20.329c1.357-0.966,3.169-0.64,4.291,0.938c1.121,1.578,0.834,3.396-0.523,4.361
			s-3.169,0.64-4.291-0.938C35.138,23.112,35.426,21.294,36.784,20.329z M40.301,25.275c0.786-0.559,0.926-1.775-0.18-3.331
			c-1.106-1.556-2.302-1.823-3.086-1.264c-0.786,0.559-0.927,1.774,0.18,3.331C38.321,25.568,39.516,25.833,40.301,25.275z"/>
		<path fill="#E2B862" d="M43.512,22.928c0.776-0.496,0.812-0.545,0.718-0.771c-0.114-0.286-0.457-0.91-1.117-2.12
			c-0.66-1.209-1.002-1.833-1.18-2.085c-0.14-0.201-0.201-0.198-1.037,0.187l-0.182-0.332l3.051-1.667
			c0.632-0.346,1.004-0.436,1.444-0.399c0.44,0.037,0.815,0.273,1.075,0.747c0.626,1.146-0.574,2.068-0.535,2.139
			c0.021,0.04,0.07,0.074,0.207,0.133l2.23,0.967c0.565,0.246,0.684,0.273,1.079,0.058l0.181,0.332l-1.352,0.738l-3.113-1.491
			c-0.105-0.044-0.17-0.03-0.502,0.151c-0.324,0.177-0.352,0.203-0.308,0.281c0.769,1.407,0.896,1.624,1.038,1.825
			c0.14,0.2,0.201,0.198,1.037-0.187l0.182,0.332l-2.735,1.494L43.512,22.928z M43.818,19.148c0.078,0.142,0.115,0.173,0.629-0.107
			c1.226-0.669,1.104-1.455,0.862-1.897c-0.35-0.64-1.102-0.814-1.971-0.339c-0.577,0.315-0.604,0.36-0.496,0.558L43.818,19.148z"/>
		<path fill="#E2B862" d="M49.799,19.528c0.636-0.302,0.669-0.558,0.668-1.362l-0.004-4.158c-0.001-0.708-0.003-0.881-0.035-1.228
			l0.435-0.174c0.146,0.243,0.485,0.63,0.701,0.854l3.265,3.34c0.431,0.448,0.525,0.517,1.226,0.228l0.14,0.351l-2.851,1.139
			l-0.141-0.351c0.822-0.368,0.858-0.469,0.775-0.678c-0.066-0.167-0.794-0.943-0.884-1.024c-0.042-0.032-0.082-0.035-0.136-0.023
			c-0.22,0.059-0.652,0.212-1.488,0.546c-0.527,0.21-0.535,0.263-0.54,0.468c0.003,0.59,0.043,1.078,0.077,1.162
			c0.1,0.251,0.215,0.272,1.033,0.014l0.14,0.351l-2.241,0.896L49.799,19.528z M52.573,16.083c0.074-0.03,0.09-0.065,0.079-0.09
			c-0.017-0.042-0.087-0.121-0.124-0.164l-1.619-1.748l0.009,2.45c-0.001,0.068-0.001,0.117,0.012,0.15
			c0.014,0.033,0.063,0.033,0.112,0.013L52.573,16.083z"/>
		<path fill="#E2B862" d="M57.149,16.741c0.917-0.329,0.953-0.368,0.92-0.611c-0.031-0.178-0.102-0.486-0.247-0.988l-1.134-3.945
			l-0.995,0.286c-0.294,0.084-0.343,0.371-0.412,1.467l-0.423,0.028c-0.019-0.36-0.105-0.859-0.298-1.656
			c0.181-0.024,0.351-0.054,0.528-0.086c0.169-0.03,0.345-0.071,0.509-0.118l2.977-0.855c0.362-0.104,0.69-0.236,0.986-0.378
			c0.261,0.777,0.452,1.247,0.627,1.563l-0.373,0.201c-0.641-0.893-0.834-1.109-1.128-1.024l-0.995,0.286l1.135,3.945
			c0.144,0.502,0.249,0.8,0.314,0.968c0.103,0.224,0.152,0.237,1.104,0.029l0.104,0.363l-3.098,0.89L57.149,16.741z"/>
		<path fill="#E2B862" d="M62.013,15.42c0.94-0.253,0.988-0.29,0.966-0.533c-0.024-0.307-0.165-1.004-0.436-2.354
			c-0.271-1.349-0.411-2.046-0.506-2.339c-0.074-0.232-0.133-0.249-1.098-0.119l-0.073-0.37l3.156-0.634l0.074,0.37
			c-0.939,0.253-0.988,0.29-0.966,0.534c0.024,0.307,0.165,1.003,0.436,2.353c0.271,1.35,0.411,2.046,0.506,2.339
			c0.074,0.233,0.133,0.249,1.098,0.119l0.074,0.371l-3.157,0.634L62.013,15.42z"/>
		<path fill="#E2B862" d="M65.854,14.611c0.853-0.155,0.902-0.188,0.903-0.432c0.003-0.308-0.073-1.015-0.22-2.382
			c-0.147-1.368-0.224-2.075-0.292-2.375c-0.054-0.238-0.109-0.259-0.975-0.229L65.23,8.817l1.842-0.198
			c0.065,0.102,0.178,0.216,0.313,0.374l3.227,3.759l0.019-0.001l-0.148-1.377c-0.146-1.368-0.223-2.074-0.292-2.375
			c-0.052-0.239-0.108-0.26-1.081-0.219l-0.041-0.375l2.53-0.272l0.041,0.375c-0.832,0.089-0.907,0.143-0.881,0.637
			c0.022,0.468,0.064,1.024,0.116,1.498c0.186,1.726,0.349,3.165,0.487,3.864l-0.644,0.069c-0.451-0.657-0.828-1.141-1.373-1.752
			l-2.516-2.868L66.81,9.958l0.192,1.788c0.146,1.368,0.223,2.075,0.292,2.375c0.053,0.238,0.108,0.259,1.198,0.206l0.04,0.375
			l-2.639,0.284L65.854,14.611z"/>
		<path fill="#E2B862" d="M77.879,12.386c0.002-0.144-0.069-0.172-0.573-0.199l-0.549-0.027l0.006-0.378l2.801,0.047l-0.006,0.324
			c-0.611,0.007-0.631,0.052-0.638,0.448c-0.009,0.531,0.011,0.991,0.002,1.441c-0.526,0.198-1.556,0.424-2.313,0.411
			c-2.068-0.035-3.289-0.929-3.249-3.306c0.023-1.368,0.929-3.235,3.53-3.191c0.693,0.012,1.439,0.087,1.987,0.178
			c-0.005,0.324-0.021,0.63-0.024,0.909c-0.004,0.234,0.019,0.604,0.039,0.892l-0.396-0.007C78.25,9.023,77.621,8.4,76.595,8.383
			c-1.422-0.024-2.038,1.235-2.065,2.855c-0.022,1.387,0.422,2.754,1.935,2.779c0.549,0.01,0.981-0.1,1.393-0.31L77.879,12.386z"/>
		<path fill="#E2B862" d="M82.621,14.223c0.697,0.073,0.859-0.127,1.277-0.813l2.164-3.545c0.369-0.604,0.457-0.752,0.61-1.064
			l0.461,0.079c-0.002,0.282,0.085,0.79,0.151,1.093l1.041,4.547c0.134,0.607,0.179,0.715,0.925,0.833l-0.063,0.373l-3.021-0.515
			l0.063-0.373c0.894,0.116,0.978,0.048,1.016-0.174c0.029-0.177-0.186-1.217-0.221-1.333c-0.02-0.049-0.051-0.072-0.104-0.09
			c-0.217-0.064-0.667-0.159-1.553-0.31c-0.56-0.095-0.595-0.056-0.704,0.117c-0.307,0.504-0.524,0.941-0.54,1.03
			c-0.045,0.266,0.042,0.345,0.873,0.55L84.933,15l-2.375-0.405L82.621,14.223z M86.778,12.733c0.08,0.014,0.111-0.008,0.115-0.035
			c0.008-0.044-0.011-0.148-0.02-0.204l-0.47-2.333l-1.27,2.092c-0.037,0.058-0.063,0.099-0.068,0.134
			c-0.006,0.036,0.035,0.061,0.088,0.07L86.778,12.733z"/>
		<path fill="#E2B862" d="M89.903,15.512c0.848,0.185,0.906,0.174,1-0.052c0.121-0.284,0.324-0.966,0.714-2.287
			c0.39-1.321,0.591-2.004,0.644-2.308c0.042-0.241-0.001-0.282-0.813-0.587l0.107-0.363l1.779,0.525
			c0.021,0.119,0.081,0.268,0.145,0.465l1.539,4.716l0.019,0.005l0.392-1.33c0.39-1.321,0.591-2.003,0.644-2.307
			c0.043-0.241,0-0.282-0.916-0.618l0.106-0.363l2.444,0.721l-0.107,0.362c-0.803-0.237-0.894-0.216-1.06,0.251
			c-0.159,0.441-0.334,0.972-0.471,1.429c-0.49,1.667-0.894,3.06-1.033,3.76l-0.622-0.184c-0.164-0.781-0.327-1.373-0.597-2.147
			l-1.224-3.619l-0.017-0.005l-0.511,1.727c-0.391,1.321-0.592,2.004-0.645,2.308c-0.042,0.241,0.001,0.282,1.029,0.651
			l-0.107,0.363l-2.548-0.752L89.903,15.512z"/>
		<path fill="#E2B862" d="M96.724,17.566c0.918,0.327,0.971,0.32,1.102,0.111c0.154-0.267,0.437-0.92,0.982-2.186
			c0.545-1.265,0.828-1.918,0.916-2.214c0.063-0.238,0.033-0.28-0.834-0.724l0.149-0.347l2.829,1.221
			c1.157,0.5,1.588,0.98,1.907,1.717c0.287,0.653,0.312,1.507-0.086,2.426c-0.625,1.447-2.151,2.484-4.41,1.51l-2.703-1.167
			L96.724,17.566z M98.858,18.007c-0.139,0.322-0.094,0.38,0.442,0.613c1.589,0.686,2.552,0.248,3.312-1.513
			c0.779-1.803,0.418-2.763-1.17-3.449c-0.537-0.232-0.608-0.224-0.678-0.067L98.858,18.007z"/>
		<path fill="#E2B862" d="M105.86,21.813c0.853,0.473,0.904,0.475,1.065,0.29c0.195-0.238,0.58-0.835,1.325-1.994
			c0.745-1.158,1.129-1.756,1.266-2.033c0.102-0.224,0.078-0.271-0.707-0.849l0.205-0.318l2.588,1.665
			c1.062,0.681,1.405,1.225,1.603,2.003c0.176,0.691,0.061,1.537-0.48,2.376c-0.852,1.325-2.527,2.099-4.593,0.77l-2.477-1.592
			L105.86,21.813z M107.894,22.596c-0.189,0.295-0.156,0.359,0.334,0.676c1.453,0.935,2.477,0.661,3.514-0.952
			c1.061-1.65,0.861-2.655-0.592-3.589c-0.491-0.316-0.563-0.32-0.656-0.177L107.894,22.596z"/>
		<path fill="#E2B862" d="M111.958,25.806c0.75,0.533,0.802,0.541,0.981,0.376c0.224-0.214,0.674-0.764,1.547-1.828
			s1.324-1.614,1.49-1.874c0.125-0.211,0.107-0.26-0.562-0.891l0.238-0.292l2.875,2.357c0.438,0.359,0.918,0.683,1.259,0.892
			c-0.269,0.34-0.829,1.194-0.935,1.422l-0.359-0.214c0.508-1.073,0.422-1.295-0.645-2.168l-0.688-0.565
			c-0.098-0.08-0.174-0.072-0.253,0.025l-1.284,1.565c-0.074,0.09-0.082,0.143,0.142,0.325l0.215,0.177
			c0.836,0.685,0.981,0.606,1.457,0.182l0.334,0.274c-0.193,0.224-0.385,0.428-0.66,0.762c-0.229,0.278-0.465,0.596-0.616,0.796
			l-0.343-0.279c0.363-0.541,0.363-0.739-0.234-1.23l-0.528-0.434c-0.092-0.074-0.162-0.086-0.242,0.011l-1.433,1.747
			c-0.08,0.097-0.073,0.173,0.025,0.253l1.308,1.073c0.612,0.502,0.896,0.48,1.422,0.154l0.547-0.342l0.28,0.381
			c-0.397,0.301-1.026,0.869-1.286,1.156l-4.291-3.521L111.958,25.806z"/>
		<path fill="#E2B862" d="M118.83,29.427c-0.557,0.947-0.725,1.799-0.044,2.481c0.696,0.702,1.456,0.659,1.856,0.259
			c0.414-0.413,0.23-0.878-0.065-1.483l-0.336-0.656c-0.761-1.516-0.491-2.024,0.006-2.52c0.815-0.813,2.044-0.676,3.021,0.306
			c0.481,0.485,0.83,0.976,1.084,1.396c-0.076,0.076-0.197,0.184-0.287,0.273c-0.306,0.305-0.586,0.622-0.873,0.959l-0.299-0.3
			c0.67-0.883,0.559-1.532-0.045-2.138c-0.553-0.555-1.31-0.64-1.718-0.233c-0.28,0.279-0.325,0.617-0.022,1.241l0.686,1.427
			c0.437,0.923,0.365,1.528-0.241,2.131c-0.848,0.844-2.063,0.657-3.091-0.376c-0.47-0.472-0.761-1.147-1.211-1.6
			c0.318-0.33,0.849-0.946,1.22-1.416L118.83,29.427z"/>
		<path fill="#E2B862" d="M121.121,34.218c0.678,0.699,0.732,0.723,0.937,0.586c0.256-0.171,0.797-0.631,1.846-1.523
			c1.049-0.892,1.591-1.354,1.8-1.578c0.167-0.178,0.151-0.236-0.431-1.017l0.289-0.245l2.086,2.453l-0.289,0.245
			c-0.678-0.699-0.731-0.723-0.936-0.586c-0.256,0.171-0.797,0.631-1.846,1.523c-1.05,0.892-1.591,1.353-1.8,1.578
			c-0.168,0.178-0.152,0.236,0.43,1.017l-0.288,0.245l-2.087-2.453L121.121,34.218z"/>
		<path fill="#E2B862" d="M127.729,40.185c0.117-0.083,0.099-0.157-0.179-0.58l-0.302-0.459l0.309-0.218l1.613,2.287l-0.267,0.187
			c-0.366-0.49-0.413-0.479-0.736-0.25c-0.436,0.306-0.793,0.593-1.161,0.853c-0.47-0.308-1.26-1.006-1.695-1.624
			c-1.192-1.692-1.19-3.203,0.75-4.572c1.119-0.789,3.158-1.159,4.657,0.966c0.4,0.566,0.779,1.213,1.029,1.708
			c-0.265,0.187-0.52,0.356-0.747,0.517c-0.19,0.135-0.479,0.37-0.697,0.558l-0.228-0.324c0.585-0.732,0.717-1.607,0.125-2.445
			c-0.82-1.162-2.199-0.916-3.523,0.018c-1.132,0.799-1.973,1.965-1.102,3.201c0.315,0.449,0.659,0.734,1.069,0.94L127.729,40.185z"
			/>
		<path fill="#E2B862" d="M127.837,43.129c0.467,0.73,0.518,0.765,0.743,0.673c0.287-0.114,0.912-0.453,2.124-1.108
			c1.212-0.656,1.837-0.995,2.089-1.172c0.201-0.14,0.199-0.2-0.157-0.99l0.333-0.18l0.884,1.631
			c-0.068,0.099-0.134,0.246-0.229,0.431l-2.257,4.417l0.008,0.016l1.22-0.66c1.211-0.656,1.838-0.995,2.09-1.172
			c0.2-0.139,0.198-0.2-0.209-1.085l0.334-0.18l1.213,2.241l-0.334,0.18c-0.397-0.737-0.477-0.787-0.924-0.574
			c-0.426,0.199-0.925,0.449-1.345,0.676c-1.528,0.828-2.799,1.526-3.396,1.92l-0.309-0.57c0.438-0.667,0.743-1.201,1.102-1.938
			l1.703-3.42l-0.008-0.016l-1.584,0.857c-1.212,0.656-1.838,0.995-2.09,1.172c-0.201,0.139-0.199,0.2,0.264,1.188l-0.332,0.18
			l-1.266-2.336L127.837,43.129z"/>
		<path fill="#E2B862" d="M132.317,52.061c0.363,0.844,0.404,0.878,0.646,0.831c0.3-0.068,0.97-0.304,2.269-0.762
			s1.97-0.694,2.246-0.829c0.217-0.115,0.229-0.167-0.019-1.053l0.355-0.125l1.096,3.105c0.229,0.653,0.251,1.199,0.07,1.664
			c-0.146,0.395-0.438,0.707-0.888,0.866c-1.171,0.413-2.036-0.446-2.567-1.956c-0.082-0.229-0.15-0.481-0.191-0.6l-2.011,0.709
			c-0.229,0.081-0.229,0.166,0.06,1.171l-0.356,0.125l-1.063-3.021L132.317,52.061z M135.74,53.058
			c0.037,0.139,0.074,0.269,0.123,0.405c0.3,0.849,0.729,1.583,1.851,1.189c1.053-0.371,0.962-1.112,0.637-2.037
			c-0.138-0.39-0.201-0.406-0.354-0.353L135.74,53.058z"/>
		<path fill="#E2B862" d="M134.388,57.968c0.27,0.88,0.307,0.927,0.551,0.898c0.307-0.034,1-0.194,2.342-0.504
			c1.343-0.31,2.035-0.471,2.326-0.575c0.23-0.081,0.244-0.14,0.101-1.049l0.368-0.085l0.783,3.387
			c0.162,0.702,0.148,1.084-0.006,1.499c-0.152,0.415-0.48,0.712-1.009,0.834c-1.272,0.294-1.837-1.11-1.915-1.091
			c-0.045,0.01-0.091,0.048-0.185,0.163l-1.532,1.889c-0.388,0.478-0.447,0.584-0.346,1.023l-0.368,0.085l-0.348-1.5l2.273-2.597
			c0.072-0.09,0.075-0.156-0.01-0.524c-0.083-0.36-0.101-0.393-0.188-0.373c-1.563,0.361-1.806,0.427-2.037,0.508
			c-0.229,0.081-0.244,0.14-0.099,1.049l-0.368,0.085l-0.703-3.036L134.388,57.968z M137.944,59.28
			c-0.156,0.037-0.196,0.063-0.064,0.635c0.313,1.36,1.104,1.455,1.595,1.341c0.711-0.164,1.082-0.841,0.858-1.807
			c-0.147-0.64-0.186-0.678-0.403-0.627L137.944,59.28z"/>
		<path fill="#E2B862" d="M142.211,67.049c0.195,1.654-0.96,3.087-2.882,3.313c-1.922,0.227-3.378-0.898-3.573-2.553
			c-0.194-1.655,0.96-3.086,2.882-3.313C140.562,64.271,142.017,65.395,142.211,67.049z M136.185,67.759
			c0.112,0.957,1.111,1.664,3.008,1.441c1.896-0.224,2.703-1.144,2.591-2.1c-0.112-0.957-1.111-1.664-3.009-1.441
			C136.879,65.882,136.071,66.802,136.185,67.759z"/>
		<path fill="#E2B862" d="M136.656,71.726c0.078,0.917,0.105,0.961,0.35,0.994c0.308,0.04,1.019,0.021,2.396-0.005
			c1.377-0.023,2.09-0.035,2.396-0.076c0.242-0.041,0.27-0.086,0.315-1.005l0.379-0.006l0.063,3.718
			c0.008,0.567,0.072,1.143,0.133,1.538c-0.432,0.018-1.445,0.143-1.688,0.209l-0.069-0.412c1.146-0.309,1.26-0.518,1.237-1.895
			l-0.016-0.892c-0.002-0.126-0.057-0.179-0.184-0.177l-2.025,0.034c-0.116,0.002-0.161,0.03-0.156,0.318l0.005,0.279
			c0.02,1.08,0.172,1.141,0.805,1.229l0.006,0.432c-0.297-0.004-0.576-0.018-1.009-0.01c-0.36,0.006-0.756,0.031-1.008,0.044
			l-0.007-0.44c0.646-0.074,0.798-0.204,0.784-0.978l-0.012-0.685c-0.002-0.117-0.039-0.179-0.164-0.177l-2.162,0.037
			c-0.241,0.004-0.269,0.086-0.313,1.194L136.333,75l-0.056-3.268L136.656,71.726z"/>
		<path fill="#E2B862" d="M136.706,77.969c-0.025,0.919-0.003,0.968,0.233,1.026c0.303,0.064,1.011,0.134,2.379,0.268
			c1.371,0.133,2.078,0.202,2.388,0.195c0.245-0.012,0.274-0.055,0.428-0.961l0.376,0.037l-0.358,3.699
			c-0.055,0.563-0.058,1.143-0.041,1.541c-0.432-0.032-1.453-0.023-1.701,0.017l-0.022-0.418c1.174-0.175,1.311-0.37,1.444-1.74
			l0.086-0.887c0.013-0.125-0.036-0.185-0.162-0.196l-2.016-0.195c-0.116-0.012-0.163,0.011-0.191,0.297l-0.026,0.277
			c-0.104,1.075,0.041,1.152,0.658,1.313l-0.041,0.43c-0.295-0.038-0.57-0.083-1-0.124c-0.359-0.035-0.755-0.055-1.007-0.071
			l0.043-0.438c0.651,0,0.814-0.111,0.89-0.881l0.066-0.682c0.012-0.115-0.021-0.183-0.146-0.194l-2.248-0.218
			c-0.125-0.013-0.184,0.037-0.195,0.162l-0.164,1.684c-0.077,0.788,0.101,1.013,0.664,1.267l0.589,0.265l-0.16,0.445
			c-0.473-0.164-1.294-0.369-1.678-0.425l0.537-5.526L136.706,77.969z"/>
		<path fill="#E2B862" d="M137.517,85.683c-1.097,0.063-1.897,0.396-2.09,1.34c-0.195,0.97,0.26,1.576,0.815,1.688
			c0.572,0.116,0.857-0.294,1.195-0.878l0.36-0.643c0.841-1.474,1.412-1.532,2.101-1.394c1.129,0.229,1.695,1.326,1.42,2.685
			c-0.135,0.67-0.35,1.232-0.559,1.677c-0.107-0.021-0.264-0.063-0.387-0.087c-0.423-0.086-0.844-0.144-1.283-0.195l0.084-0.415
			c1.105,0.067,1.584-0.386,1.754-1.224c0.154-0.769-0.195-1.444-0.76-1.56c-0.389-0.079-0.693,0.071-1.044,0.671l-0.809,1.36
			c-0.525,0.875-1.067,1.151-1.905,0.981c-1.175-0.236-1.691-1.352-1.402-2.78c0.133-0.652,0.532-1.269,0.659-1.896
			c0.452,0.082,1.258,0.18,1.854,0.229L137.517,85.683z"/>
		<path fill="#E2B862" d="M136.237,91.469c-1.096-0.041-1.926,0.216-2.203,1.136c-0.287,0.947,0.107,1.594,0.65,1.758
			c0.56,0.169,0.881-0.213,1.272-0.76l0.418-0.606c0.976-1.388,1.549-1.392,2.222-1.188c1.103,0.334,1.563,1.479,1.16,2.805
			c-0.197,0.654-0.465,1.193-0.715,1.615c-0.104-0.03-0.255-0.086-0.376-0.123c-0.413-0.125-0.825-0.223-1.257-0.315l0.123-0.404
			c1.094,0.173,1.61-0.235,1.858-1.052c0.229-0.749-0.057-1.455-0.605-1.622c-0.381-0.114-0.697,0.005-1.104,0.567l-0.933,1.277
			c-0.606,0.822-1.172,1.045-1.99,0.797c-1.146-0.347-1.555-1.504-1.132-2.898c0.192-0.637,0.647-1.213,0.835-1.824
			c0.439,0.125,1.232,0.299,1.823,0.402L136.237,91.469z"/>
		<path fill="#E2B862" d="M133.104,95.765c-0.297,0.928-0.291,0.988-0.074,1.103c0.271,0.146,0.935,0.403,2.216,0.905
			c1.28,0.502,1.942,0.762,2.241,0.838c0.236,0.063,0.281,0.023,0.693-0.857l0.353,0.139l-1.175,3l-0.353-0.14
			c0.296-0.928,0.291-0.987,0.074-1.103c-0.271-0.146-0.934-0.403-2.215-0.905c-1.282-0.502-1.943-0.763-2.242-0.841
			c-0.235-0.063-0.281-0.021-0.694,0.859l-0.352-0.139l1.174-2.999L133.104,95.765z"/>
		<path fill="#E2B862" d="M135.61,104.983c-0.746,1.488-2.496,2.049-4.226,1.183c-1.73-0.866-2.327-2.604-1.581-4.092
			c0.744-1.487,2.495-2.05,4.223-1.183C135.757,101.757,136.354,103.495,135.61,104.983z M130.19,102.269
			c-0.432,0.86,0.016,1.998,1.72,2.854c1.702,0.854,2.883,0.527,3.313-0.331c0.43-0.858-0.016-1.999-1.72-2.854
			C131.8,101.083,130.621,101.407,130.19,102.269z"/>
		<path fill="#E2B862" d="M128.416,105.901c-0.424,0.755-0.432,0.813-0.243,0.972c0.235,0.198,0.829,0.59,1.977,1.349
			c1.149,0.76,1.742,1.15,2.019,1.289c0.217,0.111,0.27,0.082,0.798-0.604l0.315,0.208l-1.022,1.546
			c-0.12-0.014-0.278-0.001-0.485,0.002l-4.957,0.091l-0.01,0.015l1.156,0.766c1.147,0.758,1.742,1.148,2.018,1.289
			c0.218,0.109,0.271,0.08,0.857-0.695l0.313,0.208l-1.402,2.125l-0.315-0.208c0.461-0.697,0.469-0.791,0.07-1.086
			c-0.376-0.279-0.831-0.604-1.229-0.866c-1.448-0.957-2.664-1.747-3.291-2.087l0.356-0.541c0.794,0.072,1.408,0.09,2.226,0.059
			l3.815-0.11l0.011-0.015l-1.502-0.991c-1.146-0.759-1.742-1.151-2.017-1.289c-0.219-0.112-0.271-0.082-0.922,0.792l-0.315-0.208
			l1.463-2.216L128.416,105.901z"/>
		<path fill="#E2B862" d="M124.69,111.531c-0.414,0.567-0.321,0.809,0.062,1.516l1.979,3.656c0.338,0.622,0.422,0.774,0.613,1.063
			l-0.3,0.358c-0.243-0.146-0.727-0.325-1.022-0.419l-4.459-1.389c-0.592-0.188-0.707-0.203-1.186,0.384l-0.291-0.242l1.967-2.356
			l0.291,0.241c-0.549,0.716-0.533,0.822-0.359,0.968c0.139,0.113,1.146,0.453,1.265,0.479c0.052,0.008,0.089-0.008,0.13-0.044
			c0.165-0.155,0.474-0.497,1.049-1.188c0.364-0.437,0.347-0.484,0.253-0.668c-0.283-0.519-0.55-0.929-0.619-0.986
			c-0.207-0.174-0.317-0.139-0.916,0.479l-0.291-0.241l1.547-1.854L124.69,111.531z M123.89,115.879
			c-0.053,0.063-0.049,0.101-0.029,0.118c0.035,0.029,0.136,0.064,0.188,0.085l2.256,0.769l-1.173-2.149
			c-0.03-0.063-0.054-0.104-0.082-0.127c-0.028-0.023-0.069,0-0.104,0.042L123.89,115.879z"/>
		<path fill="#E2B862" d="M119.931,117.13c-0.617,0.682-0.638,0.739-0.488,0.934c0.188,0.246,0.681,0.758,1.635,1.75
			c0.955,0.992,1.447,1.504,1.687,1.699c0.188,0.156,0.245,0.139,0.95-0.453l0.263,0.272l-2.244,2.159l-0.263-0.272
			c0.618-0.682,0.638-0.739,0.489-0.933c-0.118-0.148-0.474-0.544-0.769-0.85l-2.459-2.556c-0.211-0.22-0.326-0.21-0.541-0.004
			l-0.797,0.769c-0.674,0.648-0.598,0.951-0.131,2.213l-0.397,0.209c-0.142-0.303-0.769-1.162-1.062-1.491l3.865-3.72
			L119.931,117.13z"/>
	</g>
	<g display="inline">
		<circle fill="none" cx="76.06" cy="75.297" r="66.635"/>
		<path fill="#E2B862" d="M54.945,138.06c1.166,0.271,1.239,0.258,1.357-0.018c0.151-0.348,0.405-1.184,0.895-2.805
			c0.49-1.619,0.743-2.456,0.811-2.829c0.055-0.296,0.001-0.347-1.12-0.767l0.134-0.445l3.792,1.146l-0.135,0.445
			c-1.166-0.271-1.239-0.261-1.357,0.019c-0.15,0.346-0.404,1.184-0.895,2.803c-0.49,1.621-0.743,2.457-0.81,2.83
			c-0.056,0.295,0,0.347,1.12,0.768l-0.135,0.445l-3.791-1.147L54.945,138.06z"/>
		<path fill="#E2B862" d="M62.977,140.303c1.195,0.085,1.254,0.06,1.339-0.229c0.096-0.366,0.213-1.233,0.441-2.912
			c0.229-1.68,0.347-2.545,0.354-2.926c-0.003-0.301-0.054-0.342-1.229-0.579l0.063-0.462l3.752,0.513
			c1.536,0.209,2.205,0.636,2.826,1.401c0.557,0.68,0.866,1.683,0.7,2.899c-0.261,1.92-1.727,3.653-4.722,3.245l-3.587-0.488
			L62.977,140.303z M65.65,140.12c-0.059,0.428,0.013,0.482,0.727,0.58c2.105,0.287,3.103-0.549,3.422-2.887
			c0.326-2.393-0.418-3.408-2.525-3.695c-0.713-0.098-0.796-0.064-0.823,0.145L65.65,140.12z"/>
		<path fill="#E2B862" d="M75.61,141.59c1.191-0.142,1.244-0.178,1.272-0.479c0.024-0.377-0.022-1.252-0.114-2.942
			c-0.09-1.69-0.138-2.565-0.201-2.938c-0.062-0.297-0.117-0.326-1.315-0.34l-0.025-0.466l3.783-0.204
			c1.549-0.082,2.286,0.211,3.041,0.848c0.674,0.563,1.167,1.49,1.233,2.718c0.104,1.937-1.012,3.915-4.03,4.077l-3.618,0.195
			L75.61,141.59z M78.204,140.907c0.022,0.432,0.104,0.472,0.821,0.433c2.123-0.114,2.945-1.124,2.818-3.479
			c-0.13-2.41-1.053-3.271-3.177-3.156c-0.719,0.039-0.794,0.087-0.783,0.297L78.204,140.907z"/>
		<path fill="#E2B862" d="M88.331,140.421c1.079-0.34,1.125-0.385,1.098-0.686c-0.045-0.377-0.25-1.228-0.646-2.873
			c-0.397-1.646-0.603-2.495-0.733-2.85c-0.112-0.281-0.174-0.301-1.29-0.111l-0.109-0.451l3.938-0.95
			c0.828-0.2,1.499-0.156,2.044,0.122c0.465,0.229,0.811,0.624,0.948,1.193c0.357,1.484-0.803,2.437-2.716,2.896
			c-0.291,0.07-0.607,0.124-0.759,0.16l0.615,2.55c0.069,0.29,0.174,0.3,1.44,0.074l0.107,0.452l-3.83,0.923L88.331,140.421z
			 M89.979,136.358c0.176-0.031,0.34-0.061,0.513-0.103c1.075-0.259,2.028-0.692,1.688-2.112c-0.322-1.334-1.24-1.317-2.412-1.035
			c-0.496,0.119-0.521,0.192-0.477,0.388L89.979,136.358z"/>
	</g>
	<g display="inline">
		<circle fill="#E2B862" cx="46.323" cy="133.491" r="1.472"/>
		<circle fill="#E2B862" cx="105.571" cy="133.491" r="1.472"/>
	</g>
	<g display="inline">
		<path fill="#E2B862" d="M53.743,102.919c0.006,0.003-1.266,0.919-1.455,1.909c-0.187,0.987,0.236,1.58,0.8,1.583
			c0.573,0.012,1.053-0.549,1.203-1.506C54.438,103.959,53.741,102.931,53.743,102.919z M57.32,106.763
			c0.005,0.002-0.978,1.223-0.904,2.219c0.076,1,0.629,1.453,1.173,1.309c0.552-0.145,0.869-0.809,0.769-1.768
			C58.25,107.571,57.319,106.772,57.32,106.763z M55.411,104.972c-0.001,0-0.002-0.005-0.002-0.005
			c0.004,0.005-1.132,1.082-1.19,2.08c-0.035,0.624,0.145,1.067,0.421,1.292c0.163,0.135,0.366,0.192,0.577,0.167
			c0.566-0.067,0.969-0.685,0.994-1.649C56.23,105.897,55.408,104.979,55.411,104.972z M59.445,108.286
			c0.007,0-0.808,1.339-0.604,2.318c0.206,0.979,0.818,1.354,1.337,1.141c0.529-0.212,0.754-0.916,0.527-1.854
			C60.475,108.964,59.445,108.297,59.445,108.286z M49.971,100.435c-0.392-0.856-1.75-1.531-1.754-1.545s-0.643,1.428-0.195,2.416
			c0.438,0.979,1.142,1.243,1.657,0.963C50.2,101.985,50.367,101.31,49.971,100.435z M61.756,109.515
			c0.004,0-0.624,1.437-0.292,2.379c0.338,0.943,0.995,1.237,1.485,0.957c0.499-0.283,0.629-1.008,0.272-1.91
			C62.867,110.052,61.756,109.524,61.756,109.515z M52.353,100.632c0.004,0.003-1.38,0.741-1.694,1.703
			c-0.313,0.964,0.026,1.612,0.587,1.696c0.569,0.09,1.12-0.398,1.395-1.333C52.907,101.774,52.347,100.644,52.353,100.632z
			 M49.216,103.146c-1.003-0.277-2.413,0.367-2.414,0.371c-0.013,0.002,0.855,1.49,1.917,1.727c1.047,0.238,1.676-0.159,1.796-0.721
			C50.636,103.953,50.221,103.419,49.216,103.146z M50.97,105.823c-1.025-0.133-2.335,0.699-2.334,0.705
			c-0.011,0.004,1.036,1.339,2.113,1.424c1.065,0.091,1.636-0.391,1.684-0.958C52.477,106.417,51.999,105.952,50.97,105.823z
			 M55.406,110.291c-1.018,0.149-2.059,1.3-2.058,1.303c-0.011,0.007,1.335,1.005,2.393,0.8c1.046-0.196,1.469-0.81,1.368-1.369
			C57.001,110.457,56.424,110.14,55.406,110.291z M58.015,112.036c-0.987,0.281-1.867,1.561-1.864,1.563
			c-0.013,0.01,1.453,0.818,2.474,0.478c1.014-0.333,1.352-0.996,1.176-1.538C59.619,111.99,59.002,111.75,58.015,112.036z
			 M53.044,108.212c-1.03,0.01-2.216,1.01-2.215,1.016l0.004,0.002c-0.014,0.006,1.193,1.18,2.271,1.115
			c1.064-0.055,1.565-0.607,1.538-1.176c-0.01-0.216-0.096-0.406-0.251-0.563C54.139,108.354,53.69,108.203,53.044,108.212z
			 M64.217,110.431c0.007-0.002-0.426,1.504,0.034,2.397c0.464,0.889,1.162,1.096,1.611,0.751c0.461-0.346,0.491-1.083,0.014-1.928
			C65.399,110.813,64.219,110.438,64.217,110.431z M60.837,113.422c-0.945,0.412-1.646,1.794-1.645,1.797
			c-0.009,0.009,1.554,0.62,2.523,0.146c0.963-0.462,1.209-1.166,0.962-1.681C62.425,113.165,61.78,113.008,60.837,113.422z
			 M66.683,115.304c-0.604,0.723-0.843,1.885-0.84,1.885c-0.007,0.016,1.691,0.191,2.521-0.524c0.142-0.12,0.26-0.242,0.356-0.364
			c0.721-0.736,1.359-1.521,2.526-1.59c0.166-0.01,0.334-0.021,0.5-0.037c0.503-0.043,0.512-0.438,0.511-0.438
			c0.001-0.002-0.092-0.373-0.577-0.329c-0.159,0.012-0.322,0.022-0.48,0.032c-1.147,0.065-1.771-0.764-2.308-1.547
			c-0.071-0.129-0.157-0.261-0.26-0.394c-0.596-0.765-1.83-0.979-1.833-0.988c0.002,0-0.165,1.183,0.182,2.032
			c0.166,0.421,0.4,0.811,0.669,0.838c0.222,0.021,0.446,0.039,0.668,0.053c0.476,0.03,0.508,0.414,0.508,0.414
			s-0.064,0.385-0.558,0.356c-0.232-0.017-0.461-0.035-0.694-0.058C67.3,114.62,66.979,114.942,66.683,115.304z M63.832,114.424
			c-0.886,0.533-1.397,1.997-1.395,2.001c-0.01,0.01,1.632,0.409,2.539-0.189c0.899-0.586,1.049-1.315,0.731-1.793
			C65.384,113.961,64.716,113.892,63.832,114.424z"/>
		<path fill="#E2B862" d="M95.628,104.905c0.149,0.957,0.631,1.518,1.204,1.506c0.563-0.004,0.984-0.596,0.8-1.583
			c-0.189-0.989-1.46-1.906-1.455-1.909C96.181,102.931,95.483,103.959,95.628,104.905z M91.563,108.522
			c-0.102,0.959,0.217,1.623,0.771,1.767c0.544,0.146,1.098-0.31,1.173-1.308c0.072-0.996-0.909-2.217-0.905-2.219
			C92.603,106.772,91.67,107.571,91.563,108.522z M93.709,106.854c0.023,0.965,0.429,1.582,0.996,1.649
			c0.21,0.024,0.413-0.03,0.577-0.167c0.274-0.225,0.454-0.667,0.42-1.292c-0.06-0.999-1.194-2.076-1.189-2.08l-0.002,0.004
			C94.513,104.979,93.69,105.897,93.709,106.854z M89.215,109.892c-0.229,0.938-0.003,1.643,0.527,1.854
			c0.518,0.215,1.129-0.162,1.336-1.142c0.204-0.979-0.61-2.316-0.604-2.317C90.474,108.297,89.446,108.964,89.215,109.892z
			 M100.241,102.269c0.517,0.28,1.218,0.016,1.655-0.963c0.449-0.988-0.188-2.43-0.195-2.416c-0.002,0.014-1.359,0.688-1.751,1.545
			C99.554,101.31,99.722,101.985,100.241,102.269z M86.698,110.94c-0.357,0.9-0.226,1.627,0.272,1.91
			c0.488,0.279,1.146-0.015,1.483-0.957c0.332-0.944-0.296-2.379-0.291-2.379C88.164,109.524,87.054,110.052,86.698,110.94z
			 M97.28,102.699c0.275,0.935,0.826,1.423,1.396,1.333c0.561-0.084,0.901-0.732,0.588-1.696c-0.313-0.961-1.699-1.698-1.695-1.703
			C97.573,100.644,97.015,101.774,97.28,102.699z M99.403,104.521c0.121,0.563,0.75,0.959,1.798,0.722
			c1.063-0.235,1.931-1.724,1.918-1.728c0-0.004-1.411-0.647-2.415-0.369C99.699,103.419,99.285,103.953,99.403,104.521z
			 M97.49,106.995c0.046,0.568,0.615,1.048,1.681,0.958c1.078-0.084,2.125-1.419,2.112-1.423c0.001-0.008-1.311-0.838-2.334-0.706
			C97.921,105.952,97.442,106.417,97.49,106.995z M92.812,111.024c-0.102,0.56,0.322,1.172,1.369,1.369
			c1.057,0.205,2.402-0.793,2.391-0.801c0.003-0.003-1.037-1.152-2.057-1.303C93.497,110.14,92.919,110.457,92.812,111.024z
			 M90.119,112.538c-0.176,0.542,0.163,1.205,1.176,1.538c1.021,0.342,2.486-0.466,2.474-0.476c0.004-0.004-0.875-1.283-1.862-1.563
			C90.917,111.75,90.3,111.99,90.119,112.538z M95.528,108.606c-0.154,0.156-0.239,0.348-0.252,0.563
			c-0.025,0.568,0.476,1.121,1.539,1.178c1.076,0.063,2.283-1.109,2.271-1.117l0.003-0.002c0.003-0.006-1.185-1.004-2.214-1.016
			C96.229,108.203,95.78,108.354,95.528,108.606z M84.043,111.651c-0.479,0.845-0.446,1.582,0.013,1.928
			c0.45,0.345,1.149,0.138,1.613-0.751c0.459-0.894,0.024-2.399,0.033-2.397C85.701,110.438,84.521,110.813,84.043,111.651z
			 M87.24,113.687c-0.247,0.515,0,1.217,0.962,1.681c0.97,0.474,2.532-0.14,2.521-0.146c0.004-0.004-0.697-1.386-1.642-1.798
			C88.142,113.008,87.494,113.165,87.24,113.687z M82.345,114.647c-0.232,0.021-0.462,0.039-0.695,0.057
			c-0.49,0.029-0.557-0.355-0.557-0.355s0.033-0.385,0.506-0.414c0.226-0.016,0.448-0.033,0.672-0.054
			c0.269-0.026,0.502-0.417,0.668-0.838c0.348-0.851,0.18-2.03,0.183-2.032c-0.003,0.01-1.237,0.225-1.834,0.988
			c-0.103,0.133-0.188,0.266-0.261,0.395c-0.533,0.782-1.158,1.611-2.307,1.545c-0.158-0.008-0.322-0.021-0.482-0.031
			c-0.483-0.045-0.575,0.326-0.574,0.328c-0.001,0,0.008,0.395,0.511,0.438c0.167,0.017,0.334,0.027,0.5,0.037
			c1.167,0.065,1.807,0.854,2.526,1.59c0.098,0.122,0.214,0.244,0.355,0.364c0.829,0.717,2.527,0.54,2.521,0.525
			c0.004-0.002-0.235-1.164-0.84-1.885C82.94,114.942,82.62,114.62,82.345,114.647z M84.211,114.442
			c-0.317,0.478-0.168,1.209,0.73,1.793c0.908,0.599,2.55,0.199,2.539,0.188c0.004-0.004-0.508-1.468-1.394-2.001
			C85.203,113.892,84.536,113.961,84.211,114.442z"/>
		<path fill="#E2B862" d="M75.414,115.083l-0.525-0.254c-0.271-0.131-6.758-3.316-14.638-11.816
			c-7.231-7.8-17.033-21.755-22.666-43.948l-0.389-1.528l1.567,0.172c1.055,0.116,2.094,0.174,3.091,0.174
			c8.572,0,13.79-4.2,18.834-8.261c4.458-3.588,8.667-6.977,14.674-6.977c6.008,0,10.217,3.389,14.673,6.977
			c5.044,4.062,10.262,8.261,18.836,8.261c0.998,0,2.038-0.059,3.09-0.174l1.535-0.169l-0.352,1.504
			c-4.711,20.287-14.562,34.35-21.994,42.572c-8.071,8.931-14.946,13.004-15.235,13.173L75.414,115.083z M40.095,60.017
			c9.896,37.105,31.585,50.541,35.225,52.565c3.732-2.412,26.904-18.565,35.347-52.567c-0.606,0.037-1.206,0.056-1.792,0.056
			c-9.349,0-15.117-4.646-20.208-8.745c-4.328-3.483-8.065-6.493-13.301-6.493c-5.237,0-8.975,3.01-13.303,6.493
			C56.972,55.425,51.2,60.07,41.856,60.07C41.28,60.07,40.691,60.052,40.095,60.017z"/>
		<path fill="#E2B862" d="M75.202,108.667l-0.459-0.29c-2.93-1.846-7.536-6.504-10.887-10.087
			c-5.688-6.084-13.604-16.924-19.013-34.01l-0.298-0.941l0.979-0.12c8.421-1.035,14.093-5.6,18.649-9.269
			c4.427-3.563,7.336-5.748,11.188-5.748c3.854,0,6.762,2.184,11.188,5.748c4.576,3.684,10.271,8.271,18.747,9.281l0.976,0.117
			l-0.289,0.939c-3.832,12.463-10.094,23.494-18.609,32.782c-5.104,5.565-9.27,9.576-11.727,11.289L75.202,108.667z M46.706,64.709
			c5.304,16.261,12.88,26.61,18.35,32.46c4.33,4.631,7.885,7.977,10.104,9.516c2.394-1.795,6.355-5.656,11.006-10.726
			c8.14-8.878,14.181-19.382,17.963-31.232c-8.399-1.283-14.041-5.824-18.606-9.5c-4.146-3.338-6.854-5.386-10.156-5.386
			c-3.304,0-6.014,2.047-10.161,5.386C60.66,58.886,55.047,63.404,46.706,64.709z"/>
		<g>
			<polygon fill="#E2B862" points="75.364,35.798 76.134,38.052 78.515,38.086 76.608,39.515 77.312,41.79 75.364,40.418 
				73.417,41.79 74.12,39.515 72.214,38.086 74.595,38.052 			"/>
			<g>
				<polygon fill="#E2B862" points="92.825,43.245 92.867,44.832 94.375,45.328 92.879,45.857 92.873,47.445 91.907,46.186 
					90.396,46.671 91.295,45.362 90.365,44.075 91.888,44.526 				"/>
				<polygon fill="#E2B862" points="57.903,43.021 57.862,44.608 56.354,45.104 57.851,45.633 57.855,47.221 58.822,45.961 
					60.333,46.447 59.435,45.138 60.365,43.851 58.841,44.302 				"/>
			</g>
			<g>
				<polygon fill="#E2B862" points="85.446,38.689 85.694,40.476 87.46,40.845 85.838,41.633 86.034,43.427 84.782,42.126 
					83.136,42.866 83.987,41.274 82.774,39.938 84.551,40.255 				"/>
				<polygon fill="#E2B862" points="65.381,38.689 65.135,40.476 63.368,40.845 64.991,41.633 64.796,43.427 66.047,42.126 
					67.693,42.866 66.842,41.274 68.054,39.938 66.278,40.255 				"/>
			</g>
		</g>
		<g>
			<path fill="#E2B862" d="M107.442,54.97c-4.739,0-9.637-2.646-12.582-5.848l1.207-1.111c3.219,3.495,9.297,6.404,14.226,4.912
				c1.979-0.599,3.358-2.199,3.69-4.281c0.305-1.902-0.361-3.681-1.735-4.644c-2.683-1.877-5.234-1.034-6.474,0.545
				c-0.858,1.096-1.162,2.698,0.104,3.805c0.677,0.591,1.506,0.519,2.03,0.185c0.243-0.155,0.786-0.615,0.526-1.5l1.576-0.46
				c0.389,1.333-0.078,2.615-1.222,3.344c-1.248,0.797-2.854,0.663-3.994-0.334c-1.768-1.547-1.896-4.037-0.313-6.053
				c1.699-2.167,5.147-3.366,8.705-0.876c1.895,1.325,2.818,3.718,2.416,6.246c-0.429,2.676-2.281,4.819-4.836,5.594
				C109.688,54.821,108.569,54.97,107.442,54.97z"/>
			<path fill="#E2B862" d="M108.115,49.387c-0.235,0-0.471-0.035-0.695-0.104c-0.608-0.185-1.108-0.596-1.407-1.159
				c-0.3-0.563-0.363-1.208-0.177-1.816c0.302-0.994,1.239-1.689,2.28-1.689c0.233,0,0.469,0.035,0.692,0.104
				c1.258,0.383,1.969,1.717,1.586,2.974C110.088,48.708,109.171,49.387,108.115,49.387z M108.116,46.259
				c-0.324,0-0.616,0.216-0.712,0.526c-0.057,0.191-0.037,0.392,0.057,0.568c0.093,0.175,0.249,0.304,0.438,0.361
				c0.39,0.118,0.813-0.115,0.93-0.495c0.117-0.391-0.104-0.807-0.496-0.926C108.26,46.27,108.188,46.259,108.116,46.259z"/>
		</g>
		<path fill="#E2B862" d="M43.385,54.97c-1.126,0.001-2.243-0.149-3.325-0.476c-2.556-0.775-4.409-2.918-4.835-5.594
			c-0.404-2.527,0.521-4.92,2.415-6.246c3.557-2.49,7.005-1.292,8.705,0.876c1.582,2.016,1.452,4.505-0.313,6.052
			c-1.141,0.998-2.744,1.132-3.994,0.335c-1.144-0.729-1.61-2.011-1.222-3.344l1.576,0.46c-0.259,0.885,0.283,1.345,0.528,1.5
			c0.521,0.333,1.354,0.405,2.03-0.186c1.264-1.107,0.963-2.708,0.104-3.805c-1.238-1.578-3.79-2.422-6.472-0.545
			c-1.375,0.963-2.04,2.742-1.736,4.644c0.332,2.083,1.712,3.683,3.691,4.282c4.928,1.494,11.007-1.416,14.226-4.912l1.207,1.111
			C53.024,52.322,48.126,54.97,43.385,54.97z"/>
		<circle fill="#E2B862" cx="42.713" cy="47.003" r="1.564"/>
		<g>
			<circle fill="#E2B862" cx="43.894" cy="92.167" r="1.563"/>
			<circle fill="#E2B862" cx="106.837" cy="92.167" r="1.563"/>
		</g>
		<polygon fill="#E2B862" points="78.394,55 71.916,55 68.029,64 82.28,64 		"/>
		<path fill="#E2B862" d="M77.349,71c0.644-2,1.045-1.993,1.045-2.935c0-0.545-0.137-2.065-0.375-2.065h-5.728
			c-0.239,0-0.376,1.52-0.376,2.065c0,0.942,0.402,0.935,1.045,2.935H61.748v19h5v-2h17v2h4V71H77.349z M84.748,86h-19v-8h19V86z
			 M84.748,76h-19v-4h19V76z"/>
	</g>
</g>
<g id="Layer_2">
	<path d="M95.525,180.451c-46.868,0-85-38.131-85-84.999c0-46.869,38.131-85,85-85c46.87,0,85,38.13,85,85
		C180.525,142.32,142.395,180.451,95.525,180.451z M95.525,11.594c-46.239,0-83.857,37.619-83.857,83.859
		c0,46.239,37.619,83.857,83.857,83.857c46.241,0,83.859-37.618,83.859-83.857C179.384,49.213,141.766,11.594,95.525,11.594z"/>
	<path d="M95.525,178.563c-45.827,0-83.109-37.283-83.109-83.11c0-45.829,37.282-83.112,83.109-83.112
		c45.828,0,83.111,37.283,83.111,83.112C178.636,141.279,141.353,178.563,95.525,178.563z M95.525,14.624
		c-44.568,0-80.827,36.26-80.827,80.828s36.259,80.828,80.827,80.828c44.569,0,80.828-36.26,80.828-80.828
		C176.353,50.883,140.094,14.624,95.525,14.624z"/>
	<path d="M95.525,159.519c-35.325,0-64.065-28.74-64.065-64.066s28.74-64.065,64.065-64.065c35.327,0,64.066,28.739,64.066,64.065
		S130.853,159.519,95.525,159.519z M95.525,32.528c-34.696,0-62.923,28.228-62.923,62.924c0,34.695,28.227,62.923,62.923,62.923
		c34.697,0,62.925-28.228,62.925-62.923C158.45,60.756,130.223,32.528,95.525,32.528z"/>
	<path d="M95.525,157.232c-34.064,0-61.779-27.714-61.779-61.78c0-34.065,27.715-61.78,61.779-61.78
		c34.066,0,61.781,27.715,61.781,61.78C157.306,129.519,129.592,157.232,95.525,157.232z M95.525,34.814
		c-33.436,0-60.637,27.202-60.637,60.638c0,33.437,27.201,60.639,60.637,60.639c33.437,0,60.639-27.202,60.639-60.639
		C156.164,62.017,128.962,34.814,95.525,34.814z"/>
	<g>
		<path d="M33.728,126.019l0.155-0.081l1.271,2.441l-0.156,0.08l-0.105-0.201c-0.123-0.235-0.281-0.37-0.473-0.405
			c-0.125-0.021-0.357,0.058-0.699,0.238l-3.68,1.917c-0.29,0.149-0.47,0.268-0.543,0.352c-0.056,0.063-0.085,0.153-0.091,0.265
			c-0.002,0.159,0.031,0.307,0.101,0.44l0.104,0.201l-0.155,0.082l-1.271-2.441l0.155-0.082l0.107,0.206
			c0.122,0.233,0.279,0.367,0.471,0.4c0.125,0.023,0.359-0.054,0.702-0.231l3.679-1.918c0.29-0.15,0.47-0.268,0.543-0.352
			c0.055-0.064,0.085-0.155,0.088-0.271c0.004-0.154-0.028-0.3-0.098-0.434L33.728,126.019z"/>
		<path d="M27.635,127.951l-0.677-1.608l2.916-5.488l-3.414,1.437c-0.364,0.154-0.575,0.29-0.63,0.409
			c-0.077,0.16-0.066,0.355,0.032,0.588l0.086,0.206l-0.162,0.066l-0.869-2.06l0.163-0.068l0.088,0.21
			c0.105,0.25,0.256,0.396,0.451,0.436c0.12,0.025,0.347-0.032,0.677-0.172l4.99-2.102l0.066,0.156l-3.124,5.911l3.646-1.535
			c0.364-0.153,0.575-0.288,0.632-0.404c0.075-0.164,0.065-0.357-0.033-0.588l-0.088-0.21l0.162-0.068l0.868,2.063l-0.162,0.067
			l-0.087-0.205c-0.107-0.252-0.258-0.399-0.453-0.441c-0.121-0.024-0.347,0.032-0.679,0.173l-4.116,1.734
			c-0.129,0.257-0.206,0.441-0.232,0.557c-0.027,0.117-0.032,0.271-0.016,0.467c0.009,0.097,0.05,0.229,0.123,0.4L27.635,127.951z"
			/>
		<path d="M22.879,114.991l1.419-0.511l0.053,0.173c-0.243,0.109-0.411,0.212-0.501,0.302c-0.147,0.147-0.239,0.313-0.274,0.493
			c-0.036,0.18-0.014,0.397,0.064,0.652l0.265,0.865l4.692-1.439c0.376-0.116,0.6-0.229,0.669-0.34
			c0.093-0.153,0.101-0.35,0.028-0.589l-0.066-0.211l0.168-0.053l0.799,2.604l-0.169,0.052l-0.066-0.217
			c-0.079-0.26-0.215-0.421-0.404-0.48c-0.117-0.036-0.349-0.002-0.692,0.104l-4.692,1.438l0.226,0.737
			c0.089,0.288,0.172,0.485,0.251,0.593c0.106,0.139,0.257,0.24,0.454,0.302c0.198,0.061,0.438,0.06,0.724-0.004l0.051,0.172
			l-1.462,0.368L22.879,114.991z"/>
		<path d="M22.463,111.639l2.486-0.517l-0.286-1.382c-0.074-0.358-0.178-0.588-0.312-0.686c-0.174-0.132-0.444-0.169-0.806-0.113
			l-0.036-0.171l2.189-0.455l0.035,0.172c-0.297,0.106-0.484,0.19-0.562,0.251c-0.096,0.079-0.163,0.188-0.198,0.327
			c-0.036,0.14-0.026,0.341,0.029,0.604l0.287,1.383l2.073-0.431c0.278-0.058,0.446-0.104,0.5-0.142
			c0.056-0.037,0.094-0.092,0.118-0.159c0.022-0.069,0.016-0.19-0.02-0.364l-0.222-1.065c-0.074-0.355-0.151-0.609-0.234-0.76
			c-0.083-0.151-0.212-0.285-0.389-0.403c-0.231-0.153-0.561-0.289-0.989-0.41l-0.039-0.186l1.689,0.217l1.006,4.846l-0.171,0.036
			l-0.046-0.224c-0.031-0.148-0.095-0.28-0.194-0.398c-0.07-0.09-0.158-0.141-0.265-0.156c-0.105-0.016-0.312,0.009-0.619,0.073
			l-4.085,0.847c-0.399,0.083-0.636,0.174-0.712,0.273c-0.101,0.137-0.125,0.336-0.071,0.596l0.046,0.223l-0.172,0.036l-1.006-4.848
			l1.363-0.354l0.038,0.18c-0.318,0.134-0.529,0.253-0.638,0.357c-0.107,0.103-0.177,0.24-0.21,0.408
			c-0.02,0.133,0.001,0.356,0.066,0.668L22.463,111.639z"/>
		<path d="M26.832,99.664l0.186,1.705l-2.751,2.486c0.024,0.159,0.041,0.289,0.051,0.391c0.004,0.041,0.01,0.084,0.013,0.131
			s0.006,0.096,0.009,0.146l1.856-0.201c0.401-0.044,0.646-0.114,0.734-0.213c0.126-0.134,0.176-0.32,0.149-0.56l-0.027-0.249
			l0.174-0.019l0.298,2.736l-0.174,0.02l-0.026-0.239c-0.03-0.272-0.139-0.455-0.327-0.551c-0.105-0.057-0.339-0.063-0.704-0.024
			l-4.125,0.449c-0.402,0.043-0.647,0.114-0.735,0.213c-0.125,0.138-0.174,0.327-0.147,0.569l0.026,0.24l-0.175,0.019l-0.253-2.326
			c-0.073-0.68-0.078-1.183-0.014-1.516c0.065-0.333,0.217-0.625,0.457-0.878c0.242-0.254,0.545-0.4,0.913-0.44
			c0.393-0.042,0.747,0.049,1.063,0.273c0.317,0.225,0.563,0.599,0.741,1.122l1.688-1.517c0.389-0.349,0.639-0.637,0.755-0.869
			c0.114-0.231,0.171-0.523,0.171-0.876L26.832,99.664z M24.043,104.556c-0.006-0.059-0.011-0.11-0.015-0.154
			c-0.003-0.046-0.007-0.081-0.009-0.109c-0.066-0.609-0.248-1.053-0.544-1.334c-0.298-0.28-0.651-0.398-1.059-0.355
			c-0.397,0.044-0.709,0.205-0.932,0.481c-0.223,0.276-0.311,0.62-0.267,1.031c0.02,0.182,0.076,0.426,0.169,0.729L24.043,104.556z"
			/>
		<path d="M20.422,99.547l-0.028-1.742l4.754-4.005l-3.705,0.06c-0.394,0.006-0.641,0.055-0.736,0.144
			c-0.13,0.12-0.194,0.305-0.19,0.558l0.003,0.223l-0.175,0.003l-0.037-2.235l0.175-0.003l0.004,0.228
			c0.004,0.272,0.09,0.463,0.255,0.574c0.102,0.067,0.334,0.098,0.693,0.093l5.414-0.089l0.002,0.17l-5.104,4.319l3.955-0.064
			c0.395-0.007,0.641-0.053,0.737-0.141c0.131-0.122,0.194-0.308,0.189-0.556l-0.003-0.229l0.175-0.004l0.037,2.237l-0.175,0.003
			l-0.003-0.224c-0.004-0.274-0.089-0.467-0.255-0.577c-0.103-0.068-0.334-0.099-0.693-0.094l-4.467,0.073
			c-0.215,0.19-0.356,0.332-0.424,0.431c-0.068,0.096-0.131,0.241-0.187,0.428c-0.027,0.093-0.039,0.23-0.036,0.418H20.422z"/>
		<path d="M25.094,87.275l-0.251,2.475l0.964,0.537c0.238,0.132,0.417,0.204,0.541,0.216c0.097,0.01,0.188-0.027,0.271-0.113
			c0.084-0.085,0.151-0.28,0.206-0.586l0.173,0.019l-0.204,2.013l-0.175-0.019c-0.019-0.272-0.063-0.451-0.13-0.537
			c-0.136-0.175-0.424-0.385-0.866-0.626l-5.031-2.781l0.018-0.165l5.542-1.685c0.446-0.135,0.74-0.271,0.882-0.404
			c0.142-0.132,0.234-0.329,0.277-0.587l0.173,0.018l-0.256,2.521l-0.174-0.019c0.013-0.255-0.012-0.432-0.074-0.529
			c-0.064-0.096-0.147-0.151-0.251-0.161c-0.138-0.015-0.363,0.026-0.674,0.122L25.094,87.275z M24.733,87.372l-2.693,0.821
			l2.469,1.375L24.733,87.372z"/>
		<path d="M22.158,78.827l1.493,0.209l-0.033,0.176c-0.267-0.015-0.462-0.003-0.584,0.034c-0.198,0.063-0.355,0.167-0.471,0.31
			c-0.115,0.144-0.197,0.347-0.246,0.607l-0.169,0.888l4.823,0.912c0.389,0.073,0.639,0.077,0.75,0.011
			c0.152-0.093,0.25-0.262,0.298-0.508l0.041-0.218l0.171,0.032l-0.505,2.677l-0.172-0.033l0.042-0.224
			c0.051-0.266,0.005-0.47-0.135-0.614c-0.087-0.086-0.308-0.163-0.661-0.23l-4.821-0.91l-0.143,0.759
			c-0.057,0.294-0.074,0.508-0.054,0.641c0.029,0.173,0.116,0.332,0.262,0.479c0.146,0.146,0.36,0.258,0.641,0.333l-0.034,0.177
			l-1.465-0.354L22.158,78.827z"/>
		<path d="M29.282,76.33l0.17,0.046l-0.709,2.659l-0.169-0.046l0.059-0.219c0.068-0.256,0.043-0.463-0.075-0.618
			c-0.078-0.1-0.303-0.199-0.675-0.298l-4.01-1.068c-0.313-0.084-0.527-0.119-0.639-0.106c-0.084,0.01-0.166,0.056-0.246,0.135
			c-0.109,0.114-0.184,0.246-0.223,0.392l-0.059,0.22l-0.168-0.046l0.708-2.659l0.168,0.044l-0.06,0.224
			c-0.066,0.254-0.041,0.458,0.078,0.614c0.078,0.102,0.302,0.203,0.674,0.302l4.009,1.068c0.314,0.083,0.527,0.119,0.639,0.106
			c0.084-0.01,0.167-0.057,0.248-0.14c0.108-0.112,0.182-0.241,0.221-0.387L29.282,76.33z"/>
		<path d="M24.566,70.165c0.279-0.786,0.82-1.361,1.621-1.723c0.802-0.363,1.649-0.388,2.542-0.07
			c0.918,0.327,1.579,0.889,1.98,1.685c0.4,0.795,0.454,1.606,0.161,2.43c-0.296,0.833-0.84,1.428-1.635,1.784
			c-0.793,0.356-1.66,0.367-2.601,0.033c-0.96-0.342-1.628-0.949-2.003-1.818C24.306,71.73,24.284,70.957,24.566,70.165z
			 M24.861,70.366c-0.192,0.542-0.146,1.047,0.14,1.518c0.354,0.585,1.015,1.05,1.978,1.392c0.988,0.352,1.823,0.41,2.505,0.178
			c0.52-0.181,0.875-0.537,1.063-1.07c0.203-0.568,0.147-1.117-0.165-1.645c-0.311-0.527-0.944-0.963-1.9-1.302
			c-1.035-0.369-1.879-0.439-2.534-0.212C25.43,69.409,25.066,69.789,24.861,70.366z"/>
		<path d="M26.244,66.027l0.76-1.569l6.047-1.437l-3.335-1.613c-0.355-0.172-0.597-0.24-0.723-0.202
			c-0.17,0.047-0.311,0.185-0.421,0.412l-0.096,0.201l-0.157-0.076l0.973-2.013l0.157,0.076l-0.1,0.205
			c-0.118,0.244-0.127,0.454-0.03,0.628c0.062,0.107,0.253,0.239,0.578,0.395l4.875,2.358l-0.074,0.154l-6.501,1.56l3.561,1.722
			c0.355,0.172,0.596,0.241,0.72,0.207c0.172-0.05,0.313-0.188,0.42-0.413l0.1-0.205l0.157,0.076l-0.973,2.013l-0.157-0.076
			l0.097-0.201c0.119-0.247,0.129-0.458,0.031-0.632c-0.06-0.106-0.252-0.238-0.577-0.395l-4.022-1.945
			c-0.277,0.073-0.467,0.138-0.572,0.194s-0.225,0.156-0.36,0.298c-0.065,0.07-0.139,0.189-0.22,0.356L26.244,66.027z"/>
		<path d="M35.856,57.146l-1.317,2.109l0.628,0.907c0.155,0.224,0.285,0.368,0.39,0.434c0.083,0.051,0.181,0.057,0.292,0.019
			c0.112-0.039,0.26-0.185,0.441-0.436l0.149,0.093l-1.071,1.715l-0.149-0.093c0.101-0.252,0.143-0.432,0.12-0.541
			c-0.043-0.217-0.21-0.531-0.5-0.943l-3.287-4.717l0.089-0.141l5.716,0.934c0.459,0.075,0.783,0.084,0.969,0.027
			c0.186-0.056,0.355-0.192,0.508-0.406l0.148,0.093l-1.342,2.149l-0.148-0.093c0.125-0.224,0.181-0.393,0.166-0.508
			c-0.014-0.115-0.065-0.2-0.154-0.255c-0.117-0.073-0.337-0.136-0.659-0.188L35.856,57.146z M35.49,57.073l-2.779-0.452l1.61,2.324
			L35.49,57.073z"/>
		<path d="M41.313,50.276l0.121-0.103l1.042,1.501l-3.043,3.934L39.296,55.5l0.147-0.19c0.167-0.214,0.215-0.422,0.147-0.623
			c-0.039-0.114-0.203-0.283-0.493-0.507l-3.278-2.537c-0.318-0.246-0.542-0.364-0.677-0.356c-0.186,0.013-0.353,0.114-0.502,0.307
			l-0.148,0.19l-0.138-0.107l1.779-2.3l0.139,0.107c-0.211,0.268-0.333,0.476-0.364,0.625c-0.032,0.149-0.022,0.275,0.026,0.377
			s0.225,0.27,0.527,0.503l3.192,2.471c0.207,0.16,0.365,0.25,0.474,0.271c0.075,0.01,0.149-0.006,0.224-0.05
			c0.073-0.042,0.237-0.228,0.489-0.556l0.288-0.371c0.301-0.389,0.485-0.686,0.548-0.887c0.065-0.202,0.075-0.424,0.028-0.667
			C41.657,50.958,41.528,50.649,41.313,50.276z"/>
		<path d="M43.448,41.02l1.574,1.569l-0.125,0.123c-0.342-0.261-0.653-0.429-0.936-0.503c-0.281-0.074-0.572-0.068-0.869,0.019
			c-0.297,0.088-0.548,0.235-0.753,0.44c-0.232,0.232-0.354,0.497-0.362,0.789c-0.01,0.294,0.075,0.531,0.257,0.711
			c0.139,0.139,0.313,0.217,0.522,0.235c0.306,0.028,0.859-0.078,1.658-0.32c0.652-0.197,1.117-0.313,1.394-0.347
			c0.277-0.034,0.54-0.01,0.789,0.071c0.249,0.082,0.464,0.212,0.645,0.393c0.344,0.344,0.508,0.773,0.49,1.289
			c-0.018,0.517-0.236,0.984-0.654,1.405c-0.132,0.131-0.266,0.245-0.402,0.341c-0.08,0.058-0.264,0.161-0.552,0.309
			c-0.289,0.147-0.46,0.25-0.519,0.308c-0.056,0.056-0.083,0.116-0.082,0.183c0,0.066,0.046,0.159,0.136,0.28l-0.124,0.125
			l-1.559-1.556l0.124-0.125c0.384,0.269,0.707,0.434,0.967,0.497c0.26,0.064,0.544,0.048,0.854-0.048
			c0.308-0.095,0.583-0.264,0.825-0.505c0.279-0.28,0.425-0.574,0.439-0.883c0.014-0.31-0.08-0.563-0.281-0.765
			c-0.112-0.112-0.255-0.193-0.43-0.245c-0.175-0.053-0.377-0.063-0.605-0.032c-0.154,0.02-0.534,0.115-1.139,0.287
			c-0.606,0.172-1.057,0.275-1.35,0.31c-0.293,0.035-0.561,0.017-0.802-0.054c-0.241-0.072-0.455-0.2-0.643-0.389
			c-0.327-0.325-0.483-0.731-0.469-1.217c0.015-0.485,0.214-0.921,0.6-1.308c0.241-0.242,0.556-0.438,0.944-0.591
			c0.18-0.069,0.296-0.13,0.348-0.181c0.058-0.058,0.088-0.123,0.09-0.195c0.001-0.071-0.038-0.17-0.121-0.298L43.448,41.02z"/>
		<path d="M49.264,36.146l1.024,1.109l-0.138,0.115c-0.197-0.181-0.354-0.295-0.474-0.344c-0.193-0.077-0.379-0.097-0.559-0.059
			c-0.181,0.038-0.372,0.143-0.576,0.313l-0.692,0.582l3.153,3.759c0.254,0.302,0.445,0.463,0.574,0.485
			c0.177,0.024,0.36-0.044,0.552-0.204l0.17-0.143l0.112,0.134l-2.086,1.751l-0.113-0.134l0.175-0.146
			c0.207-0.175,0.302-0.361,0.284-0.561c-0.012-0.122-0.133-0.32-0.365-0.597l-3.153-3.759l-0.593,0.497
			c-0.229,0.192-0.379,0.346-0.447,0.462c-0.087,0.151-0.121,0.33-0.101,0.536c0.02,0.206,0.115,0.427,0.285,0.664l-0.138,0.116
			l-0.91-1.203L49.264,36.146z"/>
		<path d="M55.755,36.75l-2.04,1.424l0.223,1.081c0.055,0.267,0.117,0.45,0.188,0.55c0.056,0.081,0.144,0.125,0.262,0.132
			s0.311-0.068,0.578-0.228l0.101,0.145l-1.658,1.158l-0.101-0.145c0.193-0.192,0.3-0.341,0.322-0.45
			c0.045-0.216,0.015-0.571-0.091-1.064l-1.174-5.628L52.5,33.63l4.892,3.102c0.394,0.249,0.688,0.383,0.881,0.404
			c0.194,0.021,0.403-0.038,0.626-0.174L59,37.106l-2.078,1.45l-0.101-0.144c0.203-0.157,0.32-0.291,0.352-0.402
			c0.031-0.111,0.019-0.208-0.041-0.294c-0.081-0.114-0.258-0.258-0.533-0.431L55.755,36.75z M55.445,36.539l-2.379-1.505
			l0.57,2.769L55.445,36.539z"/>
		<path d="M61.498,28.204l1.12,1.697l-0.146,0.079c-0.391-0.362-0.763-0.592-1.118-0.689c-0.513-0.139-1.032-0.065-1.559,0.223
			c-0.716,0.394-1.107,0.976-1.169,1.75c-0.051,0.65,0.106,1.306,0.469,1.969c0.294,0.538,0.667,0.97,1.118,1.299
			c0.451,0.329,0.901,0.504,1.35,0.526c0.45,0.021,0.852-0.065,1.207-0.26c0.206-0.113,0.393-0.25,0.559-0.409
			c0.165-0.159,0.309-0.338,0.433-0.541l-0.894-1.628c-0.155-0.282-0.277-0.456-0.369-0.519c-0.091-0.064-0.194-0.093-0.309-0.09
			c-0.115,0.003-0.286,0.067-0.513,0.192l-0.086-0.157l2.181-1.196l0.086,0.157l-0.104,0.056c-0.216,0.119-0.325,0.272-0.327,0.46
			c0.001,0.133,0.085,0.351,0.25,0.652l0.945,1.724c-0.224,0.347-0.469,0.645-0.735,0.895s-0.589,0.479-0.968,0.688
			c-1.087,0.597-2.105,0.702-3.054,0.314c-0.71-0.291-1.254-0.778-1.629-1.461c-0.272-0.497-0.413-1.036-0.424-1.621
			c-0.015-0.696,0.146-1.323,0.479-1.884c0.28-0.468,0.701-0.855,1.264-1.164c0.205-0.113,0.399-0.198,0.585-0.257
			c0.186-0.058,0.464-0.115,0.833-0.17c0.187-0.027,0.307-0.055,0.359-0.084c0.053-0.029,0.083-0.077,0.095-0.147
			c0.01-0.069-0.02-0.177-0.088-0.322L61.498,28.204z"/>
		<path d="M68.684,31.941l0.072,0.16l-2.512,1.124l-0.071-0.16l0.208-0.093c0.242-0.108,0.386-0.258,0.432-0.448
			c0.028-0.124-0.038-0.361-0.194-0.712l-1.694-3.789c-0.133-0.297-0.239-0.485-0.319-0.563c-0.061-0.059-0.148-0.095-0.261-0.108
			c-0.157-0.012-0.305,0.013-0.444,0.075l-0.207,0.093l-0.073-0.16l2.513-1.124l0.072,0.161l-0.211,0.095
			c-0.24,0.106-0.382,0.256-0.428,0.445c-0.031,0.125,0.032,0.363,0.188,0.714l1.693,3.789c0.134,0.297,0.24,0.484,0.32,0.563
			c0.061,0.059,0.149,0.094,0.265,0.105c0.155,0.014,0.302-0.011,0.44-0.073L68.684,31.941z"/>
		<path d="M67.122,25.743l1.645-0.579l5.304,3.239l-1.23-3.494c-0.132-0.372-0.256-0.59-0.372-0.653
			c-0.154-0.086-0.35-0.087-0.589-0.003l-0.21,0.074l-0.058-0.166l2.108-0.743l0.059,0.166l-0.215,0.075
			c-0.256,0.09-0.41,0.232-0.463,0.425c-0.032,0.118,0.011,0.347,0.131,0.687l1.799,5.107l-0.162,0.057l-5.713-3.473l1.313,3.731
			c0.131,0.373,0.253,0.59,0.367,0.654c0.156,0.084,0.354,0.085,0.589,0.002l0.214-0.075l0.058,0.166l-2.108,0.743l-0.059-0.166
			l0.211-0.074c0.259-0.091,0.415-0.233,0.466-0.426c0.032-0.118-0.011-0.348-0.13-0.688l-1.485-4.212
			c-0.249-0.144-0.43-0.232-0.543-0.266c-0.113-0.033-0.268-0.047-0.464-0.042c-0.096,0.004-0.231,0.037-0.408,0.099L67.122,25.743z
			"/>
		<path d="M80.682,21.563l0.624,1.937l-0.162,0.038c-0.279-0.454-0.577-0.775-0.892-0.964c-0.457-0.273-0.978-0.341-1.562-0.204
			c-0.797,0.187-1.328,0.644-1.595,1.371c-0.223,0.613-0.249,1.288-0.076,2.022c0.14,0.597,0.382,1.114,0.728,1.552
			c0.346,0.438,0.732,0.728,1.159,0.87c0.427,0.141,0.838,0.167,1.232,0.074c0.23-0.054,0.447-0.135,0.648-0.243
			c0.201-0.109,0.389-0.243,0.562-0.404l-0.424-1.809c-0.073-0.314-0.145-0.513-0.215-0.599c-0.071-0.086-0.162-0.143-0.273-0.17
			s-0.294-0.011-0.546,0.048l-0.041-0.175l2.422-0.566l0.04,0.175l-0.115,0.027c-0.24,0.056-0.386,0.174-0.437,0.355
			c-0.035,0.128-0.013,0.36,0.065,0.695l0.448,1.914c-0.309,0.273-0.625,0.495-0.95,0.665c-0.323,0.17-0.695,0.304-1.118,0.403
			c-1.208,0.282-2.217,0.111-3.025-0.519c-0.606-0.47-0.998-1.086-1.176-1.846c-0.129-0.55-0.12-1.108,0.025-1.675
			c0.174-0.673,0.497-1.235,0.968-1.687c0.396-0.374,0.905-0.635,1.529-0.781c0.228-0.054,0.438-0.083,0.633-0.09
			c0.195-0.006,0.477,0.014,0.848,0.059c0.188,0.025,0.311,0.03,0.369,0.016c0.059-0.014,0.102-0.052,0.132-0.115
			c0.027-0.064,0.028-0.175,0.001-0.334L80.682,21.563z"/>
		<path d="M90.219,24.749l-2.477,0.215l-0.347,1.048c-0.085,0.258-0.122,0.448-0.112,0.571c0.01,0.098,0.063,0.179,0.163,0.244
			c0.099,0.066,0.304,0.097,0.614,0.092l0.016,0.174l-2.016,0.176l-0.015-0.175c0.263-0.07,0.431-0.147,0.504-0.23
			c0.147-0.165,0.298-0.486,0.453-0.966l1.791-5.462l0.165-0.014l2.692,5.13c0.217,0.412,0.404,0.675,0.561,0.79
			c0.158,0.114,0.368,0.168,0.63,0.162l0.016,0.175l-2.524,0.22l-0.015-0.175c0.252-0.035,0.422-0.092,0.504-0.172
			c0.082-0.08,0.121-0.172,0.112-0.276c-0.012-0.138-0.094-0.351-0.246-0.639L90.219,24.749z M90.056,24.411l-1.312-2.491
			l-0.888,2.683L90.056,24.411z"/>
		<path d="M93.409,20.229l1.742,0.035l3.831,4.894l0.073-3.703c0.01-0.395-0.031-0.642-0.118-0.742
			c-0.113-0.135-0.296-0.205-0.551-0.21l-0.221-0.004l0.003-0.175l2.235,0.044l-0.004,0.175l-0.229-0.004
			c-0.269-0.005-0.466,0.073-0.581,0.234c-0.07,0.1-0.111,0.33-0.119,0.69l-0.106,5.413l-0.168-0.003l-4.134-5.255l-0.078,3.955
			c-0.008,0.395,0.031,0.641,0.114,0.74c0.117,0.136,0.301,0.206,0.549,0.211l0.229,0.004l-0.005,0.174l-2.236-0.044l0.003-0.174
			l0.223,0.004c0.274,0.005,0.47-0.073,0.588-0.235c0.07-0.099,0.109-0.329,0.117-0.69l0.088-4.466
			c-0.182-0.221-0.32-0.368-0.415-0.439c-0.096-0.072-0.235-0.139-0.42-0.203c-0.091-0.03-0.229-0.047-0.417-0.051L93.409,20.229z"
			/>
		<path d="M100.97,26.841l0.021-0.173l0.239,0.03c0.271,0.035,0.472-0.027,0.606-0.186c0.083-0.095,0.146-0.322,0.191-0.682
			l0.524-4.117c0.05-0.398,0.038-0.652-0.036-0.764c-0.105-0.154-0.279-0.245-0.519-0.277l-0.241-0.03l0.022-0.174l2.594,0.33
			c0.951,0.121,1.662,0.321,2.132,0.6c0.468,0.279,0.823,0.69,1.061,1.233c0.24,0.542,0.316,1.145,0.232,1.806
			c-0.112,0.887-0.477,1.593-1.092,2.12c-0.688,0.588-1.651,0.802-2.889,0.645L100.97,26.841z M102.848,26.611
			c0.386,0.139,0.714,0.225,0.983,0.258c0.729,0.094,1.362-0.085,1.906-0.535c0.545-0.45,0.873-1.112,0.983-1.986
			c0.113-0.88-0.038-1.605-0.454-2.173c-0.416-0.568-0.998-0.901-1.748-0.996c-0.282-0.036-0.611-0.031-0.982,0.014L102.848,26.611z
			"/>
		<path d="M117.363,30.165l-1.652-0.463l-1.28-3.479c-0.157-0.038-0.283-0.07-0.381-0.098c-0.04-0.011-0.083-0.023-0.127-0.038
			c-0.046-0.014-0.094-0.03-0.14-0.046l-0.504,1.796c-0.11,0.39-0.135,0.644-0.078,0.762c0.079,0.166,0.234,0.282,0.465,0.346
			l0.241,0.068l-0.047,0.168l-2.649-0.744l0.048-0.168l0.233,0.065c0.261,0.074,0.472,0.041,0.632-0.097
			c0.091-0.076,0.186-0.291,0.284-0.645l1.122-3.994c0.11-0.389,0.135-0.643,0.077-0.761c-0.082-0.167-0.239-0.283-0.473-0.349
			l-0.232-0.066l0.048-0.168l2.252,0.634c0.657,0.184,1.128,0.368,1.413,0.552c0.284,0.184,0.499,0.434,0.645,0.752
			c0.145,0.318,0.168,0.655,0.067,1.01c-0.107,0.38-0.323,0.675-0.649,0.885c-0.328,0.21-0.766,0.3-1.319,0.27l0.779,2.133
			c0.177,0.49,0.353,0.831,0.523,1.023c0.173,0.193,0.424,0.355,0.749,0.487L117.363,30.165z M113.864,25.753
			c0.058,0.016,0.107,0.032,0.15,0.045c0.041,0.014,0.075,0.024,0.104,0.032c0.589,0.166,1.069,0.163,1.44-0.009
			c0.372-0.171,0.614-0.454,0.725-0.849c0.108-0.387,0.076-0.734-0.097-1.044c-0.174-0.311-0.462-0.521-0.858-0.633
			c-0.176-0.049-0.425-0.088-0.74-0.113L113.864,25.753z"/>
		<path d="M121.767,25.365l-0.919,2.366l1.315,0.512c0.341,0.132,0.59,0.17,0.744,0.112c0.204-0.075,0.384-0.281,0.534-0.616
			l0.165,0.063l-0.811,2.085l-0.165-0.063c0.073-0.308,0.104-0.511,0.095-0.609c-0.013-0.123-0.069-0.238-0.166-0.343
			c-0.098-0.106-0.272-0.207-0.521-0.305l-1.317-0.512l-0.767,1.974c-0.104,0.265-0.154,0.43-0.153,0.498
			c0.002,0.066,0.024,0.129,0.071,0.185c0.046,0.057,0.15,0.117,0.316,0.181l1.015,0.396c0.339,0.131,0.593,0.203,0.765,0.216
			c0.171,0.013,0.354-0.023,0.549-0.106c0.254-0.112,0.547-0.314,0.882-0.607l0.177,0.069l-1.102,1.3l-4.613-1.795l0.063-0.164
			l0.212,0.083c0.142,0.055,0.289,0.073,0.442,0.054c0.111-0.01,0.203-0.057,0.275-0.137c0.069-0.081,0.161-0.267,0.275-0.559
			l1.512-3.89c0.147-0.379,0.2-0.627,0.158-0.746c-0.06-0.158-0.212-0.286-0.46-0.382l-0.212-0.082l0.063-0.164l4.614,1.795
			l-0.444,1.337l-0.172-0.067c0.061-0.339,0.077-0.582,0.046-0.728c-0.027-0.148-0.104-0.28-0.228-0.399
			c-0.1-0.09-0.299-0.193-0.597-0.308L121.767,25.365z"/>
		<path d="M123.753,32.665l0.08-0.156l0.215,0.11c0.242,0.124,0.453,0.133,0.633,0.03c0.109-0.062,0.247-0.253,0.411-0.577
			l1.888-3.696c0.182-0.357,0.256-0.6,0.224-0.731c-0.047-0.18-0.179-0.325-0.395-0.436l-0.216-0.11l0.08-0.156l2.33,1.188
			c0.855,0.436,1.455,0.865,1.803,1.287s0.54,0.928,0.581,1.52c0.039,0.591-0.091,1.184-0.394,1.777
			c-0.406,0.796-0.988,1.338-1.744,1.625c-0.848,0.319-1.827,0.196-2.937-0.372L123.753,32.665z M125.598,33.085
			c0.317,0.261,0.597,0.454,0.84,0.577c0.651,0.334,1.311,0.38,1.975,0.141c0.663-0.238,1.197-0.75,1.597-1.535
			c0.403-0.79,0.506-1.524,0.309-2.199c-0.198-0.675-0.634-1.186-1.311-1.529c-0.252-0.13-0.561-0.235-0.926-0.319L125.598,33.085z"
			/>
		<path d="M135.209,32.012l-1.375,2.135l1.187,0.764c0.308,0.199,0.543,0.284,0.707,0.258c0.217-0.033,0.432-0.199,0.646-0.496
			l0.148,0.095l-1.211,1.88l-0.147-0.096c0.131-0.287,0.204-0.479,0.213-0.577c0.014-0.124-0.019-0.247-0.093-0.371
			c-0.074-0.124-0.225-0.257-0.45-0.403l-1.188-0.764l-1.146,1.78c-0.153,0.239-0.236,0.391-0.248,0.457
			c-0.013,0.065-0.002,0.13,0.031,0.195c0.033,0.064,0.125,0.145,0.274,0.241l0.914,0.59c0.306,0.197,0.541,0.317,0.707,0.365
			c0.166,0.046,0.354,0.048,0.56,0.005c0.271-0.058,0.6-0.198,0.986-0.418l0.159,0.103l-1.337,1.054l-4.163-2.681l0.096-0.148
			l0.191,0.124c0.128,0.083,0.268,0.13,0.422,0.142c0.111,0.013,0.211-0.014,0.296-0.08c0.086-0.065,0.212-0.229,0.382-0.492
			l2.26-3.509c0.221-0.342,0.322-0.576,0.304-0.7c-0.025-0.167-0.15-0.324-0.374-0.466l-0.191-0.124l0.095-0.147l4.161,2.681
			l-0.702,1.221l-0.156-0.1c0.129-0.319,0.191-0.554,0.192-0.705c0-0.149-0.048-0.295-0.145-0.436
			c-0.08-0.108-0.253-0.25-0.522-0.421L135.209,32.012z"/>
		<path d="M143.095,37.037l-1.363,1.754l-0.138-0.107c0.217-0.372,0.344-0.702,0.383-0.992c0.04-0.29-0.002-0.576-0.126-0.86
			c-0.123-0.284-0.3-0.515-0.529-0.693c-0.259-0.202-0.536-0.289-0.827-0.262c-0.293,0.027-0.517,0.14-0.675,0.343
			c-0.121,0.154-0.175,0.337-0.168,0.547c0.01,0.307,0.184,0.842,0.521,1.605c0.277,0.623,0.448,1.069,0.517,1.34
			c0.067,0.271,0.076,0.534,0.026,0.791c-0.051,0.258-0.154,0.487-0.312,0.689c-0.299,0.384-0.704,0.599-1.217,0.646
			c-0.516,0.046-1.006-0.113-1.476-0.477c-0.146-0.115-0.275-0.234-0.389-0.356c-0.068-0.072-0.193-0.242-0.375-0.51
			c-0.182-0.267-0.306-0.427-0.369-0.477c-0.063-0.048-0.128-0.068-0.193-0.058c-0.063,0.009-0.151,0.065-0.26,0.169l-0.138-0.108
			l1.352-1.739l0.139,0.107c-0.218,0.415-0.344,0.755-0.373,1.021c-0.031,0.266,0.019,0.545,0.151,0.841
			c0.132,0.295,0.334,0.548,0.604,0.757c0.312,0.241,0.621,0.351,0.93,0.326c0.309-0.023,0.551-0.148,0.725-0.373
			c0.097-0.124,0.162-0.277,0.19-0.457c0.03-0.18,0.017-0.382-0.044-0.604c-0.038-0.151-0.18-0.517-0.425-1.096
			c-0.246-0.581-0.403-1.014-0.474-1.301c-0.071-0.287-0.086-0.555-0.045-0.802c0.041-0.249,0.143-0.478,0.305-0.687
			c0.283-0.364,0.667-0.569,1.151-0.616c0.483-0.045,0.939,0.099,1.371,0.434c0.271,0.209,0.504,0.498,0.704,0.864
			c0.09,0.17,0.165,0.278,0.222,0.323c0.064,0.051,0.133,0.072,0.203,0.065c0.072-0.006,0.166-0.059,0.282-0.156L143.095,37.037z"/>
		<path d="M142.508,45.011l-0.118,0.13l-2.051-1.836l0.117-0.131l0.169,0.151c0.198,0.177,0.394,0.248,0.586,0.212
			c0.124-0.024,0.314-0.181,0.57-0.467l2.77-3.091c0.216-0.242,0.345-0.417,0.384-0.521c0.028-0.08,0.024-0.174-0.01-0.281
			c-0.054-0.149-0.135-0.275-0.248-0.376l-0.169-0.151l0.117-0.131l2.05,1.836l-0.117,0.13l-0.172-0.155
			c-0.196-0.175-0.391-0.244-0.581-0.209c-0.127,0.022-0.317,0.177-0.576,0.464l-2.769,3.092c-0.217,0.243-0.344,0.415-0.383,0.521
			c-0.03,0.08-0.025,0.175,0.012,0.285c0.052,0.147,0.133,0.271,0.246,0.372L142.508,45.011z"/>
		<path d="M151.807,45.349l-1.354,1.517l-0.114-0.12c0.25-0.47,0.378-0.889,0.38-1.257c0.005-0.531-0.199-1.015-0.613-1.449
			c-0.564-0.593-1.228-0.82-1.99-0.684c-0.642,0.118-1.237,0.437-1.783,0.956c-0.444,0.423-0.767,0.894-0.971,1.413
			c-0.203,0.52-0.257,1-0.163,1.439c0.093,0.44,0.279,0.807,0.558,1.1c0.163,0.172,0.343,0.317,0.539,0.436
			c0.196,0.119,0.407,0.212,0.633,0.28l1.345-1.279c0.235-0.223,0.371-0.386,0.408-0.489c0.038-0.104,0.041-0.211,0.008-0.322
			c-0.031-0.111-0.137-0.26-0.316-0.447l0.131-0.124l1.713,1.802l-0.13,0.125l-0.081-0.085c-0.17-0.179-0.347-0.244-0.527-0.198
			c-0.13,0.035-0.318,0.17-0.567,0.408l-1.426,1.354c-0.392-0.127-0.742-0.288-1.053-0.482s-0.615-0.447-0.914-0.76
			c-0.854-0.899-1.215-1.857-1.082-2.872c0.1-0.762,0.432-1.411,0.997-1.948c0.409-0.39,0.896-0.665,1.459-0.824
			c0.668-0.19,1.315-0.197,1.943-0.018c0.522,0.151,1.005,0.46,1.447,0.924c0.161,0.169,0.294,0.336,0.398,0.501
			c0.104,0.165,0.229,0.419,0.377,0.761c0.074,0.174,0.131,0.283,0.173,0.327c0.041,0.043,0.096,0.062,0.166,0.055
			s0.166-0.063,0.289-0.167L151.807,45.349z"/>
		<path d="M153.057,46.938l1.059,1.384l-1.44,6.046l2.941-2.25c0.314-0.24,0.483-0.425,0.508-0.555
			c0.033-0.173-0.026-0.36-0.18-0.561l-0.135-0.176l0.139-0.107l1.359,1.776l-0.139,0.106l-0.138-0.181
			c-0.165-0.215-0.348-0.318-0.548-0.309c-0.122,0.006-0.325,0.118-0.612,0.336l-4.3,3.29l-0.104-0.135l1.536-6.506l-3.142,2.403
			c-0.314,0.24-0.483,0.424-0.51,0.55c-0.032,0.175,0.028,0.363,0.18,0.561l0.138,0.181l-0.139,0.106l-1.359-1.776l0.139-0.106
			l0.135,0.176c0.167,0.219,0.35,0.324,0.55,0.313c0.122-0.006,0.325-0.119,0.612-0.337l3.548-2.714
			c0.061-0.28,0.089-0.479,0.085-0.599c-0.003-0.119-0.038-0.27-0.102-0.454c-0.033-0.09-0.106-0.208-0.22-0.357L153.057,46.938z"/>
		<path d="M157.702,59.613l-1.63,0.919c-0.352,0.2-0.548,0.361-0.59,0.486c-0.063,0.173-0.033,0.365,0.086,0.577l0.122,0.215
			l-0.153,0.086l-1.353-2.397l0.152-0.086l0.119,0.21c0.133,0.236,0.306,0.361,0.518,0.376c0.116,0.007,0.333-0.08,0.651-0.259
			l3.614-2.041c0.352-0.198,0.55-0.358,0.593-0.481c0.06-0.175,0.03-0.37-0.089-0.581l-0.119-0.21l0.153-0.086l1.157,2.05
			c0.281,0.5,0.453,0.924,0.514,1.271c0.06,0.347,0.022,0.689-0.11,1.024c-0.133,0.336-0.367,0.599-0.702,0.788
			c-0.457,0.258-0.913,0.317-1.368,0.177c-0.456-0.14-0.839-0.485-1.151-1.035c-0.075-0.135-0.147-0.286-0.217-0.454
			C157.831,59.999,157.765,59.814,157.702,59.613z M157.937,59.481c0.056,0.162,0.107,0.302,0.157,0.423
			c0.05,0.12,0.097,0.221,0.142,0.301c0.162,0.285,0.412,0.47,0.75,0.553c0.34,0.083,0.686,0.024,1.037-0.174
			c0.242-0.137,0.438-0.313,0.59-0.529c0.151-0.217,0.228-0.445,0.229-0.684c0-0.24-0.063-0.476-0.195-0.706
			c-0.079-0.14-0.206-0.305-0.383-0.497L157.937,59.481z"/>
		<path d="M159.658,70.431l-0.701-1.566l1.854-3.211c-0.072-0.145-0.13-0.263-0.17-0.355c-0.017-0.037-0.035-0.078-0.053-0.121
			c-0.019-0.044-0.035-0.09-0.054-0.137l-1.704,0.762c-0.368,0.166-0.579,0.309-0.632,0.429c-0.078,0.167-0.068,0.358,0.029,0.578
			l0.103,0.229l-0.16,0.072l-1.124-2.512l0.16-0.072l0.099,0.221c0.11,0.248,0.271,0.389,0.479,0.424
			c0.117,0.02,0.342-0.043,0.677-0.194l3.787-1.695c0.369-0.165,0.579-0.308,0.633-0.429c0.076-0.168,0.064-0.364-0.034-0.587
			l-0.099-0.22l0.161-0.071l0.956,2.135c0.278,0.623,0.438,1.102,0.479,1.438c0.043,0.336-0.014,0.662-0.165,0.977
			c-0.15,0.315-0.396,0.548-0.732,0.699c-0.359,0.162-0.726,0.184-1.096,0.068c-0.371-0.116-0.721-0.397-1.051-0.84l-1.141,1.963
			c-0.262,0.449-0.412,0.802-0.45,1.058c-0.038,0.256-0.002,0.551,0.105,0.887L159.658,70.431z M160.808,64.918
			c0.024,0.055,0.045,0.103,0.062,0.144s0.031,0.075,0.042,0.101c0.251,0.559,0.56,0.927,0.93,1.103
			c0.369,0.175,0.741,0.179,1.115,0.011c0.366-0.165,0.613-0.412,0.739-0.743c0.128-0.332,0.104-0.687-0.063-1.064
			c-0.074-0.167-0.204-0.381-0.386-0.643L160.808,64.918z"/>
		<path d="M167.13,72.054c0.26,0.792,0.185,1.578-0.228,2.355s-1.068,1.313-1.968,1.608c-0.928,0.303-1.793,0.263-2.596-0.122
			c-0.805-0.385-1.343-0.993-1.615-1.825c-0.275-0.84-0.206-1.644,0.204-2.412c0.41-0.767,1.089-1.305,2.036-1.616
			c0.97-0.316,1.868-0.246,2.697,0.214C166.38,70.656,166.87,71.256,167.13,72.054z M166.775,72.076
			c-0.179-0.546-0.525-0.918-1.039-1.116c-0.638-0.246-1.444-0.21-2.416,0.108c-0.996,0.326-1.694,0.79-2.091,1.392
			c-0.302,0.461-0.364,0.96-0.188,1.497c0.188,0.573,0.566,0.973,1.136,1.201c0.569,0.227,1.335,0.183,2.3-0.132
			c1.044-0.341,1.756-0.801,2.135-1.38C166.91,73.181,166.964,72.659,166.775,72.076z"/>
		<path d="M168.399,78.433l-2.466,0.548l0.255,1.142c0.059,0.261,0.16,0.441,0.302,0.537c0.143,0.096,0.39,0.127,0.74,0.09
			l0.038,0.171l-2.123,0.473l-0.037-0.171c0.242-0.058,0.415-0.129,0.515-0.214c0.101-0.086,0.168-0.188,0.202-0.307
			c0.034-0.119,0.026-0.283-0.021-0.493l-0.253-1.143l-1.97,0.438c-0.317,0.071-0.522,0.138-0.616,0.2
			c-0.07,0.049-0.121,0.128-0.154,0.239c-0.044,0.152-0.049,0.302-0.017,0.451l0.05,0.227l-0.17,0.038l-0.601-2.691l0.172-0.039
			l0.049,0.222c0.058,0.258,0.175,0.43,0.353,0.513c0.115,0.053,0.361,0.037,0.737-0.048l4.05-0.901
			c0.317-0.071,0.522-0.137,0.616-0.2c0.069-0.048,0.122-0.126,0.157-0.233c0.044-0.149,0.05-0.299,0.017-0.45l-0.05-0.222
			l0.171-0.039l1.038,4.666l-1.365,0.366l-0.034-0.162c0.274-0.145,0.468-0.286,0.582-0.423c0.114-0.137,0.183-0.29,0.21-0.459
			c0.026-0.169,0.005-0.418-0.069-0.745L168.399,78.433z"/>
		<path d="M169.585,84.739l-2.518,0.329l0.183,1.4c0.048,0.363,0.134,0.598,0.26,0.706c0.166,0.144,0.431,0.202,0.797,0.172
			l0.022,0.173l-2.217,0.29l-0.023-0.174c0.304-0.084,0.497-0.155,0.579-0.209c0.103-0.071,0.176-0.174,0.222-0.312
			c0.046-0.137,0.052-0.337,0.017-0.604l-0.183-1.399l-2.1,0.275c-0.282,0.037-0.451,0.072-0.509,0.104
			c-0.059,0.033-0.1,0.084-0.129,0.151c-0.028,0.066-0.029,0.188-0.008,0.364l0.141,1.08c0.048,0.359,0.105,0.618,0.179,0.774
			c0.071,0.156,0.189,0.3,0.356,0.431c0.22,0.168,0.539,0.329,0.955,0.482l0.024,0.187l-1.668-0.34l-0.642-4.908l0.174-0.022
			l0.028,0.226c0.02,0.15,0.074,0.288,0.165,0.413c0.063,0.093,0.147,0.152,0.252,0.174c0.104,0.023,0.313,0.015,0.621-0.026
			l4.139-0.54c0.403-0.054,0.648-0.126,0.731-0.22c0.109-0.13,0.147-0.325,0.113-0.588l-0.029-0.226l0.174-0.022l0.641,4.908
			l-1.385,0.253l-0.024-0.183c0.326-0.109,0.547-0.212,0.661-0.309c0.116-0.096,0.195-0.227,0.241-0.392
			c0.03-0.13,0.024-0.355-0.017-0.671L169.585,84.739z"/>
		<path d="M170.845,93.992l-2.221,0.093l-0.007-0.174c0.424-0.075,0.758-0.19,1.004-0.348c0.246-0.158,0.438-0.375,0.575-0.652
			s0.201-0.561,0.188-0.851c-0.015-0.328-0.126-0.595-0.335-0.802c-0.208-0.206-0.44-0.305-0.696-0.293
			c-0.197,0.008-0.371,0.083-0.526,0.226c-0.229,0.205-0.525,0.685-0.888,1.436c-0.297,0.613-0.526,1.032-0.69,1.259
			c-0.162,0.226-0.357,0.403-0.587,0.532c-0.229,0.128-0.47,0.197-0.726,0.208c-0.485,0.02-0.913-0.151-1.281-0.512
			c-0.367-0.363-0.563-0.839-0.588-1.434c-0.008-0.187-0.001-0.362,0.02-0.527c0.013-0.099,0.062-0.304,0.146-0.615
			c0.088-0.313,0.13-0.509,0.126-0.591c-0.003-0.079-0.03-0.14-0.079-0.185c-0.05-0.042-0.147-0.073-0.297-0.089l-0.009-0.175
			l2.2-0.092l0.009,0.174c-0.458,0.102-0.798,0.227-1.021,0.375s-0.403,0.369-0.542,0.661c-0.14,0.292-0.204,0.608-0.188,0.949
			c0.017,0.395,0.133,0.701,0.353,0.921c0.218,0.22,0.469,0.324,0.752,0.313c0.158-0.007,0.316-0.057,0.473-0.15
			c0.157-0.094,0.301-0.235,0.433-0.423c0.09-0.128,0.276-0.471,0.561-1.033c0.285-0.563,0.513-0.963,0.688-1.203
			c0.173-0.24,0.368-0.424,0.583-0.553c0.216-0.129,0.457-0.199,0.722-0.21c0.461-0.019,0.865,0.141,1.213,0.479
			c0.348,0.34,0.533,0.783,0.555,1.328c0.016,0.341-0.054,0.706-0.205,1.095c-0.07,0.18-0.105,0.306-0.102,0.378
			c0.003,0.083,0.03,0.147,0.081,0.199c0.053,0.05,0.152,0.088,0.303,0.113L170.845,93.992z"/>
		<path d="M170.698,100.406l-2.22-0.093l0.007-0.175c0.429-0.038,0.772-0.127,1.031-0.264c0.259-0.135,0.468-0.335,0.627-0.601
			c0.16-0.266,0.245-0.543,0.258-0.833c0.014-0.329-0.075-0.604-0.267-0.827c-0.191-0.224-0.416-0.341-0.671-0.352
			c-0.195-0.009-0.376,0.053-0.542,0.182c-0.245,0.186-0.579,0.638-1.006,1.356c-0.347,0.585-0.611,0.985-0.793,1.197
			c-0.18,0.211-0.391,0.372-0.628,0.479c-0.238,0.108-0.486,0.158-0.741,0.147c-0.486-0.02-0.897-0.226-1.232-0.618
			c-0.337-0.393-0.492-0.883-0.467-1.476c0.008-0.187,0.028-0.361,0.063-0.524c0.021-0.097,0.088-0.299,0.199-0.602
			c0.113-0.304,0.171-0.496,0.173-0.578c0.004-0.078-0.018-0.143-0.062-0.188c-0.047-0.049-0.142-0.087-0.289-0.115l0.007-0.175
			l2.201,0.093l-0.008,0.175c-0.464,0.062-0.813,0.159-1.048,0.287c-0.236,0.13-0.434,0.335-0.597,0.613
			c-0.164,0.28-0.253,0.59-0.267,0.93c-0.018,0.395,0.074,0.711,0.272,0.948c0.198,0.238,0.44,0.363,0.725,0.376
			c0.158,0.005,0.318-0.031,0.483-0.112c0.165-0.078,0.319-0.207,0.466-0.384c0.1-0.12,0.315-0.448,0.646-0.984
			s0.592-0.916,0.785-1.14c0.193-0.226,0.401-0.392,0.627-0.503c0.227-0.111,0.472-0.161,0.737-0.149
			c0.46,0.019,0.849,0.212,1.168,0.579c0.317,0.367,0.467,0.825,0.442,1.369c-0.015,0.342-0.112,0.699-0.297,1.073
			c-0.085,0.174-0.131,0.297-0.134,0.369c-0.003,0.083,0.02,0.15,0.065,0.205c0.047,0.054,0.144,0.1,0.291,0.137L170.698,100.406z"
			/>
		<path d="M163.866,104.517l-0.175-0.02l0.305-2.736l0.174,0.02l-0.024,0.227c-0.029,0.263,0.026,0.463,0.169,0.6
			c0.091,0.087,0.327,0.151,0.712,0.194l4.122,0.459c0.323,0.034,0.541,0.039,0.649,0.009c0.081-0.022,0.155-0.08,0.223-0.169
			c0.091-0.132,0.144-0.271,0.162-0.422l0.024-0.225l0.174,0.018l-0.305,2.736l-0.174-0.02l0.025-0.23
			c0.029-0.261-0.027-0.46-0.167-0.595c-0.093-0.091-0.33-0.157-0.712-0.199l-4.124-0.458c-0.323-0.037-0.541-0.04-0.647-0.011
			c-0.084,0.021-0.158,0.08-0.225,0.176c-0.091,0.126-0.144,0.265-0.161,0.416L163.866,104.517z"/>
		<path d="M169.445,109.948c-0.159,0.817-0.608,1.466-1.347,1.945c-0.737,0.479-1.571,0.627-2.502,0.446
			c-0.958-0.186-1.695-0.643-2.21-1.37c-0.515-0.727-0.689-1.52-0.521-2.378c0.168-0.869,0.617-1.538,1.351-2.008
			c0.729-0.471,1.586-0.611,2.566-0.421c1.002,0.195,1.753,0.695,2.252,1.501C169.468,108.361,169.604,109.123,169.445,109.948z
			 M169.122,109.792c0.108-0.564-0.013-1.057-0.364-1.479c-0.438-0.527-1.159-0.888-2.163-1.082
			c-1.03-0.202-1.865-0.134-2.505,0.198c-0.488,0.255-0.786,0.66-0.893,1.216c-0.116,0.591,0.02,1.126,0.408,1.602
			c0.386,0.475,1.075,0.811,2.07,1.004c1.079,0.209,1.926,0.154,2.538-0.168C168.702,110.824,169.004,110.394,169.122,109.792z"/>
		<path d="M168.404,114.276l-0.517,1.665l-5.764,2.323l3.538,1.098c0.377,0.118,0.624,0.147,0.745,0.094
			c0.161-0.072,0.279-0.23,0.354-0.471l0.067-0.213l0.167,0.052l-0.663,2.136l-0.167-0.052l0.067-0.217
			c0.081-0.26,0.059-0.468-0.064-0.625c-0.076-0.095-0.284-0.198-0.63-0.305l-5.169-1.604l0.05-0.162l6.195-2.513l-3.777-1.173
			c-0.377-0.117-0.626-0.15-0.744-0.097c-0.162,0.076-0.28,0.233-0.354,0.472l-0.066,0.216l-0.169-0.053l0.663-2.136l0.167,0.052
			l-0.064,0.214c-0.082,0.263-0.062,0.473,0.063,0.629c0.075,0.095,0.284,0.197,0.629,0.305l4.268,1.323
			c0.263-0.114,0.441-0.206,0.537-0.278c0.095-0.07,0.198-0.187,0.311-0.348c0.055-0.078,0.109-0.207,0.166-0.386L168.404,114.276z"
			/>
		<path d="M160.219,124.499l0.989-2.281l-0.757-0.803c-0.187-0.198-0.336-0.321-0.448-0.37c-0.091-0.039-0.188-0.03-0.292,0.025
			c-0.105,0.057-0.229,0.222-0.373,0.497l-0.161-0.07l0.805-1.855l0.16,0.069c-0.063,0.266-0.075,0.449-0.037,0.553
			c0.075,0.208,0.285,0.492,0.634,0.857l3.951,4.179l-0.065,0.15l-5.794-0.075c-0.466-0.005-0.785,0.033-0.96,0.117
			c-0.177,0.085-0.323,0.242-0.442,0.477l-0.162-0.069l1.01-2.325l0.161,0.069c-0.092,0.241-0.12,0.415-0.09,0.527
			c0.03,0.111,0.094,0.188,0.19,0.229c0.127,0.058,0.354,0.086,0.679,0.09L160.219,124.499z M160.594,124.517l2.814,0.035
			l-1.938-2.06L160.594,124.517z"/>
		<path d="M155.852,132.08l-0.104,0.121l-1.254-1.331l2.428-4.342l0.152,0.087l-0.118,0.21c-0.13,0.238-0.149,0.449-0.053,0.637
			c0.057,0.108,0.244,0.25,0.564,0.43l3.618,2.022c0.35,0.196,0.59,0.28,0.722,0.252c0.182-0.04,0.332-0.167,0.449-0.378l0.119-0.21
			l0.153,0.085l-1.419,2.538l-0.154-0.086c0.169-0.296,0.258-0.521,0.27-0.671c0.009-0.154-0.02-0.276-0.084-0.369
			c-0.063-0.094-0.263-0.234-0.595-0.42l-3.523-1.969c-0.229-0.129-0.398-0.195-0.509-0.199c-0.076,0.001-0.146,0.028-0.212,0.081
			c-0.066,0.054-0.201,0.262-0.402,0.622l-0.229,0.41c-0.241,0.428-0.378,0.75-0.411,0.957c-0.034,0.209-0.011,0.432,0.071,0.664
			C155.41,131.456,155.585,131.743,155.852,132.08z"/>
	</g>
	<g>
		<circle cx="61.979" cy="161.691" r="1.667"/>
		<circle cx="129.073" cy="161.691" r="1.667"/>
	</g>
	<g>
		<path d="M78.818,169.184l-0.055,0.22l-3.45-0.87l0.057-0.22l0.284,0.072c0.333,0.085,0.599,0.048,0.798-0.109
			c0.126-0.102,0.25-0.393,0.373-0.877l1.311-5.201c0.103-0.408,0.144-0.684,0.126-0.827c-0.015-0.109-0.074-0.214-0.179-0.317
			c-0.15-0.137-0.32-0.23-0.509-0.279l-0.285-0.072l0.056-0.22l3.449,0.87l-0.055,0.219l-0.291-0.073
			c-0.329-0.082-0.592-0.046-0.792,0.11c-0.131,0.101-0.257,0.394-0.379,0.877l-1.311,5.2c-0.102,0.409-0.145,0.685-0.126,0.829
			c0.015,0.108,0.077,0.215,0.185,0.316c0.147,0.138,0.314,0.23,0.503,0.279L78.818,169.184z"/>
		<path d="M90.1,162.58l-0.325,2.853l-0.225-0.025c-0.011-0.556-0.092-1.009-0.243-1.354c-0.152-0.347-0.391-0.635-0.718-0.865
			c-0.327-0.229-0.678-0.367-1.05-0.408c-0.422-0.049-0.785,0.041-1.09,0.267c-0.306,0.227-0.476,0.505-0.514,0.831
			c-0.029,0.253,0.032,0.491,0.183,0.719c0.217,0.332,0.769,0.806,1.657,1.421c0.724,0.502,1.213,0.878,1.47,1.132
			c0.258,0.254,0.444,0.538,0.562,0.856c0.118,0.316,0.158,0.641,0.122,0.968c-0.072,0.626-0.376,1.136-0.912,1.533
			c-0.537,0.396-1.186,0.552-1.948,0.466c-0.24-0.027-0.463-0.071-0.668-0.132c-0.124-0.034-0.376-0.139-0.758-0.312
			c-0.381-0.172-0.623-0.266-0.729-0.277c-0.102-0.012-0.185,0.01-0.251,0.064c-0.065,0.054-0.123,0.175-0.174,0.361l-0.225-0.025
			l0.323-2.828l0.225,0.025c0.038,0.604,0.129,1.063,0.274,1.378c0.145,0.313,0.391,0.589,0.735,0.825
			c0.345,0.239,0.736,0.38,1.175,0.43c0.506,0.059,0.922-0.03,1.247-0.265s0.508-0.534,0.549-0.898
			c0.022-0.204-0.01-0.414-0.098-0.634c-0.087-0.219-0.238-0.432-0.454-0.638c-0.145-0.138-0.547-0.446-1.208-0.923
			c-0.661-0.476-1.127-0.848-1.399-1.116c-0.271-0.271-0.467-0.555-0.59-0.856c-0.121-0.301-0.162-0.622-0.124-0.963
			c0.067-0.592,0.353-1.077,0.855-1.452c0.503-0.376,1.104-0.524,1.807-0.446c0.438,0.051,0.89,0.212,1.357,0.482
			c0.215,0.127,0.371,0.196,0.464,0.206c0.105,0.013,0.195-0.009,0.269-0.064s0.142-0.175,0.206-0.36L90.1,162.58z"/>
		<path d="M103.424,170.963l-2.213,0.104l-2.989-3.746c-0.207,0.019-0.377,0.03-0.509,0.037c-0.051,0.002-0.108,0.004-0.168,0.005
			c-0.063,0-0.126,0-0.192-0.001l0.113,2.409c0.024,0.522,0.098,0.844,0.219,0.964c0.163,0.173,0.399,0.251,0.708,0.237l0.324-0.016
			l0.011,0.227l-3.553,0.168l-0.011-0.228l0.312-0.015c0.352-0.017,0.596-0.143,0.737-0.377c0.079-0.131,0.107-0.433,0.085-0.905
			l-0.253-5.358c-0.023-0.521-0.096-0.843-0.216-0.964c-0.168-0.171-0.409-0.25-0.722-0.235l-0.313,0.014l-0.011-0.227l3.022-0.141
			c0.88-0.042,1.534-0.009,1.958,0.1c0.423,0.109,0.788,0.329,1.1,0.66c0.308,0.331,0.471,0.734,0.494,1.212
			c0.024,0.508-0.123,0.958-0.437,1.351c-0.314,0.39-0.816,0.68-1.507,0.867l1.826,2.298c0.416,0.527,0.768,0.875,1.058,1.041
			s0.662,0.263,1.119,0.29L103.424,170.963z M97.335,166.979c0.078-0.006,0.145-0.008,0.203-0.008
			c0.056-0.001,0.102-0.003,0.14-0.004c0.791-0.037,1.38-0.237,1.766-0.599c0.385-0.359,0.564-0.806,0.54-1.338
			c-0.024-0.516-0.205-0.931-0.546-1.238c-0.339-0.309-0.776-0.452-1.309-0.426c-0.238,0.011-0.556,0.064-0.956,0.161
			L97.335,166.979z"/>
		<path d="M109.604,165.984l0.504,2.365c0.108,0.511,0.231,0.816,0.369,0.917c0.19,0.143,0.437,0.181,0.745,0.117l0.313-0.067
			l0.047,0.222l-3.479,0.74l-0.048-0.222l0.307-0.064c0.343-0.073,0.563-0.238,0.663-0.491c0.054-0.141,0.031-0.444-0.065-0.907
			l-1.118-5.246c-0.109-0.51-0.229-0.816-0.362-0.916c-0.194-0.144-0.444-0.183-0.751-0.116l-0.307,0.064l-0.047-0.223l2.977-0.633
			c0.727-0.154,1.314-0.203,1.768-0.14c0.45,0.059,0.855,0.237,1.219,0.531c0.363,0.295,0.598,0.685,0.699,1.172
			c0.144,0.663,0.039,1.248-0.309,1.757c-0.352,0.509-0.924,0.847-1.722,1.019c-0.196,0.04-0.41,0.071-0.645,0.093
			C110.128,165.976,109.875,165.984,109.604,165.984z M109.531,165.644c0.221-0.008,0.415-0.017,0.584-0.031
			c0.167-0.015,0.31-0.034,0.423-0.059c0.417-0.089,0.74-0.325,0.975-0.711c0.232-0.386,0.294-0.834,0.186-1.346
			c-0.074-0.352-0.216-0.662-0.424-0.933c-0.207-0.271-0.46-0.452-0.754-0.546c-0.296-0.094-0.611-0.104-0.947-0.033
			c-0.203,0.042-0.457,0.136-0.761,0.28L109.531,165.644z"/>
	</g>
	<g>
		<path d="M72.042,129.676c0.006,0.003-1.348,0.979-1.551,2.034c-0.197,1.052,0.251,1.683,0.853,1.688
			c0.611,0.013,1.123-0.583,1.283-1.605C72.782,130.783,72.041,129.687,72.042,129.676z M75.856,133.773
			c0.004,0.002-1.043,1.302-0.966,2.363c0.082,1.065,0.671,1.55,1.251,1.396c0.587-0.151,0.926-0.861,0.819-1.884
			C76.845,134.634,75.855,133.784,75.856,133.773z M73.821,131.861c-0.001,0-0.003-0.005-0.003-0.005
			c0.004,0.004-1.206,1.155-1.268,2.219c-0.039,0.665,0.154,1.137,0.447,1.377c0.174,0.145,0.391,0.205,0.616,0.178
			c0.603-0.072,1.033-0.73,1.06-1.76C74.694,132.851,73.818,131.871,73.821,131.861z M78.122,135.397
			c0.006,0-0.863,1.428-0.646,2.471c0.22,1.043,0.873,1.445,1.424,1.215c0.566-0.227,0.806-0.976,0.563-1.976
			C79.218,136.119,78.122,135.407,78.122,135.397z M68.022,127.027c-0.418-0.915-1.865-1.632-1.87-1.648
			c-0.004-0.016-0.685,1.523-0.208,2.577c0.467,1.04,1.216,1.324,1.767,1.025C68.265,128.679,68.443,127.96,68.022,127.027z
			 M80.584,136.708c0.005,0-0.665,1.527-0.311,2.533c0.359,1.007,1.062,1.319,1.583,1.02c0.531-0.3,0.67-1.071,0.292-2.033
			C81.768,137.278,80.584,136.717,80.584,136.708z M70.561,127.238c0.004,0.005-1.472,0.789-1.809,1.814
			c-0.334,1.028,0.031,1.717,0.626,1.808c0.608,0.096,1.194-0.425,1.487-1.421C71.152,128.455,70.554,127.249,70.561,127.238z
			 M67.217,129.919c-1.07-0.299-2.572,0.389-2.573,0.392c-0.013,0.005,0.912,1.59,2.044,1.841c1.116,0.255,1.787-0.169,1.915-0.769
			C68.731,130.776,68.289,130.21,67.217,129.919z M69.087,132.771c-1.093-0.141-2.49,0.746-2.489,0.753
			c-0.012,0.004,1.105,1.428,2.253,1.516c1.137,0.1,1.745-0.414,1.793-1.02C70.693,133.404,70.185,132.908,69.087,132.771z
			 M73.815,137.534c-1.085,0.16-2.195,1.384-2.194,1.39c-0.012,0.006,1.421,1.069,2.55,0.851c1.114-0.211,1.565-0.863,1.458-1.459
			C75.515,137.711,74.9,137.372,73.815,137.534z M76.596,139.394c-1.053,0.301-1.99,1.662-1.987,1.666
			c-0.013,0.012,1.548,0.873,2.636,0.508c1.081-0.354,1.44-1.063,1.254-1.64C78.306,139.345,77.649,139.09,76.596,139.394z
			 M71.297,135.317c-1.098,0.01-2.362,1.076-2.362,1.083l0.004,0.001c-0.012,0.009,1.274,1.258,2.422,1.189
			c1.135-0.057,1.669-0.646,1.64-1.252c-0.01-0.23-0.103-0.434-0.267-0.6C72.465,135.468,71.987,135.309,71.297,135.317z
			 M83.208,137.683c0.006-0.003-0.454,1.603,0.036,2.554c0.494,0.948,1.239,1.169,1.719,0.802c0.49-0.37,0.523-1.155,0.014-2.057
			C84.467,138.092,83.21,137.69,83.208,137.683z M79.605,140.871c-1.008,0.438-1.754,1.913-1.752,1.916
			c-0.011,0.01,1.656,0.66,2.688,0.157c1.028-0.494,1.291-1.244,1.026-1.791C81.297,140.598,80.609,140.43,79.605,140.871z
			 M85.836,142.877c-0.645,0.771-0.898,2.009-0.896,2.01c-0.008,0.015,1.803,0.205,2.688-0.56c0.15-0.13,0.276-0.259,0.38-0.389
			c0.767-0.784,1.449-1.624,2.693-1.695c0.178-0.012,0.356-0.023,0.534-0.04c0.536-0.047,0.545-0.466,0.543-0.466
			c0.001-0.002-0.098-0.398-0.615-0.352c-0.168,0.013-0.343,0.024-0.513,0.036c-1.221,0.069-1.886-0.813-2.458-1.649
			c-0.075-0.138-0.168-0.279-0.277-0.421c-0.635-0.813-1.95-1.043-1.954-1.053c0.002,0.001-0.176,1.259,0.193,2.167
			c0.178,0.447,0.427,0.862,0.714,0.892c0.235,0.022,0.476,0.042,0.714,0.057c0.506,0.033,0.54,0.441,0.54,0.441
			s-0.069,0.411-0.594,0.38c-0.247-0.019-0.491-0.037-0.74-0.061C86.495,142.147,86.153,142.492,85.836,142.877z M82.798,141.94
			c-0.943,0.567-1.49,2.128-1.486,2.132c-0.009,0.012,1.74,0.437,2.707-0.201c0.958-0.624,1.118-1.404,0.779-1.912
			C84.45,141.447,83.74,141.372,82.798,141.94z"/>
		<path d="M118.423,131.792c0.161,1.022,0.674,1.618,1.283,1.605c0.601-0.005,1.051-0.636,0.854-1.688
			c-0.205-1.056-1.558-2.031-1.552-2.034C119.011,129.687,118.268,130.783,118.423,131.792z M114.09,135.647
			c-0.106,1.023,0.231,1.733,0.82,1.885c0.579,0.154,1.17-0.33,1.25-1.396c0.078-1.061-0.97-2.361-0.966-2.363
			C115.197,133.784,114.204,134.634,114.09,135.647z M116.379,133.871c0.025,1.028,0.457,1.687,1.061,1.76
			c0.224,0.026,0.44-0.034,0.615-0.178c0.292-0.239,0.486-0.713,0.448-1.377c-0.061-1.063-1.273-2.215-1.269-2.218l-0.001,0.005
			C117.235,131.871,116.359,132.851,116.379,133.871z M111.588,137.107c-0.242,1-0.004,1.749,0.563,1.976
			c0.551,0.23,1.205-0.172,1.425-1.215c0.216-1.043-0.651-2.471-0.646-2.471C112.93,135.407,111.833,136.119,111.588,137.107z
			 M123.34,128.981c0.55,0.299,1.299,0.016,1.767-1.025c0.479-1.054-0.202-2.592-0.21-2.577c-0.003,0.017-1.448,0.732-1.867,1.648
			C122.609,127.96,122.787,128.679,123.34,128.981z M108.904,138.227c-0.38,0.962-0.239,1.734,0.293,2.034
			c0.521,0.299,1.223-0.013,1.583-1.02c0.354-1.006-0.317-2.533-0.312-2.533C110.467,136.717,109.283,137.278,108.904,138.227z
			 M120.185,129.439c0.293,0.996,0.878,1.517,1.485,1.421c0.599-0.092,0.96-0.779,0.627-1.808c-0.336-1.025-1.811-1.81-1.809-1.814
			C120.497,127.249,119.9,128.455,120.185,129.439z M122.448,131.383c0.129,0.598,0.8,1.023,1.916,0.768
			c1.132-0.25,2.059-1.836,2.045-1.841c-0.002-0.004-1.504-0.691-2.575-0.393C122.763,130.21,122.322,130.776,122.448,131.383z
			 M120.407,134.02c0.049,0.606,0.655,1.119,1.792,1.021c1.149-0.089,2.265-1.512,2.253-1.516c0.003-0.007-1.396-0.894-2.487-0.753
			C120.868,132.908,120.358,133.404,120.407,134.02z M115.421,138.315c-0.108,0.596,0.345,1.248,1.459,1.459
			c1.127,0.219,2.561-0.845,2.549-0.851c0.003-0.006-1.106-1.229-2.191-1.39C116.153,137.372,115.535,137.711,115.421,138.315z
			 M112.552,139.929c-0.188,0.578,0.173,1.286,1.253,1.64c1.088,0.364,2.65-0.497,2.635-0.508c0.005-0.004-0.934-1.366-1.985-1.667
			C113.401,139.09,112.744,139.345,112.552,139.929z M118.317,135.739c-0.165,0.166-0.255,0.369-0.268,0.6
			c-0.029,0.606,0.504,1.195,1.643,1.252c1.145,0.068,2.432-1.181,2.418-1.189l0.005-0.001c0.003-0.007-1.262-1.073-2.361-1.083
			C119.065,135.309,118.586,135.468,118.317,135.739z M106.074,138.983c-0.509,0.901-0.477,1.687,0.014,2.057
			c0.48,0.365,1.226,0.146,1.72-0.803c0.489-0.95,0.028-2.557,0.035-2.553C107.842,137.69,106.582,138.092,106.074,138.983z
			 M109.483,141.151c-0.264,0.549,0,1.299,1.025,1.792c1.034,0.504,2.701-0.147,2.688-0.158c0.004-0.003-0.743-1.476-1.752-1.915
			C110.442,140.43,109.753,140.598,109.483,141.151z M104.263,142.177c-0.248,0.023-0.491,0.043-0.74,0.06
			c-0.524,0.032-0.594-0.379-0.594-0.379s0.034-0.409,0.539-0.441c0.239-0.015,0.478-0.034,0.716-0.057
			c0.285-0.029,0.535-0.443,0.713-0.891c0.369-0.909,0.19-2.167,0.194-2.168c-0.004,0.01-1.319,0.24-1.956,1.053
			c-0.107,0.142-0.2,0.282-0.276,0.421c-0.571,0.836-1.236,1.719-2.457,1.648c-0.17-0.011-0.345-0.023-0.516-0.035
			c-0.515-0.047-0.615,0.35-0.613,0.351c-0.002-0.001,0.009,0.42,0.543,0.467c0.179,0.016,0.355,0.028,0.534,0.04
			c1.244,0.07,1.924,0.911,2.693,1.695c0.104,0.13,0.228,0.259,0.38,0.388c0.885,0.764,2.695,0.575,2.688,0.561
			c0.002-0.001-0.253-1.24-0.896-2.01C104.9,142.492,104.556,142.147,104.263,142.177z M106.253,141.959
			c-0.339,0.508-0.179,1.288,0.78,1.912c0.967,0.639,2.716,0.213,2.706,0.202c0.005-0.004-0.542-1.564-1.485-2.132
			C107.31,141.372,106.598,141.447,106.253,141.959z"/>
	</g>
	<path d="M95.606,138.694l-0.823-0.396c-1.157-0.559-28.491-14.215-40.061-59.8l-0.606-2.392l2.453,0.269
		c1.102,0.121,2.19,0.183,3.237,0.183c8.944,0,14.429-4.415,19.734-8.685c4.828-3.886,9.389-7.559,15.988-7.559
		c6.598,0,11.159,3.671,15.985,7.558c5.304,4.269,10.789,8.686,19.735,8.686c1.048,0,2.136-0.062,3.234-0.183l2.401-0.264
		l-0.546,2.353c-9.669,41.632-38.712,59.05-39.943,59.772L95.606,138.694z M58.649,79.958c10.33,37.875,32.311,52.219,36.814,54.813
		c4.633-3.057,28.082-19.997,36.987-54.814c-0.404,0.016-0.806,0.023-1.201,0.023c-10.153,0-16.385-5.016-21.882-9.441
		c-4.532-3.65-8.446-6.801-13.838-6.801c-5.391,0-9.307,3.152-13.843,6.802c-5.497,4.425-11.729,9.44-21.88,9.44
		C59.424,79.98,59.038,79.973,58.649,79.958z"/>
	<path d="M95.311,131.558l-0.641-0.402c-3.143-1.979-8.075-6.963-11.661-10.797c-6.083-6.505-14.547-18.093-20.328-36.354
		l-0.413-1.31l1.363-0.168c8.902-1.094,14.914-5.934,19.744-9.824c4.765-3.835,7.899-6.187,12.101-6.187
		c4.196,0,7.329,2.351,12.093,6.187c4.853,3.906,10.89,8.767,19.849,9.835l1.357,0.162l-0.401,1.307
		c-4.098,13.325-10.792,25.116-19.896,35.047c-5.454,5.945-9.907,10.234-12.544,12.07L95.311,131.558z M65.272,84.593
		c5.634,17.118,13.625,28.025,19.404,34.205c4.509,4.821,8.22,8.326,10.574,9.996c2.553-1.951,6.695-5.998,11.543-11.283
		c8.582-9.361,14.967-20.422,18.993-32.898c-8.853-1.439-14.814-6.24-19.649-10.133c-4.376-3.522-7.231-5.681-10.662-5.681
		c-3.437,0-6.293,2.159-10.669,5.681C79.994,78.355,74.063,83.131,65.272,84.593z"/>
	<g>
		<path d="M81.297,90.992c0.496,0,0.896-0.401,0.896-0.894v-3.972c0-1.39,1.119-2.52,2.492-2.52h2.596l-1.499,1.498
			c-0.168,0.17-0.263,0.396-0.263,0.632c0,0.237,0.096,0.467,0.264,0.633l2.393,2.392l-2.393,2.393
			c-0.168,0.167-0.263,0.396-0.263,0.633s0.096,0.464,0.264,0.633l3.029,3.024c0.175,0.173,0.403,0.258,0.633,0.258
			c0.228,0,0.46-0.085,0.633-0.258l2.391-2.391l2.377,2.391c0.175,0.173,0.404,0.258,0.634,0.258c0.229,0,0.458-0.085,0.633-0.258
			l2.395-2.391l2.388,2.391c0.177,0.169,0.408,0.258,0.638,0.258c0.229,0,0.458-0.085,0.632-0.258l3.029-3.024
			c0.167-0.169,0.262-0.396,0.262-0.633s-0.095-0.466-0.262-0.633l-2.396-2.393l2.396-2.392c0.167-0.166,0.262-0.396,0.262-0.633
			c0-0.237-0.095-0.466-0.262-0.632l-1.502-1.498h2.771c1.39,0,2.521,1.13,2.521,2.52v3.972c0,0.493,0.398,0.894,0.894,0.894
			c0.497,0,0.896-0.401,0.896-0.894v-3.972c0-2.379-1.936-4.313-4.311-4.313H86.411h-1.727c-1.153,0-2.231,0.45-3.04,1.266
			c-0.802,0.812-1.243,1.894-1.243,3.045v3.97C80.402,90.591,80.802,90.992,81.297,90.992z M99.447,89.583l-0.942,0.938l-0.88-0.877
			l-0.878-0.881l0.878-0.879l0.88-0.882l0.622,0.625l1.137,1.137L99.447,89.583z M92.468,90.52l-0.915-0.918l-0.842-0.841
			l0.879-0.879L92.469,87l0.685,0.69l1.063,1.071l-0.875,0.878L92.468,90.52z M96.361,86.614l-0.882,0.88l-0.688-0.689l-1.063-1.071
			l1.75-1.76l1.761,1.76L96.361,86.614z M92.469,84.467l-0.863-0.862h1.722L92.469,84.467z M89.443,83.974l1.764,1.76l-0.883,0.88
			l-0.881,0.881l-1.76-1.76L89.443,83.974z M89.443,93.549l-1.761-1.759l1.761-1.761l0.919,0.918l0.84,0.842L89.443,93.549z
			 M95.478,93.549l-1.753-1.759l0.873-0.881l0.881-0.879l0.882,0.879l0.878,0.881L95.478,93.549z M101.533,93.549l-1.761-1.759
			l0.84-0.842l0.919-0.918l1.761,1.761L101.533,93.549z M101.533,87.496l-0.796-0.795l-0.965-0.967l1.761-1.757l1.76,1.759
			L101.533,87.496z M98.504,84.467l-0.861-0.862h1.729L98.504,84.467z"/>
		<path d="M110.343,92.314c-3.75,0-6.804,3.05-6.804,6.796H87.512c0-3.745-3.051-6.796-6.802-6.796
			c-3.099,0-5.619,2.522-5.619,5.613c0,2.579,2.099,4.676,4.674,4.676c2.162,0,3.919-1.758,3.919-3.918
			c0-1.829-1.486-3.31-3.314-3.31c-0.496,0-0.896,0.396-0.896,0.892s0.4,0.893,0.896,0.893c0.839,0,1.523,0.686,1.523,1.525
			c0,1.173-0.954,2.125-2.128,2.125c-1.589,0-2.883-1.293-2.883-2.883c0-2.107,1.717-3.82,3.828-3.82c2.763,0,5.01,2.241,5.01,5.003
			v7.759h-1.576v-2.388c0-0.493-0.4-0.894-0.894-0.894c-0.496,0-0.896,0.4-0.896,0.894v3.283c0,0.492,0.401,0.894,0.896,0.894h3.365
			c0.496,0,0.896-0.401,0.896-0.894v-3.231h16.028v3.231c0,0.492,0.4,0.894,0.895,0.894h3.365c0.496,0,0.895-0.401,0.895-0.894
			v-3.283c0-0.493-0.398-0.894-0.895-0.894c-0.493,0-0.895,0.4-0.895,0.894v2.388h-1.576v-7.759c0-2.762,2.248-5.003,5.011-5.003
			c2.108,0,3.828,1.711,3.828,3.82c0,1.589-1.296,2.883-2.883,2.883c-1.176,0-2.128-0.952-2.128-2.125
			c0-0.84,0.683-1.525,1.521-1.525c0.497,0,0.896-0.397,0.896-0.893s-0.398-0.892-0.896-0.892c-1.827,0-3.312,1.48-3.312,3.31
			c0,2.16,1.755,3.918,3.919,3.918c2.579,0,4.674-2.097,4.674-4.676C115.958,94.837,113.442,92.314,110.343,92.314z M87.512,102.743
			v-1.842h16.027v1.842H87.512z"/>
	</g>
	<path d="M99.752,52.256l-1.003,1.002l-0.94-0.939l-0.938-0.94l0.938-0.938l0.94-0.942l0.666,0.666l1.211,1.214L99.752,52.256z
		 M92.3,53.258l-0.978-0.98l-0.9-0.899l0.941-0.938l0.941-0.942l0.731,0.735l1.134,1.144l-0.936,0.939L92.3,53.258z M96.459,49.086
		l-0.94,0.94l-0.737-0.736l-1.136-1.143l1.873-1.877l1.878,1.877L96.459,49.086z M89.071,56.487l-1.877-1.877l1.877-1.878
		l0.98,0.981l0.897,0.897L89.071,56.487z M95.519,56.487l-1.877-1.877l0.936-0.94l0.942-0.938l0.94,0.938l0.938,0.94L95.519,56.487z
		 M101.982,56.487l-1.879-1.877l0.896-0.897l0.982-0.981l1.877,1.878L101.982,56.487z"/>
	<g>
		<path d="M66.861,69.449c4.001,0,7.259-3.255,7.259-7.258c0-3.307-2.692-5.999-5.997-5.999c-2.751,0-4.991,2.239-4.991,4.989
			c0,2.308,1.876,4.184,4.181,4.184c1.953,0,3.541-1.586,3.541-3.537c0-0.529-0.429-0.955-0.958-0.955
			c-0.527,0-0.954,0.426-0.954,0.955c0,0.897-0.73,1.625-1.628,1.625c-1.25,0-2.268-1.017-2.268-2.272
			c0-1.695,1.38-3.076,3.077-3.076c2.254,0,4.084,1.834,4.084,4.086c0,2.946-2.397,5.347-5.347,5.347h-8.282v-1.68h2.548
			c0.528,0,0.954-0.428,0.954-0.954c0-0.53-0.426-0.958-0.954-0.958h-3.503c-0.526,0-0.954,0.428-0.954,0.958v3.591
			c0,0.53,0.429,0.954,0.954,0.954h3.449"/>
		<path d="M129.98,69.449h3.447c0.525,0,0.955-0.425,0.955-0.954v-3.593c0-0.527-0.43-0.956-0.955-0.956h-3.502
			c-0.528,0-0.953,0.428-0.953,0.956c0,0.528,0.426,0.954,0.953,0.954h2.544v1.682h-8.279c-2.948,0-5.346-2.399-5.346-5.347
			c0-2.254,1.831-4.084,4.085-4.084c1.693,0,3.077,1.38,3.077,3.076c0,1.253-1.018,2.273-2.27,2.273
			c-0.896,0-1.627-0.728-1.627-1.626c0-0.528-0.428-0.956-0.953-0.956s-0.955,0.428-0.955,0.956c0,1.95,1.585,3.535,3.536,3.535
			c2.306,0,4.185-1.875,4.185-4.184c0-2.749-2.24-4.989-4.991-4.989c-3.306,0-5.998,2.691-5.998,5.997
			c0,4.002,3.258,7.261,7.26,7.261"/>
	</g>
</g>
</svg>
