<?xml version="1.0" encoding="utf-8"?>
<!-- Generator: Adobe Illustrator 16.0.3, SVG Export Plug-In . SVG Version: 6.00 Build 0)  -->
<!DOCTYPE svg PUBLIC "-//W3C//DTD SVG 1.1//EN" "http://www.w3.org/Graphics/SVG/1.1/DTD/svg11.dtd">
<svg version="1.1" id="Layer_1" xmlns="http://www.w3.org/2000/svg" xmlns:xlink="http://www.w3.org/1999/xlink" x="0px" y="0px"
	 width="110px" height="110px" viewBox="0 0 110 110" enable-background="new 0 0 110 110" xml:space="preserve">
<g id="pro">
	<g>
		<path fill="#010101" d="M55,0C24.625,0,0,24.625,0,55c0,30.376,24.625,55,55,55c30.376,0,55-24.624,55-55
			C110,24.625,85.376,0,55,0z M87.412,24.022c6.716,6.837,11.23,15.84,12.393,25.851h-1.428
			c-1.154-9.638-5.523-18.302-12.003-24.886L87.412,24.022z M82.341,16.866c0.291,0.205,0.521,0.417,0.685,0.635
			s0.273,0.438,0.326,0.658c0.053,0.22,0.051,0.439-0.002,0.656c-0.055,0.218-0.152,0.428-0.295,0.631
			c-0.148,0.211-0.32,0.379-0.516,0.505c-0.193,0.126-0.405,0.204-0.635,0.231c-0.23,0.027-0.477,0.002-0.736-0.076
			s-0.531-0.217-0.814-0.417l-0.608-0.429l-1.08,1.534l-0.812-0.571l3.068-4.357L82.341,16.866z M73.018,16.145
			c0.032-0.286,0.121-0.57,0.266-0.852l1.455-2.841l0.883,0.453l-1.454,2.837c-0.093,0.182-0.151,0.358-0.179,0.53
			c-0.025,0.172-0.02,0.333,0.02,0.484c0.039,0.151,0.11,0.29,0.217,0.416c0.104,0.125,0.242,0.232,0.414,0.32
			c0.17,0.087,0.338,0.137,0.502,0.149c0.162,0.012,0.316-0.01,0.463-0.065c0.146-0.055,0.28-0.143,0.404-0.265
			c0.124-0.121,0.232-0.272,0.326-0.454l1.455-2.84l0.883,0.452l-1.456,2.84c-0.146,0.282-0.323,0.52-0.536,0.713
			c-0.214,0.193-0.451,0.333-0.709,0.419c-0.261,0.086-0.537,0.116-0.83,0.089c-0.291-0.027-0.591-0.119-0.895-0.274
			c-0.305-0.155-0.553-0.344-0.745-0.566s-0.329-0.463-0.41-0.724C73.01,16.704,72.984,16.431,73.018,16.145z M69.365,10.425
			l3.172,1.113l-0.262,0.744L70.047,11.5l-0.488,1.395l1.756,0.616l-0.252,0.72l-1.758-0.616l-0.498,1.422l2.229,0.782l-0.264,0.748
			L67.6,15.454L69.365,10.425z M62.855,8.864l0.972,0.201l-0.452,2.191l0.229,0.047c0.092,0.02,0.17,0.021,0.234,0.009
			s0.125-0.042,0.18-0.089l1.817-1.525c0.075-0.064,0.149-0.105,0.224-0.122c0.071-0.016,0.157-0.014,0.26,0.007l0.836,0.173
			l-2.204,1.806c-0.069,0.056-0.134,0.102-0.194,0.137c-0.061,0.036-0.121,0.062-0.186,0.079c0.074,0.045,0.137,0.101,0.188,0.167
			c0.054,0.066,0.103,0.146,0.146,0.24l1.308,2.818l-0.858-0.177c-0.115-0.024-0.199-0.058-0.248-0.102
			c-0.051-0.044-0.088-0.102-0.113-0.172l-1.078-2.232c-0.035-0.072-0.08-0.129-0.135-0.169s-0.137-0.071-0.247-0.094l-0.308-0.063
			L62.75,14.29l-0.971-0.201L62.855,8.864z M57.57,8.353l1.012,0.06l1.773,5.444l-0.765-0.045c-0.086-0.005-0.155-0.031-0.208-0.077
			c-0.053-0.046-0.089-0.102-0.109-0.167l-0.334-1.109l-2.203-0.13l-0.461,1.062c-0.023,0.056-0.064,0.104-0.125,0.148
			c-0.062,0.043-0.133,0.062-0.217,0.057l-0.769-0.045L57.57,8.353z M48.215,8.771c0.043-0.004,0.082-0.007,0.114-0.008
			c0.032-0.001,0.062,0.002,0.088,0.009s0.052,0.021,0.076,0.041c0.024,0.02,0.048,0.047,0.072,0.082l1.888,2.779
			c0.05,0.074,0.097,0.151,0.141,0.232c0.044,0.081,0.088,0.162,0.131,0.244c0.025-0.092,0.052-0.182,0.08-0.271
			c0.027-0.089,0.058-0.175,0.092-0.257l1.265-3.099c0.016-0.039,0.033-0.07,0.052-0.094c0.018-0.024,0.04-0.042,0.064-0.055
			c0.025-0.012,0.053-0.021,0.084-0.027c0.031-0.006,0.069-0.011,0.113-0.016l0.744-0.077l0.549,5.301l-0.869,0.09l-0.354-3.424
			c-0.007-0.064-0.012-0.134-0.016-0.209c-0.004-0.076-0.007-0.154-0.008-0.233L51.23,12.95c-0.029,0.072-0.071,0.13-0.126,0.174
			s-0.121,0.07-0.199,0.078l-0.136,0.014c-0.078,0.008-0.148-0.003-0.211-0.035c-0.063-0.032-0.116-0.08-0.16-0.145l-1.937-2.849
			c0.019,0.08,0.034,0.158,0.045,0.234c0.012,0.077,0.021,0.148,0.028,0.214l0.354,3.424l-0.869,0.09l-0.548-5.301L48.215,8.771z
			 M38.213,12.198c0.145-0.307,0.352-0.58,0.621-0.818c0.271-0.237,0.595-0.422,0.977-0.555c0.381-0.132,0.75-0.187,1.108-0.166
			c0.359,0.021,0.689,0.108,0.991,0.26c0.302,0.152,0.569,0.363,0.801,0.635s0.413,0.593,0.541,0.962
			c0.127,0.369,0.185,0.732,0.17,1.089c-0.014,0.357-0.093,0.689-0.236,0.997c-0.144,0.307-0.35,0.58-0.619,0.817
			c-0.269,0.237-0.593,0.422-0.974,0.554c-0.381,0.132-0.75,0.188-1.11,0.168c-0.359-0.02-0.69-0.106-0.994-0.258
			c-0.304-0.152-0.572-0.364-0.804-0.636s-0.412-0.592-0.54-0.961c-0.127-0.369-0.185-0.732-0.171-1.09
			C37.99,12.838,38.069,12.505,38.213,12.198z M33.377,13.673c0.323-0.167,0.616-0.278,0.881-0.331
			c0.264-0.053,0.501-0.058,0.711-0.014c0.21,0.043,0.392,0.131,0.547,0.262c0.155,0.131,0.285,0.297,0.389,0.498
			c0.083,0.159,0.137,0.322,0.164,0.488c0.027,0.166,0.026,0.33-0.002,0.491c-0.029,0.162-0.084,0.32-0.169,0.474
			s-0.196,0.301-0.334,0.439c0.144,0.005,0.287,0.046,0.428,0.122l2.091,1.132l-0.791,0.411c-0.076,0.04-0.149,0.058-0.219,0.055
			c-0.07-0.003-0.137-0.023-0.203-0.061l-1.781-0.998c-0.067-0.038-0.128-0.057-0.186-0.057c-0.058-0.001-0.129,0.021-0.217,0.066
			l-0.376,0.195l0.96,1.848l-0.88,0.457l-2.456-4.73L33.377,13.673z M28.196,16.837c0.292-0.205,0.568-0.348,0.829-0.43
			c0.261-0.081,0.504-0.109,0.729-0.084c0.225,0.025,0.431,0.1,0.617,0.224c0.187,0.124,0.351,0.288,0.494,0.491
			c0.148,0.211,0.25,0.429,0.302,0.655c0.054,0.225,0.054,0.451,0.002,0.676c-0.052,0.226-0.158,0.447-0.32,0.667
			c-0.162,0.219-0.384,0.427-0.668,0.626l-0.609,0.428l1.079,1.535l-0.812,0.57l-3.063-4.36L28.196,16.837z M23.152,24.022
			l1.037,0.965c-6.478,6.584-10.847,15.248-12.003,24.886H10.76C11.921,39.862,16.436,30.859,23.152,24.022z M9.7,55.906
			c0-0.764,0.619-1.384,1.383-1.384s1.383,0.62,1.383,1.384c0,0.764-0.62,1.383-1.383,1.383C10.318,57.289,9.7,56.67,9.7,55.906z
			 M10.721,61.693h1.436c0.308,1.951,0.749,3.859,1.311,5.715l-1.316,0.543C11.529,65.923,11.047,63.834,10.721,61.693z
			 M15.335,79.652l-0.43-0.785l2.635-2.77c0.034-0.035,0.071-0.074,0.11-0.113c0.04-0.039,0.083-0.082,0.129-0.123
			c-0.061,0.017-0.119,0.031-0.174,0.043s-0.107,0.021-0.154,0.031l-3.759,0.717l-0.43-0.785l3.881-4.01l0.399,0.729
			c0.042,0.075,0.059,0.147,0.05,0.22c-0.008,0.068-0.038,0.129-0.088,0.18l-2.361,2.326c-0.059,0.058-0.124,0.115-0.196,0.176
			c-0.072,0.061-0.149,0.123-0.231,0.188c0.1-0.033,0.196-0.061,0.288-0.084c0.092-0.023,0.179-0.043,0.261-0.057l3.299-0.612
			c0.059-0.011,0.123-0.001,0.191,0.027c0.069,0.028,0.123,0.079,0.163,0.151l0.14,0.256c0.042,0.076,0.058,0.147,0.05,0.217
			c-0.009,0.068-0.038,0.13-0.088,0.183L16.724,78.2c-0.112,0.122-0.243,0.247-0.392,0.373c0.092-0.03,0.182-0.06,0.268-0.085
			c0.086-0.026,0.168-0.049,0.244-0.068l3.232-0.734c0.062-0.016,0.127-0.008,0.194,0.023c0.067,0.03,0.121,0.082,0.16,0.155
			l0.374,0.683L15.335,79.652z M20.765,85.807c-0.337-0.029-0.664-0.131-0.978-0.303c-0.315-0.172-0.599-0.415-0.853-0.729
			c-0.253-0.313-0.432-0.643-0.535-0.986s-0.135-0.686-0.096-1.021c0.04-0.338,0.148-0.662,0.325-0.973
			c0.177-0.313,0.417-0.59,0.721-0.835c0.304-0.246,0.626-0.423,0.966-0.53c0.34-0.109,0.68-0.147,1.019-0.117
			c0.339,0.031,0.665,0.135,0.98,0.308s0.6,0.416,0.854,0.729c0.254,0.313,0.431,0.642,0.533,0.984
			c0.102,0.346,0.132,0.686,0.093,1.021c-0.04,0.336-0.148,0.658-0.325,0.97c-0.176,0.311-0.417,0.589-0.72,0.834
			c-0.304,0.246-0.625,0.423-0.967,0.532C21.441,85.798,21.103,85.837,20.765,85.807z M26.211,88.662
			c-0.174-0.026-0.35-0.081-0.527-0.165c0.044,0.138,0.054,0.286,0.031,0.444l-0.352,2.353l-0.656-0.604
			c-0.063-0.058-0.106-0.119-0.126-0.187c-0.021-0.065-0.025-0.137-0.013-0.212l0.332-2.014c0.012-0.075,0.009-0.142-0.009-0.194
			c-0.019-0.054-0.064-0.114-0.137-0.181l-0.312-0.287l-1.411,1.531l-0.729-0.672l3.61-3.92l1.195,1.102
			c0.268,0.246,0.471,0.484,0.611,0.716c0.14,0.229,0.225,0.451,0.256,0.663c0.03,0.212,0.01,0.413-0.06,0.604
			c-0.07,0.191-0.182,0.369-0.335,0.536c-0.122,0.132-0.256,0.238-0.403,0.32c-0.147,0.081-0.302,0.137-0.463,0.165
			C26.553,88.688,26.385,88.689,26.211,88.662z M30.628,91.813c0.023,0.08,0.036,0.174,0.038,0.276l0.098,3.104l-0.721-0.5
			c-0.097-0.066-0.159-0.131-0.188-0.19c-0.029-0.062-0.041-0.128-0.037-0.203l-0.117-2.476c-0.004-0.081-0.023-0.15-0.057-0.209
			s-0.098-0.119-0.191-0.184l-0.258-0.18l-1.336,1.926l-0.814-0.564l3.04-4.381l0.814,0.564l-1.275,1.837l0.191,0.134
			c0.077,0.053,0.148,0.086,0.213,0.101c0.065,0.014,0.132,0.01,0.201-0.011l2.269-0.691c0.095-0.029,0.18-0.037,0.252-0.023
			c0.073,0.014,0.152,0.049,0.237,0.107l0.703,0.486l-2.738,0.798c-0.085,0.024-0.163,0.041-0.231,0.05
			c-0.069,0.009-0.136,0.009-0.202-0.001C30.569,91.652,30.605,91.729,30.628,91.813z M47.456,74.098l-6.262,10.327
			c-1.32-0.608-2.605-1.306-3.843-2.091c-0.73-0.464-1.439-0.953-2.107-1.453c-1.365-1.021-2.641-2.146-3.826-3.357l5.83-9.615
			L47.456,74.098z M38.488,65.859l0.715-1.178l10.208,6.188l-0.714,1.179L38.488,65.859z M36.944,93.684
			c-0.042,0.004-0.085-0.008-0.128-0.029s-0.084-0.064-0.121-0.127c-0.037-0.063-0.082-0.133-0.135-0.213
			c-0.053-0.08-0.12-0.162-0.202-0.248s-0.19-0.162-0.326-0.232c-0.122-0.063-0.236-0.104-0.342-0.121s-0.203-0.016-0.292,0.004
			c-0.089,0.021-0.168,0.061-0.237,0.116c-0.068,0.058-0.125,0.13-0.17,0.217c-0.058,0.111-0.075,0.22-0.051,0.326
			c0.023,0.106,0.073,0.213,0.148,0.317c0.076,0.105,0.168,0.214,0.277,0.322c0.109,0.109,0.22,0.224,0.333,0.34
			c0.111,0.117,0.217,0.242,0.316,0.371c0.099,0.131,0.175,0.271,0.228,0.418c0.054,0.147,0.076,0.308,0.066,0.477
			c-0.009,0.17-0.064,0.354-0.166,0.55c-0.111,0.214-0.251,0.396-0.421,0.543c-0.17,0.149-0.361,0.256-0.574,0.321
			c-0.212,0.066-0.44,0.086-0.685,0.061s-0.498-0.105-0.759-0.242c-0.15-0.076-0.291-0.168-0.422-0.273
			c-0.131-0.104-0.25-0.221-0.355-0.344c-0.106-0.125-0.198-0.256-0.275-0.393c-0.077-0.137-0.137-0.275-0.18-0.417l0.474-0.29
			c0.04-0.018,0.083-0.027,0.127-0.031c0.044-0.004,0.087,0.006,0.129,0.027c0.055,0.028,0.102,0.08,0.142,0.158
			c0.041,0.077,0.089,0.166,0.147,0.266c0.058,0.1,0.133,0.201,0.228,0.308c0.093,0.104,0.222,0.198,0.385,0.284
			c0.251,0.129,0.476,0.17,0.675,0.123c0.199-0.047,0.356-0.184,0.472-0.404c0.064-0.125,0.086-0.242,0.064-0.354
			c-0.021-0.111-0.07-0.22-0.145-0.326c-0.075-0.106-0.168-0.213-0.28-0.316c-0.112-0.105-0.224-0.215-0.336-0.328
			c-0.112-0.113-0.219-0.234-0.318-0.364c-0.1-0.129-0.175-0.269-0.227-0.42c-0.051-0.151-0.07-0.317-0.056-0.497
			c0.015-0.179,0.077-0.376,0.189-0.592c0.089-0.173,0.21-0.322,0.364-0.451c0.154-0.128,0.329-0.221,0.527-0.279
			c0.197-0.058,0.412-0.074,0.644-0.053c0.231,0.023,0.47,0.1,0.717,0.228c0.279,0.145,0.514,0.321,0.705,0.53
			c0.19,0.209,0.328,0.437,0.412,0.68l-0.431,0.304C37.031,93.66,36.986,93.68,36.944,93.684z M41.627,100.085l-0.94-0.337
			l0.786-2.191l-2.353-0.844l-0.785,2.193l-0.941-0.338l1.798-5.018l0.94,0.338l-0.774,2.157l2.353,0.843l0.773-2.158l0.94,0.338
			L41.627,100.085z M52.7,70.064l-14.303-8.672l-8.658,14.278c-0.711-0.845-1.387-1.723-2.015-2.64
			c-0.959-1.403-1.816-2.891-2.546-4.42c-2.099-4.395-3.173-9.103-3.2-13.992C22.086,36.502,36.857,21.795,55,21.795
			c18.148,0,32.922,14.714,33.023,32.839c-0.049,8.017-2.988,15.679-8.312,21.681l-3.315-8.892l-16.836,6.281l4.644,12.442
			c-2.985,0.867-6.079,1.311-9.204,1.311c-3.98,0-7.894-0.717-11.573-2.098L52.7,70.064z M77.73,78.359
			c-0.142,0.133-0.278,0.271-0.42,0.399c-3.1,2.845-6.651,5.043-10.563,6.536c-0.035,0.014-0.07,0.025-0.105,0.039l-3.773-10.12
			l12.016-4.481L77.73,78.359z M49.668,99.117c-0.073,0.384-0.204,0.728-0.394,1.029c-0.19,0.303-0.423,0.553-0.701,0.746
			c-0.277,0.195-0.591,0.33-0.942,0.401c-0.352,0.072-0.725,0.071-1.121-0.004s-0.745-0.211-1.047-0.406
			c-0.302-0.196-0.546-0.436-0.733-0.719c-0.188-0.283-0.315-0.601-0.381-0.952s-0.063-0.719,0.01-1.104
			c0.073-0.383,0.204-0.727,0.394-1.028c0.19-0.304,0.424-0.554,0.703-0.747c0.278-0.195,0.593-0.329,0.946-0.4
			c0.353-0.072,0.727-0.069,1.123,0.004c0.396,0.076,0.745,0.213,1.045,0.408c0.3,0.196,0.543,0.438,0.73,0.719
			s0.313,0.599,0.379,0.949C49.744,98.365,49.74,98.732,49.668,99.117z M55.268,99.17c-0.096,0.211-0.232,0.391-0.411,0.537
			c-0.178,0.146-0.398,0.259-0.66,0.333c-0.261,0.075-0.565,0.104-0.912,0.09l-0.744-0.032l-0.081,1.875l-0.991-0.043l0.229-5.324
			l1.734,0.074c0.356,0.016,0.663,0.07,0.919,0.165s0.467,0.222,0.629,0.378c0.163,0.157,0.28,0.342,0.353,0.555
			c0.071,0.212,0.103,0.441,0.091,0.689C55.416,98.725,55.363,98.958,55.268,99.17z M64.029,100.996
			c-0.133,0.093-0.278,0.176-0.437,0.246c-0.157,0.07-0.327,0.132-0.511,0.183c-0.186,0.052-0.384,0.093-0.602,0.126
			c-0.383,0.059-0.746,0.044-1.09-0.041s-0.649-0.229-0.923-0.432c-0.271-0.203-0.497-0.46-0.68-0.771
			c-0.183-0.311-0.304-0.66-0.361-1.053c-0.06-0.396-0.05-0.77,0.029-1.118c0.079-0.351,0.22-0.661,0.421-0.936
			s0.46-0.502,0.777-0.685c0.318-0.182,0.688-0.305,1.107-0.367c0.432-0.063,0.813-0.057,1.146,0.023
			c0.334,0.08,0.626,0.206,0.875,0.377l-0.219,0.487c-0.041,0.099-0.108,0.155-0.201,0.169c-0.059,0.009-0.12-0.002-0.188-0.032
			c-0.085-0.034-0.172-0.067-0.26-0.103s-0.184-0.062-0.288-0.079c-0.104-0.021-0.218-0.031-0.344-0.034s-0.271,0.007-0.431,0.031
			c-0.26,0.039-0.487,0.117-0.686,0.236c-0.197,0.118-0.357,0.271-0.48,0.457c-0.123,0.185-0.209,0.396-0.254,0.637
			c-0.047,0.242-0.049,0.502-0.007,0.783c0.046,0.305,0.13,0.568,0.249,0.793c0.121,0.225,0.271,0.405,0.447,0.545
			c0.178,0.141,0.379,0.236,0.604,0.293c0.226,0.054,0.461,0.063,0.713,0.024c0.221-0.032,0.41-0.083,0.567-0.147
			c0.158-0.063,0.306-0.144,0.443-0.235l-0.144-0.958l-0.66,0.1c-0.063,0.01-0.115,0-0.158-0.031
			c-0.041-0.028-0.065-0.069-0.073-0.12l-0.083-0.556l1.753-0.263l0.319,2.132C64.29,100.797,64.164,100.902,64.029,100.996z
			 M69.996,99.691c-0.083,0.024-0.157,0.028-0.225,0.013c-0.068-0.015-0.131-0.048-0.189-0.097l-1.563-1.314
			c-0.059-0.049-0.115-0.079-0.172-0.091c-0.056-0.011-0.131-0.003-0.226,0.024l-0.406,0.121l0.599,1.995l-0.95,0.284l-1.527-5.105
			l1.558-0.465c0.35-0.104,0.658-0.158,0.929-0.16c0.27-0.004,0.503,0.037,0.7,0.119s0.36,0.201,0.488,0.359
			c0.129,0.157,0.225,0.345,0.289,0.563c0.053,0.172,0.074,0.342,0.069,0.51s-0.036,0.328-0.095,0.482
			c-0.058,0.152-0.144,0.297-0.254,0.434c-0.112,0.136-0.25,0.259-0.412,0.369c0.142,0.031,0.273,0.099,0.398,0.199l1.842,1.504
			L69.996,99.691z M76.381,97.038c-0.078,0.036-0.15,0.046-0.22,0.028c-0.067-0.016-0.126-0.047-0.177-0.094L75.17,96.15
			l-2.006,0.923l0.093,1.153c0.007,0.06-0.008,0.123-0.041,0.188c-0.032,0.065-0.088,0.117-0.164,0.151l-0.698,0.322l-0.324-5.717
			l0.921-0.424l4.128,3.968L76.381,97.038z M81.79,92.896c-0.069,0.328-0.206,0.637-0.413,0.927s-0.479,0.546-0.814,0.766
			l-1.705,1.112l-2.912-4.462l1.703-1.113c0.338-0.22,0.682-0.365,1.029-0.437c0.35-0.071,0.688-0.073,1.014-0.006
			c0.326,0.066,0.634,0.202,0.92,0.404c0.289,0.202,0.539,0.467,0.752,0.794c0.215,0.327,0.355,0.663,0.426,1.009
			C81.859,92.234,81.857,92.57,81.79,92.896z M86.848,89.584c-0.133,0.264-0.326,0.509-0.58,0.734
			c-0.256,0.227-0.521,0.391-0.799,0.49c-0.277,0.099-0.551,0.14-0.822,0.119c-0.271-0.02-0.535-0.096-0.791-0.229
			c-0.254-0.133-0.486-0.318-0.697-0.555l-2.12-2.386l0.741-0.659l2.117,2.383c0.136,0.151,0.278,0.271,0.43,0.358
			c0.15,0.086,0.304,0.138,0.458,0.156c0.155,0.021,0.31,0.002,0.465-0.052c0.155-0.053,0.306-0.143,0.448-0.27
			c0.144-0.128,0.25-0.266,0.32-0.414c0.069-0.146,0.105-0.3,0.107-0.455c0.001-0.154-0.032-0.313-0.102-0.474
			c-0.067-0.159-0.17-0.315-0.306-0.468l-2.12-2.387l0.741-0.658l2.12,2.387c0.211,0.236,0.367,0.488,0.471,0.758
			c0.103,0.27,0.146,0.54,0.133,0.813C87.05,89.051,86.979,89.322,86.848,89.584z M92.012,84.175
			c-0.057,0.065-0.117,0.105-0.188,0.12c-0.068,0.014-0.135,0.01-0.199-0.013l-1.087-0.4l-1.429,1.683l0.57,1.008
			c0.03,0.052,0.045,0.113,0.043,0.188c-0.002,0.073-0.029,0.144-0.084,0.207l-0.498,0.587l-2.707-5.045l0.655-0.773l5.417,1.854
			L92.012,84.175z M93.958,81.441l-3.771-2.483l-0.887,1.345l-0.681-0.447l2.313-3.512l0.68,0.448l-0.883,1.339l3.771,2.483
			L93.958,81.441z M96.38,77.479l-4.776-2.363l1.492-3.014l0.706,0.351l-1.048,2.116l1.324,0.656l0.824-1.668l0.686,0.34
			l-0.826,1.666l1.352,0.67l1.048-2.117l0.711,0.352L96.38,77.479z M98.249,67.682l-1.329-0.508
			c0.528-1.781,0.945-3.609,1.241-5.479h1.437C99.285,63.739,98.831,65.738,98.249,67.682z M99.412,57.006
			c-0.764,0-1.383-0.619-1.383-1.383c0-0.764,0.619-1.383,1.383-1.383s1.384,0.619,1.384,1.383
			C100.796,56.387,100.176,57.006,99.412,57.006z"/>
		<g>
			<path fill="#010101" d="M54.202,97.73c-0.085-0.086-0.194-0.151-0.328-0.2c-0.133-0.05-0.29-0.077-0.472-0.085l-0.744-0.032
				l-0.083,1.911l0.744,0.031c0.182,0.009,0.341-0.008,0.478-0.047c0.137-0.039,0.252-0.101,0.344-0.182
				c0.092-0.081,0.163-0.181,0.212-0.301c0.049-0.119,0.077-0.254,0.084-0.403c0.006-0.143-0.011-0.272-0.05-0.39
				C54.348,97.917,54.286,97.816,54.202,97.73z"/>
			<path fill="#010101" d="M48.483,97.489c-0.112-0.188-0.263-0.341-0.451-0.464s-0.41-0.209-0.666-0.258
				c-0.256-0.049-0.494-0.05-0.715-0.004c-0.221,0.045-0.418,0.135-0.592,0.267c-0.174,0.132-0.321,0.305-0.441,0.519
				c-0.121,0.215-0.208,0.465-0.262,0.751c-0.055,0.288-0.065,0.554-0.031,0.796c0.034,0.242,0.108,0.457,0.221,0.643
				c0.114,0.186,0.266,0.34,0.455,0.463s0.411,0.209,0.667,0.258s0.494,0.05,0.714,0.004c0.22-0.046,0.416-0.135,0.588-0.266
				c0.172-0.131,0.318-0.305,0.438-0.518c0.12-0.215,0.206-0.465,0.26-0.752c0.055-0.287,0.065-0.552,0.032-0.795
				C48.667,97.891,48.595,97.676,48.483,97.489z"/>
			<path fill="#010101" d="M22.854,82.506c-0.064-0.216-0.178-0.425-0.342-0.627c-0.164-0.202-0.345-0.357-0.543-0.466
				c-0.198-0.108-0.406-0.168-0.624-0.181c-0.218-0.012-0.442,0.025-0.672,0.11c-0.229,0.085-0.458,0.22-0.686,0.403
				c-0.228,0.186-0.407,0.38-0.538,0.587c-0.131,0.207-0.213,0.418-0.246,0.634c-0.033,0.215-0.018,0.432,0.047,0.646
				c0.064,0.217,0.179,0.426,0.343,0.628c0.164,0.202,0.344,0.356,0.542,0.465c0.198,0.108,0.404,0.166,0.621,0.178
				c0.216,0.013,0.439-0.024,0.668-0.112c0.229-0.084,0.458-0.221,0.685-0.403s0.407-0.379,0.539-0.585
				c0.131-0.207,0.215-0.417,0.25-0.633C22.932,82.938,22.917,82.723,22.854,82.506z"/>
			<path fill="#010101" d="M26.589,86.22l-0.466-0.429l-1.198,1.301l0.455,0.42c0.137,0.127,0.273,0.221,0.407,0.279
				c0.134,0.059,0.261,0.089,0.383,0.09c0.122,0,0.238-0.027,0.347-0.08c0.109-0.054,0.209-0.13,0.3-0.229
				c0.184-0.199,0.259-0.412,0.226-0.641C27.009,86.706,26.858,86.468,26.589,86.22z"/>
			<path fill="#010101" d="M67.959,95.766c-0.213-0.089-0.494-0.08-0.846,0.025l-0.606,0.182l0.507,1.694l0.594-0.178
				c0.18-0.054,0.328-0.122,0.447-0.206c0.119-0.085,0.211-0.18,0.272-0.284c0.063-0.104,0.099-0.217,0.108-0.338
				s-0.004-0.246-0.043-0.376C68.316,96.025,68.171,95.854,67.959,95.766z"/>
			<path fill="#010101" d="M80.516,91.438c-0.16-0.244-0.336-0.442-0.529-0.595c-0.192-0.151-0.395-0.255-0.604-0.311
				c-0.21-0.056-0.425-0.063-0.646-0.021c-0.221,0.041-0.439,0.134-0.658,0.275l-0.866,0.565l2.052,3.143l0.866-0.566
				c0.218-0.142,0.392-0.307,0.519-0.492c0.127-0.185,0.205-0.385,0.24-0.6c0.032-0.213,0.02-0.439-0.043-0.677
				C80.785,91.923,80.675,91.682,80.516,91.438z"/>
			<path fill="#010101" d="M81.227,19.275c0.137,0.041,0.267,0.051,0.387,0.033c0.121-0.019,0.234-0.064,0.342-0.139
				c0.105-0.074,0.202-0.172,0.289-0.295c0.082-0.116,0.138-0.234,0.168-0.354c0.029-0.12,0.033-0.238,0.007-0.355
				c-0.024-0.117-0.081-0.232-0.167-0.345c-0.085-0.113-0.203-0.222-0.352-0.327l-0.608-0.429l-1.103,1.564l0.609,0.429
				C80.947,19.162,81.09,19.234,81.227,19.275z"/>
			<path fill="#010101" d="M58.186,9.936c-0.024-0.081-0.052-0.175-0.08-0.284c-0.029-0.109-0.059-0.227-0.086-0.354
				c-0.041,0.123-0.082,0.238-0.121,0.344S57.82,9.84,57.785,9.919l-0.752,1.724l1.695,0.1L58.186,9.936z"/>
			<path fill="#010101" d="M39.473,14.658c0.15,0.194,0.321,0.343,0.512,0.447s0.399,0.163,0.625,0.176
				c0.226,0.013,0.461-0.023,0.708-0.108c0.246-0.085,0.453-0.203,0.621-0.352s0.294-0.323,0.378-0.523
				c0.084-0.199,0.125-0.422,0.123-0.667c-0.003-0.245-0.052-0.505-0.148-0.781s-0.218-0.512-0.367-0.706
				c-0.149-0.194-0.319-0.344-0.509-0.45s-0.397-0.166-0.622-0.179c-0.225-0.013-0.46,0.022-0.706,0.108
				c-0.246,0.085-0.454,0.203-0.623,0.353c-0.169,0.149-0.296,0.325-0.381,0.526s-0.127,0.424-0.125,0.669
				c0.001,0.246,0.05,0.506,0.146,0.782C39.2,14.229,39.322,14.464,39.473,14.658z"/>
			<path fill="#010101" d="M72.925,94.157c0.015,0.11,0.024,0.211,0.029,0.298l0.147,1.875l1.545-0.709l-1.33-1.34
				c-0.061-0.061-0.129-0.131-0.205-0.213c-0.077-0.082-0.157-0.174-0.24-0.271C72.893,93.925,72.909,94.045,72.925,94.157z"/>
			<path fill="#010101" d="M30.086,18.7c0.084-0.115,0.139-0.232,0.162-0.353c0.024-0.12,0.019-0.243-0.015-0.368
				c-0.034-0.125-0.094-0.249-0.18-0.372c-0.082-0.117-0.174-0.209-0.277-0.278c-0.102-0.069-0.213-0.111-0.332-0.127
				c-0.119-0.016-0.247-0.002-0.382,0.041c-0.135,0.042-0.277,0.116-0.426,0.221l-0.609,0.428l1.099,1.565l0.61-0.428
				C29.885,18.924,30.002,18.815,30.086,18.7z"/>
			<path fill="#010101" d="M34.934,15.644c0.102-0.105,0.173-0.215,0.215-0.33c0.042-0.115,0.056-0.232,0.043-0.353
				c-0.013-0.121-0.05-0.241-0.113-0.361c-0.125-0.24-0.299-0.383-0.523-0.43c-0.225-0.046-0.5,0.015-0.825,0.183l-0.563,0.292
				l0.815,1.57l0.55-0.285C34.699,15.845,34.832,15.749,34.934,15.644z"/>
			<path fill="#010101" d="M87.814,83.28l0.926,1.638l1.1-1.296l-1.771-0.652c-0.078-0.028-0.17-0.063-0.275-0.104
				c-0.104-0.043-0.215-0.092-0.333-0.146c0.073,0.107,0.142,0.209,0.202,0.305C87.723,83.117,87.773,83.203,87.814,83.28z"/>
		</g>
		<g>
			<path fill="#010101" d="M72.641,62.539l-7.099-19.023l-1.618,0.604c-0.242-1.445-0.854-3.692-2.344-6.688
				c-2.689-5.407-5.102-6.542-5.366-6.653l-0.958-0.402l-4.929,7.075l3.845,10.308l-2.07,0.772L59.2,67.555L72.641,62.539z
				 M53.54,38.704c0.755-0.344,1.663-0.968,2.541-2.103c0.448-0.579,0.761-1.132,0.981-1.644c0.643,0.821,1.401,1.984,2.215,3.619
				c1.586,3.187,2.049,5.378,2.181,6.463l-2.254,0.841l-2.621,0.979l0,0L53.54,38.704z M57.346,49.319l6.688-2.495l5.299,14.203
				l-8.621,3.218l-5.3-14.204L57.346,49.319z"/>
			
				<rect x="60.047" y="66.69" transform="matrix(0.9369 -0.3496 0.3496 0.9369 -19.5381 27.7204)" fill="#010101" width="13.926" height="2.571"/>
		</g>
	</g>
</g>
</svg>
