<?xml version="1.0" encoding="utf-8"?>
<!-- Generator: Adobe Illustrator 16.0.3, SVG Export Plug-In . SVG Version: 6.00 Build 0)  -->
<!DOCTYPE svg PUBLIC "-//W3C//DTD SVG 1.1//EN" "http://www.w3.org/Graphics/SVG/1.1/DTD/svg11.dtd">
<svg version="1.1" id="Layer_1" xmlns="http://www.w3.org/2000/svg" xmlns:xlink="http://www.w3.org/1999/xlink" x="0px" y="0px"
	 width="110px" height="110px" viewBox="0 0 110 110" enable-background="new 0 0 110 110" xml:space="preserve">
<g id="master_makeup">
	<g>
		<path d="M55,0.478C24.888,0.478,0.477,24.888,0.477,55c0,30.111,24.411,54.521,54.523,54.521c30.111,0,54.521-24.41,54.521-54.521
			C109.521,24.888,85.111,0.478,55,0.478z M99.083,39.278l-4.21,1.51l0.715,1.991l-0.764,0.274l-1.047-2.917l4.974-1.784
			L99.083,39.278z M97.041,34.55l-3.753,4.259l-0.347-0.676c-0.039-0.076-0.053-0.148-0.039-0.216s0.041-0.127,0.088-0.178
			l0.777-0.844l-1-1.947L91.63,35.09c-0.06,0.008-0.122-0.002-0.188-0.032c-0.066-0.03-0.121-0.082-0.158-0.155l-0.348-0.679
			l5.646-0.567L97.041,34.55z M92.168,26.76c0.025,0.036,0.046,0.066,0.061,0.092s0.022,0.052,0.027,0.077
			c0.005,0.025,0.006,0.052,0.001,0.082c-0.004,0.03-0.013,0.066-0.024,0.107l-1.248,4.315c0.064-0.058,0.129-0.112,0.191-0.163
			c0.064-0.051,0.125-0.097,0.184-0.138l2.606-1.876l0.505,0.703l-4.287,3.086l-0.297-0.412c-0.046-0.063-0.074-0.123-0.084-0.179
			c-0.01-0.056-0.004-0.122,0.02-0.198l1.242-4.297c-0.059,0.052-0.119,0.101-0.179,0.149c-0.06,0.048-0.116,0.09-0.167,0.127
			l-2.634,1.895l-0.506-0.703l4.288-3.086L92.168,26.76z M86.564,21.671c0.336-0.003,0.668,0.065,0.996,0.205
			c0.328,0.139,0.633,0.351,0.914,0.635c0.28,0.284,0.488,0.591,0.623,0.92c0.135,0.33,0.198,0.662,0.192,0.997
			c-0.006,0.334-0.081,0.664-0.226,0.988c-0.144,0.324-0.353,0.622-0.627,0.895c-0.275,0.273-0.576,0.479-0.901,0.619
			c-0.325,0.14-0.656,0.213-0.992,0.216c-0.335,0.003-0.667-0.064-0.994-0.203c-0.327-0.138-0.632-0.35-0.913-0.633
			c-0.281-0.284-0.49-0.591-0.625-0.92c-0.137-0.329-0.201-0.663-0.195-1c0.006-0.337,0.08-0.667,0.225-0.991
			c0.145-0.324,0.354-0.623,0.629-0.895s0.575-0.479,0.9-0.619C85.895,21.745,86.227,21.673,86.564,21.671z M84.676,19.142
			l-3.287,4.135l-0.772-0.614l3.288-4.135L84.676,19.142z M78.232,15.622l0.437-0.68l3.508,2.25l-0.435,0.68l-1.338-0.857
			l-2.418,3.767l-0.826-0.531l2.417-3.768L78.232,15.622z M75.854,13.485l-0.41,5.661l-0.687-0.328
			c-0.075-0.037-0.13-0.086-0.161-0.148c-0.031-0.063-0.044-0.127-0.039-0.195l0.11-1.143l-1.976-0.945l-0.82,0.802
			c-0.042,0.042-0.098,0.071-0.17,0.088c-0.071,0.017-0.145,0.008-0.221-0.028l-0.688-0.33l4.154-3.868L75.854,13.485z
			 M66.766,10.082l0.492,0.15c0.042,0.013,0.077,0.025,0.104,0.037c0.027,0.012,0.05,0.027,0.068,0.044
			c0.02,0.018,0.035,0.039,0.051,0.065c0.015,0.026,0.03,0.06,0.045,0.1l1.621,4.189c0.017-0.084,0.033-0.166,0.056-0.245
			c0.021-0.079,0.04-0.152,0.062-0.22l0.938-3.071l0.826,0.253l-1.541,5.053L69,16.288c-0.074-0.022-0.132-0.053-0.175-0.091
			c-0.041-0.038-0.076-0.095-0.104-0.17l-1.613-4.171c-0.017,0.077-0.033,0.152-0.053,0.227c-0.02,0.074-0.037,0.142-0.057,0.202
			l-0.947,3.103l-0.828-0.253L66.766,10.082z M60.498,8.961l1.594,0.242c0.356,0.054,0.656,0.137,0.898,0.249
			c0.242,0.112,0.436,0.247,0.578,0.404c0.143,0.157,0.238,0.333,0.285,0.529c0.049,0.196,0.056,0.404,0.021,0.626
			c-0.025,0.176-0.077,0.338-0.152,0.486c-0.076,0.149-0.172,0.28-0.289,0.393c-0.117,0.113-0.254,0.207-0.412,0.281
			c-0.158,0.075-0.332,0.126-0.524,0.157c0.112,0.088,0.204,0.205,0.272,0.348l1.015,2.127l-0.874-0.132
			c-0.084-0.013-0.153-0.041-0.207-0.083c-0.055-0.042-0.096-0.098-0.128-0.167l-0.845-1.839c-0.031-0.069-0.069-0.12-0.114-0.154
			c-0.046-0.034-0.117-0.059-0.214-0.073l-0.414-0.063l-0.311,2.041l-0.973-0.147L60.498,8.961z M54.74,8.681l3.332,0.074
			l-0.018,0.782l-2.342-0.052l-0.033,1.464l1.846,0.041l-0.019,0.756l-1.844-0.041L55.63,13.2l2.341,0.052l-0.018,0.785
			l-3.331-0.074L54.74,8.681z M52.595,8.732l0.081,0.804l-1.581,0.159l0.447,4.453l-0.978,0.098l-0.448-4.453l-1.589,0.16
			l-0.081-0.804L52.595,8.732z M42.433,10.452c0.042-0.01,0.078-0.018,0.107-0.021c0.029-0.003,0.057-0.002,0.082,0.002
			s0.051,0.015,0.077,0.03c0.026,0.015,0.056,0.036,0.091,0.063l3.534,2.771c-0.03-0.081-0.056-0.16-0.08-0.238
			c-0.022-0.078-0.042-0.151-0.06-0.22L45.42,9.72l0.841-0.206l1.257,5.131l-0.493,0.121c-0.075,0.019-0.141,0.022-0.197,0.011
			c-0.055-0.012-0.114-0.042-0.176-0.092l-3.521-2.76c0.026,0.074,0.049,0.147,0.071,0.221c0.021,0.074,0.04,0.141,0.055,0.203
			l0.772,3.151l-0.841,0.206l-1.258-5.131L42.433,10.452z M39.401,11.459l1.845,4.951l-0.924,0.345l-1.845-4.951L39.401,11.459z
			 M31.819,14.997c0.313-0.18,0.599-0.301,0.859-0.365c0.26-0.063,0.494-0.078,0.704-0.044c0.209,0.034,0.394,0.113,0.553,0.236
			c0.16,0.123,0.295,0.282,0.406,0.477c0.089,0.154,0.15,0.313,0.184,0.476c0.033,0.163,0.04,0.326,0.019,0.486
			c-0.021,0.161-0.07,0.32-0.147,0.477c-0.077,0.157-0.182,0.307-0.313,0.45c0.143,0,0.286,0.034,0.43,0.103l2.119,1.033
			l-0.767,0.441c-0.074,0.042-0.145,0.063-0.214,0.063c-0.068,0-0.137-0.017-0.204-0.051l-1.806-0.913
			c-0.068-0.034-0.13-0.05-0.187-0.049c-0.057,0.002-0.127,0.027-0.211,0.075l-0.364,0.209l1.029,1.79l-0.852,0.489l-2.633-4.58
			L31.819,14.997z M28.4,17.147l0.474,0.622l-1.863,1.418l0.887,1.166l1.468-1.117l0.458,0.602l-1.468,1.118l0.905,1.189
			l1.864-1.418l0.476,0.625l-2.652,2.018l-3.199-4.204L28.4,17.147z M24.102,20.544l0.564,0.578l-1.137,1.111l3.128,3.201
			l-0.703,0.687l-3.128-3.201l-1.142,1.116l-0.564-0.578L24.102,20.544z M18.486,26.706c0.068-0.221,0.188-0.438,0.361-0.653
			c0.195-0.243,0.413-0.437,0.654-0.581s0.487-0.233,0.74-0.268l0.211,0.479c0.024,0.055,0.034,0.103,0.029,0.144
			c-0.005,0.042-0.022,0.081-0.053,0.119c-0.03,0.038-0.08,0.069-0.147,0.093c-0.068,0.024-0.145,0.054-0.233,0.089
			c-0.088,0.036-0.181,0.085-0.28,0.147c-0.099,0.063-0.195,0.153-0.29,0.271c-0.085,0.106-0.147,0.209-0.185,0.309
			s-0.055,0.194-0.053,0.285c0.002,0.091,0.024,0.175,0.066,0.252c0.042,0.078,0.102,0.147,0.177,0.208
			c0.097,0.078,0.199,0.116,0.308,0.113c0.108-0.002,0.221-0.029,0.338-0.082c0.117-0.053,0.239-0.122,0.368-0.207
			c0.127-0.085,0.259-0.17,0.395-0.256c0.136-0.086,0.277-0.164,0.423-0.234s0.296-0.117,0.45-0.14
			c0.154-0.023,0.313-0.014,0.476,0.028c0.164,0.042,0.33,0.132,0.501,0.269c0.187,0.149,0.335,0.321,0.446,0.515
			s0.178,0.401,0.201,0.62c0.022,0.22-0.003,0.445-0.076,0.678c-0.073,0.232-0.2,0.462-0.383,0.69
			c-0.105,0.131-0.222,0.25-0.35,0.357c-0.128,0.106-0.263,0.199-0.404,0.278c-0.142,0.079-0.286,0.142-0.434,0.19
			s-0.295,0.08-0.441,0.094l-0.189-0.517c-0.01-0.042-0.012-0.085-0.006-0.129s0.023-0.084,0.052-0.12
			c0.039-0.047,0.099-0.083,0.182-0.107s0.179-0.054,0.287-0.091c0.107-0.037,0.222-0.091,0.342-0.161
			c0.121-0.07,0.238-0.176,0.352-0.319c0.175-0.218,0.26-0.429,0.252-0.632c-0.008-0.203-0.108-0.382-0.302-0.538
			c-0.108-0.087-0.219-0.131-0.331-0.132c-0.111,0-0.227,0.025-0.345,0.077c-0.118,0.052-0.239,0.122-0.363,0.209
			c-0.124,0.088-0.252,0.176-0.384,0.263c-0.132,0.087-0.271,0.167-0.416,0.238c-0.145,0.071-0.295,0.117-0.452,0.138
			c-0.158,0.021-0.322,0.006-0.494-0.042c-0.172-0.048-0.352-0.149-0.54-0.3c-0.15-0.121-0.272-0.268-0.366-0.442
			c-0.095-0.174-0.151-0.363-0.168-0.566C18.394,27.138,18.419,26.926,18.486,26.706z M15.583,30.741l5.592,0.971l-0.395,0.649
			c-0.045,0.073-0.099,0.122-0.164,0.146c-0.065,0.024-0.131,0.031-0.197,0.019l-1.126-0.223l-1.137,1.871l0.716,0.896
			c0.038,0.046,0.062,0.105,0.071,0.178c0.01,0.073-0.007,0.145-0.05,0.216l-0.396,0.652l-3.437-4.518L15.583,30.741z
			 M11.097,40.006c0.016-0.041,0.031-0.075,0.045-0.104c0.014-0.029,0.03-0.053,0.049-0.073c0.019-0.021,0.042-0.037,0.07-0.049
			c0.028-0.012,0.063-0.021,0.104-0.025l3.311-0.374c0.087-0.01,0.177-0.015,0.268-0.017c0.091-0.001,0.183-0.002,0.274-0.002
			c-0.069-0.064-0.136-0.129-0.201-0.195c-0.066-0.065-0.127-0.132-0.184-0.199L12.7,36.429c-0.027-0.032-0.046-0.061-0.059-0.088
			c-0.013-0.027-0.019-0.055-0.019-0.082c0-0.027,0.005-0.056,0.015-0.086c0.01-0.031,0.022-0.066,0.039-0.107l0.276-0.688
			l4.904,1.966l-0.322,0.804l-3.168-1.27c-0.058-0.024-0.122-0.051-0.19-0.083c-0.069-0.031-0.139-0.065-0.208-0.101l2.188,2.597
			c0.049,0.059,0.081,0.123,0.095,0.191c0.013,0.068,0.005,0.139-0.024,0.211l-0.05,0.125c-0.029,0.072-0.072,0.128-0.129,0.169
			c-0.056,0.04-0.123,0.064-0.2,0.073l-3.394,0.384c0.079,0.021,0.154,0.044,0.226,0.069c0.073,0.025,0.14,0.05,0.201,0.074
			l3.168,1.27l-0.322,0.804l-4.904-1.965L11.097,40.006z M10.093,55.898c0-0.757,0.614-1.373,1.371-1.373
			c0.757,0,1.371,0.614,1.371,1.373c0,0.757-0.614,1.371-1.371,1.371C10.707,57.27,10.093,56.655,10.093,55.898z M14.149,76.711
			l3.093-1.439c0.058-0.027,0.122-0.056,0.191-0.084c0.069-0.027,0.142-0.056,0.215-0.082l-3.39-0.183
			c-0.077-0.005-0.145-0.024-0.204-0.063c-0.059-0.035-0.105-0.09-0.138-0.16l-0.057-0.123c-0.033-0.07-0.045-0.141-0.035-0.209
			c0.009-0.068,0.037-0.135,0.084-0.196l2.042-2.735c-0.068,0.041-0.137,0.08-0.205,0.116c-0.068,0.035-0.132,0.067-0.191,0.095
			l-3.093,1.441l-0.366-0.783l4.789-2.231l0.313,0.672c0.019,0.041,0.033,0.075,0.044,0.104c0.011,0.029,0.018,0.059,0.02,0.086
			c0.001,0.025-0.003,0.056-0.014,0.084c-0.01,0.028-0.028,0.061-0.053,0.094l-1.993,2.67c-0.054,0.068-0.111,0.14-0.172,0.206
			c-0.062,0.067-0.124,0.135-0.186,0.202c0.094-0.008,0.187-0.012,0.28-0.015c0.092-0.003,0.183-0.002,0.271,0.003l3.313,0.182
			c0.041,0.003,0.076,0.009,0.105,0.019c0.028,0.009,0.052,0.024,0.072,0.043s0.037,0.042,0.053,0.07
			c0.015,0.026,0.033,0.062,0.051,0.101l0.313,0.672l-4.789,2.231L14.149,76.711z M18.051,82.938
			c-0.048-0.069-0.07-0.141-0.066-0.209c0.004-0.069,0.026-0.133,0.064-0.188l0.668-0.934L17.484,79.8l-1.113,0.281
			c-0.058,0.017-0.121,0.013-0.192-0.008c-0.07-0.021-0.129-0.066-0.176-0.136l-0.43-0.629l5.534-1.266l0.566,0.83l-3.194,4.691
			L18.051,82.938z M23.567,84.959c-0.068-0.007-0.133-0.021-0.194-0.045c0.032,0.079,0.051,0.16,0.055,0.243
			c0.004,0.085-0.004,0.177-0.023,0.276l-0.586,3.023l-0.587-0.643c-0.079-0.086-0.125-0.16-0.14-0.226
			c-0.014-0.063-0.012-0.133,0.009-0.204l0.43-2.42c0.014-0.078,0.011-0.148-0.01-0.213s-0.069-0.138-0.144-0.221l-0.209-0.229
			l-1.714,1.569l-0.664-0.727l3.899-3.568l0.664,0.725l-1.636,1.497l0.155,0.17c0.063,0.068,0.125,0.116,0.185,0.146
			c0.06,0.027,0.125,0.039,0.196,0.031l2.345-0.17c0.099-0.008,0.182,0.004,0.25,0.032c0.067,0.028,0.135,0.081,0.205,0.156
			l0.573,0.625l-2.821,0.17C23.714,84.966,23.635,84.965,23.567,84.959z M27.956,89.891l-1.413-1.188l-0.961,1.145l1.793,1.508
			l-0.505,0.601l-2.551-2.144l3.399-4.045l2.551,2.145l-0.503,0.599l-1.793-1.507l-0.942,1.121l1.413,1.188L27.956,89.891z
			 M40.531,74.906l-1.935,2.713l-10.341-7.378l1.935-2.712L40.531,74.906z M35.813,68.508l10.3-14.526l2.007,1.425l-10.3,14.526
			L35.813,68.508z M37.117,79.691l-1.169,1.64c-2.903-2.174-5.434-4.815-7.484-7.813L37.117,79.691z M32.889,94.508
			c-0.228,0.172-0.474,0.287-0.738,0.35c-0.265,0.062-0.54,0.065-0.826,0.013c-0.286-0.054-0.573-0.171-0.858-0.353
			c-0.286-0.182-0.514-0.392-0.684-0.627c-0.17-0.236-0.283-0.486-0.339-0.752c-0.056-0.265-0.055-0.537,0.003-0.815
			c0.058-0.279,0.171-0.552,0.339-0.817l1.695-2.671l0.83,0.526l-1.693,2.669c-0.108,0.171-0.183,0.339-0.225,0.507
			c-0.041,0.167-0.049,0.327-0.025,0.479c0.025,0.152,0.083,0.297,0.176,0.43c0.092,0.134,0.219,0.252,0.379,0.354
			c0.16,0.102,0.32,0.166,0.481,0.193c0.161,0.025,0.315,0.02,0.464-0.022c0.148-0.04,0.29-0.114,0.423-0.224
			c0.134-0.107,0.255-0.248,0.364-0.419l1.696-2.671l0.829,0.527l-1.696,2.67C33.316,94.118,33.118,94.336,32.889,94.508z
			 M39.486,95.089c-0.105,0.231-0.241,0.429-0.407,0.588c-0.166,0.158-0.358,0.272-0.577,0.341c-0.219,0.069-0.462,0.09-0.73,0.063
			c-0.269-0.029-0.559-0.114-0.871-0.256l-0.672-0.306l-0.77,1.691l-0.894-0.406l2.186-4.81l1.567,0.712
			c0.322,0.146,0.583,0.311,0.784,0.493c0.201,0.182,0.347,0.376,0.438,0.58s0.13,0.418,0.119,0.641
			C39.646,94.643,39.588,94.865,39.486,95.089z M47.1,97.314c-0.06,0.25-0.157,0.467-0.291,0.653
			c-0.133,0.188-0.301,0.334-0.503,0.443c-0.202,0.108-0.438,0.174-0.706,0.196c-0.268,0.021-0.57-0.008-0.903-0.09l-0.717-0.175
			l-0.44,1.808l-0.955-0.232l1.251-5.133l1.672,0.406c0.343,0.084,0.63,0.197,0.861,0.338c0.231,0.144,0.412,0.306,0.539,0.488
			c0.128,0.186,0.207,0.387,0.236,0.607C47.173,96.848,47.159,97.076,47.1,97.314z M51.678,101.525
			c-0.084-0.01-0.155-0.033-0.211-0.073c-0.056-0.04-0.101-0.095-0.135-0.161l-0.925-1.801c-0.035-0.067-0.075-0.117-0.122-0.148
			c-0.047-0.031-0.119-0.054-0.215-0.063l-0.418-0.045l-0.22,2.052l-0.977-0.104l0.562-5.252l1.603,0.172
			c0.358,0.039,0.662,0.107,0.909,0.209c0.248,0.102,0.446,0.228,0.596,0.377c0.149,0.151,0.252,0.323,0.309,0.518
			c0.057,0.193,0.072,0.4,0.049,0.624c-0.019,0.177-0.063,0.342-0.131,0.493c-0.069,0.15-0.16,0.285-0.271,0.404
			c-0.112,0.117-0.245,0.217-0.399,0.299c-0.154,0.082-0.327,0.142-0.517,0.181c0.116,0.083,0.212,0.194,0.288,0.335l1.107,2.081
			L51.678,101.525z M59.297,99.962c-0.117,0.334-0.289,0.626-0.515,0.875s-0.5,0.446-0.824,0.593
			c-0.324,0.147-0.687,0.228-1.084,0.24c-0.399,0.016-0.767-0.041-1.103-0.164c-0.333-0.124-0.623-0.302-0.865-0.535
			c-0.244-0.232-0.435-0.513-0.575-0.837c-0.141-0.325-0.217-0.683-0.231-1.069c-0.013-0.388,0.04-0.748,0.157-1.082
			c0.118-0.334,0.29-0.625,0.516-0.875c0.227-0.248,0.503-0.446,0.829-0.594c0.324-0.146,0.688-0.227,1.086-0.24
			s0.766,0.043,1.099,0.168s0.621,0.304,0.862,0.535c0.242,0.23,0.434,0.51,0.574,0.834c0.141,0.326,0.217,0.684,0.229,1.069
			C59.467,99.268,59.414,99.627,59.297,99.962z M62.732,101.039l-0.977,0.171l-0.908-5.204l3.282-0.572l0.136,0.77l-2.308,0.402
			l0.269,1.541l1.947-0.34l0.135,0.773l-1.947,0.34L62.732,101.039z M55.617,87.879c-6.458,0-12.486-1.872-17.573-5.102l6.04-8.467
			l-4.166-2.972L52,54.318l-2.003-1.421l3.085-4.325l1.939,1.384l1.479-2.074l-1.939-1.383l0.898-1.26l3.148,2.247l1.479-2.074
			l-3.147-2.246l0.978-1.371l3.747,2.673l1.479-2.074l-3.746-2.673l0.978-1.371l3.149,2.247l1.479-2.073l-3.148-2.247l0.898-1.259
			l1.938,1.383l1.479-2.073l-5.952-4.247l-1.479,2.074l1.938,1.383l-0.898,1.26l-3.147-2.247l-1.479,2.073l3.148,2.247l-0.979,1.37
			l-3.746-2.673l-1.479,2.074l3.747,2.673l-0.978,1.37l-3.149-2.247l-1.48,2.074l3.149,2.246l-0.899,1.26l-1.938-1.384l-1.479,2.074
			l1.939,1.383l-3.089,4.33l-2.096-1.487L33.753,66.941l-4.157-2.967l-3.669,5.144c-2.043-4.28-3.189-9.068-3.189-14.118
			c0-18.129,14.749-32.879,32.879-32.879c13.513,0,25.146,8.195,30.195,19.875C87.5,45.994,88.432,50.389,88.432,55
			c0,4.609-0.931,9-2.615,12.995c-1.498,3.465-3.573,6.622-6.105,9.353l-8.813-22.09L55.052,61.58l9.947,24.936
			C62.023,87.4,58.876,87.879,55.617,87.879z M70.954,61.984l6.875,17.233c-3.036,2.788-6.597,5.013-10.515,6.509l-7.672-19.229
			L70.954,61.984z M58.738,64.229l-0.514-1.285l11.312-4.512l0.513,1.285L58.738,64.229z M67.146,100.121l-1.527-5.059l3.189-0.963
			l0.227,0.748l-2.242,0.678l0.424,1.402l1.766-0.533l0.221,0.725l-1.768,0.533l0.434,1.431l2.24-0.678l0.229,0.752L67.146,100.121z
			 M74.73,96.879c-0.08,0.205-0.207,0.395-0.379,0.564c-0.174,0.173-0.394,0.316-0.66,0.435c-0.154,0.067-0.313,0.118-0.477,0.154
			c-0.162,0.034-0.324,0.056-0.484,0.06c-0.162,0.004-0.32-0.007-0.475-0.033c-0.152-0.024-0.298-0.065-0.434-0.121l0.072-0.545
			c0.01-0.043,0.027-0.082,0.055-0.119c0.025-0.035,0.059-0.063,0.102-0.082c0.057-0.023,0.126-0.026,0.211-0.01
			c0.084,0.018,0.184,0.034,0.295,0.053c0.113,0.017,0.239,0.021,0.379,0.017c0.14-0.007,0.293-0.047,0.461-0.12
			c0.256-0.111,0.429-0.26,0.516-0.443c0.088-0.182,0.081-0.389-0.018-0.614c-0.057-0.128-0.134-0.218-0.231-0.271
			c-0.099-0.053-0.213-0.084-0.343-0.093c-0.129-0.009-0.269-0.002-0.418,0.019c-0.15,0.021-0.305,0.039-0.463,0.055
			c-0.157,0.017-0.317,0.021-0.479,0.019s-0.315-0.032-0.465-0.088c-0.147-0.055-0.288-0.144-0.418-0.266
			c-0.129-0.123-0.241-0.296-0.339-0.517c-0.077-0.177-0.117-0.363-0.12-0.563s0.034-0.393,0.112-0.58
			c0.08-0.188,0.199-0.364,0.361-0.528c0.162-0.163,0.37-0.301,0.622-0.411c0.285-0.125,0.568-0.194,0.849-0.211
			s0.541,0.02,0.779,0.105l-0.035,0.521c-0.002,0.06-0.017,0.105-0.039,0.141c-0.023,0.033-0.058,0.062-0.103,0.08
			c-0.045,0.02-0.103,0.024-0.174,0.015s-0.153-0.021-0.248-0.028c-0.095-0.01-0.2-0.01-0.316,0s-0.243,0.047-0.383,0.105
			c-0.125,0.056-0.228,0.117-0.308,0.188c-0.078,0.071-0.139,0.146-0.178,0.229c-0.041,0.081-0.061,0.166-0.06,0.255
			c0.002,0.088,0.021,0.178,0.062,0.268c0.049,0.112,0.123,0.193,0.219,0.241c0.098,0.048,0.209,0.076,0.339,0.084
			c0.129,0.009,0.269,0.003,0.421-0.013s0.311-0.03,0.47-0.044c0.16-0.013,0.322-0.017,0.483-0.013
			c0.16,0.006,0.316,0.033,0.463,0.086c0.148,0.051,0.283,0.133,0.408,0.244c0.125,0.113,0.232,0.271,0.32,0.473
			c0.096,0.218,0.146,0.438,0.155,0.662C74.848,96.462,74.813,96.674,74.73,96.879z M79.342,94.377
			c-0.059,0.213-0.162,0.414-0.314,0.604c-0.149,0.191-0.352,0.36-0.604,0.508c-0.146,0.085-0.296,0.154-0.452,0.207
			c-0.158,0.055-0.318,0.093-0.478,0.115c-0.16,0.022-0.318,0.028-0.476,0.021c-0.154-0.008-0.303-0.031-0.442-0.07l0.008-0.551
			c0.007-0.043,0.021-0.083,0.041-0.123c0.021-0.039,0.052-0.069,0.092-0.094c0.054-0.03,0.121-0.041,0.208-0.034
			c0.086,0.008,0.188,0.014,0.301,0.018c0.112,0.006,0.238-0.004,0.377-0.025c0.139-0.023,0.285-0.08,0.443-0.172
			c0.242-0.143,0.396-0.309,0.461-0.5c0.066-0.191,0.037-0.396-0.088-0.609c-0.07-0.119-0.156-0.2-0.262-0.24
			c-0.104-0.041-0.221-0.06-0.35-0.054c-0.13,0.006-0.268,0.028-0.414,0.065c-0.147,0.037-0.299,0.074-0.453,0.107
			c-0.154,0.034-0.313,0.059-0.475,0.072c-0.16,0.015-0.318,0.003-0.472-0.034c-0.154-0.037-0.304-0.108-0.444-0.216
			c-0.145-0.107-0.275-0.266-0.396-0.475c-0.098-0.166-0.157-0.348-0.184-0.543c-0.025-0.197-0.011-0.394,0.047-0.59
			c0.055-0.195,0.154-0.386,0.297-0.565c0.144-0.183,0.332-0.343,0.57-0.48c0.27-0.157,0.543-0.26,0.818-0.308
			c0.275-0.049,0.539-0.043,0.787,0.016l0.023,0.522c0.006,0.06-0.004,0.108-0.021,0.145c-0.02,0.036-0.051,0.067-0.094,0.093
			c-0.043,0.023-0.099,0.035-0.17,0.033c-0.072-0.002-0.156-0.002-0.25-0.001c-0.096,0.002-0.199,0.015-0.313,0.037
			c-0.115,0.022-0.237,0.073-0.369,0.147c-0.117,0.07-0.212,0.144-0.282,0.223c-0.07,0.08-0.121,0.162-0.152,0.248
			c-0.029,0.085-0.039,0.172-0.027,0.26c0.011,0.088,0.042,0.174,0.091,0.258c0.063,0.107,0.146,0.18,0.246,0.217
			s0.218,0.052,0.347,0.043c0.127-0.006,0.267-0.026,0.416-0.062c0.149-0.032,0.303-0.065,0.461-0.097
			c0.157-0.031,0.317-0.055,0.479-0.067c0.161-0.013,0.317-0.003,0.47,0.031c0.153,0.034,0.299,0.101,0.436,0.196
			c0.137,0.098,0.262,0.242,0.371,0.432c0.119,0.206,0.197,0.42,0.23,0.641C79.411,93.947,79.398,94.164,79.342,94.377z
			 M81.79,93.27l-3.081-4.291l0.8-0.574l3.083,4.291L81.79,93.27z M87.141,88.698c-0.152,0.321-0.375,0.616-0.67,0.887
			c-0.296,0.271-0.609,0.466-0.945,0.589c-0.334,0.122-0.67,0.174-1.006,0.154s-0.662-0.107-0.98-0.264
			c-0.318-0.157-0.607-0.379-0.869-0.664c-0.261-0.286-0.455-0.596-0.583-0.926c-0.127-0.33-0.187-0.664-0.174-1
			c0.011-0.338,0.092-0.666,0.244-0.988c0.151-0.322,0.377-0.618,0.672-0.889c0.295-0.27,0.608-0.465,0.944-0.586
			c0.334-0.121,0.668-0.172,1.004-0.152c0.334,0.02,0.66,0.107,0.979,0.265s0.607,0.378,0.868,0.663
			c0.262,0.286,0.455,0.595,0.583,0.925c0.127,0.331,0.188,0.664,0.177,1C87.374,88.048,87.291,88.377,87.141,88.698z M92.42,82.958
			c-0.049,0.062-0.1,0.104-0.148,0.129c-0.051,0.024-0.117,0.036-0.196,0.034l-4.474-0.046c0.064,0.043,0.129,0.087,0.19,0.133
			c0.063,0.045,0.118,0.087,0.168,0.127l2.531,2.029l-0.542,0.675l-4.122-3.305l0.321-0.4c0.027-0.035,0.054-0.063,0.074-0.083
			c0.02-0.021,0.043-0.036,0.065-0.048s0.049-0.02,0.079-0.021c0.029-0.005,0.066-0.007,0.109-0.007l4.491,0.046
			c-0.073-0.046-0.143-0.092-0.208-0.141c-0.066-0.048-0.127-0.096-0.182-0.139l-2.506-2.01l0.541-0.675l4.121,3.306L92.42,82.958z
			 M96.13,77.098c-0.042,0.074-0.096,0.125-0.161,0.149c-0.064,0.026-0.129,0.033-0.195,0.022l-1.131-0.203l-1.104,1.891
			l0.732,0.885c0.039,0.044,0.063,0.104,0.074,0.176c0.01,0.072-0.005,0.146-0.047,0.217l-0.385,0.66l-3.518-4.455l0.508-0.868
			l5.607,0.87L96.13,77.098z M97.329,74.639l-4.866-2.058l0.383-0.904l4.118,1.741l0.824-1.949l0.747,0.315L97.329,74.639z
			 M99.027,57.27c-0.758,0-1.371-0.613-1.371-1.371c0-0.756,0.613-1.372,1.371-1.372c0.756,0,1.371,0.614,1.371,1.372
			C100.398,56.655,99.783,57.27,99.027,57.27z"/>
		<g>
			<path d="M57.953,97.564c-0.148-0.156-0.328-0.272-0.537-0.352c-0.208-0.078-0.441-0.113-0.699-0.104s-0.488,0.06-0.693,0.151
				c-0.203,0.093-0.375,0.222-0.515,0.388s-0.244,0.365-0.314,0.598c-0.069,0.232-0.1,0.494-0.09,0.783
				c0.01,0.289,0.059,0.549,0.144,0.775c0.086,0.228,0.204,0.418,0.354,0.572c0.149,0.155,0.33,0.271,0.539,0.35
				c0.211,0.078,0.443,0.112,0.703,0.104c0.258-0.01,0.487-0.061,0.69-0.152c0.202-0.092,0.373-0.221,0.511-0.385
				c0.139-0.165,0.241-0.361,0.311-0.596c0.068-0.232,0.099-0.494,0.088-0.783c-0.01-0.29-0.057-0.549-0.141-0.775
				C58.219,97.911,58.104,97.72,57.953,97.564z"/>
			<path d="M46.05,96.363c-0.065-0.098-0.159-0.186-0.279-0.258c-0.12-0.073-0.267-0.131-0.442-0.174l-0.717-0.176l-0.45,1.844
				l0.717,0.176c0.175,0.043,0.333,0.058,0.474,0.045c0.141-0.012,0.264-0.049,0.369-0.108s0.193-0.146,0.265-0.252
				c0.071-0.106,0.124-0.231,0.159-0.376c0.034-0.139,0.042-0.268,0.027-0.389C46.157,96.573,46.117,96.463,46.05,96.363z"/>
			<path d="M20.008,79.162l-1.809,0.455l0.95,1.391l1.089-1.521c0.048-0.067,0.105-0.146,0.173-0.234
				c0.067-0.089,0.143-0.184,0.227-0.279c-0.122,0.041-0.236,0.078-0.343,0.111C20.188,79.116,20.092,79.143,20.008,79.162z"/>
			<path d="M38.405,93.652c-0.104-0.094-0.238-0.18-0.402-0.254l-0.672-0.306l-0.785,1.728l0.672,0.305
				c0.165,0.075,0.316,0.119,0.458,0.134c0.141,0.015,0.268,0.002,0.382-0.039c0.115-0.04,0.217-0.104,0.307-0.196
				c0.089-0.092,0.165-0.207,0.227-0.342c0.059-0.127,0.092-0.254,0.099-0.375c0.007-0.123-0.012-0.238-0.058-0.349
				C38.585,93.85,38.51,93.747,38.405,93.652z"/>
			<path d="M16.732,31.795c-0.082-0.016-0.177-0.036-0.286-0.061c-0.108-0.025-0.225-0.055-0.349-0.09
				c0.088,0.094,0.17,0.183,0.244,0.266c0.075,0.084,0.138,0.16,0.191,0.229l1.161,1.458l0.875-1.439L16.732,31.795z"/>
			<path d="M51.413,98.158c0.056-0.107,0.09-0.227,0.105-0.36c0.028-0.267-0.038-0.479-0.198-0.642
				c-0.161-0.162-0.421-0.262-0.782-0.301l-0.625-0.067l-0.187,1.744l0.61,0.065c0.185,0.02,0.347,0.014,0.489-0.019
				c0.142-0.032,0.261-0.083,0.358-0.155C51.281,98.354,51.357,98.266,51.413,98.158z"/>
			<path d="M74.92,14.734c0.007-0.083,0.018-0.18,0.031-0.291c0.013-0.111,0.033-0.23,0.056-0.356
				c-0.085,0.098-0.164,0.188-0.241,0.27c-0.074,0.082-0.146,0.153-0.207,0.211l-1.336,1.301l1.519,0.728L74.92,14.734z"/>
			<path d="M91.88,76.952l1.188,1.438l0.849-1.455l-1.842-0.33c-0.082-0.016-0.179-0.033-0.287-0.057s-0.228-0.051-0.351-0.084
				c0.09,0.092,0.172,0.18,0.248,0.262S91.826,76.884,91.88,76.952z"/>
			<path d="M95.54,34.979c0.058-0.062,0.123-0.132,0.202-0.212c0.076-0.08,0.164-0.164,0.259-0.25
				c-0.126,0.026-0.244,0.049-0.354,0.069c-0.109,0.02-0.207,0.034-0.293,0.042l-1.853,0.228l0.771,1.498L95.54,34.979z"/>
			<path d="M62.188,11.689c0.145-0.025,0.266-0.071,0.365-0.139c0.1-0.067,0.18-0.153,0.24-0.257s0.102-0.222,0.121-0.355
				c0.04-0.265-0.018-0.481-0.17-0.65c-0.153-0.168-0.409-0.28-0.77-0.334l-0.619-0.095l-0.265,1.734l0.607,0.092
				C61.883,11.713,62.046,11.715,62.188,11.689z"/>
			<path d="M85.234,25.719c0.182,0.184,0.375,0.318,0.58,0.405c0.205,0.086,0.416,0.124,0.631,0.114
				c0.215-0.01,0.431-0.069,0.647-0.177c0.218-0.107,0.429-0.263,0.636-0.467c0.205-0.204,0.363-0.414,0.474-0.63
				c0.108-0.217,0.171-0.432,0.185-0.648c0.014-0.215-0.021-0.426-0.105-0.632c-0.086-0.207-0.219-0.401-0.399-0.584
				c-0.182-0.184-0.375-0.319-0.582-0.406c-0.206-0.087-0.418-0.125-0.634-0.116c-0.216,0.01-0.434,0.069-0.65,0.175
				c-0.22,0.106-0.432,0.262-0.638,0.466c-0.206,0.204-0.362,0.415-0.474,0.632c-0.107,0.217-0.168,0.434-0.18,0.649
				s0.025,0.426,0.11,0.633S85.055,25.535,85.234,25.719z"/>
			<path d="M33.445,16.882c0.096-0.108,0.162-0.22,0.199-0.335c0.037-0.115,0.046-0.232,0.028-0.351
				c-0.018-0.119-0.06-0.237-0.127-0.353c-0.133-0.232-0.313-0.367-0.537-0.403c-0.225-0.037-0.495,0.035-0.809,0.216l-0.544,0.313
				l0.874,1.521l0.532-0.306C33.22,17.091,33.349,16.991,33.445,16.882z"/>
			<path d="M85.879,86.468c-0.195-0.214-0.398-0.38-0.611-0.498c-0.211-0.118-0.425-0.188-0.639-0.21
				c-0.215-0.021-0.427,0.006-0.637,0.081c-0.209,0.075-0.409,0.201-0.602,0.375c-0.189,0.175-0.334,0.362-0.429,0.565
				c-0.095,0.201-0.142,0.412-0.142,0.629c0.002,0.216,0.052,0.436,0.148,0.658c0.098,0.222,0.245,0.439,0.439,0.654
				c0.195,0.213,0.4,0.379,0.613,0.496s0.426,0.187,0.641,0.206c0.215,0.021,0.428-0.008,0.638-0.085
				c0.21-0.076,0.411-0.201,0.603-0.376c0.189-0.175,0.334-0.362,0.428-0.563c0.095-0.201,0.141-0.409,0.141-0.625
				c-0.003-0.215-0.053-0.434-0.15-0.653C86.223,86.898,86.075,86.682,85.879,86.468z"/>
		</g>
	</g>
</g>
</svg>
