<?xml version="1.0" encoding="utf-8"?>
<!-- Generator: Adobe Illustrator 16.0.3, SVG Export Plug-In . SVG Version: 6.00 Build 0)  -->
<!DOCTYPE svg PUBLIC "-//W3C//DTD SVG 1.1//EN" "http://www.w3.org/Graphics/SVG/1.1/DTD/svg11.dtd">
<svg version="1.1" id="Layer_1" xmlns="http://www.w3.org/2000/svg" xmlns:xlink="http://www.w3.org/1999/xlink" x="0px" y="0px"
	 width="110px" height="110px" viewBox="0 0 110 110" enable-background="new 0 0 110 110" xml:space="preserve">
<g id="styling">
	<g>
		<path fill="#010101" d="M55,0.365C24.826,0.365,0.365,24.826,0.365,55S24.826,109.635,55,109.635S109.635,85.174,109.635,55
			S85.174,0.365,55,0.365z M100.532,44.314l-4.368,1l0.473,2.066l-0.791,0.181l-0.693-3.026l5.16-1.181L100.532,44.314z
			 M99.064,39.365l-4.241,3.79l-0.265-0.714c-0.029-0.08-0.035-0.153-0.014-0.22c0.021-0.066,0.057-0.122,0.107-0.167l0.875-0.746
			l-0.762-2.057l-1.15,0.005c-0.061,0.001-0.12-0.017-0.184-0.055c-0.064-0.038-0.109-0.095-0.14-0.173l-0.267-0.717l5.688,0.109
			L99.064,39.365z M94.889,30.573l0.25,0.452c0.021,0.038,0.036,0.071,0.047,0.099c0.012,0.028,0.019,0.054,0.02,0.08
			c0.002,0.025-0.001,0.053-0.01,0.082c-0.006,0.029-0.019,0.064-0.035,0.104l-1.752,4.146c0.068-0.05,0.14-0.096,0.209-0.139
			c0.07-0.042,0.136-0.081,0.197-0.115l2.815-1.559l0.42,0.759l-4.632,2.563L92.171,36.6c-0.037-0.068-0.058-0.131-0.062-0.188
			c-0.004-0.057,0.012-0.122,0.043-0.195l1.744-4.129c-0.063,0.044-0.129,0.087-0.195,0.127c-0.064,0.041-0.125,0.076-0.182,0.107
			l-2.845,1.574l-0.421-0.759L94.889,30.573z M90.167,25.307c0.334,0.037,0.657,0.145,0.967,0.322
			c0.312,0.178,0.589,0.424,0.835,0.74c0.246,0.316,0.418,0.646,0.512,0.989c0.096,0.343,0.121,0.682,0.074,1.015
			c-0.046,0.333-0.158,0.652-0.34,0.957c-0.182,0.306-0.425,0.577-0.73,0.816c-0.307,0.238-0.629,0.409-0.971,0.51
			c-0.34,0.102-0.678,0.134-1.012,0.098c-0.335-0.036-0.656-0.143-0.967-0.319c-0.309-0.176-0.587-0.422-0.833-0.738
			c-0.247-0.315-0.417-0.646-0.515-0.99c-0.097-0.344-0.123-0.684-0.076-1.018c0.046-0.334,0.158-0.654,0.341-0.959
			c0.182-0.305,0.425-0.577,0.731-0.816c0.305-0.239,0.627-0.409,0.969-0.51C89.493,25.303,89.831,25.27,90.167,25.307z
			 M88.579,22.56l-3.759,3.728l-0.697-0.702l3.76-3.728L88.579,22.56z M82.586,18.3l0.514-0.625l3.227,2.653l-0.514,0.625
			l-1.229-1.012l-2.851,3.463l-0.76-0.626l2.85-3.463L82.586,18.3z M80.479,15.896l-1.082,5.584l-0.644-0.408
			c-0.071-0.046-0.119-0.103-0.144-0.167c-0.023-0.065-0.028-0.131-0.016-0.198l0.245-1.124l-1.853-1.175l-0.911,0.7
			c-0.048,0.037-0.107,0.059-0.181,0.068c-0.072,0.008-0.146-0.01-0.215-0.054l-0.646-0.41l4.593-3.355L80.479,15.896z
			 M71.836,11.425l0.473,0.208c0.041,0.018,0.073,0.034,0.099,0.049c0.024,0.015,0.047,0.032,0.063,0.052
			c0.016,0.02,0.03,0.043,0.043,0.071c0.012,0.028,0.021,0.063,0.032,0.105l1.112,4.361c0.025-0.082,0.054-0.161,0.084-0.237
			c0.029-0.077,0.059-0.147,0.087-0.212l1.3-2.944l0.793,0.351l-2.137,4.843l-0.467-0.206c-0.07-0.031-0.125-0.069-0.162-0.112
			s-0.065-0.104-0.084-0.181l-1.108-4.343c-0.024,0.074-0.052,0.147-0.078,0.219c-0.028,0.072-0.056,0.137-0.079,0.195l-1.313,2.974
			l-0.794-0.35L71.836,11.425z M65.73,9.562l1.558,0.43c0.349,0.096,0.637,0.214,0.864,0.354c0.229,0.141,0.404,0.297,0.527,0.471
			c0.122,0.174,0.196,0.36,0.221,0.561s0.007,0.409-0.053,0.625c-0.048,0.172-0.117,0.327-0.211,0.466
			c-0.094,0.139-0.203,0.258-0.334,0.356c-0.131,0.098-0.277,0.175-0.443,0.23c-0.166,0.056-0.346,0.086-0.541,0.094
			c0.102,0.102,0.179,0.228,0.229,0.379l0.759,2.237l-0.854-0.236c-0.082-0.022-0.147-0.058-0.196-0.107
			c-0.049-0.049-0.084-0.11-0.107-0.182l-0.621-1.93c-0.022-0.072-0.055-0.128-0.096-0.167s-0.108-0.072-0.203-0.098l-0.405-0.113
			l-0.552,1.994l-0.948-0.262L65.73,9.562z M60.039,8.604l3.307,0.466l-0.109,0.776l-2.323-0.328l-0.205,1.454l1.831,0.258
			l-0.105,0.75l-1.83-0.258l-0.211,1.483l2.325,0.327l-0.11,0.78l-3.306-0.466L60.039,8.604z M53.713,8.333l4.178,0.07l-0.015,0.809
			l-1.593-0.027l-0.075,4.484l-0.985-0.017l0.075-4.484l-1.6-0.027L53.713,8.333z M47.584,8.915c0.043-0.005,0.08-0.008,0.109-0.007
			c0.029,0,0.057,0.004,0.081,0.012s0.049,0.021,0.073,0.04c0.024,0.018,0.051,0.042,0.083,0.073l3.187,3.178
			c-0.02-0.083-0.037-0.166-0.051-0.247c-0.013-0.081-0.024-0.156-0.033-0.226l-0.39-3.195l0.861-0.105l0.641,5.255l-0.505,0.062
			c-0.078,0.009-0.144,0.005-0.197-0.013c-0.054-0.018-0.109-0.056-0.165-0.113l-3.174-3.165c0.017,0.077,0.032,0.153,0.044,0.229
			c0.013,0.076,0.023,0.146,0.032,0.208l0.393,3.227l-0.861,0.105l-0.641-5.255L47.584,8.915z M44.444,9.557l1.245,5.146
			l-0.96,0.232l-1.245-5.146L44.444,9.557z M36.172,12.307c0.367-0.16,0.728-0.246,1.082-0.257c0.354-0.012,0.685,0.042,0.993,0.162
			c0.308,0.121,0.586,0.303,0.834,0.549c0.248,0.246,0.45,0.547,0.604,0.903c0.155,0.355,0.238,0.708,0.249,1.058
			c0.011,0.349-0.044,0.678-0.165,0.986c-0.122,0.308-0.308,0.587-0.559,0.838c-0.25,0.25-0.559,0.455-0.926,0.615l-1.853,0.807
			l-2.114-4.854L36.172,12.307z M32.17,14.263l0.408,0.669l-2.003,1.223l0.765,1.253l1.578-0.963l0.395,0.647l-1.578,0.963
			l0.78,1.278l2.003-1.223l0.41,0.672l-2.85,1.74l-2.759-4.519L32.17,14.263z M27.188,17.521l3.194,4.221l-0.789,0.596l-3.194-4.221
			L27.188,17.521z M24.578,19.556l0.532,0.576l-1.723,1.593l1.064,1.15l1.454-1.345l0.535,0.578l-1.455,1.345l1.464,1.583
			l-0.728,0.673l-3.594-3.887L24.578,19.556z M20.333,23.725l3.959,3.515l-0.657,0.739l-3.958-3.515L20.333,23.725z M18.247,26.119
			l0.656,0.474l-0.931,1.292l3.638,2.623l-0.576,0.799l-3.638-2.623l-0.936,1.298l-0.656-0.474L18.247,26.119z M13.78,32.997
			c0.173-0.317,0.354-0.571,0.542-0.762s0.381-0.326,0.578-0.407c0.197-0.081,0.396-0.11,0.596-0.088
			c0.201,0.022,0.4,0.086,0.597,0.194c0.156,0.085,0.292,0.188,0.406,0.311c0.115,0.122,0.205,0.257,0.271,0.406
			c0.066,0.148,0.107,0.31,0.123,0.484c0.017,0.174,0.006,0.357-0.031,0.547c0.122-0.075,0.262-0.121,0.421-0.137l2.351-0.229
			l-0.424,0.778c-0.041,0.075-0.09,0.131-0.149,0.167c-0.059,0.036-0.125,0.057-0.201,0.063l-2.021,0.167
			c-0.076,0.006-0.137,0.025-0.185,0.056c-0.047,0.031-0.095,0.09-0.142,0.176l-0.201,0.37l1.817,0.989l-0.471,0.865l-4.65-2.532
			L13.78,32.997z M11.983,36.636l0.731,0.282l-0.846,2.189l1.37,0.529l0.666-1.725l0.707,0.273l-0.667,1.725l1.397,0.54l0.846-2.189
			l0.734,0.284l-1.204,3.114l-4.938-1.907L11.983,36.636z M9.516,44.744c-0.051-0.355-0.029-0.729,0.065-1.12
			c0.092-0.382,0.234-0.701,0.426-0.957c0.191-0.257,0.412-0.462,0.663-0.618l0.368,0.428c0.024,0.025,0.043,0.056,0.057,0.091
			c0.014,0.035,0.015,0.079,0.002,0.13c-0.013,0.055-0.048,0.104-0.104,0.152c-0.056,0.047-0.12,0.108-0.191,0.184
			c-0.071,0.076-0.144,0.176-0.219,0.299c-0.076,0.124-0.138,0.289-0.188,0.495c-0.059,0.243-0.07,0.475-0.035,0.698
			c0.035,0.223,0.113,0.426,0.234,0.61c0.122,0.184,0.284,0.344,0.488,0.479c0.205,0.136,0.447,0.238,0.727,0.306
			c0.289,0.07,0.557,0.091,0.802,0.064c0.245-0.027,0.461-0.092,0.649-0.195c0.188-0.103,0.346-0.239,0.474-0.409
			c0.127-0.17,0.218-0.364,0.271-0.583c0.031-0.13,0.052-0.25,0.064-0.359c0.011-0.109,0.012-0.212,0.002-0.308
			c-0.008-0.097-0.028-0.19-0.057-0.282c-0.03-0.091-0.071-0.185-0.123-0.28c-0.016-0.029-0.027-0.058-0.034-0.087
			s-0.006-0.06,0.001-0.09c0.013-0.052,0.044-0.092,0.093-0.121l0.5-0.278c0.208,0.271,0.344,0.576,0.408,0.914
			c0.064,0.338,0.044,0.721-0.059,1.147c-0.093,0.382-0.241,0.709-0.445,0.983s-0.449,0.49-0.734,0.649
			c-0.284,0.16-0.602,0.258-0.952,0.295c-0.351,0.037-0.717,0.009-1.099-0.083c-0.386-0.094-0.725-0.244-1.016-0.449
			c-0.291-0.206-0.523-0.453-0.7-0.742C9.68,45.421,9.566,45.099,9.516,44.744z M10.019,59.122c0-0.759,0.615-1.374,1.374-1.374
			c0.759,0,1.374,0.615,1.374,1.374s-0.615,1.374-1.374,1.374C10.634,60.496,10.019,59.881,10.019,59.122z M13.915,74.366
			c-0.225,0.007-0.439-0.031-0.643-0.115s-0.392-0.213-0.563-0.387c-0.172-0.175-0.314-0.396-0.43-0.665
			c-0.066-0.154-0.116-0.313-0.15-0.477c-0.034-0.164-0.052-0.326-0.055-0.488c-0.003-0.162,0.009-0.32,0.036-0.475
			c0.028-0.152,0.069-0.298,0.125-0.434l0.547,0.076c0.042,0.013,0.081,0.031,0.117,0.057c0.037,0.025,0.064,0.061,0.082,0.104
			c0.024,0.056,0.027,0.125,0.009,0.211c-0.019,0.084-0.037,0.184-0.055,0.295c-0.018,0.113-0.024,0.24-0.019,0.38
			s0.043,0.294,0.116,0.462c0.11,0.258,0.256,0.433,0.439,0.521c0.183,0.088,0.388,0.084,0.617-0.015
			c0.128-0.054,0.219-0.131,0.272-0.229c0.053-0.098,0.084-0.211,0.095-0.34c0.011-0.13,0.005-0.27-0.014-0.421
			c-0.02-0.151-0.037-0.306-0.051-0.464c-0.014-0.158-0.019-0.318-0.014-0.48c0.006-0.16,0.037-0.315,0.092-0.465
			c0.056-0.147,0.146-0.287,0.271-0.416s0.297-0.24,0.52-0.334c0.178-0.076,0.365-0.115,0.564-0.115
			c0.198-0.002,0.392,0.037,0.58,0.117s0.363,0.203,0.526,0.366c0.163,0.164,0.299,0.373,0.407,0.626
			c0.123,0.288,0.191,0.572,0.205,0.854s-0.023,0.541-0.112,0.779l-0.522-0.039c-0.06-0.004-0.107-0.018-0.142-0.041
			c-0.034-0.023-0.061-0.059-0.08-0.104c-0.02-0.045-0.023-0.104-0.013-0.174c0.01-0.071,0.021-0.154,0.031-0.249
			c0.01-0.095,0.011-0.199,0.002-0.315c-0.009-0.117-0.043-0.246-0.103-0.386c-0.054-0.126-0.116-0.229-0.186-0.31
			c-0.07-0.079-0.146-0.141-0.227-0.182c-0.082-0.041-0.167-0.061-0.255-0.061s-0.178,0.021-0.267,0.059
			c-0.115,0.049-0.197,0.121-0.246,0.219c-0.049,0.097-0.078,0.209-0.087,0.338s-0.005,0.269,0.009,0.422
			c0.015,0.152,0.028,0.31,0.04,0.471c0.011,0.161,0.014,0.322,0.007,0.484c-0.006,0.162-0.036,0.316-0.088,0.464
			c-0.052,0.147-0.136,0.282-0.25,0.407c-0.114,0.123-0.272,0.229-0.474,0.315C14.36,74.311,14.138,74.359,13.915,74.366z
			 M15.096,78.648l-0.492-0.854l3.883-2.243l-0.8-1.386l0.701-0.404l2.089,3.617l-0.7,0.404l-0.797-1.379L15.096,78.648z
			 M18.481,83.604l-0.599-0.781l1.635-1.25l1.397-3.499l0.527,0.688c0.052,0.068,0.077,0.136,0.074,0.199
			c-0.002,0.065-0.019,0.131-0.048,0.196l-0.815,1.845c-0.049,0.108-0.099,0.208-0.148,0.298c-0.049,0.09-0.1,0.176-0.15,0.26
			c0.093-0.031,0.188-0.061,0.288-0.086c0.099-0.023,0.207-0.047,0.322-0.063l1.99-0.31c0.059-0.013,0.123-0.011,0.192,0.004
			c0.07,0.016,0.129,0.056,0.18,0.121l0.529,0.691l-3.741,0.438L18.481,83.604z M23.137,88.766l-2.173-2.218l3.78-3.706l0.689,0.703
			l-3.2,3.139l1.483,1.514L23.137,88.766z M24.731,90.165l3.417-4.043l0.755,0.639l-3.417,4.044L24.731,90.165z M30.777,94.624
			c-0.065-0.043-0.112-0.089-0.142-0.138c-0.03-0.049-0.046-0.113-0.052-0.193l-0.348-4.468c-0.038,0.067-0.076,0.136-0.116,0.202
			c-0.039,0.065-0.077,0.125-0.112,0.178l-1.803,2.706l-0.722-0.481l2.936-4.404l0.43,0.285c0.037,0.024,0.066,0.047,0.088,0.065
			c0.022,0.021,0.04,0.04,0.054,0.063c0.013,0.021,0.022,0.047,0.029,0.076s0.012,0.065,0.015,0.108l0.35,4.487
			c0.039-0.076,0.08-0.149,0.122-0.221c0.042-0.07,0.083-0.135,0.123-0.193l1.785-2.678l0.722,0.48L31.2,94.905L30.777,94.624z
			 M38.926,94.078c-0.089,0.058-0.175,0.066-0.259,0.027c-0.053-0.024-0.099-0.068-0.138-0.131
			c-0.051-0.074-0.104-0.149-0.158-0.228c-0.054-0.076-0.119-0.151-0.194-0.226c-0.075-0.071-0.164-0.146-0.266-0.217
			c-0.102-0.072-0.226-0.143-0.372-0.211c-0.236-0.111-0.469-0.172-0.698-0.182c-0.228-0.012-0.445,0.027-0.648,0.111
			c-0.205,0.086-0.392,0.215-0.562,0.388c-0.17,0.174-0.315,0.389-0.436,0.646c-0.129,0.275-0.206,0.541-0.23,0.793
			c-0.023,0.25,0,0.483,0.069,0.696c0.069,0.213,0.183,0.404,0.338,0.573c0.156,0.168,0.347,0.306,0.575,0.412
			c0.201,0.095,0.385,0.158,0.551,0.191c0.167,0.033,0.332,0.051,0.497,0.049l0.409-0.871l-0.6-0.281
			c-0.058-0.027-0.096-0.064-0.114-0.111c-0.018-0.048-0.016-0.095,0.005-0.142l0.236-0.505l1.595,0.748l-0.91,1.939
			c-0.163,0.031-0.326,0.049-0.488,0.053s-0.328-0.01-0.496-0.037c-0.169-0.027-0.344-0.07-0.523-0.131
			c-0.18-0.059-0.368-0.134-0.565-0.227c-0.349-0.163-0.642-0.375-0.879-0.635s-0.412-0.547-0.524-0.864
			c-0.113-0.315-0.159-0.653-0.139-1.011c0.021-0.357,0.114-0.715,0.281-1.069c0.169-0.36,0.382-0.663,0.641-0.907
			c0.258-0.246,0.545-0.428,0.862-0.543s0.657-0.16,1.02-0.136c0.364,0.024,0.736,0.126,1.118,0.306
			c0.391,0.184,0.703,0.399,0.935,0.65c0.232,0.25,0.403,0.516,0.515,0.794L38.926,94.078z M46.695,97.055
			c-0.062,0.25-0.16,0.467-0.294,0.653c-0.134,0.187-0.303,0.334-0.505,0.442c-0.203,0.107-0.439,0.173-0.708,0.193
			c-0.27,0.021-0.571-0.009-0.905-0.092l-0.718-0.178l-0.447,1.809l-0.956-0.236l1.272-5.139l1.674,0.414
			c0.343,0.085,0.631,0.199,0.861,0.342c0.231,0.144,0.411,0.307,0.539,0.491c0.127,0.187,0.206,0.39,0.233,0.609
			C46.77,96.586,46.754,96.814,46.695,97.055z M51.272,101.29c-0.084-0.009-0.155-0.034-0.21-0.075
			c-0.056-0.04-0.101-0.094-0.135-0.162l-0.92-1.807c-0.034-0.066-0.074-0.117-0.121-0.148c-0.047-0.033-0.119-0.055-0.216-0.064
			l-0.418-0.047l-0.227,2.057l-0.979-0.107l0.581-5.263l1.605,0.177c0.359,0.041,0.662,0.11,0.91,0.213
			c0.248,0.104,0.446,0.229,0.595,0.381c0.149,0.152,0.251,0.324,0.308,0.52c0.056,0.194,0.071,0.402,0.047,0.626
			c-0.02,0.177-0.064,0.341-0.134,0.493s-0.161,0.287-0.273,0.404s-0.246,0.218-0.401,0.299c-0.155,0.081-0.328,0.141-0.519,0.178
			c0.116,0.084,0.211,0.197,0.287,0.338l1.103,2.09L51.272,101.29z M58.91,99.748c-0.118,0.335-0.291,0.627-0.52,0.876
			c-0.228,0.249-0.502,0.444-0.826,0.591c-0.326,0.146-0.688,0.225-1.09,0.237c-0.398,0.013-0.768-0.044-1.102-0.169
			c-0.335-0.125-0.624-0.305-0.867-0.539c-0.243-0.234-0.435-0.516-0.574-0.842c-0.14-0.325-0.215-0.684-0.228-1.07
			c-0.012-0.389,0.042-0.75,0.161-1.084c0.119-0.335,0.292-0.626,0.521-0.875c0.228-0.249,0.505-0.446,0.831-0.592
			c0.327-0.146,0.69-0.225,1.09-0.237c0.4-0.013,0.769,0.044,1.102,0.171s0.621,0.307,0.863,0.539
			c0.24,0.232,0.433,0.514,0.571,0.84c0.14,0.326,0.216,0.684,0.228,1.071C59.083,99.053,59.029,99.414,58.91,99.748z
			 M62.354,100.84l-0.979,0.168l-0.893-5.219l3.291-0.563l0.131,0.771l-2.313,0.396l0.264,1.543l1.953-0.334l0.133,0.775
			l-1.951,0.334L62.354,100.84z M55,87.242c-6.225,0-12.288-1.76-17.533-5.09c-0.726-0.461-1.43-0.946-2.093-1.443
			c-2.904-2.175-5.417-4.798-7.468-7.796c-0.953-1.396-1.805-2.871-2.529-4.39c-2.112-4.424-3.183-9.162-3.183-14.087
			C22.194,36.347,36.911,21.63,55,21.63s32.807,14.717,32.807,32.806c0,8.289-3.113,16.207-8.766,22.296
			c-0.604,0.649-1.236,1.278-1.878,1.869c-3.078,2.824-6.608,5.01-10.492,6.492c-0.756,0.289-1.532,0.555-2.31,0.785
			C61.328,86.784,58.18,87.242,55,87.242z M66.782,99.934l-1.515-5.072l3.199-0.955l0.225,0.751l-2.248,0.671l0.42,1.406
			l1.771-0.528l0.218,0.728L67.08,97.46l0.428,1.437l2.249-0.672l0.226,0.754L66.782,99.934z M74.387,96.712
			c-0.082,0.205-0.21,0.394-0.383,0.565c-0.173,0.171-0.395,0.315-0.663,0.433c-0.153,0.065-0.313,0.117-0.476,0.151
			c-0.163,0.035-0.326,0.055-0.488,0.059s-0.32-0.008-0.475-0.034c-0.153-0.026-0.299-0.067-0.435-0.122l0.074-0.548
			c0.013-0.042,0.028-0.081,0.056-0.116c0.025-0.037,0.06-0.063,0.103-0.084c0.056-0.022,0.126-0.025,0.211-0.009
			s0.185,0.035,0.296,0.054c0.113,0.018,0.24,0.022,0.379,0.018c0.141-0.006,0.294-0.045,0.462-0.118
			c0.257-0.11,0.431-0.259,0.519-0.442c0.088-0.183,0.084-0.389-0.016-0.617c-0.056-0.127-0.133-0.217-0.23-0.271
			c-0.1-0.054-0.213-0.084-0.342-0.094c-0.129-0.009-0.27-0.004-0.42,0.016c-0.151,0.021-0.306,0.038-0.465,0.054
			c-0.158,0.017-0.316,0.021-0.479,0.018s-0.316-0.034-0.467-0.09c-0.147-0.055-0.287-0.145-0.416-0.268
			c-0.129-0.125-0.242-0.298-0.338-0.52c-0.078-0.178-0.117-0.364-0.119-0.563c-0.002-0.199,0.037-0.394,0.115-0.582
			c0.08-0.188,0.2-0.363,0.363-0.527c0.164-0.164,0.372-0.301,0.624-0.41c0.287-0.124,0.57-0.193,0.853-0.209
			c0.279-0.016,0.541,0.021,0.78,0.107l-0.036,0.522c-0.004,0.062-0.018,0.106-0.041,0.142c-0.023,0.034-0.059,0.062-0.104,0.08
			c-0.045,0.02-0.104,0.024-0.173,0.014c-0.071-0.01-0.154-0.021-0.249-0.029c-0.096-0.009-0.2-0.009-0.317,0
			c-0.116,0.01-0.245,0.044-0.384,0.104c-0.125,0.056-0.229,0.117-0.309,0.188s-0.141,0.146-0.181,0.228s-0.061,0.166-0.059,0.256
			c0,0.089,0.021,0.178,0.06,0.268c0.049,0.113,0.123,0.195,0.221,0.244c0.097,0.048,0.209,0.076,0.338,0.085
			c0.127,0.008,0.269,0.004,0.422-0.013c0.152-0.016,0.31-0.028,0.471-0.041c0.16-0.014,0.322-0.017,0.484-0.01
			c0.16,0.004,0.316,0.033,0.464,0.086c0.147,0.051,0.282,0.133,0.409,0.248c0.123,0.112,0.229,0.271,0.316,0.473
			c0.096,0.22,0.147,0.439,0.155,0.664C74.508,96.293,74.471,96.507,74.387,96.712z M79.016,94.221
			c-0.059,0.213-0.164,0.414-0.315,0.604s-0.354,0.358-0.608,0.506c-0.146,0.085-0.298,0.153-0.455,0.207
			c-0.158,0.053-0.316,0.091-0.479,0.112c-0.161,0.021-0.318,0.029-0.475,0.021s-0.305-0.032-0.445-0.071l0.011-0.553
			c0.006-0.043,0.021-0.084,0.041-0.123s0.052-0.07,0.093-0.094c0.053-0.03,0.122-0.041,0.209-0.033
			c0.086,0.008,0.186,0.014,0.301,0.02c0.113,0.004,0.239-0.004,0.377-0.026c0.14-0.021,0.287-0.078,0.445-0.17
			c0.243-0.142,0.396-0.308,0.465-0.498c0.065-0.192,0.037-0.396-0.088-0.612c-0.068-0.119-0.156-0.201-0.26-0.242
			s-0.221-0.06-0.352-0.054c-0.129,0.006-0.268,0.027-0.414,0.063c-0.147,0.037-0.301,0.072-0.455,0.105
			c-0.155,0.034-0.313,0.059-0.475,0.071c-0.162,0.015-0.318,0.003-0.474-0.035s-0.304-0.11-0.445-0.219
			c-0.143-0.107-0.274-0.267-0.395-0.476c-0.097-0.168-0.157-0.35-0.183-0.545c-0.024-0.199-0.01-0.396,0.047-0.592
			c0.059-0.195,0.158-0.386,0.302-0.566c0.144-0.182,0.335-0.342,0.573-0.479c0.271-0.156,0.545-0.258,0.82-0.305
			c0.277-0.049,0.54-0.041,0.788,0.018l0.024,0.523c0.003,0.06-0.006,0.107-0.024,0.146c-0.021,0.036-0.052,0.066-0.094,0.091
			c-0.042,0.025-0.099,0.036-0.171,0.034c-0.071-0.003-0.154-0.003-0.25-0.002c-0.096,0.002-0.2,0.015-0.314,0.036
			c-0.115,0.023-0.238,0.072-0.369,0.146c-0.119,0.068-0.214,0.144-0.285,0.223c-0.07,0.079-0.121,0.162-0.152,0.247
			c-0.031,0.086-0.04,0.172-0.029,0.26c0.012,0.088,0.041,0.175,0.09,0.259c0.063,0.108,0.146,0.182,0.246,0.219
			c0.102,0.037,0.217,0.052,0.346,0.045c0.129-0.006,0.269-0.026,0.418-0.06c0.15-0.032,0.306-0.065,0.463-0.096
			c0.158-0.031,0.318-0.054,0.479-0.066c0.162-0.013,0.319-0.003,0.472,0.032s0.297,0.102,0.435,0.199
			c0.138,0.099,0.261,0.242,0.371,0.434c0.118,0.207,0.196,0.422,0.229,0.643C79.088,93.79,79.075,94.008,79.016,94.221z
			 M81.475,93.119L78.4,88.809l0.806-0.574l3.073,4.311L81.475,93.119z M86.85,88.557c-0.151,0.321-0.377,0.617-0.674,0.887
			c-0.296,0.269-0.611,0.465-0.947,0.586s-0.674,0.173-1.011,0.152c-0.337-0.021-0.663-0.111-0.981-0.269
			c-0.317-0.158-0.606-0.381-0.867-0.668c-0.262-0.288-0.455-0.597-0.581-0.931c-0.127-0.33-0.185-0.666-0.172-1.002
			c0.012-0.338,0.095-0.668,0.247-0.989c0.154-0.323,0.38-0.618,0.677-0.888s0.612-0.465,0.948-0.584
			c0.337-0.121,0.672-0.17,1.007-0.149s0.662,0.108,0.979,0.268c0.317,0.158,0.606,0.382,0.867,0.669
			c0.262,0.286,0.455,0.598,0.581,0.928c0.126,0.332,0.185,0.666,0.173,1.004C87.085,87.905,87.003,88.234,86.85,88.557z
			 M92.16,82.822c-0.051,0.061-0.1,0.104-0.15,0.128c-0.05,0.024-0.115,0.036-0.197,0.034l-4.48-0.063
			c0.064,0.043,0.129,0.088,0.191,0.135c0.062,0.045,0.117,0.088,0.166,0.127l2.529,2.043L89.674,85.9l-4.119-3.324l0.324-0.401
			c0.028-0.034,0.053-0.062,0.073-0.082c0.021-0.02,0.044-0.036,0.065-0.048c0.023-0.011,0.051-0.02,0.08-0.021
			c0.029-0.004,0.066-0.006,0.109-0.006l4.501,0.063c-0.073-0.047-0.144-0.094-0.208-0.143s-0.126-0.096-0.182-0.141l-2.504-2.021
			l0.545-0.674l4.119,3.324L92.16,82.822z M95.902,76.955c-0.045,0.072-0.098,0.123-0.162,0.148s-0.131,0.032-0.197,0.021
			l-1.132-0.207L93.3,78.811l0.729,0.889c0.039,0.045,0.063,0.104,0.074,0.177c0.012,0.073-0.004,0.146-0.047,0.217l-0.388,0.66
			l-3.51-4.478l0.51-0.866l5.617,0.891L95.902,76.955z M97.105,74.503l-4.869-2.077l0.387-0.906l4.122,1.76l0.832-1.949l0.747,0.318
			L97.105,74.503z M98.572,60.496c-0.758,0-1.374-0.615-1.374-1.374s0.616-1.374,1.374-1.374c0.759,0,1.375,0.615,1.375,1.374
			S99.331,60.496,98.572,60.496z"/>
		<g>
			<path fill="#010101" d="M79.398,17.028c0.018-0.082,0.039-0.177,0.065-0.286c0.027-0.108,0.062-0.224,0.099-0.348
				c-0.097,0.087-0.187,0.167-0.271,0.24c-0.086,0.073-0.163,0.135-0.232,0.186l-1.483,1.135L79,18.86L79.398,17.028z"/>
			<path fill="#010101" d="M91.407,28.777c0.135-0.203,0.222-0.41,0.261-0.623c0.038-0.212,0.027-0.427-0.031-0.642
				c-0.061-0.215-0.17-0.425-0.328-0.629c-0.16-0.204-0.336-0.361-0.531-0.473c-0.194-0.111-0.399-0.174-0.616-0.19
				c-0.218-0.015-0.438,0.017-0.669,0.097c-0.23,0.081-0.46,0.21-0.689,0.389c-0.229,0.179-0.41,0.369-0.544,0.573
				c-0.134,0.204-0.219,0.412-0.256,0.625c-0.037,0.213-0.024,0.427,0.035,0.644c0.06,0.216,0.17,0.426,0.328,0.63
				c0.159,0.204,0.337,0.361,0.53,0.472c0.193,0.11,0.398,0.172,0.612,0.188c0.216,0.016,0.437-0.018,0.666-0.099
				c0.229-0.081,0.458-0.211,0.688-0.39C91.092,29.17,91.271,28.979,91.407,28.777z"/>
			<path fill="#010101" d="M51.019,97.914c0.056-0.105,0.091-0.227,0.106-0.359c0.029-0.268-0.036-0.481-0.196-0.645
				c-0.16-0.163-0.421-0.264-0.783-0.305l-0.625-0.068l-0.193,1.746l0.612,0.068c0.184,0.021,0.347,0.015,0.489-0.018
				c0.142-0.029,0.262-0.082,0.359-0.152C50.886,98.109,50.962,98.021,51.019,97.914z"/>
			<path fill="#010101" d="M91.643,76.795l1.187,1.444l0.854-1.455l-1.845-0.336c-0.082-0.017-0.178-0.034-0.288-0.058
				c-0.109-0.022-0.226-0.052-0.351-0.086c0.09,0.094,0.173,0.182,0.249,0.264S91.589,76.729,91.643,76.795z"/>
			<path fill="#010101" d="M45.646,96.098c-0.066-0.1-0.159-0.186-0.278-0.26c-0.121-0.072-0.269-0.133-0.444-0.176l-0.718-0.178
				l-0.457,1.845l0.718,0.178c0.175,0.043,0.333,0.06,0.474,0.048c0.142-0.012,0.265-0.048,0.371-0.107
				c0.105-0.062,0.194-0.146,0.266-0.252c0.071-0.106,0.125-0.231,0.161-0.377c0.034-0.137,0.043-0.268,0.029-0.389
				C45.752,96.309,45.712,96.195,45.646,96.098z"/>
			<path fill="#010101" d="M57.57,97.342c-0.147-0.156-0.326-0.273-0.535-0.354c-0.208-0.079-0.442-0.114-0.7-0.106
				c-0.259,0.009-0.491,0.058-0.696,0.149c-0.205,0.093-0.375,0.221-0.517,0.387c-0.141,0.165-0.246,0.364-0.317,0.598
				c-0.071,0.232-0.102,0.494-0.093,0.784c0.009,0.291,0.056,0.55,0.142,0.778c0.085,0.229,0.203,0.42,0.353,0.574
				c0.15,0.156,0.331,0.272,0.541,0.352s0.443,0.114,0.703,0.105c0.259-0.008,0.488-0.058,0.691-0.148
				c0.205-0.092,0.375-0.22,0.516-0.384c0.139-0.165,0.242-0.363,0.313-0.597c0.069-0.232,0.102-0.494,0.092-0.785
				c-0.01-0.289-0.057-0.549-0.141-0.777C57.837,97.689,57.721,97.498,57.57,97.342z"/>
			<path fill="#010101" d="M85.594,86.316c-0.195-0.215-0.398-0.383-0.609-0.502c-0.213-0.119-0.426-0.188-0.642-0.213
				c-0.215-0.021-0.428,0.006-0.638,0.08c-0.21,0.075-0.41,0.199-0.604,0.373c-0.19,0.176-0.336,0.362-0.432,0.565
				s-0.145,0.412-0.143,0.629c0,0.217,0.049,0.438,0.146,0.661s0.243,0.441,0.438,0.656c0.195,0.216,0.398,0.383,0.611,0.5
				c0.213,0.119,0.428,0.188,0.643,0.209c0.215,0.021,0.428-0.006,0.639-0.082c0.211-0.077,0.413-0.202,0.604-0.375
				c0.191-0.174,0.334-0.362,0.431-0.564c0.096-0.202,0.144-0.41,0.144-0.625c-0.002-0.215-0.052-0.436-0.148-0.656
				C85.936,86.751,85.789,86.531,85.594,86.316z"/>
			<path fill="#010101" d="M15.99,33.049c-0.078-0.092-0.176-0.17-0.293-0.234c-0.236-0.128-0.459-0.149-0.67-0.063
				s-0.403,0.29-0.577,0.609l-0.301,0.553l1.543,0.84l0.294-0.54c0.089-0.163,0.146-0.316,0.171-0.459
				c0.025-0.143,0.023-0.273-0.006-0.391C16.121,33.246,16.068,33.142,15.99,33.049z"/>
			<path fill="#010101" d="M97.375,39.242l-1.868,0.005l0.587,1.583l1.428-1.216c0.063-0.055,0.139-0.117,0.226-0.188
				c0.088-0.07,0.185-0.143,0.288-0.218c-0.129,0.011-0.249,0.02-0.36,0.026C97.563,39.241,97.461,39.244,97.375,39.242z"/>
			<path fill="#010101" d="M37.972,16.442c0.237-0.104,0.433-0.235,0.589-0.396c0.155-0.161,0.267-0.343,0.334-0.547
				c0.068-0.204,0.092-0.428,0.072-0.67c-0.021-0.243-0.089-0.498-0.205-0.764c-0.116-0.266-0.255-0.49-0.419-0.67
				c-0.164-0.18-0.343-0.315-0.539-0.404c-0.196-0.089-0.405-0.132-0.629-0.128c-0.223,0.004-0.453,0.058-0.69,0.161l-0.944,0.41
				l1.488,3.417L37.972,16.442z"/>
			<path fill="#010101" d="M67.089,12.478c0.146-0.008,0.271-0.04,0.379-0.094c0.108-0.055,0.198-0.131,0.271-0.228
				c0.072-0.097,0.127-0.209,0.162-0.339c0.072-0.259,0.041-0.481-0.092-0.667c-0.132-0.186-0.373-0.327-0.724-0.424l-0.606-0.168
				l-0.468,1.694l0.593,0.164C66.781,12.465,66.943,12.486,67.089,12.478z"/>
		</g>
		<path fill="#010101" d="M35.168,67.002h39.664c2.275,0,4.059-1.479,4.059-3.363c0-1.082-0.593-2.066-1.625-2.703L60.061,50.341
			l-1.389,2.254l17.205,10.593c0.223,0.138,0.366,0.313,0.366,0.449c0,0.254-0.536,0.719-1.411,0.719H35.168
			c-0.876,0-1.412-0.465-1.412-0.719c0-0.104,0.088-0.236,0.242-0.359c0.101-0.079,0.218-0.147,0.349-0.202l0.09-0.039
			l23.319-13.612l0,0l0.121-0.072h0.001l0.115-0.067v-0.002c1.825-1.132,2.954-3.153,2.954-5.305c0-3.44-2.799-6.238-6.238-6.238
			c-3.44,0-6.238,2.798-6.238,6.238v0.141h2.646v-0.141c0-1.98,1.611-3.591,3.592-3.591c1.98,0,3.591,1.611,3.591,3.591
			c0,1.265-0.678,2.451-1.768,3.096L33.248,60.667c-0.328,0.146-0.631,0.326-0.899,0.542c-0.799,0.637-1.239,1.499-1.239,2.43
			C31.11,65.523,32.893,67.002,35.168,67.002z"/>
	</g>
</g>
</svg>
