<?xml version="1.0" encoding="utf-8"?>
<!-- Generator: Adobe Illustrator 16.0.3, SVG Export Plug-In . SVG Version: 6.00 Build 0)  -->
<!DOCTYPE svg PUBLIC "-//W3C//DTD SVG 1.1//EN" "http://www.w3.org/Graphics/SVG/1.1/DTD/svg11.dtd">
<svg version="1.1" id="Layer_1" xmlns="http://www.w3.org/2000/svg" xmlns:xlink="http://www.w3.org/1999/xlink" x="0px" y="0px"
	 width="190px" height="190px" viewBox="0 0 190 190" enable-background="new 0 0 190 190" xml:space="preserve">
<g>
	<g>
		<path d="M34.702,128.425c0.125,0.283,0.178,0.482,0.155,0.602c-0.022,0.117-0.076,0.2-0.163,0.243
			c-0.11,0.058-0.299,0.097-0.57,0.118l-1.1,0.092l-1.163-2.202l0.633-0.772c0.207-0.255,0.372-0.409,0.495-0.476
			c0.092-0.047,0.191-0.051,0.297-0.005c0.107,0.045,0.225,0.178,0.355,0.398l0.155-0.084l-1.186-2.24l-0.155,0.083
			c0.109,0.238,0.141,0.455,0.097,0.645c-0.043,0.189-0.215,0.462-0.509,0.822l-3.678,4.476l0.076,0.146l5.73-0.473
			c0.503-0.046,0.858-0.031,1.066,0.04c0.105,0.037,0.24,0.157,0.407,0.376l0.155-0.084l-0.947-1.788L34.702,128.425z
			 M29.829,129.74l1.785-2.179l1.033,1.951L29.829,129.74z"/>
		<path d="M27.073,124.571l3.856-1.533c0.336-0.134,0.568-0.19,0.69-0.163c0.203,0.042,0.356,0.187,0.456,0.44l0.089,0.224
			l0.163-0.063l-1.06-2.67c-0.462-1.159-1.115-1.897-1.961-2.216c-0.759-0.282-1.553-0.261-2.383,0.068
			c-0.619,0.248-1.11,0.606-1.47,1.076c-0.359,0.471-0.548,0.979-0.566,1.525c-0.017,0.545,0.15,1.266,0.506,2.156l0.966,2.43
			l0.162-0.063l-0.09-0.224c-0.089-0.228-0.092-0.427-0.009-0.589C26.483,124.852,26.7,124.716,27.073,124.571z M26.143,123.961
			c-0.22-0.303-0.381-0.587-0.487-0.853c-0.279-0.703-0.271-1.376,0.025-2.015c0.298-0.636,0.857-1.119,1.682-1.444
			c0.819-0.327,1.557-0.36,2.213-0.102c0.657,0.26,1.121,0.728,1.393,1.41c0.1,0.254,0.184,0.579,0.249,0.987L26.143,123.961z"/>
		<path d="M28.831,113.143l-5.866-0.703c-0.343-0.039-0.61-0.118-0.805-0.238c-0.131-0.087-0.248-0.233-0.347-0.44l-0.17,0.045
			l0.527,1.907l0.168-0.046c-0.004-0.036-0.006-0.065-0.008-0.082c-0.024-0.219-0.008-0.385,0.047-0.493
			c0.057-0.113,0.129-0.18,0.219-0.205c0.136-0.036,0.401-0.033,0.793,0.014l3.988,0.471l-3.195,2.577
			c-0.284,0.232-0.502,0.366-0.653,0.406c-0.111,0.032-0.211,0.016-0.305-0.052c-0.093-0.068-0.194-0.239-0.301-0.518l-0.169,0.047
			l0.701,2.53l0.169-0.049c-0.037-0.192-0.043-0.353-0.022-0.477c0.023-0.126,0.07-0.238,0.145-0.343
			c0.047-0.064,0.191-0.197,0.434-0.389l4.696-3.797L28.831,113.143z"/>
		<path d="M27.523,110.248c0.089,0.064,0.181,0.223,0.274,0.479l0.173-0.029l-0.359-1.994l-0.172,0.035
			c0.034,0.309,0.021,0.516-0.035,0.619c-0.057,0.104-0.133,0.165-0.23,0.183c-0.12,0.021-0.312,0-0.578-0.061l-1.075-0.247
			l-0.443-2.446l0.84-0.545c0.272-0.179,0.478-0.282,0.615-0.308c0.103-0.018,0.198,0.012,0.284,0.089
			c0.088,0.073,0.16,0.239,0.219,0.486l0.172-0.031l-0.451-2.494l-0.171,0.03c0.031,0.263-0.003,0.477-0.103,0.643
			c-0.1,0.167-0.345,0.378-0.735,0.632l-4.859,3.151l0.029,0.163l5.604,1.284C27.012,109.993,27.347,110.116,27.523,110.248z
			 M22.396,108.516l2.361-1.536l0.394,2.17L22.396,108.516z"/>
		<path d="M25.493,102.399c0.359-0.026,0.592-0.008,0.698,0.054c0.171,0.104,0.268,0.288,0.286,0.565l0.016,0.22l0.175-0.013
			l-0.159-2.228l-0.176,0.012l0.017,0.228c0.018,0.25-0.035,0.437-0.158,0.564c-0.092,0.094-0.334,0.153-0.729,0.184l-3.945,0.278
			l4.858-4.592l-0.014-0.17l-5.4,0.389c-0.358,0.023-0.591,0.005-0.696-0.056c-0.172-0.1-0.268-0.289-0.288-0.56l-0.016-0.227
			l-0.175,0.014l0.158,2.228l0.175-0.012l-0.015-0.221c-0.019-0.253,0.035-0.442,0.159-0.569c0.09-0.094,0.333-0.155,0.727-0.184
			l3.695-0.264l-4.526,4.26l0.125,1.739l0.175-0.013c-0.014-0.188-0.008-0.326,0.013-0.422c0.046-0.191,0.101-0.332,0.165-0.435
			c0.062-0.103,0.195-0.253,0.399-0.455L25.493,102.399z"/>
		<path d="M19.739,92.221c-0.021,0.597,0.111,1.15,0.39,1.663c0.279,0.513,0.683,0.92,1.211,1.225
			c0.528,0.306,1.112,0.466,1.753,0.485c0.795,0.023,1.493-0.17,2.094-0.59c0.808-0.557,1.228-1.368,1.259-2.433
			c0.019-0.59-0.097-1.104-0.35-1.542c-0.251-0.437-0.659-0.826-1.22-1.168l-0.099,0.144c0.518,0.398,0.862,0.762,1.032,1.085
			c0.168,0.324,0.245,0.693,0.233,1.111c-0.016,0.48-0.144,0.904-0.381,1.271c-0.24,0.367-0.575,0.638-1.006,0.81
			c-0.432,0.173-0.938,0.251-1.519,0.233c-0.704-0.022-1.289-0.139-1.756-0.353c-0.468-0.214-0.803-0.494-1.01-0.843
			c-0.205-0.353-0.301-0.739-0.288-1.167c0.016-0.508,0.173-0.938,0.471-1.292c0.297-0.354,0.778-0.619,1.436-0.794l0.006-0.149
			l-2.188,0.081l-0.006,0.167c0.15,0.038,0.268,0.101,0.351,0.185c0.058,0.066,0.086,0.14,0.083,0.226
			c-0.001,0.058-0.041,0.149-0.113,0.28C19.88,91.304,19.751,91.757,19.739,92.221z"/>
		<path d="M20.297,87.914c0.034-0.264,0.122-0.442,0.261-0.54c0.105-0.068,0.358-0.078,0.762-0.025l4.14,0.527
			c0.311,0.041,0.513,0.084,0.609,0.133c0.095,0.049,0.161,0.128,0.199,0.234c0.056,0.143,0.074,0.29,0.054,0.441l-0.029,0.225
			l0.174,0.023l0.628-4.912l-1.528-0.754l-0.023,0.188c0.366,0.254,0.633,0.488,0.801,0.708c0.129,0.168,0.208,0.338,0.237,0.508
			c0.029,0.169,0.021,0.434-0.024,0.793l-0.139,1.082c-0.022,0.176-0.055,0.292-0.098,0.352c-0.045,0.059-0.1,0.095-0.162,0.112
			c-0.066,0.019-0.239,0.01-0.52-0.026l-2.1-0.27l0.178-1.4c0.034-0.266,0.09-0.459,0.169-0.579c0.08-0.121,0.178-0.202,0.295-0.243
			c0.093-0.031,0.297-0.05,0.614-0.056l0.021-0.174L22.6,83.977l-0.022,0.174c0.36,0.065,0.602,0.188,0.727,0.37
			c0.093,0.136,0.117,0.388,0.07,0.749l-0.18,1.401l-2.518-0.323l0.224-1.749c0.04-0.317,0.093-0.534,0.154-0.652
			c0.086-0.148,0.197-0.253,0.332-0.317c0.136-0.065,0.375-0.107,0.719-0.131l0.023-0.182l-1.406-0.108l-0.626,4.91l0.172,0.022
			L20.297,87.914z"/>
		<path d="M21.245,81.029c0.054-0.237,0.164-0.4,0.328-0.488c0.117-0.063,0.373-0.05,0.764,0.041l4.043,0.936
			c0.354,0.083,0.572,0.17,0.659,0.26c0.143,0.149,0.185,0.358,0.123,0.622l-0.054,0.235l0.171,0.041l0.648-2.796
			c0.282-1.214,0.165-2.195-0.351-2.94c-0.462-0.664-1.128-1.098-1.998-1.299c-0.65-0.149-1.257-0.134-1.821,0.048
			c-0.563,0.182-1.007,0.494-1.333,0.931c-0.326,0.439-0.597,1.125-0.814,2.06l-0.591,2.548l0.171,0.04L21.245,81.029z
			 M22.003,78.574c0.171-0.739,0.561-1.287,1.168-1.639c0.608-0.356,1.343-0.432,2.208-0.233c0.859,0.199,1.484,0.59,1.877,1.176
			c0.392,0.588,0.505,1.238,0.339,1.951c-0.062,0.266-0.179,0.582-0.357,0.953l-5.321-1.231
			C21.911,79.176,21.939,78.849,22.003,78.574z"/>
		<path d="M24.206,70.185c0.052-0.144,0.137-0.266,0.257-0.37c0.087-0.073,0.174-0.11,0.259-0.113
			c0.112-0.001,0.321,0.055,0.625,0.167l3.896,1.431c0.362,0.135,0.576,0.254,0.646,0.36c0.104,0.167,0.111,0.375,0.018,0.623
			l-0.077,0.212l0.164,0.062l0.951-2.583l-0.166-0.061l-0.08,0.219c-0.052,0.143-0.137,0.265-0.255,0.366
			c-0.088,0.075-0.175,0.113-0.26,0.115c-0.112,0.002-0.32-0.053-0.626-0.165l-3.895-1.432c-0.361-0.132-0.576-0.254-0.643-0.364
			c-0.104-0.167-0.111-0.372-0.02-0.618l0.081-0.219l-0.165-0.061l-0.951,2.583l0.165,0.06L24.206,70.185z"/>
		<path d="M25.608,66.448c0.132-0.145,0.251-0.245,0.355-0.302c0.104-0.059,0.293-0.126,0.569-0.204l4.053,1.878
			c0.327,0.153,0.521,0.281,0.583,0.387c0.102,0.171,0.095,0.381-0.021,0.63l-0.093,0.204l0.158,0.074l0.939-2.03l-0.159-0.073
			l-0.095,0.206c-0.105,0.226-0.244,0.367-0.414,0.418c-0.125,0.038-0.367-0.029-0.725-0.195l-3.589-1.662l6.472-1.669l0.073-0.155
			l-4.914-2.275c-0.326-0.151-0.521-0.279-0.584-0.386c-0.102-0.172-0.094-0.38,0.02-0.628l0.095-0.206l-0.159-0.074l-0.94,2.029
			l0.159,0.074l0.093-0.203c0.106-0.228,0.244-0.369,0.413-0.419c0.126-0.039,0.369,0.023,0.728,0.189l3.36,1.557l-6.021,1.54
			l-0.733,1.582l0.159,0.073C25.475,66.639,25.545,66.518,25.608,66.448z"/>
		<path d="M30.298,59.681c-0.239-0.167-0.403-0.343-0.488-0.531c-0.089-0.188-0.114-0.367-0.084-0.539
			c0.026-0.132,0.116-0.328,0.269-0.585l0.393-0.664l4.224,2.499c0.311,0.183,0.492,0.332,0.542,0.443
			c0.084,0.181,0.056,0.388-0.083,0.623l-0.115,0.196l0.151,0.088l1.388-2.344l-0.15-0.089l-0.114,0.191
			c-0.127,0.215-0.279,0.34-0.454,0.375c-0.127,0.023-0.361-0.065-0.702-0.266l-4.223-2.499l0.461-0.779
			c0.134-0.228,0.281-0.39,0.438-0.486c0.158-0.096,0.34-0.138,0.547-0.131c0.129,0.007,0.317,0.063,0.561,0.168l0.091-0.155
			l-1.332-0.706l-2.67,4.513l1.258,0.83L30.298,59.681z"/>
		<path d="M32.739,53.112c0.156-0.216,0.319-0.332,0.488-0.35c0.125-0.011,0.352,0.103,0.683,0.341l3.379,2.448
			c0.254,0.183,0.41,0.319,0.471,0.408c0.061,0.089,0.082,0.189,0.063,0.3c-0.022,0.153-0.075,0.29-0.166,0.412l-0.132,0.185
			l0.142,0.104l2.904-4.009l-0.979-1.395l-0.112,0.154c0.2,0.397,0.321,0.734,0.365,1.007c0.033,0.21,0.02,0.397-0.036,0.559
			c-0.056,0.163-0.189,0.392-0.405,0.685l-0.638,0.883c-0.104,0.142-0.188,0.229-0.254,0.26c-0.067,0.029-0.133,0.038-0.198,0.021
			c-0.063-0.015-0.212-0.107-0.442-0.274l-1.715-1.241l0.827-1.144c0.158-0.217,0.3-0.358,0.426-0.428
			c0.127-0.067,0.252-0.092,0.375-0.073c0.096,0.016,0.285,0.097,0.564,0.245l0.104-0.14l-1.81-1.312L36.54,50.9
			c0.286,0.229,0.44,0.455,0.461,0.672c0.017,0.165-0.082,0.396-0.297,0.691l-0.828,1.144l-2.057-1.49l1.034-1.427
			c0.186-0.258,0.335-0.425,0.448-0.5c0.147-0.088,0.294-0.129,0.445-0.12c0.149,0.008,0.38,0.086,0.692,0.23l0.108-0.151
			l-1.18-0.767l-2.903,4.008l0.143,0.103L32.739,53.112z"/>
		<path d="M36.872,47.534c0.161-0.183,0.335-0.274,0.519-0.274c0.133-0.001,0.351,0.131,0.652,0.398l3.113,2.744
			c0.276,0.242,0.427,0.42,0.456,0.536c0.056,0.205-0.005,0.408-0.187,0.612l-0.159,0.181l0.131,0.116l1.819-2.064l-0.131-0.115
			l-0.167,0.188c-0.159,0.18-0.331,0.269-0.515,0.268c-0.131,0.001-0.349-0.13-0.653-0.398l-1.399-1.236
			c0.037-0.037,0.07-0.071,0.102-0.105c0.033-0.034,0.063-0.067,0.09-0.098c0.067-0.076,0.151-0.176,0.253-0.3l3.691,0.356
			l1.134-1.287l-0.131-0.115c-0.26,0.238-0.516,0.393-0.764,0.464c-0.247,0.07-0.632,0.081-1.15,0.028l-2.259-0.224
			c0.268-0.484,0.377-0.919,0.332-1.305c-0.049-0.384-0.22-0.708-0.517-0.969c-0.276-0.244-0.589-0.372-0.939-0.377
			c-0.351-0.006-0.668,0.078-0.957,0.255c-0.289,0.177-0.659,0.521-1.11,1.032L36.578,47.6l0.132,0.116L36.872,47.534z
			 M38.553,45.908c0.274-0.31,0.588-0.477,0.942-0.499c0.354-0.022,0.682,0.1,0.984,0.364c0.308,0.271,0.458,0.612,0.451,1.02
			c-0.006,0.411-0.213,0.844-0.618,1.305c-0.018,0.021-0.044,0.046-0.073,0.079c-0.03,0.032-0.066,0.07-0.107,0.116l-2.002-1.768
			C38.289,46.252,38.43,46.045,38.553,45.908z"/>
		<path d="M41.85,42.061c0.177-0.082,0.326-0.13,0.442-0.145c0.119-0.014,0.32-0.002,0.604,0.03l3.028,3.285
			c0.243,0.264,0.374,0.457,0.392,0.579c0.026,0.198-0.061,0.389-0.262,0.576l-0.165,0.152l0.12,0.128l1.644-1.515l-0.118-0.129
			l-0.168,0.154c-0.184,0.17-0.365,0.245-0.542,0.229c-0.129-0.014-0.328-0.167-0.595-0.457l-2.682-2.908l6.62,0.932l0.125-0.116
			l-3.671-3.981c-0.243-0.266-0.374-0.458-0.392-0.579c-0.028-0.196,0.058-0.387,0.259-0.573l0.167-0.154l-0.119-0.129l-1.645,1.518
			l0.119,0.128l0.164-0.152c0.186-0.171,0.367-0.246,0.542-0.228c0.131,0.013,0.331,0.162,0.598,0.452l2.512,2.724l-6.151-0.881
			l-1.283,1.182l0.12,0.13C41.651,42.187,41.762,42.103,41.85,42.061z"/>
		<path d="M51.59,41.152c-0.018,0.107-0.121,0.26-0.308,0.458l0.104,0.141l1.625-1.203l-0.104-0.14
			c-0.262,0.166-0.452,0.248-0.573,0.244c-0.119-0.003-0.208-0.045-0.266-0.124c-0.073-0.099-0.141-0.281-0.203-0.545l-0.253-1.074
			l2-1.481l0.862,0.512c0.281,0.167,0.462,0.305,0.544,0.417c0.063,0.084,0.077,0.182,0.049,0.294
			c-0.029,0.112-0.143,0.249-0.341,0.412l0.104,0.14l2.037-1.508l-0.104-0.141c-0.22,0.144-0.429,0.207-0.622,0.19
			c-0.193-0.013-0.491-0.142-0.892-0.379l-4.976-2.965l-0.134,0.099l1.331,5.594C51.589,40.582,51.63,40.935,51.59,41.152z
			 M53.297,37.224l-1.774,1.313l-0.646-2.75L53.297,37.224z"/>
		<path d="M54.257,33.575c-0.133-0.26-0.195-0.491-0.187-0.699c0.009-0.207,0.069-0.377,0.178-0.514
			c0.084-0.104,0.254-0.234,0.509-0.392l0.658-0.405l2.576,4.176c0.188,0.307,0.282,0.521,0.275,0.642
			c-0.011,0.2-0.132,0.372-0.363,0.514l-0.193,0.118l0.092,0.15l2.319-1.43l-0.092-0.149l-0.189,0.116
			c-0.212,0.131-0.404,0.173-0.576,0.122c-0.124-0.039-0.291-0.226-0.498-0.561l-2.576-4.176l0.769-0.475
			c0.226-0.14,0.431-0.215,0.615-0.226c0.185-0.014,0.367,0.034,0.545,0.139c0.11,0.065,0.25,0.202,0.419,0.41l0.154-0.094
			l-0.851-1.245l-4.463,2.755l0.727,1.32L54.257,33.575z"/>
		<path d="M59.461,28.94c0.134-0.071,0.28-0.104,0.438-0.1c0.113,0.005,0.202,0.037,0.267,0.09c0.084,0.074,0.201,0.255,0.351,0.544
			l1.915,3.682c0.177,0.341,0.255,0.576,0.234,0.7c-0.035,0.192-0.171,0.352-0.406,0.472l-0.2,0.106l0.08,0.155l2.443-1.268
			l-0.081-0.156l-0.206,0.107c-0.135,0.069-0.28,0.102-0.436,0.098c-0.115-0.003-0.206-0.034-0.27-0.089
			c-0.085-0.074-0.202-0.255-0.352-0.544l-1.912-3.681c-0.177-0.342-0.255-0.576-0.232-0.703c0.037-0.192,0.169-0.349,0.402-0.47
			l0.207-0.106l-0.083-0.156l-2.441,1.27l0.081,0.155L59.461,28.94z"/>
		<path d="M65.996,31.739c0.798,0.346,1.604,0.348,2.419,0.005c0.806-0.34,1.369-0.926,1.686-1.757
			c0.319-0.833,0.289-1.699-0.09-2.597c-0.367-0.875-0.954-1.484-1.764-1.831c-0.808-0.347-1.597-0.359-2.366-0.037
			c-0.775,0.326-1.332,0.862-1.671,1.612c-0.391,0.863-0.389,1.766,0.006,2.704C64.604,30.762,65.198,31.394,65.996,31.739z
			 M64.906,27.002c0.156-0.527,0.498-0.902,1.028-1.126c0.563-0.237,1.09-0.225,1.576,0.038c0.609,0.329,1.126,1,1.552,2.014
			c0.393,0.934,0.499,1.696,0.319,2.281c-0.181,0.586-0.549,0.996-1.104,1.229c-0.521,0.219-1.023,0.199-1.506-0.065
			c-0.633-0.348-1.153-1.004-1.56-1.972C64.814,28.46,64.713,27.66,64.906,27.002z"/>
		<path d="M70.519,24.07c0.195,0.004,0.35,0.027,0.462,0.066c0.113,0.04,0.289,0.137,0.529,0.293l1.273,4.281
			c0.104,0.344,0.135,0.576,0.098,0.692c-0.062,0.189-0.224,0.323-0.488,0.401l-0.213,0.063l0.05,0.168l2.144-0.639l-0.05-0.167
			l-0.218,0.065c-0.239,0.071-0.436,0.059-0.588-0.034c-0.11-0.068-0.221-0.293-0.333-0.671l-1.128-3.792l5.534,3.75l0.164-0.049
			l-1.544-5.189c-0.104-0.344-0.135-0.576-0.098-0.691c0.063-0.189,0.222-0.323,0.485-0.402l0.217-0.063l-0.05-0.168l-2.143,0.638
			l0.05,0.168l0.213-0.063c0.242-0.073,0.437-0.062,0.587,0.031c0.113,0.069,0.226,0.293,0.338,0.671l1.058,3.551l-5.137-3.498
			l-1.671,0.497l0.049,0.168C70.285,24.095,70.422,24.069,70.519,24.07z"/>
		<path d="M81.185,27.631l-0.03-0.172c-0.31,0.034-0.517,0.022-0.621-0.034c-0.104-0.057-0.166-0.133-0.184-0.229
			c-0.022-0.121-0.002-0.314,0.059-0.578l0.246-1.076l2.446-0.446l0.547,0.839c0.179,0.272,0.28,0.477,0.305,0.614
			c0.019,0.103-0.009,0.198-0.085,0.285c-0.076,0.087-0.24,0.161-0.487,0.219l0.032,0.173l2.493-0.455L85.874,26.6
			c-0.26,0.032-0.475-0.001-0.642-0.102c-0.168-0.098-0.378-0.343-0.632-0.733l-3.159-4.855l-0.164,0.03l-1.272,5.606
			c-0.108,0.492-0.229,0.827-0.36,1.006c-0.063,0.087-0.224,0.181-0.48,0.274l0.032,0.172L81.185,27.631z M81.368,22.416
			l1.539,2.359l-2.17,0.396L81.368,22.416z"/>
		<path d="M86.391,20.456c0.243-0.02,0.431,0.034,0.565,0.164c0.095,0.093,0.16,0.34,0.193,0.739l0.332,4.133
			c0.028,0.365,0.014,0.601-0.044,0.707c-0.101,0.186-0.287,0.29-0.558,0.312l-0.242,0.02l0.015,0.174l4.958-0.398l0.408-1.782
			l-0.16-0.02c-0.131,0.409-0.272,0.712-0.42,0.911c-0.148,0.198-0.319,0.34-0.511,0.429c-0.193,0.089-0.536,0.153-1.026,0.192
			l-0.467,0.039c-0.413,0.033-0.658,0.038-0.74,0.012c-0.083-0.024-0.143-0.069-0.187-0.132c-0.058-0.094-0.097-0.271-0.118-0.532
			l-0.323-4.022c-0.032-0.381-0.024-0.624,0.018-0.73c0.042-0.105,0.13-0.196,0.26-0.272c0.133-0.078,0.368-0.127,0.709-0.152
			l-0.015-0.175l-2.898,0.233l0.014,0.175L86.391,20.456z"/>
		<path d="M98.827,26.51c0.872,0.048,1.634-0.232,2.284-0.84c0.651-0.61,1.005-1.403,1.059-2.377
			c0.053-0.947-0.208-1.752-0.782-2.418c-0.575-0.667-1.278-1.021-2.113-1.067c-0.838-0.046-1.572,0.192-2.205,0.716
			c-0.73,0.606-1.122,1.416-1.179,2.436c-0.056,0.997,0.2,1.825,0.765,2.487C97.22,26.105,97.944,26.46,98.827,26.51z M97.75,20.71
			c0.369-0.407,0.841-0.594,1.414-0.563c0.613,0.035,1.08,0.275,1.403,0.723c0.403,0.563,0.573,1.393,0.51,2.491
			c-0.055,1.011-0.292,1.742-0.712,2.189c-0.418,0.448-0.928,0.656-1.531,0.623c-0.564-0.031-1.007-0.271-1.326-0.719
			c-0.415-0.589-0.595-1.407-0.537-2.454C97.029,21.979,97.287,21.216,97.75,20.71z"/>
		<path d="M105.716,26.91l-0.245-0.041c-0.239-0.038-0.405-0.135-0.503-0.291c-0.071-0.111-0.073-0.366-0.011-0.765l0.297-1.841
			c0.05,0.011,0.097,0.021,0.144,0.029c0.046,0.01,0.09,0.017,0.13,0.024c0.1,0.016,0.23,0.034,0.392,0.052l1.667,3.311l1.694,0.272
			l0.027-0.173c-0.34-0.093-0.607-0.225-0.799-0.397c-0.194-0.171-0.404-0.49-0.639-0.955l-1.017-2.03
			c0.553-0.033,0.979-0.172,1.278-0.419c0.302-0.246,0.481-0.563,0.544-0.953c0.06-0.365,0-0.698-0.181-0.997
			s-0.426-0.525-0.728-0.672c-0.304-0.149-0.792-0.28-1.466-0.388l-2.31-0.372l-0.029,0.173l0.241,0.039
			c0.239,0.038,0.409,0.136,0.509,0.293c0.071,0.111,0.075,0.366,0.011,0.765l-0.658,4.097c-0.057,0.36-0.129,0.585-0.209,0.672
			c-0.144,0.155-0.35,0.212-0.618,0.169l-0.24-0.039l-0.025,0.173l2.719,0.437L105.716,26.91z M105.725,21.038
			c0.316-0.009,0.568,0,0.749,0.029c0.408,0.066,0.716,0.244,0.924,0.531c0.208,0.287,0.281,0.63,0.218,1.025
			c-0.064,0.406-0.273,0.714-0.624,0.928c-0.348,0.213-0.824,0.271-1.432,0.173c-0.027-0.004-0.063-0.01-0.105-0.019
			c-0.045-0.01-0.094-0.019-0.156-0.028L105.725,21.038z"/>
		<path d="M113.315,28.875c0.416,0.114,0.806,0.172,1.175,0.175c0.365,0.002,0.749-0.041,1.148-0.136l0.514-1.898
			c0.092-0.332,0.181-0.546,0.272-0.643c0.131-0.134,0.314-0.17,0.554-0.106l0.112,0.031l0.048-0.174l-2.4-0.648l-0.047,0.174
			c0.251,0.068,0.419,0.14,0.505,0.218c0.086,0.076,0.137,0.169,0.158,0.278c0.02,0.11-0.01,0.321-0.094,0.631l-0.484,1.792
			c-0.229,0.061-0.458,0.089-0.686,0.089c-0.23,0-0.459-0.031-0.686-0.092c-0.393-0.106-0.74-0.322-1.051-0.649
			c-0.311-0.327-0.512-0.764-0.61-1.315c-0.096-0.55-0.063-1.12,0.095-1.711c0.198-0.729,0.538-1.311,1.025-1.745
			c0.581-0.514,1.266-0.664,2.056-0.45c0.581,0.157,1.007,0.462,1.279,0.918c0.188,0.316,0.299,0.739,0.329,1.272l0.16,0.042
			l0.369-2l-0.171-0.046c-0.05,0.154-0.104,0.251-0.157,0.293c-0.057,0.042-0.112,0.057-0.172,0.04
			c-0.058-0.016-0.162-0.078-0.318-0.188c-0.302-0.217-0.542-0.368-0.718-0.454c-0.173-0.086-0.372-0.16-0.6-0.221
			c-0.617-0.168-1.191-0.18-1.718-0.038c-0.627,0.173-1.18,0.516-1.65,1.026c-0.396,0.429-0.67,0.916-0.815,1.462
			c-0.204,0.751-0.15,1.48,0.161,2.182C111.312,27.922,112.116,28.551,113.315,28.875z"/>
		<path d="M116.818,29.701l1.885,0.736l0.063-0.163c-0.281-0.134-0.449-0.252-0.51-0.354c-0.061-0.103-0.07-0.2-0.035-0.291
			c0.045-0.114,0.162-0.268,0.353-0.463l0.774-0.786l2.318,0.907l0.023,1.001c0.009,0.326-0.015,0.554-0.062,0.683
			c-0.039,0.097-0.112,0.163-0.224,0.199c-0.11,0.037-0.287,0.013-0.529-0.069l-0.064,0.163l2.36,0.923l0.064-0.163
			c-0.24-0.111-0.403-0.252-0.493-0.424c-0.092-0.174-0.141-0.492-0.152-0.958l-0.137-5.79L122.3,24.79l-4.03,4.101
			c-0.351,0.361-0.629,0.583-0.835,0.666c-0.1,0.042-0.284,0.036-0.55-0.018L116.818,29.701z M121.598,26.097l0.069,2.813
			l-2.055-0.803L121.598,26.097z"/>
		<path d="M125.917,33.378l-0.202-0.104c-0.22-0.117-0.354-0.262-0.399-0.433c-0.029-0.127,0.046-0.363,0.229-0.714l1.83-3.506
			l1.361,6.545l0.152,0.079l2.504-4.8c0.166-0.318,0.304-0.507,0.412-0.566c0.179-0.092,0.385-0.076,0.627,0.05l0.201,0.106
			l0.079-0.155l-1.98-1.034L130.647,29l0.196,0.105c0.226,0.116,0.359,0.26,0.398,0.432c0.035,0.129-0.039,0.368-0.222,0.718
			l-1.715,3.283l-1.251-6.087l-1.546-0.806l-0.082,0.154c0.165,0.086,0.28,0.164,0.351,0.23c0.137,0.139,0.232,0.262,0.285,0.368
			c0.056,0.106,0.112,0.299,0.177,0.578l-2.068,3.961c-0.164,0.32-0.303,0.506-0.412,0.565c-0.175,0.093-0.387,0.075-0.629-0.051
			l-0.197-0.104l-0.081,0.157l1.981,1.034L125.917,33.378z"/>
		<path d="M134.259,31.227c0.056,0.1,0.072,0.192,0.058,0.275c-0.022,0.111-0.119,0.303-0.294,0.578l-2.211,3.51
			c-0.204,0.327-0.367,0.512-0.485,0.557c-0.184,0.067-0.389,0.029-0.611-0.113l-0.192-0.121l-0.095,0.149l2.329,1.466l0.091-0.148
			l-0.195-0.124c-0.129-0.081-0.229-0.189-0.303-0.326c-0.054-0.103-0.075-0.195-0.061-0.278c0.021-0.11,0.118-0.302,0.293-0.577
			l2.211-3.511c0.204-0.325,0.369-0.51,0.487-0.553c0.184-0.068,0.389-0.031,0.608,0.108l0.199,0.124l0.091-0.148l-2.328-1.467
			l-0.092,0.148l0.192,0.122C134.082,30.979,134.182,31.089,134.259,31.227z"/>
		<path d="M137.582,34.016c0.146-0.066,0.306-0.083,0.474-0.05c0.164,0.031,0.39,0.148,0.66,0.349l1.657,1.222l-6.8,2.273
			l-0.103,0.142l4.208,3.104l1.254-1.19l-0.109-0.116c-0.456,0.334-0.821,0.509-1.101,0.523c-0.278,0.014-0.581-0.1-0.907-0.339
			l-2.119-1.564l6.979-2.353l-3.823-2.819l-1.062,1.214l0.147,0.107C137.219,34.25,137.432,34.083,137.582,34.016z"/>
		<path d="M143.166,37.665c0.038,0.107,0.043,0.201,0.017,0.281c-0.038,0.105-0.162,0.282-0.374,0.529l-2.701,3.15
			c-0.251,0.292-0.438,0.452-0.56,0.479c-0.193,0.04-0.388-0.027-0.591-0.199l-0.171-0.148l-0.115,0.132l2.092,1.791l0.111-0.132
			l-0.174-0.152c-0.116-0.1-0.201-0.22-0.257-0.367c-0.037-0.11-0.043-0.204-0.015-0.285c0.037-0.106,0.158-0.281,0.369-0.53
			l2.703-3.15c0.25-0.293,0.44-0.451,0.562-0.477c0.192-0.04,0.39,0.025,0.587,0.195l0.178,0.15l0.112-0.132l-2.089-1.791
			l-0.115,0.133l0.174,0.147C143.026,37.393,143.111,37.515,143.166,37.665z"/>
		<path d="M146.089,40.358c0.02,0.116,0.02,0.319-0.006,0.604l-3.169,3.147c-0.257,0.253-0.444,0.391-0.566,0.414
			c-0.195,0.035-0.392-0.044-0.582-0.239l-0.161-0.158l-0.122,0.123l1.573,1.587l0.127-0.124l-0.162-0.162
			c-0.175-0.177-0.258-0.354-0.248-0.533c0.009-0.13,0.155-0.334,0.435-0.612l2.806-2.787l-0.688,6.65l0.119,0.121l3.845-3.814
			c0.254-0.253,0.444-0.392,0.563-0.412c0.197-0.035,0.393,0.042,0.581,0.236l0.163,0.161l0.126-0.125l-1.578-1.586l-0.123,0.124
			l0.156,0.16c0.178,0.179,0.26,0.355,0.247,0.532c-0.006,0.131-0.149,0.336-0.429,0.616l-2.628,2.61l0.651-6.182l-1.229-1.237
			l-0.122,0.125c0.129,0.132,0.216,0.242,0.264,0.327C146.02,40.095,146.07,40.239,146.089,40.358z"/>
		<path d="M149.188,47.7c-0.609,0.487-0.997,1.106-1.162,1.856c-0.22,1,0.058,1.984,0.835,2.954
			c0.268,0.339,0.551,0.618,0.843,0.836c0.291,0.22,0.626,0.41,1.007,0.571l1.537-1.228c0.271-0.213,0.469-0.333,0.6-0.357
			c0.188-0.031,0.354,0.05,0.507,0.242l0.073,0.093l0.14-0.112l-1.552-1.942l-0.138,0.111c0.161,0.203,0.253,0.359,0.276,0.472
			c0.022,0.112,0.012,0.22-0.034,0.32c-0.049,0.101-0.199,0.25-0.45,0.453l-1.449,1.158c-0.22-0.087-0.421-0.199-0.608-0.333
			c-0.182-0.135-0.351-0.295-0.499-0.481c-0.252-0.316-0.405-0.696-0.461-1.144c-0.057-0.446,0.04-0.921,0.285-1.421
			c0.246-0.5,0.61-0.941,1.087-1.323c0.59-0.471,1.212-0.739,1.859-0.802c0.773-0.07,1.416,0.214,1.925,0.852
			c0.374,0.469,0.537,0.968,0.486,1.496c-0.033,0.368-0.195,0.775-0.486,1.221l0.105,0.13l1.479-1.395l-0.11-0.138
			c-0.133,0.093-0.232,0.14-0.303,0.141s-0.124-0.021-0.164-0.068c-0.035-0.048-0.082-0.16-0.144-0.339
			c-0.115-0.354-0.22-0.619-0.309-0.792c-0.091-0.175-0.206-0.352-0.354-0.534c-0.399-0.501-0.855-0.849-1.363-1.046
			c-0.608-0.23-1.255-0.281-1.939-0.148C150.134,47.115,149.626,47.348,149.188,47.7z"/>
		<path d="M157.887,55.888l-3.568,2.118c-0.314,0.186-0.531,0.278-0.648,0.273c-0.21-0.009-0.388-0.132-0.526-0.367l-0.122-0.208
			l-0.153,0.091l1.405,2.367l0.15-0.089l-0.127-0.211c-0.125-0.208-0.157-0.401-0.097-0.576c0.04-0.125,0.232-0.291,0.579-0.497
			l1.609-0.956c0.066,0.2,0.135,0.381,0.207,0.549c0.074,0.165,0.151,0.315,0.229,0.448c0.321,0.543,0.713,0.879,1.173,1.009
			c0.459,0.13,0.914,0.062,1.363-0.206c0.333-0.197,0.561-0.464,0.688-0.803c0.124-0.339,0.155-0.681,0.084-1.027
			c-0.065-0.345-0.245-0.766-0.54-1.26l-1.201-2.026l-0.15,0.09l0.127,0.207c0.122,0.209,0.155,0.403,0.099,0.579
			C158.427,55.515,158.235,55.682,157.887,55.888z M158.923,56.331c0.18,0.187,0.309,0.35,0.392,0.488
			c0.138,0.228,0.204,0.461,0.212,0.701c0.002,0.24-0.067,0.47-0.214,0.688c-0.147,0.22-0.34,0.401-0.578,0.542
			c-0.349,0.207-0.693,0.271-1.031,0.197c-0.341-0.075-0.595-0.254-0.764-0.537c-0.045-0.078-0.097-0.177-0.15-0.297
			c-0.05-0.119-0.106-0.259-0.164-0.418L158.923,56.331z"/>
		<path d="M156.58,63.354c-0.211-0.029-0.376-0.167-0.491-0.413l-0.101-0.219l-0.16,0.075l1.178,2.487l0.157-0.074l-0.106-0.226
			c-0.104-0.218-0.117-0.409-0.044-0.577c0.049-0.123,0.259-0.269,0.623-0.443l1.688-0.8c0.02,0.046,0.037,0.092,0.056,0.136
			c0.02,0.044,0.036,0.084,0.056,0.121c0.042,0.092,0.103,0.208,0.177,0.351l-1.78,3.252l0.735,1.548l0.157-0.074
			c-0.117-0.333-0.157-0.627-0.127-0.885c0.033-0.257,0.174-0.612,0.428-1.067l1.099-1.988c0.338,0.436,0.692,0.708,1.066,0.816
			c0.372,0.108,0.739,0.077,1.094-0.091c0.334-0.158,0.575-0.396,0.719-0.716c0.144-0.318,0.189-0.644,0.144-0.979
			c-0.05-0.335-0.22-0.812-0.512-1.428l-1.004-2.112l-0.158,0.075l0.104,0.218c0.104,0.22,0.12,0.416,0.049,0.586
			c-0.052,0.122-0.26,0.27-0.621,0.443l-3.751,1.778C156.92,63.304,156.697,63.372,156.58,63.354z M162.006,61.89
			c0.192,0.258,0.325,0.467,0.4,0.634c0.179,0.374,0.209,0.728,0.091,1.063c-0.121,0.334-0.361,0.586-0.724,0.76
			c-0.371,0.176-0.745,0.178-1.115,0.013c-0.377-0.168-0.69-0.528-0.956-1.082c-0.013-0.024-0.023-0.058-0.043-0.099
			c-0.019-0.039-0.039-0.088-0.063-0.143L162.006,61.89z"/>
		<path d="M159.873,69.811c-0.393,0.775-0.441,1.58-0.149,2.415c0.29,0.825,0.84,1.42,1.654,1.789
			c0.813,0.369,1.678,0.39,2.598,0.066c0.894-0.313,1.539-0.863,1.932-1.652c0.396-0.785,0.457-1.571,0.182-2.358
			c-0.28-0.793-0.782-1.381-1.511-1.766c-0.837-0.442-1.739-0.493-2.702-0.154C160.935,68.48,160.267,69.034,159.873,69.811z
			 M164.669,69.006c0.516,0.186,0.871,0.552,1.063,1.093c0.201,0.579,0.157,1.101-0.133,1.572c-0.362,0.587-1.066,1.063-2.103,1.428
			c-0.956,0.335-1.721,0.395-2.294,0.182c-0.575-0.216-0.962-0.608-1.162-1.176c-0.188-0.533-0.134-1.035,0.155-1.501
			c0.384-0.61,1.069-1.088,2.06-1.438C163.221,68.827,164.024,68.773,164.669,69.006z"/>
		<path d="M161.745,76.758c-0.182-0.08-0.301-0.249-0.363-0.505l-0.056-0.221l-0.17,0.043l0.66,2.676l0.168-0.043l-0.054-0.224
			c-0.037-0.148-0.035-0.299,0.007-0.449c0.028-0.113,0.082-0.192,0.148-0.244c0.092-0.064,0.296-0.136,0.611-0.212l1.959-0.481
			l0.282,1.136c0.049,0.208,0.059,0.373,0.03,0.492c-0.03,0.119-0.098,0.223-0.196,0.312c-0.099,0.087-0.27,0.161-0.51,0.224
			l0.042,0.169l2.108-0.518l-0.04-0.169c-0.353,0.044-0.598,0.02-0.743-0.074c-0.144-0.093-0.25-0.271-0.312-0.531l-0.28-1.136
			l2.451-0.602l0.339,1.375c0.081,0.326,0.106,0.574,0.082,0.743c-0.02,0.17-0.089,0.324-0.199,0.464
			c-0.109,0.138-0.304,0.284-0.575,0.437l0.044,0.161l1.353-0.398l-1.139-4.641l-0.172,0.041l0.058,0.221
			c0.037,0.149,0.032,0.299-0.007,0.449c-0.03,0.108-0.084,0.188-0.153,0.239c-0.092,0.064-0.294,0.136-0.613,0.212l-4.029,0.99
			C162.104,76.786,161.86,76.807,161.745,76.758z"/>
		<path d="M167.915,81.905l-4.123,0.629c-0.31,0.048-0.516,0.063-0.624,0.042c-0.104-0.02-0.188-0.077-0.252-0.169
			c-0.096-0.123-0.15-0.26-0.175-0.41l-0.033-0.225l-0.173,0.027l0.748,4.892l1.676,0.306l-0.027-0.188
			c-0.422-0.143-0.743-0.296-0.969-0.462c-0.17-0.127-0.291-0.267-0.363-0.422c-0.077-0.155-0.142-0.413-0.197-0.77l-0.165-1.078
			c-0.024-0.173-0.025-0.296,0-0.364c0.027-0.067,0.066-0.119,0.126-0.154c0.056-0.033,0.226-0.072,0.507-0.115l2.092-0.32
			l0.212,1.395c0.043,0.266,0.042,0.468-0.002,0.606c-0.041,0.136-0.115,0.242-0.213,0.314c-0.084,0.057-0.273,0.132-0.576,0.221
			l0.025,0.174l2.21-0.336l-0.024-0.174c-0.366,0.036-0.633-0.016-0.802-0.154c-0.129-0.106-0.22-0.34-0.276-0.702l-0.213-1.396
			l2.511-0.384l0.268,1.742c0.046,0.316,0.058,0.539,0.028,0.671c-0.041,0.167-0.12,0.298-0.23,0.397
			c-0.112,0.097-0.331,0.205-0.655,0.323l0.025,0.184l1.383-0.283l-0.749-4.893l-0.171,0.028l0.033,0.224
			c0.039,0.261,0.006,0.459-0.101,0.59C168.562,81.763,168.319,81.843,167.915,81.905z"/>
		<path d="M170.147,89.958c-0.033-0.545-0.229-0.983-0.584-1.315c-0.354-0.331-0.764-0.483-1.222-0.456
			c-0.266,0.018-0.505,0.092-0.718,0.227c-0.212,0.132-0.405,0.322-0.573,0.565c-0.168,0.243-0.388,0.649-0.66,1.217
			c-0.271,0.567-0.452,0.915-0.537,1.043c-0.13,0.194-0.269,0.336-0.426,0.435c-0.154,0.096-0.313,0.149-0.467,0.158
			c-0.284,0.019-0.539-0.08-0.76-0.294c-0.223-0.215-0.348-0.52-0.372-0.915c-0.021-0.341,0.033-0.657,0.169-0.951
			c0.131-0.295,0.31-0.519,0.529-0.673c0.22-0.153,0.556-0.285,1.013-0.396l-0.011-0.176l-2.199,0.139l0.011,0.175
			c0.15,0.014,0.251,0.041,0.301,0.083c0.047,0.042,0.074,0.103,0.084,0.182c0.003,0.081-0.032,0.281-0.115,0.592
			c-0.08,0.315-0.123,0.521-0.132,0.619c-0.019,0.165-0.021,0.342-0.014,0.527c0.042,0.592,0.245,1.067,0.62,1.42
			c0.377,0.354,0.808,0.517,1.29,0.487c0.259-0.018,0.499-0.09,0.726-0.225c0.222-0.13,0.415-0.313,0.574-0.542
			c0.159-0.231,0.378-0.655,0.661-1.275c0.348-0.76,0.632-1.245,0.859-1.456c0.15-0.145,0.322-0.222,0.52-0.238
			c0.257-0.015,0.489,0.077,0.703,0.279c0.213,0.202,0.333,0.467,0.352,0.795c0.019,0.29-0.036,0.576-0.168,0.856
			c-0.132,0.28-0.317,0.502-0.559,0.664c-0.245,0.164-0.575,0.285-1,0.37l0.013,0.175l2.217-0.143l-0.01-0.172
			c-0.15-0.022-0.25-0.059-0.303-0.108c-0.055-0.049-0.082-0.115-0.089-0.195c-0.003-0.074,0.028-0.201,0.096-0.381
			C170.107,90.664,170.17,90.299,170.147,89.958z"/>
		<path d="M169.902,97.815c0-0.075,0.044-0.197,0.126-0.371c0.175-0.379,0.266-0.74,0.272-1.081
			c0.012-0.545-0.146-1.001-0.471-1.361c-0.326-0.36-0.718-0.545-1.179-0.554c-0.266-0.003-0.509,0.052-0.733,0.166
			c-0.224,0.117-0.429,0.289-0.617,0.518c-0.188,0.226-0.44,0.612-0.759,1.155c-0.321,0.544-0.529,0.876-0.627,0.997
			c-0.142,0.18-0.296,0.312-0.458,0.394c-0.162,0.083-0.324,0.126-0.479,0.122c-0.286-0.005-0.529-0.125-0.731-0.361
			c-0.204-0.232-0.303-0.545-0.294-0.939c0.007-0.341,0.09-0.652,0.245-0.937c0.16-0.281,0.353-0.489,0.582-0.622
			c0.233-0.134,0.582-0.239,1.043-0.312l0.004-0.176l-2.2-0.045l-0.004,0.176c0.146,0.023,0.244,0.059,0.29,0.106
			c0.046,0.047,0.066,0.109,0.066,0.191c-0.003,0.08-0.055,0.275-0.162,0.58c-0.104,0.306-0.166,0.507-0.187,0.601
			c-0.031,0.167-0.05,0.339-0.053,0.528c-0.013,0.596,0.153,1.083,0.498,1.467c0.347,0.387,0.764,0.583,1.245,0.593
			c0.257,0.003,0.505-0.049,0.739-0.162c0.238-0.113,0.443-0.278,0.617-0.495c0.177-0.215,0.436-0.621,0.769-1.214
			c0.408-0.728,0.735-1.186,0.974-1.375c0.165-0.134,0.346-0.2,0.541-0.197c0.253,0.006,0.479,0.12,0.679,0.335
			c0.197,0.222,0.288,0.493,0.281,0.825c-0.007,0.288-0.085,0.566-0.238,0.836c-0.156,0.27-0.36,0.473-0.616,0.614
			c-0.256,0.144-0.598,0.239-1.023,0.284l-0.006,0.178l2.222,0.047l0.003-0.179c-0.146-0.033-0.243-0.075-0.293-0.131
			C169.924,97.966,169.9,97.898,169.902,97.815z"/>
		<path d="M169.79,100.63c-0.013,0.15-0.063,0.291-0.153,0.424c-0.064,0.095-0.138,0.151-0.22,0.176
			c-0.108,0.03-0.321,0.03-0.646,0.002l-4.132-0.369c-0.387-0.037-0.625-0.096-0.719-0.18c-0.143-0.131-0.201-0.33-0.18-0.596
			l0.021-0.227l-0.175-0.017l-0.243,2.742l0.173,0.016l0.02-0.232c0.016-0.15,0.066-0.289,0.152-0.417
			c0.063-0.096,0.141-0.156,0.224-0.181c0.106-0.031,0.32-0.031,0.645-0.005l4.134,0.37c0.386,0.037,0.622,0.098,0.716,0.184
			c0.144,0.134,0.203,0.33,0.179,0.595l-0.018,0.227l0.169,0.02l0.249-2.742l-0.175-0.017L169.79,100.63z"/>
		<path d="M166.47,104.177c-0.984-0.172-1.837-0.014-2.558,0.474c-0.722,0.486-1.158,1.164-1.306,2.037
			c-0.15,0.861,0.039,1.652,0.572,2.368c0.531,0.715,1.274,1.155,2.237,1.321c0.933,0.162,1.764-0.002,2.491-0.498
			c0.728-0.497,1.161-1.156,1.304-1.976c0.142-0.829-0.011-1.586-0.46-2.277C168.237,104.83,167.476,104.349,166.47,104.177z
			 M168.886,107.754c-0.106,0.606-0.397,1.041-0.882,1.31c-0.604,0.338-1.449,0.41-2.529,0.224
			c-1.001-0.174-1.698-0.492-2.095-0.959c-0.397-0.467-0.546-0.997-0.444-1.593c0.098-0.556,0.386-0.97,0.868-1.236
			c0.633-0.344,1.466-0.429,2.499-0.252c1.009,0.174,1.739,0.519,2.188,1.037C168.851,106.698,168.983,107.188,168.886,107.754z"/>
		<path d="M167.94,112.591c-0.108,0.16-0.211,0.277-0.303,0.352c-0.095,0.074-0.271,0.17-0.533,0.29l-4.294-1.229
			c-0.347-0.102-0.558-0.199-0.636-0.293c-0.127-0.153-0.15-0.364-0.076-0.627l0.061-0.213l-0.168-0.049l-0.614,2.148l0.167,0.048
			l0.065-0.215c0.066-0.243,0.18-0.4,0.342-0.482c0.119-0.054,0.367-0.026,0.746,0.084l3.803,1.09l-6.139,2.646l-0.05,0.164
			l5.207,1.491c0.345,0.1,0.556,0.196,0.634,0.29c0.127,0.157,0.154,0.362,0.077,0.623l-0.062,0.22l0.168,0.049l0.615-2.15
			l-0.168-0.045l-0.061,0.213c-0.066,0.241-0.183,0.4-0.345,0.477c-0.115,0.059-0.363,0.034-0.746-0.076l-3.562-1.022l5.713-2.446
			l0.48-1.678l-0.168-0.046C168.045,112.378,167.993,112.511,167.94,112.591z"/>
		<path d="M160.103,118.404c-0.041-0.104-0.029-0.287,0.026-0.555l-0.161-0.066l-0.765,1.874l0.162,0.067
			c0.138-0.28,0.257-0.449,0.36-0.507c0.105-0.058,0.204-0.066,0.295-0.029c0.111,0.046,0.266,0.169,0.456,0.359l0.772,0.786
			l-0.939,2.302l-1.001,0.012c-0.324,0.004-0.555-0.02-0.683-0.071c-0.096-0.042-0.162-0.117-0.195-0.228
			c-0.032-0.111-0.008-0.287,0.078-0.529l-0.161-0.063l-0.957,2.345l0.16,0.066c0.116-0.24,0.26-0.401,0.434-0.485
			c0.172-0.091,0.493-0.137,0.958-0.142l5.793-0.05l0.063-0.152l-4.04-4.09C160.398,118.891,160.183,118.608,160.103,118.404z
			 M163.498,122.616l-2.813,0.031l0.834-2.045L163.498,122.616z"/>
		<path d="M162.456,127.889c-0.113,0.216-0.26,0.348-0.439,0.388c-0.132,0.031-0.373-0.047-0.728-0.234l-3.663-1.943
			c-0.324-0.171-0.513-0.313-0.571-0.42c-0.102-0.183-0.089-0.398,0.04-0.636l0.112-0.215l-0.154-0.083l-2.332,4.393l1.282,1.303
			l0.103-0.125c-0.275-0.328-0.456-0.614-0.541-0.841c-0.084-0.233-0.115-0.454-0.084-0.664c0.028-0.209,0.159-0.532,0.392-0.969
			l0.218-0.414c0.194-0.363,0.322-0.575,0.39-0.629c0.064-0.057,0.132-0.083,0.212-0.086c0.11,0,0.279,0.066,0.512,0.187
			l3.564,1.893c0.336,0.178,0.539,0.314,0.605,0.407c0.063,0.092,0.095,0.214,0.087,0.365c-0.005,0.153-0.091,0.381-0.251,0.68
			l0.155,0.082l1.363-2.57l-0.155-0.084L162.456,127.889z"/>
		<path d="M82.301,168.184l-1.374-7.359l-0.21-0.045l-4.291,6.064c-0.374,0.534-0.683,0.876-0.927,1.023
			c-0.121,0.073-0.357,0.103-0.709,0.092l-0.046,0.22l2.556,0.55l0.046-0.222c-0.385-0.11-0.625-0.228-0.724-0.347
			c-0.098-0.119-0.132-0.237-0.107-0.363c0.033-0.153,0.15-0.376,0.354-0.663l0.826-1.161l3.143,0.676l0.241,1.271
			c0.078,0.416,0.099,0.71,0.061,0.885c-0.028,0.132-0.109,0.233-0.243,0.301c-0.134,0.066-0.365,0.071-0.691,0.021l-0.047,0.22
			l3.203,0.689l0.048-0.223c-0.326-0.091-0.566-0.239-0.716-0.439C82.542,169.171,82.412,168.777,82.301,168.184z M77.978,165.569
			l2.118-2.977l0.671,3.576L77.978,165.569z"/>
		<path d="M88.839,162.467l0.292,0.019c0.196,0.013,0.38,0.072,0.552,0.184c0.122,0.078,0.201,0.175,0.234,0.277
			c0.044,0.14,0.054,0.418,0.025,0.836l-0.345,5.355c-0.03,0.495-0.101,0.807-0.206,0.93c-0.168,0.19-0.423,0.275-0.766,0.255
			l-0.292-0.021l-0.015,0.225l3.55,0.23l0.014-0.227l-0.299-0.021c-0.196-0.014-0.377-0.068-0.546-0.181
			c-0.126-0.082-0.205-0.174-0.241-0.276c-0.045-0.14-0.053-0.415-0.025-0.84l0.345-5.352c0.031-0.495,0.102-0.809,0.213-0.93
			c0.168-0.192,0.42-0.275,0.759-0.255l0.3,0.022l0.015-0.226l-3.55-0.23L88.839,162.467z"/>
		<path d="M100.593,162.075c-1.082,0.088-1.982,0.523-2.7,1.308c-0.829,0.903-1.188,2.009-1.082,3.323
			c0.104,1.287,0.579,2.303,1.421,3.048c0.839,0.749,1.83,1.072,2.969,0.982c1.127-0.094,2.05-0.587,2.778-1.481
			c0.726-0.895,1.035-1.97,0.933-3.228c-0.099-1.219-0.576-2.207-1.431-2.959C102.628,162.32,101.665,161.987,100.593,162.075z
			 M103.004,169.237c-0.458,0.648-1.077,1.003-1.851,1.064c-0.729,0.061-1.338-0.168-1.826-0.686
			c-0.638-0.684-1.009-1.697-1.121-3.05c-0.106-1.315,0.09-2.341,0.592-3.072c0.403-0.583,0.973-0.906,1.716-0.964
			c0.789-0.066,1.43,0.16,1.922,0.674c0.615,0.653,0.979,1.685,1.096,3.101C103.637,167.61,103.46,168.591,103.004,169.237z"/>
		<path d="M114.408,160.747c-0.372-0.279-0.783-0.438-1.241-0.482c-0.452-0.043-1.038,0.026-1.76,0.212l-2.947,0.753l0.056,0.221
			l0.302-0.079c0.307-0.077,0.558-0.051,0.755,0.084c0.139,0.099,0.271,0.398,0.4,0.903l1.323,5.201
			c0.119,0.459,0.153,0.758,0.104,0.901c-0.09,0.259-0.303,0.431-0.646,0.521l-0.301,0.077l0.057,0.219l3.445-0.881l-0.055-0.221
			l-0.311,0.079c-0.306,0.077-0.554,0.051-0.749-0.089c-0.141-0.091-0.278-0.395-0.405-0.898l-0.6-2.346
			c0.272-0.009,0.525-0.028,0.758-0.06c0.232-0.028,0.444-0.067,0.64-0.116c0.792-0.201,1.353-0.563,1.682-1.086
			c0.328-0.522,0.407-1.112,0.239-1.767C115.034,161.408,114.784,161.026,114.408,160.747z M113.702,163.705
			c-0.219,0.395-0.531,0.646-0.943,0.75c-0.116,0.029-0.256,0.055-0.426,0.076c-0.167,0.021-0.357,0.041-0.578,0.058l-0.854-3.35
			c0.301-0.154,0.551-0.259,0.75-0.312c0.332-0.083,0.649-0.086,0.947-0.002c0.301,0.078,0.559,0.252,0.776,0.516
			c0.22,0.26,0.373,0.566,0.463,0.914C113.961,162.862,113.921,163.312,113.702,163.705z"/>
		<path d="M95,10c-46.869,0-85,38.13-85,85c0,46.87,38.131,85,85,85c46.866,0,85-38.13,85-85C180,48.13,141.868,10,95,10z
			 M95,178.855c-46.24,0-83.859-37.616-83.859-83.855c0-46.24,37.619-83.858,83.859-83.858c46.239,0,83.86,37.618,83.86,83.858
			C178.86,141.239,141.241,178.855,95,178.855z"/>
		<path d="M95,11.888c-45.828,0-83.111,37.285-83.111,83.112c0,45.826,37.282,83.111,83.111,83.111
			c45.829,0,83.112-37.285,83.112-83.111C178.112,49.173,140.827,11.888,95,11.888z M95,175.826
			c-44.569,0-80.828-36.259-80.828-80.827S50.431,14.17,95,14.17c44.569,0,80.828,36.26,80.828,80.83
			C175.828,139.567,139.569,175.826,95,175.826z"/>
		<path d="M95,30.935c-35.326,0-64.066,28.739-64.066,64.064c0,35.327,28.741,64.065,64.066,64.065
			c35.328,0,64.066-28.738,64.066-64.065C159.066,59.674,130.328,30.935,95,30.935z M95,157.922
			c-34.697,0-62.925-28.225-62.925-62.922c0-34.696,28.229-62.923,62.925-62.923c34.697,0,62.926,28.228,62.926,62.923
			C157.926,129.697,129.697,157.922,95,157.922z"/>
		<path d="M95,33.22c-34.066,0-61.78,27.714-61.78,61.78c0,34.067,27.714,61.779,61.78,61.779c34.066,0,61.78-27.712,61.78-61.779
			C156.78,60.934,129.066,33.22,95,33.22z M95,155.638c-33.438,0-60.637-27.2-60.637-60.638c0-33.437,27.2-60.639,60.637-60.639
			c33.436,0,60.64,27.204,60.64,60.639C155.64,128.438,128.436,155.638,95,155.638z"/>
		<path d="M60.969,159.643c-0.883,0.27-1.38,1.202-1.111,2.081c0.269,0.882,1.201,1.376,2.08,1.108
			c0.878-0.266,1.376-1.198,1.109-2.079C62.777,159.872,61.845,159.377,60.969,159.643z"/>
		<path d="M128.062,159.643c-0.877,0.27-1.375,1.202-1.105,2.081c0.267,0.882,1.198,1.376,2.078,1.108
			c0.88-0.266,1.376-1.198,1.107-2.079C129.876,159.872,128.94,159.377,128.062,159.643z"/>
		<path d="M81.041,140.698c-0.269-0.553-0.958-0.721-1.962-0.278c-1.009,0.438-1.755,1.91-1.753,1.915
			c-0.011,0.009,1.655,0.659,2.689,0.155C81.044,141.996,81.306,141.248,81.041,140.698z"/>
		<path d="M81.331,139.81c0.531-0.305,0.671-1.075,0.292-2.037c-0.378-0.947-1.563-1.507-1.563-1.519
			c0.005,0-0.667,1.527-0.31,2.537C80.108,139.796,80.809,140.108,81.331,139.81z"/>
		<path d="M78.375,138.631c0.564-0.229,0.806-0.978,0.563-1.977c-0.246-0.987-1.342-1.699-1.342-1.709
			c0.006,0-0.862,1.429-0.645,2.469C77.172,138.458,77.824,138.861,78.375,138.631z"/>
		<path d="M68.077,130.931c0.127-0.607-0.313-1.174-1.385-1.468c-1.07-0.295-2.572,0.393-2.574,0.395
			c-0.013,0.003,0.914,1.587,2.044,1.839C67.277,131.951,67.949,131.529,68.077,130.931z"/>
		<path d="M76.434,135.196c-0.114-1.016-1.106-1.864-1.105-1.875c0.004,0-1.042,1.304-0.965,2.365
			c0.082,1.063,0.67,1.549,1.25,1.393C76.204,136.925,76.542,136.218,76.434,135.196z"/>
		<path d="M90.64,140.933c-0.169,0.014-0.344,0.027-0.514,0.037c-1.221,0.07-1.886-0.814-2.458-1.648
			c-0.076-0.138-0.168-0.278-0.277-0.422c-0.635-0.813-1.951-1.041-1.953-1.05c0.001,0-0.177,1.258,0.192,2.167
			c0.178,0.445,0.428,0.863,0.714,0.891c0.235,0.022,0.476,0.042,0.713,0.058c0.505,0.033,0.54,0.44,0.54,0.44
			s-0.069,0.413-0.593,0.379c-0.248-0.019-0.492-0.037-0.741-0.057c-0.292-0.031-0.635,0.314-0.952,0.699
			c-0.644,0.767-0.898,2.008-0.894,2.008c-0.01,0.018,1.802,0.204,2.687-0.561c0.15-0.127,0.277-0.26,0.38-0.389
			c0.768-0.785,1.45-1.622,2.693-1.696c0.177-0.01,0.356-0.023,0.534-0.036c0.537-0.049,0.545-0.468,0.544-0.468
			S91.155,140.889,90.64,140.933z"/>
		<path d="M84.271,141.505c-0.345-0.508-1.057-0.587-2-0.017c-0.942,0.567-1.49,2.126-1.486,2.133
			c-0.009,0.009,1.74,0.434,2.707-0.202C84.451,142.794,84.611,142.013,84.271,141.505z"/>
		<path d="M84.437,140.584c0.491-0.365,0.524-1.151,0.015-2.053c-0.508-0.895-1.767-1.293-1.769-1.304
			c0.005,0-0.455,1.604,0.035,2.556C83.211,140.733,83.958,140.953,84.437,140.584z"/>
		<path d="M77.975,139.476c-0.193-0.583-0.85-0.838-1.904-0.535c-1.053,0.305-1.991,1.663-1.987,1.67
			c-0.014,0.009,1.548,0.872,2.636,0.504C77.8,140.763,78.16,140.053,77.975,139.476z"/>
		<path d="M70.118,133.566c0.048-0.614-0.461-1.109-1.557-1.247c-1.093-0.142-2.491,0.745-2.49,0.752
			c-0.012,0.004,1.105,1.428,2.254,1.517C69.461,134.685,70.07,134.174,70.118,133.566z"/>
		<path d="M69.966,131.26c-0.199,1.05,0.25,1.681,0.853,1.686c0.61,0.013,1.124-0.584,1.283-1.604
			c0.156-1.009-0.585-2.106-0.583-2.119C71.523,129.226,70.168,130.202,69.966,131.26z"/>
		<path d="M67.185,128.528c0.554-0.304,0.732-1.021,0.311-1.953c-0.417-0.916-1.865-1.633-1.87-1.647
			c-0.004-0.017-0.685,1.521-0.208,2.575C65.886,128.545,66.634,128.827,67.185,128.528z"/>
		<path d="M72.476,135.886c-0.012-0.232-0.103-0.434-0.268-0.598c-0.27-0.273-0.749-0.432-1.438-0.424
			c-1.099,0.009-2.36,1.076-2.36,1.082l0.002,0.004c-0.014,0.005,1.274,1.255,2.423,1.188
			C71.972,137.081,72.505,136.491,72.476,135.886z"/>
		<path d="M72.47,135c0.175,0.145,0.391,0.205,0.616,0.178c0.604-0.07,1.035-0.73,1.061-1.758c0.021-1.021-0.855-2.003-0.853-2.012
			c-0.001,0-0.003-0.004-0.003-0.004c0.004,0.004-1.206,1.152-1.267,2.216C71.984,134.289,72.179,134.758,72.47,135z"/>
		<path d="M75.104,137.865c-0.115-0.606-0.73-0.945-1.814-0.782c-1.086,0.157-2.195,1.384-2.194,1.388
			c-0.013,0.005,1.423,1.069,2.55,0.854C74.762,139.111,75.211,138.461,75.104,137.865z"/>
		<path d="M68.227,128.599c-0.333,1.029,0.031,1.719,0.627,1.81c0.607,0.095,1.193-0.426,1.486-1.422
			c0.285-0.984-0.313-2.19-0.306-2.202C70.04,126.789,68.564,127.576,68.227,128.599z"/>
		<path d="M103.737,141.726c-0.246,0.021-0.49,0.04-0.739,0.059c-0.525,0.033-0.596-0.379-0.596-0.379s0.035-0.407,0.54-0.442
			c0.241-0.015,0.479-0.033,0.714-0.056c0.288-0.029,0.537-0.445,0.718-0.891c0.367-0.91,0.188-2.169,0.192-2.169
			c-0.004,0.007-1.319,0.238-1.956,1.051c-0.106,0.145-0.199,0.282-0.277,0.423c-0.572,0.834-1.236,1.719-2.457,1.647
			c-0.171-0.011-0.345-0.024-0.514-0.037c-0.516-0.045-0.615,0.354-0.614,0.354c-0.001,0,0.009,0.419,0.544,0.466
			c0.178,0.013,0.354,0.027,0.533,0.037c1.242,0.073,1.924,0.911,2.694,1.695c0.102,0.13,0.228,0.263,0.379,0.39
			c0.885,0.764,2.693,0.577,2.688,0.561c0.002,0-0.255-1.242-0.896-2.009C104.374,142.04,104.03,141.696,103.737,141.726z"/>
		<path d="M117.791,135.288c-0.165,0.164-0.255,0.365-0.269,0.598c-0.028,0.605,0.505,1.195,1.643,1.254
			c1.145,0.066,2.433-1.183,2.418-1.188l0.004-0.006c0.003-0.003-1.262-1.071-2.36-1.08
			C118.539,134.856,118.061,135.015,117.791,135.288z"/>
		<path d="M116.706,131.408c0.004,0.01-0.875,0.99-0.853,2.012c0.025,1.026,0.454,1.688,1.062,1.758
			c0.223,0.026,0.441-0.033,0.616-0.177c0.292-0.241,0.485-0.711,0.447-1.379c-0.062-1.063-1.274-2.214-1.268-2.216L116.706,131.408
			z"/>
		<path d="M118.483,129.222c0.002,0.015-0.741,1.11-0.585,2.121c0.162,1.019,0.674,1.615,1.284,1.604
			c0.6-0.007,1.049-0.636,0.853-1.688C119.832,130.202,118.477,129.226,118.483,129.222z"/>
		<path d="M121.144,130.409c0.601-0.092,0.961-0.78,0.627-1.81c-0.335-1.023-1.809-1.809-1.807-1.813
			c0.009,0.011-0.591,1.218-0.307,2.201C119.953,129.983,120.539,130.505,121.144,130.409z"/>
		<path d="M124.58,127.504c0.481-1.056-0.201-2.592-0.209-2.575c-0.002,0.015-1.448,0.73-1.866,1.647
			c-0.422,0.932-0.243,1.649,0.312,1.954C123.364,128.827,124.113,128.545,124.58,127.504z"/>
		<path d="M123.31,129.465c-1.072,0.292-1.512,0.858-1.387,1.467c0.129,0.6,0.798,1.021,1.915,0.769
			c1.131-0.25,2.059-1.838,2.046-1.841C125.881,129.856,124.379,129.168,123.31,129.465z"/>
		<path d="M121.438,132.319c-1.096,0.138-1.606,0.633-1.557,1.247c0.049,0.607,0.657,1.118,1.793,1.022
			c1.149-0.09,2.264-1.514,2.252-1.518C123.931,133.064,122.532,132.178,121.438,132.319z"/>
		<path d="M107.728,141.486c-0.941-0.568-1.653-0.493-1.998,0.019c-0.341,0.508-0.181,1.289,0.779,1.913
			c0.965,0.636,2.718,0.212,2.704,0.202C109.22,143.614,108.673,142.056,107.728,141.486z"/>
		<path d="M110.253,138.79c0.353-1.009-0.316-2.538-0.312-2.538c0,0.014-1.184,0.573-1.563,1.519
			c-0.381,0.963-0.241,1.734,0.29,2.038C109.191,140.108,109.893,139.796,110.253,138.79z"/>
		<path d="M107.281,139.784c0.491-0.951,0.03-2.554,0.037-2.554c-0.004,0.008-1.262,0.407-1.769,1.301
			c-0.509,0.901-0.479,1.688,0.014,2.055C106.042,140.953,106.787,140.733,107.281,139.784z"/>
		<path d="M110.919,140.42c-1.002-0.442-1.692-0.275-1.963,0.278c-0.261,0.55,0,1.298,1.027,1.792
			c1.033,0.504,2.7-0.146,2.686-0.155C112.674,142.33,111.928,140.857,110.919,140.42z"/>
		<path d="M113.05,137.414c0.214-1.04-0.651-2.469-0.646-2.469c0,0.009-1.098,0.723-1.341,1.709
			c-0.243,0.999-0.004,1.747,0.561,1.977C112.175,138.861,112.83,138.458,113.05,137.414z"/>
		<path d="M114.386,137.079c0.578,0.157,1.167-0.33,1.249-1.393c0.077-1.063-0.97-2.365-0.965-2.365
			c0,0.011-0.989,0.859-1.104,1.875C113.46,136.218,113.795,136.925,114.386,137.079z"/>
		<path d="M113.93,138.94c-1.056-0.303-1.712-0.05-1.905,0.534c-0.187,0.578,0.175,1.286,1.253,1.639
			c1.089,0.367,2.651-0.496,2.636-0.505C115.92,140.604,114.982,139.244,113.93,138.94z"/>
		<path d="M116.711,137.081c-1.085-0.161-1.702,0.178-1.815,0.782c-0.11,0.596,0.343,1.248,1.459,1.459
			c1.128,0.217,2.561-0.847,2.548-0.854C118.905,138.467,117.797,137.239,116.711,137.081z"/>
		<path d="M130.722,76.103c-8.947,0-14.433-4.416-19.735-8.685c-4.826-3.887-9.385-7.558-15.983-7.558
			c-6.6,0-11.16,3.672-15.99,7.56c-5.304,4.269-10.789,8.683-19.734,8.683c-1.046,0-2.134-0.062-3.237-0.182l-2.454-0.269
			l0.607,2.392c11.57,45.587,38.903,59.241,40.062,59.801l0.82,0.398l0.789-0.463c1.229-0.724,30.275-18.141,39.944-59.773
			l0.544-2.352l-2.4,0.265C132.858,76.043,131.771,76.103,130.722,76.103z M94.937,134.317
			c-4.502-2.591-26.482-16.938-36.814-54.812c0.39,0.015,0.775,0.022,1.157,0.022c10.151,0,16.382-5.015,21.881-9.44
			c4.534-3.65,8.45-6.802,13.841-6.802c5.391,0,9.304,3.151,13.838,6.8c5.497,4.425,11.727,9.442,21.881,9.442
			c0.394,0,0.798-0.007,1.201-0.023C123.019,114.322,99.568,131.262,94.937,134.317z"/>
		<path d="M107.042,72.25c-4.762-3.836-7.896-6.188-12.092-6.188c-4.202,0-7.335,2.352-12.1,6.188
			c-4.83,3.889-10.844,8.729-19.744,9.821l-1.363,0.169l0.413,1.31c5.78,18.259,14.245,29.848,20.328,36.354
			c3.586,3.834,8.519,8.818,11.662,10.797l0.64,0.402l0.622-0.434c2.635-1.837,7.088-6.124,12.542-12.072
			c9.104-9.928,15.799-21.719,19.896-35.044l0.404-1.307l-1.36-0.162C117.932,81.016,111.895,76.155,107.042,72.25z M106.267,117.06
			c-4.847,5.284-8.99,9.332-11.542,11.281c-2.355-1.667-6.065-5.174-10.573-9.995c-5.779-6.176-13.772-17.088-19.406-34.204
			c8.791-1.462,14.722-6.239,19.535-10.112c4.376-3.523,7.234-5.682,10.669-5.682c3.431,0,6.287,2.158,10.662,5.682
			c4.834,3.892,10.799,8.691,19.651,10.133C121.234,96.635,114.852,107.697,106.267,117.06z"/>
		<path d="M83.065,109.996h2.271v-2.271h19.327v2.271h2.272V80.458H83.065V109.996z M85.337,82.73h19.327v6.82h-2.275v-2.273h-6.82
			v2.273h-5.355v-5.684h-2.273v5.684h-2.602C85.338,89.55,85.338,82.73,85.337,82.73z M85.337,90.688h19.327v6.807H93.373h-3.109
			v-5.67h-2.272v5.67h-2.654V90.688z M85.337,98.63h19.327v6.82h-2.275v-5.686h-2.273v5.686h-1.136v-5.686h-2.275v5.686H85.337
			V98.63z"/>
		<polygon points="93.533,91.388 91.4,92.176 93.373,97.494 95.503,96.706 		"/>
		<path d="M95.175,49.53c2.286-1.982,0.766-3.184-0.024-4.151c-0.09-0.111-0.236-0.116-0.328-0.004
			c-1.529,1.854-1.808,2.275-0.029,4.137C94.893,49.613,95.068,49.623,95.175,49.53z"/>
		<path d="M93.739,49.472c0.268,0-0.312-0.514-0.378-0.613c-0.648-0.939,0.131-1.439-1.332-1.439c-0.363,0-1.937,0.501-1.215,0.935
			C91.582,48.815,92.547,49.472,93.739,49.472z"/>
		<path d="M97.322,49.318c0.653-0.183,1.229-0.542,1.804-0.89c0.386-0.234,0.422-0.362,0.029-0.635
			c-0.332-0.234-0.711-0.373-1.125-0.373c-1.424,0-0.841,0.609-1.25,1.313C96.492,49.219,95.489,49.834,97.322,49.318z"/>
		<path d="M82.272,55.407c2.766-1.743,7.405-6,11.043-3.959c2.305,1.262,0.549,5.294-2.295,4.104
			c-1.758-0.698-0.796-2.602,0.77-1.783c1.123,0.588,1.796-1.115,0.71-1.508c-3.562-1.273-5.068,3.013-2.26,4.258
			c2.193,1.058,3.974,0.001,4.748-1.538c0.555,1.063,1.611,1.882,2.98,1.892c0.966,0.038,2.556-0.367,3.062-1.638
			c0.242-0.576,0.209-1.206,0.01-1.698c-0.948-2.421-4.791-1.583-4.014-0.101c0.203,0.386,0.677,0.587,1.164,0.333
			c1.279-0.67,1.878,0.363,1.661,1.007c-0.134,0.394-0.505,0.623-0.89,0.776c-3.19,1.333-4.897-3.744-1.464-4.412
			c5.866-1.583,10.112,7.115,16.31,5.755c4.57-1.165,2.317-6.635-1.611-5.104c-2.38,0.915-1.141,3.714,1.3,2.813
			c0.29-0.108,0.165-0.548-0.138-0.487c-1.532,0.308-2.482-1.153-0.275-1.563c3.735-0.356,3.42,4.309-1.295,3.753
			c-4.356-0.551-8.216-6.543-13.399-6.239c-1.77,0.106-2.846,0.788-3.392,1.68c-0.264-0.457-0.65-0.859-1.211-1.146
			c-4.275-2.227-9.031,2.31-11.917,4.162c-7.5,4.819-9.798-2.671-4.967-2.211c2.195,0.406,1.259,1.871-0.275,1.563
			c-0.121-0.023-0.244,0.042-0.288,0.162c-0.049,0.131,0.019,0.276,0.149,0.326c2.71,1.005,3.861-2.479,0.529-3.01
			C70.99,51.01,73.266,61.062,82.272,55.407z"/>
		<path d="M58.579,69.32c0.132,0.063,0.271,0.093,0.415,0.093c0.373,0,0.718-0.218,0.879-0.559c0.01-0.022,0.172-0.368,0.203-0.428
			c0.031-0.082,0.239-0.455,0.534-0.826c0.322-0.469,1.151-1.202,2.106-1.688c0.141-0.067,0.18-0.09,0.208-0.107
			c0.049-0.027,0.06-0.032,0.61-0.261c1.178-0.432,2.274-0.496,2.824-0.496c0.412,0,0.782,0.033,1.08,0.098l0.521,0.089
			c0.215,0,0.392-0.157,0.422-0.373c0.005-0.035-0.017-0.061-0.019-0.094l0,0c0.044-0.178-0.038-0.354-0.266-0.475
			c-0.326-0.171-0.634-0.334-0.935-0.585c-2.092-1.625-2.438-4.032-2.155-4.975l0.079-0.349c0.052-0.236,0.004-0.474-0.134-0.667
			c-0.136-0.192-0.349-0.318-0.684-0.354c-0.421,0-0.777,0.317-0.828,0.735c-0.105,0.882-0.111,1.143,0.082,2.158
			c0.415,1.542,1.152,2.679,2.433,3.721l-0.379-0.004c-1.868,0-3.27,0.376-4.839,1.301c-1.524,0.901-2.25,2.123-2.574,2.667
			c-0.141,0.234-0.177,0.519-0.098,0.78C58.144,68.985,58.332,69.202,58.579,69.32z"/>
		<path d="M122.104,65.228c0.006,0,0.467-0.083,0.467-0.083c0.288-0.064,0.659-0.097,1.07-0.097c0.549,0,1.645,0.063,2.814,0.493
			c0.559,0.231,0.568,0.237,0.618,0.264c0.028,0.018,0.07,0.04,0.203,0.104c0.961,0.493,1.789,1.224,2.119,1.705
			c0.288,0.358,0.496,0.731,0.538,0.838c0.016,0.036,0.182,0.38,0.192,0.408c0.159,0.338,0.505,0.555,0.878,0.555
			c0.143,0,0.284-0.03,0.417-0.093c0.247-0.118,0.434-0.334,0.513-0.598c0.08-0.261,0.043-0.546-0.15-0.865
			c-0.276-0.46-1.003-1.681-2.524-2.583c-1.569-0.923-2.967-1.3-4.836-1.3l-0.408,0.007c1.281-1.042,2.046-2.177,2.466-3.74
			c0.189-0.998,0.182-1.257,0.079-2.142c-0.051-0.416-0.399-0.73-0.914-0.73c-0.006,0-0.01,0-0.016,0
			c-0.234,0.029-0.447,0.155-0.583,0.346c-0.14,0.194-0.186,0.431-0.132,0.675l0.082,0.354c0.279,0.928-0.065,3.335-2.167,4.964
			c-0.293,0.245-0.6,0.406-0.991,0.615c-0.165,0.087-0.246,0.261-0.204,0.44c-0.002,0.032-0.022,0.059-0.019,0.094
			C121.649,65.073,121.821,65.228,122.104,65.228z"/>
	</g>
</g>
</svg>
