<?xml version="1.0" encoding="utf-8"?>
<!-- Generator: Adobe Illustrator 16.0.3, SVG Export Plug-In . SVG Version: 6.00 Build 0)  -->
<!DOCTYPE svg PUBLIC "-//W3C//DTD SVG 1.1//EN" "http://www.w3.org/Graphics/SVG/1.1/DTD/svg11.dtd">
<svg version="1.1" id="Layer_1" xmlns="http://www.w3.org/2000/svg" xmlns:xlink="http://www.w3.org/1999/xlink" x="0px" y="0px"
	 width="110px" height="110px" viewBox="0 0 110 110" enable-background="new 0 0 110 110" xml:space="preserve">
<g id="portfolio">
	<g>
		<path fill="#010101" d="M55,0.318C24.8,0.318,0.318,24.8,0.318,55S24.8,109.682,55,109.682S109.682,85.201,109.682,55
			C109.682,24.8,85.2,0.318,55,0.318z M101.131,45.758l-0.785,0.201l-0.396-1.544l-4.349,1.115l-0.244-0.955l4.348-1.115
			l-0.398-1.551l0.785-0.201L101.131,45.758z M97.891,35.943c0.017,0.041,0.028,0.075,0.036,0.104
			c0.009,0.028,0.011,0.056,0.011,0.081c-0.002,0.026-0.008,0.053-0.019,0.081s-0.026,0.061-0.049,0.099l-2.213,3.923
			c0.075-0.042,0.149-0.08,0.225-0.115c0.073-0.034,0.144-0.065,0.209-0.092l2.978-1.229l0.332,0.803l-4.897,2.022l-0.192-0.471
			c-0.031-0.072-0.045-0.137-0.041-0.193c0.002-0.056,0.023-0.12,0.063-0.189l2.204-3.908c-0.069,0.037-0.139,0.071-0.209,0.104
			c-0.07,0.033-0.135,0.061-0.191,0.085l-3.009,1.242l-0.331-0.803l4.896-2.023L97.891,35.943z M94.884,30.401l1.689,2.883
			l-0.677,0.396l-1.188-2.026l-1.268,0.743l0.936,1.597l-0.654,0.383l-0.935-1.596l-1.294,0.758l1.188,2.026l-0.68,0.398
			l-1.689-2.883L94.884,30.401z M90.262,24.229c0.027,0.034,0.051,0.064,0.067,0.09c0.019,0.026,0.032,0.053,0.04,0.079
			c0.01,0.025,0.012,0.054,0.009,0.085c-0.003,0.031-0.013,0.065-0.028,0.104l-1.285,3.084c-0.035,0.082-0.073,0.163-0.116,0.243
			c-0.044,0.08-0.087,0.161-0.132,0.242c0.091-0.029,0.18-0.056,0.27-0.082c0.09-0.026,0.178-0.047,0.266-0.064l3.267-0.634
			c0.041-0.008,0.075-0.011,0.106-0.009c0.029,0.002,0.057,0.01,0.08,0.024s0.047,0.032,0.068,0.055s0.046,0.052,0.074,0.086
			l0.47,0.578l-4.112,3.342l-0.548-0.674l2.656-2.159c0.049-0.04,0.104-0.083,0.165-0.127c0.063-0.045,0.125-0.089,0.189-0.133
			l-3.342,0.653c-0.076,0.015-0.146,0.011-0.214-0.011c-0.065-0.021-0.125-0.063-0.174-0.124l-0.086-0.105
			c-0.05-0.061-0.077-0.126-0.085-0.195c-0.008-0.069,0.004-0.14,0.033-0.211l1.315-3.162c-0.057,0.059-0.112,0.113-0.17,0.165
			c-0.058,0.051-0.112,0.098-0.163,0.139l-2.656,2.159l-0.547-0.674l4.11-3.342L90.262,24.229z M86.543,20.562
			c0.264,0.237,0.463,0.473,0.602,0.708c0.137,0.235,0.219,0.464,0.244,0.688c0.024,0.224-0.002,0.439-0.08,0.648
			c-0.078,0.208-0.201,0.404-0.365,0.587c-0.172,0.191-0.36,0.337-0.567,0.439c-0.206,0.102-0.424,0.153-0.653,0.153
			c-0.23,0-0.47-0.054-0.718-0.162s-0.5-0.277-0.756-0.507l-0.551-0.495l-1.247,1.387l-0.732-0.659l3.541-3.94L86.543,20.562z
			 M77.003,18.101c0.075-0.348,0.222-0.683,0.437-1.006c0.215-0.323,0.468-0.587,0.76-0.791c0.291-0.204,0.602-0.342,0.932-0.413
			c0.33-0.071,0.671-0.071,1.021-0.001c0.351,0.07,0.691,0.216,1.025,0.438c0.334,0.222,0.6,0.481,0.799,0.777s0.33,0.61,0.393,0.94
			s0.055,0.669-0.021,1.016c-0.074,0.348-0.22,0.683-0.435,1.006c-0.216,0.324-0.47,0.587-0.761,0.791s-0.602,0.342-0.93,0.414
			c-0.33,0.072-0.668,0.072-1.019,0.003c-0.351-0.07-0.69-0.215-1.024-0.437c-0.334-0.222-0.602-0.481-0.802-0.777
			c-0.201-0.296-0.333-0.61-0.396-0.942C76.922,18.787,76.928,18.448,77.003,18.101z M75.536,13.18l-1.978,4.025l1.903,0.936
			l-0.358,0.73l-2.789-1.37l2.336-4.756L75.536,13.18z M69.325,10.696l3.151,1.11l-0.26,0.739l-2.216-0.78l-0.487,1.386l1.745,0.614
			l-0.252,0.715l-1.746-0.614l-0.497,1.414l2.215,0.78l-0.261,0.743l-3.151-1.109L69.325,10.696z M63.004,9.174
			c0.084,0.018,0.148,0.052,0.191,0.104c0.045,0.051,0.072,0.112,0.087,0.182l0.565,3.417c0.021,0.111,0.035,0.232,0.047,0.363
			c0.013,0.131,0.021,0.268,0.025,0.411c0.111-0.264,0.229-0.492,0.354-0.687l1.871-2.914c0.032-0.05,0.082-0.093,0.146-0.127
			c0.063-0.034,0.137-0.043,0.218-0.026l0.779,0.161l-3.167,4.756l-0.872-0.18l-1.023-5.622L63.004,9.174z M56.997,8.575
			l3.333,0.233L60.275,9.59l-2.344-0.164l-0.103,1.466l1.846,0.129l-0.053,0.757l-1.847-0.129l-0.104,1.495l2.345,0.164
			l-0.056,0.786l-3.334-0.233L56.997,8.575z M51.97,8.682c0.399-0.026,0.768,0.015,1.106,0.124c0.337,0.109,0.631,0.272,0.88,0.489
			c0.25,0.218,0.449,0.484,0.6,0.8c0.151,0.316,0.238,0.667,0.264,1.055c0.025,0.387-0.017,0.748-0.125,1.08
			c-0.108,0.333-0.271,0.624-0.491,0.873c-0.218,0.25-0.488,0.449-0.808,0.6c-0.321,0.151-0.681,0.239-1.081,0.266l-2.019,0.132
			L49.95,8.814L51.97,8.682z M40.355,12.574c0.033-0.354,0.129-0.679,0.29-0.977c0.16-0.297,0.381-0.557,0.661-0.778
			c0.281-0.222,0.614-0.387,0.999-0.498c0.385-0.11,0.755-0.146,1.109-0.104c0.355,0.041,0.678,0.144,0.97,0.311
			s0.545,0.391,0.761,0.674c0.216,0.283,0.377,0.61,0.484,0.984c0.107,0.373,0.144,0.737,0.111,1.091
			c-0.034,0.354-0.129,0.679-0.288,0.977c-0.159,0.297-0.378,0.556-0.658,0.777c-0.28,0.221-0.612,0.387-0.997,0.498
			c-0.385,0.111-0.755,0.146-1.111,0.107c-0.356-0.039-0.68-0.143-0.973-0.31s-0.548-0.393-0.764-0.675
			c-0.215-0.283-0.377-0.61-0.484-0.984C40.358,13.291,40.322,12.928,40.355,12.574z M37.496,12.048l2.061,4.881l-0.911,0.385
			l-2.062-4.881L37.496,12.048z M32.692,14.347l2.131,3.946l1.867-1.008L37.077,18l-2.734,1.477l-2.518-4.662L32.692,14.347z
			 M26.465,19.309c0.047-0.334,0.165-0.654,0.352-0.959s0.442-0.576,0.765-0.813c0.323-0.236,0.659-0.397,1.005-0.481
			c0.346-0.084,0.686-0.099,1.018-0.043c0.331,0.056,0.647,0.179,0.946,0.369c0.3,0.19,0.565,0.443,0.794,0.756
			s0.39,0.643,0.48,0.986c0.091,0.344,0.114,0.682,0.067,1.016c-0.046,0.334-0.162,0.653-0.348,0.957
			c-0.187,0.305-0.441,0.575-0.765,0.812c-0.323,0.237-0.658,0.398-1.005,0.484s-0.688,0.102-1.021,0.045s-0.649-0.179-0.949-0.37
			c-0.3-0.19-0.565-0.443-0.794-0.756s-0.39-0.642-0.48-0.985C26.44,19.984,26.417,19.643,26.465,19.309z M23.898,20.561
			l0.546,0.562l-1.683,1.638l1.093,1.124l1.421-1.382l0.549,0.564l-1.421,1.382l1.505,1.547l-0.712,0.692l-3.695-3.798
			L23.898,20.561z M20.025,24.464l0.631,0.507l-0.998,1.243l3.5,2.811l-0.617,0.768l-3.5-2.811l-1.003,1.249l-0.631-0.507
			L20.025,24.464z M15.205,31.101c0.189-0.308,0.383-0.552,0.581-0.733c0.199-0.18,0.398-0.306,0.599-0.376
			c0.201-0.07,0.401-0.089,0.601-0.057c0.2,0.032,0.395,0.107,0.586,0.225c0.152,0.093,0.282,0.204,0.39,0.332
			s0.191,0.268,0.25,0.42c0.058,0.152,0.091,0.316,0.098,0.491c0.007,0.175-0.013,0.357-0.06,0.546
			c0.125-0.069,0.268-0.108,0.428-0.116l2.362-0.106l-0.464,0.756c-0.045,0.073-0.097,0.125-0.158,0.159
			c-0.061,0.034-0.129,0.051-0.205,0.053l-2.028,0.061c-0.076,0.002-0.139,0.018-0.188,0.046c-0.049,0.028-0.099,0.084-0.15,0.167
			l-0.221,0.359l1.764,1.083l-0.516,0.84l-4.514-2.773L15.205,31.101z M12.074,37.076c0.156-0.369,0.362-0.679,0.617-0.928
			c0.255-0.25,0.539-0.437,0.853-0.558c0.313-0.122,0.647-0.177,1.002-0.167c0.355,0.01,0.711,0.092,1.069,0.243
			c0.357,0.152,0.663,0.353,0.917,0.601c0.254,0.249,0.447,0.528,0.578,0.839c0.131,0.31,0.194,0.644,0.19,1
			c-0.004,0.356-0.084,0.719-0.241,1.087c-0.157,0.369-0.362,0.679-0.617,0.931c-0.254,0.252-0.539,0.439-0.853,0.561
			c-0.315,0.123-0.65,0.179-1.005,0.168c-0.355-0.01-0.711-0.091-1.069-0.243c-0.357-0.152-0.663-0.352-0.917-0.601
			s-0.446-0.529-0.577-0.84c-0.13-0.311-0.194-0.646-0.188-1.004C11.836,37.808,11.917,37.444,12.074,37.076z M9.925,43.564
			c0.089-0.343,0.207-0.628,0.352-0.858c0.146-0.229,0.313-0.407,0.499-0.533s0.39-0.201,0.611-0.227
			c0.222-0.025,0.452-0.007,0.69,0.055c0.248,0.064,0.465,0.165,0.65,0.302c0.186,0.136,0.332,0.307,0.437,0.511
			c0.106,0.204,0.168,0.441,0.187,0.711s-0.017,0.571-0.103,0.905l-0.187,0.716l1.805,0.47l-0.248,0.954L9.49,45.235L9.925,43.564z
			 M9.962,54.491c0-0.759,0.615-1.375,1.375-1.375c0.759,0,1.375,0.616,1.375,1.375c0,0.759-0.616,1.375-1.375,1.375
			C10.577,55.866,9.962,55.25,9.962,54.491z M27.155,89.553c-8.574-6.758-14.582-16.631-16.299-27.896h1.427
			c1.708,10.832,7.516,20.318,15.778,26.816L27.155,89.553z M37.756,93.822c-0.092,0.055-0.178,0.061-0.261,0.019
			c-0.052-0.026-0.096-0.071-0.133-0.135c-0.048-0.076-0.098-0.154-0.149-0.233c-0.051-0.078-0.113-0.154-0.186-0.23
			c-0.072-0.075-0.158-0.151-0.258-0.229c-0.1-0.074-0.221-0.15-0.365-0.225c-0.233-0.119-0.462-0.188-0.69-0.207
			c-0.229-0.018-0.446,0.012-0.654,0.089s-0.399,0.2-0.576,0.367c-0.177,0.168-0.33,0.377-0.459,0.629
			c-0.14,0.271-0.226,0.533-0.259,0.784c-0.033,0.251-0.018,0.484,0.044,0.699c0.062,0.217,0.167,0.412,0.317,0.586
			c0.149,0.175,0.336,0.318,0.56,0.435c0.198,0.103,0.379,0.172,0.544,0.212c0.165,0.039,0.33,0.063,0.495,0.067l0.441-0.857
			l-0.59-0.304c-0.057-0.029-0.093-0.066-0.109-0.115c-0.017-0.049-0.013-0.096,0.01-0.141l0.255-0.496l1.567,0.806l-0.98,1.907
			c-0.164,0.023-0.327,0.036-0.489,0.034c-0.163-0.003-0.328-0.021-0.496-0.056c-0.167-0.033-0.34-0.084-0.519-0.148
			c-0.179-0.064-0.364-0.146-0.557-0.247c-0.344-0.177-0.628-0.397-0.856-0.667s-0.392-0.563-0.493-0.885
			c-0.101-0.32-0.136-0.659-0.102-1.016c0.034-0.357,0.14-0.709,0.32-1.061c0.182-0.354,0.407-0.648,0.674-0.885
			c0.267-0.237,0.561-0.407,0.882-0.512c0.322-0.104,0.664-0.137,1.025-0.1c0.363,0.038,0.731,0.154,1.107,0.348
			c0.384,0.197,0.688,0.426,0.911,0.686c0.223,0.259,0.385,0.529,0.487,0.813L37.756,93.822z M36.684,46.027l3.637-2.986h33.586
			v38.191c-0.748,0.528-1.515,1.026-2.302,1.49V46.027H36.684z M69.068,48.563v35.503c-0.78,0.369-1.575,0.713-2.387,1.021
			c-0.758,0.289-1.535,0.555-2.313,0.785c-3.035,0.904-6.187,1.363-9.369,1.363c-6.23,0-12.298-1.762-17.548-5.094
			c-0.726-0.461-1.43-0.947-2.094-1.444c-0.125-0.093-0.246-0.193-0.369-0.288V48.563H69.068z M43.021,96.264
			c-0.058,0.168-0.138,0.319-0.24,0.452c-0.102,0.134-0.22,0.244-0.356,0.334c-0.136,0.091-0.289,0.157-0.458,0.202
			c-0.169,0.045-0.352,0.064-0.546,0.059c0.094,0.107,0.163,0.239,0.205,0.394l0.613,2.284l-0.838-0.291
			c-0.081-0.027-0.144-0.067-0.189-0.119c-0.045-0.053-0.077-0.115-0.096-0.188l-0.497-1.969c-0.019-0.072-0.047-0.132-0.085-0.173
			c-0.039-0.042-0.104-0.079-0.197-0.11L39.939,97l-0.678,1.957l-0.932-0.323l1.734-5.007l1.527,0.529
			c0.341,0.117,0.622,0.255,0.841,0.408c0.219,0.155,0.385,0.324,0.497,0.504c0.112,0.182,0.174,0.373,0.185,0.574
			C43.125,95.844,43.094,96.052,43.021,96.264z M48.093,101.264c-0.084-0.016-0.149-0.051-0.194-0.104
			c-0.046-0.053-0.074-0.112-0.087-0.18l-0.18-1.137l-2.154-0.421l-0.596,0.984c-0.03,0.052-0.078,0.095-0.143,0.129
			c-0.065,0.034-0.139,0.044-0.22,0.026l-0.751-0.146l3.059-4.801l0.989,0.192l1.026,5.601L48.093,101.264z M55.693,99.193
			c-0.02,0.389-0.1,0.742-0.244,1.061c-0.145,0.319-0.339,0.59-0.584,0.813c-0.245,0.225-0.535,0.393-0.871,0.507
			c-0.335,0.114-0.703,0.161-1.103,0.144l-2.021-0.093l0.244-5.293l2.021,0.094c0.4,0.019,0.762,0.101,1.085,0.246
			c0.323,0.146,0.597,0.341,0.82,0.584c0.224,0.244,0.393,0.531,0.507,0.861C55.663,98.447,55.71,98.807,55.693,99.193z
			 M61.871,100.089c-0.074,0.276-0.196,0.521-0.366,0.731c-0.17,0.212-0.385,0.388-0.644,0.521c-0.26,0.137-0.559,0.221-0.896,0.256
			c-0.338,0.033-0.646,0.01-0.927-0.07c-0.281-0.082-0.524-0.209-0.733-0.383c-0.207-0.176-0.375-0.391-0.504-0.646
			c-0.128-0.256-0.207-0.54-0.238-0.854l-0.318-3.158l0.98-0.1l0.317,3.153c0.021,0.202,0.065,0.382,0.138,0.539
			s0.163,0.288,0.277,0.394c0.113,0.106,0.248,0.183,0.404,0.229c0.154,0.049,0.328,0.063,0.519,0.044
			c0.188-0.02,0.354-0.066,0.499-0.146c0.143-0.078,0.26-0.18,0.352-0.305c0.093-0.124,0.158-0.271,0.195-0.438
			c0.038-0.17,0.047-0.354,0.026-0.557l-0.318-3.156l0.979-0.1l0.32,3.157C61.966,99.518,61.943,99.813,61.871,100.089z
			 M68.177,99.986c-0.083,0.021-0.157,0.018-0.22-0.012c-0.064-0.027-0.115-0.07-0.154-0.127l-0.644-0.953l-2.132,0.525
			l-0.125,1.145c-0.006,0.06-0.029,0.117-0.074,0.178c-0.045,0.059-0.107,0.098-0.188,0.117l-0.744,0.185l0.752-5.644l0.979-0.241
			l3.29,4.646L68.177,99.986z M71.339,98.91l-1.603-4.192l-1.496,0.571l-0.289-0.756l3.904-1.493l0.291,0.757l-1.489,0.568
			l1.603,4.193L71.339,98.91z M75.593,97.114l-2.485-4.679l2.951-1.567l0.368,0.692l-2.073,1.102l0.688,1.298l1.635-0.868
			l0.355,0.669l-1.635,0.869l0.703,1.323l2.074-1.102l0.37,0.694L75.593,97.114z M77.182,78.59
			c-0.242,0.225-0.488,0.441-0.738,0.656V40.504h-37.03l-6.726,5.523h-0.235v32.218c-1.703-1.612-3.235-3.4-4.568-5.349
			c-0.955-1.396-1.806-2.875-2.532-4.395c-2.109-4.418-3.181-9.152-3.185-14.073C22.169,36.328,36.897,21.602,55,21.602
			c18.104,0,32.832,14.727,32.834,32.83c-0.007,8.285-3.122,16.2-8.771,22.288C78.458,77.371,77.825,77.999,77.182,78.59z
			 M83.787,89.081l-0.795-1.169c7.891-6.479,13.42-15.732,15.078-26.257h1.429C97.82,72.662,92.046,82.339,83.787,89.081z
			 M99.154,56.148c-0.76,0-1.375-0.616-1.375-1.375c0-0.759,0.615-1.375,1.375-1.375s1.375,0.616,1.375,1.375
			C100.529,55.532,99.914,56.148,99.154,56.148z"/>
		<g>
			<path fill="#010101" d="M65.354,96.166c-0.004,0.13-0.008,0.25-0.015,0.361c-0.006,0.113-0.015,0.212-0.026,0.298l-0.205,1.858
				l1.641-0.404l-1.049-1.557c-0.047-0.068-0.102-0.15-0.16-0.246C65.479,96.383,65.416,96.279,65.354,96.166z"/>
			<path fill="#010101" d="M47.18,96.969c-0.015-0.109-0.027-0.229-0.036-0.359c-0.058,0.115-0.113,0.224-0.166,0.322
				c-0.053,0.101-0.103,0.186-0.15,0.26l-0.97,1.599l1.658,0.323l-0.295-1.854C47.208,97.177,47.193,97.08,47.18,96.969z"/>
			<path fill="#010101" d="M41.342,94.875l-0.596-0.206l-0.576,1.662l0.582,0.201c0.175,0.062,0.336,0.092,0.482,0.094
				c0.145,0.001,0.273-0.021,0.385-0.069c0.111-0.05,0.206-0.119,0.284-0.211c0.078-0.092,0.139-0.201,0.183-0.328
				c0.088-0.254,0.072-0.479-0.048-0.673S41.686,94.994,41.342,94.875z"/>
			<path fill="#010101" d="M54.299,97.76c-0.136-0.166-0.306-0.297-0.508-0.393c-0.203-0.096-0.433-0.147-0.691-0.16l-1.029-0.047
				l-0.172,3.727l1.028,0.049c0.259,0.012,0.494-0.021,0.704-0.098s0.391-0.189,0.542-0.344c0.152-0.152,0.272-0.344,0.36-0.57
				c0.089-0.227,0.14-0.484,0.153-0.775s-0.014-0.553-0.081-0.787C54.538,98.128,54.436,97.927,54.299,97.76z"/>
			<path fill="#010101" d="M78.135,19.642c0.125,0.186,0.297,0.351,0.512,0.494c0.215,0.145,0.434,0.237,0.652,0.28
				s0.434,0.038,0.643-0.016c0.207-0.053,0.408-0.155,0.601-0.305c0.19-0.149,0.368-0.346,0.528-0.588
				c0.162-0.242,0.273-0.48,0.338-0.715c0.063-0.235,0.08-0.46,0.05-0.674c-0.031-0.214-0.108-0.414-0.233-0.599
				c-0.125-0.186-0.295-0.35-0.511-0.493s-0.435-0.237-0.653-0.281c-0.221-0.043-0.436-0.039-0.646,0.015
				c-0.21,0.054-0.412,0.155-0.604,0.304c-0.191,0.149-0.369,0.345-0.529,0.587c-0.161,0.242-0.273,0.48-0.336,0.716
				c-0.063,0.235-0.078,0.46-0.045,0.674C77.93,19.256,78.009,19.456,78.135,19.642z"/>
			<path fill="#010101" d="M85.159,22.809c0.13,0.056,0.256,0.082,0.378,0.078c0.122-0.003,0.238-0.036,0.354-0.096
				c0.113-0.061,0.219-0.146,0.318-0.257c0.096-0.105,0.165-0.215,0.208-0.33c0.044-0.115,0.062-0.232,0.049-0.35
				c-0.011-0.119-0.053-0.239-0.124-0.361c-0.07-0.122-0.174-0.243-0.309-0.364l-0.551-0.495l-1.271,1.415l0.55,0.495
				C84.896,22.664,85.029,22.752,85.159,22.809z"/>
			<path fill="#010101" d="M15.894,37.008c-0.182-0.161-0.408-0.298-0.675-0.412c-0.267-0.114-0.522-0.181-0.765-0.2
				c-0.243-0.019-0.467,0.006-0.671,0.076c-0.205,0.07-0.386,0.183-0.546,0.339c-0.159,0.157-0.29,0.354-0.391,0.592
				c-0.101,0.238-0.153,0.47-0.155,0.694c-0.003,0.225,0.042,0.435,0.133,0.632c0.092,0.197,0.229,0.376,0.41,0.539
				c0.182,0.162,0.407,0.3,0.674,0.414c0.268,0.114,0.523,0.18,0.766,0.198c0.243,0.019,0.466-0.008,0.671-0.08
				c0.204-0.071,0.386-0.186,0.545-0.343c0.16-0.158,0.291-0.355,0.392-0.594c0.102-0.238,0.153-0.469,0.155-0.692
				c0.001-0.223-0.042-0.433-0.133-0.628C16.213,37.348,16.076,37.17,15.894,37.008z"/>
			<path fill="#010101" d="M12.205,43.121c-0.106-0.073-0.231-0.128-0.375-0.166c-0.137-0.036-0.267-0.047-0.389-0.033
				c-0.123,0.013-0.233,0.052-0.333,0.117s-0.188,0.157-0.264,0.276c-0.075,0.119-0.135,0.266-0.181,0.441l-0.187,0.716l1.841,0.479
				l0.187-0.716c0.045-0.175,0.063-0.333,0.053-0.475c-0.01-0.142-0.044-0.266-0.104-0.372
				C12.393,43.284,12.31,43.194,12.205,43.121z"/>
			<path fill="#010101" d="M52.264,13.187c0.259-0.017,0.488-0.075,0.688-0.174c0.2-0.099,0.367-0.232,0.5-0.402
				c0.134-0.169,0.232-0.371,0.294-0.606c0.063-0.235,0.085-0.499,0.066-0.789s-0.075-0.547-0.168-0.773
				c-0.093-0.225-0.217-0.413-0.371-0.563c-0.154-0.15-0.337-0.261-0.549-0.333c-0.212-0.072-0.447-0.099-0.705-0.083l-1.027,0.067
				l0.244,3.722L52.264,13.187z"/>
			<path fill="#010101" d="M27.824,20.715c0.171,0.235,0.357,0.422,0.557,0.562c0.199,0.14,0.405,0.232,0.617,0.275
				s0.427,0.038,0.645-0.016c0.218-0.054,0.431-0.157,0.641-0.31c0.209-0.153,0.371-0.325,0.487-0.516s0.185-0.394,0.207-0.608
				s-0.004-0.437-0.079-0.668c-0.074-0.232-0.197-0.465-0.369-0.7c-0.171-0.235-0.356-0.422-0.555-0.563
				c-0.199-0.141-0.404-0.234-0.615-0.279c-0.212-0.045-0.426-0.041-0.644,0.012c-0.217,0.053-0.43,0.156-0.639,0.309
				c-0.209,0.153-0.372,0.326-0.489,0.517c-0.117,0.192-0.187,0.396-0.209,0.611c-0.022,0.216,0.003,0.44,0.077,0.672
				C27.53,20.248,27.652,20.481,27.824,20.715z"/>
			<path fill="#010101" d="M41.763,14.106c0.139,0.201,0.3,0.357,0.484,0.471c0.184,0.114,0.387,0.184,0.61,0.208
				c0.224,0.025,0.459,0.002,0.708-0.069c0.249-0.071,0.461-0.177,0.636-0.316c0.175-0.139,0.31-0.305,0.404-0.499
				c0.095-0.193,0.147-0.412,0.157-0.655c0.01-0.243-0.024-0.504-0.104-0.784c-0.08-0.28-0.189-0.52-0.327-0.72
				c-0.137-0.201-0.298-0.359-0.48-0.474c-0.183-0.115-0.386-0.186-0.608-0.211c-0.222-0.025-0.458-0.002-0.706,0.069
				c-0.25,0.071-0.461,0.177-0.638,0.316c-0.176,0.139-0.312,0.307-0.407,0.501c-0.095,0.195-0.148,0.414-0.16,0.658
				c-0.012,0.243,0.023,0.505,0.104,0.784C41.515,13.667,41.624,13.906,41.763,14.106z"/>
			<path fill="#010101" d="M17.411,31.269c-0.072-0.096-0.166-0.18-0.281-0.25c-0.229-0.141-0.451-0.173-0.667-0.098
				c-0.215,0.076-0.418,0.268-0.608,0.578l-0.33,0.537l1.499,0.921l0.322-0.525c0.097-0.158,0.162-0.308,0.195-0.45
				c0.032-0.142,0.038-0.272,0.015-0.391C17.531,31.473,17.483,31.365,17.411,31.269z"/>
		</g>
		<g>
			<rect x="47.814" y="70.189" fill="#010101" width="9.866" height="2.537"/>
			<rect x="42.09" y="75.551" fill="#010101" width="21.314" height="2.537"/>
			<path fill="#010101" d="M48.716,63.313l4.089,3.888l3.995-3.896c0.562-0.468,0.88-1.152,0.88-1.906l-0.002-0.135
				c0.002-0.041,0.002-0.08,0.002-0.121c0-0.084-0.004-0.168-0.01-0.252l-0.006-0.272h-0.03c-0.249-1.396-1.473-2.461-2.94-2.461
				c-0.728,0-1.415,0.264-1.948,0.723c-0.533-0.459-1.219-0.723-1.947-0.723c-1.47,0-2.695,1.067-2.941,2.469h-0.044v0.782
				C47.814,62.15,48.142,62.843,48.716,63.313z M50.8,59.72c0.527,0,1.009,0.291,1.257,0.759l0.69,1.304l0.691-1.304
				c0.248-0.468,0.729-0.759,1.257-0.759c0.785,0,1.422,0.638,1.422,1.423c0,0.057-0.004,0.111-0.012,0.166l-0.039,0.41
				c-0.056,0.154-0.15,0.291-0.281,0.397l-2.994,2.913l-3.022-2.872l-0.053-0.046c-0.128-0.103-0.224-0.232-0.28-0.383l-0.049-0.422
				c-0.006-0.054-0.011-0.108-0.011-0.166C49.377,60.357,50.016,59.72,50.8,59.72z"/>
		</g>
	</g>
</g>
</svg>
