<?xml version="1.0" encoding="utf-8"?>
<!-- Generator: Adobe Illustrator 16.0.3, SVG Export Plug-In . SVG Version: 6.00 Build 0)  -->
<!DOCTYPE svg PUBLIC "-//W3C//DTD SVG 1.1//EN" "http://www.w3.org/Graphics/SVG/1.1/DTD/svg11.dtd">
<svg version="1.1" id="Layer_1" xmlns="http://www.w3.org/2000/svg" xmlns:xlink="http://www.w3.org/1999/xlink" x="0px" y="0px"
	 width="110px" height="110px" viewBox="0 0 110 110" enable-background="new 0 0 110 110" xml:space="preserve">
<g id="sfx">
	<g>
		<path fill="#010101" d="M55,0.393C24.848,0.393,0.403,24.841,0.403,55c0,30.158,24.444,54.607,54.597,54.607
			c30.152,0,54.598-24.449,54.598-54.607C109.598,24.841,85.152,0.393,55,0.393z M102.204,55.486l-0.808,0.022l-0.045-1.591
			l-4.48,0.125l-0.027-0.984l4.481-0.125l-0.046-1.598l0.81-0.022L102.204,55.486z M101.348,46.746
			c0.185,0.308,0.309,0.661,0.37,1.058c0.063,0.388,0.054,0.737-0.024,1.047c-0.077,0.31-0.202,0.585-0.373,0.825l-0.504-0.253
			c-0.032-0.015-0.063-0.036-0.088-0.062c-0.026-0.027-0.045-0.066-0.053-0.12c-0.01-0.056,0.004-0.115,0.038-0.18
			c0.033-0.065,0.069-0.146,0.104-0.243c0.037-0.098,0.065-0.217,0.089-0.36c0.021-0.143,0.016-0.319-0.019-0.529
			c-0.039-0.246-0.117-0.465-0.236-0.657c-0.117-0.192-0.269-0.35-0.45-0.473c-0.183-0.123-0.396-0.208-0.636-0.255
			s-0.504-0.048-0.787-0.003c-0.295,0.047-0.549,0.13-0.766,0.25c-0.216,0.12-0.391,0.263-0.523,0.43s-0.229,0.354-0.28,0.56
			c-0.052,0.206-0.062,0.419-0.024,0.642c0.021,0.132,0.047,0.251,0.078,0.356c0.031,0.104,0.069,0.2,0.115,0.286
			c0.046,0.085,0.1,0.164,0.162,0.237c0.063,0.073,0.136,0.144,0.221,0.211c0.025,0.021,0.047,0.043,0.064,0.068
			c0.018,0.024,0.027,0.052,0.033,0.083c0.009,0.053-0.006,0.102-0.041,0.147l-0.354,0.449c-0.297-0.17-0.539-0.399-0.729-0.686
			c-0.188-0.287-0.317-0.648-0.387-1.082c-0.063-0.388-0.052-0.748,0.032-1.078c0.083-0.331,0.226-0.624,0.427-0.881
			c0.201-0.257,0.457-0.47,0.767-0.639c0.309-0.169,0.657-0.284,1.046-0.346c0.393-0.062,0.762-0.054,1.107,0.024
			c0.349,0.078,0.658,0.217,0.933,0.415C100.938,46.184,101.164,46.438,101.348,46.746z M100.758,43.154l-0.751,0.222l-0.665-2.25
			l-1.406,0.416l0.523,1.772l-0.727,0.214l-0.524-1.772l-1.435,0.424l0.664,2.25l-0.754,0.223l-0.947-3.2l5.076-1.499
			L100.758,43.154z M99.074,37.87l-0.721,0.31l-0.929-2.153l-1.438,0.621l0.785,1.817l-0.723,0.312l-0.783-1.817l-1.979,0.854
			l-0.394-0.91l4.858-2.097L99.074,37.87z M96.771,32.823l-0.678,0.394l-1.179-2.028l-1.354,0.787l0.994,1.711l-0.68,0.396
			l-0.995-1.712l-1.862,1.083l-0.498-0.857l4.574-2.658L96.771,32.823z M91.837,25.361l2.009,2.666l-0.625,0.471l-1.412-1.874
			l-1.172,0.882l1.111,1.476l-0.605,0.456l-1.11-1.476l-1.195,0.9l1.41,1.874l-0.628,0.473l-2.008-2.666L91.837,25.361z
			 M87.177,20.405l-3.069,3.261l1.541,1.452l-0.557,0.592l-2.259-2.127l3.627-3.853L87.177,20.405z M83.277,17.164l-1.43,5.502
			l-0.615-0.447c-0.069-0.05-0.113-0.108-0.133-0.175c-0.021-0.067-0.021-0.133-0.002-0.199l0.313-1.104l-1.772-1.289l-0.955,0.641
			c-0.047,0.034-0.109,0.053-0.184,0.057s-0.145-0.019-0.211-0.067l-0.619-0.45l4.793-3.058L83.277,17.164z M78.979,14.321
			l-2.623,4.595l-0.856-0.489l2.623-4.596L78.979,14.321z M70.723,14.44c0.024-0.352,0.115-0.707,0.271-1.067
			c0.158-0.364,0.365-0.671,0.617-0.922c0.254-0.25,0.537-0.437,0.854-0.561c0.314-0.123,0.65-0.179,1.01-0.168
			c0.358,0.011,0.723,0.098,1.09,0.259c0.36,0.157,0.649,0.352,0.869,0.585c0.219,0.232,0.383,0.486,0.492,0.76l-0.484,0.288
			c-0.029,0.019-0.063,0.032-0.1,0.041c-0.037,0.008-0.08,0.001-0.129-0.021c-0.052-0.022-0.095-0.065-0.131-0.129
			c-0.037-0.063-0.086-0.137-0.146-0.22c-0.063-0.083-0.148-0.172-0.259-0.268c-0.108-0.095-0.26-0.185-0.454-0.27
			c-0.228-0.1-0.455-0.151-0.681-0.156c-0.226-0.004-0.438,0.038-0.642,0.125c-0.202,0.088-0.389,0.22-0.558,0.398
			c-0.169,0.178-0.313,0.398-0.427,0.662c-0.119,0.273-0.188,0.532-0.202,0.778c-0.015,0.246,0.011,0.471,0.079,0.673
			c0.068,0.203,0.176,0.382,0.32,0.537c0.146,0.155,0.32,0.278,0.525,0.368c0.123,0.054,0.237,0.095,0.344,0.125
			c0.104,0.03,0.205,0.049,0.303,0.056c0.097,0.008,0.191,0.005,0.287-0.008c0.095-0.013,0.193-0.037,0.297-0.072
			c0.031-0.01,0.063-0.017,0.092-0.018c0.03-0.001,0.061,0.004,0.088,0.017c0.051,0.021,0.084,0.059,0.104,0.113l0.188,0.541
			c-0.303,0.158-0.627,0.239-0.971,0.243s-0.717-0.081-1.119-0.257c-0.359-0.157-0.657-0.36-0.891-0.608s-0.404-0.526-0.514-0.834
			C70.738,15.121,70.697,14.792,70.723,14.44z M66.934,9.359l3.205,0.929l-0.218,0.752l-2.254-0.652l-0.407,1.409l1.774,0.514
			l-0.211,0.728l-1.774-0.514l-0.417,1.438l2.253,0.653l-0.219,0.755l-3.205-0.928L66.934,9.359z M61.032,8.256l1.702,0.269
			c0.35,0.055,0.645,0.144,0.889,0.266c0.242,0.123,0.434,0.27,0.578,0.443c0.143,0.173,0.236,0.369,0.285,0.586
			c0.047,0.217,0.052,0.447,0.013,0.691c-0.039,0.253-0.118,0.479-0.235,0.676s-0.272,0.359-0.466,0.484
			c-0.192,0.125-0.422,0.21-0.688,0.254c-0.266,0.044-0.568,0.04-0.908-0.014l-0.729-0.115l-0.291,1.84l-0.973-0.153L61.032,8.256z
			 M55.378,12.106c0.029-0.033,0.062-0.061,0.101-0.083c0.039-0.022,0.082-0.032,0.126-0.03c0.062,0.002,0.125,0.029,0.195,0.082
			c0.068,0.053,0.15,0.111,0.244,0.176c0.094,0.064,0.206,0.124,0.335,0.178c0.129,0.054,0.284,0.085,0.468,0.091
			c0.279,0.01,0.5-0.049,0.657-0.176c0.158-0.127,0.242-0.315,0.251-0.563c0.004-0.139-0.025-0.253-0.093-0.344
			c-0.065-0.09-0.156-0.167-0.269-0.231c-0.112-0.063-0.242-0.119-0.387-0.166c-0.145-0.046-0.292-0.097-0.441-0.151
			c-0.148-0.054-0.295-0.118-0.438-0.191c-0.146-0.073-0.272-0.167-0.382-0.281c-0.11-0.114-0.198-0.254-0.262-0.421
			s-0.091-0.372-0.083-0.613c0.007-0.192,0.052-0.379,0.135-0.559c0.084-0.18,0.202-0.338,0.354-0.474
			c0.152-0.136,0.338-0.243,0.555-0.321c0.218-0.078,0.465-0.112,0.74-0.102c0.312,0.011,0.598,0.07,0.857,0.177
			c0.259,0.107,0.479,0.251,0.657,0.433l-0.257,0.456c-0.029,0.053-0.063,0.089-0.098,0.11c-0.037,0.021-0.078,0.03-0.129,0.028
			c-0.048-0.002-0.102-0.022-0.162-0.063c-0.06-0.04-0.13-0.084-0.211-0.134c-0.082-0.049-0.177-0.095-0.285-0.136
			c-0.11-0.042-0.24-0.065-0.392-0.071c-0.138-0.005-0.257,0.008-0.358,0.037c-0.103,0.029-0.189,0.072-0.262,0.128
			s-0.126,0.125-0.163,0.205c-0.036,0.081-0.057,0.17-0.061,0.267c-0.005,0.125,0.026,0.229,0.094,0.314
			c0.065,0.085,0.156,0.159,0.269,0.222s0.241,0.12,0.387,0.171c0.145,0.051,0.293,0.106,0.441,0.164
			c0.15,0.058,0.299,0.124,0.442,0.199c0.144,0.075,0.271,0.167,0.381,0.277c0.111,0.11,0.198,0.243,0.263,0.399
			c0.064,0.156,0.092,0.344,0.086,0.563c-0.01,0.239-0.059,0.461-0.146,0.667c-0.09,0.206-0.216,0.383-0.378,0.532
			c-0.163,0.149-0.359,0.264-0.589,0.345c-0.23,0.082-0.492,0.117-0.784,0.106c-0.168-0.006-0.333-0.028-0.495-0.067
			s-0.316-0.091-0.465-0.158c-0.148-0.066-0.285-0.144-0.413-0.234c-0.127-0.09-0.241-0.189-0.34-0.298L55.378,12.106z
			 M55.282,21.788c18.153,0,32.923,14.772,32.923,32.931c0,8.635-3.342,16.501-8.797,22.381c-0.604,0.649-1.231,1.276-1.885,1.877
			c-3.041,2.791-6.606,5.019-10.528,6.518c-0.183,0.068-0.366,0.133-0.552,0.197l-6.248-19.186l-14.66,4.777l5.228,16.053
			c-0.018-0.003-0.035-0.004-0.054-0.007c-4.735-0.662-9.153-2.332-13.025-4.791c-0.718-0.456-1.419-0.938-2.1-1.447
			c-2.907-2.179-5.441-4.825-7.495-7.827c-0.954-1.395-1.805-2.865-2.539-4.404c-2.046-4.286-3.193-9.082-3.193-14.141
			C22.359,36.56,37.128,21.788,55.282,21.788z M48.877,8.401l0.584,4.441l2.101-0.276l0.105,0.805l-3.077,0.405L47.901,8.53
			L48.877,8.401z M42.918,9.634l0.973-0.258l3.363,4.583l-0.735,0.195c-0.083,0.022-0.156,0.019-0.22-0.008
			s-0.116-0.068-0.156-0.124l-0.658-0.942l-2.119,0.561l-0.105,1.145c-0.004,0.059-0.028,0.119-0.072,0.178
			c-0.043,0.06-0.105,0.1-0.186,0.121l-0.739,0.195L42.918,9.634z M35.29,12.449c0.041-0.017,0.075-0.03,0.104-0.038
			c0.028-0.009,0.055-0.012,0.081-0.011c0.025,0,0.052,0.006,0.081,0.017c0.029,0.01,0.062,0.026,0.1,0.047l3.953,2.146
			c-0.043-0.074-0.082-0.148-0.118-0.222c-0.036-0.074-0.068-0.143-0.096-0.208l-1.275-2.953l0.796-0.344l2.098,4.857l-0.467,0.202
			c-0.072,0.031-0.136,0.045-0.192,0.043c-0.057-0.002-0.121-0.023-0.19-0.062l-3.937-2.138c0.037,0.069,0.073,0.138,0.107,0.207
			c0.034,0.069,0.063,0.133,0.089,0.191l1.289,2.983l-0.796,0.344l-2.099-4.857L35.29,12.449z M29.18,16.798
			c0.07-0.33,0.208-0.641,0.416-0.932c0.207-0.291,0.479-0.543,0.817-0.757c0.338-0.213,0.683-0.351,1.035-0.411
			c0.351-0.061,0.689-0.052,1.017,0.026c0.326,0.078,0.632,0.222,0.917,0.432c0.287,0.21,0.533,0.479,0.74,0.808
			c0.208,0.328,0.344,0.666,0.412,1.015c0.068,0.348,0.067,0.687-0.002,1.017c-0.069,0.329-0.207,0.639-0.413,0.929
			c-0.206,0.291-0.478,0.542-0.816,0.756c-0.338,0.214-0.683,0.352-1.035,0.414c-0.352,0.063-0.691,0.054-1.02-0.024
			c-0.328-0.078-0.635-0.223-0.921-0.433c-0.286-0.21-0.532-0.479-0.739-0.807c-0.208-0.328-0.345-0.666-0.412-1.015
			C29.109,17.467,29.11,17.128,29.18,16.798z M26.358,18.055l3.331,4.111l-0.768,0.622l-3.331-4.111L26.358,18.055z M23.973,20.021
			l0.569,0.575l-1.131,1.12l3.155,3.185l-0.7,0.693l-3.154-3.185l-1.136,1.125l-0.569-0.575L23.973,20.021z M19.022,25.319
			l5.439,1.653l-0.472,0.597c-0.054,0.067-0.113,0.109-0.181,0.125c-0.067,0.017-0.134,0.015-0.199-0.005l-1.091-0.36l-1.36,1.719
			l0.602,0.979c0.032,0.05,0.047,0.112,0.048,0.186c0.001,0.074-0.024,0.143-0.076,0.208l-0.475,0.6l-2.86-4.913L19.022,25.319z
			 M13.976,32.923c0.022-0.038,0.042-0.069,0.06-0.092c0.018-0.024,0.037-0.042,0.058-0.058c0.021-0.015,0.046-0.026,0.075-0.035
			c0.029-0.009,0.065-0.016,0.108-0.022l4.451-0.644c-0.078-0.034-0.154-0.07-0.227-0.107c-0.073-0.038-0.14-0.074-0.201-0.109
			l-2.789-1.603l0.433-0.752l4.586,2.638l-0.253,0.441c-0.04,0.067-0.082,0.118-0.129,0.15c-0.046,0.032-0.109,0.054-0.189,0.064
			l-4.434,0.642c0.071,0.032,0.142,0.066,0.209,0.102c0.069,0.035,0.13,0.068,0.186,0.1l2.816,1.62l-0.432,0.752l-4.586-2.638
			L13.976,32.923z M11.841,37.662c0.133-0.335,0.282-0.609,0.446-0.821c0.164-0.211,0.338-0.369,0.524-0.473
			c0.185-0.104,0.379-0.157,0.58-0.159c0.203-0.002,0.408,0.038,0.616,0.121c0.165,0.066,0.312,0.152,0.44,0.259
			c0.128,0.107,0.234,0.231,0.318,0.371c0.083,0.139,0.144,0.295,0.181,0.465c0.037,0.171,0.048,0.354,0.034,0.547
			c0.112-0.089,0.246-0.152,0.401-0.187l2.305-0.51l-0.327,0.823c-0.032,0.08-0.075,0.141-0.128,0.184
			c-0.053,0.043-0.118,0.072-0.192,0.087l-1.985,0.408c-0.074,0.015-0.133,0.041-0.176,0.078s-0.083,0.1-0.119,0.191l-0.156,0.391
			l1.921,0.764l-0.363,0.915l-4.917-1.953L11.841,37.662z M10.519,41.409l0.759,0.193l-0.58,2.273l1.422,0.362l0.457-1.791
			l0.734,0.188l-0.457,1.791l1.451,0.37l0.579-2.273l0.762,0.194l-0.825,3.234l-5.127-1.307L10.519,41.409z M9.274,46.681
			l0.802,0.103l-0.201,1.579l4.446,0.567l-0.125,0.976L9.75,49.338l-0.203,1.586l-0.802-0.103L9.274,46.681z M8.663,56.93
			c-0.001-0.043,0-0.08,0.003-0.109c0.003-0.028,0.01-0.055,0.021-0.078s0.026-0.047,0.047-0.068
			c0.02-0.021,0.047-0.047,0.081-0.074l3.493-2.834c-0.085,0.012-0.168,0.02-0.25,0.024c-0.082,0.005-0.158,0.008-0.229,0.009
			L8.613,53.85l-0.015-0.867l5.291-0.086l0.009,0.509c0,0.078-0.01,0.143-0.034,0.194c-0.023,0.052-0.066,0.103-0.129,0.152
			l-3.479,2.823c0.078-0.009,0.155-0.017,0.232-0.021c0.077-0.006,0.147-0.009,0.21-0.01l3.249-0.053l0.014,0.867l-5.29,0.086
			L8.663,56.93z M8.924,59.994l5.251-0.646l0.12,0.98l-5.251,0.646L8.924,59.994z M11.714,66.044c0-0.61,0.495-1.104,1.104-1.104
			s1.104,0.494,1.104,1.104s-0.495,1.104-1.104,1.104S11.714,66.654,11.714,66.044z M14.238,76.063l3.099-1.441
			c0.057-0.027,0.121-0.055,0.191-0.084c0.069-0.028,0.142-0.057,0.216-0.082l-3.395-0.184c-0.078-0.004-0.146-0.024-0.205-0.063
			c-0.059-0.037-0.105-0.091-0.138-0.161l-0.057-0.123c-0.033-0.069-0.044-0.141-0.035-0.21c0.01-0.068,0.038-0.135,0.084-0.195
			l2.045-2.74c-0.069,0.041-0.138,0.08-0.206,0.117c-0.068,0.035-0.132,0.066-0.192,0.096l-3.098,1.441l-0.366-0.785l4.796-2.233
			l0.314,0.673c0.019,0.04,0.033,0.074,0.044,0.104c0.011,0.031,0.018,0.06,0.02,0.086c0.002,0.027-0.003,0.057-0.014,0.086
			c-0.01,0.027-0.028,0.06-0.053,0.093l-1.996,2.674c-0.053,0.07-0.11,0.14-0.172,0.207c-0.061,0.067-0.124,0.136-0.187,0.202
			c0.094-0.006,0.188-0.012,0.28-0.014c0.092-0.004,0.184-0.002,0.271,0.002l3.319,0.183c0.041,0.003,0.076,0.009,0.105,0.019
			c0.028,0.01,0.052,0.023,0.072,0.043s0.037,0.043,0.053,0.069c0.016,0.028,0.033,0.062,0.052,0.103l0.313,0.674l-4.797,2.232
			L14.238,76.063z M18.147,82.3c-0.048-0.069-0.07-0.141-0.065-0.21c0.004-0.068,0.025-0.133,0.064-0.188l0.669-0.936l-1.235-1.811
			l-1.114,0.281c-0.058,0.017-0.122,0.014-0.192-0.008s-0.129-0.065-0.176-0.136l-0.431-0.632l5.542-1.266l0.567,0.83l-3.199,4.7
			L18.147,82.3z M23.671,84.323c-0.068-0.007-0.133-0.021-0.194-0.046c0.032,0.08,0.051,0.16,0.055,0.244
			c0.004,0.084-0.004,0.178-0.024,0.277l-0.587,3.028l-0.588-0.644c-0.079-0.086-0.125-0.162-0.14-0.227
			c-0.015-0.064-0.011-0.133,0.009-0.204l0.431-2.424c0.014-0.078,0.01-0.149-0.01-0.214c-0.02-0.063-0.068-0.137-0.144-0.221
			l-0.21-0.229l-1.717,1.57l-0.665-0.727l3.906-3.574l0.665,0.727l-1.639,1.5l0.156,0.17c0.063,0.068,0.124,0.116,0.185,0.145
			c0.06,0.027,0.125,0.039,0.196,0.032l2.349-0.17c0.099-0.009,0.182,0.003,0.25,0.031c0.067,0.028,0.136,0.081,0.205,0.155
			l0.574,0.627l-2.825,0.171C23.818,84.33,23.74,84.329,23.671,84.323z M28.067,89.264l-1.415-1.189l-0.963,1.146l1.795,1.511
			l-0.505,0.602l-2.555-2.146l3.404-4.051l2.555,2.146l-0.504,0.6l-1.796-1.509l-0.944,1.124l1.415,1.188L28.067,89.264z
			 M33.008,93.887c-0.228,0.172-0.475,0.287-0.74,0.35c-0.264,0.063-0.54,0.065-0.827,0.013c-0.287-0.054-0.573-0.171-0.86-0.353
			c-0.286-0.183-0.514-0.392-0.685-0.629c-0.17-0.235-0.284-0.486-0.339-0.752c-0.056-0.266-0.055-0.537,0.002-0.816
			c0.058-0.28,0.171-0.553,0.34-0.818l1.698-2.676l0.831,0.527l-1.696,2.673c-0.109,0.171-0.183,0.34-0.224,0.507
			c-0.042,0.168-0.05,0.328-0.026,0.48s0.083,0.297,0.176,0.431c0.092,0.134,0.219,0.252,0.38,0.354
			c0.16,0.103,0.321,0.167,0.482,0.193s0.315,0.021,0.464-0.021c0.149-0.043,0.291-0.117,0.424-0.226
			c0.133-0.108,0.255-0.248,0.364-0.419l1.698-2.676l0.831,0.527l-1.698,2.676C33.436,93.497,33.237,93.715,33.008,93.887z
			 M39.615,94.469c-0.106,0.233-0.242,0.43-0.408,0.588c-0.167,0.159-0.359,0.273-0.578,0.344c-0.219,0.068-0.463,0.09-0.731,0.062
			c-0.269-0.028-0.56-0.114-0.873-0.256l-0.673-0.308l-0.771,1.696l-0.896-0.407l2.189-4.816l1.569,0.713
			c0.322,0.146,0.584,0.313,0.785,0.494c0.201,0.183,0.347,0.376,0.439,0.581s0.131,0.419,0.119,0.641
			C39.774,94.021,39.717,94.244,39.615,94.469z M47.241,96.699c-0.061,0.248-0.158,0.466-0.292,0.652
			c-0.134,0.188-0.301,0.336-0.504,0.444c-0.202,0.108-0.438,0.175-0.707,0.196s-0.571-0.008-0.905-0.09l-0.719-0.174l-0.44,1.81
			l-0.957-0.233l1.253-5.141l1.675,0.408c0.344,0.084,0.631,0.197,0.863,0.339c0.232,0.142,0.412,0.305,0.54,0.489
			c0.129,0.185,0.208,0.387,0.237,0.606C47.314,96.229,47.299,96.459,47.241,96.699z M51.825,100.916
			c-0.085-0.01-0.156-0.034-0.211-0.074c-0.055-0.04-0.101-0.095-0.135-0.162l-0.926-1.803c-0.035-0.066-0.075-0.117-0.122-0.148
			c-0.047-0.033-0.119-0.054-0.216-0.063l-0.418-0.045l-0.22,2.056l-0.979-0.104l0.563-5.262l1.604,0.172
			c0.359,0.039,0.663,0.107,0.911,0.209c0.248,0.103,0.447,0.229,0.596,0.379s0.252,0.322,0.309,0.518
			c0.057,0.193,0.072,0.402,0.049,0.625c-0.019,0.178-0.063,0.342-0.132,0.494c-0.069,0.15-0.159,0.287-0.271,0.404
			s-0.245,0.219-0.4,0.3c-0.155,0.082-0.328,0.142-0.518,0.181c0.116,0.084,0.212,0.195,0.288,0.336l1.109,2.084L51.825,100.916z
			 M48.317,72.698l10.464-3.41l5.564,17.085c-0.017,0.003-0.031,0.008-0.048,0.013c-2.868,0.818-5.891,1.263-9.017,1.263
			c-0.712,0-1.418-0.026-2.119-0.07L48.317,72.698z M59.456,99.35c-0.117,0.334-0.29,0.627-0.517,0.877
			c-0.226,0.248-0.5,0.446-0.823,0.594c-0.325,0.146-0.688,0.227-1.089,0.24c-0.398,0.015-0.766-0.041-1.102-0.166
			c-0.335-0.123-0.624-0.303-0.867-0.535c-0.244-0.232-0.436-0.512-0.577-0.838c-0.14-0.326-0.217-0.684-0.231-1.07
			c-0.013-0.389,0.039-0.749,0.158-1.084c0.118-0.335,0.29-0.627,0.517-0.876c0.227-0.25,0.503-0.448,0.829-0.595
			c0.326-0.146,0.688-0.228,1.088-0.24c0.4-0.014,0.767,0.042,1.101,0.167s0.623,0.304,0.865,0.536
			c0.241,0.231,0.434,0.511,0.573,0.836c0.14,0.326,0.218,0.684,0.229,1.07C59.626,98.652,59.574,99.014,59.456,99.35z
			 M62.896,100.43l-0.977,0.17l-0.91-5.213l3.288-0.572l0.134,0.771l-2.311,0.404l0.271,1.542l1.948-0.34l0.136,0.773l-1.949,0.342
			L62.896,100.43z M67.318,99.509l-1.53-5.065l3.194-0.965l0.227,0.75l-2.245,0.679l0.425,1.403l1.769-0.533l0.22,0.725l-1.77,0.535
			l0.433,1.434l2.246-0.68l0.228,0.753L67.318,99.509z M74.914,96.262c-0.081,0.205-0.208,0.395-0.381,0.565
			c-0.172,0.173-0.393,0.317-0.661,0.435c-0.153,0.067-0.312,0.119-0.476,0.154s-0.326,0.057-0.486,0.061
			c-0.163,0.004-0.32-0.008-0.475-0.033c-0.153-0.025-0.299-0.065-0.436-0.121l0.072-0.547c0.012-0.041,0.029-0.082,0.055-0.117
			c0.025-0.037,0.061-0.064,0.102-0.083c0.058-0.024,0.127-0.027,0.213-0.011c0.084,0.019,0.183,0.035,0.295,0.053
			c0.113,0.018,0.238,0.023,0.379,0.017c0.14-0.006,0.294-0.047,0.462-0.12c0.257-0.111,0.429-0.26,0.517-0.443
			s0.081-0.389-0.018-0.616c-0.057-0.127-0.135-0.218-0.233-0.271s-0.212-0.084-0.341-0.093s-0.27-0.003-0.42,0.019
			s-0.307,0.039-0.464,0.056s-0.317,0.021-0.479,0.019c-0.162-0.004-0.316-0.033-0.466-0.09c-0.149-0.054-0.289-0.143-0.418-0.266
			c-0.13-0.123-0.241-0.295-0.34-0.518c-0.077-0.177-0.117-0.363-0.12-0.563s0.035-0.393,0.113-0.581s0.199-0.365,0.361-0.528
			c0.162-0.164,0.369-0.303,0.623-0.412c0.285-0.125,0.568-0.195,0.85-0.211c0.279-0.018,0.541,0.019,0.781,0.104l-0.035,0.523
			c-0.004,0.06-0.018,0.105-0.04,0.141c-0.023,0.035-0.058,0.062-0.103,0.081c-0.046,0.019-0.104,0.024-0.174,0.015
			c-0.07-0.011-0.154-0.021-0.249-0.029c-0.095-0.01-0.2-0.01-0.317,0c-0.115,0.01-0.244,0.047-0.383,0.105
			c-0.125,0.056-0.228,0.118-0.307,0.188c-0.08,0.07-0.141,0.147-0.18,0.229c-0.041,0.082-0.061,0.167-0.06,0.255
			c0.001,0.089,0.021,0.178,0.062,0.268c0.05,0.113,0.123,0.195,0.221,0.244c0.096,0.047,0.209,0.075,0.338,0.082
			c0.128,0.008,0.27,0.004,0.422-0.013s0.309-0.03,0.471-0.043c0.16-0.015,0.321-0.019,0.483-0.013
			c0.162,0.005,0.315,0.033,0.464,0.084c0.148,0.052,0.284,0.134,0.409,0.246c0.126,0.113,0.231,0.271,0.32,0.473
			c0.096,0.219,0.147,0.439,0.155,0.664C75.031,95.843,74.997,96.057,74.914,96.262z M79.529,93.755
			c-0.057,0.214-0.161,0.415-0.313,0.606c-0.15,0.19-0.354,0.359-0.605,0.508c-0.146,0.085-0.297,0.154-0.454,0.208
			c-0.158,0.053-0.317,0.092-0.478,0.114c-0.162,0.022-0.32,0.029-0.476,0.021c-0.155-0.008-0.306-0.03-0.445-0.069l0.009-0.553
			c0.006-0.043,0.021-0.084,0.041-0.123c0.021-0.039,0.053-0.07,0.092-0.094c0.054-0.03,0.123-0.042,0.209-0.034
			c0.086,0.009,0.187,0.015,0.301,0.019c0.113,0.004,0.238-0.006,0.378-0.027c0.138-0.021,0.285-0.079,0.442-0.172
			c0.244-0.141,0.397-0.309,0.463-0.5c0.066-0.192,0.037-0.396-0.088-0.61c-0.069-0.12-0.157-0.2-0.263-0.241
			c-0.104-0.041-0.221-0.059-0.35-0.053s-0.269,0.027-0.415,0.064s-0.299,0.074-0.454,0.107c-0.153,0.035-0.313,0.059-0.474,0.074
			c-0.162,0.016-0.318,0.003-0.474-0.034c-0.155-0.036-0.303-0.108-0.446-0.217c-0.143-0.106-0.273-0.267-0.396-0.476
			c-0.097-0.166-0.158-0.348-0.185-0.545c-0.024-0.195-0.01-0.393,0.047-0.588c0.056-0.197,0.154-0.388,0.299-0.568
			c0.143-0.182,0.333-0.342,0.57-0.48c0.27-0.156,0.543-0.26,0.82-0.308c0.276-0.05,0.538-0.043,0.787,0.015l0.025,0.523
			c0.004,0.061-0.004,0.107-0.023,0.146c-0.02,0.036-0.051,0.067-0.093,0.093c-0.042,0.024-0.099,0.035-0.171,0.032
			c-0.071-0.001-0.155-0.002-0.25,0c-0.096,0.003-0.2,0.015-0.314,0.037c-0.115,0.022-0.238,0.073-0.369,0.149
			c-0.117,0.068-0.213,0.143-0.283,0.222s-0.121,0.162-0.152,0.247c-0.029,0.086-0.039,0.173-0.027,0.261
			c0.012,0.089,0.043,0.175,0.092,0.259c0.063,0.106,0.145,0.18,0.246,0.217c0.103,0.035,0.217,0.051,0.346,0.043
			c0.129-0.006,0.269-0.026,0.418-0.061c0.148-0.033,0.304-0.066,0.462-0.098c0.157-0.032,0.317-0.055,0.479-0.067
			c0.16-0.013,0.317-0.004,0.471,0.031c0.152,0.034,0.297,0.101,0.435,0.197c0.138,0.098,0.263,0.241,0.372,0.432
			c0.12,0.206,0.198,0.421,0.23,0.642C79.602,93.325,79.589,93.542,79.529,93.755z M81.982,92.646l-3.086-4.297l0.803-0.578
			l3.087,4.299L81.982,92.646z M87.341,88.068c-0.151,0.32-0.375,0.617-0.67,0.888c-0.296,0.271-0.61,0.467-0.946,0.589
			c-0.336,0.123-0.67,0.175-1.008,0.156c-0.337-0.02-0.665-0.108-0.982-0.266c-0.318-0.156-0.607-0.379-0.869-0.664
			c-0.264-0.287-0.457-0.596-0.584-0.927c-0.129-0.331-0.186-0.665-0.176-1.003c0.011-0.337,0.093-0.667,0.246-0.99
			c0.151-0.322,0.375-0.619,0.672-0.889c0.295-0.271,0.609-0.466,0.944-0.587c0.337-0.121,0.673-0.172,1.007-0.151
			c0.334,0.019,0.661,0.106,0.979,0.264c0.317,0.156,0.608,0.379,0.869,0.664c0.262,0.287,0.456,0.596,0.584,0.928
			c0.128,0.331,0.187,0.664,0.177,1.001C87.574,87.417,87.493,87.746,87.341,88.068z M92.629,82.318
			c-0.049,0.062-0.098,0.104-0.148,0.129c-0.051,0.025-0.117,0.037-0.196,0.035l-4.479-0.047c0.065,0.043,0.129,0.088,0.191,0.133
			c0.063,0.046,0.117,0.089,0.167,0.127l2.535,2.033l-0.542,0.677l-4.129-3.31l0.322-0.402c0.027-0.034,0.053-0.063,0.072-0.082
			c0.021-0.021,0.044-0.036,0.066-0.049c0.023-0.011,0.05-0.019,0.08-0.022c0.029-0.004,0.065-0.006,0.108-0.005l4.498,0.046
			c-0.071-0.046-0.142-0.093-0.207-0.142s-0.128-0.094-0.183-0.139l-2.51-2.013l0.543-0.677l4.127,3.311L92.629,82.318z
			 M96.346,76.45c-0.043,0.073-0.097,0.123-0.16,0.149c-0.064,0.024-0.131,0.032-0.197,0.021l-1.133-0.202l-1.104,1.893l0.732,0.887
			c0.039,0.046,0.063,0.104,0.074,0.178c0.012,0.072-0.004,0.145-0.047,0.217l-0.386,0.66l-3.521-4.462l0.506-0.869l5.619,0.872
			L96.346,76.45z M97.546,73.986l-4.874-2.061l0.385-0.906l4.125,1.744l0.823-1.951l0.748,0.314L97.546,73.986z M97.867,67.43
			c-0.61,0-1.104-0.494-1.104-1.104s0.493-1.104,1.104-1.104c0.609,0,1.104,0.494,1.104,1.104
			C98.973,66.936,98.477,67.43,97.867,67.43z M102.021,59.084c-0.028,0.311-0.103,0.593-0.224,0.848
			c-0.121,0.252-0.276,0.465-0.469,0.633l-0.44-0.281c-0.052-0.031-0.086-0.066-0.104-0.104s-0.026-0.08-0.021-0.13
			c0.004-0.048,0.027-0.102,0.07-0.157c0.043-0.059,0.092-0.125,0.145-0.205c0.055-0.078,0.104-0.17,0.152-0.277
			c0.049-0.107,0.078-0.236,0.094-0.387c0.012-0.137,0.006-0.256-0.019-0.359s-0.062-0.193-0.113-0.268
			c-0.053-0.074-0.118-0.133-0.196-0.174c-0.078-0.043-0.166-0.066-0.264-0.076c-0.123-0.011-0.23,0.016-0.318,0.076
			c-0.088,0.063-0.168,0.146-0.235,0.256c-0.069,0.108-0.134,0.234-0.19,0.377c-0.062,0.142-0.123,0.285-0.188,0.433
			c-0.066,0.147-0.142,0.291-0.224,0.431c-0.082,0.139-0.182,0.262-0.297,0.366c-0.117,0.104-0.254,0.185-0.412,0.24
			c-0.16,0.055-0.35,0.073-0.567,0.053c-0.238-0.021-0.458-0.082-0.658-0.183s-0.37-0.234-0.511-0.405s-0.244-0.373-0.313-0.606
			c-0.067-0.233-0.089-0.496-0.063-0.789c0.016-0.166,0.047-0.33,0.095-0.49c0.047-0.159,0.108-0.313,0.183-0.456
			s0.159-0.276,0.256-0.398c0.098-0.123,0.203-0.229,0.316-0.323l0.444,0.328c0.032,0.029,0.057,0.063,0.075,0.104
			c0.021,0.039,0.028,0.083,0.023,0.129c-0.005,0.061-0.036,0.124-0.092,0.189c-0.057,0.065-0.119,0.145-0.188,0.233
			c-0.07,0.091-0.136,0.199-0.197,0.325c-0.063,0.125-0.1,0.279-0.116,0.461c-0.024,0.279,0.021,0.502,0.14,0.667
			s0.303,0.258,0.551,0.28c0.139,0.013,0.254-0.012,0.349-0.072c0.094-0.063,0.176-0.146,0.245-0.256
			c0.07-0.109,0.132-0.234,0.187-0.376c0.056-0.144,0.113-0.286,0.175-0.433c0.063-0.146,0.135-0.289,0.215-0.43
			c0.082-0.141,0.183-0.262,0.303-0.366c0.119-0.104,0.265-0.184,0.435-0.237c0.171-0.055,0.376-0.07,0.616-0.049
			c0.191,0.017,0.375,0.071,0.551,0.164c0.176,0.094,0.327,0.221,0.455,0.379c0.127,0.16,0.225,0.352,0.289,0.572
			C102.025,58.563,102.047,58.809,102.021,59.084z"/>
		<g>
			<path fill="#010101" d="M38.532,93.03c-0.104-0.095-0.238-0.181-0.403-0.255l-0.673-0.306l-0.786,1.729l0.672,0.306
				c0.165,0.075,0.318,0.119,0.458,0.134c0.14,0.016,0.269,0.002,0.383-0.037c0.115-0.041,0.217-0.106,0.308-0.199
				c0.09-0.092,0.166-0.204,0.227-0.34c0.059-0.129,0.092-0.256,0.1-0.377c0.007-0.123-0.012-0.238-0.059-0.35
				C38.712,93.227,38.637,93.124,38.532,93.03z"/>
			<path fill="#010101" d="M51.56,97.542c0.056-0.106,0.09-0.228,0.105-0.36c0.028-0.267-0.038-0.48-0.198-0.643
				c-0.16-0.163-0.421-0.264-0.783-0.301l-0.626-0.067l-0.187,1.746l0.611,0.065c0.184,0.02,0.347,0.014,0.489-0.019
				c0.142-0.03,0.261-0.083,0.358-0.153C51.428,97.738,51.504,97.648,51.56,97.542z"/>
			<path fill="#010101" d="M46.189,95.745c-0.066-0.099-0.16-0.187-0.279-0.259c-0.121-0.073-0.269-0.131-0.444-0.174l-0.718-0.176
				l-0.45,1.846l0.718,0.176c0.176,0.043,0.334,0.058,0.475,0.046c0.141-0.013,0.265-0.05,0.37-0.109
				c0.105-0.062,0.194-0.146,0.265-0.252s0.124-0.231,0.159-0.377c0.034-0.138,0.043-0.268,0.027-0.39
				C46.296,95.955,46.255,95.845,46.189,95.745z"/>
			<path fill="#010101" d="M20.036,26.509c-0.08-0.025-0.172-0.057-0.277-0.095s-0.217-0.083-0.336-0.133
				c0.077,0.104,0.146,0.202,0.21,0.294c0.064,0.092,0.118,0.176,0.161,0.251l0.975,1.592l1.047-1.323L20.036,26.509z"/>
			<path fill="#010101" d="M43.99,10.936c-0.048-0.068-0.103-0.149-0.165-0.242c-0.062-0.094-0.125-0.196-0.189-0.308
				c-0.001,0.129-0.004,0.25-0.008,0.362c-0.005,0.112-0.012,0.211-0.022,0.297l-0.173,1.859l1.63-0.432L43.99,10.936z"/>
			<path fill="#010101" d="M62.797,11.159c0.141-0.023,0.26-0.07,0.359-0.14c0.099-0.07,0.182-0.161,0.242-0.273
				c0.062-0.112,0.104-0.242,0.129-0.389c0.021-0.14,0.02-0.27-0.006-0.39c-0.026-0.12-0.076-0.227-0.149-0.32
				c-0.074-0.093-0.174-0.171-0.3-0.234c-0.127-0.063-0.278-0.109-0.456-0.137l-0.729-0.115l-0.297,1.876l0.73,0.115
				C62.498,11.18,62.658,11.183,62.797,11.159z"/>
			<path fill="#010101" d="M82.13,18.226c0.022-0.081,0.052-0.174,0.085-0.281c0.033-0.106,0.073-0.22,0.119-0.341
				c-0.102,0.081-0.197,0.154-0.286,0.222c-0.09,0.068-0.172,0.125-0.243,0.171l-1.553,1.039l1.364,0.992L82.13,18.226z"/>
			<path fill="#010101" d="M30.439,18.292c0.155,0.245,0.327,0.444,0.516,0.598c0.189,0.154,0.388,0.258,0.596,0.316
				s0.422,0.067,0.644,0.028c0.22-0.039,0.44-0.127,0.659-0.265c0.218-0.138,0.392-0.298,0.521-0.479
				c0.128-0.183,0.211-0.379,0.247-0.592c0.037-0.212,0.025-0.436-0.033-0.672c-0.058-0.236-0.165-0.477-0.32-0.722
				c-0.155-0.246-0.327-0.445-0.515-0.599c-0.188-0.154-0.386-0.26-0.593-0.32c-0.208-0.059-0.422-0.07-0.642-0.032
				c-0.22,0.038-0.439,0.126-0.658,0.264c-0.219,0.138-0.393,0.299-0.522,0.482c-0.129,0.183-0.212,0.381-0.25,0.595
				c-0.037,0.214-0.026,0.439,0.031,0.675C30.178,17.806,30.284,18.047,30.439,18.292z"/>
			<path fill="#010101" d="M14.04,37.449c-0.088-0.082-0.194-0.148-0.319-0.198c-0.25-0.099-0.474-0.093-0.673,0.019
				c-0.199,0.111-0.366,0.335-0.5,0.673l-0.232,0.585l1.632,0.648l0.227-0.571c0.069-0.172,0.106-0.332,0.114-0.477
				c0.008-0.145-0.01-0.274-0.053-0.387C14.193,37.628,14.127,37.531,14.04,37.449z"/>
			<path fill="#010101" d="M58.109,96.948c-0.149-0.156-0.328-0.273-0.537-0.353c-0.209-0.078-0.442-0.113-0.701-0.104
				c-0.258,0.009-0.489,0.06-0.693,0.152c-0.203,0.092-0.376,0.222-0.516,0.388c-0.141,0.166-0.245,0.364-0.314,0.599
				c-0.07,0.232-0.101,0.494-0.09,0.785c0.01,0.289,0.058,0.549,0.144,0.775c0.086,0.229,0.204,0.42,0.355,0.574
				c0.15,0.154,0.331,0.271,0.541,0.35c0.21,0.078,0.445,0.113,0.703,0.104c0.259-0.009,0.487-0.06,0.692-0.15
				c0.203-0.094,0.373-0.223,0.512-0.387s0.242-0.363,0.313-0.597c0.067-0.233,0.098-0.494,0.086-0.785
				c-0.008-0.29-0.057-0.549-0.142-0.776S58.26,97.104,58.109,96.948z"/>
			<path fill="#010101" d="M20.106,78.518l-1.811,0.455l0.951,1.395l1.091-1.524c0.048-0.067,0.105-0.146,0.173-0.235
				c0.068-0.088,0.143-0.183,0.227-0.28c-0.123,0.042-0.237,0.08-0.344,0.112C20.287,78.473,20.191,78.498,20.106,78.518z"/>
			<path fill="#010101" d="M86.078,85.835c-0.195-0.215-0.398-0.381-0.611-0.499c-0.213-0.119-0.427-0.189-0.642-0.211
				c-0.216-0.021-0.427,0.005-0.638,0.081c-0.209,0.076-0.408,0.202-0.601,0.376s-0.334,0.363-0.43,0.566
				c-0.095,0.203-0.144,0.412-0.142,0.629s0.051,0.437,0.148,0.658c0.098,0.225,0.245,0.442,0.439,0.656
				c0.195,0.215,0.4,0.381,0.613,0.498s0.428,0.188,0.643,0.206c0.216,0.019,0.429-0.009,0.64-0.085
				c0.21-0.077,0.411-0.202,0.603-0.377c0.19-0.175,0.334-0.361,0.428-0.564c0.096-0.201,0.142-0.41,0.141-0.625
				c-0.002-0.215-0.052-0.435-0.15-0.655C86.422,86.268,86.273,86.049,86.078,85.835z"/>
			<path fill="#010101" d="M92.089,76.305l1.188,1.439l0.851-1.457l-1.845-0.331c-0.083-0.015-0.18-0.033-0.288-0.056
				c-0.109-0.023-0.228-0.051-0.353-0.084c0.092,0.092,0.176,0.179,0.25,0.262C91.971,76.16,92.035,76.236,92.089,76.305z"/>
		</g>
		<g>
			
				<rect x="36.313" y="52.318" transform="matrix(0.7157 0.6984 -0.6984 0.7157 49.1982 -14.0066)" fill="#010101" width="10.98" height="2.217"/>
			<path fill="#010101" d="M43.083,38.28c-11.755,3.83-12.196,13.267-12.209,13.667l-0.016,0.502L44.037,64.82l1.451,4.451
				l14.741-4.803l-1.451-4.451l3.375-17.819l-0.383-0.411C61.486,41.486,54.771,34.473,43.083,38.28z M46.909,66.475l-0.585-1.799
				l10.52-3.428l0.586,1.799L46.909,66.475z M56.719,58.956L45.074,62.75L33.139,51.548c0.252-1.798,1.771-8.272,10.631-11.158
				c8.929-2.908,14.501,1.222,15.985,2.539L56.719,58.956z"/>
			<path fill="#010101" d="M71.121,65.97l5.511-18.643c1.153-0.579,2.119-1.708,2.552-3.167c0.752-2.544-0.398-5.133-2.563-5.773
				c-2.164-0.641-4.537,0.907-5.289,3.452c-0.433,1.458-0.233,2.931,0.418,4.043l-5.511,18.646L71.121,65.97z M73.229,42.399
				c0.436-1.471,1.73-2.438,2.83-2.114c1.099,0.324,1.658,1.841,1.225,3.313c-0.436,1.47-1.73,2.439-2.828,2.114
				C73.355,45.387,72.795,43.87,73.229,42.399z M73.189,47.994l1.086,0.32l-4.492,15.195l-1.085-0.319L73.189,47.994z"/>
		</g>
	</g>
</g>
</svg>
