<?xml version="1.0" encoding="utf-8"?>
<!-- Generator: Adobe Illustrator 16.0.3, SVG Export Plug-In . SVG Version: 6.00 Build 0)  -->
<!DOCTYPE svg PUBLIC "-//W3C//DTD SVG 1.1//EN" "http://www.w3.org/Graphics/SVG/1.1/DTD/svg11.dtd">
<svg version="1.1" id="Layer_1" xmlns="http://www.w3.org/2000/svg" xmlns:xlink="http://www.w3.org/1999/xlink" x="0px" y="0px"
	 width="110px" height="110px" viewBox="0 0 110 110" enable-background="new 0 0 110 110" xml:space="preserve">
<g id="skincare">
	<g id="Skincare_2_">
		<path fill="#010101" d="M55,0.314C24.798,0.314,0.314,24.798,0.314,55S24.798,109.688,55,109.688S109.686,85.202,109.686,55
			S85.203,0.314,55,0.314z M101.104,45.679l-0.76,0.191l-0.572-2.278l-1.426,0.358l0.45,1.794l-0.733,0.185l-0.453-1.795
			L96.157,44.5l0.571,2.278l-0.764,0.192l-0.814-3.241l5.14-1.292L101.104,45.679z M98.738,37.992
			c0.133,0.336,0.212,0.638,0.236,0.905c0.025,0.267,0.006,0.502-0.059,0.705s-0.169,0.374-0.314,0.514
			c-0.146,0.141-0.322,0.251-0.531,0.334c-0.166,0.065-0.332,0.103-0.5,0.112c-0.166,0.01-0.328-0.008-0.484-0.052
			c-0.156-0.044-0.309-0.116-0.452-0.215c-0.146-0.099-0.276-0.225-0.399-0.376c-0.021,0.142-0.075,0.279-0.164,0.412l-1.334,1.953
			l-0.324-0.825c-0.032-0.08-0.043-0.153-0.033-0.221c0.01-0.068,0.037-0.134,0.081-0.196l1.169-1.659
			c0.043-0.062,0.068-0.121,0.075-0.178c0.006-0.057-0.009-0.13-0.044-0.221l-0.155-0.392l-1.926,0.761l-0.362-0.917l4.93-1.947
			L98.738,37.992z M95.718,31.812l0.499,0.875l-3.572,4.432l-0.377-0.663c-0.043-0.074-0.061-0.146-0.05-0.214
			c0.011-0.069,0.036-0.13,0.079-0.183l0.743-0.879l-1.087-1.907l-1.135,0.191c-0.06,0.011-0.123,0.002-0.191-0.024
			c-0.068-0.027-0.123-0.077-0.164-0.148l-0.379-0.666L95.718,31.812z M90.811,25.974c0.336,0.042,0.66,0.155,0.969,0.336
			c0.311,0.182,0.589,0.432,0.836,0.75c0.24,0.311,0.402,0.621,0.482,0.931c0.08,0.31,0.104,0.611,0.068,0.905l-0.564,0.02
			c-0.035,0.002-0.069-0.001-0.105-0.012c-0.036-0.011-0.071-0.037-0.104-0.08c-0.035-0.044-0.052-0.104-0.054-0.177
			c-0.001-0.073-0.009-0.161-0.022-0.264c-0.016-0.103-0.049-0.223-0.099-0.359c-0.05-0.136-0.141-0.288-0.271-0.456
			c-0.152-0.197-0.327-0.351-0.523-0.463c-0.195-0.112-0.404-0.178-0.625-0.198c-0.219-0.02-0.445,0.008-0.68,0.083
			c-0.234,0.075-0.465,0.201-0.692,0.377c-0.235,0.183-0.42,0.378-0.551,0.587c-0.132,0.209-0.217,0.419-0.254,0.63
			c-0.036,0.211-0.028,0.42,0.024,0.626c0.054,0.206,0.148,0.397,0.285,0.575c0.084,0.106,0.164,0.198,0.241,0.274
			c0.078,0.077,0.158,0.142,0.239,0.195c0.081,0.053,0.167,0.096,0.257,0.13c0.09,0.034,0.188,0.061,0.295,0.079
			c0.032,0.006,0.063,0.015,0.091,0.028c0.025,0.013,0.049,0.032,0.068,0.057c0.033,0.042,0.045,0.092,0.036,0.148l-0.095,0.565
			c-0.342-0.007-0.666-0.09-0.971-0.251c-0.305-0.161-0.591-0.416-0.859-0.763c-0.241-0.311-0.405-0.631-0.491-0.961
			c-0.087-0.331-0.104-0.657-0.052-0.979c0.055-0.322,0.175-0.632,0.365-0.929c0.188-0.298,0.439-0.567,0.75-0.808
			c0.314-0.244,0.645-0.415,0.985-0.514C90.137,25.96,90.475,25.932,90.811,25.974z M86.454,20.435
			c0.03,0.031,0.058,0.058,0.075,0.081s0.031,0.046,0.041,0.07s0.015,0.051,0.017,0.082c0.001,0.03,0,0.067-0.005,0.11l-0.449,4.482
			c0.053-0.068,0.105-0.133,0.159-0.195s0.104-0.118,0.155-0.169l2.23-2.323l0.627,0.602l-3.672,3.821l-0.367-0.353
			c-0.057-0.054-0.096-0.108-0.115-0.161c-0.02-0.053-0.024-0.12-0.017-0.199l0.447-4.464c-0.049,0.062-0.099,0.121-0.149,0.179
			c-0.05,0.058-0.098,0.11-0.142,0.156L83.036,24.5l-0.626-0.602l3.671-3.821L86.454,20.435z M83.98,18.41l-3.209,4.217l-0.787-0.6
			l3.209-4.216L83.98,18.41z M78.434,14.684l-1.143,1.908l0.197,0.119c0.08,0.048,0.152,0.076,0.218,0.086
			c0.065,0.009,0.132,0.001,0.198-0.024l2.205-0.835c0.094-0.036,0.177-0.049,0.25-0.041c0.072,0.008,0.154,0.039,0.242,0.092
			l0.729,0.437l-2.664,0.971c-0.083,0.03-0.159,0.052-0.227,0.065c-0.067,0.014-0.135,0.018-0.201,0.013
			c0.056,0.067,0.097,0.14,0.125,0.219c0.027,0.08,0.046,0.171,0.056,0.273l0.304,3.074l-0.748-0.449
			c-0.102-0.06-0.168-0.119-0.199-0.177c-0.032-0.058-0.049-0.124-0.051-0.198l-0.279-2.449c-0.01-0.079-0.032-0.147-0.07-0.203
			c-0.038-0.055-0.104-0.112-0.201-0.17l-0.268-0.16l-1.198,2l-0.847-0.507l2.728-4.548L78.434,14.684z M70.807,15.651
			c0.039-0.021,0.08-0.034,0.123-0.041c0.045-0.006,0.088,0,0.131,0.019c0.057,0.024,0.105,0.074,0.15,0.148
			c0.045,0.074,0.1,0.159,0.164,0.253c0.064,0.095,0.146,0.189,0.246,0.289c0.102,0.098,0.234,0.183,0.402,0.256
			c0.256,0.112,0.482,0.138,0.677,0.077s0.342-0.205,0.44-0.434c0.057-0.127,0.068-0.246,0.041-0.354
			c-0.029-0.108-0.086-0.213-0.166-0.313c-0.082-0.101-0.182-0.199-0.3-0.296c-0.116-0.096-0.237-0.197-0.356-0.302
			c-0.118-0.105-0.23-0.218-0.338-0.34c-0.108-0.121-0.192-0.255-0.254-0.401c-0.063-0.147-0.092-0.31-0.09-0.489
			c0.002-0.179,0.051-0.379,0.147-0.601c0.075-0.177,0.188-0.334,0.329-0.472c0.145-0.137,0.313-0.242,0.505-0.313
			c0.19-0.071,0.403-0.103,0.635-0.096c0.231,0.007,0.474,0.066,0.728,0.176c0.287,0.125,0.531,0.285,0.734,0.479
			s0.354,0.409,0.455,0.645l-0.408,0.331c-0.046,0.039-0.089,0.061-0.131,0.067c-0.041,0.006-0.084-0.001-0.129-0.02
			c-0.045-0.02-0.088-0.059-0.129-0.118c-0.041-0.059-0.091-0.126-0.148-0.202c-0.057-0.076-0.129-0.153-0.216-0.232
			c-0.087-0.079-0.2-0.148-0.339-0.209c-0.126-0.055-0.24-0.087-0.348-0.097c-0.105-0.01-0.203-0.002-0.29,0.024
			s-0.162,0.07-0.228,0.131c-0.063,0.062-0.115,0.137-0.154,0.227c-0.049,0.114-0.06,0.223-0.027,0.327
			c0.031,0.104,0.087,0.206,0.169,0.305c0.082,0.099,0.181,0.2,0.297,0.301c0.115,0.101,0.233,0.206,0.353,0.315
			s0.232,0.225,0.34,0.347c0.105,0.123,0.191,0.255,0.255,0.398c0.063,0.144,0.095,0.299,0.098,0.468
			c0.003,0.169-0.04,0.354-0.128,0.556c-0.095,0.22-0.222,0.409-0.381,0.568c-0.158,0.159-0.34,0.278-0.547,0.358
			c-0.206,0.08-0.432,0.115-0.676,0.106c-0.243-0.009-0.5-0.072-0.769-0.188c-0.155-0.067-0.301-0.148-0.438-0.244
			c-0.137-0.096-0.262-0.201-0.375-0.317c-0.113-0.116-0.213-0.239-0.299-0.37c-0.086-0.13-0.154-0.264-0.207-0.401L70.807,15.651z
			 M64.975,9.558l0.957,0.232l-1.055,4.359l2.063,0.499l-0.19,0.791l-3.021-0.731L64.975,9.558z M59.846,8.786l1.002,0.108
			l1.498,5.492l-0.757-0.082c-0.086-0.009-0.151-0.038-0.202-0.086c-0.051-0.048-0.084-0.105-0.102-0.171l-0.277-1.117l-2.183-0.237
			l-0.509,1.032c-0.025,0.054-0.069,0.101-0.133,0.141c-0.063,0.04-0.135,0.056-0.217,0.047l-0.762-0.083L59.846,8.786z
			 M51.637,8.671c0.044-0.001,0.081-0.001,0.11,0.001c0.03,0.002,0.056,0.009,0.08,0.019c0.023,0.01,0.047,0.025,0.069,0.045
			c0.023,0.02,0.049,0.046,0.077,0.08l2.92,3.43c-0.013-0.085-0.023-0.168-0.029-0.25c-0.008-0.082-0.012-0.158-0.015-0.229
			L54.72,8.548l0.869-0.035l0.21,5.295l-0.509,0.02c-0.078,0.003-0.143-0.006-0.195-0.029c-0.052-0.022-0.104-0.064-0.156-0.126
			l-2.908-3.416c0.011,0.078,0.019,0.155,0.026,0.232c0.007,0.077,0.011,0.146,0.014,0.21L52.2,13.95l-0.868,0.035l-0.21-5.295
			L51.637,8.671z M43.911,11.496c0.062-0.35,0.186-0.667,0.369-0.95c0.185-0.283,0.425-0.524,0.724-0.722
			c0.298-0.198,0.644-0.335,1.037-0.414s0.765-0.083,1.115-0.013c0.351,0.07,0.664,0.2,0.941,0.39
			c0.277,0.19,0.511,0.435,0.703,0.734c0.191,0.299,0.325,0.64,0.401,1.021c0.077,0.381,0.083,0.747,0.021,1.096
			c-0.062,0.35-0.184,0.667-0.367,0.949c-0.183,0.284-0.423,0.523-0.72,0.721c-0.298,0.198-0.642,0.336-1.035,0.414
			c-0.393,0.078-0.765,0.083-1.116,0.015c-0.351-0.068-0.666-0.198-0.944-0.389s-0.513-0.436-0.705-0.736
			c-0.192-0.299-0.326-0.639-0.402-1.02C43.855,12.212,43.848,11.846,43.911,11.496z M41.114,10.734l1.651,5.035l-0.94,0.308
			l-1.65-5.035L41.114,10.734z M38.097,11.755l0.33,0.74l-1.456,0.649l1.828,4.1l-0.9,0.401l-1.828-4.1l-1.462,0.652l-0.33-0.74
			L38.097,11.755z M31.514,15.013l4.52,3.461l-0.652,0.394c-0.073,0.044-0.145,0.062-0.214,0.054
			c-0.069-0.009-0.13-0.034-0.184-0.075l-0.897-0.721l-1.879,1.134l0.22,1.13c0.012,0.058,0.006,0.122-0.019,0.191
			c-0.025,0.07-0.074,0.126-0.145,0.168l-0.656,0.396l-0.957-5.612L31.514,15.013z M24.049,20.426
			c0.033-0.027,0.063-0.05,0.087-0.065c0.026-0.016,0.05-0.027,0.075-0.034c0.025-0.007,0.052-0.008,0.083-0.006
			c0.031,0.002,0.067,0.007,0.109,0.017l4.403,0.953c-0.062-0.059-0.12-0.12-0.176-0.18c-0.055-0.061-0.105-0.118-0.15-0.173
			l-2.056-2.479l0.668-0.555l3.382,4.08l-0.392,0.325c-0.061,0.05-0.118,0.082-0.173,0.096c-0.055,0.014-0.122,0.012-0.2-0.006
			l-4.385-0.949c0.056,0.056,0.109,0.112,0.162,0.169c0.052,0.057,0.098,0.11,0.139,0.158l2.077,2.505l-0.669,0.554l-3.382-4.079
			L24.049,20.426z M20.334,24.179c0.242-0.268,0.477-0.473,0.705-0.614c0.229-0.142,0.448-0.229,0.658-0.261
			c0.21-0.032,0.411-0.014,0.601,0.054s0.369,0.178,0.536,0.328c0.132,0.12,0.24,0.252,0.322,0.397
			c0.083,0.146,0.139,0.298,0.168,0.458c0.03,0.16,0.032,0.327,0.007,0.5c-0.024,0.173-0.078,0.349-0.159,0.525
			c0.136-0.045,0.283-0.057,0.442-0.036l2.341,0.327l-0.594,0.658c-0.057,0.064-0.119,0.106-0.184,0.127
			c-0.065,0.022-0.136,0.026-0.21,0.015l-2.006-0.31c-0.075-0.012-0.14-0.008-0.193,0.011c-0.054,0.02-0.113,0.065-0.179,0.138
			l-0.283,0.313l1.537,1.388l-0.661,0.732l-3.932-3.552L20.334,24.179z M17.74,27.29l0.645,0.447l-1.338,1.931l1.208,0.836
			l1.054-1.521l0.624,0.432l-1.054,1.521l1.232,0.854l1.338-1.931l0.647,0.449l-1.904,2.747l-4.355-3.018L17.74,27.29z
			 M14.694,31.862l0.717,0.375l-0.739,1.413l3.978,2.082l-0.457,0.873l-3.978-2.081l-0.742,1.419l-0.718-0.375L14.694,31.862z
			 M10.53,41.329c0.015-0.042,0.029-0.076,0.042-0.102c0.014-0.026,0.029-0.049,0.047-0.067c0.018-0.018,0.041-0.034,0.068-0.048
			c0.027-0.014,0.061-0.027,0.103-0.041l4.27-1.434c-0.084-0.02-0.165-0.041-0.243-0.064c-0.079-0.024-0.151-0.048-0.218-0.072
			l-3.035-1.079l0.292-0.818l4.993,1.775l-0.171,0.48c-0.026,0.073-0.059,0.13-0.099,0.17c-0.041,0.041-0.099,0.072-0.175,0.097
			l-4.253,1.429c0.077,0.019,0.151,0.04,0.225,0.063c0.074,0.022,0.14,0.044,0.2,0.065l3.066,1.09l-0.291,0.818l-4.993-1.775
			L10.53,41.329z M9.701,44.434l5.166,1.182l-0.221,0.964L9.48,45.398L9.701,44.434z M9.676,53.646c0-0.759,0.616-1.375,1.375-1.375
			c0.759,0,1.375,0.616,1.375,1.375c0,0.76-0.616,1.375-1.375,1.375C10.292,55.021,9.676,54.405,9.676,53.646z M25.446,88.73
			c-8.29-7.104-13.888-17.217-15.142-28.543l1.427,0.059c1.261,10.893,6.675,20.609,14.664,27.443L25.446,88.73z M25.349,68.536
			c-2.037-4.269-3.104-8.831-3.178-13.571C22.475,37.12,37.083,22.695,55,22.695c17.932,0,32.547,14.447,32.831,32.311
			c-0.14,8.088-3.239,15.792-8.767,21.749c-0.604,0.65-1.236,1.28-1.881,1.87c-0.682,0.626-1.387,1.218-2.11,1.78v-2.781V64.875
			V59.23h-3.687v-4.333h-2.806c0.705-1.212,1.036-2.532,0.979-3.942c-0.196-4.882-5.033-9.048-5.237-9.223l-1.362-1.159
			l-0.486,1.721c-0.007,0.024-0.734,2.404-3.009,3.352c-1.437,0.598-3.325,0.611-5.327,0.625c-2.46,0.018-5.248,0.037-7.75,1.196
			c-5.251,2.434-5.615,6.338-5.608,7.43h-2.166v4.333h-3.686v21.168c-2.725-2.11-5.097-4.618-7.047-7.469
			C26.927,71.534,26.075,70.057,25.349,68.536z M69.092,57.193v1.945H40.909v-1.945H69.092z M47.354,49.552
			c2.05-0.95,4.465-0.967,6.8-0.984c2.233-0.015,4.342-0.03,6.194-0.801c1.834-0.765,2.951-2.118,3.592-3.201
			c1.277,1.372,3.223,3.872,3.326,6.483c0.059,1.426-0.453,2.687-1.547,3.85H43.073C43.058,54.464,43.121,51.514,47.354,49.552z
			 M32.836,91.27c-0.038,0-0.079-0.016-0.123-0.045c-0.046-0.033-0.081-0.084-0.104-0.152c-0.023-0.069-0.058-0.151-0.103-0.245
			c-0.045-0.093-0.112-0.196-0.201-0.312c-0.088-0.115-0.22-0.232-0.395-0.354c-0.206-0.143-0.418-0.236-0.64-0.283
			c-0.221-0.047-0.439-0.047-0.654,0.001c-0.215,0.047-0.423,0.142-0.623,0.284c-0.201,0.143-0.383,0.331-0.546,0.568
			c-0.169,0.246-0.285,0.487-0.348,0.728c-0.062,0.238-0.079,0.464-0.051,0.676c0.028,0.214,0.099,0.409,0.212,0.591
			c0.113,0.181,0.262,0.334,0.446,0.461c0.111,0.076,0.215,0.141,0.313,0.189s0.193,0.087,0.287,0.112
			c0.094,0.026,0.188,0.042,0.284,0.047c0.096,0.006,0.198,0.001,0.305-0.015c0.033-0.004,0.064-0.004,0.094,0
			c0.03,0.004,0.058,0.017,0.084,0.033c0.044,0.031,0.07,0.074,0.079,0.131l0.081,0.567c-0.328,0.097-0.662,0.115-1.001,0.054
			c-0.339-0.063-0.689-0.218-1.051-0.468c-0.324-0.224-0.577-0.479-0.759-0.769c-0.182-0.288-0.296-0.594-0.344-0.918
			c-0.047-0.322-0.024-0.655,0.066-0.996c0.091-0.342,0.248-0.674,0.472-0.996c0.226-0.328,0.487-0.592,0.784-0.789
			c0.296-0.196,0.611-0.326,0.944-0.389c0.333-0.062,0.675-0.051,1.025,0.028c0.35,0.079,0.691,0.233,1.023,0.464
			c0.324,0.223,0.571,0.469,0.742,0.739c0.171,0.271,0.284,0.552,0.339,0.843l-0.532,0.188C32.909,91.26,32.873,91.268,32.836,91.27
			z M38.757,94.827c-0.03,0.354-0.13,0.706-0.3,1.055s-0.387,0.644-0.649,0.884c-0.262,0.24-0.551,0.418-0.869,0.531
			c-0.316,0.114-0.653,0.16-1.009,0.137c-0.356-0.022-0.714-0.123-1.074-0.3c-0.36-0.176-0.658-0.397-0.896-0.665
			c-0.238-0.268-0.409-0.561-0.515-0.882c-0.105-0.321-0.143-0.659-0.114-1.013c0.029-0.354,0.129-0.706,0.3-1.055
			c0.171-0.351,0.387-0.645,0.649-0.885c0.262-0.24,0.552-0.418,0.87-0.531c0.318-0.112,0.656-0.158,1.013-0.135
			c0.357,0.024,0.715,0.124,1.076,0.301c0.359,0.176,0.657,0.397,0.894,0.666c0.235,0.269,0.406,0.563,0.511,0.881
			C38.749,94.136,38.787,94.473,38.757,94.827z M43.719,100.393l-0.487-0.15c-0.074-0.022-0.133-0.055-0.174-0.092
			c-0.042-0.039-0.077-0.096-0.105-0.17l-1.609-4.188c-0.016,0.077-0.034,0.153-0.053,0.228s-0.038,0.144-0.057,0.203l-0.958,3.109
			l-0.83-0.255l1.559-5.063l0.493,0.151c0.043,0.013,0.077,0.024,0.104,0.037s0.05,0.026,0.069,0.044s0.036,0.04,0.05,0.064
			c0.016,0.027,0.03,0.062,0.046,0.102l1.615,4.205c0.016-0.084,0.034-0.166,0.055-0.246c0.021-0.079,0.041-0.152,0.062-0.221
			l0.948-3.078l0.83,0.256L43.719,100.393z M49.699,97.105c-0.035,0.049-0.072,0.082-0.11,0.098s-0.082,0.02-0.13,0.012
			c-0.048-0.009-0.1-0.035-0.153-0.083c-0.054-0.048-0.118-0.101-0.192-0.159c-0.075-0.061-0.164-0.117-0.267-0.174
			c-0.104-0.056-0.23-0.096-0.379-0.121c-0.135-0.021-0.256-0.025-0.361-0.009s-0.197,0.048-0.275,0.095
			c-0.078,0.045-0.141,0.105-0.188,0.182s-0.079,0.16-0.095,0.258c-0.021,0.123-0.003,0.23,0.052,0.324
			c0.055,0.094,0.135,0.179,0.238,0.256c0.104,0.076,0.224,0.148,0.361,0.219c0.137,0.07,0.276,0.145,0.418,0.221
			c0.142,0.076,0.28,0.161,0.413,0.254c0.133,0.094,0.248,0.201,0.343,0.324c0.096,0.124,0.166,0.268,0.21,0.43
			c0.043,0.164,0.047,0.354,0.011,0.57c-0.039,0.237-0.116,0.451-0.231,0.645c-0.114,0.191-0.262,0.353-0.443,0.479
			c-0.181,0.128-0.391,0.217-0.63,0.268c-0.238,0.052-0.503,0.053-0.792,0.004c-0.167-0.026-0.328-0.07-0.483-0.129
			c-0.156-0.061-0.304-0.133-0.441-0.217c-0.139-0.084-0.265-0.181-0.38-0.285c-0.115-0.106-0.214-0.22-0.298-0.34l0.359-0.42
			c0.032-0.029,0.069-0.053,0.11-0.068c0.042-0.019,0.085-0.021,0.13-0.014c0.061,0.01,0.121,0.045,0.183,0.105
			s0.135,0.129,0.221,0.205c0.084,0.076,0.188,0.148,0.309,0.221c0.12,0.071,0.271,0.121,0.452,0.15
			c0.277,0.047,0.502,0.017,0.676-0.09c0.174-0.107,0.281-0.281,0.322-0.528c0.022-0.138,0.007-0.254-0.047-0.353
			c-0.055-0.1-0.133-0.188-0.237-0.265c-0.104-0.078-0.224-0.149-0.362-0.215c-0.137-0.063-0.277-0.134-0.418-0.207
			c-0.141-0.072-0.279-0.155-0.413-0.246c-0.133-0.092-0.247-0.201-0.342-0.328c-0.096-0.127-0.165-0.278-0.206-0.453
			c-0.042-0.173-0.042-0.379-0.003-0.618c0.031-0.189,0.1-0.369,0.206-0.537c0.107-0.168,0.244-0.311,0.413-0.426
			s0.367-0.197,0.593-0.246c0.226-0.051,0.475-0.053,0.748-0.008c0.309,0.053,0.585,0.146,0.829,0.286
			c0.245,0.14,0.444,0.312,0.599,0.517L49.699,97.105z M55.904,99.703c-0.012,0.314-0.071,0.604-0.182,0.867
			c-0.111,0.265-0.265,0.49-0.461,0.678c-0.197,0.188-0.433,0.332-0.708,0.432c-0.275,0.1-0.582,0.144-0.921,0.131
			c-0.339-0.012-0.643-0.076-0.91-0.193c-0.267-0.118-0.492-0.277-0.675-0.479s-0.32-0.437-0.412-0.707
			c-0.093-0.271-0.134-0.563-0.123-0.879l0.108-3.172l0.985,0.034l-0.108,3.168c-0.006,0.202,0.014,0.388,0.064,0.552
			c0.049,0.166,0.124,0.309,0.222,0.428c0.098,0.121,0.222,0.215,0.37,0.281c0.148,0.069,0.317,0.107,0.508,0.113
			c0.19,0.007,0.361-0.02,0.514-0.078c0.152-0.059,0.283-0.143,0.39-0.254c0.108-0.111,0.192-0.247,0.252-0.409
			c0.061-0.161,0.095-0.344,0.101-0.547l0.108-3.171l0.986,0.033L55.904,99.703z M58.26,101.703l-0.492-5.276l0.98-0.092
			l0.417,4.467l2.112-0.198l0.076,0.812L58.26,101.703z M64.831,100.791l-0.968,0.191l-0.875-4.402l-1.57,0.313l-0.158-0.795
			l4.102-0.814l0.158,0.794l-1.563,0.312L64.831,100.791z M64.37,85.909c-3.035,0.905-6.188,1.362-9.371,1.362
			c-6.23,0-12.298-1.762-17.549-5.095c-0.077-0.049-0.151-0.102-0.227-0.149V61.525h35.554v3.35h-26.07v12.748h26.07v4.41
			c-1.914,1.236-3.949,2.271-6.096,3.09C65.925,85.413,65.146,85.677,64.37,85.909z M72.777,67.17v8.157H49.002V67.17H72.777z
			 M71.546,98.873c-0.081,0.025-0.153,0.027-0.22,0.005s-0.121-0.062-0.163-0.112l-0.716-0.902l-2.084,0.688l-0.037,1.151
			c0,0.06-0.021,0.118-0.061,0.181c-0.041,0.063-0.101,0.107-0.18,0.133l-0.729,0.24l0.314-5.684l0.957-0.316l3.639,4.378
			L71.546,98.873z M77.682,96.038c-0.07,0.035-0.132,0.054-0.188,0.055c-0.058,0.001-0.121-0.015-0.193-0.05l-4.063-1.898
			c0.041,0.065,0.08,0.133,0.119,0.199c0.037,0.067,0.07,0.129,0.101,0.186l1.468,2.904l-0.775,0.393l-2.391-4.729l0.463-0.233
			c0.038-0.021,0.071-0.035,0.1-0.046c0.027-0.01,0.055-0.016,0.08-0.016c0.025-0.001,0.054,0.004,0.082,0.012
			c0.028,0.01,0.063,0.022,0.103,0.041l4.082,1.908c-0.048-0.072-0.092-0.145-0.132-0.216s-0.076-0.139-0.108-0.202l-1.452-2.875
			l0.774-0.392l2.392,4.729L77.682,96.038z M81.242,93.818l-2.559-3.689l-1.315,0.913l-0.462-0.666l3.436-2.383l0.463,0.666
			l-1.311,0.907l2.559,3.688L81.242,93.818z M85.169,88.232l-0.841-1.138c7.637-6.778,12.807-16.237,14.061-26.817l1.426-0.057
			C98.563,71.285,93.162,81.178,85.169,88.232z M99.159,55.021c-0.761,0-1.376-0.616-1.376-1.375c0-0.759,0.615-1.375,1.376-1.375
			c0.759,0,1.375,0.616,1.375,1.375C100.534,54.405,99.918,55.021,99.159,55.021z"/>
		<g>
			<path fill="#010101" d="M37.44,93.445c-0.148-0.168-0.338-0.309-0.571-0.422c-0.233-0.114-0.461-0.179-0.685-0.192
				c-0.225-0.015-0.437,0.019-0.639,0.101c-0.202,0.08-0.388,0.207-0.56,0.381c-0.172,0.172-0.322,0.39-0.449,0.65
				c-0.127,0.262-0.207,0.512-0.238,0.754c-0.032,0.241-0.017,0.467,0.043,0.674c0.061,0.209,0.165,0.396,0.314,0.563
				c0.148,0.168,0.339,0.31,0.572,0.423c0.233,0.114,0.46,0.18,0.684,0.191c0.224,0.014,0.435-0.02,0.634-0.101
				c0.199-0.079,0.385-0.207,0.556-0.38c0.171-0.174,0.32-0.393,0.447-0.652c0.128-0.261,0.208-0.513,0.241-0.754
				c0.031-0.24,0.019-0.465-0.04-0.673C37.691,93.801,37.588,93.613,37.44,93.445z"/>
			<path fill="#010101" d="M68.45,95.643c0.003,0.112,0.001,0.213-0.005,0.299l-0.062,1.869l1.604-0.529l-1.164-1.471
				c-0.055-0.065-0.112-0.145-0.18-0.232c-0.066-0.092-0.137-0.188-0.209-0.296C68.443,95.41,68.448,95.53,68.45,95.643z"/>
		</g>
		<g>
			<path fill="#010101" d="M31.708,16.697l0.355,1.836l1.446-0.873l-1.463-1.176c-0.065-0.052-0.141-0.114-0.226-0.187
				c-0.085-0.073-0.175-0.153-0.269-0.242c0.035,0.124,0.067,0.241,0.093,0.35C31.673,16.514,31.694,16.611,31.708,16.697z"/>
			<path fill="#010101" d="M45.187,13.14c0.122,0.211,0.27,0.381,0.444,0.509c0.173,0.128,0.371,0.214,0.591,0.258
				c0.22,0.043,0.458,0.04,0.711-0.011s0.474-0.138,0.66-0.262c0.186-0.124,0.333-0.279,0.443-0.464
				c0.11-0.185,0.18-0.398,0.21-0.64c0.031-0.241,0.018-0.504-0.04-0.79c-0.056-0.285-0.145-0.533-0.266-0.745
				s-0.267-0.382-0.44-0.512s-0.369-0.216-0.587-0.26c-0.22-0.043-0.456-0.04-0.71,0.011c-0.254,0.051-0.475,0.138-0.662,0.263
				s-0.335,0.28-0.447,0.466c-0.111,0.187-0.182,0.401-0.213,0.643c-0.032,0.242-0.02,0.505,0.038,0.79
				C44.976,12.681,45.066,12.929,45.187,13.14z"/>
			<path fill="#010101" d="M22.555,25.091c0-0.121-0.028-0.235-0.082-0.343c-0.055-0.108-0.131-0.207-0.231-0.297
				c-0.199-0.18-0.412-0.253-0.638-0.218c-0.226,0.035-0.46,0.188-0.705,0.458l-0.422,0.468l1.306,1.179l0.413-0.457
				c0.125-0.138,0.215-0.273,0.274-0.407C22.527,25.339,22.556,25.212,22.555,25.091z"/>
			<path fill="#010101" d="M96.631,39.331c0.096,0.111,0.196,0.193,0.305,0.246c0.108,0.053,0.225,0.079,0.344,0.079
				c0.121-0.001,0.244-0.026,0.369-0.075c0.25-0.099,0.41-0.257,0.479-0.475c0.068-0.217,0.037-0.496-0.098-0.834l-0.23-0.586
				l-1.636,0.646l0.226,0.573C96.456,39.077,96.537,39.219,96.631,39.331z"/>
			<path fill="#010101" d="M60.38,10.388c-0.021-0.081-0.042-0.176-0.065-0.286c-0.023-0.109-0.047-0.228-0.066-0.355
				c-0.048,0.12-0.094,0.232-0.139,0.335s-0.086,0.193-0.127,0.27l-0.83,1.675l1.681,0.182L60.38,10.388z"/>
			<path fill="#010101" d="M94.732,33.183c0.053-0.064,0.117-0.138,0.191-0.221s0.158-0.171,0.249-0.262
				c-0.125,0.032-0.241,0.06-0.353,0.084c-0.109,0.025-0.209,0.043-0.293,0.056l-1.846,0.309l0.838,1.468L94.732,33.183z"/>
		</g>
	</g>
</g>
</svg>
