<?xml version="1.0" encoding="utf-8"?>
<!-- Generator: Adobe Illustrator 16.0.3, SVG Export Plug-In . SVG Version: 6.00 Build 0)  -->
<!DOCTYPE svg PUBLIC "-//W3C//DTD SVG 1.1//EN" "http://www.w3.org/Graphics/SVG/1.1/DTD/svg11.dtd">
<svg version="1.1" xmlns="http://www.w3.org/2000/svg" xmlns:xlink="http://www.w3.org/1999/xlink" x="0px" y="0px"
	 width="191.285px" height="191.285px" viewBox="216.5 0 191.285 191.285" enable-background="new 216.5 0 191.285 191.285"
	 xml:space="preserve">
<g id="Layer_1">
	<g>
		<path d="M347.857,76.824c-8.937,0-14.416-4.41-19.711-8.674c-4.822-3.881-9.375-7.547-15.965-7.547
			c-6.588,0-11.146,3.667-15.969,7.549c-5.298,4.263-10.774,8.672-19.707,8.672c-1.045,0-2.135-0.061-3.232-0.182l-2.451-0.269
			l0.606,2.388c11.556,45.528,38.854,59.167,40.011,59.723l0.82,0.396l0.787-0.46c1.229-0.719,30.234-18.114,39.891-59.692
			l0.546-2.351l-2.396,0.264C349.989,76.764,348.901,76.824,347.857,76.824z M312.113,134.965
			c-4.491-2.573-26.422-16.819-36.764-54.744c0.389,0.014,0.775,0.022,1.156,0.022c10.138,0,16.363-5.008,21.85-9.429
			c4.529-3.644,8.441-6.792,13.826-6.792c5.384,0,9.293,3.147,13.82,6.792c5.49,4.421,11.713,9.429,21.855,9.429
			c0.393,0,0.795-0.008,1.196-0.023C340.159,115.004,316.734,131.921,312.113,134.965z"/>
		<path d="M324.188,72.975c-4.759-3.831-7.89-6.177-12.081-6.177c-4.197,0-7.324,2.347-12.082,6.177
			c-4.828,3.885-10.83,8.719-19.722,9.81l-1.362,0.168l0.413,1.308c5.774,18.238,14.228,29.814,20.302,36.309
			c3.581,3.83,8.51,8.809,11.648,10.784l0.641,0.399l0.619-0.431c2.629-1.835,7.081-6.116,12.528-12.055
			c9.092-9.919,15.776-21.693,19.871-35.003l0.397-1.305l-1.352-0.163C335.063,81.73,329.033,76.875,324.188,72.975z
			 M323.412,117.726c-4.843,5.281-8.98,9.32-11.527,11.271c-2.352-1.67-6.059-5.171-10.563-9.985
			c-5.773-6.172-13.752-17.063-19.381-34.161c8.782-1.46,14.705-6.229,19.512-10.099c4.371-3.519,7.225-5.674,10.654-5.674
			c3.429,0,6.278,2.156,10.65,5.674c4.829,3.887,10.782,8.681,19.625,10.119C338.358,97.328,331.981,108.376,323.412,117.726z"/>
		<polygon points="310.081,53.399 312.158,51.938 314.229,53.399 313.482,50.976 315.512,49.455 312.978,49.418 312.158,47.019 
			311.335,49.418 308.799,49.455 310.826,50.976 		"/>
		<polygon points="328.313,58.595 329.921,58.078 330.948,59.419 330.956,57.729 332.55,57.164 330.943,56.636 330.899,54.946 
			329.9,56.311 328.278,55.83 329.269,57.202 		"/>
		<polygon points="293.667,59.18 294.693,57.839 296.306,58.356 295.348,56.962 296.335,55.593 294.714,56.072 293.717,54.708 
			293.672,56.397 292.068,56.926 293.66,57.489 		"/>
		<polygon points="320.584,54.543 322.334,53.755 323.668,55.14 323.461,53.231 325.186,52.393 323.307,52 323.046,50.097 
			322.089,51.764 320.198,51.427 321.489,52.85 		"/>
		<polygon points="301.053,55.14 302.387,53.755 304.139,54.543 303.234,52.85 304.523,51.427 302.633,51.764 301.678,50.097 
			301.413,52 299.533,52.393 301.264,53.231 		"/>
		<path d="M352.673,60.939c-3.75-2.627-7.682-1.492-9.629,0.986c-1.775,2.265-1.624,5.063,0.366,6.81
			c1.301,1.14,3.142,1.292,4.572,0.378c0.615-0.39,1.054-0.936,1.307-1.558c0.223-0.276,0.407-0.592,0.514-0.952
			c0.447-1.478-0.391-3.048-1.869-3.499c-1.444-0.444-3.063,0.431-3.497,1.863c-0.14,0.458-0.146,0.933-0.051,1.39
			c-0.58-1.028-0.185-2.217,0.452-3.027c1.283-1.638,3.799-2.435,6.526-0.525c1.379,0.966,2.045,2.76,1.738,4.684
			c-0.339,2.112-1.738,3.737-3.742,4.344c-5.142,1.557-11.503-1.493-14.873-5.156l-1.678,1.544c3.18,3.453,8.471,6.312,13.598,6.312
			c1.224,0,2.438-0.163,3.613-0.518c2.82-0.854,4.86-3.219,5.333-6.169C355.804,65.056,354.774,62.409,352.673,60.939z
			 M346.619,65.633c0.063-0.219,0.271-0.371,0.499-0.371c0.05,0,0.103,0.008,0.153,0.023c0.218,0.067,0.359,0.268,0.364,0.483
			l-0.431,0.126c0.043,0.147,0.046,0.27,0.046,0.389c-0.092,0.026-0.188,0.035-0.288,0.006c-0.181-0.055-0.271-0.183-0.306-0.253
			C346.619,65.963,346.562,65.814,346.619,65.633z"/>
		<path d="M274.597,74.019c1.174,0.355,2.386,0.518,3.609,0.518c5.13,0,10.421-2.859,13.598-6.312l-1.677-1.543
			c-3.369,3.663-9.729,6.715-14.872,5.155c-2.005-0.606-3.405-2.231-3.743-4.344c-0.305-1.924,0.357-3.718,1.738-4.684
			c2.727-1.911,5.242-1.114,6.529,0.525c0.635,0.81,1.033,1.997,0.45,3.027c0.097-0.457,0.089-0.93-0.051-1.389
			c-0.436-1.435-2.053-2.304-3.501-1.865c-1.479,0.451-2.314,2.021-1.863,3.5c0.106,0.357,0.289,0.675,0.512,0.95
			c0.254,0.624,0.693,1.169,1.305,1.559c1.431,0.915,3.27,0.761,4.572-0.379c1.992-1.746,2.144-4.544,0.367-6.809
			c-1.942-2.479-5.875-3.613-9.629-0.987c-2.1,1.471-3.126,4.119-2.682,6.911C269.732,70.799,271.775,73.163,274.597,74.019z
			 M277.959,66.035c-0.036,0.071-0.128,0.2-0.307,0.253c-0.098,0.028-0.195,0.019-0.287-0.007c0-0.118,0.004-0.241,0.047-0.388
			l-0.434-0.126c0.01-0.217,0.149-0.417,0.369-0.483c0.049-0.016,0.102-0.023,0.15-0.023c0.229,0,0.436,0.153,0.502,0.371
			C278.057,65.814,278,65.963,277.959,66.035z"/>
		<path d="M301.758,141.224c0.491-0.37,0.523-1.155,0.015-2.056c-0.509-0.889-1.763-1.287-1.769-1.295
			c0.008-0.004-0.453,1.601,0.037,2.549C300.533,141.371,301.279,141.589,301.758,141.224z"/>
		<path d="M301.594,142.143c-0.346-0.513-1.055-0.585-1.998-0.018c-0.939,0.565-1.488,2.123-1.482,2.129
			c-0.008,0.01,1.738,0.434,2.702-0.2C301.772,143.429,301.932,142.649,301.594,142.143z"/>
		<path d="M307.952,141.572c-0.167,0.012-0.341,0.025-0.513,0.035c-1.219,0.069-1.885-0.812-2.457-1.647
			c-0.074-0.14-0.164-0.277-0.273-0.418c-0.634-0.813-1.949-1.04-1.953-1.052c0.004,0-0.174,1.257,0.194,2.164
			c0.177,0.445,0.426,0.859,0.714,0.893c0.235,0.02,0.475,0.037,0.711,0.053c0.505,0.034,0.541,0.44,0.541,0.44
			s-0.07,0.41-0.596,0.381c-0.245-0.018-0.489-0.037-0.738-0.061c-0.293-0.028-0.635,0.313-0.951,0.702
			c-0.645,0.768-0.898,2.001-0.896,2.005c-0.007,0.016,1.802,0.204,2.685-0.559c0.15-0.132,0.275-0.26,0.38-0.391
			c0.764-0.787,1.446-1.623,2.688-1.693c0.177-0.01,0.357-0.023,0.531-0.037c0.537-0.05,0.545-0.468,0.545-0.466
			C308.566,141.921,308.469,141.525,307.952,141.572z"/>
		<path d="M289.813,136.527c-0.008-0.231-0.1-0.43-0.266-0.597c-0.271-0.271-0.748-0.43-1.434-0.42
			c-1.099,0.008-2.359,1.075-2.359,1.081l0.004,0.002c-0.014,0.008,1.27,1.253,2.416,1.185
			C289.311,137.721,289.844,137.133,289.813,136.527z"/>
		<path d="M292.438,138.505c-0.115-0.606-0.729-0.944-1.813-0.784c-1.082,0.162-2.192,1.386-2.188,1.388
			c-0.016,0.008,1.419,1.069,2.544,0.851C292.096,139.749,292.545,139.099,292.438,138.505z"/>
		<path d="M292.95,137.721c0.585-0.15,0.925-0.86,0.817-1.883c-0.114-1.011-1.105-1.86-1.102-1.87
			c0.004,0.002-1.041,1.3-0.965,2.361C291.782,137.393,292.369,137.877,292.95,137.721z"/>
		<path d="M295.305,140.118c-0.193-0.584-0.85-0.843-1.904-0.535c-1.049,0.301-1.984,1.659-1.98,1.663
			c-0.014,0.014,1.545,0.87,2.633,0.509C295.13,141.398,295.489,140.693,295.305,140.118z"/>
		<path d="M295.704,139.269c0.564-0.227,0.807-0.974,0.563-1.973c-0.246-0.987-1.341-1.698-1.341-1.706
			c0.005,0-0.863,1.425-0.646,2.467C294.501,139.099,295.154,139.498,295.704,139.269z"/>
		<path d="M285.57,129.253c-0.333,1.025,0.029,1.714,0.625,1.807c0.607,0.099,1.193-0.426,1.484-1.418
			c0.286-0.987-0.313-2.189-0.305-2.205C287.381,127.445,285.906,128.229,285.57,129.253z"/>
		<path d="M285.42,131.58c0.129-0.604-0.314-1.169-1.385-1.465c-1.064-0.297-2.567,0.392-2.567,0.394
			c-0.015,0.01,0.909,1.59,2.04,1.839C284.621,132.6,285.293,132.177,285.42,131.58z"/>
		<path d="M284.529,129.18c0.555-0.299,0.732-1.019,0.311-1.948c-0.418-0.915-1.861-1.629-1.866-1.65
			c-0.005-0.014-0.687,1.521-0.208,2.574C283.232,129.198,283.979,129.48,284.529,129.18z"/>
		<path d="M298.656,140.448c0.531-0.301,0.67-1.073,0.292-2.035c-0.379-0.945-1.562-1.503-1.562-1.513
			c0.005,0-0.666,1.526-0.311,2.529C297.435,140.432,298.135,140.748,298.656,140.448z"/>
		<path d="M287.457,134.214c0.052-0.615-0.457-1.112-1.555-1.249c-1.091-0.139-2.486,0.744-2.483,0.754
			c-0.013,0.002,1.103,1.426,2.248,1.511C286.806,135.333,287.408,134.818,287.457,134.214z"/>
		<path d="M289.811,135.646c0.172,0.142,0.389,0.202,0.613,0.177c0.604-0.072,1.031-0.729,1.061-1.757
			c0.018-1.017-0.855-1.998-0.854-2.006l-0.002-0.004c0.002,0.002-1.205,1.149-1.268,2.213
			C289.324,134.934,289.518,135.403,289.811,135.646z"/>
		<path d="M287.309,131.908c-0.196,1.052,0.252,1.682,0.85,1.684c0.609,0.014,1.122-0.581,1.28-1.604
			c0.157-1.009-0.585-2.104-0.583-2.113C288.862,129.876,287.509,130.854,287.309,131.908z"/>
		<path d="M298.369,141.335c-0.271-0.552-0.957-0.721-1.961-0.281c-1.008,0.438-1.75,1.911-1.748,1.915
			c-0.013,0.01,1.654,0.657,2.682,0.159C298.369,142.633,298.631,141.882,298.369,141.335z"/>
		<path d="M328.207,141.054c-1.002-0.439-1.689-0.271-1.962,0.281c-0.263,0.547,0,1.298,1.028,1.793
			c1.03,0.498,2.695-0.149,2.683-0.159C329.959,142.965,329.218,141.492,328.207,141.054z"/>
		<path d="M338.419,131.06c0.6-0.093,0.957-0.781,0.627-1.807c-0.335-1.024-1.811-1.809-1.806-1.816
			c0.01,0.016-0.59,1.218-0.306,2.205C337.229,130.634,337.814,131.159,338.419,131.06z"/>
		<path d="M330.336,138.057c0.214-1.042-0.652-2.467-0.647-2.467c0,0.008-1.096,0.719-1.339,1.706
			c-0.244,0.999-0.006,1.746,0.562,1.973C329.461,139.498,330.111,139.099,330.336,138.057z"/>
		<path d="M325.02,142.125c-0.943-0.569-1.655-0.495-1.998,0.018c-0.339,0.508-0.181,1.286,0.777,1.911
			c0.967,0.634,2.715,0.21,2.705,0.2C326.507,144.249,325.962,142.691,325.02,142.125z"/>
		<path d="M321.032,142.36c-0.246,0.025-0.489,0.047-0.737,0.061c-0.523,0.029-0.594-0.379-0.594-0.379s0.032-0.406,0.536-0.44
			c0.241-0.014,0.48-0.031,0.716-0.055c0.286-0.031,0.536-0.445,0.713-0.893c0.369-0.907,0.189-2.16,0.192-2.16
			c-0.005,0.01-1.315,0.234-1.952,1.048c-0.108,0.141-0.196,0.28-0.273,0.42c-0.574,0.836-1.236,1.719-2.457,1.646
			c-0.169-0.01-0.345-0.023-0.513-0.033c-0.518-0.047-0.618,0.348-0.614,0.352c-0.004-0.004,0.008,0.417,0.542,0.466
			c0.18,0.016,0.355,0.025,0.535,0.035c1.238,0.072,1.92,0.908,2.688,1.695c0.104,0.129,0.229,0.257,0.382,0.389
			c0.883,0.763,2.689,0.572,2.685,0.561c0-0.006-0.256-1.239-0.896-2.007C321.668,142.674,321.324,142.332,321.032,142.36z"/>
		<path d="M331.212,139.581c-1.051-0.306-1.708-0.049-1.899,0.533c-0.187,0.577,0.173,1.284,1.251,1.637
			c1.087,0.363,2.646-0.497,2.634-0.507C333.2,141.242,332.264,139.879,331.212,139.581z"/>
		<path d="M324.575,140.422c0.488-0.95,0.027-2.553,0.032-2.549c0,0.008-1.259,0.406-1.767,1.295
			c-0.507,0.904-0.475,1.686,0.015,2.056C323.335,141.589,324.08,141.371,324.575,140.422z"/>
		<path d="M327.54,139.429c0.353-1.007-0.314-2.529-0.311-2.529c0,0.008-1.181,0.567-1.56,1.513c-0.381,0.96-0.241,1.73,0.289,2.035
			C326.48,140.748,327.181,140.432,327.54,139.429z"/>
		<path d="M331.667,137.721c0.581,0.156,1.169-0.328,1.247-1.392c0.08-1.062-0.966-2.359-0.96-2.361c0,0.01-0.992,0.859-1.104,1.87
			C330.742,136.861,331.08,137.571,331.667,137.721z"/>
		<path d="M340.579,130.115c-1.066,0.296-1.508,0.86-1.384,1.465c0.129,0.598,0.8,1.021,1.912,0.768
			c1.131-0.249,2.055-1.829,2.043-1.839C343.147,130.506,341.65,129.818,340.579,130.115z"/>
		<path d="M338.711,132.965c-1.095,0.137-1.604,0.634-1.553,1.249c0.047,0.604,0.656,1.118,1.79,1.016
			c1.147-0.085,2.262-1.509,2.25-1.511C341.201,133.709,339.804,132.827,338.711,132.965z"/>
		<path d="M333.984,132.06c0.003,0.006-0.871,0.985-0.851,2.006c0.027,1.026,0.457,1.685,1.062,1.757
			c0.224,0.025,0.438-0.035,0.612-0.179c0.291-0.241,0.485-0.712,0.447-1.375c-0.059-1.065-1.272-2.213-1.266-2.217L333.984,132.06z
			"/>
		<path d="M335.067,135.93c-0.162,0.167-0.253,0.365-0.266,0.597c-0.028,0.606,0.504,1.194,1.639,1.251
			c1.146,0.068,2.43-1.177,2.419-1.185l0.001-0.002c0.003-0.006-1.261-1.073-2.357-1.081
			C335.815,135.5,335.34,135.66,335.067,135.93z"/>
		<path d="M333.99,137.721c-1.083-0.16-1.699,0.178-1.814,0.784c-0.107,0.594,0.345,1.243,1.455,1.454
			c1.128,0.219,2.558-0.845,2.545-0.851C336.182,139.107,335.073,137.883,333.99,137.721z"/>
		<path d="M341.853,128.156c0.474-1.054-0.202-2.588-0.211-2.574c-0.004,0.021-1.447,0.735-1.863,1.65
			c-0.422,0.93-0.243,1.649,0.309,1.948C340.635,129.48,341.385,129.198,341.853,128.156z"/>
		<path d="M335.762,129.875c0,0.01-0.74,1.108-0.586,2.113c0.161,1.021,0.673,1.617,1.284,1.604
			c0.601-0.002,1.049-0.632,0.851-1.684C337.106,130.854,335.754,129.876,335.762,129.875z"/>
		<path d="M305.188,92.437v2.731h13.928v-2.731c0-1.912,0.978-3.602,2.46-4.592v-1.95c-1.972-5.728-16.874-5.728-18.846,0v1.95
			C304.211,88.835,305.188,90.525,305.188,92.437z"/>
		<polygon points="317.375,113.875 315.477,109.05 319.747,108.382 311.504,102.04 309.805,112.298 313.383,109.877 315.286,114.7 
					"/>
		<g>
			<polygon points="311.336,103.05 312.819,103.05 311.504,102.04 			"/>
			<path d="M324.634,88.564c-1.245,0-2.353,0.589-3.058,1.5c-0.51,0.655-0.815,1.477-0.815,2.373v4.38h-17.22v-4.38
				c0-0.896-0.303-1.717-0.811-2.373c-0.709-0.911-1.816-1.5-3.061-1.5c-0.618,0-1.119,0.502-1.119,1.119v12.037
				c0,0.734,0.598,1.33,1.332,1.33h1.668v0.822v0.804h3.484v-0.804v-0.822h4.309l0.221-1.332l0.537-3.238l2.602,2.002l3.341,2.568
				h3.226v0.822v0.804h3.483v-0.804v-0.822h1.669c0.736,0,1.333-0.596,1.333-1.33V89.683
				C325.755,89.067,325.252,88.564,324.634,88.564z"/>
		</g>
	</g>
	<g>
		<g>
			<path d="M312.143,10.642c-46.869,0-85,38.13-85,85c0,46.869,38.131,85,85,85c46.868,0,85-38.131,85-85
				C397.143,48.772,359.011,10.642,312.143,10.642z M312.143,179.5c-46.24,0-83.857-37.618-83.857-83.857
				c0-46.24,37.617-83.859,83.857-83.859c46.238,0,83.857,37.619,83.857,83.859C396,141.881,358.381,179.5,312.143,179.5z"/>
			<path d="M312.143,12.531c-45.827,0-83.11,37.284-83.11,83.111c0,45.826,37.283,83.111,83.11,83.111
				c45.826,0,83.11-37.283,83.11-83.111C395.252,49.814,357.969,12.531,312.143,12.531z M312.143,176.47
				c-44.568,0-80.827-36.26-80.827-80.828c0-44.569,36.259-80.83,80.827-80.83s80.827,36.26,80.827,80.83
				C392.97,140.21,356.711,176.47,312.143,176.47z"/>
			<path d="M312.143,31.577c-35.326,0-64.064,28.739-64.064,64.065c0,35.326,28.739,64.066,64.064,64.066
				c35.327,0,64.066-28.74,64.066-64.066C376.209,60.316,347.47,31.577,312.143,31.577z M312.143,158.565
				c-34.697,0-62.924-28.228-62.924-62.924s28.228-62.924,62.924-62.924s62.924,28.228,62.924,62.924
				C375.066,130.338,346.839,158.565,312.143,158.565z"/>
			<path d="M312.143,33.862c-34.064,0-61.779,27.715-61.779,61.779c0,34.065,27.715,61.781,61.779,61.781
				s61.779-27.716,61.779-61.781C373.921,61.577,346.207,33.862,312.143,33.862z M312.143,156.28
				c-33.436,0-60.638-27.201-60.638-60.638s27.202-60.638,60.638-60.638c33.435,0,60.636,27.202,60.636,60.638
				S345.577,156.28,312.143,156.28z"/>
			<path d="M278.11,160.286c-0.882,0.269-1.378,1.201-1.11,2.081c0.269,0.881,1.201,1.378,2.08,1.108
				c0.879-0.268,1.375-1.2,1.109-2.08C279.921,160.514,278.987,160.019,278.11,160.286z"/>
			<circle cx="345.691" cy="161.88" r="1.667"/>
		</g>
		<g>
			<path d="M238.203,79.864c0.043,0.007,0.063,0.021,0.06,0.043c-0.044,0.26,0.015,0.515,0.173,0.765
				c0.16,0.25,0.412,0.474,0.758,0.673l5.15,3.023c0.027,0.012,0.035,0.054,0.023,0.126c-0.013,0.072-0.033,0.11-0.064,0.112
				l-6.327,1.766c-0.29,0.085-0.507,0.183-0.651,0.292c-0.145,0.11-0.232,0.255-0.262,0.436c-0.004,0.021-0.027,0.029-0.071,0.021
				c-0.043-0.007-0.063-0.021-0.06-0.043l0.059-0.28c0.041-0.156,0.078-0.336,0.111-0.539c0.085-0.506,0.154-0.963,0.207-1.371
				c0.012-0.117,0.033-0.266,0.063-0.447c0.004-0.022,0.027-0.029,0.071-0.022c0.044,0.007,0.063,0.022,0.06,0.043
				c-0.076,0.456,0.045,0.71,0.363,0.763c0.123,0.021,0.267,0.007,0.431-0.04l4.655-1.297l-3.848-2.271
				c-0.163-0.094-0.313-0.152-0.451-0.175c-0.202-0.034-0.369,0.007-0.5,0.123c-0.131,0.116-0.219,0.308-0.263,0.575
				c-0.004,0.022-0.027,0.029-0.071,0.021c-0.043-0.007-0.063-0.021-0.059-0.043l0.098-0.519c0.061-0.272,0.109-0.524,0.148-0.756
				c0.022-0.138,0.044-0.309,0.063-0.514l0.064-0.447C238.137,79.864,238.16,79.856,238.203,79.864z"/>
			<path d="M245.157,78.726c0.108-0.011,0.194-0.067,0.257-0.168c0.063-0.101,0.125-0.273,0.186-0.515
				c0.005-0.021,0.029-0.027,0.072-0.016c0.043,0.01,0.061,0.026,0.056,0.048c-0.057,0.228-0.105,0.408-0.146,0.542l-0.207,0.788
				l-0.181,0.771c-0.027,0.137-0.069,0.323-0.127,0.558c-0.006,0.021-0.03,0.027-0.072,0.016c-0.043-0.011-0.063-0.026-0.057-0.048
				c0.061-0.242,0.086-0.422,0.078-0.542s-0.059-0.213-0.15-0.282c-0.093-0.068-0.246-0.129-0.459-0.182l-4.942-1.23
				c-0.214-0.053-0.376-0.071-0.485-0.053c-0.111,0.018-0.199,0.077-0.266,0.178s-0.131,0.272-0.19,0.514
				c-0.005,0.021-0.029,0.027-0.071,0.016c-0.043-0.011-0.063-0.026-0.057-0.048l0.148-0.552c0.093-0.31,0.164-0.564,0.213-0.763
				c0.055-0.221,0.114-0.489,0.178-0.806l0.123-0.536c0.005-0.021,0.029-0.027,0.072-0.016c0.042,0.011,0.061,0.026,0.055,0.048
				c-0.058,0.235-0.08,0.413-0.064,0.534s0.07,0.214,0.163,0.279c0.094,0.065,0.247,0.124,0.46,0.177l4.922,1.226
				C244.885,78.714,245.049,78.736,245.157,78.726z"/>
			<path d="M248.133,70.372c0.041,0.014,0.059,0.031,0.052,0.052l-0.565,1.678c-0.054,0.16-0.432,0.364-1.134,0.611
				s-1.658,0.512-2.867,0.793c-0.038,0.158-0.07,0.278-0.099,0.362c-0.051,0.153-0.119,0.331-0.203,0.535l2.324,0.783
				c0.216,0.073,0.379,0.106,0.488,0.101c0.111-0.005,0.201-0.056,0.272-0.152s0.146-0.262,0.226-0.499
				c0.005-0.014,0.028-0.014,0.07,0c0.041,0.014,0.06,0.028,0.055,0.042c-0.076,0.229-0.141,0.405-0.189,0.528l-0.27,0.768
				l-0.242,0.754c-0.037,0.134-0.096,0.316-0.172,0.545c-0.008,0.021-0.031,0.024-0.074,0.01c-0.041-0.014-0.059-0.031-0.051-0.052
				c0.079-0.236,0.119-0.414,0.121-0.534c0.002-0.119-0.041-0.217-0.128-0.292s-0.234-0.148-0.442-0.219l-4.827-1.625
				c-0.208-0.07-0.368-0.103-0.478-0.097c-0.111,0.005-0.203,0.058-0.279,0.156s-0.152,0.262-0.229,0.492
				c-0.005,0.014-0.028,0.014-0.069,0c-0.042-0.014-0.061-0.028-0.056-0.042l0.192-0.539c0.117-0.301,0.207-0.545,0.271-0.733
				c0.077-0.229,0.151-0.483,0.222-0.761c0.023-0.093,0.053-0.205,0.09-0.335c0.036-0.131,0.081-0.276,0.135-0.436
				c0.203-0.605,0.479-1.032,0.826-1.283c0.348-0.25,0.734-0.305,1.158-0.162c0.382,0.129,0.689,0.351,0.924,0.666
				c0.235,0.315,0.383,0.68,0.444,1.095c1.032-0.287,1.851-0.542,2.451-0.765c0.602-0.223,1.058-0.447,1.369-0.671
				c0.312-0.224,0.515-0.478,0.61-0.763C248.066,70.361,248.091,70.358,248.133,70.372z M243.28,73.718
				c0.151-0.452,0.147-0.813-0.013-1.083s-0.49-0.49-0.99-0.659c-0.563-0.19-0.988-0.226-1.275-0.11
				c-0.287,0.117-0.49,0.355-0.612,0.717c-0.091,0.271-0.106,0.481-0.044,0.629s0.226,0.268,0.49,0.356l2.199,0.74
				C243.119,74.151,243.201,73.954,243.28,73.718z"/>
			<path d="M242.568,67.892c0.135,0.376,0.426,0.747,0.873,1.113c0.014,0.006,0.012,0.027-0.004,0.064
				c-0.018,0.037-0.035,0.051-0.055,0.042c-0.25-0.142-0.574-0.321-0.972-0.537s-0.7-0.37-0.909-0.462
				c-0.033-0.015-0.041-0.041-0.025-0.078c0.017-0.037,0.041-0.048,0.075-0.033c0.147,0.065,0.304-0.09,0.47-0.465
				c0.275-0.568,0.584-1.237,0.925-2.009c0.175-0.396,0.354-0.818,0.536-1.267l0.292-0.688c0.112-0.255,0.179-0.448,0.196-0.581
				c0.019-0.132-0.016-0.237-0.102-0.315c-0.023-0.019-0.027-0.044-0.014-0.078c0.016-0.034,0.036-0.044,0.063-0.033
				c0.199,0.112,0.506,0.271,0.92,0.479c0.413,0.207,0.751,0.368,1.013,0.484c0.021,0.009,0.022,0.032,0.005,0.068
				c-0.016,0.037-0.035,0.055-0.059,0.052c-0.546-0.161-0.996-0.172-1.351-0.032c-0.354,0.14-0.626,0.421-0.812,0.844
				c-0.084,0.188-0.129,0.334-0.135,0.439c-0.006,0.105,0.025,0.192,0.096,0.259c0.07,0.067,0.196,0.141,0.377,0.221l4.639,2.05
				c0.208,0.092,0.367,0.139,0.479,0.14c0.112,0.001,0.211-0.051,0.298-0.157s0.188-0.29,0.304-0.551
				c0.009-0.02,0.034-0.021,0.073-0.003c0.041,0.018,0.057,0.037,0.047,0.057c-0.104,0.235-0.188,0.418-0.254,0.549l-0.375,0.821
				l-0.336,0.789c-0.057,0.144-0.139,0.34-0.248,0.588c-0.006,0.014-0.029,0.011-0.07-0.006c-0.039-0.018-0.057-0.033-0.051-0.047
				c0.115-0.262,0.184-0.462,0.205-0.601c0.021-0.139-0.007-0.252-0.085-0.338c-0.077-0.086-0.218-0.174-0.419-0.263l-4.658-2.059
				c-0.174-0.077-0.309-0.117-0.404-0.119c-0.096-0.001-0.179,0.034-0.251,0.106s-0.148,0.199-0.228,0.38
				C242.457,67.123,242.434,67.515,242.568,67.892z"/>
			<path d="M247.963,56.801c-0.271,0.044-0.486,0.206-0.646,0.485c-0.008,0.013-0.031,0.008-0.068-0.014
				c-0.039-0.022-0.055-0.039-0.047-0.052l0.262-0.434c0.151-0.234,0.268-0.421,0.348-0.561c0.066-0.115,0.158-0.29,0.277-0.526
				l0.231-0.425c0.007-0.013,0.03-0.008,0.067,0.014c0.039,0.022,0.055,0.04,0.047,0.052c-0.143,0.248-0.16,0.493-0.055,0.736
				s0.324,0.459,0.654,0.649l2.671,1.534c0.458,0.263,0.802,0.589,1.03,0.979c0.229,0.39,0.334,0.813,0.315,1.272
				s-0.161,0.92-0.428,1.385c-0.267,0.464-0.595,0.825-0.984,1.083s-0.812,0.39-1.267,0.395s-0.912-0.125-1.37-0.388l-3.071-1.764
				c-0.19-0.11-0.342-0.171-0.452-0.184c-0.11-0.013-0.212,0.02-0.304,0.098c-0.092,0.079-0.197,0.223-0.318,0.433
				c-0.012,0.019-0.035,0.018-0.074-0.004c-0.037-0.022-0.051-0.042-0.041-0.062l0.295-0.49c0.174-0.272,0.31-0.495,0.408-0.667
				c0.109-0.19,0.238-0.429,0.387-0.717l0.264-0.482c0.012-0.019,0.036-0.018,0.074,0.004s0.052,0.042,0.041,0.062
				c-0.121,0.21-0.191,0.377-0.211,0.5c-0.021,0.124,0.006,0.229,0.077,0.317c0.072,0.088,0.204,0.187,0.395,0.296l2.718,1.562
				c0.758,0.435,1.412,0.602,1.965,0.5s0.992-0.435,1.316-1c0.311-0.541,0.387-1.059,0.229-1.556s-0.543-0.921-1.153-1.271
				l-2.681-1.54C248.533,56.831,248.232,56.758,247.963,56.801z"/>
			<path d="M258.559,52.673c0.035,0.025,0.042,0.053,0.021,0.083c-0.082,0.113-0.219,0.291-0.41,0.532
				c-0.193,0.241-0.33,0.418-0.411,0.531c-0.106,0.149-0.228,0.329-0.361,0.54s-0.241,0.373-0.323,0.486
				c-0.018,0.023-0.043,0.022-0.079-0.003c-0.036-0.026-0.045-0.051-0.028-0.075c0.125-0.172,0.197-0.313,0.216-0.421
				c0.019-0.108-0.016-0.194-0.104-0.259c-0.09-0.064-0.277-0.123-0.564-0.176l-1.863-0.313l-1.557,2.16l0.654,1.123
				c0.123,0.206,0.256,0.36,0.398,0.463c0.209,0.15,0.42,0.189,0.635,0.118c0.213-0.071,0.418-0.241,0.61-0.509
				c0.021-0.03,0.05-0.032,0.085-0.006c0.036,0.025,0.043,0.053,0.021,0.083c-0.076,0.107-0.194,0.258-0.352,0.451
				c-0.176,0.218-0.322,0.41-0.442,0.576c-0.116,0.161-0.245,0.352-0.388,0.575c-0.125,0.199-0.232,0.361-0.322,0.486
				c-0.021,0.029-0.051,0.032-0.086,0.006c-0.036-0.026-0.043-0.054-0.021-0.083c0.119-0.166,0.188-0.33,0.203-0.49
				c0.017-0.16-0.021-0.355-0.113-0.584c-0.093-0.229-0.252-0.538-0.479-0.927l-2.936-5.032c-0.01-0.024,0.001-0.058,0.031-0.1
				c0.029-0.042,0.056-0.059,0.078-0.052l5.984,0.991c0.578,0.101,0.996,0.138,1.255,0.112s0.445-0.12,0.562-0.28
				C258.494,52.649,258.522,52.647,258.559,52.673z M252.941,55.5l1.408-1.955l-2.818-0.472L252.941,55.5z"/>
			<path d="M259.302,50.603c0.149,0.131,0.267,0.213,0.354,0.246c0.088,0.034,0.175,0.024,0.26-0.028s0.197-0.158,0.338-0.318
				l0.437-0.495c0.345-0.391,0.526-0.817,0.546-1.278c0.021-0.461-0.115-0.898-0.406-1.311c-0.012-0.02-0.004-0.042,0.023-0.068
				c0.027-0.025,0.049-0.03,0.064-0.016c0.475,0.505,0.882,0.908,1.223,1.208c0.045,0.039,0.068,0.075,0.073,0.108
				s-0.015,0.075-0.058,0.125l-3.403,3.863c-0.01,0.011-0.03,0.002-0.063-0.027c-0.033-0.029-0.045-0.049-0.035-0.06
				c0.164-0.187,0.271-0.335,0.318-0.445c0.048-0.109,0.045-0.214-0.008-0.315c-0.054-0.101-0.162-0.224-0.328-0.369l-3.822-3.366
				c-0.164-0.145-0.299-0.236-0.402-0.274c-0.104-0.038-0.21-0.025-0.318,0.036c-0.107,0.062-0.241,0.183-0.4,0.365
				c-0.01,0.011-0.031,0.002-0.064-0.027c-0.033-0.029-0.045-0.049-0.035-0.06l0.379-0.414c0.225-0.232,0.404-0.426,0.54-0.58
				c0.146-0.165,0.319-0.373,0.521-0.625l0.355-0.42c0.015-0.016,0.038-0.01,0.071,0.019s0.042,0.052,0.027,0.068
				c-0.16,0.182-0.262,0.329-0.307,0.44s-0.041,0.218,0.012,0.319c0.054,0.101,0.162,0.223,0.328,0.369L259.302,50.603z"/>
			<path d="M266.107,44.99c-0.088,0.066-0.197,0.152-0.329,0.258s-0.278,0.228-0.438,0.367l-0.582,0.521
				c-0.1,0.097-0.244,0.228-0.432,0.392c-0.012,0.009-0.031-0.002-0.061-0.036s-0.038-0.054-0.027-0.064
				c0.188-0.164,0.313-0.297,0.375-0.399c0.062-0.102,0.074-0.208,0.037-0.317c-0.036-0.109-0.127-0.247-0.271-0.413l-3.344-3.841
				c-0.145-0.166-0.266-0.274-0.364-0.325c-0.098-0.051-0.204-0.053-0.319-0.006c-0.115,0.047-0.264,0.149-0.445,0.308
				c-0.012,0.01-0.031-0.002-0.061-0.035s-0.038-0.055-0.027-0.064l0.447-0.375c0.253-0.201,0.451-0.364,0.596-0.489
				c0.221-0.193,0.438-0.396,0.65-0.61c0.266-0.251,0.447-0.418,0.541-0.5c0.564-0.491,1.16-0.816,1.79-0.976
				s1.231-0.153,1.804,0.019c0.572,0.172,1.066,0.496,1.48,0.972c0.467,0.537,0.756,1.119,0.865,1.748
				c0.11,0.628,0.053,1.238-0.172,1.828c-0.227,0.59-0.59,1.104-1.094,1.542C266.556,44.644,266.35,44.809,266.107,44.99z
				 M267.277,43.242c0.137-0.44,0.133-0.911-0.012-1.412c-0.145-0.501-0.434-1.001-0.867-1.499
				c-0.414-0.476-0.867-0.837-1.359-1.084s-0.98-0.357-1.463-0.331s-0.914,0.206-1.297,0.538c-0.231,0.202-0.399,0.373-0.502,0.511
				c-0.104,0.138-0.152,0.27-0.145,0.396c0.007,0.125,0.078,0.265,0.213,0.42l3.25,3.733c0.197,0.227,0.396,0.338,0.598,0.333
				c0.199-0.004,0.469-0.153,0.807-0.447C266.881,44.069,267.141,43.683,267.277,43.242z"/>
			<path d="M273.159,37.278c0.019-0.013,0.038-0.02,0.06-0.021c0.021-0.001,0.033,0,0.037,0.006
				c0.265,0.497,0.531,0.933,0.799,1.309c0.034,0.048,0.05,0.088,0.047,0.122s-0.031,0.07-0.085,0.108l-3.887,2.773
				c-0.018,0.013-0.04,0.001-0.065-0.035c-0.025-0.036-0.029-0.06-0.012-0.073c0.203-0.145,0.341-0.265,0.412-0.361
				c0.071-0.096,0.092-0.199,0.063-0.309c-0.029-0.11-0.107-0.255-0.235-0.434l-2.957-4.146c-0.129-0.179-0.238-0.298-0.331-0.359
				c-0.093-0.06-0.198-0.072-0.317-0.037c-0.119,0.036-0.276,0.123-0.474,0.264c-0.018,0.013-0.04,0.001-0.065-0.034
				c-0.025-0.036-0.029-0.061-0.012-0.073l3.727-2.657c0.059-0.042,0.107-0.037,0.146,0.017l0.848,1.151
				c0.01,0.012-0.001,0.033-0.029,0.062c-0.029,0.029-0.053,0.037-0.071,0.023c-0.629-0.578-1.286-0.623-1.973-0.133l-0.358,0.255
				c-0.215,0.153-0.34,0.301-0.373,0.442c-0.035,0.142,0.014,0.305,0.146,0.49l1.303,1.827l0.859-0.613
				c0.657-0.469,0.828-0.924,0.513-1.366c-0.013-0.018-0.003-0.039,0.03-0.062s0.056-0.026,0.068-0.008l0.547,0.786l0.309,0.415
				c0.148,0.183,0.266,0.333,0.351,0.453c0.009,0.012-0.005,0.031-0.041,0.056c-0.036,0.026-0.058,0.033-0.066,0.021
				c-0.366-0.513-0.884-0.531-1.552-0.055l-0.852,0.607l1.45,2.033c0.141,0.197,0.276,0.308,0.405,0.332
				c0.131,0.025,0.291-0.031,0.482-0.167l0.438-0.313c0.8-0.571,1.03-1.321,0.692-2.25C273.128,37.31,273.135,37.295,273.159,37.278
				z"/>
			<path d="M273.719,33.115c0.223,0.11,0.461,0.18,0.713,0.208c0.252,0.029,0.58,0.047,0.985,0.053
				c0.441,0.01,0.798,0.032,1.07,0.066c0.272,0.035,0.536,0.119,0.79,0.252c0.256,0.134,0.467,0.343,0.637,0.626
				c0.191,0.321,0.278,0.658,0.262,1.009c-0.018,0.352-0.136,0.689-0.357,1.013c-0.221,0.324-0.526,0.602-0.917,0.835
				c-0.265,0.158-0.558,0.285-0.88,0.383c-0.321,0.098-0.584,0.14-0.789,0.125c-0.08-0.004-0.146-0.045-0.201-0.123l-0.913-1.403
				l-0.006-0.009c-0.015-0.025-0.008-0.049,0.022-0.071c0.029-0.022,0.055-0.022,0.076,0c0.52,0.399,1.012,0.686,1.479,0.86
				s0.908,0.138,1.324-0.11c0.271-0.162,0.453-0.371,0.548-0.627s0.038-0.559-0.167-0.905c-0.166-0.277-0.371-0.483-0.619-0.618
				c-0.246-0.135-0.5-0.218-0.763-0.25s-0.607-0.056-1.036-0.074c-0.419-0.015-0.754-0.04-1.004-0.074
				c-0.252-0.034-0.496-0.115-0.734-0.242c-0.237-0.127-0.436-0.323-0.593-0.588c-0.195-0.327-0.269-0.659-0.222-0.995
				c0.048-0.335,0.186-0.646,0.412-0.931c0.228-0.285,0.502-0.523,0.823-0.714c0.214-0.127,0.44-0.235,0.679-0.321
				c0.239-0.086,0.449-0.142,0.632-0.165c0.117-0.019,0.2,0.013,0.249,0.095l0.794,1.268c0.011,0.019,0.001,0.042-0.029,0.069
				c-0.031,0.027-0.056,0.033-0.073,0.018c-0.354-0.309-0.73-0.557-1.127-0.743c-0.397-0.186-0.807-0.153-1.229,0.098
				c-0.283,0.169-0.46,0.385-0.529,0.648s-0.02,0.537,0.148,0.82C273.313,32.833,273.494,33.005,273.719,33.115z"/>
			<path d="M281.262,34.187c0.079,0.075,0.178,0.103,0.295,0.084c0.119-0.019,0.289-0.085,0.511-0.198
				c0.02-0.01,0.04,0.005,0.06,0.044s0.02,0.064,0,0.074c-0.209,0.106-0.377,0.188-0.504,0.245l-0.73,0.359l-0.701,0.369
				c-0.121,0.07-0.289,0.16-0.505,0.27c-0.02,0.01-0.039-0.004-0.06-0.044c-0.02-0.039-0.02-0.063,0-0.074
				c0.222-0.113,0.375-0.211,0.46-0.296s0.122-0.184,0.113-0.299c-0.009-0.114-0.063-0.27-0.163-0.466l-2.312-4.538
				c-0.101-0.196-0.192-0.33-0.278-0.401c-0.086-0.072-0.189-0.1-0.309-0.084s-0.291,0.08-0.512,0.193
				c-0.021,0.01-0.04-0.005-0.061-0.044c-0.02-0.039-0.02-0.064,0-0.074l0.515-0.25c0.294-0.133,0.532-0.247,0.716-0.34
				c0.202-0.103,0.444-0.234,0.725-0.394l0.485-0.259c0.021-0.01,0.04,0.004,0.06,0.044c0.02,0.039,0.02,0.063,0,0.074
				c-0.215,0.11-0.363,0.21-0.445,0.301c-0.081,0.091-0.115,0.193-0.104,0.306c0.013,0.113,0.068,0.268,0.168,0.464l2.303,4.519
				C281.091,33.974,281.182,34.112,281.262,34.187z"/>
			<path d="M284.509,32.716c-0.687-0.061-1.28-0.279-1.782-0.656c-0.504-0.377-0.879-0.871-1.129-1.482
				c-0.266-0.652-0.332-1.298-0.198-1.939c0.134-0.641,0.444-1.221,0.929-1.74c0.485-0.519,1.098-0.93,1.838-1.232
				c0.34-0.139,0.682-0.247,1.025-0.324c0.346-0.078,0.641-0.107,0.885-0.088c0.072,0.002,0.118,0.011,0.137,0.027
				c0.019,0.017,0.049,0.067,0.092,0.153l0.682,1.29c0.008,0.021-0.005,0.042-0.039,0.063c-0.035,0.022-0.061,0.021-0.078-0.003
				c-0.318-0.37-0.74-0.655-1.266-0.856c-0.525-0.201-1.087-0.179-1.685,0.064c-0.468,0.191-0.846,0.484-1.132,0.879
				c-0.287,0.395-0.449,0.859-0.488,1.394s0.061,1.094,0.299,1.678c0.253,0.618,0.603,1.13,1.051,1.538
				c0.447,0.408,0.953,0.667,1.518,0.776c0.563,0.11,1.134,0.047,1.711-0.188c0.291-0.119,0.506-0.246,0.641-0.38
				s0.203-0.305,0.207-0.512c0.002-0.207-0.066-0.48-0.205-0.82c-0.145-0.353-0.265-0.59-0.362-0.713s-0.226-0.179-0.384-0.17
				c-0.159,0.009-0.412,0.084-0.758,0.226c-0.041,0.017-0.072-0.002-0.094-0.057c-0.009-0.02-0.012-0.041-0.008-0.062
				c0.003-0.021,0.012-0.035,0.025-0.04c0.576-0.196,1.035-0.364,1.375-0.502c0.339-0.139,0.688-0.293,1.046-0.463
				c0.014-0.005,0.029-0.001,0.046,0.011c0.018,0.013,0.029,0.026,0.034,0.04c0.02,0.047,0.013,0.078-0.021,0.092
				c-0.139,0.049-0.225,0.11-0.259,0.183c-0.033,0.073-0.026,0.191,0.021,0.354s0.149,0.438,0.308,0.825
				c0.125,0.305,0.225,0.518,0.302,0.637c0.076,0.12,0.122,0.196,0.136,0.23c0.016,0.041,0.021,0.071,0.013,0.09
				c-0.009,0.019-0.033,0.045-0.075,0.078c-0.777,0.54-1.502,0.947-2.174,1.221C285.922,32.649,285.195,32.776,284.509,32.716z"/>
			<path d="M295.372,22.302c0.012,0.042,0.011,0.065-0.003,0.069c-0.283,0.079-0.474,0.241-0.572,0.486
				c-0.1,0.245-0.096,0.554,0.009,0.929l1.534,5.476c0.006,0.021-0.008,0.04-0.041,0.057c-0.033,0.017-0.059,0.02-0.077,0.01
				l-6.585-4.381l1.208,4.311c0.104,0.375,0.259,0.64,0.463,0.796s0.446,0.194,0.729,0.115c0.014-0.004,0.027,0.015,0.039,0.058
				s0.01,0.065-0.004,0.07c-0.19,0.053-0.336,0.09-0.438,0.111l-0.564,0.147l-0.621,0.186c-0.111,0.039-0.273,0.088-0.484,0.147
				c-0.021,0.006-0.038-0.012-0.05-0.055c-0.013-0.042-0.007-0.066,0.014-0.072c0.304-0.085,0.511-0.25,0.622-0.494
				c0.109-0.244,0.113-0.553,0.008-0.928l-1.301-4.639c-0.256-0.156-0.477-0.255-0.658-0.295c-0.184-0.04-0.359-0.037-0.529,0.011
				c-0.014,0.004-0.027-0.015-0.039-0.058c-0.012-0.042-0.01-0.065,0.004-0.069l0.427-0.108c0.094-0.019,0.226-0.052,0.395-0.1
				l0.675-0.2c0.083-0.031,0.185-0.063,0.305-0.097c0.057-0.016,0.103-0.014,0.139,0.006c0.036,0.021,0.094,0.065,0.175,0.134
				l0.349,0.268l5.072,3.422l-1.051-3.75c-0.105-0.374-0.26-0.641-0.465-0.801c-0.204-0.16-0.444-0.201-0.72-0.124
				c-0.015,0.004-0.026-0.015-0.039-0.058c-0.012-0.042-0.011-0.065,0.003-0.069l0.438-0.111c0.23-0.049,0.42-0.094,0.567-0.136
				c0.142-0.04,0.33-0.1,0.566-0.181l0.463-0.141C295.348,22.24,295.36,22.259,295.372,22.302z"/>
			<path d="M300.049,22.054c-0.252,0.31-0.418,0.751-0.5,1.324c0.002,0.015-0.017,0.024-0.057,0.029
				c-0.04,0.005-0.062-0.003-0.064-0.025c-0.008-0.287-0.021-0.657-0.043-1.109c-0.021-0.452-0.047-0.791-0.076-1.016
				c-0.006-0.037,0.012-0.057,0.053-0.063c0.039-0.005,0.063,0.011,0.066,0.047c0.021,0.16,0.234,0.213,0.643,0.161
				c0.628-0.059,1.36-0.143,2.197-0.251c0.428-0.056,0.882-0.122,1.36-0.199l0.74-0.107c0.276-0.036,0.476-0.08,0.599-0.133
				c0.122-0.053,0.194-0.136,0.217-0.25c0.004-0.03,0.023-0.047,0.061-0.052c0.035-0.004,0.056,0.008,0.06,0.037
				c0.007,0.229,0.03,0.573,0.067,1.034s0.074,0.833,0.111,1.117c0.003,0.022-0.016,0.036-0.056,0.041
				c-0.04,0.005-0.065-0.002-0.075-0.023c-0.146-0.551-0.369-0.941-0.674-1.172c-0.303-0.23-0.684-0.316-1.142-0.257
				c-0.204,0.026-0.353,0.064-0.446,0.113c-0.093,0.049-0.15,0.121-0.171,0.216s-0.019,0.241,0.007,0.437l0.65,5.029
				c0.029,0.226,0.072,0.386,0.13,0.482c0.057,0.096,0.153,0.154,0.288,0.173c0.136,0.02,0.346,0.011,0.629-0.026
				c0.021-0.003,0.035,0.018,0.041,0.061s-0.002,0.067-0.023,0.07c-0.255,0.033-0.455,0.055-0.602,0.067l-0.896,0.104l-0.85,0.122
				c-0.151,0.027-0.361,0.058-0.631,0.093c-0.015,0.002-0.024-0.019-0.03-0.063c-0.005-0.043-0.001-0.066,0.013-0.068
				c0.284-0.037,0.49-0.082,0.621-0.136c0.129-0.054,0.211-0.136,0.245-0.248c0.033-0.111,0.036-0.276,0.008-0.495l-0.654-5.051
				c-0.024-0.189-0.061-0.325-0.108-0.407c-0.047-0.083-0.121-0.136-0.221-0.16c-0.099-0.024-0.246-0.023-0.443,0.002
				C300.648,21.56,300.301,21.744,300.049,22.054z"/>
			<path d="M314.166,27.222c0.001,0.044-0.01,0.066-0.031,0.067l-1.771,0.045c-0.169,0.004-0.489-0.281-0.963-0.855
				s-1.05-1.381-1.729-2.42c-0.16,0.019-0.285,0.029-0.373,0.032c-0.161,0.004-0.352,0.002-0.572-0.007l0.063,2.452
				c0.006,0.228,0.031,0.392,0.074,0.494s0.121,0.169,0.236,0.203c0.113,0.034,0.296,0.047,0.545,0.041
				c0.015,0,0.023,0.021,0.023,0.065c0.002,0.044-0.006,0.066-0.02,0.066c-0.242,0.006-0.43,0.008-0.562,0.003l-0.813,0.01
				l-0.792,0.031c-0.14,0.011-0.329,0.02-0.571,0.026c-0.021,0-0.033-0.021-0.035-0.065c0-0.044,0.01-0.066,0.031-0.067
				c0.25-0.006,0.431-0.029,0.543-0.069c0.113-0.04,0.189-0.113,0.231-0.22c0.041-0.107,0.06-0.271,0.054-0.491l-0.131-5.091
				c-0.006-0.22-0.031-0.381-0.074-0.482s-0.123-0.171-0.241-0.208c-0.118-0.037-0.298-0.053-0.54-0.046
				c-0.016,0-0.023-0.021-0.023-0.065c-0.002-0.044,0.005-0.066,0.02-0.066l0.572-0.004c0.322,0.006,0.584,0.007,0.781,0.002
				c0.242-0.006,0.506-0.024,0.791-0.053c0.095-0.01,0.21-0.02,0.346-0.031c0.135-0.01,0.287-0.018,0.456-0.022
				c0.638-0.017,1.134,0.096,1.489,0.336c0.354,0.24,0.537,0.584,0.549,1.031c0.01,0.403-0.092,0.769-0.308,1.097
				s-0.507,0.593-0.876,0.792c0.623,0.872,1.144,1.552,1.56,2.04c0.416,0.488,0.782,0.84,1.101,1.056
				c0.316,0.216,0.626,0.32,0.926,0.312C314.153,27.156,314.165,27.178,314.166,27.222z M309.357,23.813
				c0.477-0.012,0.814-0.14,1.014-0.384s0.292-0.629,0.278-1.157c-0.015-0.594-0.126-1.005-0.335-1.235
				c-0.207-0.229-0.502-0.339-0.883-0.329c-0.285,0.007-0.488,0.066-0.605,0.175c-0.119,0.11-0.174,0.304-0.167,0.582l0.06,2.32
				C308.896,23.811,309.108,23.82,309.357,23.813z"/>
			<path d="M321.692,27.856c-0.004,0.044-0.024,0.064-0.061,0.062c-0.139-0.012-0.361-0.037-0.667-0.077
				c-0.306-0.04-0.528-0.065-0.667-0.077c-0.183-0.015-0.399-0.025-0.648-0.031c-0.25-0.005-0.444-0.014-0.583-0.025
				c-0.029-0.002-0.042-0.026-0.038-0.069c0.003-0.044,0.02-0.065,0.049-0.063c0.212,0.018,0.369,0.007,0.472-0.033
				s0.158-0.114,0.167-0.224c0.01-0.11-0.037-0.301-0.14-0.575l-0.695-1.756l-2.653-0.218l-0.623,1.141
				c-0.113,0.211-0.177,0.405-0.191,0.581c-0.021,0.256,0.055,0.457,0.227,0.604s0.423,0.233,0.752,0.26
				c0.036,0.003,0.053,0.026,0.049,0.07s-0.023,0.064-0.061,0.061c-0.131-0.011-0.32-0.033-0.567-0.068
				c-0.277-0.038-0.518-0.064-0.723-0.082c-0.197-0.016-0.428-0.028-0.692-0.035c-0.234-0.004-0.429-0.013-0.582-0.026
				c-0.037-0.003-0.054-0.026-0.05-0.07c0.004-0.043,0.023-0.064,0.061-0.061c0.204,0.017,0.379-0.009,0.524-0.079
				c0.146-0.069,0.293-0.202,0.441-0.399c0.148-0.198,0.331-0.494,0.548-0.888l2.792-5.113c0.017-0.021,0.05-0.029,0.102-0.025
				c0.051,0.004,0.079,0.018,0.085,0.04l2.241,5.636c0.213,0.547,0.397,0.925,0.553,1.132c0.156,0.208,0.333,0.32,0.53,0.336
				C321.679,27.789,321.695,27.812,321.692,27.856z M316.371,24.506l2.401,0.197l-1.052-2.658L316.371,24.506z"/>
			<path d="M323.972,27.993c0.02,0.107,0.082,0.188,0.188,0.243s0.282,0.102,0.528,0.143c0.021,0.003,0.029,0.027,0.022,0.07
				c-0.008,0.043-0.022,0.063-0.044,0.06c-0.231-0.038-0.415-0.072-0.552-0.102l-0.801-0.144l-0.783-0.119
				c-0.139-0.015-0.328-0.043-0.566-0.082c-0.021-0.004-0.029-0.027-0.021-0.071c0.007-0.043,0.021-0.063,0.043-0.06
				c0.246,0.041,0.428,0.052,0.546,0.035s0.208-0.075,0.269-0.173c0.061-0.098,0.109-0.255,0.145-0.472l0.831-5.025
				c0.036-0.217,0.04-0.379,0.014-0.488c-0.026-0.108-0.093-0.191-0.198-0.25c-0.105-0.058-0.281-0.108-0.527-0.148
				c-0.021-0.003-0.029-0.027-0.021-0.071c0.007-0.043,0.021-0.063,0.043-0.06l0.563,0.104c0.316,0.067,0.575,0.118,0.778,0.151
				c0.224,0.037,0.496,0.075,0.817,0.113l0.544,0.079c0.021,0.003,0.029,0.027,0.022,0.07c-0.008,0.043-0.022,0.063-0.044,0.06
				c-0.238-0.04-0.418-0.047-0.537-0.022s-0.207,0.086-0.265,0.185c-0.057,0.099-0.104,0.256-0.14,0.473l-0.827,5.003
				C323.961,27.72,323.952,27.886,323.972,27.993z"/>
			<path d="M334.383,23.814c-0.011,0.042-0.023,0.062-0.037,0.059c-0.285-0.072-0.531-0.026-0.738,0.137
				c-0.208,0.163-0.359,0.433-0.455,0.81l-1.396,5.513c-0.005,0.021-0.026,0.031-0.063,0.029c-0.038-0.002-0.062-0.012-0.072-0.03
				l-3.53-7.078l-1.099,4.34c-0.095,0.377-0.094,0.684,0.006,0.92c0.099,0.237,0.29,0.391,0.574,0.463
				c0.015,0.004,0.017,0.027,0.006,0.07c-0.011,0.042-0.023,0.062-0.038,0.059c-0.191-0.049-0.337-0.089-0.435-0.122l-0.563-0.154
				l-0.632-0.148c-0.115-0.021-0.279-0.06-0.493-0.114c-0.021-0.005-0.026-0.029-0.016-0.072s0.027-0.062,0.048-0.056
				c0.306,0.078,0.567,0.038,0.785-0.119c0.217-0.157,0.374-0.424,0.469-0.801l1.183-4.67c-0.146-0.264-0.287-0.458-0.425-0.584
				c-0.139-0.125-0.293-0.21-0.464-0.253c-0.015-0.003-0.016-0.026-0.005-0.069c0.011-0.042,0.023-0.062,0.037-0.059l0.424,0.119
				c0.091,0.031,0.222,0.067,0.393,0.111l0.685,0.162c0.087,0.014,0.191,0.037,0.313,0.067c0.057,0.014,0.096,0.04,0.117,0.075
				c0.021,0.036,0.049,0.103,0.084,0.203l0.17,0.406l2.694,5.493l0.956-3.775c0.095-0.377,0.094-0.686-0.004-0.926
				c-0.099-0.241-0.286-0.396-0.563-0.466c-0.015-0.004-0.016-0.027-0.005-0.069c0.011-0.043,0.023-0.063,0.037-0.059l0.435,0.121
				c0.224,0.072,0.411,0.126,0.56,0.165c0.143,0.036,0.336,0.078,0.582,0.125l0.472,0.108
				C334.392,23.748,334.394,23.771,334.383,23.814z"/>
			<path d="M335.128,30.919c0.001,0.109,0.049,0.2,0.145,0.271c0.096,0.072,0.262,0.148,0.497,0.229
				c0.021,0.007,0.024,0.032,0.01,0.073s-0.032,0.059-0.053,0.052c-0.222-0.077-0.397-0.141-0.526-0.193l-0.767-0.276l-0.752-0.248
				c-0.134-0.039-0.315-0.097-0.544-0.176c-0.021-0.007-0.024-0.031-0.01-0.073c0.014-0.042,0.031-0.059,0.053-0.051
				c0.235,0.081,0.413,0.123,0.532,0.125s0.218-0.04,0.294-0.126c0.076-0.086,0.149-0.233,0.222-0.441l1.66-4.815
				c0.072-0.208,0.104-0.368,0.096-0.479s-0.06-0.205-0.153-0.28c-0.095-0.075-0.26-0.154-0.495-0.235
				c-0.021-0.007-0.024-0.032-0.01-0.073c0.014-0.042,0.031-0.059,0.053-0.051l0.537,0.197c0.3,0.119,0.547,0.212,0.741,0.279
				c0.215,0.074,0.478,0.157,0.787,0.248l0.523,0.169c0.021,0.007,0.024,0.032,0.01,0.073s-0.032,0.059-0.053,0.052
				c-0.229-0.079-0.404-0.116-0.525-0.112c-0.122,0.005-0.22,0.051-0.292,0.138c-0.073,0.087-0.146,0.235-0.217,0.443l-1.653,4.794
				C335.163,30.648,335.126,30.81,335.128,30.919z"/>
			<path d="M346.086,28.54c-0.018,0.041-0.033,0.058-0.047,0.052c-0.268-0.119-0.519-0.115-0.75,0.011
				c-0.232,0.126-0.427,0.367-0.584,0.722l-2.299,5.202c-0.009,0.02-0.032,0.026-0.068,0.018c-0.037-0.008-0.059-0.022-0.066-0.042
				l-2.295-7.569l-1.81,4.095c-0.157,0.356-0.207,0.659-0.149,0.909c0.059,0.25,0.222,0.434,0.489,0.553
				c0.014,0.006,0.012,0.029-0.006,0.069c-0.019,0.04-0.034,0.057-0.047,0.051c-0.182-0.08-0.317-0.144-0.408-0.192l-0.529-0.246
				l-0.598-0.252c-0.11-0.041-0.266-0.105-0.467-0.194c-0.021-0.009-0.021-0.034-0.004-0.074c0.018-0.041,0.037-0.056,0.057-0.047
				c0.288,0.127,0.553,0.132,0.794,0.014c0.24-0.118,0.439-0.354,0.597-0.71l1.948-4.407c-0.1-0.284-0.206-0.5-0.321-0.647
				c-0.116-0.147-0.254-0.256-0.415-0.328c-0.014-0.006-0.011-0.029,0.007-0.069c0.018-0.041,0.033-0.058,0.047-0.052l0.397,0.188
				c0.084,0.045,0.207,0.104,0.368,0.175l0.648,0.274c0.083,0.029,0.182,0.068,0.296,0.119c0.054,0.024,0.088,0.055,0.104,0.094
				c0.015,0.039,0.031,0.11,0.049,0.214l0.1,0.429l1.736,5.867l1.574-3.562c0.157-0.355,0.207-0.66,0.151-0.913
				c-0.057-0.253-0.216-0.438-0.478-0.554c-0.013-0.006-0.011-0.029,0.007-0.069c0.018-0.04,0.033-0.057,0.047-0.051l0.408,0.192
				c0.208,0.108,0.384,0.193,0.524,0.256c0.134,0.059,0.318,0.133,0.552,0.22l0.447,0.186
				C346.106,28.477,346.104,28.5,346.086,28.54z"/>
			<path d="M345.545,35.667c-0.368-0.582-0.556-1.187-0.562-1.814c-0.006-0.628,0.158-1.227,0.492-1.796
				c0.355-0.607,0.829-1.053,1.42-1.335s1.239-0.389,1.946-0.319c0.707,0.07,1.405,0.307,2.095,0.711
				c0.316,0.186,0.61,0.392,0.881,0.618c0.271,0.227,0.474,0.443,0.607,0.649c0.042,0.059,0.063,0.1,0.061,0.125
				c-0.001,0.024-0.023,0.08-0.065,0.166l-0.61,1.325c-0.011,0.019-0.036,0.021-0.074,0.007c-0.039-0.014-0.054-0.036-0.045-0.065
				c0.101-0.476,0.071-0.984-0.089-1.524c-0.159-0.54-0.518-0.973-1.074-1.299c-0.437-0.256-0.898-0.378-1.386-0.366
				c-0.487,0.012-0.955,0.165-1.403,0.459c-0.449,0.294-0.833,0.713-1.151,1.257c-0.338,0.576-0.532,1.165-0.584,1.768
				s0.05,1.162,0.305,1.677c0.255,0.515,0.651,0.93,1.189,1.245c0.272,0.16,0.503,0.252,0.691,0.278
				c0.188,0.026,0.366-0.023,0.532-0.147c0.166-0.124,0.342-0.343,0.527-0.66c0.192-0.329,0.309-0.57,0.347-0.722
				s0.005-0.288-0.099-0.408c-0.104-0.121-0.317-0.275-0.64-0.464c-0.038-0.022-0.042-0.059-0.013-0.109
				c0.011-0.019,0.026-0.033,0.045-0.043s0.034-0.012,0.047-0.004c0.507,0.339,0.918,0.602,1.234,0.787s0.651,0.369,1.004,0.55
				c0.013,0.007,0.019,0.021,0.02,0.043c0,0.021-0.004,0.039-0.011,0.051c-0.026,0.044-0.055,0.057-0.087,0.039
				c-0.123-0.081-0.224-0.112-0.302-0.094s-0.168,0.095-0.27,0.231c-0.101,0.136-0.257,0.385-0.469,0.746
				c-0.166,0.285-0.274,0.494-0.322,0.626c-0.049,0.133-0.082,0.216-0.101,0.248c-0.022,0.038-0.043,0.06-0.063,0.064
				c-0.021,0.005-0.056,0.001-0.107-0.012c-0.901-0.291-1.665-0.619-2.291-0.986C346.456,36.749,345.914,36.249,345.545,35.667z"/>
			<path d="M354.167,41.344c-0.277-0.63-0.373-1.256-0.285-1.878s0.339-1.19,0.754-1.703c0.442-0.548,0.977-0.917,1.603-1.109
				c0.626-0.191,1.284-0.2,1.973-0.025c0.688,0.174,1.344,0.513,1.966,1.015c0.285,0.23,0.544,0.478,0.778,0.742
				c0.234,0.265,0.402,0.509,0.505,0.733c0.032,0.064,0.046,0.108,0.041,0.132s-0.035,0.075-0.089,0.154l-0.802,1.219
				c-0.014,0.017-0.039,0.016-0.074-0.004c-0.036-0.02-0.048-0.043-0.035-0.071c0.171-0.456,0.217-0.963,0.14-1.521
				c-0.078-0.558-0.367-1.039-0.869-1.444c-0.394-0.318-0.833-0.507-1.316-0.568c-0.483-0.061-0.969,0.021-1.456,0.245
				c-0.487,0.224-0.929,0.581-1.325,1.071c-0.419,0.52-0.699,1.073-0.84,1.662c-0.142,0.589-0.124,1.157,0.052,1.704
				c0.175,0.547,0.506,1.017,0.99,1.408c0.245,0.198,0.46,0.324,0.643,0.378c0.183,0.053,0.365,0.031,0.548-0.066
				s0.39-0.289,0.62-0.574c0.239-0.296,0.39-0.517,0.449-0.662c0.061-0.145,0.048-0.284-0.036-0.418
				c-0.085-0.135-0.272-0.319-0.563-0.554c-0.034-0.028-0.033-0.064,0.004-0.11c0.014-0.017,0.03-0.029,0.051-0.037
				c0.021-0.007,0.036-0.006,0.047,0.003c0.451,0.411,0.818,0.732,1.104,0.962c0.285,0.23,0.589,0.461,0.911,0.693
				c0.012,0.009,0.016,0.025,0.013,0.046s-0.009,0.038-0.019,0.049c-0.032,0.04-0.063,0.048-0.091,0.025
				c-0.109-0.098-0.204-0.144-0.285-0.138c-0.08,0.006-0.18,0.069-0.3,0.188c-0.121,0.12-0.313,0.342-0.575,0.667
				c-0.207,0.256-0.345,0.447-0.412,0.572s-0.113,0.201-0.136,0.229c-0.028,0.034-0.052,0.052-0.072,0.055
				c-0.021,0.002-0.056-0.007-0.105-0.028c-0.848-0.421-1.554-0.859-2.118-1.315C354.907,42.549,354.445,41.974,354.167,41.344z"/>
			<path d="M363.615,50.422c-0.031,0.031-0.055,0.039-0.069,0.023l-1.247-1.257c-0.119-0.12-0.132-0.549-0.038-1.288
				c0.094-0.738,0.286-1.711,0.576-2.918c-0.124-0.104-0.217-0.188-0.279-0.25c-0.113-0.115-0.242-0.255-0.387-0.422l-1.742,1.728
				c-0.161,0.16-0.265,0.291-0.309,0.392c-0.045,0.101-0.04,0.205,0.015,0.311c0.054,0.106,0.168,0.248,0.344,0.425
				c0.011,0.01,0,0.031-0.031,0.062c-0.031,0.031-0.052,0.042-0.063,0.031c-0.17-0.171-0.299-0.307-0.387-0.406l-0.565-0.586
				l-0.565-0.554c-0.104-0.094-0.24-0.227-0.411-0.398c-0.016-0.016-0.008-0.039,0.023-0.07c0.031-0.031,0.055-0.039,0.07-0.023
				c0.176,0.177,0.316,0.293,0.423,0.348c0.105,0.055,0.212,0.061,0.318,0.017c0.106-0.043,0.238-0.143,0.395-0.298l3.615-3.586
				c0.156-0.155,0.257-0.283,0.302-0.384c0.044-0.101,0.039-0.207-0.015-0.319s-0.166-0.253-0.337-0.425
				c-0.01-0.011,0.001-0.031,0.032-0.062c0.031-0.031,0.052-0.042,0.062-0.031l0.396,0.414c0.217,0.239,0.395,0.43,0.534,0.57
				c0.171,0.172,0.364,0.352,0.581,0.539c0.072,0.063,0.159,0.14,0.26,0.231c0.101,0.091,0.211,0.196,0.329,0.316
				c0.449,0.453,0.708,0.891,0.776,1.314s-0.057,0.792-0.374,1.107c-0.286,0.284-0.623,0.46-1.009,0.529
				c-0.387,0.068-0.779,0.037-1.179-0.094c-0.206,1.052-0.345,1.896-0.414,2.534c-0.07,0.638-0.075,1.146-0.015,1.524
				c0.061,0.379,0.197,0.675,0.409,0.889C363.654,50.368,363.646,50.392,363.615,50.422z M362.8,44.585
				c0.335,0.338,0.66,0.497,0.974,0.475s0.658-0.219,1.033-0.591c0.422-0.418,0.645-0.782,0.67-1.09
				c0.024-0.309-0.098-0.598-0.366-0.869c-0.201-0.203-0.383-0.31-0.543-0.321c-0.161-0.011-0.34,0.082-0.538,0.278l-1.647,1.635
				C362.484,44.247,362.624,44.408,362.8,44.585z"/>
			<path d="M368.306,56.338c-0.035,0.027-0.063,0.027-0.086-0.002c-0.087-0.109-0.221-0.289-0.401-0.539s-0.314-0.43-0.4-0.539
				c-0.114-0.143-0.255-0.308-0.422-0.494s-0.294-0.333-0.381-0.442c-0.019-0.023-0.01-0.048,0.024-0.075
				c0.034-0.028,0.061-0.03,0.079-0.007c0.133,0.166,0.248,0.273,0.347,0.321c0.1,0.048,0.192,0.038,0.278-0.031
				c0.086-0.068,0.193-0.234,0.322-0.496l0.804-1.709l-1.659-2.082l-1.258,0.328c-0.231,0.063-0.416,0.148-0.554,0.258
				c-0.201,0.16-0.296,0.353-0.285,0.578c0.012,0.226,0.12,0.468,0.325,0.726c0.023,0.029,0.018,0.057-0.018,0.084
				c-0.034,0.028-0.063,0.027-0.086-0.001c-0.082-0.104-0.195-0.257-0.339-0.461c-0.162-0.227-0.308-0.421-0.436-0.582
				c-0.123-0.155-0.272-0.331-0.448-0.528c-0.158-0.174-0.285-0.322-0.381-0.442c-0.022-0.029-0.018-0.057,0.018-0.084
				c0.034-0.027,0.063-0.026,0.086,0.002c0.128,0.161,0.267,0.271,0.416,0.329c0.15,0.059,0.349,0.075,0.594,0.047
				c0.246-0.027,0.586-0.097,1.021-0.209l5.638-1.468c0.026-0.002,0.056,0.017,0.088,0.057c0.032,0.04,0.042,0.07,0.029,0.089
				l-2.57,5.494c-0.254,0.53-0.402,0.923-0.447,1.179c-0.044,0.256-0.005,0.461,0.118,0.616
				C368.346,56.282,368.34,56.311,368.306,56.338z M367.102,50.167l1.501,1.884l1.216-2.587L367.102,50.167z"/>
			<path d="M369.542,58.479c-0.052-0.097-0.12-0.219-0.204-0.365s-0.183-0.31-0.296-0.49l-0.427-0.655
				c-0.08-0.114-0.187-0.276-0.32-0.487c-0.008-0.013,0.007-0.03,0.044-0.054c0.038-0.023,0.061-0.029,0.068-0.017
				c0.133,0.211,0.245,0.354,0.337,0.431s0.194,0.105,0.308,0.085c0.113-0.019,0.263-0.088,0.449-0.205l4.307-2.718
				c0.187-0.117,0.312-0.221,0.377-0.31s0.084-0.193,0.056-0.314c-0.028-0.121-0.107-0.283-0.236-0.488
				c-0.008-0.013,0.007-0.03,0.044-0.054c0.037-0.024,0.06-0.029,0.067-0.017l0.302,0.499c0.16,0.281,0.291,0.501,0.393,0.663
				c0.156,0.248,0.324,0.493,0.503,0.736c0.208,0.302,0.346,0.506,0.412,0.611c0.399,0.633,0.629,1.272,0.69,1.919
				s-0.037,1.239-0.295,1.779s-0.653,0.978-1.187,1.314c-0.602,0.38-1.222,0.576-1.859,0.588c-0.638,0.012-1.231-0.138-1.78-0.451
				s-1.001-0.751-1.356-1.315C369.815,58.974,369.684,58.745,369.542,58.479z M371.091,59.902c0.414,0.202,0.88,0.271,1.396,0.204
				c0.518-0.066,1.056-0.275,1.613-0.628c0.534-0.336,0.96-0.729,1.279-1.178s0.503-0.914,0.551-1.395
				c0.048-0.481-0.063-0.936-0.333-1.364c-0.165-0.26-0.308-0.452-0.429-0.575s-0.243-0.19-0.368-0.203
				c-0.125-0.012-0.274,0.037-0.448,0.146l-4.186,2.642c-0.255,0.161-0.395,0.34-0.421,0.539s0.079,0.487,0.318,0.866
				C370.334,59.384,370.677,59.699,371.091,59.902z"/>
			<path d="M380.533,65.12c0.116-0.248,0.104-0.517-0.038-0.807c-0.007-0.013,0.01-0.029,0.05-0.049
				c0.039-0.019,0.063-0.022,0.068-0.009l0.212,0.459c0.109,0.257,0.199,0.458,0.27,0.603c0.058,0.119,0.151,0.293,0.28,0.524
				l0.222,0.43c0.007,0.013-0.01,0.029-0.05,0.048c-0.039,0.02-0.063,0.022-0.068,0.009c-0.126-0.257-0.318-0.41-0.579-0.458
				c-0.26-0.048-0.562,0.011-0.904,0.178l-2.769,1.35c-0.475,0.231-0.938,0.333-1.388,0.304c-0.451-0.029-0.861-0.18-1.23-0.453
				c-0.369-0.272-0.672-0.649-0.906-1.13c-0.234-0.481-0.35-0.956-0.345-1.423s0.133-0.891,0.385-1.271
				c0.251-0.379,0.614-0.685,1.089-0.917l3.184-1.552c0.198-0.097,0.333-0.187,0.406-0.271s0.103-0.187,0.089-0.307
				c-0.014-0.12-0.073-0.289-0.179-0.506c-0.01-0.02,0.005-0.04,0.045-0.059c0.039-0.02,0.063-0.019,0.073,0l0.241,0.519
				c0.128,0.296,0.235,0.534,0.322,0.712c0.097,0.198,0.222,0.438,0.376,0.722l0.251,0.49c0.01,0.02-0.005,0.04-0.045,0.059
				c-0.039,0.02-0.063,0.019-0.073,0c-0.106-0.218-0.205-0.37-0.296-0.456c-0.091-0.086-0.193-0.125-0.306-0.114
				c-0.114,0.011-0.27,0.064-0.467,0.16l-2.818,1.374c-0.784,0.382-1.29,0.831-1.517,1.345s-0.196,1.065,0.089,1.651
				c0.273,0.561,0.66,0.915,1.16,1.062c0.501,0.148,1.067,0.067,1.7-0.241l2.778-1.354C380.188,65.576,380.418,65.368,380.533,65.12
				z"/>
			<path d="M378.007,76.23c-0.042,0.015-0.068,0.005-0.081-0.029c-0.048-0.131-0.117-0.343-0.209-0.638s-0.161-0.507-0.209-0.638
				c-0.063-0.172-0.145-0.373-0.243-0.602c-0.1-0.229-0.173-0.41-0.221-0.541c-0.01-0.027,0.006-0.049,0.048-0.063
				c0.041-0.015,0.066-0.009,0.076,0.019c0.073,0.2,0.149,0.338,0.228,0.415c0.079,0.077,0.17,0.096,0.273,0.059
				s0.258-0.16,0.463-0.368l1.306-1.365l-0.912-2.501l-1.297-0.089c-0.239-0.014-0.441,0.009-0.606,0.069
				c-0.241,0.088-0.393,0.24-0.454,0.458c-0.062,0.217-0.035,0.481,0.078,0.791c0.013,0.035-0.002,0.059-0.044,0.074
				c-0.041,0.015-0.067,0.005-0.08-0.029c-0.046-0.124-0.104-0.306-0.176-0.545c-0.081-0.267-0.157-0.497-0.228-0.69
				c-0.067-0.186-0.154-0.4-0.258-0.644c-0.095-0.215-0.168-0.396-0.221-0.54c-0.013-0.035,0.002-0.06,0.044-0.074
				c0.041-0.015,0.067-0.005,0.08,0.029c0.07,0.193,0.167,0.341,0.291,0.444c0.123,0.103,0.306,0.181,0.548,0.234
				c0.241,0.052,0.586,0.094,1.035,0.126l5.812,0.399c0.026,0.006,0.048,0.033,0.065,0.082s0.017,0.08-0.001,0.094l-4.184,4.393
				c-0.408,0.422-0.674,0.747-0.797,0.976c-0.124,0.228-0.152,0.436-0.084,0.622C378.063,76.19,378.048,76.215,378.007,76.23z
				 M378.825,69.996l0.825,2.264l1.975-2.066L378.825,69.996z"/>
			<path d="M383.968,74.926c-0.339-0.211-0.798-0.321-1.376-0.33c-0.014,0.004-0.026-0.014-0.036-0.053
				c-0.011-0.039-0.005-0.062,0.017-0.067c0.284-0.044,0.649-0.104,1.095-0.182c0.446-0.078,0.778-0.146,0.999-0.203
				c0.035-0.009,0.058,0.005,0.068,0.044c0.01,0.039-0.003,0.063-0.038,0.073c-0.156,0.041-0.183,0.259-0.079,0.657
				c0.137,0.616,0.312,1.332,0.523,2.148c0.109,0.418,0.231,0.86,0.367,1.325l0.199,0.721c0.069,0.27,0.139,0.462,0.206,0.577
				c0.068,0.115,0.16,0.176,0.275,0.184c0.03,0,0.05,0.017,0.06,0.053c0.009,0.036-0.001,0.057-0.029,0.064
				c-0.226,0.036-0.564,0.101-1.018,0.196c-0.452,0.095-0.817,0.178-1.094,0.25c-0.021,0.005-0.037-0.011-0.047-0.05
				c-0.011-0.039-0.006-0.065,0.014-0.078c0.528-0.213,0.888-0.484,1.078-0.814c0.191-0.33,0.229-0.719,0.112-1.166
				c-0.052-0.199-0.107-0.342-0.168-0.428s-0.14-0.134-0.236-0.143c-0.097-0.009-0.241,0.011-0.433,0.061l-4.908,1.275
				c-0.221,0.057-0.374,0.12-0.463,0.188c-0.088,0.068-0.134,0.171-0.136,0.308c-0.002,0.137,0.032,0.344,0.104,0.621
				c0.006,0.021-0.013,0.038-0.056,0.049c-0.043,0.011-0.066,0.006-0.072-0.016c-0.064-0.249-0.111-0.444-0.142-0.588l-0.216-0.875
				l-0.227-0.828c-0.046-0.147-0.103-0.353-0.171-0.615c-0.004-0.015,0.016-0.027,0.059-0.038c0.042-0.011,0.065-0.009,0.069,0.005
				c0.071,0.277,0.143,0.476,0.212,0.598s0.162,0.193,0.277,0.212c0.114,0.02,0.278,0.001,0.491-0.054l4.93-1.281
				c0.185-0.048,0.314-0.101,0.391-0.158c0.076-0.058,0.119-0.137,0.131-0.239s-0.008-0.248-0.058-0.44
				C384.532,75.459,384.307,75.137,383.968,74.926z"/>
			<path d="M381.929,87.049c0.004,0.021,0.002,0.042-0.007,0.062c-0.008,0.02-0.016,0.031-0.022,0.032
				c-0.562,0.017-1.07,0.063-1.526,0.137c-0.059,0.009-0.102,0.005-0.131-0.012c-0.028-0.018-0.048-0.059-0.059-0.124l-0.766-4.712
				c-0.004-0.022,0.017-0.036,0.06-0.043c0.044-0.007,0.067,0,0.07,0.022c0.04,0.246,0.087,0.422,0.142,0.528
				s0.138,0.171,0.249,0.194c0.111,0.022,0.275,0.017,0.493-0.019l5.026-0.816c0.218-0.036,0.373-0.082,0.469-0.138
				c0.095-0.056,0.152-0.146,0.174-0.268c0.021-0.123,0.012-0.303-0.027-0.542c-0.003-0.021,0.017-0.036,0.061-0.043
				c0.043-0.007,0.066,0,0.07,0.022l0.733,4.517c0.012,0.072-0.015,0.114-0.08,0.125l-1.408,0.251
				c-0.015,0.002-0.028-0.016-0.042-0.054s-0.01-0.063,0.011-0.074c0.797-0.308,1.128-0.878,0.992-1.71l-0.07-0.434
				c-0.043-0.261-0.12-0.438-0.231-0.531s-0.28-0.122-0.504-0.085l-2.215,0.36l0.169,1.042c0.13,0.796,0.462,1.151,0.998,1.064
				c0.021-0.004,0.035,0.014,0.042,0.054c0.006,0.04-0.001,0.062-0.023,0.065l-0.946,0.143l-0.508,0.094
				c-0.229,0.052-0.417,0.09-0.562,0.114c-0.015,0.002-0.025-0.019-0.032-0.062c-0.007-0.043-0.004-0.066,0.011-0.068
				c0.623-0.101,0.868-0.557,0.736-1.368l-0.167-1.032l-2.465,0.4c-0.239,0.039-0.398,0.111-0.478,0.217
				c-0.079,0.106-0.101,0.274-0.063,0.506l0.086,0.532c0.158,0.97,0.729,1.509,1.712,1.617
				C381.915,87.006,381.924,87.02,381.929,87.049z"/>
		</g>
		<g>
			<path d="M299.828,163.699c-0.012,0.048-0.029,0.068-0.053,0.063c-0.285-0.069-0.588-0.009-0.91,0.18
				c-0.323,0.189-0.615,0.479-0.878,0.866l-3.622,5.321c-0.016,0.03-0.063,0.035-0.143,0.016c-0.079-0.019-0.119-0.046-0.119-0.079
				l-1.457-7.151c-0.073-0.319-0.164-0.565-0.272-0.738s-0.25-0.281-0.423-0.323c-0.024-0.006-0.03-0.032-0.02-0.08
				c0.012-0.047,0.029-0.068,0.054-0.063c0.118,0.029,0.2,0.054,0.246,0.073c0.153,0.054,0.357,0.112,0.61,0.174
				c0.68,0.166,1.259,0.299,1.736,0.398c0.129,0.023,0.288,0.058,0.478,0.104c0.024,0.005,0.03,0.032,0.019,0.079
				c-0.012,0.048-0.029,0.068-0.053,0.063c-0.237-0.058-0.434-0.053-0.588,0.014c-0.154,0.067-0.254,0.191-0.299,0.373
				c-0.032,0.135-0.028,0.308,0.012,0.519l0.984,4.875l2.533-3.69c0.133-0.202,0.219-0.382,0.258-0.54
				c0.06-0.245,0.033-0.457-0.078-0.635s-0.305-0.301-0.582-0.368c-0.023-0.006-0.029-0.032-0.018-0.08
				c0.012-0.047,0.029-0.067,0.053-0.063l0.578,0.154c0.328,0.097,0.622,0.177,0.883,0.24c0.15,0.037,0.338,0.074,0.563,0.112
				l0.49,0.107C299.834,163.625,299.84,163.652,299.828,163.699z"/>
			<path d="M304.594,171.882c-0.129-0.019-0.289-0.04-0.479-0.063c-0.19-0.024-0.402-0.046-0.638-0.064l-0.901-0.063
				c-0.162-0.005-0.382-0.019-0.658-0.041c-0.016-0.002-0.021-0.026-0.018-0.075s0.014-0.072,0.03-0.071
				c0.259,0.021,0.452,0.017,0.577-0.014s0.214-0.103,0.268-0.217c0.055-0.113,0.092-0.292,0.111-0.536l0.463-5.631
				c0.02-0.243,0.012-0.424-0.023-0.541s-0.109-0.202-0.224-0.257c-0.114-0.054-0.297-0.092-0.548-0.112
				c-0.024-0.002-0.035-0.027-0.031-0.076c0.005-0.049,0.02-0.071,0.043-0.069l0.645,0.064c0.371,0.047,0.666,0.079,0.885,0.098
				c0.333,0.027,0.674,0.043,1.025,0.047c0.422,0.019,0.707,0.034,0.854,0.046c0.818,0.067,1.533,0.289,2.143,0.665
				c0.609,0.377,1.066,0.859,1.369,1.447s0.426,1.231,0.368,1.929c-0.064,0.786-0.302,1.467-0.712,2.041s-0.936,1.001-1.574,1.279
				c-0.64,0.277-1.324,0.387-2.054,0.327C305.256,171.973,304.948,171.936,304.594,171.882z M306.822,171.422
				c0.42-0.23,0.762-0.597,1.027-1.098c0.266-0.5,0.428-1.111,0.487-1.833c0.056-0.689,0.003-1.324-0.162-1.905
				s-0.429-1.049-0.791-1.405s-0.8-0.556-1.31-0.598c-0.504-0.041-0.852-0.021-1.047,0.062c-0.193,0.082-0.305,0.281-0.33,0.597
				l-0.449,5.474c-0.026,0.324,0.04,0.561,0.199,0.708s0.482,0.241,0.969,0.281C305.936,171.748,306.404,171.653,306.822,171.422z"
				/>
			<path d="M313.974,166.829c-0.006,0.024-0.03,0.037-0.07,0.035c-0.041-0.001-0.063-0.014-0.064-0.038
				c0.01-0.326,0.016-0.749,0.02-1.268c0.004-0.518-0.003-0.907-0.021-1.167c-0.003-0.04,0.018-0.063,0.063-0.065
				c0.044-0.003,0.068,0.016,0.071,0.057c0.013,0.178,0.25,0.251,0.713,0.218c0.699-0.025,1.516-0.071,2.449-0.138
				c0.479-0.034,0.985-0.078,1.52-0.133l0.827-0.071c0.309-0.022,0.532-0.059,0.671-0.109c0.14-0.051,0.225-0.139,0.257-0.263
				c0.006-0.033,0.031-0.052,0.076-0.055c0.044-0.003,0.067,0.012,0.07,0.044c-0.008,0.245-0.006,0.637,0.004,1.174
				c0.01,0.538,0.026,0.97,0.05,1.294c0.001,0.024-0.019,0.038-0.059,0.041c-0.041,0.003-0.066-0.008-0.076-0.031
				c-0.166-0.616-0.427-1.069-0.781-1.357c-0.355-0.289-0.776-0.416-1.263-0.381c-0.236,0.017-0.389,0.078-0.458,0.186
				c-0.07,0.106-0.095,0.302-0.074,0.586l0.4,5.611c0.018,0.252,0.055,0.433,0.111,0.543c0.058,0.11,0.156,0.181,0.297,0.211
				c0.141,0.031,0.361,0.036,0.661,0.015c0.024-0.002,0.039,0.021,0.042,0.07c0.004,0.049-0.007,0.074-0.031,0.075
				c-0.292,0.021-0.523,0.033-0.694,0.038l-1.012,0.06l-0.984,0.082c-0.17,0.021-0.405,0.041-0.705,0.063
				c-0.024,0.002-0.039-0.021-0.042-0.07c-0.004-0.049,0.007-0.073,0.031-0.075c0.292-0.021,0.508-0.057,0.646-0.107
				c0.14-0.051,0.231-0.137,0.275-0.258c0.044-0.122,0.058-0.305,0.041-0.548l-0.402-5.636c-0.02-0.276-0.069-0.46-0.149-0.552
				c-0.08-0.093-0.234-0.131-0.461-0.114C314.955,164.862,314.306,165.541,313.974,166.829z"/>
			<path d="M327.757,170.271c-0.744-0.182-1.361-0.521-1.854-1.016c-0.491-0.495-0.819-1.095-0.983-1.8
				c-0.176-0.753-0.133-1.473,0.129-2.161c0.261-0.688,0.706-1.277,1.335-1.771c0.628-0.493,1.382-0.843,2.262-1.048
				c0.38-0.089,0.768-0.148,1.161-0.178c0.395-0.029,0.717-0.022,0.97,0.019c0.094,0.012,0.149,0.025,0.166,0.043
				c0.017,0.017,0.042,0.08,0.075,0.188l0.54,1.616c0.006,0.023-0.013,0.045-0.054,0.063c-0.042,0.019-0.07,0.013-0.086-0.018
				c-0.164-0.237-0.396-0.483-0.698-0.739c-0.303-0.255-0.666-0.454-1.092-0.597c-0.427-0.144-0.885-0.157-1.376-0.043
				c-0.507,0.118-0.938,0.365-1.294,0.74c-0.354,0.376-0.594,0.849-0.715,1.42c-0.121,0.572-0.103,1.198,0.057,1.88
				c0.174,0.744,0.47,1.377,0.888,1.897c0.418,0.521,0.914,0.886,1.489,1.094c0.575,0.209,1.175,0.239,1.801,0.094
				c0.325-0.076,0.566-0.17,0.725-0.282c0.157-0.111,0.252-0.279,0.283-0.504c0.03-0.225-0.001-0.539-0.095-0.943
				c-0.097-0.412-0.188-0.693-0.272-0.845c-0.086-0.151-0.212-0.236-0.38-0.256c-0.167-0.02-0.445,0.016-0.833,0.106
				c-0.048,0.011-0.079-0.015-0.094-0.078c-0.006-0.024-0.005-0.047,0.003-0.07c0.007-0.022,0.019-0.035,0.034-0.039
				c0.683-0.117,1.234-0.226,1.654-0.323c0.404-0.094,0.821-0.204,1.251-0.329c0.032-0.008,0.057,0.016,0.073,0.07
				s0.006,0.087-0.034,0.096c-0.145,0.025-0.239,0.074-0.285,0.148c-0.045,0.073-0.055,0.202-0.028,0.389
				c0.026,0.186,0.093,0.504,0.198,0.956c0.083,0.356,0.156,0.606,0.219,0.751c0.063,0.144,0.1,0.235,0.108,0.275
				c0.011,0.048,0.011,0.081-0.002,0.101c-0.012,0.02-0.044,0.044-0.096,0.072c-0.97,0.46-1.863,0.786-2.68,0.977
				C329.325,170.437,328.501,170.453,327.757,170.271z"/>
		</g>
	</g>
</g>
<g id="Layer_2_1_">
</g>
</svg>
