<?xml version="1.0" encoding="utf-8"?>
<!-- Generator: Adobe Illustrator 16.0.3, SVG Export Plug-In . SVG Version: 6.00 Build 0)  -->
<!DOCTYPE svg PUBLIC "-//W3C//DTD SVG 1.1//EN" "http://www.w3.org/Graphics/SVG/1.1/DTD/svg11.dtd">
<svg version="1.1" id="Layer_1" xmlns="http://www.w3.org/2000/svg" xmlns:xlink="http://www.w3.org/1999/xlink" x="0px" y="0px"
	 width="110px" height="110px" viewBox="0 0 110 110" enable-background="new 0 0 110 110" xml:space="preserve">
<g id="virtual">
	<g>
		<path fill="#010101" d="M39.738,95.327l-1.236,1.415l1.584,0.607l0.029-1.887c0-0.084,0.003-0.182,0.008-0.294
			s0.014-0.233,0.027-0.362c-0.077,0.104-0.15,0.201-0.22,0.291C39.861,95.188,39.797,95.264,39.738,95.327z"/>
		<path fill="#010101" d="M55.399,97.973c-0.14-0.164-0.313-0.293-0.518-0.385c-0.206-0.091-0.438-0.14-0.698-0.146
			c-0.26-0.006-0.496,0.031-0.706,0.111c-0.211,0.081-0.391,0.2-0.541,0.358c-0.15,0.157-0.268,0.353-0.352,0.583
			c-0.084,0.229-0.13,0.49-0.137,0.781c-0.007,0.293,0.025,0.556,0.098,0.789c0.072,0.233,0.18,0.434,0.322,0.598
			c0.142,0.165,0.316,0.292,0.522,0.384c0.207,0.091,0.44,0.14,0.7,0.146c0.26,0.008,0.495-0.029,0.704-0.11
			c0.209-0.08,0.388-0.199,0.537-0.356c0.149-0.156,0.266-0.351,0.348-0.58c0.083-0.229,0.129-0.49,0.135-0.783
			c0.008-0.291-0.023-0.555-0.096-0.787C55.646,98.338,55.54,98.139,55.399,97.973z"/>
		<path fill="#010101" d="M68.373,11.817c-0.007-0.084-0.012-0.182-0.016-0.294s-0.004-0.233-0.002-0.363
			c-0.068,0.11-0.135,0.212-0.195,0.307c-0.063,0.094-0.121,0.175-0.176,0.244l-1.121,1.507l1.629,0.481L68.373,11.817z"/>
		<path fill="#010101" d="M29.657,18.885c0.086-0.118,0.142-0.237,0.167-0.356c0.026-0.119,0.023-0.237-0.006-0.354
			c-0.029-0.118-0.083-0.232-0.161-0.342c-0.156-0.22-0.349-0.337-0.578-0.353c-0.229-0.015-0.493,0.083-0.791,0.295l-0.516,0.367
			l1.024,1.44l0.504-0.358C29.452,19.117,29.571,19.003,29.657,18.885z"/>
		<path fill="#010101" d="M45.935,10.849c-0.045-0.071-0.096-0.154-0.153-0.251c-0.057-0.097-0.115-0.203-0.175-0.318
			c-0.007,0.129-0.016,0.25-0.026,0.363c-0.01,0.112-0.022,0.211-0.037,0.297l-0.267,1.859l1.66-0.353L45.935,10.849z"/>
		<path fill="#010101" d="M88.68,26.118c0.125,0.07,0.247,0.11,0.369,0.12c0.122,0.009,0.243-0.01,0.362-0.059
			c0.12-0.048,0.235-0.122,0.348-0.222c0.105-0.095,0.187-0.198,0.244-0.308c0.056-0.11,0.085-0.225,0.086-0.344
			c0.002-0.12-0.026-0.245-0.085-0.374c-0.059-0.129-0.146-0.261-0.27-0.396l-0.495-0.554l-1.425,1.275l0.498,0.554
			C88.434,25.945,88.557,26.047,88.68,26.118z"/>
		<path fill="#010101" d="M16.706,74.878c0.178-0.167,0.311-0.351,0.397-0.55s0.125-0.411,0.116-0.637
			c-0.009-0.224-0.068-0.453-0.177-0.689s-0.246-0.432-0.411-0.585c-0.166-0.153-0.353-0.263-0.561-0.327s-0.434-0.084-0.678-0.059
			s-0.498,0.101-0.763,0.223c-0.266,0.122-0.487,0.268-0.665,0.438c-0.178,0.168-0.309,0.353-0.394,0.553
			c-0.085,0.199-0.123,0.412-0.113,0.638c0.009,0.226,0.068,0.456,0.177,0.692c0.109,0.236,0.246,0.431,0.411,0.583
			c0.165,0.151,0.35,0.261,0.557,0.323c0.207,0.064,0.431,0.084,0.674,0.057c0.243-0.026,0.497-0.102,0.762-0.225
			C16.303,75.191,16.527,75.046,16.706,74.878z"/>
		<path fill="#010101" d="M92.343,76.805l1.209,1.438l0.843-1.474l-1.857-0.316c-0.083-0.014-0.18-0.031-0.29-0.053
			c-0.11-0.022-0.229-0.051-0.354-0.082c0.092,0.092,0.176,0.179,0.254,0.262C92.223,76.661,92.289,76.736,92.343,76.805z"/>
		<path fill="#010101" d="M79.801,90.486l0.49,1.813l1.385-0.979l-1.552-1.071c-0.069-0.047-0.149-0.104-0.24-0.17
			c-0.091-0.067-0.187-0.142-0.286-0.224c0.045,0.121,0.084,0.235,0.119,0.344C79.752,90.307,79.779,90.402,79.801,90.486z"/>
		<path fill="#010101" d="M75.141,92.693c-0.226-0.047-0.5,0.014-0.824,0.182l-0.563,0.29l0.812,1.569l0.549-0.283
			c0.166-0.085,0.301-0.182,0.402-0.286s0.174-0.214,0.215-0.328c0.043-0.114,0.058-0.231,0.045-0.353
			c-0.014-0.121-0.051-0.241-0.112-0.36C75.538,92.884,75.363,92.74,75.141,92.693z"/>
		<path fill="#010101" d="M55,0.063C24.659,0.063,0.063,24.659,0.063,55S24.659,109.938,55,109.938S109.938,85.341,109.938,55
			S85.341,0.063,55,0.063z M100.743,55.622c0,0.763-0.619,1.382-1.382,1.382c-0.764,0-1.383-0.619-1.383-1.382
			c0-0.763,0.619-1.381,1.383-1.381C100.124,54.24,100.743,54.858,100.743,55.622z M93.721,32.244
			c3.178,5.267,5.291,11.243,6.032,17.635h-1.425c-0.729-6.084-2.744-11.776-5.76-16.804C92.979,32.835,93.363,32.557,93.721,32.244
			z M90.307,24.024c0.236,0.265,0.411,0.522,0.522,0.771c0.11,0.249,0.168,0.487,0.169,0.713c0.002,0.226-0.048,0.439-0.148,0.639
			c-0.103,0.199-0.244,0.382-0.431,0.547c-0.19,0.172-0.396,0.298-0.612,0.377c-0.218,0.079-0.441,0.106-0.672,0.082
			s-0.463-0.104-0.697-0.239c-0.236-0.135-0.471-0.331-0.701-0.589l-0.495-0.554l-1.396,1.25l-0.662-0.738l3.965-3.551
			L90.307,24.024z M84.654,18.654L82.6,21.087c-0.131,0.156-0.229,0.314-0.293,0.475c-0.063,0.162-0.094,0.32-0.091,0.476
			c0.005,0.155,0.043,0.306,0.117,0.452c0.074,0.146,0.185,0.281,0.33,0.405s0.298,0.209,0.455,0.258
			c0.155,0.049,0.312,0.063,0.466,0.042s0.305-0.076,0.453-0.167c0.148-0.09,0.288-0.213,0.42-0.368l2.057-2.436l0.758,0.639
			l-2.059,2.436c-0.204,0.242-0.432,0.433-0.684,0.572c-0.25,0.139-0.512,0.222-0.784,0.248c-0.272,0.025-0.547-0.008-0.826-0.1
			c-0.278-0.092-0.548-0.249-0.81-0.469c-0.26-0.22-0.459-0.459-0.598-0.719c-0.138-0.26-0.216-0.525-0.234-0.796
			c-0.021-0.272,0.019-0.543,0.113-0.814c0.096-0.271,0.246-0.527,0.449-0.77l2.057-2.436L84.654,18.654z M81.969,16.632
			l-0.422,0.665l-1.99-1.266l-0.793,1.246l1.568,0.997l-0.409,0.643l-1.567-0.998l-0.809,1.271l1.991,1.266l-0.425,0.667
			l-2.834-1.801l2.855-4.492L81.969,16.632z M73.156,11.833l0.898,0.416l-0.938,2.028l0.21,0.098
			c0.085,0.039,0.159,0.06,0.228,0.062c0.065,0.002,0.131-0.013,0.194-0.045l2.114-1.071c0.088-0.045,0.17-0.068,0.242-0.067
			c0.076,0,0.158,0.022,0.252,0.065l0.775,0.358l-2.556,1.256c-0.08,0.039-0.153,0.069-0.22,0.089
			c-0.067,0.02-0.133,0.032-0.198,0.034c0.062,0.061,0.11,0.129,0.146,0.206c0.036,0.076,0.064,0.165,0.086,0.267l0.631,3.038
			l-0.795-0.368c-0.105-0.049-0.18-0.102-0.218-0.155c-0.038-0.055-0.063-0.119-0.071-0.193l-0.541-2.416
			c-0.019-0.079-0.049-0.144-0.094-0.195c-0.044-0.051-0.115-0.101-0.219-0.148L72.8,14.961l-0.981,2.125L70.92,16.67L73.156,11.833
			z M68.132,10.138l0.972,0.287l0.496,5.698l-0.734-0.217c-0.082-0.024-0.145-0.065-0.186-0.122
			c-0.041-0.057-0.063-0.119-0.068-0.188l-0.073-1.154l-2.115-0.625l-0.688,0.929c-0.034,0.048-0.086,0.087-0.154,0.115
			c-0.068,0.028-0.143,0.03-0.223,0.007l-0.738-0.218L68.132,10.138z M58.166,8.354l0.742,0.091c0.044,0.005,0.08,0.011,0.111,0.018
			s0.061,0.016,0.084,0.029c0.024,0.013,0.047,0.031,0.065,0.056c0.021,0.024,0.036,0.056,0.052,0.095l1.219,3.128
			c0.031,0.083,0.061,0.169,0.084,0.257c0.025,0.088,0.051,0.178,0.074,0.267c0.045-0.083,0.09-0.166,0.137-0.247
			c0.049-0.081,0.098-0.158,0.147-0.23l1.923-2.735c0.024-0.034,0.049-0.061,0.071-0.08c0.022-0.02,0.049-0.033,0.075-0.04
			c0.025-0.006,0.056-0.009,0.088-0.007c0.031,0.002,0.07,0.005,0.113,0.01l0.742,0.091l-0.648,5.284l-0.866-0.106l0.419-3.413
			c0.008-0.063,0.02-0.132,0.031-0.208c0.012-0.076,0.027-0.151,0.045-0.229l-1.965,2.8c-0.045,0.063-0.1,0.111-0.162,0.141
			c-0.063,0.031-0.135,0.042-0.211,0.032L60.4,13.342c-0.077-0.01-0.144-0.037-0.196-0.082c-0.054-0.045-0.095-0.104-0.123-0.176
			l-1.25-3.206c0,0.082-0.003,0.161-0.009,0.238c-0.006,0.077-0.014,0.149-0.021,0.214l-0.419,3.413l-0.866-0.106L58.166,8.354z
			 M51.044,8.537l0.362,4.492l2.125-0.172l0.066,0.815l-3.112,0.251l-0.428-5.306L51.044,8.537z M44.923,9.488l0.99-0.211
			l3.153,4.771l-0.749,0.159c-0.084,0.018-0.158,0.012-0.22-0.019c-0.063-0.031-0.113-0.075-0.15-0.132l-0.615-0.979l-2.157,0.458
			l-0.163,1.146c-0.007,0.059-0.034,0.118-0.081,0.175c-0.046,0.058-0.111,0.095-0.192,0.112l-0.753,0.16L44.923,9.488z
			 M37.813,11.673l1.103,2.987c0.071,0.191,0.161,0.354,0.269,0.489c0.109,0.135,0.232,0.24,0.369,0.313
			c0.138,0.074,0.288,0.114,0.452,0.122s0.335-0.021,0.515-0.088c0.179-0.066,0.329-0.155,0.448-0.268
			c0.119-0.113,0.208-0.24,0.266-0.385c0.058-0.145,0.084-0.303,0.079-0.477c-0.005-0.174-0.043-0.355-0.114-0.547l-1.104-2.991
			l0.929-0.343l1.104,2.991c0.11,0.297,0.164,0.589,0.161,0.876c-0.002,0.288-0.06,0.556-0.172,0.805
			c-0.112,0.25-0.277,0.472-0.494,0.669c-0.218,0.197-0.487,0.354-0.807,0.473c-0.32,0.118-0.627,0.173-0.92,0.165
			c-0.294-0.008-0.563-0.071-0.81-0.188c-0.247-0.117-0.463-0.284-0.652-0.501c-0.189-0.217-0.338-0.474-0.447-0.771l-1.104-2.991
			L37.813,11.673z M34.917,12.909l0.384,0.717l-1.412,0.756l2.128,3.976l-0.873,0.467l-2.128-3.976l-1.418,0.759l-0.384-0.717
			L34.917,12.909z M27.845,17.151c0.296-0.21,0.571-0.36,0.826-0.449c0.255-0.089,0.488-0.126,0.702-0.112
			c0.213,0.014,0.406,0.075,0.577,0.184c0.172,0.108,0.323,0.254,0.454,0.438c0.104,0.146,0.18,0.299,0.229,0.46
			c0.049,0.161,0.071,0.323,0.065,0.486c-0.005,0.164-0.04,0.328-0.102,0.492s-0.152,0.325-0.27,0.481
			c0.143-0.014,0.29,0.006,0.441,0.062l2.225,0.831l-0.727,0.516c-0.069,0.05-0.139,0.078-0.208,0.084
			c-0.069,0.007-0.139-0.003-0.21-0.031l-1.899-0.741c-0.071-0.028-0.135-0.038-0.191-0.031c-0.057,0.007-0.125,0.039-0.205,0.096
			l-0.345,0.245l1.205,1.695l-0.808,0.574l-3.083-4.34L27.845,17.151z M24.45,19.829l3.528,3.986l-0.744,0.659l-3.528-3.986
			L24.45,19.829z M19.137,25.186c0.058-0.063,0.12-0.101,0.188-0.113c0.067-0.012,0.134-0.006,0.201,0.019l3.248,1.25
			c0.106,0.04,0.219,0.088,0.338,0.145c0.119,0.057,0.242,0.12,0.369,0.188c-0.171-0.231-0.309-0.45-0.414-0.657l-1.571-3.104
			c-0.027-0.055-0.039-0.118-0.036-0.191c0.003-0.073,0.033-0.141,0.089-0.202l0.536-0.593l2.506,5.166l-0.601,0.664l-5.39-1.977
			L19.137,25.186z M16.292,33.181c0.382,0.279,0.79,0.52,1.221,0.721c-2.747,4.822-4.587,10.225-5.277,15.978h-1.425
			C11.508,43.864,13.42,38.215,16.292,33.181z M9.751,55.905c0-0.763,0.618-1.381,1.382-1.381c0.762,0,1.381,0.618,1.381,1.381
			c0,0.763-0.619,1.381-1.381,1.381C10.37,57.286,9.751,56.668,9.751,55.905z M12.169,69.895l-0.298,0.494
			c-0.317-0.134-0.588-0.332-0.813-0.595c-0.225-0.265-0.399-0.606-0.522-1.03c-0.11-0.381-0.145-0.74-0.103-1.08
			c0.042-0.341,0.146-0.651,0.315-0.935c0.168-0.281,0.396-0.524,0.684-0.733c0.288-0.207,0.621-0.365,1-0.477
			c0.384-0.111,0.754-0.15,1.111-0.116c0.356,0.035,0.684,0.134,0.981,0.298c0.298,0.164,0.559,0.389,0.78,0.674
			c0.222,0.283,0.39,0.619,0.502,1.008c0.111,0.381,0.146,0.729,0.107,1.05c-0.039,0.319-0.129,0.608-0.271,0.87l-0.534-0.19
			c-0.034-0.01-0.065-0.026-0.095-0.05c-0.03-0.023-0.052-0.063-0.067-0.113c-0.016-0.054-0.011-0.115,0.016-0.185
			c0.025-0.069,0.051-0.154,0.075-0.257c0.024-0.102,0.038-0.225,0.042-0.37c0.003-0.146-0.024-0.32-0.084-0.525
			c-0.07-0.239-0.176-0.448-0.318-0.626c-0.143-0.177-0.313-0.314-0.51-0.416c-0.197-0.099-0.419-0.156-0.666-0.174
			c-0.246-0.018-0.508,0.016-0.787,0.098c-0.288,0.082-0.531,0.197-0.731,0.344c-0.2,0.147-0.357,0.313-0.47,0.496
			c-0.112,0.184-0.182,0.381-0.208,0.594c-0.027,0.212-0.009,0.426,0.054,0.643c0.038,0.13,0.08,0.245,0.124,0.346
			c0.045,0.102,0.095,0.191,0.152,0.271c0.056,0.08,0.12,0.15,0.191,0.217c0.071,0.064,0.153,0.126,0.247,0.184
			c0.028,0.018,0.052,0.037,0.072,0.06c0.021,0.022,0.036,0.049,0.044,0.079C12.205,69.795,12.198,69.845,12.169,69.895z
			 M14.386,76.376c-0.319-0.112-0.61-0.29-0.873-0.534c-0.263-0.244-0.478-0.549-0.646-0.914c-0.169-0.365-0.261-0.728-0.276-1.087
			c-0.016-0.358,0.037-0.696,0.158-1.014c0.122-0.316,0.306-0.604,0.553-0.861c0.248-0.257,0.549-0.468,0.903-0.631
			c0.354-0.164,0.709-0.256,1.066-0.276c0.357-0.021,0.695,0.024,1.015,0.137c0.32,0.113,0.611,0.294,0.874,0.539
			c0.263,0.244,0.479,0.55,0.647,0.914c0.168,0.365,0.26,0.729,0.274,1.086c0.014,0.358-0.04,0.695-0.16,1.012
			c-0.121,0.314-0.305,0.602-0.552,0.859c-0.248,0.256-0.549,0.468-0.903,0.631c-0.355,0.162-0.71,0.256-1.066,0.277
			C15.043,76.533,14.706,76.488,14.386,76.376z M17.413,82.655c-0.044-0.065-0.069-0.128-0.078-0.183
			c-0.008-0.058,0-0.123,0.026-0.199l1.406-4.282c-0.061,0.05-0.123,0.097-0.185,0.144c-0.063,0.047-0.12,0.086-0.173,0.121
			l-2.72,1.813l-0.484-0.726l4.429-2.952l0.288,0.433c0.025,0.036,0.043,0.067,0.057,0.095c0.013,0.025,0.021,0.053,0.025,0.078
			c0.003,0.025,0.002,0.053-0.002,0.083c-0.005,0.03-0.015,0.065-0.028,0.106l-1.413,4.301c0.066-0.057,0.132-0.108,0.199-0.157
			c0.067-0.049,0.129-0.093,0.188-0.132l2.692-1.795l0.484,0.726l-4.429,2.953L17.413,82.655z M23.195,82.864
			c-0.09-0.015-0.178-0.007-0.262,0.021c-0.084,0.028-0.164,0.075-0.237,0.141c-0.094,0.082-0.149,0.179-0.166,0.285
			c-0.017,0.107-0.009,0.225,0.022,0.351c0.032,0.125,0.079,0.259,0.141,0.399c0.062,0.142,0.124,0.287,0.186,0.438
			c0.062,0.149,0.115,0.304,0.159,0.46c0.045,0.156,0.065,0.313,0.061,0.471c-0.004,0.157-0.042,0.313-0.111,0.469
			c-0.069,0.154-0.188,0.305-0.354,0.449c-0.18,0.159-0.377,0.276-0.589,0.354c-0.211,0.075-0.428,0.106-0.65,0.091
			c-0.221-0.018-0.441-0.08-0.659-0.193c-0.218-0.111-0.424-0.277-0.619-0.5c-0.111-0.127-0.209-0.264-0.292-0.408
			c-0.083-0.146-0.152-0.295-0.206-0.449c-0.054-0.153-0.091-0.309-0.114-0.465c-0.022-0.154-0.027-0.307-0.016-0.452l0.546-0.099
			c0.044-0.002,0.087,0.004,0.129,0.017c0.043,0.014,0.08,0.037,0.11,0.073c0.041,0.045,0.065,0.111,0.074,0.199
			c0.009,0.086,0.023,0.187,0.041,0.299s0.051,0.235,0.1,0.367c0.049,0.133,0.134,0.268,0.255,0.405
			c0.186,0.212,0.38,0.332,0.583,0.36c0.203,0.027,0.398-0.041,0.586-0.206c0.105-0.093,0.167-0.193,0.188-0.306
			c0.021-0.111,0.015-0.229-0.016-0.354c-0.031-0.127-0.08-0.259-0.145-0.397c-0.066-0.138-0.13-0.279-0.194-0.427
			s-0.118-0.298-0.164-0.454s-0.065-0.313-0.058-0.474c0.007-0.159,0.049-0.32,0.127-0.481c0.079-0.162,0.209-0.322,0.392-0.482
			c0.146-0.129,0.313-0.225,0.502-0.287s0.387-0.087,0.592-0.068c0.205,0.018,0.411,0.078,0.618,0.186
			c0.207,0.104,0.402,0.263,0.585,0.471c0.207,0.236,0.361,0.486,0.462,0.75c0.101,0.266,0.146,0.523,0.137,0.781L24.43,84.32
			c-0.058,0.016-0.107,0.017-0.147,0.005c-0.04-0.013-0.076-0.037-0.108-0.074c-0.033-0.036-0.055-0.091-0.066-0.161
			c-0.012-0.072-0.028-0.154-0.048-0.248c-0.021-0.093-0.053-0.193-0.098-0.304c-0.045-0.108-0.118-0.222-0.218-0.335
			c-0.091-0.104-0.182-0.182-0.274-0.236C23.379,82.913,23.286,82.878,23.195,82.864z M26.907,90.848
			c-0.254,0.137-0.517,0.213-0.79,0.233c-0.273,0.021-0.547-0.019-0.824-0.116c-0.277-0.097-0.543-0.259-0.8-0.482
			c-0.256-0.227-0.451-0.469-0.584-0.73c-0.133-0.261-0.206-0.527-0.22-0.8c-0.015-0.272,0.029-0.543,0.129-0.813
			c0.1-0.27,0.255-0.522,0.464-0.761l2.103-2.396l0.745,0.652l-2.1,2.395c-0.135,0.152-0.235,0.31-0.302,0.47s-0.1,0.317-0.1,0.474
			c0,0.155,0.037,0.307,0.108,0.454c0.071,0.148,0.179,0.284,0.323,0.411c0.144,0.126,0.293,0.215,0.449,0.268
			c0.155,0.052,0.311,0.067,0.465,0.051c0.154-0.02,0.307-0.071,0.457-0.158c0.15-0.087,0.292-0.207,0.427-0.359l2.102-2.396
			l0.745,0.652l-2.102,2.396C27.392,90.527,27.161,90.713,26.907,90.848z M31.212,94.406l-0.456,0.678l-2.591-1.74l2.969-4.419
			l0.822,0.554l-2.513,3.739L31.212,94.406z M27.936,73.551c-0.958-1.4-1.814-2.885-2.542-4.41c-0.411-0.86-0.781-1.733-1.113-2.615
			l7.404-4.568c0.126-0.083,0.236-0.188,0.331-0.311c0.022-0.028,2.241-2.961,5.178-5.521c1.675-1.46,3.333-2.87,5.182-4.071
			c0.081-0.053,0.159-0.104,0.239-0.156l2.214,1.946l0.602-0.314c0.325-0.17,2.854-1.535,3.914-3.354
			c0.008,1.248-5.261,7.755-7.774,8.593c-0.514,0.172-0.866,0.631-0.898,1.185c-0.011,0.307-0.373,7.571-7.866,14.144l-0.266,0.233
			l1.734,1.976l0.266-0.232c0.661-0.579,1.309-1.196,1.929-1.835l10.61,4.509c-1.329,0.911-3.09,1.188-5.719,1.352
			c-3.369,0.209-6.403-1.763-6.431-1.781l-0.584-0.389l-2.043,0.788C30.678,77.15,29.217,75.425,27.936,73.551z M72.896,44.028
			L59.58,75.357l-18.27-7.764c1.398-2.749,1.715-5.263,1.87-6.494c0.01-0.076,0.019-0.146,0.027-0.213
			c3.263-1.861,9.475-8.618,8.677-11.445c-0.43-1.525-1.706-2.792-3.249-3.227c-0.373-0.104-0.751-0.157-1.127-0.157
			c-0.895,0-1.734,0.291-2.45,0.846l5.295-12.458L72.896,44.028z M51.382,32.027l0.221-0.519c0.177-0.416,0.538-1.28,0.736-1.754
			l20.41,8.674c0.496,0.211,1.588,0.658,2.138,0.883c-0.199,0.483-0.568,1.373-0.74,1.778l-0.222,0.519L51.382,32.027z
			 M58.551,77.777l-0.33,0.777c-0.172,0.403-0.535,1.258-0.736,1.726L38.31,72.161c0.595-0.738,1.153-1.502,1.662-2.278
			L58.551,77.777z M46.548,49.085c0.367-0.341,0.805-0.459,1.268-0.362c-0.005,0.024-0.007,0.047-0.014,0.073
			c-0.244,0.892-1.613,1.973-2.708,2.643l-0.766-0.673C45.231,50.155,45.998,49.596,46.548,49.085z M33.85,96.805l-0.875-0.466
			l2.117-3.981l-1.42-0.754l0.382-0.72l3.709,1.972l-0.382,0.719l-1.414-0.751L33.85,96.805z M40.285,99.578
			c-0.081-0.031-0.139-0.076-0.175-0.137c-0.036-0.06-0.054-0.123-0.055-0.191l0.018-1.156l-2.059-0.789l-0.76,0.871
			c-0.038,0.045-0.093,0.08-0.164,0.104c-0.07,0.022-0.145,0.02-0.223-0.012l-0.718-0.274l3.858-4.222l0.945,0.361L41,99.854
			L40.285,99.578z M47.111,96.753l-1.555-0.386l-1.086,4.377l-0.961-0.238l1.086-4.377l-1.561-0.388l0.196-0.79l4.077,1.012
			L47.111,96.753z M49.079,101.592l-0.984-0.142l0.754-5.271l0.984,0.143L49.079,101.592z M56.607,100.465
			c-0.14,0.329-0.328,0.612-0.569,0.85c-0.242,0.236-0.53,0.42-0.864,0.547c-0.335,0.129-0.704,0.188-1.106,0.178
			c-0.402-0.01-0.768-0.087-1.097-0.23c-0.329-0.145-0.609-0.343-0.84-0.591c-0.23-0.249-0.406-0.541-0.528-0.877
			c-0.122-0.335-0.178-0.698-0.168-1.089c0.01-0.391,0.083-0.749,0.222-1.079c0.138-0.329,0.329-0.612,0.572-0.849
			c0.243-0.237,0.532-0.42,0.868-0.549c0.336-0.127,0.705-0.187,1.107-0.176c0.402,0.01,0.768,0.088,1.096,0.232
			c0.327,0.146,0.606,0.343,0.835,0.59c0.229,0.248,0.405,0.539,0.527,0.875c0.121,0.336,0.178,0.699,0.167,1.089
			C56.82,99.775,56.746,100.136,56.607,100.465z M63.012,101.383c-0.078,0.012-0.145,0.008-0.199-0.011s-0.108-0.056-0.166-0.112
			l-3.215-3.158c0.017,0.078,0.031,0.153,0.047,0.229c0.013,0.076,0.022,0.146,0.031,0.209l0.42,3.242l-0.865,0.112l-0.684-5.279
			l0.516-0.067c0.043-0.005,0.08-0.008,0.109-0.008s0.057,0.004,0.081,0.012c0.024,0.009,0.05,0.021,0.073,0.038
			c0.023,0.02,0.053,0.042,0.084,0.073l3.229,3.171c-0.021-0.083-0.037-0.166-0.053-0.247s-0.025-0.157-0.035-0.228l-0.414-3.209
			l0.863-0.112l0.686,5.278L63.012,101.383z M55,87.809c-2.013,0-3.914-0.104-5.771-0.394c-1.935-0.354-3.831-0.882-5.668-1.575
			c-0.744-0.304-1.478-0.605-2.211-0.93c-1.306-0.604-2.578-1.294-3.803-2.071c-0.553-0.353-1.087-0.72-1.607-1.094
			c1.304,0.514,3.03,0.997,4.913,0.997c0.224,0,0.449-0.008,0.67-0.021c3.712-0.229,6.276-0.771,8.254-2.826l9.091,3.863
			l19.471-45.812l-27.363-11.63l-0.14,0.323c0,0-1.165,2.694-1.652,3.84l-8.23,19.362l-0.013,0.008
			c-1.993,1.297-3.797,2.833-5.475,4.293c-2.773,2.418-4.911,5.096-5.406,5.733l-6.625,4.084c-0.824-2.9-1.24-5.904-1.24-8.981
			c0-18.183,14.793-32.976,32.976-32.976c9.083,0,17.318,3.69,23.288,9.65c5.889,5.961,9.529,14.146,9.529,23.167
			c0,8.029-2.907,15.713-8.202,21.742c0,0-6.367,7.371-15.462,9.9C61.301,87.354,58.166,87.809,55,87.809z M72.253,98.555
			c-0.114,0.117-0.241,0.225-0.383,0.323s-0.298,0.188-0.468,0.272c-0.172,0.086-0.359,0.162-0.565,0.234
			c-0.366,0.129-0.726,0.182-1.079,0.161s-0.681-0.104-0.984-0.253c-0.305-0.148-0.573-0.359-0.811-0.63
			c-0.236-0.271-0.419-0.595-0.549-0.968c-0.132-0.377-0.191-0.744-0.18-1.104c0.015-0.357,0.094-0.689,0.24-0.996
			c0.146-0.306,0.359-0.576,0.639-0.813s0.617-0.427,1.02-0.565c0.41-0.144,0.786-0.206,1.129-0.189
			c0.344,0.019,0.652,0.088,0.93,0.209l-0.123,0.52c-0.023,0.104-0.08,0.172-0.168,0.202c-0.057,0.021-0.119,0.021-0.189,0.004
			c-0.09-0.019-0.182-0.035-0.273-0.053c-0.094-0.017-0.191-0.025-0.297-0.025c-0.104,0.001-0.221,0.011-0.345,0.031
			c-0.125,0.021-0.263,0.056-0.416,0.108c-0.248,0.088-0.458,0.207-0.629,0.359c-0.172,0.153-0.301,0.333-0.39,0.537
			c-0.086,0.205-0.131,0.43-0.131,0.674s0.047,0.501,0.141,0.771c0.102,0.29,0.23,0.532,0.391,0.73
			c0.16,0.197,0.34,0.349,0.54,0.453s0.416,0.162,0.646,0.175c0.23,0.012,0.466-0.023,0.705-0.106
			c0.211-0.073,0.388-0.156,0.531-0.249c0.143-0.094,0.272-0.197,0.391-0.313l-0.318-0.916l-0.629,0.221
			c-0.061,0.021-0.113,0.021-0.16-0.002c-0.047-0.021-0.078-0.057-0.096-0.104l-0.184-0.528l1.672-0.582l0.709,2.033
			C72.473,98.313,72.366,98.438,72.253,98.555z M77.866,96.171c-0.076,0.039-0.149,0.058-0.22,0.056
			c-0.069-0.004-0.137-0.023-0.203-0.063l-1.775-1c-0.066-0.038-0.129-0.059-0.186-0.059c-0.058,0-0.129,0.021-0.217,0.065
			l-0.377,0.194l0.955,1.849l-0.88,0.454l-2.442-4.729l1.441-0.746c0.323-0.166,0.616-0.275,0.881-0.328
			c0.266-0.053,0.502-0.057,0.711-0.012c0.209,0.043,0.391,0.131,0.545,0.263c0.155,0.131,0.285,0.297,0.389,0.498
			c0.082,0.159,0.137,0.321,0.162,0.487c0.026,0.166,0.025,0.33-0.002,0.489c-0.028,0.162-0.086,0.319-0.17,0.474
			c-0.086,0.154-0.197,0.302-0.336,0.438c0.145,0.006,0.287,0.047,0.428,0.123l2.087,1.135L77.866,96.171z M83.641,92.393
			c-0.07,0.051-0.141,0.073-0.211,0.069c-0.068-0.003-0.134-0.022-0.189-0.062l-0.952-0.656l-1.8,1.273l0.304,1.116
			c0.017,0.058,0.015,0.121-0.006,0.193c-0.021,0.071-0.063,0.131-0.132,0.179l-0.629,0.444l-1.368-5.554l0.825-0.584l4.783,3.137
			L83.641,92.393z M87.948,88.329c-0.149,0.321-0.37,0.623-0.661,0.901l-1.471,1.402l-3.676-3.851l1.471-1.403
			c0.289-0.277,0.602-0.482,0.932-0.617c0.33-0.134,0.662-0.197,0.994-0.189c0.332,0.007,0.658,0.083,0.979,0.229
			c0.318,0.146,0.613,0.36,0.883,0.643c0.27,0.283,0.471,0.587,0.602,0.912c0.132,0.326,0.193,0.655,0.186,0.988
			C88.18,87.677,88.1,88.006,87.948,88.329z M92.54,83.177c-0.081,0.282-0.228,0.558-0.437,0.827s-0.439,0.479-0.693,0.626
			c-0.253,0.147-0.516,0.237-0.786,0.269s-0.543,0.004-0.817-0.082c-0.274-0.084-0.537-0.224-0.787-0.418l-2.518-1.955l0.607-0.782
			l2.515,1.954c0.16,0.125,0.323,0.216,0.487,0.273c0.162,0.057,0.322,0.08,0.478,0.07c0.156-0.01,0.306-0.055,0.447-0.135
			c0.144-0.08,0.272-0.195,0.391-0.348c0.118-0.15,0.198-0.306,0.24-0.463c0.042-0.16,0.05-0.314,0.022-0.469
			c-0.028-0.154-0.09-0.302-0.186-0.445c-0.096-0.145-0.225-0.279-0.386-0.404l-2.517-1.956l0.606-0.782l2.519,1.956
			c0.25,0.194,0.448,0.414,0.6,0.66c0.148,0.245,0.242,0.503,0.279,0.772C92.643,82.618,92.621,82.895,92.54,83.177z M96.627,76.915
			c-0.042,0.074-0.096,0.125-0.161,0.151c-0.063,0.025-0.13,0.035-0.196,0.023l-1.142-0.193l-1.096,1.914l0.745,0.885
			c0.039,0.045,0.064,0.104,0.076,0.177c0.013,0.073-0.002,0.146-0.045,0.219l-0.382,0.668L90.846,76.3l0.504-0.879l5.658,0.829
			L96.627,76.915z M98.035,73.878l-4.157-1.745l-0.623,1.483l-0.75-0.315l1.626-3.873l0.75,0.314l-0.619,1.478l4.157,1.745
			L98.035,73.878z M99.686,69.54l-5.125-1.438l0.906-3.232l0.76,0.213l-0.639,2.271l1.421,0.398l0.503-1.79l0.733,0.206l-0.503,1.79
			l1.449,0.407l0.639-2.271l0.762,0.215L99.686,69.54z"/>
		<path fill="#010101" d="M86.666,86.145c-0.202-0.213-0.411-0.375-0.628-0.487c-0.218-0.113-0.435-0.179-0.649-0.194
			c-0.216-0.018-0.428,0.016-0.638,0.098c-0.209,0.08-0.408,0.211-0.597,0.392l-0.748,0.714l2.589,2.711l0.748-0.715
			c0.188-0.18,0.327-0.372,0.418-0.577s0.133-0.416,0.127-0.633c-0.007-0.216-0.062-0.435-0.165-0.657
			C87.02,86.57,86.867,86.354,86.666,86.145z"/>
		
			<rect x="60.474" y="46.215" transform="matrix(0.774 -0.6332 0.6332 0.774 -15.7709 49.9317)" fill="#010101" width="3.167" height="1.684"/>
		
			<rect x="53.864" y="43.547" transform="matrix(-0.1175 -0.9931 0.9931 -0.1175 17.8793 104.6686)" fill="#010101" width="3.167" height="1.686"/>
		
			<rect x="58.16" y="43.578" transform="matrix(-0.9273 -0.3744 0.3744 -0.9273 96.821 109.0508)" fill="#010101" width="1.685" height="3.087"/>
	</g>
</g>
</svg>
