<?xml version="1.0" encoding="utf-8"?>
<!-- Generator: Adobe Illustrator 16.0.3, SVG Export Plug-In . SVG Version: 6.00 Build 0)  -->
<!DOCTYPE svg PUBLIC "-//W3C//DTD SVG 1.1//EN" "http://www.w3.org/Graphics/SVG/1.1/DTD/svg11.dtd">
<svg version="1.1" xmlns="http://www.w3.org/2000/svg" xmlns:xlink="http://www.w3.org/1999/xlink" x="0px" y="0px"
	 width="351.625px" height="56.506px" viewBox="0 0 351.625 56.506" enable-background="new 0 0 351.625 56.506"
	 xml:space="preserve">
<g id="Layer_1">
	<rect fill="#FF0069" width="351.625" height="40.155"/>
	<g>
		<path fill="#FFFFFF" d="M247.631,10.344h11.619v3.479h-7.851v3.188h7.415v3.479h-7.415v3.479h8.285v3.478h-12.054V10.344z"/>
		<path fill="#FFFFFF" d="M262.487,10.344h3.769v13.624h6.98v3.478h-10.749V10.344z"/>
		<path fill="#FFFFFF" d="M274.904,10.344h3.769v17.102h-3.769V10.344z"/>
		<path fill="#FFFFFF" d="M285.05,13.677h-4.879v-3.333h13.526v3.333h-4.879v13.768h-3.769V13.677z"/>
		<path fill="#FFFFFF" d="M295.389,10.344h11.619v3.479h-7.851v3.188h7.415v3.479h-7.415v3.479h8.285v3.478h-12.054V10.344z"/>
	</g>
	<g>
		<path fill="#FFFFFF" d="M16.673,11.111h1.574L25.145,27.5h-1.713l-1.782-4.352h-8.68L11.117,27.5H9.52L16.673,11.111z
			 M17.39,12.778l-3.819,8.981h7.523L17.39,12.778z"/>
		<path fill="#FFFFFF" d="M27.164,11.111h4.722c2.315,0,5.278,0.903,5.278,4.329c0,2.963-2.361,4.283-4.931,4.283h-3.542V27.5
			h-1.528V11.111z M28.691,18.333h3.472c1.736,0,3.472-0.741,3.472-2.894c0-2.106-1.806-2.939-3.564-2.939h-3.38V18.333z"/>
		<path fill="#FFFFFF" d="M40.106,11.111h4.722c2.315,0,5.278,0.903,5.278,4.329c0,2.963-2.361,4.283-4.931,4.283h-3.542V27.5
			h-1.528V11.111z M41.634,18.333h3.472c1.736,0,3.472-0.741,3.472-2.894c0-2.106-1.806-2.939-3.564-2.939h-3.38V18.333z"/>
		<path fill="#FFFFFF" d="M53.05,11.111h1.528v15h7.639V27.5H53.05V11.111z"/>
		<path fill="#FFFFFF" d="M65.345,20.44l-6.018-9.329h1.829l4.954,7.778l5.069-7.778h1.713l-6.019,9.329v7.06h-1.528V20.44z"/>
		<path fill="#FFFFFF" d="M80.326,11.111h4.722c2.315,0,5.278,0.903,5.278,4.329c0,2.963-2.361,4.283-4.931,4.283h-3.542V27.5
			h-1.528V11.111z M81.854,18.333h3.472c1.736,0,3.472-0.741,3.472-2.894c0-2.106-1.806-2.939-3.564-2.939h-3.38V18.333z"/>
		<path fill="#FFFFFF" d="M93.27,11.111h4.306c1.296,0,5.833,0,5.833,4.306c0,3.125-2.384,3.981-4.189,4.213l4.768,7.87h-1.736
			l-4.606-7.777h-2.847V27.5H93.27V11.111z M94.797,18.333h3.241c3.218,0,3.843-1.782,3.843-2.917s-0.625-2.917-3.843-2.917h-3.241
			V18.333z"/>
		<path fill="#FFFFFF" d="M114.06,10.695c5,0,8.472,3.611,8.472,8.611s-3.472,8.611-8.472,8.611c-5,0-8.472-3.611-8.472-8.611
			S109.06,10.695,114.06,10.695z M114.06,26.528c4.283,0,6.944-3.148,6.944-7.222c0-4.074-2.662-7.222-6.944-7.222
			c-4.282,0-6.944,3.148-6.944,7.222C107.116,23.38,109.777,26.528,114.06,26.528z"/>
		<path fill="#FFFFFF" d="M125.455,11.111h2.292l5.972,13.75l5.972-13.75h2.176V27.5h-1.528V13.056h-0.046l-6.25,14.444h-0.671
			l-6.342-14.444h-0.046V27.5h-1.527V11.111z"/>
		<path fill="#FFFFFF" d="M153.261,10.695c5,0,8.472,3.611,8.472,8.611s-3.472,8.611-8.472,8.611c-5,0-8.472-3.611-8.472-8.611
			S148.261,10.695,153.261,10.695z M153.261,26.528c4.283,0,6.944-3.148,6.944-7.222c0-4.074-2.662-7.222-6.944-7.222
			c-4.282,0-6.944,3.148-6.944,7.222C146.317,23.38,148.979,26.528,153.261,26.528z"/>
		<path fill="#FFFFFF" d="M183.985,24.931c-1.551,2.129-3.68,2.986-6.088,2.986c-5,0-8.472-3.611-8.472-8.611
			s3.472-8.611,8.472-8.611c2.222,0,4.213,0.741,5.648,2.569l-1.25,1.042c-1.019-1.527-2.755-2.222-4.398-2.222
			c-4.282,0-6.944,3.148-6.944,7.222c0,4.074,2.662,7.222,6.944,7.222c1.644,0,3.681-0.787,4.838-2.546L183.985,24.931z"/>
		<path fill="#FFFFFF" d="M193.851,10.695c5,0,8.472,3.611,8.472,8.611s-3.472,8.611-8.472,8.611c-5,0-8.472-3.611-8.472-8.611
			S188.851,10.695,193.851,10.695z M193.851,26.528c4.282,0,6.944-3.148,6.944-7.222c0-4.074-2.662-7.222-6.944-7.222
			s-6.944,3.148-6.944,7.222C186.907,23.38,189.568,26.528,193.851,26.528z"/>
		<path fill="#FFFFFF" d="M205.199,11.111h5.068c8.519,0,8.865,6.991,8.865,8.194s-0.347,8.194-8.865,8.194h-5.068V11.111z
			 M206.727,26.111h3.148c4.352,0,7.73-2.106,7.73-6.806c0-4.699-3.379-6.805-7.73-6.805h-3.148V26.111z"/>
		<path fill="#FFFFFF" d="M222.217,11.111h10.023V12.5h-8.495v5.833h7.963v1.389h-7.963v6.389h8.866V27.5h-10.395V11.111z"/>
		<path fill="#FFFFFF" d="M236.365,16.667c0.625,0,1.11,0.486,1.11,1.111s-0.485,1.111-1.11,1.111s-1.111-0.486-1.111-1.111
			S235.74,16.667,236.365,16.667z M236.365,25.417c0.625,0,1.11,0.486,1.11,1.111s-0.485,1.111-1.11,1.111s-1.111-0.486-1.111-1.111
			S235.74,25.417,236.365,25.417z"/>
	</g>
	<g>
		<g>
			<path fill="#FFFFFF" d="M328.614,15.702c-0.222,0-0.457-0.17-0.525-0.382l-2.174-6.684c-0.068-0.212-0.179-0.212-0.247,0
				l-2.171,6.684c-0.068,0.212-0.305,0.382-0.528,0.382h-7.026c-0.223,0-0.258,0.106-0.077,0.235l5.685,4.132
				c0.181,0.13,0.271,0.406,0.202,0.618l-2.173,6.684c-0.069,0.21,0.022,0.277,0.202,0.145l5.685-4.13
				c0.181-0.131,0.471-0.131,0.652,0l5.686,4.132c0.179,0.13,0.269,0.065,0.2-0.147l-2.171-6.684c-0.067-0.212,0.02-0.488,0.2-0.618
				l5.687-4.132c0.179-0.129,0.146-0.235-0.076-0.235H328.614z M328.614,15.702"/>
		</g>
	</g>
</g>
<g id="Layer_5">
	<rect fill="#40D31C" width="351.625" height="40.155"/>
	<g>
		<path fill="#FFFFFF" d="M247.631,10.344h11.619v3.479h-7.851v3.188h7.415v3.479h-7.415v3.479h8.285v3.478h-12.054V10.344z"/>
		<path fill="#FFFFFF" d="M262.487,10.344h3.769v13.624h6.98v3.478h-10.749V10.344z"/>
		<path fill="#FFFFFF" d="M274.904,10.344h3.769v17.102h-3.769V10.344z"/>
		<path fill="#FFFFFF" d="M285.05,13.677h-4.879v-3.333h13.526v3.333h-4.879v13.768h-3.769V13.677z"/>
		<path fill="#FFFFFF" d="M295.389,10.344h11.619v3.479h-7.851v3.188h7.415v3.479h-7.415v3.479h8.285v3.478h-12.054V10.344z"/>
	</g>
	<g>
		<path fill="#FFFFFF" d="M15.592,13.337h4.081c2,0,4.561,0.78,4.561,3.741c0,2.561-2.04,3.701-4.261,3.701h-3.061V27.5h-1.32
			V13.337z M16.913,19.578h3c1.5,0,3.001-0.64,3.001-2.5c0-1.82-1.561-2.541-3.081-2.541h-2.92V19.578z"/>
		<path fill="#FFFFFF" d="M26.772,13.337h3.721c1.12,0,5.041,0,5.041,3.721c0,2.701-2.061,3.441-3.621,3.641l4.121,6.801h-1.5
			l-3.981-6.722h-2.46V27.5h-1.32V13.337z M28.092,19.578h2.801c2.78,0,3.32-1.54,3.32-2.521c0-0.98-0.54-2.521-3.32-2.521h-2.801
			V19.578z"/>
		<path fill="#FFFFFF" d="M44.733,12.977c4.321,0,7.322,3.121,7.322,7.441s-3.001,7.441-7.322,7.441s-7.322-3.121-7.322-7.441
			S40.413,12.977,44.733,12.977z M44.733,26.66c3.701,0,6.001-2.72,6.001-6.241c0-3.521-2.301-6.241-6.001-6.241
			s-6.001,2.721-6.001,6.241C38.732,23.939,41.033,26.66,44.733,26.66z"/>
		<path fill="#FFFFFF" d="M54.572,13.337h1.98l5.161,11.883l5.161-11.883h1.88V27.5h-1.32V15.018h-0.04L61.994,27.5h-0.58
			l-5.481-12.482h-0.04V27.5h-1.32V13.337z"/>
		<path fill="#FFFFFF" d="M78.593,12.977c4.321,0,7.322,3.121,7.322,7.441s-3.001,7.441-7.322,7.441s-7.322-3.121-7.322-7.441
			S74.272,12.977,78.593,12.977z M78.593,26.66c3.701,0,6.001-2.72,6.001-6.241c0-3.521-2.301-6.241-6.001-6.241
			s-6.001,2.721-6.001,6.241C72.592,23.939,74.893,26.66,78.593,26.66z"/>
		<path fill="#FFFFFF" d="M105.134,25.279c-1.34,1.841-3.181,2.581-5.261,2.581c-4.321,0-7.322-3.121-7.322-7.441
			s3.001-7.441,7.322-7.441c1.92,0,3.641,0.64,4.881,2.22l-1.08,0.9c-0.88-1.32-2.38-1.92-3.801-1.92
			c-3.701,0-6.001,2.721-6.001,6.241c0,3.521,2.301,6.241,6.001,6.241c1.42,0,3.181-0.68,4.181-2.2L105.134,25.279z"/>
		<path fill="#FFFFFF" d="M113.653,12.977c4.321,0,7.322,3.121,7.322,7.441s-3.001,7.441-7.322,7.441s-7.322-3.121-7.322-7.441
			S109.332,12.977,113.653,12.977z M113.653,26.66c3.701,0,6.001-2.72,6.001-6.241c0-3.521-2.301-6.241-6.001-6.241
			s-6.001,2.721-6.001,6.241C107.651,23.939,109.952,26.66,113.653,26.66z"/>
		<path fill="#FFFFFF" d="M123.451,13.337h4.381c7.362,0,7.662,6.042,7.662,7.082s-0.3,7.082-7.662,7.082h-4.381V13.337z
			 M124.771,26.3h2.721c3.761,0,6.681-1.82,6.681-5.881s-2.92-5.881-6.681-5.881h-2.721V26.3z"/>
		<path fill="#FFFFFF" d="M138.151,13.337h8.662v1.2h-7.341v5.041h6.881v1.2h-6.881V26.3h7.662v1.2h-8.982V13.337z"/>
		<path fill="#FFFFFF" d="M158.952,13.337h1.36l5.961,14.163h-1.48l-1.541-3.761h-7.501l-1.6,3.761h-1.38L158.952,13.337z
			 M159.572,14.777l-3.301,7.762h6.501L159.572,14.777z"/>
		<path fill="#FFFFFF" d="M168.011,13.337h4.081c2,0,4.561,0.78,4.561,3.741c0,2.561-2.04,3.701-4.261,3.701h-3.061V27.5h-1.32
			V13.337z M169.331,19.578h3c1.5,0,3.001-0.64,3.001-2.5c0-1.82-1.561-2.541-3.081-2.541h-2.92V19.578z"/>
		<path fill="#FFFFFF" d="M179.191,13.337h4.081c2,0,4.561,0.78,4.561,3.741c0,2.561-2.04,3.701-4.261,3.701h-3.061V27.5h-1.32
			V13.337z M180.511,19.578h3c1.5,0,3.001-0.64,3.001-2.5c0-1.82-1.561-2.541-3.081-2.541h-2.92V19.578z"/>
		<path fill="#FFFFFF" d="M190.371,13.337h1.32V26.3h6.602v1.2h-7.922V13.337z"/>
		<path fill="#FFFFFF" d="M200.07,13.337h1.32V27.5h-1.32V13.337z"/>
		<path fill="#FFFFFF" d="M204.971,13.337h8.661v1.2h-7.341v5.041h6.881v1.2h-6.881V26.3h7.661v1.2h-8.981V13.337z"/>
		<path fill="#FFFFFF" d="M216.35,13.337h4.381c7.362,0,7.662,6.042,7.662,7.082s-0.3,7.082-7.662,7.082h-4.381V13.337z
			 M217.67,26.3h2.721c3.762,0,6.682-1.82,6.682-5.881s-2.92-5.881-6.682-5.881h-2.721V26.3z"/>
		<path fill="#FFFFFF" d="M232.119,16.667c0.625,0,1.111,0.486,1.111,1.111s-0.486,1.111-1.111,1.111s-1.111-0.486-1.111-1.111
			S231.494,16.667,232.119,16.667z M232.119,25.417c0.625,0,1.111,0.486,1.111,1.111s-0.486,1.111-1.111,1.111
			s-1.111-0.486-1.111-1.111S231.494,25.417,232.119,25.417z"/>
	</g>
	<g>
		<polygon fill="#FFFFFF" points="333.249,13.039 325.661,22.423 320.207,17.959 318.101,20.533 323.57,25.01 326.144,27.117 
			328.235,24.53 335.835,15.129 		"/>
	</g>
	<g>
	</g>
	<g>
	</g>
	<g>
	</g>
	<g>
	</g>
	<g>
	</g>
	<g>
	</g>
</g>
</svg>
