<?xml version="1.0" encoding="utf-8"?>
<!-- Generator: Adobe Illustrator 16.0.3, SVG Export Plug-In . SVG Version: 6.00 Build 0)  -->
<!DOCTYPE svg PUBLIC "-//W3C//DTD SVG 1.1//EN" "http://www.w3.org/Graphics/SVG/1.1/DTD/svg11.dtd">
<svg version="1.1" id="Layer_1" xmlns="http://www.w3.org/2000/svg" xmlns:xlink="http://www.w3.org/1999/xlink" x="0px" y="0px"
	 width="452.451px" height="130.127px" viewBox="0 0 452.451 130.127" enable-background="new 0 0 452.451 130.127"
	 xml:space="preserve">
<rect x="55.75" fill="#BC0000" width="343.171" height="44.529"/>
<g>
	<path d="M53.542,81.578c0.07,0,0.135,0.018,0.194,0.053c0.058,0.035,0.088,0.064,0.088,0.088c-0.235,1.787-0.353,3.42-0.353,4.901
		c0,0.188-0.035,0.323-0.105,0.405c-0.071,0.083-0.212,0.123-0.423,0.123H37.639c-0.071,0-0.106-0.07-0.106-0.211
		s0.035-0.212,0.106-0.212c0.799,0,1.38-0.058,1.745-0.177c0.364-0.117,0.611-0.346,0.741-0.688c0.129-0.34,0.194-0.863,0.194-1.568
		V67.967c0-0.705-0.065-1.222-0.194-1.551c-0.129-0.329-0.382-0.558-0.758-0.688c-0.376-0.129-0.952-0.194-1.728-0.194
		c-0.071,0-0.106-0.071-0.106-0.211c0-0.141,0.035-0.212,0.106-0.212h14.668c0.235,0,0.353,0.106,0.353,0.317l0.071,4.584
		c0,0.047-0.065,0.083-0.194,0.105c-0.13,0.024-0.206,0-0.229-0.07c-0.564-2.68-2.198-4.02-4.901-4.02h-1.411
		c-0.846,0-1.445,0.153-1.798,0.458c-0.353,0.306-0.529,0.823-0.529,1.551v7.193h3.385c2.585,0,3.878-0.869,3.878-2.609
		c0-0.071,0.064-0.106,0.194-0.106c0.129,0,0.194,0.035,0.194,0.106l-0.035,3.067l0.035,1.657c0.047,0.753,0.071,1.364,0.071,1.833
		c0,0.048-0.071,0.07-0.212,0.07c-0.141,0-0.211-0.022-0.211-0.07c0-2.021-1.317-3.032-3.949-3.032h-3.35v8.004
		c0,0.775,0.146,1.316,0.441,1.621c0.293,0.307,0.816,0.459,1.569,0.459h1.728c3.149,0,5.148-1.527,5.994-4.584
		C53.4,81.602,53.447,81.578,53.542,81.578z"/>
	<path d="M86.086,65.323c0,0.141-0.024,0.211-0.071,0.211c-0.94,0-1.669,0.335-2.186,1.005c-0.517,0.67-0.776,1.628-0.776,2.874
		v18.229c0,0.07-0.059,0.117-0.176,0.141s-0.2,0.012-0.247-0.035L66.094,68.532v14.351c0,1.246,0.247,2.197,0.741,2.855
		s1.21,0.987,2.151,0.987c0.047,0,0.07,0.071,0.07,0.212s-0.023,0.211-0.07,0.211c-0.635,0-1.117-0.012-1.446-0.035l-1.869-0.035
		l-2.081,0.035c-0.376,0.023-0.917,0.035-1.622,0.035c-0.07,0-0.105-0.07-0.105-0.211s0.035-0.212,0.105-0.212
		c1.011,0,1.792-0.329,2.345-0.987c0.552-0.658,0.829-1.609,0.829-2.855V67.438c-0.659-0.705-1.252-1.199-1.781-1.481
		c-0.529-0.282-1.076-0.423-1.64-0.423c-0.047,0-0.07-0.071-0.07-0.211c0-0.141,0.023-0.212,0.07-0.212l1.41,0.036
		c0.306,0.023,0.741,0.035,1.305,0.035l2.257-0.035c0.282-0.023,0.623-0.036,1.022-0.036c0.188,0,0.329,0.047,0.423,0.141
		c0.093,0.094,0.234,0.282,0.423,0.564l0.846,1.128l12.694,14.95V69.413c0-1.246-0.247-2.204-0.741-2.874s-1.199-1.005-2.116-1.005
		c-0.047,0-0.07-0.071-0.07-0.211c0-0.141,0.023-0.212,0.07-0.212l1.446,0.036c0.752,0.047,1.375,0.07,1.869,0.07
		c0.47,0,1.105-0.023,1.904-0.07l1.551-0.036C86.063,65.111,86.086,65.182,86.086,65.323z"/>
	<path d="M116.586,86.938c0,0.141-0.035,0.211-0.106,0.211h-5.677c-0.541,0-1.546-0.939-3.015-2.82
		c-1.469-1.881-3.25-4.514-5.342-7.898c-0.518,0.047-0.917,0.071-1.199,0.071c-0.518,0-1.128-0.023-1.833-0.071v7.863
		c0,0.729,0.064,1.258,0.194,1.586c0.129,0.33,0.375,0.553,0.74,0.67c0.364,0.119,0.946,0.177,1.746,0.177
		c0.047,0,0.07,0.071,0.07,0.212s-0.023,0.211-0.07,0.211c-0.776,0-1.375-0.012-1.798-0.035l-2.609-0.035l-2.539,0.035
		c-0.447,0.023-1.058,0.035-1.833,0.035c-0.071,0-0.106-0.07-0.106-0.211s0.035-0.212,0.106-0.212c0.799,0,1.38-0.058,1.745-0.177
		c0.364-0.117,0.617-0.346,0.758-0.688c0.141-0.34,0.211-0.863,0.211-1.568V67.967c0-0.705-0.065-1.222-0.194-1.551
		c-0.129-0.329-0.382-0.558-0.758-0.688c-0.376-0.129-0.952-0.194-1.728-0.194c-0.047,0-0.07-0.071-0.07-0.211
		c0-0.141,0.023-0.212,0.07-0.212l1.833,0.036c1.034,0.047,1.869,0.07,2.503,0.07c0.776,0,1.622-0.035,2.539-0.106
		c0.305-0.023,0.675-0.047,1.11-0.07c0.435-0.023,0.922-0.035,1.463-0.035c2.045,0,3.625,0.4,4.743,1.199
		c1.116,0.799,1.675,1.916,1.675,3.35c0,1.293-0.359,2.457-1.076,3.491c-0.717,1.035-1.675,1.857-2.874,2.468
		c1.927,2.844,3.538,5.066,4.831,6.665c1.292,1.598,2.438,2.756,3.438,3.473c0.999,0.717,1.98,1.075,2.944,1.075
		C116.551,86.726,116.586,86.797,116.586,86.938z M101.459,75.619c1.528,0,2.621-0.382,3.279-1.146
		c0.658-0.764,0.987-1.992,0.987-3.685c0-1.904-0.324-3.231-0.97-3.984c-0.647-0.752-1.581-1.128-2.803-1.128
		c-0.917,0-1.569,0.17-1.957,0.511s-0.582,0.958-0.582,1.851v7.44C99.979,75.572,100.66,75.619,101.459,75.619z"/>
	<path d="M126.864,86.038c-1.705-1.022-3.021-2.409-3.949-4.161c-0.929-1.75-1.393-3.66-1.393-5.729
		c0-2.421,0.611-4.496,1.833-6.224c1.222-1.728,2.792-3.026,4.708-3.896c1.916-0.87,3.873-1.305,5.871-1.305
		c2.233,0,4.196,0.523,5.889,1.569c1.692,1.046,2.991,2.428,3.896,4.143c0.905,1.716,1.357,3.538,1.357,5.465
		c0,2.14-0.564,4.103-1.692,5.888c-1.128,1.787-2.639,3.197-4.531,4.231c-1.893,1.034-3.944,1.552-6.153,1.552
		C130.513,87.572,128.567,87.061,126.864,86.038z M137.688,85.58c1.116-0.764,1.998-1.887,2.645-3.367
		c0.646-1.481,0.97-3.244,0.97-5.29c0-2.162-0.359-4.102-1.076-5.818c-0.717-1.715-1.74-3.055-3.067-4.02
		c-1.329-0.963-2.886-1.446-4.672-1.446c-2.28,0-4.049,0.817-5.307,2.451c-1.257,1.634-1.886,3.896-1.886,6.788
		c0,2.233,0.37,4.254,1.111,6.065c0.74,1.811,1.763,3.227,3.067,4.248c1.305,1.023,2.78,1.534,4.425,1.534
		C135.308,86.726,136.572,86.344,137.688,85.58z"/>
	<path d="M159.285,84.152c0,0.635,0.053,1.093,0.159,1.375c0.106,0.281,0.312,0.471,0.617,0.564
		c0.305,0.094,0.799,0.141,1.481,0.141h2.116c1.668,0,3.079-0.465,4.231-1.393c1.151-0.929,1.916-2.181,2.292-3.756
		c0.023-0.07,0.094-0.1,0.211-0.088s0.176,0.053,0.176,0.123c-0.211,2.21-0.317,4.043-0.317,5.501c0,0.188-0.035,0.323-0.105,0.405
		c-0.071,0.083-0.212,0.123-0.423,0.123H153.22c-0.047,0-0.071-0.07-0.071-0.211s0.023-0.212,0.071-0.212
		c0.799,0,1.38-0.058,1.745-0.177c0.364-0.117,0.611-0.346,0.741-0.688c0.129-0.34,0.194-0.863,0.194-1.568V67.967
		c0-0.705-0.065-1.222-0.194-1.551c-0.129-0.329-0.382-0.558-0.758-0.688c-0.376-0.129-0.952-0.194-1.728-0.194
		c-0.047,0-0.071-0.071-0.071-0.211c0-0.141,0.023-0.212,0.071-0.212l1.798,0.036c1.034,0.047,1.88,0.07,2.539,0.07
		c0.705,0,1.575-0.023,2.609-0.07l1.763-0.036c0.071,0,0.106,0.071,0.106,0.212c0,0.141-0.035,0.211-0.106,0.211
		c-0.775,0-1.346,0.065-1.71,0.194c-0.365,0.129-0.611,0.365-0.741,0.705c-0.129,0.341-0.194,0.864-0.194,1.569V84.152z"/>
	<path d="M183.649,84.152c0,0.635,0.053,1.093,0.159,1.375c0.106,0.281,0.312,0.471,0.617,0.564
		c0.305,0.094,0.799,0.141,1.481,0.141h2.116c1.668,0,3.079-0.465,4.231-1.393c1.151-0.929,1.916-2.181,2.292-3.756
		c0.023-0.07,0.094-0.1,0.211-0.088s0.176,0.053,0.176,0.123c-0.211,2.21-0.317,4.043-0.317,5.501c0,0.188-0.035,0.323-0.105,0.405
		c-0.071,0.083-0.212,0.123-0.423,0.123h-16.501c-0.047,0-0.071-0.07-0.071-0.211s0.023-0.212,0.071-0.212
		c0.799,0,1.38-0.058,1.745-0.177c0.364-0.117,0.611-0.346,0.741-0.688c0.129-0.34,0.194-0.863,0.194-1.568V67.967
		c0-0.705-0.065-1.222-0.194-1.551c-0.129-0.329-0.382-0.558-0.758-0.688c-0.376-0.129-0.952-0.194-1.728-0.194
		c-0.047,0-0.071-0.071-0.071-0.211c0-0.141,0.023-0.212,0.071-0.212l1.798,0.036c1.034,0.047,1.88,0.07,2.539,0.07
		c0.705,0,1.575-0.023,2.609-0.07l1.763-0.036c0.071,0,0.106,0.071,0.106,0.212c0,0.141-0.035,0.211-0.106,0.211
		c-0.775,0-1.346,0.065-1.71,0.194c-0.365,0.129-0.611,0.365-0.741,0.705c-0.129,0.341-0.194,0.864-0.194,1.569V84.152z"/>
	<path d="M218.256,67.174c-0.929,0.881-1.639,2.216-2.133,4.002c0,0.047-0.065,0.07-0.194,0.07c-0.129,0-0.194-0.035-0.194-0.105
		c0.094-0.917,0.2-2.098,0.317-3.544c0.118-1.445,0.176-2.533,0.176-3.261c0-0.118,0.064-0.176,0.194-0.176
		c0.129,0,0.194,0.059,0.194,0.176c0,0.517,0.658,0.775,1.974,0.775c2.021,0.071,4.384,0.106,7.088,0.106
		c1.387,0,2.855-0.023,4.406-0.07l2.398-0.036c0.893,0,1.545-0.058,1.957-0.176c0.41-0.117,0.676-0.353,0.793-0.705
		c0.023-0.094,0.094-0.141,0.211-0.141c0.119,0,0.178,0.047,0.178,0.141c-0.07,0.729-0.141,1.833-0.213,3.314
		c-0.07,1.481-0.105,2.68-0.105,3.597c0,0.07-0.064,0.105-0.193,0.105s-0.207-0.035-0.229-0.105
		c-0.236-1.81-0.789-3.144-1.658-4.002s-2.045-1.287-3.525-1.287c-0.658,0-1.146,0.059-1.463,0.176
		c-0.318,0.118-0.529,0.323-0.635,0.617s-0.16,0.758-0.16,1.393v16.255c0,0.729,0.072,1.258,0.213,1.586
		c0.141,0.33,0.422,0.553,0.846,0.67c0.424,0.119,1.094,0.177,2.01,0.177c0.07,0,0.105,0.071,0.105,0.212s-0.035,0.211-0.105,0.211
		c-0.822,0-1.469-0.012-1.939-0.035l-2.891-0.035l-2.75,0.035c-0.494,0.023-1.176,0.035-2.045,0.035c-0.047,0-0.07-0.07-0.07-0.211
		s0.023-0.212,0.07-0.212c0.917,0,1.592-0.058,2.027-0.177c0.435-0.117,0.729-0.346,0.882-0.688c0.152-0.34,0.229-0.863,0.229-1.568
		V67.967c0-0.611-0.059-1.058-0.176-1.34c-0.117-0.282-0.33-0.481-0.635-0.599c-0.306-0.118-0.775-0.176-1.41-0.176
		C220.366,65.852,219.185,66.292,218.256,67.174z"/>
	<path d="M248.721,86.038c-1.704-1.022-3.021-2.409-3.949-4.161c-0.929-1.75-1.393-3.66-1.393-5.729
		c0-2.421,0.611-4.496,1.834-6.224c1.222-1.728,2.791-3.026,4.707-3.896c1.915-0.87,3.872-1.305,5.871-1.305
		c2.232,0,4.195,0.523,5.888,1.569c1.692,1.046,2.991,2.428,3.896,4.143c0.904,1.716,1.357,3.538,1.357,5.465
		c0,2.14-0.564,4.103-1.692,5.888c-1.128,1.787-2.639,3.197-4.531,4.231s-3.943,1.552-6.152,1.552
		C252.37,87.572,250.425,87.061,248.721,86.038z M259.546,85.58c1.116-0.764,1.998-1.887,2.645-3.367
		c0.646-1.481,0.97-3.244,0.97-5.29c0-2.162-0.359-4.102-1.075-5.818c-0.718-1.715-1.74-3.055-3.068-4.02
		c-1.328-0.963-2.886-1.446-4.672-1.446c-2.28,0-4.049,0.817-5.307,2.451c-1.258,1.634-1.886,3.896-1.886,6.788
		c0,2.233,0.37,4.254,1.11,6.065s1.763,3.227,3.067,4.248c1.305,1.023,2.779,1.534,4.425,1.534
		C257.166,86.726,258.429,86.344,259.546,85.58z"/>
	<path d="M282.623,87.184c-0.353-0.023-0.799-0.047-1.34-0.07s-1.152-0.035-1.833-0.035l-2.504,0.035
		c-0.447,0.023-1.07,0.035-1.869,0.035c-0.047,0-0.07-0.07-0.07-0.211s0.023-0.212,0.07-0.212c0.799,0,1.381-0.058,1.746-0.177
		c0.364-0.117,0.617-0.346,0.758-0.688c0.141-0.34,0.212-0.863,0.212-1.568V67.967c0-0.705-0.065-1.222-0.194-1.551
		c-0.13-0.329-0.383-0.558-0.758-0.688c-0.377-0.129-0.952-0.194-1.728-0.194c-0.048,0-0.071-0.071-0.071-0.211
		c0-0.141,0.023-0.212,0.071-0.212l1.868,0.036c1.034,0.047,1.856,0.07,2.469,0.07c0.939,0,1.892-0.035,2.855-0.106
		c1.176-0.047,1.963-0.07,2.362-0.07c2.397,0,4.525,0.47,6.382,1.41c1.857,0.94,3.297,2.222,4.319,3.844
		c1.023,1.622,1.534,3.444,1.534,5.465c0,2.281-0.528,4.297-1.587,6.047c-1.058,1.752-2.48,3.104-4.267,4.055
		c-1.786,0.953-3.749,1.428-5.888,1.428C284.433,87.289,283.587,87.254,282.623,87.184z M289.129,85.422
		c1.257-0.776,2.238-1.922,2.944-3.438c0.705-1.517,1.058-3.332,1.058-5.448c0-2.021-0.335-3.849-1.005-5.483
		c-0.67-1.633-1.617-2.927-2.839-3.878c-1.223-0.952-2.645-1.428-4.267-1.428c-0.987,0-1.751,0.059-2.292,0.176
		c-0.541,0.118-0.934,0.335-1.181,0.652s-0.37,0.806-0.37,1.463v15.866c0,0.965,0.247,1.652,0.74,2.063s1.457,0.617,2.892,0.617
		C286.432,86.585,287.871,86.197,289.129,85.422z"/>
	<path d="M328.743,86.938c0,0.141-0.059,0.211-0.177,0.211c-0.446,0-1.163-0.022-2.15-0.07c-0.987-0.047-1.704-0.07-2.15-0.07
		c-0.588,0-1.282,0.023-2.081,0.07c-0.799,0.048-1.422,0.07-1.868,0.07c-0.095,0-0.142-0.07-0.142-0.211s0.047-0.212,0.142-0.212
		c0.682,0,1.181-0.075,1.498-0.229c0.317-0.152,0.477-0.404,0.477-0.758c0-0.353-0.2-0.951-0.6-1.798l-2.68-5.431h-8.533
		l-1.692,3.809c-0.306,0.705-0.458,1.34-0.458,1.904c0,0.822,0.293,1.445,0.881,1.869c0.588,0.422,1.41,0.634,2.469,0.634
		c0.117,0,0.176,0.071,0.176,0.212s-0.059,0.211-0.176,0.211c-0.424,0-1.035-0.022-1.834-0.07c-0.894-0.047-1.669-0.07-2.327-0.07
		c-0.635,0-1.375,0.023-2.222,0.07c-0.752,0.048-1.375,0.07-1.868,0.07c-0.117,0-0.177-0.07-0.177-0.211s0.06-0.212,0.177-0.212
		c0.657,0,1.21-0.129,1.657-0.388c0.446-0.258,0.881-0.723,1.305-1.393c0.423-0.67,0.928-1.663,1.516-2.979l7.581-17.066
		c0.047-0.07,0.152-0.106,0.317-0.106c0.164,0,0.259,0.036,0.282,0.106l8.639,17.418c0.822,1.692,1.51,2.851,2.063,3.473
		c0.552,0.623,1.146,0.935,1.78,0.935C328.685,86.726,328.743,86.797,328.743,86.938z M310.866,77.629h7.722l-4.055-8.216
		L310.866,77.629z"/>
	<path d="M353.848,65.323c0,0.141-0.023,0.211-0.07,0.211c-0.775,0-1.657,0.405-2.645,1.216s-1.869,1.851-2.645,3.121l-4.02,6.523
		v7.898c0,0.729,0.064,1.258,0.193,1.586c0.129,0.33,0.376,0.553,0.741,0.67c0.364,0.119,0.945,0.177,1.745,0.177
		c0.07,0,0.105,0.071,0.105,0.212s-0.035,0.211-0.105,0.211c-0.775,0-1.375-0.012-1.798-0.035l-2.574-0.035l-2.539,0.035
		c-0.471,0.023-1.093,0.035-1.868,0.035c-0.048,0-0.071-0.07-0.071-0.211s0.023-0.212,0.071-0.212c0.799,0,1.38-0.058,1.745-0.177
		c0.364-0.117,0.617-0.346,0.758-0.688c0.141-0.34,0.212-0.863,0.212-1.568v-7.264l-5.359-8.18c-0.8-1.246-1.487-2.11-2.063-2.592
		c-0.576-0.481-1.134-0.723-1.675-0.723c-0.07,0-0.105-0.071-0.105-0.211c0-0.141,0.035-0.212,0.105-0.212l1.164,0.036
		c0.517,0.047,0.893,0.07,1.128,0.07c0.799,0,1.928-0.023,3.385-0.07l2.187-0.036c0.047,0,0.07,0.071,0.07,0.212
		c0,0.141-0.023,0.211-0.07,0.211c-0.964,0-1.445,0.33-1.445,0.987c0,0.33,0.141,0.705,0.423,1.128l5.112,7.863l3.597-5.889
		c0.588-0.963,0.882-1.81,0.882-2.539c0-1.034-0.647-1.551-1.939-1.551c-0.048,0-0.07-0.071-0.07-0.211
		c0-0.141,0.022-0.212,0.07-0.212l1.833,0.036c0.987,0.047,1.893,0.07,2.716,0.07c0.399,0,0.881-0.023,1.445-0.07l1.305-0.036
		C353.824,65.111,353.848,65.182,353.848,65.323z"/>
	<path d="M397.799,86.955c-0.012,0.129-0.053,0.193-0.123,0.193h-5.147c-0.729,0-2.011-0.657-3.844-1.975
		c-1.787,1.6-4.079,2.398-6.876,2.398c-1.575,0-2.891-0.242-3.949-0.723c-1.058-0.482-1.846-1.111-2.362-1.887
		c-0.518-0.775-0.775-1.609-0.775-2.504c0-1.222,0.399-2.291,1.199-3.209c0.799-0.916,1.974-1.95,3.525-3.102
		c-0.329-0.517-0.682-1.105-1.058-1.763c-0.329-0.682-0.582-1.322-0.758-1.921c-0.177-0.6-0.265-1.228-0.265-1.887
		c0-1.175,0.265-2.233,0.793-3.173c0.529-0.94,1.281-1.68,2.257-2.221c0.976-0.541,2.109-0.811,3.402-0.811
		c1.363,0,2.463,0.3,3.297,0.899c0.834,0.6,1.252,1.476,1.252,2.627c0,0.94-0.265,1.793-0.793,2.556
		c-0.529,0.764-1.146,1.411-1.852,1.939s-1.763,1.264-3.174,2.204c1.716,2.609,4.149,5.148,7.299,7.617
		c0.376-1.081,0.564-2.244,0.564-3.491c0-1.198-0.206-2.074-0.617-2.627c-0.411-0.552-1.122-0.829-2.133-0.829
		c-0.048,0-0.077-0.07-0.088-0.211c-0.013-0.141,0.018-0.211,0.088-0.211l8.074-0.035c0.07,0,0.105,0.07,0.105,0.211
		s-0.035,0.211-0.105,0.211c-0.729,0-1.281,0.077-1.657,0.229s-0.646,0.388-0.811,0.705c-0.165,0.317-0.341,0.829-0.529,1.534
		c-0.611,2.139-1.316,3.844-2.115,5.113c1.504,1.104,2.873,1.992,4.107,2.662s2.216,1.087,2.944,1.251
		C397.77,86.75,397.811,86.826,397.799,86.955z M388.12,84.716c-0.471-0.353-0.881-0.67-1.233-0.952
		c-1.294-1.033-2.563-2.168-3.809-3.402s-2.327-2.462-3.244-3.685c-1.34,1.223-2.01,2.563-2.01,4.02c0,0.94,0.259,1.821,0.776,2.645
		c0.517,0.823,1.257,1.481,2.221,1.975s2.068,0.74,3.314,0.74C385.711,86.056,387.039,85.609,388.12,84.716z M382.196,73.997
		c0.94-0.823,1.669-1.669,2.187-2.539c0.517-0.87,0.775-1.834,0.775-2.892c0-1.034-0.253-1.845-0.758-2.433
		c-0.506-0.587-1.17-0.881-1.992-0.881c-1.434,0-2.15,0.94-2.15,2.821C380.258,69.884,380.903,71.858,382.196,73.997z"/>
	<path d="M21.191,98.816c0.188,0.094,0.305,0.184,0.353,0.266c0.047,0.082,0.094,0.264,0.141,0.545l0.423,4.654
		c0,0.07-0.059,0.119-0.176,0.143c-0.118,0.023-0.2-0.012-0.247-0.107c-0.612-1.926-1.522-3.396-2.733-4.406
		c-1.211-1.012-2.709-1.518-4.496-1.518c-1.716,0-3.25,0.43-4.602,1.287c-1.352,0.859-2.404,2.094-3.156,3.703
		c-0.752,1.611-1.128,3.484-1.128,5.623c0,2.117,0.399,4.004,1.199,5.66c0.799,1.656,1.892,2.943,3.279,3.861
		c1.386,0.916,2.95,1.375,4.689,1.375c1.715,0,3.144-0.453,4.284-1.357c1.14-0.904,2.145-2.346,3.015-4.32
		c0.023-0.07,0.094-0.094,0.211-0.07c0.117,0.023,0.176,0.059,0.176,0.105l-0.458,4.232c-0.023,0.281-0.065,0.457-0.123,0.529
		c-0.059,0.07-0.183,0.152-0.371,0.246c-2.115,0.869-4.36,1.305-6.734,1.305c-2.516,0-4.76-0.477-6.735-1.428
		c-1.975-0.953-3.514-2.293-4.619-4.02c-1.105-1.729-1.657-3.709-1.657-5.941c0-2.209,0.576-4.184,1.728-5.924
		c1.151-1.74,2.727-3.098,4.725-4.072c1.998-0.977,4.231-1.465,6.7-1.465C17.489,97.723,19.592,98.088,21.191,98.816z"/>
	<path d="M55.182,119.938c0,0.141-0.035,0.211-0.105,0.211c-0.799,0-1.446-0.012-1.939-0.035l-2.574-0.035l-2.997,0.035
		c-0.423,0.023-0.987,0.035-1.693,0.035c-0.07,0-0.105-0.07-0.105-0.211s0.035-0.211,0.105-0.211c0.893,0,1.54-0.059,1.939-0.178
		c0.399-0.117,0.67-0.34,0.811-0.67c0.141-0.328,0.211-0.857,0.211-1.586v-8.145H36.741v8.145c0,0.705,0.071,1.229,0.212,1.568
		c0.141,0.342,0.417,0.57,0.829,0.688c0.411,0.119,1.063,0.178,1.957,0.178c0.047,0,0.071,0.07,0.071,0.211
		s-0.024,0.211-0.071,0.211c-0.799,0-1.422-0.012-1.869-0.035l-2.926-0.035l-2.574,0.035c-0.447,0.023-1.07,0.035-1.869,0.035
		c-0.047,0-0.071-0.07-0.071-0.211s0.023-0.211,0.071-0.211c0.846,0,1.469-0.059,1.869-0.178c0.399-0.117,0.67-0.346,0.811-0.688
		c0.141-0.34,0.211-0.863,0.211-1.568v-16.326c0-0.705-0.07-1.221-0.211-1.551c-0.141-0.328-0.412-0.559-0.811-0.688
		c-0.4-0.129-1.011-0.193-1.833-0.193c-0.047,0-0.07-0.07-0.07-0.213c0-0.141,0.023-0.211,0.07-0.211l1.869,0.035
		c1.081,0.047,1.927,0.07,2.539,0.07c0.822,0,1.798-0.023,2.926-0.07l1.869-0.035c0.047,0,0.071,0.07,0.071,0.211
		c0,0.143-0.024,0.213-0.071,0.213c-0.87,0-1.51,0.07-1.921,0.211c-0.412,0.141-0.694,0.383-0.846,0.723
		c-0.153,0.342-0.229,0.863-0.229,1.568v7.193h12.094v-7.193c0-0.705-0.07-1.227-0.211-1.568c-0.141-0.34-0.417-0.582-0.829-0.723
		c-0.412-0.141-1.052-0.211-1.922-0.211c-0.07,0-0.105-0.07-0.105-0.213c0-0.141,0.035-0.211,0.105-0.211l1.693,0.035
		c1.128,0.047,2.127,0.07,2.997,0.07c0.634,0,1.492-0.023,2.574-0.07l1.939-0.035c0.07,0,0.105,0.07,0.105,0.211
		c0,0.143-0.035,0.213-0.105,0.213c-0.846,0-1.463,0.064-1.851,0.193c-0.388,0.129-0.652,0.359-0.793,0.688
		c-0.141,0.33-0.211,0.846-0.211,1.551v16.326c0,0.705,0.07,1.229,0.211,1.568c0.141,0.342,0.405,0.57,0.793,0.688
		c0.388,0.119,1.005,0.178,1.851,0.178C55.146,119.727,55.182,119.797,55.182,119.938z"/>
	<path d="M68.598,119.039c-1.705-1.023-3.021-2.41-3.949-4.162c-0.929-1.75-1.393-3.66-1.393-5.729c0-2.422,0.611-4.496,1.833-6.225
		c1.222-1.727,2.792-3.025,4.708-3.896c1.916-0.869,3.873-1.305,5.871-1.305c2.233,0,4.196,0.523,5.889,1.57
		c1.692,1.047,2.991,2.428,3.896,4.143c0.905,1.717,1.357,3.539,1.357,5.465c0,2.141-0.564,4.104-1.692,5.889
		c-1.128,1.787-2.639,3.197-4.531,4.232c-1.893,1.033-3.944,1.551-6.153,1.551C72.248,120.572,70.302,120.061,68.598,119.039z
		 M79.423,118.58c1.116-0.764,1.998-1.887,2.645-3.367c0.646-1.48,0.97-3.244,0.97-5.289c0-2.162-0.359-4.102-1.076-5.818
		c-0.717-1.715-1.74-3.055-3.067-4.02c-1.329-0.963-2.886-1.445-4.672-1.445c-2.28,0-4.049,0.816-5.307,2.451
		c-1.257,1.633-1.886,3.895-1.886,6.787c0,2.232,0.37,4.254,1.111,6.064c0.74,1.811,1.763,3.227,3.067,4.248
		c1.305,1.023,2.78,1.535,4.425,1.535C77.042,119.727,78.306,119.344,79.423,118.58z"/>
	<path d="M100.896,119.039c-1.705-1.023-3.021-2.41-3.949-4.162c-0.929-1.75-1.393-3.66-1.393-5.729
		c0-2.422,0.611-4.496,1.833-6.225c1.222-1.727,2.792-3.025,4.708-3.896c1.916-0.869,3.873-1.305,5.871-1.305
		c2.233,0,4.196,0.523,5.889,1.57c1.692,1.047,2.991,2.428,3.896,4.143c0.905,1.717,1.357,3.539,1.357,5.465
		c0,2.141-0.564,4.104-1.692,5.889c-1.128,1.787-2.639,3.197-4.531,4.232c-1.893,1.033-3.944,1.551-6.153,1.551
		C104.545,120.572,102.6,120.061,100.896,119.039z M111.721,118.58c1.116-0.764,1.998-1.887,2.645-3.367
		c0.646-1.48,0.97-3.244,0.97-5.289c0-2.162-0.359-4.102-1.076-5.818c-0.717-1.715-1.74-3.055-3.067-4.02
		c-1.329-0.963-2.886-1.445-4.672-1.445c-2.28,0-4.049,0.816-5.307,2.451c-1.257,1.633-1.886,3.895-1.886,6.787
		c0,2.232,0.37,4.254,1.111,6.064c0.74,1.811,1.763,3.227,3.067,4.248c1.305,1.023,2.78,1.535,4.425,1.535
		C109.34,119.727,110.604,119.344,111.721,118.58z"/>
	<path d="M132.559,104.158c0.435,0.67,0.975,1.252,1.622,1.746c0.646,0.494,1.521,1.082,2.626,1.762
		c1.199,0.754,2.145,1.4,2.838,1.939c0.693,0.541,1.281,1.205,1.763,1.992c0.481,0.789,0.723,1.711,0.723,2.77
		c0,1.197-0.312,2.268-0.934,3.207c-0.623,0.941-1.505,1.676-2.645,2.205c-1.141,0.527-2.439,0.793-3.896,0.793
		c-0.987,0-2.004-0.129-3.05-0.389c-1.046-0.258-1.839-0.574-2.38-0.951c-0.212-0.141-0.33-0.365-0.353-0.67l-0.212-5.359v-0.035
		c0-0.094,0.059-0.146,0.176-0.158s0.188,0.029,0.212,0.123c0.775,1.951,1.663,3.549,2.662,4.795
		c0.999,1.246,2.274,1.869,3.826,1.869c1.01,0,1.856-0.277,2.539-0.83c0.682-0.551,1.022-1.475,1.022-2.768
		c0-1.033-0.229-1.939-0.688-2.715s-1.022-1.422-1.692-1.939c-0.67-0.516-1.581-1.15-2.733-1.904
		c-1.128-0.727-2.01-1.344-2.645-1.85c-0.634-0.506-1.175-1.129-1.622-1.869c-0.447-0.74-0.67-1.605-0.67-2.592
		c0-1.223,0.34-2.256,1.022-3.104c0.682-0.846,1.569-1.475,2.662-1.887c1.093-0.41,2.239-0.617,3.438-0.617
		c0.799,0,1.598,0.078,2.397,0.23c0.799,0.152,1.469,0.348,2.01,0.582c0.353,0.141,0.529,0.363,0.529,0.67l0.106,4.795
		c0,0.07-0.065,0.117-0.194,0.141c-0.129,0.023-0.206,0-0.229-0.07c-0.47-1.434-1.099-2.732-1.886-3.896
		c-0.788-1.164-1.969-1.744-3.543-1.744c-1.058,0-1.899,0.305-2.521,0.916c-0.623,0.611-0.934,1.445-0.934,2.504
		C131.907,102.719,132.124,103.488,132.559,104.158z"/>
	<path d="M166.672,114.578c0.07,0,0.135,0.018,0.194,0.053c0.058,0.035,0.088,0.064,0.088,0.088c-0.235,1.787-0.353,3.42-0.353,4.9
		c0,0.189-0.035,0.324-0.105,0.406c-0.071,0.082-0.212,0.123-0.423,0.123H150.77c-0.071,0-0.106-0.07-0.106-0.211
		s0.035-0.211,0.106-0.211c0.799,0,1.38-0.059,1.745-0.178c0.364-0.117,0.611-0.346,0.741-0.688c0.129-0.34,0.194-0.863,0.194-1.568
		v-16.326c0-0.705-0.065-1.221-0.194-1.551c-0.129-0.328-0.382-0.559-0.758-0.688s-0.952-0.193-1.728-0.193
		c-0.071,0-0.106-0.07-0.106-0.213c0-0.141,0.035-0.211,0.106-0.211h14.668c0.235,0,0.353,0.105,0.353,0.318l0.071,4.582
		c0,0.049-0.065,0.084-0.194,0.107c-0.13,0.023-0.206,0-0.229-0.07c-0.564-2.682-2.198-4.021-4.901-4.021h-1.411
		c-0.846,0-1.445,0.154-1.798,0.459c-0.353,0.307-0.529,0.824-0.529,1.551v7.193h3.385c2.585,0,3.878-0.869,3.878-2.609
		c0-0.07,0.064-0.105,0.194-0.105c0.129,0,0.194,0.035,0.194,0.105l-0.035,3.068l0.035,1.656c0.047,0.754,0.071,1.365,0.071,1.834
		c0,0.049-0.071,0.07-0.212,0.07c-0.141,0-0.211-0.021-0.211-0.07c0-2.021-1.317-3.031-3.949-3.031h-3.35v8.004
		c0,0.775,0.146,1.316,0.441,1.621c0.293,0.307,0.816,0.459,1.569,0.459h1.728c3.149,0,5.148-1.527,5.994-4.584
		C166.531,114.602,166.578,114.578,166.672,114.578z"/>
	<path d="M209.372,98.322c0,0.143-0.023,0.213-0.07,0.213c-0.776,0-1.657,0.404-2.645,1.217c-0.987,0.811-1.869,1.85-2.645,3.119
		l-4.02,6.523v7.898c0,0.729,0.064,1.258,0.194,1.586c0.129,0.33,0.375,0.553,0.74,0.67c0.364,0.119,0.946,0.178,1.746,0.178
		c0.07,0,0.106,0.07,0.106,0.211s-0.036,0.211-0.106,0.211c-0.776,0-1.375-0.012-1.798-0.035l-2.574-0.035l-2.539,0.035
		c-0.47,0.023-1.093,0.035-1.869,0.035c-0.047,0-0.07-0.07-0.07-0.211s0.023-0.211,0.07-0.211c0.799,0,1.381-0.059,1.746-0.178
		c0.364-0.117,0.617-0.346,0.758-0.688c0.141-0.34,0.211-0.863,0.211-1.568v-7.264l-5.359-8.18
		c-0.799-1.246-1.487-2.109-2.063-2.592c-0.576-0.482-1.134-0.723-1.675-0.723c-0.071,0-0.106-0.07-0.106-0.213
		c0-0.141,0.035-0.211,0.106-0.211l1.164,0.035c0.517,0.047,0.893,0.07,1.128,0.07c0.799,0,1.927-0.023,3.385-0.07l2.186-0.035
		c0.047,0,0.07,0.07,0.07,0.211c0,0.143-0.023,0.213-0.07,0.213c-0.964,0-1.446,0.328-1.446,0.986c0,0.33,0.141,0.705,0.423,1.129
		l5.113,7.863l3.596-5.889c0.587-0.963,0.882-1.811,0.882-2.539c0-1.033-0.647-1.551-1.939-1.551c-0.047,0-0.071-0.07-0.071-0.213
		c0-0.141,0.023-0.211,0.071-0.211l1.833,0.035c0.987,0.047,1.892,0.07,2.715,0.07c0.399,0,0.882-0.023,1.446-0.07l1.305-0.035
		C209.348,98.111,209.372,98.182,209.372,98.322z"/>
	<path d="M220.461,119.039c-1.705-1.023-3.021-2.41-3.949-4.162c-0.929-1.75-1.393-3.66-1.393-5.729
		c0-2.422,0.611-4.496,1.833-6.225c1.222-1.727,2.792-3.025,4.708-3.896c1.916-0.869,3.872-1.305,5.871-1.305
		c2.232,0,4.195,0.523,5.888,1.57s2.991,2.428,3.896,4.143c0.904,1.717,1.357,3.539,1.357,5.465c0,2.141-0.564,4.104-1.692,5.889
		c-1.128,1.787-2.639,3.197-4.531,4.232c-1.893,1.033-3.943,1.551-6.152,1.551C224.11,120.572,222.165,120.061,220.461,119.039z
		 M231.286,118.58c1.116-0.764,1.998-1.887,2.645-3.367s0.97-3.244,0.97-5.289c0-2.162-0.359-4.102-1.075-5.818
		c-0.718-1.715-1.74-3.055-3.068-4.02c-1.328-0.963-2.886-1.445-4.672-1.445c-2.28,0-4.049,0.816-5.307,2.451
		c-1.257,1.633-1.886,3.895-1.886,6.787c0,2.232,0.37,4.254,1.111,6.064c0.74,1.811,1.763,3.227,3.067,4.248
		c1.305,1.023,2.779,1.535,4.425,1.535C228.906,119.727,230.169,119.344,231.286,118.58z"/>
	<path d="M264.994,99.557c-0.553-0.682-1.346-1.021-2.38-1.021c-0.048,0-0.07-0.07-0.07-0.213c0-0.141,0.022-0.211,0.07-0.211
		l1.622,0.035c0.893,0.047,1.598,0.07,2.115,0.07c0.423,0,1.058-0.023,1.904-0.07l1.552-0.035c0.047,0,0.07,0.07,0.07,0.211
		c0,0.143-0.023,0.213-0.07,0.213c-0.917,0-1.628,0.34-2.134,1.021s-0.758,1.635-0.758,2.857v9.871c0,1.693-0.358,3.168-1.075,4.426
		c-0.718,1.258-1.729,2.229-3.032,2.908c-1.305,0.682-2.815,1.023-4.531,1.023s-3.244-0.336-4.584-1.006s-2.38-1.633-3.12-2.891
		c-0.741-1.258-1.111-2.732-1.111-4.426v-11.354c0-0.705-0.07-1.221-0.211-1.551c-0.142-0.328-0.395-0.559-0.759-0.688
		s-0.934-0.193-1.71-0.193c-0.07,0-0.105-0.07-0.105-0.213c0-0.141,0.035-0.211,0.105-0.211l1.834,0.035
		c1.034,0.047,1.868,0.07,2.503,0.07c0.705,0,1.575-0.023,2.609-0.07l1.764-0.035c0.07,0,0.105,0.07,0.105,0.211
		c0,0.143-0.035,0.213-0.105,0.213c-0.776,0-1.353,0.07-1.729,0.211s-0.629,0.383-0.758,0.723c-0.13,0.342-0.194,0.863-0.194,1.568
		v10.051c0,2.797,0.582,4.883,1.746,6.258c1.163,1.375,2.791,2.063,4.883,2.063c1.998,0,3.562-0.617,4.69-1.852
		c1.128-1.234,1.692-2.979,1.692-5.236v-9.906C265.823,101.191,265.546,100.238,264.994,99.557z"/>
	<path d="M300.448,119.938c0,0.141-0.036,0.211-0.106,0.211h-5.677c-0.541,0-1.546-0.939-3.015-2.82
		c-1.47-1.881-3.25-4.514-5.342-7.898c-0.518,0.047-0.917,0.07-1.199,0.07c-0.517,0-1.128-0.023-1.833-0.07v7.863
		c0,0.729,0.064,1.258,0.193,1.586c0.129,0.33,0.376,0.553,0.741,0.67c0.364,0.119,0.945,0.178,1.745,0.178
		c0.047,0,0.07,0.07,0.07,0.211s-0.023,0.211-0.07,0.211c-0.775,0-1.375-0.012-1.799-0.035l-2.608-0.035l-2.539,0.035
		c-0.447,0.023-1.058,0.035-1.834,0.035c-0.07,0-0.105-0.07-0.105-0.211s0.035-0.211,0.105-0.211c0.799,0,1.381-0.059,1.746-0.178
		c0.364-0.117,0.617-0.346,0.758-0.688c0.141-0.34,0.212-0.863,0.212-1.568v-16.326c0-0.705-0.065-1.221-0.194-1.551
		c-0.13-0.328-0.382-0.559-0.758-0.688c-0.377-0.129-0.952-0.193-1.728-0.193c-0.048,0-0.071-0.07-0.071-0.213
		c0-0.141,0.023-0.211,0.071-0.211l1.833,0.035c1.034,0.047,1.869,0.07,2.504,0.07c0.775,0,1.622-0.035,2.538-0.105
		c0.306-0.023,0.676-0.047,1.111-0.07c0.435-0.023,0.922-0.035,1.463-0.035c2.045,0,3.626,0.4,4.742,1.199s1.675,1.916,1.675,3.35
		c0,1.293-0.358,2.457-1.075,3.49c-0.717,1.035-1.675,1.857-2.874,2.469c1.928,2.844,3.538,5.064,4.831,6.664
		c1.293,1.598,2.438,2.756,3.438,3.473s1.98,1.076,2.944,1.076C300.412,119.727,300.448,119.797,300.448,119.938z M285.321,108.619
		c1.527,0,2.621-0.383,3.279-1.146c0.657-0.764,0.987-1.992,0.987-3.684c0-1.904-0.323-3.232-0.97-3.984s-1.581-1.129-2.804-1.129
		c-0.916,0-1.568,0.17-1.956,0.512c-0.389,0.34-0.582,0.957-0.582,1.85v7.441C283.841,108.572,284.521,108.619,285.321,108.619z"/>
	<path d="M325.922,119.039c-1.704-1.023-3.021-2.41-3.949-4.162c-0.929-1.75-1.393-3.66-1.393-5.729
		c0-2.422,0.611-4.496,1.834-6.225c1.222-1.727,2.791-3.025,4.707-3.896c1.915-0.869,3.872-1.305,5.871-1.305
		c2.232,0,4.195,0.523,5.888,1.57s2.991,2.428,3.896,4.143c0.904,1.717,1.357,3.539,1.357,5.465c0,2.141-0.564,4.104-1.692,5.889
		c-1.128,1.787-2.639,3.197-4.531,4.232c-1.893,1.033-3.943,1.551-6.152,1.551C329.571,120.572,327.626,120.061,325.922,119.039z
		 M336.747,118.58c1.116-0.764,1.998-1.887,2.645-3.367s0.97-3.244,0.97-5.289c0-2.162-0.359-4.102-1.075-5.818
		c-0.718-1.715-1.74-3.055-3.068-4.02c-1.328-0.963-2.886-1.445-4.672-1.445c-2.28,0-4.049,0.816-5.307,2.451
		c-1.258,1.633-1.886,3.895-1.886,6.787c0,2.232,0.37,4.254,1.11,6.064s1.763,3.227,3.067,4.248
		c1.305,1.023,2.779,1.535,4.425,1.535C334.367,119.727,335.63,119.344,336.747,118.58z"/>
	<path d="M367.723,103.012c0,0.049-0.065,0.084-0.194,0.107s-0.206,0-0.229-0.07c-0.564-2.682-2.198-4.021-4.901-4.021h-1.41
		c-0.847,0-1.446,0.154-1.799,0.459c-0.353,0.307-0.528,0.811-0.528,1.516v7.652h2.891c2.633,0,3.949-0.881,3.949-2.645
		c0-0.047,0.07-0.07,0.212-0.07c0.141,0,0.211,0.023,0.211,0.07l-0.035,3.104c0,0.729,0.012,1.27,0.035,1.621l0.036,1.834
		c0,0.07-0.071,0.105-0.212,0.105s-0.212-0.035-0.212-0.105c0-1.998-1.352-2.998-4.055-2.998h-2.82v7.582
		c0,0.752,0.094,1.299,0.281,1.639c0.188,0.342,0.559,0.582,1.111,0.723c0.552,0.143,1.404,0.213,2.557,0.213
		c0.046,0,0.07,0.07,0.07,0.211s-0.024,0.211-0.07,0.211c-0.965,0-1.717-0.012-2.257-0.035l-3.456-0.035l-2.573,0.035
		c-0.447,0.023-1.07,0.035-1.869,0.035c-0.07,0-0.105-0.07-0.105-0.211s0.035-0.211,0.105-0.211c0.846,0,1.463-0.059,1.852-0.178
		c0.388-0.117,0.651-0.346,0.793-0.688c0.141-0.34,0.212-0.863,0.212-1.568v-16.326c0-0.705-0.065-1.221-0.194-1.551
		c-0.13-0.328-0.383-0.559-0.758-0.688c-0.377-0.129-0.952-0.193-1.729-0.193c-0.07,0-0.105-0.07-0.105-0.213
		c0-0.141,0.035-0.211,0.105-0.211H367.3c0.234,0,0.353,0.105,0.353,0.318L367.723,103.012z"/>
	<path d="M391.276,103.012c0,0.049-0.065,0.084-0.194,0.107s-0.206,0-0.229-0.07c-0.564-2.682-2.198-4.021-4.901-4.021h-1.41
		c-0.847,0-1.446,0.154-1.799,0.459c-0.353,0.307-0.528,0.811-0.528,1.516v7.652h2.891c2.633,0,3.949-0.881,3.949-2.645
		c0-0.047,0.07-0.07,0.212-0.07c0.141,0,0.211,0.023,0.211,0.07l-0.035,3.104c0,0.729,0.012,1.27,0.035,1.621l0.036,1.834
		c0,0.07-0.071,0.105-0.212,0.105s-0.212-0.035-0.212-0.105c0-1.998-1.352-2.998-4.055-2.998h-2.82v7.582
		c0,0.752,0.094,1.299,0.281,1.639c0.188,0.342,0.559,0.582,1.111,0.723c0.552,0.143,1.404,0.213,2.557,0.213
		c0.046,0,0.07,0.07,0.07,0.211s-0.024,0.211-0.07,0.211c-0.965,0-1.717-0.012-2.257-0.035l-3.456-0.035l-2.573,0.035
		c-0.447,0.023-1.07,0.035-1.869,0.035c-0.07,0-0.105-0.07-0.105-0.211s0.035-0.211,0.105-0.211c0.846,0,1.463-0.059,1.852-0.178
		c0.388-0.117,0.651-0.346,0.793-0.688c0.141-0.34,0.212-0.863,0.212-1.568v-16.326c0-0.705-0.065-1.221-0.194-1.551
		c-0.13-0.328-0.383-0.559-0.758-0.688c-0.377-0.129-0.952-0.193-1.729-0.193c-0.07,0-0.105-0.07-0.105-0.213
		c0-0.141,0.035-0.211,0.105-0.211h14.669c0.234,0,0.353,0.105,0.353,0.318L391.276,103.012z"/>
	<path d="M415.64,114.578c0.071,0,0.136,0.018,0.194,0.053s0.088,0.064,0.088,0.088c-0.235,1.787-0.353,3.42-0.353,4.9
		c0,0.189-0.035,0.324-0.105,0.406s-0.212,0.123-0.423,0.123h-15.304c-0.07,0-0.105-0.07-0.105-0.211s0.035-0.211,0.105-0.211
		c0.799,0,1.381-0.059,1.746-0.178c0.364-0.117,0.61-0.346,0.74-0.688c0.129-0.34,0.194-0.863,0.194-1.568v-16.326
		c0-0.705-0.065-1.221-0.194-1.551c-0.13-0.328-0.383-0.559-0.758-0.688c-0.377-0.129-0.952-0.193-1.729-0.193
		c-0.07,0-0.105-0.07-0.105-0.213c0-0.141,0.035-0.211,0.105-0.211h14.669c0.234,0,0.353,0.105,0.353,0.318l0.07,4.582
		c0,0.049-0.065,0.084-0.194,0.107s-0.206,0-0.229-0.07c-0.564-2.682-2.198-4.021-4.901-4.021h-1.41
		c-0.847,0-1.446,0.154-1.799,0.459c-0.353,0.307-0.528,0.824-0.528,1.551v7.193h3.385c2.585,0,3.878-0.869,3.878-2.609
		c0-0.07,0.064-0.105,0.194-0.105c0.129,0,0.194,0.035,0.194,0.105l-0.035,3.068l0.035,1.656c0.047,0.754,0.07,1.365,0.07,1.834
		c0,0.049-0.07,0.07-0.212,0.07c-0.141,0-0.211-0.021-0.211-0.07c0-2.021-1.317-3.031-3.949-3.031h-3.35v8.004
		c0,0.775,0.146,1.316,0.44,1.621c0.294,0.307,0.816,0.459,1.569,0.459h1.728c3.149,0,5.147-1.527,5.994-4.584
		C415.499,114.602,415.546,114.578,415.64,114.578z"/>
	<path d="M447.586,119.938c0,0.141-0.036,0.211-0.106,0.211h-5.677c-0.541,0-1.546-0.939-3.015-2.82
		c-1.47-1.881-3.25-4.514-5.342-7.898c-0.518,0.047-0.917,0.07-1.199,0.07c-0.517,0-1.128-0.023-1.833-0.07v7.863
		c0,0.729,0.064,1.258,0.193,1.586c0.129,0.33,0.376,0.553,0.741,0.67c0.364,0.119,0.945,0.178,1.745,0.178
		c0.047,0,0.07,0.07,0.07,0.211s-0.023,0.211-0.07,0.211c-0.775,0-1.375-0.012-1.799-0.035l-2.608-0.035l-2.539,0.035
		c-0.447,0.023-1.058,0.035-1.834,0.035c-0.07,0-0.105-0.07-0.105-0.211s0.035-0.211,0.105-0.211c0.799,0,1.381-0.059,1.746-0.178
		c0.364-0.117,0.617-0.346,0.758-0.688c0.141-0.34,0.212-0.863,0.212-1.568v-16.326c0-0.705-0.065-1.221-0.194-1.551
		c-0.13-0.328-0.382-0.559-0.758-0.688c-0.377-0.129-0.952-0.193-1.728-0.193c-0.048,0-0.071-0.07-0.071-0.213
		c0-0.141,0.023-0.211,0.071-0.211l1.833,0.035c1.034,0.047,1.869,0.07,2.504,0.07c0.775,0,1.622-0.035,2.538-0.105
		c0.306-0.023,0.676-0.047,1.111-0.07c0.435-0.023,0.922-0.035,1.463-0.035c2.045,0,3.626,0.4,4.742,1.199s1.675,1.916,1.675,3.35
		c0,1.293-0.358,2.457-1.075,3.49c-0.717,1.035-1.675,1.857-2.874,2.469c1.928,2.844,3.538,5.064,4.831,6.664
		c1.293,1.598,2.438,2.756,3.438,3.473s1.98,1.076,2.944,1.076C447.55,119.727,447.586,119.797,447.586,119.938z M432.459,108.619
		c1.527,0,2.621-0.383,3.279-1.146c0.657-0.764,0.987-1.992,0.987-3.684c0-1.904-0.323-3.232-0.97-3.984s-1.581-1.129-2.804-1.129
		c-0.916,0-1.568,0.17-1.956,0.512c-0.389,0.34-0.582,0.957-0.582,1.85v7.441C430.979,108.572,431.659,108.619,432.459,108.619z"/>
</g>
<g>
	<path fill="#FFFFFF" d="M96.118,13.471h3.271v15.427h7.817v2.96H96.118V13.471z"/>
	<path fill="#FFFFFF" d="M122.042,13.471h2.83l7.921,18.387h-3.739l-1.714-4.207h-7.974l-1.662,4.207h-3.661L122.042,13.471z
		 M126.197,24.846l-2.831-7.479l-2.883,7.479H126.197z"/>
	<path fill="#FFFFFF" d="M150.356,17.418c-0.701-0.986-1.948-1.454-3.221-1.454c-1.506,0-3.013,0.675-3.013,2.363
		c0,3.688,8.727,1.584,8.727,8.129c0,3.947-3.117,5.869-6.727,5.869c-2.285,0-4.519-0.701-6.025-2.493l2.468-2.39
		c0.805,1.221,2.181,1.922,3.636,1.922c1.506,0,3.22-0.831,3.22-2.519c0-4.025-8.726-1.715-8.726-8.285
		c0-3.791,3.376-5.558,6.778-5.558c1.922,0,3.844,0.546,5.271,1.896L150.356,17.418z"/>
	<path fill="#FFFFFF" d="M166.516,16.432h-5.636v-2.961h14.543v2.961h-5.635v15.426h-3.272V16.432z"/>
	<path fill="#FFFFFF" d="M210.96,17.781c-1.351-1.428-2.597-1.817-3.869-1.817c-3.792,0-6.312,2.908-6.312,6.57
		c0,3.922,2.52,6.83,6.312,6.83c1.48,0,2.908-0.675,4.129-2.233l2.701,1.922c-1.662,2.285-4.155,3.272-6.856,3.272
		c-5.661,0-9.713-3.844-9.713-9.583c0-5.896,4.052-9.739,9.713-9.739c2.493,0,4.623,0.806,6.44,2.909L210.96,17.781z"/>
	<path fill="#FFFFFF" d="M222.628,13.471h3.271v7.323h8.597v-7.323h3.272v18.387h-3.272v-8.103h-8.597v8.103h-3.271V13.471z"/>
	<path fill="#FFFFFF" d="M254.318,13.471h2.831l7.921,18.387h-3.74l-1.714-4.207h-7.973l-1.662,4.207h-3.662L254.318,13.471z
		 M258.474,24.846l-2.831-7.479l-2.883,7.479H258.474z"/>
	<path fill="#FFFFFF" d="M273.621,13.471h4.337l8.908,13.66h0.052v-13.66h3.272v18.387h-4.155l-9.09-14.102h-0.052v14.102h-3.272
		V13.471z"/>
	<path fill="#FFFFFF" d="M313.415,17.781c-1.35-1.428-2.597-1.817-3.869-1.817c-3.792,0-6.311,2.908-6.311,6.57
		c0,3.922,2.519,6.83,6.311,6.83c1.48,0,2.909-0.675,4.129-2.233l2.701,1.922c-1.662,2.285-4.155,3.272-6.856,3.272
		c-5.661,0-9.713-3.844-9.713-9.583c0-5.896,4.052-9.739,9.713-9.739c2.493,0,4.623,0.806,6.441,2.909L313.415,17.781z"/>
	<path fill="#FFFFFF" d="M325.083,13.471h12.18v2.961h-8.907v4.519h8.44v2.961h-8.44v4.986h9.375v2.96h-12.647V13.471z"/>
	<path fill="#FFFFFF" d="M349.241,28.014c1.116,0,2.077,0.857,2.077,1.974c0,1.117-0.935,2.026-2.077,2.026
		c-1.091,0-2.078-0.857-2.078-1.974C347.163,28.923,348.099,28.014,349.241,28.014z M350.799,26.092h-3.116V13.471h3.116V26.092z"/>
</g>
<g>
</g>
<g>
</g>
<g>
</g>
<g>
</g>
<g>
</g>
<g>
</g>
</svg>
