<?xml version="1.0" encoding="utf-8"?>
<!-- Generator: Adobe Illustrator 16.0.3, SVG Export Plug-In . SVG Version: 6.00 Build 0)  -->
<!DOCTYPE svg PUBLIC "-//W3C//DTD SVG 1.1//EN" "http://www.w3.org/Graphics/SVG/1.1/DTD/svg11.dtd">
<svg version="1.1" id="Layer_1" xmlns="http://www.w3.org/2000/svg" xmlns:xlink="http://www.w3.org/1999/xlink" x="0px" y="0px"
	 width="832.585px" height="83.343px" viewBox="0 -48.529 832.585 83.343" enable-background="new 0 -48.529 832.585 83.343"
	 xml:space="preserve">
<g>
	<path d="M17.383,23.078c0.07,0,0.135,0.019,0.194,0.054c0.058,0.035,0.088,0.064,0.088,0.088c-0.235,1.786-0.353,3.42-0.353,4.9
		c0,0.189-0.035,0.324-0.105,0.406c-0.071,0.082-0.212,0.123-0.423,0.123H1.481c-0.071,0-0.106-0.07-0.106-0.211
		c0-0.143,0.035-0.213,0.106-0.213c0.799,0,1.38-0.059,1.745-0.177c0.364-0.116,0.611-0.346,0.741-0.688
		c0.129-0.34,0.194-0.862,0.194-1.567V9.467c0-0.705-0.065-1.222-0.194-1.551c-0.13-0.329-0.383-0.558-0.759-0.687
		C2.833,7.1,2.257,7.035,1.481,7.035c-0.071,0-0.106-0.071-0.106-0.211c0-0.141,0.035-0.212,0.106-0.212h14.668
		c0.235,0,0.353,0.106,0.353,0.317l0.071,4.584c0,0.047-0.065,0.083-0.194,0.105c-0.13,0.024-0.206,0-0.229-0.07
		c-0.564-2.68-2.198-4.02-4.901-4.02H9.837c-0.846,0-1.445,0.153-1.798,0.458C7.687,8.292,7.51,8.81,7.51,9.538v7.193h3.385
		c2.585,0,3.878-0.869,3.878-2.609c0-0.071,0.064-0.106,0.194-0.106c0.129,0,0.194,0.035,0.194,0.106l-0.035,3.067l0.035,1.657
		c0.047,0.752,0.071,1.364,0.071,1.833c0,0.047-0.071,0.07-0.212,0.07s-0.211-0.023-0.211-0.07c0-2.021-1.317-3.032-3.949-3.032
		H7.51v8.004c0,0.775,0.146,1.316,0.441,1.621c0.293,0.307,0.816,0.459,1.569,0.459h1.728c3.149,0,5.148-1.527,5.994-4.584
		C17.242,23.103,17.289,23.078,17.383,23.078z"/>
	<path d="M49.928,6.823c0,0.141-0.024,0.211-0.071,0.211c-0.94,0-1.669,0.335-2.186,1.005s-0.776,1.628-0.776,2.874v18.229
		c0,0.071-0.059,0.118-0.176,0.143c-0.117,0.023-0.2,0.012-0.247-0.035L29.936,10.032v14.351c0,1.247,0.247,2.198,0.741,2.856
		c0.494,0.658,1.21,0.986,2.151,0.986c0.047,0,0.07,0.07,0.07,0.213c0,0.141-0.023,0.211-0.07,0.211
		c-0.635,0-1.117-0.012-1.446-0.035l-1.869-0.035l-2.081,0.035c-0.376,0.023-0.917,0.035-1.622,0.035
		c-0.07,0-0.105-0.07-0.105-0.211c0-0.143,0.035-0.213,0.105-0.213c1.011,0,1.792-0.328,2.345-0.986
		c0.552-0.658,0.829-1.609,0.829-2.856V8.938c-0.659-0.705-1.252-1.199-1.781-1.481c-0.529-0.282-1.076-0.423-1.64-0.423
		c-0.047,0-0.07-0.071-0.07-0.211c0-0.141,0.023-0.212,0.07-0.212l1.41,0.036c0.306,0.023,0.741,0.035,1.305,0.035l2.257-0.035
		c0.282-0.023,0.623-0.036,1.022-0.036c0.188,0,0.329,0.047,0.423,0.141c0.093,0.094,0.234,0.282,0.423,0.564l0.846,1.128
		l12.694,14.95v-12.48c0-1.246-0.247-2.204-0.741-2.874c-0.494-0.67-1.199-1.005-2.116-1.005c-0.047,0-0.07-0.071-0.07-0.211
		c0-0.141,0.023-0.212,0.07-0.212l1.446,0.036c0.752,0.047,1.375,0.07,1.869,0.07c0.47,0,1.105-0.023,1.904-0.07l1.551-0.036
		C49.904,6.611,49.928,6.682,49.928,6.823z"/>
	<path d="M80.428,28.438c0,0.141-0.035,0.211-0.106,0.211h-5.677c-0.541,0-1.546-0.939-3.015-2.82
		c-1.469-1.881-3.25-4.514-5.342-7.899C65.771,17.977,65.372,18,65.09,18c-0.518,0-1.128-0.023-1.833-0.071v7.864
		c0,0.729,0.064,1.258,0.194,1.586c0.129,0.33,0.375,0.554,0.74,0.67c0.364,0.118,0.946,0.177,1.746,0.177
		c0.047,0,0.07,0.07,0.07,0.213c0,0.141-0.023,0.211-0.07,0.211c-0.776,0-1.375-0.012-1.798-0.035l-2.609-0.035l-2.539,0.035
		c-0.447,0.023-1.058,0.035-1.833,0.035c-0.071,0-0.106-0.07-0.106-0.211c0-0.143,0.035-0.213,0.106-0.213
		c0.799,0,1.38-0.059,1.745-0.177c0.364-0.116,0.617-0.346,0.758-0.688c0.141-0.34,0.211-0.862,0.211-1.567V9.467
		c0-0.705-0.065-1.222-0.194-1.551c-0.129-0.329-0.382-0.558-0.758-0.688c-0.376-0.129-0.952-0.194-1.728-0.194
		c-0.047,0-0.07-0.071-0.07-0.211c0-0.141,0.023-0.212,0.07-0.212l1.833,0.036c1.034,0.047,1.869,0.07,2.503,0.07
		c0.776,0,1.622-0.035,2.539-0.106c0.305-0.023,0.675-0.047,1.11-0.07c0.435-0.023,0.922-0.035,1.463-0.035
		c2.045,0,3.625,0.4,4.743,1.199c1.116,0.799,1.675,1.916,1.675,3.35c0,1.293-0.359,2.457-1.076,3.491
		c-0.717,1.035-1.675,1.857-2.874,2.468c1.927,2.844,3.538,5.065,4.831,6.664c1.292,1.599,2.438,2.757,3.438,3.474
		c0.999,0.718,1.98,1.074,2.944,1.074C80.393,28.226,80.428,28.296,80.428,28.438z M65.301,17.119c1.528,0,2.621-0.382,3.279-1.146
		c0.658-0.764,0.987-1.992,0.987-3.685c0-1.904-0.324-3.231-0.97-3.984c-0.647-0.752-1.581-1.128-2.803-1.128
		c-0.917,0-1.569,0.17-1.957,0.511c-0.388,0.341-0.582,0.958-0.582,1.851v7.44C63.82,17.072,64.502,17.119,65.301,17.119z"/>
	<path d="M90.706,27.538c-1.705-1.021-3.021-2.408-3.949-4.16c-0.929-1.751-1.393-3.66-1.393-5.729c0-2.421,0.611-4.496,1.833-6.224
		c1.222-1.728,2.792-3.026,4.708-3.896c1.916-0.87,3.873-1.305,5.871-1.305c2.233,0,4.196,0.523,5.889,1.569
		c1.692,1.046,2.991,2.428,3.896,4.143c0.905,1.716,1.357,3.538,1.357,5.465c0,2.14-0.564,4.103-1.692,5.889
		c-1.128,1.787-2.639,3.197-4.531,4.23c-1.893,1.035-3.944,1.552-6.153,1.552C94.355,29.072,92.409,28.562,90.706,27.538z
		 M101.53,27.081c1.116-0.764,1.998-1.887,2.645-3.368c0.646-1.481,0.97-3.243,0.97-5.289c0-2.162-0.359-4.102-1.076-5.818
		c-0.717-1.715-1.74-3.055-3.067-4.02C99.673,7.623,98.116,7.14,96.33,7.14c-2.28,0-4.049,0.817-5.307,2.451
		c-1.257,1.634-1.886,3.896-1.886,6.788c0,2.233,0.37,4.255,1.111,6.065c0.74,1.81,1.763,3.226,3.067,4.248
		c1.304,1.021,2.78,1.533,4.425,1.533C99.15,28.226,100.414,27.844,101.53,27.081z"/>
	<path d="M123.126,25.651c0,0.636,0.053,1.094,0.159,1.375c0.106,0.283,0.312,0.472,0.617,0.564
		c0.305,0.096,0.799,0.141,1.481,0.141h2.116c1.668,0,3.079-0.463,4.231-1.393c1.151-0.929,1.916-2.181,2.292-3.755
		c0.023-0.069,0.094-0.101,0.211-0.088c0.117,0.012,0.176,0.053,0.176,0.123c-0.211,2.209-0.317,4.043-0.317,5.5
		c0,0.188-0.035,0.323-0.105,0.405c-0.071,0.082-0.212,0.123-0.423,0.123h-16.501c-0.047,0-0.071-0.069-0.071-0.211
		s0.023-0.213,0.071-0.213c0.799,0,1.38-0.058,1.745-0.176c0.364-0.117,0.611-0.346,0.741-0.688c0.129-0.34,0.194-0.863,0.194-1.568
		V9.467c0-0.705-0.065-1.222-0.194-1.551s-0.382-0.558-0.758-0.688c-0.376-0.129-0.952-0.194-1.728-0.194
		c-0.047,0-0.071-0.071-0.071-0.211c0-0.141,0.023-0.212,0.071-0.212l1.798,0.036c1.034,0.047,1.88,0.07,2.539,0.07
		c0.705,0,1.575-0.023,2.609-0.07l1.763-0.036c0.071,0,0.106,0.071,0.106,0.212c0,0.141-0.035,0.211-0.106,0.211
		c-0.775,0-1.346,0.065-1.71,0.194c-0.365,0.129-0.611,0.365-0.741,0.705c-0.129,0.341-0.194,0.864-0.194,1.569L123.126,25.651
		L123.126,25.651z"/>
	<path d="M147.491,25.651c0,0.636,0.053,1.094,0.159,1.375c0.106,0.283,0.312,0.472,0.617,0.564
		c0.305,0.096,0.799,0.141,1.481,0.141h2.116c1.668,0,3.079-0.463,4.231-1.393c1.151-0.929,1.916-2.181,2.292-3.755
		c0.023-0.069,0.094-0.101,0.211-0.088c0.117,0.012,0.176,0.053,0.176,0.123c-0.211,2.209-0.317,4.043-0.317,5.5
		c0,0.188-0.035,0.323-0.105,0.405c-0.071,0.082-0.212,0.123-0.423,0.123h-16.501c-0.047,0-0.071-0.069-0.071-0.211
		s0.023-0.213,0.071-0.213c0.799,0,1.38-0.058,1.745-0.176c0.364-0.117,0.611-0.346,0.741-0.688c0.129-0.34,0.194-0.863,0.194-1.568
		V9.467c0-0.705-0.065-1.222-0.194-1.551s-0.382-0.558-0.758-0.688c-0.376-0.129-0.952-0.194-1.728-0.194
		c-0.047,0-0.071-0.071-0.071-0.211c0-0.141,0.023-0.212,0.071-0.212l1.798,0.036c1.034,0.047,1.88,0.07,2.539,0.07
		c0.705,0,1.575-0.023,2.609-0.07l1.763-0.036c0.071,0,0.106,0.071,0.106,0.212c0,0.141-0.035,0.211-0.106,0.211
		c-0.775,0-1.346,0.065-1.71,0.194c-0.365,0.129-0.611,0.365-0.741,0.705c-0.129,0.341-0.194,0.864-0.194,1.569L147.491,25.651
		L147.491,25.651z"/>
	<path d="M182.098,8.674c-0.929,0.881-1.639,2.216-2.133,4.002c0,0.047-0.065,0.07-0.194,0.07s-0.194-0.035-0.194-0.105
		c0.094-0.917,0.2-2.098,0.317-3.544c0.118-1.445,0.176-2.533,0.176-3.261c0-0.118,0.064-0.176,0.194-0.176
		c0.129,0,0.194,0.059,0.194,0.176c0,0.517,0.658,0.775,1.974,0.775c2.021,0.071,4.384,0.106,7.087,0.106
		c1.387,0,2.856-0.023,4.408-0.07l2.397-0.036c0.893,0,1.545-0.058,1.957-0.176c0.411-0.117,0.675-0.353,0.793-0.705
		c0.023-0.094,0.094-0.141,0.211-0.141c0.117,0,0.176,0.047,0.176,0.141c-0.07,0.729-0.141,1.833-0.211,3.314
		c-0.071,1.481-0.106,2.68-0.106,3.597c0,0.07-0.065,0.105-0.194,0.105c-0.129,0-0.206-0.035-0.229-0.105
		c-0.235-1.81-0.788-3.144-1.657-4.002c-0.87-0.858-2.045-1.287-3.526-1.287c-0.658,0-1.146,0.059-1.463,0.176
		c-0.317,0.118-0.529,0.323-0.635,0.617s-0.159,0.758-0.159,1.393v16.255c0,0.729,0.07,1.258,0.211,1.586
		c0.141,0.33,0.423,0.554,0.846,0.67c0.423,0.118,1.093,0.177,2.01,0.177c0.071,0,0.106,0.07,0.106,0.213
		c0,0.141-0.035,0.211-0.106,0.211c-0.823,0-1.469-0.012-1.939-0.035l-2.892-0.035l-2.75,0.035
		c-0.494,0.023-1.176,0.035-2.045,0.035c-0.047,0-0.07-0.07-0.07-0.211c0-0.143,0.023-0.213,0.07-0.213
		c0.917,0,1.592-0.059,2.027-0.177c0.435-0.116,0.729-0.346,0.882-0.688c0.152-0.34,0.229-0.862,0.229-1.567V9.467
		c0-0.611-0.059-1.058-0.176-1.34c-0.118-0.282-0.33-0.481-0.635-0.599c-0.306-0.118-0.775-0.176-1.41-0.176
		C184.208,7.352,183.026,7.792,182.098,8.674z"/>
	<path d="M212.563,27.538c-1.705-1.021-3.021-2.408-3.949-4.16c-0.929-1.751-1.393-3.66-1.393-5.729
		c0-2.421,0.611-4.496,1.833-6.224c1.222-1.728,2.792-3.026,4.708-3.896c1.916-0.87,3.873-1.305,5.871-1.305
		c2.233,0,4.196,0.523,5.889,1.569c1.692,1.046,2.991,2.428,3.896,4.143c0.905,1.716,1.357,3.538,1.357,5.465
		c0,2.14-0.564,4.103-1.692,5.889c-1.128,1.787-2.639,3.197-4.531,4.23c-1.893,1.035-3.944,1.552-6.153,1.552
		C216.212,29.072,214.266,28.562,212.563,27.538z M223.387,27.081c1.116-0.764,1.998-1.887,2.646-3.368
		c0.646-1.481,0.97-3.243,0.97-5.289c0-2.162-0.359-4.102-1.076-5.818c-0.717-1.715-1.74-3.055-3.067-4.02
		c-1.329-0.963-2.886-1.446-4.672-1.446c-2.28,0-4.049,0.817-5.307,2.451c-1.257,1.634-1.886,3.896-1.886,6.788
		c0,2.233,0.37,4.255,1.111,6.065c0.74,1.81,1.763,3.226,3.067,4.248c1.304,1.021,2.78,1.533,4.425,1.533
		C221.007,28.226,222.271,27.844,223.387,27.081z"/>
	<path d="M246.464,28.685c-0.353-0.023-0.799-0.047-1.34-0.07s-1.152-0.035-1.833-0.035l-2.503,0.035
		c-0.447,0.023-1.07,0.035-1.869,0.035c-0.047,0-0.071-0.07-0.071-0.211c0-0.143,0.023-0.213,0.071-0.213
		c0.799,0,1.38-0.059,1.745-0.177c0.364-0.116,0.617-0.346,0.758-0.688c0.141-0.34,0.211-0.862,0.211-1.567V9.467
		c0-0.705-0.065-1.222-0.194-1.551s-0.382-0.558-0.758-0.688c-0.376-0.129-0.952-0.194-1.728-0.194c-0.047,0-0.07-0.071-0.07-0.211
		c0-0.141,0.023-0.212,0.07-0.212l1.869,0.036c1.034,0.047,1.857,0.07,2.468,0.07c0.94,0,1.892-0.035,2.856-0.106
		c1.175-0.047,1.962-0.07,2.363-0.07c2.397,0,4.524,0.47,6.382,1.41c1.856,0.94,3.297,2.222,4.319,3.844s1.534,3.444,1.534,5.465
		c0,2.281-0.529,4.296-1.586,6.048c-1.058,1.752-2.48,3.104-4.267,4.055c-1.787,0.951-3.75,1.428-5.888,1.428
		C248.274,28.79,247.428,28.754,246.464,28.685z M252.97,26.921c1.257-0.775,2.239-1.922,2.944-3.438
		c0.705-1.517,1.058-3.332,1.058-5.447c0-2.021-0.335-3.849-1.005-5.483c-0.67-1.633-1.616-2.927-2.838-3.878
		c-1.222-0.952-2.645-1.428-4.266-1.428c-0.987,0-1.751,0.059-2.292,0.176c-0.541,0.118-0.935,0.335-1.181,0.652
		c-0.247,0.317-0.37,0.806-0.37,1.463v15.867c0,0.965,0.247,1.652,0.74,2.063c0.494,0.412,1.457,0.617,2.891,0.617
		C250.272,28.084,251.712,27.697,252.97,26.921z"/>
	<path d="M292.584,28.438c0,0.141-0.059,0.211-0.176,0.211c-0.447,0-1.164-0.023-2.151-0.07c-0.987-0.047-1.705-0.07-2.151-0.07
		c-0.588,0-1.281,0.023-2.08,0.07c-0.8,0.047-1.423,0.07-1.869,0.07c-0.094,0-0.141-0.07-0.141-0.211
		c0-0.143,0.047-0.213,0.141-0.213c0.682,0,1.181-0.076,1.499-0.229c0.317-0.152,0.476-0.405,0.476-0.759s-0.2-0.951-0.599-1.799
		l-2.68-5.43h-8.533l-1.692,3.809c-0.306,0.705-0.458,1.341-0.458,1.904c0,0.822,0.293,1.445,0.881,1.868
		c0.587,0.423,1.411,0.634,2.468,0.634c0.118,0,0.176,0.071,0.176,0.213s-0.059,0.211-0.176,0.211c-0.423,0-1.035-0.022-1.833-0.069
		c-0.894-0.047-1.669-0.07-2.327-0.07c-0.635,0-1.375,0.023-2.221,0.07c-0.752,0.047-1.375,0.069-1.869,0.069
		c-0.118,0-0.176-0.069-0.176-0.211s0.059-0.213,0.176-0.213c0.658,0,1.21-0.129,1.657-0.387c0.446-0.259,0.881-0.723,1.304-1.393
		c0.423-0.67,0.929-1.664,1.517-2.98l7.58-17.064c0.047-0.07,0.153-0.106,0.317-0.106s0.258,0.036,0.282,0.106l8.639,17.419
		c0.822,1.69,1.51,2.85,2.063,3.473c0.553,0.623,1.146,0.934,1.781,0.934C292.525,28.226,292.584,28.296,292.584,28.438z
		 M274.708,19.129h7.722l-4.055-8.216L274.708,19.129z"/>
	<path d="M317.689,6.823c0,0.141-0.023,0.211-0.07,0.211c-0.776,0-1.657,0.405-2.646,1.216c-0.987,0.811-1.868,1.851-2.645,3.121
		l-4.021,6.523v7.899c0,0.729,0.064,1.258,0.194,1.586c0.129,0.33,0.375,0.554,0.74,0.67c0.364,0.118,0.946,0.177,1.746,0.177
		c0.069,0,0.105,0.07,0.105,0.213c0,0.141-0.036,0.211-0.105,0.211c-0.776,0-1.375-0.012-1.798-0.035l-2.574-0.035l-2.539,0.035
		c-0.47,0.023-1.093,0.035-1.869,0.035c-0.047,0-0.07-0.07-0.07-0.211c0-0.143,0.023-0.213,0.07-0.213
		c0.799,0,1.381-0.059,1.746-0.177c0.364-0.116,0.617-0.346,0.758-0.688c0.141-0.34,0.211-0.862,0.211-1.567v-7.264l-5.359-8.18
		c-0.799-1.246-1.487-2.11-2.063-2.592c-0.576-0.481-1.134-0.723-1.675-0.723c-0.071,0-0.106-0.071-0.106-0.211
		c0-0.141,0.035-0.212,0.106-0.212l1.164,0.036c0.517,0.047,0.893,0.07,1.128,0.07c0.799,0,1.927-0.023,3.385-0.07l2.186-0.036
		c0.047,0,0.07,0.071,0.07,0.212c0,0.141-0.022,0.211-0.07,0.211c-0.964,0-1.446,0.33-1.446,0.987c0,0.33,0.141,0.705,0.423,1.128
		l5.113,7.863l3.596-5.889c0.587-0.963,0.882-1.81,0.882-2.539c0-1.034-0.646-1.551-1.938-1.551c-0.047,0-0.071-0.071-0.071-0.211
		c0-0.141,0.023-0.212,0.071-0.212l1.833,0.036c0.986,0.047,1.892,0.07,2.715,0.07c0.398,0,0.882-0.023,1.446-0.07l1.305-0.036
		C317.666,6.611,317.689,6.682,317.689,6.823z"/>
	<path d="M361.641,28.456c-0.012,0.129-0.053,0.193-0.124,0.193h-5.147c-0.729,0-2.01-0.658-3.843-1.976
		c-1.787,1.599-4.079,2.397-6.876,2.397c-1.575,0-2.892-0.241-3.949-0.723c-1.059-0.481-1.846-1.111-2.363-1.887
		c-0.517-0.775-0.775-1.609-0.775-2.504c0-1.223,0.399-2.292,1.199-3.209c0.799-0.916,1.976-1.951,3.526-3.103
		c-0.329-0.517-0.683-1.105-1.058-1.763c-0.33-0.682-0.582-1.322-0.759-1.921c-0.176-0.6-0.264-1.228-0.264-1.887
		c0-1.175,0.264-2.233,0.793-3.173s1.281-1.68,2.256-2.221c0.976-0.541,2.109-0.811,3.403-0.811c1.363,0,2.462,0.3,3.296,0.899
		c0.834,0.6,1.252,1.476,1.252,2.627c0,0.94-0.265,1.793-0.793,2.556c-0.529,0.764-1.146,1.411-1.851,1.939
		c-0.705,0.528-1.764,1.264-3.174,2.204c1.717,2.609,4.148,5.148,7.3,7.616c0.375-1.081,0.563-2.244,0.563-3.491
		c0-1.198-0.206-2.074-0.617-2.626c-0.412-0.552-1.123-0.829-2.133-0.829c-0.047,0-0.077-0.07-0.088-0.211
		c-0.012-0.141,0.018-0.211,0.088-0.211l8.074-0.035c0.071,0,0.105,0.07,0.105,0.211s-0.034,0.211-0.105,0.211
		c-0.729,0-1.281,0.077-1.657,0.229s-0.646,0.388-0.811,0.705s-0.342,0.829-0.529,1.534c-0.611,2.139-1.316,3.843-2.115,5.113
		c1.504,1.104,2.874,1.991,4.107,2.662c1.233,0.67,2.215,1.086,2.943,1.25C361.611,28.25,361.652,28.327,361.641,28.456z
		 M351.962,26.215c-0.47-0.353-0.881-0.67-1.233-0.95c-1.294-1.035-2.563-2.168-3.809-3.402c-1.246-1.234-2.327-2.462-3.244-3.686
		c-1.34,1.223-2.01,2.563-2.01,4.02c0,0.941,0.259,1.822,0.776,2.645c0.517,0.824,1.257,1.481,2.222,1.975
		c0.963,0.494,2.068,0.74,3.313,0.74C349.552,27.556,350.881,27.11,351.962,26.215z M346.039,15.497
		c0.939-0.823,1.668-1.669,2.186-2.539s0.776-1.834,0.776-2.892c0-1.034-0.253-1.845-0.758-2.433
		c-0.506-0.587-1.169-0.881-1.992-0.881c-1.434,0-2.151,0.94-2.151,2.821C344.099,11.384,344.746,13.358,346.039,15.497z"/>
	<path d="M401.326,7.317c0.188,0.094,0.305,0.182,0.353,0.264c0.047,0.083,0.095,0.265,0.142,0.546l0.423,4.654
		c0,0.071-0.06,0.118-0.176,0.141c-0.118,0.024-0.2-0.011-0.247-0.105c-0.612-1.927-1.522-3.396-2.733-4.408
		c-1.211-1.01-2.709-1.516-4.496-1.516c-1.716,0-3.25,0.429-4.602,1.287c-1.353,0.858-2.404,2.092-3.156,3.702
		c-0.752,1.61-1.128,3.485-1.128,5.624c0,2.116,0.398,4.001,1.199,5.66c0.799,1.656,1.892,2.942,3.278,3.86
		c1.387,0.916,2.95,1.375,4.689,1.375c1.715,0,3.144-0.452,4.284-1.357c1.14-0.904,2.145-2.345,3.015-4.318
		c0.023-0.07,0.094-0.095,0.211-0.07c0.117,0.022,0.176,0.059,0.176,0.104l-0.458,4.231c-0.022,0.281-0.064,0.458-0.123,0.527
		c-0.059,0.071-0.183,0.154-0.371,0.248c-2.114,0.869-4.359,1.305-6.733,1.305c-2.517,0-4.76-0.477-6.735-1.428
		c-1.975-0.953-3.514-2.293-4.619-4.021c-1.104-1.728-1.656-3.708-1.656-5.941c0-2.209,0.576-4.184,1.728-5.924
		c1.151-1.739,2.728-3.097,4.726-4.072s4.23-1.463,6.699-1.463C397.623,6.224,399.727,6.588,401.326,7.317z"/>
	<path d="M435.316,28.438c0,0.141-0.035,0.211-0.105,0.211c-0.799,0-1.445-0.012-1.939-0.035l-2.572-0.035l-2.996,0.035
		c-0.424,0.023-0.988,0.035-1.693,0.035c-0.07,0-0.105-0.07-0.105-0.211c0-0.143,0.035-0.213,0.105-0.213
		c0.893,0,1.539-0.059,1.939-0.177c0.398-0.116,0.67-0.34,0.811-0.67c0.141-0.328,0.213-0.856,0.213-1.586v-8.146h-12.096v8.146
		c0,0.705,0.07,1.229,0.213,1.567c0.141,0.343,0.416,0.57,0.828,0.688c0.41,0.118,1.063,0.177,1.957,0.177
		c0.047,0,0.07,0.07,0.07,0.213c0,0.141-0.023,0.211-0.07,0.211c-0.799,0-1.422-0.012-1.869-0.035l-2.926-0.035l-2.575,0.035
		c-0.447,0.023-1.07,0.035-1.869,0.035c-0.047,0-0.07-0.07-0.07-0.211c0-0.143,0.022-0.213,0.07-0.213
		c0.847,0,1.469-0.059,1.869-0.177c0.399-0.116,0.67-0.346,0.812-0.688c0.141-0.34,0.211-0.862,0.211-1.567V9.467
		c0-0.705-0.07-1.222-0.211-1.551c-0.142-0.329-0.412-0.558-0.812-0.688c-0.4-0.129-1.011-0.194-1.833-0.194
		c-0.047,0-0.07-0.071-0.07-0.211c0-0.141,0.023-0.212,0.07-0.212l1.869,0.036c1.081,0.047,1.927,0.07,2.54,0.07
		c0.822,0,1.796-0.023,2.925-0.07l1.869-0.036c0.047,0,0.07,0.071,0.07,0.212c0,0.141-0.023,0.211-0.07,0.211
		c-0.871,0-1.512,0.07-1.922,0.211c-0.412,0.141-0.693,0.382-0.846,0.723c-0.154,0.341-0.23,0.864-0.23,1.569v7.193h12.096V9.538
		c0-0.705-0.07-1.228-0.213-1.569c-0.141-0.34-0.418-0.582-0.828-0.723c-0.412-0.141-1.053-0.211-1.922-0.211
		c-0.07,0-0.104-0.071-0.104-0.211c0-0.141,0.033-0.212,0.104-0.212l1.693,0.036c1.127,0.047,2.127,0.07,2.996,0.07
		c0.635,0,1.492-0.023,2.574-0.07l1.939-0.036c0.07,0,0.105,0.071,0.105,0.212c0,0.141-0.035,0.211-0.105,0.211
		c-0.846,0-1.463,0.065-1.852,0.194s-0.652,0.359-0.793,0.688c-0.143,0.33-0.213,0.846-0.213,1.551v16.326
		c0,0.705,0.07,1.229,0.213,1.568c0.141,0.342,0.404,0.57,0.793,0.688c0.389,0.118,1.006,0.176,1.852,0.176
		C435.281,28.226,435.316,28.296,435.316,28.438z"/>
	<path d="M448.732,27.538c-1.703-1.021-3.021-2.408-3.949-4.16c-0.93-1.751-1.393-3.66-1.393-5.729c0-2.421,0.611-4.496,1.834-6.224
		c1.223-1.728,2.791-3.026,4.707-3.896c1.914-0.87,3.871-1.305,5.871-1.305c2.232,0,4.195,0.523,5.889,1.569
		c1.691,1.046,2.99,2.428,3.895,4.143c0.904,1.716,1.357,3.538,1.357,5.465c0,2.14-0.564,4.103-1.691,5.889
		c-1.129,1.787-2.639,3.197-4.531,4.23c-1.893,1.035-3.943,1.552-6.152,1.552C452.38,29.072,450.435,28.562,448.732,27.538z
		 M459.556,27.081c1.117-0.764,1.998-1.887,2.646-3.368c0.646-1.481,0.969-3.243,0.969-5.289c0-2.162-0.359-4.102-1.074-5.818
		c-0.719-1.715-1.74-3.055-3.068-4.02c-1.328-0.963-2.887-1.446-4.672-1.446c-2.279,0-4.049,0.817-5.307,2.451
		c-1.258,1.634-1.887,3.896-1.887,6.788c0,2.233,0.371,4.255,1.111,6.065c0.738,1.81,1.762,3.226,3.066,4.248
		c1.303,1.021,2.779,1.533,4.424,1.533C457.177,28.226,458.441,27.844,459.556,27.081z"/>
	<path d="M481.031,27.538c-1.705-1.021-3.021-2.408-3.949-4.16c-0.93-1.751-1.395-3.66-1.395-5.729c0-2.421,0.611-4.496,1.834-6.224
		c1.223-1.728,2.791-3.026,4.707-3.896c1.916-0.87,3.873-1.305,5.871-1.305c2.232,0,4.195,0.523,5.889,1.569
		c1.691,1.046,2.99,2.428,3.896,4.143c0.904,1.716,1.357,3.538,1.357,5.465c0,2.14-0.564,4.103-1.693,5.889
		c-1.127,1.787-2.639,3.197-4.531,4.23c-1.893,1.035-3.941,1.552-6.15,1.552C484.679,29.072,482.734,28.562,481.031,27.538z
		 M491.855,27.081c1.115-0.764,1.998-1.887,2.645-3.368s0.971-3.243,0.971-5.289c0-2.162-0.359-4.102-1.076-5.818
		c-0.717-1.715-1.738-3.055-3.066-4.02C490,7.623,488.441,7.14,486.656,7.14c-2.281,0-4.051,0.817-5.309,2.451
		c-1.258,1.634-1.885,3.896-1.885,6.788c0,2.233,0.369,4.255,1.109,6.065c0.74,1.81,1.764,3.226,3.066,4.248
		c1.305,1.021,2.779,1.533,4.426,1.533C489.474,28.226,490.738,27.844,491.855,27.081z"/>
	<path d="M512.693,12.659c0.436,0.67,0.977,1.251,1.623,1.745c0.645,0.494,1.52,1.082,2.627,1.763
		c1.197,0.752,2.145,1.399,2.838,1.939c0.691,0.541,1.279,1.205,1.764,1.993c0.48,0.787,0.723,1.711,0.723,2.768
		c0,1.199-0.313,2.27-0.936,3.209c-0.623,0.941-1.504,1.676-2.645,2.203c-1.141,0.529-2.438,0.794-3.896,0.794
		c-0.986,0-2.004-0.13-3.049-0.388c-1.047-0.259-1.84-0.576-2.381-0.953c-0.211-0.141-0.33-0.363-0.354-0.67l-0.211-5.358v-0.035
		c0-0.094,0.057-0.146,0.176-0.159c0.117-0.012,0.188,0.03,0.211,0.124c0.775,1.951,1.662,3.55,2.662,4.796s2.275,1.868,3.826,1.868
		c1.01,0,1.857-0.276,2.539-0.829c0.682-0.552,1.021-1.475,1.021-2.768c0-1.034-0.229-1.939-0.688-2.715
		c-0.459-0.776-1.021-1.422-1.693-1.939c-0.67-0.517-1.58-1.151-2.73-1.904c-1.129-0.729-2.01-1.346-2.646-1.851
		c-0.635-0.505-1.176-1.128-1.621-1.869c-0.447-0.74-0.67-1.604-0.67-2.591c0-1.222,0.34-2.257,1.021-3.103s1.57-1.475,2.662-1.886
		c1.094-0.411,2.24-0.617,3.438-0.617c0.799,0,1.6,0.077,2.398,0.229c0.799,0.153,1.469,0.347,2.01,0.582
		c0.354,0.141,0.529,0.365,0.529,0.67l0.104,4.795c0,0.07-0.063,0.118-0.191,0.141c-0.131,0.023-0.207,0-0.23-0.071
		c-0.471-1.434-1.098-2.732-1.887-3.896c-0.787-1.164-1.969-1.746-3.543-1.746c-1.059,0-1.898,0.306-2.521,0.917
		c-0.623,0.611-0.934,1.445-0.934,2.503C512.041,11.219,512.257,11.989,512.693,12.659z"/>
	<path d="M546.806,23.078c0.07,0,0.137,0.019,0.193,0.054c0.059,0.035,0.088,0.064,0.088,0.088c-0.234,1.786-0.352,3.42-0.352,4.9
		c0,0.189-0.035,0.324-0.105,0.406s-0.213,0.123-0.424,0.123h-15.303c-0.07,0-0.105-0.07-0.105-0.211
		c0-0.143,0.035-0.213,0.105-0.213c0.799,0,1.381-0.059,1.746-0.177c0.363-0.116,0.609-0.346,0.738-0.688
		c0.129-0.34,0.195-0.862,0.195-1.567V9.467c0-0.705-0.066-1.222-0.195-1.551s-0.383-0.558-0.758-0.688
		c-0.377-0.129-0.951-0.194-1.729-0.194c-0.07,0-0.105-0.071-0.105-0.211c0-0.141,0.035-0.212,0.105-0.212h14.67
		c0.232,0,0.352,0.106,0.352,0.317l0.07,4.584c0,0.047-0.064,0.083-0.193,0.105c-0.129,0.024-0.207,0-0.229-0.07
		c-0.564-2.68-2.199-4.02-4.902-4.02h-1.41c-0.846,0-1.445,0.153-1.799,0.458c-0.352,0.305-0.527,0.823-0.527,1.551v7.193h3.385
		c2.586,0,3.879-0.869,3.879-2.609c0-0.071,0.063-0.106,0.193-0.106c0.129,0,0.193,0.035,0.193,0.106l-0.035,3.067l0.035,1.657
		c0.047,0.752,0.07,1.364,0.07,1.833c0,0.047-0.07,0.07-0.211,0.07c-0.143,0-0.211-0.023-0.211-0.07
		c0-2.021-1.318-3.032-3.949-3.032h-3.352v8.004c0,0.775,0.146,1.316,0.441,1.621c0.293,0.307,0.816,0.459,1.568,0.459h1.729
		c3.148,0,5.146-1.527,5.994-4.584C546.666,23.103,546.712,23.078,546.806,23.078z"/>
	<path d="M589.505,6.823c0,0.141-0.023,0.211-0.07,0.211c-0.775,0-1.656,0.405-2.645,1.216s-1.869,1.851-2.646,3.121l-4.02,6.523
		v7.899c0,0.729,0.064,1.258,0.193,1.586c0.129,0.33,0.377,0.554,0.74,0.67c0.365,0.118,0.945,0.177,1.746,0.177
		c0.07,0,0.105,0.07,0.105,0.213c0,0.141-0.035,0.211-0.105,0.211c-0.775,0-1.375-0.012-1.799-0.035l-2.574-0.035l-2.539,0.035
		c-0.471,0.023-1.092,0.035-1.867,0.035c-0.049,0-0.07-0.07-0.07-0.211c0-0.143,0.021-0.213,0.07-0.213
		c0.799,0,1.381-0.059,1.744-0.177c0.365-0.116,0.617-0.346,0.76-0.688c0.141-0.34,0.211-0.862,0.211-1.567v-7.264l-5.359-8.18
		c-0.799-1.246-1.486-2.11-2.063-2.592c-0.576-0.481-1.135-0.723-1.676-0.723c-0.068,0-0.104-0.071-0.104-0.211
		c0-0.141,0.035-0.212,0.104-0.212l1.164,0.036c0.518,0.047,0.895,0.07,1.129,0.07c0.799,0,1.928-0.023,3.385-0.07l2.188-0.036
		c0.047,0,0.07,0.071,0.07,0.212c0,0.141-0.023,0.211-0.07,0.211c-0.965,0-1.445,0.33-1.445,0.987c0,0.33,0.141,0.705,0.424,1.128
		l5.111,7.863l3.598-5.889c0.588-0.963,0.881-1.81,0.881-2.539c0-1.034-0.646-1.551-1.939-1.551c-0.047,0-0.068-0.071-0.068-0.211
		c0-0.141,0.021-0.212,0.068-0.212l1.834,0.036c0.986,0.047,1.893,0.07,2.715,0.07c0.4,0,0.883-0.023,1.445-0.07l1.305-0.036
		C589.482,6.611,589.505,6.682,589.505,6.823z"/>
	<path d="M600.595,27.538c-1.705-1.021-3.021-2.408-3.949-4.16c-0.93-1.751-1.393-3.66-1.393-5.729c0-2.421,0.611-4.496,1.834-6.224
		c1.221-1.728,2.791-3.026,4.707-3.896c1.914-0.87,3.871-1.305,5.871-1.305c2.23,0,4.195,0.523,5.887,1.569
		c1.693,1.046,2.992,2.428,3.896,4.143c0.904,1.716,1.357,3.538,1.357,5.465c0,2.14-0.564,4.103-1.691,5.889
		c-1.129,1.787-2.641,3.197-4.531,4.23c-1.895,1.035-3.943,1.552-6.152,1.552C604.246,29.072,602.298,28.562,600.595,27.538z
		 M611.419,27.081c1.117-0.764,1.998-1.887,2.646-3.368c0.646-1.481,0.969-3.243,0.969-5.289c0-2.162-0.359-4.102-1.074-5.818
		c-0.719-1.715-1.74-3.055-3.068-4.02c-1.328-0.963-2.887-1.446-4.672-1.446c-2.281,0-4.049,0.817-5.307,2.451
		c-1.258,1.634-1.887,3.896-1.887,6.788c0,2.233,0.369,4.255,1.109,6.065c0.74,1.81,1.764,3.226,3.068,4.248
		c1.303,1.021,2.779,1.533,4.424,1.533C609.041,28.226,610.302,27.844,611.419,27.081z"/>
	<path d="M645.128,8.057c-0.553-0.682-1.346-1.022-2.381-1.022c-0.047,0-0.07-0.071-0.07-0.211c0-0.141,0.023-0.212,0.07-0.212
		l1.623,0.036c0.893,0.047,1.598,0.07,2.115,0.07c0.422,0,1.057-0.023,1.902-0.07l1.553-0.036c0.047,0,0.07,0.071,0.07,0.212
		c0,0.141-0.023,0.211-0.07,0.211c-0.916,0-1.629,0.341-2.135,1.022c-0.506,0.682-0.758,1.634-0.758,2.856v9.873
		c0,1.693-0.357,3.168-1.074,4.426c-0.719,1.258-1.729,2.227-3.031,2.908c-1.307,0.682-2.816,1.021-4.531,1.021
		c-1.717,0-3.244-0.334-4.584-1.004c-1.34-0.671-2.381-1.634-3.121-2.892c-0.74-1.259-1.111-2.731-1.111-4.427V9.467
		c0-0.705-0.068-1.222-0.211-1.551c-0.141-0.329-0.395-0.558-0.758-0.688c-0.365-0.129-0.934-0.194-1.711-0.194
		c-0.07,0-0.105-0.071-0.105-0.211c0-0.141,0.035-0.212,0.105-0.212l1.834,0.036c1.035,0.047,1.869,0.07,2.504,0.07
		c0.705,0,1.574-0.023,2.609-0.07l1.764-0.036c0.07,0,0.104,0.071,0.104,0.212c0,0.141-0.033,0.211-0.104,0.211
		c-0.777,0-1.354,0.07-1.73,0.211c-0.375,0.141-0.629,0.382-0.758,0.723c-0.129,0.341-0.193,0.864-0.193,1.569v10.049
		c0,2.798,0.582,4.884,1.746,6.259c1.162,1.375,2.791,2.063,4.883,2.063c1.998,0,3.563-0.617,4.689-1.853
		c1.129-1.233,1.693-2.979,1.693-5.236v-9.907C645.958,9.691,645.679,8.739,645.128,8.057z"/>
	<path d="M680.583,28.438c0,0.141-0.037,0.211-0.107,0.211H674.8c-0.541,0-1.547-0.939-3.016-2.82s-3.25-4.514-5.342-7.899
		c-0.518,0.047-0.916,0.071-1.199,0.071c-0.518,0-1.127-0.023-1.832-0.071v7.864c0,0.729,0.063,1.258,0.191,1.586
		c0.131,0.33,0.377,0.553,0.742,0.67c0.363,0.118,0.945,0.176,1.744,0.176c0.047,0,0.07,0.071,0.07,0.213s-0.023,0.211-0.07,0.211
		c-0.773,0-1.375-0.012-1.799-0.034l-2.607-0.035l-2.539,0.035c-0.447,0.022-1.059,0.034-1.834,0.034
		c-0.07,0-0.105-0.069-0.105-0.211s0.035-0.213,0.105-0.213c0.799,0,1.381-0.058,1.746-0.176c0.363-0.117,0.617-0.346,0.758-0.688
		c0.141-0.34,0.213-0.863,0.213-1.568V9.467c0-0.705-0.066-1.222-0.195-1.551s-0.381-0.558-0.758-0.688
		c-0.377-0.129-0.951-0.194-1.729-0.194c-0.047,0-0.07-0.071-0.07-0.211c0-0.141,0.023-0.212,0.07-0.212l1.834,0.036
		c1.033,0.047,1.869,0.07,2.504,0.07c0.775,0,1.621-0.035,2.537-0.106c0.307-0.023,0.678-0.047,1.111-0.07
		c0.436-0.023,0.922-0.035,1.463-0.035c2.045,0,3.627,0.4,4.742,1.199c1.117,0.799,1.676,1.916,1.676,3.35
		c0,1.293-0.357,2.457-1.076,3.491c-0.717,1.035-1.674,1.857-2.873,2.468c1.928,2.844,3.537,5.065,4.83,6.664
		s2.439,2.757,3.439,3.474c1,0.718,1.979,1.074,2.943,1.074C680.546,28.226,680.583,28.296,680.583,28.438z M665.457,17.119
		c1.527,0,2.621-0.382,3.279-1.146c0.656-0.764,0.986-1.992,0.986-3.685c0-1.904-0.322-3.231-0.971-3.984
		c-0.645-0.752-1.58-1.128-2.803-1.128c-0.916,0-1.568,0.17-1.957,0.511s-0.582,0.958-0.582,1.851v7.44
		C663.974,17.072,664.656,17.119,665.457,17.119z"/>
	<path d="M706.056,27.538c-1.705-1.021-3.021-2.408-3.949-4.16c-0.93-1.751-1.393-3.66-1.393-5.729c0-2.421,0.611-4.496,1.834-6.224
		c1.221-1.728,2.791-3.026,4.707-3.896c1.914-0.87,3.871-1.305,5.871-1.305c2.232,0,4.195,0.523,5.887,1.569
		c1.693,1.046,2.992,2.428,3.896,4.143c0.904,1.716,1.357,3.538,1.357,5.465c0,2.14-0.564,4.103-1.691,5.889
		c-1.129,1.787-2.641,3.197-4.531,4.23c-1.893,1.035-3.943,1.552-6.152,1.552C709.707,29.072,707.759,28.562,706.056,27.538z
		 M716.88,27.081c1.117-0.764,1.998-1.887,2.646-3.368c0.646-1.481,0.969-3.243,0.969-5.289c0-2.162-0.359-4.102-1.074-5.818
		c-0.719-1.715-1.74-3.055-3.068-4.02c-1.328-0.963-2.887-1.446-4.672-1.446c-2.279,0-4.049,0.817-5.307,2.451
		c-1.258,1.634-1.887,3.896-1.887,6.788c0,2.233,0.371,4.255,1.109,6.065c0.74,1.81,1.764,3.226,3.068,4.248
		c1.303,1.021,2.779,1.533,4.424,1.533C714.501,28.226,715.763,27.844,716.88,27.081z"/>
	<path d="M747.857,11.513c0,0.047-0.064,0.083-0.193,0.105c-0.129,0.024-0.207,0-0.23-0.07c-0.563-2.68-2.197-4.02-4.9-4.02h-1.41
		c-0.846,0-1.445,0.153-1.799,0.458c-0.354,0.305-0.527,0.811-0.527,1.516v7.651h2.891c2.633,0,3.949-0.882,3.949-2.645
		c0-0.047,0.07-0.071,0.211-0.071c0.143,0,0.211,0.024,0.211,0.071l-0.035,3.103c0,0.729,0.014,1.269,0.035,1.622l0.037,1.833
		c0,0.072-0.072,0.106-0.213,0.106s-0.211-0.034-0.211-0.106c0-1.998-1.352-2.997-4.055-2.997h-2.82v7.581
		c0,0.754,0.094,1.301,0.281,1.641c0.188,0.341,0.559,0.582,1.109,0.723c0.553,0.141,1.404,0.211,2.559,0.211
		c0.045,0,0.07,0.071,0.07,0.213s-0.025,0.211-0.07,0.211c-0.965,0-1.717-0.012-2.258-0.035l-3.455-0.034l-2.574,0.034
		c-0.447,0.023-1.07,0.035-1.869,0.035c-0.07,0-0.104-0.069-0.104-0.211s0.033-0.213,0.104-0.213c0.846,0,1.463-0.058,1.854-0.176
		c0.387-0.117,0.65-0.346,0.793-0.688c0.141-0.34,0.211-0.863,0.211-1.568V9.467c0-0.705-0.064-1.222-0.193-1.551
		c-0.131-0.329-0.383-0.558-0.758-0.688c-0.377-0.129-0.953-0.194-1.73-0.194c-0.068,0-0.104-0.071-0.104-0.211
		c0-0.141,0.035-0.212,0.104-0.212h14.67c0.234,0,0.354,0.106,0.354,0.317L747.857,11.513z"/>
	<path d="M771.41,11.513c0,0.047-0.064,0.083-0.193,0.105c-0.129,0.024-0.207,0-0.229-0.07c-0.564-2.68-2.199-4.02-4.902-4.02h-1.41
		c-0.846,0-1.445,0.153-1.799,0.458c-0.354,0.305-0.527,0.811-0.527,1.516v7.651h2.891c2.633,0,3.949-0.882,3.949-2.645
		c0-0.047,0.07-0.071,0.211-0.071c0.143,0,0.213,0.024,0.213,0.071l-0.035,3.103c0,0.729,0.012,1.269,0.035,1.622l0.035,1.833
		c0,0.072-0.07,0.106-0.213,0.106c-0.141,0-0.211-0.034-0.211-0.106c0-1.998-1.352-2.997-4.055-2.997h-2.82v7.581
		c0,0.754,0.094,1.301,0.281,1.641c0.188,0.341,0.559,0.582,1.111,0.723c0.551,0.141,1.402,0.211,2.557,0.211
		c0.045,0,0.07,0.071,0.07,0.213s-0.025,0.211-0.07,0.211c-0.965,0-1.717-0.012-2.258-0.035l-3.455-0.034l-2.574,0.034
		c-0.447,0.023-1.068,0.035-1.869,0.035c-0.068,0-0.104-0.069-0.104-0.211s0.035-0.213,0.104-0.213c0.848,0,1.463-0.058,1.854-0.176
		c0.387-0.117,0.65-0.346,0.793-0.688c0.141-0.34,0.211-0.863,0.211-1.568V9.467c0-0.705-0.064-1.222-0.193-1.551
		c-0.131-0.329-0.383-0.558-0.758-0.688c-0.377-0.129-0.953-0.194-1.729-0.194c-0.07,0-0.105-0.071-0.105-0.211
		c0-0.141,0.035-0.212,0.105-0.212h14.668c0.234,0,0.354,0.106,0.354,0.317L771.41,11.513z"/>
	<path d="M795.773,23.078c0.072,0,0.137,0.019,0.195,0.054c0.057,0.035,0.088,0.064,0.088,0.088c-0.234,1.786-0.354,3.42-0.354,4.9
		c0,0.189-0.035,0.324-0.105,0.406c-0.068,0.082-0.211,0.123-0.422,0.123h-15.305c-0.07,0-0.105-0.07-0.105-0.211
		c0-0.143,0.035-0.213,0.105-0.213c0.799,0,1.381-0.059,1.746-0.177c0.363-0.116,0.609-0.346,0.74-0.688
		c0.129-0.34,0.193-0.862,0.193-1.567V9.467c0-0.705-0.064-1.222-0.193-1.551c-0.131-0.329-0.383-0.558-0.758-0.688
		c-0.377-0.129-0.953-0.194-1.729-0.194c-0.07,0-0.105-0.071-0.105-0.211c0-0.141,0.035-0.212,0.105-0.212h14.668
		c0.234,0,0.354,0.106,0.354,0.317l0.07,4.584c0,0.047-0.066,0.083-0.195,0.105c-0.129,0.024-0.205,0-0.229-0.07
		c-0.564-2.68-2.197-4.02-4.9-4.02h-1.41c-0.848,0-1.445,0.153-1.799,0.458c-0.354,0.305-0.527,0.823-0.527,1.551v7.193h3.385
		c2.584,0,3.877-0.869,3.877-2.609c0-0.071,0.064-0.106,0.193-0.106c0.131,0,0.195,0.035,0.195,0.106l-0.035,3.067l0.035,1.657
		c0.047,0.752,0.07,1.364,0.07,1.833c0,0.047-0.07,0.07-0.213,0.07c-0.141,0-0.211-0.023-0.211-0.07
		c0-2.021-1.316-3.032-3.949-3.032h-3.35v8.004c0,0.775,0.146,1.316,0.439,1.621c0.295,0.307,0.816,0.459,1.57,0.459h1.727
		c3.15,0,5.148-1.527,5.994-4.584C795.632,23.103,795.679,23.078,795.773,23.078z"/>
	<path d="M827.72,28.438c0,0.141-0.037,0.211-0.105,0.211h-5.678c-0.541,0-1.547-0.939-3.016-2.82s-3.25-4.514-5.342-7.899
		c-0.518,0.047-0.916,0.071-1.199,0.071c-0.516,0-1.127-0.023-1.832-0.071v7.864c0,0.729,0.064,1.258,0.193,1.586
		c0.129,0.33,0.375,0.553,0.74,0.67c0.363,0.118,0.945,0.176,1.744,0.176c0.047,0,0.07,0.071,0.07,0.213s-0.023,0.211-0.07,0.211
		c-0.773,0-1.375-0.012-1.799-0.034l-2.607-0.035l-2.539,0.035c-0.447,0.022-1.059,0.034-1.834,0.034
		c-0.07,0-0.105-0.069-0.105-0.211s0.035-0.213,0.105-0.213c0.799,0,1.381-0.058,1.746-0.176c0.363-0.117,0.617-0.346,0.758-0.688
		c0.141-0.34,0.213-0.863,0.213-1.568V9.467c0-0.705-0.066-1.222-0.195-1.551s-0.381-0.558-0.758-0.688
		c-0.377-0.129-0.951-0.194-1.729-0.194c-0.047,0-0.07-0.071-0.07-0.211c0-0.141,0.023-0.212,0.07-0.212l1.834,0.036
		c1.033,0.047,1.869,0.07,2.504,0.07c0.775,0,1.623-0.035,2.539-0.106c0.305-0.023,0.676-0.047,1.109-0.07
		c0.436-0.023,0.922-0.035,1.463-0.035c2.045,0,3.627,0.4,4.742,1.199c1.117,0.799,1.676,1.916,1.676,3.35
		c0,1.293-0.357,2.457-1.074,3.491c-0.719,1.035-1.676,1.857-2.875,2.468c1.928,2.844,3.537,5.065,4.83,6.664
		s2.439,2.757,3.439,3.474c1,0.718,1.979,1.074,2.943,1.074C827.683,28.226,827.72,28.296,827.72,28.438z M812.593,17.119
		c1.527,0,2.621-0.382,3.279-1.146c0.656-0.764,0.986-1.992,0.986-3.685c0-1.904-0.322-3.231-0.971-3.984
		c-0.645-0.752-1.58-1.128-2.803-1.128c-0.916,0-1.568,0.17-1.957,0.511s-0.582,0.958-0.582,1.851v7.44
		C811.113,17.072,811.792,17.119,812.593,17.119z"/>
</g>
<rect x="245.75" y="-48.529" fill="#BC0000" width="343.171" height="44.529"/>
<g>
	<path fill="#FFFFFF" d="M286.118-35.059h3.272v15.427h7.817v2.96h-11.09V-35.059z"/>
	<path fill="#FFFFFF" d="M312.042-35.059h2.831l7.921,18.387h-3.74l-1.714-4.207h-7.973l-1.662,4.207h-3.662L312.042-35.059z
		 M316.197-23.684l-2.831-7.479l-2.882,7.479H316.197z"/>
	<path fill="#FFFFFF" d="M340.356-31.111c-0.701-0.986-1.947-1.454-3.22-1.454c-1.507,0-3.013,0.675-3.013,2.363
		c0,3.688,8.726,1.584,8.726,8.129c0,3.947-3.116,5.869-6.727,5.869c-2.285,0-4.519-0.701-6.024-2.493l2.467-2.39
		c0.805,1.221,2.182,1.922,3.636,1.922c1.507,0,3.221-0.831,3.221-2.519c0-4.025-8.727-1.715-8.727-8.285
		c0-3.791,3.377-5.558,6.778-5.558c1.922,0,3.844,0.546,5.272,1.896L340.356-31.111z"/>
	<path fill="#FFFFFF" d="M356.515-32.098h-5.636v-2.961h14.544v2.961h-5.636v15.426h-3.272V-32.098z"/>
	<path fill="#FFFFFF" d="M400.96-30.748c-1.351-1.428-2.598-1.817-3.87-1.817c-3.791,0-6.311,2.908-6.311,6.57
		c0,3.922,2.52,6.83,6.311,6.83c1.48,0,2.909-0.675,4.13-2.233l2.7,1.922c-1.662,2.285-4.155,3.272-6.855,3.272
		c-5.662,0-9.713-3.844-9.713-9.583c0-5.896,4.051-9.739,9.713-9.739c2.493,0,4.622,0.806,6.44,2.909L400.96-30.748z"/>
	<path fill="#FFFFFF" d="M412.627-35.059h3.272v7.323h8.597v-7.323h3.272v18.387h-3.272v-8.103H415.9v8.103h-3.272V-35.059z"/>
	<path fill="#FFFFFF" d="M444.319-35.059h2.831l7.921,18.387h-3.74l-1.714-4.207h-7.973l-1.662,4.207h-3.662L444.319-35.059z
		 M448.474-23.684l-2.831-7.479l-2.883,7.479H448.474z"/>
	<path fill="#FFFFFF" d="M463.622-35.059h4.337l8.908,13.66h0.052v-13.66h3.272v18.387h-4.155l-9.09-14.102h-0.052v14.102h-3.272
		V-35.059z"/>
	<path fill="#FFFFFF" d="M503.416-30.748c-1.35-1.428-2.597-1.817-3.869-1.817c-3.792,0-6.311,2.908-6.311,6.57
		c0,3.922,2.519,6.83,6.311,6.83c1.48,0,2.909-0.675,4.129-2.233l2.701,1.922c-1.662,2.285-4.155,3.272-6.856,3.272
		c-5.661,0-9.713-3.844-9.713-9.583c0-5.896,4.052-9.739,9.713-9.739c2.493,0,4.623,0.806,6.441,2.909L503.416-30.748z"/>
	<path fill="#FFFFFF" d="M515.083-35.059h12.18v2.961h-8.907v4.519h8.44v2.961h-8.44v4.986h9.375v2.96h-12.647V-35.059z"/>
	<path fill="#FFFFFF" d="M539.242-20.516c1.116,0,2.077,0.857,2.077,1.974c0,1.117-0.935,2.026-2.077,2.026
		c-1.091,0-2.078-0.857-2.078-1.974C537.164-19.606,538.099-20.516,539.242-20.516z M540.799-22.438h-3.116v-12.621h3.116V-22.438z"
		/>
</g>
</svg>
