<?xml version="1.0" encoding="utf-8"?>
<!-- Generator: Adobe Illustrator 16.0.3, SVG Export Plug-In . SVG Version: 6.00 Build 0)  -->
<!DOCTYPE svg PUBLIC "-//W3C//DTD SVG 1.1//EN" "http://www.w3.org/Graphics/SVG/1.1/DTD/svg11.dtd">
<svg version="1.1" xmlns="http://www.w3.org/2000/svg" xmlns:xlink="http://www.w3.org/1999/xlink" x="0px" y="0px"
	 width="296.583px" height="40.155px" viewBox="0 0 296.583 40.155" enable-background="new 0 0 296.583 40.155"
	 xml:space="preserve">
<g id="Layer_1" display="none">
	<rect display="inline" fill="#FF0069" width="296.583" height="40.155"/>
	<g display="inline">
		<path fill="#FFFFFF" d="M162.847,13.698h8.662v2.593h-5.854v2.376h5.529v2.593h-5.529v2.593h6.176v2.593h-8.984V13.698z"/>
		<path fill="#FFFFFF" d="M173.917,13.698h2.809v10.155h5.203v2.593h-8.012V13.698z"/>
		<path fill="#FFFFFF" d="M183.169,13.698h2.809v12.748h-2.809V13.698z"/>
		<path fill="#FFFFFF" d="M190.729,16.182h-3.637v-2.484h10.082v2.484h-3.637v10.263h-2.809V16.182z"/>
		<path fill="#FFFFFF" d="M198.433,13.698h8.66v2.593h-5.852v2.376h5.527v2.593h-5.527v2.593h6.176v2.593h-8.984V13.698z"/>
		<path fill="#FFFFFF" d="M209.394,13.698h4.736c2.646,0,4.844,0.846,4.844,3.871c0,2.989-2.035,3.907-4.717,3.907h-2.053v4.969
			h-2.811V13.698z M212.204,19.099h1.871c0.99,0,1.98-0.342,1.98-1.53c0-1.314-1.332-1.495-2.412-1.495h-1.439V19.099z"/>
		<path fill="#FFFFFF" d="M220.464,13.698h4.934c2.611,0,4.807,0.9,4.807,3.871c0,1.782-0.953,3.169-2.754,3.493l3.24,5.384h-3.367
			l-2.664-5.096h-1.387v5.096h-2.809V13.698z M223.272,18.973h1.656c1.027,0,2.359-0.036,2.359-1.422
			c0-1.278-1.152-1.477-2.18-1.477h-1.836V18.973z"/>
		<path fill="#FFFFFF" d="M238.052,13.374c3.98,0,6.879,2.611,6.879,6.698c0,4.087-2.898,6.698-6.879,6.698
			c-3.979,0-6.877-2.611-6.877-6.698C231.175,15.984,234.073,13.374,238.052,13.374z M238.052,24.177
			c2.395,0,3.961-1.729,3.961-4.105c0-2.376-1.566-4.105-3.961-4.105s-3.961,1.729-3.961,4.105
			C234.091,22.448,235.657,24.177,238.052,24.177z"/>
	</g>
	<g display="inline">
		<path fill="#FFFFFF" d="M55.568,13.752h1.224L62.158,26.5h-1.333l-1.386-3.385h-6.752l-1.44,3.385h-1.243L55.568,13.752z
			 M56.126,15.049l-2.971,6.986h5.852L56.126,15.049z"/>
		<path fill="#FFFFFF" d="M63.721,13.752h3.673c1.801,0,4.105,0.703,4.105,3.367c0,2.305-1.836,3.331-3.835,3.331H64.91v6.05h-1.188
			V13.752z M64.91,19.37h2.701c1.351,0,2.701-0.576,2.701-2.251c0-1.639-1.404-2.287-2.773-2.287H64.91V19.37z"/>
		<path fill="#FFFFFF" d="M73.783,13.752h3.673c1.801,0,4.105,0.703,4.105,3.367c0,2.305-1.836,3.331-3.835,3.331h-2.754v6.05
			h-1.188V13.752z M74.971,19.37h2.701c1.351,0,2.701-0.576,2.701-2.251c0-1.639-1.404-2.287-2.773-2.287h-2.628V19.37z"/>
		<path fill="#FFFFFF" d="M83.845,13.752h1.188V25.42h5.941v1.08h-7.13V13.752z"/>
		<path fill="#FFFFFF" d="M93.403,21.008l-4.681-7.256h1.422l3.853,6.05l3.943-6.05h1.333l-4.682,7.256V26.5h-1.188V21.008z"/>
		<path fill="#FFFFFF" d="M115.545,24.501c-1.207,1.656-2.863,2.323-4.735,2.323c-3.889,0-6.59-2.809-6.59-6.698
			s2.701-6.698,6.59-6.698c1.729,0,3.277,0.576,4.393,1.999l-0.972,0.81c-0.792-1.188-2.143-1.729-3.421-1.729
			c-3.331,0-5.402,2.449-5.402,5.618s2.071,5.618,5.402,5.618c1.278,0,2.863-0.612,3.763-1.98L115.545,24.501z"/>
		<path fill="#FFFFFF" d="M123.212,13.428c3.889,0,6.59,2.809,6.59,6.698s-2.701,6.698-6.59,6.698s-6.59-2.809-6.59-6.698
			S119.323,13.428,123.212,13.428z M123.212,25.744c3.331,0,5.401-2.449,5.401-5.618s-2.07-5.618-5.401-5.618
			s-5.402,2.449-5.402,5.618S119.881,25.744,123.212,25.744z"/>
		<path fill="#FFFFFF" d="M132.03,13.752h3.943c6.626,0,6.896,5.438,6.896,6.374c0,0.937-0.271,6.374-6.896,6.374h-3.943V13.752z
			 M133.219,25.42h2.449c3.384,0,6.013-1.639,6.013-5.294c0-3.655-2.629-5.293-6.013-5.293h-2.449V25.42z"/>
		<path fill="#FFFFFF" d="M145.261,13.752h7.796v1.081h-6.608v4.538h6.194v1.08h-6.194v4.97h6.896v1.08h-8.084V13.752z"/>
		<path fill="#FFFFFF" d="M156.259,18.073c0.485,0,0.863,0.378,0.863,0.864c0,0.486-0.378,0.864-0.863,0.864
			c-0.486,0-0.865-0.378-0.865-0.864C155.394,18.452,155.772,18.073,156.259,18.073z M156.259,24.879
			c0.485,0,0.863,0.378,0.863,0.864c0,0.486-0.378,0.864-0.863,0.864c-0.486,0-0.865-0.378-0.865-0.864
			C155.394,25.258,155.772,24.879,156.259,24.879z"/>
	</g>
</g>
<g id="Layer_5">
	<rect fill="#40D31C" width="296.583" height="40.155"/>
	<g>
		<path fill="#FFFFFF" d="M163.896,13.518h8.661v2.593h-5.853v2.377h5.528v2.593h-5.528v2.593h6.176v2.593h-8.984V13.518z"/>
		<path fill="#FFFFFF" d="M174.966,13.518h2.809v10.155h5.204v2.593h-8.013V13.518z"/>
		<path fill="#FFFFFF" d="M184.219,13.518h2.809v12.748h-2.809V13.518z"/>
		<path fill="#FFFFFF" d="M191.778,16.003h-3.637v-2.485h10.083v2.485h-3.637v10.263h-2.81V16.003z"/>
		<path fill="#FFFFFF" d="M199.481,13.518h8.661v2.593h-5.853v2.377h5.528v2.593h-5.528v2.593h6.176v2.593h-8.984V13.518z"/>
		<path fill="#FFFFFF" d="M210.444,13.518h4.735c2.646,0,4.843,0.847,4.843,3.872c0,2.989-2.034,3.907-4.717,3.907h-2.053v4.97
			h-2.809V13.518z M213.253,18.92h1.872c0.99,0,1.98-0.342,1.98-1.53c0-1.314-1.332-1.495-2.412-1.495h-1.44V18.92z"/>
		<path fill="#FFFFFF" d="M221.513,13.518h4.934c2.611,0,4.808,0.9,4.808,3.872c0,1.782-0.954,3.169-2.755,3.493l3.241,5.384h-3.367
			l-2.665-5.096h-1.386v5.096h-2.81V13.518z M224.322,18.794h1.656c1.026,0,2.358-0.036,2.358-1.422
			c0-1.278-1.152-1.477-2.179-1.477h-1.836V18.794z"/>
		<path fill="#FFFFFF" d="M239.102,13.194c3.979,0,6.878,2.611,6.878,6.698c0,4.087-2.898,6.698-6.878,6.698
			s-6.878-2.611-6.878-6.698C232.224,15.805,235.122,13.194,239.102,13.194z M239.102,23.998c2.395,0,3.961-1.729,3.961-4.105
			c0-2.376-1.566-4.105-3.961-4.105s-3.961,1.729-3.961,4.105C235.141,22.269,236.707,23.998,239.102,23.998z"/>
	</g>
	<g>
		<polygon fill="#FFFFFF" points="264.5,13.039 256.912,22.423 251.458,17.959 249.352,20.533 254.821,25.01 257.395,27.117 
			259.486,24.53 267.086,15.129 		"/>
	</g>
	<g>
		<path fill="#FFFFFF" d="M43.741,24.321c-1.207,1.656-2.863,2.323-4.735,2.323c-3.889,0-6.59-2.809-6.59-6.698
			s2.701-6.698,6.59-6.698c1.729,0,3.277,0.576,4.393,1.999l-0.972,0.81c-0.792-1.188-2.143-1.729-3.421-1.729
			c-3.331,0-5.402,2.449-5.402,5.618s2.071,5.618,5.402,5.618c1.278,0,2.863-0.612,3.763-1.98L43.741,24.321z"/>
		<path fill="#FFFFFF" d="M51.407,13.248c3.889,0,6.59,2.809,6.59,6.698s-2.701,6.698-6.59,6.698s-6.59-2.809-6.59-6.698
			S47.518,13.248,51.407,13.248z M51.407,25.563c3.331,0,5.401-2.449,5.401-5.618s-2.07-5.618-5.401-5.618s-5.402,2.449-5.402,5.618
			S48.076,25.563,51.407,25.563z"/>
		<path fill="#FFFFFF" d="M60.226,13.572h3.943c6.626,0,6.896,5.438,6.896,6.374c0,0.937-0.27,6.374-6.896,6.374h-3.943V13.572z
			 M61.414,25.239h2.449c3.385,0,6.014-1.638,6.014-5.293c0-3.655-2.629-5.293-6.014-5.293h-2.449V25.239z"/>
		<path fill="#FFFFFF" d="M73.456,13.572h7.796v1.08h-6.608v4.537h6.194v1.081h-6.194v4.969h6.896v1.081h-8.084V13.572z"/>
		<path fill="#FFFFFF" d="M92.176,13.572H93.4l5.366,12.748h-1.333l-1.386-3.385h-6.752l-1.44,3.385h-1.243L92.176,13.572z
			 M92.734,14.868l-2.971,6.986h5.852L92.734,14.868z"/>
		<path fill="#FFFFFF" d="M100.329,13.572h3.673c1.801,0,4.105,0.702,4.105,3.367c0,2.305-1.836,3.331-3.835,3.331h-2.755v6.05
			h-1.188V13.572z M101.518,19.189h2.701c1.35,0,2.701-0.576,2.701-2.25c0-1.638-1.404-2.287-2.773-2.287h-2.628V19.189z"/>
		<path fill="#FFFFFF" d="M110.391,13.572h3.673c1.801,0,4.105,0.702,4.105,3.367c0,2.305-1.836,3.331-3.835,3.331h-2.754v6.05
			h-1.188V13.572z M111.58,19.189h2.701c1.351,0,2.701-0.576,2.701-2.25c0-1.638-1.404-2.287-2.773-2.287h-2.628V19.189z"/>
		<path fill="#FFFFFF" d="M120.453,13.572h1.188v11.667h5.941v1.081h-7.13V13.572z"/>
		<path fill="#FFFFFF" d="M129.183,13.572h1.188v12.748h-1.188V13.572z"/>
		<path fill="#FFFFFF" d="M133.593,13.572h7.797v1.08h-6.608v4.537h6.194v1.081h-6.194v4.969h6.896v1.081h-8.084V13.572z"/>
		<path fill="#FFFFFF" d="M143.835,13.572h3.943c6.625,0,6.896,5.438,6.896,6.374c0,0.937-0.271,6.374-6.896,6.374h-3.943V13.572z
			 M145.022,25.239h2.449c3.385,0,6.014-1.638,6.014-5.293c0-3.655-2.629-5.293-6.014-5.293h-2.449V25.239z"/>
		<path fill="#FFFFFF" d="M157.659,17.893c0.485,0,0.863,0.378,0.863,0.864c0,0.486-0.378,0.864-0.863,0.864
			c-0.486,0-0.865-0.378-0.865-0.864C156.794,18.271,157.173,17.893,157.659,17.893z M157.659,24.699
			c0.485,0,0.863,0.378,0.863,0.864c0,0.486-0.378,0.864-0.863,0.864c-0.486,0-0.865-0.378-0.865-0.864
			C156.794,25.077,157.173,24.699,157.659,24.699z"/>
	</g>
	<g>
	</g>
	<g>
	</g>
	<g>
	</g>
	<g>
	</g>
	<g>
	</g>
	<g>
	</g>
</g>
</svg>
