<?xml version="1.0" encoding="utf-8"?>
<!-- Generator: Adobe Illustrator 16.0.3, SVG Export Plug-In . SVG Version: 6.00 Build 0)  -->
<!DOCTYPE svg PUBLIC "-//W3C//DTD SVG 1.1//EN" "http://www.w3.org/Graphics/SVG/1.1/DTD/svg11.dtd">
<svg version="1.1" xmlns="http://www.w3.org/2000/svg" xmlns:xlink="http://www.w3.org/1999/xlink" x="0px" y="0px"
	 width="351.625px" height="40.155px" viewBox="0 0 351.625 40.155" enable-background="new 0 0 351.625 40.155"
	 xml:space="preserve">
<g id="Layer_1">
	<rect fill="#FF0069" width="351.625" height="40.155"/>
	<g>
		<path fill="#FFFFFF" d="M185.952,11.344h3.769v13.624h6.98v3.478h-10.749V11.344z"/>
		<path fill="#FFFFFF" d="M198.562,11.344h11.619v3.479h-7.851v3.188h7.415v3.479h-7.415v3.479h8.285v3.478h-12.054V11.344z"/>
		<path fill="#FFFFFF" d="M211.583,11.344h4.3l4.228,11.208h0.048l4.3-11.208h4.034l-7.054,17.102h-3.02L211.583,11.344z"/>
		<path fill="#FFFFFF" d="M230.063,11.344h11.619v3.479h-7.851v3.188h7.415v3.479h-7.415v3.479h8.285v3.478h-12.054V11.344z"/>
		<path fill="#FFFFFF" d="M244.92,11.344h3.769v13.624h6.98v3.478H244.92V11.344z"/>
		<path fill="#FFFFFF" d="M271.805,21.851c0,4.034-2.464,7.029-7.198,7.029c-4.758,0-7.222-2.995-7.222-7.029V11.344h3.768v10.362
			c0,2.102,1.449,3.696,3.454,3.696c1.981,0,3.431-1.594,3.431-3.696V11.344h3.768V21.851z"/>
		<path fill="#FFFFFF" d="M274.923,11.344h6.353c3.551,0,6.498,1.135,6.498,5.193c0,4.01-2.729,5.242-6.329,5.242h-2.754v6.667
			h-3.768V11.344z M278.69,18.59h2.513c1.328,0,2.657-0.459,2.657-2.053c0-1.763-1.788-2.005-3.237-2.005h-1.933V18.59z"/>
	</g>
	<g>
		<path fill="#FFFFFF" d="M40.919,12.111h1.574L49.391,28.5h-1.713l-1.782-4.352h-8.68L35.363,28.5h-1.597L40.919,12.111z
			 M41.636,13.778l-3.819,8.981h7.523L41.636,13.778z"/>
		<path fill="#FFFFFF" d="M51.409,12.111h4.722c2.315,0,5.278,0.903,5.278,4.329c0,2.963-2.361,4.283-4.931,4.283h-3.542V28.5
			h-1.528V12.111z M52.937,19.333h3.472c1.736,0,3.472-0.741,3.472-2.894c0-2.106-1.806-2.939-3.564-2.939h-3.38V19.333z"/>
		<path fill="#FFFFFF" d="M64.353,12.111h4.722c2.315,0,5.278,0.903,5.278,4.329c0,2.963-2.361,4.283-4.931,4.283H65.88V28.5h-1.528
			V12.111z M65.88,19.333h3.472c1.736,0,3.472-0.741,3.472-2.894c0-2.106-1.806-2.939-3.564-2.939h-3.38V19.333z"/>
		<path fill="#FFFFFF" d="M77.296,12.111h1.528v15h7.639V28.5h-9.167V12.111z"/>
		<path fill="#FFFFFF" d="M89.591,21.44l-6.018-9.329h1.829l4.954,7.778l5.069-7.778h1.713l-6.019,9.329v7.06h-1.528V21.44z"/>
		<path fill="#FFFFFF" d="M123.741,25.931c-1.551,2.129-3.68,2.986-6.088,2.986c-5,0-8.472-3.611-8.472-8.611
			s3.472-8.611,8.472-8.611c2.222,0,4.213,0.741,5.648,2.569l-1.25,1.042c-1.019-1.527-2.755-2.222-4.398-2.222
			c-4.282,0-6.944,3.148-6.944,7.222c0,4.074,2.662,7.222,6.944,7.222c1.644,0,3.681-0.787,4.838-2.546L123.741,25.931z"/>
		<path fill="#FFFFFF" d="M133.606,11.695c5,0,8.472,3.611,8.472,8.611s-3.472,8.611-8.472,8.611c-5,0-8.472-3.611-8.472-8.611
			S128.607,11.695,133.606,11.695z M133.606,27.528c4.283,0,6.944-3.148,6.944-7.222c0-4.074-2.662-7.222-6.944-7.222
			c-4.282,0-6.944,3.148-6.944,7.222C126.663,24.38,129.324,27.528,133.606,27.528z"/>
		<path fill="#FFFFFF" d="M144.955,12.111h5.069c8.518,0,8.865,6.991,8.865,8.194s-0.347,8.194-8.865,8.194h-5.069V12.111z
			 M146.483,27.111h3.148c4.352,0,7.731-2.106,7.731-6.806c0-4.699-3.379-6.805-7.731-6.805h-3.148V27.111z"/>
		<path fill="#FFFFFF" d="M161.974,12.111h10.023V13.5h-8.495v5.833h7.963v1.389h-7.963v6.389h8.866V28.5h-10.394V12.111z"/>
		<path fill="#FFFFFF" d="M176.121,17.667c0.625,0,1.111,0.486,1.111,1.111s-0.486,1.111-1.111,1.111s-1.111-0.486-1.111-1.111
			S175.496,17.667,176.121,17.667z M176.121,26.417c0.625,0,1.111,0.486,1.111,1.111s-0.486,1.111-1.111,1.111
			s-1.111-0.486-1.111-1.111S175.496,26.417,176.121,26.417z"/>
	</g>
	<g>
		<path fill="#FFFFFF" d="M306.44,28.77h-3.363c-0.235,0-0.425-0.19-0.425-0.425v-7.577c0-0.235,0.189-0.425,0.425-0.425h3.363
			c0.235,0,0.425,0.19,0.425,0.425v7.577C306.865,28.58,306.676,28.77,306.44,28.77z"/>
		<path fill="#FFFFFF" d="M312.13,28.77h-3.365c-0.233,0-0.425-0.19-0.425-0.425v-10.21c0-0.235,0.191-0.425,0.425-0.425h3.365
			c0.233,0,0.424,0.19,0.424,0.425v10.21C312.554,28.58,312.363,28.77,312.13,28.77z"/>
		<path fill="#FFFFFF" d="M317.816,28.77h-3.363c-0.234,0-0.425-0.19-0.425-0.425V15.238c0-0.234,0.19-0.425,0.425-0.425h3.363
			c0.236,0,0.426,0.19,0.426,0.425v13.107C318.242,28.58,318.053,28.77,317.816,28.77z"/>
		<path fill="#FFFFFF" d="M326.266,11.122l-4.179-4.179c-0.146-0.145-0.381-0.145-0.527,0l-4.178,4.179
			c-0.235,0.234-0.069,0.635,0.263,0.635h2.072v16.641c0,0.206,0.167,0.372,0.372,0.372h3.469c0.206,0,0.372-0.167,0.372-0.372
			V11.757h2.072C326.334,11.757,326.5,11.356,326.266,11.122z"/>
	</g>
</g>
<g id="Layer_5" display="none">
	<rect display="inline" fill="#40D31C" width="351.625" height="40.155"/>
	<g display="inline">
		<path fill="#FFFFFF" d="M247.631,10.344h11.619v3.479h-7.851v3.188h7.415v3.479h-7.415v3.479h8.285v3.478h-12.054V10.344z"/>
		<path fill="#FFFFFF" d="M262.487,10.344h3.769v13.624h6.98v3.478h-10.749V10.344z"/>
		<path fill="#FFFFFF" d="M274.904,10.344h3.769v17.102h-3.769V10.344z"/>
		<path fill="#FFFFFF" d="M285.05,13.677h-4.879v-3.333h13.526v3.333h-4.879v13.768h-3.769V13.677z"/>
		<path fill="#FFFFFF" d="M295.39,10.344h11.619v3.479h-7.851v3.188h7.415v3.479h-7.415v3.479h8.285v3.478H295.39V10.344z"/>
	</g>
	<g display="inline">
		<path fill="#FFFFFF" d="M15.592,13.337h4.081c2,0,4.561,0.78,4.561,3.741c0,2.561-2.04,3.701-4.261,3.701h-3.061V27.5h-1.32
			V13.337z M16.913,19.578h3c1.5,0,3.001-0.64,3.001-2.5c0-1.82-1.561-2.541-3.081-2.541h-2.92V19.578z"/>
		<path fill="#FFFFFF" d="M26.772,13.337h3.721c1.12,0,5.041,0,5.041,3.721c0,2.701-2.06,3.441-3.621,3.641l4.121,6.801h-1.5
			l-3.981-6.722h-2.46V27.5h-1.32V13.337z M28.093,19.578h2.801c2.78,0,3.32-1.54,3.32-2.521c0-0.98-0.54-2.521-3.32-2.521h-2.801
			V19.578z"/>
		<path fill="#FFFFFF" d="M44.733,12.977c4.321,0,7.322,3.121,7.322,7.441s-3.001,7.441-7.322,7.441s-7.322-3.121-7.322-7.441
			S40.413,12.977,44.733,12.977z M44.733,26.66c3.701,0,6.001-2.72,6.001-6.241c0-3.521-2.301-6.241-6.001-6.241
			s-6.001,2.721-6.001,6.241C38.732,23.939,41.033,26.66,44.733,26.66z"/>
		<path fill="#FFFFFF" d="M54.572,13.337h1.98l5.161,11.883l5.161-11.883h1.88V27.5h-1.32V15.018h-0.04L61.994,27.5h-0.581
			l-5.481-12.482h-0.04V27.5h-1.32V13.337z"/>
		<path fill="#FFFFFF" d="M78.593,12.977c4.321,0,7.322,3.121,7.322,7.441s-3.001,7.441-7.322,7.441s-7.322-3.121-7.322-7.441
			S74.272,12.977,78.593,12.977z M78.593,26.66c3.701,0,6.001-2.72,6.001-6.241c0-3.521-2.301-6.241-6.001-6.241
			s-6.001,2.721-6.001,6.241C72.592,23.939,74.893,26.66,78.593,26.66z"/>
		<path fill="#FFFFFF" d="M105.135,25.279c-1.34,1.841-3.181,2.581-5.261,2.581c-4.321,0-7.322-3.121-7.322-7.441
			s3.001-7.441,7.322-7.441c1.92,0,3.641,0.64,4.881,2.22l-1.08,0.9c-0.88-1.32-2.38-1.92-3.801-1.92
			c-3.701,0-6.001,2.721-6.001,6.241c0,3.521,2.301,6.241,6.001,6.241c1.42,0,3.181-0.68,4.181-2.2L105.135,25.279z"/>
		<path fill="#FFFFFF" d="M113.653,12.977c4.321,0,7.322,3.121,7.322,7.441s-3.001,7.441-7.322,7.441s-7.322-3.121-7.322-7.441
			S109.333,12.977,113.653,12.977z M113.653,26.66c3.701,0,6.001-2.72,6.001-6.241c0-3.521-2.301-6.241-6.001-6.241
			s-6.001,2.721-6.001,6.241C107.652,23.939,109.953,26.66,113.653,26.66z"/>
		<path fill="#FFFFFF" d="M123.452,13.337h4.381c7.362,0,7.662,6.042,7.662,7.082s-0.3,7.082-7.662,7.082h-4.381V13.337z
			 M124.772,26.3h2.721c3.761,0,6.681-1.82,6.681-5.881s-2.92-5.881-6.681-5.881h-2.721V26.3z"/>
		<path fill="#FFFFFF" d="M138.152,13.337h8.662v1.2h-7.341v5.041h6.881v1.2h-6.881V26.3h7.662v1.2h-8.982V13.337z"/>
		<path fill="#FFFFFF" d="M158.953,13.337h1.36l5.961,14.163h-1.48l-1.541-3.761h-7.501l-1.6,3.761h-1.38L158.953,13.337z
			 M159.573,14.777l-3.301,7.762h6.501L159.573,14.777z"/>
		<path fill="#FFFFFF" d="M168.012,13.337h4.081c2,0,4.561,0.78,4.561,3.741c0,2.561-2.04,3.701-4.261,3.701h-3.061V27.5h-1.32
			V13.337z M169.332,19.578h3c1.5,0,3.001-0.64,3.001-2.5c0-1.82-1.561-2.541-3.081-2.541h-2.92V19.578z"/>
		<path fill="#FFFFFF" d="M179.192,13.337h4.081c2,0,4.561,0.78,4.561,3.741c0,2.561-2.04,3.701-4.261,3.701h-3.061V27.5h-1.32
			V13.337z M180.512,19.578h3c1.5,0,3.001-0.64,3.001-2.5c0-1.82-1.561-2.541-3.081-2.541h-2.92V19.578z"/>
		<path fill="#FFFFFF" d="M190.372,13.337h1.32V26.3h6.601v1.2h-7.921V13.337z"/>
		<path fill="#FFFFFF" d="M200.072,13.337h1.32V27.5h-1.32V13.337z"/>
		<path fill="#FFFFFF" d="M204.972,13.337h8.661v1.2h-7.341v5.041h6.882v1.2h-6.882V26.3h7.661v1.2h-8.981V13.337z"/>
		<path fill="#FFFFFF" d="M216.352,13.337h4.381c7.361,0,7.661,6.042,7.661,7.082s-0.3,7.082-7.661,7.082h-4.381V13.337z
			 M217.672,26.3h2.721c3.76,0,6.682-1.82,6.682-5.881s-2.922-5.881-6.682-5.881h-2.721V26.3z"/>
		<path fill="#FFFFFF" d="M232.119,16.667c0.625,0,1.111,0.486,1.111,1.111s-0.486,1.111-1.111,1.111s-1.111-0.486-1.111-1.111
			S231.494,16.667,232.119,16.667z M232.119,25.417c0.625,0,1.111,0.486,1.111,1.111s-0.486,1.111-1.111,1.111
			s-1.111-0.486-1.111-1.111S231.494,25.417,232.119,25.417z"/>
	</g>
	<g display="inline">
		<polygon fill="#FFFFFF" points="333.249,13.039 325.661,22.423 320.207,17.959 318.101,20.533 323.57,25.01 326.144,27.117 
			328.235,24.53 335.835,15.129 		"/>
	</g>
</g>
</svg>
