<?xml version="1.0" encoding="utf-8"?>
<!-- Generator: Adobe Illustrator 16.0.3, SVG Export Plug-In . SVG Version: 6.00 Build 0)  -->
<!DOCTYPE svg PUBLIC "-//W3C//DTD SVG 1.1//EN" "http://www.w3.org/Graphics/SVG/1.1/DTD/svg11.dtd">
<svg version="1.1" id="Layer_1" xmlns="http://www.w3.org/2000/svg" xmlns:xlink="http://www.w3.org/1999/xlink" x="0px" y="0px"
	 width="753.703px" height="236.698px" viewBox="0 0 753.703 236.698" enable-background="new 0 0 753.703 236.698"
	 xml:space="preserve">
<g>
	<path fill="#FFFFFF" d="M37.063,162.573c2.194,0.889,4.335,2.143,6.425,3.762c0.574,0.47,1.07,0.705,1.489,0.705
		c1.044,0,1.724-1.567,2.037-4.701h1.802c-0.209,3.396-0.313,9.402-0.313,18.021H46.7c-0.575-3.395-1.097-5.838-1.567-7.326
		s-1.254-2.911-2.351-4.271c-1.567-2.037-3.565-3.565-5.994-4.583c-2.429-1.02-5.054-1.529-7.875-1.529
		c-3.396,0-6.36,1.125-8.894,3.37c-2.534,2.247-4.505,5.446-5.916,9.599c-1.41,4.152-2.115,9.024-2.115,14.613
		c0,5.694,0.756,10.578,2.272,14.652c1.515,4.074,3.617,7.17,6.308,9.285c2.69,2.116,5.732,3.174,9.129,3.174
		c2.611,0,5.145-0.496,7.601-1.488c2.455-0.992,4.388-2.48,5.798-4.467c1.044-1.462,1.802-3.029,2.272-4.701
		c0.47-1.672,0.914-4.231,1.332-7.68h1.802c0,8.986,0.104,15.254,0.313,18.807h-1.802c-0.157-1.672-0.379-2.86-0.666-3.566
		c-0.288-0.705-0.693-1.057-1.214-1.057c-0.419,0-0.967,0.209-1.646,0.627c-2.351,1.672-4.597,2.938-6.739,3.8
		c-2.143,0.862-4.728,1.293-7.757,1.293c-4.963,0-9.312-1.123-13.046-3.37c-3.735-2.244-6.634-5.496-8.697-9.755
		c-2.064-4.257-3.095-9.337-3.095-15.24c0-5.745,1.058-10.839,3.173-15.279c2.116-4.439,5.066-7.888,8.854-10.343
		c3.787-2.455,8.083-3.684,12.89-3.684C32.205,161.241,34.869,161.687,37.063,162.573z"/>
	<path fill="#FFFFFF" d="M101.901,164.532c-0.862,0.314-1.45,0.915-1.763,1.803c-0.313,0.889-0.47,2.324-0.47,4.31v38.864
		c0,1.986,0.157,3.422,0.47,4.311s0.901,1.488,1.763,1.802s2.233,0.522,4.114,0.627v1.567c-2.194-0.157-5.538-0.235-10.03-0.235
		c-4.231,0-7.549,0.078-9.951,0.235v-1.567c1.88-0.104,3.252-0.313,4.114-0.627s1.45-0.913,1.763-1.802
		c0.313-0.889,0.47-2.324,0.47-4.311v-18.805H66.915v18.805c0,1.986,0.157,3.422,0.47,4.311s0.901,1.488,1.763,1.802
		s2.233,0.522,4.114,0.627v1.567c-2.403-0.157-5.72-0.235-9.951-0.235c-4.494,0-7.836,0.078-10.03,0.235v-1.567
		c1.88-0.104,3.252-0.313,4.114-0.627s1.45-0.913,1.763-1.802c0.313-0.889,0.47-2.324,0.47-4.311v-38.864
		c0-1.985-0.157-3.421-0.47-4.31c-0.313-0.888-0.901-1.488-1.763-1.803c-0.862-0.313-2.233-0.521-4.114-0.627v-1.566
		c2.194,0.156,5.536,0.234,10.03,0.234c4.178,0,7.495-0.078,9.951-0.234v1.566c-1.881,0.105-3.252,0.314-4.114,0.627
		c-0.862,0.314-1.45,0.915-1.763,1.803c-0.313,0.889-0.47,2.324-0.47,4.31v18.492h25.466v-18.492c0-1.985-0.157-3.421-0.47-4.31
		c-0.313-0.888-0.901-1.488-1.763-1.803c-0.862-0.313-2.233-0.521-4.114-0.627v-1.566c2.402,0.156,5.72,0.234,9.951,0.234
		c4.492,0,7.836-0.078,10.03-0.234v1.566C104.134,164.011,102.763,164.22,101.901,164.532z"/>
	<path fill="#FFFFFF" d="M146.878,164.61c3.734,2.247,6.633,5.499,8.697,9.756c2.063,4.258,3.095,9.338,3.095,15.24
		c0,5.747-1.058,10.84-3.173,15.279c-2.116,4.441-5.067,7.889-8.854,10.344c-3.788,2.455-8.084,3.683-12.89,3.683
		c-4.963,0-9.312-1.123-13.046-3.37c-3.735-2.244-6.634-5.496-8.697-9.755c-2.064-4.257-3.095-9.337-3.095-15.24
		c0-5.745,1.058-10.839,3.173-15.279c2.116-4.439,5.066-7.888,8.854-10.343c3.787-2.455,8.083-3.684,12.89-3.684
		C138.793,161.241,143.143,162.366,146.878,164.61z M124.703,166.139c-2.535,2.325-4.494,5.577-5.877,9.755
		c-1.385,4.181-2.076,8.961-2.076,14.34c0,5.434,0.77,10.213,2.311,14.34c1.541,4.127,3.617,7.313,6.229,9.559
		c2.611,2.247,5.537,3.369,8.776,3.369c3.342,0,6.281-1.161,8.815-3.486c2.533-2.324,4.492-5.576,5.876-9.756
		c1.383-4.178,2.077-8.958,2.077-14.339c0-5.433-0.771-10.212-2.312-14.339c-1.542-4.126-3.618-7.313-6.229-9.56
		c-2.613-2.245-5.538-3.37-8.776-3.37C130.174,162.651,127.236,163.815,124.703,166.139z"/>
	<path fill="#FFFFFF" d="M201.022,164.61c3.734,2.247,6.633,5.499,8.697,9.756c2.063,4.258,3.095,9.338,3.095,15.24
		c0,5.747-1.058,10.84-3.173,15.279c-2.116,4.441-5.067,7.889-8.854,10.344c-3.788,2.455-8.084,3.683-12.89,3.683
		c-4.963,0-9.312-1.123-13.046-3.37c-3.735-2.244-6.634-5.496-8.697-9.755c-2.064-4.257-3.095-9.337-3.095-15.24
		c0-5.745,1.058-10.839,3.173-15.279c2.116-4.439,5.066-7.888,8.854-10.343c3.787-2.455,8.083-3.684,12.89-3.684
		C192.938,161.241,197.287,162.366,201.022,164.61z M178.847,166.139c-2.535,2.325-4.494,5.577-5.877,9.755
		c-1.385,4.181-2.076,8.961-2.076,14.34c0,5.434,0.77,10.213,2.311,14.34c1.541,4.127,3.617,7.313,6.229,9.559
		c2.611,2.247,5.537,3.369,8.776,3.369c3.342,0,6.281-1.161,8.815-3.486c2.533-2.324,4.492-5.576,5.876-9.756
		c1.383-4.178,2.077-8.958,2.077-14.339c0-5.433-0.771-10.212-2.312-14.339c-1.542-4.126-3.618-7.313-6.229-9.56
		c-2.613-2.245-5.538-3.37-8.776-3.37C184.318,162.651,181.38,163.815,178.847,166.139z"/>
	<path fill="#FFFFFF" d="M238.554,162.222c1.332,0.496,2.704,1.214,4.114,2.154c1.148,0.732,2.037,1.097,2.664,1.097
		c0.47,0,0.835-0.274,1.097-0.823c0.261-0.548,0.47-1.422,0.627-2.624h1.802c-0.262,3.03-0.392,8.358-0.392,15.984h-1.802
		c-0.313-4.231-1.528-7.796-3.644-10.695s-5.185-4.349-9.207-4.349c-2.821,0-5.12,0.85-6.896,2.547
		c-1.776,1.697-2.664,3.878-2.664,6.542c0,1.985,0.457,3.71,1.371,5.172c0.914,1.463,2.077,2.716,3.487,3.761
		c1.411,1.046,3.421,2.378,6.034,3.996l2.272,1.41c3.291,2.037,5.889,3.828,7.797,5.367c1.906,1.542,3.434,3.305,4.583,5.289
		c1.148,1.986,1.724,4.311,1.724,6.975c0,4.754-1.567,8.424-4.702,11.009c-3.134,2.586-7.104,3.879-11.91,3.879
		c-2.507,0-4.558-0.263-6.151-0.784c-1.594-0.521-3.122-1.227-4.584-2.115c-1.149-0.73-2.037-1.098-2.664-1.098
		c-0.47,0-0.836,0.275-1.097,0.823c-0.262,0.549-0.47,1.425-0.627,2.625h-1.802c0.208-2.872,0.313-9.141,0.313-18.806h1.802
		c0.365,5.277,1.671,9.56,3.917,12.851c2.246,3.291,5.693,4.937,10.343,4.937c2.821,0,5.223-0.874,7.209-2.625
		c1.984-1.75,2.978-4.349,2.978-7.797c0-2.924-0.979-5.406-2.938-7.443s-5.054-4.336-9.285-6.896
		c-3.083-1.88-5.577-3.552-7.483-5.015c-1.907-1.462-3.461-3.225-4.662-5.289c-1.202-2.063-1.802-4.479-1.802-7.248
		c0-4.388,1.411-7.744,4.231-10.068s6.32-3.487,10.5-3.487C235.407,161.477,237.222,161.726,238.554,162.222z"/>
	<path fill="#FFFFFF" d="M295.401,217.815c-3.553-0.157-9.534-0.235-17.944-0.235c-10.029,0-17.604,0.078-22.723,0.235v-1.567
		c1.88-0.104,3.252-0.313,4.114-0.627s1.45-0.913,1.763-1.802c0.313-0.889,0.47-2.324,0.47-4.311v-38.864
		c0-1.985-0.157-3.421-0.47-4.31c-0.313-0.888-0.901-1.488-1.763-1.803c-0.862-0.313-2.233-0.521-4.114-0.627v-1.566
		c5.119,0.156,12.694,0.234,22.723,0.234c7.679,0,13.137-0.078,16.376-0.234c-0.366,3.447-0.548,6.53-0.548,9.246
		c0,2.037,0.079,3.656,0.235,4.857h-1.802c-0.366-3.395-0.836-5.916-1.411-7.561c-0.575-1.646-1.542-2.848-2.899-3.605
		c-1.359-0.756-3.422-1.136-6.19-1.136h-6.503c-1.881,0-3.252,0.145-4.114,0.431c-0.862,0.288-1.45,0.876-1.763,1.764
		c-0.313,0.889-0.47,2.324-0.47,4.31v18.492h5.172c1.828,0,3.238-0.431,4.231-1.293c0.992-0.862,1.658-1.881,1.998-3.056
		c0.339-1.176,0.614-2.65,0.823-4.428l0.235-1.566h1.802c-0.157,2.193-0.235,4.649-0.235,7.365v3.761
		c0,2.664,0.157,6.374,0.47,11.127h-1.802c-0.053-0.365-0.209-1.632-0.47-3.8c-0.262-2.168-0.979-3.801-2.155-4.898
		c-1.175-1.097-2.809-1.645-4.897-1.645h-5.172v18.805c0,1.986,0.157,3.422,0.47,4.311s0.901,1.477,1.763,1.762
		c0.862,0.289,2.233,0.432,4.114,0.432h5.72c3.238,0,5.707-0.432,7.405-1.293c1.697-0.861,2.938-2.245,3.722-4.152
		c0.783-1.906,1.357-4.714,1.724-8.424h1.802c-0.157,1.41-0.235,3.291-0.235,5.642C294.853,210.763,295.035,214.106,295.401,217.815
		z"/>
	<path fill="#FFFFFF" d="M354.325,162.339v1.566c-1.046,0.263-2.064,0.929-3.056,1.998c-0.993,1.072-2.064,2.73-3.212,4.977
		l-12.302,24.369v14.26c0,1.986,0.157,3.422,0.47,4.311s0.901,1.488,1.763,1.802s2.233,0.522,4.114,0.627v1.567
		c-2.403-0.157-5.72-0.235-9.951-0.235c-4.494,0-7.836,0.078-10.03,0.235v-1.567c1.88-0.104,3.252-0.313,4.114-0.627
		s1.45-0.913,1.763-1.802c0.313-0.889,0.47-2.324,0.47-4.311v-11.753l-15.906-29.384c-0.94-1.724-1.763-2.886-2.468-3.486
		s-1.398-0.902-2.076-0.902v-1.645c2.037,0.156,4.335,0.234,6.895,0.234c5.066,0,8.724-0.078,10.97-0.234v1.645
		c-3.657,0-5.485,0.994-5.485,2.979c0,0.783,0.261,1.697,0.784,2.742l13.007,24.996l10.03-19.902
		c1.41-2.769,2.115-5.016,2.115-6.739c0-1.462-0.575-2.507-1.724-3.134c-1.15-0.627-2.874-0.967-5.171-1.02v-1.566
		c2.978,0.156,5.98,0.234,9.011,0.234C350.799,162.573,352.758,162.495,354.325,162.339z"/>
	<path fill="#FFFFFF" d="M390.956,164.61c3.733,2.247,6.634,5.499,8.697,9.756c2.063,4.258,3.095,9.338,3.095,15.24
		c0,5.747-1.057,10.84-3.173,15.279c-2.116,4.441-5.067,7.889-8.854,10.344c-3.788,2.455-8.084,3.683-12.89,3.683
		c-4.963,0-9.312-1.123-13.046-3.37c-3.735-2.244-6.634-5.496-8.697-9.755c-2.064-4.257-3.095-9.337-3.095-15.24
		c0-5.745,1.058-10.839,3.173-15.279c2.116-4.439,5.066-7.888,8.854-10.343c3.787-2.455,8.083-3.684,12.89-3.684
		C382.872,161.241,387.221,162.366,390.956,164.61z M368.781,166.139c-2.535,2.325-4.494,5.577-5.877,9.755
		c-1.385,4.181-2.076,8.961-2.076,14.34c0,5.434,0.77,10.213,2.311,14.34c1.541,4.127,3.617,7.313,6.229,9.559
		c2.611,2.247,5.537,3.369,8.776,3.369c3.342,0,6.281-1.161,8.815-3.486c2.533-2.324,4.492-5.576,5.876-9.756
		c1.383-4.178,2.077-8.958,2.077-14.339c0-5.433-0.771-10.212-2.312-14.339c-1.542-4.126-3.618-7.313-6.229-9.56
		c-2.613-2.245-5.538-3.37-8.776-3.37C374.252,162.651,371.314,163.815,368.781,166.139z"/>
	<path fill="#FFFFFF" d="M453.837,163.905c-1.829,0.105-3.187,0.38-4.074,0.823c-0.89,0.444-1.489,1.175-1.802,2.194
		c-0.314,1.018-0.471,2.521-0.471,4.505v23.585c0,3.762-0.248,6.988-0.744,9.678c-0.497,2.691-1.32,5.002-2.469,6.935
		c-1.307,2.247-3.226,4.022-5.759,5.328c-2.534,1.306-5.395,1.959-8.58,1.959c-5.747,0-10.135-1.411-13.164-4.231
		c-2.3-2.141-3.839-4.57-4.623-7.287c-0.783-2.715-1.175-6.764-1.175-12.145v-24.604c0-1.985-0.157-3.421-0.471-4.31
		c-0.313-0.888-0.9-1.488-1.763-1.803c-0.862-0.313-2.233-0.521-4.114-0.627v-1.566c2.194,0.156,5.537,0.234,10.029,0.234
		c4.232,0,7.549-0.078,9.952-0.234v1.566c-1.881,0.105-3.252,0.314-4.114,0.627c-0.861,0.314-1.449,0.915-1.763,1.803
		c-0.313,0.889-0.47,2.324-0.47,4.31v25.937c0,4.18,0.286,7.652,0.861,10.421c0.574,2.769,1.764,4.989,3.565,6.66
		c1.802,1.673,4.452,2.507,7.953,2.507c5.536,0,9.429-1.775,11.675-5.328c2.246-3.551,3.369-8.541,3.369-14.966v-24.447
		c0-2.821-0.509-4.753-1.527-5.798s-2.887-1.619-5.603-1.725v-1.566c1.88,0.156,4.544,0.234,7.992,0.234
		c3.134,0,5.563-0.078,7.287-0.234V163.905z"/>
	<path fill="#FFFFFF" d="M503.75,213.897c-1.203,1.776-2.404,3.056-3.605,3.84c-1.201,0.783-2.795,1.175-4.779,1.175
		c-2.143,0-3.906-0.627-5.289-1.881c-1.385-1.253-2.417-3.448-3.096-6.582l-1.723-7.835c-0.627-2.716-1.215-4.807-1.764-6.27
		c-0.549-1.461-1.371-2.637-2.469-3.525c-1.096-0.888-2.638-1.332-4.623-1.332h-7.443v18.021c0,1.986,0.156,3.422,0.471,4.311
		c0.313,0.889,0.9,1.488,1.763,1.802s2.233,0.522,4.114,0.627v1.567c-2.404-0.157-5.721-0.235-9.951-0.235
		c-4.494,0-7.836,0.078-10.03,0.235v-1.567c1.88-0.104,3.252-0.313,4.114-0.627c0.861-0.313,1.449-0.913,1.762-1.802
		c0.314-0.889,0.471-2.324,0.471-4.311v-38.864c0-1.985-0.156-3.421-0.471-4.31c-0.313-0.888-0.9-1.488-1.762-1.803
		c-0.862-0.313-2.234-0.521-4.114-0.627v-1.566c2.194,0.156,5.38,0.234,9.56,0.234l8.463-0.078c0.991-0.051,2.115-0.078,3.369-0.078
		c6.059,0,10.721,1.268,13.986,3.801c3.264,2.533,4.897,5.812,4.897,9.833c0,2.038-0.483,4.089-1.45,6.151
		c-0.967,2.064-2.586,3.918-4.857,5.563c-2.272,1.646-5.238,2.756-8.894,3.33l0.94,0.157c3.447,0.575,5.955,1.62,7.521,3.134
		c1.567,1.516,2.716,3.918,3.448,7.209l1.958,7.992c0.522,2.404,1.07,4.075,1.646,5.016c0.574,0.939,1.357,1.41,2.351,1.41
		c0.888,0,1.632-0.234,2.233-0.705c0.6-0.471,1.293-1.227,2.076-2.272L503.75,213.897z M471.113,164.454
		c-0.811,0.366-1.371,1.019-1.684,1.959c-0.314,0.94-0.471,2.351-0.471,4.231v19.275h5.25c5.172,0,8.723-1.148,10.656-3.448
		c1.932-2.297,2.899-5.484,2.899-9.559c0-4.283-1.019-7.522-3.056-9.717c-2.037-2.193-5.355-3.291-9.951-3.291
		C473.138,163.905,471.924,164.089,471.113,164.454z"/>
	<path fill="#FFFFFF" d="M555.66,164.61c3.734,2.247,6.633,5.499,8.697,9.756c2.063,4.258,3.096,9.338,3.096,15.24
		c0,5.747-1.059,10.84-3.174,15.279c-2.115,4.441-5.067,7.889-8.854,10.344c-3.788,2.455-8.084,3.683-12.89,3.683
		c-4.963,0-9.313-1.123-13.047-3.37c-3.734-2.244-6.634-5.496-8.697-9.755c-2.064-4.257-3.095-9.337-3.095-15.24
		c0-5.745,1.058-10.839,3.173-15.279c2.116-4.439,5.066-7.888,8.855-10.343c3.786-2.455,8.082-3.684,12.889-3.684
		C547.576,161.241,551.925,162.366,555.66,164.61z M533.485,166.139c-2.534,2.325-4.493,5.577-5.877,9.755
		c-1.385,4.181-2.076,8.961-2.076,14.34c0,5.434,0.771,10.213,2.312,14.34c1.54,4.127,3.616,7.313,6.229,9.559
		c2.611,2.247,5.537,3.369,8.776,3.369c3.343,0,6.28-1.161,8.815-3.486c2.533-2.324,4.492-5.576,5.877-9.756
		c1.383-4.178,2.076-8.958,2.076-14.339c0-5.433-0.771-10.212-2.312-14.339c-1.542-4.126-3.618-7.313-6.229-9.56
		c-2.613-2.245-5.537-3.37-8.775-3.37C538.957,162.651,536.018,163.815,533.485,166.139z"/>
	<path fill="#FFFFFF" d="M608.903,172.368c0,2.613,0.079,4.754,0.235,6.426h-1.803c-0.418-4.022-0.939-7.014-1.566-8.973
		s-1.725-3.395-3.291-4.309c-1.567-0.914-3.971-1.372-7.209-1.372h-4.937c-1.881,0-3.252,0.145-4.114,0.431
		c-0.861,0.288-1.449,0.876-1.763,1.764c-0.313,0.889-0.47,2.324-0.47,4.31v19.275h5.72c1.828,0,3.238-0.431,4.231-1.293
		c0.992-0.862,1.658-1.88,1.998-3.056c0.339-1.176,0.613-2.65,0.822-4.428l0.235-1.566h1.802c-0.156,2.193-0.234,4.65-0.234,7.365
		v3.762c0,2.664,0.156,6.373,0.47,11.126h-1.802c-0.053-0.364-0.209-1.632-0.471-3.8s-0.979-3.801-2.154-4.897
		s-2.809-1.646-4.897-1.646h-5.72v18.021c0,1.986,0.208,3.422,0.627,4.311c0.417,0.889,1.148,1.488,2.193,1.802
		s2.742,0.522,5.094,0.627v1.567c-2.717-0.157-6.557-0.235-11.519-0.235c-4.493,0-7.836,0.078-10.03,0.235v-1.567
		c1.881-0.104,3.252-0.313,4.114-0.627s1.45-0.913,1.763-1.802c0.313-0.889,0.471-2.324,0.471-4.311v-38.864
		c0-1.985-0.157-3.421-0.471-4.31c-0.313-0.888-0.9-1.488-1.763-1.803c-0.862-0.313-2.233-0.521-4.114-0.627v-1.566
		c5.119,0.156,12.694,0.234,22.724,0.234c7.679,0,13.138-0.078,16.376-0.234C609.086,166.048,608.903,169.391,608.903,172.368z"/>
	<path fill="#FFFFFF" d="M649.569,172.368c0,2.613,0.079,4.754,0.235,6.426h-1.803c-0.418-4.022-0.939-7.014-1.566-8.973
		s-1.725-3.395-3.291-4.309c-1.567-0.914-3.971-1.372-7.209-1.372h-4.937c-1.881,0-3.252,0.145-4.114,0.431
		c-0.861,0.288-1.449,0.876-1.763,1.764c-0.313,0.889-0.47,2.324-0.47,4.31v19.275h5.72c1.828,0,3.238-0.431,4.231-1.293
		c0.992-0.862,1.658-1.88,1.998-3.056c0.339-1.176,0.613-2.65,0.822-4.428l0.235-1.566h1.802c-0.156,2.193-0.234,4.65-0.234,7.365
		v3.762c0,2.664,0.156,6.373,0.47,11.126h-1.802c-0.053-0.364-0.209-1.632-0.471-3.8s-0.979-3.801-2.154-4.897
		s-2.809-1.646-4.897-1.646h-5.72v18.021c0,1.986,0.208,3.422,0.627,4.311c0.417,0.889,1.148,1.488,2.193,1.802
		s2.742,0.522,5.094,0.627v1.567c-2.717-0.157-6.557-0.235-11.519-0.235c-4.493,0-7.836,0.078-10.03,0.235v-1.567
		c1.881-0.104,3.252-0.313,4.114-0.627s1.45-0.913,1.763-1.802c0.313-0.889,0.471-2.324,0.471-4.311v-38.864
		c0-1.985-0.157-3.421-0.471-4.31c-0.313-0.888-0.9-1.488-1.763-1.803c-0.862-0.313-2.233-0.521-4.114-0.627v-1.566
		c5.119,0.156,12.694,0.234,22.724,0.234c7.679,0,13.138-0.078,16.376-0.234C649.752,166.048,649.569,169.391,649.569,172.368z"/>
	<path fill="#FFFFFF" d="M692.352,217.815c-3.554-0.157-9.534-0.235-17.944-0.235c-10.029,0-17.604,0.078-22.724,0.235v-1.567
		c1.881-0.104,3.252-0.313,4.114-0.627s1.45-0.913,1.763-1.802c0.313-0.889,0.471-2.324,0.471-4.311v-38.864
		c0-1.985-0.157-3.421-0.471-4.31c-0.313-0.888-0.9-1.488-1.763-1.803c-0.862-0.313-2.233-0.521-4.114-0.627v-1.566
		c5.119,0.156,12.694,0.234,22.724,0.234c7.679,0,13.138-0.078,16.376-0.234c-0.365,3.447-0.548,6.53-0.548,9.246
		c0,2.037,0.079,3.656,0.235,4.857h-1.803c-0.365-3.395-0.836-5.916-1.41-7.561c-0.575-1.646-1.541-2.848-2.898-3.605
		c-1.359-0.756-3.423-1.136-6.191-1.136h-6.503c-1.881,0-3.252,0.145-4.114,0.431c-0.861,0.288-1.449,0.876-1.763,1.764
		c-0.313,0.889-0.47,2.324-0.47,4.31v18.492h5.172c1.827,0,3.238-0.431,4.23-1.293s1.658-1.881,1.998-3.056
		c0.34-1.176,0.613-2.65,0.822-4.428l0.236-1.566h1.802c-0.157,2.193-0.235,4.649-0.235,7.365v3.761
		c0,2.664,0.156,6.374,0.471,11.127h-1.803c-0.053-0.365-0.209-1.632-0.471-3.8s-0.979-3.801-2.154-4.898
		c-1.176-1.097-2.809-1.645-4.896-1.645h-5.172v18.805c0,1.986,0.156,3.422,0.47,4.311s0.901,1.477,1.763,1.762
		c0.862,0.289,2.233,0.432,4.114,0.432h5.72c3.238,0,5.707-0.432,7.404-1.293s2.939-2.245,3.723-4.152
		c0.783-1.906,1.357-4.714,1.724-8.424h1.802c-0.156,1.41-0.234,3.291-0.234,5.642C691.803,210.763,691.984,214.106,692.352,217.815
		z"/>
	<path fill="#FFFFFF" d="M743.909,213.897c-1.202,1.776-2.403,3.056-3.604,3.84c-1.202,0.783-2.795,1.175-4.779,1.175
		c-2.143,0-3.906-0.627-5.289-1.881c-1.385-1.253-2.418-3.448-3.096-6.582l-1.724-7.835c-0.627-2.716-1.214-4.807-1.763-6.27
		c-0.549-1.461-1.371-2.637-2.469-3.525c-1.097-0.888-2.639-1.332-4.623-1.332h-7.443v18.021c0,1.986,0.156,3.422,0.47,4.311
		s0.901,1.488,1.763,1.802c0.862,0.313,2.233,0.522,4.114,0.627v1.567c-2.403-0.157-5.72-0.235-9.951-0.235
		c-4.493,0-7.836,0.078-10.03,0.235v-1.567c1.881-0.104,3.252-0.313,4.114-0.627s1.45-0.913,1.763-1.802
		c0.313-0.889,0.471-2.324,0.471-4.311v-38.864c0-1.985-0.157-3.421-0.471-4.31c-0.313-0.888-0.9-1.488-1.763-1.803
		c-0.862-0.313-2.233-0.521-4.114-0.627v-1.566c2.194,0.156,5.38,0.234,9.561,0.234l8.462-0.078
		c0.991-0.051,2.116-0.078,3.369-0.078c6.06,0,10.722,1.268,13.987,3.801c3.264,2.533,4.896,5.812,4.896,9.833
		c0,2.038-0.483,4.089-1.449,6.151c-0.967,2.064-2.586,3.918-4.858,5.563c-2.272,1.646-5.237,2.756-8.894,3.33l0.94,0.157
		c3.448,0.575,5.955,1.62,7.522,3.134c1.566,1.516,2.715,3.918,3.447,7.209l1.959,7.992c0.521,2.404,1.07,4.075,1.646,5.016
		c0.574,0.939,1.358,1.41,2.351,1.41c0.888,0,1.633-0.234,2.233-0.705s1.293-1.227,2.077-2.272L743.909,213.897z M711.273,164.454
		c-0.811,0.366-1.371,1.019-1.685,1.959s-0.47,2.351-0.47,4.231v19.275h5.25c5.171,0,8.723-1.148,10.656-3.448
		c1.932-2.297,2.898-5.484,2.898-9.559c0-4.283-1.018-7.522-3.055-9.717c-2.038-2.193-5.355-3.291-9.952-3.291
		C713.297,163.905,712.083,164.089,711.273,164.454z"/>
</g>
<g>
	<path fill="#FFFFFF" d="M29.214,122.18h12.587v2.479h-9.942v5.811h9.254v2.479h-9.254v6.252h10.438v2.479H29.214V122.18z"/>
	<path fill="#FFFFFF" d="M48.791,122.18h3.471l10.741,16.03h0.055v-16.03h2.645v19.5h-3.36L51.49,125.65h-0.055v16.029h-2.645
		V122.18z"/>
	<path fill="#FFFFFF" d="M73.462,122.18h6.858c4.985,0,6.252,3.003,6.252,5.454c0,2.479-1.846,4.819-4.792,5.15l5.535,8.896h-3.305
		l-4.958-8.593h-2.946v8.593h-2.645V122.18z M76.106,130.772h3.47c2.094,0,4.187-0.495,4.187-3.139c0-2.645-2.093-3.141-4.187-3.141
		h-3.47V130.772z"/>
	<path fill="#FFFFFF" d="M91.827,131.93c0-5.784,4.214-10.245,10.163-10.245s10.163,4.461,10.163,10.245
		s-4.214,10.245-10.163,10.245S91.827,137.714,91.827,131.93z M109.344,131.93c0-4.269-2.892-7.767-7.354-7.767
		s-7.354,3.498-7.354,7.767s2.892,7.767,7.354,7.767S109.344,136.198,109.344,131.93z"/>
	<path fill="#FFFFFF" d="M118.701,122.18h2.645V139.2h8.951v2.479h-11.596V122.18z"/>
	<path fill="#FFFFFF" d="M135.745,122.18h2.645V139.2h8.951v2.479h-11.596V122.18z"/>
	<path fill="#FFFFFF" d="M163.197,122.18h2.645v19.5h-2.645V122.18z"/>
	<path fill="#FFFFFF" d="M173.605,122.18h3.471l10.741,16.03h0.055v-16.03h2.645v19.5h-3.36l-10.852-16.029h-0.055v16.029h-2.645
		V122.18z"/>
	<path fill="#FFFFFF" d="M208.161,122.18h6.5l4.489,12.725h0.056l4.517-12.725h6.473v19.5h-4.297v-14.956h-0.055l-5.123,14.956
		h-3.277l-4.931-14.956h-0.055v14.956h-4.297V122.18z"/>
	<path fill="#FFFFFF" d="M243.325,122.18h3.553l8.482,19.5h-4.847l-1.681-4.132h-7.574l-1.625,4.132h-4.736L243.325,122.18z
		 M244.978,127.854l-2.369,6.06h4.766L244.978,127.854z"/>
	<path fill="#FFFFFF" d="M269.704,126.944c-0.688-0.881-2.065-1.294-3.112-1.294c-1.212,0-2.892,0.551-2.892,2.011
		c0,3.553,8.979,1.267,8.979,8.098c0,4.352-3.498,6.416-7.52,6.416c-2.506,0-4.709-0.743-6.555-2.451l3.058-3.359
		c0.881,1.156,2.313,1.846,3.745,1.846c1.405,0,2.975-0.662,2.975-2.039c0-3.58-9.144-1.652-9.144-8.152
		c0-4.158,3.607-6.334,7.437-6.334c2.203,0,4.324,0.578,5.977,2.037L269.704,126.944z"/>
	<path fill="#FFFFFF" d="M282.396,125.98h-5.563v-3.801h15.423v3.801h-5.563v15.699h-4.296V125.98z"/>
	<path fill="#FFFFFF" d="M297.347,122.18h13.247v3.966h-8.951v3.636h8.456v3.966h-8.456v3.967h9.447v3.966h-13.743V122.18z"/>
	<path fill="#FFFFFF" d="M317.281,122.18h7.547c3.993,0,7.354,1.378,7.354,5.922c0,2.727-1.46,4.847-4.214,5.343l4.957,8.235h-5.15
		l-4.076-7.794h-2.12v7.794h-4.297V122.18z M321.578,130.249h2.533c1.57,0,3.608-0.055,3.608-2.176c0-1.955-1.763-2.258-3.333-2.258
		h-2.809V130.249z"/>
	<path fill="#FFFFFF" d="M348.78,122.18h6.5l4.489,12.725h0.056l4.517-12.725h6.473v19.5h-4.297v-14.956h-0.055l-5.123,14.956
		h-3.277l-4.931-14.956h-0.055v14.956h-4.297V122.18z"/>
	<path fill="#FFFFFF" d="M383.944,122.18h3.553l8.482,19.5h-4.847l-1.681-4.132h-7.574l-1.625,4.132h-4.736L383.944,122.18z
		 M385.597,127.854l-2.369,6.06h4.766L385.597,127.854z"/>
	<path fill="#FFFFFF" d="M400.849,122.18h4.297v8.098l7.574-8.098h5.618l-8.676,9.062l9.42,10.438h-6.005l-7.932-9.254v9.254h-4.297
		V122.18z"/>
	<path fill="#FFFFFF" d="M423.482,122.18h13.247v3.966h-8.951v3.636h8.456v3.966h-8.456v3.967h9.447v3.966h-13.743V122.18z"/>
	<path fill="#FFFFFF" d="M459.859,134.161c0,4.6-2.81,8.014-8.207,8.014c-5.426,0-8.235-3.414-8.235-8.014V122.18h4.297v11.815
		c0,2.396,1.652,4.215,3.938,4.215c2.258,0,3.91-1.818,3.91-4.215V122.18h4.297V134.161z"/>
	<path fill="#FFFFFF" d="M466.573,122.18h7.244c4.049,0,7.408,1.294,7.408,5.922c0,4.571-3.112,5.977-7.216,5.977h-3.14v7.602
		h-4.297V122.18z M470.87,130.442h2.864c1.515,0,3.03-0.523,3.03-2.341c0-2.011-2.039-2.286-3.691-2.286h-2.203V130.442z"/>
	<path fill="#FFFFFF" d="M503.994,122.18h3.553l8.483,19.5h-4.848l-1.68-4.132h-7.574l-1.625,4.132h-4.737L503.994,122.18z
		 M505.646,127.854l-2.368,6.06h4.765L505.646,127.854z"/>
	<path fill="#FFFFFF" d="M520.734,122.18h7.547c3.993,0,7.354,1.378,7.354,5.922c0,2.727-1.46,4.847-4.214,5.343l4.957,8.235h-5.15
		l-4.076-7.794h-2.12v7.794h-4.297V122.18z M525.031,130.249h2.533c1.57,0,3.608-0.055,3.608-2.176c0-1.955-1.763-2.258-3.333-2.258
		h-2.809V130.249z"/>
	<path fill="#FFFFFF" d="M544.608,125.98h-5.563v-3.801h15.423v3.801h-5.563v15.699h-4.296V125.98z"/>
	<path fill="#FFFFFF" d="M559.338,122.18h4.297v19.5h-4.297V122.18z"/>
	<path fill="#FFFFFF" d="M579.936,126.944c-0.688-0.881-2.065-1.294-3.111-1.294c-1.212,0-2.893,0.551-2.893,2.011
		c0,3.553,8.979,1.267,8.979,8.098c0,4.352-3.497,6.416-7.519,6.416c-2.507,0-4.71-0.743-6.555-2.451l3.057-3.359
		c0.882,1.156,2.313,1.846,3.746,1.846c1.404,0,2.975-0.662,2.975-2.039c0-3.58-9.145-1.652-9.145-8.152
		c0-4.158,3.608-6.334,7.437-6.334c2.203,0,4.324,0.578,5.977,2.037L579.936,126.944z"/>
	<path fill="#FFFFFF" d="M592.628,125.98h-5.563v-3.801h15.423v3.801h-5.563v15.699h-4.296V125.98z"/>
	<path fill="#FFFFFF" d="M607.413,122.18h7.547c3.993,0,7.354,1.378,7.354,5.922c0,2.727-1.46,4.847-4.214,5.343l4.957,8.235h-5.15
		l-4.076-7.794h-2.12v7.794h-4.297V122.18z M611.71,130.249h2.533c1.57,0,3.608-0.055,3.608-2.176c0-1.955-1.763-2.258-3.333-2.258
		h-2.809V130.249z"/>
	<path fill="#FFFFFF" d="M632.306,133.362l-7.326-11.183h5.344l4.131,7.299l4.379-7.299h5.096l-7.326,11.183v8.317h-4.297V133.362z"
		/>
	<path fill="#FFFFFF" d="M665.65,122.18h2.396l8.346,19.5h-3.085l-1.956-4.819h-9.281l-1.928,4.819h-3.085L665.65,122.18z
		 M670.388,134.546l-3.636-8.951h-0.055l-3.69,8.951H670.388z"/>
	<path fill="#FFFFFF" d="M681.674,122.18h3.471l10.741,16.03h0.055v-16.03h2.645v19.5h-3.36l-10.852-16.029h-0.055v16.029h-2.645
		V122.18z"/>
	<path fill="#FFFFFF" d="M705.904,122.18h6.803c8.235,0,10.246,6.142,10.246,9.75c0,4.985-3.719,9.75-10.687,9.75h-6.362V122.18z
		 M708.548,139.2h3.333c4.462,0,8.263-2.451,8.263-7.271c0-2.479-1.295-7.271-7.629-7.271h-3.967V139.2z"/>
</g>
<linearGradient id="SVGID_1_" gradientUnits="userSpaceOnUse" x1="154.7622" y1="45.9272" x2="572.8594" y2="45.9272">
	<stop  offset="0.1133" style="stop-color:#B10047"/>
	<stop  offset="0.8128" style="stop-color:#FF0069"/>
</linearGradient>
<rect x="154.762" fill="url(#SVGID_1_)" width="418.097" height="91.855"/>
<g>
	<g>
		<g>
			<polygon fill="#FFFFFF" points="217.448,24.235 217.768,21.392 215.023,21.392 215.344,24.235 			"/>
			<polygon fill="#FFFFFF" points="224.065,22.582 221.414,21.872 220.988,24.701 223.02,25.245 			"/>
			<polygon fill="#FFFFFF" points="211.743,24.714 211.308,21.886 208.659,22.604 209.712,25.264 			"/>
			<polygon fill="#FFFFFF" points="206.361,26.668 205.203,24.052 202.834,25.438 204.545,27.73 			"/>
			<polygon fill="#FFFFFF" points="201.679,29.961 199.876,27.74 197.952,29.697 200.204,31.461 			"/>
			<polygon fill="#FFFFFF" points="198.021,34.365 195.699,32.691 194.353,35.084 196.989,36.199 			"/>
			<polygon fill="#FFFFFF" points="195.641,39.571 192.963,38.563 192.289,41.224 195.124,41.611 			"/>
			<polygon fill="#FFFFFF" points="194.705,45.219 191.856,44.946 191.903,47.691 194.739,47.323 			"/>
			<polygon fill="#FFFFFF" points="195.278,50.916 192.458,51.396 193.219,54.034 195.862,52.937 			"/>
			<polygon fill="#FFFFFF" points="194.726,57.465 196.15,59.812 198.414,58.062 197.321,56.264 			"/>
			<polygon fill="#FFFFFF" points="198.5,62.729 200.489,64.622 202.216,62.341 200.691,60.891 			"/>
			<polygon fill="#FFFFFF" points="203.521,66.824 205.935,68.13 207.006,65.478 205.155,64.476 			"/>
			<polygon fill="#FFFFFF" points="209.438,69.463 212.108,70.092 212.449,67.252 210.401,66.77 			"/>
			<polygon fill="#FFFFFF" points="216.064,67.611 215.838,70.463 218.582,70.372 218.166,67.542 			"/>
			<polygon fill="#FFFFFF" points="221.75,66.943 222.277,69.754 224.901,68.949 223.761,66.326 			"/>
			<path fill="#FFFFFF" d="M239.577,53.762c0.853-2.515,1.285-5.145,1.285-7.85c0-4.659-1.314-9.19-3.802-13.104
				c-2.42-3.809-5.835-6.873-9.877-8.861c-0.141-0.069-0.284-0.138-0.427-0.205l-1.086,2.514c0.102,0.049,0.204,0.098,0.305,0.147
				c7.494,3.687,12.149,11.163,12.149,19.509c0,2.204-0.322,4.351-0.959,6.413l-3.478-2.072l-0.417,5.938l-0.43,5.974l5.831-2.753
				l5.359-2.997L239.577,53.762z"/>
			<polygon fill="#FFFFFF" points="224.432,22.795 224.394,22.905 224.435,22.797 			"/>
			<path fill="#FFFFFF" d="M217.768,42.619v-12.55h-2.745v12.55c-1.289,0.538-2.194,1.81-2.194,3.293
				c0,0.733,0.221,1.415,0.601,1.981l-6.95,10.451l2.286,1.521l6.95-10.451c0.22,0.042,0.447,0.065,0.679,0.065
				c1.97,0,3.567-1.597,3.567-3.566C219.962,44.428,219.056,43.157,217.768,42.619z"/>
		</g>
	</g>
	<g>
		<path fill="#FFFFFF" d="M260.616,30.716h6.607v23.89h12.242v6.1h-18.849V30.716z"/>
		<path fill="#FFFFFF" d="M290.861,30.716h5.464l13.046,29.99h-7.455l-2.583-6.354h-11.649l-2.499,6.354h-7.286L290.861,30.716z
			 M293.403,39.442l-3.643,9.318h7.328L293.403,39.442z"/>
		<path fill="#FFFFFF" d="M325.089,38.044c-1.059-1.355-3.177-1.991-4.786-1.991c-1.864,0-4.448,0.847-4.448,3.092
			c0,5.464,13.809,1.949,13.809,12.454c0,6.692-5.38,9.87-11.564,9.87c-3.855,0-7.244-1.144-10.082-3.77l4.702-5.168
			c1.355,1.779,3.558,2.838,5.761,2.838c2.16,0,4.574-1.017,4.574-3.135c0-5.507-14.063-2.542-14.063-12.538
			c0-6.396,5.549-9.742,11.437-9.742c3.389,0,6.65,0.889,9.192,3.134L325.089,38.044z"/>
		<path fill="#FFFFFF" d="M338.265,36.561h-8.557v-5.845h23.721v5.845h-8.556v24.145h-6.608V36.561z"/>
		<path fill="#FFFFFF" d="M384.692,38.51c-1.313-1.567-3.219-2.457-5.676-2.457c-4.999,0-8.684,4.066-8.684,9.657
			c0,5.592,3.685,9.658,8.472,9.658c2.668,0,4.829-1.187,6.184-3.22l5.507,4.109c-2.499,3.558-6.735,5.21-10.844,5.21
			c-9.361,0-16.181-6.142-16.181-15.758c0-9.615,6.819-15.757,16.181-15.757c3.346,0,7.582,1.144,10.124,4.405L384.692,38.51z"/>
		<path fill="#FFFFFF" d="M391.981,30.716h6.607v11.183h12.836V30.716h6.607v29.99h-6.607V47.744h-12.836v12.962h-6.607V30.716z"/>
		<path fill="#FFFFFF" d="M431.885,30.716h5.465l13.045,29.99h-7.455l-2.584-6.354h-11.648l-2.498,6.354h-7.285L431.885,30.716z
			 M434.426,39.442l-3.643,9.318h7.328L434.426,39.442z"/>
		<path fill="#FFFFFF" d="M451.287,30.716h8.98l12.75,20.84h0.084v-20.84h6.609v29.99h-8.643L457.98,39.357h-0.086v21.349h-6.607
			V30.716z"/>
		<path fill="#FFFFFF" d="M503.307,38.51c-1.313-1.567-3.219-2.457-5.676-2.457c-4.998,0-8.684,4.066-8.684,9.657
			c0,5.592,3.686,9.658,8.471,9.658c2.67,0,4.83-1.187,6.186-3.22l5.506,4.109c-2.498,3.558-6.734,5.21-10.844,5.21
			c-9.361,0-16.18-6.142-16.18-15.758c0-9.615,6.818-15.757,16.18-15.757c3.348,0,7.582,1.144,10.125,4.405L503.307,38.51z"/>
		<path fill="#FFFFFF" d="M510.85,30.716h20.375v6.1h-13.768v5.591h13.004v6.1h-13.004v6.1h14.529v6.1H510.85V30.716z"/>
		<path fill="#FFFFFF" d="M541.52,53.166c2.16,0,3.896,1.737,3.896,3.897c0,2.16-1.736,3.896-3.896,3.896s-3.896-1.736-3.896-3.896
			C537.623,54.902,539.359,53.166,541.52,53.166z M544.695,50.793h-6.354V30.716h6.354V50.793z"/>
	</g>
</g>
<g>
</g>
<g>
</g>
<g>
</g>
<g>
</g>
<g>
</g>
<g>
</g>
</svg>
