<?xml version="1.0" encoding="utf-8"?>
<!-- Generator: Adobe Illustrator 16.0.3, SVG Export Plug-In . SVG Version: 6.00 Build 0)  -->
<!DOCTYPE svg PUBLIC "-//W3C//DTD SVG 1.1//EN" "http://www.w3.org/Graphics/SVG/1.1/DTD/svg11.dtd">
<svg version="1.1" id="Layer_1" xmlns="http://www.w3.org/2000/svg" xmlns:xlink="http://www.w3.org/1999/xlink" x="0px" y="0px"
	 width="753.703px" height="117.874px" viewBox="0 0 753.703 117.874" enable-background="new 0 0 753.703 117.874"
	 xml:space="preserve">
<g>
	<path fill="#FFFFFF" d="M37.063,43.748c2.194,0.889,4.335,2.143,6.425,3.761c0.574,0.47,1.07,0.705,1.489,0.705
		c1.044,0,1.724-1.567,2.037-4.702h1.802c-0.209,3.396-0.313,9.403-0.313,18.022H46.7c-0.575-3.395-1.097-5.837-1.567-7.326
		s-1.254-2.911-2.351-4.271c-1.567-2.037-3.565-3.565-5.994-4.583c-2.429-1.019-5.054-1.528-7.875-1.528
		c-3.396,0-6.36,1.124-8.894,3.37c-2.534,2.247-4.505,5.446-5.916,9.599c-1.41,4.153-2.115,9.024-2.115,14.613
		c0,5.694,0.756,10.578,2.272,14.653c1.515,4.074,3.617,7.169,6.308,9.285c2.69,2.115,5.732,3.173,9.129,3.173
		c2.611,0,5.145-0.495,7.601-1.489c2.455-0.991,4.388-2.48,5.798-4.466c1.044-1.462,1.802-3.028,2.272-4.701
		c0.47-1.671,0.914-4.231,1.332-7.679h1.802c0,8.984,0.104,15.254,0.313,18.805h-1.802c-0.157-1.671-0.379-2.859-0.666-3.564
		c-0.288-0.705-0.693-1.059-1.214-1.059c-0.419,0-0.967,0.21-1.646,0.627c-2.351,1.673-4.597,2.939-6.739,3.801
		c-2.143,0.861-4.728,1.293-7.757,1.293c-4.963,0-9.312-1.123-13.046-3.369c-3.735-2.246-6.634-5.498-8.697-9.756
		c-2.064-4.257-3.095-9.336-3.095-15.24c0-5.746,1.058-10.839,3.173-15.279c2.116-4.439,5.066-7.887,8.854-10.343
		c3.787-2.455,8.083-3.683,12.89-3.683C32.205,42.416,34.869,42.86,37.063,43.748z"/>
	<path fill="#FFFFFF" d="M101.901,45.707c-0.862,0.313-1.45,0.915-1.763,1.802c-0.313,0.889-0.47,2.325-0.47,4.31v38.865
		c0,1.985,0.157,3.422,0.47,4.309c0.313,0.889,0.901,1.489,1.763,1.803s2.233,0.522,4.114,0.627v1.566
		c-2.194-0.156-5.538-0.234-10.03-0.234c-4.231,0-7.549,0.078-9.951,0.234v-1.566c1.88-0.104,3.252-0.313,4.114-0.627
		s1.45-0.914,1.763-1.803c0.313-0.887,0.47-2.323,0.47-4.309V71.877H66.915v18.807c0,1.985,0.157,3.422,0.47,4.309
		c0.313,0.889,0.901,1.489,1.763,1.803s2.233,0.522,4.114,0.627v1.566c-2.403-0.156-5.72-0.234-9.951-0.234
		c-4.494,0-7.836,0.078-10.03,0.234v-1.566c1.88-0.104,3.252-0.313,4.114-0.627s1.45-0.914,1.763-1.803
		c0.313-0.887,0.47-2.323,0.47-4.309V51.819c0-1.985-0.157-3.421-0.47-4.31c-0.313-0.888-0.901-1.489-1.763-1.802
		s-2.233-0.521-4.114-0.627v-1.567c2.194,0.157,5.536,0.235,10.03,0.235c4.178,0,7.495-0.079,9.951-0.235v1.567
		c-1.881,0.105-3.252,0.313-4.114,0.627s-1.45,0.915-1.763,1.802c-0.313,0.889-0.47,2.325-0.47,4.31v18.492h25.466V51.819
		c0-1.985-0.157-3.421-0.47-4.31c-0.313-0.888-0.901-1.489-1.763-1.802s-2.233-0.521-4.114-0.627v-1.567
		c2.402,0.157,5.72,0.235,9.951,0.235c4.492,0,7.836-0.079,10.03-0.235v1.567C104.134,45.186,102.763,45.394,101.901,45.707z"/>
	<path fill="#FFFFFF" d="M146.878,45.785c3.734,2.247,6.633,5.499,8.697,9.755c2.063,4.258,3.095,9.338,3.095,15.24
		c0,5.747-1.058,10.841-3.173,15.28s-5.067,7.888-8.854,10.342c-3.788,2.457-8.084,3.684-12.89,3.684
		c-4.963,0-9.312-1.123-13.046-3.369c-3.735-2.246-6.634-5.498-8.697-9.756c-2.064-4.257-3.095-9.336-3.095-15.24
		c0-5.746,1.058-10.839,3.173-15.279c2.116-4.439,5.066-7.887,8.854-10.343c3.787-2.455,8.083-3.683,12.89-3.683
		C138.793,42.416,143.143,43.54,146.878,45.785z M124.703,47.313c-2.535,2.325-4.494,5.577-5.877,9.755
		c-1.385,4.18-2.076,8.959-2.076,14.339c0,5.434,0.77,10.214,2.311,14.339c1.541,4.127,3.617,7.314,6.229,9.561
		c2.611,2.246,5.537,3.369,8.776,3.369c3.342,0,6.281-1.162,8.815-3.487c2.533-2.323,4.492-5.575,5.876-9.755
		c1.383-4.18,2.077-8.959,2.077-14.34c0-5.432-0.771-10.212-2.312-14.339c-1.542-4.126-3.618-7.313-6.229-9.56
		c-2.613-2.246-5.538-3.37-8.776-3.37C130.174,43.826,127.236,44.989,124.703,47.313z"/>
	<path fill="#FFFFFF" d="M201.022,45.785c3.734,2.247,6.633,5.499,8.697,9.755c2.063,4.258,3.095,9.338,3.095,15.24
		c0,5.747-1.058,10.841-3.173,15.28s-5.067,7.888-8.854,10.342c-3.788,2.457-8.084,3.684-12.89,3.684
		c-4.963,0-9.312-1.123-13.046-3.369c-3.735-2.246-6.634-5.498-8.697-9.756c-2.064-4.257-3.095-9.336-3.095-15.24
		c0-5.746,1.058-10.839,3.173-15.279c2.116-4.439,5.066-7.887,8.854-10.343c3.787-2.455,8.083-3.683,12.89-3.683
		C192.938,42.416,197.287,43.54,201.022,45.785z M178.847,47.313c-2.535,2.325-4.494,5.577-5.877,9.755
		c-1.385,4.18-2.076,8.959-2.076,14.339c0,5.434,0.77,10.214,2.311,14.339c1.541,4.127,3.617,7.314,6.229,9.561
		c2.611,2.246,5.537,3.369,8.776,3.369c3.342,0,6.281-1.162,8.815-3.487c2.533-2.323,4.492-5.575,5.876-9.755
		c1.383-4.18,2.077-8.959,2.077-14.34c0-5.432-0.771-10.212-2.312-14.339c-1.542-4.126-3.618-7.313-6.229-9.56
		c-2.613-2.246-5.538-3.37-8.776-3.37C184.318,43.826,181.38,44.989,178.847,47.313z"/>
	<path fill="#FFFFFF" d="M238.554,43.396c1.332,0.497,2.704,1.214,4.114,2.155c1.148,0.732,2.037,1.097,2.664,1.097
		c0.47,0,0.835-0.274,1.097-0.823c0.261-0.548,0.47-1.422,0.627-2.625h1.802c-0.262,3.03-0.392,8.358-0.392,15.984h-1.802
		c-0.313-4.231-1.528-7.796-3.644-10.695c-2.116-2.899-5.185-4.349-9.207-4.349c-2.821,0-5.12,0.85-6.896,2.547
		c-1.776,1.698-2.664,3.878-2.664,6.542c0,1.986,0.457,3.71,1.371,5.172c0.914,1.463,2.077,2.717,3.487,3.761
		c1.411,1.046,3.421,2.378,6.034,3.996l2.272,1.411c3.291,2.037,5.889,3.826,7.797,5.367c1.906,1.541,3.434,3.305,4.583,5.289
		c1.148,1.985,1.724,4.309,1.724,6.974c0,4.754-1.567,8.423-4.702,11.009s-7.104,3.879-11.91,3.879
		c-2.507,0-4.558-0.262-6.151-0.783c-1.594-0.521-3.122-1.228-4.584-2.116c-1.149-0.731-2.037-1.097-2.664-1.097
		c-0.47,0-0.836,0.273-1.097,0.822c-0.262,0.549-0.47,1.424-0.627,2.625h-1.802c0.208-2.872,0.313-9.141,0.313-18.805h1.802
		c0.365,5.275,1.671,9.559,3.917,12.85c2.246,3.291,5.693,4.937,10.343,4.937c2.821,0,5.223-0.874,7.209-2.625
		c1.984-1.749,2.978-4.349,2.978-7.796c0-2.926-0.979-5.407-2.938-7.444s-5.054-4.335-9.285-6.896
		c-3.083-1.881-5.577-3.552-7.483-5.015c-1.907-1.462-3.461-3.225-4.662-5.289c-1.202-2.063-1.802-4.479-1.802-7.248
		c0-4.388,1.411-7.744,4.231-10.069c2.821-2.324,6.32-3.487,10.5-3.487C235.407,42.651,237.222,42.899,238.554,43.396z"/>
	<path fill="#FFFFFF" d="M295.401,98.989c-3.553-0.156-9.534-0.234-17.944-0.234c-10.029,0-17.604,0.078-22.723,0.234v-1.566
		c1.88-0.104,3.252-0.313,4.114-0.627s1.45-0.914,1.763-1.803c0.313-0.887,0.47-2.323,0.47-4.309V51.819
		c0-1.985-0.157-3.421-0.47-4.31c-0.313-0.888-0.901-1.489-1.763-1.802s-2.233-0.521-4.114-0.627v-1.567
		c5.119,0.157,12.694,0.235,22.723,0.235c7.679,0,13.137-0.079,16.376-0.235c-0.366,3.448-0.548,6.531-0.548,9.246
		c0,2.038,0.079,3.657,0.235,4.858h-1.802c-0.366-3.395-0.836-5.916-1.411-7.562c-0.575-1.646-1.542-2.847-2.899-3.604
		c-1.359-0.756-3.422-1.136-6.19-1.136h-6.503c-1.881,0-3.252,0.145-4.114,0.431c-0.862,0.288-1.45,0.875-1.763,1.763
		c-0.313,0.889-0.47,2.325-0.47,4.31v18.492h5.172c1.828,0,3.238-0.432,4.231-1.293c0.992-0.861,1.658-1.881,1.998-3.057
		c0.339-1.175,0.614-2.65,0.823-4.427l0.235-1.567h1.802c-0.157,2.194-0.235,4.65-0.235,7.366v3.761
		c0,2.664,0.157,6.374,0.47,11.127h-1.802c-0.053-0.365-0.209-1.633-0.47-3.801c-0.262-2.167-0.979-3.8-2.155-4.896
		c-1.175-1.098-2.809-1.646-4.897-1.646h-5.172v18.807c0,1.985,0.157,3.422,0.47,4.309c0.313,0.889,0.901,1.477,1.763,1.764
		s2.233,0.431,4.114,0.431h5.72c3.238,0,5.707-0.431,7.405-1.293c1.697-0.862,2.938-2.245,3.722-4.153
		c0.783-1.906,1.357-4.713,1.724-8.423h1.802c-0.157,1.411-0.235,3.291-0.235,5.642C294.853,91.937,295.035,95.281,295.401,98.989z"
		/>
	<path fill="#FFFFFF" d="M354.325,43.513v1.567c-1.046,0.262-2.064,0.928-3.056,1.998c-0.993,1.071-2.064,2.73-3.212,4.976
		l-12.302,24.369v14.262c0,1.985,0.157,3.422,0.47,4.309c0.313,0.889,0.901,1.489,1.763,1.803s2.233,0.522,4.114,0.627v1.566
		c-2.403-0.156-5.72-0.234-9.951-0.234c-4.494,0-7.836,0.078-10.03,0.234v-1.566c1.88-0.104,3.252-0.313,4.114-0.627
		s1.45-0.914,1.763-1.803c0.313-0.887,0.47-2.323,0.47-4.309V78.93l-15.906-29.384c-0.94-1.724-1.763-2.886-2.468-3.487
		c-0.705-0.6-1.398-0.901-2.076-0.901v-1.646c2.037,0.157,4.335,0.235,6.895,0.235c5.066,0,8.724-0.079,10.97-0.235v1.646
		c-3.657,0-5.485,0.993-5.485,2.978c0,0.784,0.261,1.698,0.784,2.743l13.007,24.995l10.03-19.902
		c1.41-2.768,2.115-5.015,2.115-6.739c0-1.462-0.575-2.507-1.724-3.134c-1.15-0.627-2.874-0.966-5.171-1.019v-1.567
		c2.978,0.157,5.98,0.235,9.011,0.235C350.799,43.748,352.758,43.669,354.325,43.513z"/>
	<path fill="#FFFFFF" d="M390.956,45.785c3.734,2.247,6.633,5.499,8.697,9.755c2.063,4.258,3.096,9.338,3.096,15.24
		c0,5.747-1.059,10.841-3.174,15.28s-5.067,7.888-8.854,10.342c-3.788,2.457-8.084,3.684-12.89,3.684
		c-4.963,0-9.312-1.123-13.046-3.369c-3.735-2.246-6.634-5.498-8.697-9.756c-2.064-4.257-3.095-9.336-3.095-15.24
		c0-5.746,1.058-10.839,3.173-15.279c2.116-4.439,5.066-7.887,8.854-10.343c3.787-2.455,8.083-3.683,12.89-3.683
		C382.872,42.416,387.221,43.54,390.956,45.785z M368.781,47.313c-2.535,2.325-4.494,5.577-5.877,9.755
		c-1.385,4.18-2.076,8.959-2.076,14.339c0,5.434,0.77,10.214,2.311,14.339c1.541,4.127,3.617,7.314,6.229,9.561
		c2.611,2.246,5.537,3.369,8.776,3.369c3.342,0,6.281-1.162,8.815-3.487c2.533-2.323,4.492-5.575,5.876-9.755
		c1.383-4.18,2.077-8.959,2.077-14.34c0-5.432-0.771-10.212-2.312-14.339c-1.542-4.126-3.618-7.313-6.229-9.56
		c-2.613-2.246-5.538-3.37-8.776-3.37C374.252,43.826,371.314,44.989,368.781,47.313z"/>
	<path fill="#FFFFFF" d="M453.837,45.08c-1.829,0.105-3.187,0.379-4.074,0.823c-0.889,0.444-1.488,1.175-1.803,2.194
		c-0.313,1.019-0.47,2.521-0.47,4.505v23.586c0,3.761-0.249,6.986-0.744,9.677c-0.497,2.69-1.319,5.003-2.468,6.935
		c-1.307,2.246-3.227,4.023-5.76,5.328c-2.535,1.305-5.395,1.959-8.58,1.959c-5.747,0-10.135-1.41-13.164-4.231
		c-2.299-2.142-3.84-4.57-4.623-7.287c-0.783-2.716-1.176-6.765-1.176-12.146V51.819c0-1.985-0.156-3.421-0.47-4.31
		c-0.313-0.888-0.901-1.489-1.763-1.802c-0.862-0.313-2.233-0.521-4.113-0.627v-1.567c2.193,0.157,5.535,0.235,10.029,0.235
		c4.23,0,7.548-0.079,9.951-0.235v1.567c-1.881,0.105-3.252,0.313-4.113,0.627c-0.862,0.313-1.45,0.915-1.764,1.802
		c-0.313,0.889-0.471,2.325-0.471,4.31v25.936c0,4.18,0.287,7.653,0.862,10.422c0.574,2.77,1.763,4.988,3.565,6.66
		s4.453,2.508,7.953,2.508c5.537,0,9.429-1.775,11.676-5.328c2.244-3.553,3.369-8.541,3.369-14.967V52.602
		c0-2.821-0.51-4.752-1.528-5.798c-1.019-1.044-2.888-1.618-5.603-1.724v-1.567c1.881,0.157,4.545,0.235,7.992,0.235
		c3.135,0,5.563-0.079,7.287-0.235V45.08z"/>
	<path fill="#FFFFFF" d="M503.749,95.071c-1.201,1.777-2.402,3.057-3.604,3.84c-1.203,0.783-2.795,1.176-4.78,1.176
		c-2.143,0-3.905-0.627-5.289-1.881c-1.385-1.254-2.417-3.447-3.095-6.582l-1.725-7.836c-0.627-2.715-1.214-4.805-1.763-6.268
		c-0.548-1.463-1.371-2.638-2.468-3.526c-1.098-0.888-2.639-1.332-4.623-1.332h-7.444v18.022c0,1.985,0.157,3.422,0.47,4.309
		c0.314,0.889,0.902,1.489,1.764,1.803s2.232,0.522,4.113,0.627v1.566c-2.402-0.156-5.72-0.234-9.951-0.234
		c-4.493,0-7.836,0.078-10.029,0.234v-1.566c1.881-0.104,3.252-0.313,4.113-0.627c0.862-0.313,1.45-0.914,1.764-1.803
		c0.313-0.887,0.47-2.323,0.47-4.309V51.819c0-1.985-0.157-3.421-0.47-4.31c-0.313-0.888-0.901-1.489-1.764-1.802
		c-0.861-0.313-2.232-0.521-4.113-0.627v-1.567c2.193,0.157,5.379,0.235,9.56,0.235l8.462-0.079
		c0.992-0.051,2.116-0.078,3.369-0.078c6.06,0,10.723,1.267,13.987,3.8c3.265,2.534,4.897,5.812,4.897,9.833
		c0,2.038-0.484,4.088-1.449,6.151c-0.968,2.063-2.586,3.917-4.859,5.563c-2.271,1.645-5.236,2.756-8.893,3.33l0.939,0.156
		c3.448,0.576,5.955,1.62,7.523,3.135c1.566,1.516,2.715,3.918,3.447,7.209l1.959,7.992c0.521,2.402,1.07,4.074,1.645,5.015
		s1.358,1.41,2.352,1.41c0.887,0,1.632-0.235,2.232-0.705s1.293-1.228,2.077-2.272L503.749,95.071z M471.114,45.628
		c-0.811,0.366-1.371,1.019-1.686,1.959c-0.313,0.94-0.47,2.351-0.47,4.231v19.275h5.25c5.171,0,8.724-1.148,10.657-3.447
		c1.932-2.299,2.898-5.485,2.898-9.56c0-4.283-1.019-7.522-3.056-9.716c-2.038-2.194-5.355-3.291-9.952-3.291
		C473.138,45.08,471.923,45.264,471.114,45.628z"/>
	<path fill="#FFFFFF" d="M555.66,45.785c3.733,2.247,6.634,5.499,8.697,9.755c2.063,4.258,3.095,9.338,3.095,15.24
		c0,5.747-1.057,10.841-3.173,15.28s-5.067,7.888-8.854,10.342c-3.788,2.457-8.084,3.684-12.89,3.684
		c-4.964,0-9.312-1.123-13.046-3.369c-3.736-2.246-6.635-5.498-8.697-9.756c-2.064-4.257-3.096-9.336-3.096-15.24
		c0-5.746,1.059-10.839,3.174-15.279c2.115-4.439,5.066-7.887,8.854-10.343c3.787-2.455,8.084-3.683,12.891-3.683
		C547.575,42.416,551.925,43.54,555.66,45.785z M533.485,47.313c-2.535,2.325-4.494,5.577-5.877,9.755
		c-1.385,4.18-2.076,8.959-2.076,14.339c0,5.434,0.77,10.214,2.311,14.339c1.541,4.127,3.617,7.314,6.23,9.561
		c2.611,2.246,5.536,3.369,8.775,3.369c3.342,0,6.281-1.162,8.815-3.487c2.532-2.323,4.491-5.575,5.876-9.755
		c1.384-4.18,2.077-8.959,2.077-14.34c0-5.432-0.771-10.212-2.312-14.339c-1.541-4.126-3.618-7.313-6.229-9.56
		c-2.612-2.246-5.538-3.37-8.776-3.37C538.956,43.826,536.019,44.989,533.485,47.313z"/>
	<path fill="#FFFFFF" d="M608.903,53.542c0,2.613,0.078,4.754,0.234,6.425h-1.801c-0.42-4.021-0.941-7.012-1.568-8.971
		s-1.723-3.395-3.291-4.31c-1.566-0.914-3.97-1.372-7.208-1.372h-4.937c-1.881,0-3.252,0.145-4.113,0.431
		c-0.862,0.288-1.45,0.875-1.764,1.763c-0.313,0.889-0.471,2.325-0.471,4.31v19.275h5.721c1.828,0,3.238-0.431,4.231-1.293
		c0.991-0.861,1.657-1.881,1.998-3.056c0.339-1.175,0.613-2.651,0.823-4.427l0.234-1.567h1.803
		c-0.157,2.194-0.235,4.649-0.235,7.365v3.761c0,2.664,0.156,6.375,0.47,11.127h-1.803c-0.052-0.365-0.209-1.632-0.469-3.801
		c-0.263-2.166-0.98-3.8-2.155-4.896c-1.176-1.098-2.809-1.646-4.897-1.646h-5.721v18.022c0,1.985,0.209,3.422,0.627,4.309
		c0.418,0.889,1.148,1.489,2.194,1.803c1.044,0.313,2.743,0.522,5.093,0.627v1.566c-2.717-0.156-6.556-0.234-11.518-0.234
		c-4.494,0-7.836,0.078-10.029,0.234v-1.566c1.88-0.104,3.252-0.313,4.113-0.627s1.449-0.914,1.763-1.803
		c0.313-0.887,0.47-2.323,0.47-4.309V51.819c0-1.985-0.156-3.421-0.47-4.31c-0.313-0.888-0.901-1.489-1.763-1.802
		s-2.233-0.521-4.113-0.627v-1.567c5.118,0.157,12.693,0.235,22.723,0.235c7.68,0,13.137-0.079,16.377-0.235
		C609.086,47.223,608.903,50.565,608.903,53.542z"/>
	<path fill="#FFFFFF" d="M649.569,53.542c0,2.613,0.078,4.754,0.234,6.425h-1.801c-0.42-4.021-0.941-7.012-1.568-8.971
		s-1.723-3.395-3.291-4.31c-1.566-0.914-3.97-1.372-7.208-1.372h-4.937c-1.881,0-3.252,0.145-4.113,0.431
		c-0.862,0.288-1.45,0.875-1.764,1.763c-0.313,0.889-0.471,2.325-0.471,4.31v19.275h5.721c1.828,0,3.238-0.431,4.231-1.293
		c0.991-0.861,1.657-1.881,1.998-3.056c0.339-1.175,0.613-2.651,0.823-4.427l0.234-1.567h1.803
		c-0.157,2.194-0.235,4.649-0.235,7.365v3.761c0,2.664,0.156,6.375,0.47,11.127h-1.803c-0.052-0.365-0.209-1.632-0.469-3.801
		c-0.263-2.166-0.98-3.8-2.155-4.896c-1.176-1.098-2.809-1.646-4.897-1.646h-5.721v18.022c0,1.985,0.209,3.422,0.627,4.309
		c0.418,0.889,1.148,1.489,2.194,1.803c1.044,0.313,2.743,0.522,5.093,0.627v1.566c-2.717-0.156-6.556-0.234-11.518-0.234
		c-4.494,0-7.836,0.078-10.029,0.234v-1.566c1.88-0.104,3.252-0.313,4.113-0.627s1.449-0.914,1.763-1.803
		c0.313-0.887,0.47-2.323,0.47-4.309V51.819c0-1.985-0.156-3.421-0.47-4.31c-0.313-0.888-0.901-1.489-1.763-1.802
		s-2.233-0.521-4.113-0.627v-1.567c5.118,0.157,12.693,0.235,22.723,0.235c7.68,0,13.137-0.079,16.377-0.235
		C649.752,47.223,649.569,50.565,649.569,53.542z"/>
	<path fill="#FFFFFF" d="M692.351,98.989c-3.553-0.156-9.533-0.234-17.943-0.234c-10.029,0-17.604,0.078-22.723,0.234v-1.566
		c1.88-0.104,3.252-0.313,4.113-0.627s1.449-0.914,1.763-1.803c0.313-0.887,0.47-2.323,0.47-4.309V51.819
		c0-1.985-0.156-3.421-0.47-4.31c-0.313-0.888-0.901-1.489-1.763-1.802s-2.233-0.521-4.113-0.627v-1.567
		c5.118,0.157,12.693,0.235,22.723,0.235c7.68,0,13.137-0.079,16.377-0.235c-0.366,3.448-0.549,6.531-0.549,9.246
		c0,2.038,0.078,3.657,0.234,4.858h-1.801c-0.367-3.395-0.837-5.916-1.411-7.562c-0.575-1.646-1.542-2.847-2.899-3.604
		c-1.359-0.756-3.422-1.136-6.189-1.136h-6.504c-1.881,0-3.252,0.145-4.113,0.431c-0.862,0.288-1.45,0.875-1.764,1.763
		c-0.313,0.889-0.471,2.325-0.471,4.31v18.492h5.172c1.828,0,3.238-0.432,4.231-1.293c0.991-0.861,1.657-1.881,1.998-3.057
		c0.339-1.175,0.614-2.65,0.823-4.427l0.234-1.567h1.803c-0.156,2.194-0.235,4.65-0.235,7.366v3.761
		c0,2.664,0.157,6.374,0.47,11.127h-1.802c-0.053-0.365-0.21-1.633-0.47-3.801c-0.262-2.167-0.98-3.8-2.155-4.896
		c-1.175-1.098-2.809-1.646-4.897-1.646h-5.172v18.807c0,1.985,0.157,3.422,0.471,4.309c0.313,0.889,0.901,1.477,1.764,1.764
		c0.861,0.287,2.232,0.431,4.113,0.431h5.72c3.238,0,5.706-0.431,7.405-1.293c1.696-0.862,2.938-2.245,3.722-4.153
		c0.783-1.906,1.357-4.713,1.724-8.423h1.803c-0.157,1.411-0.235,3.291-0.235,5.642C691.803,91.937,691.985,95.281,692.351,98.989z"
		/>
	<path fill="#FFFFFF" d="M743.909,95.071c-1.202,1.777-2.403,3.057-3.604,3.84c-1.202,0.783-2.795,1.176-4.78,1.176
		c-2.143,0-3.905-0.627-5.289-1.881c-1.385-1.254-2.416-3.447-3.095-6.582l-1.724-7.836c-0.627-2.715-1.215-4.805-1.764-6.268
		c-0.548-1.463-1.371-2.638-2.468-3.526c-1.097-0.888-2.638-1.332-4.623-1.332h-7.444v18.022c0,1.985,0.157,3.422,0.471,4.309
		c0.313,0.889,0.901,1.489,1.764,1.803c0.861,0.313,2.232,0.522,4.113,0.627v1.566c-2.403-0.156-5.721-0.234-9.951-0.234
		c-4.494,0-7.836,0.078-10.029,0.234v-1.566c1.88-0.104,3.252-0.313,4.113-0.627s1.449-0.914,1.763-1.803
		c0.313-0.887,0.47-2.323,0.47-4.309V51.819c0-1.985-0.156-3.421-0.47-4.31c-0.313-0.888-0.901-1.489-1.763-1.802
		s-2.233-0.521-4.113-0.627v-1.567c2.193,0.157,5.379,0.235,9.559,0.235l8.463-0.079c0.992-0.051,2.115-0.078,3.369-0.078
		c6.059,0,10.722,1.267,13.986,3.8c3.265,2.534,4.898,5.812,4.898,9.833c0,2.038-0.484,4.088-1.45,6.151
		c-0.968,2.063-2.586,3.917-4.858,5.563c-2.271,1.645-5.237,2.756-8.893,3.33l0.939,0.156c3.447,0.576,5.955,1.62,7.522,3.135
		c1.567,1.516,2.716,3.918,3.448,7.209l1.958,7.992c0.522,2.402,1.07,4.074,1.646,5.015c0.574,0.94,1.357,1.41,2.352,1.41
		c0.887,0,1.631-0.235,2.232-0.705c0.6-0.47,1.293-1.228,2.076-2.272L743.909,95.071z M711.273,45.628
		c-0.811,0.366-1.371,1.019-1.685,1.959s-0.471,2.351-0.471,4.231v19.275h5.25c5.172,0,8.724-1.148,10.657-3.447
		c1.932-2.299,2.899-5.485,2.899-9.56c0-4.283-1.02-7.522-3.057-9.716s-5.355-3.291-9.951-3.291
		C713.298,45.08,712.083,45.264,711.273,45.628z"/>
</g>
<g>
	<path fill="#FFFFFF" d="M29.214,3.354h12.587v2.479h-9.942v5.812h9.254v2.479h-9.254v6.252h10.438v2.479H29.214V3.354z"/>
	<path fill="#FFFFFF" d="M48.791,3.354h3.471l10.741,16.03h0.055V3.354h2.645v19.5h-3.36L51.49,6.825h-0.055v16.029h-2.645V3.354z"
		/>
	<path fill="#FFFFFF" d="M73.462,3.354h6.858c4.985,0,6.252,3.002,6.252,5.454c0,2.479-1.846,4.82-4.792,5.15l5.535,8.896h-3.305
		l-4.958-8.593h-2.946v8.593h-2.645V3.354z M76.106,11.947h3.47c2.094,0,4.187-0.496,4.187-3.14s-2.093-3.14-4.187-3.14h-3.47
		V11.947z"/>
	<path fill="#FFFFFF" d="M91.827,13.104c0-5.784,4.214-10.246,10.163-10.246s10.163,4.462,10.163,10.246
		c0,5.784-4.214,10.246-10.163,10.246S91.827,18.888,91.827,13.104z M109.344,13.104c0-4.269-2.892-7.767-7.354-7.767
		s-7.354,3.498-7.354,7.767s2.892,7.767,7.354,7.767S109.344,17.373,109.344,13.104z"/>
	<path fill="#FFFFFF" d="M118.701,3.354h2.645v17.021h8.951v2.479h-11.596V3.354z"/>
	<path fill="#FFFFFF" d="M135.745,3.354h2.645v17.021h8.951v2.479h-11.596V3.354z"/>
	<path fill="#FFFFFF" d="M163.197,3.354h2.645v19.5h-2.645V3.354z"/>
	<path fill="#FFFFFF" d="M173.605,3.354h3.471l10.741,16.03h0.055V3.354h2.645v19.5h-3.36L176.305,6.825h-0.055v16.029h-2.645V3.354
		z"/>
	<path fill="#FFFFFF" d="M208.161,3.354h6.5l4.489,12.725h0.056l4.517-12.725h6.473v19.5h-4.297V7.898h-0.055l-5.123,14.956h-3.277
		l-4.931-14.956h-0.055v14.956h-4.297V3.354z"/>
	<path fill="#FFFFFF" d="M243.325,3.354h3.553l8.482,19.5h-4.847l-1.681-4.131h-7.574l-1.625,4.131h-4.736L243.325,3.354z
		 M244.978,9.028l-2.369,6.059h4.766L244.978,9.028z"/>
	<path fill="#FFFFFF" d="M269.704,8.119c-0.688-0.881-2.065-1.294-3.112-1.294c-1.212,0-2.892,0.551-2.892,2.01
		c0,3.553,8.979,1.267,8.979,8.098c0,4.352-3.498,6.417-7.52,6.417c-2.506,0-4.709-0.744-6.555-2.451l3.058-3.36
		c0.881,1.157,2.313,1.845,3.745,1.845c1.405,0,2.975-0.661,2.975-2.038c0-3.581-9.144-1.653-9.144-8.153
		c0-4.159,3.607-6.334,7.437-6.334c2.203,0,4.324,0.579,5.977,2.038L269.704,8.119z"/>
	<path fill="#FFFFFF" d="M282.396,7.155h-5.563V3.354h15.423v3.801h-5.563v15.699h-4.296V7.155z"/>
	<path fill="#FFFFFF" d="M297.347,3.354h13.247V7.32h-8.951v3.635h8.456v3.966h-8.456v3.966h9.447v3.966h-13.743V3.354z"/>
	<path fill="#FFFFFF" d="M317.281,3.354h7.547c3.993,0,7.354,1.377,7.354,5.922c0,2.727-1.46,4.847-4.214,5.343l4.957,8.235h-5.15
		l-4.076-7.794h-2.12v7.794h-4.297V3.354z M321.578,11.424h2.533c1.57,0,3.608-0.055,3.608-2.176c0-1.956-1.763-2.258-3.333-2.258
		h-2.809V11.424z"/>
	<path fill="#FFFFFF" d="M348.78,3.354h6.5l4.489,12.725h0.056l4.517-12.725h6.473v19.5h-4.297V7.898h-0.055l-5.123,14.956h-3.277
		l-4.931-14.956h-0.055v14.956h-4.297V3.354z"/>
	<path fill="#FFFFFF" d="M383.944,3.354h3.553l8.482,19.5h-4.847l-1.681-4.131h-7.574l-1.625,4.131h-4.736L383.944,3.354z
		 M385.597,9.028l-2.369,6.059h4.766L385.597,9.028z"/>
	<path fill="#FFFFFF" d="M400.849,3.354h4.297v8.098l7.574-8.098h5.618l-8.676,9.062l9.42,10.438h-6.005l-7.932-9.254v9.254h-4.297
		V3.354z"/>
	<path fill="#FFFFFF" d="M423.482,3.354h13.247V7.32h-8.951v3.635h8.456v3.966h-8.456v3.966h9.447v3.966h-13.743V3.354z"/>
	<path fill="#FFFFFF" d="M459.859,15.335c0,4.6-2.81,8.015-8.207,8.015c-5.426,0-8.235-3.415-8.235-8.015V3.354h4.297V15.17
		c0,2.396,1.652,4.214,3.938,4.214c2.258,0,3.91-1.818,3.91-4.214V3.354h4.297V15.335z"/>
	<path fill="#FFFFFF" d="M466.573,3.354h7.244c4.049,0,7.408,1.294,7.408,5.922c0,4.572-3.112,5.977-7.216,5.977h-3.14v7.602h-4.297
		V3.354z M470.87,11.617h2.864c1.515,0,3.03-0.523,3.03-2.341c0-2.011-2.039-2.286-3.691-2.286h-2.203V11.617z"/>
	<path fill="#FFFFFF" d="M503.994,3.354h3.553l8.483,19.5h-4.848l-1.68-4.131h-7.574l-1.625,4.131h-4.737L503.994,3.354z
		 M505.646,9.028l-2.368,6.059h4.765L505.646,9.028z"/>
	<path fill="#FFFFFF" d="M520.734,3.354h7.547c3.993,0,7.354,1.377,7.354,5.922c0,2.727-1.46,4.847-4.214,5.343l4.957,8.235h-5.15
		l-4.076-7.794h-2.12v7.794h-4.297V3.354z M525.031,11.424h2.533c1.57,0,3.608-0.055,3.608-2.176c0-1.956-1.763-2.258-3.333-2.258
		h-2.809V11.424z"/>
	<path fill="#FFFFFF" d="M544.608,7.155h-5.563V3.354h15.423v3.801h-5.563v15.699h-4.296V7.155z"/>
	<path fill="#FFFFFF" d="M559.338,3.354h4.297v19.5h-4.297V3.354z"/>
	<path fill="#FFFFFF" d="M579.936,8.119c-0.688-0.881-2.065-1.294-3.111-1.294c-1.212,0-2.893,0.551-2.893,2.01
		c0,3.553,8.979,1.267,8.979,8.098c0,4.352-3.497,6.417-7.519,6.417c-2.507,0-4.71-0.744-6.555-2.451l3.057-3.36
		c0.882,1.157,2.313,1.845,3.746,1.845c1.404,0,2.975-0.661,2.975-2.038c0-3.581-9.145-1.653-9.145-8.153
		c0-4.159,3.608-6.334,7.437-6.334c2.203,0,4.324,0.579,5.977,2.038L579.936,8.119z"/>
	<path fill="#FFFFFF" d="M592.628,7.155h-5.563V3.354h15.423v3.801h-5.563v15.699h-4.296V7.155z"/>
	<path fill="#FFFFFF" d="M607.413,3.354h7.547c3.993,0,7.354,1.377,7.354,5.922c0,2.727-1.46,4.847-4.214,5.343l4.957,8.235h-5.15
		l-4.076-7.794h-2.12v7.794h-4.297V3.354z M611.71,11.424h2.533c1.57,0,3.608-0.055,3.608-2.176c0-1.956-1.763-2.258-3.333-2.258
		h-2.809V11.424z"/>
	<path fill="#FFFFFF" d="M632.306,14.536l-7.326-11.182h5.344l4.131,7.299l4.379-7.299h5.096l-7.326,11.182v8.318h-4.297V14.536z"/>
	<path fill="#FFFFFF" d="M665.65,3.354h2.396l8.346,19.5h-3.085l-1.956-4.82h-9.281l-1.928,4.82h-3.085L665.65,3.354z
		 M670.388,15.721l-3.636-8.951h-0.055l-3.69,8.951H670.388z"/>
	<path fill="#FFFFFF" d="M681.674,3.354h3.471l10.741,16.03h0.055V3.354h2.645v19.5h-3.36L684.373,6.825h-0.055v16.029h-2.645V3.354
		z"/>
	<path fill="#FFFFFF" d="M705.904,3.354h6.803c8.235,0,10.246,6.142,10.246,9.75c0,4.985-3.719,9.75-10.687,9.75h-6.362V3.354z
		 M708.548,20.375h3.333c4.462,0,8.263-2.451,8.263-7.271c0-2.479-1.295-7.271-7.629-7.271h-3.967V20.375z"/>
</g>
<g>
</g>
<g>
</g>
<g>
</g>
<g>
</g>
<g>
</g>
<g>
</g>
</svg>
