<svg width="80" height="80" viewBox="0 0 80 80" fill="none" xmlns="http://www.w3.org/2000/svg">
<path d="M11.4569 14.6381L14.4352 17.6164L24.8021 7.24951L24.8403 7.2877L17.8908 21.072L20.1628 23.344L34.0807 16.5282L34.1189 16.5664L23.752 26.9332L26.7304 29.9116L40.2474 16.3945L35.7608 11.9079L23.8093 17.5973L23.7711 17.5591L29.4796 5.6267L24.9739 1.12102L11.4569 14.6381ZM35.519 25.1832C31.1852 29.5171 31.4907 35.3592 35.71 39.5785C39.9293 43.7978 45.7714 44.1033 50.1052 39.7694C54.4391 35.4355 54.1336 29.5934 49.9143 25.3741C45.695 21.1548 39.8529 20.8493 35.519 25.1832ZM38.6119 28.2761C41.1321 25.756 44.6259 25.5841 47.1651 28.1234C49.7043 30.6626 49.5325 34.1564 47.0124 36.6765C44.4922 39.1966 40.9984 39.3685 38.4592 36.8293C35.92 34.29 36.0918 30.7962 38.6119 28.2761ZM66.544 44.8293C66.4103 42.672 65.3412 40.801 63.8138 39.2736C61.16 36.6198 57.1507 35.6271 54.2679 38.5099C49.7622 43.0156 57.4371 48.0177 54.9552 50.4996C54.0006 51.4542 52.4541 50.8242 51.4805 49.8505C50.4877 48.8577 49.9722 47.3877 50.1631 45.9749L45.7147 46.1849C45.8102 48.6477 46.822 50.6906 48.5594 52.4279C51.3468 55.2153 55.2034 56.2081 58.2199 53.1916C62.9547 48.4568 55.1461 43.8175 57.609 41.3546C58.6208 40.3428 60.1673 41.1255 61.0073 41.9656C61.7328 42.6911 62.401 43.932 62.2674 45.0203L66.544 44.8293ZM58.9496 62.1308L61.9279 65.1091L72.8103 54.2267L76.6668 58.0833L79.3015 55.4486L68.6101 44.7572L65.9754 47.3918L69.8319 51.2484L58.9496 62.1308ZM0.290233 24.6846L2.05517 26.4496L5.17776 23.327L6.46752 24.6168C8.15326 26.3025 10.0087 27.004 11.8868 25.1259C13.7875 23.2252 12.939 21.3132 11.2758 19.65L8.30034 16.6745L0.290233 24.6846ZM8.57187 19.9329L9.47696 20.838C10.1558 21.5168 10.8799 22.4672 10.054 23.2931C9.30726 24.0398 8.47004 23.6325 7.84779 23.0102L6.67116 21.8336L8.57187 19.9329ZM10.9917 27.376C8.42346 29.9442 8.60448 33.4062 11.1048 35.9065C13.6051 38.4068 17.0671 38.5879 19.6353 36.0197C22.2036 33.4514 22.0225 29.9894 19.5222 27.4891C17.0219 24.9888 13.5599 24.8078 10.9917 27.376ZM12.8245 29.2088C14.3179 27.7154 16.3883 27.6136 17.893 29.1183C19.3978 30.623 19.2959 32.6934 17.8025 34.1868C16.3091 35.6802 14.2387 35.7821 12.734 34.2773C11.2293 32.7726 11.3311 30.7022 12.8245 29.2088ZM16.8299 41.2243L18.5948 42.9893L21.7174 39.8667L23.0072 41.1564C24.6929 42.8422 26.5484 43.5436 28.4265 41.6655C30.3272 39.7648 29.4786 37.8528 27.8155 36.1897L24.84 33.2142L16.8299 41.2243ZM25.1115 36.4726L26.0166 37.3777C26.6955 38.0565 27.4195 39.0068 26.5936 39.8327C25.8469 40.5794 25.0097 40.1721 24.3875 39.5499L23.2108 38.3733L25.1115 36.4726ZM38.7206 47.0948L36.9557 45.3299L32.1021 50.1834C31.1178 51.1677 29.6923 51.2356 28.7645 50.3079C27.8255 49.3689 27.8934 47.9433 28.8777 46.959L33.7313 42.1055L31.9663 40.3405L27.0449 45.262C25.1555 47.1514 24.9066 49.7083 27.1354 51.9371C29.3529 54.1546 31.9097 53.9057 33.7991 52.0163L38.7206 47.0948ZM32.4099 56.8044L37.4445 61.839L39.0737 60.2098L35.8041 56.9401L42.185 50.5592L40.42 48.7942L32.4099 56.8044ZM37.5929 61.9873L39.5388 63.9332L41.9034 62.9037L45.0146 66.0149L44.0077 68.4021L45.9989 70.3934L50.5244 58.8986L49.065 57.4392L37.5929 61.9873ZM45.9084 63.9219L43.9512 61.9646L47.4132 60.4486L45.9084 63.9219ZM46.8046 71.199L48.5695 72.964L51.7713 69.7622L52.6425 70.6333L51.1151 75.5095L53.2308 77.6252L54.5771 72.2059C55.9121 73.1337 57.3829 72.8621 58.503 71.7421C60.3697 69.8753 59.5551 67.9293 57.9147 66.2889L54.8147 63.1889L46.8046 71.199ZM55.0862 66.4473L56.2402 67.6013C56.8851 68.2461 57.4847 69.0947 56.6815 69.8979C55.8103 70.7691 54.9505 69.9545 54.3056 69.3096L53.2647 68.2688L55.0862 66.4473Z" fill="#FFFEFE"/>
</svg>
