<?xml version="1.0" encoding="utf-8"?>
<!-- Generator: Adobe Illustrator 16.0.3, SVG Export Plug-In . SVG Version: 6.00 Build 0)  -->
<!DOCTYPE svg PUBLIC "-//W3C//DTD SVG 1.1//EN" "http://www.w3.org/Graphics/SVG/1.1/DTD/svg11.dtd">
<svg version="1.1" xmlns="http://www.w3.org/2000/svg" xmlns:xlink="http://www.w3.org/1999/xlink" x="0px" y="0px"
	 width="296.583px" height="40.155px" viewBox="0 0 296.583 40.155" enable-background="new 0 0 296.583 40.155"
	 xml:space="preserve">
<g id="Layer_1">
	<rect fill="#3A52EB" width="296.583" height="40.155"/>
	<g>
		<path fill="#FFFFFF" d="M163.963,11.344h5.652c5.507,0,10.12,2.343,10.12,8.599c0,5.531-4.517,8.502-9.613,8.502h-6.159V11.344z
			 M167.73,24.967h1.957c3.502,0,6.135-1.329,6.135-5.218c0-3.357-2.681-4.927-5.869-4.927h-2.223V24.967z"/>
		<path fill="#FFFFFF" d="M182.08,11.344h11.619v3.479h-7.851v3.188h7.415v3.479h-7.415v3.479h8.285v3.478H182.08V11.344z"/>
		<path fill="#FFFFFF" d="M196.937,11.344h3.769v13.624h6.98v3.478h-10.749V11.344z"/>
		<path fill="#FFFFFF" d="M223.822,21.851c0,4.034-2.464,7.029-7.198,7.029c-4.758,0-7.222-2.995-7.222-7.029V11.344h3.768v10.362
			c0,2.102,1.45,3.696,3.454,3.696c1.981,0,3.431-1.594,3.431-3.696V11.344h3.768V21.851z"/>
		<path fill="#FFFFFF" d="M231.191,19.508l-5.652-8.165h4.734l3.647,5.99l3.503-5.99h4.564l-5.531,8.092l6.184,9.01h-4.734
			l-4.179-6.884l-4.058,6.884h-4.469L231.191,19.508z"/>
		<path fill="#FFFFFF" d="M244.164,11.344h11.619v3.479h-7.851v3.188h7.415v3.479h-7.415v3.479h8.285v3.478h-12.054V11.344z"/>
		<path fill="#FFFFFF" d="M258.32,24.604l6.643-5.966c0.677-0.628,1.521-1.353,1.521-2.392c0-1.159-0.99-1.86-2.102-1.86
			c-1.328,0-2.125,0.942-2.222,2.174l-3.623-0.266c0.217-3.526,2.681-5.241,6.038-5.241c3.116,0,5.531,1.715,5.531,5.145
			c0,2.198-0.941,3.454-2.246,4.589l-5.193,4.469h7.585v3.188H258.32V24.604z"/>
		<path fill="#FFFFFF" d="M278.032,15.402l-3.431,3.019l-2.053-2.367l5.579-4.71h3.382v17.102h-3.478V15.402z"/>
	</g>
	<g>
		<path fill="#FFFFFF" d="M23.713,12.111h1.574L32.185,28.5h-1.713l-1.782-4.352h-8.68L18.158,28.5h-1.597L23.713,12.111z
			 M24.431,13.778l-3.819,8.981h7.523L24.431,13.778z"/>
		<path fill="#FFFFFF" d="M34.204,12.111h4.722c2.315,0,5.278,0.903,5.278,4.329c0,2.963-2.361,4.283-4.931,4.283h-3.542V28.5
			h-1.528V12.111z M35.731,19.333h3.472c1.736,0,3.472-0.741,3.472-2.894c0-2.106-1.806-2.939-3.564-2.939h-3.38V19.333z"/>
		<path fill="#FFFFFF" d="M47.147,12.111h4.722c2.315,0,5.278,0.903,5.278,4.329c0,2.963-2.361,4.283-4.931,4.283h-3.542V28.5
			h-1.528V12.111z M48.675,19.333h3.472c1.736,0,3.472-0.741,3.472-2.894c0-2.106-1.806-2.939-3.564-2.939h-3.38V19.333z"/>
		<path fill="#FFFFFF" d="M60.09,12.111h1.528v15h7.639V28.5H60.09V12.111z"/>
		<path fill="#FFFFFF" d="M72.385,21.44l-6.018-9.329h1.829l4.954,7.778l5.069-7.778h1.713l-6.019,9.329v7.06h-1.528V21.44z"/>
		<path fill="#FFFFFF" d="M100.862,25.931c-1.551,2.129-3.68,2.986-6.088,2.986c-5,0-8.472-3.611-8.472-8.611
			s3.472-8.611,8.472-8.611c2.222,0,4.213,0.741,5.648,2.569l-1.25,1.042c-1.019-1.527-2.755-2.222-4.398-2.222
			c-4.282,0-6.944,3.148-6.944,7.222c0,4.074,2.662,7.222,6.944,7.222c1.644,0,3.681-0.787,4.838-2.546L100.862,25.931z"/>
		<path fill="#FFFFFF" d="M110.728,11.695c5,0,8.472,3.611,8.472,8.611s-3.472,8.611-8.472,8.611c-5,0-8.472-3.611-8.472-8.611
			S105.729,11.695,110.728,11.695z M110.728,27.528c4.283,0,6.944-3.148,6.944-7.222c0-4.074-2.662-7.222-6.944-7.222
			c-4.282,0-6.944,3.148-6.944,7.222C103.784,24.38,106.446,27.528,110.728,27.528z"/>
		<path fill="#FFFFFF" d="M122.077,12.111h5.069c8.518,0,8.865,6.991,8.865,8.194s-0.347,8.194-8.865,8.194h-5.069V12.111z
			 M123.604,27.111h3.148c4.352,0,7.731-2.106,7.731-6.806c0-4.699-3.38-6.805-7.731-6.805h-3.148V27.111z"/>
		<path fill="#FFFFFF" d="M139.095,12.111h10.023V13.5h-8.495v5.833h7.963v1.389h-7.963v6.389h8.866V28.5h-10.395V12.111z"/>
		<path fill="#FFFFFF" d="M153.243,17.667c0.625,0,1.11,0.486,1.11,1.111s-0.485,1.111-1.11,1.111s-1.111-0.486-1.111-1.111
			S152.618,17.667,153.243,17.667z M153.243,26.417c0.625,0,1.11,0.486,1.11,1.111s-0.485,1.111-1.11,1.111
			s-1.111-0.486-1.111-1.111S152.618,26.417,153.243,26.417z"/>
	</g>
</g>
<g id="Layer_5" display="none">
	<rect display="inline" fill="#40D31C" width="296.583" height="40.155"/>
	<g display="inline">
		<path fill="#FFFFFF" d="M171.766,11.597h5.509c5.368,0,9.865,2.284,9.865,8.382c0,5.392-4.402,8.288-9.37,8.288h-6.004V11.597z
			 M175.438,24.875h1.907c3.414,0,5.98-1.295,5.98-5.085c0-3.272-2.614-4.803-5.722-4.803h-2.166V24.875z"/>
		<path fill="#FFFFFF" d="M189.421,11.597h11.324v3.391h-7.651v3.108h7.228v3.39h-7.228v3.39h8.075v3.391h-11.748V11.597z"/>
		<path fill="#FFFFFF" d="M203.898,11.597h3.673v13.279h6.804v3.391h-10.477V11.597z"/>
		<path fill="#FFFFFF" d="M230.101,21.838c0,3.932-2.401,6.852-7.016,6.852c-4.639,0-7.04-2.919-7.04-6.852V11.597h3.673v10.101
			c0,2.048,1.412,3.602,3.367,3.602c1.931,0,3.343-1.554,3.343-3.602V11.597h3.673V21.838z"/>
		<path fill="#FFFFFF" d="M237.279,19.555l-5.509-7.958h4.614l3.555,5.839l3.414-5.839h4.45l-5.392,7.887l6.027,8.782h-4.614
			l-4.073-6.71l-3.956,6.71h-4.355L237.279,19.555z"/>
		<path fill="#FFFFFF" d="M249.92,11.597h11.324v3.391h-7.651v3.108h7.228v3.39h-7.228v3.39h8.075v3.391H249.92V11.597z"/>
		<path fill="#FFFFFF" d="M263.714,24.522l6.475-5.815c0.66-0.612,1.483-1.318,1.483-2.331c0-1.13-0.965-1.813-2.048-1.813
			c-1.295,0-2.072,0.918-2.166,2.119l-3.532-0.259c0.212-3.438,2.613-5.109,5.887-5.109c3.037,0,5.392,1.672,5.392,5.015
			c0,2.143-0.919,3.367-2.189,4.474l-5.063,4.355h7.393v3.108h-11.631V24.522z"/>
		<path fill="#FFFFFF" d="M282.925,15.552l-3.344,2.943l-2.001-2.307l5.438-4.591h3.296v16.669h-3.39V15.552z"/>
	</g>
	<g display="inline">
		<path fill="#FFFFFF" d="M23.115,25.814c-1.512,2.076-3.588,2.911-5.936,2.911c-4.875,0-8.26-3.521-8.26-8.395
			c0-4.875,3.385-8.396,8.26-8.396c2.167,0,4.107,0.722,5.507,2.505l-1.219,1.016c-0.993-1.489-2.686-2.167-4.288-2.167
			c-4.175,0-6.77,3.069-6.77,7.042c0,3.972,2.595,7.041,6.77,7.041c1.603,0,3.588-0.768,4.717-2.482L23.115,25.814z"/>
		<path fill="#FFFFFF" d="M32.726,11.935c4.875,0,8.26,3.521,8.26,8.396c0,4.875-3.385,8.395-8.26,8.395s-8.26-3.521-8.26-8.395
			C24.466,15.456,27.852,11.935,32.726,11.935z M32.726,27.372c4.175,0,6.771-3.069,6.771-7.041c0-3.972-2.595-7.042-6.771-7.042
			c-4.175,0-6.77,3.069-6.77,7.042C25.956,24.302,28.551,27.372,32.726,27.372z"/>
		<path fill="#FFFFFF" d="M43.781,12.341h4.942c8.305,0,8.644,6.815,8.644,7.989c0,1.173-0.338,7.989-8.644,7.989h-4.942V12.341z
			 M45.271,26.965h3.069c4.243,0,7.538-2.054,7.538-6.635c0-4.582-3.295-6.635-7.538-6.635h-3.069V26.965z"/>
		<path fill="#FFFFFF" d="M60.366,12.341h9.772v1.354h-8.282v5.687h7.763v1.354h-7.763v6.229h8.643v1.354H60.366V12.341z"/>
		<path fill="#FFFFFF" d="M83.833,12.341h1.535l6.725,15.978h-1.67l-1.738-4.243h-8.463l-1.806,4.243h-1.557L83.833,12.341z
			 M84.532,13.966l-3.724,8.756h7.334L84.532,13.966z"/>
		<path fill="#FFFFFF" d="M94.053,12.341h4.604c2.257,0,5.146,0.88,5.146,4.22c0,2.889-2.302,4.175-4.807,4.175h-3.453v7.583h-1.49
			V12.341z M95.543,19.382h3.385c1.693,0,3.385-0.722,3.385-2.821c0-2.054-1.76-2.866-3.475-2.866h-3.295V19.382z"/>
		<path fill="#FFFFFF" d="M106.666,12.341h4.604c2.257,0,5.146,0.88,5.146,4.22c0,2.889-2.302,4.175-4.807,4.175h-3.453v7.583h-1.49
			V12.341z M108.156,19.382h3.385c1.693,0,3.385-0.722,3.385-2.821c0-2.054-1.76-2.866-3.475-2.866h-3.295V19.382z"/>
		<path fill="#FFFFFF" d="M119.279,12.341h1.49v14.624h7.447v1.354h-8.937V12.341z"/>
		<path fill="#FFFFFF" d="M130.223,12.341h1.49v15.978h-1.49V12.341z"/>
		<path fill="#FFFFFF" d="M135.75,12.341h9.772v1.354h-8.282v5.687h7.763v1.354h-7.763v6.229h8.644v1.354H135.75V12.341z"/>
		<path fill="#FFFFFF" d="M148.589,12.341h4.943c8.305,0,8.643,6.815,8.643,7.989c0,1.173-0.338,7.989-8.643,7.989h-4.943V12.341z
			 M150.079,26.965h3.068c4.244,0,7.538-2.054,7.538-6.635c0-4.582-3.294-6.635-7.538-6.635h-3.068V26.965z"/>
		<path fill="#FFFFFF" d="M165.919,17.758c0.609,0,1.083,0.474,1.083,1.083s-0.474,1.083-1.083,1.083s-1.084-0.474-1.084-1.083
			S165.31,17.758,165.919,17.758z M165.919,26.288c0.609,0,1.083,0.474,1.083,1.083s-0.474,1.083-1.083,1.083
			s-1.084-0.474-1.084-1.083S165.31,26.288,165.919,26.288z"/>
	</g>
</g>
</svg>
