<?xml version="1.0" encoding="utf-8"?>
<!-- Generator: Adobe Illustrator 16.0.3, SVG Export Plug-In . SVG Version: 6.00 Build 0)  -->
<!DOCTYPE svg PUBLIC "-//W3C//DTD SVG 1.1//EN" "http://www.w3.org/Graphics/SVG/1.1/DTD/svg11.dtd">
<svg version="1.1" xmlns="http://www.w3.org/2000/svg" xmlns:xlink="http://www.w3.org/1999/xlink" x="0px" y="0px"
	 width="351.625px" height="40.155px" viewBox="0 0 351.625 40.155" enable-background="new 0 0 351.625 40.155"
	 xml:space="preserve">
<g id="Layer_1">
	<rect fill="#FF0069" width="351.625" height="40.155"/>
	<g>
		<path fill="#FFFFFF" d="M175.636,11.344h4.105l2.729,10.966h0.049l3.575-10.966h3.502l3.551,11.256h0.048l2.875-11.256h3.816
			l-5,17.102h-3.357l-3.769-11.836h-0.048l-3.769,11.836h-3.236L175.636,11.344z"/>
		<path fill="#FFFFFF" d="M201.362,11.344h11.619v3.479h-7.851v3.188h7.415v3.479h-7.415v3.479h8.285v3.478h-12.054V11.344z"/>
		<path fill="#FFFFFF" d="M216.219,11.344h11.619v3.479h-7.851v3.188h7.415v3.479h-7.415v3.479h8.285v3.478h-12.054V11.344z"/>
		<path fill="#FFFFFF" d="M231.075,11.344h3.769v7.102l6.643-7.102h4.928l-7.609,7.947l8.261,9.155H241.8l-6.956-8.116v8.116h-3.769
			V11.344z"/>
		<path fill="#FFFFFF" d="M248.154,11.344h11.619v3.479h-7.851v3.188h7.415v3.479h-7.415v3.479h8.285v3.478h-12.054V11.344z"/>
		<path fill="#FFFFFF" d="M262.866,11.344h5.121l7.271,11.884h0.048V11.344h3.769v17.102h-4.928l-7.464-12.174h-0.049v12.174h-3.768
			V11.344z"/>
		<path fill="#FFFFFF" d="M282.192,11.344h5.652c5.507,0,10.12,2.343,10.12,8.599c0,5.531-4.517,8.502-9.613,8.502h-6.159V11.344z
			 M285.96,24.967h1.957c3.502,0,6.135-1.329,6.135-5.218c0-3.357-2.681-4.927-5.869-4.927h-2.223V24.967z"/>
	</g>
	<g>
		<path fill="#FFFFFF" d="M25.919,11.111h1.574L34.391,27.5h-1.713l-1.782-4.352h-8.68L20.363,27.5h-1.597L25.919,11.111z
			 M26.636,12.778l-3.819,8.981h7.523L26.636,12.778z"/>
		<path fill="#FFFFFF" d="M36.41,11.111h4.722c2.315,0,5.278,0.903,5.278,4.329c0,2.963-2.361,4.283-4.931,4.283h-3.542V27.5H36.41
			V11.111z M37.938,18.333h3.472c1.736,0,3.472-0.741,3.472-2.894c0-2.106-1.806-2.939-3.564-2.939h-3.38V18.333z"/>
		<path fill="#FFFFFF" d="M49.353,11.111h4.722c2.315,0,5.278,0.903,5.278,4.329c0,2.963-2.361,4.283-4.931,4.283H50.88V27.5h-1.528
			V11.111z M50.88,18.333h3.472c1.736,0,3.472-0.741,3.472-2.894c0-2.106-1.806-2.939-3.564-2.939h-3.38V18.333z"/>
		<path fill="#FFFFFF" d="M62.296,11.111h1.528v15h7.639V27.5h-9.167V11.111z"/>
		<path fill="#FFFFFF" d="M74.591,20.44l-6.018-9.329h1.829l4.954,7.778l5.069-7.778h1.713l-6.019,9.329v7.06h-1.528V20.44z"/>
		<path fill="#FFFFFF" d="M108.74,24.931c-1.551,2.129-3.68,2.986-6.088,2.986c-5,0-8.472-3.611-8.472-8.611
			s3.472-8.611,8.472-8.611c2.222,0,4.213,0.741,5.648,2.569l-1.25,1.042c-1.019-1.527-2.755-2.222-4.398-2.222
			c-4.282,0-6.944,3.148-6.944,7.222c0,4.074,2.662,7.222,6.944,7.222c1.644,0,3.681-0.787,4.838-2.546L108.74,24.931z"/>
		<path fill="#FFFFFF" d="M118.605,10.695c5,0,8.472,3.611,8.472,8.611s-3.472,8.611-8.472,8.611c-5,0-8.472-3.611-8.472-8.611
			S113.606,10.695,118.605,10.695z M118.605,26.528c4.283,0,6.944-3.148,6.944-7.222c0-4.074-2.662-7.222-6.944-7.222
			c-4.282,0-6.944,3.148-6.944,7.222C111.662,23.38,114.323,26.528,118.605,26.528z"/>
		<path fill="#FFFFFF" d="M129.954,11.111h5.069c8.518,0,8.865,6.991,8.865,8.194s-0.347,8.194-8.865,8.194h-5.069V11.111z
			 M131.482,26.111h3.148c4.352,0,7.731-2.106,7.731-6.806c0-4.699-3.379-6.805-7.731-6.805h-3.148V26.111z"/>
		<path fill="#FFFFFF" d="M146.973,11.111h10.023V12.5H148.5v5.833h7.963v1.389H148.5v6.389h8.866V27.5h-10.394V11.111z"/>
		<path fill="#FFFFFF" d="M161.12,16.667c0.625,0,1.111,0.486,1.111,1.111s-0.486,1.111-1.111,1.111s-1.111-0.486-1.111-1.111
			S160.495,16.667,161.12,16.667z M161.12,25.417c0.625,0,1.111,0.486,1.111,1.111s-0.486,1.111-1.111,1.111
			s-1.111-0.486-1.111-1.111S160.495,25.417,161.12,25.417z"/>
	</g>
	<g>
		<g>
			<path fill="#FFFFFF" d="M323.614,16.702c-0.222,0-0.457-0.17-0.525-0.382l-2.174-6.684c-0.068-0.212-0.179-0.212-0.247,0
				l-2.171,6.684c-0.068,0.212-0.305,0.382-0.528,0.382h-7.026c-0.223,0-0.258,0.106-0.077,0.235l5.685,4.132
				c0.181,0.13,0.271,0.406,0.202,0.618l-2.173,6.684c-0.069,0.21,0.022,0.277,0.202,0.145l5.685-4.13
				c0.181-0.131,0.471-0.131,0.652,0l5.686,4.132c0.179,0.13,0.269,0.065,0.2-0.147l-2.171-6.684c-0.067-0.212,0.02-0.488,0.2-0.618
				l5.687-4.132c0.179-0.129,0.146-0.235-0.076-0.235H323.614z M323.614,16.702"/>
		</g>
	</g>
</g>
<g id="Layer_3">
	<rect fill="#40D31C" width="351.625" height="40.155"/>
	<g>
		<path fill="#FFFFFF" d="M175.636,11.344h4.105l2.729,10.966h0.049l3.575-10.966h3.502l3.551,11.256h0.048l2.875-11.256h3.816
			l-5,17.102h-3.357l-3.769-11.836h-0.048l-3.769,11.836h-3.236L175.636,11.344z"/>
		<path fill="#FFFFFF" d="M201.362,11.344h11.619v3.479h-7.851v3.188h7.415v3.479h-7.415v3.479h8.285v3.478h-12.054V11.344z"/>
		<path fill="#FFFFFF" d="M216.219,11.344h11.619v3.479h-7.851v3.188h7.415v3.479h-7.415v3.479h8.285v3.478h-12.054V11.344z"/>
		<path fill="#FFFFFF" d="M231.075,11.344h3.769v7.102l6.643-7.102h4.928l-7.609,7.947l8.261,9.155H241.8l-6.956-8.116v8.116h-3.769
			V11.344z"/>
		<path fill="#FFFFFF" d="M248.154,11.344h11.619v3.479h-7.851v3.188h7.415v3.479h-7.415v3.479h8.285v3.478h-12.054V11.344z"/>
		<path fill="#FFFFFF" d="M262.866,11.344h5.121l7.271,11.884h0.048V11.344h3.769v17.102h-4.928l-7.464-12.174h-0.049v12.174h-3.768
			V11.344z"/>
		<path fill="#FFFFFF" d="M282.192,11.344h5.652c5.507,0,10.12,2.343,10.12,8.599c0,5.531-4.517,8.502-9.613,8.502h-6.159V11.344z
			 M285.96,24.967h1.957c3.502,0,6.135-1.329,6.135-5.218c0-3.357-2.681-4.927-5.869-4.927h-2.223V24.967z"/>
	</g>
	<g>
		<path fill="#FFFFFF" d="M24.48,24.931c-1.551,2.129-3.68,2.986-6.088,2.986c-5,0-8.472-3.611-8.472-8.611s3.472-8.611,8.472-8.611
			c2.222,0,4.213,0.741,5.648,2.569l-1.25,1.042c-1.019-1.527-2.755-2.222-4.398-2.222c-4.282,0-6.944,3.148-6.944,7.222
			c0,4.074,2.662,7.222,6.944,7.222c1.644,0,3.681-0.787,4.838-2.546L24.48,24.931z"/>
		<path fill="#FFFFFF" d="M34.346,10.695c5,0,8.472,3.611,8.472,8.611s-3.472,8.611-8.472,8.611c-5,0-8.472-3.611-8.472-8.611
			S29.347,10.695,34.346,10.695z M34.346,26.528c4.283,0,6.944-3.148,6.944-7.222c0-4.074-2.662-7.222-6.944-7.222
			c-4.282,0-6.944,3.148-6.944,7.222C27.402,23.38,30.064,26.528,34.346,26.528z"/>
		<path fill="#FFFFFF" d="M45.695,11.111h5.069c8.518,0,8.865,6.991,8.865,8.194S59.282,27.5,50.764,27.5h-5.069V11.111z
			 M47.223,26.111h3.148c4.352,0,7.731-2.106,7.731-6.806c0-4.699-3.38-6.805-7.731-6.805h-3.148V26.111z"/>
		<path fill="#FFFFFF" d="M62.713,11.111h10.023V12.5h-8.495v5.833h7.963v1.389h-7.963v6.389h8.866V27.5H62.713V11.111z"/>
		<path fill="#FFFFFF" d="M86.793,11.111h1.574L95.265,27.5h-1.713l-1.782-4.352h-8.68L81.237,27.5H79.64L86.793,11.111z
			 M87.51,12.778l-3.819,8.981h7.523L87.51,12.778z"/>
		<path fill="#FFFFFF" d="M97.283,11.111h4.722c2.315,0,5.278,0.903,5.278,4.329c0,2.963-2.361,4.283-4.931,4.283h-3.542V27.5
			h-1.528V11.111z M98.811,18.333h3.472c1.736,0,3.472-0.741,3.472-2.894c0-2.106-1.806-2.939-3.564-2.939h-3.38V18.333z"/>
		<path fill="#FFFFFF" d="M110.227,11.111h4.722c2.315,0,5.278,0.903,5.278,4.329c0,2.963-2.361,4.283-4.931,4.283h-3.542V27.5
			h-1.528V11.111z M111.755,18.333h3.472c1.736,0,3.472-0.741,3.472-2.894c0-2.106-1.806-2.939-3.564-2.939h-3.38V18.333z"/>
		<path fill="#FFFFFF" d="M123.17,11.111h1.528v15h7.639V27.5h-9.167V11.111z"/>
		<path fill="#FFFFFF" d="M134.4,11.111h1.528V27.5H134.4V11.111z"/>
		<path fill="#FFFFFF" d="M140.073,11.111h10.023V12.5h-8.495v5.833h7.963v1.389h-7.963v6.389h8.866V27.5h-10.394V11.111z"/>
		<path fill="#FFFFFF" d="M153.249,11.111h5.069c8.518,0,8.865,6.991,8.865,8.194s-0.347,8.194-8.865,8.194h-5.069V11.111z
			 M154.776,26.111h3.148c4.352,0,7.731-2.106,7.731-6.806c0-4.699-3.38-6.805-7.731-6.805h-3.148V26.111z"/>
		<path fill="#FFFFFF" d="M171.031,16.667c0.625,0,1.111,0.486,1.111,1.111s-0.486,1.111-1.111,1.111s-1.111-0.486-1.111-1.111
			S170.406,16.667,171.031,16.667z M171.031,25.417c0.625,0,1.111,0.486,1.111,1.111s-0.486,1.111-1.111,1.111
			s-1.111-0.486-1.111-1.111S170.406,25.417,171.031,25.417z"/>
	</g>
	<g>
		<polygon fill="#FFFFFF" points="322.249,12.883 314.661,22.268 309.207,17.805 307.101,20.377 312.57,24.856 315.144,26.961 
			317.235,24.375 324.835,14.975 		"/>
	</g>
	<g>
	</g>
	<g>
	</g>
	<g>
	</g>
	<g>
	</g>
	<g>
	</g>
	<g>
	</g>
</g>
</svg>
