<?xml version="1.0" encoding="utf-8"?>
<!-- Generator: Adobe Illustrator 16.0.3, SVG Export Plug-In . SVG Version: 6.00 Build 0)  -->
<!DOCTYPE svg PUBLIC "-//W3C//DTD SVG 1.1//EN" "http://www.w3.org/Graphics/SVG/1.1/DTD/svg11.dtd">
<svg version="1.1" xmlns="http://www.w3.org/2000/svg" xmlns:xlink="http://www.w3.org/1999/xlink" x="0px" y="0px"
	 width="296.583px" height="40.155px" viewBox="0 0 296.583 40.155" enable-background="new 0 0 296.583 40.155"
	 xml:space="preserve">
<g id="Layer_1" display="none">
	<rect display="inline" fill="#FF0069" width="296.583" height="40.155"/>
	<g display="inline">
		<g>
			<path fill="#FFFFFF" d="M177.337,13.698h4.754c2.232,0,4.664,0.468,4.664,3.241c0,1.422-0.883,2.395-2.197,2.809v0.036
				c1.676,0.216,2.791,1.458,2.791,3.115c0,2.665-2.521,3.547-4.789,3.547h-5.223V13.698z M180.147,18.793h2.033
				c0.865,0,1.766-0.36,1.766-1.386c0-1.063-1.008-1.333-1.891-1.333h-1.908V18.793z M180.147,24.069h2.52
				c0.883,0,1.873-0.378,1.873-1.495c0-1.207-1.35-1.404-2.27-1.404h-2.123V24.069z"/>
			<path fill="#FFFFFF" d="M197.069,17.01c-0.559-0.666-1.369-1.044-2.414-1.044c-2.123,0-3.689,1.729-3.689,4.105
				c0,2.377,1.566,4.105,3.6,4.105c1.135,0,2.053-0.504,2.629-1.369l2.342,1.747c-1.063,1.513-2.863,2.215-4.609,2.215
				c-3.98,0-6.879-2.611-6.879-6.698c0-4.087,2.898-6.698,6.879-6.698c1.422,0,3.223,0.486,4.303,1.873L197.069,17.01z"/>
			<path fill="#FFFFFF" d="M200.899,13.698h2.809v5.293l4.953-5.293h3.672l-5.672,5.923l6.158,6.824h-3.926l-5.186-6.05v6.05h-2.809
				V13.698z"/>
			<path fill="#FFFFFF" d="M213.104,23.583l4.951-4.447c0.504-0.468,1.135-1.008,1.135-1.783c0-0.864-0.738-1.386-1.566-1.386
				c-0.99,0-1.584,0.702-1.656,1.62l-2.701-0.198c0.162-2.629,1.998-3.907,4.502-3.907c2.322,0,4.123,1.278,4.123,3.835
				c0,1.639-0.703,2.575-1.676,3.421l-3.871,3.331h5.654v2.376h-8.895V23.583z"/>
			<path fill="#FFFFFF" d="M230.206,16.813c-0.449-0.576-1.35-0.846-2.035-0.846c-0.791,0-1.891,0.36-1.891,1.314
				c0,2.322,5.871,0.828,5.871,5.293c0,2.845-2.287,4.195-4.916,4.195c-1.639,0-3.078-0.486-4.285-1.603l1.998-2.197
				c0.576,0.756,1.514,1.207,2.449,1.207c0.918,0,1.945-0.432,1.945-1.333c0-2.341-5.979-1.08-5.979-5.33
				c0-2.719,2.359-4.141,4.861-4.141c1.439,0,2.826,0.378,3.906,1.332L230.206,16.813z"/>
		</g>
		<g>
			<path fill="#FFFFFF" d="M69.568,13.752h1.224L76.158,26.5h-1.333l-1.386-3.385h-6.752l-1.44,3.385h-1.243L69.568,13.752z
				 M70.126,15.049l-2.971,6.986h5.852L70.126,15.049z"/>
			<path fill="#FFFFFF" d="M77.721,13.752h3.673c1.801,0,4.105,0.703,4.105,3.367c0,2.305-1.836,3.331-3.835,3.331H78.91v6.05
				h-1.188V13.752z M78.91,19.37h2.701c1.351,0,2.701-0.576,2.701-2.251c0-1.639-1.404-2.287-2.773-2.287H78.91V19.37z"/>
			<path fill="#FFFFFF" d="M87.783,13.752h3.673c1.801,0,4.105,0.703,4.105,3.367c0,2.305-1.836,3.331-3.835,3.331h-2.755v6.05
				h-1.188V13.752z M88.972,19.37h2.701c1.35,0,2.701-0.576,2.701-2.251c0-1.639-1.404-2.287-2.773-2.287h-2.628V19.37z"/>
			<path fill="#FFFFFF" d="M97.845,13.752h1.188V25.42h5.941v1.08h-7.13V13.752z"/>
			<path fill="#FFFFFF" d="M107.404,21.008l-4.681-7.256h1.422l3.853,6.05l3.943-6.05h1.332l-4.681,7.256V26.5h-1.188V21.008z"/>
			<path fill="#FFFFFF" d="M129.546,24.501c-1.207,1.656-2.863,2.323-4.735,2.323c-3.889,0-6.59-2.809-6.59-6.698
				s2.701-6.698,6.59-6.698c1.729,0,3.277,0.576,4.393,1.999l-0.972,0.81c-0.792-1.188-2.143-1.729-3.421-1.729
				c-3.331,0-5.402,2.449-5.402,5.618s2.071,5.618,5.402,5.618c1.278,0,2.863-0.612,3.763-1.98L129.546,24.501z"/>
			<path fill="#FFFFFF" d="M137.212,13.428c3.889,0,6.589,2.809,6.589,6.698s-2.7,6.698-6.589,6.698s-6.59-2.809-6.59-6.698
				S133.323,13.428,137.212,13.428z M137.212,25.744c3.332,0,5.402-2.449,5.402-5.618s-2.07-5.618-5.402-5.618
				c-3.331,0-5.402,2.449-5.402,5.618S133.881,25.744,137.212,25.744z"/>
			<path fill="#FFFFFF" d="M146.03,13.752h3.943c6.627,0,6.896,5.438,6.896,6.374c0,0.937-0.27,6.374-6.896,6.374h-3.943V13.752z
				 M147.22,25.42h2.448c3.385,0,6.014-1.639,6.014-5.294c0-3.655-2.629-5.293-6.014-5.293h-2.448V25.42z"/>
			<path fill="#FFFFFF" d="M159.261,13.752h7.797v1.081h-6.608v4.538h6.194v1.08h-6.194v4.97h6.896v1.08h-8.084V13.752z"/>
			<path fill="#FFFFFF" d="M170.259,18.073c0.486,0,0.864,0.378,0.864,0.864c0,0.486-0.378,0.864-0.864,0.864
				s-0.864-0.378-0.864-0.864C169.395,18.452,169.772,18.073,170.259,18.073z M170.259,24.879c0.486,0,0.864,0.378,0.864,0.864
				c0,0.486-0.378,0.864-0.864,0.864s-0.864-0.378-0.864-0.864C169.395,25.258,169.772,24.879,170.259,24.879z"/>
		</g>
	</g>
</g>
<g id="Layer_5">
	<rect fill="#40D31C" width="296.583" height="40.155"/>
	<g>
		<g>
			<path fill="#FFFFFF" d="M165.138,25.366c-1.656,0.864-3.477,1.225-5.348,1.225c-3.98,0-6.879-2.611-6.879-6.698
				c0-4.087,2.898-6.698,6.879-6.698c2.016,0,3.799,0.45,5.076,1.638l-1.98,2.161c-0.756-0.792-1.674-1.206-3.096-1.206
				c-2.395,0-3.961,1.729-3.961,4.105c0,2.377,1.566,4.105,3.961,4.105c1.225,0,2.125-0.342,2.646-0.63v-2.071h-2.287v-2.593h4.988
				V25.366z"/>
			<path fill="#FFFFFF" d="M167.438,13.518h2.809v10.155h5.203v2.593h-8.012V13.518z"/>
			<path fill="#FFFFFF" d="M182.919,13.194c3.98,0,6.879,2.611,6.879,6.698c0,4.087-2.898,6.698-6.879,6.698
				c-3.979,0-6.877-2.611-6.877-6.698C176.042,15.805,178.94,13.194,182.919,13.194z M182.919,23.998
				c2.395,0,3.961-1.729,3.961-4.105c0-2.376-1.566-4.105-3.961-4.105s-3.961,1.729-3.961,4.105
				C178.958,22.269,180.524,23.998,182.919,23.998z"/>
			<path fill="#FFFFFF" d="M191.431,13.518h4.754c2.232,0,4.664,0.468,4.664,3.241c0,1.422-0.883,2.395-2.197,2.809v0.036
				c1.676,0.216,2.791,1.458,2.791,3.115c0,2.665-2.521,3.547-4.789,3.547h-5.223V13.518z M194.241,18.614h2.033
				c0.865,0,1.766-0.36,1.766-1.386c0-1.063-1.008-1.333-1.891-1.333h-1.908V18.614z M194.241,23.889h2.52
				c0.883,0,1.873-0.378,1.873-1.494c0-1.207-1.35-1.404-2.27-1.404h-2.123V23.889z"/>
			<path fill="#FFFFFF" d="M207.021,13.518h2.322l5.547,12.748h-3.17l-1.098-2.701h-4.951l-1.063,2.701h-3.098L207.021,13.518z
				 M208.101,17.228l-1.549,3.961h3.115L208.101,17.228z"/>
			<path fill="#FFFFFF" d="M216.001,13.518h2.809v10.155h5.205v2.593h-8.014V13.518z"/>
			<path fill="#FFFFFF" d="M225.288,13.518h4.754c2.232,0,4.664,0.468,4.664,3.241c0,1.422-0.883,2.395-2.197,2.809v0.036
				c1.676,0.216,2.791,1.458,2.791,3.115c0,2.665-2.521,3.547-4.789,3.547h-5.223V13.518z M228.099,18.614h2.033
				c0.865,0,1.766-0.36,1.766-1.386c0-1.063-1.008-1.333-1.891-1.333h-1.908V18.614z M228.099,23.889h2.52
				c0.883,0,1.873-0.378,1.873-1.494c0-1.207-1.35-1.404-2.27-1.404h-2.123V23.889z"/>
			<path fill="#FFFFFF" d="M239.149,16.003h-3.637v-2.485h10.082v2.485h-3.637v10.263h-2.809V16.003z"/>
			<path fill="#FFFFFF" d="M249.878,20.829l-4.791-7.311h3.494l2.701,4.771l2.861-4.771h3.332l-4.789,7.311v5.438h-2.809V20.829z"/>
		</g>
		<g>
			<polygon fill="#FFFFFF" points="274.333,13.039 266.745,22.423 261.292,17.959 259.185,20.533 264.655,25.01 267.228,27.117 
				269.319,24.53 276.919,15.129 			"/>
		</g>
		<g>
			<path fill="#FFFFFF" d="M31.907,24.321c-1.207,1.656-2.863,2.323-4.735,2.323c-3.889,0-6.59-2.809-6.59-6.698
				s2.701-6.698,6.59-6.698c1.729,0,3.277,0.576,4.393,1.999l-0.972,0.81c-0.792-1.188-2.143-1.729-3.421-1.729
				c-3.331,0-5.402,2.449-5.402,5.618s2.071,5.618,5.402,5.618c1.278,0,2.863-0.612,3.763-1.98L31.907,24.321z"/>
			<path fill="#FFFFFF" d="M39.574,13.248c3.889,0,6.59,2.809,6.59,6.698s-2.701,6.698-6.59,6.698s-6.59-2.809-6.59-6.698
				S35.685,13.248,39.574,13.248z M39.574,25.563c3.331,0,5.401-2.449,5.401-5.618s-2.07-5.618-5.401-5.618
				s-5.402,2.449-5.402,5.618S36.243,25.563,39.574,25.563z"/>
			<path fill="#FFFFFF" d="M48.392,13.572h3.943c6.626,0,6.896,5.438,6.896,6.374c0,0.937-0.27,6.374-6.896,6.374h-3.943V13.572z
				 M49.581,25.239h2.449c3.385,0,6.014-1.638,6.014-5.293c0-3.655-2.629-5.293-6.014-5.293h-2.449V25.239z"/>
			<path fill="#FFFFFF" d="M61.622,13.572h7.796v1.08h-6.608v4.537h6.194v1.081h-6.194v4.969h6.896v1.081h-8.084V13.572z"/>
			<path fill="#FFFFFF" d="M80.343,13.572h1.224l5.366,12.748H85.6l-1.386-3.385h-6.752l-1.44,3.385h-1.243L80.343,13.572z
				 M80.901,14.868l-2.971,6.986h5.852L80.901,14.868z"/>
			<path fill="#FFFFFF" d="M88.496,13.572h3.673c1.801,0,4.105,0.702,4.105,3.367c0,2.305-1.836,3.331-3.835,3.331h-2.755v6.05
				h-1.188V13.572z M89.684,19.189h2.701c1.35,0,2.701-0.576,2.701-2.25c0-1.638-1.404-2.287-2.773-2.287h-2.628V19.189z"/>
			<path fill="#FFFFFF" d="M98.558,13.572h3.673c1.801,0,4.105,0.702,4.105,3.367c0,2.305-1.836,3.331-3.835,3.331h-2.754v6.05
				h-1.188V13.572z M99.746,19.189h2.701c1.351,0,2.701-0.576,2.701-2.25c0-1.638-1.404-2.287-2.773-2.287h-2.628V19.189z"/>
			<path fill="#FFFFFF" d="M108.62,13.572h1.188v11.667h5.941v1.081h-7.13V13.572z"/>
			<path fill="#FFFFFF" d="M117.35,13.572h1.188v12.748h-1.188V13.572z"/>
			<path fill="#FFFFFF" d="M121.759,13.572h7.796v1.08h-6.608v4.537h6.194v1.081h-6.194v4.969h6.896v1.081h-8.084V13.572z"/>
			<path fill="#FFFFFF" d="M132.001,13.572h3.943c6.626,0,6.896,5.438,6.896,6.374c0,0.937-0.271,6.374-6.896,6.374h-3.943V13.572z
				 M133.189,25.239h2.449c3.384,0,6.013-1.638,6.013-5.293c0-3.655-2.629-5.293-6.013-5.293h-2.449V25.239z"/>
			<path fill="#FFFFFF" d="M145.825,17.893c0.486,0,0.864,0.378,0.864,0.864c0,0.486-0.378,0.864-0.864,0.864
				s-0.864-0.378-0.864-0.864C144.961,18.271,145.339,17.893,145.825,17.893z M145.825,24.699c0.486,0,0.864,0.378,0.864,0.864
				c0,0.486-0.378,0.864-0.864,0.864s-0.864-0.378-0.864-0.864C144.961,25.077,145.339,24.699,145.825,24.699z"/>
		</g>
	</g>
	<g>
	</g>
	<g>
	</g>
	<g>
	</g>
	<g>
	</g>
	<g>
	</g>
	<g>
	</g>
</g>
</svg>
