<?xml version="1.0" encoding="utf-8"?>
<!-- Generator: Adobe Illustrator 16.0.3, SVG Export Plug-In . SVG Version: 6.00 Build 0)  -->
<!DOCTYPE svg PUBLIC "-//W3C//DTD SVG 1.1//EN" "http://www.w3.org/Graphics/SVG/1.1/DTD/svg11.dtd">
<svg version="1.1" id="Layer_1" xmlns="http://www.w3.org/2000/svg" xmlns:xlink="http://www.w3.org/1999/xlink" x="0px" y="0px"
	 width="352.75px" height="32px" viewBox="0 0 352.75 32" enable-background="new 0 0 352.75 32" xml:space="preserve">
<g>
	<path fill="#FFFFFF" d="M21.95,31.86l-4.03-4.03c-0.33,0.07-0.69,0.07-1.09,0.07c-7.39,0-11.29-4.92-11.29-11.98
		c0-7.06,3.96-11.85,11.29-11.85c7.23,0,11.29,4.88,11.29,11.85c0,4.95-2.01,8.94-5.81,10.76l5.21,5.18H21.95z M16.84,24.27
		c4.72,0,6.47-4.19,6.47-8.35c0-4.06-1.88-8.22-6.47-8.22s-6.47,4.16-6.47,8.22C10.37,20.08,12.12,24.27,16.84,24.27z"/>
	<path fill="#FFFFFF" d="M52.41,27.17c-1.68,0.4-3.5,0.73-5.25,0.73c-7.46,0-12.64-3.73-12.64-11.52c0-7.89,4.82-12.31,12.64-12.31
		c1.52,0,3.53,0.3,5.21,0.96l-0.33,3.89C50.3,7.93,48.72,7.7,47.07,7.7c-4.75,0-7.72,3.63-7.72,8.35c0,4.69,2.9,8.22,7.82,8.22
		c1.81,0,3.96-0.4,5.05-0.96L52.41,27.17z"/>
	<path fill="#FFFFFF" d="M71.59,4.47h13.6V8.1h-8.98v5.68h8.22v3.63h-8.22v6.47h9.04v3.63H71.59V4.47z"/>
	<path fill="#FFFFFF" d="M90.89,4.47h4.95l5.91,18.09h0.07l5.84-18.09h4.59l-7.76,23.04h-5.68L90.89,4.47z"/>
	<path fill="#FFFFFF" d="M118.54,4.47h13.6V8.1h-8.98v5.68h8.22v3.63h-8.22v6.47h9.04v3.63h-13.66V4.47z"/>
	<path fill="#FFFFFF" d="M139.96,4.47h5.68l8.78,17.23h0.07V4.47h4.42V27.5h-5.64l-8.81-17.23h-0.07V27.5h-4.42V4.47z"/>
	<path fill="#FFFFFF" d="M171.51,8.1h-6.6V4.47h17.82V8.1h-6.6V27.5h-4.62V8.1z"/>
	<path fill="#FFFFFF" d="M213.81,8.69c-1.45-0.63-3.07-0.99-4.69-0.99c-1.58,0-3.63,0.69-3.63,3.2c0,3.99,10.1,2.31,10.1,10.03
		c0,5.05-3.99,6.96-8.65,6.96c-2.51,0-3.63-0.33-5.91-0.89l0.43-4.16c1.58,0.86,3.4,1.42,5.21,1.42c1.75,0,4.09-0.89,4.09-2.97
		c0-4.39-10.1-2.57-10.1-10.2c0-5.15,3.99-7.03,8.05-7.03c1.98,0,3.83,0.26,5.51,0.83L213.81,8.69z"/>
	<path fill="#FFFFFF" d="M239.85,27.17c-1.68,0.4-3.5,0.73-5.25,0.73c-7.46,0-12.64-3.73-12.64-11.52c0-7.89,4.82-12.31,12.64-12.31
		c1.52,0,3.53,0.3,5.21,0.96l-0.33,3.89c-1.75-0.99-3.33-1.22-4.98-1.22c-4.75,0-7.72,3.63-7.72,8.35c0,4.69,2.9,8.22,7.82,8.22
		c1.81,0,3.96-0.4,5.05-0.96L239.85,27.17z"/>
	<path fill="#FFFFFF" d="M246.55,4.47h4.62v9.31h9.24V4.47h4.62V27.5h-4.62V17.4h-9.24v10.1h-4.62V4.47z"/>
	<path fill="#FFFFFF" d="M283.84,4.07c7.23,0,11.29,4.88,11.29,11.85s-3.99,11.98-11.29,11.98c-7.39,0-11.29-4.92-11.29-11.98
		C272.55,8.86,276.51,4.07,283.84,4.07z M283.84,24.27c4.72,0,6.47-4.19,6.47-8.35c0-4.06-1.88-8.22-6.47-8.22s-6.47,4.16-6.47,8.22
		C277.37,20.08,279.12,24.27,283.84,24.27z"/>
	<path fill="#FFFFFF" d="M312.81,4.07c7.23,0,11.29,4.88,11.29,11.85s-3.99,11.98-11.29,11.98c-7.39,0-11.29-4.92-11.29-11.98
		C301.52,8.86,305.49,4.07,312.81,4.07z M312.81,24.27c4.72,0,6.47-4.19,6.47-8.35c0-4.06-1.88-8.22-6.47-8.22s-6.47,4.16-6.47,8.22
		C306.34,20.08,308.09,24.27,312.81,24.27z"/>
	<path fill="#FFFFFF" d="M331.62,4.47h4.62v19.41h8.94v3.63h-13.56V4.47z"/>
</g>
</svg>
