<?xml version="1.0" encoding="utf-8"?>
<!-- Generator: Adobe Illustrator 16.0.3, SVG Export Plug-In . SVG Version: 6.00 Build 0)  -->
<!DOCTYPE svg PUBLIC "-//W3C//DTD SVG 1.1//EN" "http://www.w3.org/Graphics/SVG/1.1/DTD/svg11.dtd">
<svg version="1.1" xmlns="http://www.w3.org/2000/svg" xmlns:xlink="http://www.w3.org/1999/xlink" x="0px" y="0px"
	 width="296.583px" height="40.155px" viewBox="0 0 296.583 40.155" enable-background="new 0 0 296.583 40.155"
	 xml:space="preserve">
<g id="Layer_1" display="none">
	<rect display="inline" fill="#3A52EB" width="296.583" height="40.155"/>
	<g display="inline">
		<path fill="#FFFFFF" d="M155.491,14.282h4.681c4.562,0,8.382,1.94,8.382,7.122c0,4.581-3.74,7.042-7.962,7.042h-5.101V14.282z
			 M158.611,25.565h1.621c2.9,0,5.081-1.101,5.081-4.321c0-2.78-2.221-4.081-4.861-4.081h-1.841V25.565z"/>
		<path fill="#FFFFFF" d="M170.491,14.282h9.622v2.881h-6.502v2.64h6.142v2.881h-6.142v2.881h6.861v2.88h-9.981V14.282z"/>
		<path fill="#FFFFFF" d="M182.791,14.282h3.12v11.283h5.781v2.88h-8.901V14.282z"/>
		<path fill="#FFFFFF" d="M205.053,22.984c0,3.34-2.04,5.821-5.961,5.821c-3.941,0-5.981-2.48-5.981-5.821v-8.702h3.12v8.582
			c0,1.74,1.2,3.061,2.861,3.061c1.64,0,2.84-1.32,2.84-3.061v-8.582h3.121V22.984z"/>
		<path fill="#FFFFFF" d="M211.151,21.044l-4.681-6.762h3.921l3.021,4.961l2.9-4.961h3.781l-4.581,6.702l5.121,7.461h-3.921
			l-3.461-5.701l-3.36,5.701h-3.701L211.151,21.044z"/>
		<path fill="#FFFFFF" d="M221.891,14.282h9.622v2.881h-6.502v2.64h6.142v2.881h-6.142v2.881h6.861v2.88h-9.981V14.282z"/>
		<path fill="#FFFFFF" d="M233.61,25.265l5.501-4.941c0.56-0.521,1.26-1.121,1.26-1.98c0-0.96-0.819-1.541-1.74-1.541
			c-1.1,0-1.76,0.78-1.84,1.8l-3.001-0.22c0.18-2.921,2.221-4.341,5.001-4.341c2.581,0,4.581,1.42,4.581,4.261
			c0,1.82-0.78,2.86-1.86,3.801l-4.301,3.701h6.281v2.641h-9.882V25.265z"/>
		<path fill="#FFFFFF" d="M250.09,14.042c4.201,0,5.262,3.96,5.262,7.321s-1.061,7.322-5.262,7.322c-4.2,0-5.261-3.961-5.261-7.322
			S245.89,14.042,250.09,14.042z M250.09,25.925c2.161,0,2.261-3.081,2.261-4.561s-0.1-4.561-2.261-4.561
			c-2.16,0-2.26,3.081-2.26,4.561S247.93,25.925,250.09,25.925z"/>
		<path fill="#FFFFFF" d="M261.63,14.042c4.201,0,5.262,3.96,5.262,7.321s-1.061,7.322-5.262,7.322c-4.2,0-5.261-3.961-5.261-7.322
			S257.43,14.042,261.63,14.042z M261.63,25.925c2.161,0,2.261-3.081,2.261-4.561s-0.1-4.561-2.261-4.561
			c-2.16,0-2.26,3.081-2.26,4.561S259.47,25.925,261.63,25.925z"/>
	</g>
	<g display="inline">
		<path fill="#FFFFFF" d="M35.251,14.337h1.36L42.573,28.5h-1.48l-1.541-3.761H32.05l-1.6,3.761h-1.38L35.251,14.337z
			 M35.871,15.777l-3.301,7.762h6.501L35.871,15.777z"/>
		<path fill="#FFFFFF" d="M44.31,14.337h4.081c2,0,4.561,0.78,4.561,3.741c0,2.561-2.04,3.701-4.261,3.701H45.63V28.5h-1.32V14.337z
			 M45.63,20.578h3c1.5,0,3.001-0.64,3.001-2.5c0-1.82-1.561-2.541-3.081-2.541h-2.92V20.578z"/>
		<path fill="#FFFFFF" d="M55.49,14.337h4.081c2,0,4.561,0.78,4.561,3.741c0,2.561-2.04,3.701-4.261,3.701H56.81V28.5h-1.32V14.337z
			 M56.81,20.578h3c1.5,0,3.001-0.64,3.001-2.5c0-1.82-1.561-2.541-3.081-2.541h-2.92V20.578z"/>
		<path fill="#FFFFFF" d="M66.67,14.337h1.32V27.3h6.602v1.2H66.67V14.337z"/>
		<path fill="#FFFFFF" d="M77.291,22.399l-5.201-8.062h1.581l4.281,6.722l4.381-6.722h1.48l-5.201,8.062V28.5h-1.32V22.399z"/>
		<path fill="#FFFFFF" d="M101.892,26.279c-1.34,1.841-3.181,2.581-5.261,2.581c-4.321,0-7.322-3.121-7.322-7.441
			s3.001-7.441,7.322-7.441c1.92,0,3.641,0.64,4.881,2.22l-1.08,0.9c-0.88-1.32-2.38-1.92-3.801-1.92
			c-3.701,0-6.001,2.721-6.001,6.241c0,3.521,2.301,6.241,6.001,6.241c1.42,0,3.181-0.68,4.181-2.2L101.892,26.279z"/>
		<path fill="#FFFFFF" d="M110.411,13.977c4.321,0,7.322,3.121,7.322,7.441s-3.001,7.441-7.322,7.441s-7.322-3.121-7.322-7.441
			S106.09,13.977,110.411,13.977z M110.411,27.66c3.701,0,6.001-2.72,6.001-6.241c0-3.521-2.301-6.241-6.001-6.241
			s-6.001,2.721-6.001,6.241C104.409,24.939,106.71,27.66,110.411,27.66z"/>
		<path fill="#FFFFFF" d="M120.209,14.337h4.381c7.362,0,7.662,6.042,7.662,7.082s-0.3,7.082-7.662,7.082h-4.381V14.337z
			 M121.53,27.3h2.721c3.761,0,6.682-1.82,6.682-5.881s-2.921-5.881-6.682-5.881h-2.721V27.3z"/>
		<path fill="#FFFFFF" d="M134.909,14.337h8.662v1.2h-7.342v5.041h6.881v1.2h-6.881V27.3h7.662v1.2h-8.982V14.337z"/>
		<path fill="#FFFFFF" d="M147.13,19.138c0.539,0,0.959,0.42,0.959,0.96s-0.42,0.96-0.959,0.96c-0.541,0-0.961-0.42-0.961-0.96
			S146.589,19.138,147.13,19.138z M147.13,26.7c0.539,0,0.959,0.42,0.959,0.96s-0.42,0.96-0.959,0.96
			c-0.541,0-0.961-0.42-0.961-0.96S146.589,26.7,147.13,26.7z"/>
	</g>
</g>
<g id="Layer_5">
	<rect fill="#40D31C" width="296.583" height="40.155"/>
	<g>
		<path fill="#FFFFFF" d="M167.269,14.103h4.681c4.562,0,8.382,1.94,8.382,7.122c0,4.581-3.74,7.042-7.962,7.042h-5.101V14.103z
			 M170.389,25.385h1.621c2.9,0,5.081-1.1,5.081-4.321c0-2.78-2.221-4.081-4.861-4.081h-1.841V25.385z"/>
		<path fill="#FFFFFF" d="M182.269,14.103h9.622v2.881h-6.502v2.641h6.142v2.88h-6.142v2.88h6.861v2.881h-9.981V14.103z"/>
		<path fill="#FFFFFF" d="M194.568,14.103h3.12v11.282h5.781v2.881h-8.901V14.103z"/>
		<path fill="#FFFFFF" d="M216.83,22.805c0,3.34-2.04,5.821-5.961,5.821c-3.941,0-5.981-2.48-5.981-5.821v-8.702h3.12v8.582
			c0,1.74,1.2,3.061,2.861,3.061c1.64,0,2.84-1.32,2.84-3.061v-8.582h3.121V22.805z"/>
		<path fill="#FFFFFF" d="M222.929,20.865l-4.681-6.762h3.921l3.021,4.961l2.9-4.961h3.781l-4.581,6.702l5.121,7.461h-3.921
			l-3.461-5.701l-3.36,5.701h-3.701L222.929,20.865z"/>
		<path fill="#FFFFFF" d="M233.668,14.103h9.622v2.881h-6.502v2.641h6.142v2.88h-6.142v2.88h6.861v2.881h-9.981V14.103z"/>
		<path fill="#FFFFFF" d="M245.388,25.085l5.501-4.941c0.56-0.52,1.26-1.121,1.26-1.98c0-0.96-0.819-1.541-1.74-1.541
			c-1.1,0-1.76,0.78-1.84,1.8l-3.001-0.22c0.18-2.921,2.221-4.341,5.001-4.341c2.581,0,4.581,1.42,4.581,4.261
			c0,1.82-0.78,2.86-1.86,3.801l-4.301,3.701h6.281v2.641h-9.882V25.085z"/>
		<path fill="#FFFFFF" d="M261.868,13.863c4.201,0,5.262,3.961,5.262,7.322s-1.061,7.322-5.262,7.322
			c-4.2,0-5.261-3.961-5.261-7.322S257.668,13.863,261.868,13.863z M261.868,25.746c2.161,0,2.261-3.081,2.261-4.561
			s-0.1-4.561-2.261-4.561c-2.16,0-2.26,3.081-2.26,4.561S259.708,25.746,261.868,25.746z"/>
		<path fill="#FFFFFF" d="M273.408,13.863c4.201,0,5.262,3.961,5.262,7.322s-1.061,7.322-5.262,7.322
			c-4.2,0-5.261-3.961-5.261-7.322S269.208,13.863,273.408,13.863z M273.408,25.746c2.161,0,2.261-3.081,2.261-4.561
			s-0.1-4.561-2.261-4.561c-2.16,0-2.26,3.081-2.26,4.561S271.248,25.746,273.408,25.746z"/>
	</g>
	<g>
		<path fill="#FFFFFF" d="M32.524,26.099c-1.34,1.841-3.181,2.581-5.261,2.581c-4.321,0-7.322-3.121-7.322-7.441
			s3.001-7.441,7.322-7.441c1.92,0,3.641,0.64,4.881,2.22l-1.08,0.9c-0.88-1.32-2.38-1.92-3.801-1.92
			c-3.701,0-6.001,2.721-6.001,6.241c0,3.521,2.301,6.241,6.001,6.241c1.42,0,3.181-0.68,4.181-2.2L32.524,26.099z"/>
		<path fill="#FFFFFF" d="M41.042,13.796c4.321,0,7.322,3.121,7.322,7.441s-3.001,7.441-7.322,7.441s-7.322-3.121-7.322-7.441
			S36.722,13.796,41.042,13.796z M41.042,27.479c3.701,0,6.001-2.72,6.001-6.241c0-3.521-2.301-6.241-6.001-6.241
			s-6.001,2.721-6.001,6.241C35.041,24.759,37.342,27.479,41.042,27.479z"/>
		<path fill="#FFFFFF" d="M50.841,14.156h4.381c7.362,0,7.662,6.042,7.662,7.082s-0.3,7.082-7.662,7.082h-4.381V14.156z
			 M52.161,27.119h2.721c3.761,0,6.682-1.82,6.682-5.881s-2.921-5.881-6.682-5.881h-2.721V27.119z"/>
		<path fill="#FFFFFF" d="M65.541,14.156h8.662v1.2h-7.341v5.041h6.881v1.201h-6.881v5.521h7.662v1.2h-8.982V14.156z"/>
		<path fill="#FFFFFF" d="M86.342,14.156h1.36l5.961,14.163h-1.48l-1.541-3.761h-7.501l-1.6,3.761h-1.38L86.342,14.156z
			 M86.962,15.597l-3.301,7.762h6.501L86.962,15.597z"/>
		<path fill="#FFFFFF" d="M95.401,14.156h4.081c2,0,4.561,0.78,4.561,3.741c0,2.561-2.04,3.701-4.261,3.701h-3.061v6.721h-1.32
			V14.156z M96.721,20.397h3c1.5,0,3.001-0.64,3.001-2.5c0-1.82-1.561-2.541-3.081-2.541h-2.92V20.397z"/>
		<path fill="#FFFFFF" d="M106.581,14.156h4.081c2,0,4.561,0.78,4.561,3.741c0,2.561-2.04,3.701-4.261,3.701h-3.061v6.721h-1.32
			V14.156z M107.901,20.397h3c1.5,0,3.001-0.64,3.001-2.5c0-1.82-1.561-2.541-3.081-2.541h-2.92V20.397z"/>
		<path fill="#FFFFFF" d="M117.76,14.156h1.32v12.963h6.602v1.2h-7.922V14.156z"/>
		<path fill="#FFFFFF" d="M127.46,14.156h1.32v14.163h-1.32V14.156z"/>
		<path fill="#FFFFFF" d="M132.36,14.156h8.662v1.2h-7.342v5.041h6.881v1.201h-6.881v5.521h7.662v1.2h-8.982V14.156z"/>
		<path fill="#FFFFFF" d="M143.739,14.156h4.381c7.362,0,7.662,6.042,7.662,7.082s-0.3,7.082-7.662,7.082h-4.381V14.156z
			 M145.06,27.119h2.721c3.762,0,6.682-1.82,6.682-5.881s-2.92-5.881-6.682-5.881h-2.721V27.119z"/>
		<path fill="#FFFFFF" d="M159.101,18.958c0.539,0,0.959,0.42,0.959,0.96s-0.42,0.96-0.959,0.96c-0.541,0-0.961-0.42-0.961-0.96
			S158.56,18.958,159.101,18.958z M159.101,26.519c0.539,0,0.959,0.42,0.959,0.96s-0.42,0.96-0.959,0.96
			c-0.541,0-0.961-0.42-0.961-0.96S158.56,26.519,159.101,26.519z"/>
	</g>
	<g>
	</g>
	<g>
	</g>
	<g>
	</g>
	<g>
	</g>
	<g>
	</g>
	<g>
	</g>
</g>
</svg>
