<?xml version="1.0" encoding="utf-8"?>
<!-- Generator: Adobe Illustrator 16.0.3, SVG Export Plug-In . SVG Version: 6.00 Build 0)  -->
<!DOCTYPE svg PUBLIC "-//W3C//DTD SVG 1.1//EN" "http://www.w3.org/Graphics/SVG/1.1/DTD/svg11.dtd">
<svg version="1.1" xmlns="http://www.w3.org/2000/svg" xmlns:xlink="http://www.w3.org/1999/xlink" x="0px" y="0px"
	 width="307.875px" height="40.155px" viewBox="0 0 307.875 40.155" enable-background="new 0 0 307.875 40.155"
	 xml:space="preserve">
<g id="Layer_1">
	<rect width="307.875" height="40.155"/>
	<g>
		<path fill="#FFFFFF" d="M162.792,13.282h3.4l2.261,9.082h0.04l2.961-9.082h2.9l2.94,9.322h0.04l2.381-9.322h3.16l-4.141,14.163
			h-2.78l-3.121-9.802h-0.04l-3.12,9.802h-2.681L162.792,13.282z"/>
		<path fill="#FFFFFF" d="M184.093,13.282h9.622v2.881h-6.502v2.64h6.142v2.881h-6.142v2.881h6.861v2.88h-9.981V13.282z"/>
		<path fill="#FFFFFF" d="M196.272,13.282h4.681c4.562,0,8.382,1.94,8.382,7.122c0,4.581-3.74,7.042-7.962,7.042h-5.101V13.282z
			 M199.393,24.565h1.621c2.9,0,5.081-1.101,5.081-4.321c0-2.78-2.221-4.081-4.861-4.081h-1.841V24.565z"/>
		<path fill="#FFFFFF" d="M211.151,13.282h4.681c4.562,0,8.382,1.94,8.382,7.122c0,4.581-3.74,7.042-7.962,7.042h-5.101V13.282z
			 M214.271,24.565h1.621c2.9,0,5.081-1.101,5.081-4.321c0-2.78-2.221-4.081-4.861-4.081h-1.841V24.565z"/>
		<path fill="#FFFFFF" d="M225.991,13.282h3.12v14.163h-3.12V13.282z"/>
		<path fill="#FFFFFF" d="M231.651,13.282h4.241l6.021,9.842h0.04v-9.842h3.121v14.163h-4.081l-6.182-10.082h-0.04v10.082h-3.12
			V13.282z"/>
		<path fill="#FFFFFF" d="M260.474,26.445c-1.84,0.96-3.86,1.36-5.94,1.36c-4.422,0-7.643-2.9-7.643-7.441s3.221-7.441,7.643-7.441
			c2.24,0,4.221,0.5,5.641,1.82l-2.2,2.4c-0.841-0.88-1.86-1.34-3.44-1.34c-2.661,0-4.401,1.92-4.401,4.561s1.74,4.561,4.401,4.561
			c1.359,0,2.36-0.38,2.94-0.7v-2.3h-2.541v-2.881h5.541V26.445z"/>
		<path fill="#FFFFFF" d="M262.451,24.265l5.501-4.941c0.56-0.521,1.26-1.121,1.26-1.98c0-0.96-0.819-1.541-1.74-1.541
			c-1.1,0-1.76,0.78-1.84,1.8l-3.001-0.22c0.18-2.921,2.221-4.341,5.001-4.341c2.581,0,4.581,1.42,4.581,4.261
			c0,1.82-0.78,2.86-1.86,3.801l-4.301,3.701h6.281v2.641h-9.882V24.265z"/>
		<path fill="#FFFFFF" d="M278.771,16.643l-2.841,2.5l-1.7-1.96l4.62-3.901h2.801v14.163h-2.88V16.643z"/>
	</g>
	<g>
		<path fill="#FFFFFF" d="M31.843,13.337h1.36L39.165,27.5h-1.48l-1.541-3.761h-7.501l-1.6,3.761h-1.38L31.843,13.337z
			 M32.463,14.777l-3.301,7.762h6.501L32.463,14.777z"/>
		<path fill="#FFFFFF" d="M40.902,13.337h4.081c2,0,4.561,0.78,4.561,3.741c0,2.561-2.04,3.701-4.261,3.701h-3.061V27.5h-1.32
			V13.337z M42.222,19.578h3c1.5,0,3.001-0.64,3.001-2.5c0-1.82-1.561-2.541-3.081-2.541h-2.92V19.578z"/>
		<path fill="#FFFFFF" d="M52.082,13.337h4.081c2,0,4.561,0.78,4.561,3.741c0,2.561-2.04,3.701-4.261,3.701h-3.061V27.5h-1.32
			V13.337z M53.402,19.578h3c1.5,0,3.001-0.64,3.001-2.5c0-1.82-1.561-2.541-3.081-2.541h-2.92V19.578z"/>
		<path fill="#FFFFFF" d="M63.262,13.337h1.32V26.3h6.602v1.2h-7.922V13.337z"/>
		<path fill="#FFFFFF" d="M73.882,21.399l-5.201-8.062h1.581l4.281,6.722l4.381-6.722h1.48l-5.201,8.062V27.5h-1.32V21.399z"/>
		<path fill="#FFFFFF" d="M103.384,25.279c-1.34,1.841-3.181,2.581-5.261,2.581c-4.321,0-7.322-3.121-7.322-7.441
			s3.001-7.441,7.322-7.441c1.92,0,3.641,0.64,4.881,2.22l-1.08,0.9c-0.88-1.32-2.38-1.92-3.801-1.92
			c-3.701,0-6.001,2.721-6.001,6.241c0,3.521,2.301,6.241,6.001,6.241c1.42,0,3.181-0.68,4.181-2.2L103.384,25.279z"/>
		<path fill="#FFFFFF" d="M111.903,12.977c4.321,0,7.322,3.121,7.322,7.441s-3.001,7.441-7.322,7.441s-7.322-3.121-7.322-7.441
			S107.582,12.977,111.903,12.977z M111.903,26.66c3.701,0,6.001-2.72,6.001-6.241c0-3.521-2.301-6.241-6.001-6.241
			s-6.001,2.721-6.001,6.241C105.901,23.939,108.202,26.66,111.903,26.66z"/>
		<path fill="#FFFFFF" d="M121.701,13.337h4.381c7.362,0,7.662,6.042,7.662,7.082s-0.3,7.082-7.662,7.082h-4.381V13.337z
			 M123.021,26.3h2.721c3.761,0,6.681-1.82,6.681-5.881s-2.92-5.881-6.681-5.881h-2.721V26.3z"/>
		<path fill="#FFFFFF" d="M136.401,13.337h8.662v1.2h-7.341v5.041h6.881v1.2h-6.881V26.3h7.662v1.2h-8.982V13.337z"/>
		<path fill="#FFFFFF" d="M148.622,18.138c0.54,0,0.96,0.42,0.96,0.96s-0.42,0.96-0.96,0.96s-0.96-0.42-0.96-0.96
			S148.082,18.138,148.622,18.138z M148.622,25.7c0.54,0,0.96,0.42,0.96,0.96s-0.42,0.96-0.96,0.96s-0.96-0.42-0.96-0.96
			S148.082,25.7,148.622,25.7z"/>
	</g>
</g>
<g id="Layer_3" display="none">
	<rect display="inline" fill="#40D31C" width="307.875" height="40.155"/>
	<g display="inline">
		<polygon fill="#FFFFFF" points="296.249,12.883 288.661,22.268 283.207,17.805 281.101,20.377 286.57,24.856 289.144,26.961 
			291.235,24.375 298.835,14.975 		"/>
	</g>
	<g display="inline">
		<path fill="#FFFFFF" d="M152.792,13.282h3.4l2.261,9.082h0.04l2.961-9.082h2.9l2.94,9.322h0.04l2.381-9.322h3.16l-4.141,14.163
			h-2.78l-3.121-9.802h-0.04l-3.12,9.802h-2.681L152.792,13.282z"/>
		<path fill="#FFFFFF" d="M174.093,13.282h9.622v2.881h-6.502v2.64h6.142v2.881h-6.142v2.881h6.861v2.88h-9.981V13.282z"/>
		<path fill="#FFFFFF" d="M186.272,13.282h4.681c4.562,0,8.382,1.94,8.382,7.122c0,4.581-3.74,7.042-7.962,7.042h-5.101V13.282z
			 M189.393,24.565h1.621c2.9,0,5.081-1.101,5.081-4.321c0-2.78-2.221-4.081-4.861-4.081h-1.841V24.565z"/>
		<path fill="#FFFFFF" d="M201.151,13.282h4.681c4.562,0,8.382,1.94,8.382,7.122c0,4.581-3.74,7.042-7.962,7.042h-5.101V13.282z
			 M204.271,24.565h1.621c2.9,0,5.081-1.101,5.081-4.321c0-2.78-2.221-4.081-4.861-4.081h-1.841V24.565z"/>
		<path fill="#FFFFFF" d="M215.991,13.282h3.12v14.163h-3.12V13.282z"/>
		<path fill="#FFFFFF" d="M221.651,13.282h4.241l6.021,9.842h0.04v-9.842h3.121v14.163h-4.081l-6.182-10.082h-0.04v10.082h-3.12
			V13.282z"/>
		<path fill="#FFFFFF" d="M250.474,26.445c-1.84,0.96-3.86,1.36-5.94,1.36c-4.422,0-7.643-2.9-7.643-7.441s3.221-7.441,7.643-7.441
			c2.24,0,4.221,0.5,5.641,1.82l-2.2,2.4c-0.841-0.88-1.86-1.34-3.44-1.34c-2.661,0-4.401,1.92-4.401,4.561s1.74,4.561,4.401,4.561
			c1.359,0,2.36-0.38,2.94-0.7v-2.3h-2.541v-2.881h5.541V26.445z"/>
		<path fill="#FFFFFF" d="M252.451,24.265l5.501-4.941c0.56-0.521,1.26-1.121,1.26-1.98c0-0.96-0.819-1.541-1.74-1.541
			c-1.1,0-1.76,0.78-1.84,1.8l-3.001-0.22c0.18-2.921,2.221-4.341,5.001-4.341c2.581,0,4.581,1.42,4.581,4.261
			c0,1.82-0.78,2.86-1.86,3.801l-4.301,3.701h6.281v2.641h-9.882V24.265z"/>
		<path fill="#FFFFFF" d="M268.771,16.643l-2.841,2.5l-1.7-1.96l4.62-3.901h2.801v14.163h-2.88V16.643z"/>
	</g>
	<g display="inline">
		<path fill="#FFFFFF" d="M20.605,25.279c-1.34,1.841-3.181,2.581-5.261,2.581c-4.321,0-7.322-3.121-7.322-7.441
			s3.001-7.441,7.322-7.441c1.92,0,3.641,0.64,4.881,2.22l-1.08,0.9c-0.88-1.32-2.38-1.92-3.801-1.92
			c-3.701,0-6.001,2.721-6.001,6.241c0,3.521,2.301,6.241,6.001,6.241c1.42,0,3.181-0.68,4.181-2.2L20.605,25.279z"/>
		<path fill="#FFFFFF" d="M29.124,12.977c4.321,0,7.322,3.121,7.322,7.441s-3.001,7.441-7.322,7.441s-7.322-3.121-7.322-7.441
			S24.803,12.977,29.124,12.977z M29.124,26.66c3.701,0,6.001-2.72,6.001-6.241c0-3.521-2.301-6.241-6.001-6.241
			s-6.001,2.721-6.001,6.241C23.123,23.939,25.423,26.66,29.124,26.66z"/>
		<path fill="#FFFFFF" d="M38.922,13.337h4.381c7.362,0,7.662,6.042,7.662,7.082s-0.3,7.082-7.662,7.082h-4.381V13.337z
			 M40.243,26.3h2.721c3.761,0,6.682-1.82,6.682-5.881s-2.921-5.881-6.682-5.881h-2.721V26.3z"/>
		<path fill="#FFFFFF" d="M53.623,13.337h8.662v1.2h-7.341v5.041h6.881v1.2h-6.881V26.3h7.662v1.2h-8.982V13.337z"/>
		<path fill="#FFFFFF" d="M74.423,13.337h1.36L81.745,27.5h-1.48l-1.541-3.761h-7.501l-1.6,3.761h-1.38L74.423,13.337z
			 M75.043,14.777l-3.301,7.762h6.501L75.043,14.777z"/>
		<path fill="#FFFFFF" d="M83.482,13.337h4.081c2,0,4.561,0.78,4.561,3.741c0,2.561-2.04,3.701-4.261,3.701h-3.061V27.5h-1.32
			V13.337z M84.802,19.578h3c1.5,0,3.001-0.64,3.001-2.5c0-1.82-1.561-2.541-3.081-2.541h-2.92V19.578z"/>
		<path fill="#FFFFFF" d="M94.662,13.337h4.081c2,0,4.561,0.78,4.561,3.741c0,2.561-2.04,3.701-4.261,3.701h-3.061V27.5h-1.32
			V13.337z M95.982,19.578h3c1.5,0,3.001-0.64,3.001-2.5c0-1.82-1.561-2.541-3.081-2.541h-2.92V19.578z"/>
		<path fill="#FFFFFF" d="M105.842,13.337h1.32V26.3h6.602v1.2h-7.922V13.337z"/>
		<path fill="#FFFFFF" d="M115.542,13.337h1.32V27.5h-1.32V13.337z"/>
		<path fill="#FFFFFF" d="M120.441,13.337h8.662v1.2h-7.341v5.041h6.881v1.2h-6.881V26.3h7.662v1.2h-8.982V13.337z"/>
		<path fill="#FFFFFF" d="M131.821,13.337h4.381c7.362,0,7.662,6.042,7.662,7.082s-0.3,7.082-7.662,7.082h-4.381V13.337z
			 M133.142,26.3h2.721c3.761,0,6.681-1.82,6.681-5.881s-2.92-5.881-6.681-5.881h-2.721V26.3z"/>
		<path fill="#FFFFFF" d="M147.181,18.138c0.54,0,0.96,0.42,0.96,0.96s-0.42,0.96-0.96,0.96s-0.96-0.42-0.96-0.96
			S146.641,18.138,147.181,18.138z M147.181,25.7c0.54,0,0.96,0.42,0.96,0.96s-0.42,0.96-0.96,0.96s-0.96-0.42-0.96-0.96
			S146.641,25.7,147.181,25.7z"/>
	</g>
</g>
</svg>
