<?xml version="1.0" encoding="utf-8"?>
<!-- Generator: Adobe Illustrator 16.0.3, SVG Export Plug-In . SVG Version: 6.00 Build 0)  -->
<!DOCTYPE svg PUBLIC "-//W3C//DTD SVG 1.1//EN" "http://www.w3.org/Graphics/SVG/1.1/DTD/svg11.dtd">
<svg version="1.1" id="Layer_1" xmlns="http://www.w3.org/2000/svg" xmlns:xlink="http://www.w3.org/1999/xlink" x="0px" y="0px"
	 width="398.999px" height="62.285px" viewBox="0 0 398.999 62.285" enable-background="new 0 0 398.999 62.285"
	 xml:space="preserve">
<rect x="7" y="5.779" fill="#022C4C" width="385" height="40.155"/>
<g>
	<path fill="#FFFFFF" d="M252.21,21.301c-0.604-0.773-1.812-1.135-2.729-1.135c-1.063,0-2.536,0.483-2.536,1.763
		c0,3.116,7.874,1.111,7.874,7.102c0,3.816-3.067,5.628-6.594,5.628c-2.198,0-4.131-0.652-5.749-2.149l2.681-2.947
		c0.773,1.014,2.029,1.618,3.285,1.618c1.232,0,2.609-0.58,2.609-1.788c0-3.14-8.02-1.449-8.02-7.15
		c0-3.647,3.164-5.555,6.521-5.555c1.933,0,3.792,0.507,5.241,1.787L252.21,21.301z"/>
	<path fill="#FFFFFF" d="M257.26,17.123h6.353c3.551,0,6.498,1.135,6.498,5.193c0,4.01-2.729,5.242-6.329,5.242h-2.754v6.667h-3.768
		V17.123z M261.027,24.369h2.513c1.328,0,2.657-0.459,2.657-2.053c0-1.763-1.788-2.005-3.237-2.005h-1.933V24.369z"/>
	<path fill="#FFFFFF" d="M272.116,17.123h6.618c3.503,0,6.449,1.208,6.449,5.193c0,2.391-1.28,4.251-3.695,4.686l4.348,7.222h-4.517
		l-3.575-6.836h-1.86v6.836h-3.768V17.123z M275.884,24.2h2.223c1.377,0,3.164-0.048,3.164-1.908c0-1.715-1.546-1.98-2.923-1.98
		h-2.464V24.2z"/>
	<path fill="#FFFFFF" d="M287.358,17.123h3.769v17.102h-3.769V17.123z"/>
	<path fill="#FFFFFF" d="M294.195,17.123h5.121l7.271,11.884h0.048V17.123h3.769v17.102h-4.928l-7.464-12.174h-0.049v12.174h-3.768
		V17.123z"/>
	<path fill="#FFFFFF" d="M329.005,33.017c-2.223,1.159-4.662,1.642-7.175,1.642c-5.338,0-9.227-3.502-9.227-8.985
		s3.889-8.985,9.227-8.985c2.706,0,5.097,0.604,6.813,2.198l-2.657,2.899c-1.015-1.063-2.246-1.619-4.155-1.619
		c-3.212,0-5.313,2.319-5.313,5.507s2.102,5.507,5.313,5.507c1.643,0,2.851-0.459,3.551-0.845v-2.778h-3.067v-3.479h6.691V33.017z"
		/>
	<path fill="#FFFFFF" d="M331.397,30.383l6.643-5.966c0.677-0.628,1.521-1.353,1.521-2.392c0-1.159-0.99-1.86-2.102-1.86
		c-1.328,0-2.125,0.942-2.222,2.174l-3.623-0.266c0.217-3.526,2.681-5.241,6.038-5.241c3.116,0,5.531,1.715,5.531,5.145
		c0,2.198-0.941,3.454-2.246,4.589l-5.193,4.469h7.585v3.188h-11.933V30.383z"/>
	<path fill="#FFFFFF" d="M351.109,21.181l-3.43,3.019l-2.053-2.367l5.579-4.71h3.382v17.102h-3.479V21.181z"/>
</g>
<g>
	<g>
		<polyline fill="none" stroke="#FFFFFF" stroke-width="1.5" stroke-miterlimit="10" points="398.249,47.783 398.249,50.033 
			395.999,50.033 		"/>
		
			<line fill="none" stroke="#FFFFFF" stroke-width="1.5" stroke-miterlimit="10" stroke-dasharray="4.5172,4.5172" x1="391.481" y1="50.033" x2="5.259" y2="50.033"/>
		<polyline fill="none" stroke="#FFFFFF" stroke-width="1.5" stroke-miterlimit="10" points="3,50.033 0.75,50.033 0.75,47.783 		
			"/>
		
			<line fill="none" stroke="#FFFFFF" stroke-width="1.5" stroke-miterlimit="10" stroke-dasharray="4.9481,4.9481" x1="0.75" y1="42.835" x2="0.75" y2="5.724"/>
		<polyline fill="none" stroke="#FFFFFF" stroke-width="1.5" stroke-miterlimit="10" points="0.75,3.25 0.75,1 3,1 		"/>
		
			<line fill="none" stroke="#FFFFFF" stroke-width="1.5" stroke-miterlimit="10" stroke-dasharray="4.5172,4.5172" x1="7.517" y1="1" x2="393.74" y2="1"/>
		<polyline fill="none" stroke="#FFFFFF" stroke-width="1.5" stroke-miterlimit="10" points="395.999,1 398.249,1 398.249,3.25 		
			"/>
		
			<line fill="none" stroke="#FFFFFF" stroke-width="1.5" stroke-miterlimit="10" stroke-dasharray="4.9481,4.9481" x1="398.249" y1="8.198" x2="398.249" y2="45.309"/>
	</g>
</g>
<g>
	<g>
		<path fill="#FF0069" d="M258.288,40.362c-5.881,11.74-17.709,19.965-30.704,21.633c-13.886,1.78-27.943-4.79-36.551-15.606
			c-1.254-1.576-2.382-3.243-3.404-4.979c-0.083-0.141-0.698-1.379-0.113-1.311c0.63,0.075,1.159,0.993,1.44,1.467
			c3.294,5.587,8.469,10.2,14.295,13.314c6.07,3.244,12.973,4.874,19.854,4.584c13.077-0.557,25.631-8.364,32.152-19.671
			c0.358-0.619,0.695-1.258,1.019-1.9C256.604,37.242,258.659,39.62,258.288,40.362L258.288,40.362z"/>
		<path fill="#FF0069" d="M256.241,48.935c0.554-3.784,1.105-7.567,1.658-11.351c0.425-0.064,0.851-0.13,1.28-0.197
			c-2.79,1.73-5.578,3.456-8.366,5.184c-0.113,0.072-1.347,0.754-1.277,0.199c0.075-0.616,0.974-1.183,1.434-1.468
			c2.79-1.726,5.577-3.455,8.365-5.183c0.106-0.066,1.358-0.752,1.277-0.196c-0.552,3.784-1.104,7.568-1.657,11.353
			c-0.09,0.616-0.962,1.174-1.435,1.464C257.414,48.804,256.16,49.493,256.241,48.935L256.241,48.935z"/>
	</g>
</g>
<g>
	<path fill="#FFFFFF" d="M23.049,17.701h1.496l6.557,15.578h-1.628l-1.694-4.137h-8.251l-1.76,4.137H16.25L23.049,17.701z
		 M23.731,19.285l-3.631,8.537h7.151L23.731,19.285z"/>
	<path fill="#FFFFFF" d="M33.014,17.701h4.489c2.2,0,5.017,0.858,5.017,4.114c0,2.816-2.244,4.071-4.687,4.071h-3.367v7.393h-1.452
		V17.701z M34.466,24.565h3.301c1.65,0,3.3-0.704,3.3-2.75c0-2.002-1.716-2.794-3.389-2.794h-3.212V24.565z"/>
	<path fill="#FFFFFF" d="M45.312,17.701h4.489c2.2,0,5.017,0.858,5.017,4.114c0,2.816-2.244,4.071-4.687,4.071h-3.367v7.393h-1.452
		V17.701z M46.764,24.565h3.301c1.65,0,3.3-0.704,3.3-2.75c0-2.002-1.716-2.794-3.389-2.794h-3.212V24.565z"/>
	<path fill="#FFFFFF" d="M57.61,17.701h1.452v14.258h7.261v1.32H57.61V17.701z"/>
	<path fill="#FFFFFF" d="M69.292,26.568l-5.721-8.867h1.738l4.708,7.393l4.819-7.393h1.628l-5.721,8.867v6.711h-1.452V26.568z"/>
	<path fill="#FFFFFF" d="M83.526,17.701h4.489c2.2,0,5.017,0.858,5.017,4.114c0,2.816-2.244,4.071-4.687,4.071h-3.367v7.393h-1.452
		V17.701z M84.978,24.565h3.301c1.65,0,3.3-0.704,3.3-2.75c0-2.002-1.716-2.794-3.389-2.794h-3.212V24.565z"/>
	<path fill="#FFFFFF" d="M95.824,17.701h4.093c1.232,0,5.544,0,5.544,4.092c0,2.971-2.266,3.785-3.982,4.005l4.533,7.481h-1.65
		l-4.378-7.393h-2.707v7.393h-1.452V17.701z M97.276,24.565h3.081c3.059,0,3.652-1.694,3.652-2.772s-0.594-2.772-3.652-2.772h-3.081
		V24.565z"/>
	<path fill="#FFFFFF" d="M115.58,17.305c4.753,0,8.053,3.432,8.053,8.185c0,4.752-3.3,8.185-8.053,8.185
		c-4.752,0-8.053-3.433-8.053-8.185C107.527,20.737,110.828,17.305,115.58,17.305z M115.58,32.354c4.071,0,6.601-2.992,6.601-6.865
		s-2.53-6.865-6.601-6.865s-6.601,2.993-6.601,6.865S111.509,32.354,115.58,32.354z"/>
	<path fill="#FFFFFF" d="M126.403,17.701h2.178l5.677,13.07l5.677-13.07h2.068v15.578h-1.452v-13.73h-0.044l-5.941,13.73h-0.638
		l-6.029-13.73h-0.044v13.73h-1.452V17.701z"/>
	<path fill="#FFFFFF" d="M152.826,17.305c4.753,0,8.053,3.432,8.053,8.185c0,4.752-3.3,8.185-8.053,8.185
		c-4.752,0-8.053-3.433-8.053-8.185C144.773,20.737,148.074,17.305,152.826,17.305z M152.826,32.354
		c4.071,0,6.601-2.992,6.601-6.865s-2.53-6.865-6.601-6.865s-6.601,2.993-6.601,6.865S148.755,32.354,152.826,32.354z"/>
	<path fill="#FFFFFF" d="M182.021,30.836c-1.475,2.024-3.499,2.838-5.787,2.838c-4.752,0-8.053-3.433-8.053-8.185
		c0-4.753,3.301-8.185,8.053-8.185c2.112,0,4.004,0.704,5.369,2.442l-1.188,0.99c-0.968-1.452-2.618-2.112-4.181-2.112
		c-4.07,0-6.601,2.993-6.601,6.865s2.531,6.865,6.601,6.865c1.563,0,3.499-0.748,4.599-2.42L182.021,30.836z"/>
	<path fill="#FFFFFF" d="M191.392,17.305c4.753,0,8.054,3.432,8.054,8.185c0,4.752-3.301,8.185-8.054,8.185
		c-4.752,0-8.053-3.433-8.053-8.185C183.338,20.737,186.639,17.305,191.392,17.305z M191.392,32.354
		c4.071,0,6.601-2.992,6.601-6.865s-2.53-6.865-6.601-6.865s-6.601,2.993-6.601,6.865S187.321,32.354,191.392,32.354z"/>
	<path fill="#FFFFFF" d="M202.17,17.701h4.819c8.097,0,8.427,6.645,8.427,7.789s-0.33,7.789-8.427,7.789h-4.819V17.701z
		 M203.623,31.958h2.992c4.137,0,7.35-2.002,7.35-6.469s-3.213-6.469-7.35-6.469h-2.992V31.958z"/>
	<path fill="#FFFFFF" d="M218.341,17.701h9.527v1.32h-8.075v5.544h7.569v1.32h-7.569v6.073h8.428v1.32h-9.88V17.701z"/>
	<path fill="#FFFFFF" d="M231.783,22.981c0.594,0,1.056,0.462,1.056,1.056c0,0.594-0.462,1.056-1.056,1.056
		c-0.595,0-1.057-0.462-1.057-1.056C230.727,23.443,231.188,22.981,231.783,22.981z M231.783,31.298
		c0.594,0,1.056,0.462,1.056,1.056c0,0.594-0.462,1.056-1.056,1.056c-0.595,0-1.057-0.462-1.057-1.056
		C230.727,31.761,231.188,31.298,231.783,31.298z"/>
</g>
<path fill="#FEFFFF" d="M380.438,28.123c-0.137,0.019-3.355,0.48-5.662,2.79c-1.1,1.099-1.779,2.404-2.192,3.485v-8.004
	c0.169,0.022,0.338,0.034,0.505,0.034c1.863,0,3.413-1.403,4.254-3.848c1.114-3.247-1.055-8.068-1.147-8.272l-0.188-0.414
	l-0.403,0.21c-0.077,0.04-0.823,0.435-1.775,1.092c-0.734-1.017-1.374-1.698-1.438-1.764l-0.313-0.33l-0.313,0.33
	c-0.063,0.066-0.702,0.748-1.438,1.764c-0.951-0.657-1.698-1.052-1.775-1.092l-0.403-0.21l-0.188,0.414
	c-0.093,0.204-2.261,5.025-1.146,8.273c0.841,2.445,2.391,3.848,4.254,3.848l0,0c0.167,0,0.335-0.012,0.504-0.034v8.003
	c-0.413-1.081-1.093-2.386-2.192-3.485c-2.308-2.309-5.526-2.771-5.663-2.79l-0.562-0.077l0.076,0.562
	c0.019,0.136,0.481,3.355,2.789,5.663c2.099,2.101,4.95,2.671,5.552,2.771v2.606h1.011v-2.606c0.601-0.1,3.453-0.67,5.552-2.771
	c2.308-2.307,2.77-5.526,2.788-5.663l0.076-0.562L380.438,28.123z"/>
<g>
</g>
<g>
</g>
<g>
</g>
<g>
</g>
<g>
</g>
<g>
</g>
</svg>
