<?xml version="1.0" encoding="utf-8"?>
<!-- Generator: Adobe Illustrator 16.0.3, SVG Export Plug-In . SVG Version: 6.00 Build 0)  -->
<!DOCTYPE svg PUBLIC "-//W3C//DTD SVG 1.1//EN" "http://www.w3.org/Graphics/SVG/1.1/DTD/svg11.dtd">
<svg version="1.1" xmlns="http://www.w3.org/2000/svg" xmlns:xlink="http://www.w3.org/1999/xlink" x="0px" y="0px"
	 width="296.583px" height="40.155px" viewBox="0 0 296.583 40.155" enable-background="new 0 0 296.583 40.155"
	 xml:space="preserve">
<g id="Layer_1" display="none">
	<rect display="inline" fill="#14A98A" width="296.583" height="40.155"/>
	<g display="inline">
		<g>
			<path fill="#FFFFFF" d="M165.525,25.545c-1.656,0.864-3.475,1.225-5.348,1.225c-3.979,0-6.878-2.611-6.878-6.698
				c0-4.087,2.898-6.698,6.878-6.698c2.017,0,3.799,0.45,5.077,1.638l-1.98,2.161c-0.756-0.792-1.674-1.206-3.097-1.206
				c-2.395,0-3.961,1.729-3.961,4.105c0,2.377,1.566,4.105,3.961,4.105c1.225,0,2.125-0.342,2.646-0.63v-2.07h-2.286v-2.593h4.987
				V25.545z"/>
			<path fill="#FFFFFF" d="M167.719,13.698h4.933c2.611,0,4.808,0.9,4.808,3.871c0,1.782-0.954,3.169-2.755,3.493l3.241,5.384
				h-3.367l-2.665-5.096h-1.386v5.096h-2.809V13.698z M170.527,18.973h1.656c1.026,0,2.358-0.036,2.358-1.422
				c0-1.278-1.152-1.477-2.179-1.477h-1.836V18.973z"/>
			<path fill="#FFFFFF" d="M179.22,13.698h8.661v2.593h-5.853v2.376h5.528v2.593h-5.528v2.593h6.176v2.593h-8.984V13.698z"/>
			<path fill="#FFFFFF" d="M190.289,13.698h8.661v2.593h-5.853v2.376h5.528v2.593h-5.528v2.593h6.176v2.593h-8.984V13.698z"/>
			<path fill="#FFFFFF" d="M201.252,13.698h3.816l5.42,8.858h0.036v-8.858h2.809v12.748h-3.673l-5.563-9.075h-0.036v9.075h-2.809
				V13.698z"/>
			<path fill="#FFFFFF" d="M227.192,25.545c-1.656,0.864-3.476,1.225-5.348,1.225c-3.979,0-6.878-2.611-6.878-6.698
				c0-4.087,2.898-6.698,6.878-6.698c2.017,0,3.799,0.45,5.077,1.638l-1.98,2.161c-0.756-0.792-1.674-1.206-3.097-1.206
				c-2.395,0-3.961,1.729-3.961,4.105c0,2.377,1.566,4.105,3.961,4.105c1.225,0,2.125-0.342,2.646-0.63v-2.07h-2.286v-2.593h4.987
				V25.545z"/>
			<path fill="#FFFFFF" d="M229.35,13.698h2.809v12.748h-2.809V13.698z"/>
			<path fill="#FFFFFF" d="M234.551,13.698h8.553v2.593h-5.744v2.593h5.312v2.593h-5.312v4.969h-2.809V13.698z"/>
			<path fill="#FFFFFF" d="M247.313,16.182h-3.637v-2.484h10.083v2.484h-3.637v10.263h-2.81V16.182z"/>
		</g>
		<g>
			<path fill="#FFFFFF" d="M48.48,13.752h1.224L55.07,26.5h-1.333l-1.386-3.385h-6.752l-1.44,3.385h-1.243L48.48,13.752z
				 M49.038,15.049l-2.971,6.986h5.852L49.038,15.049z"/>
			<path fill="#FFFFFF" d="M56.633,13.752h3.673c1.801,0,4.105,0.703,4.105,3.367c0,2.305-1.836,3.331-3.835,3.331h-2.754v6.05
				h-1.188V13.752z M57.821,19.37h2.701c1.351,0,2.701-0.576,2.701-2.251c0-1.639-1.404-2.287-2.773-2.287h-2.628V19.37z"/>
			<path fill="#FFFFFF" d="M66.695,13.752h3.673c1.801,0,4.105,0.703,4.105,3.367c0,2.305-1.836,3.331-3.835,3.331h-2.755v6.05
				h-1.188V13.752z M67.883,19.37h2.701c1.35,0,2.701-0.576,2.701-2.251c0-1.639-1.404-2.287-2.773-2.287h-2.628V19.37z"/>
			<path fill="#FFFFFF" d="M76.757,13.752h1.188V25.42h5.941v1.08h-7.13V13.752z"/>
			<path fill="#FFFFFF" d="M86.315,21.008l-4.681-7.256h1.422l3.853,6.05l3.943-6.05h1.332l-4.681,7.256V26.5h-1.188V21.008z"/>
			<path fill="#FFFFFF" d="M108.458,24.501c-1.207,1.656-2.863,2.323-4.735,2.323c-3.889,0-6.59-2.809-6.59-6.698
				s2.701-6.698,6.59-6.698c1.729,0,3.277,0.576,4.393,1.999l-0.972,0.81c-0.792-1.188-2.143-1.729-3.421-1.729
				c-3.331,0-5.402,2.449-5.402,5.618s2.071,5.618,5.402,5.618c1.278,0,2.863-0.612,3.763-1.98L108.458,24.501z"/>
			<path fill="#FFFFFF" d="M116.124,13.428c3.889,0,6.59,2.809,6.59,6.698s-2.701,6.698-6.59,6.698s-6.59-2.809-6.59-6.698
				S112.235,13.428,116.124,13.428z M116.124,25.744c3.331,0,5.401-2.449,5.401-5.618s-2.07-5.618-5.401-5.618
				s-5.402,2.449-5.402,5.618S112.793,25.744,116.124,25.744z"/>
			<path fill="#FFFFFF" d="M124.942,13.752h3.943c6.626,0,6.896,5.438,6.896,6.374c0,0.937-0.27,6.374-6.896,6.374h-3.943V13.752z
				 M126.131,25.42h2.449c3.385,0,6.014-1.639,6.014-5.294c0-3.655-2.629-5.293-6.014-5.293h-2.449V25.42z"/>
			<path fill="#FFFFFF" d="M138.173,13.752h7.796v1.081h-6.608v4.538h6.194v1.08h-6.194v4.97h6.896v1.08h-8.084V13.752z"/>
			<path fill="#FFFFFF" d="M149.171,18.073c0.485,0,0.863,0.378,0.863,0.864c0,0.486-0.378,0.864-0.863,0.864
				c-0.486,0-0.865-0.378-0.865-0.864C148.306,18.452,148.685,18.073,149.171,18.073z M149.171,24.879
				c0.485,0,0.863,0.378,0.863,0.864c0,0.486-0.378,0.864-0.863,0.864c-0.486,0-0.865-0.378-0.865-0.864
				C148.306,25.258,148.685,24.879,149.171,24.879z"/>
		</g>
	</g>
</g>
<g id="Layer_5">
	<rect fill="#40D31C" width="296.583" height="40.155"/>
	<g>
		<g>
			<path fill="#FFFFFF" d="M165.935,25.366c-1.656,0.864-3.475,1.225-5.348,1.225c-3.979,0-6.877-2.611-6.877-6.698
				c0-4.087,2.898-6.698,6.877-6.698c2.018,0,3.799,0.45,5.078,1.638l-1.98,2.161c-0.756-0.792-1.674-1.206-3.098-1.206
				c-2.395,0-3.961,1.729-3.961,4.105c0,2.377,1.566,4.105,3.961,4.105c1.225,0,2.125-0.342,2.646-0.63v-2.071h-2.285v-2.593h4.986
				V25.366z"/>
			<path fill="#FFFFFF" d="M168.128,13.518h4.934c2.611,0,4.807,0.9,4.807,3.872c0,1.782-0.953,3.169-2.754,3.493l3.24,5.384h-3.367
				l-2.664-5.096h-1.387v5.096h-2.809V13.518z M170.937,18.794h1.656c1.027,0,2.359-0.036,2.359-1.422
				c0-1.278-1.152-1.477-2.18-1.477h-1.836V18.794z"/>
			<path fill="#FFFFFF" d="M179.63,13.518h8.66v2.593h-5.852v2.377h5.527v2.593h-5.527v2.593h6.176v2.593h-8.984V13.518z"/>
			<path fill="#FFFFFF" d="M190.698,13.518h8.662v2.593h-5.854v2.377h5.529v2.593h-5.529v2.593h6.176v2.593h-8.984V13.518z"/>
			<path fill="#FFFFFF" d="M201.661,13.518h3.816l5.42,8.859h0.037v-8.859h2.809v12.748h-3.674l-5.563-9.075h-0.037v9.075h-2.809
				V13.518z"/>
			<path fill="#FFFFFF" d="M227.603,25.366c-1.656,0.864-3.475,1.225-5.348,1.225c-3.98,0-6.879-2.611-6.879-6.698
				c0-4.087,2.898-6.698,6.879-6.698c2.016,0,3.799,0.45,5.076,1.638l-1.98,2.161c-0.756-0.792-1.674-1.206-3.096-1.206
				c-2.395,0-3.961,1.729-3.961,4.105c0,2.377,1.566,4.105,3.961,4.105c1.225,0,2.125-0.342,2.646-0.63v-2.071h-2.287v-2.593h4.988
				V25.366z"/>
			<path fill="#FFFFFF" d="M229.759,13.518h2.809v12.748h-2.809V13.518z"/>
			<path fill="#FFFFFF" d="M234.96,13.518h8.553v2.593h-5.744v2.593h5.313v2.593h-5.313v4.97h-2.809V13.518z"/>
			<path fill="#FFFFFF" d="M247.724,16.003h-3.637v-2.485h10.082v2.485h-3.637v10.263h-2.809V16.003z"/>
		</g>
		<g>
			<polygon fill="#FFFFFF" points="272.548,13.039 264.96,22.423 259.505,17.959 257.399,20.533 262.868,25.01 265.442,27.117 
				267.534,24.53 275.134,15.129 			"/>
		</g>
		<g>
			<path fill="#FFFFFF" d="M33.693,24.321c-1.207,1.656-2.863,2.323-4.735,2.323c-3.889,0-6.59-2.809-6.59-6.698
				s2.701-6.698,6.59-6.698c1.729,0,3.277,0.576,4.393,1.999l-0.972,0.81c-0.792-1.188-2.143-1.729-3.421-1.729
				c-3.331,0-5.402,2.449-5.402,5.618s2.071,5.618,5.402,5.618c1.278,0,2.863-0.612,3.763-1.98L33.693,24.321z"/>
			<path fill="#FFFFFF" d="M41.36,13.248c3.889,0,6.59,2.809,6.59,6.698s-2.701,6.698-6.59,6.698s-6.59-2.809-6.59-6.698
				S37.471,13.248,41.36,13.248z M41.36,25.563c3.331,0,5.401-2.449,5.401-5.618s-2.07-5.618-5.401-5.618s-5.402,2.449-5.402,5.618
				S38.029,25.563,41.36,25.563z"/>
			<path fill="#FFFFFF" d="M50.178,13.572h3.943c6.626,0,6.896,5.438,6.896,6.374c0,0.937-0.27,6.374-6.896,6.374h-3.943V13.572z
				 M51.367,25.239h2.449c3.385,0,6.014-1.638,6.014-5.293c0-3.655-2.629-5.293-6.014-5.293h-2.449V25.239z"/>
			<path fill="#FFFFFF" d="M63.408,13.572h7.796v1.08h-6.608v4.537h6.194v1.081h-6.194v4.969h6.896v1.081h-8.084V13.572z"/>
			<path fill="#FFFFFF" d="M82.129,13.572h1.224l5.366,12.748h-1.333L86,22.934h-6.752l-1.44,3.385h-1.243L82.129,13.572z
				 M82.687,14.868l-2.971,6.986h5.852L82.687,14.868z"/>
			<path fill="#FFFFFF" d="M90.282,13.572h3.673c1.801,0,4.105,0.702,4.105,3.367c0,2.305-1.836,3.331-3.835,3.331H91.47v6.05
				h-1.188V13.572z M91.47,19.189h2.701c1.35,0,2.701-0.576,2.701-2.25c0-1.638-1.404-2.287-2.773-2.287H91.47V19.189z"/>
			<path fill="#FFFFFF" d="M100.344,13.572h3.673c1.801,0,4.105,0.702,4.105,3.367c0,2.305-1.836,3.331-3.835,3.331h-2.754v6.05
				h-1.188V13.572z M101.532,19.189h2.701c1.351,0,2.701-0.576,2.701-2.25c0-1.638-1.404-2.287-2.773-2.287h-2.628V19.189z"/>
			<path fill="#FFFFFF" d="M110.406,13.572h1.188v11.667h5.941v1.081h-7.13V13.572z"/>
			<path fill="#FFFFFF" d="M119.136,13.572h1.188v12.748h-1.188V13.572z"/>
			<path fill="#FFFFFF" d="M123.545,13.572h7.796v1.08h-6.608v4.537h6.194v1.081h-6.194v4.969h6.896v1.081h-8.084V13.572z"/>
			<path fill="#FFFFFF" d="M133.787,13.572h3.943c6.626,0,6.896,5.438,6.896,6.374c0,0.937-0.27,6.374-6.896,6.374h-3.943V13.572z
				 M134.976,25.239h2.449c3.385,0,6.014-1.638,6.014-5.293c0-3.655-2.629-5.293-6.014-5.293h-2.449V25.239z"/>
			<path fill="#FFFFFF" d="M147.611,17.893c0.485,0,0.864,0.378,0.864,0.864c0,0.486-0.379,0.864-0.864,0.864
				c-0.486,0-0.864-0.378-0.864-0.864C146.747,18.271,147.125,17.893,147.611,17.893z M147.611,24.699
				c0.485,0,0.864,0.378,0.864,0.864c0,0.486-0.379,0.864-0.864,0.864c-0.486,0-0.864-0.378-0.864-0.864
				C146.747,25.077,147.125,24.699,147.611,24.699z"/>
		</g>
	</g>
	<g>
	</g>
	<g>
	</g>
	<g>
	</g>
	<g>
	</g>
	<g>
	</g>
	<g>
	</g>
</g>
</svg>
