<?xml version="1.0" encoding="utf-8"?>
<!-- Generator: Adobe Illustrator 16.0.3, SVG Export Plug-In . SVG Version: 6.00 Build 0)  -->
<!DOCTYPE svg PUBLIC "-//W3C//DTD SVG 1.1//EN" "http://www.w3.org/Graphics/SVG/1.1/DTD/svg11.dtd">
<svg version="1.1" xmlns="http://www.w3.org/2000/svg" xmlns:xlink="http://www.w3.org/1999/xlink" x="0px" y="0px"
	 width="296.583px" height="40.155px" viewBox="0 0 296.583 40.155" enable-background="new 0 0 296.583 40.155"
	 xml:space="preserve">
<g id="Layer_1">
	<rect fill="#14A98A" width="296.583" height="40.155"/>
	<g>
		<g>
			<path fill="#FFFFFF" d="M165.525,25.545c-1.656,0.864-3.475,1.225-5.348,1.225c-3.979,0-6.878-2.611-6.878-6.698
				c0-4.087,2.898-6.698,6.878-6.698c2.017,0,3.799,0.45,5.077,1.638l-1.98,2.161c-0.756-0.792-1.674-1.206-3.097-1.206
				c-2.395,0-3.961,1.729-3.961,4.105c0,2.377,1.566,4.105,3.961,4.105c1.225,0,2.125-0.342,2.646-0.63v-2.07h-2.286v-2.593h4.987
				V25.545z"/>
			<path fill="#FFFFFF" d="M167.719,13.698h4.933c2.611,0,4.808,0.9,4.808,3.871c0,1.782-0.954,3.169-2.755,3.493l3.241,5.384
				h-3.367l-2.665-5.096h-1.386v5.096h-2.809V13.698z M170.527,18.973h1.656c1.026,0,2.358-0.036,2.358-1.422
				c0-1.278-1.152-1.477-2.179-1.477h-1.836V18.973z"/>
			<path fill="#FFFFFF" d="M179.22,13.698h8.661v2.593h-5.853v2.376h5.528v2.593h-5.528v2.593h6.176v2.593h-8.984V13.698z"/>
			<path fill="#FFFFFF" d="M190.289,13.698h8.661v2.593h-5.853v2.376h5.528v2.593h-5.528v2.593h6.176v2.593h-8.984V13.698z"/>
			<path fill="#FFFFFF" d="M201.252,13.698h3.816l5.42,8.858h0.036v-8.858h2.809v12.748h-3.673l-5.563-9.075h-0.036v9.075h-2.809
				V13.698z"/>
			<path fill="#FFFFFF" d="M227.192,25.545c-1.656,0.864-3.476,1.225-5.348,1.225c-3.979,0-6.878-2.611-6.878-6.698
				c0-4.087,2.898-6.698,6.878-6.698c2.017,0,3.799,0.45,5.077,1.638l-1.98,2.161c-0.756-0.792-1.674-1.206-3.097-1.206
				c-2.395,0-3.961,1.729-3.961,4.105c0,2.377,1.566,4.105,3.961,4.105c1.225,0,2.125-0.342,2.646-0.63v-2.07h-2.286v-2.593h4.987
				V25.545z"/>
			<path fill="#FFFFFF" d="M229.35,13.698h2.809v12.748h-2.809V13.698z"/>
			<path fill="#FFFFFF" d="M234.551,13.698h8.553v2.593h-5.744v2.593h5.312v2.593h-5.312v4.969h-2.809V13.698z"/>
			<path fill="#FFFFFF" d="M247.313,16.182h-3.637v-2.484h10.083v2.484h-3.637v10.263h-2.81V16.182z"/>
		</g>
		<g>
			<path fill="#FFFFFF" d="M48.48,13.752h1.224L55.07,26.5h-1.333l-1.386-3.385h-6.752l-1.44,3.385h-1.243L48.48,13.752z
				 M49.038,15.049l-2.971,6.986h5.852L49.038,15.049z"/>
			<path fill="#FFFFFF" d="M56.633,13.752h3.673c1.801,0,4.105,0.703,4.105,3.367c0,2.305-1.836,3.331-3.835,3.331h-2.754v6.05
				h-1.188V13.752z M57.821,19.37h2.701c1.351,0,2.701-0.576,2.701-2.251c0-1.639-1.404-2.287-2.773-2.287h-2.628V19.37z"/>
			<path fill="#FFFFFF" d="M66.695,13.752h3.673c1.801,0,4.105,0.703,4.105,3.367c0,2.305-1.836,3.331-3.835,3.331h-2.755v6.05
				h-1.188V13.752z M67.883,19.37h2.701c1.35,0,2.701-0.576,2.701-2.251c0-1.639-1.404-2.287-2.773-2.287h-2.628V19.37z"/>
			<path fill="#FFFFFF" d="M76.757,13.752h1.188V25.42h5.941v1.08h-7.13V13.752z"/>
			<path fill="#FFFFFF" d="M86.315,21.008l-4.681-7.256h1.422l3.853,6.05l3.943-6.05h1.332l-4.681,7.256V26.5h-1.188V21.008z"/>
			<path fill="#FFFFFF" d="M108.458,24.501c-1.207,1.656-2.863,2.323-4.735,2.323c-3.889,0-6.59-2.809-6.59-6.698
				s2.701-6.698,6.59-6.698c1.729,0,3.277,0.576,4.393,1.999l-0.972,0.81c-0.792-1.188-2.143-1.729-3.421-1.729
				c-3.331,0-5.402,2.449-5.402,5.618s2.071,5.618,5.402,5.618c1.278,0,2.863-0.612,3.763-1.98L108.458,24.501z"/>
			<path fill="#FFFFFF" d="M116.124,13.428c3.889,0,6.59,2.809,6.59,6.698s-2.701,6.698-6.59,6.698s-6.59-2.809-6.59-6.698
				S112.235,13.428,116.124,13.428z M116.124,25.744c3.331,0,5.401-2.449,5.401-5.618s-2.07-5.618-5.401-5.618
				s-5.402,2.449-5.402,5.618S112.793,25.744,116.124,25.744z"/>
			<path fill="#FFFFFF" d="M124.942,13.752h3.943c6.626,0,6.896,5.438,6.896,6.374c0,0.937-0.27,6.374-6.896,6.374h-3.943V13.752z
				 M126.131,25.42h2.449c3.385,0,6.014-1.639,6.014-5.294c0-3.655-2.629-5.293-6.014-5.293h-2.449V25.42z"/>
			<path fill="#FFFFFF" d="M138.173,13.752h7.796v1.081h-6.608v4.538h6.194v1.08h-6.194v4.97h6.896v1.08h-8.084V13.752z"/>
			<path fill="#FFFFFF" d="M149.171,18.073c0.485,0,0.863,0.378,0.863,0.864c0,0.486-0.378,0.864-0.863,0.864
				c-0.486,0-0.865-0.378-0.865-0.864C148.306,18.452,148.685,18.073,149.171,18.073z M149.171,24.879
				c0.485,0,0.863,0.378,0.863,0.864c0,0.486-0.378,0.864-0.863,0.864c-0.486,0-0.865-0.378-0.865-0.864
				C148.306,25.258,148.685,24.879,149.171,24.879z"/>
		</g>
	</g>
</g>
<g id="Layer_5" display="none">
	<rect display="inline" fill="#40D31C" width="296.583" height="40.155"/>
	<g display="inline">
		<path fill="#FFFFFF" d="M148.952,13.518h4.753c2.232,0,4.663,0.468,4.663,3.241c0,1.422-0.882,2.395-2.196,2.809v0.036
			c1.675,0.216,2.791,1.458,2.791,3.115c0,2.665-2.521,3.547-4.79,3.547h-5.221V13.518z M151.761,18.614h2.034
			c0.864,0,1.765-0.36,1.765-1.386c0-1.063-1.008-1.333-1.891-1.333h-1.908V18.614z M151.761,23.889h2.521
			c0.882,0,1.872-0.378,1.872-1.494c0-1.207-1.35-1.404-2.268-1.404h-2.125V23.889z"/>
		<path fill="#FFFFFF" d="M164.541,13.518h2.322l5.546,12.748h-3.169l-1.099-2.701h-4.951l-1.063,2.701h-3.097L164.541,13.518z
			 M165.621,17.228l-1.548,3.961h3.114L165.621,17.228z"/>
		<path fill="#FFFFFF" d="M181.75,16.832c-0.558-0.667-1.368-1.044-2.413-1.044c-2.124,0-3.69,1.729-3.69,4.105
			c0,2.377,1.566,4.105,3.601,4.105c1.135,0,2.053-0.504,2.629-1.369l2.341,1.747c-1.063,1.513-2.863,2.215-4.609,2.215
			c-3.979,0-6.878-2.611-6.878-6.698c0-4.087,2.898-6.698,6.878-6.698c1.423,0,3.223,0.486,4.304,1.873L181.75,16.832z"/>
		<path fill="#FFFFFF" d="M185.582,13.518h2.809v5.294l4.952-5.294h3.673l-5.672,5.924l6.158,6.824h-3.926l-5.186-6.05v6.05h-2.809
			V13.518z"/>
		<path fill="#FFFFFF" d="M197.785,23.403l4.952-4.447c0.504-0.468,1.134-1.008,1.134-1.783c0-0.864-0.738-1.386-1.566-1.386
			c-0.99,0-1.584,0.702-1.656,1.621l-2.701-0.198c0.162-2.629,1.999-3.907,4.502-3.907c2.322,0,4.123,1.278,4.123,3.835
			c0,1.639-0.702,2.575-1.675,3.421l-3.871,3.331h5.654v2.377h-8.896V23.403z"/>
		<path fill="#FFFFFF" d="M214.889,16.633c-0.45-0.576-1.351-0.846-2.035-0.846c-0.792,0-1.891,0.36-1.891,1.314
			c0,2.323,5.87,0.828,5.87,5.293c0,2.845-2.287,4.195-4.916,4.195c-1.638,0-3.078-0.486-4.285-1.603l1.999-2.197
			c0.576,0.756,1.513,1.207,2.448,1.207c0.919,0,1.945-0.432,1.945-1.333c0-2.341-5.979-1.081-5.979-5.33
			c0-2.719,2.359-4.141,4.861-4.141c1.441,0,2.827,0.378,3.907,1.333L214.889,16.633z"/>
		<path fill="#FFFFFF" d="M226.984,16.832c-0.558-0.667-1.368-1.044-2.413-1.044c-2.124,0-3.69,1.729-3.69,4.105
			c0,2.377,1.566,4.105,3.601,4.105c1.135,0,2.053-0.504,2.629-1.369l2.341,1.747c-1.063,1.513-2.863,2.215-4.609,2.215
			c-3.979,0-6.878-2.611-6.878-6.698c0-4.087,2.898-6.698,6.878-6.698c1.423,0,3.223,0.486,4.304,1.873L226.984,16.832z"/>
		<path fill="#FFFFFF" d="M230.708,13.518h2.81v4.754h5.455v-4.754h2.81v12.748h-2.81v-5.51h-5.455v5.51h-2.81V13.518z"/>
		<path fill="#FFFFFF" d="M250.294,13.194c3.979,0,6.878,2.611,6.878,6.698c0,4.087-2.898,6.698-6.878,6.698
			s-6.878-2.611-6.878-6.698C243.416,15.805,246.314,13.194,250.294,13.194z M250.294,23.998c2.395,0,3.961-1.729,3.961-4.105
			c0-2.376-1.566-4.105-3.961-4.105s-3.961,1.729-3.961,4.105C246.333,22.269,247.899,23.998,250.294,23.998z"/>
		<path fill="#FFFFFF" d="M265,13.194c3.979,0,6.878,2.611,6.878,6.698c0,4.087-2.898,6.698-6.878,6.698s-6.878-2.611-6.878-6.698
			C258.122,15.805,261.021,13.194,265,13.194z M265,23.998c2.395,0,3.961-1.729,3.961-4.105c0-2.376-1.566-4.105-3.961-4.105
			s-3.961,1.729-3.961,4.105C261.039,22.269,262.605,23.998,265,23.998z"/>
		<path fill="#FFFFFF" d="M273.619,13.518h2.809v10.155h5.204v2.593h-8.013V13.518z"/>
	</g>
	<g display="inline">
		<polygon fill="#FFFFFF" points="328.207,14.039 320.619,23.423 315.165,18.959 313.059,21.533 318.528,26.01 321.102,28.117 
			323.193,25.53 330.793,16.129 		"/>
	</g>
	<g display="inline">
		<path fill="#FFFFFF" d="M28.303,24.321c-1.207,1.656-2.863,2.323-4.735,2.323c-3.889,0-6.59-2.809-6.59-6.698
			s2.701-6.698,6.59-6.698c1.729,0,3.277,0.576,4.393,1.999l-0.972,0.81c-0.792-1.188-2.143-1.729-3.421-1.729
			c-3.331,0-5.402,2.449-5.402,5.618s2.071,5.618,5.402,5.618c1.278,0,2.863-0.612,3.763-1.98L28.303,24.321z"/>
		<path fill="#FFFFFF" d="M35.97,13.248c3.889,0,6.59,2.809,6.59,6.698s-2.701,6.698-6.59,6.698s-6.59-2.809-6.59-6.698
			S32.081,13.248,35.97,13.248z M35.97,25.563c3.331,0,5.401-2.449,5.401-5.618s-2.07-5.618-5.401-5.618s-5.402,2.449-5.402,5.618
			S32.639,25.563,35.97,25.563z"/>
		<path fill="#FFFFFF" d="M44.788,13.572h3.943c6.626,0,6.896,5.438,6.896,6.374c0,0.937-0.27,6.374-6.896,6.374h-3.943V13.572z
			 M45.977,25.239h2.449c3.385,0,6.014-1.638,6.014-5.293c0-3.655-2.629-5.293-6.014-5.293h-2.449V25.239z"/>
		<path fill="#FFFFFF" d="M58.018,13.572h7.796v1.08h-6.608v4.537H65.4v1.081h-6.194v4.969h6.896v1.081h-8.084V13.572z"/>
		<path fill="#FFFFFF" d="M76.739,13.572h1.224l5.366,12.748h-1.333l-1.386-3.385h-6.752l-1.44,3.385h-1.243L76.739,13.572z
			 M77.297,14.868l-2.971,6.986h5.852L77.297,14.868z"/>
		<path fill="#FFFFFF" d="M84.892,13.572h3.673c1.801,0,4.105,0.702,4.105,3.367c0,2.305-1.836,3.331-3.835,3.331H86.08v6.05h-1.188
			V13.572z M86.08,19.189h2.701c1.35,0,2.701-0.576,2.701-2.25c0-1.638-1.404-2.287-2.773-2.287H86.08V19.189z"/>
		<path fill="#FFFFFF" d="M94.954,13.572h3.673c1.801,0,4.105,0.702,4.105,3.367c0,2.305-1.836,3.331-3.835,3.331h-2.754v6.05
			h-1.188V13.572z M96.142,19.189h2.701c1.351,0,2.701-0.576,2.701-2.25c0-1.638-1.404-2.287-2.773-2.287h-2.628V19.189z"/>
		<path fill="#FFFFFF" d="M105.016,13.572h1.188v11.667h5.941v1.081h-7.13V13.572z"/>
		<path fill="#FFFFFF" d="M113.746,13.572h1.188v12.748h-1.188V13.572z"/>
		<path fill="#FFFFFF" d="M118.155,13.572h7.796v1.08h-6.608v4.537h6.194v1.081h-6.194v4.969h6.896v1.081h-8.084V13.572z"/>
		<path fill="#FFFFFF" d="M128.397,13.572h3.943c6.625,0,6.896,5.438,6.896,6.374c0,0.937-0.271,6.374-6.896,6.374h-3.943V13.572z
			 M129.585,25.239h2.449c3.385,0,6.014-1.638,6.014-5.293c0-3.655-2.629-5.293-6.014-5.293h-2.449V25.239z"/>
		<path fill="#FFFFFF" d="M142.222,17.893c0.485,0,0.863,0.378,0.863,0.864c0,0.486-0.378,0.864-0.863,0.864
			c-0.486,0-0.865-0.378-0.865-0.864C141.356,18.271,141.735,17.893,142.222,17.893z M142.222,24.699
			c0.485,0,0.863,0.378,0.863,0.864c0,0.486-0.378,0.864-0.863,0.864c-0.486,0-0.865-0.378-0.865-0.864
			C141.356,25.077,141.735,24.699,142.222,24.699z"/>
	</g>
</g>
</svg>
