<?xml version="1.0" encoding="utf-8"?>
<!-- Generator: Adobe Illustrator 16.0.3, SVG Export Plug-In . SVG Version: 6.00 Build 0)  -->
<!DOCTYPE svg PUBLIC "-//W3C//DTD SVG 1.1//EN" "http://www.w3.org/Graphics/SVG/1.1/DTD/svg11.dtd">
<svg version="1.1" id="Layer_1" xmlns="http://www.w3.org/2000/svg" xmlns:xlink="http://www.w3.org/1999/xlink" x="0px" y="0px"
	 width="212px" height="32px" viewBox="21 3.5 212 32" enable-background="new 21 3.5 212 32" xml:space="preserve">
<g>
	<g>
		<path fill="#FFFFFF" d="M64.9,16.6h1.2l1.9,6.9h0l2-6.9h1.3l2,6.9h0l1.9-6.9h1.2L74,25.2h-1.2l-2.1-7h0l-2.1,7h-1.2L64.9,16.6z"/>
		<path fill="#FFFFFF" d="M81.3,16.6h5.5v1.1h-4.4v2.6h4.1v1.1h-4.1v2.8H87v1.1h-5.8L81.3,16.6L81.3,16.6z"/>
		<path fill="#FFFFFF" d="M92.3,16.6h1.2v7.5h3.9v1.1h-5.1V16.6z"/>
		<path fill="#FFFFFF" d="M102.2,16.6h1.2v7.5h3.9v1.1h-5.1L102.2,16.6L102.2,16.6z"/>
		<path fill="#FFFFFF" d="M112.2,16.6h1.5l4.7,7.1h0v-7.1h1.2v8.6h-1.5l-4.8-7.1h0v7.1h-1.2L112.2,16.6L112.2,16.6z"/>
		<path fill="#FFFFFF" d="M125.4,16.6h5.5v1.1h-4.4v2.6h4.1v1.1h-4.1v2.8h4.6v1.1h-5.8L125.4,16.6L125.4,16.6z"/>
		<path fill="#FFFFFF" d="M136.7,23.4c0.4,0.6,1.1,0.9,1.8,0.9c0.8,0,1.7-0.5,1.7-1.4c0-2-4.2-0.8-4.2-4.1c0-1,0.8-2.4,2.9-2.4
			c0.9,0,1.8,0.2,2.5,1l-0.9,0.9c-0.3-0.4-0.9-0.8-1.5-0.8c-1.3,0-1.7,0.8-1.7,1.3c0,2.2,4.2,0.9,4.2,4c0,1.7-1.3,2.7-3,2.7
			c-1.1,0-2.2-0.4-2.7-1.2L136.7,23.4z"/>
		<path fill="#FFFFFF" d="M147.1,23.4c0.4,0.6,1.1,0.9,1.8,0.9c0.8,0,1.7-0.5,1.7-1.4c0-2-4.2-0.8-4.2-4.1c0-1,0.8-2.4,2.9-2.4
			c0.9,0,1.8,0.2,2.5,1l-0.9,0.9c-0.3-0.4-0.9-0.8-1.5-0.8c-1.3,0-1.7,0.8-1.7,1.3c0,2.2,4.2,0.9,4.2,4c0,1.7-1.3,2.7-3,2.7
			c-1.1,0-2.2-0.4-2.7-1.2L147.1,23.4z"/>
		<path fill="#FFFFFF" d="M164.5,23.4c0.4,0.6,1.1,0.9,1.8,0.9c0.8,0,1.7-0.5,1.7-1.4c0-2-4.2-0.8-4.2-4.1c0-1,0.8-2.4,2.9-2.4
			c0.9,0,1.8,0.2,2.5,1l-0.9,0.9c-0.3-0.4-0.9-0.8-1.5-0.8c-1.3,0-1.7,0.8-1.7,1.3c0,2.2,4.2,0.9,4.2,4c0,1.7-1.3,2.7-3,2.7
			c-1.1,0-2.2-0.4-2.7-1.2L164.5,23.4z"/>
		<path fill="#FFFFFF" d="M176.4,17.7h-2.8v-1.1h6.7v1.1h-2.8v7.5h-1.2V17.7z"/>
		<path fill="#FFFFFF" d="M186.2,16.6v5.3c0,1.1,0.5,2.4,2.2,2.4s2.2-1.4,2.2-2.4v-5.3h1.2v5.4c0,2-1.4,3.4-3.3,3.4
			s-3.3-1.4-3.3-3.4v-5.4H186.2z"/>
		<path fill="#FFFFFF" d="M197.1,16.6h3c3.6,0,4.5,2.7,4.5,4.3c0,2.2-1.6,4.3-4.7,4.3h-2.8V16.6z M198.3,24.1h1.5
			c2,0,3.6-1.1,3.6-3.2c0-1.1-0.6-3.2-3.4-3.2h-1.7V24.1z"/>
		<path fill="#FFFFFF" d="M209.9,16.6h1.2v8.6h-1.2V16.6z"/>
		<path fill="#FFFFFF" d="M216.9,16.6h5.5v1.1h-4.4v2.6h4.1v1.1h-4.1v2.8h4.6v1.1H217L216.9,16.6L216.9,16.6z"/>
		<path fill="#FFFFFF" d="M228.2,23.4c0.4,0.6,1.1,0.9,1.8,0.9c0.8,0,1.7-0.5,1.7-1.4c0-2-4.2-0.8-4.2-4.1c0-1,0.8-2.4,2.9-2.4
			c0.9,0,1.8,0.2,2.5,1l-0.9,0.9c-0.3-0.4-0.9-0.8-1.5-0.8c-1.3,0-1.7,0.8-1.7,1.3c0,2.2,4.2,0.9,4.2,4c0,1.7-1.3,2.7-3,2.7
			c-1.1,0-2.2-0.4-2.7-1.2L228.2,23.4z"/>
	</g>
</g>
<path fill="#1ED1C4" d="M49.9,22.2V6.8H26.2v15.4c0,5.1,3.6,6.9,6.8,8.4c2.5,1.2,4.7,2.3,4.7,4.8h0.8c0-2.5,2.2-3.5,4.7-4.8
	C46.3,29,49.9,27.3,49.9,22.2z M38,33.3c-0.8-1.7-2.4-2.4-4.4-3.4c-3.1-1.5-6.4-3.1-6.4-7.8V7.9h21.5v14.3c0,4.7-3.2,6.2-6.4,7.8
	C40.4,30.9,38.8,31.6,38,33.3z"/>
<path fill="#1ED1C4" d="M55,8V6.9l-1.4,1.4V6.8h-1.1v1.6l-1.4-1.4V8l1.4,1.4v1.5l-1.4-1.4v1.1l1.4,1.4v1.5l-1.4-1.4v1.1l1.4,1.4v1.5
	l-1.4-1.4v1.1l1.4,1.4v1.5l-1.4-1.4v1.1l1.4,1.4v1.5l-1.4-1.4v1.1l1.1,1.4c-0.1,6.9-5,9.5-8.2,11c-1.4,0.7-2.6,1.3-2.9,1.8l1,0.4
	c0.2-0.3,2-1.2,2.6-1.5c3.3-1.6,8.8-4.3,8.9-11.7l1.4-1.4v-1.1l-1.4,1.4v-1.5l1.4-1.4v-1.1l-1.4,1.4v-1.5l1.4-1.4v-1.1l-1.4,1.4
	v-1.5l1.4-1.4v-1.1l-1.4,1.4V12l1.4-1.4V9.5l-1.4,1.4V9.4L55,8z"/>
<rect x="31.4" y="3.5" fill="#1ED1C4" width="13.6" height="1.1"/>
<path fill="#1ED1C4" d="M45.4,19.8l-0.1,0.1c-0.6,1.3-1.8,2.1-3.2,2.1c-1.9,0-3.5-1.6-3.5-3.5c0-1.9,1.6-3.5,3.5-3.5
	c1.4,0,2.6,0.8,3.2,2.1l0.1,0.1h1.1l-0.1-0.3c-0.7-1.8-2.4-2.9-4.2-2.9c-1.7,0-3.3,1-4,2.5C37.3,15,35.7,14,34,14
	c-2.5,0-4.5,2-4.5,4.5c0,2.5,2,4.5,4.5,4.5c1,0,2-0.4,2.8-1l1.1,1.1l0.7-0.7l-1.1-1.1c0.2-0.2,0.3-0.5,0.5-0.7
	c0.8,1.5,2.3,2.5,4,2.5c1.9,0,3.6-1.2,4.3-3l0.1-0.3L45.4,19.8L45.4,19.8z M34,22.1c-1.9,0-3.5-1.6-3.5-3.5c0-1.9,1.6-3.5,3.5-3.5
	c1.9,0,3.5,1.6,3.5,3.5c0,0.7-0.2,1.5-0.7,2.1l-1.3-1.3l-0.7,0.7l1.3,1.3C35.5,21.8,34.7,22.1,34,22.1z"/>
<path fill="#1ED1C4" d="M21,8V6.9l1.4,1.4V6.7h1.1v1.6l1.4-1.4V8l-1.4,1.4v1.5l1.4-1.4v1.1L23.5,12v1.5l1.4-1.4v1.1l-1.4,1.4V16
	l1.4-1.4v1.1l-1.4,1.4v1.5l1.4-1.4v1.1l-1.4,1.4v1.5l1.4-1.4v1.1l-1.1,1.4c0.1,6.9,5,9.5,8.2,11c1.4,0.7,2.6,1.3,2.9,1.8l-1,0.4
	c-0.2-0.3-2-1.2-2.6-1.5c-3.3-1.6-8.8-4.3-8.9-11.7L21,20.9v-1.1l1.4,1.4v-1.5L21,18.3v-1.1l1.4,1.4v-1.5L21,15.7v-1.1l1.4,1.4v-1.5
	L21,13.1v-1.1l1.4,1.4V12L21,10.5V9.5l1.4,1.4V9.4L21,8z"/>
</svg>
