<?xml version="1.0" encoding="utf-8"?>
<!-- Generator: Adobe Illustrator 16.0.3, SVG Export Plug-In . SVG Version: 6.00 Build 0)  -->
<!DOCTYPE svg PUBLIC "-//W3C//DTD SVG 1.1//EN" "http://www.w3.org/Graphics/SVG/1.1/DTD/svg11.dtd">
<svg version="1.1" xmlns="http://www.w3.org/2000/svg" xmlns:xlink="http://www.w3.org/1999/xlink" x="0px" y="0px"
	 width="351.625px" height="40.155px" viewBox="0 0 351.625 40.155" enable-background="new 0 0 351.625 40.155"
	 xml:space="preserve">
<g id="Layer_1">
	<rect fill="#FF0069" width="351.625" height="40.155"/>
	<g>
		<path fill="#FFFFFF" d="M197.793,27.238c-2.223,1.159-4.662,1.642-7.174,1.642c-5.339,0-9.228-3.502-9.228-8.985
			s3.889-8.985,9.228-8.985c2.705,0,5.096,0.604,6.812,2.198l-2.657,2.899c-1.015-1.063-2.246-1.619-4.154-1.619
			c-3.213,0-5.314,2.319-5.314,5.507s2.102,5.507,5.314,5.507c1.642,0,2.85-0.459,3.55-0.845v-2.778h-3.067V18.3h6.691V27.238z"/>
		<path fill="#FFFFFF" d="M200.886,11.344h3.769v13.624h6.98v3.478h-10.749V11.344z"/>
		<path fill="#FFFFFF" d="M221.66,10.909c5.339,0,9.228,3.502,9.228,8.985s-3.889,8.985-9.228,8.985
			c-5.338,0-9.227-3.502-9.227-8.985S216.322,10.909,221.66,10.909z M221.66,25.402c3.213,0,5.314-2.319,5.314-5.507
			s-2.102-5.507-5.314-5.507c-3.212,0-5.313,2.319-5.313,5.507S218.448,25.402,221.66,25.402z"/>
		<path fill="#FFFFFF" d="M231.301,11.344h4.105l2.729,10.966h0.049l3.575-10.966h3.502l3.551,11.256h0.048l2.875-11.256h3.816
			l-5,17.102h-3.357l-3.769-11.836h-0.048l-3.769,11.836h-3.236L231.301,11.344z"/>
		<path fill="#FFFFFF" d="M271.303,21.851c0,4.034-2.464,7.029-7.198,7.029c-4.758,0-7.222-2.995-7.222-7.029V11.344h3.768v10.362
			c0,2.102,1.449,3.696,3.454,3.696c1.981,0,3.431-1.594,3.431-3.696V11.344h3.768V21.851z"/>
		<path fill="#FFFFFF" d="M274.421,11.344h6.353c3.551,0,6.498,1.135,6.498,5.193c0,4.01-2.729,5.242-6.329,5.242h-2.754v6.667
			h-3.768V11.344z M278.188,18.59h2.513c1.328,0,2.657-0.459,2.657-2.053c0-1.763-1.788-2.005-3.237-2.005h-1.933V18.59z"/>
	</g>
	<g>
		<path fill="#FFFFFF" d="M43.755,11.111h1.574L52.227,27.5h-1.713l-1.782-4.352h-8.68L38.2,27.5h-1.597L43.755,11.111z
			 M44.473,12.778l-3.819,8.981h7.523L44.473,12.778z"/>
		<path fill="#FFFFFF" d="M54.246,11.111h4.722c2.315,0,5.278,0.903,5.278,4.329c0,2.963-2.361,4.283-4.931,4.283h-3.542V27.5
			h-1.528V11.111z M55.773,18.333h3.472c1.736,0,3.472-0.741,3.472-2.894c0-2.106-1.806-2.939-3.564-2.939h-3.38V18.333z"/>
		<path fill="#FFFFFF" d="M67.189,11.111h4.722c2.315,0,5.278,0.903,5.278,4.329c0,2.963-2.361,4.283-4.931,4.283h-3.542V27.5
			h-1.528V11.111z M68.717,18.333h3.472c1.736,0,3.472-0.741,3.472-2.894c0-2.106-1.806-2.939-3.564-2.939h-3.38V18.333z"/>
		<path fill="#FFFFFF" d="M80.132,11.111h1.528v15h7.639V27.5h-9.167V11.111z"/>
		<path fill="#FFFFFF" d="M92.427,20.44l-6.018-9.329h1.829l4.954,7.778l5.069-7.778h1.713l-6.019,9.329v7.06h-1.528V20.44z"/>
		<path fill="#FFFFFF" d="M120.904,24.931c-1.551,2.129-3.68,2.986-6.088,2.986c-5,0-8.472-3.611-8.472-8.611
			s3.472-8.611,8.472-8.611c2.222,0,4.213,0.741,5.648,2.569l-1.25,1.042c-1.019-1.527-2.755-2.222-4.398-2.222
			c-4.282,0-6.944,3.148-6.944,7.222c0,4.074,2.662,7.222,6.944,7.222c1.644,0,3.681-0.787,4.838-2.546L120.904,24.931z"/>
		<path fill="#FFFFFF" d="M130.77,10.695c5,0,8.472,3.611,8.472,8.611s-3.472,8.611-8.472,8.611c-5,0-8.472-3.611-8.472-8.611
			S125.771,10.695,130.77,10.695z M130.77,26.528c4.283,0,6.944-3.148,6.944-7.222c0-4.074-2.662-7.222-6.944-7.222
			c-4.282,0-6.944,3.148-6.944,7.222C123.826,23.38,126.488,26.528,130.77,26.528z"/>
		<path fill="#FFFFFF" d="M142.119,11.111h5.069c8.518,0,8.865,6.991,8.865,8.194s-0.347,8.194-8.865,8.194h-5.069V11.111z
			 M143.646,26.111h3.148c4.352,0,7.731-2.106,7.731-6.806c0-4.699-3.38-6.805-7.731-6.805h-3.148V26.111z"/>
		<path fill="#FFFFFF" d="M159.137,11.111h10.023V12.5h-8.495v5.833h7.963v1.389h-7.963v6.389h8.866V27.5h-10.394V11.111z"/>
		<path fill="#FFFFFF" d="M173.285,16.667c0.625,0,1.111,0.486,1.111,1.111s-0.486,1.111-1.111,1.111s-1.111-0.486-1.111-1.111
			S172.66,16.667,173.285,16.667z M173.285,25.417c0.625,0,1.111,0.486,1.111,1.111s-0.486,1.111-1.111,1.111
			s-1.111-0.486-1.111-1.111S172.66,25.417,173.285,25.417z"/>
	</g>
	<g>
		<g>
			<path fill="#FFFFFF" d="M308.614,16.702c-0.222,0-0.457-0.17-0.525-0.382l-2.174-6.684c-0.068-0.212-0.179-0.212-0.247,0
				l-2.171,6.684c-0.068,0.212-0.305,0.382-0.528,0.382h-7.026c-0.223,0-0.258,0.106-0.077,0.235l5.685,4.132
				c0.181,0.13,0.271,0.406,0.202,0.618l-2.173,6.684c-0.069,0.21,0.022,0.277,0.202,0.145l5.685-4.13
				c0.181-0.131,0.471-0.131,0.652,0l5.686,4.132c0.179,0.13,0.269,0.065,0.2-0.147l-2.171-6.684c-0.067-0.212,0.02-0.488,0.2-0.618
				l5.687-4.132c0.179-0.129,0.146-0.235-0.076-0.235H308.614z M308.614,16.702"/>
		</g>
	</g>
</g>
<g id="Layer_5" display="none">
	<rect display="inline" fill="#40D31C" width="351.625" height="40.155"/>
	<g display="inline">
		<path fill="#FFFFFF" d="M39.578,24.819c-1.619,2.222-3.841,3.116-6.353,3.116c-5.217,0-8.84-3.768-8.84-8.985
			s3.623-8.985,8.84-8.985c2.319,0,4.396,0.773,5.894,2.681l-1.304,1.087c-1.063-1.594-2.875-2.319-4.59-2.319
			c-4.468,0-7.246,3.285-7.246,7.536c0,4.251,2.778,7.536,7.246,7.536c1.715,0,3.841-0.821,5.048-2.657L39.578,24.819z"/>
		<path fill="#FFFFFF" d="M49.871,9.964c5.218,0,8.841,3.768,8.841,8.985s-3.623,8.985-8.841,8.985c-5.217,0-8.84-3.768-8.84-8.985
			S44.654,9.964,49.871,9.964z M49.871,26.485c4.469,0,7.247-3.285,7.247-7.536c0-4.251-2.778-7.536-7.247-7.536
			c-4.468,0-7.246,3.285-7.246,7.536C42.625,23.201,45.403,26.485,49.871,26.485z"/>
		<path fill="#FFFFFF" d="M61.711,10.398h5.29c8.889,0,9.251,7.295,9.251,8.551S75.89,27.5,67.001,27.5h-5.29V10.398z
			 M63.306,26.051h3.285c4.541,0,8.068-2.198,8.068-7.102s-3.527-7.102-8.068-7.102h-3.285V26.051z"/>
		<path fill="#FFFFFF" d="M79.469,10.398h10.459v1.449h-8.865v6.087h8.31v1.449h-8.31v6.667h9.251V27.5H79.469V10.398z"/>
		<path fill="#FFFFFF" d="M104.594,10.398h1.643l7.198,17.102h-1.788l-1.86-4.541h-9.058L98.797,27.5H97.13L104.594,10.398z
			 M105.343,12.138l-3.986,9.372h7.851L105.343,12.138z"/>
		<path fill="#FFFFFF" d="M115.539,10.398h4.928c2.416,0,5.507,0.942,5.507,4.517c0,3.092-2.464,4.468-5.145,4.468h-3.696V27.5
			h-1.594V10.398z M117.133,17.935h3.624c1.812,0,3.623-0.773,3.623-3.019c0-2.198-1.884-3.068-3.72-3.068h-3.527V17.935z"/>
		<path fill="#FFFFFF" d="M129.044,10.398h4.928c2.416,0,5.507,0.942,5.507,4.517c0,3.092-2.464,4.468-5.145,4.468h-3.696V27.5
			h-1.594V10.398z M130.639,17.935h3.624c1.812,0,3.623-0.773,3.623-3.019c0-2.198-1.884-3.068-3.72-3.068h-3.527V17.935z"/>
		<path fill="#FFFFFF" d="M142.55,10.398h1.594v15.652h7.971V27.5h-9.565V10.398z"/>
		<path fill="#FFFFFF" d="M154.267,10.398h1.594V27.5h-1.594V10.398z"/>
		<path fill="#FFFFFF" d="M160.186,10.398h10.459v1.449h-8.865v6.087h8.31v1.449h-8.31v6.667h9.251V27.5h-10.846V10.398z"/>
		<path fill="#FFFFFF" d="M173.933,10.398h5.29c8.889,0,9.251,7.295,9.251,8.551s-0.362,8.551-9.251,8.551h-5.29V10.398z
			 M175.527,26.051h3.285c4.541,0,8.068-2.198,8.068-7.102s-3.527-7.102-8.068-7.102h-3.285V26.051z"/>
		<path fill="#FFFFFF" d="M192.488,16.196c0.652,0,1.158,0.507,1.158,1.159s-0.506,1.16-1.158,1.16c-0.653,0-1.16-0.507-1.16-1.16
			S191.835,16.196,192.488,16.196z M192.488,25.326c0.652,0,1.158,0.507,1.158,1.159c0,0.652-0.506,1.16-1.158,1.16
			c-0.653,0-1.16-0.507-1.16-1.16C191.328,25.833,191.835,25.326,192.488,25.326z"/>
	</g>
	<g display="inline">
		<polygon fill="#FFFFFF" points="329.249,13.039 321.661,22.423 316.207,17.959 314.101,20.533 319.57,25.01 322.144,27.117 
			324.235,24.53 331.835,15.129 		"/>
	</g>
	<g display="inline">
		<path fill="#FFFFFF" d="M218.793,27.238c-2.223,1.159-4.662,1.642-7.174,1.642c-5.339,0-9.228-3.502-9.228-8.985
			s3.889-8.985,9.228-8.985c2.705,0,5.096,0.604,6.812,2.198l-2.657,2.899c-1.015-1.063-2.246-1.619-4.154-1.619
			c-3.213,0-5.314,2.319-5.314,5.507s2.102,5.507,5.314,5.507c1.642,0,2.85-0.459,3.55-0.845v-2.778h-3.067V18.3h6.691V27.238z"/>
		<path fill="#FFFFFF" d="M221.886,11.344h3.769v13.624h6.98v3.478h-10.749V11.344z"/>
		<path fill="#FFFFFF" d="M242.66,10.909c5.339,0,9.228,3.502,9.228,8.985s-3.889,8.985-9.228,8.985
			c-5.338,0-9.227-3.502-9.227-8.985S237.322,10.909,242.66,10.909z M242.66,25.402c3.213,0,5.314-2.319,5.314-5.507
			s-2.102-5.507-5.314-5.507c-3.212,0-5.313,2.319-5.313,5.507S239.448,25.402,242.66,25.402z"/>
		<path fill="#FFFFFF" d="M252.301,11.344h4.105l2.729,10.966h0.049l3.575-10.966h3.502l3.551,11.256h0.048l2.875-11.256h3.816
			l-5,17.102h-3.357l-3.769-11.836h-0.048l-3.769,11.836h-3.236L252.301,11.344z"/>
		<path fill="#FFFFFF" d="M292.303,21.851c0,4.034-2.464,7.029-7.198,7.029c-4.758,0-7.222-2.995-7.222-7.029V11.344h3.768v10.362
			c0,2.102,1.449,3.696,3.454,3.696c1.981,0,3.431-1.594,3.431-3.696V11.344h3.768V21.851z"/>
		<path fill="#FFFFFF" d="M295.421,11.344h6.353c3.551,0,6.498,1.135,6.498,5.193c0,4.01-2.729,5.242-6.329,5.242h-2.754v6.667
			h-3.768V11.344z M299.188,18.59h2.513c1.328,0,2.657-0.459,2.657-2.053c0-1.763-1.788-2.005-3.237-2.005h-1.933V18.59z"/>
	</g>
</g>
</svg>
