<?xml version="1.0" encoding="utf-8"?>
<!-- Generator: Adobe Illustrator 16.0.3, SVG Export Plug-In . SVG Version: 6.00 Build 0)  -->
<!DOCTYPE svg PUBLIC "-//W3C//DTD SVG 1.1//EN" "http://www.w3.org/Graphics/SVG/1.1/DTD/svg11.dtd">
<svg version="1.1" id="Layer_1" xmlns="http://www.w3.org/2000/svg" xmlns:xlink="http://www.w3.org/1999/xlink" x="0px" y="0px"
	 width="455.159px" height="48.596px" viewBox="0 0 455.159 48.596" enable-background="new 0 0 455.159 48.596"
	 xml:space="preserve">
<path fill="#FFFFFF" d="M17.937,18.545c6.024,0,10.925,4.901,10.925,10.925c0,6.024-4.901,10.926-10.925,10.926
	S7.011,35.494,7.011,29.469C7.011,23.446,11.913,18.545,17.937,18.545 M17.937,11.535C8.031,11.535,0,19.564,0,29.469
	c0,9.906,8.031,17.938,17.937,17.938c9.906,0,17.937-8.031,17.937-17.938C35.874,19.564,27.843,11.535,17.937,11.535L17.937,11.535z
	"/>
<rect x="49.494" y="0" fill="#FFFFFF" width="4.207" height="8.413"/>
<rect x="36.562" y="4.056" transform="matrix(-0.4808 -0.8768 0.8768 -0.4808 55.1456 44.9712)" fill="#FFFFFF" width="8.65" height="4.207"/>
<path fill="#FFFFFF" d="M62.022,32.719c-1.386,4.443-5.54,7.678-10.432,7.678c-6.025,0-10.926-4.901-10.926-10.925
	c0-6.024,4.901-10.926,10.926-10.926c4.703,0,8.719,2.986,10.257,7.163h7.28c-1.729-8.099-8.923-14.173-17.537-14.173
	c-9.906,0-17.937,8.03-17.937,17.937c0,9.905,8.03,17.937,17.937,17.937c8.796,0,16.108-6.334,17.637-14.688h-7.205V32.719z"/>
<rect x="14.299" y="34.317" transform="matrix(-0.7071 -0.7071 0.7071 -0.7071 17.6901 82.9723)" fill="#FFFFFF" width="23.459" height="7.011"/>
<rect x="60.17" y="1.837" transform="matrix(-0.877 -0.4805 0.4805 -0.877 113.9259 41.4898)" fill="#FFFFFF" width="4.207" height="8.651"/>
<g>
	<path fill="#FFFFFF" d="M90.548,16.099l7.853,15.809l7.819-15.809h4.726v23.798h-3.706l-0.034-17.78l-7.513,15.298h-2.618
		l-7.513-15.298v17.78h-3.773V16.099H90.548z"/>
	<path fill="#FFFFFF" d="M135.325,34.525h-12.001l-2.277,5.371h-4.182l10.505-23.798h4.113l10.403,23.798h-4.284L135.325,34.525z
		 M133.795,30.955l-4.488-10.573l-4.487,10.573H133.795z"/>
	<path fill="#FFFFFF" d="M163.646,39.896l-7.819-10.505l-4.046,4.453v6.052h-4.011V16.099h4.011v12.307l11.355-12.307h4.726
		l-9.213,10.165l9.825,13.633L163.646,39.896L163.646,39.896z"/>
	<path fill="#FFFFFF" d="M191.9,16.099v3.604h-12.987v6.459h11.627v3.569h-11.627v6.562h13.395v3.604h-17.406V16.099H191.9z"/>
	<path fill="#FFFFFF" d="M209.853,36.463c3.875,0,6.29-2.38,6.29-6.426V16.099h4.011v13.938c0,6.222-3.909,10.029-10.335,10.029
		c-6.425,0-10.369-3.809-10.369-10.029V16.099h4.011v13.938C203.461,34.049,205.943,36.463,209.853,36.463z"/>
	<path fill="#FFFFFF" d="M247.523,24.224c0,5.372-3.435,8.499-9.417,8.499h-5.474v7.174h-4.012V16.099h9.485
		C244.09,16.099,247.523,19.057,247.523,24.224z M243.682,24.326c0-3.128-2.072-4.624-5.745-4.624h-5.304v9.417h5.304
		C241.607,29.12,243.682,27.556,243.682,24.326z"/>
	<path fill="#FFFFFF" d="M282.509,34.525h-12.001l-2.277,5.371h-4.182l10.506-23.798h4.112l10.403,23.798h-4.284L282.509,34.525z
		 M280.979,30.955l-4.486-10.573l-4.487,10.573H280.979z"/>
	<path fill="#FFFFFF" d="M304.949,19.566c-4.76,0-8.499,3.672-8.499,8.363c0,4.69,3.739,8.396,8.499,8.396
		c2.38,0,4.828-1.088,6.63-2.821l2.38,2.651c-2.414,2.381-5.848,3.91-9.214,3.91c-6.97,0-12.374-5.271-12.374-12.104
		c0-6.766,5.473-11.967,12.511-11.967c3.365,0,6.729,1.395,9.043,3.671l-2.346,2.924C309.846,20.723,307.363,19.566,304.949,19.566z
		"/>
	<path fill="#FFFFFF" d="M335.957,34.525h-12.001l-2.276,5.371h-4.183l10.505-23.798h4.113l10.402,23.798h-4.283L335.957,34.525z
		 M334.427,30.955l-4.487-10.573l-4.486,10.573H334.427z"/>
	<path fill="#FFFFFF" d="M370.466,27.998c0,6.868-5.2,11.899-12.407,11.899h-9.656V16.099h9.758
		C365.299,16.099,370.466,21.096,370.466,27.998z M366.42,28.032c0-4.862-3.638-8.329-8.329-8.329h-5.677v16.59h5.847
		C362.885,36.293,366.42,32.859,366.42,28.032z"/>
	<path fill="#FFFFFF" d="M394.471,16.099v3.604h-12.986v6.459h11.627v3.569h-11.627v6.562h13.395v3.604h-17.406V16.099H394.471z"/>
	<path fill="#FFFFFF" d="M407.255,16.099l7.854,15.809l7.818-15.809h4.727v23.798h-3.706l-0.033-17.78L416.4,37.415h-2.617
		l-7.515-15.298v17.78h-3.772V16.099H407.255z"/>
	<path fill="#FFFFFF" d="M446.422,31.975v7.922h-3.978v-7.785l-8.873-16.013h4.045l6.8,11.593l6.663-11.593h4.08L446.422,31.975z"/>
</g>
</svg>
