<?xml version="1.0" encoding="utf-8"?>
<!-- Generator: Adobe Illustrator 16.0.3, SVG Export Plug-In . SVG Version: 6.00 Build 0)  -->
<!DOCTYPE svg PUBLIC "-//W3C//DTD SVG 1.1//EN" "http://www.w3.org/Graphics/SVG/1.1/DTD/svg11.dtd">
<svg version="1.1" id="Layer_1" xmlns="http://www.w3.org/2000/svg" xmlns:xlink="http://www.w3.org/1999/xlink" x="0px" y="0px"
	 width="80px" height="80px" viewBox="0 0 80 80" enable-background="new 0 0 80 80" xml:space="preserve">
<path fill="#FFFEFE" d="M17.045,18.949l2.412,2.412l8.397-8.397l0.031,0.031l-5.629,11.166l1.84,1.84l11.274-5.521l0.031,0.031
	l-8.397,8.397l2.413,2.413l10.949-10.949l-3.634-3.634l-9.681,4.608l-0.031-0.031l4.624-9.665L27.994,8L17.045,18.949z
	 M36.536,27.49c-3.51,3.511-3.263,8.243,0.155,11.66c3.417,3.418,8.149,3.666,11.66,0.155s3.264-8.243-0.155-11.661
	C44.778,24.228,40.046,23.98,36.536,27.49z M39.041,29.996c2.042-2.042,4.871-2.181,6.928-0.124
	c2.057,2.057,1.919,4.887-0.124,6.928c-2.041,2.042-4.871,2.18-6.928,0.124S37,32.037,39.041,29.996z M61.666,43.404
	c-0.108-1.748-0.974-3.264-2.211-4.5c-2.149-2.15-5.397-2.954-7.733-0.619c-3.649,3.649,2.568,7.701,0.558,9.712
	c-0.773,0.773-2.026,0.263-2.814-0.525c-0.804-0.805-1.222-1.995-1.067-3.14l-3.604,0.171c0.078,1.994,0.897,3.648,2.305,5.056
	c2.258,2.258,5.381,3.063,7.825,0.619c3.835-3.835-2.49-7.594-0.495-9.588c0.819-0.82,2.073-0.187,2.753,0.495
	c0.587,0.587,1.128,1.592,1.021,2.474L61.666,43.404z M55.515,57.418l2.412,2.413l8.815-8.815l3.124,3.125L72,52.006l-8.66-8.66
	l-2.134,2.134l3.123,3.124L55.515,57.418z M8,27.086l1.43,1.43l2.529-2.529l1.044,1.044c1.366,1.366,2.869,1.934,4.39,0.413
	c1.54-1.54,0.852-3.089-0.495-4.436l-2.41-2.41L8,27.086z M14.708,23.238l0.733,0.733c0.55,0.55,1.136,1.32,0.468,1.989
	c-0.605,0.605-1.283,0.275-1.788-0.229l-0.953-0.953L14.708,23.238z M16.668,29.267c-2.081,2.081-1.934,4.885,0.092,6.91
	c2.025,2.025,4.829,2.172,6.91,0.092c2.08-2.081,1.934-4.885-0.092-6.91C21.553,27.333,18.749,27.187,16.668,29.267z M18.153,30.751
	c1.209-1.21,2.886-1.292,4.105-0.074c1.219,1.219,1.136,2.896-0.073,4.105c-1.21,1.21-2.887,1.292-4.106,0.074
	C16.861,33.638,16.943,31.961,18.153,30.751z M21.397,40.484l1.43,1.429l2.529-2.528l1.045,1.044
	c1.365,1.365,2.868,1.934,4.389,0.413c1.54-1.54,0.853-3.089-0.495-4.436l-2.41-2.41L21.397,40.484z M28.105,36.635l0.733,0.733
	c0.55,0.55,1.136,1.319,0.467,1.988c-0.605,0.605-1.283,0.274-1.787-0.229l-0.953-0.953L28.105,36.635z M39.129,45.239l-1.43-1.43
	l-3.931,3.932c-0.797,0.797-1.952,0.852-2.704,0.101c-0.76-0.761-0.706-1.915,0.092-2.713l3.932-3.932l-1.43-1.43l-3.987,3.986
	c-1.53,1.531-1.732,3.603,0.073,5.408c1.796,1.795,3.868,1.595,5.398,0.063L39.129,45.239z M34.017,53.104l4.078,4.077l1.32-1.319
	l-2.648-2.649l5.169-5.168l-1.43-1.43L34.017,53.104z M38.215,57.302l1.576,1.577l1.916-0.834l2.521,2.52l-0.815,1.934l1.612,1.613
	L48.69,54.8l-1.183-1.182L38.215,57.302z M44.951,58.869l-1.585-1.585l2.804-1.228L44.951,58.869z M45.677,64.764l1.43,1.43
	L49.7,63.6l0.706,0.705l-1.237,3.95l1.713,1.714l1.091-4.39c1.082,0.752,2.272,0.532,3.18-0.376
	c1.512-1.512,0.853-3.088-0.477-4.417l-2.511-2.511L45.677,64.764z M52.385,60.915l0.936,0.935c0.521,0.522,1.008,1.21,0.357,1.86
	c-0.706,0.706-1.402,0.046-1.925-0.477L50.91,62.39L52.385,60.915z"/>
</svg>
