<?xml version="1.0" encoding="utf-8"?>
<!-- Generator: Adobe Illustrator 16.0.3, SVG Export Plug-In . SVG Version: 6.00 Build 0)  -->
<!DOCTYPE svg PUBLIC "-//W3C//DTD SVG 1.1//EN" "http://www.w3.org/Graphics/SVG/1.1/DTD/svg11.dtd">
<svg version="1.1" id="Layer_1" xmlns="http://www.w3.org/2000/svg" xmlns:xlink="http://www.w3.org/1999/xlink" x="0px" y="0px"
	 width="294.835px" height="40.156px" viewBox="0 0 294.835 40.156" enable-background="new 0 0 294.835 40.156"
	 xml:space="preserve">
<g id="Layer_1_1_">
	<rect fill="#FB0090" width="294.835" height="40.156"/>
	<g>
		<path fill="#FFFFFF" d="M181.606,11.344h5.651c5.508,0,10.121,2.343,10.121,8.599c0,5.531-4.518,8.502-9.613,8.502h-6.159V11.344
			L181.606,11.344z M185.375,24.966h1.957c3.502,0,6.135-1.328,6.135-5.217c0-3.357-2.682-4.927-5.869-4.927h-2.223V24.966
			L185.375,24.966z"/>
		<path fill="#FFFFFF" d="M199.53,11.344h3.769v17.102h-3.769V11.344z"/>
		<path fill="#FFFFFF" d="M204.675,11.344h4.301l4.229,11.208h0.047l4.301-11.208h4.033l-7.053,17.102h-3.021L204.675,11.344z"/>
		<path fill="#FFFFFF" d="M223.156,11.344h11.619v3.479h-7.852v3.188h7.416v3.479h-7.416v3.479h8.285v3.479h-12.053V11.344
			L223.156,11.344z"/>
		<path fill="#FFFFFF" d="M237.819,11.344h3.769v17.102h-3.769V11.344z"/>
		<path fill="#FFFFFF" d="M244.656,11.344h5.121l7.271,11.884h0.048V11.344h3.769v17.102h-4.928l-7.464-12.174h-0.05v12.174h-3.768
			V11.344z"/>
	</g>
	<g>
		<path fill="#FFFFFF" d="M25.919,11.111h1.574L34.391,27.5h-1.713l-1.782-4.352h-8.68L20.363,27.5h-1.597L25.919,11.111z
			 M26.636,12.778l-3.819,8.981h7.523L26.636,12.778z"/>
		<path fill="#FFFFFF" d="M36.41,11.111h4.722c2.315,0,5.278,0.903,5.278,4.329c0,2.963-2.361,4.283-4.931,4.283h-3.542V27.5H36.41
			V11.111z M37.938,18.333h3.472c1.736,0,3.472-0.741,3.472-2.894c0-2.106-1.806-2.939-3.564-2.939h-3.38V18.333z"/>
		<path fill="#FFFFFF" d="M49.353,11.111h4.722c2.315,0,5.278,0.903,5.278,4.329c0,2.963-2.361,4.283-4.931,4.283H50.88V27.5h-1.528
			L49.353,11.111L49.353,11.111z M50.88,18.333h3.472c1.736,0,3.472-0.741,3.472-2.894c0-2.106-1.806-2.939-3.564-2.939h-3.38
			V18.333z"/>
		<path fill="#FFFFFF" d="M62.296,11.111h1.528v15h7.639V27.5h-9.167V11.111z"/>
		<path fill="#FFFFFF" d="M74.591,20.44l-6.018-9.329h1.829l4.954,7.778l5.069-7.778h1.713l-6.019,9.329v7.06h-1.528V20.44z"/>
		<path fill="#FFFFFF" d="M108.74,24.931c-1.551,2.129-3.68,2.986-6.088,2.986c-5,0-8.472-3.611-8.472-8.611
			s3.472-8.611,8.472-8.611c2.222,0,4.213,0.741,5.648,2.569l-1.25,1.042c-1.019-1.527-2.755-2.222-4.398-2.222
			c-4.282,0-6.944,3.148-6.944,7.222s2.662,7.222,6.944,7.222c1.644,0,3.681-0.786,4.838-2.546L108.74,24.931z"/>
		<path fill="#FFFFFF" d="M118.605,10.695c5,0,8.472,3.611,8.472,8.611s-3.472,8.611-8.472,8.611s-8.472-3.611-8.472-8.611
			S113.606,10.695,118.605,10.695z M118.605,26.528c4.283,0,6.944-3.147,6.944-7.222s-2.662-7.222-6.944-7.222
			c-4.282,0-6.944,3.148-6.944,7.222C111.662,23.38,114.323,26.528,118.605,26.528z"/>
		<path fill="#FFFFFF" d="M129.954,11.111h5.069c8.518,0,8.865,6.991,8.865,8.194c0,1.203-0.347,8.194-8.865,8.194h-5.069V11.111z
			 M131.482,26.111h3.148c4.352,0,7.731-2.105,7.731-6.806c0-4.699-3.379-6.805-7.731-6.805h-3.148V26.111z"/>
		<path fill="#FFFFFF" d="M146.973,11.111h10.022V12.5H148.5v5.833h7.963v1.389H148.5v6.389h8.867V27.5h-10.395L146.973,11.111
			L146.973,11.111z"/>
		<path fill="#FFFFFF" d="M161.121,16.667c0.625,0,1.11,0.486,1.11,1.111s-0.485,1.111-1.11,1.111s-1.111-0.486-1.111-1.111
			S160.496,16.667,161.121,16.667z M161.121,25.417c0.625,0,1.11,0.485,1.11,1.11s-0.485,1.111-1.11,1.111s-1.111-0.486-1.111-1.111
			S160.496,25.417,161.121,25.417z"/>
	</g>
</g>
<g id="Layer_3" display="none">
	<rect display="inline" fill="#40D31C" width="294.835" height="40.156"/>
	<g display="inline">
		<path fill="#FFFFFF" d="M182.606,11.344h5.651c5.508,0,10.121,2.343,10.121,8.599c0,5.531-4.518,8.502-9.613,8.502h-6.159V11.344
			L182.606,11.344z M186.375,24.966h1.957c3.502,0,6.135-1.328,6.135-5.217c0-3.357-2.682-4.927-5.869-4.927h-2.223V24.966
			L186.375,24.966z"/>
		<path fill="#FFFFFF" d="M200.53,11.344h3.769v17.102h-3.769V11.344z"/>
		<path fill="#FFFFFF" d="M205.675,11.344h4.301l4.229,11.208h0.047l4.301-11.208h4.033l-7.053,17.102h-3.021L205.675,11.344z"/>
		<path fill="#FFFFFF" d="M224.156,11.344h11.619v3.479h-7.852v3.188h7.416v3.479h-7.416v3.479h8.285v3.479h-12.053V11.344
			L224.156,11.344z"/>
		<path fill="#FFFFFF" d="M238.819,11.344h3.769v17.102h-3.769V11.344z"/>
		<path fill="#FFFFFF" d="M245.656,11.344h5.121l7.271,11.884h0.048V11.344h3.769v17.102h-4.928l-7.464-12.174h-0.05v12.174h-3.768
			V11.344z"/>
	</g>
	<g display="inline">
		<path fill="#FFFFFF" d="M24.48,24.931c-1.551,2.129-3.68,2.986-6.088,2.986c-5,0-8.472-3.611-8.472-8.611s3.472-8.611,8.472-8.611
			c2.222,0,4.213,0.741,5.648,2.569l-1.25,1.042c-1.019-1.527-2.755-2.222-4.398-2.222c-4.282,0-6.944,3.148-6.944,7.222
			s2.662,7.222,6.944,7.222c1.644,0,3.681-0.786,4.838-2.546L24.48,24.931z"/>
		<path fill="#FFFFFF" d="M34.346,10.695c5,0,8.472,3.611,8.472,8.611s-3.472,8.611-8.472,8.611s-8.472-3.611-8.472-8.611
			S29.347,10.695,34.346,10.695z M34.346,26.528c4.283,0,6.944-3.147,6.944-7.222s-2.662-7.222-6.944-7.222
			c-4.282,0-6.944,3.148-6.944,7.222S30.064,26.528,34.346,26.528z"/>
		<path fill="#FFFFFF" d="M45.695,11.111h5.069c8.518,0,8.865,6.991,8.865,8.194c0,1.203-0.347,8.194-8.865,8.194h-5.069V11.111z
			 M47.223,26.111h3.148c4.352,0,7.731-2.105,7.731-6.806c0-4.699-3.38-6.805-7.731-6.805h-3.148V26.111z"/>
		<path fill="#FFFFFF" d="M62.713,11.111h10.023V12.5h-8.495v5.833h7.963v1.389h-7.963v6.389h8.866V27.5H62.713V11.111z"/>
		<path fill="#FFFFFF" d="M86.793,11.111h1.574L95.265,27.5h-1.713l-1.782-4.352h-8.68L81.237,27.5H79.64L86.793,11.111z
			 M87.51,12.778l-3.819,8.981h7.523L87.51,12.778z"/>
		<path fill="#FFFFFF" d="M97.283,11.111h4.722c2.315,0,5.278,0.903,5.278,4.329c0,2.963-2.361,4.283-4.931,4.283H98.81V27.5h-1.528
			L97.283,11.111L97.283,11.111z M98.811,18.333h3.472c1.736,0,3.472-0.741,3.472-2.894c0-2.106-1.806-2.939-3.564-2.939h-3.38
			V18.333z"/>
		<path fill="#FFFFFF" d="M110.227,11.111h4.722c2.315,0,5.278,0.903,5.278,4.329c0,2.963-2.361,4.283-4.931,4.283h-3.542V27.5
			h-1.528L110.227,11.111L110.227,11.111z M111.755,18.333h3.472c1.736,0,3.472-0.741,3.472-2.894c0-2.106-1.806-2.939-3.564-2.939
			h-3.38V18.333z"/>
		<path fill="#FFFFFF" d="M123.17,11.111h1.528v15h7.639V27.5h-9.167V11.111L123.17,11.111z"/>
		<path fill="#FFFFFF" d="M134.4,11.111h1.528V27.5H134.4V11.111z"/>
		<path fill="#FFFFFF" d="M140.073,11.111h10.023V12.5h-8.495v5.833h7.963v1.389h-7.963v6.389h8.865V27.5h-10.393V11.111z"/>
		<path fill="#FFFFFF" d="M153.25,11.111h5.068c8.518,0,8.865,6.991,8.865,8.194c0,1.203-0.348,8.194-8.865,8.194h-5.068V11.111z
			 M154.776,26.111h3.147c4.353,0,7.731-2.105,7.731-6.806c0-4.699-3.38-6.805-7.731-6.805h-3.147V26.111z"/>
		<path fill="#FFFFFF" d="M171.031,16.667c0.625,0,1.111,0.486,1.111,1.111s-0.486,1.111-1.111,1.111s-1.111-0.486-1.111-1.111
			S170.406,16.667,171.031,16.667z M171.031,25.417c0.625,0,1.111,0.485,1.111,1.11s-0.486,1.111-1.111,1.111
			s-1.111-0.486-1.111-1.111S170.406,25.417,171.031,25.417z"/>
	</g>
	<g display="inline">
		<polygon fill="#FFFFFF" points="284.25,12.883 276.662,22.268 271.207,17.805 269.101,20.377 274.57,24.856 277.144,26.96 
			279.235,24.375 286.835,14.975 		"/>
	</g>
</g>
</svg>
