<?xml version="1.0" encoding="utf-8"?>
<!-- Generator: Adobe Illustrator 16.0.3, SVG Export Plug-In . SVG Version: 6.00 Build 0)  -->
<!DOCTYPE svg PUBLIC "-//W3C//DTD SVG 1.1//EN" "http://www.w3.org/Graphics/SVG/1.1/DTD/svg11.dtd">
<svg version="1.1" id="Layer_1" xmlns="http://www.w3.org/2000/svg" xmlns:xlink="http://www.w3.org/1999/xlink" x="0px" y="0px"
	 width="351.625px" height="40.155px" viewBox="0 0 351.625 40.155" enable-background="new 0 0 351.625 40.155"
	 xml:space="preserve">
<rect width="351.625" height="40.155"/>
<g>
	<path fill="#FFFFFF" d="M175.636,11.344h4.105l2.729,10.966h0.049l3.575-10.966h3.502l3.551,11.256h0.048l2.875-11.256h3.816
		l-5,17.102h-3.357l-3.769-11.836h-0.048l-3.769,11.836h-3.236L175.636,11.344z"/>
	<path fill="#FFFFFF" d="M201.362,11.344h11.619v3.479h-7.851v3.188h7.415v3.479h-7.415v3.479h8.285v3.478h-12.054V11.344z"/>
	<path fill="#FFFFFF" d="M216.219,11.344h11.619v3.479h-7.851v3.188h7.415v3.479h-7.415v3.479h8.285v3.478h-12.054V11.344z"/>
	<path fill="#FFFFFF" d="M231.075,11.344h3.769v7.102l6.643-7.102h4.928l-7.609,7.947l8.261,9.155H241.8l-6.956-8.116v8.116h-3.769
		V11.344z"/>
	<path fill="#FFFFFF" d="M248.154,11.344h11.619v3.479h-7.851v3.188h7.415v3.479h-7.415v3.479h8.285v3.478h-12.054V11.344z"/>
	<path fill="#FFFFFF" d="M262.866,11.344h5.121l7.271,11.884h0.048V11.344h3.769v17.102h-4.928l-7.464-12.174h-0.049v12.174h-3.768
		V11.344z"/>
	<path fill="#FFFFFF" d="M282.192,11.344h5.652c5.507,0,10.12,2.343,10.12,8.599c0,5.531-4.517,8.502-9.613,8.502h-6.159V11.344z
		 M285.96,24.967h1.957c3.502,0,6.135-1.329,6.135-5.218c0-3.357-2.681-4.927-5.869-4.927h-2.223V24.967z"/>
</g>
<g>
	<path fill="#FFFFFF" d="M25.919,11.111h1.574L34.391,27.5h-1.713l-1.782-4.352h-8.68L20.363,27.5h-1.597L25.919,11.111z
		 M26.636,12.778l-3.819,8.981h7.523L26.636,12.778z"/>
	<path fill="#FFFFFF" d="M36.409,11.111h4.722c2.315,0,5.278,0.903,5.278,4.329c0,2.963-2.361,4.283-4.931,4.283h-3.542V27.5h-1.528
		V11.111z M37.937,18.333h3.472c1.736,0,3.472-0.741,3.472-2.894c0-2.106-1.806-2.939-3.564-2.939h-3.38V18.333z"/>
	<path fill="#FFFFFF" d="M49.353,11.111h4.722c2.315,0,5.278,0.903,5.278,4.329c0,2.963-2.361,4.283-4.931,4.283H50.88V27.5h-1.528
		V11.111z M50.88,18.333h3.472c1.736,0,3.472-0.741,3.472-2.894c0-2.106-1.806-2.939-3.564-2.939h-3.38V18.333z"/>
	<path fill="#FFFFFF" d="M62.296,11.111h1.528v15h7.639V27.5h-9.167V11.111z"/>
	<path fill="#FFFFFF" d="M74.591,20.44l-6.018-9.329h1.829l4.954,7.778l5.069-7.778h1.713l-6.019,9.329v7.06h-1.528V20.44z"/>
	<path fill="#FFFFFF" d="M108.741,24.931c-1.551,2.129-3.68,2.986-6.088,2.986c-5,0-8.472-3.611-8.472-8.611
		s3.472-8.611,8.472-8.611c2.222,0,4.213,0.741,5.648,2.569l-1.25,1.042c-1.019-1.527-2.755-2.222-4.398-2.222
		c-4.282,0-6.944,3.148-6.944,7.222c0,4.074,2.662,7.222,6.944,7.222c1.644,0,3.681-0.787,4.838-2.546L108.741,24.931z"/>
	<path fill="#FFFFFF" d="M118.606,10.695c5,0,8.472,3.611,8.472,8.611s-3.472,8.611-8.472,8.611c-5,0-8.472-3.611-8.472-8.611
		S113.607,10.695,118.606,10.695z M118.606,26.528c4.283,0,6.944-3.148,6.944-7.222c0-4.074-2.662-7.222-6.944-7.222
		c-4.282,0-6.944,3.148-6.944,7.222C111.663,23.38,114.324,26.528,118.606,26.528z"/>
	<path fill="#FFFFFF" d="M129.955,11.111h5.069c8.518,0,8.865,6.991,8.865,8.194s-0.347,8.194-8.865,8.194h-5.069V11.111z
		 M131.483,26.111h3.148c4.352,0,7.731-2.106,7.731-6.806c0-4.699-3.379-6.805-7.731-6.805h-3.148V26.111z"/>
	<path fill="#FFFFFF" d="M146.974,11.111h10.023V12.5h-8.495v5.833h7.963v1.389h-7.963v6.389h8.866V27.5h-10.394V11.111z"/>
	<path fill="#FFFFFF" d="M161.121,16.667c0.625,0,1.111,0.486,1.111,1.111s-0.486,1.111-1.111,1.111s-1.111-0.486-1.111-1.111
		S160.496,16.667,161.121,16.667z M161.121,25.417c0.625,0,1.111,0.486,1.111,1.111s-0.486,1.111-1.111,1.111
		s-1.111-0.486-1.111-1.111S160.496,25.417,161.121,25.417z"/>
</g>
<g>
	<polygon fill="#FF0000" points="321.74,9.646 321.907,8.159 320.471,8.159 320.639,9.646 	"/>
	<polygon fill="#FF0000" points="325.203,8.782 323.815,8.41 323.593,9.89 324.656,10.175 	"/>
	<polygon fill="#FF0000" points="318.755,9.897 318.527,8.417 317.141,8.793 317.691,10.185 	"/>
	<polygon fill="#FF0000" points="315.938,10.92 315.332,9.551 314.092,10.276 314.988,11.476 	"/>
	<polygon fill="#FF0000" points="313.488,12.643 312.545,11.48 311.537,12.504 312.716,13.428 	"/>
	<polygon fill="#FF0000" points="311.573,14.948 310.359,14.072 309.654,15.324 311.033,15.907 	"/>
	<polygon fill="#FF0000" points="310.328,17.672 308.927,17.145 308.574,18.538 310.058,18.74 	"/>
	<polygon fill="#FF0000" points="309.838,20.628 308.348,20.485 308.372,21.921 309.856,21.729 	"/>
	<polygon fill="#FF0000" points="310.139,23.609 308.662,23.86 309.062,25.241 310.443,24.667 	"/>
	<polygon fill="#FF0000" points="309.849,27.037 310.595,28.264 311.779,27.349 311.208,26.408 	"/>
	<polygon fill="#FF0000" points="311.824,29.792 312.865,30.782 313.77,29.588 312.972,28.829 	"/>
	<polygon fill="#FF0000" points="314.451,31.934 315.715,32.618 316.275,31.229 315.308,30.706 	"/>
	<polygon fill="#FF0000" points="317.548,33.315 318.946,33.645 319.124,32.158 318.053,31.906 	"/>
	<polygon fill="#FF0000" points="321.016,32.346 320.897,33.838 322.333,33.791 322.116,32.31 	"/>
	<polygon fill="#FF0000" points="323.991,31.997 324.268,33.468 325.641,33.046 325.044,31.673 	"/>
	<path fill="#FF0000" d="M333.321,25.098c0.446-1.315,0.673-2.692,0.673-4.108c0-2.438-0.688-4.809-1.99-6.858
		c-1.267-1.993-3.054-3.597-5.169-4.637c-0.073-0.037-0.148-0.072-0.224-0.107l-0.568,1.315c0.054,0.025,0.106,0.051,0.159,0.077
		c3.923,1.93,6.358,5.842,6.358,10.209c0,1.153-0.169,2.277-0.502,3.356l-1.82-1.084l-0.218,3.107l-0.225,3.126l3.051-1.44
		l2.805-1.568L333.321,25.098z"/>
	<polygon fill="#FF0000" points="325.396,8.893 325.375,8.95 325.396,8.894 	"/>
	<path fill="#FF0000" d="M321.907,19.267v-6.568h-1.437v6.568c-0.674,0.281-1.148,0.947-1.148,1.723
		c0,0.384,0.116,0.741,0.315,1.037L316,27.497l1.196,0.795l3.638-5.469c0.115,0.022,0.233,0.034,0.355,0.034
		c1.031,0,1.866-0.835,1.866-1.867C323.056,20.214,322.582,19.548,321.907,19.267z"/>
</g>
<g>
</g>
<g>
</g>
<g>
</g>
<g>
</g>
<g>
</g>
<g>
</g>
</svg>
