<?xml version="1.0" encoding="utf-8"?>
<!-- Generator: Adobe Illustrator 16.0.3, SVG Export Plug-In . SVG Version: 6.00 Build 0)  -->
<!DOCTYPE svg PUBLIC "-//W3C//DTD SVG 1.1//EN" "http://www.w3.org/Graphics/SVG/1.1/DTD/svg11.dtd">
<svg version="1.1" xmlns="http://www.w3.org/2000/svg" xmlns:xlink="http://www.w3.org/1999/xlink" x="0px" y="0px"
	 width="351.625px" height="40.155px" viewBox="0 0 351.625 40.155" enable-background="new 0 0 351.625 40.155"
	 xml:space="preserve">
<g id="Layer_1" display="none">
	<rect display="inline" fill="#FF0069" width="351.625" height="40.155"/>
	<g display="inline">
		<path fill="#FFFFFF" d="M179.103,11.344h4.105l2.729,10.966h0.049l3.575-10.966h3.502l3.551,11.256h0.048l2.875-11.256h3.816
			l-5,17.102h-3.357l-3.769-11.836h-0.048l-3.769,11.836h-3.236L179.103,11.344z"/>
		<path fill="#FFFFFF" d="M204.829,11.344h11.619v3.479h-7.851v3.188h7.415v3.479h-7.415v3.479h8.285v3.478h-12.054V11.344z"/>
		<path fill="#FFFFFF" d="M219.541,11.344h5.652c5.507,0,10.12,2.343,10.12,8.599c0,5.531-4.517,8.502-9.613,8.502h-6.159V11.344z
			 M223.309,24.967h1.957c3.502,0,6.135-1.329,6.135-5.218c0-3.357-2.681-4.927-5.869-4.927h-2.223V24.967z"/>
		<path fill="#FFFFFF" d="M237.515,11.344h5.652c5.507,0,10.12,2.343,10.12,8.599c0,5.531-4.517,8.502-9.613,8.502h-6.159V11.344z
			 M241.282,24.967h1.957c3.502,0,6.135-1.329,6.135-5.218c0-3.357-2.681-4.927-5.869-4.927h-2.223V24.967z"/>
		<path fill="#FFFFFF" d="M255.438,11.344h3.769v17.102h-3.769V11.344z"/>
		<path fill="#FFFFFF" d="M262.275,11.344h5.121l7.271,11.884h0.048V11.344h3.769v17.102h-4.928l-7.464-12.174h-0.049v12.174h-3.768
			V11.344z"/>
		<path fill="#FFFFFF" d="M297.084,27.238c-2.223,1.159-4.662,1.642-7.174,1.642c-5.339,0-9.228-3.502-9.228-8.985
			s3.889-8.985,9.228-8.985c2.705,0,5.096,0.604,6.812,2.198l-2.657,2.899c-1.015-1.063-2.246-1.619-4.154-1.619
			c-3.213,0-5.314,2.319-5.314,5.507s2.102,5.507,5.314,5.507c1.642,0,2.85-0.459,3.55-0.845v-2.778h-3.067V18.3h6.691V27.238z"/>
		<path fill="#FFFFFF" d="M299.478,24.604l6.643-5.966c0.677-0.628,1.521-1.353,1.521-2.392c0-1.159-0.99-1.86-2.102-1.86
			c-1.328,0-2.125,0.942-2.222,2.174l-3.623-0.266c0.217-3.526,2.681-5.241,6.038-5.241c3.116,0,5.531,1.715,5.531,5.145
			c0,2.198-0.941,3.454-2.246,4.589l-5.193,4.469h7.585v3.188h-11.933V24.604z"/>
		<path fill="#FFFFFF" d="M319.189,15.402l-3.431,3.019l-2.053-2.367l5.579-4.71h3.382v17.102h-3.478V15.402z"/>
	</g>
	<g display="inline">
		<path fill="#FFFFFF" d="M31.919,12.111h1.574L40.391,28.5h-1.713l-1.782-4.352h-8.68L26.363,28.5h-1.597L31.919,12.111z
			 M32.636,13.778l-3.819,8.981h7.523L32.636,13.778z"/>
		<path fill="#FFFFFF" d="M42.409,12.111h4.722c2.315,0,5.278,0.903,5.278,4.329c0,2.963-2.361,4.283-4.931,4.283h-3.542V28.5
			h-1.528V12.111z M43.937,19.333h3.472c1.736,0,3.472-0.741,3.472-2.894c0-2.106-1.806-2.939-3.564-2.939h-3.38V19.333z"/>
		<path fill="#FFFFFF" d="M55.353,12.111h4.722c2.315,0,5.278,0.903,5.278,4.329c0,2.963-2.361,4.283-4.931,4.283H56.88V28.5h-1.528
			V12.111z M56.88,19.333h3.472c1.736,0,3.472-0.741,3.472-2.894c0-2.106-1.806-2.939-3.564-2.939h-3.38V19.333z"/>
		<path fill="#FFFFFF" d="M68.296,12.111h1.528v15h7.639V28.5h-9.167V12.111z"/>
		<path fill="#FFFFFF" d="M80.591,21.44l-6.018-9.329h1.829l4.954,7.778l5.069-7.778h1.713l-6.019,9.329v7.06h-1.528V21.44z"/>
		<path fill="#FFFFFF" d="M114.741,25.931c-1.551,2.129-3.68,2.986-6.088,2.986c-5,0-8.472-3.611-8.472-8.611
			s3.472-8.611,8.472-8.611c2.222,0,4.213,0.741,5.648,2.569l-1.25,1.042c-1.019-1.527-2.755-2.222-4.398-2.222
			c-4.282,0-6.944,3.148-6.944,7.222c0,4.074,2.662,7.222,6.944,7.222c1.644,0,3.681-0.787,4.838-2.546L114.741,25.931z"/>
		<path fill="#FFFFFF" d="M124.606,11.695c5,0,8.472,3.611,8.472,8.611s-3.472,8.611-8.472,8.611c-5,0-8.472-3.611-8.472-8.611
			S119.607,11.695,124.606,11.695z M124.606,27.528c4.283,0,6.944-3.148,6.944-7.222c0-4.074-2.662-7.222-6.944-7.222
			c-4.282,0-6.944,3.148-6.944,7.222C117.663,24.38,120.324,27.528,124.606,27.528z"/>
		<path fill="#FFFFFF" d="M135.955,12.111h5.069c8.518,0,8.865,6.991,8.865,8.194s-0.347,8.194-8.865,8.194h-5.069V12.111z
			 M137.483,27.111h3.148c4.352,0,7.731-2.106,7.731-6.806c0-4.699-3.379-6.805-7.731-6.805h-3.148V27.111z"/>
		<path fill="#FFFFFF" d="M152.974,12.111h10.023V13.5h-8.495v5.833h7.963v1.389h-7.963v6.389h8.866V28.5h-10.394V12.111z"/>
		<path fill="#FFFFFF" d="M167.121,17.667c0.625,0,1.111,0.486,1.111,1.111s-0.486,1.111-1.111,1.111s-1.111-0.486-1.111-1.111
			S166.496,17.667,167.121,17.667z M167.121,26.417c0.625,0,1.111,0.486,1.111,1.111s-0.486,1.111-1.111,1.111
			s-1.111-0.486-1.111-1.111S166.496,26.417,167.121,26.417z"/>
	</g>
</g>
<g id="Layer_5">
	<rect fill="#40D31C" width="351.625" height="40.155"/>
	<g>
		<path fill="#FFFFFF" d="M178.496,11.344h4.105l2.729,10.966h0.049l3.575-10.966h3.502l3.551,11.256h0.048l2.875-11.256h3.816
			l-5,17.102h-3.357l-3.769-11.836h-0.048l-3.769,11.836h-3.236L178.496,11.344z"/>
		<path fill="#FFFFFF" d="M204.223,11.344h11.619v3.479h-7.851v3.188h7.415v3.479h-7.415v3.479h8.285v3.478h-12.054V11.344z"/>
		<path fill="#FFFFFF" d="M218.935,11.344h5.652c5.507,0,10.12,2.343,10.12,8.599c0,5.531-4.517,8.502-9.613,8.502h-6.159V11.344z
			 M222.702,24.967h1.957c3.502,0,6.135-1.329,6.135-5.218c0-3.357-2.681-4.927-5.869-4.927h-2.223V24.967z"/>
		<path fill="#FFFFFF" d="M236.907,11.344h5.652c5.507,0,10.12,2.343,10.12,8.599c0,5.531-4.517,8.502-9.613,8.502h-6.159V11.344z
			 M240.675,24.967h1.957c3.502,0,6.135-1.329,6.135-5.218c0-3.357-2.681-4.927-5.869-4.927h-2.223V24.967z"/>
		<path fill="#FFFFFF" d="M254.832,11.344h3.769v17.102h-3.769V11.344z"/>
		<path fill="#FFFFFF" d="M261.669,11.344h5.121l7.271,11.884h0.048V11.344h3.769v17.102h-4.928l-7.464-12.174h-0.049v12.174h-3.768
			V11.344z"/>
		<path fill="#FFFFFF" d="M296.478,27.238c-2.223,1.159-4.662,1.642-7.175,1.642c-5.338,0-9.227-3.502-9.227-8.985
			s3.889-8.985,9.227-8.985c2.706,0,5.097,0.604,6.813,2.198l-2.657,2.899c-1.015-1.063-2.246-1.619-4.155-1.619
			c-3.212,0-5.313,2.319-5.313,5.507s2.102,5.507,5.313,5.507c1.643,0,2.851-0.459,3.551-0.845v-2.778h-3.067V18.3h6.691V27.238z"/>
		<path fill="#FFFFFF" d="M298.871,24.604l6.643-5.966c0.676-0.628,1.521-1.353,1.521-2.392c0-1.159-0.99-1.86-2.102-1.86
			c-1.328,0-2.125,0.942-2.222,2.174l-3.623-0.266c0.217-3.526,2.681-5.241,6.038-5.241c3.116,0,5.531,1.715,5.531,5.145
			c0,2.198-0.941,3.454-2.246,4.589l-5.193,4.469h7.585v3.188h-11.933V24.604z"/>
		<path fill="#FFFFFF" d="M318.582,15.402l-3.43,3.019l-2.053-2.367l5.579-4.71h3.382v17.102h-3.479V15.402z"/>
	</g>
	<g>
		<polygon fill="#FFFFFF" points="344.249,14.039 336.661,23.423 331.207,18.959 329.101,21.533 334.57,26.01 337.144,28.117 
			339.235,25.53 346.835,16.129 		"/>
	</g>
	<g>
		<path fill="#FFFFFF" d="M25.48,25.931c-1.551,2.129-3.68,2.986-6.088,2.986c-5,0-8.472-3.611-8.472-8.611s3.472-8.611,8.472-8.611
			c2.222,0,4.213,0.741,5.648,2.569l-1.25,1.042c-1.019-1.527-2.755-2.222-4.398-2.222c-4.282,0-6.944,3.148-6.944,7.222
			c0,4.074,2.662,7.222,6.944,7.222c1.644,0,3.681-0.787,4.838-2.546L25.48,25.931z"/>
		<path fill="#FFFFFF" d="M35.346,11.695c5,0,8.472,3.611,8.472,8.611s-3.472,8.611-8.472,8.611c-5,0-8.472-3.611-8.472-8.611
			S30.347,11.695,35.346,11.695z M35.346,27.528c4.283,0,6.944-3.148,6.944-7.222c0-4.074-2.662-7.222-6.944-7.222
			c-4.282,0-6.944,3.148-6.944,7.222C28.402,24.38,31.064,27.528,35.346,27.528z"/>
		<path fill="#FFFFFF" d="M46.695,12.111h5.069c8.518,0,8.865,6.991,8.865,8.194S60.282,28.5,51.764,28.5h-5.069V12.111z
			 M48.223,27.111h3.148c4.352,0,7.731-2.106,7.731-6.806c0-4.699-3.38-6.805-7.731-6.805h-3.148V27.111z"/>
		<path fill="#FFFFFF" d="M63.713,12.111h10.023V13.5h-8.495v5.833h7.963v1.389h-7.963v6.389h8.866V28.5H63.713V12.111z"/>
		<path fill="#FFFFFF" d="M87.793,12.111h1.574L96.265,28.5h-1.713l-1.782-4.352h-8.68L82.237,28.5H80.64L87.793,12.111z
			 M88.51,13.778l-3.819,8.981h7.523L88.51,13.778z"/>
		<path fill="#FFFFFF" d="M98.283,12.111h4.722c2.315,0,5.278,0.903,5.278,4.329c0,2.963-2.361,4.283-4.931,4.283h-3.542V28.5
			h-1.528V12.111z M99.811,19.333h3.472c1.736,0,3.472-0.741,3.472-2.894c0-2.106-1.806-2.939-3.564-2.939h-3.38V19.333z"/>
		<path fill="#FFFFFF" d="M111.227,12.111h4.722c2.315,0,5.278,0.903,5.278,4.329c0,2.963-2.361,4.283-4.931,4.283h-3.542V28.5
			h-1.528V12.111z M112.755,19.333h3.472c1.736,0,3.472-0.741,3.472-2.894c0-2.106-1.806-2.939-3.564-2.939h-3.38V19.333z"/>
		<path fill="#FFFFFF" d="M124.17,12.111h1.528v15h7.639V28.5h-9.167V12.111z"/>
		<path fill="#FFFFFF" d="M135.4,12.111h1.528V28.5H135.4V12.111z"/>
		<path fill="#FFFFFF" d="M141.073,12.111h10.023V13.5h-8.495v5.833h7.963v1.389h-7.963v6.389h8.866V28.5h-10.394V12.111z"/>
		<path fill="#FFFFFF" d="M154.249,12.111h5.069c8.518,0,8.865,6.991,8.865,8.194s-0.347,8.194-8.865,8.194h-5.069V12.111z
			 M155.776,27.111h3.148c4.352,0,7.731-2.106,7.731-6.806c0-4.699-3.38-6.805-7.731-6.805h-3.148V27.111z"/>
		<path fill="#FFFFFF" d="M172.031,17.667c0.625,0,1.111,0.486,1.111,1.111s-0.486,1.111-1.111,1.111s-1.111-0.486-1.111-1.111
			S171.406,17.667,172.031,17.667z M172.031,26.417c0.625,0,1.111,0.486,1.111,1.111s-0.486,1.111-1.111,1.111
			s-1.111-0.486-1.111-1.111S171.406,26.417,172.031,26.417z"/>
	</g>
	<g>
	</g>
	<g>
	</g>
	<g>
	</g>
	<g>
	</g>
	<g>
	</g>
	<g>
	</g>
</g>
</svg>
