<?xml version="1.0" encoding="utf-8"?>
<!-- Generator: Adobe Illustrator 16.0.3, SVG Export Plug-In . SVG Version: 6.00 Build 0)  -->
<!DOCTYPE svg PUBLIC "-//W3C//DTD SVG 1.1//EN" "http://www.w3.org/Graphics/SVG/1.1/DTD/svg11.dtd">
<svg version="1.1" xmlns="http://www.w3.org/2000/svg" xmlns:xlink="http://www.w3.org/1999/xlink" x="0px" y="0px"
	 width="351.625px" height="40.155px" viewBox="0 0 351.625 40.155" enable-background="new 0 0 351.625 40.155"
	 xml:space="preserve">
<g id="Layer_1">
	<rect fill="#FF0069" width="351.625" height="40.155"/>
	<g>
		<path fill="#FFFFFF" d="M172.012,11.344h3.768v6.377h7.319v-6.377h3.769v17.102h-3.769v-7.391h-7.319v7.391h-3.768V11.344z"/>
		<path fill="#FFFFFF" d="M195.612,11.344h3.116l7.439,17.102h-4.251l-1.474-3.623h-6.643l-1.425,3.623h-4.155L195.612,11.344z
			 M197.062,16.32l-2.077,5.314h4.179L197.062,16.32z"/>
		<path fill="#FFFFFF" d="M207.522,11.344h6.353c3.551,0,6.498,1.135,6.498,5.193c0,4.01-2.729,5.242-6.329,5.242h-2.754v6.667
			h-3.768V11.344z M211.29,18.59h2.513c1.328,0,2.657-0.459,2.657-2.053c0-1.763-1.788-2.005-3.237-2.005h-1.933V18.59z"/>
		<path fill="#FFFFFF" d="M222.379,11.344h6.353c3.551,0,6.498,1.135,6.498,5.193c0,4.01-2.729,5.242-6.329,5.242h-2.754v6.667
			h-3.768V11.344z M226.146,18.59h2.513c1.328,0,2.657-0.459,2.657-2.053c0-1.763-1.788-2.005-3.237-2.005h-1.933V18.59z"/>
		<path fill="#FFFFFF" d="M241.439,21.15l-6.426-9.807h4.687l3.623,6.401l3.841-6.401h4.469l-6.426,9.807v7.295h-3.768V21.15z"/>
		<path fill="#FFFFFF" d="M252.527,11.344h5.7l3.938,11.16h0.048l3.962-11.16h5.676v17.102h-3.768V15.329h-0.049l-4.492,13.116
			h-2.875l-4.323-13.116h-0.049v13.116h-3.768V11.344z"/>
		<path fill="#FFFFFF" d="M280.598,11.344h3.116l7.439,17.102h-4.251l-1.474-3.623h-6.643l-1.425,3.623h-4.155L280.598,11.344z
			 M282.047,16.32l-2.077,5.314h4.179L282.047,16.32z"/>
		<path fill="#FFFFFF" d="M294.488,21.15l-6.426-9.807h4.687l3.623,6.401l3.841-6.401h4.469l-6.426,9.807v7.295h-3.768V21.15z"/>
	</g>
	<g>
		<path fill="#FFFFFF" d="M25.919,11.111h1.574L34.391,27.5h-1.713l-1.782-4.352h-8.68L20.363,27.5h-1.597L25.919,11.111z
			 M26.636,12.778l-3.819,8.981h7.523L26.636,12.778z"/>
		<path fill="#FFFFFF" d="M36.409,11.111h4.722c2.315,0,5.278,0.903,5.278,4.329c0,2.963-2.361,4.283-4.931,4.283h-3.542V27.5
			h-1.528V11.111z M37.937,18.333h3.472c1.736,0,3.472-0.741,3.472-2.894c0-2.106-1.806-2.939-3.564-2.939h-3.38V18.333z"/>
		<path fill="#FFFFFF" d="M49.353,11.111h4.722c2.315,0,5.278,0.903,5.278,4.329c0,2.963-2.361,4.283-4.931,4.283H50.88V27.5h-1.528
			V11.111z M50.88,18.333h3.472c1.736,0,3.472-0.741,3.472-2.894c0-2.106-1.806-2.939-3.564-2.939h-3.38V18.333z"/>
		<path fill="#FFFFFF" d="M62.296,11.111h1.528v15h7.639V27.5h-9.167V11.111z"/>
		<path fill="#FFFFFF" d="M74.591,20.44l-6.018-9.329h1.829l4.954,7.778l5.069-7.778h1.713l-6.019,9.329v7.06h-1.528V20.44z"/>
		<path fill="#FFFFFF" d="M108.741,24.931c-1.551,2.129-3.68,2.986-6.088,2.986c-5,0-8.472-3.611-8.472-8.611
			s3.472-8.611,8.472-8.611c2.222,0,4.213,0.741,5.648,2.569l-1.25,1.042c-1.019-1.527-2.755-2.222-4.398-2.222
			c-4.282,0-6.944,3.148-6.944,7.222c0,4.074,2.662,7.222,6.944,7.222c1.644,0,3.681-0.787,4.838-2.546L108.741,24.931z"/>
		<path fill="#FFFFFF" d="M118.606,10.695c5,0,8.472,3.611,8.472,8.611s-3.472,8.611-8.472,8.611c-5,0-8.472-3.611-8.472-8.611
			S113.607,10.695,118.606,10.695z M118.606,26.528c4.283,0,6.944-3.148,6.944-7.222c0-4.074-2.662-7.222-6.944-7.222
			c-4.282,0-6.944,3.148-6.944,7.222C111.663,23.38,114.324,26.528,118.606,26.528z"/>
		<path fill="#FFFFFF" d="M129.955,11.111h5.069c8.518,0,8.865,6.991,8.865,8.194s-0.347,8.194-8.865,8.194h-5.069V11.111z
			 M131.483,26.111h3.148c4.352,0,7.731-2.106,7.731-6.806c0-4.699-3.379-6.805-7.731-6.805h-3.148V26.111z"/>
		<path fill="#FFFFFF" d="M146.974,11.111h10.023V12.5h-8.495v5.833h7.963v1.389h-7.963v6.389h8.866V27.5h-10.394V11.111z"/>
		<path fill="#FFFFFF" d="M161.121,16.667c0.625,0,1.111,0.486,1.111,1.111s-0.486,1.111-1.111,1.111s-1.111-0.486-1.111-1.111
			S160.496,16.667,161.121,16.667z M161.121,25.417c0.625,0,1.111,0.486,1.111,1.111s-0.486,1.111-1.111,1.111
			s-1.111-0.486-1.111-1.111S160.496,25.417,161.121,25.417z"/>
	</g>
	<g>
		<g>
			<path fill="#FFFFFF" d="M323.614,16.702c-0.222,0-0.457-0.17-0.525-0.382l-2.174-6.684c-0.068-0.212-0.179-0.212-0.247,0
				l-2.171,6.684c-0.068,0.212-0.305,0.382-0.528,0.382h-7.026c-0.223,0-0.258,0.106-0.077,0.235l5.685,4.132
				c0.181,0.13,0.271,0.406,0.202,0.618l-2.173,6.684c-0.069,0.21,0.022,0.277,0.202,0.145l5.685-4.13
				c0.181-0.131,0.471-0.131,0.652,0l5.686,4.132c0.179,0.13,0.269,0.065,0.2-0.147l-2.171-6.684c-0.067-0.212,0.02-0.488,0.2-0.618
				l5.687-4.132c0.179-0.129,0.146-0.235-0.076-0.235H323.614z M323.614,16.702"/>
		</g>
	</g>
</g>
<g id="Layer_3">
	<rect fill="#40D31C" width="351.625" height="40.155"/>
	<g>
		<path fill="#FFFFFF" d="M172.012,11.344h3.768v6.377h7.319v-6.377h3.769v17.102h-3.769v-7.391h-7.319v7.391h-3.768V11.344z"/>
		<path fill="#FFFFFF" d="M195.612,11.344h3.116l7.439,17.102h-4.251l-1.474-3.623h-6.643l-1.425,3.623h-4.155L195.612,11.344z
			 M197.062,16.32l-2.077,5.314h4.179L197.062,16.32z"/>
		<path fill="#FFFFFF" d="M207.522,11.344h6.353c3.551,0,6.498,1.135,6.498,5.193c0,4.01-2.729,5.242-6.329,5.242h-2.754v6.667
			h-3.768V11.344z M211.29,18.59h2.513c1.328,0,2.657-0.459,2.657-2.053c0-1.763-1.788-2.005-3.237-2.005h-1.933V18.59z"/>
		<path fill="#FFFFFF" d="M222.379,11.344h6.353c3.551,0,6.498,1.135,6.498,5.193c0,4.01-2.729,5.242-6.329,5.242h-2.754v6.667
			h-3.768V11.344z M226.146,18.59h2.513c1.328,0,2.657-0.459,2.657-2.053c0-1.763-1.788-2.005-3.237-2.005h-1.933V18.59z"/>
		<path fill="#FFFFFF" d="M241.439,21.15l-6.426-9.807h4.687l3.623,6.401l3.841-6.401h4.469l-6.426,9.807v7.295h-3.768V21.15z"/>
		<path fill="#FFFFFF" d="M252.527,11.344h5.7l3.938,11.16h0.048l3.962-11.16h5.676v17.102h-3.768V15.329h-0.049l-4.492,13.116
			h-2.875l-4.323-13.116h-0.049v13.116h-3.768V11.344z"/>
		<path fill="#FFFFFF" d="M280.598,11.344h3.116l7.439,17.102h-4.251l-1.474-3.623h-6.643l-1.425,3.623h-4.155L280.598,11.344z
			 M282.047,16.32l-2.077,5.314h4.179L282.047,16.32z"/>
		<path fill="#FFFFFF" d="M294.488,21.15l-6.426-9.807h4.687l3.623,6.401l3.841-6.401h4.469l-6.426,9.807v7.295h-3.768V21.15z"/>
	</g>
	<g>
		<path fill="#FFFFFF" d="M31.71,25.169c-1.407,1.932-3.338,2.708-5.522,2.708c-4.535,0-7.685-3.275-7.685-7.811
			s3.149-7.811,7.685-7.811c2.016,0,3.821,0.672,5.123,2.331l-1.134,0.945c-0.924-1.386-2.499-2.016-3.989-2.016
			c-3.884,0-6.299,2.855-6.299,6.551s2.415,6.551,6.299,6.551c1.491,0,3.338-0.714,4.388-2.31L31.71,25.169z"/>
		<path fill="#FFFFFF" d="M40.657,12.257c4.535,0,7.685,3.275,7.685,7.811s-3.149,7.811-7.685,7.811s-7.685-3.275-7.685-7.811
			S36.122,12.257,40.657,12.257z M40.657,26.618c3.884,0,6.299-2.855,6.299-6.551s-2.415-6.551-6.299-6.551
			s-6.299,2.855-6.299,6.551S36.772,26.618,40.657,26.618z"/>
		<path fill="#FFFFFF" d="M50.948,12.635h4.598c7.727,0,8.042,6.341,8.042,7.433S63.273,27.5,55.546,27.5h-4.598V12.635z
			 M52.334,26.24h2.855c3.947,0,7.013-1.911,7.013-6.173s-3.065-6.173-7.013-6.173h-2.855V26.24z"/>
		<path fill="#FFFFFF" d="M66.383,12.635h9.091v1.26h-7.706v5.291h7.223v1.26h-7.223v5.795h8.042v1.26h-9.427V12.635z"/>
		<path fill="#FFFFFF" d="M88.222,12.635h1.428L95.906,27.5h-1.554l-1.617-3.947h-7.874l-1.68,3.947h-1.449L88.222,12.635z
			 M88.873,14.146l-3.464,8.146h6.824L88.873,14.146z"/>
		<path fill="#FFFFFF" d="M97.736,12.635h4.283c2.1,0,4.787,0.819,4.787,3.926c0,2.688-2.142,3.884-4.472,3.884h-3.212V27.5h-1.386
			V12.635z M99.122,19.186h3.149c1.575,0,3.149-0.672,3.149-2.625c0-1.911-1.638-2.667-3.233-2.667h-3.065V19.186z"/>
		<path fill="#FFFFFF" d="M109.475,12.635h4.283c2.1,0,4.787,0.819,4.787,3.926c0,2.688-2.142,3.884-4.472,3.884h-3.212V27.5h-1.386
			V12.635z M110.86,19.186h3.149c1.575,0,3.149-0.672,3.149-2.625c0-1.911-1.638-2.667-3.233-2.667h-3.065V19.186z"/>
		<path fill="#FFFFFF" d="M121.213,12.635h1.386V26.24h6.929v1.26h-8.314V12.635z"/>
		<path fill="#FFFFFF" d="M131.398,12.635h1.386V27.5h-1.386V12.635z"/>
		<path fill="#FFFFFF" d="M136.543,12.635h9.091v1.26h-7.706v5.291h7.223v1.26h-7.223v5.795h8.042v1.26h-9.427V12.635z"/>
		<path fill="#FFFFFF" d="M148.492,12.635h4.598c7.727,0,8.042,6.341,8.042,7.433s-0.315,7.433-8.042,7.433h-4.598V12.635z
			 M149.877,26.24h2.855c3.947,0,7.013-1.911,7.013-6.173s-3.065-6.173-7.013-6.173h-2.855V26.24z"/>
		<path fill="#FFFFFF" d="M164.62,17.674c0.567,0,1.008,0.441,1.008,1.008s-0.441,1.008-1.008,1.008s-1.008-0.441-1.008-1.008
			S164.053,17.674,164.62,17.674z M164.62,25.61c0.567,0,1.008,0.441,1.008,1.008s-0.441,1.008-1.008,1.008
			s-1.008-0.441-1.008-1.008S164.053,25.61,164.62,25.61z"/>
	</g>
</g>
<g id="Layer_5">
	<g>
		<polygon fill="#FFFFFF" points="326.249,14.194 318.661,23.579 313.207,19.114 311.101,21.688 316.57,26.165 319.144,28.272 
			321.235,25.684 328.835,16.284 		"/>
	</g>
	<g>
	</g>
	<g>
	</g>
	<g>
	</g>
	<g>
	</g>
	<g>
	</g>
	<g>
	</g>
</g>
</svg>
