<?xml version="1.0" encoding="utf-8"?>
<!-- Generator: Adobe Illustrator 16.0.3, SVG Export Plug-In . SVG Version: 6.00 Build 0)  -->
<!DOCTYPE svg PUBLIC "-//W3C//DTD SVG 1.1//EN" "http://www.w3.org/Graphics/SVG/1.1/DTD/svg11.dtd">
<svg version="1.1" id="Layer_1" xmlns="http://www.w3.org/2000/svg" xmlns:xlink="http://www.w3.org/1999/xlink" x="0px" y="0px"
	 width="351.625px" height="40.156px" viewBox="0 0 351.625 40.156" enable-background="new 0 0 351.625 40.156"
	 xml:space="preserve">
<g id="Layer_1_1_">
	<rect fill="#641084" width="351.625" height="40.156"/>
	<g>
		<path fill="#FFFFFF" d="M175.95,11.344h4.104l2.729,10.966h0.049l3.575-10.966h3.502l3.551,11.256h0.048l2.875-11.256h3.816
			l-5,17.102h-3.357l-3.769-11.836h-0.049l-3.769,11.836h-3.235L175.95,11.344z"/>
		<path fill="#FFFFFF" d="M201.677,11.344h11.619v3.479h-7.851v3.188h7.414v3.479h-7.414v3.479h8.285v3.479h-12.055L201.677,11.344
			L201.677,11.344z"/>
		<path fill="#FFFFFF" d="M216.389,11.344h5.652c5.507,0,10.12,2.343,10.12,8.599c0,5.531-4.517,8.502-9.613,8.502h-6.159V11.344
			L216.389,11.344z M220.156,24.966h1.957c3.502,0,6.135-1.328,6.135-5.217c0-3.357-2.682-4.927-5.869-4.927h-2.223V24.966z"/>
		<path fill="#FFFFFF" d="M234.361,11.344h5.652c5.508,0,10.12,2.343,10.12,8.599c0,5.531-4.517,8.502-9.612,8.502h-6.16V11.344z
			 M238.13,24.966h1.957c3.502,0,6.136-1.328,6.136-5.217c0-3.357-2.682-4.927-5.869-4.927h-2.224V24.966z"/>
		<path fill="#FFFFFF" d="M252.286,11.344h3.769v17.102h-3.769V11.344z"/>
		<path fill="#FFFFFF" d="M259.123,11.344h5.121l7.271,11.884h0.047V11.344h3.77v17.102h-4.928l-7.465-12.174h-0.049v12.174h-3.768
			V11.344z"/>
		<path fill="#FFFFFF" d="M293.932,27.238c-2.223,1.159-4.662,1.643-7.174,1.643c-5.339,0-9.228-3.502-9.228-8.985
			c0-5.483,3.889-8.985,9.228-8.985c2.705,0,5.096,0.604,6.813,2.198l-2.657,2.899c-1.015-1.063-2.246-1.619-4.154-1.619
			c-3.213,0-5.313,2.319-5.313,5.507c0,3.188,2.102,5.507,5.313,5.507c1.642,0,2.851-0.459,3.55-0.845v-2.778h-3.066V18.3h6.691
			v8.938H293.932z"/>
		<path fill="#FFFFFF" d="M295.986,24.966l8.672-10.29h-8.357v-3.333h12.923v3.333l-8.501,10.29h8.791v3.479h-13.525v-3.479H295.986
			z"/>
		<path fill="#FFFFFF" d="M311.737,11.344h5.121l7.271,11.884h0.048V11.344h3.77v17.102h-4.929l-7.464-12.174h-0.049v12.174h-3.768
			V11.344z"/>
	</g>
	<g>
		<path fill="#FFFFFF" d="M31.919,12.111h1.574L40.391,28.5h-1.713l-1.782-4.352h-8.68L26.363,28.5h-1.597L31.919,12.111z
			 M32.636,13.778l-3.819,8.981h7.523L32.636,13.778z"/>
		<path fill="#FFFFFF" d="M42.41,12.111h4.722c2.315,0,5.278,0.903,5.278,4.329c0,2.963-2.361,4.283-4.931,4.283h-3.542V28.5H42.41
			V12.111z M43.938,19.333h3.472c1.736,0,3.472-0.741,3.472-2.894c0-2.106-1.806-2.939-3.564-2.939h-3.38V19.333z"/>
		<path fill="#FFFFFF" d="M55.353,12.111h4.722c2.315,0,5.278,0.903,5.278,4.329c0,2.963-2.361,4.283-4.931,4.283H56.88V28.5h-1.528
			L55.353,12.111L55.353,12.111z M56.88,19.333h3.472c1.736,0,3.472-0.741,3.472-2.894c0-2.106-1.806-2.939-3.564-2.939h-3.38
			V19.333z"/>
		<path fill="#FFFFFF" d="M68.296,12.111h1.528v15h7.639V28.5h-9.167V12.111z"/>
		<path fill="#FFFFFF" d="M80.591,21.44l-6.018-9.329h1.829l4.954,7.778l5.069-7.778h1.713l-6.019,9.329v7.06h-1.528V21.44z"/>
		<path fill="#FFFFFF" d="M114.74,25.931c-1.551,2.129-3.68,2.986-6.088,2.986c-5,0-8.472-3.611-8.472-8.611
			s3.472-8.611,8.472-8.611c2.222,0,4.213,0.741,5.648,2.569l-1.25,1.042c-1.019-1.527-2.755-2.222-4.398-2.222
			c-4.282,0-6.944,3.148-6.944,7.222s2.662,7.222,6.944,7.222c1.644,0,3.681-0.786,4.838-2.546L114.74,25.931z"/>
		<path fill="#FFFFFF" d="M124.605,11.695c5,0,8.472,3.611,8.472,8.611s-3.472,8.611-8.472,8.611s-8.472-3.611-8.472-8.611
			S119.606,11.695,124.605,11.695z M124.605,27.528c4.283,0,6.944-3.147,6.944-7.222s-2.662-7.222-6.944-7.222
			c-4.282,0-6.944,3.148-6.944,7.222C117.662,24.38,120.323,27.528,124.605,27.528z"/>
		<path fill="#FFFFFF" d="M135.954,12.111h5.069c8.518,0,8.865,6.991,8.865,8.194c0,1.202-0.347,8.194-8.865,8.194h-5.069V12.111z
			 M137.482,27.111h3.148c4.352,0,7.731-2.105,7.731-6.806c0-4.699-3.379-6.805-7.731-6.805h-3.148V27.111z"/>
		<path fill="#FFFFFF" d="M152.973,12.111h10.023V13.5H154.5v5.833h7.963v1.389H154.5v6.389h8.866V28.5h-10.394L152.973,12.111
			L152.973,12.111z"/>
		<path fill="#FFFFFF" d="M167.12,17.667c0.625,0,1.111,0.486,1.111,1.111s-0.486,1.111-1.111,1.111s-1.111-0.486-1.111-1.111
			S166.495,17.667,167.12,17.667z M167.12,26.417c0.625,0,1.111,0.485,1.111,1.11s-0.486,1.111-1.111,1.111
			s-1.111-0.486-1.111-1.111S166.495,26.417,167.12,26.417z"/>
	</g>
</g>
<g id="Layer_5" display="none">
	<rect display="inline" fill="#40D31C" width="351.625" height="40.156"/>
	<g display="inline">
		<path fill="#FFFFFF" d="M176.188,11.597h4.001l2.66,10.689h0.047l3.484-10.689h3.414l3.461,10.972h0.049l2.801-10.972h3.721
			l-4.874,16.669h-3.272l-3.673-11.537h-0.047l-3.673,11.537h-3.155L176.188,11.597z"/>
		<path fill="#FFFFFF" d="M201.259,11.597h11.324v3.391h-7.651v3.108h7.229v3.39h-7.229v3.391h8.075v3.391h-11.748V11.597z"/>
		<path fill="#FFFFFF" d="M215.596,11.597h5.508c5.369,0,9.865,2.284,9.865,8.382c0,5.392-4.402,8.288-9.369,8.288h-6.004V11.597
			L215.596,11.597z M219.268,24.875h1.907c3.414,0,5.98-1.295,5.98-5.084c0-3.272-2.614-4.803-5.722-4.803h-2.166V24.875
			L219.268,24.875z"/>
		<path fill="#FFFFFF" d="M233.107,11.597h5.51c5.367,0,9.865,2.284,9.865,8.382c0,5.392-4.402,8.288-9.371,8.288h-6.004V11.597z
			 M236.781,24.875h1.906c3.414,0,5.98-1.295,5.98-5.084c0-3.272-2.613-4.803-5.723-4.803h-2.165L236.781,24.875L236.781,24.875z"/>
		<path fill="#FFFFFF" d="M250.576,11.597h3.673v16.669h-3.673V11.597z"/>
		<path fill="#FFFFFF" d="M257.236,11.597h4.992l7.086,11.584h0.047V11.597h3.674v16.669h-4.803L260.957,16.4h-0.047v11.866h-3.674
			V11.597z"/>
		<path fill="#FFFFFF" d="M291.162,27.089c-2.166,1.129-4.544,1.601-6.992,1.601c-5.204,0-8.994-3.414-8.994-8.758
			c0-5.345,3.79-8.759,8.994-8.759c2.637,0,4.968,0.589,6.639,2.143l-2.59,2.825c-0.988-1.036-2.188-1.577-4.049-1.577
			c-3.132,0-5.181,2.26-5.181,5.368c0,3.106,2.049,5.368,5.181,5.368c1.602,0,2.777-0.447,3.461-0.824v-2.708h-2.99v-3.391h6.521
			V27.089z"/>
		<path fill="#FFFFFF" d="M293.16,24.875l8.451-10.03h-8.146v-3.249h12.597v3.249l-8.287,10.03h8.569v3.392H293.16V24.875z"/>
		<path fill="#FFFFFF" d="M308.509,11.597h4.991l7.087,11.584h0.047V11.597h3.673v16.669h-4.803L312.229,16.4h-0.047v11.866h-3.673
			V11.597z"/>
	</g>
	<g display="inline">
		<polygon fill="#FFFFFF" points="344.249,14.039 336.661,23.423 331.207,18.959 329.101,21.533 334.57,26.009 337.145,28.117 
			339.235,25.531 346.835,16.129 		"/>
	</g>
	<g display="inline">
		<path fill="#FFFFFF" d="M30.157,25.814c-1.512,2.076-3.588,2.911-5.936,2.911c-4.875,0-8.26-3.521-8.26-8.395
			c0-4.875,3.385-8.396,8.26-8.396c2.167,0,4.107,0.722,5.507,2.505l-1.219,1.016c-0.993-1.489-2.686-2.167-4.288-2.167
			c-4.175,0-6.77,3.069-6.77,7.042c0,3.972,2.595,7.041,6.77,7.041c1.603,0,3.588-0.768,4.717-2.481L30.157,25.814z"/>
		<path fill="#FFFFFF" d="M39.768,11.935c4.875,0,8.26,3.521,8.26,8.396c0,4.875-3.385,8.395-8.26,8.395s-8.26-3.521-8.26-8.395
			C31.508,15.456,34.894,11.935,39.768,11.935z M39.768,27.373c4.175,0,6.771-3.07,6.771-7.042c0-3.972-2.595-7.042-6.771-7.042
			c-4.175,0-6.77,3.069-6.77,7.042C32.998,24.302,35.593,27.373,39.768,27.373z"/>
		<path fill="#FFFFFF" d="M50.823,12.341h4.942c8.305,0,8.644,6.815,8.644,7.989c0,1.173-0.338,7.989-8.644,7.989h-4.942V12.341z
			 M52.313,26.964h3.069c4.243,0,7.538-2.053,7.538-6.634c0-4.582-3.295-6.635-7.538-6.635h-3.069V26.964z"/>
		<path fill="#FFFFFF" d="M67.408,12.341h9.772v1.354h-8.282v5.687h7.763v1.354h-7.763v6.229h8.643v1.354H67.408V12.341z"/>
		<path fill="#FFFFFF" d="M90.875,12.341h1.535l6.725,15.978h-1.67l-1.738-4.243h-8.463l-1.806,4.243h-1.557L90.875,12.341z
			 M91.574,13.966l-3.724,8.756h7.334L91.574,13.966z"/>
		<path fill="#FFFFFF" d="M101.095,12.341h4.604c2.257,0,5.146,0.88,5.146,4.22c0,2.889-2.302,4.175-4.807,4.175h-3.453v7.583h-1.49
			V12.341z M102.585,19.382h3.385c1.693,0,3.385-0.722,3.385-2.821c0-2.054-1.76-2.866-3.475-2.866h-3.295V19.382L102.585,19.382z"
			/>
		<path fill="#FFFFFF" d="M113.708,12.341h4.604c2.257,0,5.146,0.88,5.146,4.22c0,2.889-2.302,4.175-4.807,4.175h-3.453v7.583h-1.49
			V12.341z M115.198,19.382h3.385c1.693,0,3.385-0.722,3.385-2.821c0-2.054-1.76-2.866-3.475-2.866h-3.295V19.382z"/>
		<path fill="#FFFFFF" d="M126.321,12.341h1.49v14.624h7.447v1.354h-8.937V12.341z"/>
		<path fill="#FFFFFF" d="M137.265,12.341h1.49v15.978h-1.49V12.341z"/>
		<path fill="#FFFFFF" d="M142.792,12.341h9.772v1.354h-8.282v5.687h7.763v1.354h-7.763v6.229h8.643v1.354h-10.133V12.341
			L142.792,12.341z"/>
		<path fill="#FFFFFF" d="M155.631,12.341h4.942c8.305,0,8.644,6.815,8.644,7.989c0,1.173-0.338,7.989-8.644,7.989h-4.942V12.341z
			 M157.121,26.964h3.069c4.243,0,7.538-2.053,7.538-6.634c0-4.582-3.294-6.635-7.538-6.635h-3.069V26.964z"/>
		<path fill="#FFFFFF" d="M172.96,17.758c0.609,0,1.083,0.474,1.083,1.083c0,0.609-0.474,1.083-1.083,1.083
			s-1.083-0.474-1.083-1.083C171.877,18.232,172.352,17.758,172.96,17.758z M172.96,26.289c0.609,0,1.083,0.474,1.083,1.082
			c0,0.609-0.474,1.084-1.083,1.084s-1.083-0.475-1.083-1.084C171.877,26.762,172.352,26.289,172.96,26.289z"/>
	</g>
</g>
</svg>
