<?xml version="1.0" encoding="utf-8"?>
<!-- Generator: Adobe Illustrator 16.0.3, SVG Export Plug-In . SVG Version: 6.00 Build 0)  -->
<!DOCTYPE svg PUBLIC "-//W3C//DTD SVG 1.1//EN" "http://www.w3.org/Graphics/SVG/1.1/DTD/svg11.dtd">
<svg version="1.1" id="Layer_1" xmlns="http://www.w3.org/2000/svg" xmlns:xlink="http://www.w3.org/1999/xlink" x="0px" y="0px"
	 width="351.625px" height="40.156px" viewBox="0 0 351.625 40.156" enable-background="new 0 0 351.625 40.156"
	 xml:space="preserve">
<g id="Layer_1_1_">
	<rect fill="#651085" width="351.625" height="40.156"/>
	<g>
		<path fill="#FFFFFF" d="M167.603,12.895h3.476l2.311,9.282h0.041l3.026-9.282h2.965l3.006,9.528h0.041l2.434-9.528h3.229
			L183.9,27.371h-2.842l-3.189-10.019h-0.041l-3.19,10.019h-2.74L167.603,12.895z"/>
		<path fill="#FFFFFF" d="M189.386,12.895h9.835v2.944h-6.646v2.699h6.276v2.944h-6.276v2.943h7.014v2.945h-10.202L189.386,12.895
			L189.386,12.895z"/>
		<path fill="#FFFFFF" d="M201.842,12.895h4.784c4.662,0,8.567,1.983,8.567,7.279c0,4.682-3.824,7.197-8.139,7.197h-5.214
			L201.842,12.895L201.842,12.895z M205.031,24.427h1.656c2.965,0,5.192-1.125,5.192-4.417c0-2.842-2.271-4.171-4.969-4.171h-1.881
			L205.031,24.427L205.031,24.427z"/>
		<path fill="#FFFFFF" d="M217.059,12.895h4.785c4.662,0,8.567,1.983,8.567,7.279c0,4.682-3.824,7.197-8.138,7.197h-5.215V12.895
			L217.059,12.895z M220.249,24.427h1.656c2.965,0,5.192-1.125,5.192-4.417c0-2.842-2.27-4.171-4.969-4.171h-1.881L220.249,24.427
			L220.249,24.427z"/>
		<path fill="#FFFFFF" d="M232.236,12.895h3.188v14.476h-3.188V12.895z"/>
		<path fill="#FFFFFF" d="M238.023,12.895h4.334l6.154,10.06h0.041v-10.06h3.19v14.476h-4.172l-6.317-10.305h-0.041v10.305h-3.189
			V12.895z"/>
		<path fill="#FFFFFF" d="M267.492,26.349c-1.881,0.98-3.945,1.391-6.072,1.391c-4.52,0-7.811-2.965-7.811-7.606
			c0-4.641,3.291-7.606,7.811-7.606c2.29,0,4.314,0.511,5.766,1.86l-2.248,2.454c-0.858-0.899-1.901-1.37-3.518-1.37
			c-2.72,0-4.498,1.963-4.498,4.662c0,2.7,1.778,4.663,4.498,4.663c1.391,0,2.413-0.389,3.006-0.717v-2.351h-2.597v-2.944h5.663
			V26.349L267.492,26.349z"/>
		<path fill="#FFFFFF" d="M277.148,16.432c-0.512-0.654-1.533-0.961-2.311-0.961c-0.9,0-2.146,0.409-2.146,1.493
			c0,2.637,6.666,0.94,6.666,6.011c0,3.229-2.598,4.765-5.582,4.765c-1.86,0-3.496-0.553-4.866-1.82l2.27-2.496
			c0.654,0.859,1.718,1.371,2.78,1.371c1.043,0,2.209-0.492,2.209-1.514c0-2.658-6.789-1.227-6.789-6.052
			c0-3.087,2.68-4.703,5.521-4.703c1.635,0,3.209,0.429,4.437,1.513L277.148,16.432z"/>
		<path fill="#FFFFFF" d="M280.67,24.427l7.34-8.71h-7.074v-2.821h10.939v2.821l-7.197,8.71h7.442v2.943h-11.45V24.427
			L280.67,24.427z"/>
		<path fill="#FFFFFF" d="M294.006,12.895h4.334l6.154,10.06h0.041v-10.06h3.189v14.476h-4.172l-6.316-10.305h-0.041v10.305h-3.189
			V12.895L294.006,12.895z"/>
	</g>
	<g>
		<path fill="#FFFFFF" d="M47.986,13.535h1.333l5.843,13.882h-1.451l-1.51-3.687h-7.353l-1.568,3.687h-1.353L47.986,13.535z
			 M48.594,14.947l-3.235,7.607h6.373L48.594,14.947z"/>
		<path fill="#FFFFFF" d="M56.866,13.535h4c1.961,0,4.471,0.765,4.471,3.667c0,2.51-2,3.627-4.177,3.627h-3v6.588h-1.294V13.535z
			 M58.16,19.652h2.941c1.471,0,2.941-0.627,2.941-2.451c0-1.785-1.529-2.49-3.02-2.49H58.16V19.652z"/>
		<path fill="#FFFFFF" d="M67.825,13.535h4c1.961,0,4.471,0.765,4.471,3.667c0,2.51-2,3.627-4.177,3.627h-3v6.588h-1.294V13.535z
			 M69.119,19.652h2.941c1.471,0,2.941-0.627,2.941-2.451c0-1.785-1.529-2.49-3.02-2.49h-2.863L69.119,19.652L69.119,19.652z"/>
		<path fill="#FFFFFF" d="M78.784,13.535h1.294v12.707h6.471v1.176h-7.765V13.535z"/>
		<path fill="#FFFFFF" d="M89.195,21.437l-5.098-7.902h1.549l4.196,6.588l4.294-6.588h1.451l-5.098,7.902v5.98h-1.294V21.437z"/>
		<path fill="#FFFFFF" d="M118.113,25.242c-1.313,1.803-3.118,2.528-5.157,2.528c-4.235,0-7.176-3.06-7.176-7.294
			c0-4.235,2.941-7.294,7.176-7.294c1.882,0,3.569,0.627,4.784,2.176l-1.059,0.882c-0.863-1.294-2.333-1.882-3.726-1.882
			c-3.627,0-5.882,2.667-5.882,6.118s2.255,6.117,5.882,6.117c1.392,0,3.118-0.668,4.098-2.157L118.113,25.242z"/>
		<path fill="#FFFFFF" d="M126.464,13.182c4.235,0,7.176,3.059,7.176,7.294c0,4.234-2.941,7.294-7.176,7.294
			c-4.235,0-7.176-3.06-7.176-7.294C119.288,16.241,122.229,13.182,126.464,13.182z M126.464,26.593
			c3.627,0,5.882-2.668,5.882-6.117c0-3.451-2.255-6.118-5.882-6.118s-5.882,2.667-5.882,6.118S122.837,26.593,126.464,26.593z"/>
		<path fill="#FFFFFF" d="M136.07,13.535h4.294c7.215,0,7.51,5.922,7.51,6.941c0,1.02-0.294,6.941-7.51,6.941h-4.294V13.535z
			 M137.364,26.242h2.667c3.687,0,6.549-1.785,6.549-5.766c0-3.98-2.863-5.765-6.549-5.765h-2.667V26.242z"/>
		<path fill="#FFFFFF" d="M150.479,13.535h8.49v1.177h-7.196v4.941h6.745v1.177h-6.745v5.412h7.51v1.176h-8.804V13.535z"/>
		<path fill="#FFFFFF" d="M162.458,18.241c0.53,0,0.941,0.412,0.941,0.941c0,0.53-0.412,0.941-0.941,0.941s-0.941-0.412-0.941-0.941
			C161.517,18.652,161.929,18.241,162.458,18.241z M162.458,25.652c0.53,0,0.941,0.412,0.941,0.941s-0.412,0.941-0.941,0.941
			s-0.941-0.412-0.941-0.941S161.929,25.652,162.458,25.652z"/>
	</g>
</g>
<g id="Layer_5" display="none">
	<rect display="inline" fill="#40D31C" width="351.625" height="40.156"/>
	<g display="inline">
		<path fill="#FFFFFF" d="M176.466,13.885h3.479l2.313,9.291h0.041l3.029-9.291h2.967l3.008,9.537h0.041l2.436-9.537h3.232
			l-4.236,14.488h-2.844l-3.191-10.026h-0.041l-3.192,10.026h-2.741L176.466,13.885z"/>
		<path fill="#FFFFFF" d="M198.251,13.885h9.843v2.947h-6.65v2.701h6.283v2.946h-6.283v2.946h7.02v2.947h-10.211L198.251,13.885
			L198.251,13.885z"/>
		<path fill="#FFFFFF" d="M210.708,13.885h4.788c4.665,0,8.572,1.985,8.572,7.285c0,4.687-3.825,7.203-8.144,7.203h-5.218
			L210.708,13.885L210.708,13.885z M213.898,25.425h1.658c2.967,0,5.197-1.125,5.197-4.42c0-2.843-2.271-4.173-4.973-4.173h-1.883
			V25.425L213.898,25.425z"/>
		<path fill="#FFFFFF" d="M225.927,13.885h4.788c4.665,0,8.573,1.985,8.573,7.285c0,4.687-3.826,7.203-8.144,7.203h-5.219
			L225.927,13.885L225.927,13.885z M229.118,25.425h1.657c2.968,0,5.197-1.125,5.197-4.42c0-2.843-2.271-4.173-4.973-4.173h-1.883
			L229.118,25.425L229.118,25.425z"/>
		<path fill="#FFFFFF" d="M241.104,13.885h3.191v14.488h-3.191V13.885z"/>
		<path fill="#FFFFFF" d="M246.893,13.885h4.338l6.158,10.068h0.041V13.885h3.191v14.488h-4.174l-6.323-10.313h-0.041v10.313h-3.19
			V13.885z"/>
		<path fill="#FFFFFF" d="M276.372,27.349c-1.883,0.982-3.949,1.391-6.077,1.391c-4.521,0-7.816-2.967-7.816-7.611
			c0-4.646,3.295-7.612,7.816-7.612c2.291,0,4.316,0.512,5.77,1.862l-2.25,2.455c-0.859-0.9-1.902-1.371-3.52-1.371
			c-2.722,0-4.502,1.964-4.502,4.665c0,2.701,1.78,4.666,4.502,4.666c1.391,0,2.414-0.389,3.008-0.715v-2.354h-2.599v-2.947h5.668
			V27.349L276.372,27.349z"/>
		<path fill="#FFFFFF" d="M286.023,17.425c-0.513-0.655-1.534-0.961-2.313-0.961c-0.9,0-2.148,0.409-2.148,1.494
			c0,2.64,6.67,0.941,6.67,6.016c0,3.232-2.599,4.768-5.586,4.768c-1.861,0-3.498-0.552-4.869-1.82l2.271-2.498
			c0.654,0.859,1.72,1.371,2.783,1.371c1.043,0,2.209-0.49,2.209-1.514c0-2.66-6.793-1.229-6.793-6.057
			c0-3.09,2.681-4.707,5.524-4.707c1.638,0,3.213,0.43,4.439,1.514L286.023,17.425z"/>
		<path fill="#FFFFFF" d="M289.539,25.425l7.347-8.717h-7.079v-2.824h10.946v2.824l-7.203,8.717h7.448v2.947h-11.459V25.425z"/>
		<path fill="#FFFFFF" d="M302.876,13.885h4.338l6.159,10.068h0.04V13.885h3.192v14.488h-4.175l-6.322-10.313h-0.041v10.313h-3.191
			V13.885z"/>
	</g>
	<g display="inline">
		<polygon fill="#FFFFFF" points="337.249,14.039 329.661,23.423 324.207,18.959 322.101,21.533 327.57,26.009 330.145,28.117 
			332.235,25.531 339.835,16.129 		"/>
	</g>
	<g display="inline">
		<path fill="#FFFFFF" d="M46.606,26.242c-1.313,1.805-3.118,2.529-5.157,2.529c-4.235,0-7.176-3.059-7.176-7.294
			c0-4.235,2.941-7.294,7.176-7.294c1.882,0,3.569,0.627,4.784,2.176l-1.059,0.882c-0.863-1.294-2.333-1.882-3.726-1.882
			c-3.627,0-5.882,2.667-5.882,6.118c0,3.45,2.255,6.116,5.882,6.116c1.392,0,3.118-0.666,4.098-2.156L46.606,26.242z"/>
		<path fill="#FFFFFF" d="M54.958,14.183c4.235,0,7.176,3.059,7.176,7.294c0,4.235-2.941,7.294-7.176,7.294
			s-7.176-3.059-7.176-7.294C47.781,17.242,50.722,14.183,54.958,14.183z M54.958,27.593c3.627,0,5.882-2.666,5.882-6.116
			c0-3.451-2.255-6.118-5.882-6.118s-5.882,2.667-5.882,6.118C49.075,24.927,51.33,27.593,54.958,27.593z"/>
		<path fill="#FFFFFF" d="M64.564,14.536h4.294c7.215,0,7.51,5.922,7.51,6.941c0,1.019-0.294,6.94-7.51,6.94h-4.294V14.536z
			 M65.858,27.242h2.667c3.687,0,6.549-1.785,6.549-5.765c0-3.98-2.862-5.765-6.549-5.765h-2.667V27.242z"/>
		<path fill="#FFFFFF" d="M78.974,14.536h8.49v1.177h-7.196v4.941h6.745v1.176h-6.745v5.412h7.51v1.176h-8.804V14.536z"/>
		<path fill="#FFFFFF" d="M99.364,14.536h1.333l5.843,13.881h-1.451l-1.51-3.686h-7.353l-1.568,3.686h-1.353L99.364,14.536z
			 M99.972,15.948l-3.235,7.607h6.373L99.972,15.948z"/>
		<path fill="#FFFFFF" d="M108.246,14.536h4c1.961,0,4.471,0.765,4.471,3.667c0,2.509-2,3.626-4.177,3.626h-3v6.588h-1.294V14.536z
			 M109.54,20.653h2.941c1.471,0,2.941-0.627,2.941-2.451c0-1.785-1.529-2.49-3.02-2.49h-2.863L109.54,20.653L109.54,20.653z"/>
		<path fill="#FFFFFF" d="M119.205,14.536h4c1.961,0,4.471,0.765,4.471,3.667c0,2.509-2,3.626-4.177,3.626h-3v6.588h-1.294V14.536z
			 M120.499,20.653h2.941c1.471,0,2.941-0.627,2.941-2.451c0-1.785-1.529-2.49-3.02-2.49h-2.863L120.499,20.653L120.499,20.653z"/>
		<path fill="#FFFFFF" d="M130.165,14.536h1.294v12.706h6.471v1.176h-7.765V14.536z"/>
		<path fill="#FFFFFF" d="M139.673,14.536h1.294v13.881h-1.294V14.536z"/>
		<path fill="#FFFFFF" d="M144.477,14.536h8.49v1.177h-7.196v4.941h6.745v1.176h-6.745v5.412h7.51v1.176h-8.804V14.536z"/>
		<path fill="#FFFFFF" d="M155.632,14.536h4.294c7.215,0,7.51,5.922,7.51,6.941c0,1.019-0.294,6.94-7.51,6.94h-4.294V14.536z
			 M156.926,27.242h2.667c3.687,0,6.549-1.785,6.549-5.765c0-3.98-2.862-5.765-6.549-5.765h-2.667V27.242z"/>
		<path fill="#FFFFFF" d="M170.689,19.242c0.53,0,0.941,0.412,0.941,0.941s-0.412,0.941-0.941,0.941s-0.941-0.412-0.941-0.941
			C169.749,19.653,170.16,19.242,170.689,19.242z M170.689,26.653c0.53,0,0.941,0.412,0.941,0.94c0,0.531-0.412,0.941-0.941,0.941
			s-0.941-0.412-0.941-0.941C169.749,27.065,170.16,26.653,170.689,26.653z"/>
	</g>
</g>
</svg>
