<?xml version="1.0" encoding="utf-8"?>
<!-- Generator: Adobe Illustrator 16.0.3, SVG Export Plug-In . SVG Version: 6.00 Build 0)  -->
<!DOCTYPE svg PUBLIC "-//W3C//DTD SVG 1.1//EN" "http://www.w3.org/Graphics/SVG/1.1/DTD/svg11.dtd">
<svg version="1.1" id="Layer_1" xmlns="http://www.w3.org/2000/svg" xmlns:xlink="http://www.w3.org/1999/xlink" x="0px" y="0px"
	 width="766px" height="64px" viewBox="0 0 766 64" enable-background="new 0 0 766 64" xml:space="preserve">
<g id="Layer_1_1_">
	<g>
		<rect x="2.676" y="44.725" fill="none" width="626.568" height="33.021"/>
		<path d="M8.979,56.052l-1.593,4.823H5.339l5.21-15.334h2.389l5.233,15.334h-2.116l-1.638-4.823H8.979z M14.007,54.505
			l-1.501-4.414c-0.341-1.001-0.569-1.911-0.796-2.798h-0.045c-0.228,0.91-0.478,1.843-0.773,2.775l-1.501,4.437H14.007z"/>
		<path d="M20.422,45.542h1.979v13.673h6.552v1.661h-8.532L20.422,45.542L20.422,45.542z"/>
		<path d="M31.159,45.542h1.979v13.673h6.552v1.661h-8.532L31.159,45.542L31.159,45.542z"/>
		<path d="M59.824,53.049c0,5.278-3.208,8.077-7.121,8.077c-4.049,0-6.894-3.14-6.894-7.781c0-4.868,3.026-8.054,7.121-8.054
			C57.116,45.291,59.824,48.499,59.824,53.049z M47.925,53.299c0,3.276,1.774,6.211,4.891,6.211c3.14,0,4.914-2.889,4.914-6.369
			c0-3.049-1.592-6.233-4.891-6.233C49.563,46.906,47.925,49.932,47.925,53.299z"/>
		<path d="M64.737,47.225h-4.664v-1.684h11.353v1.684h-4.687v13.65h-2.002V47.225z"/>
		<path d="M75.11,45.542v6.416h7.417v-6.416h2.002v15.334h-2.002v-7.188H75.11v7.188h-1.979V45.542H75.11z"/>
		<path d="M95.903,53.686h-5.96v5.529h6.643v1.661h-8.623V45.542h8.281v1.661h-6.302v4.846h5.96L95.903,53.686L95.903,53.686z"/>
		<path d="M99.155,45.746c1.001-0.205,2.435-0.318,3.799-0.318c2.116,0,3.481,0.387,4.437,1.252
			c0.773,0.682,1.206,1.729,1.206,2.911c0,2.024-1.274,3.367-2.89,3.913v0.068c1.183,0.41,1.888,1.502,2.252,3.094
			c0.5,2.139,0.864,3.618,1.183,4.209h-2.048c-0.25-0.432-0.591-1.752-1.023-3.663c-0.455-2.116-1.274-2.912-3.072-2.979h-1.865
			v6.644h-1.979V45.746z M101.135,52.73h2.025c2.116,0,3.458-1.16,3.458-2.912c0-1.979-1.434-2.844-3.526-2.866
			c-0.956,0-1.638,0.091-1.957,0.182V52.73z"/>
		<path d="M126.933,60.375c-0.728,0.364-2.184,0.729-4.05,0.729c-4.323,0-7.576-2.729-7.576-7.759c0-4.8,3.253-8.054,8.008-8.054
			c1.911,0,3.117,0.41,3.64,0.684l-0.478,1.614c-0.751-0.364-1.82-0.637-3.094-0.637c-3.595,0-5.983,2.298-5.983,6.325
			c0,3.754,2.161,6.166,5.893,6.166c1.206,0,2.434-0.25,3.23-0.637L126.933,60.375z"/>
		<path d="M142.037,53.049c0,5.278-3.208,8.077-7.121,8.077c-4.049,0-6.894-3.14-6.894-7.781c0-4.868,3.026-8.054,7.121-8.054
			C139.33,45.291,142.037,48.499,142.037,53.049z M130.139,53.299c0,3.276,1.774,6.211,4.891,6.211c3.14,0,4.915-2.889,4.915-6.369
			c0-3.049-1.593-6.233-4.892-6.233C131.776,46.906,130.139,49.932,130.139,53.299z"/>
		<path d="M146.586,45.542v9.078c0,3.435,1.524,4.891,3.572,4.891c2.275,0,3.731-1.501,3.731-4.891v-9.078h2.002v8.94
			c0,4.709-2.48,6.645-5.802,6.645c-3.14,0-5.505-1.797-5.505-6.552v-9.032L146.586,45.542L146.586,45.542z"/>
		<path d="M159.325,45.746c1.001-0.205,2.435-0.318,3.799-0.318c2.116,0,3.481,0.387,4.437,1.252
			c0.773,0.682,1.206,1.729,1.206,2.911c0,2.024-1.274,3.367-2.89,3.913v0.068c1.183,0.41,1.888,1.502,2.252,3.094
			c0.5,2.139,0.864,3.618,1.183,4.209h-2.048c-0.25-0.432-0.591-1.752-1.023-3.663c-0.455-2.116-1.274-2.912-3.072-2.979h-1.865
			v6.644h-1.979V45.746L159.325,45.746z M161.304,52.73h2.025c2.116,0,3.458-1.16,3.458-2.912c0-1.979-1.434-2.844-3.526-2.866
			c-0.956,0-1.638,0.091-1.957,0.182V52.73L161.304,52.73z"/>
		<path d="M171.291,58.464c0.887,0.546,2.184,1.001,3.549,1.001c2.024,0,3.208-1.068,3.208-2.615c0-1.434-0.819-2.252-2.889-3.05
			c-2.502-0.887-4.05-2.184-4.05-4.345c0-2.389,1.979-4.164,4.96-4.164c1.57,0,2.707,0.363,3.39,0.751l-0.546,1.615
			c-0.5-0.273-1.524-0.728-2.912-0.728c-2.093,0-2.89,1.25-2.89,2.297c0,1.434,0.933,2.14,3.049,2.959
			c2.594,1,3.913,2.252,3.913,4.504c0,2.367-1.752,4.414-5.369,4.414c-1.479,0-3.094-0.433-3.913-0.979L171.291,58.464z"/>
		<path d="M190.719,53.686h-5.96v5.529h6.643v1.661h-8.623V45.542h8.281v1.661h-6.302v4.846h5.96L190.719,53.686L190.719,53.686z"/>
		<path d="M193.698,58.464c0.887,0.546,2.184,1.001,3.549,1.001c2.024,0,3.208-1.068,3.208-2.615c0-1.434-0.819-2.252-2.889-3.05
			c-2.502-0.887-4.05-2.184-4.05-4.345c0-2.389,1.979-4.164,4.96-4.164c1.57,0,2.707,0.363,3.39,0.751l-0.546,1.615
			c-0.5-0.273-1.524-0.728-2.912-0.728c-2.093,0-2.889,1.25-2.889,2.297c0,1.434,0.933,2.14,3.048,2.959
			c2.594,1,3.913,2.252,3.913,4.504c0,2.367-1.752,4.414-5.369,4.414c-1.479,0-3.094-0.433-3.913-0.979L193.698,58.464z"/>
		<path d="M212.376,60.875v-6.507l-4.846-8.827h2.252l2.162,4.23c0.591,1.162,1.046,2.094,1.524,3.164h0.045
			c0.432-1.002,0.956-2.002,1.547-3.164l2.207-4.23h2.252l-5.142,8.805v6.529H212.376z"/>
		<path d="M233.556,53.049c0,5.278-3.208,8.077-7.121,8.077c-4.049,0-6.894-3.14-6.894-7.781c0-4.868,3.026-8.054,7.121-8.054
			C230.848,45.291,233.556,48.499,233.556,53.049z M221.657,53.299c0,3.276,1.774,6.211,4.891,6.211c3.14,0,4.915-2.889,4.915-6.369
			c0-3.049-1.593-6.233-4.892-6.233C223.295,46.906,221.657,49.932,221.657,53.299z"/>
		<path d="M238.104,45.542v9.078c0,3.435,1.524,4.891,3.572,4.891c2.275,0,3.731-1.501,3.731-4.891v-9.078h2.002v8.94
			c0,4.709-2.48,6.645-5.802,6.645c-3.14,0-5.505-1.797-5.505-6.552v-9.032L238.104,45.542L238.104,45.542z"/>
		<path d="M263.606,53.686h-5.96v5.529h6.643v1.661h-8.623V45.542h8.281v1.661h-6.302v4.846h5.96L263.606,53.686L263.606,53.686z"/>
		<path d="M266.858,60.875V45.542h2.162l4.914,7.758c1.137,1.798,2.025,3.413,2.753,4.982l0.045-0.022
			c-0.182-2.048-0.228-3.912-0.228-6.302v-6.416h1.866v15.334h-2.002l-4.869-7.781c-1.069-1.706-2.093-3.458-2.867-5.118
			l-0.068,0.022c0.114,1.935,0.159,3.776,0.159,6.325v6.552L266.858,60.875L266.858,60.875z"/>
		<path d="M281.827,45.746c1.001-0.205,2.435-0.318,3.799-0.318c2.116,0,3.481,0.387,4.437,1.252
			c0.773,0.682,1.206,1.729,1.206,2.911c0,2.024-1.274,3.367-2.89,3.913v0.068c1.183,0.41,1.888,1.502,2.252,3.094
			c0.5,2.139,0.864,3.618,1.183,4.209h-2.048c-0.25-0.432-0.591-1.752-1.023-3.663c-0.455-2.116-1.274-2.912-3.072-2.979h-1.865
			v6.644h-1.979V45.746L281.827,45.746z M283.807,52.73h2.025c2.116,0,3.458-1.16,3.458-2.912c0-1.979-1.434-2.844-3.526-2.866
			c-0.956,0-1.638,0.091-1.957,0.182V52.73z"/>
		<path d="M307.238,53.049c0,5.278-3.208,8.077-7.121,8.077c-4.049,0-6.894-3.14-6.894-7.781c0-4.868,3.026-8.054,7.121-8.054
			C304.531,45.291,307.238,48.499,307.238,53.049z M295.34,53.299c0,3.276,1.774,6.211,4.891,6.211c3.14,0,4.915-2.889,4.915-6.369
			c0-3.049-1.593-6.233-4.892-6.233C296.978,46.906,295.34,49.932,295.34,53.299z"/>
		<path d="M309.808,45.542h1.979v13.673h6.552v1.661h-8.532L309.808,45.542L309.808,45.542z"/>
		<path d="M320.545,45.542h1.979v13.673h6.552v1.661h-8.532L320.545,45.542L320.545,45.542z"/>
		<path d="M338.084,45.542v15.334h-1.979V45.542H338.084z"/>
		<path d="M341.542,60.875V45.542h2.162l4.914,7.758c1.137,1.798,2.025,3.413,2.753,4.982l0.045-0.022
			c-0.182-2.048-0.228-3.912-0.228-6.302v-6.416h1.866v15.334h-2.002l-4.869-7.781c-1.069-1.706-2.093-3.458-2.867-5.118
			l-0.068,0.022c0.114,1.935,0.159,3.776,0.159,6.325v6.552L341.542,60.875L341.542,60.875z"/>
		<path d="M374.438,53.049c0,5.278-3.208,8.077-7.121,8.077c-4.049,0-6.894-3.14-6.894-7.781c0-4.868,3.026-8.054,7.121-8.054
			C371.73,45.291,374.438,48.499,374.438,53.049z M362.54,53.299c0,3.276,1.774,6.211,4.891,6.211c3.14,0,4.914-2.889,4.914-6.369
			c0-3.049-1.592-6.233-4.891-6.233C364.177,46.906,362.54,49.932,362.54,53.299z"/>
		<path d="M377.007,45.542h8.259v1.661h-6.279v5.096h5.801v1.639h-5.801v6.938h-1.979L377.007,45.542L377.007,45.542z"/>
		<path d="M400.849,53.686h-5.96v5.529h6.645v1.661h-8.623V45.542h8.282v1.661h-6.304v4.846h5.96V53.686z"/>
		<path d="M416.751,63.128c-2.07-0.546-4.096-1.161-5.87-1.774c-0.318-0.112-0.637-0.228-0.933-0.228
			c-3.643-0.137-6.757-2.821-6.757-7.758c0-4.914,3.003-8.077,7.144-8.077c4.163,0,6.871,3.23,6.871,7.758
			c0,3.936-1.82,6.461-4.368,7.35v0.092c1.523,0.387,3.187,0.751,4.481,0.978L416.751,63.128z M415.112,53.141
			c0-3.072-1.593-6.233-4.848-6.233c-3.345,0-4.98,3.094-4.96,6.416c-0.021,3.253,1.774,6.188,4.869,6.188
			C413.338,59.51,415.112,56.645,415.112,53.141z"/>
		<path d="M421.754,45.542v9.078c0,3.435,1.524,4.891,3.572,4.891c2.273,0,3.729-1.501,3.729-4.891v-9.078h2.002v8.94
			c0,4.709-2.479,6.645-5.802,6.645c-3.14,0-5.506-1.797-5.506-6.552v-9.032L421.754,45.542L421.754,45.542z"/>
		<path d="M436.2,56.052l-1.593,4.823h-2.05l5.212-15.334h2.39l5.23,15.334h-2.114l-1.64-4.823H436.2z M441.229,54.505l-1.502-4.414
			c-0.342-1.001-0.566-1.911-0.796-2.798h-0.046c-0.228,0.91-0.478,1.843-0.771,2.775l-1.502,4.437H441.229z"/>
		<path d="M447.643,45.542h1.979v13.673h6.553v1.661h-8.53V45.542H447.643z"/>
		<path d="M476.307,53.049c0,5.278-3.208,8.077-7.121,8.077c-4.05,0-6.894-3.14-6.894-7.781c0-4.868,3.025-8.054,7.121-8.054
			C473.599,45.291,476.307,48.499,476.307,53.049z M464.407,53.299c0,3.276,1.772,6.211,4.892,6.211
			c3.142,0,4.914-2.889,4.914-6.369c0-3.049-1.593-6.233-4.892-6.233C466.046,46.906,464.407,49.932,464.407,53.299z"/>
		<path d="M478.876,45.746c1.001-0.205,2.434-0.318,3.799-0.318c2.116,0,3.481,0.387,4.438,1.252
			c0.771,0.682,1.206,1.729,1.206,2.911c0,2.024-1.274,3.367-2.892,3.913v0.068c1.186,0.41,1.891,1.502,2.252,3.094
			c0.501,2.139,0.865,3.618,1.186,4.209h-2.048c-0.25-0.432-0.594-1.752-1.023-3.663c-0.455-2.116-1.272-2.912-3.071-2.979h-1.865
			v6.644h-1.979L478.876,45.746L478.876,45.746z M480.854,52.73h2.025c2.115,0,3.458-1.16,3.458-2.912
			c0-1.979-1.434-2.844-3.526-2.866c-0.954,0-1.638,0.091-1.957,0.182V52.73z"/>
		<path d="M495.938,45.542h1.979v13.673h6.553v1.661h-8.529V45.542H495.938z"/>
		<path d="M514.614,53.686h-5.961v5.529h6.644v1.661h-8.622V45.542h8.281v1.661h-6.303v4.846h5.961V53.686z"/>
		<path d="M517.594,58.464c0.89,0.546,2.186,1.001,3.549,1.001c2.025,0,3.208-1.068,3.208-2.615c0-1.434-0.817-2.252-2.89-3.05
			c-2.502-0.887-4.049-2.184-4.049-4.345c0-2.389,1.979-4.164,4.959-4.164c1.57,0,2.708,0.363,3.391,0.751l-0.547,1.615
			c-0.5-0.273-1.521-0.728-2.912-0.728c-2.093,0-2.889,1.25-2.889,2.297c0,1.434,0.933,2.14,3.049,2.959
			c2.593,1,3.913,2.252,3.913,4.504c0,2.367-1.752,4.414-5.369,4.414c-1.479,0-3.095-0.433-3.914-0.979L517.594,58.464z"/>
		<path d="M528.809,58.464c0.89,0.546,2.186,1.001,3.551,1.001c2.023,0,3.208-1.068,3.208-2.615c0-1.434-0.819-2.252-2.892-3.05
			c-2.502-0.887-4.049-2.184-4.049-4.345c0-2.389,1.979-4.164,4.959-4.164c1.57,0,2.708,0.363,3.391,0.751l-0.547,1.615
			c-0.5-0.273-1.521-0.728-2.912-0.728c-2.093,0-2.889,1.25-2.889,2.297c0,1.434,0.935,2.14,3.049,2.959
			c2.595,1,3.913,2.252,3.913,4.504c0,2.367-1.752,4.414-5.369,4.414c-1.479,0-3.095-0.433-3.914-0.979L528.809,58.464z"/>
		<path d="M548.236,53.686h-5.961v5.529h6.644v1.661h-8.622V45.542h8.281v1.661h-6.303v4.846h5.961V53.686z"/>
		<path d="M551.489,45.746c1.001-0.205,2.434-0.318,3.799-0.318c2.116,0,3.481,0.387,4.437,1.252
			c0.773,0.682,1.206,1.729,1.206,2.911c0,2.024-1.272,3.367-2.89,3.913v0.068c1.184,0.41,1.889,1.502,2.252,3.094
			c0.501,2.139,0.865,3.618,1.184,4.209h-2.048c-0.25-0.432-0.592-1.752-1.021-3.663c-0.455-2.116-1.274-2.912-3.071-2.979h-1.866
			v6.644h-1.979L551.489,45.746L551.489,45.746z M553.468,52.73h2.025c2.115,0,3.458-1.16,3.458-2.912
			c0-1.979-1.436-2.844-3.526-2.866c-0.956,0-1.638,0.091-1.957,0.182V52.73L553.468,52.73z"/>
		<path d="M571.098,60.875l-5.005-15.334h2.141l2.389,7.553c0.66,2.07,1.229,3.938,1.639,5.733h0.045
			c0.435-1.775,1.069-3.708,1.752-5.71l2.596-7.576h2.114l-5.481,15.334H571.098z"/>
		<path d="M581.608,56.052l-1.595,4.823h-2.048l5.21-15.334h2.392l5.23,15.334h-2.116l-1.638-4.823H581.608z M586.637,54.505
			l-1.502-4.414c-0.342-1.001-0.566-1.911-0.796-2.798h-0.046c-0.229,0.91-0.479,1.843-0.773,2.775l-1.502,4.437H586.637z"/>
		<path d="M593.051,45.542h1.979v13.673h6.553v1.661h-8.531L593.051,45.542L593.051,45.542z"/>
		<path d="M604.948,45.542v9.078c0,3.435,1.522,4.891,3.57,4.891c2.275,0,3.731-1.501,3.731-4.891v-9.078h2.002v8.94
			c0,4.709-2.479,6.645-5.802,6.645c-3.142,0-5.506-1.797-5.506-6.552v-9.032L604.948,45.542L604.948,45.542z"/>
		<path d="M625.628,53.686h-5.961v5.529h6.644v1.661h-8.62V45.542h8.279v1.661h-6.303v4.846h5.961V53.686L625.628,53.686z"/>
	</g>
	<g>
		<g>
			<path d="M737.27,52.816c0,2.644-0.659,4.733-1.981,6.271c-1.321,1.539-3.146,2.309-5.47,2.309c-2.317,0-4.139-0.771-5.459-2.309
				c-1.322-1.538-1.983-3.637-1.983-6.296c0-2.649,0.667-4.737,2.001-6.262c1.333-1.523,3.154-2.285,5.464-2.285
				c2.325,0,4.146,0.766,5.459,2.296C736.612,48.073,737.27,50.165,737.27,52.816z M723.64,52.816c0,2.386,0.531,4.229,1.598,5.533
				c1.063,1.303,2.59,1.955,4.581,1.955c2.006,0,3.538-0.646,4.599-1.938c1.06-1.292,1.59-3.142,1.59-5.55
				c0-2.401-0.53-4.241-1.59-5.521c-1.061-1.279-2.586-1.92-4.576-1.92c-1.98,0-3.512,0.646-4.587,1.938
				C724.178,48.605,723.64,50.438,723.64,52.816z"/>
			<path d="M741.094,61.169h-1.162V44.508h9.128v1.071h-7.966v7.065h7.521v1.084h-7.521V61.169z"/>
			<path d="M751.643,61.169h-1.16V44.508h9.128v1.071h-7.968v7.065h7.521v1.084h-7.521V61.169z"/>
		</g>
		<g>
			<path d="M738.063,13.576c0,3.94-0.66,6.917-1.981,8.929c-1.322,2.013-3.263,3.02-5.819,3.02c-2.419,0-4.299-1.028-5.638-3.084
				s-2.009-5.011-2.009-8.864c0-3.922,0.644-6.877,1.932-8.864c1.287-1.987,3.191-2.981,5.715-2.981c2.506,0,4.435,1.028,5.78,3.084
				S738.063,9.792,738.063,13.576z M726.19,13.576c0,2.938,0.317,5.141,0.959,6.609c0.639,1.469,1.676,2.203,3.108,2.203
				c2.834,0,4.251-2.938,4.251-8.813c0-5.84-1.417-8.761-4.251-8.761c-1.435,0-2.472,0.726-3.108,2.177
				C726.51,8.444,726.19,10.639,726.19,13.576z M754.209,2.275l-21.021,37.894h-3.81l21.021-37.894H754.209z M760.896,28.765
				c0,3.922-0.661,6.89-1.983,8.903c-1.321,2.014-3.262,3.02-5.818,3.02c-2.454,0-4.342-1.026-5.663-3.084
				c-1.32-2.056-1.981-5.002-1.981-8.836c0-3.922,0.644-6.877,1.932-8.865c1.287-1.987,3.191-2.98,5.715-2.98
				c2.453,0,4.367,1.015,5.741,3.045C760.21,21.996,760.896,24.929,760.896,28.765z M748.999,28.765c0,2.955,0.32,5.162,0.959,6.622
				c0.64,1.461,1.686,2.19,3.137,2.19s2.522-0.722,3.214-2.165c0.691-1.442,1.037-3.659,1.037-6.648
				c0-2.955-0.346-5.145-1.037-6.571c-0.689-1.425-1.763-2.138-3.214-2.138c-1.45,0-2.497,0.713-3.137,2.138
				C749.319,23.62,748.999,25.81,748.999,28.765z"/>
		</g>
		<g>
			<path d="M655.085,23.154c5.667,0,10.178,1.59,13.532,4.771c3.354,3.181,5.032,7.538,5.032,13.072
				c0,6.549-2.021,11.588-6.057,15.117c-4.036,3.528-9.811,5.292-17.322,5.292c-6.521,0-11.786-1.057-15.798-3.167V47.533
				c2.111,1.123,4.571,2.039,7.378,2.747c2.809,0.708,5.469,1.063,7.979,1.063c7.563,0,11.348-3.101,11.348-9.302
				c0-5.908-3.917-8.861-11.749-8.861c-1.417,0-2.979,0.141-4.689,0.42c-1.711,0.28-3.103,0.582-4.17,0.902l-4.934-2.646
				l2.205-29.872h31.797v10.505h-20.931l-1.082,11.508l1.403-0.281C650.66,23.341,652.679,23.154,655.085,23.154z"/>
			<path d="M717.179,31.294c0,10.238-1.678,17.817-5.03,22.735c-3.354,4.919-8.521,7.378-15.497,7.378
				c-6.766,0-11.862-2.539-15.298-7.618c-3.437-5.079-5.152-12.577-5.152-22.495c0-10.345,1.671-17.97,5.013-22.875
				c3.341-4.905,8.486-7.358,15.438-7.358c6.763,0,11.875,2.566,15.337,7.699C715.448,13.892,717.179,21.404,717.179,31.294z
				 M688.51,31.294c0,7.19,0.621,12.345,1.864,15.458c1.243,3.114,3.334,4.671,6.275,4.671c2.887,0,4.972-1.577,6.255-4.731
				c1.283-3.152,1.925-8.285,1.925-15.396c0-7.191-0.648-12.356-1.944-15.498c-1.297-3.141-3.375-4.711-6.233-4.711
				c-2.914,0-4.999,1.57-6.255,4.711C689.138,18.938,688.51,24.103,688.51,31.294z"/>
		</g>
	</g>
	<g>
		<g>
			<path d="M20.385,23.106H8.827v9.009H21.75v4.596H3.23V6.043h17.837v4.596H8.827v7.917h11.558V23.106z"/>
			<path d="M26.662,36.711V6.043h6.371l7.917,13.15c2.048,3.413,3.822,6.962,5.233,10.283h0.091c-0.364-4.095-0.5-8.054-0.5-12.74
				V6.043h5.187v30.668h-5.778l-8.008-13.468c-1.957-3.367-4.004-7.144-5.506-10.602l-0.137,0.045
				c0.228,3.958,0.273,8.008,0.273,13.059v10.966H26.662z"/>
			<path d="M57.418,6.452c2.093-0.364,5.233-0.637,8.463-0.637c4.414,0,7.417,0.728,9.464,2.457
				c1.684,1.411,2.639,3.549,2.639,6.143c0,3.958-2.685,6.643-5.551,7.69v0.136c2.184,0.819,3.504,2.958,4.277,5.916
				c0.956,3.822,1.774,7.37,2.412,8.554h-5.779c-0.455-0.91-1.183-3.413-2.048-7.235c-0.864-4.004-2.32-5.278-5.505-5.369h-2.821
				v12.604h-5.551V6.452z M62.969,20.012h3.322c3.776,0,6.143-2.002,6.143-5.051c0-3.367-2.366-4.914-6.006-4.914
				c-1.774,0-2.912,0.137-3.458,0.273v9.692H62.969z"/>
			<path d="M110.516,21.058c0,10.284-6.233,16.153-14.697,16.153c-8.646,0-14.105-6.598-14.105-15.607
				c0-9.419,5.915-16.062,14.561-16.062C105.238,5.542,110.516,12.322,110.516,21.058z M87.628,21.513
				c0,6.234,3.14,11.193,8.509,11.193c5.415,0,8.463-5.005,8.463-11.421c0-5.778-2.867-11.239-8.463-11.239
				C90.586,10.047,87.628,15.188,87.628,21.513z"/>
			<path d="M115.336,6.043h5.597v25.981h12.604v4.687h-18.201V6.043z"/>
			<path d="M137.766,6.043h5.597v25.981h12.604v4.687h-18.201V6.043z"/>
			<path d="M175.21,6.043v30.668h-5.597V6.043H175.21z"/>
			<path d="M181.625,36.711V6.043h6.371l7.917,13.15c2.048,3.413,3.822,6.962,5.233,10.283h0.091c-0.364-4.095-0.5-8.054-0.5-12.74
				V6.043h5.187v30.668h-5.778l-8.008-13.468c-1.957-3.367-4.004-7.144-5.506-10.602l-0.137,0.045
				c0.228,3.958,0.273,8.008,0.273,13.059v10.966H181.625z"/>
			<path d="M229.307,12.186h-0.091l-5.415,2.73l-0.956-4.231l7.189-3.549h4.687v29.576h-5.415L229.307,12.186L229.307,12.186z"/>
			<path d="M277.581,35.801c-1.32,0.684-4.232,1.365-7.917,1.365c-9.737,0-15.652-6.097-15.652-15.425
				c0-10.101,7.007-16.198,16.38-16.198c3.686,0,6.325,0.773,7.462,1.365l-1.229,4.459c-1.456-0.637-3.458-1.183-6.006-1.183
				c-6.234,0-10.738,3.913-10.738,11.284c0,6.734,3.958,11.058,10.693,11.058c2.275,0,4.641-0.456,6.097-1.137L277.581,35.801z"/>
			<path d="M308.383,21.058c0,10.284-6.233,16.153-14.697,16.153c-8.646,0-14.105-6.598-14.105-15.607
				c0-9.419,5.915-16.062,14.561-16.062C303.105,5.542,308.383,12.322,308.383,21.058z M285.496,21.513
				c0,6.234,3.14,11.193,8.509,11.193c5.415,0,8.463-5.005,8.463-11.421c0-5.778-2.867-11.239-8.463-11.239
				C288.454,10.047,285.496,15.188,285.496,21.513z"/>
			<path d="M318.755,6.043v17.882c0,6.006,2.503,8.782,6.279,8.782c4.05,0,6.461-2.775,6.461-8.782V6.043h5.597v17.518
				c0,9.464-4.869,13.65-12.24,13.65c-7.098,0-11.694-3.958-11.694-13.605V6.043H318.755z"/>
			<path d="M343.504,6.452c2.093-0.364,5.233-0.637,8.463-0.637c4.414,0,7.417,0.728,9.464,2.457
				c1.684,1.411,2.639,3.549,2.639,6.143c0,3.958-2.685,6.643-5.551,7.69v0.136c2.184,0.819,3.504,2.958,4.277,5.916
				c0.956,3.822,1.774,7.37,2.412,8.554h-5.779c-0.455-0.91-1.183-3.413-2.047-7.235c-0.865-4.004-2.321-5.278-5.506-5.369h-2.821
				v12.604h-5.551V6.452z M349.056,20.012h3.322c3.776,0,6.143-2.002,6.143-5.051c0-3.367-2.366-4.914-6.006-4.914
				c-1.774,0-2.912,0.137-3.458,0.273L349.056,20.012L349.056,20.012z"/>
			<path d="M369.256,30.614c1.82,1.046,4.55,1.956,7.417,1.956c3.595,0,5.597-1.683,5.597-4.187c0-2.321-1.547-3.686-5.46-5.096
				c-5.051-1.82-8.281-4.505-8.281-8.918c0-5.005,4.186-8.827,10.829-8.827c3.322,0,5.779,0.728,7.373,1.547l-1.364,4.505
				c-1.093-0.592-3.23-1.456-6.097-1.456c-3.549,0-5.096,1.911-5.096,3.686c0,2.366,1.774,3.458,5.87,5.051
				c5.324,2.002,7.917,4.687,7.917,9.1c0,4.915-3.729,9.191-11.648,9.191c-3.23,0-6.598-0.91-8.281-1.911L369.256,30.614z"/>
			<path d="M410.16,23.106h-11.56v9.009h12.924v4.596h-18.521V6.043h17.836v4.596H398.6v7.917h11.56L410.16,23.106L410.16,23.106z"
				/>
			<path d="M445.237,36.711c-0.773-0.773-1.501-1.547-2.411-2.548c-2.321,1.957-5.144,3.049-8.646,3.049
				c-6.778,0-10.146-4.231-10.146-8.646c0-4.095,2.412-7.007,5.916-8.873v-0.137c-1.456-1.729-2.457-3.958-2.457-6.143
				c0-3.822,2.912-7.872,8.6-7.872c4.322,0,7.601,2.685,7.601,6.871c0,3.185-1.82,5.779-6.325,8.008l-0.045,0.182
				c2.139,2.457,4.505,5.187,6.188,7.007c1.319-2.048,2.229-4.915,2.775-8.145h5.005c-0.819,4.732-2.229,8.6-4.777,11.512
				c1.686,1.866,3.367,3.731,5.278,5.733h-6.553v0.002H445.237z M440.142,31.023c-1.864-1.957-4.776-5.188-7.645-8.509
				c-1.456,1.001-3.14,2.594-3.14,5.142c0,3.048,2.229,5.414,5.643,5.414C437.184,33.07,439.004,32.206,440.142,31.023z
				 M432.542,12.868c0,1.865,0.865,3.367,2.229,4.914c2.594-1.638,4.096-3.049,4.096-5.188c0-1.638-0.91-3.458-3.049-3.458
				C433.679,9.137,432.542,10.957,432.542,12.868z"/>
			<path d="M464.616,6.452c2.093-0.364,5.23-0.637,8.464-0.637c4.413,0,7.416,0.728,9.464,2.457c1.684,1.411,2.64,3.549,2.64,6.143
				c0,3.958-2.686,6.643-5.552,7.69v0.136c2.187,0.819,3.504,2.958,4.277,5.916c0.955,3.822,1.772,7.37,2.411,8.554h-5.778
				c-0.455-0.91-1.183-3.413-2.048-7.235c-0.864-4.004-2.32-5.278-5.506-5.369h-2.82v12.604h-5.552V6.452z M470.168,20.012h3.321
				c3.774,0,6.143-2.002,6.143-5.051c0-3.367-2.366-4.914-6.006-4.914c-1.774,0-2.912,0.137-3.458,0.273V20.012z"/>
			<path d="M507.658,23.106H496.1v9.009h12.925v4.596h-18.521V6.043h17.837v4.596H496.1v7.917h11.56L507.658,23.106L507.658,23.106z
				"/>
			<path d="M535.913,35.801c-1.319,0.684-4.231,1.365-7.917,1.365c-9.737,0-15.653-6.097-15.653-15.425
				c0-10.101,7.008-16.198,16.381-16.198c3.688,0,6.325,0.773,7.462,1.365l-1.229,4.459c-1.456-0.637-3.458-1.183-6.006-1.183
				c-6.233,0-10.738,3.913-10.738,11.284c0,6.734,3.959,11.058,10.693,11.058c2.272,0,4.641-0.456,6.097-1.137L535.913,35.801z"/>
			<path d="M570.285,6.043v30.668h-5.599V6.043H570.285z"/>
			<path d="M558.854,23.106h-11.558v9.009h12.923v4.596h-18.52V6.043h17.837v4.596h-12.24v7.917h11.558V23.106L558.854,23.106z"/>
			<path d="M583.503,36.711l-9.92-30.668h6.098l4.188,13.923c1.184,3.868,2.185,7.462,3.004,11.193h0.091
				c0.818-3.64,1.911-7.371,3.141-11.103l4.459-14.014h5.962L589.919,36.71L583.503,36.711L583.503,36.711z"/>
			<path d="M620.993,23.106h-11.56v9.009h12.925v4.596h-18.521V6.043h17.837v4.596h-12.24v7.917h11.56V23.106L620.993,23.106z"/>
		</g>
	</g>
</g>
<g id="Layer_2">
</g>
</svg>
