<?xml version="1.0" encoding="utf-8"?>
<!-- Generator: Adobe Illustrator 16.0.3, SVG Export Plug-In . SVG Version: 6.00 Build 0)  -->
<!DOCTYPE svg PUBLIC "-//W3C//DTD SVG 1.1//EN" "http://www.w3.org/Graphics/SVG/1.1/DTD/svg11.dtd">
<svg version="1.1" id="Layer_1" xmlns="http://www.w3.org/2000/svg" xmlns:xlink="http://www.w3.org/1999/xlink" x="0px" y="0px"
	 width="600px" height="650px" viewBox="0 0 600 650" enable-background="new 0 0 600 650" xml:space="preserve">
<path fill="#FF0000" d="M285.484,650l7.258-139.193c0.39-8.453-6.147-15.623-14.601-16.012c-1.105-0.051-2.212,0.018-3.302,0.205
	L136.29,519.354L155,467.742c1.557-4.211,0.259-8.945-3.226-11.774L0,333.064l34.193-15.968c4.778-2.258,7.129-7.72,5.484-12.742
	l-30-92.258l87.419,18.548c4.883,1.018,9.808-1.545,11.774-6.129l16.936-39.839l68.226,73.226
	c3.983,4.202,10.619,4.379,14.821,0.395c2.596-2.461,3.758-6.076,3.082-9.588L179.032,79.032l52.742,30.484
	c4.995,2.928,11.418,1.251,14.346-3.744c0.117-0.2,0.228-0.404,0.332-0.611L300,0l53.549,105.161
	c2.59,5.179,8.888,7.276,14.066,4.687c0.207-0.104,0.41-0.214,0.61-0.332l52.742-30.484L388.064,248.71
	c-1.094,5.686,2.629,11.182,8.314,12.275c3.513,0.676,7.128-0.486,9.589-3.082l68.226-73.226l16.936,39.839
	c1.967,4.583,6.891,7.147,11.774,6.129l87.419-18.548l-30,92.258c-1.645,5.022,0.706,10.484,5.484,12.742L600,333.064
	L448.226,455.968c-3.485,2.829-4.782,7.563-3.226,11.774l18.71,51.612L325.161,495c-8.34-1.435-16.264,4.164-17.698,12.504
	c-0.188,1.09-0.256,2.197-0.205,3.303L314.516,650H285.484z"/>
</svg>
