<?xml version="1.0" encoding="utf-8"?>
<!-- Generator: Adobe Illustrator 16.0.3, SVG Export Plug-In . SVG Version: 6.00 Build 0)  -->
<!DOCTYPE svg PUBLIC "-//W3C//DTD SVG 1.1//EN" "http://www.w3.org/Graphics/SVG/1.1/DTD/svg11.dtd">
<svg version="1.1" id="Layer_1" xmlns="http://www.w3.org/2000/svg" xmlns:xlink="http://www.w3.org/1999/xlink" x="0px" y="0px"
	 width="48px" height="32px" viewBox="0 0 48 32" enable-background="new 0 0 48 32" xml:space="preserve">
<path d="M70.4-12.8v-0.4h0.2v-0.1h-0.4v0.1h0.2L70.4-12.8L70.4-12.8z M71.2-12.8v-0.5h-0.1l-0.2,0.4l-0.2-0.4h-0.1v0.5h0.1v-0.4
	l0.1,0.3H71l0.1-0.3L71.2-12.8L71.2-12.8z"/>
<g>
	<linearGradient id="SVGID_1_" gradientUnits="userSpaceOnUse" x1="24.0005" y1="31.5" x2="24.0005" y2="0.5005">
		<stop  offset="0" style="stop-color:#1C2769"/>
		<stop  offset="1" style="stop-color:#265B91"/>
	</linearGradient>
	<path fill="url(#SVGID_1_)" d="M3,31.5c-1.4,0-2.5-1.1-2.5-2.5V3c0-1.4,1.1-2.5,2.5-2.5h42c1.4,0,2.5,1.1,2.5,2.5v26
		c0,1.4-1.1,2.5-2.5,2.5H3z"/>
	<path fill="#3E548B" d="M45,1c1.1,0,2,0.9,2,2v26c0,1.1-0.9,2-2,2H3c-1.1,0-2-0.9-2-2V3c0-1.1,0.9-2,2-2H45 M45,0H3
		C1.3,0,0,1.3,0,3v26c0,1.7,1.3,3,3,3h42c1.7,0,3-1.3,3-3V3C48,1.3,46.7,0,45,0L45,0z"/>
</g>
<g>
	<rect x="18.7" y="7.4" fill="#FF5F00" width="10.6" height="17.3"/>
	<path fill="#EB001B" d="M19.8,16c0-3.4,1.5-6.6,4.2-8.6C19.2,3.6,12.3,4.4,8.6,9.2C4.8,14,5.6,20.9,10.4,24.6c4,3.1,9.6,3.1,13.6,0
		C21.3,22.6,19.8,19.4,19.8,16z"/>
	<path fill="#F79E1B" d="M41.8,16c0,6.1-4.9,11-11,11c-2.5,0-4.9-0.8-6.8-2.4c4.8-3.8,5.6-10.7,1.9-15.4c-0.5-0.7-1.2-1.3-1.9-1.9
		c4.8-3.8,11.7-2.9,15.4,1.8C41,11.1,41.8,13.5,41.8,16L41.8,16z"/>
</g>
</svg>
