<?xml version="1.0" encoding="utf-8"?>
<!-- Generator: Adobe Illustrator 16.0.3, SVG Export Plug-In . SVG Version: 6.00 Build 0)  -->
<!DOCTYPE svg PUBLIC "-//W3C//DTD SVG 1.1//EN" "http://www.w3.org/Graphics/SVG/1.1/DTD/svg11.dtd">
<svg version="1.1" id="Layer_1" xmlns="http://www.w3.org/2000/svg" xmlns:xlink="http://www.w3.org/1999/xlink" x="0px" y="0px"
	 width="124px" height="33px" viewBox="0 0 124 33" enable-background="new 0 0 124 33" xml:space="preserve">
<path fill="#707070" d="M46.2,6.7h-6.8c-0.5,0-0.9,0.3-0.9,0.8l-2.8,17.5c0,0.3,0.2,0.6,0.5,0.7c0,0,0.1,0,0.1,0h3.3
	c0.5,0,0.9-0.3,0.9-0.8l0.7-4.7c0.1-0.5,0.5-0.8,0.9-0.8h2.2c4.5,0,7.1-2.2,7.8-6.5c0.3-1.9,0-3.4-0.9-4.4
	C50.2,7.4,48.5,6.7,46.2,6.7z M47,13.2c-0.4,2.5-2.2,2.5-4.1,2.5h-1l0.7-4.6c0-0.3,0.3-0.5,0.6-0.5h0.5c1.2,0,2.4,0,3,0.7
	C47,11.7,47.1,12.3,47,13.2z M66.7,13.1h-3.3c-0.3,0-0.5,0.2-0.6,0.5l-0.1,0.9l-0.2-0.3c-0.7-1-2.3-1.4-3.9-1.4
	c-3.6,0-6.7,2.7-7.3,6.6c-0.3,1.9,0.1,3.8,1.2,5c1,1.2,2.4,1.7,4.1,1.7c2.9,0,4.5-1.9,4.5-1.9L61,25.1c0,0.3,0.2,0.6,0.5,0.7
	c0,0,0.1,0,0.1,0h2.9c0.5,0,0.9-0.3,0.9-0.8l1.8-11.2C67.3,13.4,67.1,13.1,66.7,13.1C66.7,13.1,66.7,13.1,66.7,13.1z M62.1,19.4
	c-0.3,1.9-1.8,3.1-3.7,3.1c-1,0-1.7-0.3-2.2-0.9c-0.5-0.6-0.7-1.4-0.5-2.3c0.3-1.9,1.8-3.2,3.7-3.2c0.9,0,1.7,0.3,2.2,0.9
	C62,17.7,62.2,18.5,62.1,19.4z M84.1,13.1h-3.3c-0.3,0-0.6,0.2-0.8,0.4l-4.5,6.7l-1.9-6.4c-0.1-0.4-0.5-0.7-0.9-0.7h-3.2
	c-0.3,0-0.6,0.3-0.6,0.6c0,0.1,0,0.1,0,0.2l3.6,10.6l-3.4,4.8c-0.2,0.3-0.1,0.6,0.1,0.8c0.1,0.1,0.2,0.1,0.3,0.1h3.3
	c0.3,0,0.6-0.2,0.8-0.4L84.6,14c0.2-0.3,0.1-0.6-0.1-0.8C84.3,13.1,84.2,13.1,84.1,13.1L84.1,13.1z"/>
<path fill="#ADADAD" d="M95,6.7h-6.8c-0.5,0-0.9,0.3-0.9,0.8l-2.8,17.5c0,0.3,0.2,0.6,0.5,0.7c0,0,0.1,0,0.1,0h3.5
	c0.3,0,0.6-0.2,0.7-0.6l0.8-5c0.1-0.5,0.5-0.8,0.9-0.8h2.2c4.5,0,7.1-2.2,7.8-6.5c0.3-1.9,0-3.4-0.9-4.4C99,7.4,97.3,6.7,95,6.7z
	 M95.8,13.2c-0.4,2.5-2.2,2.5-4.1,2.5h-1l0.7-4.6c0-0.3,0.3-0.5,0.6-0.5h0.5c1.2,0,2.4,0,3,0.7C95.8,11.7,95.9,12.3,95.8,13.2z
	 M115.4,13.1h-3.3c-0.3,0-0.5,0.2-0.6,0.5l-0.1,0.9l-0.2-0.3c-0.7-1-2.3-1.4-3.9-1.4c-3.6,0-6.7,2.7-7.3,6.6c-0.3,1.9,0.1,3.8,1.2,5
	c1,1.2,2.4,1.7,4.1,1.7c2.9,0,4.5-1.9,4.5-1.9l-0.1,0.9c0,0.3,0.2,0.6,0.5,0.7c0,0,0.1,0,0.1,0h2.9c0.5,0,0.9-0.3,0.9-0.8l1.8-11.2
	C116,13.4,115.8,13.1,115.4,13.1C115.5,13.1,115.5,13.1,115.4,13.1L115.4,13.1z M110.9,19.4c-0.3,1.9-1.8,3.1-3.7,3.1
	c-0.9,0-1.7-0.3-2.2-0.9c-0.5-0.6-0.7-1.4-0.5-2.3c0.3-1.9,1.8-3.2,3.7-3.2c0.9,0,1.7,0.3,2.2,0.9C110.8,17.7,111,18.5,110.9,19.4z
	 M119.3,7.2l-2.8,17.9c0,0.3,0.2,0.6,0.5,0.7c0,0,0.1,0,0.1,0h2.8c0.5,0,0.9-0.3,0.9-0.8l2.8-17.5c0-0.3-0.2-0.6-0.5-0.7
	c0,0-0.1,0-0.1,0h-3.2C119.6,6.7,119.3,7,119.3,7.2z"/>
<path fill="#707070" d="M7.3,29.2l0.5-3.3l-1.2,0H1.1L4.9,1.3C5,1.1,5.1,1,5.2,1h9.4C17.7,1,19.9,1.7,21,3c0.5,0.6,0.9,1.2,1,1.9
	c0.2,0.7,0.2,1.6,0,2.6l0,0.1v0.7l0.5,0.3C23,8.8,23.3,9,23.6,9.4c0.4,0.5,0.7,1.2,0.9,1.9c0.1,0.8,0.1,1.7-0.1,2.8
	c-0.2,1.2-0.6,2.3-1.2,3.2c-0.5,0.8-1.1,1.5-1.8,2c-0.7,0.5-1.5,0.9-2.5,1.1c-0.9,0.2-1.9,0.4-3.1,0.4h-0.7c-0.5,0-1,0.2-1.4,0.5
	c-0.4,0.3-0.7,0.8-0.7,1.3l-0.1,0.3L12,28.8l0,0.2c0,0.1,0,0.1-0.1,0.1c0,0-0.1,0-0.1,0H7.3z"/>
<path fill="#ADADAD" d="M23,7.7C23,7.8,23,8,23,8.2c-1.2,6.4-5.5,8.5-10.9,8.5H9.3c-0.7,0-1.2,0.5-1.3,1.1l-1.4,8.9l-0.4,2.5
	c-0.1,0.4,0.2,0.7,0.6,0.8c0,0,0.1,0,0.1,0h4.9c0.6,0,1.1-0.4,1.2-1l0-0.2l0.9-5.8l0.1-0.3c0.1-0.6,0.6-1,1.2-1h0.7
	c4.7,0,8.4-1.9,9.5-7.5c0.5-2.3,0.2-4.3-1-5.6C24,8.3,23.6,7.9,23,7.7z"/>
<path fill="#636363" d="M21.8,7.2C21.4,7,21,6.9,20.6,6.9c-0.8-0.1-1.6-0.2-2.4-0.2h-7.4c-0.6,0-1.1,0.4-1.2,1L8,17.6l0,0.3
	c0.1-0.7,0.7-1.1,1.3-1.1h2.8c5.4,0,9.6-2.2,10.9-8.5C23,8,23,7.8,23,7.7c-0.3-0.2-0.7-0.3-1-0.4C21.9,7.2,21.8,7.2,21.8,7.2z"/>
<path fill="#707070" d="M9.6,7.7c0.1-0.6,0.6-1,1.2-1h7.4c0.9,0,1.7,0.1,2.4,0.2c0.5,0.1,1,0.2,1.5,0.4c0.4,0.1,0.7,0.3,1,0.4
	c0.4-2.3,0-3.9-1.3-5.4C20.4,0.7,17.9,0,14.6,0H5.2C4.6,0,4,0.5,3.9,1.1L0,25.9c-0.1,0.4,0.2,0.9,0.7,0.9c0,0,0.1,0,0.1,0h5.8
	L8,17.6L9.6,7.7z"/>
</svg>
