<?xml version="1.0" encoding="utf-8"?>
<!-- Generator: Adobe Illustrator 16.0.3, SVG Export Plug-In . SVG Version: 6.00 Build 0)  -->
<!DOCTYPE svg PUBLIC "-//W3C//DTD SVG 1.1//EN" "http://www.w3.org/Graphics/SVG/1.1/DTD/svg11.dtd">
<svg version="1.1" id="Layer_1" xmlns="http://www.w3.org/2000/svg" xmlns:xlink="http://www.w3.org/1999/xlink" x="0px" y="0px"
	 width="48px" height="32px" viewBox="0 0 48 32" enable-background="new 0 0 48 32" xml:space="preserve">
<g>
	<linearGradient id="SVGID_1_" gradientUnits="userSpaceOnUse" x1="24.0005" y1="31.5" x2="24.0005" y2="0.5005">
		<stop  offset="0" style="stop-color:#F1F1F1"/>
		<stop  offset="1" style="stop-color:#FFFFFF"/>
	</linearGradient>
	<path fill="url(#SVGID_1_)" d="M3,31.5c-1.4,0-2.5-1.1-2.5-2.5V3c0-1.4,1.1-2.5,2.5-2.5h42c1.4,0,2.5,1.1,2.5,2.5v26
		c0,1.4-1.1,2.5-2.5,2.5H3z"/>
	<path fill="#E7E7E7" d="M45,1c1.1,0,2,0.9,2,2v26c0,1.1-0.9,2-2,2H3c-1.1,0-2-0.9-2-2V3c0-1.1,0.9-2,2-2H45 M45,0H3
		C1.3,0,0,1.3,0,3v26c0,1.7,1.3,3,3,3h42c1.7,0,3-1.3,3-3V3C48,1.3,46.7,0,45,0L45,0z"/>
</g>
<g id="g4158" transform="matrix(4.4299631,0,0,4.4299631,-81.165783,-105.04783)">
	<polygon id="polygon9" fill="#01579E" points="23.1,28.6 22.4,28.6 22.8,26.1 23.5,26.1 	"/>
	<path id="path11" fill="#01579E" d="M25.5,26.1c-0.1-0.1-0.3-0.1-0.6-0.1c-0.7,0-1.1,0.3-1.1,0.8c0,0.4,0.3,0.6,0.6,0.7
		c0.3,0.1,0.3,0.2,0.3,0.3c0,0.2-0.2,0.2-0.4,0.2c-0.3,0-0.4,0-0.6-0.1l-0.1,0l-0.1,0.6c0.2,0.1,0.4,0.1,0.7,0.1
		c0.7,0,1.1-0.3,1.1-0.9c0-0.3-0.2-0.5-0.6-0.7c-0.2-0.1-0.4-0.2-0.4-0.3c0-0.1,0.1-0.2,0.4-0.2c0.2,0,0.4,0,0.5,0.1l0.1,0
		L25.5,26.1L25.5,26.1L25.5,26.1z"/>
	<path id="path13" fill="#01579E" d="M26.3,27.7c0.1-0.1,0.3-0.7,0.3-0.7c0,0,0.1-0.1,0.1-0.2l0,0.2c0,0,0.1,0.6,0.2,0.7
		C26.8,27.7,26.5,27.7,26.3,27.7L26.3,27.7z M27.2,26.1h-0.5c-0.2,0-0.3,0-0.3,0.2l-1,2.3H26c0,0,0.1-0.3,0.1-0.4c0.1,0,0.7,0,0.8,0
		c0,0.1,0.1,0.4,0.1,0.4h0.6L27.2,26.1L27.2,26.1L27.2,26.1z"/>
	<path id="path15" fill="#01579E" d="M21.9,26.1l-0.6,1.7l-0.1-0.4c-0.1-0.4-0.5-0.8-0.9-1.1l0.6,2.2h0.7l1-2.5H21.9L21.9,26.1
		L21.9,26.1z"/>
	<path id="path17" fill="#F9A61B" d="M20.6,26.1h-1.1l0,0.1c0.8,0.2,1.4,0.7,1.6,1.3l-0.2-1.2C20.9,26.1,20.8,26.1,20.6,26.1
		L20.6,26.1z"/>
</g>
</svg>
