<?xml version="1.0" encoding="utf-8"?>
<!-- Generator: Adobe Illustrator 16.0.3, SVG Export Plug-In . SVG Version: 6.00 Build 0)  -->
<!DOCTYPE svg PUBLIC "-//W3C//DTD SVG 1.1//EN" "http://www.w3.org/Graphics/SVG/1.1/DTD/svg11.dtd">
<svg version="1.1" xmlns="http://www.w3.org/2000/svg" xmlns:xlink="http://www.w3.org/1999/xlink" x="0px" y="0px"
	 width="351.625px" height="40.155px" viewBox="0 0 351.625 40.155" enable-background="new 0 0 351.625 40.155"
	 xml:space="preserve">
<g id="Layer_1">
	<rect fill="#FF0069" width="351.625" height="40.155"/>
	<g>
		<path fill="#FFFFFF" d="M187.08,11.344h4.3l4.228,11.208h0.048l4.3-11.208h4.034l-7.054,17.102h-3.02L187.08,11.344z"/>
		<path fill="#FFFFFF" d="M205.367,11.344h3.769v17.102h-3.769V11.344z"/>
		<path fill="#FFFFFF" d="M212.204,11.344h6.353c3.551,0,6.498,1.135,6.498,5.193c0,4.01-2.729,5.242-6.329,5.242h-2.754v6.667
			h-3.768V11.344z M215.972,18.59h2.513c1.328,0,2.657-0.459,2.657-2.053c0-1.763-1.788-2.005-3.237-2.005h-1.933V18.59z"/>
		<path fill="#FFFFFF" d="M226.505,24.604l6.643-5.966c0.677-0.628,1.521-1.353,1.521-2.392c0-1.159-0.99-1.86-2.102-1.86
			c-1.328,0-2.125,0.942-2.222,2.174l-3.623-0.266c0.217-3.526,2.681-5.241,6.038-5.241c3.116,0,5.531,1.715,5.531,5.145
			c0,2.198-0.941,3.454-2.246,4.589l-5.193,4.469h7.585v3.188h-11.933V24.604z"/>
		<path fill="#FFFFFF" d="M246.409,11.054c5.073,0,6.354,4.782,6.354,8.84s-1.28,8.841-6.354,8.841
			c-5.072,0-6.353-4.783-6.353-8.841S241.337,11.054,246.409,11.054z M246.409,25.402c2.609,0,2.729-3.72,2.729-5.507
			s-0.12-5.507-2.729-5.507c-2.608,0-2.729,3.72-2.729,5.507S243.801,25.402,246.409,25.402z"/>
		<path fill="#FFFFFF" d="M254.382,24.604l6.643-5.966c0.677-0.628,1.521-1.353,1.521-2.392c0-1.159-0.99-1.86-2.102-1.86
			c-1.328,0-2.125,0.942-2.222,2.174l-3.623-0.266c0.217-3.526,2.681-5.241,6.038-5.241c3.116,0,5.531,1.715,5.531,5.145
			c0,2.198-0.941,3.454-2.246,4.589l-5.193,4.469h7.585v3.188h-11.933V24.604z"/>
		<path fill="#FFFFFF" d="M274.094,15.402l-3.43,3.019l-2.053-2.367l5.579-4.71h3.382v17.102h-3.479V15.402z"/>
	</g>
	<g>
		<path fill="#FFFFFF" d="M43.755,11.111h1.574L52.227,27.5h-1.713l-1.782-4.352h-8.68L38.2,27.5h-1.597L43.755,11.111z
			 M44.473,12.778l-3.819,8.981h7.523L44.473,12.778z"/>
		<path fill="#FFFFFF" d="M54.246,11.111h4.722c2.315,0,5.278,0.903,5.278,4.329c0,2.963-2.361,4.283-4.931,4.283h-3.542V27.5
			h-1.528V11.111z M55.774,18.333h3.472c1.736,0,3.472-0.741,3.472-2.894c0-2.106-1.806-2.939-3.564-2.939h-3.38V18.333z"/>
		<path fill="#FFFFFF" d="M67.189,11.111h4.722c2.315,0,5.278,0.903,5.278,4.329c0,2.963-2.361,4.283-4.931,4.283h-3.542V27.5
			h-1.528V11.111z M68.717,18.333h3.472c1.736,0,3.472-0.741,3.472-2.894c0-2.106-1.806-2.939-3.564-2.939h-3.38V18.333z"/>
		<path fill="#FFFFFF" d="M80.132,11.111h1.528v15h7.639V27.5h-9.167V11.111z"/>
		<path fill="#FFFFFF" d="M92.427,20.44l-6.018-9.329h1.829l4.954,7.778l5.069-7.778h1.713l-6.019,9.329v7.06h-1.528V20.44z"/>
		<path fill="#FFFFFF" d="M120.904,24.931c-1.551,2.129-3.68,2.986-6.088,2.986c-5,0-8.472-3.611-8.472-8.611
			s3.472-8.611,8.472-8.611c2.222,0,4.213,0.741,5.648,2.569l-1.25,1.042c-1.019-1.527-2.755-2.222-4.398-2.222
			c-4.282,0-6.944,3.148-6.944,7.222c0,4.074,2.662,7.222,6.944,7.222c1.644,0,3.681-0.787,4.838-2.546L120.904,24.931z"/>
		<path fill="#FFFFFF" d="M130.77,10.695c5,0,8.472,3.611,8.472,8.611s-3.472,8.611-8.472,8.611c-5,0-8.472-3.611-8.472-8.611
			S125.77,10.695,130.77,10.695z M130.77,26.528c4.283,0,6.944-3.148,6.944-7.222c0-4.074-2.662-7.222-6.944-7.222
			c-4.282,0-6.944,3.148-6.944,7.222C123.826,23.38,126.487,26.528,130.77,26.528z"/>
		<path fill="#FFFFFF" d="M142.118,11.111h5.069c8.518,0,8.865,6.991,8.865,8.194s-0.347,8.194-8.865,8.194h-5.069V11.111z
			 M143.646,26.111h3.148c4.352,0,7.731-2.106,7.731-6.806c0-4.699-3.38-6.805-7.731-6.805h-3.148V26.111z"/>
		<path fill="#FFFFFF" d="M159.136,11.111h10.023V12.5h-8.495v5.833h7.963v1.389h-7.963v6.389h8.866V27.5h-10.394V11.111z"/>
		<path fill="#FFFFFF" d="M173.284,16.667c0.625,0,1.111,0.486,1.111,1.111s-0.486,1.111-1.111,1.111s-1.111-0.486-1.111-1.111
			S172.659,16.667,173.284,16.667z M173.284,25.417c0.625,0,1.111,0.486,1.111,1.111s-0.486,1.111-1.111,1.111
			s-1.111-0.486-1.111-1.111S172.659,25.417,173.284,25.417z"/>
	</g>
	<g>
		<g>
			<path fill="#FFFFFF" d="M308.614,16.702c-0.222,0-0.457-0.17-0.525-0.382l-2.174-6.684c-0.068-0.212-0.179-0.212-0.247,0
				l-2.171,6.684c-0.068,0.212-0.305,0.382-0.528,0.382h-7.026c-0.223,0-0.258,0.106-0.077,0.235l5.685,4.132
				c0.181,0.13,0.271,0.406,0.202,0.618l-2.173,6.684c-0.069,0.21,0.022,0.277,0.202,0.145l5.685-4.13
				c0.181-0.131,0.471-0.131,0.652,0l5.686,4.132c0.179,0.13,0.269,0.065,0.2-0.147l-2.171-6.684c-0.067-0.212,0.02-0.488,0.2-0.618
				l5.687-4.132c0.179-0.129,0.146-0.235-0.076-0.235H308.614z M308.614,16.702"/>
		</g>
	</g>
</g>
<g id="Layer_5" display="none">
	<rect display="inline" fill="#40D31C" width="351.625" height="40.155"/>
	<g display="inline">
		<path fill="#FFFFFF" d="M39.578,24.819c-1.619,2.222-3.841,3.116-6.353,3.116c-5.217,0-8.84-3.768-8.84-8.985
			s3.623-8.985,8.84-8.985c2.319,0,4.396,0.773,5.894,2.681l-1.304,1.087c-1.063-1.594-2.875-2.319-4.59-2.319
			c-4.468,0-7.246,3.285-7.246,7.536c0,4.251,2.778,7.536,7.246,7.536c1.715,0,3.841-0.821,5.048-2.657L39.578,24.819z"/>
		<path fill="#FFFFFF" d="M49.871,9.964c5.218,0,8.841,3.768,8.841,8.985s-3.623,8.985-8.841,8.985c-5.217,0-8.84-3.768-8.84-8.985
			S44.654,9.964,49.871,9.964z M49.871,26.485c4.469,0,7.247-3.285,7.247-7.536c0-4.251-2.778-7.536-7.247-7.536
			c-4.468,0-7.246,3.285-7.246,7.536C42.625,23.201,45.403,26.485,49.871,26.485z"/>
		<path fill="#FFFFFF" d="M61.711,10.398h5.29c8.889,0,9.251,7.295,9.251,8.551S75.89,27.5,67.001,27.5h-5.29V10.398z
			 M63.306,26.051h3.285c4.541,0,8.068-2.198,8.068-7.102s-3.527-7.102-8.068-7.102h-3.285V26.051z"/>
		<path fill="#FFFFFF" d="M79.468,10.398h10.459v1.449h-8.865v6.087h8.31v1.449h-8.31v6.667h9.251V27.5H79.468V10.398z"/>
		<path fill="#FFFFFF" d="M104.593,10.398h1.643l7.198,17.102h-1.788l-1.86-4.541h-9.058L98.796,27.5h-1.667L104.593,10.398z
			 M105.342,12.138l-3.986,9.372h7.851L105.342,12.138z"/>
		<path fill="#FFFFFF" d="M115.539,10.398h4.928c2.416,0,5.507,0.942,5.507,4.517c0,3.092-2.464,4.468-5.145,4.468h-3.696V27.5
			h-1.594V10.398z M117.133,17.935h3.624c1.812,0,3.623-0.773,3.623-3.019c0-2.198-1.884-3.068-3.72-3.068h-3.527V17.935z"/>
		<path fill="#FFFFFF" d="M129.044,10.398h4.928c2.416,0,5.507,0.942,5.507,4.517c0,3.092-2.464,4.468-5.145,4.468h-3.696V27.5
			h-1.594V10.398z M130.638,17.935h3.624c1.812,0,3.623-0.773,3.623-3.019c0-2.198-1.884-3.068-3.72-3.068h-3.527V17.935z"/>
		<path fill="#FFFFFF" d="M142.549,10.398h1.594v15.652h7.971V27.5h-9.565V10.398z"/>
		<path fill="#FFFFFF" d="M154.267,10.398h1.594V27.5h-1.594V10.398z"/>
		<path fill="#FFFFFF" d="M160.186,10.398h10.459v1.449h-8.865v6.087h8.31v1.449h-8.31v6.667h9.251V27.5h-10.846V10.398z"/>
		<path fill="#FFFFFF" d="M173.933,10.398h5.29c8.889,0,9.251,7.295,9.251,8.551s-0.362,8.551-9.251,8.551h-5.29V10.398z
			 M175.527,26.051h3.285c4.541,0,8.067-2.198,8.067-7.102s-3.526-7.102-8.067-7.102h-3.285V26.051z"/>
		<path fill="#FFFFFF" d="M192.487,16.196c0.652,0,1.159,0.507,1.159,1.159s-0.507,1.16-1.159,1.16s-1.16-0.507-1.16-1.16
			S191.835,16.196,192.487,16.196z M192.487,25.326c0.652,0,1.159,0.507,1.159,1.159c0,0.652-0.507,1.16-1.159,1.16
			s-1.16-0.507-1.16-1.16C191.328,25.833,191.835,25.326,192.487,25.326z"/>
	</g>
	<g display="inline">
		<polygon fill="#FFFFFF" points="327.249,13.039 319.661,22.423 314.207,17.959 312.101,20.533 317.57,25.01 320.144,27.117 
			322.235,24.53 329.835,15.129 		"/>
	</g>
	<g display="inline">
		<path fill="#FFFFFF" d="M202.08,11.344h4.3l4.228,11.208h0.048l4.3-11.208h4.034l-7.054,17.102h-3.02L202.08,11.344z"/>
		<path fill="#FFFFFF" d="M220.367,11.344h3.769v17.102h-3.769V11.344z"/>
		<path fill="#FFFFFF" d="M227.204,11.344h6.353c3.551,0,6.498,1.135,6.498,5.193c0,4.01-2.729,5.242-6.329,5.242h-2.754v6.667
			h-3.768V11.344z M230.972,18.59h2.513c1.328,0,2.657-0.459,2.657-2.053c0-1.763-1.788-2.005-3.237-2.005h-1.933V18.59z"/>
		<path fill="#FFFFFF" d="M241.505,24.604l6.643-5.966c0.677-0.628,1.521-1.353,1.521-2.392c0-1.159-0.99-1.86-2.102-1.86
			c-1.328,0-2.125,0.942-2.222,2.174l-3.623-0.266c0.217-3.526,2.681-5.241,6.038-5.241c3.116,0,5.531,1.715,5.531,5.145
			c0,2.198-0.941,3.454-2.246,4.589l-5.193,4.469h7.585v3.188h-11.933V24.604z"/>
		<path fill="#FFFFFF" d="M261.409,11.054c5.073,0,6.354,4.782,6.354,8.84s-1.28,8.841-6.354,8.841
			c-5.072,0-6.353-4.783-6.353-8.841S256.337,11.054,261.409,11.054z M261.409,25.402c2.609,0,2.729-3.72,2.729-5.507
			s-0.12-5.507-2.729-5.507c-2.608,0-2.729,3.72-2.729,5.507S258.801,25.402,261.409,25.402z"/>
		<path fill="#FFFFFF" d="M269.382,24.604l6.643-5.966c0.677-0.628,1.521-1.353,1.521-2.392c0-1.159-0.99-1.86-2.102-1.86
			c-1.328,0-2.125,0.942-2.222,2.174l-3.623-0.266c0.217-3.526,2.681-5.241,6.038-5.241c3.116,0,5.531,1.715,5.531,5.145
			c0,2.198-0.941,3.454-2.246,4.589l-5.193,4.469h7.585v3.188h-11.933V24.604z"/>
		<path fill="#FFFFFF" d="M289.094,15.402l-3.43,3.019l-2.053-2.367l5.579-4.71h3.382v17.102h-3.479V15.402z"/>
	</g>
</g>
</svg>
