<?xml version="1.0" encoding="utf-8"?>
<!-- Generator: Adobe Illustrator 16.0.3, SVG Export Plug-In . SVG Version: 6.00 Build 0)  -->
<!DOCTYPE svg PUBLIC "-//W3C//DTD SVG 1.1//EN" "http://www.w3.org/Graphics/SVG/1.1/DTD/svg11.dtd">
<svg version="1.1" xmlns="http://www.w3.org/2000/svg" xmlns:xlink="http://www.w3.org/1999/xlink" x="0px" y="0px"
	 width="296.583px" height="40.155px" viewBox="0 0 296.583 40.155" enable-background="new 0 0 296.583 40.155"
	 xml:space="preserve">
<g id="Layer_1" display="none">
	<rect display="inline" fill="#3A52EB" width="296.583" height="40.155"/>
	<g display="inline">
		<g>
			<path fill="#FFFFFF" d="M183.733,17.043h-4.041v-2.761h11.203v2.761h-4.041v11.402h-3.121V17.043z"/>
			<path fill="#FFFFFF" d="M192.173,14.282h5.48c2.9,0,5.342,1,5.342,4.301c0,1.98-1.061,3.521-3.061,3.881l3.6,5.981h-3.74
				l-2.961-5.661h-1.541v5.661h-3.119V14.282z M195.292,20.144h1.842c1.141,0,2.619-0.04,2.619-1.581c0-1.42-1.279-1.64-2.42-1.64
				h-2.041V20.144z"/>
			<path fill="#FFFFFF" d="M204.952,14.282h9.623v2.881h-6.502v2.64h6.141v2.881h-6.141v2.881h6.861v2.88h-9.982V14.282z"/>
			<path fill="#FFFFFF" d="M221.794,14.282h2.58l6.16,14.163h-3.52l-1.221-3h-5.502l-1.18,3h-3.439L221.794,14.282z M222.993,18.403
				l-1.721,4.401h3.461L222.993,18.403z"/>
			<path fill="#FFFFFF" d="M232.552,17.043h-4.041v-2.761h11.203v2.761h-4.041v11.402h-3.121V17.043z"/>
		</g>
		<g>
			<path fill="#FFFFFF" d="M63.153,14.337h1.36L70.475,28.5h-1.48l-1.541-3.761h-7.501l-1.6,3.761h-1.38L63.153,14.337z
				 M63.773,15.777l-3.301,7.762h6.501L63.773,15.777z"/>
			<path fill="#FFFFFF" d="M72.212,14.337h4.081c2,0,4.561,0.78,4.561,3.741c0,2.561-2.04,3.701-4.261,3.701h-3.061V28.5h-1.32
				V14.337z M73.532,20.578h3c1.5,0,3.001-0.64,3.001-2.5c0-1.82-1.561-2.541-3.081-2.541h-2.92V20.578z"/>
			<path fill="#FFFFFF" d="M83.392,14.337h4.081c2,0,4.561,0.78,4.561,3.741c0,2.561-2.04,3.701-4.261,3.701h-3.061V28.5h-1.32
				V14.337z M84.712,20.578h3c1.5,0,3.001-0.64,3.001-2.5c0-1.82-1.561-2.541-3.081-2.541h-2.92V20.578z"/>
			<path fill="#FFFFFF" d="M94.572,14.337h1.32V27.3h6.602v1.2h-7.922V14.337z"/>
			<path fill="#FFFFFF" d="M105.192,22.399l-5.201-8.062h1.581l4.281,6.722l4.381-6.722h1.48l-5.201,8.062V28.5h-1.32V22.399z"/>
			<path fill="#FFFFFF" d="M129.794,26.279c-1.34,1.841-3.181,2.581-5.261,2.581c-4.321,0-7.322-3.121-7.322-7.441
				s3.001-7.441,7.322-7.441c1.92,0,3.641,0.64,4.881,2.22l-1.08,0.9c-0.88-1.32-2.38-1.92-3.801-1.92
				c-3.701,0-6.001,2.721-6.001,6.241c0,3.521,2.301,6.241,6.001,6.241c1.42,0,3.181-0.68,4.181-2.2L129.794,26.279z"/>
			<path fill="#FFFFFF" d="M138.313,13.977c4.32,0,7.321,3.121,7.321,7.441s-3.001,7.441-7.321,7.441
				c-4.321,0-7.322-3.121-7.322-7.441S133.992,13.977,138.313,13.977z M138.313,27.66c3.7,0,6.001-2.72,6.001-6.241
				c0-3.521-2.301-6.241-6.001-6.241c-3.701,0-6.002,2.721-6.002,6.241C132.312,24.939,134.612,27.66,138.313,27.66z"/>
			<path fill="#FFFFFF" d="M148.112,14.337h4.381c7.361,0,7.661,6.042,7.661,7.082s-0.3,7.082-7.661,7.082h-4.381V14.337z
				 M149.433,27.3h2.721c3.76,0,6.681-1.82,6.681-5.881s-2.921-5.881-6.681-5.881h-2.721V27.3z"/>
			<path fill="#FFFFFF" d="M162.812,14.337h8.662v1.2h-7.342v5.041h6.881v1.2h-6.881V27.3h7.662v1.2h-8.982V14.337z"/>
			<path fill="#FFFFFF" d="M175.032,19.138c0.539,0,0.959,0.42,0.959,0.96s-0.42,0.96-0.959,0.96c-0.541,0-0.961-0.42-0.961-0.96
				S174.491,19.138,175.032,19.138z M175.032,26.7c0.539,0,0.959,0.42,0.959,0.96s-0.42,0.96-0.959,0.96
				c-0.541,0-0.961-0.42-0.961-0.96S174.491,26.7,175.032,26.7z"/>
		</g>
	</g>
</g>
<g id="Layer_5">
	<rect fill="#40D31C" width="296.583" height="40.155"/>
	<g>
		<g>
			<path fill="#FFFFFF" d="M185.044,16.864h-4.041v-2.761h11.203v2.761h-4.041v11.402h-3.121V16.864z"/>
			<path fill="#FFFFFF" d="M193.483,14.103h5.481c2.9,0,5.341,1,5.341,4.301c0,1.98-1.061,3.521-3.061,3.881l3.601,5.981h-3.741
				l-2.96-5.661h-1.541v5.661h-3.12V14.103z M196.604,19.964h1.841c1.141,0,2.62-0.04,2.62-1.581c0-1.42-1.28-1.64-2.42-1.64h-2.041
				V19.964z"/>
			<path fill="#FFFFFF" d="M206.264,14.103h9.622v2.881h-6.502v2.641h6.142v2.88h-6.142v2.88h6.861v2.881h-9.981V14.103z"/>
			<path fill="#FFFFFF" d="M223.104,14.103h2.58l6.161,14.163h-3.521l-1.22-3h-5.502l-1.18,3h-3.44L223.104,14.103z M224.305,18.224
				l-1.721,4.401h3.461L224.305,18.224z"/>
			<path fill="#FFFFFF" d="M233.863,16.864h-4.041v-2.761h11.203v2.761h-4.041v11.402h-3.121V16.864z"/>
		</g>
		<g>
			<polygon fill="#FFFFFF" points="261.165,14.039 253.577,23.423 248.123,18.959 246.017,21.533 251.486,26.01 254.06,28.117 
				256.151,25.53 263.751,16.129 			"/>
		</g>
		<g>
			<path fill="#FFFFFF" d="M46.435,26.099c-1.34,1.841-3.181,2.581-5.261,2.581c-4.321,0-7.322-3.121-7.322-7.441
				s3.001-7.441,7.322-7.441c1.92,0,3.641,0.64,4.881,2.22l-1.08,0.9c-0.88-1.32-2.38-1.92-3.801-1.92
				c-3.701,0-6.001,2.721-6.001,6.241c0,3.521,2.301,6.241,6.001,6.241c1.42,0,3.181-0.68,4.181-2.2L46.435,26.099z"/>
			<path fill="#FFFFFF" d="M54.954,13.796c4.321,0,7.322,3.121,7.322,7.441s-3.001,7.441-7.322,7.441s-7.322-3.121-7.322-7.441
				S50.633,13.796,54.954,13.796z M54.954,27.479c3.701,0,6.001-2.72,6.001-6.241c0-3.521-2.301-6.241-6.001-6.241
				s-6.001,2.721-6.001,6.241C48.953,24.759,51.253,27.479,54.954,27.479z"/>
			<path fill="#FFFFFF" d="M64.752,14.156h4.381c7.362,0,7.662,6.042,7.662,7.082s-0.3,7.082-7.662,7.082h-4.381V14.156z
				 M66.073,27.119h2.721c3.761,0,6.681-1.82,6.681-5.881s-2.92-5.881-6.681-5.881h-2.721V27.119z"/>
			<path fill="#FFFFFF" d="M79.453,14.156h8.662v1.2h-7.341v5.041h6.881v1.201h-6.881v5.521h7.662v1.2h-8.982V14.156z"/>
			<path fill="#FFFFFF" d="M100.253,14.156h1.36l5.961,14.163h-1.48l-1.541-3.761h-7.501l-1.6,3.761h-1.38L100.253,14.156z
				 M100.873,15.597l-3.301,7.762h6.501L100.873,15.597z"/>
			<path fill="#FFFFFF" d="M109.313,14.156h4.081c2,0,4.561,0.78,4.561,3.741c0,2.561-2.04,3.701-4.261,3.701h-3.061v6.721h-1.32
				V14.156z M110.633,20.397h3c1.5,0,3.001-0.64,3.001-2.5c0-1.82-1.561-2.541-3.081-2.541h-2.92V20.397z"/>
			<path fill="#FFFFFF" d="M120.492,14.156h4.081c2,0,4.561,0.78,4.561,3.741c0,2.561-2.04,3.701-4.261,3.701h-3.061v6.721h-1.32
				V14.156z M121.813,20.397h3c1.5,0,3.001-0.64,3.001-2.5c0-1.82-1.561-2.541-3.081-2.541h-2.92V20.397z"/>
			<path fill="#FFFFFF" d="M131.672,14.156h1.32v12.963h6.602v1.2h-7.922V14.156z"/>
			<path fill="#FFFFFF" d="M141.372,14.156h1.32v14.163h-1.32V14.156z"/>
			<path fill="#FFFFFF" d="M146.272,14.156h8.661v1.2h-7.341v5.041h6.881v1.201h-6.881v5.521h7.661v1.2h-8.981V14.156z"/>
			<path fill="#FFFFFF" d="M157.651,14.156h4.381c7.362,0,7.662,6.042,7.662,7.082s-0.3,7.082-7.662,7.082h-4.381V14.156z
				 M158.972,27.119h2.721c3.762,0,6.682-1.82,6.682-5.881s-2.92-5.881-6.682-5.881h-2.721V27.119z"/>
			<path fill="#FFFFFF" d="M173.012,18.958c0.54,0,0.96,0.42,0.96,0.96s-0.42,0.96-0.96,0.96s-0.96-0.42-0.96-0.96
				S172.472,18.958,173.012,18.958z M173.012,26.519c0.54,0,0.96,0.42,0.96,0.96s-0.42,0.96-0.96,0.96s-0.96-0.42-0.96-0.96
				S172.472,26.519,173.012,26.519z"/>
		</g>
	</g>
	<g>
	</g>
	<g>
	</g>
	<g>
	</g>
	<g>
	</g>
	<g>
	</g>
	<g>
	</g>
</g>
</svg>
