<?xml version="1.0" encoding="utf-8"?>
<!-- Generator: Adobe Illustrator 16.0.3, SVG Export Plug-In . SVG Version: 6.00 Build 0)  -->
<!DOCTYPE svg PUBLIC "-//W3C//DTD SVG 1.1//EN" "http://www.w3.org/Graphics/SVG/1.1/DTD/svg11.dtd">
<svg version="1.1" xmlns="http://www.w3.org/2000/svg" xmlns:xlink="http://www.w3.org/1999/xlink" x="0px" y="0px"
	 width="296.583px" height="40.155px" viewBox="0 0 296.583 40.155" enable-background="new 0 0 296.583 40.155"
	 xml:space="preserve">
<g id="Layer_1">
	<rect fill="#FF0069" width="296.583" height="40.155"/>
	<g>
		<path fill="#FFFFFF" d="M145.845,13.698h4.736c2.646,0,4.844,0.846,4.844,3.871c0,2.989-2.035,3.907-4.717,3.907h-2.053v4.969
			h-2.811V13.698z M148.655,19.099h1.871c0.99,0,1.98-0.342,1.98-1.53c0-1.314-1.332-1.495-2.412-1.495h-1.439V19.099z"/>
		<path fill="#FFFFFF" d="M156.915,13.698h4.934c2.611,0,4.807,0.9,4.807,3.871c0,1.782-0.953,3.169-2.754,3.493l3.24,5.384h-3.367
			l-2.664-5.096h-1.387v5.096h-2.809V13.698z M159.724,18.973h1.656c1.027,0,2.359-0.036,2.359-1.422
			c0-1.278-1.152-1.477-2.18-1.477h-1.836V18.973z"/>
		<path fill="#FFFFFF" d="M174.503,13.374c3.98,0,6.879,2.611,6.879,6.698c0,4.087-2.898,6.698-6.879,6.698
			c-3.979,0-6.877-2.611-6.877-6.698C167.626,15.984,170.524,13.374,174.503,13.374z M174.503,24.177
			c2.395,0,3.961-1.729,3.961-4.105c0-2.376-1.566-4.105-3.961-4.105s-3.961,1.729-3.961,4.105
			C170.542,22.448,172.108,24.177,174.503,24.177z"/>
		<path fill="#FFFFFF" d="M183.015,13.698h4.754c2.232,0,4.664,0.468,4.664,3.241c0,1.422-0.883,2.395-2.197,2.809v0.036
			c1.676,0.216,2.791,1.458,2.791,3.115c0,2.665-2.521,3.547-4.789,3.547h-5.223V13.698z M185.825,18.793h2.033
			c0.865,0,1.766-0.36,1.766-1.386c0-1.063-1.008-1.333-1.891-1.333h-1.908V18.793z M185.825,24.069h2.52
			c0.883,0,1.873-0.378,1.873-1.495c0-1.207-1.35-1.404-2.27-1.404h-2.123V24.069z"/>
		<path fill="#FFFFFF" d="M194.409,13.698h4.934c2.611,0,4.807,0.9,4.807,3.871c0,1.782-0.953,3.169-2.754,3.493l3.24,5.384h-3.367
			l-2.664-5.096h-1.387v5.096h-2.809V13.698z M197.218,18.973h1.656c1.027,0,2.359-0.036,2.359-1.422
			c0-1.278-1.152-1.477-2.18-1.477h-1.836V18.973z"/>
		<path fill="#FFFFFF" d="M216.552,21.53c0,3.007-1.836,5.24-5.365,5.24c-3.547,0-5.385-2.233-5.385-5.24v-7.832h2.811v7.724
			c0,1.566,1.08,2.755,2.574,2.755c1.477,0,2.557-1.188,2.557-2.755v-7.724h2.809V21.53z"/>
		<path fill="#FFFFFF" d="M225.173,16.813c-0.449-0.576-1.35-0.846-2.035-0.846c-0.791,0-1.891,0.36-1.891,1.314
			c0,2.322,5.871,0.828,5.871,5.293c0,2.845-2.287,4.195-4.916,4.195c-1.639,0-3.078-0.486-4.285-1.603l1.998-2.197
			c0.576,0.756,1.514,1.207,2.449,1.207c0.918,0,1.945-0.432,1.945-1.333c0-2.341-5.979-1.08-5.979-5.33
			c0-2.719,2.359-4.141,4.861-4.141c1.439,0,2.826,0.378,3.906,1.332L225.173,16.813z"/>
		<path fill="#FFFFFF" d="M228.933,13.698h2.809v4.753h5.455v-4.753h2.811v12.748h-2.811v-5.51h-5.455v5.51h-2.809V13.698z"/>
		<path fill="#FFFFFF" d="M242.433,13.698h8.66v2.593h-5.852v2.376h5.527v2.593h-5.527v2.593h6.176v2.593h-8.984V13.698z"/>
		<path fill="#FFFFFF" d="M259.696,16.813c-0.449-0.576-1.35-0.846-2.035-0.846c-0.791,0-1.891,0.36-1.891,1.314
			c0,2.322,5.871,0.828,5.871,5.293c0,2.845-2.287,4.195-4.916,4.195c-1.639,0-3.078-0.486-4.285-1.603l1.998-2.197
			c0.576,0.756,1.514,1.207,2.449,1.207c0.918,0,1.945-0.432,1.945-1.333c0-2.341-5.979-1.08-5.979-5.33
			c0-2.719,2.359-4.141,4.861-4.141c1.439,0,2.826,0.378,3.906,1.332L259.696,16.813z"/>
	</g>
	<g>
		<path fill="#FFFFFF" d="M40.235,13.752h1.224L46.825,26.5h-1.333l-1.386-3.385h-6.752l-1.44,3.385h-1.243L40.235,13.752z
			 M40.793,15.049l-2.971,6.986h5.852L40.793,15.049z"/>
		<path fill="#FFFFFF" d="M48.388,13.752h3.673c1.801,0,4.105,0.703,4.105,3.367c0,2.305-1.836,3.331-3.835,3.331h-2.754v6.05
			h-1.188V13.752z M49.576,19.37h2.701c1.351,0,2.701-0.576,2.701-2.251c0-1.639-1.404-2.287-2.773-2.287h-2.628V19.37z"/>
		<path fill="#FFFFFF" d="M58.449,13.752h3.673c1.801,0,4.105,0.703,4.105,3.367c0,2.305-1.836,3.331-3.835,3.331h-2.754v6.05
			h-1.188V13.752z M59.638,19.37h2.701c1.351,0,2.701-0.576,2.701-2.251c0-1.639-1.404-2.287-2.773-2.287h-2.628V19.37z"/>
		<path fill="#FFFFFF" d="M68.511,13.752H69.7V25.42h5.941v1.08h-7.13V13.752z"/>
		<path fill="#FFFFFF" d="M78.07,21.008l-4.681-7.256h1.422l3.853,6.05l3.943-6.05h1.333l-4.682,7.256V26.5H78.07V21.008z"/>
		<path fill="#FFFFFF" d="M100.212,24.501c-1.207,1.656-2.863,2.323-4.735,2.323c-3.889,0-6.59-2.809-6.59-6.698
			s2.701-6.698,6.59-6.698c1.729,0,3.277,0.576,4.393,1.999l-0.972,0.81c-0.792-1.188-2.143-1.729-3.421-1.729
			c-3.331,0-5.402,2.449-5.402,5.618s2.071,5.618,5.402,5.618c1.278,0,2.863-0.612,3.763-1.98L100.212,24.501z"/>
		<path fill="#FFFFFF" d="M107.879,13.428c3.889,0,6.59,2.809,6.59,6.698s-2.701,6.698-6.59,6.698s-6.59-2.809-6.59-6.698
			S103.99,13.428,107.879,13.428z M107.879,25.744c3.331,0,5.401-2.449,5.401-5.618s-2.07-5.618-5.401-5.618
			s-5.402,2.449-5.402,5.618S104.548,25.744,107.879,25.744z"/>
		<path fill="#FFFFFF" d="M116.697,13.752h3.943c6.626,0,6.896,5.438,6.896,6.374c0,0.937-0.27,6.374-6.896,6.374h-3.943V13.752z
			 M117.885,25.42h2.449c3.385,0,6.014-1.639,6.014-5.294c0-3.655-2.629-5.293-6.014-5.293h-2.449V25.42z"/>
		<path fill="#FFFFFF" d="M129.927,13.752h7.797v1.081h-6.608v4.538h6.194v1.08h-6.194v4.97h6.896v1.08h-8.084V13.752z"/>
		<path fill="#FFFFFF" d="M140.925,18.073c0.486,0,0.864,0.378,0.864,0.864c0,0.486-0.378,0.864-0.864,0.864
			s-0.864-0.378-0.864-0.864C140.061,18.452,140.438,18.073,140.925,18.073z M140.925,24.879c0.486,0,0.864,0.378,0.864,0.864
			c0,0.486-0.378,0.864-0.864,0.864s-0.864-0.378-0.864-0.864C140.061,25.258,140.438,24.879,140.925,24.879z"/>
	</g>
</g>
<g id="Layer_5" display="none">
	<rect display="inline" fill="#40D31C" width="296.583" height="40.155"/>
	<g display="inline">
		<path fill="#FFFFFF" d="M144.896,13.518h4.735c2.646,0,4.843,0.847,4.843,3.872c0,2.989-2.034,3.907-4.717,3.907h-2.053v4.97
			h-2.809V13.518z M147.704,18.92h1.872c0.99,0,1.98-0.342,1.98-1.53c0-1.314-1.332-1.495-2.412-1.495h-1.44V18.92z"/>
		<path fill="#FFFFFF" d="M155.964,13.518h4.934c2.611,0,4.808,0.9,4.808,3.872c0,1.782-0.954,3.169-2.755,3.493l3.241,5.384h-3.367
			l-2.665-5.096h-1.386v5.096h-2.81V13.518z M158.773,18.794h1.656c1.026,0,2.358-0.036,2.358-1.422
			c0-1.278-1.152-1.477-2.179-1.477h-1.836V18.794z"/>
		<path fill="#FFFFFF" d="M173.553,13.194c3.979,0,6.878,2.611,6.878,6.698c0,4.087-2.898,6.698-6.878,6.698
			s-6.878-2.611-6.878-6.698C166.675,15.805,169.573,13.194,173.553,13.194z M173.553,23.998c2.395,0,3.961-1.729,3.961-4.105
			c0-2.376-1.566-4.105-3.961-4.105s-3.961,1.729-3.961,4.105C169.592,22.269,171.158,23.998,173.553,23.998z"/>
		<path fill="#FFFFFF" d="M182.065,13.518h4.753c2.232,0,4.663,0.468,4.663,3.241c0,1.422-0.882,2.395-2.196,2.809v0.036
			c1.675,0.216,2.791,1.458,2.791,3.115c0,2.665-2.521,3.547-4.79,3.547h-5.221V13.518z M184.874,18.614h2.034
			c0.864,0,1.765-0.36,1.765-1.386c0-1.063-1.008-1.333-1.891-1.333h-1.908V18.614z M184.874,23.889h2.521
			c0.882,0,1.872-0.378,1.872-1.494c0-1.207-1.35-1.404-2.269-1.404h-2.124V23.889z"/>
		<path fill="#FFFFFF" d="M193.458,13.518h4.934c2.611,0,4.808,0.9,4.808,3.872c0,1.782-0.954,3.169-2.755,3.493l3.241,5.384h-3.367
			l-2.665-5.096h-1.386v5.096h-2.81V13.518z M196.268,18.794h1.656c1.026,0,2.358-0.036,2.358-1.422
			c0-1.278-1.152-1.477-2.179-1.477h-1.836V18.794z"/>
		<path fill="#FFFFFF" d="M215.602,21.351c0,3.007-1.837,5.24-5.366,5.24c-3.547,0-5.383-2.233-5.383-5.24v-7.833h2.809v7.725
			c0,1.566,1.08,2.755,2.574,2.755c1.477,0,2.557-1.188,2.557-2.755v-7.725h2.81V21.351z"/>
		<path fill="#FFFFFF" d="M224.223,16.633c-0.45-0.576-1.351-0.846-2.035-0.846c-0.792,0-1.891,0.36-1.891,1.314
			c0,2.323,5.87,0.828,5.87,5.293c0,2.845-2.287,4.195-4.916,4.195c-1.638,0-3.078-0.486-4.285-1.603l1.999-2.197
			c0.576,0.756,1.513,1.207,2.448,1.207c0.919,0,1.945-0.432,1.945-1.333c0-2.341-5.979-1.081-5.979-5.33
			c0-2.719,2.359-4.141,4.861-4.141c1.441,0,2.827,0.378,3.907,1.333L224.223,16.633z"/>
		<path fill="#FFFFFF" d="M227.981,13.518h2.81v4.754h5.455v-4.754h2.81v12.748h-2.81v-5.51h-5.455v5.51h-2.81V13.518z"/>
		<path fill="#FFFFFF" d="M241.481,13.518h8.661v2.593h-5.853v2.377h5.528v2.593h-5.528v2.593h6.176v2.593h-8.984V13.518z"/>
		<path fill="#FFFFFF" d="M258.746,16.633c-0.45-0.576-1.351-0.846-2.035-0.846c-0.792,0-1.891,0.36-1.891,1.314
			c0,2.323,5.87,0.828,5.87,5.293c0,2.845-2.287,4.195-4.916,4.195c-1.638,0-3.078-0.486-4.285-1.603l1.999-2.197
			c0.576,0.756,1.513,1.207,2.448,1.207c0.919,0,1.945-0.432,1.945-1.333c0-2.341-5.979-1.081-5.979-5.33
			c0-2.719,2.359-4.141,4.861-4.141c1.441,0,2.827,0.378,3.907,1.333L258.746,16.633z"/>
	</g>
	<g display="inline">
		<polygon fill="#FFFFFF" points="280.56,13.038 272.972,22.423 267.518,17.959 265.411,20.532 270.881,25.01 273.454,27.116 
			275.546,24.529 283.146,15.129 		"/>
	</g>
	<g display="inline">
		<path fill="#FFFFFF" d="M25.741,24.321c-1.207,1.656-2.863,2.323-4.735,2.323c-3.889,0-6.59-2.809-6.59-6.698
			s2.701-6.698,6.59-6.698c1.729,0,3.277,0.576,4.393,1.999l-0.972,0.81c-0.792-1.188-2.143-1.729-3.421-1.729
			c-3.331,0-5.402,2.449-5.402,5.618s2.071,5.618,5.402,5.618c1.278,0,2.863-0.612,3.763-1.98L25.741,24.321z"/>
		<path fill="#FFFFFF" d="M33.407,13.248c3.889,0,6.59,2.809,6.59,6.698s-2.701,6.698-6.59,6.698s-6.59-2.809-6.59-6.698
			S29.518,13.248,33.407,13.248z M33.407,25.563c3.331,0,5.401-2.449,5.401-5.618s-2.07-5.618-5.401-5.618s-5.402,2.449-5.402,5.618
			S30.076,25.563,33.407,25.563z"/>
		<path fill="#FFFFFF" d="M42.226,13.572h3.943c6.626,0,6.896,5.438,6.896,6.374c0,0.937-0.27,6.374-6.896,6.374h-3.943V13.572z
			 M43.414,25.239h2.449c3.385,0,6.014-1.638,6.014-5.293c0-3.655-2.629-5.293-6.014-5.293h-2.449V25.239z"/>
		<path fill="#FFFFFF" d="M55.456,13.572h7.796v1.08h-6.608v4.537h6.194v1.081h-6.194v4.969h6.896v1.081h-8.084V13.572z"/>
		<path fill="#FFFFFF" d="M74.176,13.572H75.4l5.366,12.748h-1.333l-1.386-3.385h-6.752l-1.44,3.385h-1.243L74.176,13.572z
			 M74.734,14.868l-2.971,6.986h5.852L74.734,14.868z"/>
		<path fill="#FFFFFF" d="M82.329,13.572h3.673c1.801,0,4.105,0.702,4.105,3.367c0,2.305-1.836,3.331-3.835,3.331h-2.755v6.05
			h-1.188V13.572z M83.518,19.189h2.701c1.35,0,2.701-0.576,2.701-2.25c0-1.638-1.404-2.287-2.773-2.287h-2.628V19.189z"/>
		<path fill="#FFFFFF" d="M92.391,13.572h3.673c1.801,0,4.105,0.702,4.105,3.367c0,2.305-1.836,3.331-3.835,3.331H93.58v6.05h-1.188
			V13.572z M93.58,19.189h2.701c1.351,0,2.701-0.576,2.701-2.25c0-1.638-1.404-2.287-2.773-2.287H93.58V19.189z"/>
		<path fill="#FFFFFF" d="M102.453,13.572h1.188v11.667h5.941v1.081h-7.13V13.572z"/>
		<path fill="#FFFFFF" d="M111.183,13.572h1.188v12.748h-1.188V13.572z"/>
		<path fill="#FFFFFF" d="M115.593,13.572h7.796v1.08h-6.608v4.537h6.194v1.081h-6.194v4.969h6.896v1.081h-8.084V13.572z"/>
		<path fill="#FFFFFF" d="M125.834,13.572h3.943c6.626,0,6.896,5.438,6.896,6.374c0,0.937-0.27,6.374-6.896,6.374h-3.943V13.572z
			 M127.023,25.239h2.449c3.385,0,6.014-1.638,6.014-5.293c0-3.655-2.629-5.293-6.014-5.293h-2.449V25.239z"/>
		<path fill="#FFFFFF" d="M139.659,17.893c0.485,0,0.863,0.378,0.863,0.864c0,0.486-0.378,0.864-0.863,0.864
			c-0.486,0-0.865-0.378-0.865-0.864C138.794,18.271,139.173,17.893,139.659,17.893z M139.659,24.699
			c0.485,0,0.863,0.378,0.863,0.864c0,0.486-0.378,0.864-0.863,0.864c-0.486,0-0.865-0.378-0.865-0.864
			C138.794,25.077,139.173,24.699,139.659,24.699z"/>
	</g>
</g>
</svg>
