<?xml version="1.0" encoding="utf-8"?>
<!-- Generator: Adobe Illustrator 16.0.3, SVG Export Plug-In . SVG Version: 6.00 Build 0)  -->
<!DOCTYPE svg PUBLIC "-//W3C//DTD SVG 1.1//EN" "http://www.w3.org/Graphics/SVG/1.1/DTD/svg11.dtd">
<svg version="1.1" xmlns="http://www.w3.org/2000/svg" xmlns:xlink="http://www.w3.org/1999/xlink" x="0px" y="0px"
	 width="296.583px" height="40.155px" viewBox="0 0 296.583 40.155" enable-background="new 0 0 296.583 40.155"
	 xml:space="preserve">
<g id="Layer_1" display="none">
	<rect display="inline" fill="#3A52EB" width="296.583" height="40.155"/>
	<g display="inline">
		<g>
			<path fill="#FFFFFF" d="M167.417,27.238c-2.223,1.159-4.662,1.642-7.174,1.642c-5.339,0-9.228-3.502-9.228-8.985
				s3.889-8.985,9.228-8.985c2.705,0,5.096,0.604,6.812,2.198l-2.657,2.899c-1.015-1.063-2.246-1.619-4.154-1.619
				c-3.213,0-5.314,2.319-5.314,5.507s2.102,5.507,5.314,5.507c1.642,0,2.85-0.459,3.55-0.845v-2.778h-3.067V18.3h6.691V27.238z"/>
			<path fill="#FFFFFF" d="M170.366,11.344h6.618c3.503,0,6.449,1.208,6.449,5.193c0,2.391-1.28,4.251-3.695,4.686l4.348,7.222
				h-4.517l-3.575-6.836h-1.86v6.836h-3.768V11.344z M174.134,18.421h2.223c1.377,0,3.164-0.048,3.164-1.908
				c0-1.715-1.546-1.98-2.923-1.98h-2.464V18.421z"/>
			<path fill="#FFFFFF" d="M185.802,11.344h11.619v3.479h-7.851v3.188h7.415v3.479h-7.415v3.479h8.285v3.478h-12.054V11.344z"/>
			<path fill="#FFFFFF" d="M200.658,11.344h11.619v3.479h-7.851v3.188h7.415v3.479h-7.415v3.479h8.285v3.478h-12.054V11.344z"/>
			<path fill="#FFFFFF" d="M215.37,11.344h5.121l7.271,11.884h0.048V11.344h3.769v17.102h-4.928l-7.464-12.174h-0.049v12.174h-3.768
				V11.344z"/>
			<path fill="#FFFFFF" d="M250.18,27.238c-2.223,1.159-4.662,1.642-7.175,1.642c-5.338,0-9.227-3.502-9.227-8.985
				s3.889-8.985,9.227-8.985c2.706,0,5.097,0.604,6.813,2.198l-2.657,2.899c-1.015-1.063-2.246-1.619-4.155-1.619
				c-3.212,0-5.313,2.319-5.313,5.507s2.102,5.507,5.313,5.507c1.643,0,2.851-0.459,3.551-0.845v-2.778h-3.067V18.3h6.691V27.238z"
				/>
			<path fill="#FFFFFF" d="M253.079,11.344h3.769v17.102h-3.769V11.344z"/>
			<path fill="#FFFFFF" d="M260.061,11.344h11.474v3.479h-7.705V18.3h7.125v3.479h-7.125v6.667h-3.769V11.344z"/>
			<path fill="#FFFFFF" d="M277.188,14.677h-4.879v-3.333h13.526v3.333h-4.879v13.768h-3.769V14.677z"/>
		</g>
		<g>
			<path fill="#FFFFFF" d="M18.014,12.111h1.574L26.486,28.5h-1.713l-1.782-4.352h-8.68L12.458,28.5h-1.597L18.014,12.111z
				 M18.731,13.778l-3.819,8.981h7.523L18.731,13.778z"/>
			<path fill="#FFFFFF" d="M28.505,12.111h4.722c2.315,0,5.278,0.903,5.278,4.329c0,2.963-2.361,4.283-4.931,4.283h-3.542V28.5
				h-1.528V12.111z M30.033,19.333h3.472c1.736,0,3.472-0.741,3.472-2.894c0-2.106-1.806-2.939-3.564-2.939h-3.38V19.333z"/>
			<path fill="#FFFFFF" d="M41.448,12.111h4.722c2.315,0,5.278,0.903,5.278,4.329c0,2.963-2.361,4.283-4.931,4.283h-3.542V28.5
				h-1.528V12.111z M42.976,19.333h3.472c1.736,0,3.472-0.741,3.472-2.894c0-2.106-1.806-2.939-3.564-2.939h-3.38V19.333z"/>
			<path fill="#FFFFFF" d="M54.391,12.111h1.528v15h7.639V28.5h-9.167V12.111z"/>
			<path fill="#FFFFFF" d="M66.686,21.44l-6.018-9.329h1.829l4.954,7.778l5.069-7.778h1.713l-6.019,9.329v7.06h-1.528V21.44z"/>
			<path fill="#FFFFFF" d="M95.163,25.931c-1.551,2.129-3.68,2.986-6.088,2.986c-5,0-8.472-3.611-8.472-8.611
				s3.472-8.611,8.472-8.611c2.222,0,4.213,0.741,5.648,2.569l-1.25,1.042c-1.019-1.527-2.755-2.222-4.398-2.222
				c-4.282,0-6.944,3.148-6.944,7.222c0,4.074,2.662,7.222,6.944,7.222c1.644,0,3.681-0.787,4.838-2.546L95.163,25.931z"/>
			<path fill="#FFFFFF" d="M105.028,11.695c5,0,8.472,3.611,8.472,8.611s-3.472,8.611-8.472,8.611c-5,0-8.472-3.611-8.472-8.611
				S100.029,11.695,105.028,11.695z M105.028,27.528c4.283,0,6.944-3.148,6.944-7.222c0-4.074-2.662-7.222-6.944-7.222
				c-4.282,0-6.944,3.148-6.944,7.222C98.084,24.38,100.746,27.528,105.028,27.528z"/>
			<path fill="#FFFFFF" d="M116.376,12.111h5.069c8.518,0,8.865,6.991,8.865,8.194s-0.347,8.194-8.865,8.194h-5.069V12.111z
				 M117.904,27.111h3.148c4.352,0,7.731-2.106,7.731-6.806c0-4.699-3.38-6.805-7.731-6.805h-3.148V27.111z"/>
			<path fill="#FFFFFF" d="M133.395,12.111h10.023V13.5h-8.495v5.833h7.963v1.389h-7.963v6.389h8.865V28.5h-10.393V12.111z"/>
			<path fill="#FFFFFF" d="M147.542,17.667c0.625,0,1.111,0.486,1.111,1.111s-0.486,1.111-1.111,1.111s-1.111-0.486-1.111-1.111
				S146.917,17.667,147.542,17.667z M147.542,26.417c0.625,0,1.111,0.486,1.111,1.111s-0.486,1.111-1.111,1.111
				s-1.111-0.486-1.111-1.111S146.917,26.417,147.542,26.417z"/>
		</g>
	</g>
</g>
<g id="Layer_5">
	<rect fill="#40D31C" width="296.583" height="40.155"/>
	<g>
		<g>
			<path fill="#FFFFFF" d="M178.389,27.459c-2.053,1.071-4.306,1.517-6.626,1.517c-4.93,0-8.521-3.234-8.521-8.298
				s3.592-8.299,8.521-8.299c2.499,0,4.707,0.558,6.291,2.03l-2.454,2.677c-0.937-0.981-2.074-1.495-3.837-1.495
				c-2.967,0-4.908,2.142-4.908,5.086c0,2.944,1.941,5.086,4.908,5.086c1.517,0,2.633-0.424,3.279-0.781v-2.565h-2.833v-3.212h6.18
				V27.459z"/>
			<path fill="#FFFFFF" d="M181.108,12.78h6.112c3.234,0,5.956,1.116,5.956,4.796c0,2.208-1.183,3.926-3.413,4.328l4.016,6.67
				h-4.172l-3.302-6.313h-1.718v6.313h-3.479V12.78z M184.588,19.317h2.053c1.271,0,2.923-0.045,2.923-1.763
				c0-1.583-1.428-1.829-2.7-1.829h-2.275V19.317z"/>
			<path fill="#FFFFFF" d="M195.362,12.78h10.73v3.212h-7.251v2.945h6.849v3.212h-6.849v3.212h7.652v3.212h-11.132V12.78z"/>
			<path fill="#FFFFFF" d="M209.08,12.78h10.73v3.212h-7.251v2.945h6.849v3.212h-6.849v3.212h7.652v3.212H209.08V12.78z"/>
			<path fill="#FFFFFF" d="M222.664,12.78h4.729l6.715,10.976h0.044V12.78h3.48v15.794h-4.551l-6.894-11.243h-0.045v11.243h-3.479
				V12.78z"/>
			<path fill="#FFFFFF" d="M254.809,27.459c-2.053,1.071-4.306,1.517-6.626,1.517c-4.93,0-8.521-3.234-8.521-8.298
				s3.592-8.299,8.521-8.299c2.499,0,4.707,0.558,6.291,2.03l-2.454,2.677c-0.937-0.981-2.074-1.495-3.837-1.495
				c-2.967,0-4.908,2.142-4.908,5.086c0,2.944,1.941,5.086,4.908,5.086c1.517,0,2.633-0.424,3.279-0.781v-2.565h-2.833v-3.212h6.18
				V27.459z"/>
			<path fill="#FFFFFF" d="M257.483,12.78h3.48v15.794h-3.48V12.78z"/>
			<path fill="#FFFFFF" d="M263.93,12.78h10.597v3.212h-7.117v3.212h6.581v3.212h-6.581v6.157h-3.479V12.78z"/>
			<path fill="#FFFFFF" d="M279.744,15.859h-4.506V12.78h12.492v3.079h-4.506v12.716h-3.48V15.859z"/>
		</g>
		<g>
			<path fill="#FFFFFF" d="M23.39,26.252c-1.432,1.967-3.399,2.758-5.622,2.758c-4.618,0-7.824-3.335-7.824-7.953
				c0-4.617,3.207-7.952,7.824-7.952c2.052,0,3.891,0.684,5.216,2.373L21.83,16.44c-0.94-1.411-2.544-2.052-4.062-2.052
				c-3.955,0-6.414,2.907-6.414,6.669c0,3.763,2.458,6.67,6.414,6.67c1.518,0,3.399-0.727,4.468-2.352L23.39,26.252z"/>
			<path fill="#FFFFFF" d="M32.499,13.105c4.618,0,7.824,3.335,7.824,7.952c0,4.618-3.207,7.953-7.824,7.953
				s-7.824-3.335-7.824-7.953C24.675,16.44,27.881,13.105,32.499,13.105z M32.499,27.727c3.955,0,6.413-2.907,6.413-6.67
				c0-3.762-2.458-6.669-6.413-6.669c-3.955,0-6.414,2.907-6.414,6.669C26.085,24.82,28.544,27.727,32.499,27.727z"/>
			<path fill="#FFFFFF" d="M42.977,13.49h4.682c7.867,0,8.188,6.456,8.188,7.567c0,1.112-0.321,7.568-8.188,7.568h-4.682V13.49z
				 M44.387,27.342h2.908c4.019,0,7.14-1.945,7.14-6.285c0-4.339-3.121-6.285-7.14-6.285h-2.908V27.342z"/>
			<path fill="#FFFFFF" d="M58.691,13.49h9.256v1.283h-7.846v5.387h7.354v1.282h-7.354v5.9h8.188v1.283h-9.599V13.49z"/>
			<path fill="#FFFFFF" d="M80.925,13.49h1.454l6.371,15.135h-1.582l-1.646-4.019h-8.017l-1.71,4.019H74.32L80.925,13.49z
				 M81.588,15.029l-3.527,8.294h6.948L81.588,15.029z"/>
			<path fill="#FFFFFF" d="M90.612,13.49h4.361c2.138,0,4.874,0.833,4.874,3.998c0,2.736-2.18,3.955-4.553,3.955h-3.271v7.183
				h-1.411V13.49z M92.022,20.16h3.207c1.603,0,3.207-0.684,3.207-2.672c0-1.945-1.667-2.715-3.292-2.715h-3.121V20.16z"/>
			<path fill="#FFFFFF" d="M102.563,13.49h4.361c2.138,0,4.874,0.833,4.874,3.998c0,2.736-2.18,3.955-4.553,3.955h-3.271v7.183
				h-1.411V13.49z M103.974,20.16h3.207c1.603,0,3.207-0.684,3.207-2.672c0-1.945-1.667-2.715-3.292-2.715h-3.121V20.16z"/>
			<path fill="#FFFFFF" d="M114.515,13.49h1.411v13.853h7.055v1.283h-8.465V13.49z"/>
			<path fill="#FFFFFF" d="M124.884,13.49h1.411v15.135h-1.411V13.49z"/>
			<path fill="#FFFFFF" d="M130.122,13.49h9.257v1.283h-7.846v5.387h7.354v1.282h-7.354v5.9h8.188v1.283h-9.599V13.49z"/>
			<path fill="#FFFFFF" d="M142.287,13.49h4.682c7.867,0,8.188,6.456,8.188,7.567c0,1.112-0.321,7.568-8.188,7.568h-4.682V13.49z
				 M143.698,27.342h2.907c4.02,0,7.141-1.945,7.141-6.285c0-4.339-3.121-6.285-7.141-6.285h-2.907V27.342z"/>
			<path fill="#FFFFFF" d="M158.707,18.62c0.577,0,1.026,0.449,1.026,1.026s-0.449,1.026-1.026,1.026s-1.026-0.449-1.026-1.026
				S158.13,18.62,158.707,18.62z M158.707,26.701c0.577,0,1.026,0.449,1.026,1.026s-0.449,1.026-1.026,1.026
				s-1.026-0.449-1.026-1.026S158.13,26.701,158.707,26.701z"/>
		</g>
	</g>
	<g>
	</g>
	<g>
	</g>
	<g>
	</g>
	<g>
	</g>
	<g>
	</g>
	<g>
	</g>
</g>
</svg>
