<?xml version="1.0" encoding="utf-8"?>
<!-- Generator: Adobe Illustrator 16.0.3, SVG Export Plug-In . SVG Version: 6.00 Build 0)  -->
<!DOCTYPE svg PUBLIC "-//W3C//DTD SVG 1.1//EN" "http://www.w3.org/Graphics/SVG/1.1/DTD/svg11.dtd">
<svg version="1.1" id="Layer_1" xmlns="http://www.w3.org/2000/svg" xmlns:xlink="http://www.w3.org/1999/xlink" x="0px" y="0px"
	 width="377.667px" height="30.333px" viewBox="0 0 377.667 30.333" enable-background="new 0 0 377.667 30.333"
	 xml:space="preserve">
<rect x="-1" y="-2.248" fill="none" width="388.171" height="43.797"/>
<g>
	<g>
		<path fill="#999999" d="M24,26.786c-2.356,1.785-5.737,2.812-8.625,2.812c-8.168,0-14.932-6.535-14.932-14.78
			c0-8.206,6.763-14.855,14.932-14.855c8.283,0,14.932,6.725,14.932,14.932c0,3.989-1.444,7.219-4.142,10.106l4.293,4.369h-4.065
			L24,26.786z M23.962,22.719c2.127-2.242,3.153-4.863,3.153-7.941c0-6.535-5.167-11.854-11.74-11.854S3.635,8.28,3.635,14.778
			c0,6.458,5.243,11.855,11.74,11.855c2.128,0,4.635-0.799,6.383-2.129l-6.915-6.953h4.179L23.962,22.719z"/>
		<path fill="#999999" d="M56.49,6.724c-2.28-2.355-5.433-3.799-8.739-3.799c-6.383,0-11.55,5.547-11.55,11.854
			c0,6.308,5.205,11.854,11.626,11.854c3.229,0,6.383-1.52,8.663-3.801v3.953c-2.47,1.785-5.509,2.812-8.549,2.812
			c-8.093,0-14.932-6.572-14.932-14.704c0-8.207,6.725-14.932,14.932-14.932c3.191,0,6.003,0.912,8.549,2.812V6.724L56.49,6.724z"/>
		<path fill="#999999" d="M73.593,0.455h5.395c4.293,0,7.789,0.569,11.17,3.457c3.268,2.812,4.75,6.649,4.75,10.904
			c0,4.181-1.52,7.866-4.673,10.677c-3.419,3.039-6.839,3.608-11.323,3.608h-5.319V0.455z M79.103,26.139
			c3.495,0,6.421-0.494,9.042-2.963c2.355-2.205,3.571-5.207,3.571-8.398c0-3.268-1.253-6.421-3.723-8.586
			c-2.622-2.318-5.509-2.774-8.891-2.774h-2.318v22.721H79.103z"/>
		<path fill="#999999" d="M99.357,0.455h14.855v2.963h-11.664v8.511h11.322v2.964h-11.322V26.14h11.664v2.963H99.357V0.455z"/>
		<path fill="#999999" d="M132.643,6.04c-1.14-1.976-2.508-3.115-4.939-3.115c-2.545,0-4.75,1.823-4.75,4.445
			c0,2.47,2.546,3.609,4.483,4.483l1.9,0.835c3.724,1.634,6.877,3.496,6.877,8.057c0,5.014-4.027,8.852-9.005,8.852
			c-4.597,0-8.017-2.963-8.928-7.408l3.115-0.875c0.418,2.926,2.66,5.32,5.737,5.32c3.077,0,5.889-2.355,5.889-5.586
			c0-3.344-2.622-4.482-5.281-5.699l-1.748-0.76c-3.343-1.52-6.231-3.229-6.231-7.333c0-4.445,3.762-7.295,8.017-7.295
			c3.191,0,5.889,1.634,7.409,4.445L132.643,6.04z"/>
		<path fill="#999999" d="M144.158,29.102h-3.192V0.455h3.192V29.102z"/>
		<path fill="#999999" d="M176.606,14.703c0.076,3.875-0.342,7.067-2.963,10.106s-6.611,4.787-10.601,4.787
			c-8.055,0-14.742-6.688-14.742-14.742c0-8.207,6.687-14.894,14.932-14.894c5.016,0,9.081,2.241,12.12,6.193l-2.317,2.165
			c-2.394-3.381-5.623-5.395-9.841-5.395c-6.535,0-11.702,5.509-11.702,11.968c0,3.04,1.216,5.926,3.344,8.092
			c2.089,2.09,5.129,3.648,8.131,3.648c4.977,0,10.22-3.648,10.22-8.967h-8.511v-2.963h11.93V14.703z"/>
		<path fill="#999999" d="M181.322-0.761l22.342,23.404V0.455h3.19v29.94l-22.34-23.368v22.075h-3.191V-0.761H181.322z"/>
		<path fill="#999999" d="M237.523,6.04c-1.141-1.976-2.508-3.115-4.939-3.115c-2.547,0-4.75,1.823-4.75,4.445
			c0,2.47,2.545,3.609,4.484,4.483l1.898,0.835c3.725,1.634,6.877,3.496,6.877,8.057c0,5.014-4.027,8.852-9.004,8.852
			c-4.598,0-8.019-2.963-8.93-7.408l3.116-0.875c0.418,2.926,2.658,5.32,5.736,5.32c3.077,0,5.889-2.355,5.889-5.586
			c0-3.344-2.621-4.482-5.28-5.699l-1.748-0.76c-3.345-1.52-6.23-3.229-6.23-7.333c0-4.445,3.762-7.295,8.018-7.295
			c3.191,0,5.889,1.634,7.408,4.445L237.523,6.04z"/>
		<path fill="#999999" d="M267.617,6.724c-2.279-2.355-5.434-3.799-8.738-3.799c-6.385,0-11.551,5.547-11.551,11.854
			c0,6.308,5.205,11.854,11.625,11.854c3.23,0,6.385-1.52,8.664-3.801v3.953c-2.471,1.785-5.51,2.812-8.549,2.812
			c-8.094,0-14.932-6.572-14.932-14.704c0-8.207,6.725-14.932,14.932-14.932c3.191,0,6.002,0.912,8.549,2.812V6.724z"/>
		<path fill="#999999" d="M291.025,12.081V0.455h3.191v28.647h-3.191V15.045h-14.666v14.057h-3.191V0.455h3.191v11.626H291.025z"/>
		<path fill="#999999" d="M328.568,14.816c0,8.245-6.764,14.78-14.932,14.78c-8.17,0-14.934-6.535-14.934-14.78
			c0-8.206,6.764-14.855,14.934-14.855C321.804-0.039,328.568,6.61,328.568,14.816z M301.896,14.778
			c0,6.458,5.242,11.855,11.74,11.855c6.496,0,11.74-5.396,11.74-11.855c0-6.497-5.168-11.854-11.74-11.854
			C307.062,2.925,301.896,8.281,301.896,14.778z"/>
		<path fill="#999999" d="M361.324,14.816c0,8.245-6.764,14.78-14.932,14.78c-8.17,0-14.934-6.535-14.934-14.78
			c0-8.206,6.764-14.855,14.934-14.855C354.56-0.039,361.324,6.61,361.324,14.816z M334.652,14.778
			c0,6.458,5.242,11.855,11.74,11.855c6.496,0,11.74-5.396,11.74-11.855c0-6.497-5.168-11.854-11.74-11.854
			C339.818,2.925,334.652,8.281,334.652,14.778z"/>
		<path fill="#999999" d="M368.851,26.139h7.902v2.963H365.66V0.455h3.191V26.139z"/>
	</g>
</g>
</svg>
