<?xml version="1.0" encoding="utf-8"?>
<!-- Generator: Adobe Illustrator 16.0.3, SVG Export Plug-In . SVG Version: 6.00 Build 0)  -->
<!DOCTYPE svg PUBLIC "-//W3C//DTD SVG 1.1//EN" "http://www.w3.org/Graphics/SVG/1.1/DTD/svg11.dtd">
<svg version="1.1" xmlns="http://www.w3.org/2000/svg" xmlns:xlink="http://www.w3.org/1999/xlink" x="0px" y="0px" width="385px"
	 height="40.155px" viewBox="0 0 385 40.155" enable-background="new 0 0 385 40.155" xml:space="preserve">
<g id="Layer_1">
	<rect fill="#FF0069" width="385" height="40.155"/>
	<g>
		<path fill="#FFFFFF" d="M230.417,16.212c-0.524-0.672-1.575-0.987-2.372-0.987c-0.924,0-2.205,0.42-2.205,1.533
			c0,2.708,6.845,0.966,6.845,6.173c0,3.317-2.667,4.892-5.731,4.892c-1.911,0-3.591-0.567-4.998-1.869l2.331-2.562
			c0.672,0.882,1.764,1.407,2.855,1.407c1.071,0,2.268-0.504,2.268-1.554c0-2.729-6.971-1.26-6.971-6.215
			c0-3.17,2.751-4.829,5.669-4.829c1.68,0,3.297,0.441,4.557,1.554L230.417,16.212z"/>
		<path fill="#FFFFFF" d="M234.933,12.58h3.275v6.173l5.774-6.173h4.283l-6.614,6.908l7.181,7.958h-4.577l-6.047-7.055v7.055h-3.275
			V12.58z"/>
		<path fill="#FFFFFF" d="M249.611,12.58h3.275v14.865h-3.275V12.58z"/>
		<path fill="#FFFFFF" d="M255.555,12.58h4.451l6.32,10.33h0.041V12.58h3.275v14.865h-4.283l-6.487-10.582h-0.042v10.582h-3.275
			V12.58z"/>
		<path fill="#FFFFFF" d="M282.076,16.443c-0.651-0.777-1.596-1.218-2.814-1.218c-2.477,0-4.304,2.016-4.304,4.787
			s1.827,4.787,4.199,4.787c1.323,0,2.394-0.588,3.065-1.596l2.729,2.037c-1.239,1.764-3.339,2.583-5.375,2.583
			c-4.64,0-8.021-3.044-8.021-7.811s3.381-7.811,8.021-7.811c1.659,0,3.759,0.567,5.019,2.184L282.076,16.443z"/>
		<path fill="#FFFFFF" d="M291.316,12.58h2.708l6.467,14.865h-3.695l-1.28-3.149h-5.774l-1.239,3.149h-3.611L291.316,12.58z
			 M292.576,16.905l-1.807,4.619h3.633L292.576,16.905z"/>
		<path fill="#FFFFFF" d="M301.67,12.58h5.753c3.044,0,5.606,1.05,5.606,4.514c0,2.079-1.113,3.695-3.213,4.073l3.779,6.278h-3.926
			l-3.107-5.942h-1.617v5.942h-3.275V12.58z M304.945,18.732h1.932c1.197,0,2.75-0.042,2.75-1.659c0-1.491-1.344-1.722-2.54-1.722
			h-2.142V18.732z"/>
		<path fill="#FFFFFF" d="M315.089,12.58h10.099v3.023h-6.823v2.771h6.446v3.023h-6.446v3.023h7.202v3.023h-10.478V12.58z"/>
		<path fill="#FFFFFF" d="M332.393,17.892c0.336-0.084,0.672-0.147,1.028-0.147c2.792,0,4.661,2.142,4.661,4.85
			c0,3.065-2.436,5.102-5.543,5.102s-5.543-2.037-5.543-5.102c0-2.142,0.84-3.443,1.785-4.934l3.254-5.081h3.842L332.393,17.892z
			 M332.539,20.139c-1.406,0-2.394,0.987-2.394,2.331s0.987,2.331,2.394,2.331s2.394-0.987,2.394-2.331
			S333.945,20.139,332.539,20.139z"/>
		<path fill="#FFFFFF" d="M344.698,12.328c4.409,0,5.522,4.157,5.522,7.685s-1.113,7.685-5.522,7.685s-5.522-4.157-5.522-7.685
			S340.289,12.328,344.698,12.328z M344.698,24.8c2.268,0,2.372-3.233,2.372-4.787s-0.104-4.787-2.372-4.787
			s-2.372,3.233-2.372,4.787S342.431,24.8,344.698,24.8z"/>
	</g>
	<g>
		<path fill="#FFFFFF" d="M21.354,13.337h1.36L28.675,27.5h-1.48l-1.541-3.761h-7.501l-1.6,3.761h-1.38L21.354,13.337z
			 M21.974,14.777l-3.301,7.762h6.501L21.974,14.777z"/>
		<path fill="#FFFFFF" d="M30.413,13.337h4.081c2,0,4.561,0.78,4.561,3.741c0,2.561-2.04,3.701-4.261,3.701h-3.061V27.5h-1.32
			V13.337z M31.733,19.578h3c1.5,0,3.001-0.64,3.001-2.5c0-1.82-1.561-2.541-3.081-2.541h-2.92V19.578z"/>
		<path fill="#FFFFFF" d="M41.592,13.337h4.081c2,0,4.561,0.78,4.561,3.741c0,2.561-2.04,3.701-4.261,3.701h-3.061V27.5h-1.32
			V13.337z M42.913,19.578h3c1.5,0,3.001-0.64,3.001-2.5c0-1.82-1.561-2.541-3.081-2.541h-2.92V19.578z"/>
		<path fill="#FFFFFF" d="M52.772,13.337h1.32V26.3h6.602v1.2h-7.922V13.337z"/>
		<path fill="#FFFFFF" d="M63.393,21.399l-5.201-8.062h1.581l4.281,6.722l4.381-6.722h1.48l-5.201,8.062V27.5h-1.32V21.399z"/>
		<path fill="#FFFFFF" d="M76.332,13.337h4.081c2,0,4.561,0.78,4.561,3.741c0,2.561-2.04,3.701-4.261,3.701h-3.061V27.5h-1.32
			V13.337z M77.652,19.578h3c1.5,0,3.001-0.64,3.001-2.5c0-1.82-1.561-2.541-3.081-2.541h-2.92V19.578z"/>
		<path fill="#FFFFFF" d="M87.512,13.337h3.721c1.12,0,5.041,0,5.041,3.721c0,2.701-2.06,3.441-3.621,3.641l4.121,6.801h-1.5
			l-3.981-6.722h-2.46V27.5h-1.32V13.337z M88.832,19.578h2.801c2.78,0,3.32-1.54,3.32-2.521c0-0.98-0.54-2.521-3.32-2.521h-2.801
			V19.578z"/>
		<path fill="#FFFFFF" d="M105.473,12.977c4.321,0,7.322,3.121,7.322,7.441s-3.001,7.441-7.322,7.441s-7.322-3.121-7.322-7.441
			S101.152,12.977,105.473,12.977z M105.473,26.66c3.701,0,6.001-2.72,6.001-6.241c0-3.521-2.301-6.241-6.001-6.241
			s-6.001,2.721-6.001,6.241C99.472,23.939,101.772,26.66,105.473,26.66z"/>
		<path fill="#FFFFFF" d="M115.312,13.337h1.98l5.161,11.883l5.161-11.883h1.88V27.5h-1.32V15.018h-0.04L122.733,27.5h-0.581
			l-5.481-12.482h-0.04V27.5h-1.32V13.337z"/>
		<path fill="#FFFFFF" d="M139.333,12.977c4.321,0,7.322,3.121,7.322,7.441s-3.001,7.441-7.322,7.441s-7.322-3.121-7.322-7.441
			S135.012,12.977,139.333,12.977z M139.333,26.66c3.701,0,6.001-2.72,6.001-6.241c0-3.521-2.301-6.241-6.001-6.241
			s-6.001,2.721-6.001,6.241C133.332,23.939,135.632,26.66,139.333,26.66z"/>
		<path fill="#FFFFFF" d="M165.874,25.279c-1.34,1.841-3.181,2.581-5.261,2.581c-4.321,0-7.322-3.121-7.322-7.441
			s3.001-7.441,7.322-7.441c1.92,0,3.641,0.64,4.881,2.22l-1.08,0.9c-0.88-1.32-2.38-1.92-3.801-1.92
			c-3.701,0-6.001,2.721-6.001,6.241c0,3.521,2.301,6.241,6.001,6.241c1.42,0,3.181-0.68,4.181-2.2L165.874,25.279z"/>
		<path fill="#FFFFFF" d="M174.393,12.977c4.321,0,7.322,3.121,7.322,7.441s-3.001,7.441-7.322,7.441s-7.322-3.121-7.322-7.441
			S170.072,12.977,174.393,12.977z M174.393,26.66c3.701,0,6.001-2.72,6.001-6.241c0-3.521-2.301-6.241-6.001-6.241
			s-6.001,2.721-6.001,6.241C168.391,23.939,170.692,26.66,174.393,26.66z"/>
		<path fill="#FFFFFF" d="M184.191,13.337h4.381c7.362,0,7.662,6.042,7.662,7.082s-0.3,7.082-7.662,7.082h-4.381V13.337z
			 M185.511,26.3h2.721c3.761,0,6.682-1.82,6.682-5.881s-2.921-5.881-6.682-5.881h-2.721V26.3z"/>
		<path fill="#FFFFFF" d="M198.891,13.337h8.662v1.2h-7.342v5.041h6.882v1.2h-6.882V26.3h7.662v1.2h-8.982V13.337z"/>
		<path fill="#FFFFFF" d="M211.111,18.138c0.539,0,0.959,0.42,0.959,0.96s-0.42,0.96-0.959,0.96c-0.541,0-0.961-0.42-0.961-0.96
			S210.57,18.138,211.111,18.138z M211.111,25.7c0.539,0,0.959,0.42,0.959,0.96s-0.42,0.96-0.959,0.96
			c-0.541,0-0.961-0.42-0.961-0.96S210.57,25.7,211.111,25.7z"/>
	</g>
</g>
<g id="Layer_4" display="none">
	<rect display="inline" fill="#40D31C" width="385" height="40.155"/>
	<g display="inline">
		<path fill="#FFFFFF" d="M230.417,16.212c-0.524-0.672-1.575-0.987-2.372-0.987c-0.924,0-2.205,0.42-2.205,1.533
			c0,2.708,6.845,0.966,6.845,6.173c0,3.317-2.667,4.892-5.731,4.892c-1.911,0-3.591-0.567-4.998-1.869l2.331-2.562
			c0.672,0.882,1.764,1.407,2.855,1.407c1.071,0,2.268-0.504,2.268-1.554c0-2.729-6.971-1.26-6.971-6.215
			c0-3.17,2.751-4.829,5.669-4.829c1.68,0,3.297,0.441,4.557,1.554L230.417,16.212z"/>
		<path fill="#FFFFFF" d="M234.933,12.58h3.275v6.173l5.774-6.173h4.283l-6.614,6.908l7.181,7.958h-4.577l-6.047-7.055v7.055h-3.275
			V12.58z"/>
		<path fill="#FFFFFF" d="M249.611,12.58h3.275v14.865h-3.275V12.58z"/>
		<path fill="#FFFFFF" d="M255.555,12.58h4.451l6.32,10.33h0.041V12.58h3.275v14.865h-4.283l-6.487-10.582h-0.042v10.582h-3.275
			V12.58z"/>
		<path fill="#FFFFFF" d="M282.076,16.443c-0.651-0.777-1.596-1.218-2.814-1.218c-2.477,0-4.304,2.016-4.304,4.787
			s1.827,4.787,4.199,4.787c1.323,0,2.394-0.588,3.065-1.596l2.729,2.037c-1.239,1.764-3.339,2.583-5.375,2.583
			c-4.64,0-8.021-3.044-8.021-7.811s3.381-7.811,8.021-7.811c1.659,0,3.759,0.567,5.019,2.184L282.076,16.443z"/>
		<path fill="#FFFFFF" d="M291.316,12.58h2.708l6.467,14.865h-3.695l-1.28-3.149h-5.774l-1.239,3.149h-3.611L291.316,12.58z
			 M292.576,16.905l-1.807,4.619h3.633L292.576,16.905z"/>
		<path fill="#FFFFFF" d="M301.67,12.58h5.753c3.044,0,5.606,1.05,5.606,4.514c0,2.079-1.113,3.695-3.213,4.073l3.779,6.278h-3.926
			l-3.107-5.942h-1.617v5.942h-3.275V12.58z M304.945,18.732h1.932c1.197,0,2.75-0.042,2.75-1.659c0-1.491-1.344-1.722-2.54-1.722
			h-2.142V18.732z"/>
		<path fill="#FFFFFF" d="M315.089,12.58h10.099v3.023h-6.823v2.771h6.446v3.023h-6.446v3.023h7.202v3.023h-10.478V12.58z"/>
		<path fill="#FFFFFF" d="M332.393,17.892c0.336-0.084,0.672-0.147,1.028-0.147c2.792,0,4.661,2.142,4.661,4.85
			c0,3.065-2.436,5.102-5.543,5.102s-5.543-2.037-5.543-5.102c0-2.142,0.84-3.443,1.785-4.934l3.254-5.081h3.842L332.393,17.892z
			 M332.539,20.139c-1.406,0-2.394,0.987-2.394,2.331s0.987,2.331,2.394,2.331s2.394-0.987,2.394-2.331
			S333.945,20.139,332.539,20.139z"/>
		<path fill="#FFFFFF" d="M344.698,12.328c4.409,0,5.522,4.157,5.522,7.685s-1.113,7.685-5.522,7.685s-5.522-4.157-5.522-7.685
			S340.289,12.328,344.698,12.328z M344.698,24.8c2.268,0,2.372-3.233,2.372-4.787s-0.104-4.787-2.372-4.787
			s-2.372,3.233-2.372,4.787S342.431,24.8,344.698,24.8z"/>
	</g>
	<g display="inline">
		<path fill="#FFFFFF" d="M18.842,14.752h3.673c1.801,0,4.105,0.703,4.105,3.367c0,2.305-1.836,3.331-3.835,3.331H20.03v6.05h-1.188
			V14.752z M20.03,20.37h2.701c1.351,0,2.701-0.576,2.701-2.251c0-1.639-1.404-2.287-2.773-2.287H20.03V20.37z"/>
		<path fill="#FFFFFF" d="M28.904,14.752h3.349c1.008,0,4.537,0,4.537,3.349c0,2.431-1.854,3.097-3.259,3.277L37.24,27.5H35.89
			l-3.583-6.05h-2.214v6.05h-1.188V14.752z M30.092,20.37h2.521c2.503,0,2.989-1.387,2.989-2.269s-0.486-2.269-2.989-2.269h-2.521
			V20.37z"/>
		<path fill="#FFFFFF" d="M45.069,14.428c3.889,0,6.59,2.809,6.59,6.698s-2.701,6.698-6.59,6.698s-6.59-2.809-6.59-6.698
			S41.18,14.428,45.069,14.428z M45.069,26.744c3.331,0,5.401-2.449,5.401-5.618s-2.07-5.618-5.401-5.618s-5.402,2.449-5.402,5.618
			S41.738,26.744,45.069,26.744z"/>
		<path fill="#FFFFFF" d="M53.923,14.752h1.782l4.646,10.695l4.646-10.695h1.692V27.5H65.5V16.265h-0.036L60.603,27.5h-0.522
			l-4.934-11.235h-0.036V27.5h-1.188V14.752z"/>
		<path fill="#FFFFFF" d="M75.543,14.428c3.889,0,6.59,2.809,6.59,6.698s-2.701,6.698-6.59,6.698s-6.59-2.809-6.59-6.698
			S71.654,14.428,75.543,14.428z M75.543,26.744c3.331,0,5.401-2.449,5.401-5.618s-2.07-5.618-5.401-5.618s-5.402,2.449-5.402,5.618
			S72.212,26.744,75.543,26.744z"/>
		<path fill="#FFFFFF" d="M99.43,25.501c-1.207,1.656-2.863,2.323-4.735,2.323c-3.889,0-6.59-2.809-6.59-6.698
			s2.701-6.698,6.59-6.698c1.729,0,3.277,0.576,4.393,1.999l-0.972,0.81c-0.792-1.188-2.143-1.729-3.421-1.729
			c-3.331,0-5.402,2.449-5.402,5.618s2.071,5.618,5.402,5.618c1.278,0,2.863-0.612,3.763-1.98L99.43,25.501z"/>
		<path fill="#FFFFFF" d="M107.097,14.428c3.889,0,6.59,2.809,6.59,6.698s-2.701,6.698-6.59,6.698s-6.59-2.809-6.59-6.698
			S103.208,14.428,107.097,14.428z M107.097,26.744c3.331,0,5.401-2.449,5.401-5.618s-2.07-5.618-5.401-5.618
			s-5.402,2.449-5.402,5.618S103.766,26.744,107.097,26.744z"/>
		<path fill="#FFFFFF" d="M115.915,14.752h3.943c6.626,0,6.896,5.438,6.896,6.374c0,0.937-0.27,6.374-6.896,6.374h-3.943V14.752z
			 M117.104,26.42h2.449c3.385,0,6.014-1.639,6.014-5.294c0-3.655-2.629-5.293-6.014-5.293h-2.449V26.42z"/>
		<path fill="#FFFFFF" d="M129.145,14.752h7.796v1.081h-6.608v4.538h6.194v1.08h-6.194v4.97h6.896v1.08h-8.084V14.752z"/>
		<path fill="#FFFFFF" d="M147.866,14.752h1.224l5.366,12.748h-1.333l-1.386-3.385h-6.752l-1.44,3.385h-1.243L147.866,14.752z
			 M148.424,16.049l-2.971,6.986h5.852L148.424,16.049z"/>
		<path fill="#FFFFFF" d="M156.019,14.752h3.673c1.801,0,4.105,0.703,4.105,3.367c0,2.305-1.836,3.331-3.835,3.331h-2.754v6.05
			h-1.188V14.752z M157.207,20.37h2.701c1.351,0,2.701-0.576,2.701-2.251c0-1.639-1.404-2.287-2.773-2.287h-2.628V20.37z"/>
		<path fill="#FFFFFF" d="M166.081,14.752h3.673c1.801,0,4.105,0.703,4.105,3.367c0,2.305-1.836,3.331-3.835,3.331h-2.755v6.05
			h-1.188V14.752z M167.269,20.37h2.701c1.35,0,2.701-0.576,2.701-2.251c0-1.639-1.404-2.287-2.773-2.287h-2.628V20.37z"/>
		<path fill="#FFFFFF" d="M176.142,14.752h1.188V26.42h5.941v1.08h-7.13V14.752z"/>
		<path fill="#FFFFFF" d="M184.872,14.752h1.188V27.5h-1.188V14.752z"/>
		<path fill="#FFFFFF" d="M189.282,14.752h7.796v1.081h-6.607v4.538h6.193v1.08h-6.193v4.97h6.896v1.08h-8.085V14.752z"/>
		<path fill="#FFFFFF" d="M199.523,14.752h3.943c6.627,0,6.896,5.438,6.896,6.374c0,0.937-0.27,6.374-6.896,6.374h-3.943V14.752z
			 M200.713,26.42h2.448c3.385,0,6.014-1.639,6.014-5.294c0-3.655-2.629-5.293-6.014-5.293h-2.448V26.42z"/>
		<path fill="#FFFFFF" d="M213.348,19.073c0.486,0,0.865,0.378,0.865,0.864c0,0.486-0.379,0.864-0.865,0.864
			s-0.863-0.378-0.863-0.864C212.484,19.452,212.861,19.073,213.348,19.073z M213.348,25.879c0.486,0,0.865,0.378,0.865,0.864
			c0,0.486-0.379,0.864-0.865,0.864s-0.863-0.378-0.863-0.864C212.484,26.258,212.861,25.879,213.348,25.879z"/>
	</g>
	<g display="inline">
		<polygon fill="#FFFFFF" points="371.812,12.719 364.224,22.104 358.77,17.64 356.663,20.213 362.133,24.691 364.706,26.797 
			366.798,24.21 374.397,14.81 		"/>
	</g>
</g>
</svg>
