<?xml version="1.0" standalone="no"?>
<!DOCTYPE svg PUBLIC "-//W3C//DTD SVG 20010904//EN"
 "http://www.w3.org/TR/2001/REC-SVG-20010904/DTD/svg10.dtd">
<svg version="1.0" xmlns="http://www.w3.org/2000/svg"
 width="720.000000pt" height="720.000000pt" viewBox="0 0 720.000000 720.000000"
 preserveAspectRatio="xMidYMid meet">
<metadata>
Created by potrace 1.11, written by Peter Selinger 2001-2013
</metadata>
<g transform="translate(0.000000,720.000000) scale(0.100000,-0.100000)"
fill="#000000" stroke="none">
<path d="M11 6483 c1 -651 2 -702 15 -638 42 198 140 429 255 600 272 403 681
660 1179 738 14 2 -307 5 -712 6 l-738 1 1 -707z"/>
<path d="M1990 7183 c405 -66 741 -237 1002 -511 228 -238 385 -547 443 -867
11 -60 13 34 14 658 l1 727 -742 -1 c-409 -1 -732 -4 -718 -6z"/>
<path d="M3750 5465 l0 -1725 1720 0 1720 0 0 1725 0 1725 -702 -1 c-387 -1
-692 -4 -678 -6 231 -36 438 -109 625 -221 259 -155 510 -423 644 -689 l21
-43 -198 0 -198 0 -50 72 c-63 93 -207 239 -310 315 -144 106 -329 190 -504
228 -115 25 -354 31 -475 12 -449 -72 -807 -331 -1007 -732 -94 -187 -136
-359 -145 -585 -10 -279 34 -486 155 -723 192 -379 542 -638 962 -713 139 -25
365 -23 497 5 114 24 250 69 334 111 169 86 361 247 479 404 l65 86 197 0 198
0 -24 -52 c-85 -193 -274 -417 -476 -567 -228 -170 -530 -288 -820 -321 -148
-18 -415 -8 -554 20 -235 46 -489 154 -676 287 -122 87 -306 272 -392 393 -80
112 -185 319 -226 445 -170 516 -96 1089 197 1527 275 411 671 658 1191 741
14 2 -334 5 -772 6 l-798 1 0 -1725z"/>
<path d="M1570 6864 c-668 -85 -1139 -587 -1186 -1265 -9 -129 22 -388 50
-416 2 -3 51 9 108 25 389 116 783 114 1138 -4 236 -79 409 -184 744 -455 125
-101 238 -192 251 -202 23 -17 23 -16 78 43 156 168 255 361 309 600 20 91 23
132 23 300 0 216 -16 316 -77 489 -158 447 -540 772 -1019 866 -81 16 -347 28
-419 19z"/>
<path d="M3442 5195 c-1 -16 -13 -75 -26 -130 -61 -250 -161 -450 -335 -664
-98 -122 -104 -105 64 -187 93 -45 291 -111 302 -100 2 1 2 252 0 557 -1 305
-3 541 -5 524z"/>
<path d="M11 4463 l-1 -713 793 1 c497 1 764 5 717 10 -508 58 -944 316 -1228
727 -112 163 -210 387 -257 587 l-24 100 0 -712z"/>
<path d="M835 4956 c-85 -14 -235 -55 -298 -81 l-37 -15 24 -49 c82 -161 238
-346 385 -456 235 -177 522 -270 831 -269 172 1 255 14 411 65 115 38 294 128
294 149 0 15 -269 241 -434 366 -160 120 -404 228 -619 275 -124 26 -436 35
-557 15z"/>
<path d="M2670 4023 c-202 -128 -542 -245 -775 -266 -22 -2 319 -4 758 -5 740
-2 798 -1 795 15 -2 13 -28 20 -111 35 -193 32 -360 97 -525 204 -45 30 -84
54 -85 53 -1 0 -27 -16 -57 -36z"/>
<path d="M10 1735 l0 -1725 1720 0 1720 0 0 1725 0 1725 -727 -1 c-473 -1
-707 -5 -668 -10 393 -59 706 -217 980 -494 124 -125 275 -337 316 -442 l9
-23 -198 0 -197 0 -40 62 c-55 85 -226 261 -322 330 -159 115 -329 190 -515
229 -132 28 -357 30 -498 5 -558 -99 -982 -521 -1097 -1093 -25 -124 -25 -432
0 -557 41 -202 126 -403 237 -559 75 -104 237 -263 338 -330 160 -107 347
-180 540 -212 163 -27 399 -17 557 24 147 38 324 122 445 211 101 75 236 209
305 303 l49 67 198 0 198 0 -41 -82 c-290 -577 -977 -931 -1668 -858 -499 53
-922 292 -1221 690 -83 111 -196 331 -240 468 -164 510 -90 1083 196 1512 271
407 682 666 1180 744 80 12 7 14 -733 15 l-823 1 0 -1725z"/>
<path d="M3747 3453 c-4 -3 -7 -780 -7 -1725 l0 -1718 778 1 c694 1 770 3 712
15 -368 80 -631 309 -740 644 -24 75 -50 215 -50 271 l0 39 184 0 184 0 7 -57
c9 -82 59 -226 103 -297 186 -308 590 -403 910 -214 94 55 193 161 241 259
128 260 77 546 -128 715 -100 83 -237 144 -556 250 -395 130 -514 191 -660
339 -44 44 -95 106 -114 138 -131 223 -142 559 -25 806 63 135 167 257 290
342 74 51 227 118 331 146 88 24 116 27 278 27 195 1 265 -11 406 -68 271
-111 458 -341 520 -641 10 -49 19 -100 19 -113 l0 -22 -182 2 -181 3 -22 82
c-82 310 -290 466 -600 450 -266 -14 -468 -156 -547 -385 -19 -55 -23 -88 -23
-187 0 -139 14 -191 77 -285 88 -132 229 -209 648 -355 358 -124 529 -215 670
-355 165 -165 230 -332 230 -587 0 -261 -83 -477 -249 -655 -142 -152 -311
-245 -532 -293 -57 -12 24 -14 704 -14 l767 -1 0 1725 0 1725 -1718 0 c-945 0
-1722 -3 -1725 -7z"/>
</g>
</svg>
