<?xml version="1.0" standalone="no"?>
<!DOCTYPE svg PUBLIC "-//W3C//DTD SVG 20010904//EN"
 "http://www.w3.org/TR/2001/REC-SVG-20010904/DTD/svg10.dtd">
<svg version="1.0" xmlns="http://www.w3.org/2000/svg"
 width="700.000000pt" height="700.000000pt" viewBox="0 0 700.000000 700.000000"
 preserveAspectRatio="xMidYMid meet">
<metadata>
Created by potrace 1.11, written by Peter Selinger 2001-2013
</metadata>
<g transform="translate(0.000000,700.000000) scale(0.100000,-0.100000)"
fill="#000000" stroke="none">
<path d="M3278 6995 c-1 -1 -38 -5 -80 -9 -100 -8 -214 -23 -313 -42 -44 -9
-93 -18 -110 -20 -16 -3 -57 -12 -90 -21 -33 -8 -70 -17 -82 -19 -32 -6 -343
-109 -384 -127 -19 -8 -50 -22 -71 -31 -20 -9 -39 -16 -43 -16 -14 0 -302
-148 -380 -195 -78 -47 -210 -132 -230 -147 -5 -5 -55 -42 -110 -83 -254 -191
-493 -433 -688 -697 -74 -102 -123 -172 -152 -220 -69 -115 -118 -200 -161
-283 -44 -85 -70 -146 -159 -360 -70 -167 -160 -530 -190 -765 -3 -25 -8 -61
-10 -80 -19 -144 -24 -428 -11 -625 8 -123 12 -160 31 -280 3 -16 7 -41 9 -55
2 -14 7 -43 11 -65 4 -22 9 -47 10 -55 2 -8 11 -46 20 -85 9 -38 18 -78 20
-87 20 -96 123 -403 165 -493 5 -11 34 -73 64 -138 106 -228 260 -473 429
-686 96 -119 325 -358 437 -455 445 -383 1018 -667 1580 -781 108 -22 176 -34
235 -41 28 -3 55 -7 62 -9 84 -27 656 -26 843 1 345 50 614 122 915 245 200
81 485 228 485 250 0 12 -130 207 -164 247 -13 15 -45 52 -71 82 -126 146
-418 391 -441 371 -17 -15 -220 -100 -323 -135 -158 -55 -291 -87 -501 -120
-150 -24 -473 -24 -660 0 -169 21 -469 99 -595 154 -11 5 -49 21 -85 36 -180
77 -421 223 -590 359 -184 148 -390 375 -531 587 -167 253 -308 593 -364 883
-13 68 -15 81 -20 120 -3 22 -8 51 -10 65 -13 73 -19 204 -18 360 4 563 200
1111 557 1555 138 173 356 377 541 506 140 99 372 228 452 253 22 7 22 7 5
-26 -11 -22 -17 -56 -17 -103 1 -86 27 -144 100 -223 l50 -54 -112 -58 c-439
-228 -779 -589 -977 -1040 -70 -160 -136 -392 -152 -532 -3 -29 -8 -60 -11
-68 -3 -8 -7 -96 -9 -195 -4 -162 6 -291 31 -434 17 -94 70 -281 80 -281 7 0
23 8 36 18 73 54 405 212 581 277 51 19 53 23 63 100 3 28 12 75 20 105 7 30
16 78 20 105 3 28 8 65 11 82 6 53 6 178 -1 338 -11 230 13 306 169 528 108
154 105 150 148 209 58 77 63 105 63 358 0 220 1 226 24 265 33 55 51 75 85
96 l29 18 31 -47 c44 -68 281 -308 346 -351 124 -82 229 -110 307 -80 33 12
77 52 103 94 23 37 65 181 74 250 3 28 8 66 11 85 12 82 15 127 21 277 5 137
8 193 13 239 0 6 13 24 27 40 42 47 84 116 95 157 9 35 13 38 37 33 15 -3 45
-8 67 -12 22 -4 63 -17 90 -29 137 -60 385 -272 385 -329 0 -30 21 -75 58
-124 52 -68 189 -148 524 -307 72 -33 124 -65 133 -79 21 -31 24 -96 10 -166
-15 -71 -29 -96 -58 -104 -19 -4 -25 -14 -30 -46 -14 -107 -72 -165 -173 -176
-50 -5 -133 -40 -277 -116 -30 -16 -55 -20 -118 -19 -43 1 -87 -3 -97 -8 -10
-5 -48 -14 -84 -18 -53 -8 -82 -6 -144 9 -74 18 -79 18 -91 1 -26 -35 -15 -94
33 -173 38 -64 71 -144 80 -200 2 -8 6 -84 9 -170 7 -161 8 -169 20 -285 13
-126 61 -322 86 -349 5 -6 73 -25 151 -44 268 -63 461 -126 678 -219 68 -29
356 -172 407 -202 l52 -31 20 68 c23 76 47 179 57 236 3 21 8 48 10 60 19 98
23 365 8 511 -18 165 -22 190 -54 320 -37 149 -104 327 -171 454 -48 90 -169
273 -188 285 -5 3 4 37 19 74 65 159 55 289 -29 385 -18 20 -53 43 -79 53 -76
29 -263 127 -355 188 -95 62 -126 95 -177 187 -19 35 -75 104 -125 156 -49 51
-87 93 -84 93 13 0 207 -84 290 -125 355 -176 704 -479 941 -815 172 -245 319
-570 385 -850 8 -36 17 -73 19 -82 36 -154 48 -283 49 -503 0 -121 -3 -249 -8
-285 -4 -36 -10 -85 -13 -110 -5 -38 -25 -143 -40 -202 -2 -10 -6 -26 -8 -36
-12 -54 -31 -118 -62 -207 -27 -79 -32 -101 -22 -110 7 -7 54 -45 103 -86 189
-154 390 -355 539 -537 33 -39 62 -72 64 -72 6 0 128 262 142 305 7 22 16 45
20 50 17 22 129 378 144 455 2 14 10 48 16 75 12 53 13 57 29 150 31 180 36
256 36 540 0 230 -8 409 -20 470 -3 11 -7 38 -10 60 -95 687 -407 1355 -871
1864 -75 82 -255 258 -314 306 -25 21 -65 54 -88 74 -24 20 -81 62 -125 94
-45 32 -90 64 -100 72 -9 8 -19 15 -21 15 -2 0 -31 18 -64 40 -33 22 -64 40
-70 40 -6 0 -12 4 -14 8 -8 20 -306 171 -468 237 -190 78 -497 173 -614 190
-21 3 -41 7 -45 9 -3 2 -22 6 -41 9 -41 7 -235 34 -300 43 -47 6 -546 15 -552
9z m282 -959 c62 -10 65 -12 68 -41 2 -24 -9 -44 -54 -99 l-57 -69 2 -106 c1
-58 4 -153 5 -211 4 -163 -25 -285 -90 -385 -66 -101 -153 -129 -244 -79 -62
34 -114 89 -265 283 -63 80 -135 169 -160 196 -26 28 -56 69 -67 93 -22 48
-26 123 -10 164 23 58 199 167 352 218 127 43 380 60 520 36z"/>
<path d="M3020 4649 c-6 -11 -18 -45 -26 -75 -29 -113 -62 -151 -143 -169 -80
-17 -164 -81 -201 -154 -16 -31 -52 -81 -80 -110 -55 -61 -57 -73 -27 -161 9
-25 21 -67 27 -95 21 -95 23 -96 158 -90 64 3 128 6 142 8 60 7 157 -40 178
-87 7 -16 7 -38 1 -67 -12 -53 -87 -294 -103 -328 -6 -13 -11 -72 -11 -130 0
-90 5 -118 28 -185 15 -43 26 -80 24 -83 -2 -2 -40 -10 -83 -17 -43 -8 -95
-17 -114 -21 -30 -5 -65 -13 -130 -29 -304 -76 -658 -220 -913 -371 l-78 -46
28 -50 c111 -200 363 -466 594 -628 l45 -32 85 39 c152 71 434 166 544 185 17
3 71 12 120 21 50 8 128 20 175 24 89 10 436 8 505 -2 22 -3 60 -8 84 -11 131
-17 319 -61 471 -112 125 -41 372 -153 455 -206 10 -6 58 -36 105 -66 300
-189 610 -506 789 -805 120 -202 211 -407 271 -608 30 -102 41 -142 42 -165 1
-7 15 -13 32 -14 17 0 233 -1 480 -1 327 -1 451 2 454 10 5 16 -33 206 -69
340 -134 502 -376 967 -714 1368 -49 58 -343 355 -381 384 -10 8 -53 42 -94
75 -325 261 -686 457 -1085 590 -55 18 -119 38 -141 44 -34 9 -52 24 -100 84
-32 39 -61 74 -64 77 -3 3 -46 55 -95 115 -49 61 -92 112 -95 115 -3 3 -39 46
-79 95 -40 50 -92 106 -114 125 -85 71 -120 118 -183 241 -118 232 -159 287
-348 476 l-174 171 -22 74 c-40 134 -118 278 -150 278 -5 0 -14 -9 -20 -21z"/>
<path d="M3339 1676 c-2 -2 -39 -6 -81 -10 -43 -4 -83 -8 -90 -11 -7 -2 -31
-6 -53 -9 -131 -18 -448 -107 -477 -135 -11 -10 219 -85 352 -115 103 -22 172
-33 320 -51 48 -5 315 -6 365 -1 17 2 59 6 95 10 87 10 259 43 345 67 124 36
255 80 255 88 0 23 -402 134 -535 147 -22 2 -53 6 -70 9 -35 7 -420 17 -426
11z"/>
<path d="M302 980 c-65 -138 -97 -215 -137 -330 -67 -194 -145 -495 -159 -612
l-4 -38 503 0 c556 0 507 -5 519 57 7 37 29 110 62 213 18 57 30 107 26 111
-4 3 -50 39 -102 80 -107 83 -110 86 -235 194 -100 87 -293 278 -371 370 l-51
60 -51 -105z"/>
</g>
</svg>
