<?xml version="1.0" encoding="utf-8"?>
<!-- Generator: Adobe Illustrator 16.0.3, SVG Export Plug-In . SVG Version: 6.00 Build 0)  -->
<!DOCTYPE svg PUBLIC "-//W3C//DTD SVG 1.1//EN" "http://www.w3.org/Graphics/SVG/1.1/DTD/svg11.dtd">
<svg version="1.1" id="Layer_1" xmlns="http://www.w3.org/2000/svg" xmlns:xlink="http://www.w3.org/1999/xlink" x="0px" y="0px"
	 width="351.625px" height="40.156px" viewBox="0 0 351.625 40.156" enable-background="new 0 0 351.625 40.156"
	 xml:space="preserve">
<g id="Layer_1_1_">
	<rect width="351.625" height="40.156"/>
	<g>
		<path fill="#FFFFFF" d="M194.878,15.522c-0.604-0.773-1.812-1.135-2.729-1.135c-1.063,0-2.535,0.483-2.535,1.763
			c0,3.116,7.873,1.111,7.873,7.102c0,3.816-3.066,5.629-6.594,5.629c-2.197,0-4.131-0.652-5.748-2.149l2.681-2.946
			c0.772,1.014,2.028,1.617,3.284,1.617c1.232,0,2.609-0.58,2.609-1.787c0-3.141-8.02-1.449-8.02-7.151
			c0-3.647,3.164-5.555,6.521-5.555c1.932,0,3.791,0.507,5.24,1.787L194.878,15.522z"/>
		<path fill="#FFFFFF" d="M214.348,21.851c0,4.033-2.464,7.029-7.197,7.029c-4.758,0-7.223-2.996-7.223-7.029V11.344h3.768v10.363
			c0,2.102,1.449,3.695,3.455,3.695c1.98,0,3.431-1.594,3.431-3.695V11.344h3.769v10.507H214.348z"/>
		<path fill="#FFFFFF" d="M217.466,11.344h5.7l3.938,11.16h0.049l3.962-11.16h5.676v17.102h-3.769V15.329h-0.049l-4.492,13.116
			h-2.875l-4.322-13.116h-0.049v13.116h-3.769V11.344z"/>
		<path fill="#FFFFFF" d="M239.908,11.344h5.699l3.938,11.16h0.048l3.963-11.16h5.676v17.102h-3.769V15.329h-0.049l-4.492,13.116
			h-2.875l-4.323-13.116h-0.049v13.116h-3.768V11.344z"/>
		<path fill="#FFFFFF" d="M262.494,11.344h11.619v3.479h-7.852v3.188h7.415v3.479h-7.415v3.479h8.285v3.479h-12.054L262.494,11.344
			L262.494,11.344z"/>
		<path fill="#FFFFFF" d="M277.206,11.344h6.618c3.503,0,6.449,1.208,6.449,5.193c0,2.391-1.28,4.251-3.695,4.686l4.348,7.222
			h-4.517l-3.575-6.836h-1.859v6.836h-3.769V11.344z M280.975,18.421h2.223c1.377,0,3.164-0.048,3.164-1.908
			c0-1.715-1.547-1.98-2.924-1.98h-2.463V18.421z"/>
		<path fill="#FFFFFF" d="M291.941,24.604l6.644-5.966c0.677-0.628,1.521-1.353,1.521-2.392c0-1.159-0.989-1.86-2.102-1.86
			c-1.328,0-2.125,0.942-2.222,2.174l-3.623-0.266c0.217-3.526,2.681-5.241,6.038-5.241c3.115,0,5.531,1.715,5.531,5.146
			c0,2.198-0.941,3.454-2.246,4.588l-5.193,4.469h7.585v3.188h-11.933V24.604L291.941,24.604z"/>
		<path fill="#FFFFFF" d="M311.654,15.402l-3.432,3.019l-2.053-2.367l5.579-4.71h3.382v17.102h-3.478L311.654,15.402L311.654,15.402
			z"/>
	</g>
	<g>
		<path fill="#FFFFFF" d="M40.919,12.111h1.574L49.391,28.5h-1.713l-1.782-4.352h-8.68L35.363,28.5h-1.597L40.919,12.111z
			 M41.636,13.778l-3.819,8.981h7.523L41.636,13.778z"/>
		<path fill="#FFFFFF" d="M51.409,12.111h4.722c2.315,0,5.278,0.903,5.278,4.329c0,2.963-2.361,4.283-4.931,4.283h-3.542V28.5
			h-1.528L51.409,12.111L51.409,12.111z M52.937,19.333h3.472c1.736,0,3.472-0.741,3.472-2.894c0-2.106-1.806-2.939-3.564-2.939
			h-3.38V19.333z"/>
		<path fill="#FFFFFF" d="M64.353,12.111h4.722c2.315,0,5.278,0.903,5.278,4.329c0,2.963-2.361,4.283-4.931,4.283H65.88V28.5h-1.528
			L64.353,12.111L64.353,12.111z M65.88,19.333h3.472c1.736,0,3.472-0.741,3.472-2.894c0-2.106-1.806-2.939-3.564-2.939h-3.38
			V19.333z"/>
		<path fill="#FFFFFF" d="M77.296,12.111h1.528v15h7.639V28.5h-9.167V12.111z"/>
		<path fill="#FFFFFF" d="M89.591,21.44l-6.018-9.329h1.829l4.954,7.778l5.069-7.778h1.713l-6.019,9.329v7.06h-1.528V21.44z"/>
		<path fill="#FFFFFF" d="M123.741,25.931c-1.551,2.129-3.68,2.986-6.088,2.986c-5,0-8.472-3.611-8.472-8.611
			s3.472-8.611,8.472-8.611c2.222,0,4.213,0.741,5.648,2.569l-1.25,1.042c-1.019-1.527-2.755-2.222-4.398-2.222
			c-4.282,0-6.944,3.148-6.944,7.222s2.662,7.222,6.944,7.222c1.644,0,3.681-0.786,4.838-2.546L123.741,25.931z"/>
		<path fill="#FFFFFF" d="M133.606,11.695c5,0,8.472,3.611,8.472,8.611s-3.472,8.611-8.472,8.611s-8.472-3.611-8.472-8.611
			S128.607,11.695,133.606,11.695z M133.606,27.528c4.283,0,6.944-3.147,6.944-7.222s-2.662-7.222-6.944-7.222
			c-4.282,0-6.944,3.148-6.944,7.222C126.663,24.38,129.324,27.528,133.606,27.528z"/>
		<path fill="#FFFFFF" d="M144.955,12.111h5.069c8.518,0,8.865,6.991,8.865,8.194c0,1.202-0.347,8.194-8.865,8.194h-5.069V12.111z
			 M146.483,27.111h3.148c4.352,0,7.731-2.105,7.731-6.806c0-4.699-3.379-6.805-7.731-6.805h-3.148V27.111z"/>
		<path fill="#FFFFFF" d="M161.974,12.111h10.023V13.5h-8.495v5.833h7.963v1.389h-7.963v6.389h8.866V28.5h-10.394V12.111z"/>
		<path fill="#FFFFFF" d="M176.121,17.667c0.625,0,1.111,0.486,1.111,1.111s-0.486,1.111-1.111,1.111s-1.111-0.486-1.111-1.111
			S175.496,17.667,176.121,17.667z M176.121,26.417c0.625,0,1.111,0.485,1.111,1.11s-0.486,1.111-1.111,1.111
			s-1.111-0.486-1.111-1.111S175.496,26.417,176.121,26.417z"/>
	</g>
</g>
<g id="Layer_5" display="none">
	<rect display="inline" fill="#40D31C" width="351.625" height="40.156"/>
	<g display="inline">
		<path fill="#FFFFFF" d="M193.271,15.522c-0.604-0.773-1.812-1.135-2.729-1.135c-1.063,0-2.536,0.483-2.536,1.763
			c0,3.116,7.874,1.111,7.874,7.102c0,3.816-3.066,5.629-6.594,5.629c-2.198,0-4.131-0.652-5.749-2.149l2.681-2.946
			c0.773,1.014,2.029,1.617,3.285,1.617c1.232,0,2.609-0.58,2.609-1.787c0-3.141-8.021-1.449-8.021-7.151
			c0-3.647,3.164-5.555,6.521-5.555c1.933,0,3.792,0.507,5.241,1.787L193.271,15.522z"/>
		<path fill="#FFFFFF" d="M212.742,21.851c0,4.033-2.465,7.029-7.198,7.029c-4.758,0-7.222-2.996-7.222-7.029V11.344h3.768v10.363
			c0,2.102,1.449,3.695,3.454,3.695c1.981,0,3.431-1.594,3.431-3.695V11.344h3.769L212.742,21.851L212.742,21.851z"/>
		<path fill="#FFFFFF" d="M215.859,11.344h5.701l3.938,11.16h0.048l3.962-11.16h5.676v17.102h-3.768V15.329h-0.049l-4.492,13.116
			H224l-4.323-13.116h-0.049v13.116h-3.769V11.344z"/>
		<path fill="#FFFFFF" d="M238.302,11.344h5.7l3.938,11.16h0.049l3.962-11.16h5.676v17.102h-3.769V15.329h-0.049l-4.492,13.116
			h-2.875l-4.322-13.116h-0.049v13.116h-3.769V11.344z"/>
		<path fill="#FFFFFF" d="M260.889,11.344h11.619v3.479h-7.851v3.188h7.415v3.479h-7.415v3.479h8.284v3.479h-12.053V11.344
			L260.889,11.344z"/>
		<path fill="#FFFFFF" d="M275.602,11.344h6.617c3.504,0,6.449,1.208,6.449,5.193c0,2.391-1.279,4.251-3.695,4.686l4.349,7.222
			h-4.517l-3.576-6.836h-1.859v6.836h-3.768V11.344z M279.368,18.421h2.223c1.377,0,3.164-0.048,3.164-1.908
			c0-1.715-1.546-1.98-2.923-1.98h-2.464V18.421z"/>
		<path fill="#FFFFFF" d="M290.337,24.604l6.644-5.966c0.677-0.628,1.521-1.353,1.521-2.392c0-1.159-0.99-1.86-2.103-1.86
			c-1.327,0-2.125,0.942-2.222,2.174l-3.622-0.266c0.217-3.526,2.68-5.241,6.037-5.241c3.116,0,5.531,1.715,5.531,5.146
			c0,2.198-0.941,3.454-2.246,4.588l-5.193,4.469h7.586v3.188h-11.934L290.337,24.604L290.337,24.604z"/>
		<path fill="#FFFFFF" d="M310.049,15.402l-3.431,3.019l-2.054-2.367l5.58-4.71h3.382v17.102h-3.479L310.049,15.402L310.049,15.402z
			"/>
	</g>
	<g display="inline">
		<polygon fill="#FFFFFF" points="334.249,14.039 326.661,23.423 321.207,18.959 319.101,21.533 324.57,26.009 327.145,28.117 
			329.235,25.531 336.835,16.129 		"/>
	</g>
	<g display="inline">
		<path fill="#FFFFFF" d="M31.48,25.931c-1.551,2.129-3.68,2.986-6.088,2.986c-5,0-8.472-3.611-8.472-8.611s3.472-8.611,8.472-8.611
			c2.222,0,4.213,0.741,5.648,2.569l-1.25,1.042c-1.019-1.527-2.755-2.222-4.398-2.222c-4.282,0-6.944,3.148-6.944,7.222
			s2.662,7.222,6.944,7.222c1.644,0,3.681-0.786,4.838-2.546L31.48,25.931z"/>
		<path fill="#FFFFFF" d="M41.346,11.695c5,0,8.472,3.611,8.472,8.611s-3.472,8.611-8.472,8.611s-8.472-3.611-8.472-8.611
			S36.347,11.695,41.346,11.695z M41.346,27.528c4.283,0,6.944-3.147,6.944-7.222s-2.662-7.222-6.944-7.222
			c-4.282,0-6.944,3.148-6.944,7.222S37.064,27.528,41.346,27.528z"/>
		<path fill="#FFFFFF" d="M52.695,12.111h5.069c8.518,0,8.865,6.991,8.865,8.194c0,1.202-0.347,8.194-8.865,8.194h-5.069V12.111z
			 M54.223,27.111h3.148c4.352,0,7.731-2.105,7.731-6.806c0-4.699-3.38-6.805-7.731-6.805h-3.148V27.111z"/>
		<path fill="#FFFFFF" d="M69.713,12.111h10.023V13.5h-8.495v5.833h7.963v1.389h-7.963v6.389h8.866V28.5H69.713V12.111z"/>
		<path fill="#FFFFFF" d="M93.793,12.111h1.574l6.898,16.389h-1.713l-1.782-4.352h-8.68L88.237,28.5H86.64L93.793,12.111z
			 M94.51,13.778l-3.819,8.981h7.523L94.51,13.778z"/>
		<path fill="#FFFFFF" d="M104.283,12.111h4.722c2.315,0,5.278,0.903,5.278,4.329c0,2.963-2.361,4.283-4.931,4.283h-3.542V28.5
			h-1.528L104.283,12.111L104.283,12.111z M105.811,19.333h3.472c1.736,0,3.472-0.741,3.472-2.894c0-2.106-1.806-2.939-3.564-2.939
			h-3.38V19.333z"/>
		<path fill="#FFFFFF" d="M117.227,12.111h4.722c2.315,0,5.278,0.903,5.278,4.329c0,2.963-2.361,4.283-4.931,4.283h-3.542V28.5
			h-1.528L117.227,12.111L117.227,12.111z M118.755,19.333h3.472c1.736,0,3.472-0.741,3.472-2.894c0-2.106-1.806-2.939-3.564-2.939
			h-3.38V19.333z"/>
		<path fill="#FFFFFF" d="M130.17,12.111h1.528v15h7.639V28.5h-9.167V12.111L130.17,12.111z"/>
		<path fill="#FFFFFF" d="M141.4,12.111h1.528V28.5H141.4V12.111z"/>
		<path fill="#FFFFFF" d="M147.073,12.111h10.023V13.5h-8.495v5.833h7.963v1.389h-7.963v6.389h8.866V28.5h-10.394V12.111z"/>
		<path fill="#FFFFFF" d="M160.249,12.111h5.069c8.518,0,8.865,6.991,8.865,8.194c0,1.202-0.347,8.194-8.865,8.194h-5.069V12.111z
			 M161.776,27.111h3.148c4.352,0,7.731-2.105,7.731-6.806c0-4.699-3.38-6.805-7.731-6.805h-3.148V27.111z"/>
		<path fill="#FFFFFF" d="M178.031,17.667c0.625,0,1.111,0.486,1.111,1.111s-0.486,1.111-1.111,1.111s-1.111-0.486-1.111-1.111
			S177.406,17.667,178.031,17.667z M178.031,26.417c0.625,0,1.111,0.485,1.111,1.11s-0.486,1.111-1.111,1.111
			s-1.111-0.486-1.111-1.111S177.406,26.417,178.031,26.417z"/>
	</g>
</g>
</svg>
