<?xml version="1.0" encoding="utf-8"?>
<!-- Generator: Adobe Illustrator 16.0.3, SVG Export Plug-In . SVG Version: 6.00 Build 0)  -->
<!DOCTYPE svg PUBLIC "-//W3C//DTD SVG 1.1//EN" "http://www.w3.org/Graphics/SVG/1.1/DTD/svg11.dtd">
<svg version="1.1" xmlns="http://www.w3.org/2000/svg" xmlns:xlink="http://www.w3.org/1999/xlink" x="0px" y="0px"
	 width="296.583px" height="40.155px" viewBox="0 0 296.583 40.155" enable-background="new 0 0 296.583 40.155"
	 xml:space="preserve">
<g id="Layer_1" display="none">
	<rect display="inline" fill="#3A52EB" width="296.583" height="40.155"/>
	<g display="inline">
		<path fill="#FFFFFF" d="M160.181,16.813c-0.45-0.576-1.351-0.846-2.035-0.846c-0.792,0-1.891,0.36-1.891,1.314
			c0,2.322,5.87,0.828,5.87,5.293c0,2.845-2.287,4.195-4.916,4.195c-1.638,0-3.078-0.486-4.285-1.603l1.999-2.197
			c0.576,0.756,1.513,1.207,2.448,1.207c0.919,0,1.945-0.432,1.945-1.333c0-2.341-5.979-1.08-5.979-5.33
			c0-2.719,2.359-4.141,4.862-4.141c1.439,0,2.826,0.378,3.906,1.332L160.181,16.813z"/>
		<path fill="#FFFFFF" d="M172.276,17.01c-0.559-0.666-1.368-1.044-2.413-1.044c-2.124,0-3.69,1.729-3.69,4.105
			c0,2.377,1.566,4.105,3.601,4.105c1.135,0,2.053-0.504,2.629-1.369l2.341,1.747c-1.063,1.513-2.863,2.215-4.609,2.215
			c-3.979,0-6.878-2.611-6.878-6.698c0-4.087,2.898-6.698,6.878-6.698c1.423,0,3.223,0.486,4.304,1.873L172.276,17.01z"/>
		<path fill="#FFFFFF" d="M176.001,13.698h2.809v4.753h5.455v-4.753h2.81v12.748h-2.81v-5.51h-5.455v5.51h-2.809V13.698z"/>
		<path fill="#FFFFFF" d="M195.586,13.374c3.979,0,6.878,2.611,6.878,6.698c0,4.087-2.898,6.698-6.878,6.698
			s-6.878-2.611-6.878-6.698C188.708,15.984,191.606,13.374,195.586,13.374z M195.586,24.177c2.395,0,3.961-1.729,3.961-4.105
			c0-2.376-1.566-4.105-3.961-4.105s-3.961,1.729-3.961,4.105C191.625,22.448,193.191,24.177,195.586,24.177z"/>
		<path fill="#FFFFFF" d="M210.292,13.374c3.979,0,6.878,2.611,6.878,6.698c0,4.087-2.898,6.698-6.878,6.698
			s-6.878-2.611-6.878-6.698C203.414,15.984,206.313,13.374,210.292,13.374z M210.292,24.177c2.395,0,3.961-1.729,3.961-4.105
			c0-2.376-1.566-4.105-3.961-4.105s-3.961,1.729-3.961,4.105C206.331,22.448,207.897,24.177,210.292,24.177z"/>
		<path fill="#FFFFFF" d="M218.911,13.698h2.809v10.155h5.204v2.593h-8.013V13.698z"/>
		<path fill="#FFFFFF" d="M228.307,13.698h2.809v5.293l4.952-5.293h3.673l-5.672,5.923l6.158,6.824h-3.926l-5.186-6.05v6.05h-2.809
			V13.698z"/>
		<path fill="#FFFFFF" d="M240.89,13.698h2.809v12.748h-2.809V13.698z"/>
		<path fill="#FFFFFF" d="M248.449,16.182h-3.637v-2.484h10.083v2.484h-3.637v10.263h-2.81V16.182z"/>
	</g>
	<g display="inline">
		<path fill="#FFFFFF" d="M42.662,13.752h1.224L49.251,26.5h-1.333l-1.386-3.385h-6.752L38.34,26.5h-1.243L42.662,13.752z
			 M43.22,15.049l-2.971,6.986h5.852L43.22,15.049z"/>
		<path fill="#FFFFFF" d="M50.814,13.752h3.673c1.801,0,4.105,0.703,4.105,3.367c0,2.305-1.836,3.331-3.835,3.331h-2.754v6.05
			h-1.188V13.752z M52.003,19.37h2.701c1.351,0,2.701-0.576,2.701-2.251c0-1.639-1.404-2.287-2.773-2.287h-2.628V19.37z"/>
		<path fill="#FFFFFF" d="M60.876,13.752h3.673c1.801,0,4.105,0.703,4.105,3.367c0,2.305-1.836,3.331-3.835,3.331h-2.754v6.05
			h-1.188V13.752z M62.064,19.37h2.701c1.351,0,2.701-0.576,2.701-2.251c0-1.639-1.404-2.287-2.773-2.287h-2.628V19.37z"/>
		<path fill="#FFFFFF" d="M70.938,13.752h1.188V25.42h5.941v1.08h-7.13V13.752z"/>
		<path fill="#FFFFFF" d="M80.497,21.008l-4.681-7.256h1.422l3.853,6.05l3.943-6.05h1.333l-4.682,7.256V26.5h-1.188V21.008z"/>
		<path fill="#FFFFFF" d="M102.639,24.501c-1.207,1.656-2.863,2.323-4.735,2.323c-3.889,0-6.59-2.809-6.59-6.698
			s2.701-6.698,6.59-6.698c1.729,0,3.277,0.576,4.393,1.999l-0.972,0.81c-0.792-1.188-2.143-1.729-3.421-1.729
			c-3.331,0-5.402,2.449-5.402,5.618s2.071,5.618,5.402,5.618c1.278,0,2.863-0.612,3.763-1.98L102.639,24.501z"/>
		<path fill="#FFFFFF" d="M110.306,13.428c3.889,0,6.59,2.809,6.59,6.698s-2.701,6.698-6.59,6.698s-6.59-2.809-6.59-6.698
			S106.417,13.428,110.306,13.428z M110.306,25.744c3.331,0,5.401-2.449,5.401-5.618s-2.07-5.618-5.401-5.618
			s-5.402,2.449-5.402,5.618S106.975,25.744,110.306,25.744z"/>
		<path fill="#FFFFFF" d="M119.124,13.752h3.943c6.626,0,6.896,5.438,6.896,6.374c0,0.937-0.27,6.374-6.896,6.374h-3.943V13.752z
			 M120.312,25.42h2.449c3.385,0,6.014-1.639,6.014-5.294c0-3.655-2.629-5.293-6.014-5.293h-2.449V25.42z"/>
		<path fill="#FFFFFF" d="M132.354,13.752h7.796v1.081h-6.607v4.538h6.193v1.08h-6.193v4.97h6.896v1.08h-8.085V13.752z"/>
		<path fill="#FFFFFF" d="M143.352,18.073c0.485,0,0.864,0.378,0.864,0.864c0,0.486-0.379,0.864-0.864,0.864
			c-0.486,0-0.864-0.378-0.864-0.864C142.487,18.452,142.865,18.073,143.352,18.073z M143.352,24.879
			c0.485,0,0.864,0.378,0.864,0.864c0,0.486-0.379,0.864-0.864,0.864c-0.486,0-0.864-0.378-0.864-0.864
			C142.487,25.258,142.865,24.879,143.352,24.879z"/>
	</g>
</g>
<g id="Layer_5">
	<rect fill="#40D31C" width="296.583" height="40.155"/>
	<g>
		<path fill="#FFFFFF" d="M169.148,16.633c-0.45-0.576-1.351-0.846-2.035-0.846c-0.792,0-1.891,0.36-1.891,1.314
			c0,2.323,5.87,0.828,5.87,5.293c0,2.845-2.287,4.195-4.916,4.195c-1.638,0-3.078-0.486-4.285-1.603l1.999-2.197
			c0.576,0.756,1.513,1.207,2.448,1.207c0.919,0,1.945-0.432,1.945-1.333c0-2.341-5.979-1.081-5.979-5.33
			c0-2.719,2.359-4.141,4.861-4.141c1.441,0,2.827,0.378,3.907,1.333L169.148,16.633z"/>
		<path fill="#FFFFFF" d="M181.244,16.832c-0.558-0.667-1.368-1.044-2.413-1.044c-2.124,0-3.69,1.729-3.69,4.105
			c0,2.377,1.566,4.105,3.601,4.105c1.135,0,2.053-0.504,2.629-1.369l2.341,1.747c-1.063,1.513-2.863,2.215-4.609,2.215
			c-3.979,0-6.878-2.611-6.878-6.698c0-4.087,2.898-6.698,6.878-6.698c1.423,0,3.223,0.486,4.304,1.873L181.244,16.832z"/>
		<path fill="#FFFFFF" d="M184.968,13.518h2.81v4.754h5.455v-4.754h2.81v12.748h-2.81v-5.51h-5.455v5.51h-2.81V13.518z"/>
		<path fill="#FFFFFF" d="M204.554,13.194c3.979,0,6.878,2.611,6.878,6.698c0,4.087-2.898,6.698-6.878,6.698
			s-6.878-2.611-6.878-6.698C197.676,15.805,200.574,13.194,204.554,13.194z M204.554,23.998c2.395,0,3.961-1.729,3.961-4.105
			c0-2.376-1.566-4.105-3.961-4.105s-3.961,1.729-3.961,4.105C200.593,22.269,202.159,23.998,204.554,23.998z"/>
		<path fill="#FFFFFF" d="M219.26,13.194c3.979,0,6.878,2.611,6.878,6.698c0,4.087-2.898,6.698-6.878,6.698
			s-6.878-2.611-6.878-6.698C212.382,15.805,215.28,13.194,219.26,13.194z M219.26,23.998c2.395,0,3.961-1.729,3.961-4.105
			c0-2.376-1.566-4.105-3.961-4.105s-3.961,1.729-3.961,4.105C215.299,22.269,216.865,23.998,219.26,23.998z"/>
		<path fill="#FFFFFF" d="M227.879,13.518h2.809v10.155h5.204v2.593h-8.013V13.518z"/>
		<path fill="#FFFFFF" d="M237.274,13.518h2.809v5.294l4.952-5.294h3.673l-5.672,5.924l6.158,6.824h-3.926l-5.186-6.05v6.05h-2.809
			V13.518z"/>
		<path fill="#FFFFFF" d="M249.857,13.518h2.809v12.748h-2.809V13.518z"/>
		<path fill="#FFFFFF" d="M257.417,16.003h-3.637v-2.485h10.083v2.485h-3.637v10.263h-2.81V16.003z"/>
	</g>
	<g>
		<polygon fill="#FFFFFF" points="328.207,14.039 320.619,23.423 315.165,18.959 313.059,21.533 318.528,26.01 321.102,28.117 
			323.193,25.53 330.793,16.129 		"/>
	</g>
	<g>
		<path fill="#FFFFFF" d="M39.303,24.321c-1.207,1.656-2.863,2.323-4.735,2.323c-3.889,0-6.59-2.809-6.59-6.698
			s2.701-6.698,6.59-6.698c1.729,0,3.277,0.576,4.393,1.999l-0.972,0.81c-0.792-1.188-2.143-1.729-3.421-1.729
			c-3.331,0-5.402,2.449-5.402,5.618s2.071,5.618,5.402,5.618c1.278,0,2.863-0.612,3.763-1.98L39.303,24.321z"/>
		<path fill="#FFFFFF" d="M46.97,13.248c3.889,0,6.59,2.809,6.59,6.698s-2.701,6.698-6.59,6.698s-6.59-2.809-6.59-6.698
			S43.081,13.248,46.97,13.248z M46.97,25.563c3.331,0,5.401-2.449,5.401-5.618s-2.07-5.618-5.401-5.618s-5.402,2.449-5.402,5.618
			S43.639,25.563,46.97,25.563z"/>
		<path fill="#FFFFFF" d="M55.788,13.572h3.943c6.626,0,6.896,5.438,6.896,6.374c0,0.937-0.27,6.374-6.896,6.374h-3.943V13.572z
			 M56.977,25.239h2.449c3.385,0,6.014-1.638,6.014-5.293c0-3.655-2.629-5.293-6.014-5.293h-2.449V25.239z"/>
		<path fill="#FFFFFF" d="M69.018,13.572h7.796v1.08h-6.608v4.537H76.4v1.081h-6.194v4.969h6.896v1.081h-8.084V13.572z"/>
		<path fill="#FFFFFF" d="M87.739,13.572h1.224l5.366,12.748h-1.333l-1.386-3.385h-6.752l-1.44,3.385h-1.243L87.739,13.572z
			 M88.297,14.868l-2.971,6.986h5.852L88.297,14.868z"/>
		<path fill="#FFFFFF" d="M95.892,13.572h3.673c1.801,0,4.105,0.702,4.105,3.367c0,2.305-1.836,3.331-3.835,3.331H97.08v6.05h-1.188
			V13.572z M97.08,19.189h2.701c1.35,0,2.701-0.576,2.701-2.25c0-1.638-1.404-2.287-2.773-2.287H97.08V19.189z"/>
		<path fill="#FFFFFF" d="M105.954,13.572h3.673c1.801,0,4.105,0.702,4.105,3.367c0,2.305-1.836,3.331-3.835,3.331h-2.754v6.05
			h-1.188V13.572z M107.142,19.189h2.701c1.351,0,2.701-0.576,2.701-2.25c0-1.638-1.404-2.287-2.773-2.287h-2.628V19.189z"/>
		<path fill="#FFFFFF" d="M116.015,13.572h1.188v11.667h5.941v1.081h-7.13V13.572z"/>
		<path fill="#FFFFFF" d="M124.745,13.572h1.188v12.748h-1.188V13.572z"/>
		<path fill="#FFFFFF" d="M129.155,13.572h7.796v1.08h-6.608v4.537h6.194v1.081h-6.194v4.969h6.896v1.081h-8.084V13.572z"/>
		<path fill="#FFFFFF" d="M139.397,13.572h3.943c6.625,0,6.896,5.438,6.896,6.374c0,0.937-0.271,6.374-6.896,6.374h-3.943V13.572z
			 M140.585,25.239h2.449c3.385,0,6.014-1.638,6.014-5.293c0-3.655-2.629-5.293-6.014-5.293h-2.449V25.239z"/>
		<path fill="#FFFFFF" d="M153.222,17.893c0.485,0,0.863,0.378,0.863,0.864c0,0.486-0.378,0.864-0.863,0.864
			c-0.486,0-0.865-0.378-0.865-0.864C152.356,18.271,152.735,17.893,153.222,17.893z M153.222,24.699
			c0.485,0,0.863,0.378,0.863,0.864c0,0.486-0.378,0.864-0.863,0.864c-0.486,0-0.865-0.378-0.865-0.864
			C152.356,25.077,152.735,24.699,153.222,24.699z"/>
	</g>
	<g>
	</g>
	<g>
	</g>
	<g>
	</g>
	<g>
	</g>
	<g>
	</g>
	<g>
	</g>
</g>
</svg>
