<?xml version="1.0" encoding="utf-8"?>
<!-- Generator: Adobe Illustrator 16.0.3, SVG Export Plug-In . SVG Version: 6.00 Build 0)  -->
<!DOCTYPE svg PUBLIC "-//W3C//DTD SVG 1.1//EN" "http://www.w3.org/Graphics/SVG/1.1/DTD/svg11.dtd">
<svg version="1.1" xmlns="http://www.w3.org/2000/svg" xmlns:xlink="http://www.w3.org/1999/xlink" x="0px" y="0px"
	 width="296.583px" height="40.155px" viewBox="0 0 296.583 40.155" enable-background="new 0 0 296.583 40.155"
	 xml:space="preserve">
<g id="Layer_1">
	<rect fill="#3A52EB" width="296.583" height="40.155"/>
	<g>
		<path fill="#FFFFFF" d="M163.979,11.344h5.652c5.507,0,10.12,2.343,10.12,8.599c0,5.531-4.517,8.502-9.613,8.502h-6.159V11.344z
			 M167.747,24.967h1.957c3.502,0,6.135-1.329,6.135-5.218c0-3.357-2.681-4.927-5.869-4.927h-2.223V24.967z"/>
		<path fill="#FFFFFF" d="M182.097,11.344h11.619v3.479h-7.851v3.188h7.415v3.479h-7.415v3.479h8.285v3.478h-12.054V11.344z"/>
		<path fill="#FFFFFF" d="M205.263,15.522c-0.604-0.773-1.812-1.135-2.729-1.135c-1.063,0-2.536,0.483-2.536,1.763
			c0,3.116,7.874,1.111,7.874,7.102c0,3.816-3.067,5.628-6.594,5.628c-2.198,0-4.131-0.652-5.749-2.149l2.681-2.947
			c0.773,1.014,2.029,1.618,3.285,1.618c1.232,0,2.609-0.58,2.609-1.788c0-3.14-8.02-1.449-8.02-7.15
			c0-3.647,3.164-5.555,6.521-5.555c1.933,0,3.792,0.507,5.241,1.787L205.263,15.522z"/>
		<path fill="#FFFFFF" d="M210.264,11.344h3.769v17.102h-3.769V11.344z"/>
		<path fill="#FFFFFF" d="M232.584,27.238c-2.223,1.159-4.662,1.642-7.175,1.642c-5.338,0-9.227-3.502-9.227-8.985
			s3.889-8.985,9.227-8.985c2.706,0,5.097,0.604,6.813,2.198l-2.657,2.899c-1.015-1.063-2.246-1.619-4.155-1.619
			c-3.212,0-5.313,2.319-5.313,5.507s2.102,5.507,5.313,5.507c1.643,0,2.851-0.459,3.551-0.845v-2.778h-3.067V18.3h6.691V27.238z"/>
		<path fill="#FFFFFF" d="M235.533,11.344h5.121l7.271,11.884h0.048V11.344h3.769v17.102h-4.928l-7.464-12.174h-0.049v12.174h-3.768
			V11.344z"/>
		<path fill="#FFFFFF" d="M254.303,24.604l6.643-5.966c0.677-0.628,1.521-1.353,1.521-2.392c0-1.159-0.99-1.86-2.102-1.86
			c-1.328,0-2.125,0.942-2.222,2.174l-3.623-0.266c0.217-3.526,2.681-5.241,6.038-5.241c3.116,0,5.531,1.715,5.531,5.145
			c0,2.198-0.941,3.454-2.246,4.589l-5.193,4.469h7.585v3.188h-11.933V24.604z"/>
		<path fill="#FFFFFF" d="M274.015,15.402l-3.431,3.019l-2.053-2.367l5.579-4.71h3.382v17.102h-3.478V15.402z"/>
	</g>
	<g>
		<path fill="#FFFFFF" d="M25.713,12.111h1.574L34.185,28.5h-1.713l-1.782-4.352h-8.68L20.158,28.5h-1.597L25.713,12.111z
			 M26.431,13.778l-3.819,8.981h7.523L26.431,13.778z"/>
		<path fill="#FFFFFF" d="M36.204,12.111h4.722c2.315,0,5.278,0.903,5.278,4.329c0,2.963-2.361,4.283-4.931,4.283h-3.542V28.5
			h-1.528V12.111z M37.731,19.333h3.472c1.736,0,3.472-0.741,3.472-2.894c0-2.106-1.806-2.939-3.564-2.939h-3.38V19.333z"/>
		<path fill="#FFFFFF" d="M49.147,12.111h4.722c2.315,0,5.278,0.903,5.278,4.329c0,2.963-2.361,4.283-4.931,4.283h-3.542V28.5
			h-1.528V12.111z M50.675,19.333h3.472c1.736,0,3.472-0.741,3.472-2.894c0-2.106-1.806-2.939-3.564-2.939h-3.38V19.333z"/>
		<path fill="#FFFFFF" d="M62.09,12.111h1.528v15h7.639V28.5H62.09V12.111z"/>
		<path fill="#FFFFFF" d="M74.385,21.44l-6.018-9.329h1.829l4.954,7.778l5.069-7.778h1.713l-6.019,9.329v7.06h-1.528V21.44z"/>
		<path fill="#FFFFFF" d="M102.862,25.931c-1.551,2.129-3.68,2.986-6.088,2.986c-5,0-8.472-3.611-8.472-8.611
			s3.472-8.611,8.472-8.611c2.222,0,4.213,0.741,5.648,2.569l-1.25,1.042c-1.019-1.527-2.755-2.222-4.398-2.222
			c-4.282,0-6.944,3.148-6.944,7.222c0,4.074,2.662,7.222,6.944,7.222c1.644,0,3.681-0.787,4.838-2.546L102.862,25.931z"/>
		<path fill="#FFFFFF" d="M112.728,11.695c5,0,8.472,3.611,8.472,8.611s-3.472,8.611-8.472,8.611c-5,0-8.472-3.611-8.472-8.611
			S107.729,11.695,112.728,11.695z M112.728,27.528c4.283,0,6.944-3.148,6.944-7.222c0-4.074-2.662-7.222-6.944-7.222
			c-4.282,0-6.944,3.148-6.944,7.222C105.784,24.38,108.446,27.528,112.728,27.528z"/>
		<path fill="#FFFFFF" d="M124.077,12.111h5.069c8.518,0,8.865,6.991,8.865,8.194s-0.347,8.194-8.865,8.194h-5.069V12.111z
			 M125.604,27.111h3.148c4.352,0,7.731-2.106,7.731-6.806c0-4.699-3.38-6.805-7.731-6.805h-3.148V27.111z"/>
		<path fill="#FFFFFF" d="M141.095,12.111h10.023V13.5h-8.495v5.833h7.963v1.389h-7.963v6.389h8.866V28.5h-10.395V12.111z"/>
		<path fill="#FFFFFF" d="M155.243,17.667c0.625,0,1.11,0.486,1.11,1.111s-0.485,1.111-1.11,1.111s-1.111-0.486-1.111-1.111
			S154.618,17.667,155.243,17.667z M155.243,26.417c0.625,0,1.11,0.486,1.11,1.111s-0.485,1.111-1.11,1.111
			s-1.111-0.486-1.111-1.111S154.618,26.417,155.243,26.417z"/>
	</g>
</g>
<g id="Layer_5" display="none">
	<rect display="inline" fill="#40D31C" width="296.583" height="40.155"/>
	<g display="inline">
		<path fill="#FFFFFF" d="M183.571,11.597h11.324v3.391h-7.651v3.108h7.228v3.39h-7.228v3.39h8.075v3.391h-11.748V11.597z"/>
		<path fill="#FFFFFF" d="M198.049,11.597h3.673v13.279h6.804v3.391h-10.477V11.597z"/>
		<path fill="#FFFFFF" d="M210.148,11.597h3.673v16.669h-3.673V11.597z"/>
		<path fill="#FFFFFF" d="M220.036,14.846h-4.756v-3.249h13.185v3.249h-4.756v13.42h-3.673V14.846z"/>
		<path fill="#FFFFFF" d="M230.11,11.597h11.324v3.391h-7.651v3.108h7.228v3.39h-7.228v3.39h8.075v3.391H230.11V11.597z"/>
		<path fill="#FFFFFF" d="M242.797,11.597h4.191l4.12,10.925h0.047l4.191-10.925h3.932l-6.875,16.669h-2.943L242.797,11.597z"/>
		<path fill="#FFFFFF" d="M260.618,11.597h3.673v16.669h-3.673V11.597z"/>
		<path fill="#FFFFFF" d="M267.279,11.597h6.192c3.461,0,6.333,1.106,6.333,5.062c0,3.908-2.66,5.109-6.169,5.109h-2.684v6.498
			h-3.673V11.597z M270.952,18.66h2.448c1.295,0,2.59-0.447,2.59-2.001c0-1.719-1.742-1.954-3.154-1.954h-1.884V18.66z"/>
	</g>
	<g display="inline">
		<path fill="#FFFFFF" d="M34.115,25.814c-1.512,2.076-3.588,2.911-5.936,2.911c-4.875,0-8.26-3.521-8.26-8.395
			c0-4.875,3.385-8.396,8.26-8.396c2.167,0,4.107,0.722,5.507,2.505l-1.219,1.016c-0.993-1.489-2.686-2.167-4.288-2.167
			c-4.175,0-6.77,3.069-6.77,7.042c0,3.972,2.595,7.041,6.77,7.041c1.603,0,3.588-0.768,4.717-2.482L34.115,25.814z"/>
		<path fill="#FFFFFF" d="M43.726,11.935c4.875,0,8.26,3.521,8.26,8.396c0,4.875-3.385,8.395-8.26,8.395s-8.26-3.521-8.26-8.395
			C35.466,15.456,38.852,11.935,43.726,11.935z M43.726,27.372c4.175,0,6.771-3.069,6.771-7.041c0-3.972-2.595-7.042-6.771-7.042
			c-4.175,0-6.77,3.069-6.77,7.042C36.956,24.302,39.551,27.372,43.726,27.372z"/>
		<path fill="#FFFFFF" d="M54.781,12.341h4.942c8.305,0,8.644,6.815,8.644,7.989c0,1.173-0.338,7.989-8.644,7.989h-4.942V12.341z
			 M56.271,26.965h3.069c4.243,0,7.538-2.054,7.538-6.635c0-4.582-3.295-6.635-7.538-6.635h-3.069V26.965z"/>
		<path fill="#FFFFFF" d="M71.365,12.341h9.772v1.354h-8.282v5.687h7.763v1.354h-7.763v6.229h8.643v1.354H71.365V12.341z"/>
		<path fill="#FFFFFF" d="M94.833,12.341h1.535l6.725,15.978h-1.67l-1.738-4.243h-8.463l-1.806,4.243h-1.557L94.833,12.341z
			 M95.532,13.966l-3.724,8.756h7.334L95.532,13.966z"/>
		<path fill="#FFFFFF" d="M105.053,12.341h4.604c2.257,0,5.146,0.88,5.146,4.22c0,2.889-2.302,4.175-4.807,4.175h-3.453v7.583h-1.49
			V12.341z M106.542,19.382h3.385c1.693,0,3.385-0.722,3.385-2.821c0-2.054-1.76-2.866-3.475-2.866h-3.295V19.382z"/>
		<path fill="#FFFFFF" d="M117.666,12.341h4.604c2.257,0,5.146,0.88,5.146,4.22c0,2.889-2.302,4.175-4.807,4.175h-3.453v7.583h-1.49
			V12.341z M119.156,19.382h3.385c1.693,0,3.385-0.722,3.385-2.821c0-2.054-1.76-2.866-3.475-2.866h-3.295V19.382z"/>
		<path fill="#FFFFFF" d="M130.279,12.341h1.49v14.624h7.447v1.354h-8.937V12.341z"/>
		<path fill="#FFFFFF" d="M141.223,12.341h1.489v15.978h-1.489V12.341z"/>
		<path fill="#FFFFFF" d="M146.751,12.341h9.771v1.354h-8.282v5.687h7.763v1.354h-7.763v6.229h8.644v1.354h-10.133V12.341z"/>
		<path fill="#FFFFFF" d="M159.589,12.341h4.942c8.306,0,8.644,6.815,8.644,7.989c0,1.173-0.338,7.989-8.644,7.989h-4.942V12.341z
			 M161.079,26.965h3.068c4.243,0,7.538-2.054,7.538-6.635c0-4.582-3.295-6.635-7.538-6.635h-3.068V26.965z"/>
		<path fill="#FFFFFF" d="M176.918,17.758c0.609,0,1.083,0.474,1.083,1.083s-0.474,1.083-1.083,1.083
			c-0.608,0-1.083-0.474-1.083-1.083S176.31,17.758,176.918,17.758z M176.918,26.288c0.609,0,1.083,0.474,1.083,1.083
			s-0.474,1.083-1.083,1.083c-0.608,0-1.083-0.474-1.083-1.083S176.31,26.288,176.918,26.288z"/>
	</g>
</g>
</svg>
