<?xml version="1.0" encoding="utf-8"?>
<!-- Generator: Adobe Illustrator 16.0.3, SVG Export Plug-In . SVG Version: 6.00 Build 0)  -->
<!DOCTYPE svg PUBLIC "-//W3C//DTD SVG 1.1//EN" "http://www.w3.org/Graphics/SVG/1.1/DTD/svg11.dtd">
<svg version="1.1" id="Layer_1" xmlns="http://www.w3.org/2000/svg" xmlns:xlink="http://www.w3.org/1999/xlink" x="0px" y="0px"
	 width="396.28px" height="47.55px" viewBox="0 0 396.28 47.55" enable-background="new 0 0 396.28 47.55" xml:space="preserve">
<g>
	<g>
		<path fill="#FFFFFF" d="M11.72,31.03c-1.15,1.59-2.74,2.22-4.53,2.22c-3.72,0-6.31-2.69-6.31-6.41c0-3.72,2.59-6.41,6.31-6.41
			c1.66,0,3.14,0.55,4.21,1.91l-0.93,0.78c-0.76-1.14-2.05-1.66-3.28-1.66c-3.19,0-5.17,2.34-5.17,5.38c0,3.03,1.98,5.38,5.17,5.38
			c1.22,0,2.74-0.59,3.6-1.9L11.72,31.03z"/>
		<path fill="#FFFFFF" d="M13.56,20.73h1.14v11.17h5.69v1.03h-6.83V20.73z"/>
		<path fill="#FFFFFF" d="M21.92,20.73h1.14v12.21h-1.14V20.73z"/>
		<path fill="#FFFFFF" d="M36.2,31.03c-1.16,1.59-2.74,2.22-4.54,2.22c-3.72,0-6.31-2.69-6.31-6.41c0-3.72,2.59-6.41,6.31-6.41
			c1.66,0,3.14,0.55,4.21,1.91l-0.93,0.78c-0.76-1.14-2.05-1.66-3.28-1.66c-3.19,0-5.17,2.34-5.17,5.38c0,3.03,1.98,5.38,5.17,5.38
			c1.22,0,2.74-0.59,3.6-1.9L36.2,31.03z"/>
		<path fill="#FFFFFF" d="M38.03,20.73h1.14v5.38h0.1l5.91-5.38h1.57l-6.17,5.59l6.52,6.62h-1.64l-6.19-6.31h-0.1v6.31h-1.14V20.73z
			"/>
		<path fill="#FFFFFF" d="M55.25,21.77h-4.17v-1.04h9.48v1.04h-4.17v11.17h-1.14V21.77z"/>
		<path fill="#FFFFFF" d="M67.7,20.43c3.72,0,6.31,2.69,6.31,6.41c0,3.72-2.59,6.41-6.31,6.41c-3.72,0-6.31-2.69-6.31-6.41
			C61.39,23.11,63.98,20.43,67.7,20.43z M67.7,32.22c3.19,0,5.17-2.34,5.17-5.38c0-3.04-1.98-5.38-5.17-5.38s-5.17,2.34-5.17,5.38
			C62.53,29.87,64.51,32.22,67.7,32.22z"/>
		<path fill="#FFFFFF" d="M84.28,20.73h1.17l5.14,12.21h-1.28l-1.33-3.24h-6.47l-1.38,3.24h-1.19L84.28,20.73z M84.81,21.98
			l-2.85,6.69h5.6L84.81,21.98z"/>
		<path fill="#FFFFFF" d="M92.09,20.73h3.52c1.72,0,3.93,0.67,3.93,3.22c0,2.21-1.76,3.19-3.67,3.19h-2.64v5.79h-1.14V20.73z
			 M93.23,26.11h2.59c1.29,0,2.59-0.55,2.59-2.16c0-1.57-1.35-2.19-2.66-2.19h-2.52V26.11z"/>
		<path fill="#FFFFFF" d="M101.74,20.73h3.52c1.72,0,3.93,0.67,3.93,3.22c0,2.21-1.76,3.19-3.67,3.19h-2.64v5.79h-1.14V20.73z
			 M102.88,26.11h2.59c1.29,0,2.59-0.55,2.59-2.16c0-1.57-1.35-2.19-2.66-2.19h-2.52V26.11z"/>
		<path fill="#FFFFFF" d="M111.38,20.73h1.14v11.17h5.69v1.03h-6.83V20.73z"/>
		<path fill="#FFFFFF" d="M120.54,27.68l-4.48-6.95h1.36l3.69,5.79l3.78-5.79h1.28l-4.48,6.95v5.26h-1.14V27.68z"/>
		<path fill="#FFFFFF" d="M131.7,20.73h3.52c1.72,0,3.93,0.67,3.93,3.22c0,2.21-1.76,3.19-3.67,3.19h-2.64v5.79h-1.14V20.73z
			 M132.84,26.11h2.59c1.29,0,2.59-0.55,2.59-2.16c0-1.57-1.35-2.19-2.66-2.19h-2.52V26.11z"/>
		<path fill="#FFFFFF" d="M141.34,20.73h3.21c0.97,0,4.35,0,4.35,3.21c0,2.33-1.78,2.97-3.12,3.14l3.55,5.86h-1.29l-3.43-5.79h-2.12
			v5.79h-1.14V20.73z M142.48,26.11h2.41c2.4,0,2.86-1.33,2.86-2.17c0-0.84-0.47-2.17-2.86-2.17h-2.41V26.11z"/>
		<path fill="#FFFFFF" d="M156.83,20.43c3.72,0,6.31,2.69,6.31,6.41c0,3.72-2.59,6.41-6.31,6.41c-3.72,0-6.31-2.69-6.31-6.41
			C150.52,23.11,153.11,20.43,156.83,20.43z M156.83,32.22c3.19,0,5.17-2.34,5.17-5.38c0-3.04-1.98-5.38-5.17-5.38
			s-5.17,2.34-5.17,5.38C151.66,29.87,153.64,32.22,156.83,32.22z"/>
		<path fill="#FFFFFF" d="M165.32,20.73h1.71l4.45,10.24l4.45-10.24h1.62v12.21h-1.14V22.18h-0.03l-4.66,10.76h-0.5l-4.72-10.76
			h-0.03v10.76h-1.14V20.73z"/>
		<path fill="#FFFFFF" d="M186.03,20.43c3.72,0,6.31,2.69,6.31,6.41c0,3.72-2.59,6.41-6.31,6.41c-3.72,0-6.31-2.69-6.31-6.41
			C179.72,23.11,182.31,20.43,186.03,20.43z M186.03,32.22c3.19,0,5.17-2.34,5.17-5.38c0-3.04-1.98-5.38-5.17-5.38
			s-5.17,2.34-5.17,5.38C180.86,29.87,182.84,32.22,186.03,32.22z"/>
		<path fill="#FFFFFF" d="M208.92,31.03c-1.15,1.59-2.74,2.22-4.53,2.22c-3.72,0-6.31-2.69-6.31-6.41c0-3.72,2.59-6.41,6.31-6.41
			c1.66,0,3.14,0.55,4.21,1.91l-0.93,0.78c-0.76-1.14-2.05-1.66-3.28-1.66c-3.19,0-5.17,2.34-5.17,5.38c0,3.03,1.98,5.38,5.17,5.38
			c1.22,0,2.74-0.59,3.6-1.9L208.92,31.03z"/>
		<path fill="#FFFFFF" d="M216.27,20.43c3.72,0,6.31,2.69,6.31,6.41c0,3.72-2.59,6.41-6.31,6.41s-6.31-2.69-6.31-6.41
			C209.96,23.11,212.55,20.43,216.27,20.43z M216.27,32.22c3.19,0,5.17-2.34,5.17-5.38c0-3.04-1.98-5.38-5.17-5.38
			s-5.17,2.34-5.17,5.38C211.1,29.87,213.08,32.22,216.27,32.22z"/>
		<path fill="#FFFFFF" d="M224.73,20.73h3.78c6.34,0,6.6,5.21,6.6,6.1s-0.26,6.1-6.6,6.1h-3.78V20.73z M225.87,31.91h2.34
			c3.24,0,5.76-1.57,5.76-5.07c0-3.5-2.52-5.07-5.76-5.07h-2.34V31.91z"/>
		<path fill="#FFFFFF" d="M237.41,20.73h7.47v1.04h-6.33v4.34h5.93v1.03h-5.93v4.76h6.6v1.03h-7.74V20.73z"/>
		<path fill="#FFFFFF" d="M247.95,24.87c0.46,0,0.83,0.36,0.83,0.83c0,0.47-0.36,0.83-0.83,0.83c-0.47,0-0.83-0.36-0.83-0.83
			C247.12,25.24,247.48,24.87,247.95,24.87z M247.95,31.39c0.46,0,0.83,0.36,0.83,0.83c0,0.47-0.36,0.83-0.83,0.83
			c-0.47,0-0.83-0.36-0.83-0.83C247.12,31.75,247.48,31.39,247.95,31.39z"/>
	</g>
	<rect x="263.53" y="12.18" fill="#EC176C" width="126.5" height="29.91"/>
	<g>
		<path fill="#FFFFFF" d="M283.25,22.05h7.61v2.31h-5.11v2.31h4.73v2.31h-4.73v4.42h-2.5V22.05z"/>
		<path fill="#FFFFFF" d="M297.92,21.76c3.54,0,6.12,2.32,6.12,5.96s-2.58,5.96-6.12,5.96s-6.12-2.32-6.12-5.96
			S294.38,21.76,297.92,21.76z M297.92,31.38c2.13,0,3.52-1.54,3.52-3.65c0-2.11-1.39-3.65-3.52-3.65s-3.52,1.54-3.52,3.65
			C294.4,29.84,295.79,31.38,297.92,31.38z"/>
		<path fill="#FFFFFF" d="M315.06,29.02c0,2.68-1.63,4.66-4.77,4.66c-3.16,0-4.79-1.99-4.79-4.66v-6.97h2.5v6.87
			c0,1.39,0.96,2.45,2.29,2.45c1.31,0,2.28-1.06,2.28-2.45v-6.87h2.5V29.02z"/>
		<path fill="#FFFFFF" d="M317.13,22.05h3.4l4.82,7.88h0.03v-7.88h2.5V33.4h-3.27l-4.95-8.08h-0.03v8.08h-2.5V22.05z"/>
		<path fill="#FFFFFF" d="M329.94,22.05h3.75c3.65,0,6.71,1.55,6.71,5.7c0,3.67-3,5.64-6.38,5.64h-4.09V22.05z M332.44,31.09h1.3
			c2.32,0,4.07-0.88,4.07-3.46c0-2.23-1.78-3.27-3.89-3.27h-1.47V31.09z"/>
		<path fill="#FFFFFF" d="M341.83,22.05h2.5V33.4h-2.5V22.05z"/>
		<path fill="#FFFFFF" d="M348.56,24.26h-3.24v-2.21h8.97v2.21h-3.24v9.13h-2.5V24.26z"/>
	</g>
	<g>
		<g>
			<polyline fill="none" stroke="#FFFFFF" stroke-width="1.5" stroke-miterlimit="10" points="395.53,44.3 395.53,46.8 393.03,46.8 
							"/>
			
				<line fill="none" stroke="#FFFFFF" stroke-width="1.5" stroke-miterlimit="10" stroke-dasharray="4.8827,4.8827" x1="388.15" y1="46.8" x2="263.64" y2="46.8"/>
			<polyline fill="none" stroke="#FFFFFF" stroke-width="1.5" stroke-miterlimit="10" points="261.2,46.8 258.7,46.8 258.7,44.3 			
				"/>
			
				<line fill="none" stroke="#FFFFFF" stroke-width="1.5" stroke-miterlimit="10" stroke-dasharray="4.7461,4.7461" x1="258.7" y1="39.55" x2="258.7" y2="13.45"/>
			<polyline fill="none" stroke="#FFFFFF" stroke-width="1.5" stroke-miterlimit="10" points="258.7,11.08 258.7,8.58 261.2,8.58 
							"/>
			
				<line fill="none" stroke="#FFFFFF" stroke-width="1.5" stroke-miterlimit="10" stroke-dasharray="4.8827,4.8827" x1="266.08" y1="8.58" x2="390.59" y2="8.58"/>
			<polyline fill="none" stroke="#FFFFFF" stroke-width="1.5" stroke-miterlimit="10" points="393.03,8.58 395.53,8.58 
				395.53,11.08 			"/>
			
				<line fill="none" stroke="#FFFFFF" stroke-width="1.5" stroke-miterlimit="10" stroke-dasharray="4.7461,4.7461" x1="395.53" y1="15.82" x2="395.53" y2="41.93"/>
		</g>
	</g>
	<g id="XMLID_2570_">
		<path fill="#FFFFFF" d="M370.53,37.74c-1.96,0-3.53-0.46-4.66-1.36c-1.33-1.06-2.01-2.69-2.01-4.85c0-2.12,0.78-4.69,2.1-6.88
			c0.64-1.06,1.36-1.95,2.09-2.58c0.85-0.73,1.68-1.1,2.49-1.1c1.52,0,3.2,1.34,4.59,3.68c0.62,1.03,1.13,2.19,1.49,3.36
			c0.38,1.23,0.58,2.45,0.58,3.52c0,2.16-0.68,3.79-2.01,4.85C374.06,37.29,372.49,37.74,370.53,37.74z M370.53,22.07
			c-1.08,0-2.47,1.21-3.64,3.15c-1.2,2-1.94,4.42-1.94,6.32c0,1.81,0.54,3.15,1.6,3.99c0.93,0.74,2.27,1.12,3.98,1.12
			c1.71,0,3.05-0.38,3.98-1.12c1.06-0.84,1.6-2.19,1.6-3.99c0-1.91-0.74-4.33-1.92-6.32c-0.57-0.96-1.22-1.76-1.86-2.31
			C371.69,22.36,371.07,22.07,370.53,22.07z"/>
		<path fill="#FFFFFF" d="M375.28,30.94c-0.45,0-0.65-0.17-0.93-0.4c-0.32-0.26-0.71-0.58-1.45-0.58c-0.74,0-1.13,0.32-1.45,0.58
			c-0.28,0.23-0.48,0.4-0.93,0.4c-0.45,0-0.65-0.17-0.93-0.4c-0.32-0.26-0.71-0.58-1.45-0.58s-1.13,0.32-1.45,0.58
			c-0.28,0.23-0.48,0.4-0.93,0.4c-0.45,0-0.65-0.17-0.93-0.4c-0.14-0.12-0.3-0.25-0.5-0.35l0.52-0.96c0.29,0.16,0.51,0.34,0.67,0.47
			c0.07,0.06,0.15,0.13,0.19,0.15c0.01,0,0.02,0,0.05,0s0.04,0,0.05,0c0.03-0.02,0.11-0.09,0.19-0.15c0.38-0.31,1.01-0.83,2.14-0.83
			s1.76,0.52,2.14,0.83c0.07,0.06,0.15,0.13,0.19,0.15c0.01,0,0.02,0,0.05,0s0.04,0,0.05,0c0.03-0.02,0.11-0.09,0.19-0.15
			c0.38-0.31,1.01-0.83,2.14-0.83s1.76,0.52,2.14,0.83c0.07,0.06,0.15,0.13,0.19,0.15c0.01,0,0.02,0,0.05,0s0.04,0,0.05,0
			c0.03-0.02,0.12-0.09,0.19-0.15c0.17-0.14,0.4-0.33,0.7-0.49l0.51,0.97c-0.21,0.11-0.37,0.24-0.52,0.36
			C375.93,30.78,375.73,30.94,375.28,30.94z"/>
		<path fill="#FFFFFF" d="M375.28,32.85c-1.13,0-1.76-0.52-2.14-0.83c-0.07-0.06-0.15-0.13-0.19-0.15c-0.01,0-0.02,0-0.05,0
			c-0.03,0-0.04,0-0.05,0c-0.03,0.02-0.11,0.09-0.19,0.15c-0.38,0.31-1.01,0.83-2.14,0.83c-1.13,0-1.76-0.52-2.14-0.83
			c-0.07-0.06-0.15-0.13-0.19-0.15c-0.01,0-0.02,0-0.05,0s-0.04,0-0.05,0c-0.03,0.02-0.12,0.09-0.19,0.15
			c-0.38,0.31-1.01,0.83-2.14,0.83c-0.61,0-1.15-0.15-1.64-0.46l0.58-0.93c0.32,0.2,0.66,0.29,1.06,0.29c0.74,0,1.13-0.32,1.45-0.58
			c0.28-0.23,0.48-0.4,0.93-0.4s0.65,0.17,0.93,0.4c0.32,0.26,0.71,0.58,1.45,0.58c0.74,0,1.13-0.32,1.45-0.58
			c0.28-0.23,0.48-0.4,0.93-0.4c0.45,0,0.65,0.17,0.93,0.4c0.32,0.26,0.71,0.58,1.45,0.58c0.41,0,0.75-0.1,1.08-0.3l0.59,0.92
			C376.44,32.69,375.89,32.85,375.28,32.85z"/>
		<rect x="365.77" y="25.61" fill="#FFFFFF" width="9.53" height="1.09"/>
		<rect x="366.86" y="23.71" fill="#FFFFFF" width="7.36" height="1.09"/>
		<rect x="369.99" y="17.68" fill="#FFFFFF" width="1.09" height="2.76"/>
		
			<rect x="364.51" y="20.34" transform="matrix(0.7192 0.6948 -0.6948 0.7192 117.2579 -248.3947)" fill="#FFFFFF" width="2.91" height="1.1"/>
		
			<rect x="374.57" y="19.43" transform="matrix(0.6945 0.7195 -0.7195 0.6945 129.6236 -263.5115)" fill="#FFFFFF" width="1.09" height="2.91"/>
	</g>
	<g>
		<path fill="#FDF5F5" d="M272.48,21.54C268.18,10.94,258.47,3,247.31,0.66c-11.93-2.49-24.58,2.25-32.79,11.05
			c-1.2,1.28-2.29,2.65-3.29,4.09c-0.08,0.12-0.7,1.15-0.19,1.13c0.55-0.02,1.07-0.78,1.35-1.18c3.24-4.62,8.05-8.28,13.32-10.58
			c5.49-2.4,11.59-3.34,17.55-2.62c11.31,1.38,21.68,9.01,26.56,19.27c0.27,0.56,0.52,1.14,0.75,1.72
			C270.81,24.13,272.75,22.21,272.48,21.54L272.48,21.54z"/>
		<path fill="#FDF5F5" d="M271.29,13.95c0.22,3.32,0.44,6.64,0.66,9.97c0.37,0.08,0.73,0.17,1.1,0.26c-2.3-1.69-4.6-3.38-6.91-5.07
			c-0.09-0.07-1.12-0.75-1.1-0.26c0.02,0.54,0.76,1.09,1.14,1.37c2.3,1.69,4.6,3.38,6.91,5.07c0.09,0.06,1.13,0.75,1.1,0.26
			c-0.22-3.32-0.44-6.64-0.66-9.97c-0.04-0.54-0.75-1.08-1.15-1.37C272.3,14.15,271.26,13.47,271.29,13.95L271.29,13.95z"/>
	</g>
</g>
</svg>
