<?xml version="1.0" encoding="utf-8"?>
<!-- Generator: Adobe Illustrator 16.0.3, SVG Export Plug-In . SVG Version: 6.00 Build 0)  -->
<!DOCTYPE svg PUBLIC "-//W3C//DTD SVG 1.1//EN" "http://www.w3.org/Graphics/SVG/1.1/DTD/svg11.dtd">
<svg version="1.1" id="Layer_2" xmlns="http://www.w3.org/2000/svg" xmlns:xlink="http://www.w3.org/1999/xlink" x="0px" y="0px"
	 width="396.28px" height="47.55px" viewBox="0 0 396.28 47.55" enable-background="new 0 0 396.28 47.55" xml:space="preserve">
<g>
	<g>
		<path fill="#FFFFFF" d="M43.72,20.73h3.52c1.72,0,3.93,0.67,3.93,3.22c0,2.21-1.76,3.19-3.67,3.19h-2.64v5.79h-1.14V20.73z
			 M44.85,26.11h2.59c1.29,0,2.59-0.55,2.59-2.16c0-1.57-1.35-2.19-2.66-2.19h-2.52V26.11z"/>
		<path fill="#FFFFFF" d="M53.36,20.73h3.21c0.97,0,4.35,0,4.35,3.21c0,2.33-1.78,2.97-3.12,3.14l3.55,5.86h-1.29l-3.43-5.79H54.5
			v5.79h-1.14V20.73z M54.5,26.11h2.41c2.4,0,2.86-1.33,2.86-2.17c0-0.84-0.47-2.17-2.86-2.17H54.5V26.11z"/>
		<path fill="#FFFFFF" d="M68.85,20.43c3.72,0,6.31,2.69,6.31,6.41c0,3.72-2.59,6.41-6.31,6.41c-3.72,0-6.31-2.69-6.31-6.41
			C62.54,23.11,65.12,20.43,68.85,20.43z M68.85,32.22c3.19,0,5.17-2.34,5.17-5.38c0-3.04-1.98-5.38-5.17-5.38s-5.17,2.34-5.17,5.38
			C63.67,29.87,65.66,32.22,68.85,32.22z"/>
		<path fill="#FFFFFF" d="M77.34,20.73h1.71l4.45,10.24l4.45-10.24h1.62v12.21h-1.14V22.18h-0.03l-4.66,10.76h-0.5l-4.72-10.76
			h-0.03v10.76h-1.14V20.73z"/>
		<path fill="#FFFFFF" d="M98.05,20.43c3.72,0,6.31,2.69,6.31,6.41c0,3.72-2.59,6.41-6.31,6.41c-3.72,0-6.31-2.69-6.31-6.41
			C91.74,23.11,94.33,20.43,98.05,20.43z M98.05,32.22c3.19,0,5.17-2.34,5.17-5.38c0-3.04-1.98-5.38-5.17-5.38
			c-3.19,0-5.17,2.34-5.17,5.38C92.88,29.87,94.86,32.22,98.05,32.22z"/>
		<path fill="#FFFFFF" d="M120.94,31.03c-1.16,1.59-2.74,2.22-4.54,2.22c-3.72,0-6.31-2.69-6.31-6.41c0-3.72,2.59-6.41,6.31-6.41
			c1.66,0,3.14,0.55,4.21,1.91l-0.93,0.78c-0.76-1.14-2.05-1.66-3.28-1.66c-3.19,0-5.17,2.34-5.17,5.38c0,3.03,1.98,5.38,5.17,5.38
			c1.22,0,2.74-0.59,3.6-1.9L120.94,31.03z"/>
		<path fill="#FFFFFF" d="M128.29,20.43c3.72,0,6.31,2.69,6.31,6.41c0,3.72-2.59,6.41-6.31,6.41c-3.72,0-6.31-2.69-6.31-6.41
			C121.98,23.11,124.57,20.43,128.29,20.43z M128.29,32.22c3.19,0,5.17-2.34,5.17-5.38c0-3.04-1.98-5.38-5.17-5.38
			s-5.17,2.34-5.17,5.38C123.12,29.87,125.1,32.22,128.29,32.22z"/>
		<path fill="#FFFFFF" d="M136.74,20.73h3.78c6.35,0,6.6,5.21,6.6,6.1s-0.26,6.1-6.6,6.1h-3.78V20.73z M137.88,31.91h2.35
			c3.24,0,5.76-1.57,5.76-5.07c0-3.5-2.52-5.07-5.76-5.07h-2.35V31.91z"/>
		<path fill="#FFFFFF" d="M149.42,20.73h7.47v1.04h-6.33v4.34h5.93v1.03h-5.93v4.76h6.6v1.03h-7.74V20.73z"/>
		<path fill="#FFFFFF" d="M163.62,20.73h1.14v12.21h-1.14V20.73z"/>
		<path fill="#FFFFFF" d="M168.17,30.68c0.6,1.02,1.59,1.53,2.79,1.53c1.53,0,2.74-0.93,2.74-2.4c0-3.41-6.29-1.41-6.29-6.05
			c0-2.17,1.86-3.34,3.91-3.34c1.33,0,2.5,0.45,3.33,1.53l-0.98,0.71c-0.57-0.79-1.33-1.21-2.38-1.21c-1.47,0-2.74,0.76-2.74,2.31
			c0,3.67,6.29,1.47,6.29,6.05c0,2.21-1.81,3.43-3.79,3.43c-1.6,0-3.02-0.52-3.97-1.84L168.17,30.68z"/>
		<path fill="#FFFFFF" d="M185.15,20.73h1.17l5.14,12.21h-1.28l-1.33-3.24h-6.47l-1.38,3.24h-1.19L185.15,20.73z M185.68,21.98
			l-2.85,6.69h5.6L185.68,21.98z"/>
		<path fill="#FFFFFF" d="M192.96,20.73h3.52c1.72,0,3.93,0.67,3.93,3.22c0,2.21-1.76,3.19-3.67,3.19h-2.64v5.79h-1.14V20.73z
			 M194.1,26.11h2.59c1.29,0,2.59-0.55,2.59-2.16c0-1.57-1.35-2.19-2.66-2.19h-2.52V26.11z"/>
		<path fill="#FFFFFF" d="M202.6,20.73h3.52c1.72,0,3.93,0.67,3.93,3.22c0,2.21-1.76,3.19-3.67,3.19h-2.64v5.79h-1.14V20.73z
			 M203.74,26.11h2.59c1.29,0,2.59-0.55,2.59-2.16c0-1.57-1.35-2.19-2.66-2.19h-2.52V26.11z"/>
		<path fill="#FFFFFF" d="M212.25,20.73h1.14v11.17h5.69v1.03h-6.83V20.73z"/>
		<path fill="#FFFFFF" d="M220.61,20.73h1.14v12.21h-1.14V20.73z"/>
		<path fill="#FFFFFF" d="M224.84,20.73h7.47v1.04h-6.33v4.34h5.93v1.03h-5.93v4.76h6.6v1.03h-7.74V20.73z"/>
		<path fill="#FFFFFF" d="M234.65,20.73h3.78c6.34,0,6.6,5.21,6.6,6.1s-0.26,6.1-6.6,6.1h-3.78V20.73z M235.79,31.91h2.34
			c3.24,0,5.76-1.57,5.76-5.07c0-3.5-2.52-5.07-5.76-5.07h-2.34V31.91z"/>
		<path fill="#FFFFFF" d="M247.9,24.87c0.46,0,0.83,0.36,0.83,0.83c0,0.47-0.36,0.83-0.83,0.83c-0.47,0-0.83-0.36-0.83-0.83
			C247.07,25.24,247.44,24.87,247.9,24.87z M247.9,31.39c0.46,0,0.83,0.36,0.83,0.83c0,0.47-0.36,0.83-0.83,0.83
			c-0.47,0-0.83-0.36-0.83-0.83C247.07,31.75,247.44,31.39,247.9,31.39z"/>
	</g>
	<rect x="263.53" y="12.18" fill="#5AB947" width="126.5" height="29.91"/>
	<g>
		<path fill="#FFFFFF" d="M283.25,22.05h7.61v2.31h-5.11v2.31h4.73v2.31h-4.73v4.42h-2.5V22.05z"/>
		<path fill="#FFFFFF" d="M297.92,21.76c3.54,0,6.12,2.32,6.12,5.96s-2.58,5.96-6.12,5.96s-6.12-2.32-6.12-5.96
			S294.38,21.76,297.92,21.76z M297.92,31.38c2.13,0,3.52-1.54,3.52-3.65c0-2.11-1.39-3.65-3.52-3.65s-3.52,1.54-3.52,3.65
			C294.4,29.84,295.79,31.38,297.92,31.38z"/>
		<path fill="#FFFFFF" d="M315.06,29.02c0,2.68-1.63,4.66-4.77,4.66c-3.16,0-4.79-1.99-4.79-4.66v-6.97h2.5v6.87
			c0,1.39,0.96,2.45,2.29,2.45c1.31,0,2.28-1.06,2.28-2.45v-6.87h2.5V29.02z"/>
		<path fill="#FFFFFF" d="M317.13,22.05h3.4l4.82,7.88h0.03v-7.88h2.5V33.4h-3.27l-4.95-8.08h-0.03v8.08h-2.5V22.05z"/>
		<path fill="#FFFFFF" d="M329.94,22.05h3.75c3.65,0,6.71,1.55,6.71,5.7c0,3.67-3,5.64-6.38,5.64h-4.08V22.05z M332.44,31.09h1.3
			c2.32,0,4.07-0.88,4.07-3.46c0-2.23-1.78-3.27-3.89-3.27h-1.47V31.09z"/>
		<path fill="#FFFFFF" d="M341.83,22.05h2.5V33.4h-2.5V22.05z"/>
		<path fill="#FFFFFF" d="M348.56,24.26h-3.24v-2.21h8.97v2.21h-3.24v9.13h-2.5V24.26z"/>
	</g>
	<g>
		<g>
			<polyline fill="none" stroke="#FFFFFF" stroke-width="1.5" stroke-miterlimit="10" points="395.53,44.3 395.53,46.8 393.03,46.8 
							"/>
			
				<line fill="none" stroke="#FFFFFF" stroke-width="1.5" stroke-miterlimit="10" stroke-dasharray="4.8827,4.8827" x1="388.15" y1="46.8" x2="263.64" y2="46.8"/>
			<polyline fill="none" stroke="#FFFFFF" stroke-width="1.5" stroke-miterlimit="10" points="261.2,46.8 258.7,46.8 258.7,44.3 			
				"/>
			
				<line fill="none" stroke="#FFFFFF" stroke-width="1.5" stroke-miterlimit="10" stroke-dasharray="4.7461,4.7461" x1="258.7" y1="39.55" x2="258.7" y2="13.45"/>
			<polyline fill="none" stroke="#FFFFFF" stroke-width="1.5" stroke-miterlimit="10" points="258.7,11.08 258.7,8.58 261.2,8.58 
							"/>
			
				<line fill="none" stroke="#FFFFFF" stroke-width="1.5" stroke-miterlimit="10" stroke-dasharray="4.8827,4.8827" x1="266.08" y1="8.58" x2="390.59" y2="8.58"/>
			<polyline fill="none" stroke="#FFFFFF" stroke-width="1.5" stroke-miterlimit="10" points="393.03,8.58 395.53,8.58 
				395.53,11.08 			"/>
			
				<line fill="none" stroke="#FFFFFF" stroke-width="1.5" stroke-miterlimit="10" stroke-dasharray="4.7461,4.7461" x1="395.53" y1="15.82" x2="395.53" y2="41.93"/>
		</g>
	</g>
	<polygon fill="#FFFFFF" points="379.31,19.65 371.72,29.04 366.27,24.57 364.16,27.15 369.63,31.62 372.21,33.73 374.3,31.14 
		381.9,21.74 	"/>
</g>
</svg>
