<?xml version="1.0" encoding="utf-8"?>
<!-- Generator: Adobe Illustrator 16.0.3, SVG Export Plug-In . SVG Version: 6.00 Build 0)  -->
<!DOCTYPE svg PUBLIC "-//W3C//DTD SVG 1.1//EN" "http://www.w3.org/Graphics/SVG/1.1/DTD/svg11.dtd">
<svg version="1.1" xmlns="http://www.w3.org/2000/svg" xmlns:xlink="http://www.w3.org/1999/xlink" x="0px" y="0px"
	 width="398.999px" height="62.285px" viewBox="0 0 398.999 62.285" enable-background="new 0 0 398.999 62.285"
	 xml:space="preserve">
<g id="Layer_3" display="none">
	<rect x="-22.333" y="0.898" display="inline" fill="#D395FB" width="510.667" height="73.768"/>
</g>
<g id="Layer_1">
	<rect x="7" y="5.779" fill="#55179E" width="385" height="40.155"/>
	<g>
		<path fill="#FFFFFF" d="M250.524,16.123h11.474v3.479h-7.705v3.478h7.125v3.479h-7.125v6.667h-3.769V16.123z"/>
		<path fill="#FFFFFF" d="M272.652,15.688c5.338,0,9.227,3.502,9.227,8.985s-3.889,8.985-9.227,8.985
			c-5.339,0-9.228-3.502-9.228-8.985S267.313,15.688,272.652,15.688z M272.652,30.181c3.212,0,5.313-2.319,5.313-5.507
			s-2.102-5.507-5.313-5.507c-3.213,0-5.314,2.319-5.314,5.507S269.439,30.181,272.652,30.181z"/>
		<path fill="#FFFFFF" d="M298.499,26.63c0,4.034-2.464,7.029-7.198,7.029c-4.758,0-7.222-2.995-7.222-7.029V16.123h3.768v10.362
			c0,2.102,1.45,3.696,3.454,3.696c1.981,0,3.431-1.594,3.431-3.696V16.123h3.768V26.63z"/>
		<path fill="#FFFFFF" d="M301.617,16.123h5.121l7.271,11.884h0.048V16.123h3.769v17.102h-4.928l-7.464-12.174h-0.049v12.174h-3.768
			V16.123z"/>
		<path fill="#FFFFFF" d="M320.942,16.123h5.652c5.507,0,10.12,2.343,10.12,8.599c0,5.531-4.517,8.502-9.613,8.502h-6.159V16.123z
			 M324.71,29.746h1.957c3.502,0,6.135-1.329,6.135-5.218c0-3.357-2.681-4.927-5.869-4.927h-2.223V29.746z"/>
		<path fill="#FFFFFF" d="M338.867,16.123h3.769v17.102h-3.769V16.123z"/>
		<path fill="#FFFFFF" d="M349.012,19.456h-4.879v-3.333h13.526v3.333h-4.879v13.768h-3.769V19.456z"/>
	</g>
	<g>
		<g>
			<polyline fill="none" stroke="#FFFFFF" stroke-width="1.5" stroke-miterlimit="10" points="398.249,47.783 398.249,50.033 
				395.999,50.033 			"/>
			
				<line fill="none" stroke="#FFFFFF" stroke-width="1.5" stroke-miterlimit="10" stroke-dasharray="4.5172,4.5172" x1="391.481" y1="50.033" x2="5.259" y2="50.033"/>
			<polyline fill="none" stroke="#FFFFFF" stroke-width="1.5" stroke-miterlimit="10" points="3,50.033 0.75,50.033 0.75,47.783 			
				"/>
			
				<line fill="none" stroke="#FFFFFF" stroke-width="1.5" stroke-miterlimit="10" stroke-dasharray="4.9481,4.9481" x1="0.75" y1="42.835" x2="0.75" y2="5.724"/>
			<polyline fill="none" stroke="#FFFFFF" stroke-width="1.5" stroke-miterlimit="10" points="0.75,3.25 0.75,1 3,1 			"/>
			
				<line fill="none" stroke="#FFFFFF" stroke-width="1.5" stroke-miterlimit="10" stroke-dasharray="4.5172,4.5172" x1="7.517" y1="1" x2="393.74" y2="1"/>
			<polyline fill="none" stroke="#FFFFFF" stroke-width="1.5" stroke-miterlimit="10" points="395.999,1 398.249,1 398.249,3.25 			
				"/>
			
				<line fill="none" stroke="#FFFFFF" stroke-width="1.5" stroke-miterlimit="10" stroke-dasharray="4.9481,4.9481" x1="398.249" y1="8.198" x2="398.249" y2="45.309"/>
		</g>
	</g>
	<g id="XMLID_2570_">
		<path fill="#FFFFFF" d="M372.804,38.365c-2.633,0-4.738-0.612-6.258-1.822c-1.789-1.424-2.697-3.613-2.697-6.506
			c0-2.843,1.053-6.295,2.814-9.233c0.854-1.422,1.822-2.622,2.801-3.466c1.137-0.982,2.26-1.479,3.34-1.479
			c2.043,0,4.289,1.803,6.164,4.946c0.826,1.385,1.52,2.946,2.006,4.512c0.514,1.652,0.783,3.284,0.783,4.721
			c0,2.894-0.906,5.083-2.695,6.506C377.542,37.753,375.437,38.365,372.804,38.365z M372.804,17.327
			c-1.447,0-3.316,1.622-4.881,4.231c-1.607,2.681-2.605,5.929-2.605,8.479c0,2.424,0.723,4.227,2.145,5.358
			c1.252,0.996,3.049,1.502,5.342,1.502c2.291,0,4.09-0.506,5.344-1.502c1.422-1.131,2.141-2.934,2.141-5.358
			c0-2.56-0.988-5.81-2.58-8.479c-0.77-1.292-1.635-2.365-2.498-3.107C374.356,17.715,373.524,17.327,372.804,17.327z"/>
		<path fill="#FFFFFF" d="M379.173,29.24c-0.604,0-0.875-0.225-1.252-0.534c-0.424-0.348-0.947-0.78-1.941-0.78
			c-0.99,0-1.518,0.433-1.941,0.78c-0.377,0.309-0.648,0.534-1.252,0.534c-0.605,0-0.877-0.225-1.254-0.534
			c-0.424-0.348-0.949-0.78-1.941-0.78s-1.52,0.433-1.941,0.78c-0.375,0.309-0.646,0.534-1.252,0.534s-0.877-0.225-1.254-0.534
			c-0.189-0.155-0.4-0.331-0.666-0.474l0.699-1.291c0.389,0.21,0.686,0.452,0.9,0.629c0.098,0.08,0.205,0.17,0.252,0.196
			c0.01,0.002,0.031,0.003,0.068,0.003c0.035,0,0.059-0.001,0.07-0.003c0.045-0.026,0.152-0.116,0.25-0.196
			c0.506-0.417,1.354-1.113,2.873-1.113s2.367,0.696,2.873,1.113c0.098,0.08,0.207,0.17,0.252,0.196
			c0.01,0.002,0.033,0.003,0.07,0.003s0.061-0.001,0.068-0.003c0.045-0.026,0.154-0.116,0.252-0.196
			c0.508-0.417,1.355-1.113,2.873-1.113s2.367,0.696,2.873,1.113c0.1,0.08,0.207,0.17,0.252,0.196
			c0.01,0.002,0.031,0.003,0.068,0.003c0.039,0,0.061-0.001,0.07-0.003c0.045-0.026,0.154-0.116,0.252-0.196
			c0.227-0.185,0.531-0.437,0.943-0.654l0.684,1.301c-0.277,0.146-0.5,0.327-0.693,0.489
			C380.052,29.016,379.778,29.24,379.173,29.24z"/>
		<path fill="#FFFFFF" d="M379.173,31.791c-1.518,0-2.365-0.698-2.871-1.113c-0.098-0.08-0.207-0.171-0.252-0.197
			c-0.01-0.001-0.033-0.003-0.07-0.003s-0.059,0.001-0.07,0.003c-0.045,0.026-0.152,0.117-0.25,0.195
			c-0.506,0.417-1.355,1.114-2.873,1.114c-1.52,0-2.367-0.698-2.873-1.114c-0.098-0.079-0.207-0.169-0.252-0.195
			c-0.012-0.001-0.031-0.003-0.07-0.003c-0.037,0-0.059,0.001-0.068,0.003c-0.047,0.026-0.154,0.117-0.252,0.195
			c-0.506,0.417-1.355,1.114-2.873,1.114c-0.818,0-1.539-0.202-2.203-0.617l0.779-1.245c0.428,0.268,0.881,0.393,1.424,0.393
			c0.99,0,1.518-0.433,1.939-0.78c0.377-0.31,0.65-0.534,1.254-0.534c0.605,0,0.877,0.224,1.254,0.534
			c0.424,0.348,0.947,0.78,1.941,0.78c0.992,0,1.518-0.433,1.939-0.78c0.379-0.31,0.65-0.534,1.254-0.534
			c0.605,0,0.879,0.224,1.252,0.534c0.424,0.348,0.951,0.78,1.941,0.78c0.551,0,1.012-0.13,1.445-0.407l0.791,1.239
			C380.735,31.582,380.005,31.791,379.173,31.791z"/>
		<rect x="366.419" y="22.075" fill="#FFFFFF" width="12.787" height="1.468"/>
		<rect x="367.878" y="19.533" fill="#FFFFFF" width="9.877" height="1.468"/>
		<rect x="372.073" y="11.435" fill="#FFFFFF" width="1.471" height="3.7"/>
		
			<rect x="364.72" y="15" transform="matrix(0.7194 0.6946 -0.6946 0.7194 113.8329 -250.2891)" fill="#FFFFFF" width="3.91" height="1.471"/>
		<polygon fill="#FFFFFF" points="378.06,17.622 377.042,16.565 379.851,13.849 380.874,14.906 		"/>
	</g>
	<g>
		<g>
			<path fill="#FF0069" d="M258.288,40.362c-5.881,11.74-17.709,19.965-30.704,21.633c-13.886,1.78-27.943-4.79-36.551-15.606
				c-1.254-1.576-2.382-3.243-3.404-4.979c-0.083-0.141-0.698-1.379-0.113-1.311c0.63,0.075,1.159,0.993,1.44,1.467
				c3.294,5.587,8.469,10.2,14.295,13.314c6.07,3.244,12.973,4.874,19.854,4.584c13.077-0.557,25.631-8.364,32.152-19.671
				c0.358-0.619,0.695-1.258,1.019-1.9C256.604,37.242,258.659,39.62,258.288,40.362L258.288,40.362z"/>
			<path fill="#FF0069" d="M256.241,48.935c0.554-3.784,1.105-7.567,1.658-11.351c0.425-0.064,0.851-0.13,1.28-0.197
				c-2.79,1.73-5.578,3.456-8.366,5.184c-0.113,0.072-1.347,0.754-1.277,0.199c0.075-0.616,0.974-1.183,1.434-1.468
				c2.79-1.726,5.577-3.455,8.365-5.183c0.106-0.066,1.358-0.752,1.277-0.196c-0.552,3.784-1.104,7.568-1.657,11.353
				c-0.09,0.616-0.962,1.174-1.435,1.464C257.414,48.804,256.16,49.493,256.241,48.935L256.241,48.935z"/>
		</g>
	</g>
	<g>
		<path fill="#FFFFFF" d="M23.673,16.89h1.574l6.898,16.389h-1.713l-1.782-4.352h-8.68l-1.852,4.352H16.52L23.673,16.89z
			 M24.39,18.557l-3.819,8.981h7.523L24.39,18.557z"/>
		<path fill="#FFFFFF" d="M34.163,16.89h4.722c2.315,0,5.278,0.903,5.278,4.329c0,2.963-2.361,4.283-4.931,4.283h-3.542v7.777
			h-1.528V16.89z M35.691,24.112h3.472c1.736,0,3.472-0.741,3.472-2.894c0-2.106-1.806-2.939-3.564-2.939h-3.38V24.112z"/>
		<path fill="#FFFFFF" d="M47.106,16.89h4.722c2.315,0,5.278,0.903,5.278,4.329c0,2.963-2.361,4.283-4.931,4.283h-3.542v7.777
			h-1.528V16.89z M48.634,24.112h3.472c1.736,0,3.472-0.741,3.472-2.894c0-2.106-1.806-2.939-3.564-2.939h-3.38V24.112z"/>
		<path fill="#FFFFFF" d="M60.05,16.89h1.528v15h7.639v1.389H60.05V16.89z"/>
		<path fill="#FFFFFF" d="M72.345,26.219l-6.018-9.329h1.829l4.954,7.778l5.069-7.778h1.713l-6.019,9.329v7.06h-1.528V26.219z"/>
		<path fill="#FFFFFF" d="M87.327,16.89h4.722c2.315,0,5.278,0.903,5.278,4.329c0,2.963-2.361,4.283-4.931,4.283h-3.542v7.777
			h-1.528V16.89z M88.854,24.112h3.472c1.736,0,3.472-0.741,3.472-2.894c0-2.106-1.806-2.939-3.564-2.939h-3.38V24.112z"/>
		<path fill="#FFFFFF" d="M100.27,16.89h4.306c1.296,0,5.833,0,5.833,4.306c0,3.125-2.384,3.981-4.189,4.213l4.769,7.87h-1.736
			l-4.606-7.777h-2.847v7.777h-1.528V16.89z M101.798,24.112h3.241c3.218,0,3.843-1.782,3.843-2.917s-0.625-2.917-3.843-2.917
			h-3.241V24.112z"/>
		<path fill="#FFFFFF" d="M121.061,16.474c5,0,8.472,3.611,8.472,8.611s-3.472,8.611-8.472,8.611c-5,0-8.472-3.611-8.472-8.611
			S116.061,16.474,121.061,16.474z M121.061,32.307c4.283,0,6.944-3.148,6.944-7.222c0-4.074-2.662-7.222-6.944-7.222
			c-4.282,0-6.944,3.148-6.944,7.222C114.117,29.159,116.778,32.307,121.061,32.307z"/>
		<path fill="#FFFFFF" d="M132.456,16.89h2.292l5.972,13.75l5.972-13.75h2.176v16.389h-1.528V18.834h-0.046l-6.25,14.444h-0.671
			l-6.342-14.444h-0.046v14.444h-1.527V16.89z"/>
		<path fill="#FFFFFF" d="M160.262,16.474c5,0,8.472,3.611,8.472,8.611s-3.472,8.611-8.472,8.611c-5,0-8.472-3.611-8.472-8.611
			S155.262,16.474,160.262,16.474z M160.262,32.307c4.283,0,6.944-3.148,6.944-7.222c0-4.074-2.662-7.222-6.944-7.222
			c-4.282,0-6.944,3.148-6.944,7.222C153.318,29.159,155.979,32.307,160.262,32.307z"/>
		<path fill="#FFFFFF" d="M190.986,30.709c-1.551,2.129-3.68,2.986-6.088,2.986c-5,0-8.472-3.611-8.472-8.611
			s3.472-8.611,8.472-8.611c2.222,0,4.213,0.741,5.648,2.569l-1.25,1.042c-1.019-1.527-2.755-2.222-4.398-2.222
			c-4.282,0-6.944,3.148-6.944,7.222c0,4.074,2.662,7.222,6.944,7.222c1.644,0,3.681-0.787,4.838-2.546L190.986,30.709z"/>
		<path fill="#FFFFFF" d="M200.852,16.474c5,0,8.473,3.611,8.473,8.611s-3.473,8.611-8.473,8.611c-4.999,0-8.471-3.611-8.471-8.611
			S195.853,16.474,200.852,16.474z M200.852,32.307c4.283,0,6.944-3.148,6.944-7.222c0-4.074-2.661-7.222-6.944-7.222
			c-4.282,0-6.943,3.148-6.943,7.222C193.908,29.159,196.57,32.307,200.852,32.307z"/>
		<path fill="#FFFFFF" d="M212.2,16.89h5.069c8.519,0,8.865,6.991,8.865,8.194s-0.347,8.194-8.865,8.194H212.2V16.89z
			 M213.729,31.89h3.147c4.352,0,7.731-2.106,7.731-6.806c0-4.699-3.38-6.805-7.731-6.805h-3.147V31.89z"/>
		<path fill="#FFFFFF" d="M229.219,16.89h10.023v1.389h-8.495v5.833h7.963v1.389h-7.963v6.389h8.865v1.389h-10.394V16.89z"/>
		<path fill="#FFFFFF" d="M243.366,22.446c0.625,0,1.111,0.486,1.111,1.111s-0.486,1.111-1.111,1.111s-1.111-0.486-1.111-1.111
			S242.741,22.446,243.366,22.446z M243.366,31.195c0.625,0,1.111,0.486,1.111,1.111s-0.486,1.111-1.111,1.111
			s-1.111-0.486-1.111-1.111S242.741,31.195,243.366,31.195z"/>
	</g>
</g>
<g id="Layer_4" display="none">
	<rect x="7" y="5.779" display="inline" fill="#40D31C" width="385" height="40.155"/>
	<g display="inline">
		<path fill="#FFFFFF" d="M250.524,16.123h11.474v3.479h-7.705v3.478h7.125v3.479h-7.125v6.667h-3.769V16.123z"/>
		<path fill="#FFFFFF" d="M272.652,15.688c5.338,0,9.227,3.502,9.227,8.985s-3.889,8.985-9.227,8.985
			c-5.339,0-9.228-3.502-9.228-8.985S267.313,15.688,272.652,15.688z M272.652,30.181c3.212,0,5.313-2.319,5.313-5.507
			s-2.102-5.507-5.313-5.507c-3.213,0-5.314,2.319-5.314,5.507S269.439,30.181,272.652,30.181z"/>
		<path fill="#FFFFFF" d="M298.499,26.63c0,4.034-2.464,7.029-7.198,7.029c-4.758,0-7.222-2.995-7.222-7.029V16.123h3.768v10.362
			c0,2.102,1.45,3.696,3.454,3.696c1.981,0,3.431-1.594,3.431-3.696V16.123h3.768V26.63z"/>
		<path fill="#FFFFFF" d="M301.617,16.123h5.121l7.271,11.884h0.048V16.123h3.769v17.102h-4.928l-7.464-12.174h-0.049v12.174h-3.768
			V16.123z"/>
		<path fill="#FFFFFF" d="M320.942,16.123h5.652c5.507,0,10.12,2.343,10.12,8.599c0,5.531-4.517,8.502-9.613,8.502h-6.159V16.123z
			 M324.71,29.746h1.957c3.502,0,6.135-1.329,6.135-5.218c0-3.357-2.681-4.927-5.869-4.927h-2.223V29.746z"/>
		<path fill="#FFFFFF" d="M338.867,16.123h3.769v17.102h-3.769V16.123z"/>
		<path fill="#FFFFFF" d="M349.012,19.456h-4.879v-3.333h13.526v3.333h-4.879v13.768h-3.769V19.456z"/>
	</g>
	<g display="inline" opacity="0.5">
		<g>
			<polyline fill="none" stroke="#FFFFFF" stroke-width="1.5" stroke-miterlimit="10" points="398.249,47.783 398.249,50.033 
				395.999,50.033 			"/>
			
				<line fill="none" stroke="#FFFFFF" stroke-width="1.5" stroke-miterlimit="10" stroke-dasharray="4.5172,4.5172" x1="391.481" y1="50.033" x2="5.259" y2="50.033"/>
			<polyline fill="none" stroke="#FFFFFF" stroke-width="1.5" stroke-miterlimit="10" points="3,50.033 0.75,50.033 0.75,47.783 			
				"/>
			
				<line fill="none" stroke="#FFFFFF" stroke-width="1.5" stroke-miterlimit="10" stroke-dasharray="4.9481,4.9481" x1="0.75" y1="42.835" x2="0.75" y2="5.724"/>
			<polyline fill="none" stroke="#FFFFFF" stroke-width="1.5" stroke-miterlimit="10" points="0.75,3.25 0.75,1 3,1 			"/>
			
				<line fill="none" stroke="#FFFFFF" stroke-width="1.5" stroke-miterlimit="10" stroke-dasharray="4.5172,4.5172" x1="7.517" y1="1" x2="393.74" y2="1"/>
			<polyline fill="none" stroke="#FFFFFF" stroke-width="1.5" stroke-miterlimit="10" points="395.999,1 398.249,1 398.249,3.25 			
				"/>
			
				<line fill="none" stroke="#FFFFFF" stroke-width="1.5" stroke-miterlimit="10" stroke-dasharray="4.9481,4.9481" x1="398.249" y1="8.198" x2="398.249" y2="45.309"/>
		</g>
	</g>
	<g display="inline">
		<path fill="#FFFFFF" d="M22.592,19.116h4.081c2,0,4.561,0.78,4.561,3.741c0,2.561-2.04,3.701-4.261,3.701h-3.061v6.722h-1.32
			V19.116z M23.913,25.357h3c1.5,0,3.001-0.64,3.001-2.5c0-1.82-1.561-2.541-3.081-2.541h-2.92V25.357z"/>
		<path fill="#FFFFFF" d="M33.772,19.116h3.721c1.12,0,5.041,0,5.041,3.721c0,2.701-2.061,3.441-3.621,3.641l4.121,6.801h-1.5
			l-3.981-6.722h-2.46v6.722h-1.32V19.116z M35.092,25.357h2.801c2.78,0,3.32-1.54,3.32-2.521c0-0.98-0.54-2.521-3.32-2.521h-2.801
			V25.357z"/>
		<path fill="#FFFFFF" d="M51.733,18.756c4.321,0,7.322,3.121,7.322,7.441s-3.001,7.441-7.322,7.441s-7.322-3.121-7.322-7.441
			S47.413,18.756,51.733,18.756z M51.733,32.438c3.701,0,6.001-2.72,6.001-6.241c0-3.521-2.301-6.241-6.001-6.241
			s-6.001,2.721-6.001,6.241C45.732,29.718,48.033,32.438,51.733,32.438z"/>
		<path fill="#FFFFFF" d="M61.572,19.116h1.98l5.161,11.883l5.161-11.883h1.88v14.163h-1.32V20.796h-0.04l-5.401,12.482h-0.58
			l-5.481-12.482h-0.04v12.482h-1.32V19.116z"/>
		<path fill="#FFFFFF" d="M85.593,18.756c4.321,0,7.322,3.121,7.322,7.441s-3.001,7.441-7.322,7.441s-7.322-3.121-7.322-7.441
			S81.272,18.756,85.593,18.756z M85.593,32.438c3.701,0,6.001-2.72,6.001-6.241c0-3.521-2.301-6.241-6.001-6.241
			s-6.001,2.721-6.001,6.241C79.592,29.718,81.893,32.438,85.593,32.438z"/>
		<path fill="#FFFFFF" d="M112.134,31.058c-1.34,1.841-3.181,2.581-5.261,2.581c-4.321,0-7.322-3.121-7.322-7.441
			s3.001-7.441,7.322-7.441c1.92,0,3.641,0.64,4.881,2.22l-1.08,0.9c-0.88-1.32-2.38-1.92-3.801-1.92
			c-3.701,0-6.001,2.721-6.001,6.241c0,3.521,2.301,6.241,6.001,6.241c1.42,0,3.181-0.68,4.181-2.2L112.134,31.058z"/>
		<path fill="#FFFFFF" d="M120.653,18.756c4.321,0,7.322,3.121,7.322,7.441s-3.001,7.441-7.322,7.441s-7.322-3.121-7.322-7.441
			S116.332,18.756,120.653,18.756z M120.653,32.438c3.701,0,6.001-2.72,6.001-6.241c0-3.521-2.301-6.241-6.001-6.241
			s-6.001,2.721-6.001,6.241C114.651,29.718,116.952,32.438,120.653,32.438z"/>
		<path fill="#FFFFFF" d="M130.451,19.116h4.381c7.362,0,7.662,6.042,7.662,7.082s-0.3,7.082-7.662,7.082h-4.381V19.116z
			 M131.771,32.079h2.721c3.761,0,6.681-1.82,6.681-5.881s-2.92-5.881-6.681-5.881h-2.721V32.079z"/>
		<path fill="#FFFFFF" d="M145.151,19.116h8.662v1.2h-7.341v5.041h6.881v1.2h-6.881v5.521h7.662v1.2h-8.982V19.116z"/>
		<path fill="#FFFFFF" d="M165.952,19.116h1.36l5.961,14.163h-1.48l-1.541-3.761h-7.501l-1.6,3.761h-1.38L165.952,19.116z
			 M166.572,20.556l-3.301,7.762h6.501L166.572,20.556z"/>
		<path fill="#FFFFFF" d="M175.011,19.116h4.081c2,0,4.561,0.78,4.561,3.741c0,2.561-2.04,3.701-4.261,3.701h-3.061v6.722h-1.32
			V19.116z M176.331,25.357h3c1.5,0,3.001-0.64,3.001-2.5c0-1.82-1.561-2.541-3.081-2.541h-2.92V25.357z"/>
		<path fill="#FFFFFF" d="M186.191,19.116h4.081c2,0,4.561,0.78,4.561,3.741c0,2.561-2.04,3.701-4.261,3.701h-3.061v6.722h-1.32
			V19.116z M187.511,25.357h3c1.5,0,3.001-0.64,3.001-2.5c0-1.82-1.561-2.541-3.081-2.541h-2.92V25.357z"/>
		<path fill="#FFFFFF" d="M197.371,19.116h1.32v12.963h6.601v1.2h-7.921V19.116z"/>
		<path fill="#FFFFFF" d="M207.07,19.116h1.32v14.163h-1.32V19.116z"/>
		<path fill="#FFFFFF" d="M211.97,19.116h8.662v1.2h-7.342v5.041h6.882v1.2h-6.882v5.521h7.662v1.2h-8.982V19.116z"/>
		<path fill="#FFFFFF" d="M223.35,19.116h4.381c7.362,0,7.662,6.042,7.662,7.082s-0.3,7.082-7.662,7.082h-4.381V19.116z
			 M224.67,32.079h2.721c3.761,0,6.682-1.82,6.682-5.881s-2.921-5.881-6.682-5.881h-2.721V32.079z"/>
		<path fill="#FFFFFF" d="M239.119,22.446c0.625,0,1.11,0.486,1.11,1.111s-0.485,1.111-1.11,1.111s-1.111-0.486-1.111-1.111
			S238.494,22.446,239.119,22.446z M239.119,31.195c0.625,0,1.11,0.486,1.11,1.111s-0.485,1.111-1.11,1.111
			s-1.111-0.486-1.111-1.111S238.494,31.195,239.119,31.195z"/>
	</g>
	<g display="inline">
		<polygon fill="#FFFFFF" points="378.812,18.653 371.224,28.038 365.77,23.574 363.663,26.147 369.133,30.625 371.706,32.731 
			373.798,30.144 381.397,20.744 		"/>
	</g>
</g>
</svg>
