<?xml version="1.0" encoding="utf-8"?>
<!-- Generator: Adobe Illustrator 16.0.3, SVG Export Plug-In . SVG Version: 6.00 Build 0)  -->
<!DOCTYPE svg PUBLIC "-//W3C//DTD SVG 1.1//EN" "http://www.w3.org/Graphics/SVG/1.1/DTD/svg11.dtd">
<svg version="1.1" id="Layer_1" xmlns="http://www.w3.org/2000/svg" xmlns:xlink="http://www.w3.org/1999/xlink" x="0px" y="0px"
	 width="198.824px" height="165px" viewBox="0 0 198.824 165" enable-background="new 0 0 198.824 165" xml:space="preserve">
<g>
	<linearGradient id="SVGID_1_" gradientUnits="userSpaceOnUse" x1="169.9185" y1="81.6626" x2="198.8237" y2="81.6626">
		<stop  offset="0" style="stop-color:#AF8221"/>
		<stop  offset="0.1403" style="stop-color:#B58723"/>
		<stop  offset="0.6838" style="stop-color:#C9962E"/>
		<stop  offset="1" style="stop-color:#D29D33"/>
	</linearGradient>
	<polygon fill="url(#SVGID_1_)" points="198.824,100.765 169.918,100.765 169.918,97.992 194.219,97.992 185.57,81.665 
		194.219,65.333 169.918,65.333 169.918,62.561 198.824,62.561 188.707,81.665 	"/>
</g>
<g>
	<linearGradient id="SVGID_2_" gradientUnits="userSpaceOnUse" x1="0" y1="81.6626" x2="30.2217" y2="81.6626">
		<stop  offset="0" style="stop-color:#AF8221"/>
		<stop  offset="0.1403" style="stop-color:#B58723"/>
		<stop  offset="0.6838" style="stop-color:#C9962E"/>
		<stop  offset="1" style="stop-color:#D29D33"/>
	</linearGradient>
	<polygon fill="url(#SVGID_2_)" points="30.222,100.765 0,100.765 10.116,81.665 0,62.561 30.222,62.561 30.222,65.333 
		4.604,65.333 13.253,81.665 4.604,97.992 30.222,97.992 	"/>
</g>
<g>
	<linearGradient id="SVGID_3_" gradientUnits="userSpaceOnUse" x1="32.5811" y1="81.6626" x2="166.8853" y2="81.6626">
		<stop  offset="0" style="stop-color:#AF8221"/>
		<stop  offset="0.1403" style="stop-color:#B58723"/>
		<stop  offset="0.6838" style="stop-color:#C9962E"/>
		<stop  offset="1" style="stop-color:#D29D33"/>
	</linearGradient>
	<path fill="url(#SVGID_3_)" d="M99.73,14.51c-37.088,0-67.149,30.069-67.149,67.155c0,37.088,30.061,67.15,67.149,67.15
		s67.155-30.062,67.155-67.15C166.885,44.579,136.818,14.51,99.73,14.51z M99.73,144.254c-34.565,0-62.589-28.023-62.589-62.589
		c0-34.571,28.023-62.595,62.589-62.595c34.571,0,62.595,28.024,62.595,62.595C162.325,116.231,134.301,144.254,99.73,144.254z"/>
</g>
<g>
	<linearGradient id="SVGID_4_" gradientUnits="userSpaceOnUse" x1="56.6938" y1="81.6655" x2="143.439" y2="81.6655">
		<stop  offset="0" style="stop-color:#AF8221"/>
		<stop  offset="0.1403" style="stop-color:#B58723"/>
		<stop  offset="0.6838" style="stop-color:#C9962E"/>
		<stop  offset="1" style="stop-color:#D29D33"/>
	</linearGradient>
	<path fill="url(#SVGID_4_)" d="M100.067,38.293c-23.949,0-43.373,19.416-43.373,43.372c0,23.95,19.424,43.373,43.373,43.373
		c23.955,0,43.372-19.423,43.372-43.373C143.439,57.709,124.021,38.293,100.067,38.293z M100.067,122.384
		c-22.488,0-40.719-18.232-40.719-40.719c0-22.493,18.231-40.725,40.719-40.725c22.493,0,40.726,18.232,40.726,40.725
		C140.792,104.152,122.56,122.384,100.067,122.384z"/>
</g>
<g>
	<path fill="#E5C63F" d="M95.798,136.331c-0.082,0-0.164-0.005-0.247-0.014l0.244-2.76l-0.26,2.76
		c-1.514-0.125-2.664-1.446-2.555-2.962c0.108-1.516,1.397-2.666,2.914-2.57c0.025,0.001,0.119,0.01,0.145,0.01
		c1.524,0.136,2.652,1.481,2.517,3.007C98.428,135.244,97.218,136.331,95.798,136.331z M112.767,134.944
		c-1.207,0-2.306-0.803-2.651-2.027c-0.414-1.474,0.465-3.011,1.94-3.424c0.033-0.01,0.131-0.035,0.164-0.043
		c1.491-0.357,2.987,0.555,3.348,2.042c0.361,1.487-0.554,2.985-2.042,3.347l-0.653-2.694l0.643,2.697
		C113.264,134.913,113.013,134.944,112.767,134.944z M79.175,132.143c-0.382,0-0.77-0.079-1.14-0.249l1.141-2.524l-1.155,2.521
		c-1.388-0.618-2.038-2.247-1.435-3.64c0.603-1.396,2.2-2.052,3.6-1.465c0.022,0.009,0.109,0.048,0.131,0.058
		c1.396,0.629,2.015,2.271,1.386,3.668C81.239,131.537,80.23,132.143,79.175,132.143z M128.506,128.059
		c-0.904,0.002-1.79-0.441-2.322-1.251c-0.839-1.282-0.48-3,0.799-3.84c0.007-0.003,0.072-0.045,0.078-0.049
		c1.288-0.828,3.003-0.455,3.832,0.832c0.827,1.288,0.454,3.003-0.833,3.831l-1.5-2.332l1.461,2.355
		C129.553,127.914,129.027,128.059,128.506,128.059z M64.795,122.755c-0.657,0-1.314-0.237-1.841-0.722l-0.051-0.046
		c-1.127-1.036-1.2-2.791-0.163-3.918c1.035-1.126,2.79-1.197,3.916-0.161c1.126,1.035,1.225,2.813,0.188,3.939
		C66.293,122.448,65.545,122.755,64.795,122.755z M141.119,116.464c-0.589,0-1.185-0.187-1.687-0.574
		c-1.214-0.935-1.441-2.673-0.508-3.887c0.003-0.003,0.049-0.063,0.051-0.067c0.939-1.207,2.68-1.427,3.891-0.484
		c1.208,0.939,1.425,2.681,0.485,3.889l-2.188-1.701l2.153,1.743C142.773,116.094,141.95,116.464,141.119,116.464z M54.291,109.258
		c-0.992,0-1.949-0.533-2.449-1.468l2.446-1.305l-2.46,1.278c-0.733-1.342-0.245-3.029,1.096-3.764
		c1.338-0.734,3.021-0.252,3.758,1.086c0.007,0.012,0.045,0.083,0.051,0.095c0.721,1.351,0.21,3.03-1.141,3.75
		C55.177,109.153,54.731,109.258,54.291,109.258z M149.306,101.408c-0.299,0-0.602-0.047-0.901-0.148
		c-1.447-0.5-2.218-2.076-1.721-3.523c0.499-1.447,2.088-2.25,3.534-1.753c1.447,0.498,2.23,2.043,1.731,3.491l-0.022,0.065
		C151.532,100.687,150.458,101.408,149.306,101.408z M48.716,93.067c-1.316,0-2.487-0.946-2.73-2.287
		c-0.006-0.031-0.023-0.129-0.027-0.161c-0.223-1.516,0.824-2.923,2.339-3.146c1.519-0.224,2.923,0.825,3.145,2.339
		c0.275,1.505-0.726,2.937-2.233,3.211C49.044,93.054,48.879,93.067,48.716,93.067z M152.136,84.505
		c-1.532,0-2.771-1.242-2.771-2.773c0-0.013,0-0.025,0-0.039c-0.002-0.024-0.002-0.048-0.002-0.074c0-1.53,1.241-2.806,2.773-2.806
		c1.529,0,2.771,1.206,2.771,2.738v0.05c0,0.02,0,0.04,0,0.061v0.068C154.907,83.263,153.667,84.505,152.136,84.505z M48.696,75.904
		c-0.143,0-0.288-0.011-0.433-0.034c-1.504-0.239-2.537-1.632-2.309-3.138c0.002-0.012,0.008-0.057,0.01-0.068
		c0.249-1.5,1.669-2.537,3.166-2.305c1.503,0.235,2.539,1.619,2.317,3.124c-0.002,0.016-0.011,0.069-0.014,0.085
		C51.21,74.927,50.031,75.904,48.696,75.904z M149.317,67.492c-1.152,0-2.226-0.722-2.622-1.871
		c-0.497-1.448,0.263-3.058,1.709-3.557c1.447-0.497,3.013,0.241,3.513,1.689l0.021,0.064c0.497,1.448-0.272,3.025-1.721,3.523
		C149.918,67.444,149.614,67.492,149.317,67.492z M54.232,59.667c-0.44,0-0.885-0.105-1.298-0.329
		c-1.339-0.727-1.857-2.367-1.14-3.711c0.006-0.012,0.044-0.083,0.051-0.095c0.739-1.34,2.425-1.829,3.766-1.088
		c1.34,0.739,1.828,2.425,1.087,3.767C56.191,59.134,55.224,59.667,54.232,59.667z M141.142,52.431
		c-0.831,0-1.652-0.371-2.199-1.083c-0.931-1.21-0.728-2.974,0.481-3.909c1.208-0.934,2.923-0.743,3.862,0.464
		c0.005,0.004,0.049,0.063,0.052,0.067c0.933,1.213,0.706,2.953-0.507,3.886C142.326,52.244,141.733,52.431,141.142,52.431z
		 M64.758,46.173c-0.748,0-1.494-0.301-2.04-0.896c-1.037-1.126-0.963-2.881,0.163-3.916l1.877,2.04l-1.861-2.055
		c1.113-1.04,2.867-0.996,3.915,0.112c1.047,1.106,1.014,2.842-0.086,3.896c-0.013,0.014-0.077,0.074-0.091,0.086
		C66.102,45.93,65.429,46.173,64.758,46.173z M128.535,40.831c-0.502,0-1.011-0.137-1.468-0.419
		c-0.02-0.012-0.077-0.048-0.095-0.062c-1.276-0.836-1.646-2.554-0.815-3.834c0.831-1.277,2.527-1.654,3.813-0.829
		c0.008,0.006,0.036,0.024,0.043,0.028c1.301,0.807,1.689,2.509,0.882,3.811C130.371,40.368,129.464,40.831,128.535,40.831z
		 M79.129,36.748c-1.07,0-2.096-0.607-2.552-1.639c-0.616-1.394-0.025-3.007,1.362-3.634c0.013-0.006,0.088-0.039,0.101-0.045
		c1.405-0.608,3.037,0.036,3.646,1.442c0.608,1.404-0.037,3.037-1.441,3.645C79.883,36.673,79.503,36.748,79.129,36.748z
		 M112.835,33.946c-0.247,0-0.501-0.033-0.752-0.104c-1.487-0.361-2.386-1.854-2.025-3.341c0.361-1.489,1.88-2.398,3.364-2.038
		c0.032,0.008,0.131,0.034,0.164,0.043c1.473,0.414,2.332,1.945,1.918,3.419C115.159,33.147,114.047,33.946,112.835,33.946z
		 M95.676,32.551c-1.421,0-2.627-1.088-2.754-2.529c-0.135-1.524,0.997-2.87,2.521-3.005c0.025-0.001,0.119-0.009,0.144-0.011
		c1.53-0.108,2.842,1.072,2.935,2.599c0.093,1.529-1.07,2.842-2.599,2.934C95.84,32.547,95.758,32.551,95.676,32.551z"/>
</g>
<g>
	<linearGradient id="SVGID_5_" gradientUnits="userSpaceOnUse" x1="31.7422" y1="25.1226" x2="31.7422" y2="-15.9736">
		<stop  offset="0" style="stop-color:#AF8221"/>
		<stop  offset="0.1403" style="stop-color:#B58723"/>
		<stop  offset="0.6838" style="stop-color:#C9962E"/>
		<stop  offset="1" style="stop-color:#D29D33"/>
	</linearGradient>
	<path fill="url(#SVGID_5_)" d="M27.051,45.485l0.115-2.589l0.112-0.205l7.098,3.865c0.471,0.255,0.775,0.396,0.912,0.42
		c0.137,0.023,0.27-0.01,0.4-0.101c0.129-0.089,0.302-0.322,0.517-0.698l0.229,0.125l-1.721,3.162l-0.229-0.125
		c0.208-0.401,0.313-0.676,0.316-0.825c0.003-0.149-0.034-0.273-0.11-0.373c-0.076-0.101-0.367-0.289-0.871-0.563l-4.538-2.469
		c-0.612-0.333-1.016-0.526-1.211-0.58c-0.148-0.043-0.274-0.043-0.378-0.001c-0.104,0.043-0.185,0.118-0.243,0.225
		c-0.083,0.153-0.135,0.401-0.155,0.743L27.051,45.485z"/>
	<linearGradient id="SVGID_6_" gradientUnits="userSpaceOnUse" x1="36.3301" y1="25.1226" x2="36.3301" y2="-15.9735">
		<stop  offset="0" style="stop-color:#AF8221"/>
		<stop  offset="0.1403" style="stop-color:#B58723"/>
		<stop  offset="0.6838" style="stop-color:#C9962E"/>
		<stop  offset="1" style="stop-color:#D29D33"/>
	</linearGradient>
	<path fill="url(#SVGID_6_)" d="M34.858,41.58l2.065-3.008l0.879,0.604l-2.066,3.007L34.858,41.58z"/>
	<linearGradient id="SVGID_7_" gradientUnits="userSpaceOnUse" x1="39.2793" y1="25.1221" x2="39.2793" y2="-15.9764">
		<stop  offset="0" style="stop-color:#AF8221"/>
		<stop  offset="0.1403" style="stop-color:#B58723"/>
		<stop  offset="0.6838" style="stop-color:#C9962E"/>
		<stop  offset="1" style="stop-color:#D29D33"/>
	</linearGradient>
	<path fill="url(#SVGID_7_)" d="M37.695,28.198l2.151-2.553l0.199,0.168l-0.118,0.14c-0.079,0.095-0.152,0.266-0.221,0.516
		c-0.069,0.25-0.088,0.514-0.058,0.792s0.129,0.672,0.297,1.182l1.292,4.107l1.835,1.545c0.45,0.379,0.773,0.566,0.97,0.559
		c0.266-0.009,0.524-0.162,0.772-0.457l0.2-0.237l0.2,0.168l-2.62,3.109l-0.2-0.169l0.218-0.258c0.261-0.31,0.353-0.608,0.274-0.896
		c-0.049-0.176-0.278-0.437-0.688-0.782l-1.732-1.46l-4.758-0.575c-0.56-0.066-0.921-0.095-1.082-0.086
		c-0.162,0.009-0.417,0.094-0.768,0.253c-0.097,0.042-0.203,0.131-0.318,0.268l-0.2-0.168l2.638-3.131l0.2,0.168l-0.137,0.162
		c-0.142,0.168-0.233,0.358-0.274,0.566c-0.041,0.209,0.018,0.38,0.177,0.514c0.129,0.11,0.456,0.197,0.979,0.262l3.646,0.46
		l-1.047-3.337c-0.157-0.501-0.317-0.822-0.483-0.961c-0.101-0.085-0.213-0.134-0.336-0.149c-0.123-0.015-0.249,0.008-0.375,0.067
		s-0.272,0.186-0.436,0.38L37.695,28.198z"/>
	<linearGradient id="SVGID_8_" gradientUnits="userSpaceOnUse" x1="47.4839" y1="25.1221" x2="47.4839" y2="-15.9758">
		<stop  offset="0" style="stop-color:#AF8221"/>
		<stop  offset="0.1403" style="stop-color:#B58723"/>
		<stop  offset="0.6838" style="stop-color:#C9962E"/>
		<stop  offset="1" style="stop-color:#D29D33"/>
	</linearGradient>
	<path fill="url(#SVGID_8_)" d="M43.92,22.551l2.526,2.816l1.566-1.404c0.406-0.364,0.623-0.668,0.649-0.914
		c0.038-0.325-0.115-0.7-0.458-1.125l0.194-0.174l2.225,2.48l-0.195,0.174c-0.36-0.303-0.608-0.481-0.745-0.535
		c-0.173-0.066-0.363-0.07-0.569-0.011c-0.206,0.058-0.458,0.221-0.756,0.488l-1.565,1.404l2.106,2.349
		c0.283,0.315,0.469,0.495,0.558,0.538c0.09,0.043,0.187,0.053,0.293,0.031c0.106-0.023,0.258-0.122,0.454-0.298l1.208-1.083
		c0.403-0.361,0.67-0.652,0.802-0.872s0.208-0.486,0.229-0.802c0.022-0.412-0.049-0.939-0.214-1.582l0.21-0.188l0.988,2.337
		l-5.491,4.925l-0.174-0.194l0.252-0.227c0.168-0.151,0.292-0.334,0.37-0.55c0.062-0.157,0.063-0.309,0.002-0.457
		c-0.06-0.148-0.246-0.396-0.557-0.743l-4.152-4.629c-0.405-0.452-0.701-0.689-0.886-0.713c-0.251-0.027-0.524,0.092-0.819,0.355
		l-0.252,0.227l-0.174-0.195l5.491-4.926l1.479,1.491l-0.205,0.184c-0.41-0.309-0.722-0.494-0.938-0.554
		c-0.214-0.06-0.443-0.048-0.684,0.035c-0.188,0.073-0.458,0.269-0.812,0.585L43.92,22.551z"/>
	<linearGradient id="SVGID_9_" gradientUnits="userSpaceOnUse" x1="58.3223" y1="25.1226" x2="58.3223" y2="-15.9753">
		<stop  offset="0" style="stop-color:#AF8221"/>
		<stop  offset="0.1403" style="stop-color:#B58723"/>
		<stop  offset="0.6838" style="stop-color:#C9962E"/>
		<stop  offset="1" style="stop-color:#D29D33"/>
	</linearGradient>
	<path fill="url(#SVGID_9_)" d="M58.39,18.683l-3.077,2.064l0.302,1.617c0.075,0.397,0.163,0.672,0.266,0.825
		c0.081,0.121,0.21,0.189,0.387,0.204c0.177,0.015,0.466-0.093,0.867-0.323l0.146,0.217l-2.502,1.679l-0.146-0.217
		c0.292-0.281,0.457-0.502,0.491-0.661c0.073-0.321,0.038-0.851-0.104-1.588l-1.592-8.417l0.205-0.137l7.202,4.756
		c0.58,0.382,1.013,0.591,1.3,0.627c0.289,0.037,0.601-0.044,0.938-0.242l0.146,0.217l-3.136,2.104l-0.146-0.217
		c0.306-0.227,0.484-0.424,0.536-0.589c0.051-0.164,0.034-0.312-0.053-0.44c-0.116-0.171-0.376-0.392-0.781-0.658L58.39,18.683z
		 M57.935,18.359l-3.503-2.308l0.771,4.14L57.935,18.359z"/>
	<linearGradient id="SVGID_10_" gradientUnits="userSpaceOnUse" x1="66.2949" y1="25.1226" x2="66.2949" y2="-15.9766">
		<stop  offset="0" style="stop-color:#AF8221"/>
		<stop  offset="0.1403" style="stop-color:#B58723"/>
		<stop  offset="0.6838" style="stop-color:#C9962E"/>
		<stop  offset="1" style="stop-color:#D29D33"/>
	</linearGradient>
	<path fill="url(#SVGID_10_)" d="M72.654,14.758l-2.305,1.102l-4.853-2.641c-0.212,0.112-0.386,0.201-0.522,0.265
		c-0.055,0.027-0.115,0.053-0.18,0.082c-0.064,0.028-0.132,0.057-0.202,0.085l1.199,2.51c0.26,0.544,0.48,0.853,0.663,0.927
		c0.25,0.11,0.537,0.087,0.859-0.067l0.338-0.161l0.112,0.235l-3.7,1.769l-0.113-0.236l0.325-0.155
		c0.365-0.174,0.569-0.418,0.613-0.731c0.026-0.174-0.078-0.507-0.313-1l-2.666-5.579c-0.259-0.543-0.48-0.853-0.662-0.927
		c-0.255-0.108-0.546-0.083-0.873,0.072l-0.325,0.156l-0.112-0.236l3.146-1.502C64,8.286,64.708,8.029,65.207,7.955
		c0.499-0.074,0.986-0.004,1.461,0.209c0.475,0.213,0.832,0.568,1.069,1.065c0.254,0.532,0.3,1.074,0.141,1.631
		c-0.16,0.557-0.564,1.088-1.212,1.597l2.967,1.625c0.679,0.374,1.21,0.584,1.593,0.631c0.382,0.047,0.821-0.017,1.316-0.19
		L72.654,14.758z M64.4,13.249c0.081-0.039,0.151-0.07,0.212-0.097c0.06-0.027,0.109-0.049,0.147-0.067
		c0.824-0.394,1.359-0.869,1.607-1.425c0.248-0.557,0.24-1.112-0.023-1.663c-0.258-0.539-0.636-0.897-1.135-1.073
		c-0.499-0.177-1.026-0.132-1.582,0.134c-0.247,0.118-0.56,0.317-0.942,0.599L64.4,13.249z"/>
	<linearGradient id="SVGID_11_" gradientUnits="userSpaceOnUse" x1="82.207" y1="25.1226" x2="82.207" y2="-15.9757">
		<stop  offset="0" style="stop-color:#AF8221"/>
		<stop  offset="0.1403" style="stop-color:#B58723"/>
		<stop  offset="0.6838" style="stop-color:#C9962E"/>
		<stop  offset="1" style="stop-color:#D29D33"/>
	</linearGradient>
	<path fill="url(#SVGID_11_)" d="M82.815,11.722l-5.415-7.016l1.438,6.231c0.132,0.573,0.277,0.917,0.433,1.03
		c0.214,0.154,0.504,0.188,0.872,0.104l0.33-0.076l0.059,0.254l-3.247,0.749l-0.059-0.254l0.33-0.076
		c0.395-0.091,0.646-0.275,0.757-0.551c0.066-0.171,0.04-0.517-0.081-1.04l-1.406-6.094c-0.096-0.413-0.21-0.7-0.344-0.863
		c-0.095-0.117-0.238-0.202-0.431-0.251c-0.192-0.051-0.479-0.031-0.859,0.056l-0.059-0.254l2.641-0.609l5.067,6.516l1.646-8.064
		l2.641-0.609l0.059,0.254l-0.323,0.074c-0.399,0.092-0.654,0.276-0.764,0.553c-0.067,0.17-0.041,0.517,0.08,1.039l1.406,6.094
		c0.132,0.574,0.279,0.916,0.44,1.028c0.214,0.154,0.504,0.188,0.872,0.104l0.323-0.075l0.059,0.255l-3.961,0.914L85.26,10.89
		l0.33-0.076c0.399-0.092,0.651-0.276,0.756-0.552c0.067-0.169,0.041-0.516-0.081-1.039l-1.438-6.231l-1.787,8.677L82.815,11.722z"
		/>
	<linearGradient id="SVGID_12_" gradientUnits="userSpaceOnUse" x1="94.9595" y1="25.1221" x2="94.9595" y2="-15.9749">
		<stop  offset="0" style="stop-color:#AF8221"/>
		<stop  offset="0.1403" style="stop-color:#B58723"/>
		<stop  offset="0.6838" style="stop-color:#C9962E"/>
		<stop  offset="1" style="stop-color:#D29D33"/>
	</linearGradient>
	<path fill="url(#SVGID_12_)" d="M94.744,0.092c1.24-0.076,2.343,0.328,3.31,1.213c0.968,0.885,1.495,2.033,1.583,3.441
		c0.089,1.451-0.294,2.685-1.15,3.699c-0.857,1.015-1.936,1.562-3.236,1.644c-1.315,0.081-2.449-0.318-3.402-1.198
		c-0.953-0.878-1.475-2.06-1.567-3.544c-0.094-1.517,0.346-2.787,1.32-3.81C92.447,0.652,93.495,0.17,94.744,0.092z M94.642,0.615
		c-0.855,0.053-1.521,0.413-1.998,1.078c-0.595,0.829-0.845,2.004-0.75,3.526c0.096,1.56,0.504,2.738,1.223,3.537
		c0.552,0.608,1.248,0.886,2.089,0.833c0.896-0.056,1.615-0.452,2.157-1.188c0.542-0.735,0.766-1.858,0.672-3.365
		c-0.101-1.635-0.499-2.834-1.191-3.598C96.287,0.833,95.553,0.559,94.642,0.615z"/>
	<linearGradient id="SVGID_13_" gradientUnits="userSpaceOnUse" x1="106.7051" y1="25.1226" x2="106.7051" y2="-15.9756">
		<stop  offset="0" style="stop-color:#AF8221"/>
		<stop  offset="0.1403" style="stop-color:#B58723"/>
		<stop  offset="0.6838" style="stop-color:#C9962E"/>
		<stop  offset="1" style="stop-color:#D29D33"/>
	</linearGradient>
	<path fill="url(#SVGID_13_)" d="M101.668,0l2.588,0.228l5.199,7.665l0.484-5.498c0.051-0.585,0.019-0.958-0.099-1.115
		c-0.157-0.211-0.422-0.334-0.797-0.368l-0.331-0.029l0.022-0.26l3.32,0.293l-0.023,0.26l-0.338-0.03
		c-0.403-0.036-0.699,0.061-0.89,0.29c-0.116,0.141-0.198,0.479-0.245,1.013l-0.708,8.037l-0.252-0.022l-5.61-8.232l-0.517,5.871
		c-0.052,0.587-0.021,0.957,0.093,1.113c0.161,0.214,0.426,0.335,0.797,0.368l0.337,0.03l-0.024,0.26l-3.318-0.292l0.022-0.26
		l0.332,0.029c0.407,0.036,0.706-0.061,0.896-0.29c0.117-0.141,0.198-0.479,0.245-1.013l0.584-6.63
		c-0.248-0.348-0.438-0.58-0.572-0.695c-0.134-0.116-0.336-0.23-0.604-0.345c-0.132-0.054-0.336-0.093-0.613-0.117L101.668,0z"/>
	<linearGradient id="SVGID_14_" gradientUnits="userSpaceOnUse" x1="116.8975" y1="25.1216" x2="116.8975" y2="-15.9753">
		<stop  offset="0" style="stop-color:#AF8221"/>
		<stop  offset="0.1403" style="stop-color:#B58723"/>
		<stop  offset="0.6838" style="stop-color:#C9962E"/>
		<stop  offset="1" style="stop-color:#D29D33"/>
	</linearGradient>
	<path fill="url(#SVGID_14_)" d="M116.921,2.472l-0.853,3.685l2.049,0.475c0.532,0.124,0.905,0.125,1.121,0.006
		c0.288-0.155,0.507-0.496,0.658-1.021l0.254,0.059l-0.752,3.246l-0.254-0.059c0.04-0.469,0.043-0.774,0.009-0.918
		c-0.044-0.18-0.151-0.336-0.318-0.472c-0.167-0.135-0.444-0.247-0.834-0.338l-2.049-0.475l-0.712,3.074
		c-0.096,0.413-0.135,0.667-0.12,0.766c0.017,0.098,0.064,0.184,0.144,0.258c0.08,0.075,0.248,0.141,0.504,0.2l1.581,0.366
		c0.528,0.122,0.918,0.174,1.174,0.156c0.255-0.018,0.519-0.11,0.788-0.274c0.35-0.218,0.741-0.58,1.171-1.084l0.275,0.064
		l-1.345,2.151l-7.187-1.664l0.06-0.254l0.33,0.076c0.22,0.051,0.441,0.046,0.663-0.013c0.164-0.04,0.288-0.127,0.375-0.261
		c0.087-0.135,0.183-0.429,0.288-0.883l1.403-6.058c0.137-0.591,0.162-0.97,0.074-1.135c-0.122-0.221-0.376-0.376-0.761-0.466
		l-0.33-0.077l0.059-0.254l7.185,1.665l-0.37,2.067l-0.268-0.063c0.017-0.513-0.012-0.874-0.086-1.084
		c-0.074-0.211-0.215-0.391-0.422-0.541c-0.168-0.11-0.483-0.22-0.945-0.328L116.921,2.472z"/>
	<linearGradient id="SVGID_15_" gradientUnits="userSpaceOnUse" x1="129.0459" y1="25.1221" x2="129.0459" y2="-15.9747">
		<stop  offset="0" style="stop-color:#AF8221"/>
		<stop  offset="0.1403" style="stop-color:#B58723"/>
		<stop  offset="0.6838" style="stop-color:#C9962E"/>
		<stop  offset="1" style="stop-color:#D29D33"/>
	</linearGradient>
	<path fill="url(#SVGID_15_)" d="M130.962,6.256l3.115,1.202l-0.094,0.244l-0.171-0.066c-0.114-0.043-0.3-0.058-0.559-0.042
		c-0.26,0.017-0.515,0.085-0.768,0.204c-0.252,0.12-0.592,0.342-1.02,0.666l-3.462,2.562l-0.863,2.239
		c-0.211,0.549-0.282,0.915-0.211,1.099c0.096,0.248,0.323,0.442,0.683,0.581l0.29,0.112l-0.094,0.244l-3.793-1.462l0.093-0.244
		l0.317,0.122c0.377,0.146,0.689,0.134,0.935-0.033c0.151-0.104,0.323-0.405,0.515-0.906l0.816-2.114l-1.008-4.686
		c-0.121-0.551-0.211-0.901-0.272-1.05c-0.061-0.15-0.224-0.364-0.49-0.644c-0.07-0.077-0.189-0.149-0.356-0.212l0.094-0.244
		l3.82,1.472l-0.094,0.244l-0.198-0.076c-0.207-0.08-0.415-0.104-0.625-0.076c-0.211,0.03-0.354,0.143-0.428,0.335
		c-0.061,0.158-0.038,0.496,0.072,1.011l0.754,3.596l2.813-2.077c0.422-0.311,0.673-0.568,0.75-0.77
		c0.048-0.123,0.058-0.245,0.031-0.365c-0.026-0.122-0.087-0.232-0.185-0.333c-0.097-0.101-0.264-0.196-0.501-0.289L130.962,6.256z"
		/>
	<linearGradient id="SVGID_16_" gradientUnits="userSpaceOnUse" x1="140.4009" y1="25.1221" x2="140.4009" y2="-15.9755">
		<stop  offset="0" style="stop-color:#AF8221"/>
		<stop  offset="0.1403" style="stop-color:#B58723"/>
		<stop  offset="0.6838" style="stop-color:#C9962E"/>
		<stop  offset="1" style="stop-color:#D29D33"/>
	</linearGradient>
	<path fill="url(#SVGID_16_)" d="M142.951,17.9c0.486,0.475,0.785,0.931,0.896,1.369c0.154,0.61,0.064,1.179-0.27,1.708
		c-0.255,0.402-0.625,0.706-1.112,0.913c-0.487,0.207-1.006,0.255-1.557,0.144s-1.28-0.456-2.191-1.032l-3.817-2.415l0.14-0.221
		l0.305,0.192c0.337,0.214,0.647,0.259,0.931,0.138c0.18-0.082,0.412-0.349,0.699-0.802l3.307-5.226
		c0.317-0.5,0.459-0.854,0.427-1.058c-0.044-0.273-0.22-0.506-0.525-0.7l-0.305-0.192l0.141-0.221l3.494,2.211
		c0.652,0.413,1.146,0.792,1.479,1.135c0.506,0.522,0.801,1.063,0.885,1.625c0.084,0.563-0.023,1.081-0.323,1.555
		c-0.257,0.405-0.609,0.69-1.059,0.854C144.044,18.043,143.531,18.05,142.951,17.9z M137.583,19.466
		c0.394,0.4,0.815,0.742,1.265,1.025c0.719,0.455,1.371,0.641,1.954,0.556c0.582-0.086,1.024-0.367,1.327-0.844
		c0.198-0.313,0.304-0.67,0.316-1.068c0.014-0.399-0.12-0.804-0.4-1.214c-0.28-0.412-0.705-0.796-1.273-1.157
		c-0.246-0.156-0.46-0.285-0.64-0.389c-0.18-0.103-0.33-0.177-0.45-0.226L137.583,19.466z M140.03,15.602
		c0.129,0.12,0.283,0.248,0.465,0.381c0.179,0.134,0.383,0.272,0.609,0.416c0.581,0.367,1.057,0.581,1.428,0.641
		c0.372,0.059,0.717,0.009,1.036-0.151c0.318-0.161,0.575-0.394,0.768-0.7c0.3-0.473,0.362-0.999,0.188-1.577
		c-0.174-0.578-0.632-1.101-1.37-1.569c-0.398-0.251-0.783-0.434-1.157-0.547L140.03,15.602z"/>
	<linearGradient id="SVGID_17_" gradientUnits="userSpaceOnUse" x1="148.5435" y1="25.1221" x2="148.5435" y2="-15.9738">
		<stop  offset="0" style="stop-color:#AF8221"/>
		<stop  offset="0.1403" style="stop-color:#B58723"/>
		<stop  offset="0.6838" style="stop-color:#C9962E"/>
		<stop  offset="1" style="stop-color:#D29D33"/>
	</linearGradient>
	<path fill="url(#SVGID_17_)" d="M150.414,25.775l-2.816-2.408l-1.476,0.727c-0.362,0.179-0.604,0.338-0.723,0.477
		c-0.094,0.11-0.125,0.253-0.091,0.428c0.032,0.175,0.214,0.424,0.544,0.748l-0.17,0.199l-2.291-1.958l0.169-0.199
		c0.351,0.207,0.606,0.305,0.77,0.296c0.329-0.017,0.829-0.192,1.501-0.529l7.676-3.799l0.188,0.16l-2.641,8.217
		c-0.211,0.661-0.296,1.135-0.253,1.423c0.042,0.287,0.204,0.565,0.486,0.838l-0.17,0.198l-2.871-2.454l0.169-0.198
		c0.304,0.234,0.54,0.353,0.712,0.357c0.173,0.005,0.309-0.051,0.409-0.169c0.136-0.157,0.276-0.467,0.424-0.929L150.414,25.775z
		 M150.604,25.25l1.279-3.995l-3.78,1.858L150.604,25.25z"/>
	<linearGradient id="SVGID_18_" gradientUnits="userSpaceOnUse" x1="159.1567" y1="25.1226" x2="159.1567" y2="-15.9741">
		<stop  offset="0" style="stop-color:#AF8221"/>
		<stop  offset="0.1403" style="stop-color:#B58723"/>
		<stop  offset="0.6838" style="stop-color:#C9962E"/>
		<stop  offset="1" style="stop-color:#D29D33"/>
	</linearGradient>
	<path fill="url(#SVGID_18_)" d="M164.685,31.183l-2.305,2.307l-0.146-0.165c0.542-0.86,0.796-1.635,0.762-2.325
		s-0.301-1.319-0.799-1.89c-0.418-0.478-0.918-0.804-1.498-0.978s-1.233-0.14-1.959,0.104c-0.725,0.244-1.481,0.711-2.271,1.401
		c-0.651,0.57-1.125,1.169-1.421,1.796c-0.295,0.627-0.387,1.262-0.274,1.905c0.112,0.643,0.403,1.233,0.875,1.771
		c0.408,0.468,0.87,0.793,1.383,0.976s1.255,0.228,2.225,0.136l0.037,0.258c-0.957,0.2-1.795,0.188-2.514-0.034
		c-0.719-0.221-1.368-0.663-1.947-1.326c-1.044-1.193-1.41-2.504-1.098-3.935c0.23-1.065,0.793-1.988,1.687-2.769
		c0.718-0.629,1.52-1.046,2.404-1.25c0.884-0.205,1.738-0.169,2.563,0.105c0.825,0.276,1.53,0.748,2.116,1.417
		c0.456,0.52,0.777,1.146,0.966,1.875c0.052,0.216,0.105,0.356,0.162,0.42c0.083,0.095,0.189,0.15,0.319,0.162
		c0.176,0.008,0.365-0.043,0.569-0.153L164.685,31.183z"/>
	<linearGradient id="SVGID_19_" gradientUnits="userSpaceOnUse" x1="164.895" y1="25.1221" x2="164.895" y2="-15.9754">
		<stop  offset="0" style="stop-color:#AF8221"/>
		<stop  offset="0.1403" style="stop-color:#B58723"/>
		<stop  offset="0.6838" style="stop-color:#C9962E"/>
		<stop  offset="1" style="stop-color:#D29D33"/>
	</linearGradient>
	<path fill="url(#SVGID_19_)" d="M165.089,39.506l-1.036,4.868c-0.172,0.8-0.235,1.429-0.19,1.886
		c0.047,0.458,0.17,0.866,0.367,1.226l-0.219,0.141l-2.469-3.826l0.221-0.142c0.147,0.23,0.292,0.37,0.435,0.421
		c0.142,0.051,0.26,0.046,0.354-0.015c0.096-0.061,0.168-0.135,0.219-0.221c0.052-0.086,0.112-0.301,0.183-0.643l0.956-4.547
		l-2.593,1.672c-0.407,0.263-0.659,0.462-0.756,0.598c-0.074,0.104-0.105,0.241-0.095,0.413c0.015,0.231,0.083,0.443,0.205,0.632
		l0.176,0.272l-0.218,0.142l-2.212-3.428l0.218-0.142l0.185,0.285c0.214,0.332,0.467,0.511,0.758,0.535
		c0.188,0.013,0.523-0.135,1.005-0.446l5.196-3.353c0.407-0.263,0.661-0.463,0.762-0.601c0.07-0.1,0.1-0.235,0.093-0.403
		c-0.017-0.235-0.087-0.449-0.21-0.638l-0.184-0.285l0.22-0.141l2.213,3.428l-0.221,0.141l-0.177-0.272
		c-0.119-0.186-0.28-0.337-0.484-0.451c-0.142-0.083-0.291-0.106-0.448-0.071c-0.158,0.033-0.435,0.178-0.829,0.434l-2.461,1.587
		c0.125,0.031,0.551,0.14,1.277,0.327c1.833,0.48,3.008,0.727,3.525,0.74c0.227,0.004,0.401-0.031,0.52-0.107
		c0.091-0.06,0.145-0.152,0.159-0.279c0.017-0.128-0.04-0.292-0.167-0.489l-0.119-0.184l0.22-0.141l1.904,2.954l-0.218,0.141
		c-0.116-0.171-0.242-0.313-0.378-0.428c-0.135-0.115-0.332-0.235-0.588-0.36c-0.258-0.125-0.621-0.249-1.093-0.372
		c-0.135-0.036-0.799-0.175-1.992-0.419L165.089,39.506z"/>
</g>
<g>
	<linearGradient id="SVGID_20_" gradientUnits="userSpaceOnUse" x1="53.4629" y1="148.4438" x2="64.0576" y2="148.4438">
		<stop  offset="0" style="stop-color:#AF8221"/>
		<stop  offset="0.1403" style="stop-color:#B58723"/>
		<stop  offset="0.6838" style="stop-color:#C9962E"/>
		<stop  offset="1" style="stop-color:#D29D33"/>
	</linearGradient>
	<path fill="url(#SVGID_20_)" d="M64.058,145.79l-1.41,2.684l-0.209-0.134c0.193-0.769,0.225-1.421,0.095-1.954
		c-0.186-0.77-0.656-1.395-1.411-1.874c-1.028-0.652-2.07-0.741-3.124-0.268c-0.885,0.402-1.629,1.077-2.231,2.027
		c-0.489,0.771-0.787,1.568-0.893,2.394c-0.105,0.824-0.01,1.539,0.284,2.141c0.295,0.603,0.697,1.065,1.206,1.388
		c0.298,0.189,0.609,0.334,0.936,0.435c0.326,0.102,0.665,0.161,1.017,0.177l1.483-2.336c0.256-0.404,0.395-0.689,0.412-0.854
		c0.018-0.164-0.017-0.32-0.104-0.467c-0.087-0.148-0.294-0.326-0.621-0.532l0.144-0.227l3.129,1.985l-0.143,0.227l-0.15-0.094
		c-0.31-0.198-0.588-0.229-0.834-0.096c-0.173,0.097-0.397,0.361-0.671,0.795l-1.57,2.474c-0.613-0.044-1.178-0.149-1.696-0.317
		c-0.519-0.167-1.05-0.423-1.595-0.768c-1.561-0.991-2.43-2.245-2.604-3.76c-0.132-1.137,0.114-2.196,0.737-3.178
		c0.451-0.711,1.054-1.285,1.809-1.719c0.898-0.517,1.833-0.761,2.804-0.729c0.812,0.031,1.62,0.302,2.426,0.813
		c0.295,0.188,0.547,0.381,0.757,0.581c0.21,0.201,0.483,0.521,0.822,0.965c0.169,0.225,0.292,0.361,0.367,0.408
		c0.076,0.048,0.163,0.054,0.26,0.019c0.097-0.034,0.217-0.15,0.357-0.345L64.058,145.79z"/>
	<linearGradient id="SVGID_21_" gradientUnits="userSpaceOnUse" x1="63.9907" y1="152.7817" x2="75.0117" y2="152.7817">
		<stop  offset="0" style="stop-color:#AF8221"/>
		<stop  offset="0.1403" style="stop-color:#B58723"/>
		<stop  offset="0.6838" style="stop-color:#C9962E"/>
		<stop  offset="1" style="stop-color:#D29D33"/>
	</linearGradient>
	<path fill="url(#SVGID_21_)" d="M71.81,150.045l0.106-0.239l3.096,1.376l-0.105,0.239l-0.33-0.146
		c-0.344-0.155-0.672-0.128-0.985,0.078c-0.149,0.094-0.333,0.382-0.548,0.869l-1.577,3.548c-0.39,0.876-0.779,1.519-1.169,1.924
		c-0.389,0.407-0.915,0.67-1.579,0.79c-0.664,0.119-1.433-0.016-2.312-0.405c-0.955-0.425-1.605-0.912-1.953-1.464
		c-0.347-0.55-0.5-1.151-0.457-1.802c0.032-0.443,0.282-1.192,0.75-2.246l1.52-3.419c0.239-0.536,0.322-0.923,0.248-1.156
		c-0.074-0.233-0.276-0.423-0.607-0.571l-0.329-0.146l0.105-0.238l3.781,1.68l-0.106,0.239l-0.335-0.149
		c-0.361-0.16-0.67-0.161-0.927-0.002c-0.175,0.107-0.374,0.405-0.591,0.896l-1.694,3.812c-0.151,0.34-0.293,0.742-0.426,1.208
		c-0.132,0.468-0.171,0.858-0.118,1.177c0.055,0.318,0.201,0.625,0.438,0.921c0.237,0.295,0.579,0.543,1.026,0.741
		c0.572,0.255,1.138,0.357,1.701,0.309c0.563-0.05,1.013-0.23,1.351-0.547c0.339-0.315,0.714-0.938,1.128-1.867l1.573-3.541
		c0.244-0.545,0.335-0.914,0.276-1.105c-0.083-0.264-0.292-0.47-0.622-0.616L71.81,150.045z"/>
	<linearGradient id="SVGID_22_" gradientUnits="userSpaceOnUse" x1="73.0693" y1="157.9146" x2="82.938" y2="157.9146">
		<stop  offset="0" style="stop-color:#AF8221"/>
		<stop  offset="0.1403" style="stop-color:#B58723"/>
		<stop  offset="0.6838" style="stop-color:#C9962E"/>
		<stop  offset="1" style="stop-color:#D29D33"/>
	</linearGradient>
	<path fill="url(#SVGID_22_)" d="M80.187,159.265l-3.572-0.983l-1.027,1.284c-0.252,0.314-0.403,0.562-0.453,0.738
		c-0.038,0.142-0.005,0.283,0.1,0.427c0.104,0.144,0.375,0.293,0.811,0.445l-0.07,0.253l-2.905-0.801l0.068-0.251
		c0.404,0.037,0.679,0.018,0.822-0.06c0.291-0.154,0.67-0.526,1.135-1.116l5.337-6.7l0.239,0.065l1.097,8.561
		c0.09,0.689,0.213,1.154,0.374,1.396c0.162,0.242,0.426,0.427,0.797,0.553l-0.069,0.253l-3.642-1.004l0.071-0.252
		c0.372,0.083,0.637,0.091,0.795,0.022c0.158-0.069,0.258-0.179,0.299-0.329c0.055-0.199,0.05-0.539-0.012-1.021L80.187,159.265z
		 M80.135,158.709l-0.538-4.16l-2.633,3.287L80.135,158.709z"/>
	<linearGradient id="SVGID_23_" gradientUnits="userSpaceOnUse" x1="85.0288" y1="159.561" x2="94.5098" y2="159.561">
		<stop  offset="0" style="stop-color:#AF8221"/>
		<stop  offset="0.1403" style="stop-color:#B58723"/>
		<stop  offset="0.6838" style="stop-color:#C9962E"/>
		<stop  offset="1" style="stop-color:#D29D33"/>
	</linearGradient>
	<path fill="url(#SVGID_23_)" d="M94.478,164.898l-2.536-0.315l-2.662-4.842c-0.24-0.021-0.435-0.04-0.584-0.058
		c-0.061-0.008-0.125-0.018-0.195-0.028c-0.07-0.012-0.143-0.023-0.216-0.038l-0.344,2.761c-0.075,0.598-0.055,0.977,0.057,1.138
		c0.153,0.228,0.406,0.363,0.76,0.407l0.372,0.046l-0.033,0.259l-4.069-0.507l0.032-0.258l0.357,0.044
		c0.401,0.05,0.705-0.045,0.91-0.285c0.117-0.132,0.208-0.47,0.276-1.011l0.763-6.137c0.075-0.598,0.056-0.977-0.057-1.137
		c-0.157-0.229-0.416-0.365-0.774-0.41l-0.357-0.045l0.033-0.259l3.46,0.432c1.008,0.125,1.743,0.291,2.203,0.498
		c0.46,0.206,0.833,0.528,1.118,0.964c0.284,0.437,0.393,0.928,0.325,1.475c-0.073,0.583-0.326,1.066-0.761,1.448
		c-0.434,0.382-1.062,0.612-1.882,0.689l1.623,2.969c0.37,0.683,0.703,1.146,1,1.392c0.296,0.246,0.7,0.429,1.211,0.55
		L94.478,164.898z M88.341,159.176c0.088,0.011,0.165,0.021,0.23,0.032c0.064,0.011,0.119,0.018,0.16,0.022
		c0.907,0.113,1.613,0.002,2.122-0.332c0.508-0.336,0.801-0.807,0.877-1.413c0.074-0.594-0.051-1.099-0.377-1.517
		c-0.325-0.417-0.792-0.664-1.405-0.739c-0.271-0.034-0.643-0.036-1.116-0.005L88.341,159.176z"/>
	<linearGradient id="SVGID_24_" gradientUnits="userSpaceOnUse" x1="96.2173" y1="160.0542" x2="106.3853" y2="160.0542">
		<stop  offset="0" style="stop-color:#AF8221"/>
		<stop  offset="0.1403" style="stop-color:#B58723"/>
		<stop  offset="0.6838" style="stop-color:#C9962E"/>
		<stop  offset="1" style="stop-color:#D29D33"/>
	</linearGradient>
	<path fill="url(#SVGID_24_)" d="M102.658,161.667l-3.705,0.073l-0.619,1.523c-0.152,0.374-0.227,0.653-0.224,0.838
		c0.003,0.146,0.074,0.271,0.216,0.38c0.141,0.107,0.442,0.174,0.903,0.197l0.005,0.261L96.223,165l-0.005-0.262
		c0.398-0.079,0.655-0.176,0.771-0.292c0.235-0.229,0.493-0.693,0.771-1.392l3.209-7.942l0.248-0.005l3.489,7.894
		c0.281,0.635,0.534,1.045,0.756,1.231s0.53,0.287,0.92,0.303l0.005,0.261l-3.777,0.076l-0.005-0.262
		c0.382-0.026,0.637-0.096,0.77-0.205c0.131-0.111,0.197-0.244,0.193-0.399c-0.004-0.207-0.105-0.532-0.302-0.976L102.658,161.667z
		 M102.45,161.148l-1.7-3.835l-1.589,3.9L102.45,161.148z"/>
	<linearGradient id="SVGID_25_" gradientUnits="userSpaceOnUse" x1="106.5615" y1="159.0181" x2="117.1333" y2="159.0181">
		<stop  offset="0" style="stop-color:#AF8221"/>
		<stop  offset="0.1403" style="stop-color:#B58723"/>
		<stop  offset="0.6838" style="stop-color:#C9962E"/>
		<stop  offset="1" style="stop-color:#D29D33"/>
	</linearGradient>
	<path fill="url(#SVGID_25_)" d="M106.562,155.217l2.56-0.435l6.972,6.097l-0.925-5.441c-0.099-0.58-0.225-0.931-0.38-1.053
		c-0.205-0.166-0.492-0.217-0.863-0.154l-0.326,0.056l-0.045-0.258l3.284-0.558l0.044,0.257l-0.334,0.058
		c-0.399,0.067-0.662,0.236-0.788,0.506c-0.077,0.165-0.07,0.513,0.02,1.042l1.352,7.953l-0.25,0.043l-7.513-6.541l0.988,5.811
		c0.098,0.579,0.223,0.932,0.373,1.053c0.209,0.165,0.497,0.218,0.863,0.155l0.334-0.058l0.044,0.258l-3.285,0.558l-0.043-0.258
		l0.327-0.055c0.404-0.069,0.668-0.237,0.794-0.508c0.077-0.165,0.07-0.513-0.02-1.042l-1.116-6.563
		c-0.327-0.273-0.571-0.448-0.729-0.526c-0.159-0.078-0.383-0.138-0.672-0.179c-0.141-0.02-0.349-0.006-0.623,0.041L106.562,155.217
		z"/>
	<linearGradient id="SVGID_26_" gradientUnits="userSpaceOnUse" x1="117.9424" y1="156.2349" x2="126.4482" y2="156.2349">
		<stop  offset="0" style="stop-color:#AF8221"/>
		<stop  offset="0.1403" style="stop-color:#B58723"/>
		<stop  offset="0.6838" style="stop-color:#C9962E"/>
		<stop  offset="1" style="stop-color:#D29D33"/>
	</linearGradient>
	<path fill="url(#SVGID_26_)" d="M125.394,150.773l0.776,2.108l-0.255,0.081c-0.169-0.361-0.321-0.609-0.457-0.743
		c-0.222-0.217-0.467-0.351-0.738-0.401c-0.27-0.051-0.592-0.017-0.97,0.103l-1.286,0.405l2.199,6.974
		c0.178,0.563,0.349,0.893,0.514,0.993c0.23,0.135,0.522,0.146,0.876,0.034l0.316-0.1l0.078,0.25l-3.87,1.221l-0.079-0.249
		l0.323-0.103c0.386-0.122,0.623-0.324,0.71-0.609c0.053-0.174-0.001-0.518-0.162-1.029l-2.199-6.974l-1.098,0.346
		c-0.426,0.135-0.719,0.262-0.879,0.381c-0.207,0.16-0.354,0.386-0.444,0.681s-0.085,0.653,0.014,1.076l-0.256,0.081l-0.567-2.175
		L125.394,150.773z"/>
	<linearGradient id="SVGID_27_" gradientUnits="userSpaceOnUse" x1="126.5283" y1="153.145" x2="137.2378" y2="153.145">
		<stop  offset="0" style="stop-color:#AF8221"/>
		<stop  offset="0.1403" style="stop-color:#B58723"/>
		<stop  offset="0.6838" style="stop-color:#C9962E"/>
		<stop  offset="1" style="stop-color:#D29D33"/>
	</linearGradient>
	<path fill="url(#SVGID_27_)" d="M129.221,149.678l1.586,3.435l1.91-0.882c0.495-0.229,0.792-0.456,0.89-0.683
		c0.132-0.299,0.095-0.702-0.107-1.211l0.236-0.108l1.397,3.024l-0.237,0.109c-0.256-0.395-0.44-0.639-0.556-0.73
		c-0.146-0.114-0.326-0.174-0.541-0.179c-0.214-0.004-0.504,0.077-0.866,0.245l-1.91,0.882l1.323,2.864
		c0.177,0.385,0.302,0.611,0.376,0.678c0.072,0.068,0.162,0.107,0.271,0.116c0.108,0.011,0.281-0.04,0.521-0.151l1.474-0.68
		c0.492-0.228,0.833-0.426,1.022-0.597c0.191-0.171,0.343-0.404,0.455-0.7c0.143-0.388,0.229-0.912,0.261-1.574l0.256-0.118
		l0.256,2.524l-6.696,3.093l-0.109-0.236l0.308-0.143c0.204-0.095,0.376-0.233,0.514-0.416c0.105-0.133,0.151-0.278,0.137-0.438
		c-0.014-0.159-0.119-0.45-0.315-0.874l-2.606-5.645c-0.255-0.551-0.467-0.865-0.638-0.941c-0.232-0.1-0.528-0.068-0.886,0.099
		l-0.308,0.143l-0.11-0.238l6.697-3.092l0.975,1.857l-0.249,0.116c-0.302-0.416-0.545-0.684-0.733-0.805
		c-0.188-0.12-0.41-0.177-0.665-0.167c-0.2,0.015-0.517,0.121-0.948,0.321L129.221,149.678z"/>
	<linearGradient id="SVGID_28_" gradientUnits="userSpaceOnUse" x1="134.9097" y1="148.4985" x2="146.2446" y2="148.4985">
		<stop  offset="0" style="stop-color:#AF8221"/>
		<stop  offset="0.1403" style="stop-color:#B58723"/>
		<stop  offset="0.6838" style="stop-color:#C9962E"/>
		<stop  offset="1" style="stop-color:#D29D33"/>
	</linearGradient>
	<path fill="url(#SVGID_28_)" d="M137.495,145.398l2.011,3.206l1.782-1.119c0.463-0.29,0.728-0.553,0.796-0.791
		c0.092-0.313,0.005-0.708-0.261-1.186l0.221-0.139l1.771,2.822l-0.221,0.139c-0.305-0.36-0.519-0.578-0.645-0.654
		c-0.159-0.095-0.346-0.131-0.56-0.107c-0.213,0.022-0.488,0.141-0.828,0.353l-1.78,1.119l1.676,2.672
		c0.226,0.358,0.378,0.567,0.458,0.624c0.081,0.058,0.175,0.085,0.284,0.081c0.108-0.004,0.274-0.076,0.498-0.216l1.375-0.864
		c0.458-0.286,0.771-0.527,0.938-0.722c0.168-0.193,0.289-0.444,0.363-0.752c0.091-0.401,0.111-0.934,0.057-1.595l0.24-0.149
		l0.575,2.473l-6.249,3.92l-0.138-0.222l0.287-0.18c0.191-0.12,0.344-0.279,0.457-0.479c0.088-0.144,0.115-0.293,0.08-0.45
		c-0.034-0.156-0.175-0.432-0.422-0.826l-3.306-5.267c-0.323-0.516-0.572-0.8-0.751-0.854c-0.244-0.069-0.533,0-0.868,0.21
		l-0.287,0.181l-0.139-0.221l6.248-3.921l1.204,1.72l-0.233,0.146c-0.352-0.373-0.628-0.608-0.83-0.704
		c-0.201-0.096-0.428-0.123-0.68-0.081c-0.197,0.041-0.496,0.187-0.899,0.439L137.495,145.398z"/>
</g>
<g>
	<linearGradient id="SVGID_29_" gradientUnits="userSpaceOnUse" x1="100.4287" y1="102.2192" x2="100.4287" y2="51.4864">
		<stop  offset="0" style="stop-color:#AF8221"/>
		<stop  offset="0.2565" style="stop-color:#C59E3E"/>
		<stop  offset="0.5909" style="stop-color:#E2C169"/>
		<stop  offset="0.8498" style="stop-color:#F6DB85"/>
		<stop  offset="1" style="stop-color:#FFE791"/>
	</linearGradient>
	<polygon fill="url(#SVGID_29_)" points="135.386,71.246 100.64,60.188 65.471,71.246 100.64,83.259 	"/>
	<linearGradient id="SVGID_30_" gradientUnits="userSpaceOnUse" x1="100.4282" y1="102.2192" x2="100.4282" y2="51.4862">
		<stop  offset="0" style="stop-color:#AF8221"/>
		<stop  offset="0.2565" style="stop-color:#C59E3E"/>
		<stop  offset="0.5909" style="stop-color:#E2C169"/>
		<stop  offset="0.8498" style="stop-color:#F6DB85"/>
		<stop  offset="1" style="stop-color:#FFE791"/>
	</linearGradient>
	<path fill="url(#SVGID_30_)" d="M78.458,81.093v17.688c4.875,2.535,12.803,6.705,21.971,6.705c9.167,0,17.095-4.169,21.97-6.705
		V81.093l-21.67,7.785L78.458,81.093z"/>
	<linearGradient id="SVGID_31_" gradientUnits="userSpaceOnUse" x1="71.4424" y1="102.2192" x2="71.4424" y2="51.4858">
		<stop  offset="0" style="stop-color:#AF8221"/>
		<stop  offset="0.2565" style="stop-color:#C59E3E"/>
		<stop  offset="0.5909" style="stop-color:#E2C169"/>
		<stop  offset="0.8498" style="stop-color:#F6DB85"/>
		<stop  offset="1" style="stop-color:#FFE791"/>
	</linearGradient>
	<path fill="url(#SVGID_31_)" d="M72.923,79.364l-3.037-1.468v11.009c-0.623,0.599-1.026,1.55-1.026,2.618
		c0,1.814,1.156,3.284,2.582,3.284c1.426,0,2.583-1.47,2.583-3.284c0-1.111-0.436-2.095-1.102-2.688V79.364z"/>
</g>
</svg>
