<?xml version="1.0" encoding="utf-8"?>
<!-- Generator: Adobe Illustrator 16.0.3, SVG Export Plug-In . SVG Version: 6.00 Build 0)  -->
<!DOCTYPE svg PUBLIC "-//W3C//DTD SVG 1.1//EN" "http://www.w3.org/Graphics/SVG/1.1/DTD/svg11.dtd">
<svg xmlns="http://www.w3.org/2000/svg" xmlns:xlink="http://www.w3.org/1999/xlink" version="1.1" id="Layer_1" x="0px" y="0px" width="455.59px" height="43.99px" viewBox="0 0 455.59 43.99" xml:space="preserve">
<g>
	<g>
		<path fill="#57C3D7" d="M240.94,10.87c-0.39-0.43-0.95-0.88-1.69-1.37c-0.74-0.48-1.6-0.94-2.59-1.37    c-0.99-0.43-2.07-0.77-3.26-1.05c-1.18-0.27-2.39-0.41-3.63-0.41c-2.75,0-4.78,0.5-6.07,1.51c-1.3,1.01-1.95,2.4-1.95,4.18    c0,1.01,0.2,1.83,0.61,2.47c0.41,0.64,1.04,1.2,1.89,1.69c0.85,0.48,1.92,0.91,3.2,1.28c1.28,0.37,2.77,0.77,4.48,1.19    c2.09,0.5,3.98,1.07,5.67,1.69s3.11,1.38,4.27,2.27c1.16,0.89,2.06,1.99,2.7,3.28c0.64,1.3,0.96,2.88,0.96,4.74    c0,2.09-0.4,3.89-1.19,5.41c-0.79,1.51-1.88,2.74-3.25,3.69c-1.38,0.95-2.97,1.65-4.8,2.09c-1.82,0.45-3.78,0.67-5.87,0.67    c-3.14,0-6.17-0.47-9.1-1.42c-2.93-0.95-5.57-2.33-7.93-4.16l2.96-5.58c0.5,0.5,1.23,1.07,2.18,1.69    c0.95,0.62,2.05,1.19,3.31,1.71c1.26,0.52,2.63,0.97,4.1,1.34c1.47,0.37,3,0.55,4.59,0.55c2.56,0,4.53-0.45,5.93-1.34    c1.4-0.89,2.09-2.21,2.09-3.95c0-1.05-0.26-1.92-0.78-2.62c-0.52-0.7-1.27-1.31-2.24-1.83c-0.97-0.52-2.15-1-3.55-1.42    c-1.4-0.43-2.98-0.87-4.77-1.34c-2.05-0.54-3.85-1.11-5.38-1.71c-1.53-0.6-2.8-1.33-3.81-2.18c-1.01-0.85-1.77-1.85-2.3-2.99    c-0.52-1.14-0.78-2.53-0.78-4.16c0-2.01,0.39-3.81,1.16-5.38c0.77-1.57,1.83-2.89,3.17-3.95s2.92-1.87,4.74-2.41    c1.82-0.54,3.8-0.81,5.93-0.81c2.79,0,5.37,0.45,7.73,1.34c2.36,0.89,4.44,2,6.22,3.31L240.94,10.87z"/>
		<path fill="#57C3D7" d="M281.69,6.92h-13.72v35.51h-6.57V6.92h-13.77V1.17h34.06V6.92z"/>
		<path fill="#57C3D7" d="M304.06,36.85c2.17,0,3.97-0.43,5.41-1.28c1.43-0.85,2.59-1.97,3.46-3.34c0.87-1.38,1.49-2.94,1.86-4.71    c0.37-1.76,0.55-3.57,0.55-5.43V1.17h6.57v20.92c0,2.83-0.33,5.49-0.99,7.99c-0.66,2.5-1.71,4.69-3.14,6.57    c-1.43,1.88-3.28,3.36-5.55,4.45c-2.27,1.08-4.99,1.63-8.17,1.63c-3.29,0-6.07-0.57-8.34-1.71c-2.27-1.14-4.1-2.67-5.49-4.59    s-2.4-4.12-3.02-6.6c-0.62-2.48-0.93-5.06-0.93-7.73V1.17h6.51v20.92c0,1.9,0.18,3.73,0.55,5.49c0.37,1.76,0.99,3.33,1.86,4.71    c0.87,1.38,2.03,2.48,3.49,3.31C300.14,36.44,301.93,36.85,304.06,36.85z"/>
		<path fill="#57C3D7" d="M330.22,42.44V1.17h14.65c3.33,0,6.25,0.54,8.75,1.63c2.5,1.09,4.59,2.56,6.28,4.42    c1.69,1.86,2.95,4.04,3.81,6.54c0.85,2.5,1.28,5.16,1.28,7.99c0,3.14-0.48,5.98-1.42,8.52s-2.3,4.71-4.04,6.51    c-1.74,1.8-3.86,3.2-6.34,4.18c-2.48,0.99-5.25,1.48-8.31,1.48H330.22z M358.35,21.74c0-2.17-0.3-4.17-0.9-5.99    c-0.6-1.82-1.48-3.38-2.64-4.68c-1.16-1.3-2.58-2.32-4.24-3.05c-1.67-0.74-3.57-1.1-5.7-1.1h-8.14v29.76h8.14    c2.17,0,4.1-0.38,5.78-1.13s3.1-1.8,4.24-3.14c1.14-1.34,2-2.92,2.59-4.74C358.06,25.85,358.35,23.87,358.35,21.74z"/>
		<path fill="#57C3D7" d="M371.49,42.44V1.17H378v41.27H371.49z"/>
		<path fill="#57C3D7" d="M415.25,36.68v5.75h-28.31V1.17h27.78v5.75h-21.27v11.74h18.43v5.41h-18.43v12.61H415.25z"/>
		<path fill="#57C3D7" d="M445.19,10.87c-0.39-0.43-0.95-0.88-1.69-1.37c-0.74-0.48-1.6-0.94-2.59-1.37    c-0.99-0.43-2.07-0.77-3.25-1.05c-1.18-0.27-2.39-0.41-3.63-0.41c-2.75,0-4.78,0.5-6.07,1.51c-1.3,1.01-1.95,2.4-1.95,4.18    c0,1.01,0.2,1.83,0.61,2.47c0.41,0.64,1.04,1.2,1.89,1.69c0.85,0.48,1.92,0.91,3.2,1.28c1.28,0.37,2.77,0.77,4.48,1.19    c2.09,0.5,3.98,1.07,5.67,1.69s3.11,1.38,4.27,2.27c1.16,0.89,2.06,1.99,2.7,3.28c0.64,1.3,0.96,2.88,0.96,4.74    c0,2.09-0.4,3.89-1.19,5.41c-0.79,1.51-1.88,2.74-3.25,3.69c-1.38,0.95-2.97,1.65-4.8,2.09s-3.78,0.67-5.87,0.67    c-3.14,0-6.17-0.47-9.1-1.42c-2.93-0.95-5.57-2.33-7.93-4.16l2.96-5.58c0.5,0.5,1.23,1.07,2.18,1.69    c0.95,0.62,2.05,1.19,3.31,1.71c1.26,0.52,2.62,0.97,4.1,1.34c1.47,0.37,3,0.55,4.59,0.55c2.56,0,4.53-0.45,5.93-1.34    c1.39-0.89,2.09-2.21,2.09-3.95c0-1.05-0.26-1.92-0.79-2.62c-0.52-0.7-1.27-1.31-2.24-1.83c-0.97-0.52-2.15-1-3.55-1.42    c-1.4-0.43-2.98-0.87-4.77-1.34c-2.05-0.54-3.85-1.11-5.38-1.71c-1.53-0.6-2.8-1.33-3.81-2.18c-1.01-0.85-1.77-1.85-2.3-2.99    c-0.52-1.14-0.78-2.53-0.78-4.16c0-2.01,0.39-3.81,1.16-5.38c0.77-1.57,1.83-2.89,3.17-3.95s2.92-1.87,4.74-2.41    c1.82-0.54,3.8-0.81,5.93-0.81c2.79,0,5.37,0.45,7.73,1.34c2.36,0.89,4.44,2,6.22,3.31L445.19,10.87z"/>
	</g>
</g>
<g>
	<rect y="0.05" fill="none" width="209.06" height="44.53"/>
	<path fill="#2C2F38" d="M34.75,40.5c-1.43,0.74-2.96,1.3-4.56,1.69c-1.61,0.39-3.3,0.58-5.09,0.58c-3.14,0-5.99-0.59-8.54-1.77   c-2.56-1.18-4.75-2.75-6.57-4.71c-1.82-1.96-3.24-4.19-4.24-6.71c-1.01-2.52-1.51-5.12-1.51-7.79c0-2.71,0.52-5.33,1.57-7.85   c1.05-2.52,2.51-4.75,4.39-6.68c1.88-1.94,4.11-3.48,6.68-4.62c2.58-1.14,5.4-1.71,8.46-1.71c3.14,0,5.99,0.61,8.54,1.83   c2.56,1.22,4.75,2.82,6.57,4.79c1.82,1.98,3.23,4.22,4.21,6.74c0.99,2.52,1.48,5.1,1.48,7.73c0,2.56-0.46,5.01-1.37,7.35   c-0.91,2.35-2.2,4.45-3.87,6.31l6.28,6.8H36.61L34.75,40.5z M25.22,32.71c0.85,0,1.57-0.08,2.15-0.23l-6.8-7.44h10.58l2.27,2.5   c0.43-0.89,0.74-1.82,0.93-2.79c0.19-0.97,0.29-1.96,0.29-2.96c0-1.4-0.19-2.74-0.58-4.04c-0.39-1.3-0.98-2.45-1.77-3.46   c-0.79-1.01-1.78-1.81-2.96-2.41c-1.18-0.6-2.57-0.9-4.16-0.9c-1.63,0-3.03,0.32-4.21,0.96c-1.18,0.64-2.16,1.47-2.94,2.5   c-0.78,1.03-1.35,2.19-1.71,3.49c-0.37,1.3-0.55,2.63-0.55,3.98c0,1.39,0.19,2.74,0.58,4.04c0.39,1.3,0.97,2.45,1.74,3.46   c0.77,1.01,1.75,1.81,2.94,2.41C22.19,32.41,23.59,32.71,25.22,32.71z"/>
	<path fill="#2C2F38" d="M48.35,21.49c0-2.52,0.47-5,1.42-7.44c0.95-2.44,2.33-4.63,4.16-6.57c1.82-1.94,4.03-3.51,6.63-4.71   c2.6-1.2,5.56-1.8,8.89-1.8c3.99,0,7.45,0.82,10.38,2.47c2.93,1.65,5.1,3.83,6.54,6.54l-8.66,6.16c-0.39-1.01-0.9-1.84-1.54-2.5   c-0.64-0.66-1.35-1.18-2.12-1.57c-0.78-0.39-1.58-0.66-2.41-0.81c-0.83-0.15-1.64-0.23-2.41-0.23c-1.63,0-3.03,0.32-4.21,0.96   c-1.18,0.64-2.15,1.47-2.91,2.5c-0.76,1.03-1.32,2.19-1.69,3.49c-0.37,1.3-0.55,2.59-0.55,3.87c0,1.43,0.21,2.81,0.64,4.13   c0.43,1.32,1.05,2.48,1.86,3.49c0.81,1.01,1.81,1.81,2.99,2.41c1.18,0.6,2.51,0.9,3.98,0.9c0.77,0,1.57-0.09,2.38-0.26   c0.81-0.17,1.6-0.46,2.35-0.87c0.76-0.41,1.43-0.93,2.03-1.57c0.6-0.64,1.08-1.42,1.42-2.35l9.24,5.52   c-0.62,1.51-1.56,2.87-2.82,4.07c-1.26,1.2-2.69,2.21-4.3,3.02c-1.61,0.81-3.33,1.43-5.17,1.86c-1.84,0.43-3.63,0.64-5.38,0.64   c-3.06,0-5.86-0.61-8.4-1.83c-2.54-1.22-4.73-2.84-6.57-4.85c-1.84-2.01-3.26-4.3-4.27-6.86C48.86,26.72,48.35,24.13,48.35,21.49z"/>
	<path fill="#2C2F38" d="M103.17,42.48V1.21h17.79c2.01,0,3.87,0.42,5.58,1.25c1.7,0.83,3.17,1.92,4.39,3.26s2.18,2.87,2.88,4.59   c0.7,1.72,1.05,3.46,1.05,5.2c0,1.82-0.33,3.59-0.99,5.32c-0.66,1.72-1.58,3.25-2.76,4.59c-1.18,1.34-2.62,2.4-4.3,3.2   c-1.69,0.79-3.54,1.19-5.55,1.19h-6.74v12.67H103.17z M114.5,19.92h5.99c0.7,0,1.35-0.32,1.95-0.96c0.6-0.64,0.9-1.79,0.9-3.46   c0-1.71-0.35-2.87-1.05-3.49c-0.7-0.62-1.4-0.93-2.09-0.93h-5.7V19.92z"/>
	<path fill="#2C2F38" d="M168.44,32.59v9.88h-29.41V1.21h28.89v9.88h-17.55v5.81h15v9.18h-15v6.51H168.44z"/>
	<path fill="#2C2F38" d="M205.52,11.09h-11.86v31.39h-11.33V11.09h-11.92V1.21h35.11V11.09z"/>
</g>
<g>
</g>
<g>
</g>
<g>
</g>
<g>
</g>
<g>
</g>
<g>
</g>
<g>
</g>
<g>
</g>
<g>
</g>
<g>
</g>
<g>
</g>
<g>
</g>
<g>
</g>
<g>
</g>
<g>
</g>
</svg>
