<?xml version="1.0" encoding="utf-8"?>
<!-- Generator: Adobe Illustrator 16.0.3, SVG Export Plug-In . SVG Version: 6.00 Build 0)  -->
<!DOCTYPE svg PUBLIC "-//W3C//DTD SVG 1.1//EN" "http://www.w3.org/Graphics/SVG/1.1/DTD/svg11.dtd">
<svg version="1.1" xmlns="http://www.w3.org/2000/svg" xmlns:xlink="http://www.w3.org/1999/xlink" x="0px" y="0px"
	 width="296.583px" height="40.155px" viewBox="0 0 296.583 40.155" enable-background="new 0 0 296.583 40.155"
	 xml:space="preserve">
<g id="Layer_1" display="none">
	<rect display="inline" width="296.583" height="40.155"/>
	<g display="inline">
		<path fill="#FFFFFF" d="M164.322,11.344h11.474v3.479h-7.705V18.3h7.125v3.479h-7.125v6.667h-3.769V11.344z"/>
		<path fill="#FFFFFF" d="M182.439,11.344h3.116l7.439,17.102h-4.251l-1.474-3.623h-6.643l-1.425,3.623h-4.155L182.439,11.344z
			 M183.889,16.32l-2.077,5.314h4.179L183.889,16.32z"/>
		<path fill="#FFFFFF" d="M202.805,15.522c-0.604-0.773-1.812-1.135-2.729-1.135c-1.063,0-2.536,0.483-2.536,1.763
			c0,3.116,7.874,1.111,7.874,7.102c0,3.816-3.067,5.628-6.594,5.628c-2.198,0-4.131-0.652-5.749-2.149l2.681-2.947
			c0.773,1.014,2.029,1.618,3.285,1.618c1.232,0,2.609-0.58,2.609-1.788c0-3.14-8.02-1.449-8.02-7.15
			c0-3.647,3.164-5.555,6.521-5.555c1.933,0,3.792,0.507,5.241,1.787L202.805,15.522z"/>
		<path fill="#FFFFFF" d="M211.163,14.677h-4.879v-3.333h13.526v3.333h-4.879v13.768h-3.769V14.677z"/>
		<path fill="#FFFFFF" d="M221.357,11.344h6.353c3.551,0,6.498,1.135,6.498,5.193c0,4.01-2.729,5.242-6.329,5.242h-2.754v6.667
			h-3.768V11.344z M225.125,18.59h2.513c1.328,0,2.657-0.459,2.657-2.053c0-1.763-1.788-2.005-3.237-2.005h-1.933V18.59z"/>
		<path fill="#FFFFFF" d="M239.62,11.344h3.116l7.439,17.102h-4.251l-1.474-3.623h-6.643l-1.425,3.623h-4.155L239.62,11.344z
			 M241.069,16.32l-2.077,5.314h4.179L241.069,16.32z"/>
		<path fill="#FFFFFF" d="M259.984,15.522c-0.604-0.773-1.812-1.135-2.729-1.135c-1.063,0-2.536,0.483-2.536,1.763
			c0,3.116,7.874,1.111,7.874,7.102c0,3.816-3.067,5.628-6.594,5.628c-2.198,0-4.131-0.652-5.749-2.149l2.681-2.947
			c0.773,1.014,2.029,1.618,3.285,1.618c1.232,0,2.609-0.58,2.609-1.788c0-3.14-8.02-1.449-8.02-7.15
			c0-3.647,3.164-5.555,6.521-5.555c1.933,0,3.792,0.507,5.241,1.787L259.984,15.522z"/>
		<path fill="#FFFFFF" d="M273.488,15.522c-0.604-0.773-1.812-1.135-2.729-1.135c-1.063,0-2.536,0.483-2.536,1.763
			c0,3.116,7.874,1.111,7.874,7.102c0,3.816-3.067,5.628-6.594,5.628c-2.198,0-4.131-0.652-5.749-2.149l2.681-2.947
			c0.773,1.014,2.029,1.618,3.285,1.618c1.232,0,2.609-0.58,2.609-1.788c0-3.14-8.02-1.449-8.02-7.15
			c0-3.647,3.164-5.555,6.521-5.555c1.933,0,3.792,0.507,5.241,1.787L273.488,15.522z"/>
	</g>
	<g display="inline">
		<path fill="#FFFFFF" d="M27.713,12.111h1.574L36.185,28.5h-1.713l-1.782-4.352h-8.68L22.158,28.5h-1.597L27.713,12.111z
			 M28.431,13.778l-3.819,8.981h7.523L28.431,13.778z"/>
		<path fill="#FFFFFF" d="M38.204,12.111h4.722c2.315,0,5.278,0.903,5.278,4.329c0,2.963-2.361,4.283-4.931,4.283h-3.542V28.5
			h-1.528V12.111z M39.731,19.333h3.472c1.736,0,3.472-0.741,3.472-2.894c0-2.106-1.806-2.939-3.564-2.939h-3.38V19.333z"/>
		<path fill="#FFFFFF" d="M51.147,12.111h4.722c2.315,0,5.278,0.903,5.278,4.329c0,2.963-2.361,4.283-4.931,4.283h-3.542V28.5
			h-1.528V12.111z M52.675,19.333h3.472c1.736,0,3.472-0.741,3.472-2.894c0-2.106-1.806-2.939-3.564-2.939h-3.38V19.333z"/>
		<path fill="#FFFFFF" d="M64.09,12.111h1.528v15h7.639V28.5H64.09V12.111z"/>
		<path fill="#FFFFFF" d="M76.385,21.44l-6.018-9.329h1.829l4.954,7.778l5.069-7.778h1.713l-6.019,9.329v7.06h-1.528V21.44z"/>
		<path fill="#FFFFFF" d="M104.862,25.931c-1.551,2.129-3.68,2.986-6.088,2.986c-5,0-8.472-3.611-8.472-8.611
			s3.472-8.611,8.472-8.611c2.222,0,4.213,0.741,5.648,2.569l-1.25,1.042c-1.019-1.527-2.755-2.222-4.398-2.222
			c-4.282,0-6.944,3.148-6.944,7.222c0,4.074,2.662,7.222,6.944,7.222c1.644,0,3.681-0.787,4.838-2.546L104.862,25.931z"/>
		<path fill="#FFFFFF" d="M114.728,11.695c5,0,8.472,3.611,8.472,8.611s-3.472,8.611-8.472,8.611c-5,0-8.472-3.611-8.472-8.611
			S109.729,11.695,114.728,11.695z M114.728,27.528c4.283,0,6.944-3.148,6.944-7.222c0-4.074-2.662-7.222-6.944-7.222
			c-4.282,0-6.944,3.148-6.944,7.222C107.784,24.38,110.446,27.528,114.728,27.528z"/>
		<path fill="#FFFFFF" d="M126.077,12.111h5.069c8.518,0,8.865,6.991,8.865,8.194s-0.347,8.194-8.865,8.194h-5.069V12.111z
			 M127.604,27.111h3.148c4.352,0,7.731-2.106,7.731-6.806c0-4.699-3.379-6.805-7.731-6.805h-3.148V27.111z"/>
		<path fill="#FFFFFF" d="M143.095,12.111h10.023V13.5h-8.495v5.833h7.963v1.389h-7.963v6.389h8.866V28.5h-10.395V12.111z"/>
		<path fill="#FFFFFF" d="M157.243,17.667c0.625,0,1.11,0.486,1.11,1.111s-0.485,1.111-1.11,1.111s-1.111-0.486-1.111-1.111
			S156.618,17.667,157.243,17.667z M157.243,26.417c0.625,0,1.11,0.486,1.11,1.111s-0.485,1.111-1.11,1.111
			s-1.111-0.486-1.111-1.111S156.618,26.417,157.243,26.417z"/>
	</g>
</g>
<g id="Layer_5">
	<rect fill="#40D31C" width="296.583" height="40.155"/>
	<g>
		<path fill="#FFFFFF" d="M161.307,12.631h10.01v3.035h-6.723V18.7h6.217v3.035h-6.217v5.816h-3.287V12.631z"/>
		<path fill="#FFFFFF" d="M177.11,12.631h2.719l6.49,14.919h-3.709l-1.285-3.161h-5.795l-1.243,3.161h-3.625L177.11,12.631z
			 M178.375,16.972l-1.813,4.636h3.646L178.375,16.972z"/>
		<path fill="#FFFFFF" d="M194.875,16.276c-0.526-0.674-1.58-0.99-2.381-0.99c-0.928,0-2.213,0.421-2.213,1.538
			c0,2.719,6.869,0.97,6.869,6.195c0,3.33-2.676,4.91-5.752,4.91c-1.918,0-3.604-0.569-5.016-1.875l2.339-2.571
			c0.675,0.885,1.771,1.412,2.866,1.412c1.074,0,2.275-0.505,2.275-1.559c0-2.74-6.996-1.265-6.996-6.238
			c0-3.182,2.761-4.846,5.689-4.846c1.687,0,3.309,0.442,4.573,1.559L194.875,16.276z"/>
		<path fill="#FFFFFF" d="M202.166,15.539h-4.257v-2.908h11.801v2.908h-4.257V27.55h-3.287V15.539z"/>
		<path fill="#FFFFFF" d="M211.059,12.631h5.542c3.098,0,5.668,0.991,5.668,4.531c0,3.498-2.381,4.573-5.521,4.573h-2.402v5.816
			h-3.287V12.631z M214.346,18.953h2.191c1.159,0,2.318-0.4,2.318-1.791c0-1.538-1.56-1.749-2.824-1.749h-1.686V18.953z"/>
		<path fill="#FFFFFF" d="M226.988,12.631h2.719l6.49,14.919h-3.709l-1.285-3.161h-5.795l-1.243,3.161h-3.625L226.988,12.631z
			 M228.253,16.972l-1.813,4.636h3.646L228.253,16.972z"/>
		<path fill="#FFFFFF" d="M244.753,16.276c-0.526-0.674-1.58-0.99-2.381-0.99c-0.928,0-2.213,0.421-2.213,1.538
			c0,2.719,6.869,0.97,6.869,6.195c0,3.33-2.676,4.91-5.752,4.91c-1.918,0-3.604-0.569-5.016-1.875l2.339-2.571
			c0.675,0.885,1.771,1.412,2.866,1.412c1.074,0,2.275-0.505,2.275-1.559c0-2.74-6.996-1.265-6.996-6.238
			c0-3.182,2.761-4.846,5.689-4.846c1.687,0,3.309,0.442,4.573,1.559L244.753,16.276z"/>
		<path fill="#FFFFFF" d="M256.531,16.276c-0.526-0.674-1.58-0.99-2.381-0.99c-0.928,0-2.213,0.421-2.213,1.538
			c0,2.719,6.869,0.97,6.869,6.195c0,3.33-2.676,4.91-5.752,4.91c-1.918,0-3.604-0.569-5.016-1.875l2.339-2.571
			c0.675,0.885,1.771,1.412,2.866,1.412c1.074,0,2.275-0.505,2.275-1.559c0-2.74-6.996-1.265-6.996-6.238
			c0-3.182,2.761-4.846,5.689-4.846c1.687,0,3.309,0.442,4.573,1.559L256.531,16.276z"/>
	</g>
	<g>
		<path fill="#FFFFFF" d="M27.708,25.355c-1.354,1.859-3.212,2.606-5.313,2.606c-4.364,0-7.394-3.152-7.394-7.516
			s3.03-7.515,7.394-7.515c1.939,0,3.677,0.646,4.93,2.242l-1.091,0.909c-0.889-1.333-2.404-1.939-3.839-1.939
			c-3.737,0-6.061,2.748-6.061,6.303s2.323,6.303,6.061,6.303c1.435,0,3.212-0.687,4.223-2.222L27.708,25.355z"/>
		<path fill="#FFFFFF" d="M36.311,12.931c4.364,0,7.395,3.151,7.395,7.515s-3.031,7.516-7.395,7.516s-7.394-3.152-7.394-7.516
			S31.947,12.931,36.311,12.931z M36.311,26.749c3.738,0,6.061-2.748,6.061-6.303s-2.323-6.303-6.061-6.303
			c-3.737,0-6.061,2.748-6.061,6.303S32.573,26.749,36.311,26.749z"/>
		<path fill="#FFFFFF" d="M46.206,13.294h4.424c7.435,0,7.738,6.101,7.738,7.151c0,1.051-0.303,7.152-7.738,7.152h-4.424V13.294z
			 M47.54,26.385h2.748c3.798,0,6.748-1.838,6.748-5.939s-2.95-5.939-6.748-5.939H47.54V26.385z"/>
		<path fill="#FFFFFF" d="M61.051,13.294h8.748v1.212h-7.415v5.091h6.95v1.212h-6.95v5.576h7.738v1.212h-9.071V13.294z"/>
		<path fill="#FFFFFF" d="M82.058,13.294h1.374l6.021,14.303h-1.495l-1.556-3.798h-7.576l-1.616,3.798h-1.394L82.058,13.294z
			 M82.684,14.749l-3.333,7.839h6.566L82.684,14.749z"/>
		<path fill="#FFFFFF" d="M91.207,13.294h4.122c2.02,0,4.606,0.788,4.606,3.778c0,2.586-2.061,3.737-4.303,3.737H92.54v6.788h-1.333
			V13.294z M92.54,19.597h3.03c1.516,0,3.031-0.646,3.031-2.525c0-1.838-1.576-2.566-3.111-2.566h-2.95V19.597z"/>
		<path fill="#FFFFFF" d="M102.497,13.294h4.122c2.02,0,4.606,0.788,4.606,3.778c0,2.586-2.061,3.737-4.303,3.737h-3.091v6.788
			h-1.333V13.294z M103.831,19.597h3.03c1.515,0,3.031-0.646,3.031-2.525c0-1.838-1.576-2.566-3.111-2.566h-2.95V19.597z"/>
		<path fill="#FFFFFF" d="M113.787,13.294h1.333v13.091h6.667v1.212h-8V13.294z"/>
		<path fill="#FFFFFF" d="M123.583,13.294h1.333v14.303h-1.333V13.294z"/>
		<path fill="#FFFFFF" d="M128.532,13.294h8.748v1.212h-7.414v5.091h6.95v1.212h-6.95v5.576h7.737v1.212h-9.071V13.294z"/>
		<path fill="#FFFFFF" d="M140.024,13.294h4.424c7.435,0,7.737,6.101,7.737,7.151c0,1.051-0.303,7.152-7.737,7.152h-4.424V13.294z
			 M141.357,26.385h2.747c3.799,0,6.748-1.838,6.748-5.939s-2.949-5.939-6.748-5.939h-2.747V26.385z"/>
		<path fill="#FFFFFF" d="M155.536,18.143c0.546,0,0.97,0.424,0.97,0.97c0,0.545-0.424,0.97-0.97,0.97
			c-0.545,0-0.97-0.424-0.97-0.97C154.566,18.567,154.991,18.143,155.536,18.143z M155.536,25.779c0.546,0,0.97,0.424,0.97,0.97
			s-0.424,0.97-0.97,0.97c-0.545,0-0.97-0.424-0.97-0.97S154.991,25.779,155.536,25.779z"/>
	</g>
	<g>
		<polygon fill="#FFFFFF" points="280.627,14.393 273.039,23.778 267.585,19.315 265.479,21.887 270.948,26.366 273.521,28.471 
			275.613,25.885 283.213,16.485 		"/>
	</g>
	<g>
	</g>
	<g>
	</g>
	<g>
	</g>
	<g>
	</g>
	<g>
	</g>
	<g>
	</g>
</g>
</svg>
