<?xml version="1.0" encoding="utf-8"?>
<!-- Generator: Adobe Illustrator 16.0.3, SVG Export Plug-In . SVG Version: 6.00 Build 0)  -->
<!DOCTYPE svg PUBLIC "-//W3C//DTD SVG 1.1//EN" "http://www.w3.org/Graphics/SVG/1.1/DTD/svg11.dtd">
<svg version="1.1" xmlns="http://www.w3.org/2000/svg" xmlns:xlink="http://www.w3.org/1999/xlink" x="0px" y="0px"
	 width="351.625px" height="40.155px" viewBox="0 0 351.625 40.155" enable-background="new 0 0 351.625 40.155"
	 xml:space="preserve">
<g id="Layer_1">
	<rect fill="#FF0069" width="351.625" height="40.155"/>
	<g>
		<path fill="#FFFFFF" d="M189.118,11.344h11.474v3.479h-7.705V18.3h7.125v3.479h-7.125v6.667h-3.769V11.344z"/>
		<path fill="#FFFFFF" d="M202.937,11.344h6.618c3.503,0,6.449,1.208,6.449,5.193c0,2.391-1.28,4.251-3.695,4.686l4.348,7.222
			h-4.517l-3.575-6.836h-1.86v6.836h-3.768V11.344z M206.704,18.421h2.223c1.377,0,3.164-0.048,3.164-1.908
			c0-1.715-1.546-1.98-2.923-1.98h-2.464V18.421z"/>
		<path fill="#FFFFFF" d="M218.372,11.344h11.619v3.479h-7.851v3.188h7.415v3.479h-7.415v3.479h8.285v3.478h-12.054V11.344z"/>
		<path fill="#FFFFFF" d="M233.229,11.344h11.619v3.479h-7.851v3.188h7.415v3.479h-7.415v3.479h8.285v3.478h-12.054V11.344z"/>
		<path fill="#FFFFFF" d="M247.941,11.344h6.353c3.551,0,6.498,1.135,6.498,5.193c0,4.01-2.729,5.242-6.329,5.242h-2.754v6.667
			h-3.768V11.344z M251.709,18.59h2.513c1.328,0,2.657-0.459,2.657-2.053c0-1.763-1.788-2.005-3.237-2.005h-1.933V18.59z"/>
		<path fill="#FFFFFF" d="M262.798,11.344h6.618c3.503,0,6.449,1.208,6.449,5.193c0,2.391-1.28,4.251-3.695,4.686l4.348,7.222
			h-4.517l-3.575-6.836h-1.86v6.836h-3.768V11.344z M266.565,18.421h2.223c1.377,0,3.164-0.048,3.164-1.908
			c0-1.715-1.546-1.98-2.923-1.98h-2.464V18.421z"/>
		<path fill="#FFFFFF" d="M286.398,10.909c5.338,0,9.227,3.502,9.227,8.985s-3.889,8.985-9.227,8.985
			c-5.339,0-9.228-3.502-9.228-8.985S281.06,10.909,286.398,10.909z M286.398,25.402c3.212,0,5.313-2.319,5.313-5.507
			s-2.102-5.507-5.313-5.507c-3.213,0-5.314,2.319-5.314,5.507S283.186,25.402,286.398,25.402z"/>
	</g>
	<g>
		<path fill="#FFFFFF" d="M40.919,12.111h1.574L49.391,28.5h-1.713l-1.782-4.352h-8.68L35.363,28.5h-1.597L40.919,12.111z
			 M41.636,13.778l-3.819,8.981h7.523L41.636,13.778z"/>
		<path fill="#FFFFFF" d="M51.41,12.111h4.722c2.315,0,5.278,0.903,5.278,4.329c0,2.963-2.361,4.283-4.931,4.283h-3.542V28.5H51.41
			V12.111z M52.938,19.333h3.472c1.736,0,3.472-0.741,3.472-2.894c0-2.106-1.806-2.939-3.564-2.939h-3.38V19.333z"/>
		<path fill="#FFFFFF" d="M64.353,12.111h4.722c2.315,0,5.278,0.903,5.278,4.329c0,2.963-2.361,4.283-4.931,4.283H65.88V28.5h-1.528
			V12.111z M65.88,19.333h3.472c1.736,0,3.472-0.741,3.472-2.894c0-2.106-1.806-2.939-3.564-2.939h-3.38V19.333z"/>
		<path fill="#FFFFFF" d="M77.296,12.111h1.528v15h7.639V28.5h-9.167V12.111z"/>
		<path fill="#FFFFFF" d="M89.591,21.44l-6.018-9.329h1.829l4.954,7.778l5.069-7.778h1.713l-6.019,9.329v7.06h-1.528V21.44z"/>
		<path fill="#FFFFFF" d="M123.74,25.931c-1.551,2.129-3.68,2.986-6.088,2.986c-5,0-8.472-3.611-8.472-8.611
			s3.472-8.611,8.472-8.611c2.222,0,4.213,0.741,5.648,2.569l-1.25,1.042c-1.019-1.527-2.755-2.222-4.398-2.222
			c-4.282,0-6.944,3.148-6.944,7.222c0,4.074,2.662,7.222,6.944,7.222c1.644,0,3.681-0.787,4.838-2.546L123.74,25.931z"/>
		<path fill="#FFFFFF" d="M133.605,11.695c5,0,8.472,3.611,8.472,8.611s-3.472,8.611-8.472,8.611c-5,0-8.472-3.611-8.472-8.611
			S128.606,11.695,133.605,11.695z M133.605,27.528c4.283,0,6.944-3.148,6.944-7.222c0-4.074-2.662-7.222-6.944-7.222
			c-4.282,0-6.944,3.148-6.944,7.222C126.662,24.38,129.323,27.528,133.605,27.528z"/>
		<path fill="#FFFFFF" d="M144.954,12.111h5.069c8.518,0,8.865,6.991,8.865,8.194s-0.347,8.194-8.865,8.194h-5.069V12.111z
			 M146.482,27.111h3.148c4.352,0,7.731-2.106,7.731-6.806c0-4.699-3.379-6.805-7.731-6.805h-3.148V27.111z"/>
		<path fill="#FFFFFF" d="M161.973,12.111h10.023V13.5H163.5v5.833h7.963v1.389H163.5v6.389h8.866V28.5h-10.394V12.111z"/>
		<path fill="#FFFFFF" d="M176.12,17.667c0.625,0,1.111,0.486,1.111,1.111s-0.486,1.111-1.111,1.111s-1.111-0.486-1.111-1.111
			S175.495,17.667,176.12,17.667z M176.12,26.417c0.625,0,1.111,0.486,1.111,1.111s-0.486,1.111-1.111,1.111
			s-1.111-0.486-1.111-1.111S175.495,26.417,176.12,26.417z"/>
	</g>
</g>
<g id="Layer_5" display="none">
	<rect display="inline" fill="#40D31C" width="351.625" height="40.155"/>
	<g display="inline">
		<path fill="#FFFFFF" d="M194.513,11.344h11.474v3.479h-7.705V18.3h7.125v3.479h-7.125v6.667h-3.769V11.344z"/>
		<path fill="#FFFFFF" d="M208.331,11.344h6.618c3.503,0,6.449,1.208,6.449,5.193c0,2.391-1.28,4.251-3.695,4.686l4.348,7.222
			h-4.517l-3.575-6.836h-1.86v6.836h-3.768V11.344z M212.099,18.421h2.223c1.377,0,3.164-0.048,3.164-1.908
			c0-1.715-1.546-1.98-2.923-1.98h-2.464V18.421z"/>
		<path fill="#FFFFFF" d="M223.767,11.344h11.619v3.479h-7.851v3.188h7.415v3.479h-7.415v3.479h8.285v3.478h-12.054V11.344z"/>
		<path fill="#FFFFFF" d="M238.623,11.344h11.619v3.479h-7.851v3.188h7.415v3.479h-7.415v3.479h8.285v3.478h-12.054V11.344z"/>
		<path fill="#FFFFFF" d="M253.336,11.344h6.353c3.551,0,6.498,1.135,6.498,5.193c0,4.01-2.729,5.242-6.329,5.242h-2.754v6.667
			h-3.768V11.344z M257.104,18.59h2.513c1.328,0,2.657-0.459,2.657-2.053c0-1.763-1.788-2.005-3.237-2.005h-1.933V18.59z"/>
		<path fill="#FFFFFF" d="M268.192,11.344h6.618c3.503,0,6.449,1.208,6.449,5.193c0,2.391-1.28,4.251-3.695,4.686l4.348,7.222
			h-4.517l-3.575-6.836h-1.86v6.836h-3.768V11.344z M271.96,18.421h2.223c1.377,0,3.164-0.048,3.164-1.908
			c0-1.715-1.546-1.98-2.923-1.98h-2.464V18.421z"/>
		<path fill="#FFFFFF" d="M291.793,10.909c5.338,0,9.227,3.502,9.227,8.985s-3.889,8.985-9.227,8.985
			c-5.339,0-9.228-3.502-9.228-8.985S286.454,10.909,291.793,10.909z M291.793,25.402c3.212,0,5.313-2.319,5.313-5.507
			s-2.102-5.507-5.313-5.507c-3.213,0-5.314,2.319-5.314,5.507S288.58,25.402,291.793,25.402z"/>
	</g>
	<g display="inline">
		<polygon fill="#FFFFFF" points="331.249,14.039 323.661,23.423 318.207,18.959 316.101,21.533 321.57,26.01 324.144,28.117 
			326.235,25.53 333.835,16.129 		"/>
	</g>
	<g display="inline">
		<path fill="#FFFFFF" d="M39.48,25.931c-1.551,2.129-3.68,2.986-6.088,2.986c-5,0-8.472-3.611-8.472-8.611s3.472-8.611,8.472-8.611
			c2.222,0,4.213,0.741,5.648,2.569l-1.25,1.042c-1.019-1.527-2.755-2.222-4.398-2.222c-4.282,0-6.944,3.148-6.944,7.222
			c0,4.074,2.662,7.222,6.944,7.222c1.644,0,3.681-0.787,4.838-2.546L39.48,25.931z"/>
		<path fill="#FFFFFF" d="M49.346,11.695c5,0,8.472,3.611,8.472,8.611s-3.472,8.611-8.472,8.611c-5,0-8.472-3.611-8.472-8.611
			S44.347,11.695,49.346,11.695z M49.346,27.528c4.283,0,6.944-3.148,6.944-7.222c0-4.074-2.662-7.222-6.944-7.222
			c-4.282,0-6.944,3.148-6.944,7.222C42.402,24.38,45.064,27.528,49.346,27.528z"/>
		<path fill="#FFFFFF" d="M60.695,12.111h5.069c8.518,0,8.865,6.991,8.865,8.194S74.282,28.5,65.764,28.5h-5.069V12.111z
			 M62.223,27.111h3.148c4.352,0,7.731-2.106,7.731-6.806c0-4.699-3.38-6.805-7.731-6.805h-3.148V27.111z"/>
		<path fill="#FFFFFF" d="M77.713,12.111h10.023V13.5h-8.495v5.833h7.963v1.389h-7.963v6.389h8.866V28.5H77.713V12.111z"/>
		<path fill="#FFFFFF" d="M101.793,12.111h1.574l6.898,16.389h-1.713l-1.782-4.352h-8.68L96.237,28.5H94.64L101.793,12.111z
			 M102.51,13.778l-3.819,8.981h7.523L102.51,13.778z"/>
		<path fill="#FFFFFF" d="M112.283,12.111h4.722c2.315,0,5.278,0.903,5.278,4.329c0,2.963-2.361,4.283-4.931,4.283h-3.542V28.5
			h-1.528V12.111z M113.811,19.333h3.472c1.736,0,3.472-0.741,3.472-2.894c0-2.106-1.806-2.939-3.564-2.939h-3.38V19.333z"/>
		<path fill="#FFFFFF" d="M125.227,12.111h4.722c2.315,0,5.278,0.903,5.278,4.329c0,2.963-2.361,4.283-4.931,4.283h-3.542V28.5
			h-1.528V12.111z M126.755,19.333h3.472c1.736,0,3.472-0.741,3.472-2.894c0-2.106-1.806-2.939-3.564-2.939h-3.38V19.333z"/>
		<path fill="#FFFFFF" d="M138.17,12.111h1.528v15h7.639V28.5h-9.167V12.111z"/>
		<path fill="#FFFFFF" d="M149.4,12.111h1.528V28.5H149.4V12.111z"/>
		<path fill="#FFFFFF" d="M155.073,12.111h10.023V13.5h-8.495v5.833h7.963v1.389h-7.963v6.389h8.866V28.5h-10.394V12.111z"/>
		<path fill="#FFFFFF" d="M168.249,12.111h5.069c8.518,0,8.865,6.991,8.865,8.194s-0.347,8.194-8.865,8.194h-5.069V12.111z
			 M169.776,27.111h3.148c4.352,0,7.731-2.106,7.731-6.806c0-4.699-3.38-6.805-7.731-6.805h-3.148V27.111z"/>
		<path fill="#FFFFFF" d="M186.031,17.667c0.625,0,1.111,0.486,1.111,1.111s-0.486,1.111-1.111,1.111s-1.111-0.486-1.111-1.111
			S185.406,17.667,186.031,17.667z M186.031,26.417c0.625,0,1.111,0.486,1.111,1.111s-0.486,1.111-1.111,1.111
			s-1.111-0.486-1.111-1.111S185.406,26.417,186.031,26.417z"/>
	</g>
</g>
</svg>
