<?xml version="1.0" encoding="utf-8"?>
<!-- Generator: Adobe Illustrator 16.0.3, SVG Export Plug-In . SVG Version: 6.00 Build 0)  -->
<!DOCTYPE svg PUBLIC "-//W3C//DTD SVG 1.1//EN" "http://www.w3.org/Graphics/SVG/1.1/DTD/svg11.dtd">
<svg version="1.1" xmlns="http://www.w3.org/2000/svg" xmlns:xlink="http://www.w3.org/1999/xlink" x="0px" y="0px"
	 width="383.709px" height="40.155px" viewBox="0 0 383.709 40.155" enable-background="new 0 0 383.709 40.155"
	 xml:space="preserve">
<g id="Layer_1">
	<rect fill="#FF0100" width="383.709" height="40.155"/>
	<g>
		<path fill="#FFFFFF" d="M202.269,15.354c-1.256-1.329-2.416-1.691-3.599-1.691c-3.527,0-5.87,2.706-5.87,6.111
			c0,3.647,2.343,6.353,5.87,6.353c1.376,0,2.705-0.628,3.84-2.077l2.513,1.787c-1.546,2.126-3.865,3.043-6.377,3.043
			c-5.266,0-9.034-3.575-9.034-8.913c0-5.483,3.769-9.058,9.034-9.058c2.318,0,4.299,0.749,5.99,2.705L202.269,15.354z"/>
		<path fill="#FFFFFF" d="M212.246,11.344h2.633l7.367,17.102h-3.479l-1.594-3.913h-7.415l-1.546,3.913h-3.406L212.246,11.344z
			 M216.111,21.923l-2.633-6.957l-2.682,6.957H216.111z"/>
		<path fill="#FFFFFF" d="M223.794,11.344h4.034l8.285,12.706h0.048V11.344h3.044v17.102h-3.865l-8.454-13.116h-0.048v13.116h-3.044
			V11.344z"/>
		<path fill="#FFFFFF" d="M248.191,11.344h2.633l7.367,17.102h-3.479l-1.594-3.913h-7.415l-1.546,3.913h-3.406L248.191,11.344z
			 M252.057,21.923l-2.633-6.957l-2.682,6.957H252.057z"/>
		<path fill="#FFFFFF" d="M259.739,11.344h6.739c4.492,0,8.695,2.754,8.695,8.551c0,5.845-4.951,8.551-9.058,8.551h-6.377V11.344z
			 M265.054,25.692c3.816,0,6.932-1.643,6.932-5.797s-2.705-5.797-6.425-5.797h-2.777v11.594H265.054z"/>
		<path fill="#FFFFFF" d="M283.243,11.344h2.633l7.367,17.102h-3.479l-1.594-3.913h-7.415l-1.546,3.913h-3.406L283.243,11.344z
			 M287.108,21.923l-2.633-6.957l-2.682,6.957H287.108z"/>
		<path fill="#FFFFFF" d="M299.84,15.402l-3.431,3.019l-2.053-2.367l5.579-4.71h3.382v17.102h-3.478V15.402z"/>
		<path fill="#FFFFFF" d="M319.311,14.532h-6.788l-0.072,2.633c0.411-0.145,0.87-0.193,1.521-0.193c3.454,0,5.918,2.15,5.918,5.652
			c0,3.865-2.777,6.111-6.521,6.111c-2.947,0-5.024-1.474-5.772-4.372l3.792-0.87c0.193,1.232,1.087,2.053,2.343,2.053
			c1.546,0,2.536-1.087,2.536-2.561c0-2.247-2.053-2.826-3.938-2.826c-1.184,0-2.415,0.242-3.551,0.628l0.193-9.444h10.339V14.532z"
			/>
		<path fill="#FFFFFF" d="M328.805,25.015h-7.464v-3.043l6.98-10.628h3.961v10.628h2.198v3.043h-2.198v3.43h-3.478V25.015z
			 M328.805,16.078h-0.049l-3.792,5.894h3.841V16.078z"/>
	</g>
	<g>
		<path fill="#FFFFFF" d="M40.919,12.111h1.574L49.391,28.5h-1.713l-1.782-4.352h-8.68L35.363,28.5h-1.597L40.919,12.111z
			 M41.636,13.778l-3.819,8.981h7.523L41.636,13.778z"/>
		<path fill="#FFFFFF" d="M51.41,12.111h4.722c2.315,0,5.278,0.903,5.278,4.329c0,2.963-2.361,4.283-4.931,4.283h-3.542V28.5H51.41
			V12.111z M52.938,19.333h3.472c1.736,0,3.472-0.741,3.472-2.894c0-2.106-1.806-2.939-3.564-2.939h-3.38V19.333z"/>
		<path fill="#FFFFFF" d="M64.353,12.111h4.722c2.315,0,5.278,0.903,5.278,4.329c0,2.963-2.361,4.283-4.931,4.283H65.88V28.5h-1.528
			V12.111z M65.88,19.333h3.472c1.736,0,3.472-0.741,3.472-2.894c0-2.106-1.806-2.939-3.564-2.939h-3.38V19.333z"/>
		<path fill="#FFFFFF" d="M77.296,12.111h1.528v15h7.639V28.5h-9.167V12.111z"/>
		<path fill="#FFFFFF" d="M89.591,21.44l-6.018-9.329h1.829l4.954,7.778l5.069-7.778h1.713l-6.019,9.329v7.06h-1.528V21.44z"/>
		<path fill="#FFFFFF" d="M123.74,25.931c-1.551,2.129-3.68,2.986-6.088,2.986c-5,0-8.472-3.611-8.472-8.611
			s3.472-8.611,8.472-8.611c2.222,0,4.213,0.741,5.648,2.569l-1.25,1.042c-1.019-1.527-2.755-2.222-4.398-2.222
			c-4.282,0-6.944,3.148-6.944,7.222c0,4.074,2.662,7.222,6.944,7.222c1.644,0,3.681-0.787,4.838-2.546L123.74,25.931z"/>
		<path fill="#FFFFFF" d="M133.605,11.695c5,0,8.472,3.611,8.472,8.611s-3.472,8.611-8.472,8.611c-5,0-8.472-3.611-8.472-8.611
			S128.606,11.695,133.605,11.695z M133.605,27.528c4.283,0,6.944-3.148,6.944-7.222c0-4.074-2.662-7.222-6.944-7.222
			c-4.282,0-6.944,3.148-6.944,7.222C126.662,24.38,129.323,27.528,133.605,27.528z"/>
		<path fill="#FFFFFF" d="M144.954,12.111h5.069c8.518,0,8.865,6.991,8.865,8.194s-0.347,8.194-8.865,8.194h-5.069V12.111z
			 M146.482,27.111h3.148c4.352,0,7.731-2.106,7.731-6.806c0-4.699-3.379-6.805-7.731-6.805h-3.148V27.111z"/>
		<path fill="#FFFFFF" d="M161.973,12.111h10.023V13.5H163.5v5.833h7.963v1.389H163.5v6.389h8.866V28.5h-10.394V12.111z"/>
		<path fill="#FFFFFF" d="M176.12,17.667c0.625,0,1.111,0.486,1.111,1.111s-0.486,1.111-1.111,1.111s-1.111-0.486-1.111-1.111
			S175.495,17.667,176.12,17.667z M176.12,26.417c0.625,0,1.111,0.486,1.111,1.111s-0.486,1.111-1.111,1.111
			s-1.111-0.486-1.111-1.111S175.495,26.417,176.12,26.417z"/>
	</g>
	<path fill="#FFFFFF" d="M361.153,24.799c-0.118-0.236-0.066-0.374,0.14-0.538c1.422-1.13,4.5-3.625,4.648-3.755
		c-0.347-0.19-0.648-0.363-0.96-0.523c-0.175-0.089-0.237-0.196-0.179-0.379c0.075-0.236,0.524-2.065,0.702-2.78
		c-0.153,0.029-1.56,0.331-2.146,0.473c-0.256,0.062-0.4,0.016-0.501-0.232c-0.191-0.477-0.424-0.939-0.657-1.449
		c-1.064,0.995-2.024,2.033-3.085,2.979c-0.041-0.02-0.082-0.04-0.122-0.061c0.468-1.948,0.937-3.896,1.415-5.887
		c-0.706,0.278-1.366,0.527-2.013,0.802c-0.216,0.092-0.307,0.034-0.391-0.137c-0.24-0.49-1.272-2.558-1.571-3.156
		c-0.253,0.453-1.424,2.534-1.781,3.174c-0.079,0.143-0.178,0.176-0.338,0.105c-0.26-0.115-1.543-0.632-1.976-0.809
		c0.462,2.08,0.981,4.084,1.386,6.107c-0.04,0.019-0.081,0.038-0.122,0.057c-1.066-1.021-2.133-2.042-3.23-3.093
		c-0.162,0.395-0.306,0.739-0.446,1.086c-0.257,0.634-0.141,0.563-0.851,0.455c-0.595-0.09-1.187-0.19-1.81-0.29
		c0.023,0.107,0.547,1.956,0.812,2.807c0.075,0.241,0.005,0.355-0.246,0.425c-0.327,0.09-0.648,0.197-1.001,0.306
		c0.072,0.074,3.048,2.604,4.497,3.83c0.439,0.372,0.44,0.372,0.185,0.871c-0.042,0.082-0.457,0.849-0.647,1.2
		c0.272-0.05,4.139-0.897,5.261-1.144c-0.051,1.606-0.102,3.213-0.151,4.819c0.274,0.009,0.55,0.009,0.824,0
		c-0.05-1.614-0.101-3.229-0.151-4.843c0.957,0.197,4.789,0.983,5.154,1.051C361.57,25.741,361.382,25.262,361.153,24.799z"/>
</g>
<g id="Layer_5" display="none">
	<rect display="inline" fill="#40D31C" width="383.709" height="40.155"/>
	<g display="inline">
		<path fill="#FFFFFF" d="M207.021,15.788c-0.749-0.894-1.836-1.401-3.237-1.401c-2.85,0-4.951,2.319-4.951,5.507
			s2.102,5.507,4.831,5.507c1.521,0,2.754-0.676,3.526-1.836l3.141,2.343c-1.426,2.029-3.841,2.971-6.184,2.971
			c-5.339,0-9.228-3.502-9.228-8.985s3.889-8.985,9.228-8.985c1.908,0,4.323,0.652,5.772,2.512L207.021,15.788z"/>
		<path fill="#FFFFFF" d="M217.65,11.344h3.116l7.439,17.102h-4.251l-1.474-3.623h-6.643l-1.425,3.623h-4.155L217.65,11.344z
			 M219.1,16.32l-2.077,5.314h4.179L219.1,16.32z"/>
		<path fill="#FFFFFF" d="M229.561,11.344h5.121l7.271,11.884H242V11.344h3.769v17.102h-4.928l-7.464-12.174h-0.049v12.174h-3.768
			V11.344z"/>
		<path fill="#FFFFFF" d="M254.514,11.344h3.116l7.439,17.102h-4.251l-1.474-3.623h-6.643l-1.425,3.623h-4.155L254.514,11.344z
			 M255.963,16.32l-2.077,5.314h4.179L255.963,16.32z"/>
		<path fill="#FFFFFF" d="M266.425,11.344h5.652c5.507,0,10.12,2.343,10.12,8.599c0,5.531-4.517,8.502-9.613,8.502h-6.159V11.344z
			 M270.192,24.967h1.957c3.502,0,6.135-1.329,6.135-5.218c0-3.357-2.681-4.927-5.869-4.927h-2.223V24.967z"/>
		<path fill="#FFFFFF" d="M290.025,11.344h3.116l7.439,17.102h-4.251l-1.474-3.623h-6.643l-1.425,3.623h-4.155L290.025,11.344z
			 M291.475,16.32l-2.077,5.314h4.179L291.475,16.32z"/>
		<path fill="#FFFFFF" d="M307.152,15.402l-3.43,3.019l-2.053-2.367l5.579-4.71h3.382v17.102h-3.479V15.402z"/>
		<path fill="#FFFFFF" d="M326.623,14.532h-6.788l-0.072,2.633c0.411-0.145,0.87-0.193,1.521-0.193c3.454,0,5.918,2.15,5.918,5.652
			c0,3.865-2.777,6.111-6.521,6.111c-2.947,0-5.024-1.474-5.772-4.372l3.792-0.87c0.193,1.232,1.087,2.053,2.343,2.053
			c1.546,0,2.536-1.087,2.536-2.561c0-2.247-2.053-2.826-3.938-2.826c-1.184,0-2.415,0.242-3.551,0.628l0.193-9.444h10.339V14.532z"
			/>
		<path fill="#FFFFFF" d="M336.118,25.015h-7.464v-3.043l6.98-10.628h3.961v10.628h2.198v3.043h-2.198v3.43h-3.478V25.015z
			 M336.118,16.078h-0.049l-3.792,5.894h3.841V16.078z"/>
	</g>
	<g display="inline">
		<polygon fill="#FFFFFF" points="365.249,14.039 357.661,23.423 352.207,18.959 350.101,21.533 355.57,26.01 358.144,28.117 
			360.235,25.53 367.835,16.129 		"/>
	</g>
	<g display="inline">
		<path fill="#FFFFFF" d="M39.48,25.931c-1.551,2.129-3.68,2.986-6.088,2.986c-5,0-8.472-3.611-8.472-8.611s3.472-8.611,8.472-8.611
			c2.222,0,4.213,0.741,5.648,2.569l-1.25,1.042c-1.019-1.527-2.755-2.222-4.398-2.222c-4.282,0-6.944,3.148-6.944,7.222
			c0,4.074,2.662,7.222,6.944,7.222c1.644,0,3.681-0.787,4.838-2.546L39.48,25.931z"/>
		<path fill="#FFFFFF" d="M49.346,11.695c5,0,8.472,3.611,8.472,8.611s-3.472,8.611-8.472,8.611c-5,0-8.472-3.611-8.472-8.611
			S44.347,11.695,49.346,11.695z M49.346,27.528c4.283,0,6.944-3.148,6.944-7.222c0-4.074-2.662-7.222-6.944-7.222
			c-4.282,0-6.944,3.148-6.944,7.222C42.402,24.38,45.064,27.528,49.346,27.528z"/>
		<path fill="#FFFFFF" d="M60.694,12.111h5.069c8.518,0,8.865,6.991,8.865,8.194S74.282,28.5,65.764,28.5h-5.069V12.111z
			 M62.222,27.111h3.148c4.352,0,7.731-2.106,7.731-6.806c0-4.699-3.379-6.805-7.731-6.805h-3.148V27.111z"/>
		<path fill="#FFFFFF" d="M77.713,12.111h10.023V13.5h-8.495v5.833h7.963v1.389h-7.963v6.389h8.866V28.5H77.713V12.111z"/>
		<path fill="#FFFFFF" d="M101.792,12.111h1.574l6.898,16.389h-1.713l-1.782-4.352h-8.68L96.236,28.5h-1.597L101.792,12.111z
			 M102.509,13.778l-3.819,8.981h7.523L102.509,13.778z"/>
		<path fill="#FFFFFF" d="M112.283,12.111h4.722c2.315,0,5.278,0.903,5.278,4.329c0,2.963-2.361,4.283-4.931,4.283h-3.542V28.5
			h-1.528V12.111z M113.811,19.333h3.472c1.736,0,3.472-0.741,3.472-2.894c0-2.106-1.806-2.939-3.564-2.939h-3.38V19.333z"/>
		<path fill="#FFFFFF" d="M125.226,12.111h4.722c2.315,0,5.278,0.903,5.278,4.329c0,2.963-2.361,4.283-4.931,4.283h-3.542V28.5
			h-1.528V12.111z M126.754,19.333h3.472c1.736,0,3.472-0.741,3.472-2.894c0-2.106-1.806-2.939-3.564-2.939h-3.38V19.333z"/>
		<path fill="#FFFFFF" d="M138.169,12.111h1.528v15h7.639V28.5h-9.167V12.111z"/>
		<path fill="#FFFFFF" d="M149.399,12.111h1.528V28.5h-1.528V12.111z"/>
		<path fill="#FFFFFF" d="M155.072,12.111h10.023V13.5H156.6v5.833h7.963v1.389H156.6v6.389h8.866V28.5h-10.394V12.111z"/>
		<path fill="#FFFFFF" d="M168.247,12.111h5.069c8.518,0,8.865,6.991,8.865,8.194s-0.347,8.194-8.865,8.194h-5.069V12.111z
			 M169.775,27.111h3.148c4.352,0,7.731-2.106,7.731-6.806c0-4.699-3.379-6.805-7.731-6.805h-3.148V27.111z"/>
		<path fill="#FFFFFF" d="M186.03,17.667c0.625,0,1.111,0.486,1.111,1.111s-0.486,1.111-1.111,1.111s-1.111-0.486-1.111-1.111
			S185.405,17.667,186.03,17.667z M186.03,26.417c0.625,0,1.111,0.486,1.111,1.111s-0.486,1.111-1.111,1.111
			s-1.111-0.486-1.111-1.111S185.405,26.417,186.03,26.417z"/>
	</g>
</g>
</svg>
