<?xml version="1.0" encoding="utf-8"?>
<!-- Generator: Adobe Illustrator 16.0.3, SVG Export Plug-In . SVG Version: 6.00 Build 0)  -->
<!DOCTYPE svg PUBLIC "-//W3C//DTD SVG 1.1//EN" "http://www.w3.org/Graphics/SVG/1.1/DTD/svg11.dtd">
<svg version="1.1" xmlns="http://www.w3.org/2000/svg" xmlns:xlink="http://www.w3.org/1999/xlink" x="0px" y="0px"
	 width="296.583px" height="40.155px" viewBox="0 0 296.583 40.155" enable-background="new 0 0 296.583 40.155"
	 xml:space="preserve">
<g id="Layer_1" display="none">
	<rect display="inline" width="296.583" height="40.155"/>
	<g display="inline">
		<g>
			<path fill="#FFFFFF" d="M161.442,18.123c-0.457-0.585-1.371-0.86-2.066-0.86c-0.806,0-1.922,0.366-1.922,1.335
				c0,2.36,5.965,0.842,5.965,5.379c0,2.891-2.324,4.263-4.995,4.263c-1.665,0-3.128-0.494-4.354-1.628l2.031-2.232
				c0.586,0.768,1.537,1.226,2.488,1.226c0.934,0,1.976-0.439,1.976-1.354c0-2.378-6.073-1.098-6.073-5.415
				c0-2.763,2.396-4.208,4.939-4.208c1.463,0,2.872,0.384,3.97,1.354L161.442,18.123z"/>
			<path fill="#FFFFFF" d="M165.265,14.958h4.813c2.689,0,4.922,0.86,4.922,3.934c0,3.037-2.068,3.97-4.795,3.97h-2.085v5.049
				h-2.854V14.958z M168.119,20.446h1.903c1.006,0,2.012-0.348,2.012-1.555c0-1.335-1.354-1.519-2.451-1.519h-1.464V20.446z"/>
			<path fill="#FFFFFF" d="M176.624,14.958h8.801v2.635h-5.945v2.415h5.615v2.634h-5.615v2.634h6.275v2.635h-9.131V14.958z"/>
			<path fill="#FFFFFF" d="M196.235,18.324c-0.566-0.677-1.391-1.061-2.451-1.061c-2.158,0-3.75,1.756-3.75,4.171
				s1.592,4.171,3.658,4.171c1.152,0,2.086-0.512,2.672-1.391l2.379,1.775c-1.08,1.537-2.91,2.25-4.684,2.25
				c-4.045,0-6.99-2.653-6.99-6.806s2.945-6.806,6.99-6.806c1.445,0,3.273,0.494,4.371,1.902L196.235,18.324z"/>
			<path fill="#FFFFFF" d="M199.985,14.958h2.854v12.953h-2.854V14.958z"/>
			<path fill="#FFFFFF" d="M209.425,14.958h2.359l5.635,12.953H214.2l-1.117-2.744h-5.031l-1.078,2.744h-3.148L209.425,14.958z
				 M210.522,18.727l-1.574,4.025h3.166L210.522,18.727z"/>
			<path fill="#FFFFFF" d="M218.552,14.958h2.855v10.318h5.287v2.635h-8.143V14.958z"/>
			<path fill="#FFFFFF" d="M227.954,14.958h2.855v12.953h-2.855V14.958z"/>
			<path fill="#FFFFFF" d="M239.536,18.123c-0.457-0.585-1.373-0.86-2.068-0.86c-0.805,0-1.92,0.366-1.92,1.335
				c0,2.36,5.963,0.842,5.963,5.379c0,2.891-2.322,4.263-4.994,4.263c-1.664,0-3.129-0.494-4.354-1.628l2.029-2.232
				c0.586,0.768,1.537,1.226,2.488,1.226c0.934,0,1.977-0.439,1.977-1.354c0-2.378-6.074-1.098-6.074-5.415
				c0-2.763,2.396-4.208,4.939-4.208c1.465,0,2.873,0.384,3.971,1.354L239.536,18.123z"/>
			<path fill="#FFFFFF" d="M245.864,17.482h-3.695v-2.525h10.244v2.525h-3.695v10.428h-2.854V17.482z"/>
		</g>
		<g>
			<path fill="#FFFFFF" d="M49.676,15.54h1.192l5.225,12.413h-1.297l-1.35-3.296h-6.574l-1.403,3.296h-1.209L49.676,15.54z
				 M50.219,16.802l-2.893,6.802h5.698L50.219,16.802z"/>
			<path fill="#FFFFFF" d="M57.619,15.54h3.577c1.753,0,3.997,0.684,3.997,3.279c0,2.244-1.788,3.244-3.734,3.244h-2.682v5.891
				h-1.157V15.54z M58.776,21.01h2.63c1.315,0,2.63-0.561,2.63-2.191c0-1.596-1.368-2.227-2.7-2.227h-2.56V21.01z"/>
			<path fill="#FFFFFF" d="M67.42,15.54h3.577c1.753,0,3.997,0.684,3.997,3.279c0,2.244-1.788,3.244-3.734,3.244h-2.682v5.891H67.42
				V15.54z M68.578,21.01h2.63c1.315,0,2.63-0.561,2.63-2.191c0-1.596-1.368-2.227-2.7-2.227h-2.56V21.01z"/>
			<path fill="#FFFFFF" d="M77.222,15.54h1.157v11.361h5.786v1.052h-6.943V15.54z"/>
			<path fill="#FFFFFF" d="M86.532,22.605l-4.558-7.066h1.385l3.752,5.891l3.84-5.891h1.297l-4.559,7.066v5.347h-1.157V22.605z"/>
			<path fill="#FFFFFF" d="M108.098,26.006c-1.174,1.613-2.788,2.262-4.611,2.262c-3.787,0-6.417-2.735-6.417-6.522
				s2.63-6.522,6.417-6.522c1.683,0,3.191,0.561,4.278,1.946l-0.947,0.789c-0.771-1.157-2.086-1.683-3.331-1.683
				c-3.244,0-5.26,2.385-5.26,5.47c0,3.086,2.016,5.47,5.26,5.47c1.245,0,2.788-0.596,3.664-1.929L108.098,26.006z"/>
			<path fill="#FFFFFF" d="M115.567,15.224c3.787,0,6.417,2.735,6.417,6.522s-2.63,6.522-6.417,6.522s-6.417-2.735-6.417-6.522
				S111.78,15.224,115.567,15.224z M115.567,27.216c3.244,0,5.26-2.384,5.26-5.47c0-3.085-2.016-5.47-5.26-5.47
				s-5.26,2.385-5.26,5.47C110.308,24.832,112.324,27.216,115.567,27.216z"/>
			<path fill="#FFFFFF" d="M124.16,15.54H128c6.452,0,6.715,5.295,6.715,6.207s-0.263,6.207-6.715,6.207h-3.839V15.54z
				 M125.317,26.901h2.384c3.296,0,5.855-1.596,5.855-5.155s-2.56-5.154-5.855-5.154h-2.384V26.901z"/>
			<path fill="#FFFFFF" d="M137.047,15.54h7.591v1.052h-6.435v4.418h6.031v1.052h-6.031v4.839h6.715v1.052h-7.872V15.54z"/>
			<path fill="#FFFFFF" d="M147.761,19.748c0.473,0,0.842,0.368,0.842,0.841c0,0.474-0.369,0.842-0.842,0.842
				c-0.474,0-0.842-0.368-0.842-0.842C146.919,20.116,147.287,19.748,147.761,19.748z M147.761,26.375
				c0.473,0,0.842,0.368,0.842,0.842c0,0.473-0.369,0.841-0.842,0.841c-0.474,0-0.842-0.368-0.842-0.841
				C146.919,26.743,147.287,26.375,147.761,26.375z"/>
		</g>
	</g>
</g>
<g id="Layer_5">
	<rect fill="#40D31C" width="296.583" height="40.155"/>
	<g>
		<g>
			<path fill="#FFFFFF" d="M34.472,26.333c-1.171,1.609-2.78,2.256-4.599,2.256c-3.777,0-6.4-2.728-6.4-6.505
				c0-3.777,2.623-6.505,6.4-6.505c1.679,0,3.183,0.56,4.267,1.941l-0.944,0.787c-0.77-1.154-2.081-1.679-3.322-1.679
				c-3.235,0-5.246,2.378-5.246,5.456s2.011,5.456,5.246,5.456c1.241,0,2.78-0.595,3.655-1.924L34.472,26.333z"/>
			<path fill="#FFFFFF" d="M41.925,15.579c3.777,0,6.4,2.728,6.4,6.505c0,3.777-2.623,6.505-6.4,6.505c-3.777,0-6.4-2.728-6.4-6.505
				C35.525,18.307,38.148,15.579,41.925,15.579z M41.925,27.54c3.235,0,5.246-2.378,5.246-5.456s-2.011-5.456-5.246-5.456
				s-5.246,2.378-5.246,5.456S38.69,27.54,41.925,27.54z"/>
			<path fill="#FFFFFF" d="M50.498,15.894h3.83c6.435,0,6.698,5.281,6.698,6.19c0,0.91-0.263,6.19-6.698,6.19h-3.83V15.894z
				 M51.652,27.225h2.378c3.287,0,5.84-1.591,5.84-5.141s-2.553-5.141-5.84-5.141h-2.378V27.225z"/>
			<path fill="#FFFFFF" d="M63.355,15.894h7.572v1.049h-6.418v4.406h6.016v1.049h-6.016v4.826h6.698v1.049h-7.852V15.894z"/>
			<path fill="#FFFFFF" d="M81.545,15.894h1.189l5.211,12.38h-1.294l-1.346-3.288h-6.558l-1.399,3.288h-1.207L81.545,15.894z
				 M82.087,17.152l-2.885,6.785h5.683L82.087,17.152z"/>
			<path fill="#FFFFFF" d="M89.471,15.894h3.567c1.749,0,3.987,0.682,3.987,3.27c0,2.238-1.784,3.235-3.725,3.235h-2.676v5.875
				h-1.154V15.894z M90.625,21.349h2.623c1.312,0,2.623-0.56,2.623-2.186c0-1.591-1.364-2.221-2.693-2.221h-2.553V21.349z"/>
			<path fill="#FFFFFF" d="M99.249,15.894h3.567c1.749,0,3.987,0.682,3.987,3.27c0,2.238-1.784,3.235-3.725,3.235h-2.676v5.875
				h-1.154V15.894z M100.403,21.349h2.623c1.312,0,2.623-0.56,2.623-2.186c0-1.591-1.364-2.221-2.693-2.221h-2.553V21.349z"/>
			<path fill="#FFFFFF" d="M109.027,15.894h1.154v11.331h5.771v1.049h-6.925V15.894z"/>
			<path fill="#FFFFFF" d="M117.511,15.894h1.154v12.38h-1.154V15.894z"/>
			<path fill="#FFFFFF" d="M121.796,15.894h7.572v1.049h-6.418v4.406h6.016v1.049h-6.016v4.826h6.698v1.049h-7.852V15.894z"/>
			<path fill="#FFFFFF" d="M131.749,15.894h3.83c6.435,0,6.698,5.281,6.698,6.19c0,0.91-0.263,6.19-6.698,6.19h-3.83V15.894z
				 M132.903,27.225h2.378c3.288,0,5.84-1.591,5.84-5.141s-2.553-5.141-5.84-5.141h-2.378V27.225z"/>
			<path fill="#FFFFFF" d="M145.184,20.09c0.472,0,0.839,0.367,0.839,0.839s-0.367,0.839-0.839,0.839s-0.839-0.367-0.839-0.839
				S144.712,20.09,145.184,20.09z M145.184,26.7c0.472,0,0.839,0.367,0.839,0.839s-0.367,0.839-0.839,0.839
				s-0.839-0.367-0.839-0.839S144.712,26.7,145.184,26.7z"/>
		</g>
		<g>
			<polygon fill="#FFFFFF" points="271.416,12.393 263.828,21.778 258.374,17.315 256.268,19.887 261.737,24.366 264.311,26.471 
				266.402,23.885 274.002,14.485 			"/>
		</g>
		<g>
			<path fill="#FFFFFF" d="M159.839,18.683c-0.457-0.585-1.372-0.86-2.067-0.86c-0.806,0-1.921,0.366-1.921,1.335
				c0,2.36,5.964,0.842,5.964,5.379c0,2.891-2.323,4.263-4.995,4.263c-1.664,0-3.128-0.494-4.354-1.628l2.031-2.232
				c0.585,0.768,1.536,1.226,2.488,1.226c0.933,0,1.975-0.439,1.975-1.354c0-2.378-6.073-1.098-6.073-5.415
				c0-2.763,2.396-4.208,4.939-4.208c1.464,0,2.872,0.384,3.97,1.354L159.839,18.683z"/>
			<path fill="#FFFFFF" d="M163.661,15.518h4.812c2.689,0,4.922,0.86,4.922,3.934c0,3.037-2.067,3.97-4.794,3.97h-2.086v5.049
				h-2.854V15.518z M166.515,21.007h1.903c1.006,0,2.013-0.348,2.013-1.555c0-1.335-1.354-1.519-2.452-1.519h-1.464V21.007z"/>
			<path fill="#FFFFFF" d="M175.021,15.518h8.801v2.635h-5.946v2.415h5.616v2.634h-5.616v2.634h6.275v2.635h-9.13V15.518z"/>
			<path fill="#FFFFFF" d="M194.632,18.884c-0.567-0.677-1.391-1.061-2.452-1.061c-2.158,0-3.75,1.756-3.75,4.171
				s1.592,4.171,3.659,4.171c1.152,0,2.086-0.512,2.671-1.391l2.379,1.775c-1.08,1.537-2.909,2.25-4.684,2.25
				c-4.044,0-6.989-2.653-6.989-6.806s2.945-6.806,6.989-6.806c1.445,0,3.274,0.494,4.372,1.902L194.632,18.884z"/>
			<path fill="#FFFFFF" d="M198.381,15.518h2.854v12.953h-2.854V15.518z"/>
			<path fill="#FFFFFF" d="M207.82,15.518h2.36l5.635,12.953h-3.22l-1.116-2.744h-5.031l-1.079,2.744h-3.147L207.82,15.518z
				 M208.918,19.287l-1.573,4.025h3.165L208.918,19.287z"/>
			<path fill="#FFFFFF" d="M216.948,15.518h2.854v10.318h5.287v2.635h-8.142V15.518z"/>
			<path fill="#FFFFFF" d="M226.351,15.518h2.854v12.953h-2.854V15.518z"/>
			<path fill="#FFFFFF" d="M237.932,18.683c-0.457-0.585-1.372-0.86-2.067-0.86c-0.805,0-1.921,0.366-1.921,1.335
				c0,2.36,5.964,0.842,5.964,5.379c0,2.891-2.323,4.263-4.994,4.263c-1.665,0-3.129-0.494-4.354-1.628l2.03-2.232
				c0.586,0.768,1.537,1.226,2.488,1.226c0.934,0,1.977-0.439,1.977-1.354c0-2.378-6.074-1.098-6.074-5.415
				c0-2.763,2.396-4.208,4.939-4.208c1.464,0,2.872,0.384,3.97,1.354L237.932,18.683z"/>
			<path fill="#FFFFFF" d="M244.26,18.043h-3.695v-2.525h10.245v2.525h-3.695v10.428h-2.854V18.043z"/>
		</g>
	</g>
	<g>
	</g>
	<g>
	</g>
	<g>
	</g>
	<g>
	</g>
	<g>
	</g>
	<g>
	</g>
</g>
</svg>
