<?xml version="1.0" encoding="utf-8"?>
<!-- Generator: Adobe Illustrator 16.0.3, SVG Export Plug-In . SVG Version: 6.00 Build 0)  -->
<!DOCTYPE svg PUBLIC "-//W3C//DTD SVG 1.1//EN" "http://www.w3.org/Graphics/SVG/1.1/DTD/svg11.dtd">
<svg version="1.1" xmlns="http://www.w3.org/2000/svg" xmlns:xlink="http://www.w3.org/1999/xlink" x="0px" y="0px"
	 width="351.625px" height="40.155px" viewBox="0 0 351.625 40.155" enable-background="new 0 0 351.625 40.155"
	 xml:space="preserve">
<g id="Layer_1">
	<rect fill="#0097A6" width="351.625" height="40.155"/>
	<g>
		<path fill="#FFFFFF" d="M181.146,11.344h6.377c2.995,0,6.256,0.628,6.256,4.348c0,1.908-1.184,3.212-2.947,3.768v0.048
			c2.247,0.29,3.744,1.957,3.744,4.179c0,3.575-3.382,4.758-6.425,4.758h-7.005V11.344z M184.914,18.18h2.729
			c1.16,0,2.367-0.483,2.367-1.86c0-1.425-1.353-1.788-2.536-1.788h-2.561V18.18z M184.914,25.257h3.382
			c1.184,0,2.513-0.507,2.513-2.005c0-1.618-1.812-1.884-3.044-1.884h-2.851V25.257z"/>
		<path fill="#FFFFFF" d="M204.746,10.909c5.339,0,9.228,3.502,9.228,8.985s-3.889,8.985-9.228,8.985
			c-5.338,0-9.227-3.502-9.227-8.985S199.408,10.909,204.746,10.909z M204.746,25.402c3.213,0,5.314-2.319,5.314-5.507
			s-2.102-5.507-5.314-5.507c-3.212,0-5.313,2.319-5.313,5.507S201.534,25.402,204.746,25.402z"/>
		<path fill="#FFFFFF" d="M216.174,11.344h5.121l7.271,11.884h0.048V11.344h3.769v17.102h-4.928l-7.464-12.174h-0.049v12.174h-3.768
			V11.344z"/>
		<path fill="#FFFFFF" d="M249.92,21.851c0,4.034-2.464,7.029-7.198,7.029c-4.758,0-7.222-2.995-7.222-7.029V11.344h3.768v10.362
			c0,2.102,1.449,3.696,3.454,3.696c1.981,0,3.431-1.594,3.431-3.696V11.344h3.768V21.851z"/>
		<path fill="#FFFFFF" d="M261.492,15.522c-0.604-0.773-1.812-1.135-2.729-1.135c-1.063,0-2.536,0.483-2.536,1.763
			c0,3.116,7.874,1.111,7.874,7.102c0,3.816-3.067,5.628-6.594,5.628c-2.198,0-4.131-0.652-5.749-2.149l2.681-2.947
			c0.773,1.014,2.029,1.618,3.285,1.618c1.232,0,2.609-0.58,2.609-1.788c0-3.14-8.02-1.449-8.02-7.15
			c0-3.647,3.164-5.555,6.521-5.555c1.933,0,3.792,0.507,5.241,1.787L261.492,15.522z"/>
		<path fill="#FFFFFF" d="M282.025,27.238c-2.223,1.159-4.662,1.642-7.174,1.642c-5.339,0-9.228-3.502-9.228-8.985
			s3.889-8.985,9.228-8.985c2.705,0,5.096,0.604,6.812,2.198l-2.657,2.899c-1.015-1.063-2.246-1.619-4.154-1.619
			c-3.213,0-5.314,2.319-5.314,5.507s2.102,5.507,5.314,5.507c1.642,0,2.85-0.459,3.55-0.845v-2.778h-3.067V18.3h6.691V27.238z"/>
		<path fill="#FFFFFF" d="M284.925,11.344h3.769v17.102h-3.769V11.344z"/>
		<path fill="#FFFFFF" d="M291.906,11.344h11.474v3.479h-7.705V18.3h7.125v3.479h-7.125v6.667h-3.769V11.344z"/>
		<path fill="#FFFFFF" d="M309.033,14.677h-4.879v-3.333h13.526v3.333h-4.879v13.768h-3.769V14.677z"/>
	</g>
	<g>
		<path fill="#FFFFFF" d="M41.755,11.111h1.574L50.227,27.5h-1.713l-1.782-4.352h-8.68L36.2,27.5h-1.597L41.755,11.111z
			 M42.473,12.778l-3.819,8.981h7.523L42.473,12.778z"/>
		<path fill="#FFFFFF" d="M52.246,11.111h4.722c2.315,0,5.278,0.903,5.278,4.329c0,2.963-2.361,4.283-4.931,4.283h-3.542V27.5
			h-1.528V11.111z M53.773,18.333h3.472c1.736,0,3.472-0.741,3.472-2.894c0-2.106-1.806-2.939-3.564-2.939h-3.38V18.333z"/>
		<path fill="#FFFFFF" d="M65.189,11.111h4.722c2.315,0,5.278,0.903,5.278,4.329c0,2.963-2.361,4.283-4.931,4.283h-3.542V27.5
			h-1.528V11.111z M66.717,18.333h3.472c1.736,0,3.472-0.741,3.472-2.894c0-2.106-1.806-2.939-3.564-2.939h-3.38V18.333z"/>
		<path fill="#FFFFFF" d="M78.132,11.111h1.528v15h7.639V27.5h-9.167V11.111z"/>
		<path fill="#FFFFFF" d="M90.427,20.44l-6.018-9.329h1.829l4.954,7.778l5.069-7.778h1.713l-6.019,9.329v7.06h-1.528V20.44z"/>
		<path fill="#FFFFFF" d="M118.904,24.931c-1.551,2.129-3.68,2.986-6.088,2.986c-5,0-8.472-3.611-8.472-8.611
			s3.472-8.611,8.472-8.611c2.222,0,4.213,0.741,5.648,2.569l-1.25,1.042c-1.019-1.527-2.755-2.222-4.398-2.222
			c-4.282,0-6.944,3.148-6.944,7.222c0,4.074,2.662,7.222,6.944,7.222c1.644,0,3.681-0.787,4.838-2.546L118.904,24.931z"/>
		<path fill="#FFFFFF" d="M128.77,10.695c5,0,8.472,3.611,8.472,8.611s-3.472,8.611-8.472,8.611c-5,0-8.472-3.611-8.472-8.611
			S123.771,10.695,128.77,10.695z M128.77,26.528c4.283,0,6.944-3.148,6.944-7.222c0-4.074-2.662-7.222-6.944-7.222
			c-4.282,0-6.944,3.148-6.944,7.222C121.826,23.38,124.488,26.528,128.77,26.528z"/>
		<path fill="#FFFFFF" d="M140.119,11.111h5.069c8.518,0,8.865,6.991,8.865,8.194s-0.347,8.194-8.865,8.194h-5.069V11.111z
			 M141.646,26.111h3.148c4.352,0,7.731-2.106,7.731-6.806c0-4.699-3.38-6.805-7.731-6.805h-3.148V26.111z"/>
		<path fill="#FFFFFF" d="M157.137,11.111h10.023V12.5h-8.495v5.833h7.963v1.389h-7.963v6.389h8.866V27.5h-10.394V11.111z"/>
		<path fill="#FFFFFF" d="M171.285,16.667c0.625,0,1.111,0.486,1.111,1.111s-0.486,1.111-1.111,1.111s-1.111-0.486-1.111-1.111
			S170.66,16.667,171.285,16.667z M171.285,25.417c0.625,0,1.111,0.486,1.111,1.111s-0.486,1.111-1.111,1.111
			s-1.111-0.486-1.111-1.111S170.66,25.417,171.285,25.417z"/>
	</g>
</g>
<g id="Layer_3" display="none">
	<rect display="inline" fill="#40D31C" width="351.625" height="40.155"/>
	<g display="inline">
		<path fill="#FFFFFF" d="M180.146,11.344h6.377c2.995,0,6.256,0.628,6.256,4.348c0,1.908-1.184,3.212-2.947,3.768v0.048
			c2.247,0.29,3.744,1.957,3.744,4.179c0,3.575-3.382,4.758-6.425,4.758h-7.005V11.344z M183.914,18.18h2.729
			c1.16,0,2.367-0.483,2.367-1.86c0-1.425-1.353-1.788-2.536-1.788h-2.561V18.18z M183.914,25.257h3.382
			c1.184,0,2.513-0.507,2.513-2.005c0-1.618-1.812-1.884-3.044-1.884h-2.851V25.257z"/>
		<path fill="#FFFFFF" d="M203.746,10.909c5.339,0,9.228,3.502,9.228,8.985s-3.889,8.985-9.228,8.985
			c-5.338,0-9.227-3.502-9.227-8.985S198.408,10.909,203.746,10.909z M203.746,25.402c3.213,0,5.314-2.319,5.314-5.507
			s-2.102-5.507-5.314-5.507c-3.212,0-5.313,2.319-5.313,5.507S200.534,25.402,203.746,25.402z"/>
		<path fill="#FFFFFF" d="M215.174,11.344h5.121l7.271,11.884h0.048V11.344h3.769v17.102h-4.928l-7.464-12.174h-0.049v12.174h-3.768
			V11.344z"/>
		<path fill="#FFFFFF" d="M248.92,21.851c0,4.034-2.464,7.029-7.198,7.029c-4.758,0-7.222-2.995-7.222-7.029V11.344h3.768v10.362
			c0,2.102,1.449,3.696,3.454,3.696c1.981,0,3.431-1.594,3.431-3.696V11.344h3.768V21.851z"/>
		<path fill="#FFFFFF" d="M260.492,15.522c-0.604-0.773-1.812-1.135-2.729-1.135c-1.063,0-2.536,0.483-2.536,1.763
			c0,3.116,7.874,1.111,7.874,7.102c0,3.816-3.067,5.628-6.594,5.628c-2.198,0-4.131-0.652-5.749-2.149l2.681-2.947
			c0.773,1.014,2.029,1.618,3.285,1.618c1.232,0,2.609-0.58,2.609-1.788c0-3.14-8.02-1.449-8.02-7.15
			c0-3.647,3.164-5.555,6.521-5.555c1.933,0,3.792,0.507,5.241,1.787L260.492,15.522z"/>
		<path fill="#FFFFFF" d="M281.025,27.238c-2.223,1.159-4.662,1.642-7.174,1.642c-5.339,0-9.228-3.502-9.228-8.985
			s3.889-8.985,9.228-8.985c2.705,0,5.096,0.604,6.812,2.198l-2.657,2.899c-1.015-1.063-2.246-1.619-4.154-1.619
			c-3.213,0-5.314,2.319-5.314,5.507s2.102,5.507,5.314,5.507c1.642,0,2.85-0.459,3.55-0.845v-2.778h-3.067V18.3h6.691V27.238z"/>
		<path fill="#FFFFFF" d="M283.925,11.344h3.769v17.102h-3.769V11.344z"/>
		<path fill="#FFFFFF" d="M290.906,11.344h11.474v3.479h-7.705V18.3h7.125v3.479h-7.125v6.667h-3.769V11.344z"/>
		<path fill="#FFFFFF" d="M308.033,14.677h-4.879v-3.333h13.526v3.333h-4.879v13.768h-3.769V14.677z"/>
	</g>
	<g display="inline">
		<path fill="#FFFFFF" d="M24.48,24.931c-1.551,2.129-3.68,2.986-6.088,2.986c-5,0-8.472-3.611-8.472-8.611s3.472-8.611,8.472-8.611
			c2.222,0,4.213,0.741,5.648,2.569l-1.25,1.042c-1.019-1.527-2.755-2.222-4.398-2.222c-4.282,0-6.944,3.148-6.944,7.222
			c0,4.074,2.662,7.222,6.944,7.222c1.644,0,3.681-0.787,4.838-2.546L24.48,24.931z"/>
		<path fill="#FFFFFF" d="M34.346,10.695c5,0,8.472,3.611,8.472,8.611s-3.472,8.611-8.472,8.611c-5,0-8.472-3.611-8.472-8.611
			S29.347,10.695,34.346,10.695z M34.346,26.528c4.283,0,6.944-3.148,6.944-7.222c0-4.074-2.662-7.222-6.944-7.222
			c-4.282,0-6.944,3.148-6.944,7.222C27.402,23.38,30.064,26.528,34.346,26.528z"/>
		<path fill="#FFFFFF" d="M45.695,11.111h5.069c8.518,0,8.865,6.991,8.865,8.194S59.282,27.5,50.764,27.5h-5.069V11.111z
			 M47.223,26.111h3.148c4.352,0,7.731-2.106,7.731-6.806c0-4.699-3.38-6.805-7.731-6.805h-3.148V26.111z"/>
		<path fill="#FFFFFF" d="M62.713,11.111h10.023V12.5h-8.495v5.833h7.963v1.389h-7.963v6.389h8.866V27.5H62.713V11.111z"/>
		<path fill="#FFFFFF" d="M86.793,11.111h1.574L95.265,27.5h-1.713l-1.782-4.352h-8.68L81.237,27.5H79.64L86.793,11.111z
			 M87.51,12.778l-3.819,8.981h7.523L87.51,12.778z"/>
		<path fill="#FFFFFF" d="M97.283,11.111h4.722c2.315,0,5.278,0.903,5.278,4.329c0,2.963-2.361,4.283-4.931,4.283h-3.542V27.5
			h-1.528V11.111z M98.811,18.333h3.472c1.736,0,3.472-0.741,3.472-2.894c0-2.106-1.806-2.939-3.564-2.939h-3.38V18.333z"/>
		<path fill="#FFFFFF" d="M110.227,11.111h4.722c2.315,0,5.278,0.903,5.278,4.329c0,2.963-2.361,4.283-4.931,4.283h-3.542V27.5
			h-1.528V11.111z M111.755,18.333h3.472c1.736,0,3.472-0.741,3.472-2.894c0-2.106-1.806-2.939-3.564-2.939h-3.38V18.333z"/>
		<path fill="#FFFFFF" d="M123.17,11.111h1.528v15h7.639V27.5h-9.167V11.111z"/>
		<path fill="#FFFFFF" d="M134.4,11.111h1.528V27.5H134.4V11.111z"/>
		<path fill="#FFFFFF" d="M140.073,11.111h10.023V12.5h-8.495v5.833h7.963v1.389h-7.963v6.389h8.866V27.5h-10.394V11.111z"/>
		<path fill="#FFFFFF" d="M153.249,11.111h5.069c8.518,0,8.865,6.991,8.865,8.194s-0.347,8.194-8.865,8.194h-5.069V11.111z
			 M154.776,26.111h3.148c4.352,0,7.731-2.106,7.731-6.806c0-4.699-3.38-6.805-7.731-6.805h-3.148V26.111z"/>
		<path fill="#FFFFFF" d="M171.031,16.667c0.625,0,1.111,0.486,1.111,1.111s-0.486,1.111-1.111,1.111s-1.111-0.486-1.111-1.111
			S170.406,16.667,171.031,16.667z M171.031,25.417c0.625,0,1.111,0.486,1.111,1.111s-0.486,1.111-1.111,1.111
			s-1.111-0.486-1.111-1.111S170.406,25.417,171.031,25.417z"/>
	</g>
	<g display="inline">
		<polygon fill="#FFFFFF" points="339.249,12.883 331.661,22.268 326.207,17.805 324.101,20.377 329.57,24.856 332.144,26.961 
			334.235,24.375 341.835,14.975 		"/>
	</g>
</g>
</svg>
