<?xml version="1.0" encoding="utf-8"?>
<!-- Generator: Adobe Illustrator 16.0.3, SVG Export Plug-In . SVG Version: 6.00 Build 0)  -->
<!DOCTYPE svg PUBLIC "-//W3C//DTD SVG 1.1//EN" "http://www.w3.org/Graphics/SVG/1.1/DTD/svg11.dtd">
<svg version="1.1" xmlns="http://www.w3.org/2000/svg" xmlns:xlink="http://www.w3.org/1999/xlink" x="0px" y="0px"
	 width="296.583px" height="40.155px" viewBox="0 0 296.583 40.155" enable-background="new 0 0 296.583 40.155"
	 xml:space="preserve">
<g id="Layer_1">
	<rect width="296.583" height="40.155"/>
	<g>
		<path fill="#FFFFFF" d="M22.496,13.571h1.36l5.961,14.163h-1.48l-1.541-3.761h-7.501l-1.6,3.761h-1.38L22.496,13.571z
			 M23.116,15.011l-3.301,7.762h6.501L23.116,15.011z"/>
		<path fill="#FFFFFF" d="M31.555,13.571h4.081c2,0,4.561,0.78,4.561,3.741c0,2.561-2.04,3.701-4.261,3.701h-3.061v6.722h-1.32
			V13.571z M32.875,19.812h3c1.5,0,3.001-0.64,3.001-2.5c0-1.82-1.561-2.541-3.081-2.541h-2.92V19.812z"/>
		<path fill="#FFFFFF" d="M42.734,13.571h4.081c2,0,4.561,0.78,4.561,3.741c0,2.561-2.04,3.701-4.261,3.701h-3.061v6.722h-1.32
			V13.571z M44.055,19.812h3c1.5,0,3.001-0.64,3.001-2.5c0-1.82-1.561-2.541-3.081-2.541h-2.92V19.812z"/>
		<path fill="#FFFFFF" d="M53.915,13.571h1.32v12.963h6.602v1.2h-7.922V13.571z"/>
		<path fill="#FFFFFF" d="M64.535,21.633l-5.201-8.062h1.581l4.281,6.722l4.381-6.722h1.48l-5.201,8.062v6.101h-1.32V21.633z"/>
		<path fill="#FFFFFF" d="M89.137,25.513c-1.34,1.841-3.181,2.581-5.261,2.581c-4.321,0-7.322-3.121-7.322-7.441
			s3.001-7.441,7.322-7.441c1.92,0,3.641,0.64,4.881,2.22l-1.08,0.9c-0.88-1.32-2.38-1.92-3.801-1.92
			c-3.701,0-6.001,2.721-6.001,6.241c0,3.521,2.301,6.241,6.001,6.241c1.42,0,3.181-0.68,4.181-2.2L89.137,25.513z"/>
		<path fill="#FFFFFF" d="M97.655,13.211c4.321,0,7.322,3.121,7.322,7.441s-3.001,7.441-7.322,7.441s-7.322-3.121-7.322-7.441
			S93.334,13.211,97.655,13.211z M97.655,26.894c3.701,0,6.001-2.72,6.001-6.241c0-3.521-2.301-6.241-6.001-6.241
			s-6.001,2.721-6.001,6.241C91.654,24.173,93.955,26.894,97.655,26.894z"/>
		<path fill="#FFFFFF" d="M107.454,13.571h4.381c7.362,0,7.662,6.042,7.662,7.082s-0.3,7.082-7.662,7.082h-4.381V13.571z
			 M108.774,26.534h2.721c3.761,0,6.682-1.82,6.682-5.881s-2.921-5.881-6.682-5.881h-2.721V26.534z"/>
		<path fill="#FFFFFF" d="M122.154,13.571h8.662v1.2h-7.341v5.041h6.881v1.2h-6.881v5.521h7.662v1.2h-8.982V13.571z"/>
		<path fill="#FFFFFF" d="M134.374,18.372c0.54,0,0.96,0.42,0.96,0.96s-0.42,0.96-0.96,0.96s-0.96-0.42-0.96-0.96
			S133.834,18.372,134.374,18.372z M134.374,25.934c0.54,0,0.96,0.42,0.96,0.96s-0.42,0.96-0.96,0.96s-0.96-0.42-0.96-0.96
			S133.834,25.934,134.374,25.934z"/>
	</g>
	<g>
		<path fill="#FFFFFF" d="M145.978,16.069h-4.041v-2.761h11.203v2.761h-4.041v11.402h-3.121V16.069z"/>
		<path fill="#FFFFFF" d="M154.417,13.308h5.481c2.9,0,5.341,1,5.341,4.301c0,1.98-1.061,3.521-3.061,3.881l3.601,5.981h-3.741
			l-2.96-5.661h-1.541v5.661h-3.12V13.308z M157.537,19.169h1.841c1.141,0,2.62-0.04,2.62-1.581c0-1.42-1.28-1.64-2.42-1.64h-2.041
			V19.169z"/>
		<path fill="#FFFFFF" d="M167.037,13.308h3.12v14.163h-3.12V13.308z"/>
		<path fill="#FFFFFF" d="M172.697,13.308h5.261c2.94,0,5.382,0.94,5.382,4.301c0,3.321-2.261,4.341-5.241,4.341h-2.281v5.521h-3.12
			V13.308z M175.817,19.31h2.081c1.1,0,2.2-0.38,2.2-1.701c0-1.46-1.48-1.66-2.681-1.66h-1.601V19.31z"/>
		<path fill="#FFFFFF" d="M185.117,13.308h3.12V24.59h5.781v2.881h-8.901V13.308z"/>
		<path fill="#FFFFFF" d="M195.557,13.308h9.622v2.881h-6.502v2.641h6.142v2.88h-6.142v2.88h6.861v2.881h-9.981V13.308z"/>
		<path fill="#FFFFFF" d="M210.477,16.069h-4.041v-2.761h11.203v2.761h-4.041v11.402h-3.121V16.069z"/>
		<path fill="#FFFFFF" d="M218.916,13.308h3.12v5.281h6.062v-5.281h3.121v14.163h-3.121V21.35h-6.062v6.121h-3.12V13.308z"/>
		<path fill="#FFFFFF" d="M233.796,13.308h5.481c2.9,0,5.341,1,5.341,4.301c0,1.98-1.061,3.521-3.061,3.881l3.601,5.981h-3.741
			l-2.96-5.661h-1.541v5.661h-3.12V13.308z M236.916,19.169h1.841c1.141,0,2.62-0.04,2.62-1.581c0-1.42-1.28-1.64-2.42-1.64h-2.041
			V19.169z"/>
		<path fill="#FFFFFF" d="M246.576,13.308h9.622v2.881h-6.502v2.641h6.142v2.88h-6.142v2.88h6.861v2.881h-9.981V13.308z"/>
		<path fill="#FFFFFF" d="M263.417,13.308h2.58l6.161,14.163h-3.521l-1.22-3h-5.502l-1.18,3h-3.44L263.417,13.308z M264.617,17.429
			l-1.721,4.401h3.461L264.617,17.429z"/>
		<path fill="#FFFFFF" d="M274.176,16.069h-4.041v-2.761h11.203v2.761h-4.041v11.402h-3.121V16.069z"/>
	</g>
</g>
<g id="Layer_5" display="none">
	<rect display="inline" fill="#40D31C" width="296.583" height="40.155"/>
	<g display="inline">
		<path fill="#FFFFFF" d="M152.457,15.338h-3.946v-2.695h10.938v2.695h-3.945v11.133h-3.047V15.338z"/>
		<path fill="#FFFFFF" d="M160.697,12.643h5.352c2.832,0,5.215,0.977,5.215,4.199c0,1.934-1.035,3.438-2.988,3.789l3.516,5.84
			h-3.652l-2.891-5.527h-1.504v5.527h-3.047V12.643z M163.744,18.366h1.797c1.113,0,2.559-0.039,2.559-1.543
			c0-1.387-1.25-1.602-2.363-1.602h-1.992V18.366z"/>
		<path fill="#FFFFFF" d="M173.021,12.643h3.047v13.828h-3.047V12.643z"/>
		<path fill="#FFFFFF" d="M178.547,12.643h5.137c2.871,0,5.254,0.918,5.254,4.199c0,3.242-2.207,4.238-5.117,4.238h-2.227v5.391
			h-3.047V12.643z M181.594,18.502h2.031c1.074,0,2.148-0.371,2.148-1.66c0-1.426-1.445-1.621-2.617-1.621h-1.563V18.502z"/>
		<path fill="#FFFFFF" d="M190.675,12.643h3.047v11.016h5.645v2.813h-8.691V12.643z"/>
		<path fill="#FFFFFF" d="M200.868,12.643h9.395v2.813h-6.348v2.578h5.996v2.813h-5.996v2.813h6.699v2.813h-9.746V12.643z"/>
		<path fill="#FFFFFF" d="M215.438,15.338h-3.945v-2.695h10.938v2.695h-3.945v11.133h-3.047V15.338z"/>
		<path fill="#FFFFFF" d="M223.679,12.643h3.047v5.156h5.918v-5.156h3.047v13.828h-3.047v-5.977h-5.918v5.977h-3.047V12.643z"/>
		<path fill="#FFFFFF" d="M238.208,12.643h5.352c2.832,0,5.215,0.977,5.215,4.199c0,1.934-1.035,3.438-2.988,3.789l3.516,5.84
			h-3.652l-2.891-5.527h-1.504v5.527h-3.047V12.643z M241.255,18.366h1.797c1.113,0,2.559-0.039,2.559-1.543
			c0-1.387-1.25-1.602-2.363-1.602h-1.992V18.366z"/>
		<path fill="#FFFFFF" d="M250.687,12.643h9.395v2.813h-6.348v2.578h5.996v2.813h-5.996v2.813h6.699v2.813h-9.746V12.643z"/>
		<path fill="#FFFFFF" d="M267.131,12.643h2.52l6.016,13.828h-3.438l-1.191-2.93h-5.371l-1.152,2.93h-3.359L267.131,12.643z
			 M268.303,16.667l-1.68,4.297h3.379L268.303,16.667z"/>
		<path fill="#FFFFFF" d="M277.638,15.338h-3.945v-2.695h10.938v2.695h-3.945v11.133h-3.047V15.338z"/>
	</g>
	<g display="inline">
		<path fill="#FFFFFF" d="M25.702,24.236c-1.254,1.722-2.977,2.415-4.924,2.415c-4.044,0-6.852-2.92-6.852-6.965
			c0-4.044,2.808-6.965,6.852-6.965c1.797,0,3.408,0.599,4.568,2.079l-1.011,0.842c-0.824-1.236-2.228-1.797-3.558-1.797
			c-3.463,0-5.617,2.546-5.617,5.841c0,3.295,2.153,5.842,5.617,5.842c1.33,0,2.977-0.637,3.913-2.06L25.702,24.236z"/>
		<path fill="#FFFFFF" d="M33.675,12.721c4.044,0,6.853,2.921,6.853,6.965c0,4.044-2.808,6.965-6.853,6.965
			c-4.044,0-6.852-2.92-6.852-6.965C26.823,15.642,29.631,12.721,33.675,12.721z M33.675,25.528c3.464,0,5.617-2.546,5.617-5.842
			c0-3.295-2.153-5.841-5.617-5.841c-3.463,0-5.617,2.546-5.617,5.841C28.058,22.981,30.211,25.528,33.675,25.528z"/>
		<path fill="#FFFFFF" d="M42.846,13.059h4.101c6.89,0,7.17,5.654,7.17,6.627s-0.281,6.628-7.17,6.628h-4.101V13.059z M44.082,25.19
			h2.546c3.52,0,6.253-1.704,6.253-5.504c0-3.8-2.734-5.504-6.253-5.504h-2.546V25.19z"/>
		<path fill="#FFFFFF" d="M56.604,13.059h8.107v1.123H57.84V18.9h6.44v1.123h-6.44v5.167h7.171v1.124h-8.407V13.059z"/>
		<path fill="#FFFFFF" d="M76.073,13.059h1.273l5.58,13.255H81.54l-1.441-3.52h-7.021l-1.498,3.52h-1.292L76.073,13.059z
			 M76.653,14.406l-3.089,7.265h6.085L76.653,14.406z"/>
		<path fill="#FFFFFF" d="M84.551,13.059h3.819c1.873,0,4.269,0.73,4.269,3.501c0,2.396-1.91,3.463-3.988,3.463h-2.865v6.291h-1.236
			V13.059z M85.787,18.9h2.809c1.404,0,2.808-0.599,2.808-2.34c0-1.704-1.46-2.378-2.883-2.378h-2.733V18.9z"/>
		<path fill="#FFFFFF" d="M95.015,13.059h3.819c1.873,0,4.269,0.73,4.269,3.501c0,2.396-1.91,3.463-3.988,3.463H96.25v6.291h-1.236
			V13.059z M96.25,18.9h2.809c1.404,0,2.808-0.599,2.808-2.34c0-1.704-1.46-2.378-2.883-2.378H96.25V18.9z"/>
		<path fill="#FFFFFF" d="M105.479,13.059h1.236V25.19h6.178v1.124h-7.414V13.059z"/>
		<path fill="#FFFFFF" d="M114.557,13.059h1.236v13.255h-1.236V13.059z"/>
		<path fill="#FFFFFF" d="M119.143,13.059h8.107v1.123h-6.871V18.9h6.44v1.123h-6.44v5.167h7.171v1.124h-8.407V13.059z"/>
		<path fill="#FFFFFF" d="M129.794,13.059h4.101c6.89,0,7.171,5.654,7.171,6.627s-0.281,6.628-7.171,6.628h-4.101V13.059z
			 M131.03,25.19h2.546c3.52,0,6.253-1.704,6.253-5.504c0-3.8-2.733-5.504-6.253-5.504h-2.546V25.19z"/>
		<path fill="#FFFFFF" d="M144.171,17.552c0.505,0,0.898,0.393,0.898,0.899c0,0.505-0.394,0.898-0.898,0.898
			c-0.506,0-0.899-0.393-0.899-0.898C143.271,17.945,143.665,17.552,144.171,17.552z M144.171,24.629
			c0.505,0,0.898,0.393,0.898,0.899c0,0.505-0.394,0.898-0.898,0.898c-0.506,0-0.899-0.393-0.899-0.898
			C143.271,25.022,143.665,24.629,144.171,24.629z"/>
	</g>
	<g display="inline">
		<polygon fill="#FFFFFF" points="330.627,14.393 323.039,23.778 317.585,19.315 315.479,21.887 320.948,26.366 323.521,28.471 
			325.613,25.885 333.213,16.485 		"/>
	</g>
</g>
</svg>
