<?xml version="1.0" standalone="no"?>
<!DOCTYPE svg PUBLIC "-//W3C//DTD SVG 20010904//EN"
 "http://www.w3.org/TR/2001/REC-SVG-20010904/DTD/svg10.dtd">
<svg version="1.0" xmlns="http://www.w3.org/2000/svg"
 width="700.000000pt" height="700.000000pt" viewBox="0 0 700.000000 700.000000"
 preserveAspectRatio="xMidYMid meet">
<metadata>
Created by potrace 1.11, written by Peter Selinger 2001-2013
</metadata>
<g transform="translate(0.000000,700.000000) scale(0.100000,-0.100000)"
fill="#000000" stroke="none">
<path d="M0 3500 l0 -3500 3500 0 3500 0 0 3500 0 3500 -3500 0 -3500 0 0
-3500z m3237 1982 c78 -30 128 -74 163 -145 92 -187 42 -449 -100 -529 l-41
-23 88 -82 88 -82 -110 -1 -111 0 -64 65 c-59 59 -68 65 -106 65 -23 0 -71 9
-106 20 -146 45 -228 175 -228 360 0 200 96 335 264 370 66 14 204 5 263 -18z
m951 12 c42 -9 79 -17 83 -19 6 -5 -8 -145 -16 -153 -3 -3 -22 3 -43 13 -55
26 -180 32 -237 11 -81 -31 -135 -118 -135 -217 0 -99 46 -175 130 -213 55
-24 169 -26 245 -2 27 8 50 14 51 13 1 -1 3 -36 5 -77 l4 -75 -65 -12 c-262
-49 -481 40 -549 223 -32 84 -27 233 10 314 78 168 279 243 517 194z m-2660
-1526 l3 -88 -216 0 -215 0 0 -135 0 -135 195 0 195 0 0 -85 0 -85 -195 0
-195 0 0 -155 0 -155 213 -2 212 -3 3 -87 3 -88 -331 0 -330 0 0 548 c0 302 3
552 7 555 4 4 151 6 327 5 l321 -3 3 -87z m652 -345 l143 -438 74 230 c41 127
104 322 141 435 l67 205 108 3 c82 2 107 0 106 -10 0 -7 -82 -256 -182 -553
l-183 -540 -136 -3 c-122 -2 -136 -1 -143 15 -3 10 -88 254 -187 543 -99 289
-183 531 -185 538 -4 9 23 12 114 12 l119 0 144 -437z m1600 347 l0 -90 -215
0 -215 0 0 -135 0 -135 195 0 195 0 0 -85 0 -85 -195 0 -195 0 0 -155 0 -155
215 0 215 0 0 -90 0 -90 -325 0 -325 0 0 555 0 555 325 0 325 0 0 -90z m855
-321 l210 -410 3 410 2 411 105 0 105 0 0 -555 0 -555 -133 0 -133 0 -210 409
-209 409 -3 -409 -2 -410 -108 3 -107 3 -3 540 c-1 297 0 546 3 553 3 9 40 12
137 12 l133 0 210 -411z m1573 319 l3 -88 -161 0 -160 0 0 -465 0 -465 -110 0
-110 0 0 465 0 465 -160 0 -160 0 0 83 c0 46 3 87 7 90 3 4 196 6 427 5 l421
-3 3 -87z m-4424 -1824 c16 -6 18 -14 12 -63 -4 -30 -8 -56 -10 -58 -2 -2 -16
1 -32 7 -33 13 -129 16 -162 6 -26 -9 -39 -50 -22 -71 6 -8 48 -26 93 -40 45
-15 94 -36 110 -47 73 -52 76 -190 6 -255 -58 -53 -175 -74 -298 -53 l-73 12
4 59 c2 32 6 61 9 63 3 3 23 -1 44 -9 47 -17 158 -19 186 -5 27 15 25 64 -3
84 -12 9 -52 25 -88 37 -113 37 -160 88 -160 171 0 118 104 183 280 174 47 -3
93 -8 104 -12z m750 -4 l38 -12 -7 -56 c-4 -31 -8 -58 -9 -60 -2 -1 -22 5 -46
13 -66 23 -160 20 -201 -8 -56 -38 -80 -91 -77 -167 4 -78 29 -120 90 -151 35
-18 53 -20 117 -16 42 3 88 8 104 12 l27 7 0 -60 0 -60 -72 -12 c-126 -22
-251 3 -332 65 -20 15 -48 53 -66 88 -24 49 -30 73 -30 127 0 161 76 262 227
300 46 11 183 5 237 -10z m1444 -5 c56 -23 118 -94 137 -158 8 -28 15 -80 15
-117 0 -177 -92 -283 -259 -297 -81 -7 -159 13 -218 56 -108 78 -135 295 -53
424 33 52 61 73 134 99 62 23 179 19 244 -7z m781 9 c114 -34 181 -136 181
-278 0 -136 -49 -229 -148 -278 -39 -19 -63 -23 -137 -23 -78 0 -97 4 -147 28
-85 42 -126 107 -143 225 -15 108 33 244 101 288 78 51 197 67 293 38z m-1799
-104 l0 -110 90 0 89 0 3 108 3 107 78 3 77 3 0 -291 0 -291 -77 3 -78 3 -3
123 -3 122 -89 0 -90 0 0 -125 0 -125 -75 0 -75 0 0 290 0 290 75 0 75 0 0
-110z m2390 -120 l0 -229 118 -3 117 -3 3 -57 3 -58 -196 0 -195 0 0 290 0
290 75 0 75 0 0 -230z"/>
<path d="M2999 5344 c-81 -51 -115 -227 -65 -344 46 -112 179 -141 253 -57 40
46 56 109 51 209 -4 98 -26 152 -77 185 -41 28 -123 31 -162 7z"/>
<path d="M3766 2019 c-74 -58 -70 -259 8 -321 27 -23 104 -23 135 -2 77 54 83
257 8 320 -38 32 -112 34 -151 3z"/>
<path d="M4571 2010 c-74 -75 -58 -281 26 -319 35 -16 95 -13 122 5 37 26 61
90 61 167 0 119 -42 177 -131 177 -39 0 -52 -5 -78 -30z"/>
</g>
</svg>
