<?xml version="1.0" encoding="utf-8"?>
<!-- Generator: Adobe Illustrator 16.0.3, SVG Export Plug-In . SVG Version: 6.00 Build 0)  -->
<!DOCTYPE svg PUBLIC "-//W3C//DTD SVG 1.1//EN" "http://www.w3.org/Graphics/SVG/1.1/DTD/svg11.dtd">
<svg version="1.1" id="_x32_1_days" xmlns="http://www.w3.org/2000/svg" xmlns:xlink="http://www.w3.org/1999/xlink" x="0px"
	 y="0px" width="96.557px" height="100px" viewBox="0 0 96.557 100" enable-background="new 0 0 96.557 100" xml:space="preserve">
<g>
	<g>
		<g>
			<path fill="#020202" d="M45.02,26.942c1.354,1.098,2.03,2.627,2.03,4.589c0,1.162-0.271,2.342-0.812,3.543
				c-0.54,1.202-1.223,2.371-2.047,3.506c-0.826,1.136-2.037,2.685-3.634,4.646c-2.216,2.737-4.021,5.088-5.412,7.048h8.659
				c0.849,0,1.5-0.265,1.952-0.793c0.452-0.529,0.753-1.466,0.908-2.808h0.889c-0.078,0.568-0.116,1.305-0.116,2.208
				c0,1.369,0.089,2.827,0.27,4.377h-8.31l-5.218-0.039c-0.903,0-1.572,0.014-2.01,0.039v-0.776
				c1.958-2.195,3.704-4.299,5.238-6.313c1.533-2.014,2.898-4.266,4.097-6.757c1.198-2.491,1.797-4.911,1.797-7.261
				c0-1.937-0.425-3.421-1.275-4.454c-0.85-1.034-1.984-1.549-3.402-1.549c-0.952,0-1.849,0.232-2.686,0.697
				c-0.838,0.465-1.411,1.11-1.72,1.936c0.67,0.104,1.211,0.323,1.624,0.659c0.412,0.335,0.618,0.8,0.618,1.395
				c0,0.594-0.2,1.079-0.599,1.452c-0.4,0.375-0.909,0.562-1.527,0.562c-0.645,0-1.146-0.206-1.507-0.62
				c-0.362-0.413-0.542-0.916-0.542-1.511c0-0.438,0.116-0.916,0.348-1.433c0.232-0.517,0.566-1.02,1.004-1.512
				c0.773-0.852,1.695-1.477,2.763-1.878c1.069-0.4,2.21-0.6,3.42-0.6C41.934,25.295,43.667,25.844,45.02,26.942z"/>
			<path fill="#020202" d="M58.335,49.152c0,0.982,0.078,1.691,0.232,2.129c0.155,0.439,0.445,0.735,0.869,0.892
				c0.424,0.154,1.102,0.257,2.028,0.31v0.776c-1.083-0.079-2.73-0.117-4.946-0.117c-2.345,0-4.2,0.038-5.565,0.117v-0.776
				c1.159-0.053,1.996-0.155,2.512-0.31c0.515-0.155,0.875-0.452,1.083-0.892c0.205-0.438,0.309-1.147,0.309-2.129V31.647
				c0-0.903-0.129-1.561-0.385-1.975c-0.257-0.413-0.697-0.69-1.314-0.833c-0.618-0.141-1.546-0.212-2.782-0.212v-0.814
				c1.881-0.284,3.435-0.625,4.658-1.025c1.222-0.4,2.326-0.846,3.303-1.337L58.335,49.152L58.335,49.152z"/>
		</g>
	</g>
</g>
<g>
	<g>
		<g>
			<path fill="#4C4C4C" d="M5.521,41.667l-2.024-3.464c-0.244-0.416-0.542-0.92-1.041-1.042c-0.591-0.144-1.065,0.258-1.202,0.819
				c-0.146,0.602,0.136,1.124,0.707,1.35l-0.414,1.26c-1.304-0.447-1.771-1.587-1.452-2.892c0.314-1.295,1.229-2.172,2.612-1.834
				c0.907,0.221,1.413,0.842,1.846,1.628l1.522,2.736l0.813-3.343l1.099,0.268l-1.175,4.832L5.521,41.667z"/>
			<path fill="#4C4C4C" d="M3.824,31.294l0.651,1.785l-1.085,0.342l-0.855-2.792l0.44-1.055l6.841,2.865L9.332,33.6L3.824,31.294z"
				/>
			<path fill="#4C4C4C" d="M7.167,21.801l1.79-2.313c1.193-1.542,3.252-2.253,5.238-0.71c2.003,1.555,1.616,3.974,0.526,5.385
				l-1.692,2.19L7.167,21.801z M13.495,23.794c1.013-1.31,1.278-2.817-0.146-3.924c-1.423-1.105-2.705-0.612-3.692,0.666
				L8.919,21.49l3.972,3.084L13.495,23.794z"/>
			<path fill="#4C4C4C" d="M15.167,12.771l0.858-0.753l7.289,3.478l-1.135,0.996l-1.637-0.821l-2.417,2.123l0.614,1.72l-1.11,0.976
				L15.167,12.771z M19.45,15.121l-2.845-1.518l1.112,3.04L19.45,15.121z"/>
			<path fill="#4C4C4C" d="M23.556,11.672l-4.614-2.11l1.4-0.881l3.113,1.531l-0.012-3.487l1.329-0.837l-0.099,5.08l1.688,2.69
				l-1.116,0.704L23.556,11.672z"/>
			<path fill="#4C4C4C" d="M30.891,3.072l1.936-0.547l3.313,4.471l0.517-5.551l1.915-0.541l2.011,7.149l-1.21,0.341l-1.669-5.937
				l-0.021,0.006l-0.497,6.547l-0.886,0.251l-3.837-5.325l-0.02,0.006L34.11,9.88l-1.208,0.341L30.891,3.072z"/>
			<path fill="#4C4C4C" d="M45.678,0.011c2.311-0.152,4.016,1.321,4.128,3.701c0.11,2.316-1.447,3.944-3.758,4.097
				c-2.28,0.108-3.985-1.365-4.095-3.68C41.841,1.749,43.398,0.12,45.678,0.011z M46.002,6.613c1.538-0.074,2.496-1.296,2.422-2.878
				c-0.07-1.478-1.141-2.603-2.679-2.53C44.219,1.278,43.26,2.5,43.331,3.978C43.405,5.561,44.475,6.687,46.002,6.613z"/>
			<path fill="#4C4C4C" d="M52.708,0.254l1.725,0.281l2.663,6.024l0.02,0.002l0.883-5.447l1.304,0.213l-1.189,7.331L56.46,8.39
				l-2.706-6.21l-0.021-0.003l-0.911,5.621l-1.303-0.212L52.708,0.254z"/>
			<path fill="#4C4C4C" d="M62.513,2.243l4.627,1.659l-0.403,1.126l-3.384-1.213l-0.612,1.719l3.204,1.149l-0.404,1.126l-3.204-1.15
				L61.66,8.555l3.558,1.276l-0.402,1.127l-4.801-1.721L62.513,2.243z"/>
			<path fill="#4C4C4C" d="M69.44,9.767l-0.372-5.071l1.446,0.806l0.154,3.473l3.048-1.686l1.374,0.765l-4.499,2.355l-1.544,2.777
				l-1.153-0.643L69.44,9.767z"/>
			<path fill="#4C4C4C" d="M80.254,12.016l2.088,1.998c0.809,0.776,1.289,1.945,0.355,2.922c-0.577,0.608-1.34,0.647-2.051,0.286
				l-0.017,0.016c0.601,0.72,0.58,1.714-0.078,2.405c-1.114,1.168-2.474,0.562-3.486-0.409l-1.931-1.847L80.254,12.016z
				 M76.87,17.479l0.877,0.84c0.492,0.472,1.253,1.042,1.926,0.334c0.537-0.561,0.362-1.106-0.413-1.845l-0.915-0.877L76.87,17.479z
				 M79.125,15.113l0.871,0.833c0.635,0.609,1.213,0.64,1.598,0.237c0.439-0.463,0.336-0.995-0.381-1.683l-0.785-0.753
				L79.125,15.113z"/>
			<path fill="#4C4C4C" d="M87.583,19.972l0.674,0.925l-4.102,6.962l-0.89-1.219l0.963-1.561l-1.896-2.602l-1.765,0.461l-0.87-1.195
				L87.583,19.972z M84.867,24.037l1.763-2.704l-3.121,0.842L84.867,24.037z"/>
			<path fill="#4C4C4C" d="M91.99,31.037c0.285-0.742,0.206-1.264-0.017-1.728c-0.661-1.381-2.159-1.788-3.489-1.147
				c-1.425,0.686-2.041,2.112-1.379,3.493c0.258,0.54,0.753,0.94,1.531,1.113l-0.227,1.319c-1.122-0.205-1.916-0.94-2.385-1.924
				c-0.989-2.062-0.302-4.209,1.784-5.213c2.143-1.032,4.247-0.229,5.236,1.833c0.436,0.909,0.516,1.824,0.068,2.854L91.99,31.037z"
				/>
			<path fill="#4C4C4C" d="M94.905,33.786l0.352,1.274l-3.027,0.835l0.017,0.06l3.842,2.127l0.47,1.72l-4.221-2.438l-2.862,4.63
				l-0.493-1.79l2.661-4.074l-0.022-0.07l-3.513,0.969l-0.35-1.274L94.905,33.786z"/>
		</g>
	</g>
</g>
<g>
	<g>
		<path fill="#4C4C4C" d="M40.608,59.21c0.978,0.987,1.469,2.422,1.469,4.308c0,1.217-0.239,2.282-0.718,3.195
			s-1.172,1.619-2.079,2.115c-0.908,0.496-1.99,0.745-3.247,0.745l-0.969-0.018c-0.624-0.022-1.08-0.033-1.37-0.033
			c-0.913,0-1.603,0.019-2.07,0.051v-0.334c0.4-0.022,0.692-0.067,0.876-0.135c0.185-0.067,0.31-0.196,0.377-0.383
			c0.067-0.19,0.1-0.498,0.1-0.921v-8.297c0-0.423-0.034-0.731-0.1-0.92c-0.067-0.189-0.192-0.318-0.377-0.384
			c-0.183-0.067-0.475-0.111-0.876-0.133v-0.334c0.389,0.032,0.93,0.05,1.619,0.05l1.419-0.018c0.756-0.021,1.264-0.032,1.519-0.032
			C38.154,57.731,39.629,58.222,40.608,59.21z M34.991,58.148c-0.174,0.076-0.293,0.218-0.359,0.418
			c-0.067,0.201-0.1,0.504-0.1,0.905v8.362c0,0.403,0.033,0.704,0.1,0.904c0.067,0.201,0.187,0.34,0.359,0.418
			c0.171,0.079,0.436,0.119,0.792,0.119c1.18,0,2.11-0.215,2.788-0.644c0.679-0.431,1.154-1.058,1.428-1.884
			c0.273-0.825,0.41-1.879,0.41-3.163c0-1.282-0.15-2.327-0.451-3.135c-0.301-0.809-0.788-1.412-1.461-1.815
			c-0.674-0.401-1.584-0.603-2.73-0.603C35.421,58.03,35.162,58.07,34.991,58.148z"/>
		<path fill="#4C4C4C" d="M52.946,69.239v0.334c-0.444-0.032-1.041-0.051-1.784-0.051c-0.958,0-1.671,0.019-2.139,0.051v-0.334
			c0.424-0.022,0.728-0.076,0.91-0.158c0.181-0.083,0.276-0.238,0.276-0.46c0-0.19-0.068-0.453-0.201-0.787l-1.018-2.742H44.95
			l-0.684,1.771c-0.223,0.602-0.334,1.06-0.334,1.374c0,0.344,0.119,0.598,0.358,0.752c0.239,0.155,0.603,0.24,1.094,0.25v0.334
			c-0.634-0.032-1.274-0.051-1.92-0.051c-0.501,0-0.918,0.019-1.252,0.051v-0.334c0.557-0.135,0.996-0.618,1.319-1.456l3.924-10.137
			h0.267l4.074,10.522C52.061,68.86,52.445,69.216,52.946,69.239z M48.857,64.756l-1.87-5.001l-1.904,5.001H48.857z"/>
		<path fill="#4C4C4C" d="M61.513,57.731v0.334c-0.225,0.057-0.441,0.198-0.651,0.425c-0.212,0.229-0.44,0.582-0.686,1.062
			l-2.62,5.204v3.043c0,0.423,0.032,0.73,0.1,0.92c0.067,0.189,0.192,0.318,0.376,0.384c0.185,0.067,0.476,0.111,0.877,0.135v0.334
			c-0.511-0.032-1.22-0.05-2.121-0.05c-0.957,0-1.669,0.018-2.137,0.05v-0.334c0.4-0.021,0.692-0.067,0.875-0.135
			c0.185-0.067,0.309-0.196,0.375-0.384c0.067-0.189,0.102-0.497,0.102-0.92v-2.507l-3.39-6.274c-0.2-0.368-0.376-0.614-0.526-0.744
			c-0.152-0.125-0.297-0.19-0.443-0.19v-0.352c0.435,0.032,0.924,0.051,1.469,0.051c1.081,0,1.859-0.019,2.337-0.051v0.352
			c-0.777,0-1.169,0.211-1.169,0.636c0,0.166,0.057,0.362,0.166,0.585l2.772,5.339l2.137-4.249c0.3-0.594,0.451-1.073,0.451-1.44
			c0-0.313-0.122-0.535-0.368-0.67c-0.244-0.133-0.612-0.205-1.103-0.216v-0.334c0.636,0.032,1.275,0.05,1.922,0.05
			C60.76,57.779,61.178,57.764,61.513,57.731z"/>
	</g>
</g>
<g>
	<g>
		<g>
			<g>
				<path fill="#4C4C4C" d="M16.282,88.055c-0.984-0.272-1.902-0.796-2.729-1.583c-1.655-1.575-1.773-3.824-0.181-5.508
					c1.636-1.728,3.887-1.728,5.541-0.154c0.82,0.777,1.392,1.655,1.478,2.69l-1.385,0.044c-0.024-0.659-0.368-1.351-0.907-1.859
					c-1.108-1.056-2.652-0.906-3.669,0.168c-1.087,1.146-1.158,2.701-0.05,3.755c0.486,0.463,1.013,0.789,1.528,0.916l1.203-1.27
					l-1.101-1.046l0.821-0.865l2.058,1.959L16.282,88.055z"/>
			</g>
		</g>
		<g>
			<g>
				<path fill="#4C4C4C" d="M25.505,91.647c-0.945,1.521-2.63,1.795-4.07,0.897s-1.941-2.533-0.996-4.056l2.477-3.989l1.12,0.698
					l-2.454,3.953c-0.387,0.624-0.559,1.654,0.517,2.323c1.076,0.674,1.922,0.065,2.309-0.562l2.456-3.952l1.12,0.695L25.505,91.647
					z"/>
			</g>
		</g>
		<g>
			<g>
				<path fill="#4C4C4C" d="M32.462,89.599L33.531,90l0.384,8.078l-1.412-0.532l-0.051-1.832l-3.009-1.131l-1.224,1.353
					l-1.382-0.521L32.462,89.599z M32.42,94.489l-0.009-3.231l-2.148,2.422L32.42,94.489z"/>
			</g>
		</g>
		<g>
			<g>
				<path fill="#4C4C4C" d="M38.201,91.456l2.536,0.447c1.402,0.245,2.643,0.933,2.355,2.574c-0.185,1.055-0.929,1.722-2.038,1.687
					l1.371,3.574l-1.567-0.276l-1.147-3.396L38.761,95.9l-0.542,3.098L36.92,98.77L38.201,91.456z M39.968,94.961
					c0.732,0.129,1.599,0.216,1.765-0.731c0.154-0.866-0.634-1.112-1.304-1.229l-1.125-0.199l-0.346,1.981L39.968,94.961z"/>
			</g>
		</g>
		<g>
			<g>
				<path fill="#4C4C4C" d="M47.99,92.537l1.142-0.011l3.271,7.391l-1.508,0.019l-0.709-1.693l-3.214,0.031l-0.651,1.705L44.843,100
					L47.99,92.537z M49.712,97.113l-1.172-3.009l-1.129,3.034L49.712,97.113z"/>
			</g>
		</g>
		<g>
			<g>
				<path fill="#4C4C4C" d="M53.988,92.261l1.708-0.371l4.678,4.626l0.022-0.004l-1.173-5.393l1.289-0.28l1.575,7.258l-1.637,0.355
					l-4.789-4.783l-0.02,0.004l1.209,5.564l-1.289,0.282L53.988,92.261z"/>
			</g>
		</g>
		<g>
			<g>
				<path fill="#4C4C4C" d="M64.764,90.469l-2.091,0.894l-0.467-1.101l5.395-2.303l0.467,1.102l-2.089,0.892l2.437,5.734
					L67.2,96.204L64.764,90.469z"/>
			</g>
		</g>
		<g>
			<g>
				<path fill="#4C4C4C" d="M69.187,87.072l4.134-2.653l0.645,1.007l-3.025,1.939l0.98,1.537l2.866-1.838l0.642,1.007l-2.865,1.839
					l1.087,1.695l3.181-2.04l0.643,1.003l-4.296,2.758L69.187,87.072z"/>
			</g>
		</g>
		<g>
			<g>
				<path fill="#4C4C4C" d="M75.258,82.862l3.673-3.263l0.792,0.896l-2.687,2.387l1.209,1.362l2.545-2.262l0.791,0.898l-2.545,2.261
					l1.334,1.506l2.826-2.513l0.792,0.897l-3.813,3.39L75.258,82.862z"/>
			</g>
		</g>
	</g>
</g>
<linearGradient id="SVGID_1_" gradientUnits="userSpaceOnUse" x1="-161.8345" y1="1194.1484" x2="-161.8345" y2="1160.0469" gradientTransform="matrix(1 0 0 1 168 -1116)">
	<stop  offset="0.2527" style="stop-color:#ECC575"/>
	<stop  offset="0.7688" style="stop-color:#ECD69D"/>
</linearGradient>
<path fill="url(#SVGID_1_)" d="M12.149,75.931c-5.564-7.466-8.865-16.722-8.865-26.735c0-1.741,0.104-3.458,0.297-5.148H0.458
	c-0.181,1.692-0.276,3.409-0.276,5.148c0,10.872,3.637,20.905,9.754,28.953L12.149,75.931z"/>
<linearGradient id="SVGID_2_" gradientUnits="userSpaceOnUse" x1="-78.9448" y1="1195.9824" x2="-78.9448" y2="1160.0469" gradientTransform="matrix(1 0 0 1 168 -1116)">
	<stop  offset="0.2527" style="stop-color:#ECC575"/>
	<stop  offset="0.7688" style="stop-color:#ECD69D"/>
</linearGradient>
<path fill="url(#SVGID_2_)" d="M82.344,77.778l2.198,2.204c6.996-8.331,11.223-19.076,11.223-30.789c0-1.74-0.098-3.456-0.278-5.148
	h-3.125c0.195,1.69,0.297,3.408,0.297,5.148C92.663,60.053,88.784,70.018,82.344,77.778z"/>
<linearGradient id="SVGID_3_" gradientUnits="userSpaceOnUse" x1="-121.1572" y1="1200.4297" x2="-121.1572" y2="1198.4551" gradientTransform="matrix(1 0 0 1 168 -1116)">
	<stop  offset="0.2527" style="stop-color:#ECC575"/>
	<stop  offset="0.7688" style="stop-color:#ECD69D"/>
</linearGradient>
<rect x="29.048" y="74.167" fill="url(#SVGID_3_)" width="35.589" height="1.975"/>
<g>
</g>
<g>
</g>
<g>
</g>
<g>
</g>
<g>
</g>
<g>
</g>
</svg>
