<?xml version="1.0" encoding="utf-8"?>
<!-- Generator: Adobe Illustrator 16.0.3, SVG Export Plug-In . SVG Version: 6.00 Build 0)  -->
<!DOCTYPE svg PUBLIC "-//W3C//DTD SVG 1.1//EN" "http://www.w3.org/Graphics/SVG/1.1/DTD/svg11.dtd">
<svg version="1.1" id="Layer_1" xmlns="http://www.w3.org/2000/svg" xmlns:xlink="http://www.w3.org/1999/xlink" x="0px" y="0px"
	 width="30px" height="29.999px" viewBox="0 0 30 29.999" enable-background="new 0 0 30 29.999" xml:space="preserve">
<g>
	<g>
		<g id="XMLID_15_">
			<path id="XMLID_16_" fill="#E9213E" d="M9.834,17.965c-0.175-0.28-0.447-0.427-0.604-0.326c-0.159,0.097-0.145,0.404,0.028,0.684
				c0.177,0.281,0.447,0.429,0.604,0.33C10.021,18.552,10.009,18.245,9.834,17.965z"/>
		</g>
		<path fill="#E9213E" d="M29.681,8.245c-1.206-0.011-1.931-0.013-2.8-0.013v0.032h-5.146v-7.94c0-0.18-0.145-0.324-0.323-0.324
			h-3.816h-4.181H8.587C8.41,0,8.264,0.144,8.264,0.324v7.94H0.323C0.144,8.264,0,8.409,0,8.587v12.824
			c0,0.18,0.144,0.323,0.323,0.323h1.559c0.14,0,0.262-0.09,0.306-0.22c0.259-0.783,0.499-1.414,1.05-1.836
			c0.471-0.363,0.771-0.671,1.019-1.275c0.18-0.444,0.35-0.864,0.728-1.128c0.435-0.294,1.144-0.704,2.251-0.86
			c1.146-0.159,1.579-0.019,1.88,0.153l0.178,0.08c0.25,0.118,0.469,0.218,0.757,0.26c0.082,0.012,0.208,0.163,0.273,0.281
			c0.028,0.049,0.294,0.469,0.899,0.545l0.083,0.015c0.274,0.04,0.781,0.128,2.305,0.12c0.184,0.004,0.243,0.075,0.26,0.098
			c0.103,0.121,0.103,0.351,0.107,0.363c-0.017,0.051-0.163,0.518,0.07,1.079c0.039,0.11-0.026,0.671-0.339,1.256
			c-0.231,0.433-0.516,0.719-0.77,0.779c-0.625,0.127-0.805,0.35-0.927,0.548c-0.001,0.002-0.032,0.058-0.033,0.061
			c-0.069,0.118-0.161,0.282-0.458,0.39c-0.147,0.051-0.234,0.041-0.39,0.025c-0.467-0.068-0.806,0.094-1.007,0.473l-0.092,0.177
			c-0.194,0.362-0.558,1.039-0.797,1.643c-0.132,0.34-0.209,0.613-0.231,0.831c-0.043,0.372-0.309,1.35-0.727,2.686
			c-0.009,0.031-0.015,0.063-0.015,0.097v1.304c0,0.178,0.145,0.322,0.323,0.322h12.825c0.178,0,0.322-0.145,0.322-0.322v-7.94
			h7.942c0.179,0,0.323-0.146,0.323-0.324v-7.042V8.587V8.569C30,8.39,29.857,8.245,29.681,8.245z"/>
	</g>
</g>
</svg>
