<?xml version="1.0" encoding="utf-8"?>
<!-- Generator: Adobe Illustrator 16.0.3, SVG Export Plug-In . SVG Version: 6.00 Build 0)  -->
<!DOCTYPE svg PUBLIC "-//W3C//DTD SVG 1.1//EN" "http://www.w3.org/Graphics/SVG/1.1/DTD/svg11.dtd">
<svg version="1.1" id="Layer_1" xmlns="http://www.w3.org/2000/svg" xmlns:xlink="http://www.w3.org/1999/xlink" x="0px" y="0px"
	 width="126.109px" height="32px" viewBox="0 0 126.109 32" enable-background="new 0 0 126.109 32" xml:space="preserve">
<polygon points="126.109,32 11.188,32 0,16.055 11.188,0 126.109,0 "/>
<g>
	<path fill="#FFFFFF" d="M40.95,7.907h2.976v4.059c-0.487,0.159-0.954,0.271-1.402,0.337c-0.448,0.067-0.932,0.1-1.452,0.1
		c-1.224,0-2.168-0.362-2.833-1.086c-0.664-0.725-0.995-1.747-0.995-3.067c0-1.301,0.374-2.32,1.123-3.056s1.779-1.104,3.092-1.104
		c0.845,0,1.645,0.163,2.401,0.487l-0.465,1.101c-0.656-0.302-1.313-0.454-1.969-0.454c-0.863,0-1.545,0.271-2.047,0.813
		c-0.501,0.542-0.752,1.284-0.752,2.224c0,0.988,0.226,1.739,0.678,2.253c0.451,0.515,1.101,0.771,1.949,0.771
		c0.428,0,0.885-0.053,1.372-0.16V9.041H40.95V7.907z"/>
	<path fill="#FFFFFF" d="M47.189,9.063v3.23h-1.322V4.207h2.285c1.043,0,1.815,0.195,2.317,0.586
		c0.502,0.391,0.752,0.981,0.752,1.77c0,1.006-0.523,1.724-1.571,2.152l2.284,3.578H50.43l-1.936-3.23H47.189z M47.189,7.967h0.918
		c0.616,0,1.062-0.114,1.338-0.343c0.277-0.229,0.415-0.567,0.415-1.018c0-0.457-0.149-0.785-0.448-0.984s-0.749-0.298-1.35-0.298
		h-0.874V7.967z"/>
	<path fill="#FFFFFF" d="M60.285,8.238c0,1.316-0.328,2.339-0.986,3.07c-0.658,0.73-1.59,1.095-2.796,1.095
		c-1.22,0-2.158-0.362-2.812-1.086c-0.655-0.725-0.982-1.754-0.982-3.089c0-1.335,0.329-2.36,0.988-3.075
		c0.658-0.716,1.597-1.073,2.817-1.073c1.202,0,2.131,0.363,2.788,1.089C59.958,5.895,60.285,6.918,60.285,8.238z M54.113,8.238
		c0,0.996,0.202,1.75,0.604,2.265c0.401,0.514,0.998,0.771,1.786,0.771c0.785,0,1.378-0.255,1.778-0.763
		c0.4-0.509,0.6-1.267,0.6-2.273c0-0.992-0.198-1.744-0.594-2.257c-0.396-0.512-0.988-0.769-1.773-0.769
		c-0.793,0-1.391,0.256-1.794,0.769C54.316,6.494,54.113,7.246,54.113,8.238z"/>
	<path fill="#FFFFFF" d="M69.202,8.238c0,1.316-0.329,2.339-0.987,3.07c-0.658,0.73-1.59,1.095-2.796,1.095
		c-1.22,0-2.157-0.362-2.813-1.086c-0.654-0.725-0.981-1.754-0.981-3.089c0-1.335,0.329-2.36,0.988-3.075
		c0.657-0.716,1.597-1.073,2.818-1.073c1.202,0,2.131,0.363,2.788,1.089C68.874,5.895,69.202,6.918,69.202,8.238z M63.029,8.238
		c0,0.996,0.201,1.75,0.604,2.265c0.401,0.514,0.997,0.771,1.786,0.771c0.786,0,1.379-0.255,1.779-0.763
		c0.4-0.509,0.6-1.267,0.6-2.273c0-0.992-0.199-1.744-0.595-2.257c-0.396-0.512-0.988-0.769-1.772-0.769
		c-0.793,0-1.392,0.256-1.795,0.769C63.231,6.494,63.029,7.246,63.029,8.238z"/>
	<path fill="#FFFFFF" d="M74.435,12.292L72.09,5.539h-0.044c0.063,1.003,0.094,1.943,0.094,2.821v3.933h-1.201V4.207h1.864
		l2.245,6.432h0.034l2.312-6.432h1.87v8.086h-1.272V8.293c0-0.401,0.01-0.925,0.03-1.571c0.021-0.645,0.038-1.036,0.053-1.172H78.03
		l-2.429,6.742H74.435z"/>
	<path fill="#FFFFFF" d="M81.392,12.292V4.207h1.323v8.086H81.392z"/>
	<path fill="#FFFFFF" d="M91.586,12.292h-1.62l-3.978-6.444h-0.044l0.027,0.36c0.052,0.686,0.077,1.313,0.077,1.881v4.203h-1.2
		V4.207h1.604l3.966,6.41h0.033c-0.008-0.084-0.022-0.394-0.045-0.926c-0.021-0.533-0.032-0.949-0.032-1.248V4.207h1.211V12.292z"/>
	<path fill="#FFFFFF" d="M97.028,7.907h2.976v4.059c-0.486,0.159-0.954,0.271-1.401,0.337c-0.448,0.067-0.933,0.1-1.452,0.1
		c-1.225,0-2.168-0.362-2.832-1.086c-0.664-0.725-0.995-1.747-0.995-3.067c0-1.301,0.373-2.32,1.122-3.056
		c0.748-0.736,1.779-1.104,3.092-1.104c0.845,0,1.645,0.163,2.4,0.487l-0.465,1.101c-0.656-0.302-1.313-0.454-1.969-0.454
		c-0.863,0-1.545,0.271-2.047,0.813c-0.501,0.542-0.752,1.284-0.752,2.224c0,0.988,0.227,1.739,0.678,2.253
		c0.452,0.515,1.102,0.771,1.949,0.771c0.429,0,0.886-0.053,1.372-0.16V9.041h-1.676V7.907z"/>
	<path fill="#FFFFFF" d="M111.061,12.292h-1.532l-2.539-3.662l-0.779,0.636v3.025h-1.322V4.207h1.322v3.86
		c0.361-0.442,0.721-0.868,1.078-1.277l2.185-2.583h1.505c-1.412,1.659-2.425,2.841-3.037,3.545L111.061,12.292z"/>
	<path fill="#FFFFFF" d="M112.128,12.292V4.207h1.322v8.086H112.128z"/>
	<path fill="#FFFFFF" d="M118.378,12.292h-1.321V5.34h-2.379V4.207h6.079V5.34h-2.379V12.292z"/>
</g>
<g>
	<path fill="#F7F7F7" d="M37.402,27.654V15.222h2.636v12.433H37.402z"/>
	<path fill="#F7F7F7" d="M53.848,27.654h-3.35l-5.408-9.405h-0.077c0.108,1.661,0.162,2.846,0.162,3.555v5.851h-2.356V15.222h3.326
		l5.399,9.312h0.06c-0.085-1.616-0.128-2.758-0.128-3.428v-5.884h2.373V27.654z"/>
	<path fill="#F7F7F7" d="M61.91,17.237c-0.992,0-1.76,0.373-2.305,1.117c-0.544,0.747-0.816,1.785-0.816,3.117
		c0,2.772,1.041,4.159,3.121,4.159c0.873,0,1.93-0.218,3.172-0.655v2.211c-1.02,0.426-2.16,0.638-3.419,0.638
		c-1.808,0-3.191-0.549-4.149-1.645c-0.958-1.098-1.437-2.672-1.437-4.725c0-1.292,0.235-2.425,0.706-3.397
		c0.47-0.972,1.146-1.718,2.027-2.236c0.882-0.519,1.915-0.778,3.1-0.778c1.208,0,2.421,0.292,3.64,0.876l-0.851,2.144
		c-0.465-0.222-0.933-0.415-1.403-0.579C62.825,17.319,62.363,17.237,61.91,17.237z"/>
	<path fill="#F7F7F7" d="M67.379,27.654V15.222h2.637v10.255h5.042v2.178H67.379z"/>
	<path fill="#F7F7F7" d="M86.988,15.222v8.045c0,0.918-0.206,1.724-0.615,2.415c-0.412,0.691-1.006,1.222-1.782,1.591
		c-0.777,0.368-1.696,0.552-2.756,0.552c-1.599,0-2.84-0.41-3.725-1.229c-0.884-0.819-1.326-1.94-1.326-3.363v-8.011h2.627v7.611
		c0,0.957,0.193,1.66,0.578,2.108c0.386,0.448,1.024,0.672,1.914,0.672c0.862,0,1.487-0.226,1.875-0.676
		c0.389-0.451,0.582-1.158,0.582-2.122v-7.594H86.988z"/>
	<path fill="#F7F7F7" d="M100,21.319c0,2.047-0.583,3.613-1.748,4.702c-1.164,1.089-2.847,1.633-5.047,1.633h-3.52V15.222h3.902
		c2.029,0,3.605,0.536,4.728,1.607C99.438,17.901,100,19.397,100,21.319z M97.262,21.387c0-2.67-1.18-4.005-3.538-4.005h-1.402
		v8.095h1.131C95.992,25.477,97.262,24.114,97.262,21.387z"/>
	<path fill="#F7F7F7" d="M109.39,27.654h-7.161V15.222h7.161v2.16h-4.525v2.729h4.21v2.16h-4.21v3.205h4.525V27.654z"/>
	<path fill="#F7F7F7" d="M121.949,21.319c0,2.047-0.583,3.613-1.747,4.702c-1.165,1.089-2.848,1.633-5.047,1.633h-3.521V15.222
		h3.902c2.029,0,3.605,0.536,4.729,1.607S121.949,19.397,121.949,21.319z M119.211,21.387c0-2.67-1.18-4.005-3.538-4.005h-1.402
		v8.095h1.131C117.941,25.477,119.211,24.114,119.211,21.387z"/>
</g>
<g>
	<g>
		<path fill="#FFFFFF" d="M10.686,8.301l9.956,7.119l1.95-2.001c-1.965-1.116-4.972-2.821-8.373-4.788
			C13.146,8.01,11.854,7.888,10.686,8.301L10.686,8.301z"/>
		<path fill="#FFFFFF" d="M14.079,24.102c1.014-0.063,1.981-0.445,2.764-1.095c1.46-1.214,11.295-10.375,11.295-10.375
			c0.399-0.211,0.839-0.425,1.327-0.64c0.041-0.016,0.122-0.054,0.125-0.055l0,0c0.445-0.216,0.87-0.513,1.251-0.893
			c0.861-0.863,1.306-1.962,1.306-2.995c0-0.821-0.28-1.597-0.859-2.176c-1.308-1.308-3.622-1.106-5.175,0.448
			c-0.863,0.865-1.307,1.962-1.307,2.995c0,0.815,0.278,1.585,0.848,2.163L12.957,24.173L14.079,24.102z M26.937,10.226
			c-0.277-0.278-0.335-0.65-0.335-0.909c0-0.6,0.286-1.229,0.782-1.726c0.835-0.834,2.043-1.04,2.636-0.447
			c0.278,0.275,0.334,0.646,0.334,0.907c0,0.591-0.295,1.236-0.785,1.727C28.735,10.611,27.529,10.816,26.937,10.226z"/>
		<path fill="#FFFFFF" d="M23.713,17.764l1.423,1.136c-0.469,0.662-0.617,1.468-0.485,2.272c0.167,1.017,0.786,2.029,1.777,2.742
			c1.785,1.277,4.103,1.099,5.178-0.398c0.479-0.666,0.629-1.479,0.495-2.29c-0.167-1.016-0.786-2.029-1.777-2.74
			c-0.438-0.313-0.905-0.537-1.379-0.678l0.001-0.001c-0.004,0-0.009,0-0.011-0.003c-0.04-0.011-0.08-0.02-0.124-0.031
			c-1.605-0.411-2.417-1.377-3.256-1.841L23.713,17.764z M29.276,19.945c0.562,0.403,0.958,0.992,1.054,1.574
			c0.042,0.258,0.047,0.633-0.183,0.951c-0.488,0.679-1.713,0.674-2.673-0.014c-0.57-0.409-0.955-0.985-1.053-1.575
			c-0.042-0.259-0.046-0.633,0.183-0.951C27.092,19.248,28.316,19.257,29.276,19.945z"/>
	</g>
</g>
</svg>
