<?xml version="1.0" encoding="utf-8"?>
<!-- Generator: Adobe Illustrator 16.0.3, SVG Export Plug-In . SVG Version: 6.00 Build 0)  -->
<!DOCTYPE svg PUBLIC "-//W3C//DTD SVG 1.1//EN" "http://www.w3.org/Graphics/SVG/1.1/DTD/svg11.dtd">
<svg version="1.1" id="Layer_1" xmlns="http://www.w3.org/2000/svg" xmlns:xlink="http://www.w3.org/1999/xlink" x="0px" y="0px"
	 width="52.563px" height="18.104px" viewBox="0 0 52.563 18.104" enable-background="new 0 0 52.563 18.104" xml:space="preserve">
<polygon fill="#FF0000" points="52.563,18.104 9.063,18.104 0.063,9.083 9.063,0 52.563,0 "/>
<path fill="#FF0000" d="M0,9.042"/>
<line fill="#FF0000" x1="4.792" y1="9.083" x2="8" y2="9.083"/>
<path fill="#FF0000" d="M3.708,9.083"/>
<g>
	<path fill="#F1F2F2" d="M23.945,9.204l-1.718-5.601h-0.044c0.062,1.139,0.093,1.899,0.093,2.28v3.32h-1.353V2.065h2.061l1.69,5.459
		h0.029l1.791-5.459h2.061v7.139h-1.41V5.825c0-0.16,0.002-0.343,0.008-0.552c0.004-0.208,0.025-0.762,0.064-1.66h-0.043
		l-1.842,5.591H23.945z"/>
	<path fill="#F1F2F2" d="M36.831,5.625c0,1.182-0.293,2.09-0.879,2.725s-1.426,0.952-2.52,0.952s-1.934-0.317-2.52-0.952
		s-0.879-1.546-0.879-2.734c0-1.188,0.294-2.096,0.882-2.722c0.587-0.626,1.43-0.94,2.526-0.94s1.937,0.316,2.517,0.947
		C36.541,3.531,36.831,4.439,36.831,5.625z M31.621,5.625c0,0.798,0.151,1.398,0.454,1.802s0.755,0.605,1.357,0.605
		c1.208,0,1.812-0.803,1.812-2.407c0-1.608-0.601-2.412-1.802-2.412c-0.603,0-1.057,0.203-1.362,0.608S31.621,4.827,31.621,5.625z"
		/>
	<path fill="#F1F2F2" d="M42.524,7.221c0,0.645-0.231,1.152-0.696,1.523c-0.463,0.371-1.108,0.557-1.936,0.557
		c-0.762,0-1.436-0.144-2.021-0.43V7.465c0.481,0.215,0.89,0.366,1.223,0.454c0.334,0.088,0.64,0.132,0.916,0.132
		c0.332,0,0.587-0.063,0.764-0.19c0.178-0.127,0.267-0.315,0.267-0.566c0-0.14-0.039-0.265-0.117-0.374
		c-0.078-0.108-0.192-0.214-0.345-0.314c-0.15-0.101-0.459-0.262-0.925-0.483c-0.437-0.205-0.764-0.402-0.981-0.591
		s-0.393-0.409-0.522-0.659s-0.195-0.543-0.195-0.879c0-0.631,0.214-1.128,0.642-1.489c0.429-0.361,1.021-0.542,1.775-0.542
		c0.371,0,0.725,0.044,1.063,0.132c0.336,0.088,0.688,0.211,1.057,0.371l-0.488,1.177c-0.381-0.156-0.695-0.265-0.945-0.327
		c-0.248-0.062-0.493-0.093-0.734-0.093c-0.286,0-0.506,0.067-0.659,0.2s-0.229,0.308-0.229,0.522c0,0.133,0.031,0.25,0.093,0.349
		s0.16,0.195,0.296,0.288c0.135,0.093,0.454,0.26,0.959,0.5c0.667,0.319,1.125,0.639,1.372,0.959S42.524,6.755,42.524,7.221z"/>
	<path fill="#F1F2F2" d="M46.572,9.204h-1.514V3.325H43.12v-1.26h5.391v1.26h-1.938V9.204z"/>
	<path fill="#F1F2F2" d="M23.33,12.168c0,0.434-0.148,0.768-0.444,1c-0.296,0.234-0.719,0.351-1.27,0.351h-0.504v1.685h-0.498V10.92
		h1.11C22.794,10.92,23.33,11.336,23.33,12.168z M21.112,13.091h0.448c0.441,0,0.761-0.071,0.958-0.214s0.296-0.371,0.296-0.686
		c0-0.283-0.093-0.494-0.278-0.633s-0.475-0.208-0.867-0.208h-0.557V13.091z"/>
	<path fill="#F1F2F2" d="M27.979,13.056c0,0.686-0.174,1.225-0.52,1.617c-0.348,0.393-0.829,0.589-1.446,0.589
		c-0.631,0-1.118-0.192-1.46-0.578c-0.344-0.386-0.515-0.931-0.515-1.634c0-0.697,0.172-1.237,0.516-1.622
		c0.344-0.383,0.832-0.575,1.465-0.575c0.615,0,1.096,0.195,1.441,0.586S27.979,12.369,27.979,13.056z M24.566,13.056
		c0,0.58,0.123,1.021,0.37,1.319c0.247,0.301,0.606,0.45,1.077,0.45c0.475,0,0.833-0.149,1.075-0.448s0.363-0.739,0.363-1.321
		c0-0.576-0.121-1.013-0.361-1.312c-0.242-0.297-0.599-0.446-1.071-0.446c-0.475,0-0.836,0.15-1.083,0.45
		S24.566,12.484,24.566,13.056z"/>
	<path fill="#F1F2F2" d="M31.687,12.168c0,0.434-0.148,0.768-0.443,1c-0.297,0.234-0.72,0.351-1.271,0.351h-0.504v1.685h-0.498
		V10.92h1.11C31.151,10.92,31.687,11.336,31.687,12.168z M29.469,13.091h0.448c0.441,0,0.761-0.071,0.958-0.214
		s0.296-0.371,0.296-0.686c0-0.283-0.093-0.494-0.278-0.633s-0.475-0.208-0.867-0.208h-0.557V13.091z"/>
	<path fill="#F1F2F2" d="M35.854,10.92v2.771c0,0.488-0.147,0.872-0.442,1.151s-0.7,0.419-1.216,0.419s-0.915-0.141-1.196-0.422
		c-0.283-0.281-0.424-0.668-0.424-1.16v-2.76h0.498v2.795c0,0.357,0.098,0.632,0.293,0.823s0.482,0.287,0.861,0.287
		c0.361,0,0.64-0.096,0.835-0.288s0.293-0.469,0.293-0.828V10.92H35.854z"/>
	<path fill="#F1F2F2" d="M37.022,15.204V10.92h0.498v3.832h1.89v0.451H37.022z"/>
	<path fill="#F1F2F2" d="M42.865,15.204l-0.533-1.362h-1.717l-0.527,1.362h-0.504l1.693-4.301h0.419l1.685,4.301H42.865z
		 M42.177,13.393l-0.498-1.327c-0.064-0.168-0.131-0.374-0.199-0.618c-0.043,0.188-0.104,0.394-0.185,0.618l-0.504,1.327H42.177z"/>
	<path fill="#F1F2F2" d="M44.504,13.422v1.781h-0.498V10.92h1.175c0.525,0,0.913,0.101,1.164,0.302s0.377,0.504,0.377,0.908
		c0,0.566-0.287,0.949-0.861,1.148l1.163,1.925h-0.589l-1.037-1.781H44.504z M44.504,12.995h0.683c0.352,0,0.609-0.069,0.773-0.209
		s0.246-0.35,0.246-0.629c0-0.283-0.084-0.487-0.25-0.612c-0.168-0.125-0.436-0.188-0.805-0.188h-0.647V12.995z"/>
</g>
<polygon fill="#F1F2F2" points="15.723,4.488 10.486,9.726 7.984,7.225 6.225,8.985 8.727,11.486 10.486,13.245 12.244,11.486 
	17.482,6.248 "/>
</svg>
