<?xml version="1.0" encoding="utf-8"?>
<!-- Generator: Adobe Illustrator 16.0.3, SVG Export Plug-In . SVG Version: 6.00 Build 0)  -->
<!DOCTYPE svg PUBLIC "-//W3C//DTD SVG 1.1//EN" "http://www.w3.org/Graphics/SVG/1.1/DTD/svg11.dtd">
<svg version="1.1" id="Layer_1" xmlns="http://www.w3.org/2000/svg" xmlns:xlink="http://www.w3.org/1999/xlink" x="0px" y="0px"
	 width="311px" height="14px" viewBox="0 0 311 14" enable-background="new 0 0 311 14" xml:space="preserve">
<g>
	<path fill="#FFFFFF" d="M15,11.1l2.8-7.7c0.3-0.9,0.5-1.4,0.5-1.8c0-0.6-0.4-0.8-1.3-0.8V0.2h4.3v0.7c-1.1,0-1.6,0.4-1.9,1.4
		L14.8,14h-0.6L10.8,3.9L7,14H6.4L2.7,3.8c-0.8-2.3-1.3-3-2.7-3V0.2h5.8v0.7C4.6,0.9,4.1,1,4.1,1.6c0,0.3,0.1,0.7,0.3,1.2l2.7,8.2
		L9.3,5C9.6,4,10,3.2,10.2,2.6C9.5,1.2,9.1,0.9,8.4,0.9V0.2h5.4v0.7c-1.4,0-1.6,0.2-1.6,0.7c0,0.4,0.1,0.8,0.4,1.6L15,11.1z"/>
	<path fill="#FFFFFF" d="M26.1,10.5c0,2.3,0.3,2.6,1.9,2.7v0.7h-5.7v-0.7c1.7-0.1,1.9-0.4,1.9-2.6V3.4c0-2-0.2-2.5-1.8-2.6V0.2h5.4
		v0.7c-1.5,0.1-1.8,0.5-1.8,2.7V10.5z"/>
	<path fill="#FFFFFF" d="M41.6,14L33.2,2.9h-0.1v7.6c0,2.3,0.2,2.6,1.8,2.7v0.7h-4.8v-0.7c1.7-0.1,1.9-0.4,1.9-2.6V3.4
		c0-2-0.2-2.5-1.8-2.6V0.2h3.5l7.7,10.3h0.1v-7c0-2.3-0.2-2.6-1.8-2.7V0.2h4.8v0.7c-1.7,0.1-1.9,0.4-1.9,2.6V14H41.6z"/>
	<path fill="#FFFFFF" d="M46.6,7.2c0-4.3,2.8-7.2,6.8-7.2c1.4,0,2.6,0.4,4,1.3l0.4-1.1h0.6l-0.2,4.1h-0.9c0-2.3-1.9-3.3-3.8-3.3
		c-2.9,0-4.6,2.3-4.6,6.2c0,3.8,1.6,5.9,4.6,5.9c2.3,0,3.6-1.2,3.6-2.5c0-1.4-0.5-1.8-1.8-1.8V8.1h5v0.7c-1.2,0-1.5,0.4-1.5,1.6v2
		c-0.9,0-1.4,0.1-2.7,0.9c-0.8,0.5-1.9,0.8-3.2,0.8C49.1,14,46.6,11.4,46.6,7.2z"/>
	<path fill="#FFFFFF" d="M75,11c0,1.8,0.3,2.1,1.9,2.1v0.7h-5.7v-0.7c1.7-0.1,1.9-0.4,1.9-2V7.3H66V11c0,1.8,0.3,2.1,1.9,2.1v0.7
		h-5.7v-0.7c1.7-0.1,1.9-0.4,1.9-2V2.9c0-1.6-0.2-1.9-1.8-2V0.2h5.4v0.7C66.2,0.9,66,1.2,66,3v3.4h7.2V2.9c0-1.6-0.2-1.9-1.8-2V0.2
		h5.4v0.7C75.3,0.9,75,1.2,75,3V11z"/>
	<path fill="#FFFFFF" d="M82.9,10.5c0,2.3,0.3,2.6,1.9,2.7v0.7H79v-0.7c1.7-0.1,1.9-0.4,1.9-2.6V3.4c0-2-0.2-2.5-1.8-2.6V0.2h5.4
		v0.7c-1.5,0.1-1.8,0.5-1.8,2.7V10.5z"/>
	<path fill="#FFFFFF" d="M98.3,13.8H86.8v-0.7c1.7-0.1,1.9-0.4,1.9-2V2.9c0-1.6-0.2-1.9-1.8-2V0.2h5.4v0.7c-1.5,0.1-1.8,0.4-1.8,2.1
		v7.6c0,2,0.7,2.4,3.2,2.4c2.7,0,3.6-0.5,4.1-2.7h0.7L98.3,13.8z"/>
	<path fill="#FFFFFF" d="M111.6,13.8h-11.4v-0.7c1.7-0.1,1.9-0.4,1.9-2V2.9c0-1.6-0.2-1.9-1.8-2V0.2h5.4v0.7
		C104.2,0.9,104,1.2,104,3v7.6c0,2,0.7,2.4,3.2,2.4c2.7,0,3.6-0.5,4.1-2.7h0.7L111.6,13.8z"/>
	<path fill="#FFFFFF" d="M131.8,11.1l2.8-7.7c0.3-0.9,0.5-1.4,0.5-1.8c0-0.6-0.4-0.8-1.3-0.8V0.2h4.3v0.7c-1.1,0-1.6,0.4-1.9,1.4
		L131.6,14H131l-3.4-10.1L123.8,14h-0.6l-3.7-10.2c-0.8-2.3-1.3-3-2.7-3V0.2h5.8v0.7c-1.2,0-1.6,0.2-1.6,0.8c0,0.3,0.1,0.7,0.3,1.2
		l2.7,8.2l2.2-6.1c0.3-0.9,0.7-1.7,0.9-2.4c-0.6-1.4-1.1-1.7-1.8-1.7V0.2h5.4v0.7c-1.4,0-1.6,0.2-1.6,0.7c0,0.4,0.1,0.8,0.4,1.6
		L131.8,11.1z"/>
	<path fill="#FFFFFF" d="M146.4,7.2l3.9,4.7c0.6,0.8,1.4,1.1,2.4,1.2v0.7h-3.4L145,8.3c-0.6-0.8-1-0.9-2.1-0.9V11
		c0,1.8,0.3,2.1,2.4,2.1v0.7h-6.3v-0.7c1.7-0.1,1.9-0.4,1.9-2V2.9c0-1.6-0.2-1.9-1.8-2V0.2h5.6c3.2,0,5.1,1.3,5.1,3.4
		C150,5.5,148.9,6.8,146.4,7.2z M142.9,6.5h1.3c2.3,0,3.5-0.8,3.5-2.8c0-1.9-0.9-2.7-2.8-2.7h-1.6c-0.2,0-0.3,0.1-0.3,0.3V6.5z"/>
	<path fill="#FFFFFF" d="M157.3,10.5c0,2.3,0.3,2.6,1.9,2.7v0.7h-5.7v-0.7c1.7-0.1,1.9-0.4,1.9-2.6V3.4c0-2-0.2-2.5-1.8-2.6V0.2h5.4
		v0.7c-1.5,0.1-1.8,0.5-1.8,2.7V10.5z"/>
	<path fill="#FFFFFF" d="M174.4,3.6h-0.7c-0.2-2.1-1-2.6-3-2.6c-1.8,0-2,0.1-2,0.5V11c0,1.5,0.3,2.1,2.3,2.2v0.7h-6.7v-0.7
		c2-0.1,2.3-0.7,2.3-2.2V1.5c0-0.4-0.2-0.5-1.7-0.5c-1.8,0-3.2,0.1-3.3,2.6h-0.7V0.2h13.4L174.4,3.6z"/>
	<path fill="#FFFFFF" d="M179.8,10.5c0,2.3,0.3,2.6,1.9,2.7v0.7H176v-0.7c1.7-0.1,1.9-0.4,1.9-2.6V3.4c0-2-0.2-2.5-1.8-2.6V0.2h5.4
		v0.7c-1.5,0.1-1.8,0.5-1.8,2.7V10.5z"/>
	<path fill="#FFFFFF" d="M195.3,14l-8.4-11.1h-0.1v7.6c0,2.3,0.2,2.6,1.8,2.7v0.7h-4.8v-0.7c1.7-0.1,1.9-0.4,1.9-2.6V3.4
		c0-2-0.2-2.5-1.8-2.6V0.2h3.5l7.7,10.3h0.1v-7c0-2.3-0.2-2.6-1.8-2.7V0.2h4.8v0.7c-1.7,0.1-1.9,0.4-1.9,2.6V14H195.3z"/>
	<path fill="#FFFFFF" d="M200.3,7.2c0-4.3,2.8-7.2,6.8-7.2c1.4,0,2.6,0.4,4,1.3l0.4-1.1h0.6l-0.2,4.1H211c0-2.3-1.9-3.3-3.8-3.3
		c-2.9,0-4.6,2.3-4.6,6.2c0,3.8,1.6,5.9,4.6,5.9c2.3,0,3.6-1.2,3.6-2.5c0-1.4-0.5-1.8-1.8-1.8V8.1h5v0.7c-1.2,0-1.5,0.4-1.5,1.6v2
		c-0.9,0-1.4,0.1-2.7,0.9c-0.8,0.5-1.9,0.8-3.2,0.8C202.8,14,200.3,11.4,200.3,7.2z"/>
	<path fill="#FFFFFF" d="M221.3,9.7h0.7c0.3,2.1,1.9,3.4,4,3.4c1.7,0,2.8-0.9,2.8-2.3c0-1.2-0.7-1.9-3.1-2.9
		c-2.9-1.3-3.8-2.3-3.8-4.1c0-2.2,1.6-3.8,4-3.8c1,0,1.9,0.3,2.8,1l0.5-0.8h0.4l0.2,3.5H229c-0.6-1.9-1.7-2.9-3.2-2.9
		c-1.4,0-2.4,0.8-2.4,2c0,1.1,0.7,1.8,2.7,2.7c3.5,1.6,4.5,2.6,4.5,4.4c0,2.4-2,4-4.8,4c-1.3,0-2.4-0.4-3.5-1.2l-0.5,0.9h-0.4
		L221.3,9.7z"/>
	<path fill="#FFFFFF" d="M244.3,0.2h0.5l0.2,4.1h-0.7c-0.5-2.1-2.1-3.3-4.2-3.3c-2.9,0-4.6,2.3-4.6,6.2c0,3.8,1.6,5.9,4.6,5.9
		c2.3,0,3.8-1.2,4.4-3.6h0.7v4.4h-0.6l-0.4-1.4c-1.3,1.1-2.7,1.6-4.5,1.6c-4,0-6.6-2.6-6.6-6.8c0-4.3,2.8-7.2,6.8-7.2
		c1.4,0,2.6,0.4,4,1.3L244.3,0.2z"/>
	<path fill="#FFFFFF" d="M260.4,11c0,1.8,0.3,2.1,1.9,2.1v0.7h-5.7v-0.7c1.7-0.1,1.9-0.4,1.9-2V7.3h-7.2V11c0,1.8,0.3,2.1,1.9,2.1
		v0.7h-5.7v-0.7c1.7-0.1,1.9-0.4,1.9-2V2.9c0-1.6-0.2-1.9-1.8-2V0.2h5.4v0.7c-1.5,0.1-1.8,0.4-1.8,2.1v3.4h7.2V2.9
		c0-1.6-0.2-1.9-1.8-2V0.2h5.4v0.7c-1.5,0.1-1.8,0.4-1.8,2.1V11z"/>
	<path fill="#FFFFFF" d="M279.1,7.1c0,3.8-3.3,6.9-7.4,6.9s-7.4-3-7.4-6.9c0-4,3.2-7.1,7.4-7.1S279.1,3.1,279.1,7.1z M276.8,7.2
		c0-3.8-1.9-6.2-5.1-6.2s-5.1,2.4-5.1,6.2c0,3.6,1.9,5.9,5.1,5.9C274.9,13,276.8,10.8,276.8,7.2z"/>
	<path fill="#FFFFFF" d="M296.3,7.1c0,3.8-3.3,6.9-7.4,6.9s-7.4-3-7.4-6.9c0-4,3.2-7.1,7.4-7.1S296.3,3.1,296.3,7.1z M294,7.2
		c0-3.8-1.9-6.2-5.1-6.2c-3.1,0-5.1,2.4-5.1,6.2c0,3.6,1.9,5.9,5.1,5.9C292.1,13,294,10.8,294,7.2z"/>
	<path fill="#FFFFFF" d="M309.8,13.8h-11.4v-0.7c1.7-0.1,1.9-0.4,1.9-2V2.9c0-1.6-0.2-1.9-1.8-2V0.2h5.4v0.7
		c-1.5,0.1-1.8,0.4-1.8,2.1v7.6c0,2,0.7,2.4,3.2,2.4c2.7,0,3.6-0.5,4.1-2.7h0.7L309.8,13.8z"/>
</g>
<g>
</g>
<g>
</g>
<g>
</g>
<g>
</g>
<g>
</g>
<g>
</g>
</svg>
