<?xml version="1.0" encoding="utf-8"?>
<!-- Generator: Adobe Illustrator 16.0.3, SVG Export Plug-In . SVG Version: 6.00 Build 0)  -->
<!DOCTYPE svg PUBLIC "-//W3C//DTD SVG 1.1//EN" "http://www.w3.org/Graphics/SVG/1.1/DTD/svg11.dtd">
<svg version="1.1" xmlns="http://www.w3.org/2000/svg" xmlns:xlink="http://www.w3.org/1999/xlink" x="0px" y="0px"
	 width="307.875px" height="40.155px" viewBox="0 0 307.875 40.155" enable-background="new 0 0 307.875 40.155"
	 xml:space="preserve">
<g id="Layer_1" display="none">
	<rect display="inline" width="307.875" height="40.155"/>
	<g display="inline">
		<path fill="#FFFFFF" d="M159.283,13.282h9.502v2.881h-6.382v2.88h5.901v2.881h-5.901v5.521h-3.12V13.282z"/>
		<path fill="#FFFFFF" d="M174.284,13.282h2.58l6.161,14.163h-3.521l-1.22-3h-5.502l-1.18,3h-3.44L174.284,13.282z M175.484,17.403
			l-1.721,4.401h3.461L175.484,17.403z"/>
		<path fill="#FFFFFF" d="M185.043,16.043h-4.041v-2.761h11.203v2.761h-4.041v11.402h-3.121V16.043z"/>
		<path fill="#FFFFFF" d="M193.482,13.282h3.12v5.281h6.062v-5.281h3.121v14.163h-3.121v-6.121h-6.062v6.121h-3.12V13.282z"/>
		<path fill="#FFFFFF" d="M208.482,13.282h9.622v2.881h-6.502v2.64h6.142v2.881h-6.142v2.881h6.861v2.88h-9.981V13.282z"/>
		<path fill="#FFFFFF" d="M220.662,13.282h5.481c2.9,0,5.341,1,5.341,4.301c0,1.98-1.061,3.521-3.061,3.881l3.601,5.981h-3.741
			l-2.96-5.661h-1.541v5.661h-3.12V13.282z M223.782,19.144h1.841c1.141,0,2.62-0.04,2.62-1.581c0-1.42-1.28-1.64-2.42-1.64h-2.041
			V19.144z"/>
		<path fill="#FFFFFF" d="M240.323,16.743c-0.5-0.64-1.5-0.94-2.26-0.94c-0.881,0-2.101,0.4-2.101,1.46
			c0,2.581,6.521,0.92,6.521,5.881c0,3.161-2.541,4.661-5.462,4.661c-1.82,0-3.42-0.54-4.761-1.78l2.221-2.44
			c0.64,0.84,1.681,1.34,2.721,1.34c1.021,0,2.16-0.48,2.16-1.48c0-2.601-6.642-1.2-6.642-5.921c0-3.021,2.621-4.601,5.401-4.601
			c1.601,0,3.141,0.42,4.341,1.48L240.323,16.743z"/>
		<path fill="#FFFFFF" d="M244.502,13.282h4.681c4.562,0,8.382,1.94,8.382,7.122c0,4.581-3.74,7.042-7.962,7.042h-5.101V13.282z
			 M247.622,24.565h1.621c2.9,0,5.081-1.101,5.081-4.321c0-2.78-2.221-4.081-4.861-4.081h-1.841V24.565z"/>
		<path fill="#FFFFFF" d="M264.043,13.282h2.58l6.161,14.163h-3.521l-1.22-3h-5.502l-1.18,3h-3.44L264.043,13.282z M265.243,17.403
			l-1.721,4.401h3.461L265.243,17.403z"/>
		<path fill="#FFFFFF" d="M275.542,21.404l-5.321-8.122h3.881l3.001,5.301l3.181-5.301h3.701l-5.321,8.122v6.042h-3.121V21.404z"/>
	</g>
	<g display="inline">
		<path fill="#FFFFFF" d="M38.293,13.337h1.36L45.615,27.5h-1.48l-1.541-3.761h-7.501l-1.6,3.761h-1.38L38.293,13.337z
			 M38.913,14.777l-3.301,7.762h6.501L38.913,14.777z"/>
		<path fill="#FFFFFF" d="M47.352,13.337h4.081c2,0,4.561,0.78,4.561,3.741c0,2.561-2.04,3.701-4.261,3.701h-3.061V27.5h-1.32
			V13.337z M48.672,19.578h3c1.5,0,3.001-0.64,3.001-2.5c0-1.82-1.561-2.541-3.081-2.541h-2.92V19.578z"/>
		<path fill="#FFFFFF" d="M58.532,13.337h4.081c2,0,4.561,0.78,4.561,3.741c0,2.561-2.04,3.701-4.261,3.701h-3.061V27.5h-1.32
			V13.337z M59.852,19.578h3c1.5,0,3.001-0.64,3.001-2.5c0-1.82-1.561-2.541-3.081-2.541h-2.92V19.578z"/>
		<path fill="#FFFFFF" d="M69.712,13.337h1.32V26.3h6.602v1.2h-7.922V13.337z"/>
		<path fill="#FFFFFF" d="M80.333,21.399l-5.201-8.062h1.581l4.281,6.722l4.381-6.722h1.48l-5.201,8.062V27.5h-1.32V21.399z"/>
		<path fill="#FFFFFF" d="M104.935,25.279c-1.34,1.841-3.181,2.581-5.261,2.581c-4.321,0-7.322-3.121-7.322-7.441
			s3.001-7.441,7.322-7.441c1.92,0,3.641,0.64,4.881,2.22l-1.08,0.9c-0.88-1.32-2.38-1.92-3.801-1.92
			c-3.701,0-6.001,2.721-6.001,6.241c0,3.521,2.301,6.241,6.001,6.241c1.42,0,3.181-0.68,4.181-2.2L104.935,25.279z"/>
		<path fill="#FFFFFF" d="M113.453,12.977c4.321,0,7.322,3.121,7.322,7.441s-3.001,7.441-7.322,7.441s-7.322-3.121-7.322-7.441
			S109.132,12.977,113.453,12.977z M113.453,26.66c3.701,0,6.001-2.72,6.001-6.241c0-3.521-2.301-6.241-6.001-6.241
			s-6.001,2.721-6.001,6.241C107.452,23.939,109.752,26.66,113.453,26.66z"/>
		<path fill="#FFFFFF" d="M123.252,13.337h4.381c7.362,0,7.662,6.042,7.662,7.082s-0.3,7.082-7.662,7.082h-4.381V13.337z
			 M124.572,26.3h2.721c3.761,0,6.681-1.82,6.681-5.881s-2.92-5.881-6.681-5.881h-2.721V26.3z"/>
		<path fill="#FFFFFF" d="M137.952,13.337h8.662v1.2h-7.341v5.041h6.881v1.2h-6.881V26.3h7.662v1.2h-8.982V13.337z"/>
		<path fill="#FFFFFF" d="M150.172,18.138c0.54,0,0.96,0.42,0.96,0.96s-0.42,0.96-0.96,0.96s-0.96-0.42-0.96-0.96
			S149.632,18.138,150.172,18.138z M150.172,25.7c0.54,0,0.96,0.42,0.96,0.96s-0.42,0.96-0.96,0.96s-0.96-0.42-0.96-0.96
			S149.632,25.7,150.172,25.7z"/>
	</g>
</g>
<g id="Layer_3">
	<rect fill="#40D31C" width="307.875" height="40.155"/>
	<g>
		<polygon fill="#FFFFFF" points="296.249,12.883 288.661,22.268 283.207,17.805 281.101,20.377 286.57,24.856 289.144,26.961 
			291.235,24.375 298.835,14.975 		"/>
	</g>
	<g>
		<path fill="#FFFFFF" d="M155.283,13.282h9.502v2.881h-6.382v2.88h5.901v2.881h-5.901v5.521h-3.12V13.282z"/>
		<path fill="#FFFFFF" d="M170.284,13.282h2.58l6.161,14.163h-3.521l-1.22-3h-5.502l-1.18,3h-3.44L170.284,13.282z M171.484,17.403
			l-1.721,4.401h3.461L171.484,17.403z"/>
		<path fill="#FFFFFF" d="M181.043,16.043h-4.041v-2.761h11.203v2.761h-4.041v11.402h-3.121V16.043z"/>
		<path fill="#FFFFFF" d="M189.482,13.282h3.12v5.281h6.062v-5.281h3.121v14.163h-3.121v-6.121h-6.062v6.121h-3.12V13.282z"/>
		<path fill="#FFFFFF" d="M204.482,13.282h9.622v2.881h-6.502v2.64h6.142v2.881h-6.142v2.881h6.861v2.88h-9.981V13.282z"/>
		<path fill="#FFFFFF" d="M216.662,13.282h5.481c2.9,0,5.341,1,5.341,4.301c0,1.98-1.061,3.521-3.061,3.881l3.601,5.981h-3.741
			l-2.96-5.661h-1.541v5.661h-3.12V13.282z M219.782,19.144h1.841c1.141,0,2.62-0.04,2.62-1.581c0-1.42-1.28-1.64-2.42-1.64h-2.041
			V19.144z"/>
		<path fill="#FFFFFF" d="M236.323,16.743c-0.5-0.64-1.5-0.94-2.26-0.94c-0.881,0-2.101,0.4-2.101,1.46
			c0,2.581,6.521,0.92,6.521,5.881c0,3.161-2.541,4.661-5.462,4.661c-1.82,0-3.42-0.54-4.761-1.78l2.221-2.44
			c0.64,0.84,1.681,1.34,2.721,1.34c1.021,0,2.16-0.48,2.16-1.48c0-2.601-6.642-1.2-6.642-5.921c0-3.021,2.621-4.601,5.401-4.601
			c1.601,0,3.141,0.42,4.341,1.48L236.323,16.743z"/>
		<path fill="#FFFFFF" d="M240.502,13.282h4.681c4.562,0,8.382,1.94,8.382,7.122c0,4.581-3.74,7.042-7.962,7.042h-5.101V13.282z
			 M243.622,24.565h1.621c2.9,0,5.081-1.101,5.081-4.321c0-2.78-2.221-4.081-4.861-4.081h-1.841V24.565z"/>
		<path fill="#FFFFFF" d="M260.043,13.282h2.58l6.161,14.163h-3.521l-1.22-3h-5.502l-1.18,3h-3.44L260.043,13.282z M261.243,17.403
			l-1.721,4.401h3.461L261.243,17.403z"/>
		<path fill="#FFFFFF" d="M271.542,21.404l-5.321-8.122h3.881l3.001,5.301l3.181-5.301h3.701l-5.321,8.122v6.042h-3.121V21.404z"/>
	</g>
	<g>
		<path fill="#FFFFFF" d="M20.605,25.279c-1.34,1.841-3.181,2.581-5.261,2.581c-4.321,0-7.322-3.121-7.322-7.441
			s3.001-7.441,7.322-7.441c1.92,0,3.641,0.64,4.881,2.22l-1.08,0.9c-0.88-1.32-2.38-1.92-3.801-1.92
			c-3.701,0-6.001,2.721-6.001,6.241c0,3.521,2.301,6.241,6.001,6.241c1.42,0,3.181-0.68,4.181-2.2L20.605,25.279z"/>
		<path fill="#FFFFFF" d="M29.124,12.977c4.321,0,7.322,3.121,7.322,7.441s-3.001,7.441-7.322,7.441s-7.322-3.121-7.322-7.441
			S24.803,12.977,29.124,12.977z M29.124,26.66c3.701,0,6.001-2.72,6.001-6.241c0-3.521-2.301-6.241-6.001-6.241
			s-6.001,2.721-6.001,6.241C23.123,23.939,25.423,26.66,29.124,26.66z"/>
		<path fill="#FFFFFF" d="M38.922,13.337h4.381c7.362,0,7.662,6.042,7.662,7.082s-0.3,7.082-7.662,7.082h-4.381V13.337z
			 M40.243,26.3h2.721c3.761,0,6.682-1.82,6.682-5.881s-2.921-5.881-6.682-5.881h-2.721V26.3z"/>
		<path fill="#FFFFFF" d="M53.623,13.337h8.662v1.2h-7.341v5.041h6.881v1.2h-6.881V26.3h7.662v1.2h-8.982V13.337z"/>
		<path fill="#FFFFFF" d="M74.423,13.337h1.36L81.745,27.5h-1.48l-1.541-3.761h-7.501l-1.6,3.761h-1.38L74.423,13.337z
			 M75.043,14.777l-3.301,7.762h6.501L75.043,14.777z"/>
		<path fill="#FFFFFF" d="M83.482,13.337h4.081c2,0,4.561,0.78,4.561,3.741c0,2.561-2.04,3.701-4.261,3.701h-3.061V27.5h-1.32
			V13.337z M84.802,19.578h3c1.5,0,3.001-0.64,3.001-2.5c0-1.82-1.561-2.541-3.081-2.541h-2.92V19.578z"/>
		<path fill="#FFFFFF" d="M94.662,13.337h4.081c2,0,4.561,0.78,4.561,3.741c0,2.561-2.04,3.701-4.261,3.701h-3.061V27.5h-1.32
			V13.337z M95.982,19.578h3c1.5,0,3.001-0.64,3.001-2.5c0-1.82-1.561-2.541-3.081-2.541h-2.92V19.578z"/>
		<path fill="#FFFFFF" d="M105.842,13.337h1.32V26.3h6.602v1.2h-7.922V13.337z"/>
		<path fill="#FFFFFF" d="M115.542,13.337h1.32V27.5h-1.32V13.337z"/>
		<path fill="#FFFFFF" d="M120.441,13.337h8.662v1.2h-7.341v5.041h6.881v1.2h-6.881V26.3h7.662v1.2h-8.982V13.337z"/>
		<path fill="#FFFFFF" d="M131.821,13.337h4.381c7.362,0,7.662,6.042,7.662,7.082s-0.3,7.082-7.662,7.082h-4.381V13.337z
			 M133.142,26.3h2.721c3.761,0,6.681-1.82,6.681-5.881s-2.92-5.881-6.681-5.881h-2.721V26.3z"/>
		<path fill="#FFFFFF" d="M147.181,18.138c0.54,0,0.96,0.42,0.96,0.96s-0.42,0.96-0.96,0.96s-0.96-0.42-0.96-0.96
			S146.641,18.138,147.181,18.138z M147.181,25.7c0.54,0,0.96,0.42,0.96,0.96s-0.42,0.96-0.96,0.96s-0.96-0.42-0.96-0.96
			S146.641,25.7,147.181,25.7z"/>
	</g>
	<g>
	</g>
	<g>
	</g>
	<g>
	</g>
	<g>
	</g>
	<g>
	</g>
	<g>
	</g>
</g>
</svg>
