<?xml version="1.0" encoding="utf-8"?>
<!-- Generator: Adobe Illustrator 16.0.3, SVG Export Plug-In . SVG Version: 6.00 Build 0)  -->
<!DOCTYPE svg PUBLIC "-//W3C//DTD SVG 1.1//EN" "http://www.w3.org/Graphics/SVG/1.1/DTD/svg11.dtd">
<svg version="1.1" xmlns="http://www.w3.org/2000/svg" xmlns:xlink="http://www.w3.org/1999/xlink" x="0px" y="0px"
	 width="296.583px" height="40.155px" viewBox="0 0 296.583 40.155" enable-background="new 0 0 296.583 40.155"
	 xml:space="preserve">
<g id="Layer_1">
	<rect fill="#3A52EB" width="296.583" height="40.155"/>
	<g>
		<path fill="#FFFFFF" d="M172.801,14.282h4.681c4.562,0,8.382,1.94,8.382,7.122c0,4.581-3.74,7.042-7.962,7.042h-5.101V14.282z
			 M175.921,25.565h1.621c2.9,0,5.081-1.101,5.081-4.321c0-2.78-2.221-4.081-4.861-4.081h-1.841V25.565z"/>
		<path fill="#FFFFFF" d="M187.801,14.282h9.622v2.881h-6.502v2.64h6.142v2.881h-6.142v2.881h6.861v2.88h-9.981V14.282z"/>
		<path fill="#FFFFFF" d="M200.101,14.282h3.12v11.283h5.781v2.88h-8.901V14.282z"/>
		<path fill="#FFFFFF" d="M222.362,22.984c0,3.34-2.04,5.821-5.961,5.821c-3.941,0-5.981-2.48-5.981-5.821v-8.702h3.12v8.582
			c0,1.74,1.201,3.061,2.861,3.061c1.64,0,2.84-1.32,2.84-3.061v-8.582h3.121V22.984z"/>
		<path fill="#FFFFFF" d="M228.461,21.044l-4.681-6.762h3.921l3.021,4.961l2.9-4.961h3.781l-4.581,6.702l5.121,7.461h-3.921
			l-3.461-5.701l-3.36,5.701H223.5L228.461,21.044z"/>
		<path fill="#FFFFFF" d="M239.2,14.282h9.622v2.881h-6.502v2.64h6.142v2.881h-6.142v2.881h6.861v2.88H239.2V14.282z"/>
	</g>
	<g>
		<path fill="#FFFFFF" d="M54.251,14.337h1.36L61.573,28.5h-1.48l-1.541-3.761H51.05l-1.6,3.761h-1.38L54.251,14.337z
			 M54.871,15.777l-3.301,7.762h6.501L54.871,15.777z"/>
		<path fill="#FFFFFF" d="M63.31,14.337h4.081c2,0,4.561,0.78,4.561,3.741c0,2.561-2.04,3.701-4.261,3.701H64.63V28.5h-1.32V14.337z
			 M64.63,20.578h3c1.5,0,3.001-0.64,3.001-2.5c0-1.82-1.561-2.541-3.081-2.541h-2.92V20.578z"/>
		<path fill="#FFFFFF" d="M74.49,14.337h4.081c2,0,4.561,0.78,4.561,3.741c0,2.561-2.04,3.701-4.261,3.701H75.81V28.5h-1.32V14.337z
			 M75.81,20.578h3c1.5,0,3.001-0.64,3.001-2.5c0-1.82-1.561-2.541-3.081-2.541h-2.92V20.578z"/>
		<path fill="#FFFFFF" d="M85.67,14.337h1.32V27.3h6.602v1.2H85.67V14.337z"/>
		<path fill="#FFFFFF" d="M96.291,22.399l-5.201-8.062h1.581l4.281,6.722l4.381-6.722h1.48l-5.201,8.062V28.5h-1.32V22.399z"/>
		<path fill="#FFFFFF" d="M120.892,26.279c-1.34,1.841-3.181,2.581-5.261,2.581c-4.321,0-7.322-3.121-7.322-7.441
			s3.001-7.441,7.322-7.441c1.92,0,3.641,0.64,4.881,2.22l-1.08,0.9c-0.88-1.32-2.38-1.92-3.801-1.92
			c-3.701,0-6.001,2.721-6.001,6.241c0,3.521,2.301,6.241,6.001,6.241c1.42,0,3.181-0.68,4.181-2.2L120.892,26.279z"/>
		<path fill="#FFFFFF" d="M129.411,13.977c4.321,0,7.322,3.121,7.322,7.441s-3.001,7.441-7.322,7.441s-7.322-3.121-7.322-7.441
			S125.09,13.977,129.411,13.977z M129.411,27.66c3.701,0,6.001-2.72,6.001-6.241c0-3.521-2.301-6.241-6.001-6.241
			s-6.001,2.721-6.001,6.241C123.409,24.939,125.71,27.66,129.411,27.66z"/>
		<path fill="#FFFFFF" d="M139.21,14.337h4.381c7.361,0,7.661,6.042,7.661,7.082s-0.3,7.082-7.661,7.082h-4.381V14.337z
			 M140.53,27.3h2.721c3.76,0,6.682-1.82,6.682-5.881s-2.922-5.881-6.682-5.881h-2.721V27.3z"/>
		<path fill="#FFFFFF" d="M153.909,14.337h8.662v1.2h-7.342v5.041h6.881v1.2h-6.881V27.3h7.662v1.2h-8.982V14.337z"/>
		<path fill="#FFFFFF" d="M166.13,19.138c0.539,0,0.959,0.42,0.959,0.96s-0.42,0.96-0.959,0.96c-0.541,0-0.961-0.42-0.961-0.96
			S165.589,19.138,166.13,19.138z M166.13,26.7c0.539,0,0.959,0.42,0.959,0.96s-0.42,0.96-0.959,0.96
			c-0.541,0-0.961-0.42-0.961-0.96S165.589,26.7,166.13,26.7z"/>
	</g>
</g>
<g id="Layer_5" display="none">
	<rect display="inline" fill="#40D31C" width="296.583" height="40.155"/>
	<g display="inline">
		<path fill="#FFFFFF" d="M167.269,14.103h4.681c4.562,0,8.382,1.94,8.382,7.122c0,4.581-3.74,7.042-7.962,7.042h-5.101V14.103z
			 M170.389,25.385h1.621c2.9,0,5.081-1.1,5.081-4.321c0-2.78-2.221-4.081-4.861-4.081h-1.841V25.385z"/>
		<path fill="#FFFFFF" d="M182.269,14.103h9.622v2.881h-6.502v2.641h6.142v2.88h-6.142v2.88h6.861v2.881h-9.981V14.103z"/>
		<path fill="#FFFFFF" d="M194.567,14.103h3.12v11.282h5.781v2.881h-8.901V14.103z"/>
		<path fill="#FFFFFF" d="M216.83,22.805c0,3.34-2.04,5.821-5.961,5.821c-3.941,0-5.981-2.48-5.981-5.821v-8.702h3.12v8.582
			c0,1.74,1.2,3.061,2.861,3.061c1.64,0,2.84-1.32,2.84-3.061v-8.582h3.121V22.805z"/>
		<path fill="#FFFFFF" d="M222.929,20.865l-4.681-6.762h3.921l3.021,4.961l2.9-4.961h3.781l-4.581,6.702l5.121,7.461h-3.921
			l-3.461-5.701l-3.36,5.701h-3.701L222.929,20.865z"/>
		<path fill="#FFFFFF" d="M233.668,14.103h9.622v2.881h-6.502v2.641h6.142v2.88h-6.142v2.88h6.861v2.881h-9.981V14.103z"/>
		<path fill="#FFFFFF" d="M245.388,25.085l5.501-4.941c0.56-0.52,1.26-1.121,1.26-1.98c0-0.96-0.819-1.541-1.74-1.541
			c-1.1,0-1.76,0.78-1.84,1.8l-3.001-0.22c0.18-2.921,2.221-4.341,5.001-4.341c2.581,0,4.581,1.42,4.581,4.261
			c0,1.82-0.78,2.86-1.86,3.801l-4.301,3.701h6.281v2.641h-9.882V25.085z"/>
		<path fill="#FFFFFF" d="M261.867,13.863c4.201,0,5.262,3.961,5.262,7.322s-1.061,7.322-5.262,7.322
			c-4.2,0-5.261-3.961-5.261-7.322S257.667,13.863,261.867,13.863z M261.867,25.746c2.161,0,2.261-3.081,2.261-4.561
			s-0.1-4.561-2.261-4.561c-2.16,0-2.26,3.081-2.26,4.561S259.707,25.746,261.867,25.746z"/>
		<path fill="#FFFFFF" d="M273.407,13.863c4.201,0,5.262,3.961,5.262,7.322s-1.061,7.322-5.262,7.322
			c-4.2,0-5.261-3.961-5.261-7.322S269.207,13.863,273.407,13.863z M273.407,25.746c2.161,0,2.261-3.081,2.261-4.561
			s-0.1-4.561-2.261-4.561c-2.16,0-2.26,3.081-2.26,4.561S271.247,25.746,273.407,25.746z"/>
	</g>
	<g display="inline">
		<polygon fill="#FFFFFF" points="328.207,14.039 320.619,23.423 315.165,18.959 313.059,21.533 318.528,26.01 321.102,28.117 
			323.193,25.53 330.793,16.129 		"/>
	</g>
	<g display="inline">
		<path fill="#FFFFFF" d="M32.524,26.099c-1.34,1.841-3.181,2.581-5.261,2.581c-4.321,0-7.322-3.121-7.322-7.441
			s3.001-7.441,7.322-7.441c1.92,0,3.641,0.64,4.881,2.22l-1.08,0.9c-0.88-1.32-2.38-1.92-3.801-1.92
			c-3.701,0-6.001,2.721-6.001,6.241c0,3.521,2.301,6.241,6.001,6.241c1.42,0,3.181-0.68,4.181-2.2L32.524,26.099z"/>
		<path fill="#FFFFFF" d="M41.043,13.796c4.321,0,7.322,3.121,7.322,7.441s-3.001,7.441-7.322,7.441s-7.322-3.121-7.322-7.441
			S36.722,13.796,41.043,13.796z M41.043,27.479c3.701,0,6.001-2.72,6.001-6.241c0-3.521-2.301-6.241-6.001-6.241
			s-6.001,2.721-6.001,6.241C35.042,24.759,37.342,27.479,41.043,27.479z"/>
		<path fill="#FFFFFF" d="M50.841,14.156h4.381c7.362,0,7.662,6.042,7.662,7.082s-0.3,7.082-7.662,7.082h-4.381V14.156z
			 M52.162,27.119h2.721c3.761,0,6.681-1.82,6.681-5.881s-2.92-5.881-6.681-5.881h-2.721V27.119z"/>
		<path fill="#FFFFFF" d="M65.542,14.156h8.662v1.2h-7.341v5.041h6.881v1.201h-6.881v5.521h7.662v1.2h-8.982V14.156z"/>
		<path fill="#FFFFFF" d="M86.342,14.156h1.36l5.961,14.163h-1.48l-1.541-3.761h-7.501l-1.6,3.761h-1.38L86.342,14.156z
			 M86.962,15.597l-3.301,7.762h6.501L86.962,15.597z"/>
		<path fill="#FFFFFF" d="M95.401,14.156h4.081c2,0,4.561,0.78,4.561,3.741c0,2.561-2.04,3.701-4.261,3.701h-3.061v6.721h-1.32
			V14.156z M96.722,20.397h3c1.5,0,3.001-0.64,3.001-2.5c0-1.82-1.561-2.541-3.081-2.541h-2.92V20.397z"/>
		<path fill="#FFFFFF" d="M106.581,14.156h4.081c2,0,4.561,0.78,4.561,3.741c0,2.561-2.04,3.701-4.261,3.701h-3.061v6.721h-1.32
			V14.156z M107.901,20.397h3c1.5,0,3.001-0.64,3.001-2.5c0-1.82-1.561-2.541-3.081-2.541h-2.92V20.397z"/>
		<path fill="#FFFFFF" d="M117.761,14.156h1.32v12.963h6.602v1.2h-7.922V14.156z"/>
		<path fill="#FFFFFF" d="M127.461,14.156h1.32v14.163h-1.32V14.156z"/>
		<path fill="#FFFFFF" d="M132.361,14.156h8.662v1.2h-7.341v5.041h6.881v1.201h-6.881v5.521h7.662v1.2h-8.982V14.156z"/>
		<path fill="#FFFFFF" d="M143.741,14.156h4.381c7.361,0,7.661,6.042,7.661,7.082s-0.3,7.082-7.661,7.082h-4.381V14.156z
			 M145.062,27.119h2.721c3.76,0,6.681-1.82,6.681-5.881s-2.921-5.881-6.681-5.881h-2.721V27.119z"/>
		<path fill="#FFFFFF" d="M159.101,18.958c0.54,0,0.96,0.42,0.96,0.96s-0.42,0.96-0.96,0.96s-0.961-0.42-0.961-0.96
			S158.561,18.958,159.101,18.958z M159.101,26.519c0.54,0,0.96,0.42,0.96,0.96s-0.42,0.96-0.96,0.96s-0.961-0.42-0.961-0.96
			S158.561,26.519,159.101,26.519z"/>
	</g>
</g>
</svg>
