<?xml version="1.0" standalone="no"?>
<!DOCTYPE svg PUBLIC "-//W3C//DTD SVG 20010904//EN"
 "http://www.w3.org/TR/2001/REC-SVG-20010904/DTD/svg10.dtd">
<svg version="1.0" xmlns="http://www.w3.org/2000/svg"
 width="700.000000pt" height="700.000000pt" viewBox="0 0 700.000000 700.000000"
 preserveAspectRatio="xMidYMid meet">
<metadata>
Created by potrace 1.11, written by Peter Selinger 2001-2013
</metadata>
<g transform="translate(0.000000,700.000000) scale(0.100000,-0.100000)"
fill="#000000" stroke="none">
<path d="M0 3500 l0 -3500 3500 0 3500 0 0 3500 0 3500 -3500 0 -3500 0 0
-3500z m2240 1810 l0 -100 -64 0 c-104 0 -217 -19 -273 -46 -72 -35 -96 -75
-95 -164 1 -83 17 -145 88 -348 30 -86 202 -577 380 -1091 179 -514 328 -941
333 -948 8 -15 798 2132 793 2157 -2 8 -27 65 -56 125 -92 193 -184 265 -382
300 -55 9 -105 19 -111 21 -9 2 -13 31 -13 99 l0 95 865 0 865 0 0 -99 0 -98
-87 -6 c-235 -18 -309 -80 -307 -257 1 -54 11 -125 28 -195 26 -110 654 -2133
666 -2148 7 -8 667 1870 722 2052 16 53 35 134 43 180 28 156 16 232 -44 292
-48 49 -118 69 -258 76 l-113 6 0 98 0 99 695 0 695 0 0 -100 0 -100 -47 0
c-68 0 -167 -26 -240 -62 -109 -53 -180 -128 -242 -256 -16 -31 -295 -787
-621 -1679 l-593 -1623 -218 0 -217 0 -205 623 c-113 342 -304 920 -423 1285
-120 364 -221 662 -224 662 -3 0 -210 -543 -459 -1207 -250 -665 -467 -1243
-483 -1285 l-30 -78 -202 0 -202 0 -514 1413 c-282 776 -539 1480 -572 1562
-113 285 -186 414 -289 509 -97 90 -176 120 -346 132 l-93 7 0 98 0 99 925 0
925 0 0 -100z"/>
</g>
</svg>
